



    


<svg version="1.1" id="Layer_1" xmlns="http://www.w3.org/2000/svg" xmlns:xlink="http://www.w3.org/1999/xlink" x="0px" y="0px" viewBox="0 0 603.5 430" style="enable-background:new 0 0 603.5 430;" xml:space="preserve" width="100%" height="100%">
<style type="text/css">
	.st0{fill:#FDFAD6;stroke:#020202;stroke-width:0.2;stroke-miterlimit:10;}
	.st1{fill:#DBECCB;stroke:#020202;stroke-width:0.2;stroke-miterlimit:10;}
	.st2{fill:#E8D0E5;stroke:#020202;stroke-width:0.2;stroke-miterlimit:10;}
	.st3{fill:#FBD1D1;stroke:#020202;stroke-width:0.2;stroke-miterlimit:10;}
	.st4{fill:#FDFAD6;}
	.st5{enable-background:new    ;}
</style>
		
			<path class="st0 area" d="M244.9,136.4c10.7,1,20.4,3.9,31.4,6.2s21.1-0.3,31.8,2.6c8.4,2.3,16.8,4.9,25.2,2.6
				c13.3-3.6,26.5-6.5,39.8-11.3c2.9-1.3,6.2-3.2,9.1-3.6c15.5-1,30.4-1,44-11c5.1-3.9,12.6-2.6,18.5-4.9
				c7.6-2.8,17.9-7.2,22.1-14.9c-29.8-7.8-63.5-18.1-77.1-29C373,59.8,308,27,299.3,22.6c-7.7-0.6-52.3-4-66.3-7.5
				c-14.1-3.5-46.7-3.5-83,0.2c-6.8,0.7-11.2,2.8-13.2,6.2c-4.7,8.2,3,25.1,7.2,34.2c1.4,3.2,2.7,5.9,3.3,7.8
				c2.7,8.2,49.4,28.1,66.9,35.6l3.9,1.7c8.7,3.7,14.2,9.4,16.2,16.8c1.6,5.7,0.8,11.6-0.7,16.5c0.8,0.2,1.7,0.3,2.6,0.5
				C239.1,135.1,242,136.4,244.9,136.4z" id="_x32_12" title="طالقان"></path>
		 
		
			<path class="st0 area" d="M267.6,333.8c1.3-2.9,4.9-4.9,6.2-7.8c1.9-5.5-4.9-8.4-7.1-13c-2.6-5.8,6.5-8.1,11.3-9.7
				c2.6-1,6.5-2.6,6.5-5.2c1.6-17.5-19.4-16.5-32.4-14.9c-2.3,0.3-4.2-1.6-6.1-2.6c-4.5-2.6-9.4-3.9-14.6-2.6
				c-6.5,1.3-11,6.5-17.5,7.8c-11.3,2.6-22.6,3.6-32.7-1.9c-4.9-2.6-8.1-7.1-12.3-10.7c-0.6-0.6-1.9-1.6-3.2-1.6
				c-13.6-1.3-26.6-4.5-38.6-12.3c-7.8-5.3-16.7-5.2-23.7-11.2c-0.6,0.6-1.1,1.2-1.7,1.8c-5.1,5.1-11.8,10.3-19,15.8
				C71,274.6,55.2,286.8,55.2,294c0,11.7-6.3,58.3-25.2,67.7c-5,2.5-8,7.5-8,13.5c0,5.9,3,11,8,13.5c13.2,6.6,34,23.8,40.1,28.9
				c4.8-0.2,15.3-0.8,27.7-1.3c-1.3-1.1-2.1-2.7-2-4.5c0.2-2.3,4.4-56.3,38.1-60.5c5.2-0.6,10.9-1.4,17-2.2
				c27.7-3.8,65.7-8.9,105.6-8.9c3.8,0,7.5,0,11.2-0.1C266.9,338.1,266.8,336,267.6,333.8z" id="_x32_28" title="اشتهارد"></path>
		 
		 
			<path class="st1 area" d="M243,249c0-0.3,1-0.6,1.3-1.3c0.6-3.6,2-7.4,5.2-9.7c0-0.3,0-1,0-1.3c1.6-2,4.5-2.3,5.8-4.5
				c1-2.9,1.6-5.8,2.6-8.7c3.2-8.1-6.1-11-13.6-10.4c-0.3,0-1.6-0.6-1.6-1c-0.6-2.3,0-4.9,1.3-6.8c1.6-2.3,2.9-5.8,1.3-7.8
				c-1.3-1.6-3.2,0.6-5.1,1.9c-2,1.3-4.9-1.3-5.8-3.5c-0.6-1.3,0-4.2,2.3-4.5c-0.6-1.6-1.9,0-2.6-0.6c-2-2.6-2.3-6.2-5.2-7.8
				c-0.3-0.3-0.3-1.6-0.6-1.9c-3.2-2.9-7.1-5.2-11-1.6c-1.3,1-1.6,2.6-2.3,4.2c-1,2.6-3.6,3.2-6.1,1.6c-5.5-3.2-12.6-2.6-15.9-8.7
				c-1.9-3.2-4.1-6.4-6.7-9c-3,1-6.2,1.9-9.5,2.7c-19,4.8-41.3,35.2-57.5,57.5c-6.1,8.4-11.5,15.7-15.8,20.5c7,6,16,5.9,23.8,11.2
				c12,7.8,24.9,11,38.5,12.3c1.3,0,2.6,1,3.2,1.6c4.2,3.6,7.5,8.1,12.3,10.7c10,5.5,21.4,4.5,32.7,1.9c6.5-1.3,11-6.5,17.5-7.8
				c2.3-0.6,4.5-0.6,6.6-0.3c1.4-2.1,2.5-4.5,3.4-6.8C243.6,263.9,243,256.5,243,249z" id="_x33_33" title="نظر آباد"></path>
		
		 
			<path class="st1 area" d="M566.6,115c-18.3,0-63.3-3.7-78.9-7.5l-3.5-0.9c-5.6-1.4-11.5-2.9-17.6-4.5c-4.2,7.6-14.4,12.1-22.1,14.9
				c-5.8,2.3-13.3,1-18.5,4.9c-2,1.5-4,2.7-6.1,3.8c-0.3,1.4-0.5,2.8-0.5,4.3c0,1-1,1.6-1.3,2.6c-0.3,6.5-1.3,13.6,1.3,19.1
				c4.9,10.4,6.8,23.6-4.5,28.5c-6.8,3.2-16.8,0-18.8,9.4c-0.6-0.3-1,0-1.3,0.7c-1.7,4.5-0.7,10.3-5.2,12
				c-6.5,2.3-14.3,0.7-18.8,7.8c-3.6,5.5-9.4,9.4-15.5,12c-0.3,0.3-1,0.6-0.6,1.3c-6.2,0.6-12.6,0-16.8,5.2c-1.3,2.3,0.3,5.2-1,6.8
				c-4.2,5.8-7.1,10.7-8.1,17.5c-0.3,3.2-6.8,6.2-5.2,11.3c2.6,7.4,11,3.2,15.9,7.1c1.6,1.3,0.3,4.2-2,5.5
				c-7.8,4.5-12.3,11-15.5,18.8c-0.6,1.3-1.9,3.2-3.6,3.2c-4.8,0.6-10-1.9-13.9,0.6c-4.5,3.2-9.4,2.9-13.9,1.3
				c-2.3-0.8-4.8-0.8-7.2-0.4c-1.2,1.5-3.8,2.6-5.7,3.3c-4.9,1.6-14,3.9-11.3,9.7c2.3,4.5,9.1,7.4,7.1,13c-1.3,2.9-4.9,4.9-6.2,7.8
				c-0.8,2.1-0.6,4.3,0.2,6.3c20-0.2,38.9-1,54.6-1.8c-0.4-1.1-0.8-2.1-1.3-3.2c0,0-1-0.3-1-0.6c-0.3-3.2-2.9-6.5-1.6-9.7
				c5.2-13,20.7-18.1,26.9-30.7c1.9-3.9,4.8-8.4,8.7-10.4c5.8-2.6,9.1,4.5,13.9,7.8c5.2,3.2,14.6-3.9,16.2,4.2
				c1.6,8.7-2.3,18.1,6.2,23.6c2.1,1.4,4.4,2.8,6.8,3.9c2.3-1.9,4.5-4.2,6.5-6.7c5.9-7.3,9.2-15.3,12.7-23.7
				c4.8-11.4,9.7-23.2,21.4-32.5c3.5-2.8,6.9-5.8,10.3-8.7c14.3-12.5,29.1-25.4,49.5-22c2.6,0.4,5.5,1,8.4,1.5
				c25.8,5,43.1,6.6,48.1-15.7c4.7-21.2,10.8-30.9,15.8-38.8c2.9-4.6,5.1-8.2,6.4-13.1c2.8-11.1,5.6-35.5,6.7-46
				C577,115.9,571.5,115,566.6,115z" id="_x33_46" title="کرج"></path>
		 
		 
			<path class="st2 area" d="M290.9,300.5c4.5,1.6,9.4,1.9,13.9-1.3c3.9-2.6,9.1,0,13.9-0.7c1.7,0,2.9-1.9,3.6-3.2
				c3.2-7.8,7.8-14.3,15.5-18.8c2.3-1.3,3.6-4.2,2-5.5c-4.9-3.9-13.3,0.3-15.9-7.1c-1.6-5.2,4.9-8.1,5.2-11.3
				c1-6.8,3.9-11.6,8.1-17.5c1.3-1.6-0.3-4.5,1-6.8c4.2-5.2,10.7-4.5,16.8-5.2c-0.3-0.6,0.3-1,0.6-1.3c6.1-2.6,12-6.5,15.5-12
				c4.5-7.1,12.3-5.5,18.8-7.8c4.5-1.6,3.5-7.4,5.2-12c0.3-0.7,0.6-1,1.3-0.7c1.9-9.4,12-6.1,18.8-9.4c11.3-4.9,9.4-18.1,4.5-28.5
				c-2.6-5.5-1.7-12.6-1.3-19.1c0.3-1,1.3-1.6,1.3-2.6c0-1.5,0.2-2.9,0.4-4.3c-11.9,6.3-24.7,6.4-38,7.2c-2.9,0.3-6.2,2.3-9.1,3.5
				c-13.3,4.9-26.5,7.8-39.8,11.3c-8.5,2.3-16.8-0.3-25.2-2.6c-10.7-2.9-20.8-0.3-31.8-2.6s-20.7-5.2-31.4-6.1
				c-2.9,0-5.8-1.3-8.7-1.9c-0.9-0.2-1.7-0.4-2.6-0.5c-2.1,6.7-5.6,11.6-5.8,12l-1.1,1.1c-0.7,0.6-15.8,12.5-40.6,20.5
				c2.6,2.7,4.8,5.8,6.7,9c3.2,6.2,10.4,5.5,15.9,8.7c2.6,1.6,5.1,1,6.1-1.6c0.7-1.6,1-3.2,2.3-4.2c3.9-3.6,7.8-1.3,11,1.6
				c0.3,0.3,0.3,1.6,0.6,1.9c2.9,1.6,3.2,5.2,5.2,7.8c0.7,0.6,2-1,2.6,0.6c-2.3,0.3-2.9,3.2-2.3,4.5c1,2.3,3.8,4.9,5.8,3.6
				c1.9-1.3,3.9-3.6,5.1-1.9c1.7,1.9,0.3,5.5-1.3,7.8c-1.3,1.9-1.9,4.5-1.3,6.8c0,0.3,1.3,1,1.6,1c7.4-0.6,16.8,2.3,13.6,10.3
				c-1,2.9-1.6,5.8-2.6,8.7c-1.3,2.3-4.2,2.6-5.8,4.5c0,0.3,0,1,0,1.3c-3.2,2.3-4.5,6.1-5.2,9.7c-0.3,0.6-1.3,1-1.3,1.3
				c0,7.4,0.6,14.9-1.6,22c-0.9,2.4-2,4.7-3.4,6.8c2.7,0.4,5.4,1.5,7.9,2.9c2,1,3.9,2.9,6.1,2.6c13-1.6,34-2.6,32.4,14.9
				c0,0.7-0.3,1.3-0.8,1.9C286.1,299.7,288.6,299.7,290.9,300.5z" id="_x33_32" title="ساوجبلاغ"></path>
		 
		 
			<path class="st3 area" d="M384.1,295.6c-1.6-8.1-11-1-16.2-4.2c-4.9-3.2-8.1-10.4-13.9-7.8c-3.9,1.9-6.8,6.5-8.7,10.3
				c-6.2,12.6-21.7,17.8-26.9,30.7c-1.3,3.2,1.3,6.5,1.6,9.7c0,0.3,1,0.6,1,0.6c0.5,1.1,0.9,2.1,1.3,3.2c6.2-0.3,11.9-0.6,17-0.9
				c9.8-0.5,16.8-0.9,20.6-0.9c4,0,22.4-0.7,37.2-13.4c-2.4-1.1-4.7-2.4-6.8-3.9C381.8,313.7,385.7,304.4,384.1,295.6z" id="_x39_99" title="فردیس"></path>

<rect y="71" class="st4 area" width="0" height="31.1" id="RECT_9" title=""></rect>
<g id="G_10" class="area active" title="">
	<path d="M285.6,99.1c0.1,0.3,0.1,0.6,0.1,0.9c0,0.4-0.1,0.7-0.2,1.1c-0.3,0.7-0.8,1.3-1.8,1.7c-0.8,0.3-1.6,0.5-2.5,0.5
		c-0.9,0-1.6-0.2-2.2-0.6c-0.6-0.5-0.9-1.1-0.9-2c0-0.5,0.1-0.9,0.3-1.5c0.2-0.4,0.3-0.7,0.5-0.9c0.1-0.1,0.2-0.1,0.2-0.1
		c0.1,0,0.1,0,0.1,0.1c0,0,0,0.1,0,0.2c-0.3,0.6-0.4,1.2-0.4,1.7c0,0.5,0.2,0.9,0.5,1.3c0.4,0.5,1.1,0.7,2,0.7c1,0,1.9-0.2,2.6-0.5
		c0.6-0.3,1-0.6,1.2-1c0.1-0.1,0.1-0.3,0.1-0.4c0-0.3-0.1-0.6-0.2-1c-0.1-0.3-0.4-0.8-0.9-1.6l0.4-0.8c0.1-0.1,0.1-0.2,0.1-0.2
		s0.1,0,0.1,0.1C285.2,97.5,285.5,98.3,285.6,99.1z M282.7,94.7l-0.8,0.8l-0.8-0.8l0.8-0.8L282.7,94.7z" id="PATH_11" class="area" title=""></path>
	<path d="M289.7,99.2H289c-0.7,0-1.3-0.3-1.5-0.9c-0.2-0.4-0.3-1.1-0.3-1.9v-1.9c0-0.9-0.1-2.2-0.2-3.9l0.6-0.7
		c0.1-0.1,0.2-0.1,0.2,0c0.1,0.9,0.2,2.2,0.2,3.9v2.9c0,0.8,0.4,1.2,1.2,1.2h0.5V99.2z" id="PATH_12" class="area" title=""></path>
	<path d="M295.1,99.2h-0.5c-0.3,0-0.7-0.1-1.2-0.2c-0.5-0.1-0.8-0.3-1.1-0.5c-0.6,0.4-1.4,0.6-2.4,0.6h-0.7V98h0.5
		c0.8,0,1.3-0.1,1.5-0.2c-0.4-0.3-0.6-0.7-0.6-1.1c0-0.4,0.2-0.9,0.5-1.5c0.4-0.6,0.8-1,1.3-1c0.5,0,0.8,0.3,1.1,0.8
		c0.2,0.4,0.3,0.9,0.3,1.4c0,0.6-0.2,1-0.7,1.4c0.3,0.1,0.7,0.2,1.4,0.2h0.4V99.2z M292.1,91.8l-0.8,0.8l-0.8-0.8l0.8-0.8
		L292.1,91.8z M293.3,96.6c0-0.2-0.1-0.5-0.3-0.8s-0.4-0.4-0.6-0.4c-0.2,0-0.4,0.1-0.7,0.3c-0.3,0.2-0.4,0.5-0.4,0.7
		c0,0.2,0.1,0.5,0.4,0.7c0.2,0.2,0.5,0.3,0.7,0.4c0.2,0,0.4-0.1,0.6-0.3C293.2,97.1,293.3,96.9,293.3,96.6z M293.8,91.8l-0.8,0.8
		l-0.8-0.8l0.8-0.8L293.8,91.8z" id="PATH_13" class="area" title=""></path>
	<path d="M297.4,91.3c0.1,0.1,0.1,0.2,0.1,0.2c0,0-0.1,0-0.2,0h-0.3c0.1,1.3,0.1,3.2,0.1,5.7c0,0.6-0.1,1.1-0.4,1.4
		c-0.3,0.4-0.8,0.6-1.3,0.6h-0.6V98h0.5c0.8,0,1.2-0.3,1.1-0.9c-0.1-2.1-0.2-4.3-0.3-6.5l0.7-0.6c0.1-0.1,0.2-0.2,0.2-0.2
		c0,0,0,0.1,0.1,0.2C297,90.3,297.1,90.7,297.4,91.3z" id="PATH_14" class="area" title=""></path>
	<path d="M301.4,99.2h-0.7c-0.7,0-1.3-0.3-1.5-0.9c-0.2-0.4-0.3-1.1-0.3-1.9v-1.9c0-0.9-0.1-2.2-0.2-3.9l0.6-0.7
		c0.1-0.1,0.2-0.1,0.2,0c0.1,0.9,0.2,2.2,0.2,3.9v2.9c0,0.8,0.4,1.2,1.2,1.2h0.5V99.2z" id="PATH_15" class="area" title=""></path>
	<path d="M309,96.5c0,1.1-0.6,1.9-1.8,2.3c-0.9,0.3-2.3,0.4-4.2,0.4h-2V98h1c0.3,0,0.5-0.1,0.6-0.2c0.1-0.1,0.1-0.3,0.1-0.6
		c0-0.4,0-1.2,0-2.2c-0.1-1.6-0.2-3.1-0.4-4.4l0.7-0.7c0.1-0.1,0.1-0.1,0.1-0.1c0,0,0.1,0.1,0.1,0.2c0.1,0.4,0.2,0.8,0.4,1.2
		c0,0.1,0.1,0.2,0.1,0.2c0,0-0.1,0-0.2,0h-0.3c0.1,1.8,0.1,2.9,0.1,3.2v1.1c0,0.4-0.1,1-0.3,1.7c0.1,0,0.3-0.2,0.8-0.6
		c0.5-0.5,1-0.9,1.4-1.2c0.7-0.4,1.3-0.6,1.9-0.6c0.5,0,0.9,0.1,1.2,0.4C308.8,95.6,309,96,309,96.5z M308.3,97.1
		c0-0.3-0.2-0.6-0.6-0.8c-0.3-0.2-0.7-0.3-1-0.3c-0.7,0-1.9,0.7-3.4,2c0.4,0,0.9,0.1,1.3,0.1c0.6,0,1.3-0.1,2-0.2
		C307.7,97.7,308.3,97.4,308.3,97.1z" id="PATH_16" class="area" title=""></path>
</g>
<g class="st5 area" id="G_17" title="">
	<path d="M446.9,209.8c-0.5,0.5-1,0.8-1.6,0.9c-0.5,0.1-1.1,0.2-1.8,0.2c-1.4,0-2.5-0.3-3.2-1c-0.5-0.5-0.8-1.2-0.8-2
		c0-1.9,1.3-3.4,3.8-4.4c-1.1-0.2-1.8-0.3-2.3-0.3c-0.2,0-0.5,0.1-0.9,0.4c-0.4,0.3-0.6,0.4-0.5,0.4c-0.1,0-0.1-0.1-0.1-0.3
		c0-0.3,0.2-0.6,0.4-0.9c0.3-0.5,0.8-0.8,1.4-0.8c0.5,0,1.2,0.1,2.1,0.3c0.9,0.2,1.7,0.3,2.2,0.3h0.7c0.2,0,0.3,0,0.3,0.1
		c0,0,0,0.1-0.1,0.2l-0.3,0.8c-0.5,0-1,0.1-1.7,0.2c-1,0.2-2,0.6-2.8,1.1c-1.1,0.7-1.6,1.5-1.6,2.4c0,0.9,0.4,1.5,1.3,2
		c0.7,0.3,1.5,0.5,2.5,0.5c1,0,1.9-0.1,2.7-0.3c0.1,0,0.1,0,0.2,0c0.1,0,0.1,0,0.1,0.1C447.1,209.6,447,209.7,446.9,209.8z
		 M444.4,207.1l-0.8,0.8l-0.8-0.8l0.8-0.8L444.4,207.1z" id="PATH_18" class="area" title=""></path>
	<path d="M452.9,206.5h-0.4c-0.4,0-0.6-0.1-0.8-0.2c0,0.1,0,0.2,0,0.3c0,0.9-0.3,1.8-0.9,2.7c-0.5,0.8-1,1.1-1.3,1.1
		c-0.8,0-1.4,0-2-0.1c-0.2,0-0.3-0.1-0.3-0.1s0.1-0.1,0.3-0.1c0.8-0.2,1.6-0.6,2.4-1.2c0.8-0.7,1.3-1.4,1.3-2.1c0-0.4-0.3-1-1-1.7
		l0.5-0.9c0-0.1,0.1-0.1,0.1-0.1c0,0,0.1,0.1,0.1,0.1c0.3,0.4,0.5,0.7,0.7,0.8c0.3,0.2,0.7,0.4,1.1,0.4h0.3V206.5z" id="PATH_19" class="area" title=""></path>
	<path d="M459.1,197.2c0,0.2-0.2,0.6-0.4,1.1l-2.5,0.8c-1.1,0.4-1.9,0.7-2.3,0.9c0.8,0.8,1.3,1.4,1.6,1.7c0.5,0.7,0.8,1.3,0.9,2
		c0,0.5,0,1-0.2,1.4c-0.3,0.9-1.4,1.3-3.1,1.3h-0.5v-1.2h0.6c0.8,0,1.4,0,1.7-0.1c0.7-0.2,1.1-0.5,1.1-1c0-0.7-0.5-1.5-1.6-2.5
		L454,202c-0.1-0.1-0.3-0.3-0.5-0.6c-0.3-0.3-0.4-0.6-0.4-0.6c0-0.2,0-0.4,0.1-0.8c0.1-0.4,0.2-0.6,0.3-0.7c0.1-0.1,0.8-0.4,2.1-0.8
		C457,197.9,458.2,197.5,459.1,197.2z" id="PATH_20" class="area" title=""></path>
</g>
<g class="st5 area" id="G_21" title="">
	<path d="M286.4,203.1c-0.7,0.7-1.7,1-3.2,1c-1,0-1.8-0.2-2.5-0.7c-0.7-0.5-1.1-1.3-1.1-2.2c0-1.4,0.8-2.6,2.3-3.5
		c-0.8-0.4-1.2-0.9-1.2-1.5c0-0.5,0.2-1.1,0.7-1.6c0.5-0.6,1.1-0.9,1.6-0.9c0.6,0,1.1,0.3,1.5,0.9c0.1,0.1,0.1,0.2,0.1,0.3
		c0,0,0,0.1-0.1,0.1c-0.1,0-0.1,0-0.3-0.1c-0.2-0.1-0.7-0.1-1.2-0.1c-0.3,0-0.6,0.1-1,0.3c-0.5,0.2-0.7,0.4-0.7,0.7
		c0,0.3,0.2,0.6,0.7,0.9c0.4,0.3,0.8,0.4,1.1,0.4c0.2,0,1-0.2,2.1-0.6c0.2,0,0.2-0.1,0.3-0.1c0,0,0,0,0,0c0,0,0,0.1-0.1,0.2
		l-0.3,0.9c-3.3,0.7-4.9,1.8-4.9,3.2c0,0.9,0.4,1.5,1.3,1.9c0.6,0.3,1.5,0.4,2.4,0.4c0.9,0,1.6-0.1,2.2-0.2c0.2-0.1,0.3-0.1,0.4-0.1
		c0,0,0.1,0,0.1,0C286.7,202.8,286.6,202.9,286.4,203.1z M283.7,191.2l-0.8,0.8l-0.8-0.8l0.8-0.8L283.7,191.2z" id="PATH_22" class="area" title=""></path>
	<path d="M294.9,199.7h-0.6c-1.2,0-1.9-0.9-1.9-2.7c0-0.2,0-0.5,0-0.9c-0.8,1.9-1.7,3.3-2.9,4.1c-0.7,0.2-1.6,0.3-2.6,0.3
		c-0.2,0-0.3,0-0.3,0c0,0,0.3-0.2,0.9-0.5c0.4-0.2,0.8-0.4,1.2-0.6c0.7-0.3,1.4-0.8,2-1.5c-0.3-1-0.7-1.9-1.3-2.7
		c-0.4-0.5-1-1.1-1.9-1.8l-0.1,0.4c-0.3-0.2-0.5-0.4-0.7-0.6c-0.3-0.3-0.5-0.5-0.5-0.7c0-0.2,0-0.5,0.1-1c0-0.1,0-0.2,0.1-0.2
		s0.1,0,0.2,0.1c1.3,0.9,2.3,1.8,2.9,2.6c0.8,1,1.3,2.1,1.6,3.4c0.4-0.5,0.7-1,0.9-1.6c0.3-0.7,0.4-1.3,0.4-1.8c0-0.9-0.1-1.9-0.2-3
		l0.8-0.7c0.1,0.5,0.1,2.8,0.2,6.9c0,0.9,0.4,1.4,1.2,1.4h0.5V199.7z" id="PATH_23" class="area" title=""></path>
	<path d="M299.8,199.7h-0.8c-0.9,0-1.5-0.3-1.9-0.9c-0.3,0.6-1,0.9-2.1,0.9h-0.6v-1.2h0.9c1,0,1.5-0.4,1.6-1.1
		c0-0.3,0.1-0.5,0.2-0.5c0.1,0,0.2,0.2,0.2,0.5c0.1,0.7,0.6,1.1,1.5,1.1h0.9V199.7z M297.7,201.9l-0.8,0.8l-0.8-0.8l0.8-0.8
		L297.7,201.9z" id="PATH_24" class="area" title=""></path>
	<path d="M307.7,196.8l-0.4,0.8c-0.7,0-1.3,0-1.6,0.1c-0.4,0.2-1,0.4-1.8,0.8c-0.8,0.4-1.4,0.7-1.8,0.8c-0.6,0.2-1.3,0.3-1.9,0.3
		h-0.7v-1.2h0.8c0.9,0,1.7-0.2,2.4-0.5l2.3-1c-0.4-0.1-1-0.3-1.8-0.6c-0.7-0.3-1.1-0.4-1.3-0.4c-0.4,0-0.8,0.2-1.2,0.5
		c-0.1,0.1-0.1,0.1-0.2,0.1c-0.1,0-0.1,0-0.1-0.1c0,0,0-0.1,0-0.1c0.3-1,0.9-1.4,1.7-1.4c0.3,0,0.7,0.1,1.1,0.3
		c0.8,0.4,1.4,0.6,1.8,0.8c0.7,0.2,1.5,0.4,2.4,0.4c0.2,0,0.3,0,0.3,0.1C307.8,196.6,307.7,196.7,307.7,196.8z M304.4,201.7
		l-0.8,0.8l-0.8-0.8l0.8-0.8L304.4,201.7z" id="PATH_25" class="area" title=""></path>
	<path d="M312.9,199.3c0,1.5-0.5,2.8-1.5,3.8c-0.3,0.3-0.5,0.5-0.6,0.5c-0.6,0-1.2-0.1-1.9-0.2c-0.3,0-0.4-0.1-0.4-0.1
		c0,0,0.1-0.1,0.4-0.2c0.8-0.2,1.6-0.7,2.3-1.3c0.3-0.3,0.6-0.5,0.8-0.9c0.3-0.4,0.5-0.8,0.5-1.1v-0.3l-1.3,0
		c-0.9,0-1.4-0.4-1.4-1.1c0-0.5,0.1-1,0.4-1.6c0.3-0.6,0.7-1,1.1-1c0.6,0,1.1,0.4,1.4,1.3C312.8,197.8,312.9,198.5,312.9,199.3z
		 M312.2,198.5c0-0.3-0.1-0.6-0.3-0.9c-0.2-0.3-0.5-0.5-0.8-0.5c-0.2,0-0.4,0.1-0.5,0.2c-0.2,0.2-0.2,0.3-0.2,0.5
		c0,0.5,0.3,0.7,1,0.7C311.5,198.6,311.8,198.5,312.2,198.5z" id="PATH_26" class="area" title=""></path>
	<path d="M316.9,199.7h-0.7c-0.7,0-1.3-0.3-1.5-0.9c-0.2-0.4-0.3-1.1-0.3-1.9V195c0-0.9-0.1-2.2-0.2-3.9l0.6-0.7
		c0.1-0.1,0.2-0.1,0.2,0c0.1,0.9,0.2,2.2,0.2,3.9v2.9c0,0.8,0.4,1.2,1.2,1.2h0.5V199.7z" id="PATH_27" class="area" title=""></path>
	<path d="M324.7,197.6c0,0.6-0.1,1.1-0.4,1.5c-0.3,0.4-0.8,0.7-1.3,0.7c-0.7,0-1.1-0.3-1.4-0.8c-0.4,0.6-0.8,0.8-1.4,0.8
		c-0.7,0-1.2-0.3-1.5-0.8c-0.4,0.6-0.9,0.8-1.6,0.8h-0.7v-1.2h0.8c0.7,0,1.2-0.4,1.3-1.2c0-0.2,0.1-0.3,0.2-0.3
		c0.1,0,0.1,0.1,0.2,0.3c0.1,0.8,0.5,1.2,1.3,1.2c0.4,0,0.8-0.1,1-0.3c0.1-0.2,0.2-0.4,0.3-0.8c0-0.2,0.1-0.3,0.2-0.3
		c0.1,0,0.1,0.1,0.2,0.3c0.1,0.8,0.5,1.2,1.2,1.2c0.8,0,1.1-0.2,1.1-0.5c0-0.3-0.2-0.7-0.6-1.1l0.5-0.9c0.1-0.1,0.1-0.2,0.2-0.2
		s0.1,0.1,0.2,0.2C324.6,196.6,324.7,197.1,324.7,197.6z" id="PATH_28" class="area" title=""></path>
</g>
<g class="st5 area" id="G_29" title="">
	<path d="M169.8,231.3c0,1.4-0.9,2.1-2.8,2.1c-0.7,0-1.2-0.1-1.5-0.3c-0.4-0.2-0.6-0.7-0.6-1.3c0-0.3,0.1-0.6,0.2-0.9
		c0.1-0.1,0.1-0.2,0.2-0.2c0.1,0,0.1,0.1,0.1,0.3c0,0.1,0,0.2,0,0.3c0,0.4,0.2,0.7,0.6,0.8c0.2,0.1,0.6,0.1,1.1,0.1
		c1.5,0,2.2-0.2,2.2-0.7c0-0.7-0.9-1.7-2.6-2.9l0.3-1c0-0.1,0.1-0.1,0.1-0.1c0,0,0.1,0,0.2,0.1C169,228.9,169.8,230.2,169.8,231.3z" id="PATH_30" class="area" title=""></path>
	<path d="M173.8,233.4h-0.7c-0.7,0-1.3-0.3-1.5-0.9c-0.2-0.4-0.3-1.1-0.3-1.9v-1.9c0-0.9-0.1-2.2-0.2-3.9l0.6-0.7
		c0.1-0.1,0.2-0.1,0.2,0c0.1,0.9,0.2,2.2,0.2,3.9v2.9c0,0.8,0.4,1.2,1.2,1.2h0.5V233.4z" id="PATH_31" class="area" title=""></path>
	<path d="M176.2,231.4c0,1.3-0.7,2-2,2h-0.8v-1.2h0.7c1,0,1.5-0.2,1.5-0.5c0-0.3-0.2-0.7-0.7-1.2l0.4-1c0-0.1,0.1-0.1,0.1-0.1
		c0,0,0.1,0.1,0.2,0.2C176,230.1,176.2,230.8,176.2,231.4z M175.8,235.6l-0.8,0.8l-0.8-0.8l0.8-0.8L175.8,235.6z" id="PATH_32" class="area" title=""></path>
	<path d="M180.2,222.7c-0.4,0.4-1,0.5-1.6,0.5c-0.1,0-0.2,0-0.4,0s-0.3,0-0.4,0c-0.1,0-0.2,0.1-0.3,0.2s-0.2,0.2-0.2,0.2
		c-0.1,0-0.1-0.1-0.1-0.2c0-0.1,0.1-0.3,0.2-0.5c0.1-0.3,0.2-0.4,0.3-0.4c0.1,0,0.3,0,0.6,0.1s0.5,0.1,0.6,0.1c0.6,0,1,0,1.3-0.1
		c0.2,0,0.3-0.1,0.3-0.1c0,0,0.1,0,0.1,0C180.4,222.5,180.3,222.6,180.2,222.7z M179.5,232.2c0,0.4-0.1,0.8-0.3,1.1
		c-0.1,0.2-0.2,0.3-0.2,0.3c0,0-0.1-0.1-0.1-0.4c0-1.2-0.2-4-0.6-8.5l0.8-0.8c0.1-0.1,0.1-0.1,0.1-0.1c0,0,0,0.1,0,0.2
		C179.5,225.3,179.5,228,179.5,232.2z" id="PATH_33" class="area" title=""></path>
	<path d="M186.3,233.4h-0.4c-0.4,0-0.6-0.1-0.8-0.2c0,0.1,0,0.2,0,0.3c0,0.9-0.3,1.8-0.9,2.7c-0.5,0.8-1,1.1-1.3,1.1
		c-0.8,0-1.4,0-2-0.1c-0.2,0-0.3-0.1-0.3-0.1s0.1-0.1,0.3-0.1c0.8-0.2,1.6-0.6,2.4-1.2c0.8-0.7,1.3-1.4,1.3-2.1c0-0.4-0.3-1-1-1.7
		l0.5-0.9c0-0.1,0.1-0.1,0.1-0.1c0,0,0.1,0.1,0.1,0.1c0.3,0.4,0.5,0.7,0.7,0.8c0.3,0.2,0.7,0.4,1.1,0.4h0.3V233.4z" id="PATH_34" class="area" title=""></path>
	<path d="M194.8,233.4h-0.4c-0.9,0-1.8-0.1-2.5-0.3c-0.9,0.2-2.2,0.3-3.9,0.3h-2v-1.2h1c0.3,0,0.5-0.1,0.6-0.2
		c0.1-0.1,0.1-0.3,0.1-0.6c0-0.4,0-1.2,0-2.2c-0.1-1.6-0.2-3.1-0.4-4.4l0.7-0.7c0.1-0.1,0.1-0.1,0.1-0.1c0,0,0.1,0.1,0.1,0.2
		c0.1,0.4,0.2,0.8,0.4,1.2c0,0.1,0.1,0.2,0.1,0.2c0,0-0.1,0-0.2,0h-0.3c0.1,1.8,0.1,2.9,0.1,3.2v1.1c0,0.4-0.1,1-0.3,1.7
		c0.1,0,0.3-0.2,0.8-0.6c0.5-0.5,1-0.9,1.4-1.2c0.7-0.4,1.3-0.6,1.9-0.6c0.5,0,0.9,0.1,1.2,0.4c0.4,0.3,0.5,0.6,0.5,1.1
		c0,0.7-0.2,1.2-0.7,1.6c0.1,0,0.3,0,0.6,0c0.3,0,0.4,0,0.6,0h0.4V233.4z M193.3,231.3c0-0.3-0.2-0.6-0.6-0.8
		c-0.3-0.2-0.7-0.3-1-0.3c-0.7,0-1.9,0.6-3.4,1.9c0.4,0,0.9,0.1,1.3,0.1c0.6,0,1.3-0.1,2-0.2C192.7,231.9,193.3,231.6,193.3,231.3z
		 M192.6,226.4l-0.8,0.8l-0.8-0.8l0.8-0.8L192.6,226.4z" id="PATH_35" class="area" title=""></path>
	<path d="M197.2,231.4c0,1.3-0.7,2-2,2h-0.8v-1.2h0.7c1,0,1.5-0.2,1.5-0.5c0-0.3-0.2-0.7-0.7-1.2l0.4-1c0-0.1,0.1-0.1,0.1-0.1
		c0,0,0.1,0.1,0.2,0.2C197,230.1,197.2,230.8,197.2,231.4z M197.1,226.9l-0.8,0.8l-0.8-0.8l0.8-0.8L197.1,226.9z" id="PATH_36" class="area" title=""></path>
</g>
<g class="st5 area" id="G_37" title="">
	<path d="M99.2,315.4c0,1.4-0.9,2.1-2.8,2.1c-0.7,0-1.2-0.1-1.5-0.3c-0.4-0.2-0.6-0.7-0.6-1.3c0-0.3,0.1-0.6,0.2-0.9
		c0.1-0.1,0.1-0.2,0.2-0.2c0.1,0,0.1,0.1,0.1,0.3c0,0.1,0,0.2,0,0.3c0,0.4,0.2,0.7,0.6,0.8c0.2,0.1,0.6,0.1,1.1,0.1
		c1.5,0,2.2-0.2,2.2-0.7c0-0.7-0.9-1.7-2.6-2.9l0.3-1c0-0.1,0.1-0.1,0.1-0.1c0,0,0.1,0,0.2,0.1C98.4,313,99.2,314.3,99.2,315.4z" id="PATH_38" class="area" title=""></path>
	<path d="M104.2,317.6c0,1-0.3,1.9-0.9,2.8c-0.5,0.7-1,1.1-1.3,1.1c-0.8,0-1.4,0-2-0.1c-0.2,0-0.3-0.1-0.3-0.1s0.1-0.1,0.3-0.1
		c0.8-0.2,1.6-0.6,2.4-1.2c0.8-0.7,1.3-1.4,1.3-2.1c0-0.4-0.3-1-1-1.7l0.5-0.9c0-0.1,0.1-0.1,0.1-0.1c0,0,0.1,0.1,0.1,0.1
		c0.2,0.3,0.5,0.7,0.6,1.2C104.1,316.8,104.2,317.2,104.2,317.6z" id="PATH_39" class="area" title=""></path>
	<path d="M108.2,317.5h-0.7c-0.7,0-1.3-0.3-1.5-0.9c-0.2-0.4-0.3-1.1-0.3-1.9v-1.9c0-0.9-0.1-2.2-0.2-3.9l0.6-0.7
		c0.1-0.1,0.2-0.1,0.2,0c0.1,0.9,0.2,2.2,0.2,3.9v2.9c0,0.8,0.4,1.2,1.2,1.2h0.5V317.5z" id="PATH_40" class="area" title=""></path>
	<path d="M114.4,317.5h-0.5c-0.4,0-0.8,0.1-1.1,0.2c-0.5,0.2-0.8,0.5-0.8,1c0,0.6,0.4,1.1,1.2,1.6l-0.5,1c-0.9-0.3-1.7-0.8-2.3-1.4
		c-0.8-0.7-1.2-1.6-1.2-2.5h-1.4v-1.2h1.3c0-0.8,0.2-1.6,0.6-2.6c0.4-0.9,0.7-1.3,0.9-1.3c0.2,0,0.5,0.4,0.8,1.3
		c0.3,0.8,0.4,1.3,0.4,1.6c0,1.4-0.7,2.1-2.1,2.1c0.1,0.4,0.3,0.8,0.6,1.2c0.3,0.4,0.7,0.7,1.1,0.9c0-0.1,0-0.3,0-0.4
		c0-0.7,0.2-1.3,0.5-1.8c0.5-0.7,1.1-1.1,2-1.1h0.4V317.5z M111.4,315.9c0-0.2-0.1-0.6-0.3-1.1c-0.2-0.6-0.4-0.8-0.6-0.8
		c-0.1,0-0.3,0.2-0.5,0.7c-0.2,0.5-0.3,1.1-0.3,1.7C110.8,316.3,111.4,316.2,111.4,315.9z" id="PATH_41" class="area" title=""></path>
	<path d="M119.3,317.5h-0.8c-0.9,0-1.5-0.3-1.9-0.9c-0.3,0.6-1,0.9-2.1,0.9H114v-1.2h0.9c1,0,1.5-0.4,1.6-1.1c0-0.3,0.1-0.5,0.2-0.5
		c0.1,0,0.2,0.2,0.2,0.5c0.1,0.7,0.6,1.1,1.5,1.1h0.9V317.5z M116,311.7l-0.8,0.8l-0.8-0.8l0.8-0.8L116,311.7z M117.7,311.7
		l-0.8,0.8l-0.8-0.8l0.8-0.8L117.7,311.7z" id="PATH_42" class="area" title=""></path>
	<path d="M127.2,315.4c0,0.6-0.1,1.1-0.4,1.5c-0.3,0.4-0.8,0.7-1.3,0.7c-0.7,0-1.1-0.3-1.4-0.8c-0.4,0.6-0.8,0.8-1.4,0.8
		c-0.7,0-1.2-0.3-1.5-0.8c-0.4,0.6-0.9,0.8-1.6,0.8h-0.7v-1.2h0.8c0.7,0,1.2-0.4,1.3-1.2c0-0.2,0.1-0.3,0.2-0.3
		c0.1,0,0.1,0.1,0.2,0.3c0.1,0.8,0.5,1.2,1.3,1.2c0.4,0,0.8-0.1,1-0.3c0.1-0.2,0.2-0.4,0.3-0.8c0-0.2,0.1-0.3,0.2-0.3
		c0.1,0,0.1,0.1,0.2,0.3c0.1,0.8,0.5,1.2,1.2,1.2c0.8,0,1.1-0.2,1.1-0.5c0-0.3-0.2-0.7-0.6-1.1l0.5-0.9c0.1-0.1,0.1-0.2,0.2-0.2
		s0.1,0.1,0.2,0.2C127.1,314.4,127.2,314.9,127.2,315.4z M123.9,311.7l-0.7,0.7l-0.7-0.7l0.7-0.7L123.9,311.7z M124.7,310.2
		l-0.7,0.7l-0.7-0.7l0.7-0.7L124.7,310.2z M125.6,311.7l-0.7,0.7l-0.7-0.7l0.7-0.7L125.6,311.7z" id="PATH_43" class="area" title=""></path>
	<path d="M129.6,316.3c0,0.4-0.1,0.8-0.3,1.1c-0.1,0.2-0.2,0.3-0.2,0.3c0,0-0.1-0.1-0.1-0.4c0-1.2-0.2-4-0.6-8.5l0.8-0.8
		c0.1-0.1,0.1-0.1,0.1-0.1c0,0,0,0.1,0,0.2C129.6,309.4,129.6,312.1,129.6,316.3z" id="PATH_44" class="area" title=""></path>
</g>
<g class="st5 area" id="G_45" title="">
	<path d="M352.4,318.3h-0.5c-0.7,0-1.1-0.3-1.4-0.8c-0.2,0.6-0.7,0.9-1.3,0.9c-0.6,0-1-0.3-1.3-0.9c-0.3,0.6-0.8,0.9-1.4,0.9
		c-0.2,0-0.5,0-0.7-0.1c0,0.6-0.1,1.2-0.1,1.9c-0.3,0.7-0.8,1.3-1.7,1.7c-0.8,0.3-1.6,0.5-2.5,0.5c-0.9,0-1.6-0.2-2.2-0.6
		c-0.6-0.5-0.9-1.1-0.9-2c0-0.5,0.1-0.9,0.3-1.5c0.2-0.4,0.3-0.7,0.5-0.9c0.1-0.1,0.2-0.1,0.2-0.1c0.1,0,0.1,0,0.1,0.1
		c0,0,0,0.1,0,0.2c-0.3,0.6-0.4,1.2-0.4,1.7c0,0.5,0.2,0.9,0.5,1.3c0.4,0.5,1.1,0.7,2,0.7c1,0,1.9-0.2,2.6-0.5c0.6-0.3,1-0.6,1.1-1
		c0.1-0.1,0.1-0.3,0-0.7c0-0.3-0.1-0.6-0.1-0.7c-0.1-0.3-0.4-0.8-1-1.5l0.4-0.8c0.1-0.1,0.1-0.2,0.1-0.2c0,0,0.1,0,0.1,0.2
		c0.3,0.4,0.5,0.7,0.6,0.8c0.3,0.3,0.6,0.4,1,0.4c0.4,0,0.8-0.1,1-0.4c0.1-0.2,0.2-0.4,0.3-0.9c0-0.2,0.1-0.3,0.2-0.3
		s0.1,0.1,0.2,0.3c0.1,0.8,0.5,1.3,1.1,1.3c0.7,0,1.2-0.4,1.2-1.2c0-0.2,0.1-0.3,0.2-0.3c0.1,0,0.2,0.1,0.2,0.3
		c0.1,0.8,0.5,1.2,1.2,1.2h0.6V318.3z" id="PATH_46" class="area" title=""></path>
	<path d="M354.8,316.3c0,1.3-0.7,2-2,2H352v-1.2h0.7c1,0,1.5-0.2,1.5-0.5c0-0.3-0.2-0.7-0.7-1.2l0.4-1c0-0.1,0.1-0.1,0.1-0.1
		s0.1,0.1,0.2,0.2C354.6,315,354.8,315.7,354.8,316.3z M354,320.5l-0.8,0.8l-0.8-0.8l0.8-0.8L354,320.5z M355.7,320.5l-0.8,0.8
		l-0.8-0.8l0.8-0.8L355.7,320.5z" id="PATH_47" class="area" title=""></path>
	<path d="M361.8,316.2c0,1.4-0.9,2.1-2.8,2.1c-0.7,0-1.2-0.1-1.5-0.3c-0.4-0.2-0.6-0.7-0.6-1.3c0-0.3,0.1-0.6,0.2-0.9
		c0.1-0.1,0.1-0.2,0.2-0.2c0.1,0,0.1,0.1,0.1,0.3c0,0.1,0,0.2,0,0.3c0,0.4,0.2,0.7,0.6,0.8c0.2,0.1,0.6,0.1,1.1,0.1
		c1.5,0,2.2-0.2,2.2-0.7c0-0.7-0.9-1.7-2.6-2.9l0.3-1c0-0.1,0.1-0.1,0.1-0.1c0,0,0.1,0,0.2,0.1C361,313.8,361.8,315.1,361.8,316.2z" id="PATH_48" class="area" title=""></path>
	<path d="M368,318.3h-0.4c-0.4,0-0.6-0.1-0.8-0.2c0,0.1,0,0.2,0,0.3c0,0.9-0.3,1.8-0.9,2.7c-0.5,0.8-1,1.1-1.3,1.1
		c-0.8,0-1.4,0-2-0.1c-0.2,0-0.3-0.1-0.3-0.1s0.1-0.1,0.3-0.1c0.8-0.2,1.6-0.6,2.4-1.2c0.8-0.7,1.3-1.4,1.3-2.1c0-0.4-0.3-1-1-1.7
		l0.5-0.9c0-0.1,0.1-0.1,0.1-0.1c0,0,0.1,0.1,0.1,0.1c0.3,0.4,0.5,0.7,0.7,0.8c0.3,0.2,0.7,0.4,1.1,0.4h0.3V318.3z" id="PATH_49" class="area" title=""></path>
	<path d="M371.9,315.5v0.4c0,0.7-0.1,1.1-0.3,1.4c-0.5,0.7-1.3,1-2.6,1h-1.4v-1.2h1c1.7,0,2.6-0.3,2.8-0.8c0-0.1,0-0.1,0-0.2
		c0-0.2,0-0.3-0.1-0.4c-0.4,0.1-0.9,0.1-1.3,0.1c-0.9,0-1.4-0.4-1.4-1.2c0-0.5,0.1-1.1,0.4-1.6c0.3-0.6,0.7-0.9,1.2-0.9
		c0.4,0,0.8,0.3,1.1,0.8C371.7,313.6,371.9,314.5,371.9,315.5z M370.8,310l-0.8,0.8l-0.8-0.8l0.8-0.8L370.8,310z M371.2,314.6
		c0-0.3-0.1-0.6-0.3-0.9s-0.5-0.4-0.8-0.4c-0.2,0-0.4,0.1-0.6,0.2s-0.2,0.3-0.2,0.5c0,0.4,0.3,0.6,1,0.6
		C370.5,314.7,370.8,314.7,371.2,314.6z" id="PATH_50" class="area" title=""></path>
</g>
</svg>

