<?xml version="1.0" encoding="UTF-8"?><svg id="Layer_1" xmlns="http://www.w3.org/2000/svg" viewBox="0 0 498.67 951.98"><defs><style>.cls-1{fill:#fdfad6;}.cls-1,.cls-2,.cls-3,.cls-4,.cls-5{stroke-miterlimit:16.46;stroke-width:.33px;}.cls-1,.cls-3,.cls-4,.cls-5{stroke:#020202;}.cls-2{fill:#d3d3d3;stroke:#030303;}.cls-3{fill:#dbeccb;}.cls-6{fill:#040404;}.cls-7{isolation:isolate;}.cls-4{fill:#fbd1d1;}.cls-5{fill:#e8d0e5;}</style></defs><path id="_152" class="cls-1" d="m152.85,106.99c5.24-2.31,1.38-13.04,7.15-23.07,6.61-11.5,21.41-14.31,25.75-15.13,14.87-2.82,26.58,2.88,30.25,4.85,9.72,4.55,19.43,9.1,29.15,13.65.11.12,1.87,2.02,4.42,1.58,2.09-.36,3.13-2.03,3.28-2.28.08-.52,1.74-9.85,9.9-13,4.19-1.62,8.02-.8,9.61-.36,3.8-1.38,7.59-2.76,11.39-4.14-15.03-15.67-30.07-31.33-45.1-47l-18.9-16.8-6.6-3.9-4.2-1.2-3.9,5-3.3,2.7-3.9,1.2-24.3-.6-7.5,2.1-6,3.9-18.2,17.5c-9.1,2.7-24.1,7.7-38.8,19.9-7.5,6.2-12.9,12.5-16.8,17.9,3.58,1.11,7.17,2.21,10.75,3.32,2.11-.2,4.23-.4,6.34-.61,3.94,2.83,7.87,5.66,11.81,8.48l-6.8,15.8c4.57,1.67,9.13,3.33,13.7,5,6.93.63,13.87,1.27,20.8,1.9,2.9,2.21,6.95,4.65,10,3.3Z"/><path id="_638" class="cls-1" d="m86.25,69.79s13.3,5.4,15.2,2.9,13.7,8.3,13.7,8.3l-6.8,15.8,13.7,5,20.8,1.9,10,3.3-4.2,25.7-8.94,29.8c-2.09,2.97-4.17,5.95-6.26,8.92-6.58,1.66-13.15,3.32-19.73,4.97-5.95-2.23-11.91-4.46-17.86-6.69l-8.5-2.7-1.3-23.1-5.8-17-18.5-15-24.1-14.5-9.3-5.4,6.2-5,20.4-9.1,21.6-5.2,9.7-2.9Z"/><path id="_151" class="cls-4" d="m121.95,189.09c7.7,3.9,12.7-1,19.7-3.9,0,3.9-1,7.9,1,10.6,8.7,11.8,22.6-6,30.3,0,18.5,14.7,41.1,17.6,61.5,7.9,3.9-1.9,8.7,5,12.7,3.9,8.3-2.3,15.8-6,23.1-9.3l-1-.8-7.5-9.6-4.2-10.4.6-12.5,6-10.8,9.3-8.1,10.4-5,20.1-3.9,16.4-10.2,11.4-3.3-7.1-13.5-8.7-11.4-21.8-18.5-10.4-11.2c-4.1,4.4-12.7,4.1-19.1,4.8-6,1-9.6,6.9-11.8,12.7-1,5-5,1.9-6,1-19.7-6.9-39.1-22.6-59.6-18.5-8.7,1.9-21.6,6-26.4,12.7-12.7,17.5-3.9,41.1-16.6,60.6-3.9,6-1.9,11.8-3.9,17.6-1.9,10.6-11.8,13.7-22.6,15.6h-2.3c-1.4,5.4,1.3,10.1,6.5,13.5Z"/><path id="_153" class="cls-3" d="m166.85,299.59c0,6-10.6,14.7-3.9,15.6,6.9,1,15.6,2.9,23.3,1,1-1,1-2.9,1.9-3.9,3.9-1.9,8.7,0,10.6-1.9,8.7-7.3,19.7-13.7,29.7-10.6l12.3-7.3.6-2.1v-2.7l1.2-2.7,58.6-9.3,12.9-7.5,3.3-4.2,2.1-4.2,1.7-5.4v-5.4l-1.7-4.2-9.3-18.9-5-4.2-18.5-7.1-17-15.4c-7.3,3.5-15,6.9-23.1,9.3-3.9,1-8.7-6-12.7-3.9-20.6,9.6-43,6.9-61.5-7.7-7.7-6-21.6,11.8-30.3,0-1.9-2.9-1-6.9-1-10.6-6.9,2.9-11.8,7.9-19.7,3.9-5-3.3-7.9-8.1-6.2-13.7-10-.4-17.5-7.5-26.8-8.5,1,10.4,2.3,24.1,3.7,36.4,2.3,22.4,4.2,41.8,4.2,46.3,0,2.3-.6,6.2-1.3,11-1.7,10.8-4.8,32-.2,40.3,23.5,2.3,49-2.4,72.1-2.4Z"/><path id="PATH_6" class="cls-2" d="m180.55,524.49c-1.2.4-2.1.6-3.1,1.2,1.7-.6,2.9-.6,3.1-.8l1.9-.6c-.5,0-1.3,0-1.9.2Z"/><path id="_148" class="cls-5" d="m204.15,524.49c3.9-5-2.9-10.6-1-15.6,3.9-8.7,15.6-11.8,19.7-19.7,2.9-6-3.9-12.7,0-16.6,6.9-8.7,16.6-11.8,23.5-21.6,5-6.9,15.6-7.7,22.6-13.7,1.9-1.9,3.9-6.9,1.9-7.9-7.9-6-11.8-17.6-3.9-19.7,9.6-1.9,18.5-3.9,26.4-7.7,5.8-2.9,11.6,1.7,18.3,1l-14.8-10.6-.6-6.6,1.7-7.1-2.9-8.7-3.9-3.3-41.9-18.9-21.2-15.2-6-10.8-.6-15.2,2.7-4.2,4.4-2.7c-10-3.3-20.8,3.3-29.7,10.6-1.9,1.9-6.9,0-10.6,1.9-1,1-1,2.9-1.9,3.9-7.7,1.9-16.6,0-23.3-1-6.9-1,3.9-9.6,3.9-15.6-23.1,0-48.6,4.8-71.6,1.7.6,1.4,1.7,2.3,2.9,2.9,17.5,8.9,12.9,23.1,11,28.5-2.9,8.3-18.3,12-26.4,9.8-3.9-1-7.1-1.4-9.3-1.5l-11.4,23.2c7.1,4.1,23.5,13.3,28.9,16.2,3.1,1.5,3.9,3.9,3.9,5.2.8,5-4.4,10-9.8,15.2-2.1,1.9-4.2,4-5.2,5.4-3.3,5-17.5,36.8-19.5,42.4-2.1,6.2-19.1,27-28.9,33-6.2,3.9-22.2,13.7-31.2,19.5,12.3,5.4,37,16.8,48.2,26.6,15.8,13.9,37.6,15.2,46.3,15.2,3.9,0,8.5.4,13.5.6,12.9,1,32.4,2.3,38-3.1,7.7-7.7,24.5-12.9,31.4-14.9,1-.6,1.9-.8,3.1-1.2.6,0,1.4-.2,1.9,0l2.3-.6.2.8c6.3,1.5,13.3,5.7,18.9.1Z"/><path id="_127" class="cls-3" d="m225.55,575.19c12.7,3.9,29.3,8.7,43,7.7,11.8,0,13.7-18.5,14.7-30.3,1-5,9.6-15.6,2.9-18.5-10.6-5-22.6,6-34.3-3.9-10.6-9.6-25.3,3.9-38.2,0-2.9-1.5-6.2-4-9.8-5.8-5.6,5.4-12.3,1.4-18.9,0l.6,3.7c0,.4,3.7,27.4,5.4,43.6.2,1.7.4,3.5.4,5,11-.3,23-4.7,34.2-1.5Z"/><path id="_112" class="cls-4" d="m325.25,434.39c1,1.9,1,5,0,6.9-16.6,15.6-14.7,39.9,6.9,47.8,7.7,1.9,16.6,5,21.6,11.8,7.9,9.6,6,24.5,17.6,30.3,10.6,5,17.5,11.8,29.3,13.7,1.9,0,6.9-1.9,7.7,0,7.7,9.5,17.5,15.2,28,17.4.6-6,1.3-10.6,1.5-12.3l-13.3-53.4c-.4-1.2,0-2.5.6-3.3l-6-.6h-1.7l-10.4-9.3-8.7-13.5-12-14.1-5-6-5.4-5.4-5-7.5-5.4-4.2-3.9-5-2.1-10.4-3.9-8.1h-7.5l-15.8,7.1h-9.6l-3.1-2.5c-1.2,6.4,1.7,14.5,5.6,20.6Z"/><path id="_111" class="cls-1" d="m299.95,595.89c1.9,1,5,0,6-1,7.7-7.7,14.7-23.3,26.4-18.5,12.7,6,11.8,18.5,1.9,30.3-2.9,3.9,3.9,7.9,7.7,11.8,2.9,3.9-1,6-2.9,9.6-1,3.9-1,9.6,1.9,10.6,8.7,2.9,17.6,3.9,26.4,8.7,8.7,5,15.6-6.9,23.5-8.7,8.5-2.3,17.2.8,24.7,5.2,12.5-12.5,17.2-30.5,17.2-40.1,0-7.3,2.3-27.8,3.9-41.7-10.4-1.9-20.4-7.9-28-17.4-1-1.9-6,0-7.9,0-11.8-1.9-18.5-8.7-29.3-13.7-11.8-6-9.6-20.6-17.6-30.3-5-6.9-13.7-9.6-21.6-11.8-21.6-7.9-23.3-32.2-6.9-47.8,1-1.9,1-5,0-6.9-3.9-6.4-6.8-14.3-5.2-21l-2.9-2.3-5-7.1-1-.8c-6.8.8-12.5-3.9-18.3-1-7.7,3.9-16.6,6-26.4,7.7-7.9,1.9-3.9,13.7,3.9,19.7,1.9,1,0,6-1.9,7.9-6.9,6-17.5,6.9-22.6,13.7-6.9,9.6-16.6,12.7-23.5,21.6-3.9,3.9,2.9,10.6,0,16.6-3.9,7.7-15.6,10.6-19.7,19.7-1.9,5,5,10.6,1,15.6l-.2.2c3.9,1.7,6.9,4.2,9.8,5.8,12.7,3.9,27.4-9.6,38.2,0,11.8,9.6,23.5-1,34.3,3.9,6.9,2.9-1.9,13.7-2.9,18.5-.6,7.3-1.7,17.7-5.2,24.1,7.2,6.5,13.5,14.4,22.2,18.9Z"/><path id="_113" class="cls-5" d="m286.05,695.59c2.9,1,8.7,5,10.6,1.9,3.9-6,6.9-13.7,10.6-14.7,19.7-6,25.3-19.7,29.3-38.2.6-2.7,1.9-4.4,3.9-6h0c-2.9-1-2.9-6.9-1.9-10.6,1.9-3.9,6-6,2.9-9.6-3.9-3.9-10.6-7.7-7.7-11.8,9.6-11.8,10.6-24.3-1.9-30.3-11.8-5-18.5,10.6-26.4,18.5-1,1-3.9,1.9-6,1-8.5-4.4-15-12.3-22-18.9-2.1,3.7-5,6.2-9.4,6.2-13.7,1-30.3-3.9-43-7.7-11.4-3.3-23.1,1-34.3,1.7.2,3.3,0,6.6,0,9.6-.4,9.8-.6,18.5,6.2,28.7,3.9,6.2,10,11.4,15.4,16.2,7.1,6.4,12.9,11.4,12.7,17.2,0,1.7-.6,4.2-3.7,6.6-9.6,7.5-9.5,10-9.3,10.2,0,0,.6,1.4,5.8,2.5,15,3.3,27.2,8.3,35.9,11.8l2.9,1.2c6,2.3,13.7,7.3,18.3,13.3,4-1.1,8-.6,11.1,1.2Z"/><path id="_130" class="cls-4" d="m492.25,916.19c0-18.3,0-33.9-7.3-43.8-2.7-3.7-5.6-7.1-8.7-10.6-6.2-7.3-12.3-14.9-16.2-22.6-7.7-15.2-22.4-40.7-31.4-47.4-12.9-9.6-15.4-28-6.6-45.7,7.3-14.7,2.3-26.8-5.4-42.4-.8-1.5-1.5-3.1-2.3-4.6-3.9-7.5-8.5-16.4-10.4-25.3-10.8.4-22.8,1.4-27,15-1,1.9-5,5-8.7,6.9-2.9,1.9-6.9,7.9-2.9,10.6,9.6,8.7,11.8,20.6,7.9,30.3-6,14.7-22.6,12.7-37.2,13.7-1.9,0-3.9,2.9-3.9,5,1,8.7,3.9,15.6-1.9,25.3-3.9,6.9,1.9,17.6-1.9,24.3-5,6.9-12.7,9.6-20.6,13.7-12.2,7.1-24.1,3.1-36.6,1.2.8,2.9,1.3,5.6,1.3,7.7,0,6.6,3.5,20.8,5,26.8l15,15,14.8,7.3,14.7,20.1,15.2,9.6c8.3-.8,18.1-.6,21.2,3.7,1.9,2.9,3.9,6.8,5,9.1l15.8,4.4.8,1.2c1,1.4,6.2,8.5,6.2,14.1,0,2.7,2.3,8.3,7.7,9.6,1.7.6,3.7,1.2,5.4,1.7,5.4,1.9,7.5,2.5,9.6.4,12.3-12.3,21.8-17.2,28.7-14.5,2.5,1,7.5,1.4,12.3,1.7,7.9.6,16,1,20.8,4.2,4.6,2.9,21.2-.2,27.8-3.9-2.9-5.6-6.2-12.7-6.2-21.8Z"/><path id="_128" class="cls-3" d="m307.65,818.59c7.7-3.9,15.6-6.9,20.6-13.7,3.9-6.9-1.9-17.6,1.9-24.3,6-9.6,2.9-16.6,1.9-25.3,0-1.9,1.9-5,3.9-5,14.7-1,31.2,1,37.2-13.7,3.9-9.6,1.9-21.6-7.9-30.3-3.9-2.9,0-8.7,2.9-10.6,3.9-1.9,7.7-5,8.7-6.9,4.2-13.7,16-14.7,27-15-1.9-9.6-.8-19.3,8.3-26.6,1.2-1,2.1-1.7,3.1-2.9-7.5-4.4-16.2-7.5-24.7-5.2-7.9,1.9-14.7,13.7-23.5,8.7-8.7-5-17.6-6-26.4-8.7-1.9,1.4-3.3,3.3-3.9,6-3.9,18.5-9.6,32.2-29.3,38.2-3.9,1-6.9,8.7-10.6,14.7-1.9,2.9-7.7-1-10.6-1.9-3.1-1.7-7.1-2.3-10.6-1.5,2.5,3.3,4.1,6.8,4.1,10.4,0,7.3-3.5,33.8-3.7,34.9l-.4,2.5-2.5.8c-.2,0-10.6,3.7-21.2,8.9-6,2.9-10.6,8.5-11.4,13.3-.4,2.3.2,4.1,1.7,5.4,7.5,7.5,18.3,25.3,18.7,26.2,1,1.7,7.3,13.5,10,23.3,12.4,1.6,24.6,5.4,36.7-1.7Z"/><g id="G_16" class="cls-7"><path id="PATH_17" class="cls-6" d="m262.75,552.09c0,.4.2.8.2,1.7"/></g><g id="G_27"><path id="PATH_28" d="m140.85,51.99c0,2.3-1.5,3.5-4.6,3.5-1.2,0-1.9-.2-2.5-.6s-1-1.2-1-2.1c0-.6.2-1,.4-1.5.2-.2.2-.4.4-.4s.2.2.2.6v.6c0,.6.4,1.2,1,1.3.4.2,1,.2,1.7.2,2.5,0,3.7-.4,3.7-1.2,0-1.2-1.5-2.9-4.2-4.8l.6-1.7c0-.2.2-.2.2-.2,0,0,.2,0,.4.2,2.4,2.2,3.7,4.4,3.7,6.1Z"/><path id="PATH_29" d="m147.45,55.49h-1.2c-1.2,0-2.1-.6-2.5-1.5-.4-.6-.6-1.7-.6-3.1v-3.1c0-1.5-.2-3.7-.4-6.4l1-1.2c.2-.2.4-.2.4,0,.2,1.5.4,3.7.4,6.4v4.8c0,1.3.6,1.9,1.9,1.9h.8c.2.1.2,2.2.2,2.2Z"/><path id="PATH_30" d="m151.45,52.19c0,2.1-1.2,3.3-3.3,3.3h-1.3v-1.9h1.2c1.7,0,2.5-.4,2.5-.8,0-.6-.4-1.2-1.2-1.9l.6-1.7c0-.2.2-.2.2-.2,0,0,.2.2.4.4.3.7.9,1.8.9,2.8Zm-.8,6.9l-1.3,1.4-1.3-1.4,1.3-1.3,1.3,1.3Z"/><path id="PATH_31" d="m158.05,37.89c-.6.6-1.7.8-2.7.8h-1.2s-.4.2-.6.4c-.2.2-.4.4-.4.4-.2,0-.2-.2-.2-.4s.2-.6.4-.8c.2-.6.4-.6.6-.6s.6,0,1,.2c.6,0,.8.2,1,.2.9-.2,1.5-.2,2.1-.2.4-.2.6-.4.6-.4h.2c-.5,0-.6.2-.8.4Zm-1.2,15.7c0,.6-.2,1.3-.6,1.7-.2.4-.4.6-.4.6,0,0-.2-.2-.2-.6,0-1.9-.4-6.6-1-14.1l1.3-1.4.2-.2v.4c.7,2.2.7,6.6.7,13.6Z"/><path id="PATH_32" d="m187.15,51.99c0,2.3-1,3.5-2.9,3.5-1.2,0-1.7-.6-2.1-1.5-.6,1-1.3,1.5-2.3,1.5-.4,0-.8,0-1.2-.2,0,1-.2,1.9-.2,3.1-.6,1.2-1.4,2.1-2.9,2.9-1.3.6-2.7.8-4,.8-1.5,0-2.7-.4-3.7-1-1-.8-1.5-1.7-1.5-3.3,0-.8.2-1.5.6-2.5.4-.6.6-1.2.8-1.5.2-.2.4-.2.4-.2q.2,0,.2.2v.4c-.6,1-.6,1.9-.6,2.9,0,.8.4,1.5.8,2.1.6.8,1.7,1.2,3.3,1.2,1.7,0,3.1-.4,4.2-.8,1-.6,1.7-1,1.7-1.7.2-.2.2-.6,0-1.2,0-.6-.2-1-.2-1.2-.2-.6-.6-1.4-1.7-2.5l.6-1.4c.2-.2.2-.4.2-.4,0,0,.2,0,.2.2.6.6.8,1.2,1,1.3.6.6,1,.6,1.7.6.6,0,1.4-.2,1.7-.6.2-.4.4-.6.6-1.5,0-.4.2-.6.4-.6s.2.2.2.6c.2.8.4,1.3.6,1.7.2.4,1,.6,1.7.6.4,0,.6-.2.8-.4.4-.2.6-.6.6-.8,0-.6-.4-1-1-1.7l.8-1.5.2-.2.2.2c.4,1.2.8,1.9.8,2.9Z"/><path id="PATH_33" d="m195.45,55.69c0,1.7-.6,3.1-1.5,4.6-.8,1.2-1.7,1.7-2.1,1.7-1.4,0-2.3,0-3.3-.2-.4,0-.6-.2-.6-.2,0,0,.2-.2.6-.2,1.3-.4,2.7-1,3.9-1.9,1.3-1.2,2.1-2.3,2.1-3.5,0-.6-.6-1.7-1.7-2.9l.8-1.5c0-.2.2-.2.2-.2l.2.2c.4.6.8,1.2,1,1.9.2.8.4,1.6.4,2.2Z"/><path id="PATH_34" d="m201.95,55.49h-1.1c-1.2,0-2.1-.6-2.5-1.5-.4-.6-.6-1.7-.6-3.1v-3.1c0-1.5-.2-3.7-.4-6.4l1-1.2c.2-.2.4-.2.4,0,.2,1.5.4,3.7.4,6.4v4.8c0,1.3.6,1.9,1.9,1.9h.8v2.1h.1v.1Z"/><path id="PATH_35" d="m205.85,52.19c0,2.1-1.2,3.3-3.3,3.3h-1.4v-1.9h1.2c1.7,0,2.5-.4,2.5-.8,0-.6-.4-1.2-1.2-1.9l.6-1.7c0-.2.2-.2.2-.2,0,0,.2.2.4.4.8.7,1,1.8,1,2.8Zm-3.9,6.6l1.2-1.2,1.2,1.2-1.2,1.2-1.2-1.2Zm1.4,2.5l1.2-1.2,1.2,1.2-1.2,1.2-1.2-1.2Zm1.5-2.5l1.2-1.2,1.2,1.2-1.2,1.2-1.2-1.2Z"/></g><g id="G_36"><path id="PATH_37" d="m177.45,138.99c0,1.7-.6,3.1-1.5,4.6-.8,1.2-1.7,1.7-2.1,1.7-1.4,0-2.3,0-3.3-.2-.4,0-.6-.2-.6-.2,0,0,.2-.2.6-.2,1.3-.4,2.7-1,3.9-1.9,1.3-1.2,2.1-2.3,2.1-3.5,0-.6-.6-1.7-1.7-2.9l.8-1.5c0-.2.2-.2.2-.2l.2.2c.4.6.8,1.2,1,1.9.3,1,.4,1.6.4,2.2Z"/><path id="PATH_38" d="m181.35,136.89c0,.6-.2,1.3-.6,1.7-.2.4-.4.6-.4.6,0,0-.2-.2-.2-.6,0-1.9-.4-6.6-1-14.1l1.4-1.4.2-.2v.4c.4,2.4.6,6.8.6,13.6Z"/><path id="PATH_39" d="m191.55,138.79h-1.7c-.2,2.3-1,4.1-2.7,5.8-.6.6-.8.8-1,.8-.8,0-1.9-.2-3.1-.4-.4,0-.6-.2-.6-.2,0,0,.2-.2.6-.4,1.3-.4,2.7-1.2,3.9-1.9.6-.6,1-.8,1.4-1.5.6-.6.8-1.3.8-1.7v-.6h-2.1c-1.7,0-2.3-.6-2.3-1.9,0-.8.2-1.7.6-2.7.6-1,1.2-1.7,1.7-1.7.8,0,1.5.6,1.9,1.7.4.8.6,1.7.6,2.7h1.7l.3,2h0Zm-2.9-1.7c0-.6-.2-1-.6-1.5s-.8-.8-1.3-.8c-.4,0-.6.2-.8.4-.4.4-.4.6-.4,1,0,.8.6,1.2,1.9,1.2.3-.3.6-.3,1.2-.3Z"/><path id="PATH_40" d="m204.45,135.29c0,1-.2,1.7-.6,2.5-.6.6-1.3,1.2-2.1,1.2-1.2,0-1.7-.6-2.3-1.3-.6,1-1.3,1.3-2.3,1.3-1.2,0-1.9-.6-2.5-1.3-.6,1-1.5,1.3-2.7,1.3h-1v-1.9h1.4c1.2,0,1.9-.6,2.1-1.9,0-.4.2-.6.4-.6s.2.2.4.6c.2,1.3.8,1.9,2.1,1.9.6,0,1.3-.2,1.7-.6.2-.4.4-.6.6-1.3,0-.4.2-.6.4-.6s.2.2.4.6c.2,1.3.8,1.9,1.9,1.9,1.3,0,1.7-.4,1.7-.8s-.4-1.2-1-1.7l.8-1.5c.2-.2.2-.4.4-.4s.2.2.4.4c-.3.7-.2,1.6-.2,2.2Z"/><path id="PATH_41" d="m222.45,138.79h-1.2c-1.5,0-2.3-.8-2.7-2.7-.8.8-1.2,1.2-1.3,1.2h-1.5c-.6,0-1,0-1.5-.2s-1-.6-1-.8c0-1.2.6-2.3,1.4-2.9.6-.6,1.7-1,2.9-1.7l-.4-1.7,1.2-1.3c0,.2.6,1.9,1.2,5.4.2,1,.6,1.7.6,2.1.4.6.6.6,1.3.6h1.2v1.7h0v.3h-.2Zm-4.3-3.3l-.6-2.7c-.6.2-1.2.6-1.9.8-1,.6-1.7,1-1.7,1.2,0,.4.4.6,1.2.6.6.2,1,.2,1.5.2.8.1,1.2.1,1.5-.1Z"/><path id="PATH_42" d="m228.45,138.79h-.6c-1.5,0-2.5-.6-2.9-1.7-.2.6-.6.8-1,1.2-.6.4-1,.6-1.5.6h-.6v-1.9h.6c1.3,0,1.9-.6,1.9-1.7v-5.6c0-2.1,0-3.9-.2-5l1.5-1.2v11c0,1.7.6,2.5,2.1,2.5h.6v1.8h.1Z"/><path id="PATH_43" d="m236.55,138.79h-1.4c-1.5,0-2.5-.6-3.1-1.5-.6,1-1.7,1.5-3.5,1.5h-1v-1.9h1.5c1.7,0,2.5-.6,2.7-1.7,0-.6.2-.8.4-.8s.4.4.4.8c.2,1.2,1,1.7,2.5,1.7h1.5v1.9h0Zm-5.4,3.7l-1.3,1.3-1.4-1.3,1.4-1.3,1.3,1.3Zm2.7,0l-1.4,1.3-1.3-1.3,1.3-1.3,1.4,1.3Z"/><path id="PATH_44" d="m240.35,135.69c0,2.1-1.2,3.3-3.3,3.3h-1.3v-1.9h1.2c1.7,0,2.5-.4,2.5-.8s-.4-1.2-1.2-1.9l.6-1.7c0-.2.2-.2.2-.2l.4.4c.7.7.9,1.7.9,2.8Zm-.4,6.8l-1.3,1.3-1.3-1.3,1.3-1.3,1.3,1.3Z"/></g><g id="G_45"><path id="PATH_46" d="m177.35,249.69h-3.9c-.6,0-1,0-1.3.2-.6.2-.8.6-.8.8s.8.4,2.3.6c1.7.4,2.3.6,2.3,1,0,1.3-.4,2.3-1.2,2.9-1.4,1.2-3.5,1.7-6.6,1.7-3.9,0-5.8-1.5-5.8-4.2,0-.6.2-1.3.6-2.1.4-.8.6-1.5,1-1.9.2-.2.4-.4.6-.4s.2,0,.2.2,0,.4-.2.6c-.6,1-.8,1.9-.8,2.9,0,1.2.6,1.9,1.7,2.5.8.6,1.7.6,3.1.6s2.5,0,3.7-.2c1.9-.4,2.9-.6,2.9-1.4,0-.4-.6-.6-1.3-.6-1.3-.2-2.1-.4-2.5-.6-.8-.2-1.3-.6-1.3-1.2,0-.4.2-.8.6-1.5.4-.6.6-.8,1.2-1.2.8-.6,1.7-1,3.3-1h2.3v2.3h-.1Z"/><path id="PATH_47" d="m185.35,246.39c0,.8,0,1.5-.4,2.1-.4.8-.8,1.3-1.4,1.3-.8,0-2.1-.6-3.9-1.7-.6.6-.8,1-1,1.2-.6.4-1,.6-1.7.6h-.8v-1.9h1.2c.6,0,1.4-.4,1.9-1.2.4-.4.8-1.2,1.5-2.1.6-.8,1.2-1.2,1.7-1.2.8,0,1.5.4,1.9,1.2.9.6,1,1.1,1,1.7Zm-.9,1.2c0-.6-.2-1-.6-1.7-.4-.8-.8-1-1.4-1s-1,.6-1.7,1.5c.4.4.8.6,1.5,1,.6.4,1.3.6,1.7.6.3.1.5,0,.5-.4Z"/><path id="PATH_48" d="m195.65,249.69h-.6c-.6,0-1-.2-1.4-.4v.6c0,1.5-.6,2.9-1.5,4.4-.8,1.3-1.7,1.7-2.1,1.7-1.4,0-2.3,0-3.3-.2-.4,0-.6-.2-.6-.2,0,0,.2-.2.6-.2,1.3-.4,2.7-1,3.9-1.9,1.3-1.2,2.1-2.3,2.1-3.5,0-.6-.6-1.7-1.7-2.9l.8-1.5c0-.2.2-.2.2-.2l.2.2c.6.6.8,1.2,1.2,1.3.6.4,1.2.6,1.7.6h.6v2.2h-.1Z"/><path id="PATH_49" d="m205.65,236.39c0,.4-.2.8-.6,1.7-1.9.6-4.4,1.3-7.3,2.1,1.9,1.9,3.1,3.7,3.3,4.8.2.8,0,1.7-.4,2.5s-1,1.4-1.7,1.7c-.6.4-1.7.4-3.3.4h-.6v-1.9h.6c3.1,0,4.8-.6,4.8-1.7,0-.8-.8-2.1-2.7-3.9l-.2.6c-.2-.2-.6-.6-.8-1-.6-.6-.6-.8-.6-1,0-.6.2-1,.6-1.5.2-.2,1.2-.6,3.3-1.2,2.1-.7,3.9-1,5.6-1.6Zm-.4-2.5l-.4,1.2-8.1,2.7.4-1.2,8.1-2.7Z"/></g><g id="G_50"><path id="PATH_51" d="m116.15,448.49h-.6c-.6,0-1-.2-1.4-.4v.6c0,1.5-.6,2.9-1.5,4.4-.8,1.3-1.7,1.7-2.1,1.7-1.4,0-2.3,0-3.3-.2-.4,0-.6-.2-.6-.2,0,0,.2-.2.6-.2,1.3-.4,2.7-1,3.9-1.9,1.3-1.2,2.1-2.3,2.1-3.5,0-.6-.6-1.7-1.7-2.9l.8-1.5c0-.2.2-.2.2-.2l.2.2c.6.6.8,1.2,1.2,1.4.6.4,1.2.6,1.7.6h.6v2.1h-.1Z"/><path id="PATH_52" d="m126.55,448.49h-.7c-.6,0-1.4.2-1.7.4-.8.4-1.4.8-1.4,1.7s.6,1.7,1.9,2.7l-.8,1.8c-1.5-.6-2.9-1.4-3.9-2.3-1.3-1.2-1.9-2.7-1.9-4.1h-2.3v-1.9h2.1c0-1.4.4-2.7,1-4.2s1.2-2.1,1.5-2.1.8.6,1.3,2.1c.6,1.4.6,2.1.6,2.7,0,2.3-1.2,3.5-3.5,3.5.2.6.6,1.4,1,1.9.6.6,1.2,1.2,1.7,1.5v-.6c0-1.2.4-2.1.8-2.9.8-1.2,1.7-1.7,3.3-1.7h.6l.4,1.5h0Zm-5.2-2.7c0-.4-.2-1-.6-1.7-.4-1-.6-1.4-1-1.4-.2,0-.6.4-.8,1.2-.2.8-.6,1.7-.6,2.9,2.3-.2,3-.4,3-1Z"/><path id="PATH_53" d="m139.35,445.09c0,1-.2,1.7-.6,2.5-.6.6-1.3,1.2-2.1,1.2-1.2,0-1.7-.6-2.3-1.4-.6,1-1.4,1.4-2.3,1.4-1.2,0-1.9-.6-2.5-1.4-.6,1-1.5,1.4-2.7,1.4h-1v-1.9h1.3c1.2,0,1.9-.6,2.1-1.9,0-.4.2-.6.4-.6s.2.2.4.6c.2,1.4.8,1.9,2.1,1.9.6,0,1.3-.2,1.7-.6.2-.4.4-.6.6-1.4,0-.4.2-.6.4-.6s.2.2.4.6c.2,1.4.8,1.9,1.9,1.9,1.3,0,1.7-.4,1.7-.8s-.4-1.2-1-1.7l.8-1.5c.2-.2.2-.4.4-.4s.2.2.4.4c-.1.5-.1,1.5-.1,2.3Zm-5.4-6.2l-1.2,1.2-1.2-1.2,1.2-1.2,1.2,1.2Zm1.5-2.5l-1.2,1.2-1.2-1.2,1.2-1.2,1.2,1.2Zm1.5,2.5l-1.2,1.2-1.2-1.2,1.2-1.2,1.2,1.2Z"/><path id="PATH_54" d="m162.65,448.49h-.8c-.8,0-1.3,0-1.7-.2,0,.6.2.8.2,1.4,0,.8-.2,1.4-.4,1.7-.6,1.2-1.3,2.1-2.9,2.9-1.4.6-2.7.8-4,.8-1.4,0-2.7-.4-3.7-1-1-.8-1.5-1.7-1.5-3.3,0-.8.2-1.5.6-2.5.4-.6.6-1.2.8-1.5.2-.2.4-.2.4-.2q.2,0,.2.2v.4c-.6,1-.6,1.9-.6,2.9s.4,1.5.8,2.1c.6.8,1.7,1.2,3.3,1.2,1.7,0,3.1-.4,4.2-.8,1-.6,1.7-1,1.9-1.7.2-.2.2-.6,0-1.2,0-.6-.2-1-.2-1.2-.2-.6-.8-1.4-1.7-2.5l.6-1.4c.2-.2.2-.4.2-.4,0,0,.2,0,.2.2.8,1.4,1.7,1.9,2.7,1.9h1.3l.1,2.2h0Zm-7.3-7.3l-1.4,1.4-1.3-1.4,1.3-1.4,1.4,1.4Z"/><path id="PATH_55" d="m170.75,448.49h-1.3c-1.5,0-2.5-.6-3.1-1.5-.6,1-1.7,1.5-3.5,1.5h-1v-1.9h1.5c1.7,0,2.5-.6,2.7-1.7,0-.6.2-.8.4-.8s.4.4.4.8c.2,1.2,1,1.7,2.5,1.7h1.5l-.1,1.9h0Zm-5.6,3.5l-1.3,1.4-1.4-1.4,1.4-1.4,1.3,1.4Zm2.9,0l-1.4,1.4-1.3-1.4,1.3-1.4,1.4,1.4Z"/><path id="PATH_56" d="m181.95,448.49h-1c-.8,0-1.7-.4-2.7-1.2-.6-.6-1.4-1.5-2.1-2.7-.2,2.5-1.7,3.9-5,3.9h-1v-1.9h.6c2.9,0,4.6-.6,4.6-1.7,0-1-.6-2.1-2.1-3.5-.6-.6-1.3-1.2-2.1-1.7,0-.6.2-1.2.6-1.7.2-.2,3.1-1.2,9.1-2.9,0,.2-.2.8-.6,1.7-1.5.4-3.9,1.2-7.3,2.1,1.7,1.7,3.3,3.5,4.4,5,.8.8,1.3,1.5,1.7,1.7.6.6,1.5.8,2.3.8h.6v2.1h0Zm-1.8-15.8l-.4,1.2-8.1,2.7.4-1.2,8.1-2.7Z"/><path id="PATH_57" d="m196.95,448.49h-1c-1.2,0-1.7-.6-2.3-1.4-.4,1-1.2,1.4-2.1,1.4s-1.7-.6-2.1-1.4c-.6,1-1.2,1.4-2.1,1.4-1.2,0-1.9-.6-2.5-1.4-.6,1-1.5,1.4-2.7,1.4h-1.2v-1.9h1.4c1.2,0,1.9-.6,2.1-1.9,0-.4.2-.6.4-.6s.2.2.4.6c.2,1.4.8,1.9,2.1,1.9,1.2,0,1.9-.6,1.9-1.9,0-.4.2-.6.4-.6s.4.2.4.6c.2,1.4.8,1.9,1.7,1.9,1.2,0,1.9-.6,1.9-1.9,0-.4.2-.6.4-.6s.4.2.4.6c.2,1.4.8,1.9,1.9,1.9h1l-.4,1.9h0Zm-7.7-8.3l-1.2,1.2-1.2-1.2,1.2-1.2,1.2,1.2Zm1.6-2.7l-1.2,1.2-1.2-1.2,1.2-1.2,1.2,1.2Zm1.3,2.7l-1.2,1.2-1.2-1.2,1.2-1.2,1.2,1.2Z"/><path id="PATH_58" d="m205.25,445.19c0,.8,0,1.5-.4,2.1-.4.8-.8,1.4-1.3,1.4-.8,0-2.1-.6-3.9-1.7-.6.6-.8,1-1,1.2-.6.4-1,.6-1.7.6h-.8v-1.9h1.2c.6,0,1.3-.4,1.9-1.2.4-.4.8-1.2,1.5-2.1.6-.8,1.2-1.2,1.7-1.2.8,0,1.5.4,1.9,1.2.5.5.7,1.1.9,1.6Zm-.9,1.2c0-.6-.2-1-.6-1.7-.4-.8-.8-1-1.3-1s-1,.6-1.7,1.5c.4.4.8.6,1.5,1,.6.4,1.4.6,1.7.6.2,0,.4-.2.4-.4Z"/></g><g id="G_60"><path id="PATH_61" d="m364.15,480.19h-.8c-.8,0-1.3,0-1.7-.2,0,.6.2.8.2,1.3,0,.8-.2,1.4-.4,1.7-.6,1.2-1.4,2.1-2.9,2.9-1.3.6-2.7.8-4,.8-1.4,0-2.7-.4-3.7-1-1-.8-1.5-1.7-1.5-3.3,0-.8.2-1.5.6-2.5.4-.6.6-1.2.8-1.5.2-.2.4-.2.4-.2q.2,0,.2.2v.4c-.6,1-.6,1.9-.6,2.9,0,.8.4,1.5.8,2.1.6.8,1.7,1.2,3.3,1.2,1.7,0,3.1-.4,4.2-.8,1-.6,1.7-1,1.9-1.7.2-.2.2-.6,0-1.2,0-.6-.2-1-.2-1.2-.2-.6-.8-1.4-1.7-2.5l.6-1.4c.2-.2.2-.4.2-.4,0,0,.2,0,.2.2.8,1.4,1.7,1.9,2.7,1.9h1.3l.1,2.3h0Zm-7.1-7.4l-1.3,1.3-1.3-1.3,1.3-1.4,1.3,1.4Z"/><path id="PATH_62" d="m372.25,480.19h-1.3c-1.5,0-2.5-.6-3.1-1.5-.6,1-1.7,1.5-3.5,1.5h-1v-1.9h1.5c1.7,0,2.5-.6,2.7-1.7,0-.6.2-.8.4-.8s.4.4.4.8c.2,1.2,1,1.7,2.5,1.7h1.5l-.1,1.9h0Zm-5.4,3.6l-1.3,1.4-1.3-1.4,1.3-1.4,1.3,1.4Zm2.9,0l-1.3,1.4-1.3-1.4,1.3-1.4,1.3,1.4Z"/><path id="PATH_63" d="m380.35,476.89c0,.8,0,1.5-.4,2.1-.4.8-.8,1.4-1.3,1.4-.8,0-2.1-.6-3.9-1.7-.6.6-.8,1-1,1.2-.6.4-1,.6-1.7.6h-.8v-1.9h1.2c.6,0,1.3-.4,1.9-1.2.4-.4.8-1.2,1.5-2.1.6-.8,1.2-1.2,1.7-1.2.8,0,1.5.4,1.9,1.2.7.4.9,1,.9,1.6Zm-.7,1.1c0-.6-.2-1-.6-1.7s-.8-1-1.3-1c-.6,0-1,.6-1.7,1.5.4.4.8.6,1.5,1,.6.4,1.3.6,1.7.6.2.2.4,0,.4-.4Z"/><path id="PATH_64" d="m386.95,480.19h-1.2c-1.2,0-2.1-.6-2.5-1.5-.4-.6-.6-1.7-.6-3.1v-3.1c0-1.5-.2-3.7-.4-6.4l1-1.2c.2-.2.4-.2.4,0,.2,1.5.4,3.7.4,6.4v4.8c0,1.4.6,1.9,1.9,1.9h.8v2.1h.2v.1Z"/><path id="PATH_65" d="m390.95,476.89c0,2.1-1.2,3.3-3.3,3.3h-1.3v-1.9h1.2c1.7,0,2.5-.4,2.5-.8,0-.6-.4-1.2-1.2-1.9l.6-1.7c0-.2.2-.2.2-.2,0,0,.2.2.4.4.6.6.9,1.8.9,2.8Zm-.2-7.4l-1.3,1.4-1.3-1.4,1.3-1.4,1.3,1.4Z"/></g><g id="G_66"><path id="PATH_67" d="m320.25,543.79h-.8c-.8,0-1.5-.4-1.7-.8,0,1-.2,2.1-.4,3.7-.6,1.2-1.4,2.1-2.7,2.7-1.2.6-2.3.8-3.9.8-1.5,0-2.5-.4-3.3-.8-1-.6-1.5-1.7-1.5-3.1s.4-2.7,1.2-3.7q.2-.2.4-.2t.2.2v.2c-.4.8-.6,1.7-.6,2.3,0,1,.4,1.7,1.2,2.5.6.6,1.5.8,2.7.8,1,0,2.1-.2,3.3-.6,1.7-.6,2.3-1.2,2.3-1.9l-.2-7.9c-.2-3.9-.2-6.4-.4-8.3l1.4-1.2c0,.6.2,2.3.4,5.6l.2,6.4c0,1,.6,1.7,1.9,1.7h.6l-.3,1.6h0Z"/><path id="PATH_68" d="m328.15,543.79h-1.3c-1.5,0-2.5-.6-3.1-1.5-.6,1-1.7,1.5-3.5,1.5h-1v-1.9h1.5c1.7,0,2.5-.6,2.7-1.7,0-.6.2-.8.4-.8s.4.4.4.8c.2,1.2,1,1.7,2.5,1.7h1.5l-.1,1.9h0Zm-5.4,3.7l-1.3,1.3-1.2-1.3,1.3-1.4,1.2,1.4Zm2.9,0l-1.4,1.3-1.3-1.3,1.3-1.4,1.4,1.4Z"/><path id="PATH_69" d="m332.15,540.49c0,2.1-1.2,3.3-3.3,3.3h-1.4v-1.9h1.2c1.7,0,2.5-.4,2.5-.8s-.4-1.2-1.2-1.9l.6-1.7c0-.2.2-.2.2-.2,0,0,.2.2.4.4.6.9,1,1.9,1,2.8Zm-.6,7l-1.3,1.3-1.3-1.3,1.3-1.4,1.3,1.4Z"/><path id="PATH_70" d="m342.15,540.29c0,2.3-1.5,3.5-4.6,3.5-1.2,0-1.9-.2-2.5-.6-.6-.4-1-1.2-1-2.1,0-.6.2-1,.4-1.5.2-.2.2-.4.4-.4s.2.2.2.6v.6c0,.6.4,1.2,1,1.3.4.2,1,.2,1.7.2,2.5,0,3.7-.4,3.7-1.2,0-1.2-1.5-2.9-4.2-4.8l.6-1.7c0-.2.2-.2.2-.2,0,0,.2,0,.4.2,2.4,2.3,3.7,4.4,3.7,6.1Z"/><path id="PATH_71" d="m350.65,543.99c0,1.7-.6,3.1-1.5,4.6-.8,1.2-1.7,1.7-2.1,1.7-1.3,0-2.3,0-3.3-.2-.4,0-.6-.2-.6-.2,0,0,.2-.2.6-.2,1.3-.4,2.7-1,3.9-1.9,1.4-1.2,2.1-2.3,2.1-3.5,0-.6-.6-1.7-1.7-2.9l.8-1.5c0-.2.2-.2.2-.2l.2.2c.4.6.8,1.2,1,1.9.2.8.4,1.6.4,2.2Z"/><path id="PATH_72" d="m354.35,541.89c0,.6-.2,1.4-.6,1.7-.2.4-.4.6-.4.6,0,0-.2-.2-.2-.6,0-1.9-.4-6.6-1-14.1l1.3-1.4.2-.2v.4c.7,2.4.7,6.8.7,13.6Z"/></g><g id="G_73"><path id="PATH_74" d="m208.75,552.89h-.8c-.8,0-1.3,0-1.7-.2,0,.6.2.8.2,1.4,0,.8-.2,1.3-.4,1.7-.6,1.2-1.4,2.1-2.9,2.9-1.3.6-2.7.8-4,.8-1.5,0-2.7-.4-3.7-1-1-.8-1.5-1.7-1.5-3.3,0-.8.2-1.5.6-2.5.4-.6.6-1.2.8-1.5.2-.2.4-.2.4-.2q.2,0,.2.2v.4c-.6,1-.6,1.9-.6,2.9,0,.8.4,1.5.8,2.1.6.8,1.7,1.2,3.3,1.2,1.7,0,3.1-.4,4.2-.8,1-.6,1.7-1,1.9-1.7.2-.2.2-.6,0-1.2,0-.6-.2-1-.2-1.2-.2-.6-.8-1.4-1.7-2.5l.6-1.4c.2-.2.2-.4.2-.4,0,0,.2,0,.2.2.8,1.4,1.7,1.9,2.7,1.9h1.3l.1,2.2h0Zm-7.3-7.6l-1.3,1.4-1.3-1.4,1.3-1.4,1.3,1.4Z"/><path id="PATH_75" d="m216.85,552.89h-1.3c-1.5,0-2.5-.6-3.1-1.5-.6,1-1.7,1.5-3.5,1.5h-1v-1.8h1.5c1.7,0,2.5-.6,2.7-1.7,0-.6.2-.8.4-.8s.4.4.4.8c.2,1.2,1,1.7,2.5,1.7h1.5l-.1,1.8h0Zm-5.6,3.6l-1.3,1.4-1.3-1.4,1.3-1.4,1.3,1.4Zm2.9,0l-1.3,1.4-1.4-1.4,1.4-1.4,1.3,1.4Z"/><path id="PATH_76" d="m225.55,549.79l-.6,1.5-4.4,1.2c-1.3.4-2.5.6-3.5.6h-.8v-1.7h1.3c.4,0,.6,0,1.4-.2-1-.8-1.5-1.5-1.5-2.3,0-.6.4-1.5,1.2-2.5,1-1.2,1.9-1.7,2.9-1.7,1.2,0,1.9.6,2.7,1.5.2.4.4.6.4.6,0,0,0,.2-.2.2s-.4,0-.8-.2c-.8-.2-1.5-.4-2.1-.4s-1,.2-1.7.6-1.2.6-1.2,1.2c0,.4.4.8.8,1.3.6.6,1.5,1,2.3,1,.4,0,1.5-.4,3.5-.8h.4c.1-.3-.1-.1-.1.1Z"/><path id="PATH_77" d="m235.95,552.89h-.6c-.6,0-1-.2-1.3-.4v.6c0,1.5-.6,2.9-1.5,4.4-.8,1.4-1.7,1.7-2.1,1.7-1.4,0-2.3,0-3.3-.2-.4,0-.6-.2-.6-.2,0,0,.2-.2.6-.2,1.3-.4,2.7-1,3.9-1.9,1.3-1.2,2.1-2.3,2.1-3.5,0-.6-.6-1.7-1.7-2.9l.8-1.5c0-.2.2-.2.2-.2l.2.2c.6.6.8,1.2,1.2,1.4.6.4,1.2.6,1.7.6h.6l-.2,2.1h0Z"/><path id="PATH_78" d="m248.65,549.39c0,1-.2,1.7-.6,2.5-.4.8-1.4,1.2-2.1,1.2-1.2,0-1.7-.6-2.3-1.4-.6,1-1.4,1.4-2.3,1.4-1.2,0-1.9-.6-2.5-1.4-.6,1-1.5,1.4-2.7,1.4h-1.2v-2h1.3c1.2,0,1.9-.6,2.1-1.9,0-.4.2-.6.4-.6s.2.2.4.6c.2,1.4.8,1.9,2.1,1.9.6,0,1.3-.2,1.7-.6.2-.4.4-.6.6-1.4,0-.4.2-.6.4-.6s.2.2.4.6c.2,1.4.8,1.9,1.9,1.9,1.4,0,1.7-.4,1.7-.8s-.4-1.2-1-1.7l.8-1.5c.2-.2.2-.4.4-.4s.2.2.4.4c-.1.7.1,1.6.1,2.4Z"/></g><g id="G_79"><path id="PATH_80" d="m271.85,636.39h-.6c-.6,0-1-.2-1.3-.4v.6c0,1.5-.6,2.9-1.5,4.4-.8,1.4-1.7,1.7-2.1,1.7-1.3,0-2.3,0-3.3-.2-.4,0-.6-.2-.6-.2,0,0,.2-.2.6-.2,1.3-.4,2.7-1,3.9-1.9,1.4-1.2,2.1-2.3,2.1-3.5,0-.6-.6-1.7-1.7-2.9l.8-1.5c0-.2.2-.2.2-.2l.2.2c.6.6.8,1.2,1.2,1.4.6.4,1.2.6,1.7.6h.6v2.1h-.2Z"/><path id="PATH_81" d="m279.75,636.39h-1.3c-1.5,0-2.5-.6-3.1-1.5-.6,1-1.7,1.5-3.5,1.5h-1v-1.9h1.5c1.7,0,2.5-.6,2.7-1.7,0-.6.2-.8.4-.8s.4.4.4.8c.2,1.2,1,1.7,2.5,1.7h1.5l-.1,1.9h0Zm-5.4,3.4l-1.4,1.4-1.3-1.4,1.3-1.4,1.4,1.4Zm2.8,0l-1.3,1.4-1.3-1.4,1.3-1.4,1.3,1.4Z"/><path id="PATH_82" d="m283.75,632.89c0,2.1-1.2,3.3-3.3,3.3h-1.4v-1.9h1.2c1.7,0,2.5-.4,2.5-.8s-.4-1.2-1.2-1.9l.6-1.7c0-.2.2-.2.2-.2l.4.4c.6.7,1,1.8,1,2.8Zm-.2-7.5l-1.3,1.4-1.4-1.4,1.4-1.4,1.3,1.4Z"/></g><g id="G_83"><path id="PATH_84" d="m297.85,730.49h-.6c-.6,0-1-.2-1.3-.4v.6c0,1.5-.6,2.9-1.5,4.4-.8,1.4-1.7,1.7-2.1,1.7-1.3,0-2.3,0-3.3-.2-.4,0-.6-.2-.6-.2,0,0,.2-.2.6-.2,1.3-.4,2.7-1,3.9-1.9,1.4-1.2,2.1-2.3,2.1-3.5,0-.6-.6-1.7-1.7-2.9l.8-1.5c0-.2.2-.2.2-.2l.2.2c.6.6.8,1.2,1.2,1.4.6.4,1.2.6,1.7.6h.6v2.1h-.2Z"/><path id="PATH_85" d="m313.25,730.49h-1c-1.2,0-1.7-.6-2.3-1.4-.4,1-1.2,1.4-2.1,1.4s-1.7-.6-2.1-1.4c-.6,1-1.2,1.4-2.1,1.4-1.2,0-1.9-.6-2.5-1.4-.6,1-1.5,1.4-2.7,1.4h-1.2v-1.9h1.3c1.2,0,1.9-.6,2.1-1.9,0-.4.2-.6.4-.6s.2.2.4.6c.2,1.4.8,1.9,2.1,1.9,1.2,0,1.9-.6,1.9-1.9,0-.4.2-.6.4-.6s.4.2.4.6c.2,1.4.8,1.9,1.7,1.9,1.2,0,1.9-.6,1.9-1.9,0-.4.2-.6.4-.6s.4.2.4.6c.2,1.4.8,1.9,1.9,1.9h1l-.3,1.9h0Z"/><path id="PATH_86" d="m323.25,726.99c0,.6-.2,1.4-.6,1.9-.6.8-1,1.2-1.7,1.2-.6,0-1.7-.4-3.5-1.2-1.5,1-2.9,1.4-3.9,1.4h-.8v-1.9h1c.6,0,1.3,0,1.9-.2-.6-.6-1-1.2-1-1.9,0-1,.6-2.1,2.1-3.3l-1.2-.6c.4-.4.8-.8,1.5-1.5,1.5.8,2.9,1.5,3.9,2.5,1.6,1.3,2.3,2.5,2.3,3.6Zm-4.4-1.3c0-.6-.2-.8-.4-1.2-.2-.6-.6-.6-1-.6s-.8.2-1.3.6c-.6.4-.8.8-.8,1.2,0,.6.6,1.4,1.7,1.7.4-.2.6-.4,1-.6.6-.6.8-.8.8-1.1Zm3.5,1.9c0-.6-.4-1-1-1.7-.6-.6-1-1-1.5-1.2,0,1.4-.4,2.3-1.2,2.9,1.3.6,2.3.6,2.7.6.6.4,1,0,1-.6Z"/><path id="PATH_87" d="m333.55,730.49h-1.7c-.2,2.3-1,4-2.7,5.8-.6.6-.8.8-1,.8-.8,0-1.9-.2-3.1-.4-.4,0-.6-.2-.6-.2,0,0,.2-.2.6-.4,1.3-.4,2.7-1.2,3.9-1.9.6-.6,1-.8,1.3-1.5.6-.6.8-1.4.8-1.7v-.6h-2.1c-1.7,0-2.3-.6-2.3-1.9,0-.8.2-1.7.6-2.7s1.2-1.7,1.7-1.7c.8,0,1.5.6,1.9,1.7.4.8.6,1.7.6,2.7h1.7l.4,2h0Zm-3.1-1.9c0-.6-.2-1-.6-1.5s-.8-.8-1.3-.8c-.4,0-.6.2-.8.4-.4.4-.4.6-.4,1,0,.8.6,1.2,1.9,1.2.2-.3.8-.3,1.2-.3Z"/><path id="PATH_88" d="m343.75,715.09c0,.4-.4,1-.6,1.7l-4.1,1.3c-1.7.6-3.1,1.2-3.9,1.5,1.3,1.4,2.1,2.3,2.7,2.9.8,1.2,1.3,2.1,1.5,3.3,0,.8,0,1.7-.4,2.3-.6,1.5-2.3,2.1-5,2.1h-.8v-1.9h1c1.3,0,2.3,0,2.9-.2,1.2-.4,1.7-.8,1.7-1.7,0-1.2-.8-2.5-2.7-4l-.2.4c-.2-.2-.6-.6-.8-1-.6-.6-.6-1-.6-1,0-.4,0-.6.2-1.4.2-.6.4-1,.6-1.2s1.3-.6,3.5-1.3c1.5-.7,3.4-1.5,5-1.8Z"/></g><g id="G_89"><path id="PATH_90" d="m396.35,839.59c0,.2.2.4,0,.4h-1c.4,6.2.6,10.6.4,13.1-.2,3.9-2.5,5.8-6.8,5.8-1.5,0-2.5-.4-3.3-.8-1-.6-1.5-1.7-1.5-3.1s.4-2.7,1.2-3.7q.2-.2.4-.2t.2.2v.2c-.4.8-.6,1.7-.6,2.3,0,1,.4,1.7,1.2,2.5.6.6,1.5.8,2.7.8,1.7,0,2.9-.4,4.1-.8,1-.6,1.5-1,1.5-1.7,0-7.1-.2-12.5-.6-16.2l1.2-1q.2-.2.4-.2s.2.2.2.4c-.4.3-.2,1.1.3,2Z"/><path id="PATH_91" d="m402.95,852.39h-1.2c-1.2,0-2.1-.6-2.5-1.5-.4-.6-.6-1.7-.6-3.1v-3.1c0-1.5-.2-3.7-.4-6.4l1-1.2c.2-.2.4-.2.4,0,.2,1.5.4,3.7.4,6.4v4.8c0,1.4.6,1.9,1.9,1.9h.8l.2,2.2h0Z"/><path id="PATH_92" d="m417.45,852.39h-1.7c-2.1,0-3.3-1.2-3.3-3.3v-.8c-.8.4-1.7,1-3.1,1.7-1.4.8-2.1,1.4-2.9,1.7-1,.6-2.1.6-3.1.6h-1.2v-1.7h1.3c1.3,0,2.9-.4,4.1-1,.6-.4,1.7-1,3.7-1.7-.4,0-1.3-.4-2.9-.6-1.2-.4-1.7-.6-1.9-.6-.6,0-1.3.4-1.9.8q-.2.2-.4.2t-.2-.2v-.2c.6-1.7,1.5-2.5,2.9-2.5.6,0,1.2.2,1.9.4,1.2.4,2.1.6,2.9.8,1.2.2,2.5.4,3.9.4h.6c.2,0,0,.2,0,.4l-.6,1.5c-1,0-1.7,0-1.9.2,0,.8.2,1.4.4,1.5.4.6,1,.8,2.1.8h1.7v1.7h-.4v-.1Zm-6.4-12.2l-1.3,1.4-1.3-1.4,1.3-1.3,1.3,1.3Z"/><path id="PATH_93" d="m423.35,852.39h-.6c-1.5,0-2.5-.6-2.9-1.7-.2.6-.6.8-1,1.2-.6.4-1,.6-1.5.6h-.8v-1.7h.6c1.3,0,1.9-.6,1.9-1.7v-6c0-2.1,0-3.9-.2-5l1.5-1.2v11c0,1.7.6,2.5,2.1,2.5h.6v1.9h.3v.1Z"/><path id="PATH_94" d="m436.15,847.69l-.6,1.4c-1.2,0-2.1,0-2.7.2-.6.4-1.7.6-2.9,1.4-1.3.6-2.3,1.2-2.9,1.4-1,.4-2.1.6-3.1.6h-1.2v-1.7h1.3c1.5,0,2.9-.4,3.9-.8l3.9-1.7c-.6-.2-1.7-.6-2.9-1-1.2-.6-1.7-.6-2.1-.6-.6,0-1.3.4-1.9.8q-.2.2-.4.2t-.2-.2v-.2c.6-1.7,1.5-2.3,2.9-2.3.6,0,1.2.2,1.7.6,1.3.6,2.3,1,2.9,1.4,1.2.4,2.5.6,3.9.6q.4-.5.4-.1c.2-.4.2-.2,0,0Zm-4.7-7.5l-1.3,1.4-1.4-1.4,1.4-1.3,1.3,1.3Z"/></g><g id="G_85"><path id="PATH_86-2" d="m87.85,116.29l.9,1.6c.3.6.6,1.3.6,2.3v1.3c0,1.1-.6,2.2-1.5,3.4-.7.8-1.4,1.1-2,1.1-.9,0-1.9-.3-3.1-.9l.1-.4c.4.1.8.2,1.4.2,1.7,0,3.5-1.5,4.3-3.3.1-.2.1-.4.1-.5,0-.2-.1-.4-.2-.6-.4-1-.9-1.9-1.5-2.7.3-.5.6-1,.9-1.5h0Zm-1.1-4.2c.5.4,1,.8,1.5,1.3-.3.4-.6.8-1,1.2-.5-.5-1-.8-1.4-1.3.3-.4.6-.9.9-1.2Z"/><path id="PATH_87-2" d="m95.45,121.29c-1.4,0-2.7-.7-2.7-2.3,0-.8.3-1.5.8-2.1.6-.6,1.2-1,1.7-1,.7,0,1.4.5,1.8,1.4.5.8.8,2,.8,3.4,0,1.1-.3,2.2-.9,3.2-1.1,1.6-2.1,2.3-3.1,2.3-1.1,0-2.3-.4-3.5-1.2l.2-.4c.6.3,1.2.4,1.8.4,1.2,0,2.5-.6,3.6-1.9.5-.6,1.1-1.3,1.1-2-.5.1-1,.2-1.6.2Zm-.5-3.9c-.6,0-1.4.6-1.4,1.1,0,.8,1.1,1.3,2.1,1.3.5,0,.9,0,1.4-.2-.4-1.2-1.1-2.2-2.1-2.2Z"/><path id="PATH_88-2" d="m108.35,122.59h-.2c-1.1,0-2-.5-2.5-2h-.1c-.1.5-.4.9-.9,1.2-.8.5-1.6.8-2.5.8-1.4,0-2.1-.8-2.1-2.3v-.9h.5c0,1,.5,1.6,1.7,1.6.6,0,1.4-.3,2-.6.5-.3.8-.6.8-.9,0-.8-.4-2.5-1-4.5.3-.4.5-.9.9-1.3h.1c.5,1.8.8,3.6,1.2,5.4.2,1.2,1,1.8,1.9,1.8h.2v1.7h0Z"/><path id="PATH_89" d="m108.55,120.99c1,0,1.9,0,2.4-.2.4-.2.7-.3.7-.5,0-.6-.6-1.8-1.2-3,.3-.5.6-1,.9-1.4h.1c.6,1,1.2,2.5,1.2,3.7,0,.9-.4,1.6-.9,2.3-.5.5-1.4.7-3.3.7h-.1c-.7,0-.9-.5-.9-.8s.2-.7.9-.7h.2v-.1Zm1.7-9.1c.5.4,1,.8,1.5,1.3-.3.4-.6.8-1,1.2-.5-.5-1-.8-1.4-1.3.2-.3.5-.8.9-1.2Z"/><path id="PATH_90-2" d="m121.95,109.99c.1,2.4.1,4.8.1,7.2,0,1.1,0,2,.3,2.7.2.6.8,1.1,1.5,1.1h.1v1.6h-.2c-1.1,0-2.5-1-2.5-3.4h-.1c-.5,1.8-1.5,2.6-2.7,3.1-.9.3-1.5.5-2.5.5l-1.3-.1v-.1c2-.7,3.5-1.5,4.7-2.3-.2-1.2-1.4-3.1-3.5-6-.6-.8-1.3-1.6-1.3-2,0-.3.2-.8.3-1.1h.1c.6.6,1.5,1.2,2.3,1.7l-.4.7c.6.9,1.3,1.8,2,3,.5.9,1,1.8,1,2.6v.8h0c.4-.4.6-.7.9-1,.5-.8.5-1.6.5-3.7,0-1.4-.1-2.8-.2-4.2.1-.5.4-.8.9-1.1h0Z"/><path id="PATH_91-2" d="m124.25,120.99c1,0,1.9-.3,2-1.1.1-.5.2-.9.3-1.4.3-.3.5-.5.8-.6l.1.1c-.1.4-.2.8-.2,1.1,0,.6.2,1,.7,1.4.7-1.1,1.5-2.1,2.5-3.1.8-.7,1.8-1.3,2.9-1.3,1.2,0,1.9.7,2.3,1.3.2.5.3,1,.3,1.4s-.1.8-.2,1.2c-.3,1-1.1,1.7-2.5,2.2-.7.3-1.8.4-3,.4-1.6,0-2.8-.4-3.5-1.3h0c-.7,1-1.7,1.3-2.5,1.3h-.1c-.7,0-.9-.5-.9-.8s.2-.7.9-.7h.1v-.1Zm6.6,0c1.2,0,2.4-.3,3.2-.7.6-.3,1-.5,1-.9-.2-1-1-1.9-2.1-1.9-1.4,0-3.1,1.3-4.4,3.2.5.2,1.3.3,2.3.3Z"/><path id="PATH_92-2" d="m138.35,122.79c.1-.8.1-1.6.1-2.4v-1.2c0-2.2-.2-5.5-.4-7.6.3-.4.8-1,1.2-1.3h.1c.3,2.7.3,5.7.3,8.6,0,.7,0,1.5-.1,2,0,.7-.4,1.2-1.1,2l-.1-.1Z"/></g></svg>