<?xml version="1.0" encoding="UTF-8"?><svg id="Layer_1" xmlns="http://www.w3.org/2000/svg" viewBox="0 0 766.61 1035.95"><defs><style>.cls-1{fill:#e8d0e5;}.cls-1,.cls-2,.cls-3,.cls-4,.cls-5{stroke-miterlimit:16.82;}.cls-1,.cls-2,.cls-4,.cls-5{stroke:#020202;stroke-width:.34px;}.cls-2{fill:#fdfad6;}.cls-3{fill:none;stroke:#040404;stroke-width:.84px;}.cls-4{fill:#dbeccb;}.cls-5{fill:#fbd1d1;}</style></defs><path id="_185" class="cls-2" d="m61.9,123.48c-1.5.7.7,3.7,2.2,5.2,6.7,4.5,16.5,3,19.5,11.3,2.2,6.1-6.1,14.1-.7,16.5,15,8.2,33,.7,47.8,14.1,3,3,12.8,0,10.4-4.5-3-5.2-6.7-10.4-2.2-15.6,9.8-9.8,29.9-9.8,28.4-28.4-.7-4.5,6.1-5.2,10.4-6.7,2.2-.7,2.2-3.7,2.2-6.1,2.2-8.9-1.5-18.7,3-26.9,1.5-3,6.1-6.7,6.7-9.8,1.2-11.3,3.7-21,11.1-27.9l-3.9-2.5.8-.8.8-1.2-5-.3-5.2-.8-4.4-2-.3-.8-19-12.6-4.4-3.5-13.5-5.9-3.2-3.5-6.4-8.6-3.5-2-5.6,1.5-24.9,18.2-.8,3.2,1.2,9.1-.8,3.9-1.2,3.5-7.9,14.3-.8,3.5-.3,4.7.3,3.5.8,3.5-.3,3.4-2,3.5h-.3l-.8,5.9.8,5.2-.3,5.2-3.5,5.2-4.7,3.2-11.8,4.7-3,.7c.2,3.5,2.5,6.6,5.2,9.3,1.8,2.7-7.2,5.7-10.9,8.1Z"/><path id="_182" class="cls-1" d="m177.9,124.18c0,1.5,3,3,3.7,3,9.8,0,18,3.7,22.4,11.3,3,5.2-3,11.9-.7,15,8.2,8.2,29.9,6.7,24.7,23.9-1.5,6.1-7.4,10.4-11.3,16.5-.7,1.5-.7,3.7,0,5.2,6.7,7.4,12.8,11.9,15.6,21.7.7,2.2,4.5,2.2,6.1,1.5,3-3,6.1-7.4,8.9-6.7,14.1,3,29.9,8.2,35.8,23.9,2.4,4.9,6.2,7.2,10.6,7.9v-.5c1.3-9.6,2.9-20.4,11.4-27.4,7.7-6.6,18.3-15.6,18.3-15.8.8-.7,1.9-.8,2.9-.5l.3-1.7,1.2-2.4.3-2.7-1.2-1.5-5.6-2.4-2-1.5-1.2-2.4-2-5.9-.8-2-2.4-2.4-2-1.2-2-1.2-1.5-2.7,2-4-1.2-3.2-3.2-1.5-3.2-.8-2.4-.8v-2.4l.3-2.7-.3-1.5-2.4-.3-2,.8-1.5,1.2-.8.3-23.7-7.1-6.4,1.5-1.5-3.9-2.4-13.8-1.5-2.7-2-2.7-5.6-11.4-2-2.7-2-.8-2.4-2.7-2-2.7-.8-2-1.2-1.5-8.2-5.2-.8-.8-.3-1.2-.8-1.2-2-.3h-2.4l-1.2-.3-5.9-3.9-1.1-1.6,2-3.5-4.7-3.9-2.7-5.6-7-26-2.7-5.9-.8-.7c-7.2,6.9-9.9,16.8-11.1,27.9-.7,3-5.2,6.7-6.7,9.8-4.5,8.2-.7,18-3,26.9,0,2.2,0,5.2-2.2,6.1-.5.2-1.2.3-1.7.5,1.8,1,2.8,3.4,2,7.3Z"/><path id="_445" class="cls-4" d="m169.6,197.48c4.5,3,4.5,10.4.7,15.6-3,3.7-8.9,11.3-6.7,11.9,16.5,3.7,35.2-3.7,50.1-15.6,2.4-1.5,5.4-2.9,8.7-4.4-1.9-1.9-3.7-3.9-5.7-6.1-.7-1.5-.7-3.7,0-5.2,3.7-6.1,9.8-10.4,11.3-16.5,5.2-17.2-16.5-15.6-24.7-23.9-2.2-3,3.7-9.8.7-15-4.5-7.4-12.8-11.3-22.4-11.3-.7,0-3.7-1.5-3.7-3,.8-3.9-.2-6.2-1.7-8.4-4.4,1.2-9.4,2.2-8.7,6.2,1.5,18.7-18.7,18.7-28.4,28.4-4.5,5.2-.7,10.4,2.2,15.6,1.2,2.2-.8,4.2-3.4,5,9.7,10.4,19.3,18.8,31.7,26.7Z"/><path id="_183" class="cls-5" d="m84.3,255.68c3-6.1,11.9-8.2,16.5-13.5,3.7-5.2,10.4-7.4,13.5-15.6,3-6.7,11.9-11.9,20.2-8.2,7.4,3,12.8,8.9,17.2,17.2.7,0,3,.7,3.7,0,4-3.5,8.1-7.4,12.4-9.8-1.5-.2-2.9-.3-4.4-.7-2.2-.7,3.7-8.2,6.7-11.9,3.7-5.2,3.7-12.8-.7-15.6-12.4-7.9-22-16.3-31.8-26.4-2.5.8-5.7.8-7.1-.5-15-13.5-33-6.1-47.8-14.1-5.2-2.2,3-10.4.7-16.5-3-8.2-12.8-6.7-19.5-11.3-1.5-1.5-3.7-4.5-2.2-5.2,3.7-2.2,12.8-5.2,10.4-8.2-2.7-2.7-5-5.7-5.2-9.3l-2.2.5-5.9-.3-15.8-7.1-5.4-1-12.6,3.2-5.6.3-4.7-.3h-3.9l-3.2,1.2-4.7,2.7-2.7,3.2,1.5,3.5,5.9,6.4,1.2,2.7,1.2,5.9,2.7,5.2v2l-.3,2v2.4l.8,2.4,2.7,5.6v2.4l-1.5,4.7.3,2.4,5.9,4.4,10.3,5.2,9.1,5.6,1.5,6.7-4.4,8.2-1.2,4.4,2,10.6-2,3.5-3.9,2.7-3.2,5.2,1.2,2,.8,1.5.8,4.4,1.5,2,2,1.5,2,1.5v4.8l.8,2,.8,2.4,2.4,5.9,3.2,3.9,3.5,3.5,12.3,5.6,1.2,7.9-1.3,4c9.2,3.3,19.3-.4,24.3-9.8Z"/><path id="_186" class="cls-2" d="m149.4,238.48c3.7,3,10.4,0,12.8,3.7,3.7,6.1-3,8.9-3,14.1,0,2.2,3.7,3.7,5.2,3.7,14.1,0,23.9,5.2,34.3,14.1,10.4,8.9,26.2,6.7,39.7,3.7,6.1-1.5,6.1-12.8,15.6-11.3-1.5-8.9,2.2-11.9,10.4-15,1.5-.7,2.2-3.7,3-3.7,8.1-3,17.7.8,26.1.5,0-.5.2-1,.2-1.3v-.2c-4.5-.7-8.4-3-10.6-7.9-6.1-15.6-21.7-20.9-35.8-23.9-3-.7-6.1,3.7-8.9,6.7-1.5.7-5.2.7-6.1-1.5-2-6.9-5.7-11.1-9.9-15.6-3.4,1.5-6.4,2.9-8.7,4.4-13.6,10.9-30.4,18.2-45.8,16.5-4.5,2.4-8.6,6.2-12.4,9.8-.7.7-3,0-3.7,0-.3-.5-.5-1-.8-1.5-1.6,1.7-2.9,2.9-1.6,4.7Z"/><path id="_176" class="cls-4" d="m156.8,380.68c5.2-1.5,11.3-1.5,16.5.7,6.1,2.2,8.9,11.3,14.1,11.3,13.5.7,25.4,0,38.2,6.1,11.4,5,17.3-5.9,26.2-11.6-.2-.8-.2-1.5-.2-2.2v-24.4l1.9-.7c.2,0,19.9-7.9,31.5-13.1,7.1-3.2,10.1-5.7,13.1-8.2,1.9-1.5,3.7-3.2,6.4-4.7.3-.2.8-.7,1.2-1.9,1-4.5-3-13.8-7.4-20.4-5.7-8.6-5.7-22.5-5.7-29.3s0-23.6,1.2-33.3c-8.6.2-18-3.5-26.1-.5-.7,0-1.5,3-3,3.7-8.2,3-11.9,6.1-10.4,15-9.8-1.5-9.8,9.8-15.6,11.3-13.5,3-29.1,5.2-39.7-3.7-10.4-8.9-20.2-14.1-34.3-14.1-1.5,0-5.2-1.5-5.2-3.7,0-5.2,6.7-8.2,3-14.1-2.2-3.7-8.9-.7-12.8-3.7-1.3-1.9,0-3,1.3-4.5-4.4-7.4-9.4-13-16.3-15.6-8.2-3.7-17.2,1.5-20.2,8.2-3,8.2-9.8,10.4-13.5,15.6-4.5,5.2-13.5,7.4-16.5,13.5-5,9.4-15.3,13-24.2,9.6l-5,15.8-.8,5.6.3,3.2,1.2,3.5,1.2,4.7-1.2,2-2,2-.8,1.5,3.2,1.5,3.9,1.2,2,1.2,1.5,1.5,1.5,4.4v5.9l-1.2,10.6,2.4,13.8-.3,4.7-2.7,11.1v3.2l.3,7.1v2.4l-.8,4.4.8,2.4,2,1.5,3.5,1.2,11.4,2,7.6-4,3.2-.3,3.5,1.2,3.2,2.4,2.7,3.5c3.7-1.7,7.4-3.5,11.1-5,14.2-6,29.9,2.2,44.8-1.5Z"/><path id="_180" class="cls-2" d="m118,504.68c2.2-4.5,10.4-.7,11.9-3,4.5-8.9,10.4-15.6,17.2-23.9,1.5-2.2-2.2-6.7,0-7.4,14.1-3,27.6,11.9,39.7-1.5.7-.7,3.7-.7,4.5,0,4.5,5.2,7.4,13.5,16.5,12.8,0,1.5,1.5,2.2,2.2,3,7.4,5.2,15.6-2.2,16.5-6.7,1.5-11.9,2.2-23.9-7.4-33.6-3-3-1.5-7.4,4.5-7.4-.7-12.8,6.1-22.4,19.5-26.2,2.2-.7,3.7-5.2,6.7-6.7,1.7-1.7,3.9-2.5,6.1-2.5-1.3-4-3.2-10.1-3.9-14.3-8.7,5.7-14.8,16.7-26.2,11.6-12.8-6.1-24.7-5.2-38.2-6.1-5.2,0-8.2-8.9-14.1-11.3-5.2-2.2-11.3-2.2-16.5-.7-15,3.7-30.6-4.5-44.9.7-3.7,1.5-7.4,3.4-11.1,5l.3.5,1.5,4.4v4.4l-5.2,6.7-8.2,6.4-6.7,6.7,1.2,13.1-.8,5.6-1.5,5.2-1.5,3.9-1.5,2.4-3.9,1.5-2,1.5-.3,2.4,2,5.2-1.2,1.5-4.7,2-2.7,2.4-2.4,3.5-2,5.6-2,4.4-5.6,5.9-2,3.5v.3l-2,3.2-1.5,3.5-.3,3.5,1.2,3.5v3.5l-2,3.2-2.4,2.7-.8,2.7,3.9,5.9,7.9,1.5,15-2,2.7.8,8.2,3.9,2.7,1.5,1.2,2.4.7,2.5c4.9-2.5,10.3-4.2,15.3-6.9,6.6-4.1,11.2-10.2,16.4-16.2Z"/><path id="_170" class="cls-1" d="m218.9,694.58c1.5-3.7,5.2-6.7,8.9-9.8,5.2-5.2,14.1-4.5,20.9-2.2,6.1,2.2,6.1,10.4,8.2,15.6,3,6.7,11.3,6.7,18.7,8.9,2.2.7,2.2,6.7,3.7,7.4,8.2,5.2,18.7,1.5,28.4,2.2,0-2.2,3-1.5,2.2-3.7,2.2,0,3.7-3.7,6.7-2.2,6.7-20.2,29.9-18.7,45.6-26.2,6.7-3.2,12.4-8.2,17.3-14.1l-39.9-59.7-68.5-178.8-14.6-26.6c-.2-.5-.8-2.2-1.5-4.4-2.2.2-4.4.8-6.1,2.5-3,1.5-4.5,6.1-6.7,6.7-13.5,3.7-20.2,13.5-19.5,26.2-6.1,0-7.4,4.5-4.5,7.4,9.8,9.8,8.9,21.7,7.4,33.6-.7,4.5-8.9,11.9-16.5,6.7-.7-.7-2.2-1.5-2.2-3-8.9.7-11.9-7.4-16.5-12.8-.7-.7-3.7-.7-4.5,0-11.9,13.5-25.4-1.5-39.7,1.5-2.2.7,1.5,5.2,0,7.4-6.7,8.2-12.8,15-17.2,23.9-1.5,2.2-9.8-1.5-11.9,3-5.2,6.1-9.8,11.9-16.5,16.5-5,2.7-10.4,4.4-15.3,6.9l.2.5,1.5,3.5,2.4,3.2,2,.3,1.5-.3,1.5-.3,1.5,1.2v1.5l-.8,4.4v1.5l1.5,3.2,3.2.3,3.5-1.5,3.2-1.5,6.4-.3,6.4,2.7,5.9,4.7,8.2,9.4.8,2.7-2.4,3.5-8.2,5.9-1.5,2.4-1.2,8.2,4.7,4.7,5.2,3.9.8,4.7-2,5.6-1.5,6.7-.3,6.7,1.2,5.6.8,4.7-2.7,7.9,1.2,4.7,3.2,1.5,8.7.8,3.5,2.4,3.2,7.9,2.4,2.4,8.2-1.2,2,2.4,1.5,3.9,2,3.5,13.1,7.9,5.6,5.9-.8,8.7-2.7,3.5-3.2,1.5-2.7,2.4-2,4.7.8,5.6,2.4,4.7,1.5,4.7-1.5,5.2-.3.7c7.6,1.9,14,6.9,21.2,8.6,17.1,5.7,20.8-16.7,24.5-31Z"/><path id="_193" class="cls-5" d="m357.4,741.88c6.1,2.2,11.9-3.7,19.5-2.2,1.5,0,2.2,1.5,3,2.2,3.7,8.2-2.2,20.9,10.4,21.7,17.2,0,29.9,8.9,41.9,20.2,8.9,8.2,21.7,8.9,34.3,11.9,3,0,6.7,2.2,9.8,3.7,8.9,2.2,20.9,6.1,26.9-2.2.7-1.5-2.2-4.5.7-6.1,5.2-3.7,8.9-6.7,14.1-8.9,2.2-1.5,6.1-1.5,8.2.7,13.5,10.4,31.5,7.4,44.1-4.5,4.5-5.2,11.9-2.2,16.5,3.7,2.2,2.2,6.7-1.5,9.8-1.5,11.3,1.5,18,20.2,22.4,32.1,1.5,2.2,5.2,7.6,8.2,5.2,6.7-4.5,19.5-11.9,14.1-18.7-10.4-15.6-8.2-31.5,3.7-45.6.7-.7,1.2-1.3,1.7-2.2-.8-5,0-9.8,1.2-13.1l-29.3-6.7c-2.9,2.4-10.6,8.2-19.2,12.6-11.9,6.1-38.9,1.2-48.1-1-6.6-1.7-14.8,9.6-20.2,17-1.7,2.2-3,4.2-4.4,5.7-7.2,8.7-20.9,8.6-40.4-.5-16.8-7.7-15.6-18.3-15-23.6,0-.7.2-1.2.2-1.7,0-3.2-1-10.8-2.5-20.5-1-5.9-16.5-13.3-20.9-13.3-2.9,0-7.7-1.2-13.8-2.7-6.2-1.5-13.5-3.2-19.5-3.9-12.8-1.3-32.6-25.9-34.8-28.8l-.2-.2c-4.9,6.1-10.6,10.9-17.3,14.1-.3.2-.7.3-1.2.5-.5,10.8-1,21.4-3.4,32.5-1.4,8.3-11.1,19.5-.5,24.1Z"/><path id="_195" class="cls-4" d="m263.1,786.58c6.7-1.5,14.1-6.1,16.5-13.5,2.2-6.1-5.2-8.9-7.4-14.1-.7-2.2,1.5-4.5,2.2-6.7.7-3.7,6.1-6.7,6.1-9.8-1.9-9.9-.7-18.2.2-27.1-.3-.2-.7-.3-1-.5-1.5-.7-1.5-6.7-3.7-7.4-7.4-2.2-15.6-2.2-18.7-8.9-2.2-5.2-2.2-13.5-8.2-15.6-6.7-2.2-15.6-3-20.9,2.2-3.7,3-7.4,6.1-8.9,9.8-3.7,14.1-7.4,36.7-23.9,32.1-7.2-1.7-13.8-6.7-21.2-8.6l-2.9,7.2v2.7l2,4.7,1.2,2,1.5.3,2,.8,1.5,1.2.8,1.5,1.2,4.4,1.2,1.2,2,.3,4.7-1.2,2-.3,2,1.2,2.4,2.7,5.2,2.4,1.5,2.4-.3,3.2-2.7,2.7-1.2,7.6v.2c14.8.7,29.4,11.4,39.9,21.9,4.8,4.2,15.9.5,24.9-1Z"/><path id="_196" class="cls-2" d="m292.9,795.68c6.7,5.2,15,1.5,22.4,4.5,8.9,3.7,13.5,12.8,20.9,19.5,3,2.2,7.4,3,8.2-.7,1.5-6.1-.7-11.9,2.2-17.2,4.5-8.2,8.9-15.6,14.1-24.7,2.2-3,5.2-6.1,7.4-8.9,1.5-2.2,3.7-5.2,2.2-7.4-5-5.7-11.8-10.9-12.3-18.3-.3,0-.8-.2-1.2-.3-10.4-4.5-.7-15.6.7-23.9,2.5-11.1,2.9-21.5,3.4-32.5-15.6,6.9-37.9,5.9-44.6,25.7-3-1.5-4.5,2.2-6.7,2.2.7,2.2-2.2,1.5-2.2,3.7-9.3-.7-19.3,2.7-27.4-1.7-.8,8.9-2,17.2-.2,27.1,0,3-5.2,6.1-6.1,9.8-.7,2.2-3,4.5-2.2,6.7,2.2,5.2,9.8,8.2,7.4,14.1-.3,1-.7,1.9-1,2.7,6.9,5.6,8.5,14.4,15,19.6Z"/><path id="_178" class="cls-2" d="m373,962.38c-2.2-9.8.7-22.4-8.2-27.6-8.9-4.5-23.2,2.2-26.9-9.8-5.2-16.5-19.5-10.4-30.6-16.5-6.1-2.2-13.5-9.8-20.2-5.2-4,2.7-6.6,6.6-7.7,11.1l4.4,4.7,2.4,7.1,1.2,6.4.3,11.8,1.5,4.7,4.4,5-5.6,3.5,1.2,3.2,4.4,3.2,3.5,3.2,1.2,5.2-.8,12.6,1.2,5.9,7.1,8.7,3.2,5.6-1.2,5.6-2.7,4.4-2.7,5.6-1.5,5.9,1.5,4.4,4.4,3.9,4.7.8,5.2-1.5,4.7-3.2,4.4-1.2,7.6-3.5h5.9l5.6,1.5,8.7,3.2,3.5,3c0-.3-.2-.5-.2-.8,0-.2,2-21.7,2-27.4,0-7.1,6.6-20.7,18.8-20.7,7.7,0,8.9,0,8.9-10.9v-.8c-6.5-2.2-12.1-5.4-13.6-11.1Z"/><path id="_173" class="cls-1" d="m331.8,903.98c.7-3.7-4.5-8.9,1.5-14.1,3-3.7,1.5-9.8-1.5-13.5-6.1-5.2-25.4-11.3-14.1-19.5,8.2-5.2,19.5-1.5,24.7-11.9,1.5-3.7-4.5-5.2-3.7-8.2.8-5.4,2-10.6,1.3-15.5-1.2-.3-2.5-.8-3.7-1.7-7.4-6.7-11.9-15.6-20.9-19.5-7.4-3-15.6.7-22.4-4.5-6.6-5-8.2-13.8-14.5-19.9-3,5.9-9.4,9.4-15.3,10.8-8.9,1.5-20.2,5.2-25.4.7-10.3-10.3-25.1-21-39.9-21.9l1.5,4.5,2,4.4,1.2,6.4-1.2,6.4-3.2,5.2-8.2,9.4-2.7,6.7,2,4.7,4.7,2.7,5.9,1.5,7.1-.3,3.5.3,2.7,2.4,2,2.4,2.4,1.5,2.7.8h3.2l3.9,2,3.2,4.7,5.6,9.4,2.7,5.9-.3,5.2-4.7,9.9-2.4,9.4v5.6l-.8.8-3.2.8-.8.8-.3,4.4,3.2,4.4,4.7,3.5,2.7,3.2.3,3.5,1.2,2.4,2,2,2,2.4,1.2,3.5.3,2.7.8,2.4,2.7,3.2,6.4,2.7,6.7-.8,12.6-4.7,5.9.3h0c1.3-4.4,3.7-8.2,7.7-11.1,6.7-4.5,14.1,3,20.2,5.2,5.6,3,11.8,3,17.5,4.2,3.7-1.4,6.4-4.1,7.3-8.2Z"/><path id="_189" class="cls-4" d="m391.7,936.98c1.5-3,.7-6.7,1.5-9.8.7-1.5,2.2-3.7,3.7-3,15.6,2.2,23.9-13.5,19.5-26.2-6.7-18.7,1.5-38.2,19.5-44.1,6.1-2.2,11.3-3.7,15-8.2,8.2-11.3-3.7-18.7-7.4-27.6-5.6-11.4,3.9-18.5,14.5-24.2-9.6-1.9-18.8-3.9-25.7-10.1-11.9-11.3-24.7-20.2-41.9-20.2-12.8-.7-6.7-13.5-10.4-21.7-.7-.7-1.5-2.2-3-2.2-7.1-1.3-12.6,3.7-18.3,2.5.5,7.4,7.2,12.6,12.3,18.3,1.5,2.2-.7,5.2-2.2,7.4-2.2,3-5.2,6.1-7.4,8.9-5.2,8.9-9.8,16.5-14.1,24.7-3,5.2-.7,11.3-2.2,17.2-.5,2.4-2.4,2.9-4.5,2.5.7,4.9-.5,10.1-1.3,15.5-.7,3,5.2,4.5,3.7,8.2-5.2,10.4-16.5,6.7-24.7,11.9-11.3,8.2,8.2,14.1,14.1,19.5,3,3.7,4.5,9.8,1.5,13.5-6.1,5.2-.7,10.4-1.5,14.1-1,4-3.7,6.7-7.2,8.7,5.7,1.3,10.6,3.9,13.3,12.1,3.7,11.9,18,5.2,26.9,9.8,7.6,4.4,6.6,14.1,7.6,22.9,5.4-7.3,14.6-11.8,18.7-20.4Z"/><path id="_187" class="cls-1" d="m556.2,886.88c.7-3,0-6.7-1.5-8.9-3.7-3-8.9-7.4-8.9-9.8-.7-11.9-1.5-23.9-10.4-33-5.2-4.5-12.8-6.1-16.5-11.9-2.2-5.2,3.7-9.8.7-15-.7-1.5-3-3.7-3.7-3.7-4.9-1.7-9.3-4.2-12.8-7.4-6.1,8.1-17.8,4.4-26.9,2.2-3-1.5-6.7-3.7-9.8-3.7-2.9-.7-5.7-1.2-8.6-1.9-10.6,5.7-20,12.8-14.5,24.2,3.7,8.9,15.6,16.5,7.4,27.6-3.7,4.5-8.9,6.1-15,8.2-18,6.1-26.2,25.4-19.5,44.1,4.5,12.8-3.7,28.4-19.5,26.2-1.5-.7-3,1.5-3.7,3-.7,3,0,6.7-1.5,9.8-4,8.6-13.3,13.3-19.3,20.7.2,1.7.3,3.2.7,4.7,1.5,5.7,7.1,8.9,13.1,10.8.3-14.3,8.6-23.9,20.7-23.9,10.4,0,35.2,0,40.5-1.9,3.7-1.2,5.9-8.4,5.9-18.8v-34l2.2-.5c.7-.2,16.3-4,30.3-4,3.2,0,6.4-.3,9.4-.7,9.1-1,19.2-2.2,21.2,11.1,1.7,11.3,6.9,13.3,20.7,13.3,3.4,0,10.4-.8,19.2-1.9-1.2-2.5-2.2-5.2-3-7.7-2.1-5.9.9-12,3.1-17.2Z"/><path id="_192" class="cls-2" d="m654.9,840.38c-11.3-.7-19.5-8.2-26.9-15.6-1.3-1.9-2.2-4-2.5-6.2-2.5-.2-5.2-4-6.4-5.7-4.5-11.9-11.3-30.6-22.4-32.1-3,0-7.4,3.7-9.8,1.5-4.5-6.1-11.9-8.9-16.5-3.7-12.8,11.9-30.6,15-44.1,4.5-2.2-2.2-6.1-2.2-8.2-.7-5.2,2.2-8.9,5.2-14.1,8.9-3,1.5,0,4.5-.7,6.1h0c3.5,3.2,7.9,5.7,12.8,7.4.7,0,3,2.2,3.7,3.7,3,5.2-3,9.8-.7,15,3.7,6.1,11.3,7.4,16.5,11.9,8.9,8.9,9.8,20.9,10.4,33,0,2.2,5.2,6.7,8.9,9.8,1.5,2.2,2.2,6.1,1.5,8.9-2.2,5.2-5.2,11.3-3,17.2.8,2.7,1.9,5.2,3,7.7,10.9-1.5,24.4-3.5,36.3-5.2,16.3-2.5,27.6-4,32.8-4.5,2.2-1.9,4.5-3.5,7.7-4.7,2.2-1.5,3.7-5.2,4.5-8.9.7-7.4,12.8-8.9,12.8-17.2,0-8.9,0-16.5,6.7-23.9,2.1-1.9.6-7.2-2.3-7.2Z"/><path id="_191" class="cls-4" d="m765.3,897.58c-1.9-9.6-11.8-44.9-15.6-54.8-3.4-8.6-11.4-33.1-14-40.4-4.5-.2-15.6-.5-26.1-2.7-8.7-1.7-9.6.7-11.4,4.9-.3.8-.7,1.9-1.2,2.7-2.9,5.7-10.8,13.6-11.1,14l-1.5,1.5-2-1c-.7-.3-14.8-8.1-21.5-13.5-3.9-3-5-8.2-3.5-14.5,1.2-4.4,3.7-9.4,6.9-13.5,2-2.5,2-3.2-4.5-9.8-2-2-4.5-4.4-7.2-7.6-3.4-3.9-5-7.9-5.9-11.8-.5.8-1.2,1.5-1.9,2.2-11.9,14.1-14.1,29.9-3.7,45.6,5.2,6.7-7.4,14.1-14.1,18.7-.5.5-1.2.7-1.9.5.3,2.2,1.2,4.2,2.5,6.2,7.4,7.4,15.6,15,26.9,15.6,3,0,4.5,5.2,2.2,6.7-6.7,7.4-6.7,15-6.7,23.9,0,8.2-11.9,9.8-12.8,17.2-.7,3.7-2.2,7.4-4.5,8.9-3.2,1.2-5.6,3-7.7,4.7,1-.2,1.9-.2,2.5-.2,12.1,0,21,4.5,26.2,13.3,5.4,8.9,10.4,10.6,21.7,12.4,1.3.2,2.5.3,3.9.7,9.8,1.5,18.2,2.9,20.4,13.6,2,10.3,18,11.4,24.7,11.4,12.8,0,31.5-9.3,37-18.3,5.7-8.1,5.9-27,3.9-36.6Z"/><line id="LINE_20" class="cls-3" x1="233" y1="740.48" x2="171" y2="765.58"/><line id="LINE_21" class="cls-3" x1="271.7" y1="839.88" x2="209.6" y2="864.98"/><g id="G_22"><path id="PATH_23" d="m124.2,91.48h-1.9c-.2,2.4-1,4.2-2.7,5.9-.5.5-.8.8-1,.8-.8,0-2-.2-3.2-.3-.3-.2-.7-.2-.7-.2,0,0,.2-.2.7-.3,1.3-.3,2.7-1.2,3.9-2,.5-.5,1-.8,1.3-1.5.5-.7.8-1.3.8-1.9v-.5h-2.2c-1.7,0-2.4-.7-2.4-2,0-.8.2-1.7.7-2.7s1.2-1.7,1.9-1.7c.8,0,1.5.5,2,1.7.3.8.7,1.7.7,2.7h1.9v2h.2Zm-3-1.8c0-.5-.2-1-.5-1.5-.3-.7-.8-.8-1.3-.8-.3,0-.7.2-.8.3-.3.3-.3.5-.3,1,0,.8.7,1.2,2,1.2-.1-.2.4-.2.9-.2Z"/><path id="PATH_24" d="m134.6,75.98c0,.3-.3,1-.7,1.9l-4.2,1.3c-1.9.7-3.2,1.2-3.9,1.5,1.3,1.3,2.2,2.4,2.7,2.9.8,1.2,1.3,2.2,1.5,3.4,0,.8,0,1.7-.3,2.4-.5,1.5-2.4,2.2-5.2,2.2h-1v-2h1c1.3,0,2.4,0,2.9-.2,1.2-.3,1.9-.8,1.9-1.7,0-1.2-.8-2.5-2.7-4.2l-.2.3c-.2-.2-.5-.5-.8-1-.5-.5-.7-1-.7-1,0-.3,0-.7.2-1.3s.3-1,.5-1.2,1.3-.7,3.5-1.3c2-1,4-1.6,5.5-2Z"/><path id="PATH_25" d="m140.5,91.48h-1.2c-1.2,0-2.2-.5-2.5-1.5-.3-.7-.5-1.9-.5-3.2v-3.2c0-1.5-.2-3.7-.3-6.6l1-1.2c.2-.2.3-.2.3,0,.2,1.5.3,3.7.3,6.6v4.9c0,1.3.7,2,2,2h.8v2.2h.1Z"/><path id="PATH_26" d="m148.9,88.18c0,.8,0,1.5-.3,2.2-.3.8-.8,1.3-1.3,1.3-.8,0-2.2-.5-3.9-1.7-.5.7-.8,1-1,1.2-.5.3-1,.5-1.7.5h-.8v-2h1.2c.7,0,1.3-.3,2-1.2.3-.3.8-1.2,1.5-2.2.5-.8,1.2-1.2,1.7-1.2.8,0,1.5.3,2,1.2.3.7.5,1.3.6,1.9Zm-1,1.3c0-.5-.2-1-.5-1.7s-.8-1-1.3-1-1,.5-1.7,1.5c.3.3.8.7,1.5,1s1.3.5,1.7.5c.1,0,.3-.1.3-.3Z"/></g><g id="G_27"><path id="PATH_28" d="m180.4,171.58c0,1.9-1.2,3.2-3.4,3.9-1.5.5-3.7.7-6.7.7-1.2,0-2.2,0-2.7-.2-1.2-.3-2-1-2.5-2,0-.2-.2-.3-.2-.3h0s.2,0,.3.2c.8.3,1.9.5,3.2.5.5,0,.8,0,1-.2s.3-.5.2-1v-3.9c-.2-2.9-.3-5.2-.7-7.4l1.2-1.2.2-.2s.2.2.2.3c.2.7.3,1.3.7,2,0,.2.2.3.2.3h-.9c.2,3,.2,4.9.2,5.4v1.9c0,.7-.2,1.7-.5,2.9.2,0,.5-.3,1.3-1,.8-.8,1.7-1.5,2.4-2,1.2-.7,2.2-1,3.2-1,.8,0,1.5.2,2,.7,1.1.2,1.3.9,1.3,1.6Zm-1.2,1.2c0-.5-.3-1-1-1.3-.5-.3-1.2-.5-1.7-.5-1.2,0-3.2,1-5.7,3.2.7,0,1.5.2,2.2.2,1,0,2.2-.2,3.4-.3,2-.5,2.8-.8,2.8-1.3Z"/><path id="PATH_29" d="m191,176.28h-1.9c-.2,2.4-1,4.2-2.7,5.9-.5.5-.8.8-1,.8-.8,0-2-.2-3.2-.3-.3,0-.7-.2-.7-.2,0,0,.2-.2.7-.3,1.3-.3,2.7-1.2,3.9-2,.5-.5,1-.8,1.3-1.5.5-.7.8-1.3.8-1.9v-.5h-2.2c-1.7,0-2.4-.7-2.4-2,0-.8.2-1.7.7-2.7s1.2-1.7,1.9-1.7c.8,0,1.5.5,2,1.7.3.8.7,1.7.7,2.7h1.9v2h.2Zm-3.1-2c0-.5-.2-1-.5-1.5-.3-.7-.8-.8-1.3-.8-.3,0-.7.2-.8.3-.3.3-.3.5-.3,1,0,.8.7,1.2,2,1.2-.1-.2.4-.2.9-.2Z"/><path id="PATH_30" d="m204.3,172.58c0,1-.2,1.9-.7,2.5-.5.7-1.3,1.2-2.2,1.2-1.2,0-1.9-.5-2.4-1.3-.7,1-1.3,1.3-2.4,1.3-1.2,0-2-.5-2.5-1.3-.7,1-1.5,1.3-2.7,1.3h-1.2v-2h1.3c1.2,0,2-.7,2.2-2,0-.3.2-.5.3-.5.2,0,.2.2.3.5.2,1.3.8,2,2.2,2,.7,0,1.3-.2,1.7-.5.2-.3.3-.7.5-1.3,0-.3.2-.5.3-.5s.2.2.3.5c.2,1.3.8,2,2,2,1.3,0,1.9-.3,1.9-.8s-.3-1.2-1-1.9l.8-1.5c.2-.2.2-.3.3-.3s.2.2.3.3c.3.8.7,1.6.7,2.3Zm-5.8-6.1l-1.2,1.2-1.2-1.2,1.2-1.2,1.2,1.2Zm1.6-2.6l-1.2,1.2-1.2-1.2,1.2-1.2,1.2,1.2Zm1.5,2.6l-1.2,1.2-1.2-1.2,1.2-1.2,1.2,1.2Z"/></g><g id="G_31"><path id="PATH_32" d="m70.5,201.18c.2.5.2,1,.2,1.5,0,.7-.2,1.2-.3,1.9-.5,1.2-1.3,2.2-3,2.9-1.3.5-2.7.8-4.2.8s-2.7-.3-3.7-1c-1-.8-1.5-1.9-1.5-3.4,0-.8.2-1.5.5-2.5.3-.7.5-1.2.8-1.5.2-.2.3-.2.3-.2q.2,0,.2.2v.3c-.5,1-.7,2-.7,2.9s.3,1.5.8,2.2c.7.8,1.9,1.2,3.4,1.2,1.7,0,3.2-.3,4.4-.8,1-.5,1.7-1,2-1.7.2-.2.2-.5.2-.7,0-.5-.2-1-.3-1.7-.2-.5-.7-1.3-1.5-2.7l.7-1.3c.2-.2.2-.3.2-.3,0,0,.2,0,.2.2.7,1.2,1.2,2.4,1.3,3.7Zm-5-7.2l-1.3,1.3-1.3-1.3,1.3-1.3,1.3,1.3Z"/><path id="PATH_33" d="m74.6,199.28c0,.7-.2,1.3-.5,1.9-.2.3-.3.5-.3.5,0,0-.2-.2-.2-.7,0-2-.3-6.7-1-14.3l1.3-1.3.2-.2v.3c.5,2.4.5,6.9.5,13.8Z"/><path id="PATH_34" d="m83.1,201.68c0,1.7-.5,3.2-1.5,4.7-.8,1.2-1.7,1.9-2.2,1.9-1.3,0-2.4,0-3.4-.2-.3,0-.5-.2-.5-.2,0,0,.2-.2.5-.2,1.3-.3,2.7-1,4-2,1.3-1.2,2.2-2.4,2.2-3.5,0-.7-.5-1.7-1.7-2.9l.8-1.5c0-.2.2-.2.2-.2l.2.2c.3.5.8,1.2,1,2,.3.6.4,1.2.4,1.9Z"/><path id="PATH_35" d="m96.3,201.48h-.7c-.7,0-1.2-.2-1.7-.7-.3-.3-.7-.7-1-1.3-.3.7-.8,1.2-1.3,1.5-.7.3-1.5.5-2.9.5-2.4,0-3.5-.8-3.5-2.5,0-.5.2-1.2.5-1.7.2-.2.2-.3.3-.3s.2.2.2.3v1c0,1,.8,1.5,2.5,1.5,2.4,0,3.5-.5,3.5-1.3,0-.5-.7-2.4-2-5.6l.7-1.3c.2-.2.2-.3.2-.3,0,0,.2.2.2.3.5,1.3,1.3,3.4,2.4,6.1.5,1.3,1.2,2,2.2,2h.5v1.8h-.1Z"/><path id="PATH_36" d="m100.1,188.08c.2.2.2.3.2.3h-.8c.2,2.2.2,5.4.2,9.6,0,1-.2,1.9-.7,2.4-.5.7-1.3,1-2.2,1h-1v-2h.8c1.3,0,2-.5,1.9-1.5-.2-3.5-.3-7.2-.5-10.9l1.2-1c.2-.2.3-.3.3-.3,0,0,0,.2.2.3-.2.6.1,1.2.4,2.1Z"/><path id="PATH_37" d="m106.9,201.48h-1.2c-1.2,0-2.2-.5-2.5-1.5-.3-.7-.5-1.9-.5-3.2v-3.2c0-1.5-.2-3.7-.3-6.6l1-1.2c.2-.2.3-.2.3,0,.2,1.5.3,3.7.3,6.6v4.9c0,1.3.7,2,2,2h.8v2.2h.1Z"/><path id="PATH_38" d="m120,196.68l-.7,1.3c-1.2,0-2.2,0-2.7.2-.7.3-1.7.7-3,1.3-1.3.7-2.4,1.2-3,1.3-1,.3-2.2.5-3.2.5h-1.2v-2h1.3c1.5,0,2.9-.3,4-.8l3.9-1.7c-.7-.2-1.7-.5-3-1-1.2-.5-1.9-.7-2.2-.7-.7,0-1.3.3-2,.8q-.2.2-.3.2c-.1,0-.2,0-.2-.2v-.2c.5-1.7,1.5-2.4,2.9-2.4.5,0,1.2.2,1.9.5,1.3.7,2.4,1,3,1.3,1.2.3,2.5.7,4,.7.3,0,.5,0,.5.2q.2.3,0,.7Zm-9.3,7.9l1.2-1.2,1.2,1.2-1.2,1.2-1.2-1.2Zm1.5,2.7l1.2-1.2,1.2,1.2-1.2,1.2-1.2-1.2Zm1.6-2.7l1.2-1.2,1.2,1.2-1.2,1.2-1.2-1.2Z"/></g><g id="G_39"><path id="PATH_40" d="m255.6,186.88h-.7c-.8,0-1.5-.2-1.9-.5-.5-.3-.8-1-.8-1.7-1.9,1.7-4.7,2.5-8.6,2.5s-6.1-1.2-6.1-3.7c0-.8.3-1.7,1-2.5q.2-.2.3-.2t.2.2v.3c-.2.5-.3,1-.3,1.5,0,1.7,1.9,2.5,5.6,2.5,4.2,0,7.1-.8,8.4-2.7.3-.3.5-.5.7-.5s.2.2.2.3,0,.3-.2.7c0,.3-.2.5-.2.7,0,.8.7,1.3,1.9,1.3h.7v1.7h-.2v.1Zm-10.5-9.8l-1.3,1.3-1.3-1.3,1.3-1.3,1.3,1.3Zm2.9,0l-1.3,1.3-1.3-1.3,1.3-1.3,1.3,1.3Z"/><path id="PATH_41" d="m268.9,183.38c0,1-.2,1.9-.7,2.5s-1.3,1.2-2.2,1.2c-1.2,0-1.9-.5-2.4-1.3-.7,1-1.3,1.3-2.4,1.3-1.2,0-2-.5-2.5-1.3-.7,1-1.5,1.3-2.7,1.3h-1.2v-2h1.3c1.2,0,2-.7,2.2-2,0-.3.2-.5.3-.5s.2.2.3.5c.2,1.3.8,2,2.2,2,.7,0,1.3-.2,1.7-.5.2-.3.3-.7.5-1.3,0-.3.2-.5.3-.5s.2.2.3.5c.2,1.3.8,2,2,2,1.3,0,1.9-.3,1.9-.8s-.3-1.2-1-1.9l.8-1.5c.2-.2.2-.3.3-.3s.2.2.3.3c.3.6.7,1.4.7,2.3Zm-5.8-6.3l-1.2,1.2-1.2-1.2,1.2-1.2,1.2,1.2Zm1.6-2.5l-1.2,1.2-1.2-1.2,1.2-1.2,1.2,1.2Zm1.5,2.5l-1.2,1.2-1.2-1.2,1.2-1.2,1.2,1.2Z"/><path id="PATH_42" d="m282,186.88h-.7c-.7,0-1.2-.2-1.7-.7-.3-.3-.7-.7-1-1.3-.3.7-.8,1.2-1.3,1.5-.7.3-1.5.5-2.9.5-2.4,0-3.5-.8-3.5-2.5,0-.5.2-1.2.5-1.7.2-.2.2-.3.3-.3s.2.2.2.3v1c0,1,.8,1.5,2.5,1.5,2.4,0,3.5-.5,3.5-1.3,0-.5-.7-2.4-2-5.6l.7-1.3c.2-.2.2-.3.2-.3,0,0,.2.2.2.3.5,1.3,1.3,3.4,2.4,6.1.5,1.3,1.2,2,2.2,2h.5l-.1,1.8h0Z"/><path id="PATH_43" d="m288.2,186.88h-.7c-1.5,0-2.5-.5-3-1.7-.2.5-.5.8-1,1.2-.5.3-1,.5-1.5.5h-.7v-2h.7c1.3,0,2-.5,2-1.7v-5.9c0-2.2,0-3.9-.2-5l1.5-1.2v11.3c0,1.7.7,2.5,2.2,2.5h.7v2h0Z"/><path id="PATH_44" d="m292.2,183.48c0,2.2-1.2,3.4-3.4,3.4h-1.3v-2h1.2c1.7,0,2.5-.3,2.5-.8s-.3-1.2-1.2-2l.7-1.7c0-.2.2-.2.2-.2,0,0,.2.2.3.3.7.8,1,2,1,3Zm-4,6.8l1.2-1.2,1.2,1.2-1.2,1.2-1.2-1.2Zm1.5,2.5l1.2-1.2,1.2,1.2-1.2,1.2-1.2-1.2Zm1.5-2.5l1.2-1.2,1.2,1.2-1.2,1.2-1.2-1.2Z"/></g><g id="G_53"><path id="PATH_54" d="m177,316.38v.5s-.2,0-.5-.2c-.5-.3-1.2-.5-2-.5-1.2,0-2.2.5-3,1.3s-1.2,1.3-1.2,1.9c0,.5.8,1,2.4,1.2,1.7.3,2.7.7,3,1.2,0,.2.2.3.2.5,0,.8-.3,1.9-.8,2.9-.3.7-1.2,1.2-2.5,1.7-1.7.7-3.4,1-5.6,1-1.5,0-2.7-.3-3.7-1.2-1-.8-1.5-2-1.5-3.4,0-1.5.5-3,1.5-4.4.2-.2.3-.3.5-.3s.2,0,.2.2,0,.2-.2.5c-.7,1.2-1,2.4-1,3.4,0,.8.3,1.5.8,2,.8.8,2,1.2,3.5,1.2,1.3,0,2.9-.2,4.4-.5,2.2-.5,3.4-1.2,3.4-2,0-.3-1-.7-3.2-1.2-.8-.2-1.3-.3-1.7-.5-.3-.2-.7-.7-.7-1.2,0-1.2.5-2.4,1.7-3.9s2.5-2.4,3.7-2.4c1.1.2,2,.9,2.3,2.2Z"/><path id="PATH_55" d="m187.4,322.68h-1.7c-.2,2.4-1,4.2-2.7,5.9-.5.5-.8.8-1,.8-.8,0-2-.2-3.2-.3-.3,0-.7-.2-.7-.2,0,0,.2-.2.7-.3,1.3-.3,2.7-1.2,3.9-2,.5-.5,1-.8,1.3-1.5.5-.7.8-1.3.8-1.9v-.5h-2.2c-1.7,0-2.4-.7-2.4-2,0-.8.2-1.7.7-2.7s1.2-1.7,1.9-1.7c.8,0,1.5.5,2,1.7.3.8.7,1.7.7,2.7h1.9v2Zm-2.8-2.1c0-.5-.2-1-.5-1.5-.3-.7-.8-.8-1.3-.8-.3,0-.7.2-.8.3-.3.3-.3.5-.3,1,0,.8.7,1.2,2,1.2-.1-.2.2-.2.9-.2Z"/><path id="PATH_56" d="m200.7,317.78l-.7,1.3c-1.2,0-2.2,0-2.7.2-.7.3-1.7.7-3,1.3-1.3.7-2.4,1.2-3,1.3-1,.3-2.2.5-3.2.5h-1.2v-2h1.3c1.5,0,2.9-.3,4-.8l3.9-1.7c-.7-.2-1.7-.5-3-1-1.2-.5-1.9-.7-2.2-.7-.7,0-1.3.3-2,.8q-.2.2-.3.2c-.1,0-.2,0-.2-.2v-.2c.5-1.7,1.5-2.4,2.9-2.4.5,0,1.2.2,1.9.5,1.3.7,2.4,1,3,1.3,1.2.3,2.5.7,4,.7.3,0,.5,0,.5.2.2.3,0,.3,0,.7Zm-4.8-7.8l-1.3,1.3-1.3-1.3,1.3-1.3,1.3,1.3Z"/></g><g id="G_57"><path id="PATH_58" d="m141.2,443.58c0,2.4-1,3.5-3,3.5-1.2,0-1.9-.5-2.2-1.5-.5,1-1.3,1.5-2.4,1.5-.3,0-.8,0-1.2-.2,0,1-.2,2-.2,3.2-.5,1.2-1.3,2.2-2.9,2.9-1.3.5-2.7.8-4.2.8s-2.7-.3-3.7-1c-1-.8-1.5-1.9-1.5-3.4,0-.8.2-1.5.5-2.5.3-.7.5-1.2.8-1.5.2-.2.3-.2.3-.2q.2,0,.2.2v.3c-.5,1-.7,2-.7,2.9s.3,1.5.8,2.2c.7.8,1.9,1.2,3.4,1.2,1.7,0,3.2-.3,4.4-.8,1-.5,1.7-1,1.9-1.7.2-.2.2-.5,0-1.2,0-.5-.2-1-.2-1.2-.2-.5-.7-1.3-1.7-2.5l.7-1.3c.2-.2.2-.3.2-.3,0,0,.2,0,.2.2.5.7.8,1.2,1,1.3.5.5,1,.7,1.7.7s1.3-.2,1.7-.7c.2-.3.3-.7.5-1.5,0-.3.2-.5.3-.5s.2.2.2.5c.2.8.3,1.3.7,1.7s1,.5,1.9.5c.3,0,.7-.2.8-.3.3-.2.5-.5.5-.8,0-.5-.3-1-1-1.9l.8-1.5.2-.2.2.2c.8,1.1,1,1.9,1,2.9Z"/><path id="PATH_59" d="m147.9,447.08h-1.2c-1.2,0-2.2-.5-2.5-1.5-.3-.7-.5-1.9-.5-3.2v-3.2c0-1.5-.2-3.7-.3-6.6l1-1.2c.2-.2.3-.2.3,0,.2,1.5.3,3.7.3,6.6v4.9c0,1.3.7,2,2,2h.8l.1,2.2h0Z"/><path id="PATH_60" d="m160,447.08h-1.2c-.8,0-1.7-.5-2.4-1.3-.5,1.3-1,2-1.5,2s-1.3-.3-2.4-.8c-.8-.5-1.5-1-1.9-1.3-.8,1-1.7,1.5-2.5,1.5h-1v-2h1c.8,0,1.5-.3,2.2-1,.5-.5,1-1.2,1.7-1.9s1.2-1,1.7-1c.7,0,1.2.3,1.7,1,.3.3.7,1,1.5,1.9.5.7,1.2,1,1.9,1h1v2h.2v-.1Zm-4.5-1.5c0-.5-.2-1-.5-1.7s-.8-1-1.5-1c-.5,0-1.2.5-1.9,1.3.2.2.7.5,1.5,1s1.5.7,2,.7c.2.1.4.1.4-.3Z"/><path id="PATH_61" d="m166.2,447.08h-.7c-1.5,0-2.5-.5-3-1.7-.2.5-.5.8-1,1.2-.5.3-1,.5-1.5.5h-.7v-2h.7c1.3,0,2-.5,2-1.7v-5.9c0-2.2,0-3.9-.2-5l1.5-1.2v11.3c0,1.7.7,2.5,2.2,2.5h.7v2Z"/><path id="PATH_62" d="m179.4,443.38c0,1-.2,1.9-.7,2.5-.5.7-1.3,1.2-2.2,1.2-1.2,0-1.9-.5-2.4-1.3-.7,1-1.3,1.3-2.4,1.3-1.2,0-2-.5-2.5-1.3-.7,1-1.5,1.3-2.7,1.3h-1v-2h1.3c1.2,0,2-.7,2.2-2,0-.3.2-.5.3-.5.2,0,.2.2.3.5.2,1.3.8,2,2.2,2,.7,0,1.3-.2,1.7-.5.2-.3.3-.7.5-1.3,0-.3.2-.5.3-.5s.2.2.3.5c.2,1.3.8,2,2,2,1.3,0,1.9-.3,1.9-.8s-.3-1.2-1-1.9l.8-1.5c.2-.2.2-.3.3-.3s.2.2.3.3c.3.8.5,1.7.5,2.3Z"/></g><g id="G_63"><path id="PATH_64" d="m214.7,587.78h-1.2c-1.5,0-2.4-.8-2.7-2.7-.8.8-1.2,1.2-1.3,1.2h-1.5c-.5,0-1,0-1.5-.2-.7-.2-1-.5-1-.8,0-1.3.5-2.4,1.3-3,.7-.5,1.7-1,3-1.7l-.3-1.7,1.2-1.3c0,.2.5,2,1.2,5.6.2,1,.5,1.9.7,2.2.3.5.7.7,1.3.7h1.2v1.9h-.4v-.2Zm-4.2-3.4l-.5-2.7c-.5.2-1.2.5-2,.8-1,.5-1.7,1-1.7,1.2,0,.3.3.5,1.2.7.5.2,1,.2,1.5.2.6,0,1.2-.2,1.5-.2Z"/><path id="PATH_65" d="m222.9,587.78h-1.3c-1.5,0-2.5-.5-3.2-1.5-.5,1-1.7,1.5-3.5,1.5h-1v-2h1.5c1.7,0,2.5-.7,2.7-1.9,0-.5.2-.8.3-.8s.3.3.3.8c.2,1.2,1,1.9,2.5,1.9h1.5v2h.2Zm-5.5,3.7l-1.3,1.3-1.3-1.3,1.3-1.3,1.3,1.3Zm3,0l-1.3,1.3-1.3-1.3,1.3-1.3,1.3,1.3Z"/><path id="PATH_66" d="m231.4,584.38c0,.8,0,1.5-.3,2.2-.3.8-.8,1.3-1.3,1.3-.8,0-2.2-.5-3.9-1.7-.5.7-.8,1-1,1.2-.5.3-1,.5-1.7.5h-.8v-2h1.2c.7,0,1.3-.3,2-1.2.3-.3.8-1.2,1.5-2.2.5-.8,1.2-1.2,1.7-1.2.8,0,1.5.3,2,1.2.4.7.6,1.4.6,1.9Zm-1.1,1.4c0-.5-.2-1-.5-1.7s-.8-1-1.3-1-1,.5-1.7,1.5c.3.3.8.7,1.5,1s1.3.5,1.7.5c.2,0,.3-.2.3-.3Z"/><path id="PATH_67" d="m240.1,587.08c0,2.5-.8,4.7-2.5,6.4-.5.5-.8.8-1,.8-1,0-2-.2-3.2-.3-.5,0-.7-.2-.7-.2,0,0,.2-.2.7-.3,1.3-.3,2.7-1.2,3.9-2.2.5-.5,1-.8,1.3-1.5.5-.7.8-1.3.8-1.9v-.5h-2.2c-1.5,0-2.4-.7-2.4-1.9,0-.8.2-1.7.7-2.7s1.2-1.7,1.9-1.7c1,0,1.9.7,2.4,2.2,0,1.4.3,2.6.3,3.8Zm-1.3-1.3c0-.5-.2-1-.5-1.5s-.8-.8-1.3-.8c-.3,0-.7.2-.8.3-.3.3-.3.5-.3.8,0,.8.5,1.2,1.7,1.2,0,.1.6.1,1.2,0Z"/><path id="PATH_68" d="m248.5,587.88c0,1.7-.5,3.2-1.5,4.7-.8,1.2-1.7,1.9-2.2,1.9-1.3,0-2.4,0-3.4-.2-.3,0-.5-.2-.5-.2,0,0,.2-.2.5-.2,1.3-.3,2.7-1,4-2,1.3-1.2,2.2-2.4,2.2-3.5,0-.7-.5-1.7-1.7-2.9l.8-1.5c0-.2.2-.2.2-.2l.2.2c.3.5.8,1.2,1,2,.2.6.4,1.4.4,1.9Z"/><path id="PATH_69" d="m252.5,585.78c0,.7-.2,1.3-.5,1.9-.2.3-.3.5-.3.5,0,0-.2-.2-.2-.7,0-2-.3-6.7-1-14.3l1.3-1.3.2-.2v.3c.4,2.3.5,6.9.5,13.8Z"/></g><g id="G_70"><path id="PATH_71" d="m116.5,765.58h-1.2c-1.5,0-2.4-.8-2.7-2.7-.8.8-1.2,1.2-1.3,1.2h-1.5c-.5,0-1,0-1.5-.2-.7-.2-1-.5-1-.8,0-1.3.5-2.4,1.3-3,.7-.5,1.7-1,3-1.7l-.3-1.7,1.2-1.3c0,.2.5,2,1.2,5.6.2,1,.5,1.9.7,2.2.3.5.7.7,1.3.7h1.2v1.9h-.4v-.2Zm-4.3-3.5l-.5-2.7c-.5.2-1.2.5-2,.8-1,.5-1.7,1-1.7,1.2,0,.3.3.5,1.2.7.5.2,1,.2,1.5.2.7-.1,1.2-.1,1.5-.2Z"/><path id="PATH_72" d="m120.5,762.18c0,2.2-1.2,3.4-3.4,3.4h-1.3v-2h1.2c1.7,0,2.5-.3,2.5-.8s-.3-1.2-1.2-2l.7-1.7c0-.2.2-.2.2-.2l.3.3c.7.8,1,2,1,3Zm-1.4,7.1l-1.3,1.3-1.3-1.3,1.3-1.3,1.3,1.3Zm2.9,0l-1.3,1.3-1.3-1.3,1.3-1.3,1.3,1.3Z"/><path id="PATH_73" d="m132.6,765.58h-1.9c-.2,2.4-1,4.2-2.7,5.9-.5.5-.8.8-1,.8-.8,0-2-.2-3.2-.3-.3,0-.7-.2-.7-.2,0,0,.2-.2.7-.3,1.3-.3,2.7-1.2,3.9-2,.5-.5,1-.8,1.3-1.5.5-.7.8-1.3.8-1.9v-.5h-2.2c-1.7,0-2.4-.7-2.4-2,0-.8.2-1.7.7-2.7s1.2-1.7,1.9-1.7c.8,0,1.5.5,2,1.7.3.8.7,1.7.7,2.7h1.9v2h.2Zm-3-2c0-.5-.2-1-.5-1.5-.3-.7-.8-.8-1.3-.8-.3,0-.7.2-.8.3-.3.3-.3.5-.3,1,0,.8.7,1.2,2,1.2-.1-.1.4-.2.9-.2Z"/><path id="PATH_74" d="m140.8,765.58h-1.3c-1.5,0-2.5-.5-3.2-1.5-.5,1-1.7,1.5-3.5,1.5h-.8v-2h1.5c1.7,0,2.5-.7,2.7-1.9,0-.5.2-.8.3-.8s.3.3.3.8c.2,1.2,1,1.9,2.5,1.9h1.5v2h0Zm-3.3-8.8l-1.3,1.3-1.3-1.3,1.3-1.3,1.3,1.3Z"/><path id="PATH_75" d="m154.1,762.08c0,1-.2,1.9-.7,2.5-.5.7-1.3,1.2-2.2,1.2-1.2,0-1.9-.5-2.4-1.3-.7,1-1.3,1.3-2.4,1.3-1.2,0-2-.5-2.5-1.3-.7,1-1.5,1.3-2.7,1.3h-1.2v-2h1.3c1.2,0,2-.7,2.2-2,0-.3.2-.5.3-.5s.2.2.3.5c.2,1.3.8,2,2.2,2,.7,0,1.3-.2,1.7-.5.2-.3.3-.7.5-1.3,0-.3.2-.5.3-.5s.2.2.3.5c.2,1.3.8,2,2,2,1.3,0,1.9-.3,1.9-.8s-.3-1.2-1-1.9l.8-1.5c.2-.2.2-.3.3-.3.2,0,.2.2.3.3.4.6.7,1.4.7,2.3Zm-5.7-6.3l-1.2,1.2-1.2-1.2,1.2-1.2,1.2,1.2Zm1.5-2.7l-1.2,1.2-1.2-1.2,1.2-1.2,1.2,1.2Zm1.5,2.7l-1.2,1.2-1.2-1.2,1.2-1.2,1.2,1.2Z"/><path id="PATH_76" d="m158.2,763.58c0,.7-.2,1.3-.5,1.9-.2.3-.3.5-.3.5,0,0-.2-.2-.2-.7,0-2-.3-6.7-1-14.3l1.3-1.3.2-.2v.3c.3,2.2.5,6.7.5,13.8Z"/></g><g id="G_77"><path id="PATH_78" d="m394.5,732.08c0,1.2-.3,2.2-1.2,2.7-.5.3-1.5.7-3,.8-1.7.3-3.4.5-5.2.5-4.4,0-6.7-1.2-6.7-3.7,0-.8.3-1.7,1-2.5.2-.2.2-.3.3-.3q.2,0,.2.2v.3c-.2.5-.3,1-.3,1.5,0,1.7,2.2,2.5,6.4,2.5,2,0,3.9-.2,5.2-.3,1.7-.3,2.4-.7,2.4-1.2,0-.3-.3-1-1.2-2l.8-1.5q.2-.2.3,0c.7,1.2,1,2.2,1,3Zm-6.5,7.6l-1.3,1.3-1.3-1.3,1.3-1.3,1.3,1.3Z"/><path id="PATH_79" d="m401.4,717.78c-.7.7-1.7.8-2.7.8h-1.4c-.2,0-.3.2-.5.3l-.3.3c-.2,0-.2-.2-.2-.3,0-.2.2-.5.3-.8.2-.5.3-.7.5-.7s.5,0,1,.2.8.2,1,.2c1,0,1.7,0,2.2-.2.3,0,.5-.2.5-.2h.2c-.2.1-.4.2-.6.4Zm-1.2,16c0,.7-.2,1.3-.5,1.9-.2.3-.3.5-.3.5,0,0-.2-.2-.2-.7,0-2-.3-6.7-1-14.3l1.3-1.3.2-.2v.3c.5,2.2.5,6.7.5,13.8Z"/><path id="PATH_80" d="m409.8,735.08c0,2.5-.8,4.7-2.5,6.4-.5.5-.8.8-1,.8-1,0-2-.2-3.2-.3-.5,0-.7-.2-.7-.2,0,0,.2-.2.7-.3,1.3-.3,2.7-1.2,3.9-2.2.5-.5,1-.8,1.3-1.5.5-.7.8-1.3.8-1.9v-.5h-2.2c-1.5,0-2.4-.7-2.4-1.9,0-.8.2-1.7.7-2.7s1.2-1.7,1.9-1.7c1,0,1.9.7,2.4,2.2.2,1.5.3,2.7.3,3.8Zm-1.1-1.3c0-.5-.2-1-.5-1.5s-.8-.8-1.3-.8c-.3,0-.7.2-.8.3s-.3.5-.3.8c0,.8.5,1.2,1.7,1.2,0,.2.5.2,1.2,0Z"/><path id="PATH_81" d="m420.1,732.28c0,2.4-1.5,3.5-4.7,3.5-1.2,0-2-.2-2.5-.5-.7-.3-1-1.2-1-2.2,0-.5.2-1,.3-1.5.2-.2.2-.3.3-.3s.2.2.2.5v.5c0,.7.3,1.2,1,1.3.3.2,1,.2,1.9.2,2.5,0,3.7-.3,3.7-1.2,0-1.2-1.5-2.9-4.4-4.9l.5-1.7c0-.2.2-.2.2-.2,0,0,.2,0,.3.2,2.9,2.4,4.2,4.4,4.2,6.3Z"/><path id="PATH_82" d="m441.3,735.58c.2.5.2,1,.2,1.5,0,.7-.2,1.2-.3,1.9-.5,1.2-1.3,2.2-3,2.9-1.3.5-2.7.8-4.2.8s-2.7-.3-3.7-1c-1-.8-1.5-1.9-1.5-3.4,0-.8.2-1.5.5-2.5.3-.7.5-1.2.8-1.5.2-.2.3-.2.3-.2q.2,0,.2.2v.3c-.5,1-.7,2-.7,2.9s.3,1.5.8,2.2c.7.8,1.9,1.2,3.4,1.2,1.7,0,3.2-.3,4.4-.8,1-.5,1.7-1,2-1.7.2-.2.2-.5.2-.7,0-.5-.2-1-.3-1.7-.2-.5-.7-1.3-1.5-2.7l.7-1.3c.2-.2.2-.3.2-.3,0,0,.2,0,.2.2.6,1.1,1.1,2.4,1.3,3.7Zm-4.9-7.2l-1.3,1.3-1.3-1.3,1.3-1.3,1.3,1.3Z"/><path id="PATH_83" d="m448.2,735.78h-1.2c-1.2,0-2.2-.5-2.5-1.5-.3-.7-.5-1.9-.5-3.2v-3.2c0-1.5-.2-3.7-.3-6.6l1-1.2c.2-.2.3-.2.3,0,.2,1.5.3,3.7.3,6.6v4.9c0,1.3.7,2,2,2h.8v2.2h.1Z"/><path id="PATH_84" d="m456.4,735.78h-1.3c-1.5,0-2.5-.5-3.2-1.5-.5,1-1.7,1.5-3.5,1.5h-1v-2h1.5c1.7,0,2.5-.7,2.7-1.9,0-.5.2-.8.3-.8s.3.3.3.8c.2,1.2,1,1.9,2.5,1.9h1.5v2h.2Zm-5.5,3.7l-1.3,1.3-1.3-1.3,1.3-1.3,1.3,1.3Zm2.8,0l-1.3,1.3-1.3-1.3,1.3-1.3,1.3,1.3Z"/><path id="PATH_85" d="m464.7,732.38c0,.8,0,1.5-.3,2.2-.3.8-.8,1.3-1.3,1.3-.8,0-2.2-.5-3.9-1.7-.5.7-.8,1-1,1.2-.5.3-1,.5-1.7.5h-.8v-2h1.2c.7,0,1.3-.3,2-1.2.3-.3.8-1.2,1.5-2.2.5-.8,1.2-1.2,1.7-1.2.8,0,1.5.3,2,1.2.4.8.6,1.4.6,1.9Zm-1,1.4c0-.5-.2-1-.5-1.7s-.8-1-1.3-1-1,.5-1.7,1.5c.3.3.8.7,1.5,1s1.3.5,1.7.5.3-.1.3-.3Z"/></g><g id="G_86"><path id="PATH_87" d="m303,756.98c0,1.2-.3,2-1,2.7s-1.7.8-2.7.8c-.7,0-1.3-.2-1.9-.7-.5-.5-.8-1-.8-1.7,0-.8.3-1.7,1-2.9.5-1,1.2-1.9,1.9-2.5,2.3,1.3,3.5,2.6,3.5,4.3Zm-.8.7c0-.5-.3-1-1.2-1.7-.7-.7-1.2-1-1.9-1.2-.8,1.2-1.3,2-1.3,2.7,0,.3.2.7.7,1,.3.2.7.3,1.2.3.7,0,1.3-.2,1.9-.3.2-.5.6-.6.6-.8Z"/><path id="PATH_88" d="m316.1,760.48h-.6c-.7,0-1.2-.2-1.7-.7-.3-.3-.7-.7-1-1.3-.3.7-.8,1.2-1.3,1.5-.7.3-1.5.5-2.9.5-2.4,0-3.5-.8-3.5-2.5,0-.5.2-1.2.5-1.7.2-.2.2-.3.3-.3s.2.2.2.3v1c0,1,.8,1.5,2.5,1.5,2.4,0,3.5-.5,3.5-1.3,0-.5-.7-2.4-2-5.6l.7-1.3c.2-.2.2-.3.2-.3,0,0,.2.2.2.3.5,1.3,1.3,3.4,2.4,6.1.5,1.3,1.2,2,2.2,2h.5v1.8h-.2Z"/><path id="PATH_89" d="m325.2,760.48h-.8c-.5,0-1.2-.2-2-.3-.8-.2-1.3-.5-1.9-.8-1,.7-2.4,1-4,1h-1.2v-2h.8c1.3,0,2.2-.2,2.5-.3-.7-.5-1-1.2-1-1.9s.3-1.5.8-2.5c.7-1,1.3-1.7,2.2-1.7.8,0,1.3.5,1.9,1.3.3.7.5,1.5.5,2.4,0,1-.3,1.7-1.2,2.4.5.2,1.2.3,2.4.3h.7v2.2h.3v-.1Zm-4.9-12.4l-1.3,1.3-1.3-1.3,1.3-1.3,1.3,1.3Zm2.1,8.1c0-.3-.2-.8-.5-1.3s-.7-.7-1-.7-.7.2-1.2.5-.7.8-.7,1.2c0,.3.2.8.7,1.2.3.3.8.5,1.2.7.3,0,.7-.2,1-.5.3-.3.5-.6.5-1.1Zm.8-8.1l-1.3,1.3-1.3-1.3,1.3-1.3,1.3,1.3Z"/><path id="PATH_90" d="m329.3,757.18c0,2.2-1.2,3.4-3.4,3.4h-1.4v-2h1.2c1.7,0,2.5-.3,2.5-.8s-.3-1.2-1.2-2l.7-1.7c0-.2.2-.2.2-.2l.3.3c.7.8,1.1,2,1.1,3Zm0-7.6l-1.3,1.3-1.3-1.3,1.3-1.3,1.3,1.3Z"/></g><g id="G_91"><path id="PATH_92" d="m372.8,844.98c0,2.4-1.5,3.5-4.7,3.5-1.2,0-2-.2-2.5-.5-.7-.3-1-1.2-1-2.2,0-.5.2-1,.3-1.5.2-.2.2-.3.3-.3s.2.2.2.5v.5c0,.7.3,1.2,1,1.3.3.2,1,.2,1.9.2,2.5,0,3.7-.3,3.7-1.2,0-1.2-1.5-2.9-4.4-4.9l.5-1.7c0-.2.2-.2.2-.2,0,0,.2,0,.3.2,2.7,2.3,4.2,4.3,4.2,6.3Z"/><path id="PATH_93" d="m379.4,848.48h-1.2c-1.2,0-2.2-.5-2.5-1.5-.3-.7-.5-1.9-.5-3.2v-3.2c0-1.5-.2-3.7-.3-6.6l1-1.2c.2-.2.3-.2.3,0,.2,1.5.3,3.7.3,6.6v4.9c0,1.3.7,2,2,2h.8v2.2h.1Z"/><path id="PATH_94" d="m383.4,845.18c0,2.2-1.2,3.4-3.4,3.4h-1.3v-2h1.2c1.7,0,2.5-.3,2.5-.8s-.3-1.2-1.2-2l.7-1.7c0-.2.2-.2.2-.2l.3.3c.7.8,1,1.8,1,3Zm-.5,7l-1.3,1.3-1.3-1.3,1.3-1.3,1.3,1.3Z"/><path id="PATH_95" d="m390.2,848.48h-1.2c-1.2,0-2.2-.5-2.5-1.5-.3-.7-.5-1.9-.5-3.2v-3.2c0-1.5-.2-3.7-.3-6.6l1-1.2c.2-.2.3-.2.3,0,.2,1.5.3,3.7.3,6.6v4.9c0,1.3.7,2,2,2h.8v2.2h.1Z"/><path id="PATH_96" d="m400.6,848.48h-.8c-.7,0-1.3.2-1.9.3-.8.3-1.3.8-1.3,1.7,0,1,.7,1.9,2,2.7l-.8,1.7c-1.5-.5-2.9-1.3-3.9-2.4-1.3-1.2-2-2.7-2-4.2h-2.4v-2h2.2c0-1.3.3-2.7,1-4.4.7-1.5,1.2-2.2,1.5-2.2s.8.7,1.3,2.2c.5,1.3.7,2.2.7,2.7,0,2.4-1.2,3.5-3.5,3.5.2.7.5,1.3,1,2s1.2,1.2,1.9,1.5v-.7c0-1.2.3-2.2.8-3,.8-1.2,1.9-1.9,3.4-1.9h.7v2.4h.1v.1Zm-5.1-2.7c0-.3-.2-1-.5-1.9-.3-1-.7-1.3-1-1.3-.2,0-.5.3-.8,1.2-.3.8-.5,1.9-.5,2.9,1.8-.2,2.8-.4,2.8-.9Z"/><path id="PATH_97" d="m409,845.18c0,.8,0,1.5-.3,2.2-.3.8-.8,1.3-1.3,1.3-.8,0-2.2-.5-3.9-1.7-.5.7-.8,1-1,1.2-.5.3-1,.5-1.7.5h-.8v-2h1.2c.7,0,1.3-.3,2-1.2.3-.3.8-1.2,1.5-2.2.5-.8,1.2-1.2,1.7-1.2.8,0,1.5.3,2,1.2.3.5.4,1.2.6,1.9Zm-1,1.1c0-.5-.2-1-.5-1.7s-.8-1-1.3-1-1,.5-1.7,1.5c.3.3.8.7,1.5,1s1.3.5,1.7.5c.1.2.3.1.3-.3Z"/></g><g id="G_98"><path id="PATH_99" d="m474.9,856.38c.2.5.2,1,.2,1.5,0,.7-.2,1.2-.3,1.9-.5,1.2-1.3,2.2-3,2.9-1.3.5-2.7.8-4.2.8s-2.7-.3-3.7-1c-1-.8-1.5-1.9-1.5-3.4,0-.8.2-1.5.5-2.5.3-.7.5-1.2.8-1.5.2-.2.3-.2.3-.2q.2,0,.2.2v.3c-.5,1-.7,2-.7,2.9s.3,1.5.8,2.2c.7.8,1.9,1.2,3.4,1.2,1.7,0,3.2-.3,4.4-.8,1-.5,1.7-1,2-1.7.2-.2.2-.5.2-.7,0-.5-.2-1-.3-1.7-.2-.5-.7-1.3-1.5-2.7l.7-1.3c.2-.2.2-.3.2-.3,0,0,.2,0,.2.2.7,1.2,1.2,2.4,1.3,3.7Zm-4.8-7.2l-1.3,1.3-1.3-1.3,1.3-1.3,1.3,1.3Z"/><path id="PATH_100" d="m481.8,856.78h-1.2c-1.2,0-2.2-.5-2.5-1.5-.3-.7-.5-1.9-.5-3.2v-3.2c0-1.5-.2-3.7-.3-6.6l1-1.2c.2-.2.3-.2.3,0,.2,1.5.3,3.7.3,6.6v4.9c0,1.3.7,2,2,2h.8l.1,2.2h0Z"/><path id="PATH_101" d="m492.3,841.08c0,.3-.3,1-.7,1.9l-4.2,1.3c-1.9.7-3.2,1.2-3.9,1.5,1.3,1.3,2.2,2.4,2.7,2.9.8,1.2,1.3,2.2,1.5,3.4,0,.8,0,1.7-.3,2.4-.5,1.5-2.4,2.2-5.2,2.2h-.8v-1.9h1c1.3,0,2.4,0,2.9-.2,1.2-.3,1.9-.8,1.9-1.7,0-1.2-.8-2.5-2.7-4.2l-.2.3c-.2-.2-.5-.5-.8-1-.5-.5-.7-1-.7-1,0-.3,0-.7.2-1.3.2-.7.3-1,.5-1.2s1.3-.7,3.5-1.3c1.7-.9,3.8-1.6,5.3-2.1Z"/><path id="PATH_102" d="m501.9,856.78h-1.9c-.2,2.4-1,4.2-2.7,5.9-.5.5-.8.8-1,.8-.8,0-2-.2-3.2-.3-.3,0-.7-.2-.7-.2,0,0,.2-.2.7-.3,1.3-.3,2.7-1.2,3.9-2,.5-.5,1-.8,1.3-1.5.5-.7.8-1.3.8-1.9v-.5h-2.2c-1.7,0-2.4-.7-2.4-2,0-.8.2-1.7.7-2.7s1.2-1.7,1.9-1.7c.8,0,1.5.5,2,1.7.3.8.7,1.7.7,2.7h1.9v2h.2Zm-2.9-2.1c0-.5-.2-1-.5-1.5-.3-.7-.8-.8-1.3-.8-.3,0-.7.2-.8.3s-.3.5-.3,1c0,.8.7,1.2,2,1.2-.1-.2.2-.2.9-.2Z"/><path id="PATH_103" d="m505.9,853.38c0,2.2-1.2,3.4-3.4,3.4h-1.3v-2h1.2c1.7,0,2.5-.3,2.5-.8s-.3-1.2-1.2-2l.7-1.7c0-.2.2-.2.2-.2,0,0,.2.2.3.3.7.8,1,1.8,1,3Zm-.5,7.1l-1.3,1.3-1.3-1.3,1.3-1.3,1.3,1.3Z"/></g><g id="G_104"><path id="PATH_105" d="m557.5,848.68c0,1.7-.5,3.2-1.5,4.7-.8,1.2-1.7,1.9-2.2,1.9-1.3,0-2.4,0-3.4-.2-.3,0-.5-.2-.5-.2,0,0,.2-.2.5-.2,1.3-.3,2.7-1,4-2,1.3-1.2,2.2-2.4,2.2-3.5,0-.7-.5-1.7-1.7-2.9l.8-1.5c0-.2.2-.2.2-.2l.2.2c.3.5.8,1.2,1,2,.3.5.4,1.2.4,1.9Zm-3.5-8.6l-1.2,1.2-1.2-1.2,1.2-1.2,1.2,1.2Zm1.5-2.7l-1.2,1.2-1.2-1.2,1.2-1.2,1.2,1.2Zm1.5,2.7l-1.2,1.2-1.2-1.2,1.2-1.2,1.2,1.2Z"/><path id="PATH_106" d="m567.8,844.98c0,2.4-1.5,3.5-4.7,3.5-1.2,0-2-.2-2.5-.5-.7-.3-1-1.2-1-2.2,0-.5.2-1,.3-1.5.2-.2.2-.3.3-.3.2,0,.2.2.2.5v.5c0,.7.3,1.2,1,1.3.3.2,1,.2,1.9.2,2.5,0,3.7-.3,3.7-1.2,0-1.2-1.5-2.9-4.4-4.9l.5-1.7c0-.2.2-.2.2-.2,0,0,.2,0,.3.2,2.7,2.3,4.2,4.3,4.2,6.3Z"/><path id="PATH_107" d="m591.4,848.48h-.8c-.8,0-1.3,0-1.7-.2,0,.5.2.8.2,1.3,0,.8-.2,1.3-.3,1.9-.5,1.2-1.3,2.2-3,2.9-1.3.5-2.7.8-4.2.8s-2.7-.3-3.7-1c-1-.8-1.5-1.9-1.5-3.4,0-.8.2-1.5.5-2.5.3-.7.5-1.2.8-1.5.2-.2.3-.2.3-.2q.2,0,.2.2v.3c-.5,1-.7,2-.7,2.9s.3,1.5.8,2.2c.7.8,1.9,1.2,3.4,1.2,1.7,0,3.2-.3,4.4-.8,1-.5,1.7-1,2-1.7.2-.2.2-.5,0-1.2,0-.5-.2-1-.2-1.2-.2-.5-.8-1.3-1.7-2.5l.7-1.3c.2-.2.2-.3.2-.3,0,0,.2,0,.2.2.8,1.3,1.7,2,2.7,2h1.3v2h.1v-.1Zm-7.5-7.5l-1.3,1.3-1.3-1.3,1.3-1.3,1.3,1.3Z"/><path id="PATH_108" d="m599.6,848.48h-1.3c-1.5,0-2.5-.5-3.2-1.5-.5,1-1.7,1.5-3.5,1.5h-1v-2h1.5c1.7,0,2.5-.7,2.7-1.9,0-.5.2-.8.3-.8.2,0,.3.3.3.8.2,1.2,1,1.9,2.5,1.9h1.5v2h.2Zm-5.6,3.7l-1.3,1.3-1.3-1.3,1.3-1.3,1.3,1.3Zm2.9,0l-1.3,1.3-1.3-1.3,1.3-1.3,1.3,1.3Z"/><path id="PATH_109" d="m609.9,844.98c0,.7-.2,1.3-.7,2-.5.8-1,1.2-1.7,1.2-.5,0-1.7-.3-3.5-1.2-1.5,1-2.9,1.3-4,1.3h-.8v-2h1c.7,0,1.3,0,2-.2-.7-.5-1-1.2-1-2,0-1,.7-2.2,2.2-3.4l-1.2-.5c.3-.3.8-.8,1.5-1.5,1.5.8,2.9,1.5,4,2.5,1.3,1.4,2.2,2.6,2.2,3.8Zm-4.4-1.4c0-.5-.2-.8-.3-1.2-.2-.5-.5-.7-1-.7s-.8.2-1.3.5-.8.8-.8,1.2c0,.7.7,1.3,1.9,1.7.3-.2.7-.3,1-.5.3-.1.5-.6.5-1Zm3.5,2.1c0-.5-.3-1-1-1.7-.5-.5-1-1-1.5-1.2,0,1.3-.3,2.4-1.2,3,1.3.5,2.4.7,2.7.7.7,0,1-.2,1-.8Z"/><path id="PATH_110" d="m616.6,848.48h-1.2c-1.2,0-2.2-.5-2.5-1.5-.3-.7-.5-1.9-.5-3.2v-3.2c0-1.5-.2-3.7-.3-6.6l1-1.2c.2-.2.3-.2.3,0,.2,1.5.3,3.7.3,6.6v4.9c0,1.3.7,2,2,2h.8l.1,2.2h0Z"/><path id="PATH_111" d="m629.9,844.78c0,1-.2,1.9-.7,2.5s-1.3,1.2-2.2,1.2c-1.2,0-1.9-.5-2.4-1.3-.7,1-1.3,1.3-2.4,1.3-1.2,0-2-.5-2.5-1.3-.7,1-1.5,1.3-2.7,1.3h-1.2v-2h1.3c1.2,0,2-.7,2.2-2,0-.3.2-.5.3-.5s.2.2.3.5c.2,1.3.8,2,2.2,2,.7,0,1.3-.2,1.7-.5.2-.3.3-.7.5-1.3,0-.3.2-.5.3-.5s.2.2.3.5c.2,1.3.8,2,2,2,1.3,0,1.9-.3,1.9-.8s-.3-1.2-1-1.9l.8-1.5c.2-.2.2-.3.3-.3s.2.2.3.3c.3.8.7,1.7.7,2.3Zm-5.7-6l-1.2,1.2-1.2-1.2,1.2-1.2,1.2,1.2Zm1.5-2.7l-1.2,1.2-1.2-1.2,1.2-1.2,1.2,1.2Zm1.5,2.7l-1.2,1.2-1.2-1.2,1.2-1.2,1.2,1.2Z"/></g><g id="G_112"><path id="PATH_113" d="m321.2,975.88h-.7c-.8,0-1.5-.2-1.9-.5-.5-.3-.8-1-.8-1.7-1.9,1.7-4.7,2.5-8.6,2.5s-6.1-1.2-6.1-3.7c0-.8.3-1.7,1-2.5q.2-.2.3-.2t.2.2v.3c-.2.5-.3,1-.3,1.5,0,1.7,1.9,2.5,5.6,2.5,4.2,0,7.1-.8,8.4-2.7.3-.3.5-.5.7-.5s.2.2.2.3c0,.2,0,.3-.2.7,0,.3-.2.5-.2.7,0,.8.7,1.3,1.9,1.3h.7v1.7h-.2v.1Zm-10.4-9.8l-1.3,1.3-1.3-1.3,1.3-1.3,1.3,1.3Zm2.8,0l-1.3,1.3-1.3-1.3,1.3-1.3,1.3,1.3Z"/><path id="PATH_114" d="m334.5,972.28c0,1-.2,1.9-.7,2.5-.5.7-1.3,1.2-2.2,1.2-1.2,0-1.9-.5-2.4-1.3-.7,1-1.3,1.3-2.4,1.3-1.2,0-2-.5-2.5-1.3-.7,1-1.5,1.3-2.7,1.3h-1.1v-2h1.3c1.2,0,2-.7,2.2-2,0-.3.2-.5.3-.5s.2.2.3.5c.2,1.3.8,2,2.2,2,.7,0,1.3-.2,1.7-.5.2-.3.3-.7.5-1.3,0-.3.2-.5.3-.5s.2.2.3.5c.2,1.3.8,2,2,2,1.3,0,1.9-.3,1.9-.8s-.3-1.2-1-1.9l.8-1.5c.2-.2.2-.3.3-.3s.2.2.3.3c.2.7.6,1.5.6,2.3Zm-5.7-6.2l-1.2,1.2-1.2-1.2,1.2-1.2,1.2,1.2Zm1.5-2.5l-1.2,1.2-1.2-1.2,1.2-1.2,1.2,1.2Zm1.5,2.5l-1.2,1.2-1.2-1.2,1.2-1.2,1.2,1.2Z"/><path id="PATH_115" d="m344.7,972.28c0,2.4-1.5,3.5-4.7,3.5-1.2,0-2-.2-2.5-.5-.7-.3-1-1.2-1-2.2,0-.5.2-1,.3-1.5.2-.2.2-.3.3-.3.2,0,.2.2.2.5v.5c0,.7.3,1.2,1,1.3.3.2,1,.2,1.9.2,2.5,0,3.7-.3,3.7-1.2,0-1.2-1.5-2.9-4.4-4.9l.5-1.7c0-.2.2-.2.2-.2,0,0,.2,0,.3.2,2.9,2.3,4.2,4.5,4.2,6.3Z"/><path id="PATH_116" d="m355.2,975.88h-.7c-.7,0-1-.2-1.3-.3v.5c0,1.5-.5,3-1.5,4.5-.8,1.3-1.7,1.9-2.2,1.9-1.3,0-2.4,0-3.4-.2-.3,0-.5-.2-.5-.2,0,0,.2-.2.5-.2,1.3-.3,2.7-1,4-2,1.3-1.2,2.2-2.4,2.2-3.5,0-.7-.5-1.7-1.7-2.9l.8-1.5c0-.2.2-.2.2-.2l.2.2c.5.7.8,1.2,1.2,1.3.5.3,1.2.7,1.9.7h.5v1.9h-.2Z"/><path id="PATH_117" d="m368.5,972.28c0,1-.2,1.9-.7,2.5s-1.3,1.2-2.2,1.2c-1.2,0-1.9-.5-2.4-1.3-.7,1-1.3,1.3-2.4,1.3-1.2,0-2-.5-2.5-1.3-.7,1-1.5,1.3-2.7,1.3h-1.1v-2h1.3c1.2,0,2-.7,2.2-2,0-.3.2-.5.3-.5s.2.2.3.5c.2,1.3.8,2,2.2,2,.7,0,1.3-.2,1.7-.5.2-.3.3-.7.5-1.3,0-.3.2-.5.3-.5s.2.2.3.5c.2,1.3.8,2,2,2,1.3,0,1.9-.3,1.9-.8s-.3-1.2-1-1.9l.8-1.5c.2-.2.2-.3.3-.3s.2.2.3.3c.4.7.6,1.5.6,2.3Z"/></g><g id="G_118"><path id="PATH_119" d="m140.3,862.68h-.7c-.7,0-1-.2-1.3-.3v.5c0,1.5-.5,3-1.5,4.5-.8,1.3-1.7,1.9-2.2,1.9-1.3,0-2.4,0-3.4-.2-.3,0-.5-.2-.5-.2,0,0,.2-.2.5-.2,1.3-.3,2.7-1,4-2,1.3-1.2,2.2-2.4,2.2-3.5,0-.7-.5-1.7-1.7-2.9l.8-1.5c0-.2.2-.2.2-.2l.2.2c.5.7.8,1.2,1.2,1.3.5.3,1.2.7,1.9.7h.3v1.9Z"/><path id="PATH_120" d="m150.8,862.68h-.8c-.7,0-1.3.2-1.9.3-.8.3-1.3.8-1.3,1.7,0,1,.7,1.9,2,2.7l-.8,1.7c-1.5-.5-2.9-1.3-3.9-2.4-1.3-1.2-2-2.7-2-4.2h-2.4v-2h2.2c0-1.3.3-2.7,1-4.4.7-1.5,1.2-2.2,1.5-2.2s.8.7,1.3,2.2c.5,1.3.7,2.2.7,2.7,0,2.4-1.2,3.5-3.5,3.5.2.7.5,1.3,1,2s1.2,1.2,1.9,1.5v-.7c0-1.2.3-2.2.8-3,.8-1.2,1.9-1.9,3.4-1.9h.7v2.4h.1v.1Zm-5.2-2.7c0-.3-.2-1-.5-1.9-.3-1-.7-1.3-1-1.3-.2,0-.5.3-.8,1.2-.3.8-.5,1.9-.5,2.9,1.9-.3,2.8-.4,2.8-.9Z"/><path id="PATH_121" d="m166.2,862.68h-1c-1.2,0-1.9-.5-2.4-1.3-.3,1-1.2,1.3-2.2,1.3s-1.7-.5-2.2-1.3c-.5,1-1.2,1.3-2.2,1.3-1.2,0-2-.5-2.5-1.3-.7,1-1.5,1.3-2.7,1.3h-1.2v-2h1.3c1.2,0,2-.7,2.2-2,0-.3.2-.5.3-.5s.2.2.3.5c.2,1.3.8,2,2.2,2,1.2,0,2-.7,2-2,0-.3.2-.5.3-.5.2,0,.3.2.3.5.2,1.3.8,2,1.7,2,1.2,0,2-.7,2-2,0-.3.2-.5.3-.5s.3.2.3.5c.2,1.3.8,2,2,2h1v2h.2Zm-7.9-8.6l-1.2,1.2-1.2-1.2,1.2-1.2,1.2,1.2Zm1.6-2.5l-1.2,1.2-1.2-1.2,1.2-1.2,1.2,1.2Zm1.5,2.5l-1.2,1.2-1.2-1.2,1.2-1.2,1.2,1.2Z"/><path id="PATH_122" d="m170.3,859.28c0,2.2-1.2,3.4-3.4,3.4h-1.3v-2h1.2c1.7,0,2.5-.3,2.5-.8s-.3-1.2-1.2-2l.7-1.7c0-.2.2-.2.2-.2l.3.3c.6.8,1,1.8,1,3Zm-.2-7.7l-1.3,1.3-1.3-1.3,1.3-1.3,1.3,1.3Z"/><path id="PATH_123" d="m174.2,860.48c0,.7-.2,1.3-.5,1.9-.2.3-.3.5-.3.5,0,0-.2-.2-.2-.7,0-2-.3-6.7-1-14.3l1.3-1.3.2-.2v.3c.5,2.3.5,6.9.5,13.8Z"/><path id="PATH_124" d="m184.8,862.68h-.7c-.7,0-1-.2-1.3-.3v.5c0,1.5-.5,3-1.5,4.5-.8,1.3-1.7,1.9-2.2,1.9-1.3,0-2.4,0-3.4-.2-.3,0-.5-.2-.5-.2,0,0,.2-.2.5-.2,1.3-.3,2.7-1,4-2,1.3-1.2,2.2-2.4,2.2-3.5,0-.7-.5-1.7-1.7-2.9l.8-1.5c0-.2.2-.2.2-.2l.2.2c.5.7.8,1.2,1.2,1.3.5.3,1.2.7,1.9.7h.5v1.9h-.2Z"/><path id="PATH_125" d="m193,862.68h-1.3c-1.5,0-2.5-.5-3.2-1.5-.5,1-1.7,1.5-3.5,1.5h-1v-2h1.5c1.7,0,2.5-.7,2.7-1.9,0-.5.2-.8.3-.8.2,0,.3.3.3.8.2,1.2,1,1.9,2.5,1.9h1.5v2h.2Zm-5.6,3.7l-1.3,1.3-1.3-1.3,1.3-1.3,1.3,1.3Zm2.9,0l-1.3,1.3-1.3-1.3,1.3-1.3,1.3,1.3Z"/><path id="PATH_126" d="m197,859.28c0,2.2-1.2,3.4-3.4,3.4h-1.3v-2h1.2c1.7,0,2.5-.3,2.5-.8s-.3-1.2-1.2-2l.7-1.7c0-.2.2-.2.2-.2l.3.3c.7.8,1,1.8,1,3Zm-4,6.6l1.2-1.2,1.2,1.2-1.2,1.2-1.2-1.2Zm1.5,2.6l1.2-1.2,1.2,1.2-1.2,1.2-1.2-1.2Zm1.5-2.6l1.2-1.2,1.2,1.2-1.2,1.2-1.2-1.2Z"/></g><g id="G_127"><path id="PATH_128" d="m687.6,889.08c0,1.2-.3,2.2-1.2,2.7-.5.3-1.5.7-3,.8-1.7.3-3.4.5-5.2.5-4.4,0-6.7-1.2-6.7-3.7,0-.8.3-1.7,1-2.5.2-.2.2-.3.3-.3q.2,0,.2.2v.3c-.2.5-.3,1-.3,1.5,0,1.7,2.2,2.5,6.4,2.5,2,0,3.9-.2,5.2-.3,1.7-.3,2.4-.7,2.4-1.2,0-.3-.3-1-1.2-2l.8-1.5q.2-.2.3,0c.6,1.1,1,2.1,1,3Zm-6.6,7.5l-1.3,1.3-1.3-1.3,1.3-1.3,1.3,1.3Z"/><path id="PATH_129" d="m694.3,892.88h-1.2c-1.2,0-2.2-.5-2.5-1.5-.3-.7-.5-1.9-.5-3.2v-3.2c0-1.5-.2-3.7-.3-6.6l1-1.2c.2-.2.3-.2.3,0,.2,1.5.3,3.7.3,6.6v4.9c0,1.3.7,2,2,2h.8l.1,2.2h0Z"/><path id="PATH_130" d="m705.9,892.88h-1.2c-.8,0-1.7-.5-2.7-1.3-.5-.5-1.2-1.3-2-2.5.2,2.7-1.3,4-4.5,4h-1.9v-2h2.2c2.2,0,3.4-.7,3.4-1.9,0-.7-.3-1.5-1.2-2.5-.5-.7-1.2-1.3-2.2-2.2-.8-.7-1.2-1.2-1.2-1.2,0-1.2.2-2,.5-2.5,0-.2,1.2-.5,3.4-1.3s4.2-1.5,6.1-2c0,.2-.2.8-.5,1.9-2.2.7-4.9,1.7-8.2,3,1.5,1.3,3.5,3.5,5.7,6.6.8,1,1.5,1.7,2,2,.3.2,1,.3,1.7.3h.7l-.1,1.6h0Z"/><path id="PATH_131" d="m709.9,889.58c0,2.2-1.2,3.4-3.4,3.4h-1.3v-2h1.2c1.7,0,2.5-.3,2.5-.8s-.3-1.2-1.2-2l.7-1.7c0-.2.2-.2.2-.2,0,0,.2.2.3.3.5.8,1,1.8,1,3Zm-1.6-7.4l-1.3,1.3-1.3-1.3,1.3-1.3,1.3,1.3Zm2.8,0l-1.3,1.3-1.3-1.3,1.3-1.3,1.3,1.3Z"/></g><g id="G_122"><path id="PATH_123-2" d="m178.2,242.58c.4.8.7,1.4.9,2.2.3,1,.9,1.1,2,1.1h.2v1.4h-.2c-.7,0-1.2-.2-1.6-.5h0c-.1,1.1-.4,2.2-.7,2.6-.8,1-2.5,1.8-3.8,1.8-2.1,0-3.4-1.4-3.4-3.4,0-1.4.4-2.4,1-3.3l.4.2c-.4.7-.6,1.6-.6,2.1,0,1,.3,1.6.8,2,.4.4,1.3.8,2.1.8.9,0,2-.4,2.7-1,.5-.4.8-.7.8-1.2,0-.4-.1-.9-.4-1.9-.4-.8-.6-1.4-.9-1.8.1-.4.3-.8.7-1.1h0Zm-2.7-3.5c.5.3.9.7,1.3,1.2-.2.4-.6.8-.9,1.1-.4-.4-.9-.8-1.3-1.2.3-.3.6-.7.9-1.1Z"/><path id="PATH_124-2" d="m181.5,245.88c1,0,1.7,0,2.2-.2.4-.1.6-.3.6-.5,0-.5-.5-1.6-1.1-2.8.3-.5.6-.9.8-1.3h.1c.5.9,1.1,2.3,1.1,3.4,0,.8-.3,1.5-.8,2.1-.5.5-1.3.7-3,.7h-.1c-.6,0-.8-.4-.8-.8,0-.3.2-.7.8-.7h.2v.1Zm1.1,5.9c-.5-.4-.9-.8-1.3-1.2.3-.4.6-.8.9-1.1.5.4.8.7,1.3,1.2-.4.5-.6.8-.9,1.1Zm2.1-.2c-.5-.4-.9-.8-1.3-1.2.3-.4.6-.8.9-1.1.5.4.8.7,1.3,1.2-.3.5-.5.8-.9,1.1Z"/><path id="PATH_125-2" d="m194.9,247.28h-.2c-1,0-1.9-.4-2.3-1.8h-.1c-.1.4-.3.8-.8,1.1-.7.4-1.5.8-2.3.8-1.3,0-2-.8-2-2.1v-.8h.4c0,.9.5,1.5,1.6,1.5.6,0,1.3-.3,1.8-.6.4-.2.7-.6.7-.8,0-.8-.4-2.3-.9-4.2.3-.4.5-.8.8-1.2h.1c.4,1.6.8,3.3,1.1,5,.2,1.1.9,1.7,1.8,1.7h.2v1.4h.1Z"/><path id="PATH_126-2" d="m195.1,245.88c.4,0,.8,0,1.3-.3.4-.2.6-.6.6-1.2,0-1.8-.1-3.8-.3-5.8,0-.5-.1-1-.1-1.4,0-.2.1-.5.3-.8.2-.2.4-.4.6-.6l.1.1c0,.7.3,1.6.9,2.6-.2.2-.4.4-.7.6,0,1.3.1,2.7.1,3.9s-.1,2.1-.4,2.8c-.2.6-.5,1-1,1.3-.4.2-1,.3-1.4.3h-.2c-.6,0-.8-.4-.8-.8,0-.3.2-.7.8-.7h.2Z"/><path id="PATH_127" d="m200.4,247.48c.1-.7.1-1.5.1-2.2v-1.1c0-2.1-.2-5-.4-7,.3-.4.8-.9,1.1-1.2h.1c.2,2.4.3,5.3.3,7.9,0,.7,0,1.4-.1,1.9,0,.6-.3,1.1-1,1.8l-.1-.1Z"/><path id="PATH_128-2" d="m213.2,244.98l-.6,1.1c-1.3.1-2.7.5-4,1.3l-.1-.1.5-.8c.2-.2.4-.4.6-.4v-.1c-.7-.2-1.2-.7-1.2-1.3,0-.7.4-1.2.8-1.5.6-.5,1.3-.8,1.9-.8s1.1.4,1.1.9c0,.3-.1.7-.5,1h-.1c-.1-.2-.2-.5-.3-.6-.1-.2-.3-.3-.6-.3s-.8.2-1,.3c-.2.1-.3.3-.3.4,0,.3.1.5.4.7.4.2.9.4,1.4.4.7-.1,1.5-.2,2-.2h0Z"/><path id="PATH_129-2" d="m218,247.28h-.1c-.9,0-1.5-.2-1.9-.6-.7-.7-.7-1.5-.7-3.1,0-2.1-.1-4.4-.3-6.7.4-.4.7-.8,1.1-1h.1c.2,2.5.2,5.4.2,8.1v.6c0,.7.4,1,.8,1.2.3.1.6.1.7.1h.2v1.4h-.1Z"/><path id="PATH_130-2" d="m218.2,245.88c.9,0,1.8-.3,1.9-1l.3-1.2.8-.6.1.1c-.2.6-.2,1.1-.2,1.3,0,.4.1.7.4.9.4.3.8.4,1.4.4h.2v1.4h-.3c-1.1,0-1.9-.3-2.3-1.1h0c-.4.8-1.3,1.1-2.2,1.1h-.2c-.6,0-.8-.4-.8-.8,0-.3.2-.7.8-.7h.1v.2Zm1.3,5.9c-.5-.4-.9-.8-1.3-1.2.3-.4.6-.8.9-1.1.5.4.8.7,1.3,1.2-.4.5-.6.8-.9,1.1Zm2.2-.2c-.5-.4-.9-.8-1.3-1.2.3-.4.6-.8.9-1.1.5.4.8.7,1.3,1.2-.4.5-.6.8-.9,1.1Z"/><path id="PATH_131-2" d="m223.3,245.88c1,0,1.7-.3,1.9-1,.1-.4.2-.9.3-1.3.2-.2.5-.4.7-.6l.1.1c-.1.4-.2.7-.2,1.1,0,.6.2.9.7,1.2.6-1,1.3-2,2.3-2.9.7-.6,1.7-1.2,2.7-1.2,1.1,0,1.8.6,2.1,1.2.2.5.3.9.3,1.3,0,.3-.1.7-.2,1.1-.3.9-1,1.6-2.3,2-.7.2-1.6.3-2.8.3-1.5,0-2.6-.3-3.2-1.2h0c-.6.9-1.6,1.2-2.3,1.2h-.1c-.6,0-.8-.4-.8-.8,0-.3.2-.7.8-.7h0v.2Zm6.1,0c1.1,0,2.2-.3,2.9-.6.5-.3.9-.5.9-.8-.1-1-.9-1.7-1.9-1.7-1.3,0-2.8,1.2-4,2.9.4.1,1.1.2,2.1.2Zm.5-8.4c.5.3.9.7,1.3,1.2-.2.4-.6.8-.9,1.1-.4-.4-.9-.8-1.3-1.2.3-.4.6-.8.9-1.1Z"/><path id="PATH_132" d="m242.6,239.88l.2-.1c.7.7,2.8,1.9,3.2,3.2.1.5.2.8.2,1.3,0,.7-.2,1.7-.6,2.1-.7.7-1.5,1-2.3,1-.6,0-1-.1-1.3-.3-.8-.5-1.2-1.4-1.2-2.5,0-.8.3-1.6.7-2.2.3-.4.6-.9,1.1-1.4-.2-.4-.1-.7,0-1.1Zm-1.3,4.5c0,.8.9,1.5,1.9,1.5.7,0,1.2-.2,1.8-.6.4-.3.5-.5.5-.7,0-.4-.3-.8-.6-1.2-.5-.6-1.1-1.1-1.8-1.5-1.1.8-1.8,1.7-1.8,2.5Z"/><path id="PATH_133" d="m251.6,243.38c.6,1.5,1.2,2.4,2.5,2.4h.2v1.4h-.2c-.5,0-.9-.1-1.1-.4h0v.4c0,.5-.1,1.2-.4,1.7-.9,1.6-1.9,2.2-2.7,2.2s-1.9-.4-2.8-.9l.2-.4c.3.1.7.2,1.3.2,1.5,0,3.5-1.7,3.7-3.4-.1-.1-.2-.3-.3-.5-.4-.6-.7-1.1-1-1.7.1-.2.3-.6.6-1h0Z"/><path id="PATH_134" d="m255.3,245.88c1,0,1.8,0,2.4-.2.7-.2,1.3-.6,1.3-.9v-.2h-1.3c-1.3,0-2.3-.3-2.7-1.2-.1-.2-.2-.5-.2-.8,0-.8.3-1.7.8-2.2.4-.5.9-.8,1.4-.8.9,0,1.6.9,2.1,2.2.3.7.5,1.6.5,2.7,0,.7-.2,1.3-.6,1.8-.7.8-2,1.1-4,1.1h-.9c-.6,0-.8-.4-.8-.8,0-.3.2-.7.8-.7h1.2Zm.4-7.4c-.5-.4-.9-.8-1.3-1.2.3-.4.6-.8.9-1.1.5.4.8.7,1.3,1.2-.4.5-.6.8-.9,1.1Zm1.2,2.5c-.7,0-1.3.6-1.3,1,0,.9,1.5,1.2,3.3,1.2-.3-1.1-1-2.2-2-2.2Zm.9-2.7c-.5-.4-.9-.8-1.3-1.2.3-.4.6-.8.9-1.1.5.4.8.7,1.3,1.2-.3.5-.6.8-.9,1.1Z"/></g></svg>