<?xml version="1.0" encoding="UTF-8"?><svg id="Layer_1" xmlns="http://www.w3.org/2000/svg" viewBox="0 0 1105.1 1059.31"><defs><style>.cls-1{fill:#e8d0e5;}.cls-1,.cls-2,.cls-3,.cls-4{stroke:#020202;stroke-miterlimit:18.4;stroke-width:.37px;}.cls-5{fill:#fff;stroke:#000;stroke-miterlimit:10;stroke-width:.5px;}.cls-2{fill:#fdfad6;}.cls-3{fill:#dbeccb;}.cls-4{fill:#fbd1d1;}</style></defs><path id="_117" class="cls-3" d="m786.88,288.19l-3.5-2,.7-1.5c-7,2.4-14.5,3.5-21.5,7-6.3,2.6-8.6,11.2-13.6,16.2-5,2.4-12.5,0-14.9,2.4-12.5,11.2-24.8,23.6-42.3,18.6-3.7-1.3-6.3-5-9.9-6.3-2.2-.6-4.4-1.1-6.6-1.7-4.4,1.8-8.8,0-11.6-3.1-.7-.7-1.3-1.7-1.7-2.6-2.6-5,1.3-9.9-5-12.5-3.7-1.3-7.5,1.3-11.2,0-7.5-3.7-16.2-11.2-26.1-6.3-16.2,8.6-21.2-17.5-33.7-27.4-3.7-2.6-9.9-6.3-12.5-2.6-3.7,2.8-8.8,5.5-12.1,4.8,2.4,13.2,14.5,26.1,22.1,36.2,5,5-2.6,11.2-6.3,13.6-13.6,12.5-22.4,26.1-27.4,42.3-1.3,6.3,6.3,11.2,7.5,13.6,2.2,5.7-2.8,12.5-2.6,19.3,4.2,6.1,6.6,13.4,12.5,14.2,14.9,3.7,29.8-1.3,46,0,3.7,0,7.5,6.3,11.2,8.6,3.7,1.3,7.5-2.6,11.2-2.6,5-1.3,8.6,5,12.5,7.5,6.3,2.6,11.2-2.6,17.5-2.6,17.7,0,34,6.3,50.6,9l-5.5-2.2,7.2-4.4c.4-.2,30.7-19.3,40.3-25,8.8-5.3,25.4-25.6,26.9-30.2,2-5.9,17.5-40.8,21.5-46.9,1.5-2.2,3.9-4.4,6.8-7.2,2.2-2.2,6.3-5.9,7.5-8.1-8.8-3.7-32.9-17.5-34-18.1Z"/><path id="_144" class="cls-3" d="m109.38,220.69c3.7-2.6,8.6-2.6,12.5,0,7.5,7.5,0,17.5,1.3,26.1,18.6-5,14.9,13.6,23.6,19.9,17.5,11.2,37.3,1.3,57.2-3.7,11.2-2.6,23.6,6.3,34.8,1.3,32.4-12.5,53.5,19.9,75.8,38.6,1.3,2.6,9.9,2.6,9.9,0,1.3-13.6,5-26.1,16.2-32.4,19.9-9.9,42.3-1.3,64.8-3.7,6.3,0,11.2-9.9,14.9-9.9,9.9-1.3,19.9,16.2,31.1,5,5-3.7,1.3-11.2,3.7-17.5,1.3-2.6,5-3.7,6.3-5,3.5-3.5,5-9,4.6-14.2l-5.3-1.7-35.1-14.4-4.6-.6h-4l-8.1,2.9h-13.2l-4,1.1-6.8,2.9-17.3,11.4-5.7,2.9-22.4,2.9h-3.1l-19.5-4-22.4-9.8-70.7-13.2-25.2-9.2-29.8-.6-19.1-4.2-9.2-.6-4-.6-7.5-4-4.6-1.1-4.6-1.1-7.5-3.5-6.8-4-2.6-2.9c-.2.2-.2.4-.4.6-.2.2-15.5,13.6-26.9,23.2-9,7.5-11.4,19.1-13.1,30.9,14.4,5.3,32.5,1.8,46.8-7.8Z"/><path id="_534" class="cls-2" d="m515.08,256.79c2.6-1.3,6.3-1.3,8.6-1.3,3.7-23.6,18.6-49.7,47.3-42.3,1.3,0,3.7-2.6,3.7-3.7,2.6-11.2,6.3-21.2,16.2-23.6,16.2-3.7,29.8-9.9,46-9.9,2.6,0,5,2.6,8.6,1.3,2.6-1.3,5-3.7,6.3-5,7.5-11.2,1.3-26.1,14.9-34.8,1.3-1.3,2.6-5,1.3-7.5-5-6.3-13.6-11.2-8.6-16.2,11.2-12.5,42.3-5,39.7-29.8-1.3-6.3,11.2-1.3,18.6-3.7-1.3-2.6,1.3-3.7,1.3-5,32.7-6.8,67.5-4.6,94.4-21-.2-9.6-2.2-16.9-9.9-23-9.2-7.4-48.9-30-49.3-30.4-.2-.2-.4-.2-.4-.4l-14.7,16.6-10.9,10.3-13.8,7.5-33.9,12.1-16.2,9.2-2.9,3.5-1.1,3.5-12.7,18.1-5.2,15.5-1.7,2.9-4,3.5-1.7,1.1-20.1,10.9-4.6.6-5.2-1.1-9.2-4h-5.2l-5.7,2.2-5.2,4-4.6,5.2-8.6,13.8-1.7,2.4-2.9,1.7-5.2,2.9-2.9,2.2-4,5.7-5.7,12.1-5.2,4.6-19.5,9.2-6.3,4.6-4.6,5.7-9.2,17.8-4,5.7-4.6,4.6-5.2,4-5.7,3.5-6.8,2.2-6.3.6-.6-.2c.4,5.2-1.1,10.7-4.6,14.2-1.3,1.3-5,2.6-6.3,5-2.6,6.3,1.3,13.6-3.7,17.5h0c8.8,2.2,18.8.9,26.1,5,13.7,4.8,28.6-.2,37.4-10.1Z"/><path id="_136" class="cls-4" d="m526.28,256.79c12.5,2.6,24.8-1.3,32.4,12.5,2.6,5,9.9,1.3,14.9-2.6,2.6-3.7,8.6,0,12.5,2.6,12.5,9.9,17.5,36.1,33.7,27.4,9.9-5,18.6,2.6,26.1,6.3,3.7,1.3,7.5-1.3,11.2,0,6.3,2.6,2.6,7.5,5,12.5,2.6,5,8.6,8.6,14.9,5,6.3-3.7,11.2-8.6,16.2-14.9,3.7-3.7,5-11.2,9.9-16.2,1.3-1.3,0-5,0-6.3-5-9.9-16.2-16.2-12.5-29.8,3.7-13.6,7.5-24.8,16.2-39.7,6.3-9.9-9.9-19.9-6.3-28.7,5-12.5,21.2-12.5,29.8-24.8,1.3-2.6,7.5-1.3,8.6-2.6,8.6-11.2,17.5-22.4,29.8-21.2,17.7,2,36.1,7.7,52.1,1.1-.7-7.4-1.5-15.5-2.4-23.6-2.6-25-5.2-50.8-5.2-57v-2.4c-26.9,16.4-61.6,14.4-94.4,21,0,1.3-2.4,2.6-1.3,5-7.5,2.6-19.9-2.6-18.6,3.7,2.6,24.8-28.7,17.5-39.7,29.8-5,5,3.7,9.9,8.6,16.2,1.3,2.6,0,6.3-1.3,7.5-13.6,8.6-7.5,23.6-14.9,34.8-1.3,1.3-3.7,3.7-6.3,5-3.7,1.3-6.3-1.3-8.6-1.3-16.2,0-29.8,6.3-46,9.9-9.9,2.6-13.6,12.5-16.2,23.6,0,1.3-2.6,3.7-3.7,3.7-28-7.4-42.9,17.7-47.1,40.8.8,1.2,1.5,2.1,2.6,2.7Z"/><path id="_634" class="cls-1" d="m691.68,328.89c17.5,5,29.8-7.5,42.3-18.6,2.6-2.4,9.9,0,14.9-2.4,5-5,7.5-13.6,13.6-16.2,7-3.5,14.5-4.6,21.5-7l17.5-35.1h2.6c.2,0,6.4,0,14.5,2,6.4,1.7,16.9-2.2,17.8-4.8,2.4-7.2,3.7-14.2-7.4-19.7-14.7-7.4-10.3-35.9-7.5-54.6.7-4.6,1.3-8.6,1.3-10.5,0-2.8-.9-12.5-2-24.7-16.2,6.6-34.6.9-52.1-1.1-12.5-1.3-21.2,9.9-29.8,21.2-1.3,1.3-7.5,0-8.6,2.6-8.6,12.5-24.8,12.5-29.8,24.8-3.7,8.6,12.5,18.6,6.3,28.7-8.6,14.9-12.5,26.1-16.2,39.7s7.5,19.9,12.5,29.8c0,1.3,1.3,5,0,6.3-5,5-6.3,12.5-9.9,16.2-5,6.3-9.9,11.2-16.2,14.9-.6.4-1.1.6-1.7.7,2.2.6,4.4,1.1,6.6,1.7,3.6,1.1,6.2,4.8,9.8,6.1Z"/><path id="_145" class="cls-4" d="m63.38,397.39c23.6,6.3,46,3.7,69.7,9.9,13.6,3.7,22.4,18.6,36.1,22.4,24.8,6.3,48.6,5,73.4,7.5,3.7,0,3.7,8.6,7.5,11.2,2.6,1.3,6.3,1.3,8.6,0,11.2-9.9,21.2-18.6,36.1-19.9,5-1.3,6.3-7.5,5-14.9,29.8-3.7,57.2-7.5,77.1-32.4-16.2,2.6-26.1-11.2-33.7-22.4-6.3-7.5-8.6-18.6-14.9-27.4-2.6-2.4,0-9.9-2.6-14.9-3.7-4.2-6.3-8.5-9.2-12.3-.9-.4-1.7-.7-2-1.5-22.4-18.6-43.6-51-75.8-38.6-11.2,5-23.6-3.7-34.8-1.3-19.9,5-39.7,14.9-57.2,3.7-8.6-6.3-5-24.8-23.6-19.9-1.3-8.6,6.3-18.6-1.3-26.1-3.7-2.6-8.6-2.6-12.5,0-14.4,9.6-32.4,13.1-47.3,7.9-.2,1.3-.4,2.4-.6,3.7l-.2,1.1c-1.8,13.1-1.8,40.3-1.8,49.1s0,27.6,7,37.9c1.5,2.4,14.9,23,12,36.2-.7,3.5-2.8,6.4-5.7,8.1-3.3,2-5.5,3.9-8.1,6.1-4.6,3.9-9.8,8.3-21.2,13.2-.2.2-.6.2-.7.4,5.8,6.9,13,11.1,20.7,13.2Z"/><path id="_118" class="cls-1" d="m420.48,376.19c-1.3-3.7,3.7-2.6,3.7-5,9.9,1.3,22.4-3.7,26.1,6.3,5,11.2,5,27.4,16.2,31.1s19.9-1.3,29.8-5c9.9-3.7,21.2,7.5,27.4,2.6,9.9-7.5,21.2-7.5,31.1-7.5-1.3-7.5,5-14.9,2.6-21.2-1.3-2.6-8.6-7.5-7.5-13.6,5-16.2,13.6-29.8,27.4-42.3,3.7-2.6,11.2-8.6,6.3-13.6-7.5-10.1-19.9-23.2-22.1-36.2-1.1-.4-2-.9-2.8-2.2-7.5-13.6-19.9-9.9-32.4-12.5-1.1-.6-1.7-1.5-2.2-2.6,0,.6-.2.9-.2,1.5-2.6,0-6.3,0-8.6,1.3-8.6,9.9-23.6,14.9-37.3,9.9-7.4-4-17.3-2.8-26.1-5-11.2,11.2-21.2-6.3-31.1-5-3.7,0-8.6,9.9-14.9,9.9-22.4,2.6-44.7-6.3-64.8,3.7-11.2,6.3-14.9,18.6-16.2,32.4,0,1.8-5,2.4-7.9,1.5,2.8,3.9,5.5,8.1,9.2,12.3,2.6,5,0,12.5,2.6,14.9,6.3,8.6,8.6,19.9,14.9,27.4,7.5,11.2,17.5,24.8,33.7,22.4-.2.4-.4.6-.7.9,12.7-11.6,28.8-5.3,43.8-6.4Z"/><path id="_132" class="cls-3" d="m746.38,460.79c-14.9,5-26.1,12.5-37.3,23.6-8.6,7.5-18.6-3.7-28.7,0-7.5,3.7-21.2,8.6-17.5,18.6,2.6,5,9.9,8.6,6.3,16.2-6.3,11.2-33.7-2.6-29.8,16.2,2.6,12.5,9.9,26.1,3.7,36.1-11.2,19.9-27.4,47.3-1.3,59.8,16.2,7.5,32.4,7.5,48.6,17.5,12.5,8.6,29.8-8.6,46-5,18.6,6.3,37.3,14.9,57.2,5,14.9-6.3,36.1,3.7,54.6-1.3,6.3-1.3,9.9-12.5,14.9-14.9,13.6-3.7,29.8,8.6,41-1.3,16.2-13.8,29.8-29.6,46.5-40.5,2.2-2.4,5-4.8,7.9-7l.6-.6c0-2-6.3-7.5-10.5-11.2-6.1-5.3-12.9-11.4-17.8-18.8-8.6-13.1-8.5-24.3-8.1-35.3.2-4.6.4-9.6-.4-14.5-1.5-12.9-3.9-32.2-5.2-41-8.3,2.4-21.9,7.2-27.8,13.1-8.6,8.6-28.9,7.2-46.9,5.9-5.2-.4-9.9-.7-13.6-.7-10.1,0-35.7-1.8-54.6-18.4-3.9-3.3-9.4-7-15.6-10.5-2.8,4.2-6.7,7.9-12.2,9Z"/><path id="_161" class="cls-2" d="m429.18,501.89c3.7,18.6,31.1,12.5,43.6,19.9,18.6,9.9,34.8,2.6,52.3,2.6,2.6,0,7.5,2.6,9.9,0,8.6-7.5,18.6-9.9,28.7-5,23.6,11.2,47.3,17.5,73.4,7.5,2.8-1.3,5.5-1.8,8.1-1.5,7.5-1.8,20.2,1.3,24.3-5.9,3.7-7.5-3.7-11.2-6.3-16.2-3.7-9.9,9.9-14.9,17.5-18.6,9.9-3.7,19.9,7.5,28.7,0,11.2-11.2,22.4-18.6,37.3-23.6,5.5-1.1,9.2-4.8,12.7-9.2-17.7-10.1-40.5-19.3-40.7-19.5l-2.4-.9c-16.6-2.6-32.7-9-50.6-9-6.3,0-11.2,5-17.5,2.6-3.7-2.6-7.5-8.6-12.5-7.5-3.7,0-7.5,3.7-11.2,2.6-3.7-2.6-7.5-8.6-11.2-8.6-16.2-1.3-31.1,3.7-46,0-5.9-.9-8.5-8.1-12.5-14.2,0,.6,0,1.1.2,1.8-9.9,0-21.2,0-31.1,7.5-6.3,5-17.5-6.3-27.4-2.6-9.9,3.7-18.6,8.6-29.8,5-2.8-.9-4.8-2.6-6.4-4.8-7.7,15.5-3.5,34.8-10.9,49.7-7.7,14.4-23.9,30.4-20.2,47.9Z"/><path id="_123" class="cls-2" d="m200.28,560.39c49.7,0,77.1-51,122-64.8,21.2-7.5,52.3-2.6,63.5-26.1,5-9.9,7.5-21.2,9.9-31.1,3.7-14.9,2.6-31.1,7.5-46,3.7-7.5,12.5-8.6,18.6-13.6.7-1.5.6-3.7.4-5.5-1.1.6-2.2,1.1-1.7,2.9-15.1,1.1-31.1-5.2-44.2,5.9-19.9,24.1-46.9,27.8-76.4,31.5,1.3,7.5,0,13.6-5,14.9-14.9,1.3-24.8,9.9-36.1,19.9-2.6,1.3-6.3,1.3-8.6,0-3.7-2.6-3.7-11.2-7.5-11.2-24.8-2.6-48.6-1.3-73.4-7.5-13.6-3.7-22.4-18.6-36.1-22.4-23.6-6.3-46-3.7-69.7-9.9-7.9-2-14.9-6.3-20.6-12.9-14,6.3-35.1,14.7-42.7,17.8v29.5c0,5,4.4,19,7.4,26.9l21.2,38.6,22.1,58.5c49.7-6.1,99.9,4.6,149.4,4.6Z"/><path id="_122" class="cls-4" d="m523.78,552.79c-9.9,3.7-24.8-2.6-37.3,1.3-17.5,3.7-3.7,28.7-9.9,34.8-19.9,21.2-8.6,42.3-9.9,64.8,0,5-5,11.2-7.5,17.5-1.3,3.7-1.3,9.9,1.3,11.2,24.8,14.9,46,28.7,70.8,43.6,16.2,9.9,23.6-12.5,36.1-21.2,14.9-11.2,26.1,6.3,36.1,16.2,2.6,1.3,6.3,2.6,8.6,1.3,14.9-9.9,23.6-36.1,41-26.1,18.2,8.6,35.9,18.6,54.6,22.1-1.5-10.1-.7-21-4.8-30.7-3.9-11-5.3-24.5-2-36.2-3.7.4-7.2-.2-10.3-2.4-16.2-9.9-32.4-9.9-48.6-17.5-26.1-12.5-9.9-39.7,1.3-59.8,6.3-9.9-1.3-23.6-3.7-36.1-1.3-6.8,1.3-9.2,5.7-10.3-2.8-.2-5.3.2-8.1,1.5-26.1,9.9-49.7,3.7-73.4-7.5-9.9-5-19.9-2.6-28.7,5-2.6,2.6-7.5,0-9.9,0-1.8,0-3.7,0-5.3.2.2.4.2.7.4,1.1,2.2,8.6,14.7,23.5,3.5,27.2Z"/><path id="_164" class="cls-1" d="m727.78,807.79c5-13.6,5-29.8-7.5-41-5-3.7,2.6-11.2,7.5-14.9,1.3-2.6,1.3-7.5,0-9.9-3.7-3.7-12.5-5-14.9-8.6-2.9-4.8-4.4-9.9-5.2-15.3-18.8-3.5-36.2-13.4-54.6-22.1-17.5-9.9-26.1,16.2-41,26.1-2.6,1.3-6.3,0-8.6-1.3-9.9-9.9-21.2-27.4-36.1-16.2-12.5,8.6-19.9,31.1-36.1,21.2-19.9-12-37.5-23.2-56.5-34.8-5.7,4-9,11.8-8.3,17.3,1.3,9.9,6.3,19.9,9.9,31.1,6.3,16.2,27.4,21.2,34.8,37.3,6.3,11.2,9.9,21.2,21.2,31.1,9.9,8.6-14.9,16.2-21.2,24.8-9.9,13.6,19.9,21.2,32.4,24.8,5,2.6,2.6,7.5,1.3,9.9-3.7,4.4-7.7,8.5-10.3,13.1,4.4.9,8.8,3.1,12.9.7,13.6-6.3,23.6-18.6,39.7-19.9-1.3-5,0-9.9,3.7-12.5,11.2-12.5,19.9-24.8,21.2-42.3,0-3.7,5-7.5,7.5-7.5,14.9,1.3,19.9-2.6,28.7-14.9,5-6.3,14.9,7.5,19.9,14.9,8.6,14.9,11.2,33.7,29.8,41,13.8,6.4,21.3-5.3,30.2-13.6-3.5-4.1-2.4-12.4-.4-18.5Z"/><path id="_121" class="cls-1" d="m166.58,647.39c2.6-3.7,11.2-3.7,12.5-6.3,6.3-9.9,5-27.4,17.5-29.8,18.6-2.6,38.6,0,55.9,9.9,7.5,3.7,14.9-2.6,21.2-7.5,7.5-7.5,21.2-1.3,31.1-9.9,3.7-5,9.9,1.3,12.5,5,12.5,13.6,9.9,36.1,27.4,42.3,11.2,2.6,14.9,12.5,17.5,21.2,2.6-1.3,5,0,7.5,1.3,2.6,2.4,0,8.6,1.3,8.6,13.6,7.5,28.7-3.7,39.7-13.6,1.5-1.5,4.2-1.7,7.4-1.5,1.7-3.3,3.5-6.4,6.1-8.6-3.1-4.2-5.3-8.8-4.8-13.4,2.6-17.5-8.6-27.4-19.9-39.7-1.3-2.6,0-7.5-2.6-9.9-6.3-11.2-17.5-18.6-28.7-23.6-5.18,2.16-30.23,12.5-44.7,14.9-1.58.26-4.23.63-7.5,0-7.9-1.52-13.05-7.62-15.62-11.31-4.66-4.9-9.32-9.79-13.98-14.69-3.19-.88-7.22-2.39-11.4-5.1-9.6-6.23-14.03-14.95-15.8-19.1-17.5,13.1-35.7,24.1-58.7,24.1-49.3,0-99.7-10.7-149.4-4.6l44.2,115.7c2.6.7,5.3,1.5,8.1,2,24.8,4.7,44.7-10.2,63.2-26.4Z"/><path id="_120" class="cls-4" d="m195.28,695.99c12.5-3.7,18.6,8.6,26.1,16.2,3.7,6.3,13.6,1.3,21.2,5,1.3,2.6,5,3.7,6.3,3.7,9.9,3.7,22.4,5,32.4,1.3,11.2-2.6,23.6-5,33.7-9.9,7.5-3.7,14.9-8.6,23.6-12.5,11.6-4.2,22.4-13.1,32.2-21.7,0-1.7,0-3.5-1.1-4.4-2.6-1.3-5-2.6-7.5-1.3-2.4-8.6-6.3-18.6-17.5-21.2-17.5-6.3-14.9-28.7-27.4-42.3-2.6-3.7-8.6-9.9-12.5-5-9.9,8.6-23.6,2.6-31.1,9.9-6.3,5-13.6,11.2-21.2,7.5-17.5-9.9-37.3-12.5-55.9-9.9-12.5,2.6-11.2,19.9-17.5,29.8-1.3,2.6-9.9,2.6-12.5,6.3-18.6,16.2-38.6,31.1-63.5,26.1-2.8-.6-5.5-1.3-8.1-2l13.6,35.9c23.4-.4,46.9-6.4,70.3-7.5,5.2-.4,11.5-1.6,16.4-4Z"/><path id="_139" class="cls-1" d="m359.48,740.69c-27.4,12.5-53.5,28.7-67.2,58.5-1.3,5-6.3,8.6-12.5,11.2-8.6,1.3-18.6-6.3-23.6,2.6-7.5,13.6-13.6,24.8-29.8,29.8-2.6,1.3-5,5-8.6,7.5-6.4,3.5-13.2,5.9-20.2,7,10.5,11,24.1,23.6,32.7,24.5,9.4,1.1,20.1,3.7,29.4,5.9,6.8,1.7,13.2,3.3,16.7,3.5,2.4-10.5,6.3-19.9,16-23.6,11.2-3.7,23.6-1.3,34.8-5,1.3,0,6.3-1.3,6.3-3.7,1.3-11.2,2.6-22.4,14.9-17.5,6.3,3.7,14.9,6.3,19.9,2.6,1.8-1.3,4-1.8,6.3-2.2q0-.2-.2-.4c-3.7-12.5-5-23.6-17.5-31.1-1.3-1.3,0-5,0-7.5,1.3-3.7,6.3-6.3,6.3-9.9,5-14.9-11.2-23.7-6.3-37.3,2-6.8,6.3-11.6,11.2-15.8-2.8-.4-5.7-.6-8.6.9Z"/><path id="_140" class="cls-3" d="m410.58,668.49c-11.2,9.9-26.1,21.2-39.7,13.6-.7,0-.2-2-.2-4.2-9.9,8.6-20.6,17.3-32.2,21.7-8.6,3.7-16.2,8.6-23.6,12.5-9.9,5-22.4,7.5-33.7,9.9-9.9,3.7-22.4,2.4-32.4-1.3-1.3,0-5-1.3-6.3-3.7-7.5-3.7-17.5,1.3-21.2-5-7.5-7.5-13.6-19.9-26.1-16.2-5,2.6-11.2,3.7-16.2,3.7-23.4,1.1-46.9,7.2-70.3,7.5l19.3,50.4,57.2,85.7c2.6,3.3,7,8.3,12.1,13.8,7-1.1,13.8-3.5,20.2-7,3.7-2.6,6.3-6.3,8.6-7.5,16.2-5,22.4-16.2,29.8-29.8,5-8.6,14.9-1.3,23.6-2.6,6.3-2.6,11.2-6.3,12.5-11.2,13.6-29.8,39.7-46,67.2-58.5,2.9-1.5,5.9-1.5,8.8-.9,6.8-5.9,14.7-10.5,19.9-17.8,6.3-8.6,6.3-18.6,12.5-27.4,2.6-3.7,7.5-8.6,9.9-13.6,3.1-3.7,5-9.2,7.4-14-2.9.3-5.6.5-7.1,1.9Z"/><path id="_142" class="cls-4" d="m439.08,890.09c-2.6,0-6.3-3.7-7.5-7.5-1.3-7.5,6.3-16.2-2.6-19.9-3.7-2.6-8.6-1.3-9.9-2.6-3.7-7.5-3.7-16.2-11.2-21.2-11.2-6.3-9.9,7.5-17.5,12.5-8.5,3.7-14.5-5.7-16-9.8-2.2.4-4.4.9-6.3,2.2-5,3.7-13.6,1.3-19.9-2.6-12.5-5-13.6,6.3-14.9,17.5,0,2.6-5,3.7-6.3,3.7-11.2,3.7-23.6,1.3-34.8,5-9.9,3.9-13.8,13.2-16,23.6h1.3c8.5,0,36.2,12,38.8,26.7,1.1,7,3.9,24.1,3.9,31.3,0,.9-.2,2-.2,3.3-.7,6.6-1.8,16.7,16.9,25.4,16.9,7.7,39,14.5,48.6,3.1,1.8-2.2,3.9-5,6.1-8.1,9.9-13.4,23.4-31.6,38.5-28,7.5,1.8,17.3,3.7,27,4.6.6-9.9,6.1-18.6,10.9-27.4,8.5-19.5-12.7-29.4-28.9-31.8Z"/><path id="_124" class="cls-3" d="m520.08,525.59c-.2-.4-.4-.7-.4-1.1-15.5,1.1-30.2,6.3-46.9-2.8-12.5-7.5-39.7-1.3-43.6-19.9-3.7-17.5,12.5-33.7,19.9-48.6,7.4-14.9,3.1-34.2,10.9-49.7-5-6.6-5.9-17.8-9.6-26.3-3.7-9.9-16.2-5-26.1-6.3,0,1.1-1.1,1.5-2.2,2,.2,1.8.4,4-.4,5.5-6.3,5-14.9,6.3-18.6,13.6-5,14.9-3.7,31.1-7.5,46-2.6,9.9-5,21.2-9.9,31.1-8.8,17.5-29.2,11.8-63.5,26.1-12.9,5.4-22.8,11.1-28.7,14.7,5.6,3.6,11.5,7.8,17.6,12.7,10.5,8.5,19.1,17.2,25.9,25.1,2.8,3.74,5.6,7.47,8.4,11.21,1.67,3.16,3.34,6.33,5,9.49-18.58,10.42-27.55,16.32-26.9,17.7.79,1.67,15.68-3.3,44.7-14.9,11.2,5,22.4,12.5,28.7,23.7,2.6,2.6,1.3,7.5,2.6,9.9,11.2,12.5,22.4,22.4,19.9,39.7-.6,4.8,1.7,9.2,4.8,13.4,1.1-.9,2.4-1.7,3.9-2.4,12-4,24.1,2.4,36.1,5.2,1.5-2.8,2.6-5.3,2.6-7.7,1.3-22.4-9.9-43.6,9.9-64.8,6.3-6.3-7.5-31.1,9.9-34.8,12.5-3.7,27.4,2.6,37.3-1.3,11.1-3-1.4-17.9-3.8-26.5Z"/><path id="_141" class="cls-2" d="m543.58,857.69c-12.5-3.7-42.3-11.2-32.4-24.8,6.3-8.6,31.1-16.2,21.2-24.8-11.2-9.9-14.9-19.9-21.2-31.1-7.5-16.2-28.7-21.2-34.8-37.3-3.7-11.2-8.6-21.2-9.9-31.1-.7-5.5,2.6-13.2,8.3-17.3-4.8-2.9-9.6-5.9-14.5-8.8-2.6-1.3-2.6-7.5-1.3-11.2,1.3-3.3,3.3-6.6,5-9.8-12-2.8-24.1-9.2-36.1-5.2-9.9,3.7-11.2,17.5-17.5,24.8-2.6,5-7.5,9.9-9.9,13.6-6.3,8.6-6.3,18.6-12.5,27.4-8.6,12.5-26.1,17.5-31.1,33.7-5,13.6,11.2,22.4,6.3,37.3,0,3.7-5,6.3-6.3,9.9,0,2.6-1.3,6.3,0,7.5,12.5,7.5,13.6,18.6,17.5,31.1,1.3,3.7,7.5,13.6,16.2,9.9,7.5-5,6.3-18.6,17.5-12.5,7.5,5,7.5,13.6,11.2,21.2,1.3,1.3,6.3,0,9.9,2.6,8.6,3.7,1.3,12.5,2.6,19.9,1.3,3.7,5,7.5,7.5,7.5,16.2,2.4,37.3,12.5,28.7,32.4-4.8,8.6-10.5,17.5-10.9,27.4,14.7,1.5,29.4,1.5,37.2-2.4,14.7-7.4,27.8-18.4,27.8-18.6l1.7-1.5,4.8,1.1c.2-2.6-.2-5-.9-7.4-5-13.6-13.6-31.1,0-39.7,2.2-1.3,4.6-1.3,7.2-.7,2.6-4.6,6.6-8.6,10.3-13.1,1-2.7,3.4-7.6-1.6-10Z"/><path id="_163" class="cls-3" d="m808.58,862.69c-13.6-5-27.4,7.5-41,1.3-7.5-3.7-5-14.9-7.5-22.4-3.7-11.2-17.5-9.9-28.7-12.5-1.5-.6-2.6-1.3-3.5-2.4-8.8,8.3-16.4,20.1-30.2,13.6-18.6-7.5-21.2-26.1-29.8-41-5-7.5-14.9-21.2-19.9-14.9-8.6,12.5-13.6,16.2-28.7,14.9-2.6,0-7.5,3.7-7.5,7.5-1.3,17.5-9.9,29.8-21.2,42.3-3.7,2.6-5,7.5-3.7,12.5-16.2,1.3-26.1,13.6-39.7,19.9-6.3,3.7-13.6-3.7-19.9,0-13.6,8.6-5,26.1,0,39.7.7,2.4.9,4.8.9,7.4l52.8,12.1-3.1,5.2c-.4.7-9.6,16.7,3.3,31.3,3.7,4.2,7.2,7.5,10.1,10.5,8.6,8.6,15.5,15.5,7.4,25.8-4,5-7.2,11-8.5,16.4-1.5,5.7-.7,9.8,2,12.1,7.2,5.7,21.2,13.8,27.2,17.1,3.9-4,9.9-11,12.3-15.6.6-1.1,1.1-2.2,1.5-3.3,3.5-8.5,8.1-16,26.1-12.3,14.2,2.8,29.6,3.5,36.2,3.7,3.9-11.6,19.5-49.9,56.7-51.7,29.3-1.5,36.1-12.9,41.8-22.1,1.7-2.8,3.3-5.3,5.3-7.4,2.8-2.8,5.9-5.3,9.2-7.5-7.7-9.8-11.8-21-4.8-32.6,5-8.6,16.2-14.9,19.9-23.6,6.1-11.5-5.1-21.7-15-24Z"/><path id="_158" class="cls-2" d="m1063.78,852.89l-15.3-21-15.5-7.9-18-18-.4-1.1c-.2-.9-5.9-21.7-5.9-31.8,0-6.3-6.8-20.8-11-28.5,0,0-11.2-18.6-18.4-25.8-3.5-3.5-5-8.3-4-13.2,1.3-7.9,8.1-16,16.7-20.4,8.5-4.2,16.9-7.4,21-8.8.9-7.2,3.5-27.2,3.5-33.1,0-4.8-9.2-13.4-18.4-17.1l-2.9-1.1c-9-3.7-21.3-8.6-36.6-12-2.8-.6-11.2-2.4-12.7-9.2-.9-4.2,1.3-8.5,5-12.5-16.7,10.9-30.4,26.7-46.5,40.5-11.2,9.9-27.4-2.6-41,1.3-5,2.6-8.6,13.6-14.9,14.9-18.6,5-39.7-5-54.6,1.3-19.9,9.9-38.6,1.3-57.2-5-12.1-2.8-24.8,6.3-35.7,7.4-3.3,11.8-1.8,25.2,2,36.2,6.3,14.9,1.3,32.4,9.9,46,2.6,3.7,11.2,5,14.9,8.6,1.3,2.4,1.3,7.5,0,9.9-5,3.7-12.5,11.2-7.5,14.9,12.5,11.2,12.5,27.4,7.5,41-2.6,7.5-3.7,18.6,3.7,21.2,11.2,2.6,24.8,1.3,28.7,12.5,2.6,7.5,0,18.6,7.5,22.4,13.6,6.3,27.4-6.3,41-1.3,9.9,2.4,21.2,12.5,14.9,23.6-3.7,8.6-14.9,14.9-19.9,23.7-7,11.6-2.8,22.8,4.8,32.6,6.3-4.4,13.4-8.1,21.3-10.7,12.5-4.2,43.4-19.1,48.2-23.9,5.7-5.7,32.9-25.6,53.4-12,16,10.7,32,14.5,46.4,10.9,13.2-3.3,25.9-16.9,30-23.2,4.6-6.8,16.4-11,25.6-13.2,5.9-1.5,24.8-11.2,31.6-14.9.7-.4,1.7-.6,2.6-.4l-3.8-2.8Z"/><g id="G_24"><path id="PATH_25" d="m582.28,158.39h-.9c-.9,0-1.5,0-1.8-.2,0,.6.2.9.2,1.5,0,.9-.2,1.5-.4,2-.6,1.3-1.5,2.4-3.3,3.1-1.5.6-2.9.9-4.6.9s-2.9-.4-4-1.1c-1.1-.9-1.7-2-1.7-3.7,0-.9.2-1.7.6-2.8.4-.7.6-1.3.9-1.7.2-.2.4-.2.4-.2q.2,0,.2.2v.4c-.6,1.1-.7,2.2-.7,3.1s.4,1.7.9,2.4c.7.9,2,1.3,3.7,1.3,1.8,0,3.5-.4,4.8-.9,1.1-.6,1.8-1.1,2.2-1.8.2-.2.2-.6,0-1.3,0-.6-.2-1.1-.2-1.3-.2-.6-.9-1.5-1.8-2.8l.7-1.5c.2-.2.2-.4.2-.4,0,0,.2,0,.2.2.9,1.5,1.8,2.2,2.9,2.2h1.5v2.2h0v.2Zm-8.1-8.3l-1.5,1.5-1.5-1.5,1.5-1.5,1.5,1.5Z"/><path id="PATH_26" d="m586.68,154.69c0,2.4-1.3,3.7-3.7,3.7h-1.5v-2.2h1.3c1.8,0,2.8-.4,2.8-.9,0-.6-.4-1.3-1.3-2.2l.7-1.8c0-.2.2-.2.2-.2l.4.4c.7.8,1.1,1.9,1.1,3.2Zm-1.5,7.7l-1.5,1.5-1.5-1.5,1.5-1.5,1.5,1.5Zm3.1,0l-1.5,1.5-1.5-1.5,1.5-1.5,1.5,1.5Z"/><path id="PATH_27" d="m599.88,158.39h-.7c-.7,0-1.1-.2-1.5-.4v.6c0,1.7-.6,3.3-1.7,5-.9,1.5-1.8,2-2.4,2-1.5,0-2.6,0-3.7-.2-.4,0-.6-.2-.6-.2,0,0,.2-.2.6-.2,1.5-.4,2.9-1.1,4.4-2.2,1.5-1.3,2.4-2.6,2.4-3.9,0-.7-.6-1.8-1.8-3.1l.9-1.7c0-.2.2-.2.2-.2l.2.2c.6.7.9,1.3,1.3,1.5.6.4,1.3.7,2,.7h.6v2h-.2v.1Z"/><path id="PATH_28" d="m607.08,152.99v.7c0,1.3-.2,2-.6,2.6-.9,1.3-2.4,1.8-4.8,1.8h-2.6v-2.2h1.8c3.1,0,4.8-.6,5.2-1.5v-.4c0-.4,0-.6-.2-.7-.7.2-1.7.2-2.4.2-1.7,0-2.6-.7-2.6-2.2,0-.9.2-2,.7-2.9.6-1.1,1.3-1.7,2.2-1.7.7,0,1.5.6,2,1.5.9,1.5,1.3,3,1.3,4.8Zm-2.2-10.1l-1.5,1.5-1.5-1.5,1.5-1.5,1.5,1.5Zm.7,8.6c0-.6-.2-1.1-.6-1.7-.4-.6-.9-.7-1.5-.7-.4,0-.7.2-1.1.4s-.4.6-.4.9c0,.7.6,1.1,1.8,1.1.7.2,1.3.2,1.8,0Z"/><path id="PATH_29" d="m614.48,138.69c-.7.7-1.8.9-2.9.9h-1.4c-.2,0-.4.2-.6.4s-.4.4-.4.4c-.2,0-.2-.2-.2-.4s.2-.6.4-.9c.2-.6.4-.7.6-.7s.6,0,1.1.2c.6,0,.9.2,1.1.2,1.1,0,1.8,0,2.4-.2.4,0,.6-.2.6-.2h.2c-.6-.1-.8-.1-.9.3Zm-1.3,17.3c0,.7-.2,1.5-.6,2-.2.4-.4.6-.4.6,0,0-.2-.2-.2-.7,0-2.2-.4-7.4-1.1-15.6l1.5-1.5.2-.2v.4c.6,2.3.6,7.4.6,15Z"/><path id="PATH_30" d="m618.68,155.99c0,.7-.2,1.5-.6,2-.2.4-.4.6-.4.6,0,0-.2-.2-.2-.7,0-2.2-.4-7.4-1.1-15.6l1.5-1.5.2-.2v.4c.4,2.5.6,7.4.6,15Z"/><path id="PATH_31" d="m632.98,158.39h-.7c-.7,0-1.3-.2-1.8-.7-.4-.4-.7-.7-1.1-1.5-.4.7-.9,1.3-1.5,1.7-.7.4-1.7.6-3.1.6-2.6,0-3.9-.9-3.9-2.8,0-.6.2-1.3.6-1.8.2-.2.2-.4.4-.4s.2.2.2.4v1.2c0,1.1.9,1.7,2.8,1.7,2.6,0,3.9-.6,3.9-1.5,0-.6-.7-2.6-2.2-6.1l.7-1.5c.2-.2.2-.4.2-.4,0,0,.2.2.2.4.6,1.5,1.5,3.7,2.6,6.6.6,1.5,1.3,2.2,2.4,2.2h.6v1.9h-.3Z"/><path id="PATH_32" d="m647.38,152.99l-.7,1.5c-1.3,0-2.4,0-2.9.2-.7.4-1.8.7-3.3,1.5-1.5.7-2.6,1.3-3.3,1.5-1.1.4-2.4.6-3.5.6h-1.3v-2.2h1.5c1.7,0,3.1-.4,4.4-.9l4.2-1.8c-.7-.2-1.8-.6-3.3-1.1-1.3-.6-2-.7-2.4-.7-.7,0-1.5.4-2.2.9q-.2.2-.4.2t-.2-.2v-.2c.6-1.8,1.7-2.6,3.1-2.6.6,0,1.3.2,2,.6,1.5.7,2.6,1.1,3.3,1.5,1.3.4,2.8.7,4.4.7.4,0,.6,0,.6.2.2,0,0,0,0,.3Zm-5.3-8.4l-1.5,1.5-1.5-1.5,1.5-1.5,1.5,1.5Z"/></g><g id="G_33"><path id="PATH_34" d="m607.78,233.09h-.7c-.7,0-1.1-.2-1.5-.4v.6c0,1.7-.6,3.3-1.7,5-.9,1.5-1.8,2-2.4,2-1.5,0-2.6,0-3.7-.2-.4,0-.6-.2-.6-.2,0,0,.2-.2.6-.2,1.5-.4,2.9-1.1,4.4-2.2,1.5-1.3,2.4-2.6,2.4-3.9,0-.7-.6-1.8-1.8-3.1l.9-1.7c0-.2.2-.2.2-.2l.2.2c.6.7.9,1.3,1.3,1.5.6.4,1.3.7,2,.7h.6v2h-.2v.1Z"/><path id="PATH_35" d="m616.88,233.09h-1.5c-1.7,0-2.8-.6-3.5-1.7-.6,1.1-1.8,1.7-3.9,1.7h-1.1v-2.3h1.7c1.8,0,2.8-.7,2.9-2,0-.6.2-.9.4-.9s.4.4.4.9c.2,1.3,1.1,2,2.8,2h1.7v2.2h.1v.1Zm-4.1,4l-1.5,1.5-1.5-1.5,1.5-1.5,1.5,1.5Z"/><path id="PATH_36" d="m625.88,233.09h-1.5c-1.7,0-2.8-.6-3.5-1.7-.6,1.1-1.8,1.7-3.9,1.7h-1.1v-2.3h1.7c1.8,0,2.8-.7,2.9-2,0-.6.2-.9.4-.9s.4.4.4.9c.2,1.3,1.1,2,2.8,2h1.7v2.2h.1v.1Zm-6.1,4l-1.5,1.5-1.5-1.5,1.5-1.5,1.5,1.5Zm3.3,0l-1.5,1.5-1.5-1.5,1.5-1.5,1.5,1.5Z"/><path id="PATH_37" d="m632.68,233.09h-.7c-1.7,0-2.8-.6-3.3-1.8-.2.6-.6.9-1.1,1.3-.6.4-1.1.6-1.7.6h-.7v-2.4h.7c1.5,0,2.2-.6,2.2-1.8v-6.4c0-2.4,0-4.2-.2-5.5l1.7-1.3v12.3c0,1.8.7,2.8,2.4,2.8h.7v2.2Z"/><path id="PATH_38" d="m644.08,216.09c0,.4-.4,1.1-.7,2l-4.6,1.5c-2,.7-3.5,1.3-4.2,1.7,1.5,1.5,2.4,2.6,2.9,3.1.9,1.3,1.5,2.4,1.7,3.7,0,.9,0,1.8-.4,2.6-.6,1.7-2.6,2.4-5.7,2.4h-.9v-2.3h1.1c1.5,0,2.6,0,3.1-.2,1.3-.4,2-.9,2-1.8,0-1.3-.9-2.8-2.9-4.6l-.2.4c-.2-.2-.6-.6-.9-1.1-.6-.6-.7-1.1-.7-1.1,0-.4,0-.7.2-1.5.2-.7.4-1.1.6-1.3s1.5-.7,3.9-1.5c1.8-.9,4-1.6,5.7-2Z"/></g><g id="G_39"><path id="PATH_40" d="m754.68,224.59h-.7c-.7,0-1.3-.2-1.8-.7-.4-.4-.7-.7-1.1-1.5-.4.7-.9,1.3-1.5,1.7-.7.4-1.7.6-3.1.6-2.6,0-3.9-.9-3.9-2.8,0-.6.2-1.3.6-1.8.2-.2.2-.4.4-.4s.2.2.2.4v1.2c0,1.1.9,1.7,2.8,1.7,2.6,0,3.9-.6,3.9-1.5,0-.6-.7-2.6-2.2-6.1l.7-1.5c.2-.2.2-.4.2-.4,0,0,.2.2.2.4.6,1.5,1.5,3.7,2.6,6.6.6,1.5,1.3,2.2,2.4,2.2h.6v1.9h-.3Z"/><path id="PATH_41" d="m759.08,220.89c0,2.4-1.3,3.7-3.7,3.7h-1.5v-2.2h1.3c1.8,0,2.8-.4,2.8-.9,0-.6-.4-1.3-1.3-2.2l.7-1.8c0-.2.2-.2.2-.2,0,0,.2.2.4.4.7.8,1.1,1.9,1.1,3.2Zm0-8.5l-1.5,1.5-1.5-1.5,1.5-1.5,1.5,1.5Z"/><path id="PATH_42" d="m763.48,222.19c0,.7-.2,1.5-.6,2-.2.4-.4.6-.4.6,0,0-.2-.2-.2-.7,0-2.2-.4-7.4-1.1-15.6l1.5-1.5.2-.2v.4c.6,2.5.6,7.5.6,15Z"/><path id="PATH_43" d="m772.68,224.79c0,1.8-.6,3.5-1.7,5.2-.9,1.3-1.8,2-2.4,2-1.5,0-2.6,0-3.7-.2-.4,0-.6-.2-.6-.2,0,0,.2-.2.6-.2,1.5-.4,2.9-1.1,4.4-2.2,1.5-1.3,2.4-2.6,2.4-3.9,0-.7-.6-1.8-1.8-3.1l.9-1.7c0-.2.2-.2.2-.2l.2.2c.4.6.9,1.3,1.1,2.2.2.6.4,1.3.4,2.1Z"/><path id="PATH_44" d="m784.28,224.59h-2c-.2,2.6-1.1,4.6-2.9,6.4-.6.6-.9.9-1.1.9-.9,0-2.2-.2-3.5-.4-.4,0-.7-.2-.7-.2,0,0,.2-.2.7-.4,1.5-.4,2.9-1.3,4.2-2.2.6-.6,1.1-.9,1.5-1.7.6-.7.9-1.5.9-2v-.6h-2.4c-1.8,0-2.6-.7-2.6-2.2,0-.9.2-1.8.7-2.9.6-1.1,1.3-1.8,2-1.8.9,0,1.7.6,2.2,1.8.4.9.7,1.8.7,2.9h2v2.2h.3v.2Zm-3.3-2.2c0-.6-.2-1.1-.6-1.7-.4-.7-.9-.9-1.5-.9-.4,0-.7.2-.9.4s-.4.6-.4,1.1c0,.9.7,1.3,2.2,1.3.1-.2.6-.2,1.2-.2Z"/><path id="PATH_45" d="m795.48,220.69c0,.7-.2,1.5-.7,2.2-.6.9-1.1,1.3-1.8,1.3-.6,0-1.8-.4-3.9-1.3-1.7,1.1-3.1,1.5-4.4,1.5h-.9v-2.2h1.1c.7,0,1.5,0,2.2-.2-.7-.6-1.1-1.3-1.1-2.2,0-1.1.7-2.4,2.4-3.7l-1.3-.6c.4-.4.9-.9,1.7-1.7,1.7.9,3.1,1.7,4.4,2.8,1.4,1.6,2.3,2.8,2.3,4.1Zm-5-1.4c0-.6-.2-.9-.4-1.3-.2-.6-.6-.7-1.1-.7s-.9.2-1.5.6c-.6.4-.9.9-.9,1.3,0,.7.7,1.5,2,1.8.4-.2.7-.4,1.1-.6.7-.2.8-.8.8-1.1Zm3.9,2.2c0-.6-.4-1.1-1.1-1.8-.6-.6-1.1-1.1-1.7-1.3,0,1.5-.4,2.6-1.3,3.3,1.5.6,2.6.7,2.9.7.8,0,1.2-.4,1.2-.9Z"/></g><g id="G_46"><path id="PATH_47" d="m656.98,361.79h-.7c-.7,0-1.1-.2-1.5-.4v.6c0,1.7-.6,3.3-1.7,5-.9,1.5-1.8,2-2.4,2-1.5,0-2.6,0-3.7-.2-.4,0-.6-.2-.6-.2,0,0,.2-.2.6-.2,1.5-.4,2.9-1.1,4.4-2.2,1.5-1.3,2.4-2.6,2.4-3.9,0-.7-.6-1.8-1.8-3.1l.9-1.7c0-.2.2-.2.2-.2l.2.2c.6.7.9,1.3,1.3,1.5.6.4,1.3.7,2,.7h.6v2h-.2v.1Z"/><path id="PATH_48" d="m668.18,358.19c0,.7-.2,1.5-.7,2.2-.6.9-1.1,1.3-1.8,1.3-.6,0-1.8-.4-3.9-1.3-1.7,1.1-3.1,1.5-4.4,1.5h-1.1v-2.2h1.1c.7,0,1.5,0,2.2-.2-.7-.6-1.1-1.3-1.1-2.2,0-1.1.7-2.4,2.4-3.7l-1.3-.6c.4-.4.9-.9,1.7-1.7,1.7.9,3.1,1.7,4.4,2.8,1.6,1.5,2.5,2.8,2.5,4.1Zm-5-1.5c0-.6-.2-.9-.4-1.3-.2-.6-.6-.7-1.1-.7s-.9.2-1.5.6-.9.9-.9,1.3c0,.7.7,1.5,2,1.8.4-.2.7-.4,1.1-.6.6-.4.8-.7.8-1.1Zm3.9,2.2c0-.6-.4-1.1-1.1-1.8-.6-.6-1.1-1.1-1.7-1.3,0,1.5-.4,2.6-1.3,3.3,1.5.6,2.6.7,2.9.7.8,0,1.2-.3,1.2-.9Z"/><path id="PATH_49" d="m672.38,359.59c0,.7-.2,1.5-.6,2-.2.4-.4.6-.4.6,0,0-.2-.2-.2-.7,0-2.2-.4-7.4-1.1-15.6l1.5-1.5.2-.2v.4c.6,2.5.6,7.5.6,15Z"/></g><g id="G_50"><path id="PATH_51" d="m441.28,326.19c.2.6.2,1.1.2,1.7,0,.7-.2,1.3-.4,2-.6,1.3-1.5,2.4-3.3,3.1-1.5.6-2.9.9-4.6.9s-2.9-.4-4-1.1c-1.1-.9-1.7-2-1.7-3.7,0-.9.2-1.7.6-2.8.4-.7.6-1.3.9-1.7.2-.2.4-.2.4-.2q.2,0,.2.2v.4c-.6,1.1-.7,2.2-.7,3.1s.4,1.7.9,2.4c.7.9,2,1.3,3.7,1.3,1.8,0,3.5-.4,4.8-.9,1.1-.6,1.8-1.1,2.2-1.8.2-.2.2-.6.2-.7,0-.6-.2-1.1-.4-1.8-.2-.6-.7-1.5-1.7-2.9l.7-1.5c.2-.2.2-.4.2-.4,0,0,.2,0,.2.2.7,1.2,1.3,2.7,1.6,4.2Zm-5.5-8.1l-1.5,1.5-1.5-1.5,1.5-1.5,1.5,1.5Z"/><path id="PATH_52" d="m448.68,326.29h-1.3c-1.3,0-2.4-.6-2.8-1.7-.4-.7-.6-2-.6-3.5v-3.5c0-1.7-.2-4-.4-7.2l1.1-1.3c.2-.2.4-.2.4,0,.2,1.7.4,4,.4,7.2v5.3c0,1.5.7,2.2,2.2,2.2h.9v2.5h.1Z"/><path id="PATH_53" d="m455.88,321.19c0,1.7-.2,2.8-.6,3.3-.9,1.3-2.4,1.8-4.8,1.8h-2.6v-2.2h1.8c3.1,0,4.8-.6,5.2-1.5.2-.4,0-.7-.2-1.1-.7.2-1.5.2-2.4.2-1.7,0-2.6-.7-2.6-2.2,0-.9.2-2,.7-2.9.6-1.1,1.3-1.7,2.2-1.7.7,0,1.5.6,2,1.5.9,1.5,1.3,2.9,1.3,4.8Zm-3.7-10.1l-1.5,1.5-1.5-1.5,1.5-1.5,1.5,1.5Zm2.2,8.4c0-.6-.2-1.1-.6-1.7-.4-.6-.9-.7-1.5-.7-.4,0-.7.2-1.1.4s-.4.6-.4.9c0,.7.6,1.1,1.8,1.1.7.2,1.2.2,1.8,0Zm.9-8.4l-1.5,1.5-1.5-1.5,1.5-1.5,1.5,1.5Z"/><path id="PATH_54" d="m465.08,326.49c0,1.8-.6,3.5-1.7,5.2-.9,1.3-1.8,2-2.4,2-1.5,0-2.6,0-3.7-.2-.4,0-.6-.2-.6-.2,0,0,.2-.2.6-.2,1.5-.4,2.9-1.1,4.4-2.2,1.5-1.3,2.4-2.6,2.4-3.9,0-.7-.6-1.8-1.8-3.1l.9-1.7c0-.2.2-.2.2-.2l.2.2c.4.6.9,1.3,1.1,2.2.2.6.4,1.4.4,2.1Zm-1.3-9.9l-1.5,1.5-1.5-1.5,1.5-1.5,1.5,1.5Z"/><path id="PATH_55" d="m474.38,326.49c0,1.8-.6,3.5-1.7,5.2-.9,1.3-1.8,2-2.4,2-1.5,0-2.6,0-3.7-.2-.4,0-.6-.2-.6-.2,0,0,.2-.2.6-.2,1.5-.4,2.9-1.1,4.4-2.2,1.5-1.3,2.4-2.6,2.4-3.9,0-.7-.6-1.8-1.8-3.1l.9-1.7c0-.2.2-.2.2-.2l.2.2c.4.6.9,1.3,1.1,2.2.3.6.4,1.4.4,2.1Z"/><path id="PATH_56" d="m483.78,325.59c0,2.8-.9,5.2-2.8,7-.6.6-.9.9-1.1.9-1.1,0-2.2-.2-3.5-.4-.6,0-.7-.2-.7-.2,0,0,.2-.2.7-.4,1.5-.4,2.9-1.3,4.2-2.4.6-.6,1.1-.9,1.5-1.7.6-.7.9-1.5.9-2v-.6h-2.4c-1.7,0-2.6-.7-2.6-2,0-.9.2-1.8.7-2.9.6-1.1,1.3-1.8,2-1.8,1.1,0,2,.7,2.6,2.4.3,1.3.5,2.6.5,4.1Zm-1.3-1.5c0-.6-.2-1.1-.6-1.7s-.9-.9-1.5-.9c-.4,0-.7.2-.9.4-.4.4-.4.6-.4.9,0,.9.6,1.3,1.8,1.3.4.2.9,0,1.6,0Z"/></g><g id="G_57"><path id="PATH_58" d="m575.78,472.19h-.9c-1.3,0-2-.6-2.6-1.5-.4,1.1-1.3,1.7-2.4,1.7s-1.8-.6-2.4-1.7c-.6,1.1-1.5,1.7-2.6,1.7-.4,0-.9,0-1.3-.2,0,1.1-.2,2.2-.2,3.5-.6,1.3-1.5,2.4-3.1,3.1-1.5.6-2.9.9-4.6.9s-2.9-.4-4-1.1c-1.1-.9-1.7-2-1.7-3.7,0-.9.2-1.7.6-2.8.4-.7.6-1.3.9-1.7.2-.2.4-.2.4-.2q.2,0,.2.2v.4c-.6,1.1-.7,2.2-.7,3.1s.4,1.7.9,2.4c.7.9,2,1.3,3.7,1.3,1.8,0,3.5-.4,4.8-.9,1.1-.6,1.8-1.1,2-1.8.2-.2.2-.6,0-1.3,0-.6-.2-1.1-.2-1.3-.2-.6-.7-1.5-1.8-2.8l.7-1.5c.2-.2.2-.4.2-.4,0,0,.2,0,.2.4.6.7.9,1.3,1.1,1.5.6.6,1.1.7,1.8.7s1.5-.2,1.8-.7c.2-.4.4-.7.6-1.7,0-.4.2-.6.4-.6s.2.2.4.6c.2,1.5.9,2.4,2,2.4,1.3,0,2.2-.7,2.2-2.2,0-.4.2-.6.4-.6s.4.2.4.6c.2,1.5.9,2.2,2.2,2.2h1.1v1.8h-.5v.2Z"/><path id="PATH_59" d="m580.18,468.59c0,2.4-1.3,3.7-3.7,3.7h-1.5v-2.2h1.3c1.8,0,2.8-.4,2.8-.9s-.4-1.3-1.3-2.2l.7-1.8c0-.2.2-.2.2-.2,0,0,.2.2.4.4.8.9,1.1,2.1,1.1,3.2Zm-1.4,7.7l-1.5,1.5-1.5-1.5,1.5-1.5,1.5,1.5Zm3.1,0l-1.5,1.5-1.5-1.5,1.5-1.5,1.5,1.5Z"/><path id="PATH_60" d="m593.48,472.19h-.7c-.7,0-1.1-.2-1.5-.4v.6c0,1.7-.6,3.3-1.7,5-.9,1.5-1.8,2-2.4,2-1.5,0-2.6,0-3.7-.2-.4,0-.6-.2-.6-.2,0,0,.2-.2.6-.2,1.5-.4,2.9-1.1,4.4-2.2,1.5-1.3,2.4-2.6,2.4-3.9,0-.7-.6-1.8-1.8-3.1l.9-1.7c0-.2.2-.2.2-.2l.2.2c.6.7.9,1.3,1.3,1.5.6.4,1.3.7,2,.7h.6v2h-.2v.1Z"/><path id="PATH_61" d="m604.68,468.59c0,.7-.2,1.5-.7,2.2-.6.9-1.1,1.3-1.8,1.3-.6,0-1.8-.4-3.9-1.3-1.7,1.1-3.1,1.5-4.4,1.5h-.9v-2.2h1.1c.7,0,1.5,0,2.2-.2-.7-.6-1.1-1.3-1.1-2.2,0-1.1.7-2.4,2.4-3.7l-1.3-.6c.4-.4.9-.9,1.7-1.7,1.7.9,3.1,1.7,4.4,2.8,1.4,1.5,2.3,2.8,2.3,4.1Zm-4.8-1.5c0-.6-.2-.9-.4-1.3-.2-.6-.6-.7-1.1-.7-.6,0-.9.2-1.5.6s-.9.9-.9,1.3c0,.7.7,1.5,2,1.8.4-.2.7-.4,1.1-.6.6-.4.8-.7.8-1.1Zm3.9,2.2c0-.6-.4-1.1-1.1-1.8-.6-.6-1.1-1.1-1.7-1.3,0,1.5-.4,2.6-1.3,3.3,1.5.6,2.6.7,2.9.7.8,0,1.2-.4,1.2-.9Z"/></g><g id="G_62"><path id="PATH_63" d="m201.18,239.49h-1.3c-1.3,0-2.4-.6-2.8-1.7-.4-.7-.6-2-.6-3.5v-3.7c0-1.7-.2-4-.4-7.2l1.1-1.3c.2-.2.4-.2.4,0,.2,1.7.4,4,.4,7.2v5.3c0,1.5.7,2.2,2.2,2.2h.9v2.7h.1Z"/><path id="PATH_64" d="m211.18,239.49h-.9c-.6,0-1.3-.2-2.2-.4s-1.7-.6-2-.9c-.4.4-.9.6-1.7.7-.9.4-1.8.4-2.8.4h-1.3v-2.2h.9c1.5,0,2.4-.2,2.8-.4-.4-.2-.6-.6-.7-.9-.2-.4-.4-.7-.4-1.1,0-.7.4-1.7.9-2.8.7-1.1,1.5-1.8,2.4-1.8s1.5.6,2,1.5c.4.7.6,1.7.6,2.6,0,.7-.2,1.3-.6,1.7-.2.4-.4.6-.7.7.4.2,1.3.4,2.6.4h.7v2.6h.4v-.1Zm-3.2-4.8c0-.4-.2-.9-.6-1.3-.4-.6-.7-.7-1.3-.7-.4,0-.9.2-1.3.6-.4.4-.7.9-.7,1.3s.2.9.7,1.3c.4.4.9.6,1.3.7.4,0,.9-.2,1.1-.6.7-.6.8-.9.8-1.3Zm-.5-9l-1.5,1.5-1.5-1.5,1.5-1.5,1.5,1.5Z"/><path id="PATH_65" d="m217.98,239.49h-.7c-1.7,0-2.8-.6-3.3-1.8-.2.6-.6.9-1.1,1.3-.6.4-1.1.6-1.7.6h-.7v-2.2h.7c1.5,0,2.2-.6,2.2-1.8v-6.4c0-2.4,0-4.2-.2-5.5l1.7-1.3v12.3c0,1.8.7,2.8,2.4,2.8h.7v2h0Z"/><path id="PATH_66" d="m232.28,234.19l-.7,1.5c-1.3,0-2.4,0-2.9.2-.7.4-1.8.7-3.3,1.5-1.5.7-2.6,1.3-3.3,1.5-1.1.4-2.4.6-3.5.6h-1.3v-2.2h1.5c1.7,0,3.1-.4,4.4-.9l4.2-1.8c-.7-.2-1.8-.6-3.3-1.1-1.3-.6-2-.7-2.4-.7-.7,0-1.5.4-2.2.9q-.2.2-.4.2t-.2-.2v-.2c.6-1.8,1.7-2.6,3.1-2.6.6,0,1.3.2,2,.6,1.5.7,2.6,1.1,3.3,1.5,1.3.4,2.8.7,4.4.7.4,0,.6,0,.6.2q.2-.1,0,.3Zm-6,9l-1.5,1.5-1.5-1.5,1.5-1.5,1.5,1.5Z"/></g><g id="G_67"><path id="PATH_68" d="m194.58,340.49h-.7c-.7,0-1.3-.2-1.8-.7-.4-.4-.7-.7-1.1-1.5-.4.7-.9,1.3-1.5,1.7-.7.4-1.7.6-3.1.6-2.6,0-3.9-.9-3.9-2.8,0-.6.2-1.3.6-1.8.2-.2.2-.4.4-.4s.2.2.2.4v1.2c0,1.1.9,1.7,2.8,1.7,2.6,0,3.9-.6,3.9-1.5,0-.6-.7-2.6-2.2-6.1l.7-1.5c.2-.2.2-.4.2-.4,0,0,.2.2.2.4.6,1.5,1.5,3.7,2.6,6.6.6,1.5,1.3,2.2,2.4,2.2h.6v1.9h-.3Z"/><path id="PATH_69" d="m198.98,336.79c0,2.4-1.3,3.7-3.7,3.7h-1.5v-2.2h1.3c1.8,0,2.8-.4,2.8-.9s-.4-1.3-1.3-2.2l.7-1.8c0-.2.2-.2.2-.2,0,0,.2.2.4.4.8.8,1.1,1.9,1.1,3.2Zm-.2-8.4l-1.5,1.5-1.5-1.5,1.5-1.5,1.5,1.5Z"/><path id="PATH_70" d="m210.38,340.49h-.7c-.7,0-1.1-.2-1.5-.4v.6c0,1.7-.6,3.3-1.7,5-.9,1.5-1.8,2-2.4,2-1.5,0-2.6,0-3.7-.2-.4,0-.6-.2-.6-.2,0,0,.2-.2.6-.2,1.5-.4,2.9-1.1,4.4-2.2,1.5-1.3,2.4-2.6,2.4-3.9,0-.7-.6-1.8-1.8-3.1l.9-1.7c0-.2.2-.2.2-.2l.2.2c.6.7.9,1.3,1.3,1.5.6.4,1.3.7,2,.7h.6v2h-.2v.1Z"/><path id="PATH_71" d="m219.58,336.79c0,.9,0,1.7-.4,2.4-.4.9-.9,1.5-1.5,1.5-.9,0-2.4-.6-4.2-1.8-.6.7-.9,1.1-1.1,1.3-.6.4-1.1.6-1.8.6h-.9v-2.2h1.3c.7,0,1.5-.4,2.2-1.3.4-.4.9-1.3,1.7-2.4.6-.9,1.3-1.3,1.8-1.3.9,0,1.7.4,2.2,1.3.4.5.5,1.2.7,1.9Zm-1.1,1.3c0-.6-.2-1.1-.6-1.8s-.9-1.1-1.5-1.1-1.1.6-1.8,1.7c.4.4.9.7,1.7,1.1.7.4,1.5.6,1.8.6.2.1.4-.1.4-.5Z"/></g><g id="G_72"><path id="PATH_73" d="m133.18,491.89h-.7c-.7,0-1.1-.2-1.5-.4v.6c0,1.7-.6,3.3-1.7,5-.9,1.5-1.8,2-2.4,2-1.5,0-2.6,0-3.7-.2-.4,0-.6-.2-.6-.2,0,0,.2-.2.6-.2,1.5-.4,2.9-1.1,4.4-2.2,1.5-1.3,2.4-2.6,2.4-3.9,0-.7-.6-1.8-1.8-3.1l.9-1.7c0-.2.2-.2.2-.2l.2.2c.6.7.9,1.3,1.3,1.5.6.4,1.3.7,2,.7h.6v2h-.2v.1Z"/><path id="PATH_74" d="m142.18,491.89h-1.5c-1.7,0-2.8-.6-3.5-1.7-.6,1.1-1.8,1.7-3.9,1.7h-1.1v-2.2h1.7c1.8,0,2.8-.7,2.9-2,0-.6.2-.9.4-.9s.4.4.4.9c.2,1.3,1.1,2,2.8,2h1.7v2.2h.1Zm-6.3-10.6l-1.5,1.5-1.5-1.5,1.5-1.5,1.5,1.5Zm3.1,0l-1.5,1.5-1.5-1.5,1.5-1.5,1.5,1.5Z"/><path id="PATH_75" d="m159.08,491.89h-1.1c-1.3,0-2-.6-2.6-1.5-.4,1.1-1.3,1.5-2.4,1.5s-1.8-.6-2.4-1.5c-.6,1.1-1.3,1.5-2.4,1.5-1.3,0-2.2-.6-2.8-1.5-.7,1.1-1.7,1.5-2.9,1.5h-1.3v-2.2h1.7c1.3,0,2.2-.7,2.4-2.2,0-.4.2-.6.4-.6s.2.2.4.6c.2,1.5.9,2.2,2.4,2.2,1.3,0,2.2-.7,2.2-2.2,0-.4.2-.6.4-.6s.4.2.4.6c.2,1.5.9,2.2,1.8,2.2,1.3,0,2.2-.7,2.2-2.2,0-.4.2-.6.4-.6s.4.2.4.6c.2,1.5.9,2.2,2.2,2.2h1.1v2.2h-.5Z"/><path id="PATH_76" d="m168.08,491.89h-1.3c-1.7,0-2.8-.6-3.5-1.7-.6,1.1-1.8,1.7-3.9,1.7h-1.1v-2.2h1.7c1.8,0,2.8-.7,2.9-2,0-.6.2-.9.4-.9s.4.4.4.9c.2,1.3,1.1,2,2.8,2h1.7v2.2h-.1Zm-3.9,4.1l-1.5,1.5-1.5-1.5,1.5-1.5,1.5,1.5Z"/><path id="PATH_77" d="m182.58,488.09c0,1.1-.2,2-.7,2.8s-1.5,1.3-2.4,1.3c-1.3,0-2-.6-2.6-1.5-.7,1.1-1.5,1.5-2.6,1.5-1.3,0-2.2-.6-2.8-1.5-.7,1.1-1.7,1.5-2.9,1.5h-1.3v-2.2h1.5c1.3,0,2.2-.7,2.4-2.2,0-.4.2-.6.4-.6s.2.2.4.6c.2,1.5.9,2.2,2.4,2.2.7,0,1.5-.2,1.8-.6.2-.4.4-.7.6-1.5,0-.4.2-.6.4-.6s.2.2.4.6c.2,1.5.9,2.2,2.2,2.2,1.5,0,2-.4,2-.9,0-.6-.4-1.3-1.1-2l.9-1.7c.2-.2.2-.4.4-.4s.2.2.4.4c.1.7.2,1.6.2,2.6Zm-6.2-6.8l-1.3,1.3-1.3-1.3,1.3-1.3,1.3,1.3Zm1.6-2.8l-1.3,1.3-1.3-1.3,1.3-1.3,1.3,1.3Zm1.7,2.8l-1.3,1.3-1.3-1.3,1.3-1.3,1.3,1.3Z"/></g><g id="G_78"><path id="PATH_79" d="m367.88,536.29h-.7c-.7,0-1.1-.2-1.5-.4v.6c0,1.7-.6,3.3-1.7,5-.9,1.5-1.8,2-2.4,2-1.5,0-2.6,0-3.7-.2-.4,0-.6-.2-.6-.2,0,0,.2-.2.6-.2,1.5-.4,2.9-1.1,4.4-2.2,1.5-1.3,2.4-2.6,2.4-3.9,0-.7-.6-1.8-1.8-3.1l.9-1.7c0-.2.2-.2.2-.2l.2.2c.6.7.9,1.3,1.3,1.5.6.4,1.3.7,2,.7h.6v2h-.2v.1Zm-3.5-9.8l-1.5,1.5-1.5-1.5,1.5-1.5,1.5,1.5Z"/><path id="PATH_80" d="m372.28,532.59c0,2.4-1.3,3.7-3.7,3.7h-1.5v-2.2h1.3c1.8,0,2.8-.4,2.8-.9s-.4-1.3-1.3-2.2l.7-1.8c0-.2.2-.2.2-.2l.4.4c.8.8,1.1,1.9,1.1,3.2Zm-1.4,7.7l-1.5,1.5-1.5-1.5,1.5-1.5,1.5,1.5Zm3.1,0l-1.5,1.5-1.5-1.5,1.5-1.5,1.5,1.5Z"/><path id="PATH_81" d="m385.58,536.29h-.7c-.7,0-1.1-.2-1.5-.4v.6c0,1.7-.6,3.3-1.7,5-.9,1.5-1.8,2-2.4,2-1.5,0-2.6,0-3.7-.2-.4,0-.6-.2-.6-.2,0,0,.2-.2.6-.2,1.5-.4,2.9-1.1,4.4-2.2,1.5-1.3,2.4-2.6,2.4-3.9,0-.7-.6-1.8-1.8-3.1l.9-1.7c0-.2.2-.2.2-.2l.2.2c.6.7.9,1.3,1.3,1.5.6.4,1.3.7,2,.7h.6v2h-.2v.1Z"/><path id="PATH_82" d="m394.58,536.29h-1.5c-1.7,0-2.8-.6-3.5-1.7-.6,1.1-1.8,1.7-3.9,1.7h-1.1v-2.2h1.7c1.8,0,2.8-.7,2.9-2,0-.6.2-.9.4-.9s.4.4.4.9c.2,1.3,1.1,2,2.8,2h1.7v2.2h.1Zm-3.9,4l-1.5,1.5-1.5-1.5,1.5-1.5,1.5,1.5Z"/><path id="PATH_83" d="m398.98,532.59c0,2.4-1.3,3.7-3.7,3.7h-1.5v-2.2h1.3c1.8,0,2.8-.4,2.8-.9s-.4-1.3-1.3-2.2l.7-1.8c0-.2.2-.2.2-.2l.4.4c.7.8,1.1,1.9,1.1,3.2Zm-1.6-8.1l-1.5,1.5-1.5-1.5,1.5-1.5,1.5,1.5Zm3.1,0l-1.5,1.5-1.5-1.5,1.5-1.5,1.5,1.5Z"/></g><g id="G_84"><path id="PATH_85" d="m183.18,593.09h-2c-.2,2.6-1.1,4.6-2.9,6.4-.6.6-.9.9-1.1.9-.9,0-2.2-.2-3.5-.4-.4,0-.7-.2-.7-.2,0,0,.2-.2.7-.4,1.5-.4,2.9-1.3,4.2-2.2.6-.6,1.1-.9,1.5-1.7.6-.7.9-1.5.9-2v-.6h-2.4c-1.8,0-2.6-.7-2.6-2.2,0-.9.2-1.8.7-2.9.6-1.1,1.3-1.8,2-1.8.9,0,1.7.6,2.2,1.8.4.9.7,1.8.7,2.9h2v2.2h.3v.2Zm-3.3-2.2c0-.6-.2-1.1-.6-1.7-.4-.7-.9-.9-1.5-.9-.4,0-.7.2-.9.4-.4.4-.4.6-.4,1.1,0,.9.7,1.3,2.2,1.3.1,0,.5-.2,1.2-.2Z"/><path id="PATH_86" d="m195.68,593.09h-1.3c-.9,0-1.8-.6-2.9-1.5-.6-.6-1.3-1.5-2.2-2.8.2,2.9-1.5,4.4-5,4.4h-2v-2.2h2.4c2.4,0,3.7-.7,3.7-2,0-.7-.4-1.7-1.3-2.8-.6-.7-1.3-1.5-2.4-2.4-.9-.7-1.3-1.3-1.3-1.3,0-1.3.2-2.2.6-2.8,0-.2,1.3-.6,3.7-1.5s4.6-1.7,6.6-2.2c0,.2-.2.9-.6,2-2.4.7-5.3,1.8-9,3.3,1.7,1.5,3.9,3.9,6.3,7.2.9,1.1,1.7,1.8,2.2,2.2.4.2,1.1.4,1.8.4h.7v2h0Z"/><path id="PATH_87" d="m210.18,589.29c0,1.1-.2,2-.7,2.8-.6.7-1.5,1.3-2.4,1.3-1.3,0-2-.6-2.6-1.5-.7,1.1-1.5,1.5-2.6,1.5-1.3,0-2.2-.6-2.8-1.5-.7,1.1-1.7,1.5-2.9,1.5h-1.3v-2.2h1.5c1.3,0,2.2-.7,2.4-2.2,0-.4.2-.6.4-.6s.2.2.4.6c.2,1.5.9,2.2,2.4,2.2.7,0,1.5-.2,1.8-.6.2-.4.4-.7.6-1.5,0-.4.2-.6.4-.6s.2.2.4.6c.2,1.5.9,2.2,2.2,2.2,1.5,0,2-.4,2-.9s-.4-1.3-1.1-2l.9-1.7c.2-.2.2-.4.4-.4s.2.2.4.4c-.1.7.2,1.6.2,2.6Z"/><path id="PATH_88" d="m214.68,590.89c0,.7-.2,1.5-.6,2-.2.4-.4.6-.4.6,0,0-.2-.2-.2-.7,0-2.2-.4-7.4-1.1-15.6l1.5-1.5.2-.2v.4c.4,2.3.6,7.3.6,15Z"/></g><g id="G_89"><path id="PATH_90" d="m211.18,674.09h-.7c-.7,0-1.1-.2-1.5-.4v.6c0,1.7-.6,3.3-1.7,5-.9,1.5-1.8,2-2.4,2-1.5,0-2.6,0-3.7-.2-.4,0-.6-.2-.6-.2,0,0,.2-.2.6-.2,1.5-.4,2.9-1.1,4.4-2.2,1.5-1.3,2.4-2.6,2.4-3.9,0-.7-.6-1.8-1.8-3.1l.9-1.7c0-.2.2-.2.2-.2l.2.2c.6.7.9,1.3,1.3,1.5.6.4,1.3.7,2,.7h.6v2h-.2v.1Z"/><path id="PATH_91" d="m222.58,674.09h-.9c-.7,0-1.5.2-2,.4-.9.4-1.5.9-1.5,1.8,0,1.1.7,2,2.2,2.9l-.9,1.8c-1.7-.6-3.1-1.5-4.2-2.6-1.5-1.3-2.2-2.9-2.2-4.6h-2.6v-2.2h2.4c0-1.5.4-2.9,1.1-4.8.7-1.7,1.3-2.4,1.7-2.4s.9.7,1.5,2.4c.6,1.5.7,2.4.7,2.9,0,2.6-1.3,3.9-3.9,3.9.2.7.6,1.5,1.1,2.2.6.7,1.3,1.3,2,1.7v-.7c0-1.3.4-2.4.9-3.3.9-1.3,2-2,3.7-2h.7v2.6h.2Zm-5.7-3c0-.4-.2-1.1-.6-2-.4-1.1-.7-1.5-1.1-1.5-.2,0-.6.4-.9,1.3s-.6,2-.6,3.1c2.2-.1,3.2-.3,3.2-.9Z"/><path id="PATH_92" d="m237.08,670.19c0,1.1-.2,2-.7,2.8-.6.7-1.5,1.3-2.4,1.3-1.3,0-2-.6-2.6-1.5-.7,1.1-1.5,1.5-2.6,1.5-1.3,0-2.2-.6-2.8-1.5-.7,1.1-1.7,1.5-2.9,1.5h-1.3v-2.2h1.5c1.3,0,2.2-.7,2.4-2.2,0-.4.2-.6.4-.6s.2.2.4.6c.2,1.5.9,2.2,2.4,2.2.7,0,1.5-.2,1.8-.6.2-.4.4-.7.6-1.5,0-.4.2-.6.4-.6s.2.2.4.6c.2,1.5.9,2.2,2.2,2.2,1.5,0,2-.4,2-.9s-.4-1.3-1.1-2l.9-1.7c.2-.2.2-.4.4-.4s.2.2.4.4c-.2.8.2,1.7.2,2.6Zm-6.2-6.8l-1.3,1.3-1.3-1.3,1.3-1.3,1.3,1.3Zm1.6-2.8l-1.3,1.3-1.3-1.3,1.3-1.3,1.3,1.3Zm1.7,2.8l-1.3,1.3-1.3-1.3,1.3-1.3,1.3,1.3Z"/><path id="PATH_93" d="m246.48,674.29c0,1.8-.6,3.5-1.7,5.2-.9,1.3-1.8,2-2.4,2-1.5,0-2.6,0-3.7-.2-.4,0-.6-.2-.6-.2,0,0,.2-.2.6-.2,1.5-.4,2.9-1.1,4.4-2.2,1.5-1.3,2.4-2.6,2.4-3.9,0-.7-.6-1.8-1.8-3.1l.9-1.7c0-.2.2-.2.2-.2l.2.2c.4.6.9,1.3,1.1,2.2.2.6.4,1.3.4,2.1Z"/><path id="PATH_94" d="m257.68,670.19c0,2.6-1.7,3.9-5.2,3.9-1.3,0-2.2-.2-2.8-.6-.7-.4-1.1-1.3-1.1-2.4,0-.6.2-1.1.4-1.7.2-.2.2-.4.4-.4s.2.2.2.6v.6c0,.7.4,1.3,1.1,1.5.4.2,1.1.2,2,.2,2.8,0,4-.4,4-1.3,0-1.3-1.7-3.1-4.8-5.3l.6-1.8c0-.2.2-.2.2-.2,0,0,.2,0,.4.2,3,2.3,4.6,4.7,4.6,6.7Zm-3.5-11.2l-1.5,1.5-1.5-1.5,1.5-1.5,1.5,1.5Z"/><path id="PATH_95" d="m265.08,654.39c-.7.7-1.8.9-2.9.9h-1.4c-.1,0-.4.2-.6.4l-.4.4c-.2,0-.2-.2-.2-.4s.2-.6.4-.9c.2-.6.4-.7.6-.7s.6,0,1.1.2c.6.2.9.2,1.1.2,1.1,0,1.8,0,2.4-.2.4,0,.6-.2.6-.2h.2c-.6-.1-.7.1-.9.3Zm-1.1,17.5c0,.7-.2,1.5-.6,2-.2.4-.4.6-.4.6,0,0-.2-.2-.2-.7,0-2.2-.4-7.4-1.1-15.6l1.5-1.5.2-.2v.4c.4,2.3.6,7.2.6,15Z"/></g><g id="G_96"><path id="PATH_97" d="m200.08,760.89h-.7c-.7,0-1.1-.2-1.5-.4v.6c0,1.7-.6,3.3-1.7,5-.9,1.5-1.8,2-2.4,2-1.5,0-2.6,0-3.7-.2-.4,0-.6-.2-.6-.2,0,0,.2-.2.6-.2,1.5-.4,2.9-1.1,4.4-2.2,1.5-1.3,2.4-2.6,2.4-3.9,0-.7-.6-1.8-1.8-3.1l.9-1.7c0-.2.2-.2.2-.2l.2.2c.6.7.9,1.3,1.3,1.5.6.4,1.3.7,2,.7h.6v2h-.2v.1Z"/><path id="PATH_98" d="m209.08,760.89h-1.5c-1.7,0-2.8-.6-3.5-1.7-.6,1.1-1.8,1.7-3.9,1.7h-1.1v-2.2h1.7c1.8,0,2.8-.7,2.9-2,0-.6.2-.9.4-.9s.4.4.4.9c.2,1.3,1.1,2,2.8,2h1.7v2.2h.1Zm-6,4.1l-1.5,1.5-1.5-1.5,1.5-1.5,1.5,1.5Zm3.1,0l-1.5,1.5-1.5-1.5,1.5-1.5,1.5,1.5Z"/><path id="PATH_99" d="m223.68,756.89c0,1.1-.2,2-.7,2.8-.6.7-1.5,1.3-2.4,1.3-1.3,0-2-.6-2.6-1.5-.7,1.1-1.5,1.5-2.6,1.5-1.3,0-2.2-.6-2.8-1.5-.7,1.1-1.7,1.5-2.9,1.5h-1.3v-2.2h1.5c1.3,0,2.2-.7,2.4-2.2,0-.4.2-.6.4-.6s.2.2.4.6c.2,1.5.9,2.2,2.4,2.2.7,0,1.5-.2,1.8-.6.2-.4.4-.7.6-1.5,0-.4.2-.6.4-.6s.2.2.4.6c.2,1.5.9,2.2,2.2,2.2,1.5,0,2-.4,2-.9s-.4-1.3-1.1-2l.9-1.7c.2-.2.2-.4.4-.4s.2.2.4.4c-.2.9.2,1.8.2,2.6Zm-6.3-6.7l-1.3,1.3-1.3-1.3,1.3-1.3,1.3,1.3Zm1.7-2.9l-1.3,1.3-1.3-1.3,1.3-1.3,1.3,1.3Zm1.6,2.9l-1.3,1.3-1.3-1.3,1.3-1.3,1.3,1.3Z"/><path id="PATH_100" d="m252.88,760.89h-.7c-.9,0-1.7-.2-2-.6-.6-.4-.9-1.1-.9-1.8-2,1.8-5.2,2.8-9.4,2.8s-6.6-1.3-6.6-4c0-.9.4-1.8,1.1-2.8q.2-.2.4-.2t.2.2v.4c-.2.6-.4,1.1-.4,1.7,0,1.8,2,2.8,6.1,2.8,4.6,0,7.7-.9,9.2-2.9.4-.4.6-.6.7-.6.2,0,.2.2.2.4s0,.4-.2.7c0,.4-.2.6-.2.7,0,.9.7,1.5,2,1.5h.7v1.8h-.2v-.1Zm-9.7,4.1l-1.5,1.5-1.5-1.5,1.5-1.5,1.5,1.5Z"/><path id="PATH_101" d="m269.08,760.89h-1.8c-2.4,0-3.7-1.3-3.7-3.7v-.9c-.9.4-2,1.1-3.5,2s-2.4,1.5-3.1,1.8c-1.1.6-2.4.7-3.5.7h-1.3v-2.2h1.5c1.5,0,3.1-.4,4.6-1.1.7-.4,2-1.1,4-2-.4,0-1.5-.4-3.3-.7-1.3-.4-2-.6-2.2-.6-.7,0-1.5.4-2.2.9q-.2.2-.4.2t-.2-.2v-.2c.6-1.8,1.7-2.8,3.1-2.8.6,0,1.3.2,2.2.4,1.3.4,2.4.7,3.3.9,1.3.2,2.8.4,4.4.4h.6v.4l-.6,1.7c-1.1,0-1.8,0-2.2.2,0,.9.2,1.5.4,1.7.4.6,1.1.9,2.4.9h1.8v2.2h-.3Zm-7,3.7l-1.5,1.5-1.5-1.5,1.5-1.5,1.5,1.5Z"/><path id="PATH_102" d="m278.68,757.19l-.6,1.7-5,1.3c-1.5.4-2.8.6-3.9.6h-.9v-2h1.5c.4,0,.7,0,1.5-.2-1.1-.9-1.7-1.7-1.7-2.6,0-.7.4-1.7,1.3-2.8,1.1-1.3,2.2-2,3.3-2,1.3,0,2.2.6,2.9,1.7.2.4.4.6.4.7,0,0,0,.2-.2.2s-.4,0-.9-.2c-.9-.2-1.7-.4-2.4-.4-.6,0-1.1.2-1.8.6-.7.4-1.3.7-1.3,1.3,0,.4.4.9.9,1.5.7.7,1.7,1.1,2.6,1.1.4,0,1.7-.4,3.9-.9h.4q.2.2,0,.4Z"/></g><g id="G_103"><path id="PATH_104" d="m303.68,823.79c0,1.3-.4,2.4-1.3,2.9-.6.4-1.7.7-3.3.9-1.8.4-3.7.6-5.7.6-4.8,0-7.4-1.3-7.4-4,0-.9.4-1.8,1.1-2.8.2-.2.2-.4.4-.4s.2,0,.2.2v.4c-.2.6-.4,1.1-.4,1.7,0,1.8,2.4,2.8,7,2.8,2.2,0,4.2-.2,5.7-.4,1.8-.4,2.6-.7,2.6-1.3,0-.4-.4-1.1-1.3-2.2l.9-1.7q.2-.2.4,0c.7,1.3,1.1,2.4,1.1,3.3Zm-7.4,8.3l-1.5,1.5-1.5-1.5,1.5-1.5,1.5,1.5Z"/><path id="PATH_105" d="m311.08,828.09h-1.3c-1.3,0-2.4-.6-2.8-1.7-.4-.7-.6-2-.6-3.5v-3.5c0-1.7-.2-4-.4-7.2l1.1-1.3c.2-.2.4-.2.4,0,.2,1.7.4,4,.4,7.2v5.3c0,1.5.7,2.2,2.2,2.2h.9v2.5h.1Z"/><path id="PATH_106" d="m320.08,828.09h-1.5c-1.7,0-2.8-.6-3.5-1.7-.6,1.1-1.8,1.7-3.9,1.7h-1.1v-2.2h1.7c1.8,0,2.8-.7,2.9-2,0-.6.2-.9.4-.9s.4.4.4.9c.2,1.3,1.1,2,2.8,2h1.7v2.2h.1Zm-3.7-9.6l-1.5,1.5-1.5-1.5,1.5-1.5,1.5,1.5Z"/><path id="PATH_107" d="m324.48,824.39c0,2.4-1.3,3.7-3.7,3.7h-1.5v-2.2h1.3c1.8,0,2.8-.4,2.8-.9s-.4-1.3-1.3-2.2l.7-1.8c0-.2.2-.2.2-.2l.4.4c.7.8,1.1,1.9,1.1,3.2Zm-.7,7.7l-1.5,1.5-1.5-1.5,1.5-1.5,1.5,1.5Z"/></g><g id="G_108"><path id="PATH_109" d="m366.28,911.79c.2.6.2,1.1.2,1.7,0,.7-.2,1.3-.4,2-.6,1.3-1.5,2.4-3.3,3.1-1.5.6-2.9.9-4.6.9s-2.9-.4-4-1.1c-1.1-.9-1.7-2-1.7-3.7,0-.9.2-1.7.6-2.8.4-.7.6-1.3.9-1.7.2-.2.4-.2.4-.2q.2,0,.2.2v.4c-.6,1.1-.7,2.2-.7,3.1s.4,1.7.9,2.4c.7.9,2,1.3,3.7,1.3,1.8,0,3.5-.4,4.8-.9,1.1-.6,1.8-1.1,2.2-1.8.2-.2.2-.6.2-.7,0-.6-.2-1.1-.4-1.8-.2-.6-.7-1.5-1.7-2.9l.7-1.5c.2-.2.2-.4.2-.4,0,0,.2,0,.2.2.8,1.2,1.4,2.7,1.6,4.2Zm-5.6-7.9l-1.5,1.5-1.5-1.5,1.5-1.5,1.5,1.5Z"/><path id="PATH_110" d="m373.58,911.99h-1.3c-1.3,0-2.4-.6-2.8-1.7-.4-.7-.6-2-.6-3.5v-3.5c0-1.7-.2-4-.4-7.2l1.1-1.3c.2-.2.4-.2.4,0,.2,1.7.4,4,.4,7.2v5.3c0,1.5.7,2.2,2.2,2.2h.9v2.5h.1Z"/><path id="PATH_111" d="m386.28,911.99h-1.3c-.9,0-1.8-.6-2.9-1.5-.6-.6-1.3-1.5-2.2-2.8.2,2.9-1.5,4.4-5,4.4h-2v-2.2h2.4c2.4,0,3.7-.7,3.7-2,0-.7-.4-1.7-1.3-2.8-.6-.7-1.3-1.5-2.4-2.4-.9-.7-1.3-1.3-1.3-1.3,0-1.3.2-2.2.6-2.8,0-.2,1.3-.6,3.7-1.5s4.6-1.7,6.6-2.2c0,.2-.2.9-.6,2-2.4.7-5.3,1.8-9,3.3,1.7,1.5,3.9,3.9,6.3,7.2.9,1.1,1.7,1.8,2.2,2.2.4.2,1.1.4,1.8.4h.7v2Z"/><path id="PATH_112" d="m390.58,897.39c.2.2.2.4.2.4h-1c.2,2.4.2,5.9.2,10.5,0,1.1-.2,2-.7,2.6-.6.7-1.5,1.1-2.4,1.1h-1.1v-2.2h.9c1.5,0,2.2-.6,2-1.7-.2-3.9-.4-7.9-.6-12l1.3-1.1.4-.4s0,.2.2.4c0,.8.2,1.5.6,2.4Z"/><path id="PATH_113" d="m397.88,911.99h-1.1c-1.3,0-2.4-.6-2.8-1.7-.4-.7-.6-2-.6-3.5v-3.5c0-1.7-.2-4-.4-7.2l1.1-1.3c.2-.2.4-.2.4,0,.2,1.7.4,4,.4,7.2v5.3c0,1.5.7,2.2,2.2,2.2h.9v2.4h-.1v.1Z"/><path id="PATH_114" d="m407.08,908.29c0,.9,0,1.7-.4,2.4-.4.9-.9,1.5-1.5,1.5-.9,0-2.4-.6-4.2-1.8-.6.7-.9,1.1-1.1,1.3-.6.4-1.1.6-1.8.6h-.9v-2.2h1.3c.7,0,1.5-.4,2.2-1.3.4-.4.9-1.3,1.7-2.4.6-.9,1.3-1.3,1.8-1.3.9,0,1.7.4,2.2,1.3.3.6.7,1.3.7,1.9Zm-1.1,1.5c0-.6-.2-1.1-.6-1.8-.4-.7-.9-1.1-1.5-1.1s-1.1.6-1.8,1.7c.4.4.9.7,1.7,1.1.7.4,1.5.6,1.8.6.2-.2.4-.4.4-.5Z"/></g><g id="G_115"><path id="PATH_116" d="m423.48,808.39h-1.3c-1.7,0-2.6-.9-2.9-2.9-.9.9-1.3,1.3-1.5,1.3h-1.7c-.6,0-1.1,0-1.7-.2-.7-.2-1.1-.6-1.1-.9,0-1.5.6-2.6,1.5-3.3.7-.6,1.8-1.1,3.3-1.8l-.4-1.8,1.3-1.5c0,.2.6,2.2,1.3,6.1.2,1.1.6,2,.7,2.4.4.6.7.7,1.5.7h1.3v2h-.3v-.1Zm-4.4-3.7l-.6-2.9c-.6.2-1.3.6-2.2.9-1.1.6-1.8,1.1-1.8,1.3,0,.4.4.6,1.3.7.6.2,1.1.2,1.7.2.5-.2,1-.2,1.6-.2Z"/><path id="PATH_117" d="m433.18,804.69l-.6,1.7c-1.5.4-2.9.7-4.4,1.3-1.7.4-3.3.7-4.4.7h-.9v-2.2h1.5c.7,0,1.1,0,1.5-.2-.4-.2-.6-.6-.7-.7-.6-.6-.7-1.1-.7-1.8,0-.6.2-1.1.7-2,1.3-1.8,2.4-2.8,3.9-2.8,1.3,0,2.2.6,2.9,1.7.2.4.4.6.4.7,0,0,0,.2-.2.2s-.6,0-.9-.2c-.6-.2-.9-.2-1.1-.2-.4,0-.7,0-1.1-.2-.6,0-1.1.2-1.8.6-.7.4-1.3.7-1.3,1.3,0,.4.4.9.9,1.5.7.7,1.7,1.1,2.6,1.1.4,0,1.3-.2,2.4-.6l1.5-.4h.4q-.4.3-.6.5Zm-3.3-10.9l-1.5,1.5-1.5-1.5,1.5-1.5,1.5,1.5Z"/><path id="PATH_118" d="m437.68,806.19c0,.7-.2,1.5-.6,2-.2.4-.4.6-.4.6,0,0-.2-.2-.2-.7,0-2.2-.4-7.4-1.1-15.6l1.5-1.5.2-.2v.4c.6,2.3.6,7.2.6,15Z"/><path id="PATH_119" d="m449.08,808.39h-.7c-.7,0-1.1-.2-1.5-.4v.6c0,1.7-.6,3.3-1.7,5-.9,1.5-1.8,2-2.4,2-1.5,0-2.6,0-3.7-.2-.4,0-.6-.2-.6-.2,0,0,.2-.2.6-.2,1.5-.4,2.9-1.1,4.4-2.2,1.5-1.3,2.4-2.6,2.4-3.9,0-.7-.6-1.8-1.8-3.1l.9-1.7c0-.2.2-.2.2-.2l.2.2c.6.7.9,1.3,1.3,1.5.6.4,1.3.7,2,.7h.6v2h-.2v.1Z"/><path id="PATH_120" d="m458.28,804.69c0,.9,0,1.7-.4,2.4-.4.9-.9,1.5-1.5,1.5-.9,0-2.4-.6-4.2-1.8-.6.7-.9,1.1-1.1,1.3-.6.4-1.1.6-1.8.6h-.9v-2.2h1.3c.7,0,1.5-.4,2.2-1.3.4-.4.9-1.3,1.7-2.4.6-.9,1.3-1.3,1.8-1.3.9,0,1.7.4,2.2,1.3.3.6.7,1.2.7,1.9Zm-1.1,1.3c0-.6-.2-1.1-.6-1.8-.4-.7-.9-1.1-1.5-1.1s-1.1.6-1.8,1.7c.4.4.9.7,1.7,1.1.7.4,1.5.6,1.8.6.2,0,.4-.1.4-.5Z"/></g><g id="G_121"><path id="PATH_122" d="m636.18,926.09v1.3c0,1.5-.2,2.4-.4,3.1-.6,1.3-1.7,2.2-3.3,2.9-1.3.6-2.8.9-4.4.9-4.2,0-6.3-1.7-6.3-4.8,0-.7.2-1.7.6-2.6.2-.7.6-1.5.9-1.8.2-.2.4-.4.6-.4s.2,0,.2.2,0,.4-.2.6c-.6,1.1-.7,2-.7,2.9,0,1.3.6,2.2,1.7,2.8.9.6,2,.9,3.3.9,1.5,0,2.9-.2,4-.6,1.7-.6,2.8-1.3,3.1-2.4,0-.2.2-.4.2-.7,0-.4,0-.9-.2-1.8-.7.2-1.5.2-2.6.2-1.8,0-2.6-.7-2.6-2.2,0-.9.2-1.8.7-2.9s1.3-1.7,2.2-1.8c.7,0,1.5.4,2.2,1.5.6,1.1,1,2.7,1,4.7Zm-3.9-10.3l-1.5,1.5-1.5-1.5,1.5-1.5,1.5,1.5Zm2.4,8.5c0-.6-.2-1.1-.7-1.5-.4-.4-.9-.7-1.5-.7-.4,0-.7.2-.9.4-.2.2-.4.6-.4.9,0,.7.6,1.1,1.8,1.1.4.2,1,0,1.7-.2Zm.7-8.5l-1.5,1.5-1.5-1.5,1.5-1.5,1.5,1.5Z"/><path id="PATH_123" d="m643.48,926.69h-1.3c-1.3,0-2.4-.6-2.8-1.7-.4-.7-.6-2-.6-3.5v-3.5c0-1.7-.2-4-.4-7.2l1.1-1.3c.2-.2.4-.2.4,0,.2,1.7.4,4,.4,7.2v5.3c0,1.5.7,2.2,2.2,2.2h.9v2.5h.1Z"/><path id="PATH_124" d="m656.58,926.69h-1.1c-.9,0-1.8-.6-2.6-1.5-.6,1.5-1.1,2.2-1.7,2.2s-1.5-.4-2.6-.9c-.9-.6-1.7-1.1-2-1.5-.9,1.1-1.8,1.7-2.8,1.7h-1.1v-2.2h1.1c.9,0,1.7-.4,2.4-1.1.6-.6,1.1-1.3,1.8-2,.7-.7,1.3-1.1,1.8-1.1.7,0,1.3.4,1.8,1.1.4.4.7,1.1,1.7,2,.6.7,1.3,1.1,2,1.1h1.1v2.2h.2Zm-5-1.5c0-.6-.2-1.1-.6-1.8s-.9-1.1-1.7-1.1c-.6,0-1.3.6-2,1.5.2.2.7.6,1.7,1.1.9.6,1.7.7,2.2.7.4,0,.4-.2.4-.4Z"/><path id="PATH_125" d="m660.98,922.99c0,2.4-1.3,3.7-3.7,3.7h-1.5v-2.2h1.3c1.8,0,2.8-.4,2.8-.9,0-.6-.4-1.3-1.3-2.2l.7-1.8c0-.2.2-.2.2-.2,0,0,.2.2.4.4.7,1,1.1,2.1,1.1,3.2Zm-1.5,7.7l-1.5,1.5-1.5-1.5,1.5-1.5,1.5,1.5Zm3.2,0l-1.5,1.5-1.5-1.5,1.5-1.5,1.5,1.5Z"/><path id="PATH_126" d="m667.08,924.49c0,.7-.2,1.5-.6,2-.2.4-.4.6-.4.6,0,0-.2-.2-.2-.7,0-2.2-.4-7.4-1.1-15.6l1.5-1.5.2-.2v.4c.6,2.5.6,7.4.6,15Z"/><path id="PATH_127" d="m676.58,925.89c0,2.8-.9,5.2-2.8,7-.6.6-.9.9-1.1.9-1.1,0-2.2-.2-3.5-.4-.6,0-.7-.2-.7-.2,0,0,.2-.2.7-.4,1.5-.4,2.9-1.3,4.2-2.4.6-.6,1.1-.9,1.5-1.7.6-.7.9-1.5.9-2v-.6h-2.4c-1.7,0-2.6-.7-2.6-2,0-.9.2-1.8.7-2.9.6-1.1,1.3-1.8,2-1.8,1.1,0,2,.7,2.6,2.4.4,1.6.5,2.9.5,4.1Zm-1.4-1.4c0-.6-.2-1.1-.6-1.7s-.9-.9-1.5-.9c-.4,0-.7.2-.9.4-.2.2-.4.6-.4.9,0,.9.6,1.3,1.8,1.3.3.2,1,.2,1.6,0Z"/><path id="PATH_128" d="m685.78,926.89c0,1.8-.6,3.5-1.7,5.2-.9,1.3-1.8,2-2.4,2-1.5,0-2.6,0-3.7-.2-.4,0-.6-.2-.6-.2,0,0,.2-.2.6-.2,1.5-.4,2.9-1.1,4.4-2.2,1.5-1.3,2.4-2.6,2.4-3.9,0-.7-.6-1.8-1.8-3.1l.9-1.7c0-.2.2-.2.2-.2l.2.2c.4.6.9,1.3,1.1,2.2.3.6.4,1.5.4,2.1Z"/><path id="PATH_129" d="m693.18,926.69h-1.3c-1.3,0-2.4-.6-2.8-1.7-.4-.7-.6-2-.6-3.5v-3.5c0-1.7-.2-4-.4-7.2l1.1-1.3c.2-.2.4-.2.4,0,.2,1.7.4,4,.4,7.2v5.3c0,1.5.7,2.2,2.2,2.2h.9l.1,2.5h0Z"/><path id="PATH_130" d="m707.58,921.29l-.7,1.5c-1.3,0-2.4,0-2.9.2-.7.4-1.8.7-3.3,1.5-1.5.7-2.6,1.3-3.3,1.5-1.1.4-2.4.6-3.5.6h-1.3v-2.2h1.5c1.7,0,3.1-.4,4.4-.9l4.2-1.8c-.7-.2-1.8-.6-3.3-1.1-1.3-.6-2-.7-2.4-.7-.7,0-1.5.4-2.2.9q-.2.2-.4.2t-.2-.2v-.2c.6-1.8,1.7-2.6,3.1-2.6.6,0,1.3.2,2,.6,1.5.7,2.6,1.1,3.3,1.5,1.3.4,2.8.7,4.4.7.4,0,.6,0,.6.2.1,0,.1.2,0,.3Zm-10.3,8.9l1.3-1.3,1.3,1.3-1.3,1.3-1.3-1.3Zm1.6,2.9l1.3-1.3,1.3,1.3-1.3,1.3-1.3-1.3Zm1.7-2.9l1.3-1.3,1.3,1.3-1.3,1.3-1.3-1.3Z"/></g><g id="G_131"><path id="PATH_132" d="m577.08,762.59c0,2.6-1.7,3.9-5.2,3.9-1.3,0-2.2-.2-2.8-.6-.7-.4-1.1-1.3-1.1-2.4,0-.6.2-1.1.4-1.7.2-.2.2-.4.4-.4s.2.2.2.6v.6c0,.7.4,1.3,1.1,1.5.4.2,1.1.2,2,.2,2.8,0,4-.4,4-1.3,0-1.3-1.7-3.1-4.8-5.3l.6-1.8c0-.2.2-.2.2-.2,0,0,.2,0,.4.2,3.1,2.3,4.6,4.6,4.6,6.7Z"/><path id="PATH_133" d="m586.68,765.69c0,2.8-.9,5.2-2.8,7-.6.6-.9.9-1.1.9-1.1,0-2.2-.2-3.5-.4-.6,0-.7-.2-.7-.2,0,0,.2-.2.7-.4,1.5-.4,2.9-1.3,4.2-2.4.6-.6,1.1-.9,1.5-1.7.6-.7.9-1.5.9-2v-.6h-2.4c-1.7,0-2.6-.7-2.6-2,0-.9.2-1.8.7-2.9s1.3-1.8,2-1.8c1.1,0,2,.7,2.6,2.4.3,1.5.5,2.6.5,4.1Zm-1.3-1.5c0-.6-.2-1.1-.6-1.7-.4-.6-.9-.9-1.5-.9-.4,0-.7.2-.9.4s-.4.6-.4.9c0,.9.6,1.3,1.8,1.3.3.2.9,0,1.6,0Z"/><path id="PATH_134" d="m598.08,766.39h-.7c-.7,0-1.1-.2-1.5-.4v.6c0,1.7-.6,3.3-1.7,5-.9,1.5-1.8,2-2.4,2-1.5,0-2.6,0-3.7-.2-.4,0-.6-.2-.6-.2,0,0,.2-.2.6-.2,1.5-.4,2.9-1.1,4.4-2.2,1.5-1.3,2.4-2.6,2.4-3.9,0-.7-.6-1.8-1.8-3.1l.9-1.7c0-.2.2-.2.2-.2l.2.2c.6.7.9,1.3,1.3,1.5.6.4,1.3.7,2,.7h.6v2h-.2v.1Z"/><path id="PATH_135" d="m607.08,766.39h-1.5c-1.7,0-2.8-.6-3.5-1.7-.6,1.1-1.8,1.7-3.9,1.7h-.9v-2.2h1.7c1.8,0,2.8-.7,2.9-2,0-.6.2-.9.4-.9s.4.4.4.9c.2,1.3,1.1,2,2.8,2h1.7v2.2h-.1Zm-6.3-10.6l-1.5,1.5-1.5-1.5,1.5-1.5,1.5,1.5Zm3.4,0l-1.5,1.5-1.5-1.5,1.5-1.5,1.5,1.5Z"/><path id="PATH_136" d="m624.18,766.39h-1.1c-1.3,0-2-.6-2.6-1.5-.4,1.1-1.3,1.5-2.4,1.5s-1.8-.6-2.4-1.5c-.6,1.1-1.3,1.5-2.4,1.5-1.3,0-2.2-.6-2.8-1.5-.7,1.1-1.7,1.5-2.9,1.5h-1.3v-2.2h1.5c1.3,0,2.2-.7,2.4-2.2,0-.4.2-.6.4-.6s.2.2.4.6c.2,1.5.9,2.2,2.4,2.2,1.3,0,2.2-.7,2.2-2.2,0-.4.2-.6.4-.6s.4.2.4.6c.2,1.5.9,2.2,1.8,2.2,1.3,0,2.2-.7,2.2-2.2,0-.4.2-.6.4-.6s.4.2.4.6c.2,1.5.9,2.2,2.2,2.2h1.1v2.2h-.3Zm-8.6-9.2l-1.3,1.3-1.3-1.3,1.3-1.3,1.3,1.3Zm1.6-2.9l-1.3,1.3-1.3-1.3,1.3-1.3,1.3,1.3Zm1.7,2.9l-1.3,1.3-1.3-1.3,1.3-1.3,1.3,1.3Z"/><path id="PATH_137" d="m635.38,762.79c0,.7-.2,1.5-.7,2.2-.6.9-1.1,1.3-1.8,1.3-.6,0-1.8-.4-3.9-1.3-1.7,1.1-3.1,1.5-4.4,1.5h-.9v-2.2h1.1c.7,0,1.5,0,2.2-.2-.7-.6-1.1-1.3-1.1-2.2,0-1.1.7-2.4,2.4-3.7l-1.3-.6c.4-.4.9-.9,1.7-1.7,1.7.9,3.1,1.7,4.4,2.8,1.4,1.5,2.3,2.8,2.3,4.1Zm-4.9-1.5c0-.6-.2-.9-.4-1.3-.2-.6-.6-.7-1.1-.7-.6,0-.9.2-1.5.6-.6.4-.9.9-.9,1.3,0,.7.7,1.5,2,1.8.4-.2.7-.4,1.1-.6.6-.4.8-.8.8-1.1Zm3.8,2.2c0-.6-.4-1.1-1.1-1.8-.6-.6-1.1-1.1-1.7-1.3,0,1.5-.4,2.6-1.3,3.3,1.5.6,2.6.7,2.9.7.9,0,1.2-.4,1.2-.9Z"/></g><g id="G_138"><path id="PATH_139" d="m524.68,642.59c0,2.6-1.7,3.9-5.2,3.9-1.3,0-2.2-.2-2.8-.6-.7-.4-1.1-1.3-1.1-2.4,0-.6.2-1.1.4-1.7.2-.2.2-.4.4-.4s.2.2.2.6v.6c0,.7.4,1.3,1.1,1.5.4.2,1.1.2,2,.2,2.8,0,4-.4,4-1.3,0-1.3-1.7-3.1-4.8-5.3l.6-1.8c0-.2.2-.2.2-.2,0,0,.2,0,.4.2,3.1,2.3,4.6,4.7,4.6,6.7Z"/><path id="PATH_140" d="m531.98,646.49h-1.3c-1.3,0-2.4-.6-2.8-1.7-.4-.7-.6-2-.6-3.5v-3.5c0-1.7-.2-4-.4-7.2l1.1-1.3c.2-.2.4-.2.4,0,.2,1.7.4,4,.4,7.2v5.3c0,1.5.7,2.2,2.2,2.2h.9l.1,2.5h0Z"/><path id="PATH_141" d="m536.48,642.79c0,2.4-1.3,3.7-3.7,3.7h-1.5v-2.2h1.3c1.8,0,2.8-.4,2.8-.9s-.4-1.3-1.3-2.2l.7-1.8c0-.2.2-.2.2-.2l.4.4c.7.8,1.1,2.1,1.1,3.2Zm-.6,7.7l-1.5,1.5-1.5-1.5,1.5-1.5,1.5,1.5Z"/><path id="PATH_142" d="m543.78,626.79c-.7.7-1.8.9-2.9.9h-1.4c-.2,0-.4.2-.6.4l-.4.4c-.2,0-.2-.2-.2-.4s.2-.6.4-.9c.2-.6.4-.7.6-.7s.6,0,1.1.2c.6.2.9.2,1.1.2,1.1,0,1.8,0,2.4-.2.4,0,.6-.2.6-.2h.2c-.5-.1-.5.1-.9.3Zm-1.1,17.5c0,.7-.2,1.5-.6,2-.2.4-.4.6-.4.6,0,0-.2-.2-.2-.7,0-2.2-.4-7.4-1.1-15.6l1.5-1.5.2-.2v.4c.6,2.3.6,7.2.6,15Z"/><path id="PATH_143" d="m566.78,646.29c.2.6.2,1.1.2,1.7,0,.7-.2,1.3-.4,2-.6,1.3-1.5,2.4-3.3,3.1-1.5.6-2.9.9-4.6.9s-2.9-.4-4-1.1c-1.1-.9-1.7-2-1.7-3.7,0-.9.2-1.7.6-2.8.4-.7.6-1.3.9-1.7.2-.2.4-.2.4-.2q.2,0,.2.2v.4c-.6,1.1-.7,2.2-.7,3.1s.4,1.7.9,2.4c.7.9,2,1.3,3.7,1.3,1.8,0,3.5-.4,4.8-.9,1.1-.6,1.8-1.1,2.2-1.8.2-.2.2-.6.2-.7,0-.6-.2-1.1-.4-1.8-.2-.6-.7-1.5-1.7-2.9l.7-1.5c.2-.2.2-.4.2-.4,0,0,.2,0,.2.2.9,1.2,1.4,2.7,1.6,4.2Zm-5.3-8.1l-1.5,1.5-1.5-1.5,1.5-1.5,1.5,1.5Z"/><path id="PATH_144" d="m574.38,646.49h-1.3c-1.3,0-2.4-.6-2.8-1.7-.4-.7-.6-2-.6-3.5v-3.5c0-1.7-.2-4-.4-7.2l1.1-1.3c.2-.2.4-.2.4,0,.2,1.7.4,4,.4,7.2v5.3c0,1.5.7,2.2,2.2,2.2h.9l.1,2.5h0Z"/><path id="PATH_145" d="m583.38,646.49h-1.5c-1.7,0-2.8-.6-3.5-1.7-.6,1.1-1.8,1.7-3.9,1.7h-1.1v-2.2h1.7c1.8,0,2.8-.7,2.9-2,0-.6.2-.9.4-.9s.4.4.4.9c.2,1.3,1.1,2,2.8,2h1.7v2.2h.1Zm-6.3-10.7l-1.5,1.5-1.5-1.5,1.5-1.5,1.5,1.5Zm3.1,0l-1.5,1.5-1.5-1.5,1.5-1.5,1.5,1.5Z"/><path id="PATH_146" d="m600.28,646.49h-1.1c-1.3,0-2-.6-2.6-1.5-.4,1.1-1.3,1.5-2.4,1.5s-1.8-.6-2.4-1.5c-.6,1.1-1.3,1.5-2.4,1.5-1.3,0-2.2-.6-2.8-1.5-.7,1.1-1.7,1.5-2.9,1.5h-1.1v-2.2h1.5c1.3,0,2.2-.7,2.4-2.2,0-.4.2-.6.4-.6s.2.2.4.6c.2,1.5.9,2.2,2.4,2.2,1.3,0,2.2-.7,2.2-2.2,0-.4.2-.6.4-.6s.4.2.4.6c.2,1.5.9,2.2,1.8,2.2,1.3,0,2.2-.7,2.2-2.2,0-.4.2-.6.4-.6s.4.2.4.6c.2,1.5.9,2.2,2.2,2.2h1.1v2.2h-.5Z"/><path id="PATH_147" d="m604.68,642.79c0,2.4-1.3,3.7-3.7,3.7h-1.5v-2.2h1.3c1.8,0,2.8-.4,2.8-.9s-.4-1.3-1.3-2.2l.7-1.8c0-.2.2-.2.2-.2,0,0,.2.2.4.4.7.8,1.1,2.1,1.1,3.2Zm-.5,7.7l-1.5,1.5-1.5-1.5,1.5-1.5,1.5,1.5Z"/></g><g id="G_148"><path id="PATH_149" d="m844.58,794.19h-1.3c-1.7,0-2.6-.9-2.9-2.9-.9.9-1.3,1.3-1.5,1.3h-1.7c-.6,0-1.1,0-1.7-.2-.7-.2-1.1-.6-1.1-.9,0-1.5.6-2.6,1.5-3.3.7-.6,1.8-1.1,3.3-1.8l-.4-1.8,1.3-1.5c0,.2.6,2.2,1.3,6.1.2,1.1.6,2,.7,2.4.4.6.7.7,1.5.7h1.3v2h-.3v-.1Zm-4.6-3.7l-.6-2.9c-.6.2-1.3.6-2.2.9-1.1.6-1.8,1.1-1.8,1.3,0,.4.4.6,1.3.7.6.2,1.1.2,1.7.2.7,0,1.3-.2,1.6-.2Z"/><path id="PATH_150" d="m848.98,790.49c0,2.4-1.3,3.7-3.7,3.7h-1.5v-2.2h1.3c1.8,0,2.8-.4,2.8-.9s-.4-1.3-1.3-2.2l.7-1.8c0-.2.2-.2.2-.2,0,0,.2.2.4.4.8,1,1.1,2.1,1.1,3.2Zm-.1-8.2l-1.5,1.5-1.5-1.5,1.5-1.5,1.5,1.5Z"/><path id="PATH_151" d="m856.38,794.19h-1.3c-1.3,0-2.4-.6-2.8-1.7-.4-.7-.6-2-.6-3.5v-3.5c0-1.7-.2-4-.4-7.2l1.1-1.3c.2-.2.4-.2.4,0,.2,1.7.4,4,.4,7.2v5.3c0,1.5.7,2.2,2.2,2.2h.9v2.5h.1Z"/><path id="PATH_152" d="m865.38,794.19h-1.5c-1.7,0-2.8-.6-3.5-1.7-.6,1.1-1.8,1.7-3.9,1.7h-1.1v-2.2h1.7c1.8,0,2.8-.7,2.9-2,0-.6.2-.9.4-.9s.4.4.4.9c.2,1.3,1.1,2,2.8,2h1.7v2.2h.1Zm-6.1,4.1l-1.5,1.5-1.5-1.5,1.5-1.5,1.5,1.5Zm3.2,0l-1.5,1.5-1.5-1.5,1.5-1.5,1.5,1.5Z"/><path id="PATH_153" d="m874.58,790.49c0,.9,0,1.7-.4,2.4-.4.9-.9,1.5-1.5,1.5-.9,0-2.4-.6-4.2-1.8-.6.7-.9,1.1-1.1,1.3-.6.4-1.1.6-1.8.6h-.9v-2.2h1.3c.7,0,1.5-.4,2.2-1.3.4-.4.9-1.3,1.7-2.4.6-.9,1.3-1.3,1.8-1.3.9,0,1.7.4,2.2,1.3.4.6.5,1.4.7,1.9Zm-1.1,1.5c0-.6-.2-1.1-.6-1.8s-.9-1.1-1.5-1.1-1.1.6-1.8,1.7c.4.4.9.7,1.7,1.1.7.4,1.5.6,1.8.6.2-.1.4-.3.4-.5Z"/></g><g id="G_154"><path id="PATH_155" d="m790.88,560.19c0,1.3-.4,2.4-1.3,2.9-.6.4-1.7.7-3.3.9-1.8.4-3.7.6-5.7.6-4.8,0-7.4-1.3-7.4-4,0-.9.4-1.8,1.1-2.8.2-.2.2-.4.4-.4s.2,0,.2.2v.4c-.2.6-.4,1.1-.4,1.7,0,1.8,2.4,2.8,7,2.8,2.2,0,4.2-.2,5.7-.4,1.8-.4,2.6-.7,2.6-1.3,0-.4-.4-1.1-1.3-2.2l.9-1.7q.2-.2.4,0c.6,1.3,1.1,2.4,1.1,3.3Zm-7.4,8.3l-1.5,1.5-1.5-1.5,1.5-1.5,1.5,1.5Z"/><path id="PATH_156" d="m795.08,561.99c0,.7-.2,1.5-.6,2-.2.4-.4.6-.4.6,0,0-.2-.2-.2-.7,0-2.2-.4-7.4-1.1-15.6l1.5-1.5.2-.2v.4c.6,2.5.6,7.5.6,15Z"/><path id="PATH_157" d="m806.48,564.19h-.7c-.7,0-1.1-.2-1.5-.4v.6c0,1.7-.6,3.3-1.7,5-.9,1.5-1.8,2-2.4,2-1.5,0-2.6,0-3.7-.2-.4,0-.6-.2-.6-.2,0,0,.2-.2.6-.2,1.5-.4,2.9-1.1,4.4-2.2,1.5-1.3,2.4-2.6,2.4-3.9,0-.7-.6-1.8-1.8-3.1l.9-1.7c0-.2.2-.2.2-.2l.2.2c.6.7.9,1.3,1.3,1.5.6.4,1.3.7,2,.7h.6v2h-.2v.1Z"/><path id="PATH_158" d="m821.08,560.39c0,1.1-.2,2-.7,2.8-.6.7-1.5,1.3-2.4,1.3-1.3,0-2-.6-2.6-1.5-.7,1.1-1.5,1.5-2.6,1.5-1.3,0-2.2-.6-2.8-1.5-.7,1.1-1.7,1.5-2.9,1.5h-1.3v-2.2h1.5c1.3,0,2.2-.7,2.4-2.2,0-.4.2-.6.4-.6s.2.2.4.6c.2,1.5.9,2.2,2.4,2.2.7,0,1.5-.2,1.8-.6.2-.4.4-.7.6-1.5,0-.4.2-.6.4-.6s.2.2.4.6c.2,1.5.9,2.2,2.2,2.2,1.5,0,2-.4,2-.9s-.4-1.3-1.1-2l.9-1.7c.2-.2.2-.4.4-.4s.2.2.4.4c0,.7.2,1.8.2,2.6Z"/></g><path class="cls-5" d="m293.38,510.09l31.1,22.5,20.1,24.8,5.8,11-27,17.8s-7.7,2.4-13.2-1.6c-5.5-3.9-23.8-23.8-23.8-23.8l-18-8.5-9.4-16.3,14.6-13.1,19.8-12.8Z"/><path d="m277.78,542.99c.6,1.4,1.1,2.2,2.3,2.2h.2v1.3h-.2c-.5,0-.8-.1-1-.3h0v.4c0,.5-.1,1.1-.4,1.6-.8,1.4-1.7,2-2.5,2s-1.7-.3-2.6-.8l.2-.3c.3.1.7.2,1.2.2,1.4,0,3.2-1.6,3.4-3.1-.1-.1-.1-.3-.3-.5-.4-.6-.7-1-.9-1.5.2-.4.4-.8.6-1.2h0Z"/><path d="m281.48,545.29c.2-.7.3-1.4.6-2.2.3-1,.6-1.9,1.2-2.6h.1c.1.2.2.4.4.6.8,1.1,1.3,2,1.3,2.9,0,.5-.1.9-.2,1.4h2v1.3h-.3c-.2,0-.6,0-.9-.1h-.1c.3.5.4,1,.4,1.4s-.1.9-.3,1.2c-.3.5-.9,1-1.5,1-.5,0-1-.1-1.5-.4-.9-.5-1.4-1.6-1.4-2.6v-.5c-.2,0-.5.1-.8.1h-.2c-.6,0-.7-.4-.7-.7,0-.2.2-.6.7-.6h1.2v-.2Zm1.1,2.7c.5.6,1.3,1,2,1,.4,0,.6-.2.6-.5s-.1-.7-.4-1.2c-.3-.5-.8-.8-1.6-.8-.4,0-.8,0-1.2.1,0,.4.2,1,.6,1.4Zm1.1-2.9c.5-.1.7-.3.7-.5,0-.7-.6-1.5-1.3-2.5h-.1c-.3,1-.7,2.1-1,3.1.6.1,1.2,0,1.7-.1Z"/><path d="m295.08,542.19c.1.8.2,1.4.2,1.8,0,.5-.2,1-.4,1.4-.4.6-.9,1.1-1.5,1.1-.4,0-.9-.3-1.3-.9h-.1c-.5.5-1,.9-1.8.9-.6,0-.9-.3-1-.9h0c-.6.7-1.5.9-2.2.9h-.2c-.6,0-.7-.4-.7-.7,0-.2.2-.6.7-.6h.3c.9,0,1.7-.2,2.2-1l.6-.8.8-.3v.1c-.4.7-.7,1.2-.7,1.5s.2.5.5.5.6-.1.9-.3c.4-.3.4-.6.7-1.6l.6-.4h.1c-.1.3-.1.7-.1,1,0,.8.6,1.2,1.1,1.2.3,0,.5-.2.5-.5,0-.4-.1-1.1-.3-1.7.4-.2.7-.5,1.1-.7h0Zm-3.6-.7c-.4-.4-.8-.7-1.2-1.1.3-.4.6-.7.8-1,.4.3.8.7,1.2,1.1-.3.4-.5.7-.8,1Zm.6-2.2c-.4-.4-.8-.7-1.2-1.1.3-.4.6-.7.8-1,.4.3.8.7,1.2,1.1-.3.5-.5.7-.8,1Zm1.4,2c-.4-.4-.8-.7-1.2-1.1.3-.4.6-.7.8-1,.4.3.8.7,1.2,1.1-.3.5-.5.8-.8,1Z"/><path d="m304.48,545.49c-1.2,0-2.2-.6-2.2-1.9,0-.7.3-1.3.7-1.8.5-.5,1-.9,1.5-.9.6,0,1.1.4,1.5,1.2.4.7.7,1.7.7,2.8,0,1-.2,1.9-.8,2.7-.9,1.4-1.8,1.9-2.6,1.9-.9,0-1.9-.3-2.9-1l.2-.3c.5.3,1,.3,1.5.3,1,0,2.1-.5,3-1.6.5-.5.9-1.1,1-1.7-.7.2-1.1.3-1.6.3Zm-.5-3.3c-.5,0-1.1.5-1.1.9,0,.6.9,1.1,1.7,1.1.4,0,.8,0,1.2-.1-.3-1-.9-1.9-1.8-1.9Z"/><path d="m315.78,543.19h0v.7c0,.7.6,1.4,1.3,1.4.3,0,.6-.1.9-.3.3-.2.5-.5.8-1.6l.7-.4h0c-.2.8-.3,1.3-.3,1.6s.2.6.6.6c.3,0,.6-.1.7-.2.3-.2.5-.5.6-1,0-.2.1-.4.2-.8l.8-.5h0c-.1.5-.3,1-.3,1.4,0,.8.7,1.1,1.7,1.1h.2v1.3h-.3c-1.3,0-1.9-.4-2.1-1h-.1c-.6.7-1.2,1-1.8,1-.4,0-.9-.1-1.1-.9h-.1c-.4.6-.9.9-1.5.9-1,0-1.7-.8-1.7-2-1,.3-1.7.5-2.4.9.1.3.1.5.1.8v1.3c0,.7-.3,1.3-.8,1.9-.9.9-1.6,1.2-2.3,1.2s-1.5-.3-2.5-1l.2-.3c.4.2.8.3,1.3.3,1,0,1.8-.5,2.6-1.1.7-.7,1-1.2,1-1.7,0-.3-.3-.8-.7-1.2.1-.4.2-.8.3-1.2,1.4-.5,2.7-.9,4-1.2Z"/><path d="m324.38,545.29c1.7,0,3.4-.6,5.5-1.9h0c-1.2-.4-2.3-.7-3.2-.7-.6,0-1,.2-1.3.5l.1.5-.3.9h-.1l-.5-1.4c.1-1.1,1-1.8,2.2-1.8.7,0,1.8.2,3.4.9.5.2,1.1.3,1.8.3h.8l-.5,1.1c-.9,0-1.4.2-1.8.4l-1.7,1.1c-1.4.9-2.8,1.4-4.4,1.4h-.5c-.6,0-.7-.4-.7-.7,0-.2.2-.6.7-.6h.5Zm2.9-7.5c.4.3.8.7,1.2,1.1-.2.4-.5.7-.9,1-.4-.4-.8-.7-1.2-1.1.4-.3.7-.6.9-1Z"/></svg>