



    


<svg version="1.1" id="Layer_1" xmlns="http://www.w3.org/2000/svg" xmlns:xlink="http://www.w3.org/1999/xlink" x="0px" y="0px" viewBox="0 0 847.7 452" style="enable-background:new 0 0 847.7 452;" xml:space="preserve" width="100%" height="100%">
<style type="text/css">
	.st0{fill:#E8D0E5;stroke:#020202;stroke-width:0.2;stroke-miterlimit:10;}
	.st1{fill:#DBECCB;stroke:#020202;stroke-width:0.2;stroke-miterlimit:10;}
	.st2{fill:#FBD1D1;stroke:#020202;stroke-width:0.2;stroke-miterlimit:10;}
	.st3{fill:#FDFAD6;stroke:#020202;stroke-width:0.2;stroke-miterlimit:10;}
	.st4{fill:#D3D3D3;stroke:#030303;stroke-width:0.2;stroke-miterlimit:10;}
	.st5{fill:none;stroke:#040404;stroke-width:0.5;stroke-miterlimit:10;}
	.st6{font-family:'BNazanin';}
	.st7{font-size:16px;}
</style>
		<path class="st0 area" d="M369.9,334.1c2.4-3.6,0.4-8.8-2-12.9c-2.4-4.4-10.4-6.4-8.8-12.9c0-1.2,1.2-2.4,0.8-3.6
			c-3.2-5.2-11.3-8-10-14.9c0.4-2,2.4-3.2,3.2-4.8c4.8-8.8-1.6-21.3,8.8-25.7c12.1-4.8,19.7-13.7,18.9-26.9c0-1.2,2-2.4,2.4-3.6
			c0.8-2.4,2-4.8,3.6-5.2c6.4-0.8,14.5,3.6,18.1-3.2c2-3.6,0.4-7.6,1.6-11.3c1.2-4,5.6-9.2,1.2-12.1c-3.6-2-8.4-2-12.5-3.2
			c-4.8-2-8.4,1.2-12.1,4.8c-1.2,1.6-4,0-6.4,0.4c-2.4,0.8-4.4,2.8-6.4,4c-2.4,1.6-4.4-1.6-6.4-2c-4.4-1.2-10.1,0.4-12.5-3.6
			c-1.2-2.4,0-6.8-3.2-8.4c-2.8-0.8-4.8,2-6.8,2.8c-5.2,1.2-11.2-1.2-13.7,4c-2,4,1.2,8.4,4.8,10.9c0.4,0.4,0,2-0.4,2.4
			c-5.2,3.6-2.4,9.6-6,13.7c-3.6,4-8-1.6-9.7-5.2c-0.4-0.8-1.6,0.8-2.8,1.6c-6,4-11.6,8.4-18.5,10.5c-6.8,1.6-8.4,11.3-14.9,13.7
			c-2.9,0.9-5.5,0.9-8.2,1.6c0.2,0.1,0.4,0.3,0.6,0.4c1.6,0.8-0.4,3.2-1.6,5.2c-2.4,2.8-0.4,6.8-1.6,10.5c-0.8,1.2-2,2.4-3.6,1.6
			c-9.3-6.4-19.3-9.2-29.7-12.1c-2.4-0.8-3.6-2.8-5.6-4.4c-1.6-0.8-3.6-0.8-5.2,0c-3.2,1.2-6,4.4-9.6,4.4c-7.5,0.4-15,1.8-22.5,1.3
			c1.4,6.6-0.2,14.1-1.4,19.6c-0.5,2.3-1,4.6-1,5.6c0,3.5-1.6,9.5-3.7,17.8c-2.9,11.4-6.6,25.7-6.6,36c0,10.7-4.8,15.5-10.5,18.2
			c8,4,20.4,7.4,32.7-0.9c23.8-15.8,68.8-13.8,88.2-5.5c12.3,5.3,42.8,12,59.5,15.4C359,353.5,363.7,341.9,369.9,334.1z" id="PATH_3" title=""></path>
		<path class="st1 area" d="M410.9,308.7c-6.4-0.4-10-7.2-16.1-9.3c-2.8-1.2-5.7,0-8.4,1.6c-2,1.2-4.8,1.2-6.8,0.4
			c-7.6-3.6-11.3-13.7-20.1-14.9c-2.4-0.3-4.7-0.6-7-0.7c-0.9,1.2-2.3,2.3-2.6,3.9c-1.2,6.8,6.8,9.6,10,14.9
			c0.4,1.2-0.8,2.4-0.8,3.6c-1.6,6.4,6.4,8.4,8.9,12.9c2.4,4,4.4,9.2,2,12.9c-6.2,7.9-10.8,19.4-19.5,24.1
			c6.8,1.4,11.3,2.3,11.5,2.3l3.7,0.7l-0.6,3.7c-0.1,0.5-1.6,12.4,15.5,18.8c7.7,2.9,17.7,5.4,27.4,7.9c19.8,5,32.1,8.4,36,14.1
			c3.3,4.9,28.2,25,45,37.9c10.5-11.9,24.8-30.7,24.8-38.4c0-12.5,0-26.6-9.1-35.7c-10.1-10.1-23.4-25.9-28.9-36.9
			c-1.8-3.6-5.6-12.2-6.2-22C450.2,305.6,430.4,309.5,410.9,308.7z" id="PATH_4" title=""></path>
		<path class="st2 area" d="M400.8,298.7c3.2-1.6,8.4-3.2,6.8-7.2c-1.6-4.4-8.4-6.4-6.8-11.6c1.6-4,7.2-6.8,5.2-11.6
			c-1.6-4-5.2-6.8-8.8-8.9c-0.8-0.4-2-0.8-2.8-1.2c-4.8-3.2-8-8-13.7-10c-1.2-0.4-2.4-0.6-3.5-0.7c-3.3,5.3-8.6,9.3-15.4,12
			c-10.5,4.4-4,16.9-8.8,25.7c-0.2,0.3-0.4,0.6-0.6,1c2.3,0.1,4.7,0.3,7,0.7c8.8,1.2,12.5,11.3,20.1,14.9c2,0.8,4.8,0.8,6.8-0.4
			c2.8-1.6,5.6-2.8,8.4-1.6c1.1,0.4,2.2,0.9,3.2,1.6C398.8,299.9,400,299.2,400.8,298.7z" id="PATH_5" title=""></path>
		<path class="st3 area" d="M434.2,276.2c-0.4-2-2-3.6-3.6-4.4c-2.8-1.6-5.6,1.6-8.4,1.2c-2.4-0.8-4-2.8-5.7-3.2
			c-3.5-0.3-7.1-0.2-10.3-1.1c1.5,4.5-3.8,7.3-5.4,11.2c-1.6,5.2,5.2,7.2,6.8,11.7c1.6,4-3.6,5.6-6.8,7.2c-0.8,0.5-2,1.2-2.9,2.4
			c4.3,2.8,7.7,7.4,12.9,7.7c19.5,0.8,39.3-3.2,58.5,1.9c-0.2-2.7-0.1-5.5,0.3-8.2c-5.4-1.6-8.9-6.3-14.2-7.8
			C445.4,291.9,437,286.6,434.2,276.2z" id="PATH_6" title=""></path>
		<path class="st1 area" d="M483.3,253.2c-0.1-0.2-6.7-13.7-7.7-25.9c-2.6-1.3-5.6-2.1-8.1-3.8c-4.8-2.8-6.4-9.2-12.5-10.5
			c-5.6-1.6-11.3,1.6-16.9,0.4c-6.8-2-10.1-9.6-17.3-10.9c-4.2-0.7-8.2-0.2-12.1,0.9c-0.7,1.9-1.8,3.8-2.4,5.5
			c-1.2,3.6,0.4,7.6-1.6,11.3c-3.6,6.8-11.7,2.4-18.1,3.2c-1.6,0.4-2.8,2.8-3.6,5.2c-0.4,1.2-2.4,2.4-2.4,3.6c0.3,5.8-1,10.8-3.5,15
			c1.2,0.1,2.3,0.3,3.5,0.7c5.6,2,8.8,6.8,13.7,10c0.8,0.4,2,0.8,2.8,1.2c3.6,2,7.2,4.8,8.8,8.9c0.1,0.1,0.1,0.3,0.2,0.5
			c3.2,1,6.8,0.9,10.3,1.1c1.6,0.4,3.2,2.4,5.7,3.2c2.8,0.4,5.6-2.8,8.4-1.2c1.6,0.8,3.2,2.4,3.6,4.4c2.8,10.4,11.3,15.7,21.3,18.5
			c5.3,1.5,8.8,6.2,14.2,7.8c0.8-5.1,2.7-10.3,6.4-14.9C485,276.3,487.9,262.5,483.3,253.2z" id="PATH_7" title=""></path>
		<path class="st4 area" d="M475.6,227.3c0-0.6-0.1-1.2-0.1-1.8c-0.3,0.5-0.7,0.9-1,1.3C474.8,227,475.2,227.1,475.6,227.3z" id="PATH_8" title=""></path>
		<path class="st0 area" d="M486.8,195.8c-2.4-6.8-5.7-13.7-4.4-21.7c1.6-6.4,7.6-10.1,8.8-16.5c0.4-3.2,1.2-6.4-0.4-9.2
			c-5.9-9.9-6.6-20.1-4.3-30c-6.9-2.9-13-6.1-17.2-11.3c-3.7,2.5-7,5.4-8.3,9.1c-2,4.8-6,8-8.4,12.5c-0.8,1.2-0.8,3.2,0,4.4
			c4.8,8,20.1,12.9,14.4,22.9c-7.6,12.1-8,25.7-13.7,38.2c-0.8,1.6-2.4,3.6-3.6,5.2c-3.2,4.8,1.6,8.4,3.2,12.5
			c0.1,0.2,0.2,0.5,0.2,0.8c0.6,0.1,1.2,0.2,1.8,0.4c6,1.2,7.6,7.6,12.5,10.5c2.1,1.5,4.6,2.3,6.9,3.3c0.3-0.4,0.7-0.9,1-1.3
			c-0.2-5.3,0.8-10.2,4.1-13.3c0.2-0.2,0.4-0.4,0.6-0.5c1.4-3.2,3.2-6.2,5.5-9.4C486.8,200.6,487.2,198.2,486.8,195.8z" id="PATH_9" title=""></path>
		<path class="st1 area" d="M321.2,102.1c0,1.2-1.2,2.4-2,3.6c-1.2,2.8-4.8,4-6.4,6.8c-3.2,6.4-2.8,13.3-2.8,19.7c0.4,7.2,9.6,6.8,14,2
			c2-1.6,2-4.4,2.4-7.2c0.4-3.2,5.2-4.8,8-2.8c4,2.4,8.4,7.2,13.3,4.8c4.8-2.4,9.7-7.6,14.9-5.6c4.8,1.6,6.8,7.2,10.5,11.3
			c1.2,0.8,2.4,1.2,3.6,1.6c4.4,1.6,9.7,0,14.1,2.8c5.2,2.8,13.3,6,19.3,0c6-6.4,14.9,0.8,23.3-1.6c3.2-0.8,7.2-2.8,10.5-1.2
			c3.8,1.5,6.8,0.1,9.7-2c-0.3-0.4-0.6-0.8-0.8-1.2c-0.8-1.2-0.8-3.2,0-4.4c2.4-4.4,6.5-7.6,8.4-12.5c1.2-3.7,4.6-6.7,8.3-9.1
			c-1.9-2.3-3.3-5.1-4.3-8.3c-4.6-16.1-14.1-31.4-24.3-39c-4-3-13.2-7.6-23-12.5c-14.9-7.4-31.8-15.8-41.2-23.6
			c-7.9-6.6-16.7-11.8-25-15.3c-0.9,8.1-2.8,23.6-4.7,31.2c-1.2,4.6-3.2,7.9-5.4,11.3c-3.3,5.2-7,11.1-9.9,24.5
			c-2,8.9-6.3,13.9-11.7,16.6C319,95.4,320.9,98.5,321.2,102.1z" id="PATH_10" title=""></path>
		<path class="st2 area" d="M227.6,169.3c1.6,0,4-2.8,4.8-1.2c5.2,7.2,11.7,5.6,18.5,4.4c2.4-0.4,4,3.2,5.2,2.8c4.8-2,11.3-5.6,10.5-10.5
			c-0.8-3.6-7.2,0-10.8-2.4c-3.2-2-5.7-5.2-8.9-6.4c-2.8-0.8-5.6,0.8-8,2.4c-0.8,0.4-2.4,0.4-3.2-0.4c-3.1-3.8-7.3-5.8-11.6-7.3
			c-2.9,3.3-6.1,5.8-9.4,7.8C217.2,164.4,220.9,169.3,227.6,169.3z" id="PATH_11" title=""></path>
		<path class="st1 area" d="M294.3,218.3c0.4-3.2,3.2-7.2,6.4-7.6c8.4-0.4,11.7-7.2,16.5-12.5c2-2.8,1.6-8.8-2.4-10
			c-4-0.8-6.8-2.8-9.7-5.6c-0.8-0.8-2-1.2-3.2-1.2c-8.8,1.2-15.7-1.2-23.7-5.6c-5.2-2.8-11.7,6.8-16.1,12.9c-0.8,1.2-0.8,2.8,0,4
			c5.2,7.6,2,15.3,2.8,23.3c0,2,2.4,3.6,3.2,5.6c1.2,2-0.4,4-2,5.6c-0.4,0.8-0.4,2,0,2.4c4.9,4.2,7.1,9,8.9,14.7
			c1.7-0.3,3.4-0.5,5.2-1.1c6.4-2.4,8-12.1,14.9-13.7c3.8-1.1,7.3-3,10.6-5.1C300.8,224.8,293.2,225,294.3,218.3z" id="PATH_12" title=""></path>
		<path class="st0 area" d="M277,169.3c-1.2-3.9-6.2-5.6-10.6-4.9c0.1,0.1,0.1,0.3,0.1,0.4c0.8,4.8-5.6,8.4-10.5,10.5
			c-1.2,0.4-2.8-3.2-5.2-2.8c-6.8,1.2-13.3,2.8-18.5-4.4c-0.8-1.6-3.2,1.2-4.8,1.2c-6.6,0-10.4-4.9-12.9-10.8c-2.8,1.7-5.6,3-8.3,4
			c-0.3,2.6-0.7,5.3,1.2,7.9c2.4,3.6,4.8,7.2,5.6,11.3c2,6.8-5.2,11.3-10.5,13.7c-5.6,2.4-11.6,6-17.7,6.8
			c-10,1.6-23.7,6.4-19.3,18.1c2.6,7.1,12.1,11.6,14.4,18.1c1.6,0.4,3.1,1,4.5,1.8c0.1-1.2,0.2-2.5,0.8-3.3c2.8-2.8,6.1-4.8,7.6-8
			c2.4-4.8,2.4-10.9,8-12.9c2.8-0.8,6.4,0.8,9.2-0.4c4-1.6,7.6-5.2,12.5-4.4c3.6,0.4,5.7,3.6,8.4,4.8c4.4,1.6,8.8-2,12.5-0.4
			c1.2,0.4,2.2,1,3.2,1.8c2.5-2.4,4.7-5.3,6.4-8.7c0.8-1.6,2.4-3.2,4-4.8c2.3-1.9,4.8-3.9,7.2-6c-0.5-1.8-1.2-3.5-2.4-5.3
			c-0.8-1.2-0.8-2.8,0-4c4.4-6,10.8-15.6,16-12.9C278.1,173.6,277.8,171.5,277,169.3z" id="PATH_13" title=""></path>
		<path class="st3 area" d="M253.3,208.7c-1.8,3.4-3.9,6.2-6.4,8.6c2.8,2.3,4.7,5.8,8.1,8.2c0.4,0.8,0.8,2.4,0.4,3.6
			c-2,3.6-6.8,6.8-3.6,10.4c3.2,4,9.2,0,12.9,1.6c2.6,0.7,5.2,2.2,7.5,3.6c1-0.3,2-0.4,3-0.6c-1.7-5.7-4-10.5-8.9-14.7
			c-0.4-0.4-0.4-1.6,0-2.4c1.6-1.6,3.2-3.6,2-5.6c-0.8-2-3.2-3.6-3.2-5.6c-0.6-6.2,1.1-12.1-0.4-18c-2.4,2.1-4.9,4.1-7.2,6
			C255.7,205.4,254.1,207,253.3,208.7z" id="PATH_14" title=""></path>
		<path class="st3 area active" d="M453.5,134.3c-2.9,2-5.9,3.5-9.7,2c-3.2-1.6-7.2,0.4-10.5,1.2c-8.4,2.4-17.3-4.8-23.3,1.6
			c-6,6-14.1,2.8-19.3,0c-4.4-2.8-9.6-1.2-14.1-2.8c-1.2-0.4-2.4-0.8-3.6-1.6c-3.6-4-5.6-9.6-10.5-11.3c-5.2-2-10,3.2-14.8,5.6
			c-4.8,2.4-9.3-2.4-13.3-4.8c-2.8-2-7.6-0.4-8,2.8c-0.4,2.8-0.4,5.6-2.4,7.2c-4.4,4.8-13.7,5.2-14.1-2c0-6.4-0.4-13.3,2.8-19.7
			c1.6-2.8,5.2-4,6.4-6.8c0.8-1.2,2-2.4,2-3.6c-0.3-3.6-2.3-6.7-1.4-10.1c-9.1,4.4-21.4,2-30.6,0.3c-1.9-0.4-3.8-0.7-5.6-1
			c-10.6-1.8-18.7,5.3-28,13.5c-2.4,2.1-4.8,4.2-7.4,6.2c-6.5,5.2-9.5,12.2-12.5,19.6c-2.5,6.1-5.2,12.4-9.9,18.3
			c-0.5,0.7-1.1,1.3-1.7,1.9c4.3,1.5,8.4,3.5,11.6,7.3c0.8,0.8,2.4,0.8,3.2,0.4c2.4-1.6,5.2-3.2,8-2.4c3.2,1.2,5.6,4.4,8.9,6.4
			c3.5,2.3,9.5-0.9,10.7,2c4.4-0.7,9.4,0.9,10.6,4.9c0.8,2.2,1.1,4.4,1.1,6.4c0,0,0.1,0,0.1,0c8,4.4,14.9,6.8,23.7,5.6
			c1.2,0,2.4,0.4,3.2,1.2c2.8,2.8,5.7,4.8,9.7,5.6c4,1.2,4.4,7.2,2.4,10c-4.8,5.2-8,12.1-16.5,12.5c-3.2,0.4-6,4.4-6.5,7.6
			c-1.1,6.7,6.5,6.5,11.4,6.1c2.6-1.7,5.2-3.5,7.9-5.3c1.2-0.8,2.4-2.4,2.8-1.6c1.6,3.6,6,9.2,9.7,5.2c3.6-4,0.8-10,6-13.7
			c0.4-0.4,0.8-2,0.4-2.4c-3.6-2.4-6.8-6.8-4.8-10.9c2.4-5.2,8.4-2.8,13.7-4c2-0.8,4-3.6,6.8-2.8c3.2,1.6,2,6,3.2,8.4
			c2.4,4,8,2.4,12.5,3.6c2,0.4,4,3.6,6.4,2c2-1.2,4-3.2,6.4-4c2.4-0.4,5.2,1.2,6.4-0.4c3.6-3.6,7.2-6.8,12.1-4.8
			c4,1.2,8.9,1.2,12.5,3.2c2.5,1.6,2.2,4,1.2,6.5c3.9-1,7.9-1.6,12.1-0.9c7.2,1.2,10.4,8.8,17.3,10.8c5,1.1,10-1.4,15.1-0.8
			c0-0.3-0.1-0.6-0.2-0.8c-1.6-4-6.4-7.6-3.2-12.5c1.2-1.6,2.8-3.6,3.6-5.2c5.6-12.5,6-26.1,13.7-38.2
			C472.5,146.5,459,141.6,453.5,134.3z" id="_x33_20" title="تهران"></path>
		<path class="st2 area" d="M652,162c-10.5-3.6-21.7-4.8-32.2-8.8c-7.6-2.4-16.5-0.8-23.7-3.6c-7.6-2.8-14.4-6.4-21.9-8.8
			c-5.9,1.1-11.4,1.7-15.8,1.7c-1.8,0-3.6,0.1-5.3,0.1c-10.6,0.3-21.5,0.6-37.9-11.1c-6.4-4.6-14-7.5-21.3-10.3
			c-2.5-1-5-1.9-7.4-2.9c-2.3,9.9-1.6,20.1,4.3,30c1.6,2.8,0.8,6,0.4,9.2c-1.2,6.4-7.2,10-8.8,16.5c-1.2,8,2,14.9,4.4,21.7
			c0.4,2.4,0,4.8-1.2,6.4c-2.2,3.1-4.1,6.1-5.5,9.4c5.3-4.5,13.9-3.5,26.3,3.2c38.3,20.4,51.2,25.6,63.7,30.6
			c5.5,2.2,10.5,6.4,15.7,10.9c4.4,3.7,9.1,7.8,14.7,11.1c3.4-4.4,6.1-9.9,9.6-14.4c2.8-3.2,5.7-7.2,8-11.3
			c9.2-15.3,12.5-32.1,19.3-48.2c1.2-2.8,2.8-5.2,3.2-8.4c0.4-0.4,1.6-0.8,1.6-0.8c2.4-6.4,7.2-10.9,11.2-15.7
			C655.6,166.1,653.6,162.4,652,162z" id="PATH_16" title=""></path>
		<path class="st3 area" d="M798.2,111.6c-5.6-1.9-16.1-4.2-27.4-6.6c-19.5-4.3-41.8-9.1-50.3-14.2c-9.3-5.6-45.5-13.3-62.3-8.4
			c-2.4,0.7-5.5,2-6.7,4.3c-8.1,16.2-31.9,34.7-45,42.6c-9.1,5.5-21.4,9.5-32.3,11.6c7.5,2.4,14.3,6,21.9,8.8
			c7.2,2.8,16.1,1.2,23.7,3.6c10.5,4,21.7,5.2,32.2,8.9c1.6,0.4,3.6,4,1.6,6.4c-4,4.8-8.8,9.2-11.2,15.7c0,0-1.2,0.4-1.6,0.8
			c-0.4,3.2-2,5.6-3.2,8.4c-6.8,16.1-10.1,33-19.3,48.2c-2.4,4-5.2,8-8,11.3c-3.6,4.6-6.3,10-9.6,14.4c4.4,2.6,9.3,4.8,15.1,6
			c22.6,5,45.6-0.4,49.6-8.2c6-11.9,35.3-42.8,63.4-55.6c17.8-8.1,33.6-21.5,46.2-32.3c6.8-5.8,12.7-10.8,17.5-13.7
			c7-4.2,12.5-10.1,17.3-15.4c3.7-4,7.1-7.7,10.7-10.1c4.6-3.1,11.5-10.4,15.8-15.2C827,120.3,809.3,115.2,798.2,111.6z" id="PATH_17" title=""></path>
		<path class="st2 area" d="M215.5,250.5c3.6,0,6.5-3.2,9.7-4.4c1.6-0.8,3.6-0.8,5.2,0c2,1.6,3.2,3.6,5.6,4.4
			c10.5,2.8,20.5,5.6,29.8,12.1c1.6,0.8,2.8-0.4,3.6-1.6c1.2-3.6-0.8-7.6,1.6-10.5c1.2-2,3.2-4.4,1.6-5.2c-2.4-1.6-5.2-3.2-8-4
			c-3.6-1.6-9.6,2.4-12.9-1.6c-3.2-3.6,1.6-6.8,3.6-10.4c0.4-1.2,0-2.8-0.4-3.6c-4.4-3.2-6.4-8.4-11.3-10c-3.6-1.6-8,2-12.5,0.4
			c-2.8-1.2-4.8-4.4-8.4-4.8c-4.8-0.8-8.4,2.8-12.5,4.4c-2.8,1.2-6.4-0.4-9.2,0.4c-5.7,2-5.7,8-8,12.9c-1.6,3.2-4.8,5.2-7.6,8
			c-0.7,0.9-0.7,2.1-0.8,3.3c2,1.1,3.7,2.4,5,4.1c1.8,2.2,2.9,4.8,3.5,7.6C200.5,252.3,208,250.8,215.5,250.5z" id="PATH_18" title=""></path>
		<path class="st1 area" d="M165.7,220.3c-4.4-11.7,9.3-16.5,19.3-18.1c6.1-0.8,12.1-4.4,17.7-6.8c5.2-2.4,12.5-6.8,10.5-13.7
			c-0.8-4-3.2-7.6-5.6-11.3c-1.9-2.6-1.4-5.3-1.2-7.9c-7.4,2.7-14.1,3.1-16.9,3.1c-2.4,0-7.5,0.3-13.9,0.6
			c-14.1,0.8-35.3,1.9-57.9,1.9c-27.2,0-52.2,3.4-72.3,6.1c-4.2,0.6-8.2,1.1-11.9,1.6c-16.9,2.1-19.7,34.6-19.7,34.9
			c-0.1,0.9-0.5,1.7-1.1,2.4c14.8-0.7,31.6-1.4,38.3-1.4c2.4,0,4.9-0.1,7.6-0.2c12.3-0.4,27.6-1,45,5.5c5,1.9,9.9,4,15.1,6.3
			c15.8,6.9,32.1,14,52.8,14c3.2,0,6.1,0.3,8.6,1C177.8,231.9,168.3,227.4,165.7,220.3z" id="PATH_19" title=""></path>

	<line class="st5 area" x1="285.2" y1="211" x2="271.1" y2="46.6" id="LINE_20" title=""></line>
	<line class="st5 area" x1="224.1" y1="237.2" x2="169.8" y2="258.5" id="LINE_21" title=""></line>
	<line class="st5 area" x1="261.2" y1="226.6" x2="170.9" y2="284" id="LINE_22" title=""></line>
	<line class="st5 area" x1="510.2" y1="99.2" x2="468.4" y2="129" id="LINE_23" title=""></line>
	<line class="st5 area" x1="241.8" y1="164.5" x2="206.9" y2="148.4" id="LINE_24" title=""></line>

<g id="G_25" class="area" title="">
	<path d="M253.3,36.7h-0.4c-0.4,0-0.6-0.1-0.8-0.2c0,0.1,0,0.2,0,0.3c0,0.9-0.3,1.8-0.9,2.7c-0.5,0.8-1,1.1-1.3,1.1
		c-0.8,0-1.4,0-2-0.1c-0.2,0-0.3-0.1-0.3-0.1s0.1-0.1,0.3-0.1c0.8-0.2,1.6-0.6,2.4-1.2c0.8-0.7,1.3-1.4,1.3-2.1c0-0.4-0.3-1-1-1.7
		l0.5-0.9c0-0.1,0.1-0.1,0.1-0.1c0,0,0.1,0.1,0.1,0.1c0.3,0.4,0.5,0.7,0.7,0.8c0.3,0.2,0.7,0.4,1.1,0.4h0.3V36.7z" id="PATH_26" class="area" title=""></path>
	<path d="M259.5,36.7H259c-0.4,0-0.8,0.1-1.1,0.2c-0.5,0.2-0.8,0.5-0.8,1c0,0.6,0.4,1.1,1.2,1.6l-0.5,1c-0.9-0.3-1.7-0.8-2.3-1.4
		c-0.8-0.7-1.2-1.6-1.2-2.5h-1.4v-1.2h1.3c0-0.8,0.2-1.6,0.6-2.6c0.4-0.9,0.7-1.3,0.9-1.3c0.2,0,0.5,0.4,0.8,1.3
		c0.3,0.8,0.4,1.3,0.4,1.6c0,1.4-0.7,2.1-2.1,2.1c0.1,0.4,0.3,0.8,0.6,1.2c0.3,0.4,0.7,0.7,1.1,0.9c0-0.1,0-0.3,0-0.4
		c0-0.7,0.2-1.3,0.5-1.8c0.5-0.7,1.1-1.1,2-1.1h0.4V36.7z M256.5,35.1c0-0.2-0.1-0.6-0.3-1.1c-0.2-0.6-0.4-0.8-0.6-0.8
		c-0.1,0-0.3,0.2-0.5,0.7c-0.2,0.5-0.3,1.1-0.3,1.7C255.9,35.5,256.5,35.4,256.5,35.1z" id="PATH_27" class="area" title=""></path>
	<path d="M268.7,36.7h-0.6c-0.7,0-1.1-0.3-1.4-0.8c-0.2,0.6-0.7,0.8-1.3,0.8c-0.6,0-1-0.3-1.3-0.8c-0.3,0.6-0.7,0.8-1.3,0.8
		c-0.7,0-1.2-0.3-1.5-0.8c-0.4,0.6-0.9,0.8-1.6,0.8h-0.7v-1.2h0.8c0.7,0,1.2-0.4,1.3-1.2c0-0.2,0.1-0.3,0.2-0.3
		c0.1,0,0.1,0.1,0.2,0.3c0.1,0.8,0.5,1.2,1.3,1.2c0.7,0,1.2-0.4,1.2-1.2c0-0.2,0.1-0.3,0.2-0.3c0.1,0,0.2,0.1,0.2,0.3
		c0.1,0.8,0.5,1.2,1,1.2c0.7,0,1.2-0.4,1.2-1.2c0-0.2,0.1-0.3,0.2-0.3c0.1,0,0.2,0.1,0.2,0.3c0.1,0.8,0.5,1.2,1.2,1.2h0.6V36.7z
		 M264.1,31.6l-0.7,0.7l-0.7-0.7l0.7-0.7L264.1,31.6z M265,30.1l-0.7,0.7l-0.7-0.7l0.7-0.7L265,30.1z M265.9,31.6l-0.7,0.7l-0.7-0.7
		l0.7-0.7L265.9,31.6z" id="PATH_28" class="area" title=""></path>
	<path d="M273.7,34.7c0,0.5,0,0.9-0.2,1.3c-0.2,0.5-0.5,0.8-0.8,0.8c-0.5,0-1.3-0.3-2.3-1c-0.3,0.4-0.5,0.6-0.6,0.7
		c-0.3,0.2-0.6,0.3-1,0.3h-0.5v-1.2h0.7c0.4,0,0.8-0.2,1.2-0.7c0.2-0.2,0.5-0.7,0.9-1.3c0.3-0.5,0.7-0.7,1-0.7
		c0.5,0,0.9,0.2,1.2,0.7C273.5,33.9,273.7,34.3,273.7,34.7z M273.1,35.4c0-0.3-0.1-0.6-0.3-1c-0.2-0.4-0.5-0.6-0.8-0.6
		c-0.3,0-0.6,0.3-1,0.9c0.2,0.2,0.5,0.4,0.9,0.6c0.4,0.2,0.8,0.3,1,0.3C273,35.7,273.1,35.6,273.1,35.4z" id="PATH_29" class="area" title=""></path>
	<path d="M283.1,36.7h-0.6c-1.2,0-1.9-0.9-1.9-2.7c0-0.2,0-0.5,0-0.9c-0.8,1.9-1.7,3.3-2.9,4.1c-0.7,0.2-1.6,0.3-2.6,0.3
		c-0.2,0-0.3,0-0.3,0c0,0,0.3-0.2,0.9-0.5c0.4-0.2,0.8-0.4,1.2-0.6c0.7-0.3,1.4-0.8,2-1.5c-0.3-1-0.7-1.9-1.3-2.7
		c-0.4-0.5-1-1.1-1.9-1.8l-0.1,0.4c-0.3-0.2-0.5-0.4-0.7-0.6c-0.3-0.3-0.5-0.5-0.5-0.7c0-0.2,0-0.5,0.1-1c0-0.1,0-0.2,0.1-0.2
		s0.1,0,0.2,0.1c1.3,0.9,2.3,1.8,2.9,2.6c0.8,1,1.3,2.1,1.6,3.4c0.4-0.5,0.7-1,0.9-1.6c0.3-0.7,0.4-1.3,0.4-1.8c0-0.9-0.1-1.9-0.2-3
		l0.8-0.7c0.1,0.5,0.1,2.8,0.2,6.9c0,0.9,0.4,1.4,1.2,1.4h0.5V36.7z" id="PATH_30" class="area" title=""></path>
	<path d="M290.9,34.5c0,0.6-0.1,1.1-0.4,1.5c-0.3,0.4-0.8,0.7-1.3,0.7c-0.7,0-1.1-0.3-1.4-0.8c-0.4,0.6-0.8,0.8-1.4,0.8
		c-0.7,0-1.2-0.3-1.5-0.8c-0.4,0.6-0.9,0.8-1.6,0.8h-0.7v-1.2h0.8c0.7,0,1.2-0.4,1.3-1.2c0-0.2,0.1-0.3,0.2-0.3
		c0.1,0,0.1,0.1,0.2,0.3c0.1,0.8,0.5,1.2,1.3,1.2c0.4,0,0.8-0.1,1-0.3c0.1-0.2,0.2-0.4,0.3-0.8c0-0.2,0.1-0.3,0.2-0.3
		c0.1,0,0.1,0.1,0.2,0.3c0.1,0.8,0.5,1.2,1.2,1.2c0.8,0,1.1-0.2,1.1-0.5c0-0.3-0.2-0.7-0.6-1.1l0.5-0.9c0.1-0.1,0.1-0.2,0.2-0.2
		s0.1,0.1,0.2,0.2C290.8,33.6,290.9,34.1,290.9,34.5z" id="PATH_31" class="area" title=""></path>
	<path d="M293.3,35.4c0,0.4-0.1,0.8-0.3,1.1c-0.1,0.2-0.2,0.3-0.2,0.3c0,0-0.1-0.1-0.1-0.4c0-1.2-0.2-4-0.6-8.5l0.8-0.8
		c0.1-0.1,0.1-0.1,0.1-0.1c0,0,0,0.1,0,0.2C293.3,28.6,293.3,31.3,293.3,35.4z" id="PATH_32" class="area" title=""></path>
</g>
<g id="G_33" class="area" title="">
	<path d="M194,137.9c0,1.4-0.6,2.1-1.8,2.1c-0.7,0-1.1-0.3-1.3-0.9c-0.3,0.6-0.8,0.9-1.4,0.9c-0.2,0-0.5,0-0.7-0.1
		c0,0.6-0.1,1.2-0.1,1.9c-0.3,0.7-0.8,1.3-1.7,1.7c-0.8,0.3-1.6,0.5-2.5,0.5c-0.9,0-1.6-0.2-2.2-0.6c-0.6-0.5-0.9-1.1-0.9-2
		c0-0.5,0.1-0.9,0.3-1.5c0.2-0.4,0.3-0.7,0.5-0.9c0.1-0.1,0.2-0.1,0.2-0.1c0.1,0,0.1,0,0.1,0.1c0,0,0,0.1,0,0.2
		c-0.3,0.6-0.4,1.2-0.4,1.7c0,0.5,0.2,0.9,0.5,1.3c0.4,0.5,1.1,0.7,2,0.7c1,0,1.9-0.2,2.6-0.5c0.6-0.3,1-0.6,1.1-1
		c0.1-0.1,0.1-0.3,0-0.7c0-0.3-0.1-0.6-0.1-0.7c-0.1-0.3-0.4-0.8-1-1.5l0.4-0.8c0.1-0.1,0.1-0.2,0.1-0.2c0,0,0.1,0,0.1,0.1
		c0.3,0.4,0.5,0.7,0.6,0.8c0.3,0.3,0.6,0.4,1,0.4c0.4,0,0.8-0.1,1-0.4c0.1-0.2,0.2-0.4,0.3-0.9c0-0.2,0.1-0.3,0.2-0.3
		c0.1,0,0.1,0.1,0.1,0.3c0.1,0.5,0.2,0.8,0.4,1c0.2,0.2,0.6,0.3,1.1,0.3c0.2,0,0.4-0.1,0.5-0.2c0.2-0.1,0.3-0.3,0.3-0.5
		c0-0.3-0.2-0.6-0.6-1.1l0.5-0.9c0.1-0.1,0.1-0.1,0.1-0.1c0,0,0.1,0.1,0.1,0.1C193.8,136.8,194,137.3,194,137.9z" id="PATH_34" class="area" title=""></path>
	<path d="M201.8,140h-0.4c-0.4,0-0.7-0.1-1-0.4c-0.2-0.2-0.4-0.4-0.6-0.8c-0.2,0.4-0.5,0.7-0.8,0.9c-0.4,0.2-0.9,0.3-1.7,0.3
		c-1.4,0-2.1-0.5-2.1-1.5c0-0.3,0.1-0.7,0.3-1c0.1-0.1,0.1-0.2,0.2-0.2c0.1,0,0.1,0.1,0.1,0.2c0,0.1,0,0.1,0,0.3c0,0.1,0,0.2,0,0.3
		c0,0.6,0.5,0.9,1.5,0.9c1.4,0,2.1-0.3,2.1-0.8c0-0.3-0.4-1.4-1.2-3.3l0.4-0.8c0.1-0.1,0.1-0.2,0.1-0.2c0,0,0.1,0.1,0.1,0.2
		c0.3,0.8,0.8,2,1.4,3.6c0.3,0.8,0.7,1.2,1.3,1.2h0.3V140z" id="PATH_35" class="area" title=""></path>
	<path d="M205.7,137.2c0,0.9-0.1,1.5-0.3,1.8c-0.5,0.7-1.3,1-2.6,1h-1.4v-1.2h1c1.7,0,2.6-0.3,2.8-0.8c0.1-0.2,0-0.4-0.1-0.6
		c-0.4,0.1-0.8,0.1-1.3,0.1c-0.9,0-1.4-0.4-1.4-1.2c0-0.5,0.1-1.1,0.4-1.6c0.3-0.6,0.7-0.9,1.2-0.9c0.4,0,0.8,0.3,1.1,0.8
		C205.5,135.4,205.7,136.2,205.7,137.2z M203.7,131.7l-0.8,0.8l-0.8-0.8l0.8-0.8L203.7,131.7z M204.9,136.3c0-0.3-0.1-0.6-0.3-0.9
		c-0.2-0.3-0.5-0.4-0.8-0.4c-0.2,0-0.4,0.1-0.6,0.2c-0.2,0.1-0.2,0.3-0.2,0.5c0,0.4,0.3,0.6,1,0.6
		C204.2,136.4,204.6,136.4,204.9,136.3z M205.4,131.7l-0.8,0.8l-0.8-0.8l0.8-0.8L205.4,131.7z" id="PATH_36" class="area" title=""></path>
</g>
<g id="G_37" class="area" title="">
	<path d="M117.9,194.9c0,1.4-0.9,2.1-2.8,2.1c-0.7,0-1.2-0.1-1.5-0.3c-0.4-0.2-0.6-0.7-0.6-1.3c0-0.3,0.1-0.6,0.2-0.9
		c0.1-0.1,0.1-0.2,0.2-0.2c0.1,0,0.1,0.1,0.1,0.3c0,0.1,0,0.2,0,0.3c0,0.4,0.2,0.7,0.6,0.8c0.2,0.1,0.6,0.1,1.1,0.1
		c1.5,0,2.2-0.2,2.2-0.7c0-0.7-0.9-1.7-2.6-2.9l0.3-1c0-0.1,0.1-0.1,0.1-0.1c0,0,0.1,0,0.2,0.1C117,192.5,117.9,193.8,117.9,194.9z" id="PATH_38" class="area" title=""></path>
	<path d="M122.9,197.1c0,1-0.3,1.9-0.9,2.8c-0.5,0.7-1,1.1-1.3,1.1c-0.8,0-1.4,0-2-0.1c-0.2,0-0.3-0.1-0.3-0.1s0.1-0.1,0.3-0.1
		c0.8-0.2,1.6-0.6,2.4-1.2c0.8-0.7,1.3-1.4,1.3-2.1c0-0.4-0.3-1-1-1.7l0.5-0.9c0-0.1,0.1-0.1,0.1-0.1c0,0,0.1,0.1,0.1,0.1
		c0.2,0.3,0.5,0.7,0.6,1.2C122.8,196.3,122.9,196.7,122.9,197.1z" id="PATH_39" class="area" title=""></path>
	<path d="M132.3,197h-0.6c-1.2,0-1.9-0.9-1.9-2.7c0-0.2,0-0.5,0-0.9c-0.8,1.9-1.7,3.3-2.9,4.1c-0.7,0.2-1.6,0.3-2.6,0.3
		c-0.2,0-0.3,0-0.3,0c0,0,0.3-0.2,0.9-0.5c0.4-0.2,0.8-0.4,1.2-0.6c0.7-0.3,1.4-0.8,2-1.5c-0.3-1-0.7-1.9-1.3-2.7
		c-0.4-0.5-1-1.1-1.9-1.8l-0.1,0.4c-0.3-0.2-0.5-0.4-0.7-0.6c-0.3-0.3-0.5-0.5-0.5-0.7c0-0.2,0-0.5,0.1-1c0-0.1,0-0.2,0.1-0.2
		s0.1,0,0.2,0.1c1.3,0.9,2.3,1.8,2.9,2.6c0.8,1,1.3,2.1,1.6,3.4c0.4-0.5,0.7-1,0.9-1.6c0.3-0.7,0.4-1.3,0.4-1.8c0-0.9-0.1-1.9-0.2-3
		l0.8-0.7c0.1,0.5,0.1,2.8,0.2,6.9c0,0.9,0.4,1.4,1.2,1.4h0.5V197z" id="PATH_40" class="area" title=""></path>
	<path d="M137.2,195c0,0.5,0,0.9-0.2,1.3c-0.2,0.5-0.5,0.8-0.8,0.8c-0.5,0-1.3-0.3-2.3-1c-0.3,0.4-0.5,0.6-0.6,0.7
		c-0.3,0.2-0.6,0.3-1,0.3h-0.5v-1.2h0.7c0.4,0,0.8-0.2,1.2-0.7c0.2-0.2,0.5-0.7,0.9-1.3c0.3-0.5,0.7-0.7,1-0.7
		c0.5,0,0.9,0.2,1.2,0.7C137.1,194.3,137.2,194.6,137.2,195z M136.7,195.7c0-0.3-0.1-0.6-0.3-1c-0.2-0.4-0.5-0.6-0.8-0.6
		c-0.3,0-0.6,0.3-1,0.9c0.2,0.2,0.5,0.4,0.9,0.6c0.4,0.2,0.8,0.3,1,0.3C136.6,196,136.7,195.9,136.7,195.7z" id="PATH_41" class="area" title=""></path>
</g>
<g id="G_42" class="area" title="">
	<path d="M219.2,197.9c0,1-0.3,1.9-0.9,2.8c-0.5,0.7-1,1.1-1.3,1.1c-0.8,0-1.4,0-2-0.1c-0.2,0-0.3-0.1-0.3-0.1s0.1-0.1,0.3-0.1
		c0.8-0.2,1.6-0.6,2.4-1.2c0.8-0.7,1.3-1.4,1.3-2.1c0-0.4-0.3-1-1-1.7l0.5-0.9c0-0.1,0.1-0.1,0.1-0.1c0,0,0.1,0.1,0.1,0.1
		c0.2,0.3,0.5,0.7,0.6,1.2C219.1,197.2,219.2,197.6,219.2,197.9z" id="PATH_43" class="area" title=""></path>
	<path d="M223.2,197.8h-0.7c-0.7,0-1.3-0.3-1.5-0.9c-0.2-0.4-0.3-1.1-0.3-1.9v-1.9c0-0.9-0.1-2.2-0.2-3.9l0.6-0.7
		c0.1-0.1,0.2-0.1,0.2,0c0.1,0.9,0.2,2.2,0.2,3.9v2.9c0,0.8,0.4,1.2,1.2,1.2h0.5V197.8z" id="PATH_44" class="area" title=""></path>
	<path d="M225.5,195.9c0,1.3-0.7,2-2,2h-0.8v-1.2h0.7c1,0,1.5-0.2,1.5-0.5c0-0.3-0.2-0.7-0.7-1.2l0.4-1c0-0.1,0.1-0.1,0.1-0.1
		c0,0,0.1,0.1,0.2,0.2C225.3,194.6,225.5,195.2,225.5,195.9z M224.8,200l-0.8,0.8l-0.8-0.8l0.8-0.8L224.8,200z M226.5,200l-0.8,0.8
		l-0.8-0.8l0.8-0.8L226.5,200z" id="PATH_45" class="area" title=""></path>
	<path d="M232.7,197.8h-0.4c-0.4,0-0.6-0.1-0.8-0.2c0,0.1,0,0.2,0,0.3c0,0.9-0.3,1.8-0.9,2.7c-0.5,0.8-1,1.1-1.3,1.1
		c-0.8,0-1.4,0-2-0.1c-0.2,0-0.3-0.1-0.3-0.1s0.1-0.1,0.3-0.1c0.8-0.2,1.6-0.6,2.4-1.2c0.8-0.7,1.3-1.4,1.3-2.1c0-0.4-0.3-1-1-1.7
		l0.5-0.9c0-0.1,0.1-0.1,0.1-0.1c0,0,0.1,0.1,0.1,0.1c0.3,0.4,0.5,0.7,0.7,0.8c0.3,0.2,0.7,0.4,1.1,0.4h0.3V197.8z" id="PATH_46" class="area" title=""></path>
	<path d="M238.9,197.8h-0.5c-0.4,0-0.8,0.1-1.1,0.2c-0.5,0.2-0.8,0.5-0.8,1c0,0.6,0.4,1.1,1.2,1.6l-0.5,1c-0.9-0.3-1.7-0.8-2.3-1.4
		c-0.8-0.7-1.2-1.6-1.2-2.5h-1.4v-1.2h1.3c0-0.8,0.2-1.6,0.6-2.6c0.4-0.9,0.7-1.3,0.9-1.3c0.2,0,0.5,0.4,0.8,1.3
		c0.3,0.8,0.4,1.3,0.4,1.6c0,1.4-0.7,2.1-2.1,2.1c0.1,0.4,0.3,0.8,0.6,1.2c0.3,0.4,0.7,0.7,1.1,0.9c0-0.1,0-0.3,0-0.4
		c0-0.7,0.2-1.3,0.5-1.8c0.5-0.7,1.1-1.1,2-1.1h0.4V197.8z M235.9,196.2c0-0.2-0.1-0.6-0.3-1.1c-0.2-0.6-0.4-0.8-0.6-0.8
		c-0.1,0-0.3,0.2-0.5,0.7c-0.2,0.5-0.3,1.1-0.3,1.7C235.3,196.7,235.9,196.5,235.9,196.2z" id="PATH_47" class="area" title=""></path>
	<path d="M246.8,195.7c0,0.6-0.1,1.1-0.4,1.5c-0.3,0.4-0.8,0.7-1.3,0.7c-0.7,0-1.1-0.3-1.4-0.8c-0.4,0.6-0.8,0.8-1.4,0.8
		c-0.7,0-1.2-0.3-1.5-0.8c-0.4,0.6-0.9,0.8-1.6,0.8h-0.7v-1.2h0.8c0.7,0,1.2-0.4,1.3-1.2c0-0.2,0.1-0.3,0.2-0.3
		c0.1,0,0.1,0.1,0.2,0.3c0.1,0.8,0.5,1.2,1.3,1.2c0.4,0,0.8-0.1,1-0.3c0.1-0.2,0.2-0.4,0.3-0.8c0-0.2,0.1-0.3,0.2-0.3
		c0.1,0,0.1,0.1,0.2,0.3c0.1,0.8,0.5,1.2,1.2,1.2c0.8,0,1.1-0.2,1.1-0.5c0-0.3-0.2-0.7-0.6-1.1l0.5-0.9c0.1-0.1,0.1-0.2,0.2-0.2
		s0.1,0.1,0.2,0.2C246.7,194.8,246.8,195.3,246.8,195.7z M243.4,192.1l-0.7,0.7L242,192l0.7-0.7L243.4,192.1z M244.3,190.5l-0.7,0.7
		l-0.7-0.7l0.7-0.7L244.3,190.5z M245.2,192.1l-0.7,0.7l-0.7-0.7l0.7-0.7L245.2,192.1z" id="PATH_48" class="area" title=""></path>
</g>
<g id="G_49" class="area" title="">
	<path d="M126.3,255.3h-0.5c-0.6,0-1.1-0.1-1.4-0.4c0,0.1,0.1,0.3,0.1,0.5c0,1-0.3,1.6-1,1.6c-0.6,0-1-0.3-1.4-0.9
		c-0.3-0.5-0.4-1.1-0.4-1.7c0-0.1,0-0.3,0-0.4c-0.1,0-0.2,0-0.3,0c-0.7,0-1.1,0.2-1.4,0.5c0.2,1.6,0.3,2.8,0.3,3.6
		c0,0.4-0.1,0.8-0.3,1.4c-0.1,0.2-0.1,0.3-0.2,0.3c0,0-0.1-0.1-0.1-0.4l-0.5-4.6c0-0.2,0.1-0.5,0.3-0.8c0.2-0.3,0.4-0.5,0.6-0.7
		c0.1-0.1,0.4-0.2,0.8-0.3c0.3-0.1,0.6-0.1,0.8-0.1c0.1,0,0.1,0,0.2,0l0.1-0.6c0-0.1,0.1-0.2,0.1-0.2c0,0,0.1,0,0.2,0.1
		c0.8,0.7,1.4,1.2,1.7,1.4c0.6,0.4,1.1,0.6,1.6,0.6h0.6V255.3z M124,255.2c0-0.3-0.2-0.6-0.6-1c-0.1-0.1-0.4-0.4-1.1-1
		c0,0.2,0,0.4,0,0.6c0,0.5,0.1,0.9,0.3,1.2c0.2,0.5,0.5,0.7,0.9,0.7C123.8,255.8,124,255.6,124,255.2z" id="PATH_50" class="area" title=""></path>
	<path d="M128.7,253.3c0,1.3-0.7,2-2,2h-0.8v-1.2h0.7c1,0,1.5-0.2,1.5-0.5c0-0.3-0.2-0.7-0.7-1.2l0.4-1c0-0.1,0.1-0.1,0.1-0.1
		c0,0,0.1,0.1,0.2,0.2C128.5,252,128.7,252.7,128.7,253.3z M127.9,257.5l-0.8,0.8l-0.8-0.8l0.8-0.8L127.9,257.5z M129.6,257.5
		l-0.8,0.8l-0.8-0.8l0.8-0.8L129.6,257.5z" id="PATH_51" class="area" title=""></path>
	<path d="M135.8,255.3h-0.4c-0.4,0-0.6-0.1-0.8-0.2c0,0.1,0,0.2,0,0.3c0,0.9-0.3,1.8-0.9,2.7c-0.5,0.8-1,1.1-1.3,1.1
		c-0.8,0-1.4,0-2-0.1c-0.2,0-0.3-0.1-0.3-0.1s0.1-0.1,0.3-0.1c0.8-0.2,1.6-0.6,2.4-1.2c0.8-0.7,1.3-1.4,1.3-2.1c0-0.4-0.3-1-1-1.7
		l0.5-0.9c0-0.1,0.1-0.1,0.1-0.1c0,0,0.1,0.1,0.1,0.1c0.3,0.4,0.5,0.7,0.7,0.8c0.3,0.2,0.7,0.4,1.1,0.4h0.3V255.3z" id="PATH_52" class="area" title=""></path>
	<path d="M142,246.1c0,0.2-0.2,0.6-0.4,1.1l-2.5,0.8c-1.1,0.4-1.9,0.7-2.3,0.9c0.8,0.8,1.3,1.4,1.6,1.7c0.5,0.7,0.8,1.3,0.9,2
		c0,0.5,0,1-0.2,1.4c-0.3,0.9-1.4,1.3-3.1,1.3h-0.5v-1.2h0.6c0.8,0,1.4,0,1.7-0.1c0.7-0.2,1.1-0.5,1.1-1c0-0.7-0.5-1.5-1.6-2.5
		l-0.1,0.2c-0.1-0.1-0.3-0.3-0.5-0.6c-0.3-0.3-0.4-0.6-0.4-0.6c0-0.2,0-0.4,0.1-0.8c0.1-0.4,0.2-0.6,0.3-0.7
		c0.1-0.1,0.8-0.4,2.1-0.8C139.9,246.7,141.1,246.3,142,246.1z" id="PATH_53" class="area" title=""></path>
	<path d="M155.9,252.6c0,1.1-0.7,1.9-2,2.3c-0.9,0.3-2.2,0.4-4,0.4c-0.7,0-1.3,0-1.6-0.1c-0.7-0.2-1.2-0.6-1.5-1.2
		c0-0.1-0.1-0.2-0.1-0.2c0,0,0,0,0,0c0,0,0.1,0,0.2,0.1c0.5,0.2,1.1,0.3,1.9,0.3c0.3,0,0.5,0,0.6-0.1c0.1-0.1,0.2-0.3,0.1-0.6
		c0-0.4,0-1.2,0-2.3c-0.1-1.7-0.2-3.1-0.4-4.4l0.7-0.7c0.1-0.1,0.1-0.1,0.1-0.1c0,0,0.1,0.1,0.1,0.2c0.1,0.4,0.2,0.8,0.4,1.2
		c0,0.1,0.1,0.2,0.1,0.2c0,0-0.1,0-0.2,0h-0.3c0.1,1.8,0.1,2.9,0.1,3.2v1.1c0,0.4-0.1,1-0.3,1.7c0.1,0,0.3-0.2,0.8-0.6
		c0.5-0.5,1-0.9,1.4-1.2c0.7-0.4,1.3-0.6,1.9-0.6c0.5,0,0.9,0.1,1.2,0.4C155.7,251.7,155.9,252.1,155.9,252.6z M155.2,253.2
		c0-0.3-0.2-0.6-0.6-0.8c-0.3-0.2-0.7-0.3-1-0.3c-0.7,0-1.9,0.6-3.4,1.9c0.4,0,0.9,0.1,1.3,0.1c0.6,0,1.3-0.1,2-0.2
		C154.6,253.8,155.2,253.5,155.2,253.2z" id="PATH_54" class="area" title=""></path>
	<path d="M159.9,255.3h-0.7c-0.7,0-1.3-0.3-1.5-0.9c-0.2-0.4-0.3-1.1-0.3-1.9v-1.9c0-0.9-0.1-2.2-0.2-3.9l0.6-0.7
		c0.1-0.1,0.2-0.1,0.2,0c0.1,0.9,0.2,2.2,0.2,3.9v2.9c0,0.8,0.4,1.2,1.2,1.2h0.5V255.3z" id="PATH_55" class="area" title=""></path>
	<path d="M162.2,253.3c0,1.3-0.7,2-2,2h-0.8v-1.2h0.7c1,0,1.5-0.2,1.5-0.5c0-0.3-0.2-0.7-0.7-1.2l0.4-1c0-0.1,0.1-0.1,0.1-0.1
		c0,0,0.1,0.1,0.2,0.2C162,252,162.2,252.7,162.2,253.3z M161.9,257.5l-0.8,0.8l-0.8-0.8l0.8-0.8L161.9,257.5z" id="PATH_56" class="area" title=""></path>
	<path d="M167.3,255.4c0,1-0.3,1.9-0.9,2.8c-0.5,0.7-1,1.1-1.3,1.1c-0.8,0-1.4,0-2-0.1c-0.2,0-0.3-0.1-0.3-0.1s0.1-0.1,0.3-0.1
		c0.8-0.2,1.6-0.6,2.4-1.2c0.8-0.7,1.3-1.4,1.3-2.1c0-0.4-0.3-1-1-1.7l0.5-0.9c0-0.1,0.1-0.1,0.1-0.1c0,0,0.1,0.1,0.1,0.1
		c0.2,0.3,0.5,0.7,0.6,1.2C167.2,254.6,167.3,255,167.3,255.4z" id="PATH_57" class="area" title=""></path>
</g>
<g id="G_58" class="area" title="">
	<path d="M130.3,282.5c0.1,0.3,0.1,0.6,0.1,0.9c0,0.4-0.1,0.7-0.2,1.1c-0.3,0.7-0.8,1.3-1.8,1.7c-0.8,0.3-1.6,0.5-2.5,0.5
		c-0.9,0-1.6-0.2-2.2-0.6c-0.6-0.5-0.9-1.1-0.9-2c0-0.5,0.1-0.9,0.3-1.5c0.2-0.4,0.3-0.7,0.5-0.9c0.1-0.1,0.2-0.1,0.2-0.1
		c0.1,0,0.1,0,0.1,0.1c0,0,0,0.1,0,0.2c-0.3,0.6-0.4,1.2-0.4,1.7c0,0.5,0.2,0.9,0.5,1.3c0.4,0.5,1.1,0.7,2,0.7c1,0,1.9-0.2,2.6-0.5
		c0.6-0.3,1-0.6,1.2-1c0.1-0.1,0.1-0.3,0.1-0.4c0-0.3-0.1-0.6-0.2-1c-0.1-0.3-0.4-0.8-0.9-1.6l0.4-0.8c0.1-0.1,0.1-0.2,0.1-0.2
		s0.1,0,0.1,0.1C129.9,281,130.2,281.7,130.3,282.5z M127.4,278.2l-0.8,0.8l-0.8-0.8l0.8-0.8L127.4,278.2z" id="PATH_59" class="area" title=""></path>
	<path d="M134.4,282.7h-0.7c-0.7,0-1.3-0.3-1.5-0.9c-0.2-0.4-0.3-1.1-0.3-1.9v-1.9c0-0.9-0.1-2.2-0.2-3.9l0.6-0.7
		c0.1-0.1,0.2-0.1,0.2,0c0.1,0.9,0.2,2.2,0.2,3.9v2.9c0,0.8,0.4,1.2,1.2,1.2h0.5V282.7z" id="PATH_60" class="area" title=""></path>
	<path d="M139.3,282.7h-0.8c-0.9,0-1.5-0.3-1.9-0.9c-0.3,0.6-1,0.9-2.1,0.9H134v-1.2h0.9c1,0,1.5-0.4,1.6-1.1c0-0.3,0.1-0.5,0.2-0.5
		c0.1,0,0.2,0.2,0.2,0.5c0.1,0.7,0.6,1.1,1.5,1.1h0.9V282.7z M135.9,276.9l-0.8,0.8l-0.8-0.8l0.8-0.8L135.9,276.9z M137.6,276.9
		l-0.8,0.8l-0.8-0.8l0.8-0.8L137.6,276.9z" id="PATH_61" class="area" title=""></path>
	<path d="M147.2,280.5c0,0.6-0.1,1.1-0.4,1.5c-0.3,0.4-0.8,0.7-1.3,0.7c-0.7,0-1.1-0.3-1.4-0.8c-0.4,0.6-0.8,0.8-1.4,0.8
		c-0.7,0-1.2-0.3-1.5-0.8c-0.4,0.6-0.9,0.8-1.6,0.8h-0.7v-1.2h0.8c0.7,0,1.2-0.4,1.3-1.2c0-0.2,0.1-0.3,0.2-0.3
		c0.1,0,0.1,0.1,0.2,0.3c0.1,0.8,0.5,1.2,1.3,1.2c0.4,0,0.8-0.1,1-0.3c0.1-0.2,0.2-0.4,0.3-0.8c0-0.2,0.1-0.3,0.2-0.3
		c0.1,0,0.1,0.1,0.2,0.3c0.1,0.8,0.5,1.2,1.2,1.2c0.8,0,1.1-0.2,1.1-0.5c0-0.3-0.2-0.7-0.6-1.1l0.5-0.9c0.1-0.1,0.1-0.2,0.2-0.2
		s0.1,0.1,0.2,0.2C147,279.6,147.2,280.1,147.2,280.5z" id="PATH_62" class="area" title=""></path>
	<path d="M152.3,282.8c0,1-0.3,1.9-0.9,2.8c-0.5,0.7-1,1.1-1.3,1.1c-0.8,0-1.4,0-2-0.1c-0.2,0-0.3-0.1-0.3-0.1s0.1-0.1,0.3-0.1
		c0.8-0.2,1.6-0.6,2.4-1.2c0.8-0.7,1.3-1.4,1.3-2.1c0-0.4-0.3-1-1-1.7l0.5-0.9c0-0.1,0.1-0.1,0.1-0.1c0,0,0.1,0.1,0.1,0.1
		c0.2,0.3,0.5,0.7,0.6,1.2C152.2,282,152.3,282.4,152.3,282.8z" id="PATH_63" class="area" title=""></path>
	<path d="M156.3,282.7h-0.7c-0.7,0-1.3-0.3-1.5-0.9c-0.2-0.4-0.3-1.1-0.3-1.9v-1.9c0-0.9-0.1-2.2-0.2-3.9l0.6-0.7
		c0.1-0.1,0.2-0.1,0.2,0c0.1,0.9,0.2,2.2,0.2,3.9v2.9c0,0.8,0.4,1.2,1.2,1.2h0.5V282.7z" id="PATH_64" class="area" title=""></path>
	<path d="M162.5,282.7H162c-0.4,0-0.8,0.1-1.1,0.2c-0.5,0.2-0.8,0.5-0.8,1c0,0.6,0.4,1.1,1.2,1.6l-0.5,1c-0.9-0.3-1.7-0.8-2.3-1.4
		c-0.8-0.7-1.2-1.6-1.2-2.5h-1.4v-1.2h1.3c0-0.8,0.2-1.6,0.6-2.6c0.4-0.9,0.7-1.3,0.9-1.3c0.2,0,0.5,0.4,0.8,1.3
		c0.3,0.8,0.4,1.3,0.4,1.6c0,1.4-0.7,2.1-2.1,2.1c0.1,0.4,0.3,0.8,0.6,1.2c0.3,0.4,0.7,0.7,1.1,0.9c0-0.1,0-0.3,0-0.4
		c0-0.7,0.2-1.3,0.5-1.8c0.5-0.7,1.1-1.1,2-1.1h0.4V282.7z M159.4,281.1c0-0.2-0.1-0.6-0.3-1.1c-0.2-0.6-0.4-0.8-0.6-0.8
		c-0.1,0-0.3,0.2-0.5,0.7c-0.2,0.5-0.3,1.1-0.3,1.7C158.9,281.5,159.4,281.4,159.4,281.1z" id="PATH_65" class="area" title=""></path>
	<path d="M164.9,280.7c0,1.3-0.7,2-2,2h-0.8v-1.2h0.7c1,0,1.5-0.2,1.5-0.5c0-0.3-0.2-0.7-0.7-1.2l0.4-1c0-0.1,0.1-0.1,0.1-0.1
		c0,0,0.1,0.1,0.2,0.2C164.6,279.4,164.9,280,164.9,280.7z M164.5,284.9l-0.8,0.8l-0.8-0.8l0.8-0.8L164.5,284.9z" id="PATH_66" class="area" title=""></path>
</g>
<text transform="matrix(1 0 0 1 276.0132 302.667)" class="st6 st7 area" id="TEXT_67" title="">
یر</text>
<g id="G_68" class="area" title="">
	<path d="M414.3,352h-0.5c-0.5,0-0.8,0-1-0.1c0,0.3,0.1,0.5,0.1,0.8c0,0.5-0.1,0.8-0.2,1.1c-0.3,0.7-0.8,1.3-1.8,1.7
		c-0.8,0.3-1.6,0.5-2.5,0.5c-0.9,0-1.6-0.2-2.2-0.6c-0.6-0.5-0.9-1.1-0.9-2c0-0.5,0.1-0.9,0.3-1.5c0.2-0.4,0.3-0.7,0.5-0.9
		c0.1-0.1,0.2-0.1,0.2-0.1c0.1,0,0.1,0,0.1,0.1c0,0,0,0.1,0,0.2c-0.3,0.6-0.4,1.2-0.4,1.7c0,0.5,0.2,0.9,0.5,1.3
		c0.4,0.5,1.1,0.7,2,0.7c1,0,1.9-0.2,2.6-0.5c0.6-0.3,1-0.6,1.2-1c0.1-0.1,0.1-0.3,0-0.7c0-0.3-0.1-0.6-0.1-0.7
		c-0.1-0.3-0.5-0.8-1-1.5l0.4-0.8c0.1-0.1,0.1-0.2,0.1-0.2s0.1,0,0.1,0.1c0.5,0.8,1,1.2,1.6,1.2h0.8V352z M409.9,347.5l-0.8,0.8
		l-0.8-0.8l0.8-0.8L409.9,347.5z" id="PATH_69" class="area" title=""></path>
	<path d="M419.2,352h-0.8c-0.9,0-1.5-0.3-1.9-0.9c-0.3,0.6-1,0.9-2.1,0.9h-0.6v-1.2h0.9c1,0,1.5-0.4,1.6-1.1c0-0.3,0.1-0.5,0.2-0.5
		c0.1,0,0.2,0.2,0.2,0.5c0.1,0.7,0.6,1.1,1.5,1.1h0.9V352z M415.9,354.2l-0.8,0.8l-0.8-0.8l0.8-0.8L415.9,354.2z M417.7,354.2
		l-0.8,0.8l-0.8-0.8l0.8-0.8L417.7,354.2z" id="PATH_70" class="area" title=""></path>
	<path d="M424.2,350c0,0.5,0,0.9-0.2,1.3c-0.2,0.5-0.5,0.8-0.8,0.8c-0.5,0-1.3-0.3-2.3-1c-0.3,0.4-0.5,0.6-0.6,0.7
		c-0.3,0.2-0.6,0.3-1,0.3h-0.5v-1.2h0.7c0.4,0,0.8-0.2,1.2-0.7c0.2-0.2,0.5-0.7,0.9-1.3c0.3-0.5,0.7-0.7,1-0.7
		c0.5,0,0.9,0.2,1.2,0.7C424.1,349.3,424.2,349.6,424.2,350z M423.6,350.7c0-0.3-0.1-0.6-0.3-1c-0.2-0.4-0.5-0.6-0.8-0.6
		c-0.3,0-0.6,0.3-1,0.9c0.2,0.2,0.5,0.4,0.9,0.6c0.4,0.2,0.8,0.3,1,0.3C423.5,351,423.6,350.9,423.6,350.7z" id="PATH_71" class="area" title=""></path>
	<path d="M426.5,350.8c0,0.4-0.1,0.8-0.3,1.1c-0.1,0.2-0.2,0.3-0.2,0.3c0,0-0.1-0.1-0.1-0.4c0-1.2-0.2-4-0.6-8.5l0.8-0.8
		c0.1-0.1,0.1-0.1,0.1-0.1c0,0,0,0.1,0,0.2C426.5,343.9,426.5,346.6,426.5,350.8z" id="PATH_72" class="area" title=""></path>
	<path d="M431.6,352.1c0,1-0.3,1.9-0.9,2.8c-0.5,0.7-1,1.1-1.3,1.1c-0.8,0-1.4,0-2-0.1c-0.2,0-0.3-0.1-0.3-0.1s0.1-0.1,0.3-0.1
		c0.8-0.2,1.6-0.6,2.4-1.2c0.8-0.7,1.3-1.4,1.3-2.1c0-0.4-0.3-1-1-1.7l0.5-0.9c0-0.1,0.1-0.1,0.1-0.1c0,0,0.1,0.1,0.1,0.1
		c0.2,0.3,0.5,0.7,0.6,1.2C431.5,351.3,431.6,351.7,431.6,352.1z" id="PATH_73" class="area" title=""></path>
	<path d="M436.8,351.6c0,1.5-0.5,2.8-1.5,3.8c-0.3,0.3-0.5,0.5-0.6,0.5c-0.6,0-1.2-0.1-1.9-0.2c-0.3,0-0.4-0.1-0.4-0.1
		c0,0,0.1-0.1,0.4-0.2c0.8-0.2,1.6-0.7,2.3-1.3c0.3-0.3,0.6-0.5,0.8-0.9c0.3-0.4,0.5-0.8,0.5-1.1v-0.3l-1.3,0
		c-0.9,0-1.4-0.4-1.4-1.1c0-0.5,0.1-1,0.4-1.6c0.3-0.6,0.7-1,1.1-1c0.6,0,1.1,0.4,1.4,1.3C436.7,350.1,436.8,350.8,436.8,351.6z
		 M436,350.8c0-0.3-0.1-0.6-0.3-0.9c-0.2-0.3-0.5-0.5-0.8-0.5c-0.2,0-0.4,0.1-0.5,0.2s-0.2,0.3-0.2,0.5c0,0.5,0.3,0.7,1,0.7
		C435.3,350.9,435.7,350.8,436,350.8z" id="PATH_74" class="area" title=""></path>
</g>
<g id="G_75" class="area" title="">
	<path d="M414,294.4c0,0.4-0.1,0.8-0.3,1.1c-0.1,0.2-0.2,0.3-0.2,0.3c0,0-0.1-0.1-0.1-0.4c0-1.2-0.2-4-0.6-8.5l0.8-0.8
		c0.1-0.1,0.1-0.1,0.1-0.1c0,0,0,0.1,0,0.2C413.9,287.6,414,290.3,414,294.4z" id="PATH_76" class="area" title=""></path>
	<path d="M420.2,295.7h-1.1c-0.1,1.4-0.6,2.5-1.6,3.5c-0.3,0.3-0.5,0.5-0.6,0.5c-0.5,0-1.2-0.1-1.9-0.2c-0.2,0-0.4-0.1-0.4-0.1
		c0,0,0.1-0.1,0.4-0.2c0.8-0.2,1.6-0.7,2.3-1.2c0.3-0.3,0.6-0.5,0.8-0.9c0.3-0.4,0.5-0.8,0.5-1.1v-0.3h-1.3c-1,0-1.4-0.4-1.4-1.2
		c0-0.5,0.1-1,0.4-1.6c0.3-0.6,0.7-1,1.1-1c0.5,0,0.9,0.3,1.2,1c0.2,0.5,0.4,1,0.4,1.6h1.1V295.7z M418.4,294.5
		c0-0.3-0.1-0.6-0.3-0.9c-0.2-0.4-0.5-0.5-0.8-0.5c-0.2,0-0.4,0.1-0.5,0.2c-0.2,0.2-0.2,0.3-0.2,0.6c0,0.5,0.4,0.7,1.2,0.7
		C417.8,294.5,418.1,294.5,418.4,294.5z" id="PATH_77" class="area" title=""></path>
	<path d="M429.4,295.7h-0.6c-0.7,0-1.1-0.3-1.4-0.8c-0.2,0.6-0.7,0.8-1.3,0.8c-0.6,0-1-0.3-1.3-0.8c-0.3,0.6-0.7,0.8-1.3,0.8
		c-0.7,0-1.2-0.3-1.5-0.8c-0.4,0.6-0.9,0.8-1.6,0.8h-0.7v-1.2h0.8c0.7,0,1.2-0.4,1.3-1.2c0-0.2,0.1-0.3,0.2-0.3
		c0.1,0,0.1,0.1,0.2,0.3c0.1,0.8,0.5,1.2,1.3,1.2c0.7,0,1.2-0.4,1.2-1.2c0-0.2,0.1-0.3,0.2-0.3c0.1,0,0.2,0.1,0.2,0.3
		c0.1,0.8,0.5,1.2,1,1.2c0.7,0,1.2-0.4,1.2-1.2c0-0.2,0.1-0.3,0.2-0.3c0.1,0,0.2,0.1,0.2,0.3c0.1,0.8,0.5,1.2,1.2,1.2h0.6V295.7z
		 M424.8,290.6l-0.7,0.7l-0.7-0.7l0.7-0.7L424.8,290.6z M425.6,289.1l-0.7,0.7l-0.7-0.7l0.7-0.7L425.6,289.1z M426.5,290.6l-0.7,0.7
		l-0.7-0.7l0.7-0.7L426.5,290.6z" id="PATH_78" class="area" title=""></path>
	<path d="M434.3,295.7h-0.8c-0.9,0-1.5-0.3-1.9-0.9c-0.3,0.6-1,0.9-2.1,0.9H429v-1.2h0.9c1,0,1.5-0.4,1.6-1.1c0-0.3,0.1-0.5,0.2-0.5
		c0.1,0,0.2,0.2,0.2,0.5c0.1,0.7,0.6,1.1,1.5,1.1h0.9V295.7z M431,297.9l-0.8,0.8l-0.8-0.8l0.8-0.8L431,297.9z M432.8,297.9
		l-0.8,0.8l-0.8-0.8l0.8-0.8L432.8,297.9z" id="PATH_79" class="area" title=""></path>
	<path d="M436.7,293.7c0,1.3-0.7,2-2,2h-0.8v-1.2h0.7c1,0,1.5-0.2,1.5-0.5c0-0.3-0.2-0.7-0.7-1.2l0.4-1c0-0.1,0.1-0.1,0.1-0.1
		s0.1,0.1,0.2,0.2C436.5,292.4,436.7,293,436.7,293.7z M434.4,297.6l0.7-0.7l0.7,0.7l-0.7,0.7L434.4,297.6z M435.3,299.2l0.7-0.7
		l0.7,0.7l-0.7,0.7L435.3,299.2z M436.1,297.6l0.7-0.7l0.7,0.7l-0.7,0.7L436.1,297.6z" id="PATH_80" class="area" title=""></path>
</g>
<g id="G_81" class="area" title="">
	<path d="M376,274.7h-0.7c-0.5,0-1-0.3-1.6-0.8c-0.3-0.3-0.7-0.8-1.2-1.5c0,0.7-0.1,1.2-0.4,1.5c-0.5,0.6-1.5,0.9-3,0.9h-2
		c-2.4,0-3.7-0.7-3.7-2.1c0-0.5,0.2-1,0.5-1.5c0.1-0.1,0.2-0.2,0.2-0.2c0.1,0,0.1,0,0.1,0.1c0,0.1,0,0.1,0,0.2
		c-0.1,0.4-0.2,0.6-0.2,0.9c0,0.4,0.2,0.7,0.5,0.9c0.5,0.4,1.3,0.6,2.4,0.6h2c1.1,0,1.9-0.1,2.3-0.2c0.5-0.2,0.7-0.5,0.7-0.9
		c0-0.4-0.2-0.9-0.7-1.5c-0.3-0.3-0.7-0.8-1.3-1.3c-0.5-0.4-0.7-0.7-0.7-0.7c0-0.7,0.1-1.1,0.3-1.4c0-0.1,0.7-0.3,2.1-0.8
		c1.4-0.5,2.6-0.9,3.5-1.2c0,0.1-0.1,0.5-0.3,1.1c-1.1,0.3-2.7,0.9-4.9,1.7c1,0.9,2.1,2.2,3.4,3.9c0.5,0.6,0.9,1,1.2,1.2
		c0.2,0.1,0.6,0.2,1,0.2h0.4V274.7z" id="PATH_82" class="area" title=""></path>
	<path d="M383.8,271.8l-0.4,0.8c-0.7,0-1.3,0-1.6,0.1c-0.4,0.2-1,0.4-1.8,0.8c-0.8,0.4-1.4,0.7-1.8,0.8c-0.6,0.2-1.3,0.3-1.9,0.3
		h-0.7v-1.2h0.8c0.9,0,1.7-0.2,2.4-0.5l2.3-1c-0.4-0.1-1-0.3-1.8-0.6c-0.7-0.3-1.1-0.4-1.3-0.4c-0.4,0-0.8,0.2-1.2,0.5
		c-0.1,0.1-0.1,0.1-0.2,0.1c-0.1,0-0.1,0-0.1-0.1c0,0,0-0.1,0-0.1c0.3-1,0.9-1.4,1.7-1.4c0.3,0,0.7,0.1,1.1,0.3
		c0.8,0.4,1.4,0.6,1.8,0.8c0.7,0.2,1.5,0.4,2.4,0.4c0.2,0,0.3,0,0.3,0.1C383.9,271.6,383.9,271.7,383.8,271.8z M378.3,276.6l0.7-0.7
		l0.7,0.7l-0.7,0.7L378.3,276.6z M379.2,278.1l0.7-0.7l0.7,0.7l-0.7,0.7L379.2,278.1z M380.1,276.6l0.7-0.7l0.7,0.7l-0.7,0.7
		L380.1,276.6z" id="PATH_83" class="area" title=""></path>
	<path d="M390.1,274.7h-0.4c-0.4,0-0.6-0.1-0.8-0.2c0,0.1,0,0.2,0,0.3c0,0.9-0.3,1.8-0.9,2.7c-0.5,0.8-1,1.1-1.3,1.1
		c-0.8,0-1.4,0-2-0.1c-0.2,0-0.3-0.1-0.3-0.1s0.1-0.1,0.3-0.1c0.8-0.2,1.6-0.6,2.4-1.2c0.8-0.7,1.3-1.4,1.3-2.1c0-0.4-0.3-1-1-1.7
		l0.5-0.9c0-0.1,0.1-0.1,0.1-0.1c0,0,0.1,0.1,0.1,0.1c0.3,0.4,0.5,0.7,0.7,0.8c0.3,0.2,0.7,0.4,1.1,0.4h0.3V274.7z" id="PATH_84" class="area" title=""></path>
	<path d="M394,271.9c0,0.9-0.1,1.5-0.3,1.8c-0.5,0.7-1.3,1-2.6,1h-1.4v-1.2h1c1.7,0,2.6-0.3,2.8-0.8c0.1-0.2,0-0.4-0.1-0.6
		c-0.4,0.1-0.8,0.1-1.3,0.1c-0.9,0-1.4-0.4-1.4-1.2c0-0.5,0.1-1.1,0.4-1.6c0.3-0.6,0.7-0.9,1.2-0.9c0.4,0,0.8,0.3,1.1,0.8
		C393.8,270.1,394,270.9,394,271.9z M392.1,266.5l-0.8,0.8l-0.8-0.8l0.8-0.8L392.1,266.5z M393.3,271c0-0.3-0.1-0.6-0.3-0.9
		c-0.2-0.3-0.5-0.4-0.8-0.4c-0.2,0-0.4,0.1-0.6,0.2c-0.2,0.1-0.2,0.3-0.2,0.5c0,0.4,0.3,0.6,1,0.6
		C392.6,271.1,392.9,271.1,393.3,271z M393.8,266.5l-0.8,0.8l-0.8-0.8l0.8-0.8L393.8,266.5z" id="PATH_85" class="area" title=""></path>
</g>
<g id="G_86" class="area" title="">
	<path d="M421.2,247.3h-0.4c-0.5,0-0.9-0.1-1.1-0.3c-0.3-0.2-0.5-0.6-0.5-1c-1.1,1-2.8,1.5-5.1,1.5c-2.4,0-3.6-0.7-3.6-2.2
		c0-0.5,0.2-1,0.6-1.5c0.1-0.1,0.1-0.1,0.2-0.1c0.1,0,0.1,0,0.1,0.1c0,0,0,0.1,0,0.2c-0.1,0.3-0.2,0.6-0.2,0.9c0,1,1.1,1.5,3.3,1.5
		c2.5,0,4.2-0.5,5-1.6c0.2-0.2,0.3-0.3,0.4-0.3c0.1,0,0.1,0.1,0.1,0.2c0,0.1,0,0.2-0.1,0.4c0,0.2-0.1,0.3-0.1,0.4
		c0,0.5,0.4,0.8,1.1,0.8h0.4V247.3z M415,241.5l-0.8,0.8l-0.8-0.8l0.8-0.8L415,241.5z M416.7,241.5l-0.8,0.8l-0.8-0.8l0.8-0.8
		L416.7,241.5z" id="PATH_87" class="area" title=""></path>
	<path d="M429.1,245.2c0,0.6-0.1,1.1-0.4,1.5c-0.3,0.4-0.8,0.7-1.3,0.7c-0.7,0-1.1-0.3-1.4-0.8c-0.4,0.6-0.8,0.8-1.4,0.8
		c-0.7,0-1.2-0.3-1.5-0.8c-0.4,0.6-0.9,0.8-1.6,0.8h-0.7v-1.2h0.8c0.7,0,1.2-0.4,1.3-1.2c0-0.2,0.1-0.3,0.2-0.3
		c0.1,0,0.1,0.1,0.2,0.3c0.1,0.8,0.5,1.2,1.3,1.2c0.4,0,0.8-0.1,1-0.3c0.1-0.2,0.2-0.4,0.3-0.8c0-0.2,0.1-0.3,0.2-0.3
		c0.1,0,0.1,0.1,0.2,0.3c0.1,0.8,0.5,1.2,1.2,1.2c0.8,0,1.1-0.2,1.1-0.5c0-0.3-0.2-0.7-0.6-1.1l0.5-0.9c0.1-0.1,0.1-0.2,0.2-0.2
		s0.1,0.1,0.2,0.2C428.9,244.2,429.1,244.8,429.1,245.2z M425.7,241.5l-0.7,0.7l-0.7-0.7l0.7-0.7L425.7,241.5z M426.6,240l-0.7,0.7
		l-0.7-0.7l0.7-0.7L426.6,240z M427.5,241.6l-0.7,0.7l-0.7-0.7l0.7-0.7L427.5,241.6z" id="PATH_88" class="area" title=""></path>
	<path d="M436.9,247.3h-0.4c-0.4,0-0.7-0.1-1-0.4c-0.2-0.2-0.4-0.4-0.6-0.8c-0.2,0.4-0.5,0.7-0.8,0.9c-0.4,0.2-0.9,0.3-1.7,0.3
		c-1.4,0-2.1-0.5-2.1-1.5c0-0.3,0.1-0.7,0.3-1c0.1-0.1,0.1-0.2,0.2-0.2c0.1,0,0.1,0.1,0.1,0.2c0,0.1,0,0.1,0,0.3s0,0.2,0,0.3
		c0,0.6,0.5,0.9,1.5,0.9c1.4,0,2.1-0.3,2.1-0.8c0-0.3-0.4-1.4-1.2-3.3l0.4-0.8c0.1-0.1,0.1-0.2,0.1-0.2c0,0,0.1,0.1,0.1,0.2
		c0.3,0.8,0.8,2,1.4,3.6c0.3,0.8,0.7,1.2,1.3,1.2h0.3V247.3z" id="PATH_89" class="area" title=""></path>
	<path d="M443.1,238.1c0,0.2-0.2,0.6-0.4,1.1l-2.5,0.8c-1.1,0.4-1.9,0.7-2.3,0.9c0.8,0.8,1.3,1.4,1.6,1.7c0.5,0.7,0.8,1.3,0.9,2
		c0,0.5,0,1-0.2,1.4c-0.3,0.9-1.4,1.3-3.1,1.3h-0.5v-1.2h0.6c0.8,0,1.4,0,1.7-0.1c0.7-0.2,1.1-0.5,1.1-1c0-0.7-0.5-1.5-1.6-2.5
		l-0.1,0.2c-0.1-0.1-0.3-0.3-0.5-0.6c-0.3-0.3-0.4-0.6-0.4-0.6c0-0.2,0-0.4,0.1-0.8c0.1-0.4,0.2-0.6,0.3-0.7
		c0.1-0.1,0.8-0.4,2.1-0.8C441,238.7,442.2,238.3,443.1,238.1z" id="PATH_90" class="area" title=""></path>
	<path d="M446.6,247.3h-0.7c-0.7,0-1.3-0.3-1.5-0.9c-0.2-0.4-0.3-1.1-0.3-1.9v-1.9c0-0.9-0.1-2.2-0.2-3.9l0.6-0.7
		c0.1-0.1,0.2-0.1,0.2,0c0.1,0.9,0.2,2.2,0.2,3.9v2.9c0,0.8,0.4,1.2,1.2,1.2h0.5V247.3z" id="PATH_91" class="area" title=""></path>
	<path d="M449,245.4c0,1.3-0.7,2-2,2h-0.8v-1.2h0.7c1,0,1.5-0.2,1.5-0.5c0-0.3-0.2-0.7-0.7-1.2l0.4-1c0-0.1,0.1-0.1,0.1-0.1
		c0,0,0.1,0.1,0.2,0.2C448.8,244.1,449,244.7,449,245.4z M446.6,249.3l0.7-0.7l0.7,0.7l-0.7,0.7L446.6,249.3z M447.5,250.9l0.7-0.7
		l0.7,0.7l-0.7,0.7L447.5,250.9z M448.4,249.3l0.7-0.7l0.7,0.7l-0.7,0.7L448.4,249.3z" id="PATH_92" class="area" title=""></path>
</g>
<g id="G_93" class="area" title="">
	<path d="M371.7,168.9c0.1,0.3,0.1,0.6,0.1,0.9c0,0.4-0.1,0.7-0.2,1.1c-0.3,0.7-0.8,1.3-1.8,1.7c-0.8,0.3-1.6,0.5-2.5,0.5
		c-0.9,0-1.6-0.2-2.2-0.6c-0.6-0.5-0.9-1.1-0.9-2c0-0.5,0.1-0.9,0.3-1.5c0.2-0.4,0.3-0.7,0.5-0.9c0.1-0.1,0.2-0.1,0.2-0.1
		c0.1,0,0.1,0,0.1,0.1c0,0,0,0.1,0,0.2c-0.3,0.6-0.4,1.2-0.4,1.7c0,0.5,0.2,0.9,0.5,1.3c0.4,0.5,1.1,0.7,2,0.7c1,0,1.9-0.2,2.6-0.5
		c0.6-0.3,1-0.6,1.2-1c0.1-0.1,0.1-0.3,0.1-0.4c0-0.3-0.1-0.6-0.2-1c-0.1-0.3-0.4-0.8-0.9-1.6l0.4-0.8c0.1-0.1,0.1-0.2,0.1-0.2
		s0.1,0,0.1,0.1C371.3,167.3,371.6,168.1,371.7,168.9z M368.8,164.5l-0.8,0.8l-0.8-0.8l0.8-0.8L368.8,164.5z" id="PATH_94" class="area" title=""></path>
	<path d="M374.1,167.8c0,0.4-0.1,0.8-0.3,1.1c-0.1,0.2-0.2,0.3-0.2,0.3c0,0-0.1-0.1-0.1-0.4c0-1.2-0.2-4-0.6-8.5l0.8-0.8
		c0.1-0.1,0.1-0.1,0.1-0.1c0,0,0,0.1,0,0.2C374.1,160.9,374.1,163.6,374.1,167.8z" id="PATH_95" class="area" title=""></path>
	<path d="M380.4,169H380c-0.4,0-0.6-0.1-0.8-0.2c0,0.1,0,0.2,0,0.3c0,0.9-0.3,1.8-0.9,2.7c-0.5,0.8-1,1.1-1.3,1.1
		c-0.8,0-1.4,0-2-0.1c-0.2,0-0.3-0.1-0.3-0.1s0.1-0.1,0.3-0.1c0.8-0.2,1.6-0.6,2.4-1.2c0.8-0.7,1.3-1.4,1.3-2.1c0-0.4-0.3-1-1-1.7
		l0.5-0.9c0-0.1,0.1-0.1,0.1-0.1c0,0,0.1,0.1,0.1,0.1c0.3,0.4,0.5,0.7,0.7,0.8c0.3,0.2,0.7,0.4,1.1,0.4h0.3V169z" id="PATH_96" class="area" title=""></path>
	<path d="M386.6,169h-0.5c-0.4,0-0.8,0.1-1.1,0.2c-0.5,0.2-0.8,0.5-0.8,1c0,0.6,0.4,1.1,1.2,1.6l-0.5,1c-0.9-0.3-1.7-0.8-2.3-1.4
		c-0.8-0.7-1.2-1.6-1.2-2.5H380v-1.2h1.3c0-0.8,0.2-1.6,0.6-2.6c0.4-0.9,0.7-1.3,0.9-1.3c0.2,0,0.5,0.4,0.8,1.3
		c0.3,0.8,0.4,1.3,0.4,1.6c0,1.4-0.7,2.1-2.1,2.1c0.1,0.4,0.3,0.8,0.6,1.2c0.3,0.4,0.7,0.7,1.1,0.9c0-0.1,0-0.3,0-0.4
		c0-0.7,0.2-1.3,0.5-1.8c0.5-0.7,1.1-1.1,2-1.1h0.4V169z M383.5,167.4c0-0.2-0.1-0.6-0.3-1.1c-0.2-0.6-0.4-0.8-0.6-0.8
		c-0.1,0-0.3,0.2-0.5,0.7c-0.2,0.5-0.3,1.1-0.3,1.7C383,167.8,383.5,167.7,383.5,167.4z" id="PATH_97" class="area" title=""></path>
	<path d="M389,167c0,1.3-0.7,2-2,2h-0.8v-1.2h0.7c1,0,1.5-0.2,1.5-0.5c0-0.3-0.2-0.7-0.7-1.2l0.4-1c0-0.1,0.1-0.1,0.1-0.1
		c0,0,0.1,0.1,0.2,0.2C388.8,165.7,389,166.4,389,167z M388.1,162.6l-0.8,0.8l-0.8-0.8l0.8-0.8L388.1,162.6z M389.8,162.6l-0.8,0.8
		l-0.8-0.8l0.8-0.8L389.8,162.6z" id="PATH_98" class="area" title=""></path>
</g>
<g id="G_99" class="area" title="">
	<path d="M374.6,92c0,0.7-0.2,1.3-0.7,1.6c-0.3,0.2-0.9,0.4-1.8,0.5c-1,0.2-2,0.3-3.1,0.3c-2.6,0-4-0.7-4-2.2c0-0.5,0.2-1,0.6-1.5
		c0.1-0.1,0.1-0.2,0.2-0.2c0.1,0,0.1,0,0.1,0.1c0,0,0,0.1,0,0.2c-0.1,0.3-0.2,0.6-0.2,0.9c0,1,1.3,1.5,3.8,1.5
		c1.2,0,2.3-0.1,3.1-0.2c1-0.2,1.4-0.4,1.4-0.7c0-0.2-0.2-0.6-0.7-1.2l0.5-0.9c0.1-0.1,0.1-0.1,0.2,0
		C374.4,90.9,374.6,91.4,374.6,92z M369.6,88.4l-0.8,0.8l-0.8-0.8l0.8-0.8L369.6,88.4z M371.3,88.4l-0.8,0.8l-0.8-0.8l0.8-0.8
		L371.3,88.4z" id="PATH_100" class="area" title=""></path>
	<path d="M378.6,94.2h-0.7c-0.7,0-1.3-0.3-1.5-0.9c-0.2-0.4-0.3-1.1-0.3-1.9v-1.9c0-0.9-0.1-2.2-0.2-3.9l0.6-0.7
		c0.1-0.1,0.2-0.1,0.2,0c0.1,0.9,0.2,2.2,0.2,3.9v2.9c0,0.8,0.4,1.2,1.2,1.2h0.5V94.2z" id="PATH_101" class="area" title=""></path>
	<path d="M381,92.2c0,1.3-0.7,2-2,2h-0.8v-1.2h0.7c1,0,1.5-0.2,1.5-0.5c0-0.3-0.2-0.7-0.7-1.2l0.4-1c0-0.1,0.1-0.1,0.1-0.1
		c0,0,0.1,0.1,0.2,0.2C380.8,90.9,381,91.6,381,92.2z M380.9,87.7l-0.8,0.8l-0.8-0.8l0.8-0.8L380.9,87.7z" id="PATH_102" class="area" title=""></path>
	<path d="M383.3,93c0,0.4-0.1,0.8-0.3,1.1c-0.1,0.2-0.2,0.3-0.2,0.3c0,0-0.1-0.1-0.1-0.4c0-1.2-0.2-4-0.6-8.5l0.8-0.8
		c0.1-0.1,0.1-0.1,0.1-0.1c0,0,0,0.1,0,0.2C383.3,86.1,383.3,88.9,383.3,93z" id="PATH_103" class="area" title=""></path>
	<path d="M389.6,94.2h-0.4c-0.4,0-0.6-0.1-0.8-0.2c0,0.1,0,0.2,0,0.3c0,0.9-0.3,1.8-0.9,2.7c-0.5,0.8-1,1.1-1.3,1.1
		c-0.8,0-1.4,0-2-0.1c-0.2,0-0.3-0.1-0.3-0.1s0.1-0.1,0.3-0.1c0.8-0.2,1.6-0.6,2.4-1.2c0.8-0.7,1.3-1.4,1.3-2.1c0-0.4-0.3-1-1-1.7
		l0.5-0.9c0-0.1,0.1-0.1,0.1-0.1c0,0,0.1,0.1,0.1,0.1c0.3,0.4,0.5,0.7,0.7,0.8c0.3,0.2,0.7,0.4,1.1,0.4h0.3V94.2z" id="PATH_104" class="area" title=""></path>
	<path d="M394.5,94.2h-0.8c-0.9,0-1.5-0.3-1.9-0.9c-0.3,0.6-1,0.9-2.1,0.9h-0.6v-1.2h0.9c1,0,1.5-0.4,1.6-1.1c0-0.3,0.1-0.5,0.2-0.5
		c0.1,0,0.2,0.2,0.2,0.5c0.1,0.7,0.6,1.1,1.5,1.1h0.9V94.2z M391.2,96.4l-0.8,0.8l-0.8-0.8l0.8-0.8L391.2,96.4z M392.9,96.4
		l-0.8,0.8l-0.8-0.8l0.8-0.8L392.9,96.4z" id="PATH_105" class="area" title=""></path>
	<path d="M401.6,94.2H401c-0.5,0-1-0.3-1.4-0.8c-0.3,0.8-0.6,1.2-0.9,1.2c-0.3,0-0.8-0.2-1.4-0.5c-0.5-0.3-0.9-0.6-1.1-0.8
		c-0.5,0.6-1,0.9-1.5,0.9h-0.6v-1.2h0.6c0.5,0,0.9-0.2,1.3-0.6c0.3-0.3,0.6-0.7,1-1.1c0.4-0.4,0.7-0.6,1-0.6c0.4,0,0.7,0.2,1,0.6
		c0.2,0.2,0.4,0.6,0.9,1.1c0.3,0.4,0.7,0.6,1.1,0.6h0.6V94.2z M398.9,93.4c0-0.3-0.1-0.6-0.3-1c-0.2-0.4-0.5-0.6-0.9-0.6
		c-0.3,0-0.7,0.3-1.1,0.8c0.1,0.1,0.4,0.3,0.9,0.6c0.5,0.3,0.9,0.4,1.2,0.4C398.9,93.5,398.9,93.5,398.9,93.4z" id="PATH_106" class="area" title=""></path>
	<path d="M409.5,92.1c0,0.6-0.1,1.1-0.4,1.5c-0.3,0.4-0.8,0.7-1.3,0.7c-0.7,0-1.1-0.3-1.4-0.8c-0.4,0.6-0.8,0.8-1.4,0.8
		c-0.7,0-1.2-0.3-1.5-0.8c-0.4,0.6-0.9,0.8-1.6,0.8h-0.7v-1.2h0.8c0.7,0,1.2-0.4,1.3-1.2c0-0.2,0.1-0.3,0.2-0.3
		c0.1,0,0.1,0.1,0.2,0.3c0.1,0.8,0.5,1.2,1.3,1.2c0.4,0,0.8-0.1,1-0.3c0.1-0.2,0.2-0.4,0.3-0.8c0-0.2,0.1-0.3,0.2-0.3
		c0.1,0,0.1,0.1,0.2,0.3c0.1,0.8,0.5,1.2,1.2,1.2c0.8,0,1.1-0.2,1.1-0.5c0-0.3-0.2-0.7-0.6-1.1l0.5-0.9c0.1-0.1,0.1-0.2,0.2-0.2
		s0.1,0.1,0.2,0.2C409.4,91.1,409.5,91.6,409.5,92.1z M406.1,88.4l-0.7,0.7l-0.7-0.7l0.7-0.7L406.1,88.4z M407,86.9l-0.7,0.7
		l-0.7-0.7l0.7-0.7L407,86.9z M407.9,88.4l-0.7,0.7l-0.7-0.7l0.7-0.7L407.9,88.4z" id="PATH_107" class="area" title=""></path>
</g>
<g id="G_108" class="area" title="">
	<path d="M512.3,91.7h-0.5c-0.7,0-1.1-0.3-1.4-0.8c-0.2,0.6-0.7,0.9-1.3,0.9c-0.6,0-1-0.3-1.3-0.9c-0.3,0.6-0.8,0.9-1.4,0.9
		c-0.2,0-0.5,0-0.7-0.1c0,0.6-0.1,1.2-0.1,1.9c-0.3,0.7-0.8,1.3-1.7,1.7c-0.8,0.3-1.6,0.5-2.5,0.5c-0.9,0-1.6-0.2-2.2-0.6
		c-0.6-0.5-0.9-1.1-0.9-2c0-0.5,0.1-0.9,0.3-1.5c0.2-0.4,0.3-0.7,0.5-0.9c0.1-0.1,0.2-0.1,0.2-0.1c0.1,0,0.1,0,0.1,0.1
		c0,0,0,0.1,0,0.2c-0.3,0.6-0.4,1.2-0.4,1.7c0,0.5,0.2,0.9,0.5,1.3c0.4,0.5,1.1,0.7,2,0.7c1,0,1.9-0.2,2.6-0.5c0.6-0.3,1-0.6,1.1-1
		c0.1-0.1,0.1-0.3,0-0.7c0-0.3-0.1-0.6-0.1-0.7c-0.1-0.3-0.4-0.8-1-1.5l0.4-0.8c0.1-0.1,0.1-0.2,0.1-0.2c0,0,0.1,0,0.1,0.2
		c0.3,0.4,0.5,0.7,0.6,0.8c0.3,0.3,0.6,0.4,1,0.4c0.4,0,0.8-0.1,1-0.4c0.1-0.2,0.2-0.4,0.3-0.9c0-0.2,0.1-0.3,0.2-0.3
		s0.1,0.1,0.2,0.3c0.1,0.8,0.5,1.3,1.1,1.3c0.7,0,1.2-0.4,1.2-1.2c0-0.2,0.1-0.3,0.2-0.3c0.1,0,0.2,0.1,0.2,0.3
		c0.1,0.8,0.5,1.2,1.2,1.2h0.6V91.7z" id="PATH_109" class="area" title=""></path>
	<path d="M514.7,89.7c0,1.3-0.7,2-2,2h-0.8v-1.2h0.7c1,0,1.5-0.2,1.5-0.5c0-0.3-0.2-0.7-0.7-1.2l0.4-1c0-0.1,0.1-0.1,0.1-0.1
		s0.1,0.1,0.2,0.2C514.5,88.4,514.7,89,514.7,89.7z M513.9,93.9l-0.8,0.8l-0.8-0.8l0.8-0.8L513.9,93.9z M515.6,93.9l-0.8,0.8
		l-0.8-0.8l0.8-0.8L515.6,93.9z" id="PATH_110" class="area" title=""></path>
	<path d="M521.7,89.6c0,1.4-0.9,2.1-2.8,2.1c-0.7,0-1.2-0.1-1.5-0.3c-0.4-0.2-0.6-0.7-0.6-1.3c0-0.3,0.1-0.6,0.2-0.9
		c0.1-0.1,0.1-0.2,0.2-0.2c0.1,0,0.1,0.1,0.1,0.3c0,0.1,0,0.2,0,0.3c0,0.4,0.2,0.7,0.6,0.8c0.2,0.1,0.6,0.1,1.1,0.1
		c1.5,0,2.2-0.2,2.2-0.7c0-0.7-0.9-1.7-2.6-2.9l0.3-1c0-0.1,0.1-0.1,0.1-0.1c0,0,0.1,0,0.2,0.1C520.9,87.2,521.7,88.4,521.7,89.6z" id="PATH_111" class="area" title=""></path>
	<path d="M527.9,91.7h-0.4c-0.4,0-0.6-0.1-0.8-0.2c0,0.1,0,0.2,0,0.3c0,0.9-0.3,1.8-0.9,2.7c-0.5,0.8-1,1.1-1.3,1.1
		c-0.8,0-1.4,0-2-0.1c-0.2,0-0.3-0.1-0.3-0.1s0.1-0.1,0.3-0.1c0.8-0.2,1.6-0.6,2.4-1.2c0.8-0.7,1.3-1.4,1.3-2.1c0-0.4-0.3-1-1-1.7
		l0.5-0.9c0-0.1,0.1-0.1,0.1-0.1c0,0,0.1,0.1,0.1,0.1c0.3,0.4,0.5,0.7,0.7,0.8c0.3,0.2,0.7,0.4,1.1,0.4h0.3V91.7z" id="PATH_112" class="area" title=""></path>
	<path d="M530.3,89.7c0,1.3-0.7,2-2,2h-0.8v-1.2h0.7c1,0,1.5-0.2,1.5-0.5c0-0.3-0.2-0.7-0.7-1.2l0.4-1c0-0.1,0.1-0.1,0.1-0.1
		s0.1,0.1,0.2,0.2C530.1,88.4,530.3,89,530.3,89.7z M528,93.6l0.7-0.7l0.7,0.7l-0.7,0.7L528,93.6z M528.9,95.2l0.7-0.7l0.7,0.7
		l-0.7,0.7L528.9,95.2z M529.7,93.6l0.7-0.7l0.7,0.7l-0.7,0.7L529.7,93.6z" id="PATH_113" class="area" title=""></path>
</g>
<g id="G_114" class="area" title="">
	<path d="M533.1,182h-0.4c-0.4,0-0.7-0.1-1-0.4c-0.2-0.2-0.4-0.4-0.6-0.8c-0.2,0.4-0.5,0.7-0.8,0.9c-0.4,0.2-0.9,0.3-1.7,0.3
		c-1.4,0-2.1-0.5-2.1-1.5c0-0.3,0.1-0.7,0.3-1c0.1-0.1,0.1-0.2,0.2-0.2c0.1,0,0.1,0.1,0.1,0.2c0,0.1,0,0.1,0,0.3c0,0.1,0,0.2,0,0.3
		c0,0.6,0.5,0.9,1.5,0.9c1.4,0,2.1-0.3,2.1-0.8c0-0.3-0.4-1.4-1.2-3.3l0.4-0.8c0.1-0.1,0.1-0.2,0.1-0.2c0,0,0.1,0.1,0.1,0.2
		c0.3,0.8,0.8,2,1.4,3.6c0.3,0.8,0.7,1.2,1.3,1.2h0.3V182z" id="PATH_115" class="area" title=""></path>
	<path d="M535.5,180c0,1.3-0.7,2-2,2h-0.8v-1.2h0.7c1,0,1.5-0.2,1.5-0.5c0-0.3-0.2-0.7-0.7-1.2l0.4-1c0-0.1,0.1-0.1,0.1-0.1
		s0.1,0.1,0.2,0.2C535.3,178.7,535.5,179.4,535.5,180z M535.4,175.5l-0.8,0.8l-0.8-0.8l0.8-0.8L535.4,175.5z" id="PATH_116" class="area" title=""></path>
	<path d="M540.6,181.6c0,1.5-0.5,2.8-1.5,3.8c-0.3,0.3-0.5,0.5-0.6,0.5c-0.6,0-1.2-0.1-1.9-0.2c-0.3,0-0.4-0.1-0.4-0.1
		c0,0,0.1-0.1,0.4-0.2c0.8-0.2,1.6-0.7,2.3-1.3c0.3-0.3,0.6-0.5,0.8-0.9c0.3-0.4,0.5-0.8,0.5-1.1v-0.3l-1.3,0
		c-0.9,0-1.4-0.4-1.4-1.1c0-0.5,0.1-1,0.4-1.6c0.3-0.6,0.7-1,1.1-1c0.6,0,1.1,0.4,1.4,1.3C540.5,180.1,540.6,180.8,540.6,181.6z
		 M539.9,180.8c0-0.3-0.1-0.6-0.3-0.9c-0.2-0.3-0.5-0.5-0.8-0.5c-0.2,0-0.4,0.1-0.5,0.2s-0.2,0.3-0.2,0.5c0,0.5,0.3,0.7,1,0.7
		C539.2,180.9,539.5,180.8,539.9,180.8z" id="PATH_117" class="area" title=""></path>
	<path d="M544.6,182h-0.7c-0.7,0-1.3-0.3-1.5-0.9c-0.2-0.4-0.3-1.1-0.3-1.9v-1.9c0-0.9-0.1-2.2-0.2-3.9l0.6-0.7
		c0.1-0.1,0.2-0.1,0.2,0c0.1,0.9,0.2,2.2,0.2,3.9v2.9c0,0.8,0.4,1.2,1.2,1.2h0.5V182z" id="PATH_118" class="area" title=""></path>
	<path d="M549.6,180c0,0.5,0,0.9-0.2,1.3c-0.2,0.5-0.5,0.8-0.8,0.8c-0.5,0-1.3-0.3-2.3-1c-0.3,0.4-0.5,0.6-0.6,0.7
		c-0.3,0.2-0.6,0.3-1,0.3h-0.5v-1.2h0.7c0.4,0,0.8-0.2,1.2-0.7c0.2-0.2,0.5-0.7,0.9-1.3c0.3-0.5,0.7-0.7,1-0.7
		c0.5,0,0.9,0.2,1.2,0.7C549.4,179.3,549.5,179.6,549.6,180z M549,180.7c0-0.3-0.1-0.6-0.3-1c-0.2-0.4-0.5-0.6-0.8-0.6
		c-0.3,0-0.6,0.3-1,0.9c0.2,0.2,0.5,0.4,0.9,0.6c0.4,0.2,0.8,0.3,1,0.3C548.9,181,549,180.9,549,180.7z" id="PATH_119" class="area" title=""></path>
	<path d="M555.7,179.9c0,1.4-0.9,2.1-2.8,2.1c-0.7,0-1.2-0.1-1.5-0.3c-0.4-0.2-0.6-0.7-0.6-1.3c0-0.3,0.1-0.6,0.2-0.9
		c0.1-0.1,0.1-0.2,0.2-0.2c0.1,0,0.1,0.1,0.1,0.3c0,0.1,0,0.2,0,0.3c0,0.4,0.2,0.7,0.6,0.8c0.2,0.1,0.6,0.1,1.1,0.1
		c1.5,0,2.2-0.2,2.2-0.7c0-0.7-0.9-1.7-2.6-2.9l0.3-1c0-0.1,0.1-0.1,0.1-0.1c0,0,0.1,0,0.2,0.1C554.8,177.5,555.7,178.8,555.7,179.9
		z" id="PATH_120" class="area" title=""></path>
</g>
<g id="G_121" class="area" title="">
	<path d="M673.8,143.4c0,0.7-0.2,1.2-0.6,1.6c-0.4,0.4-1,0.5-1.6,0.5c-0.4,0-0.8-0.1-1.1-0.4c-0.3-0.3-0.5-0.6-0.5-1
		c0-0.5,0.2-1,0.6-1.7c0.3-0.6,0.7-1.1,1.1-1.5C673.1,141.6,673.8,142.4,673.8,143.4z M673.2,143.8c0-0.3-0.2-0.6-0.7-1
		c-0.4-0.4-0.7-0.6-1.1-0.7c-0.5,0.7-0.8,1.2-0.8,1.6c0,0.2,0.1,0.4,0.4,0.6c0.2,0.1,0.4,0.2,0.7,0.2c0.4,0,0.8-0.1,1.1-0.2
		C673.1,144,673.2,143.9,673.2,143.8z" id="PATH_122" class="area" title=""></path>
	<path d="M680,145.5h-1.1c-0.1,1.4-0.6,2.5-1.6,3.5c-0.3,0.3-0.5,0.5-0.6,0.5c-0.5,0-1.2-0.1-1.9-0.2c-0.2,0-0.4-0.1-0.4-0.1
		s0.1-0.1,0.4-0.2c0.8-0.2,1.6-0.7,2.3-1.2c0.3-0.3,0.6-0.5,0.8-0.9c0.3-0.4,0.5-0.8,0.5-1.1v-0.3h-1.3c-1,0-1.4-0.4-1.4-1.2
		c0-0.5,0.1-1,0.4-1.6c0.3-0.6,0.7-1,1.1-1c0.5,0,0.9,0.3,1.2,1c0.2,0.5,0.4,1,0.4,1.6h1.1V145.5z M678.2,144.3
		c0-0.3-0.1-0.6-0.3-0.9c-0.2-0.4-0.5-0.5-0.8-0.5c-0.2,0-0.4,0.1-0.5,0.2s-0.2,0.3-0.2,0.6c0,0.5,0.4,0.7,1.2,0.7
		C677.7,144.4,677.9,144.3,678.2,144.3z" id="PATH_123" class="area" title=""></path>
	<path d="M686.2,136.2c0,0.2-0.2,0.6-0.4,1.1l-2.5,0.8c-1.1,0.4-1.9,0.7-2.3,0.9c0.8,0.8,1.3,1.4,1.6,1.7c0.5,0.7,0.8,1.3,0.9,2
		c0,0.5,0,1-0.2,1.4c-0.3,0.9-1.4,1.3-3.1,1.3h-0.5v-1.2h0.6c0.8,0,1.4,0,1.7-0.1c0.7-0.2,1.1-0.5,1.1-1c0-0.7-0.5-1.5-1.6-2.5
		l-0.1,0.2c-0.1-0.1-0.3-0.3-0.5-0.6c-0.3-0.3-0.4-0.6-0.4-0.6c0-0.2,0-0.4,0.1-0.8c0.1-0.4,0.2-0.6,0.3-0.7
		c0.1-0.1,0.8-0.4,2.1-0.8C684.1,136.9,685.3,136.5,686.2,136.2z" id="PATH_124" class="area" title=""></path>
	<path d="M690.8,145.6c0,1-0.3,1.9-0.9,2.8c-0.5,0.7-1,1.1-1.3,1.1c-0.8,0-1.4,0-2-0.1c-0.2,0-0.3-0.1-0.3-0.1s0.1-0.1,0.3-0.1
		c0.8-0.2,1.6-0.6,2.4-1.2c0.8-0.7,1.3-1.4,1.3-2.1c0-0.4-0.3-1-1-1.7l0.5-0.9c0-0.1,0.1-0.1,0.1-0.1c0,0,0.1,0.1,0.1,0.1
		c0.2,0.3,0.5,0.7,0.6,1.2C690.7,144.8,690.8,145.2,690.8,145.6z M690.1,140.2l-0.8,0.8l-0.8-0.8l0.8-0.8L690.1,140.2z" id="PATH_125" class="area" title=""></path>
	<path d="M696,145.1c0,1.5-0.5,2.8-1.5,3.8c-0.3,0.3-0.5,0.5-0.6,0.5c-0.6,0-1.2-0.1-1.9-0.2c-0.3,0-0.4-0.1-0.4-0.1
		c0,0,0.1-0.1,0.4-0.2c0.8-0.2,1.6-0.7,2.3-1.3c0.3-0.3,0.6-0.5,0.8-0.9c0.3-0.4,0.5-0.8,0.5-1.1v-0.3l-1.3,0
		c-0.9,0-1.4-0.4-1.4-1.1c0-0.5,0.1-1,0.4-1.6c0.3-0.6,0.7-1,1.1-1c0.6,0,1.1,0.4,1.4,1.3C695.9,143.6,696,144.3,696,145.1z
		 M695.3,144.3c0-0.3-0.1-0.6-0.3-0.9c-0.2-0.3-0.5-0.5-0.8-0.5c-0.2,0-0.4,0.1-0.5,0.2s-0.2,0.3-0.2,0.5c0,0.5,0.3,0.7,1,0.7
		C694.6,144.4,694.9,144.3,695.3,144.3z" id="PATH_126" class="area" title=""></path>
	<path d="M702.2,145.5h-0.4c-0.4,0-0.6-0.1-0.8-0.2c0,0.1,0,0.2,0,0.3c0,0.9-0.3,1.8-0.9,2.7c-0.5,0.8-1,1.1-1.3,1.1
		c-0.8,0-1.4,0-2-0.1c-0.2,0-0.3-0.1-0.3-0.1s0.1-0.1,0.3-0.1c0.8-0.2,1.6-0.6,2.4-1.2c0.8-0.7,1.3-1.4,1.3-2.1c0-0.4-0.3-1-1-1.7
		l0.5-0.9c0-0.1,0.1-0.1,0.1-0.1c0,0,0.1,0.1,0.1,0.1c0.3,0.4,0.5,0.7,0.7,0.8c0.3,0.2,0.7,0.4,1.1,0.4h0.3V145.5z" id="PATH_127" class="area" title=""></path>
	<path d="M707.1,145.5h-0.8c-0.9,0-1.5-0.3-1.9-0.9c-0.3,0.6-1,0.9-2.1,0.9h-0.6v-1.2h0.9c1,0,1.5-0.4,1.6-1.1
		c0-0.3,0.1-0.5,0.2-0.5s0.2,0.2,0.2,0.5c0.1,0.7,0.6,1.1,1.5,1.1h0.9V145.5z M703.8,147.7l-0.8,0.8l-0.8-0.8l0.8-0.8L703.8,147.7z
		 M705.6,147.7l-0.8,0.8l-0.8-0.8l0.8-0.8L705.6,147.7z" id="PATH_128" class="area" title=""></path>
	<path d="M711,142.7v0.4c0,0.7-0.1,1.1-0.3,1.4c-0.5,0.7-1.3,1-2.6,1h-1.4v-1.2h1c1.7,0,2.6-0.3,2.8-0.8c0-0.1,0-0.1,0-0.2
		c0-0.2,0-0.3-0.1-0.4c-0.4,0.1-0.9,0.1-1.3,0.1c-0.9,0-1.4-0.4-1.4-1.2c0-0.5,0.1-1.1,0.4-1.6c0.3-0.6,0.7-0.9,1.2-0.9
		c0.4,0,0.8,0.3,1.1,0.8C710.8,140.8,711,141.7,711,142.7z M709.9,137.2l-0.8,0.8l-0.8-0.8l0.8-0.8L709.9,137.2z M710.3,141.8
		c0-0.3-0.1-0.6-0.3-0.9c-0.2-0.3-0.5-0.4-0.8-0.4c-0.2,0-0.4,0.1-0.6,0.2s-0.2,0.3-0.2,0.5c0,0.4,0.3,0.6,1,0.6
		C709.6,141.9,709.9,141.9,710.3,141.8z" id="PATH_129" class="area" title=""></path>
</g>
</svg>


