<?xml version="1.0" encoding="utf-8"?>
<!-- Generator: Adobe Illustrator 27.4.1, SVG Export Plug-In . SVG Version: 6.00 Build 0)  -->
<svg version="1.1" id="Layer_1" xmlns="http://www.w3.org/2000/svg" xmlns:xlink="http://www.w3.org/1999/xlink" x="0px" y="0px"
	 viewBox="0 0 1920 1080" style="enable-background:new 0 0 1920 1080;" xml:space="preserve">
<style type="text/css">
	.st0{fill:#FDFAD6;stroke:#020202;stroke-width:0.3963;stroke-miterlimit:19.8165;}
	.st1{fill:#FBD1D1;stroke:#020202;stroke-width:0.3963;stroke-miterlimit:19.8165;}
	.st2{fill:#E8D0E5;stroke:#020202;stroke-width:0.3963;stroke-miterlimit:19.8165;}
	.st3{fill:#DBECCB;stroke:#020202;stroke-width:0.3963;stroke-miterlimit:19.8165;}
	.st4{enable-background:new    ;}
	.st5{fill:#040404;}
	.st6{font-family:'AdobeArabic-Regular';}
	.st7{font-size:34px;}
</style>
<path id="_x33_15" class="st0" d="M671.4,206.5c7.9-15.7,16.8-30.3,32.5-32.3c-2-1.8-3.8-3-4.6-3.6c-2.8-1-15.5-5.5-20.4-10.5
	c-3-3-4.8-7.9-6.9-14.3c-2-5.7-4.4-12.1-8.1-18.8c-5.5-10.1-8.1-29.9-9.3-41.8l-25.8-9.7c-0.6-0.2-12.1-5.2-23.8-15.3
	c-5-4.2-9.5-7.7-13.7-11.1c-5.5-4.4-10.1-7.9-14.1-11.7c-2.4,1.8-6.7,12.9-8.3,25.4c-1.6,12.3-11.9,16.8-17.4,17.6l2.6,4.6l4.4,5.7
	l4.4,3.4l-1.6,8.9l6.7,18.8l-3.4,11.7l4,2l2,2.4l-1.4,2l-4.4,0.6l1,3.4l0.4,6.3l1,4l1,1.4l10.7,11.7l12.1,7.3l5.4,4.8l6.7,10.1
	l12.7,24.2l7.7,11.7l1.6,1.8c9.9-6.3,19.2-15.7,29.7-19C660.7,206.5,668.4,212.6,671.4,206.5z"/>
<path id="_x33_17" class="st1" d="M778.6,384c-15.3-7.7-27.5-16.8-26-33.7c0-4.6,12.3-7.7,13.9-12.3c3-6.1-10.7-9.1-6.1-13.9
	c13.9-13.9,12.3-29.1,9.1-46c-3-7.7-12.3-13.9-7.7-18.4c4.6-7.7,7.7-12.3,12.3-19.8c5.4-8.1,21.4-14.9,19-27
	c-5.7,0.2-12.1,0.8-18.4,1.2c-11.5,0.8-23.4,1.8-34.7,1.8c-13.9,0-20.2-1.4-23.6-5c-2.8-3.2-2.4-7.1-2-10.9c0.4-2.6,0.6-5.7,0-8.9
	c-1.2-7.7-6.5-13.7-10.5-17.2c-15.9,2-24.8,16.6-32.5,32.3c-3,6.1-10.7,0-16.8,1.6c-10.5,3.4-19.8,12.7-29.7,19l6.1,6.7l4,6.3l2,6.7
	l2.4,3.4l17,6.7l9.1,9.7l4.4,6.3l2,5.7l2.4,4.4l15.1,12.7l8.3,12.7l1.4,4v-10.1l4.4,2.4l5.7,7.7l3.4,6.7l2.4,9.1l1.4,13.1v13.1
	l-2,8.3l3.4,6.3l2,2l2.4,1l-0.6,2.4l-1.4,13.7l-4-4.8l-3,2.4l-2,5.7l-2,4.4l-2.4,4.4l-1,4l1,8.1l2.4,9.1l6.3,5.7l0,0
	c2.2-0.4,4.2-1,6.1-1.8C744.9,416.1,752.6,388.6,778.6,384z"/>
<path id="_x32_96" class="st2" d="M827.5,491.3c3.2-1.6,6.1,1.6,7.7,1.6c3,4.6-6.1,10.7-4.6,12.3c24.6,9.1,32.1-19.8,44.4-33.7
	c4.6-7.7-13.9-16.8-10.7-29.1c-3,0-3-6.1-6.1-6.1c-10.7,1.6-21.4-1.6-26-10.7c-1.6-6.1,9.1-13.9,4.6-16.8
	c-10.7-9.1-7.7-21.4-18.4-27.5c-6.1-4.6-4.6,10.7-10.7,12.3c-11.7,3.6-21.4-5.4-32.1-8.5c-23.6,6.1-31.5,31.9-53.5,40.6
	c-2,0.8-4.2,1.4-6.1,1.8l7.7,1l7.3-4.8l5.4-1l22.2-1l6.7,1l1,2l0.4,2.4l0.4,5.7l1,1.4l2.4-0.6l2.4-1.4l2-0.6l3.4,3l2,3.4l2.4,9.7
	l5.4-1.4l2.4,4.8l1,7.7l-1,7.3l-2,4l-5.7,5.4l-2,2.4l-0.6,3.4l1,3l0.4,2.4l-3,3l-3-5.7l-4.4-5.7l-5.7-4.8l-5.4-2.4l-5.7,4l-1,8.3
	l1.4,9.1l2.4,6.3l13.1,17.4l2.4,6.7l2.4,3.4l5.4,1.4l11.7,1l12.1,3l0.4,0.2C812.7,519.8,814.6,501.2,827.5,491.3z"/>
<path id="_x33_12" class="st2" d="M1242.5,842.4c0-4.6-10.7-16.8-18.6-25.8c-6.1-6.9-11.9-13.5-14.9-18.4
	c-3.8-6.3-16.8-12.7-29.3-18.8c-8.9-4.4-18.4-8.9-25.4-14.1c-9.9-7.1-19.6-24-26.8-39.6c-2.4,1-4.6,2.6-6.1,4.4
	c-12.3,6.1-19.8,15.3-35.3,12.3c-1.6,4.6-3,7.7-6.1,10.7c-6.1,3-10.7-4.6-12.3-3c-12.3,18.4,4.6,39.8,24.6,47.4
	c3,1.6-6.1,7.7-4.6,12.3c7.7,10.7,26,0,29.1,16.8c1.6,3.2,13.9-1.6,16.8,3.2c3,4.6,3,12.3,6.1,18.4c4.6,7.7,16.8,6.1,21.4,19.8
	c1.6,4.6,10.7,4.6,12.3,9.1c6.1,6.1,7.7,15.3,16.8,18.4c12.3,4.6,26,6.1,38.2,12.3c9.7,5,25.2,11.9,38.8,12.7
	c-6.5-6.9-12.3-13.5-14.9-17.8C1244.5,888.6,1242.5,849.1,1242.5,842.4z"/>
<path id="_x31_79" class="st0" d="M965.4,561.6c-3-6.1,4.6-13.9,0-18.4c-6.1-4.6-13.9-6.1-16.8-13.9c-1.6-7.7,0-16.8-4.6-19.8
	c-12.3-13.9-15.3-27.5-16.8-44.4c-7.7,4.6-18.4-1.6-18.4-4.6c0-31.5-24.6-20.2-45-18.4c0.2,0,0.4,0.2,0.6,0.2
	c-3,12.3,15.3,21.4,10.7,29.1c-12.3,13.9-19.8,42.8-44.4,33.7c-1.6-1.6,7.7-7.7,4.6-12.3c-1.6,0-4.6-3-7.7-1.6
	c-13.1,10.1-14.9,28.7-22.8,39.8l8.9,5.5l7.3,8.7l6.3,12.1l3.4,14.5l0.4,42.6l2.4,10.7l17,44.6l2.4,3.4l9.1,10.1l10.1,16.4l3.4,4.4
	l7.1,6.7c5-3.6,8.5-7.9,9.1-13.1c0-10.7-9.1-21.4-13.9-30.5c-13.9-21.4-19.8-42.8-16.8-69c1.6-12.3,9.1-23,18.4-26
	c12.3-4.6,23-12.3,35.3-13.9c23-4.6,29.1,21.4,48.9,27.5c10.3,2.6,20.8-4.8,31.1-5.2C984.5,575.3,969.8,572.1,965.4,561.6z"/>
<path id="_x33_04" class="st3" d="M1077.8,554.1c0-0.8,0-1.6,0-2.6c0.2-9.3,0.8-31.5-13.5-45.8c-9.5-9.5-25-41.8-39.8-72.7
	c-11.3-23.6-23-48.2-28.1-53.1c-12.7-12.7-27.5-35.3-34.5-46.8c-6.5-11.1-37.1-29.9-55.5-32.1c-20.8-2.6-32.3-18-32.3-27.7
	c0-5.4-4.6-30.7-6.7-42.8c-9.7-1.8-40.8-7.9-49.9-14.7c-3.4-2.6-13.1-2.8-24.8-2.2c2.4,11.9-13.7,18.8-19,27
	c-4.6,7.7-7.7,12.3-12.3,19.8c-4.6,4.6,4.6,10.7,7.7,18.4c3,16.8,4.6,32.1-9.1,46c-4.6,4.6,9.1,7.7,6.1,13.9
	c-1.6,4.6-13.9,7.7-13.9,12.3c-1.6,16.8,10.7,26,26,33.7c-1.2,0.2-2.2,0.4-3.2,0.8c10.7,3.2,20.6,11.9,32.3,8.5
	c6.1-1.6,4.6-16.8,10.7-12.3c10.7,6.1,7.7,18.4,18.4,27.5c4.6,3-6.1,10.7-4.6,16.8c4.6,9.1,15.3,12.3,26,10.7c2.8,0,3,5.4,5.5,5.9
	c20.6-1.6,45-13.1,45,18.4c0,3,10.7,9.1,18.4,4.6c1.6,16.8,4.6,30.5,16.8,44.4c4.6,3,3,12.3,4.6,19.8c3,7.7,10.7,9.1,16.8,13.9
	c4.6,4.6-3,12.3,0,18.4c4.6,10.5,19,13.7,29.7,19.4c1.8,0,3.8,0,5.5,0.6c7.7,3,12.3,7.7,19.8,9.1c22.2,1.6,42.8-4.2,63.4-11.5
	C1080,565.2,1077.8,556.2,1077.8,554.1z"/>
<path id="_x33_07" class="st1" d="M1116.6,695.4c-1-5-7.9-29.5-15.5-55.5c-7.1-25.2-13.1-45.8-17.2-60.6
	c-20.6,7.3-41.4,12.9-63.4,11.5c-7.7-1.6-12.3-6.1-19.8-9.1c-12.3-3-24.6,7.7-36.7,4.6c-19.8-6.1-26-32.1-48.9-27.5
	c-12.3,1.6-23,9.1-35.3,13.9c-9.1,3-16.8,13.9-18.4,26c-3,26,3,47.6,16.8,69c4.6,9.1,13.9,19.8,13.9,30.5c-0.8,5.2-4.4,9.5-9.1,13.1
	l2.6,2.4l5.7,9.7l0.4,9.1l-6.3,17.8l0.2,2.4c4-1.6,8.3-2.2,12.7-1.2c3,1.6,6.1,4.6,7.7,9.1c10.7-6.1,15.3-4.6,23,6.1
	c1.6,4.6,1.6-10.7,10.7-7.7c3,1.6,1.6,7.7,6.1,9.1c1.6-4.6,3.2-9.1,6.1-9.1c4.6-1.6,10.7,6.1,13.9,1.6c9.1-9.1,16.8-23,32.1-19.8
	c0-7.7,9.1-16.8,13.9-12.3c10.7,9.1,12.3,26,27.5,30.7c10.7,3,12.3-9.1,19.8-12.3c3.4,0,6.5,0.8,9.3,3c1.6-1,6.1,6.1,12.1,3.2
	c3-3,4.6-6.1,6.1-10.7c15.3,3.2,23-6.1,35.3-12.3c1.6-1.8,3.8-3.4,6.1-4.4C1121.8,713,1117.8,700.9,1116.6,695.4z"/>
<path id="_x33_09" class="st3" d="M1133.7,829.5c-3-4.6-15.3,0-16.8-3.2c-3.2-16.8-21.4-6.1-29.1-16.8c-1.6-4.6,7.7-10.7,4.6-12.3
	c-19.8-7.7-36.7-29.1-24.6-47.4h0.2c-2.8-2.2-5.9-3-9.3-3c-7.7,3-9.1,15.3-19.8,12.3c-15.3-4.6-16.8-21.4-27.5-30.7
	c-4.6-4.6-13.9,4.6-13.9,12.3c-15.3-3.2-23,10.7-32.1,19.8c-3,4.6-9.1-3-13.9-1.6c-3.2,0-4.6,4.6-6.1,9.1c-4.6-1.6-3-7.7-6.1-9.1
	c-9.1-3.2-9.1,12.3-10.7,7.7c-7.7-10.7-12.3-12.3-23-6.1c-1.6-4.6-4.6-7.7-7.7-9.1c-4.4-0.8-8.5-0.2-12.7,1.2l0.4,6.3l1,4.8l2.4,3.4
	l19.8,19.8l5.7,4.4l13.1,4l7.3,3.4l3,5.4l1,8.3l3,6.3l3.4,4.8l13.1,14.1l5.7,4.8l7.7,2.4l1.4,2l1,2.4l0.4,3l1.4,2.4l3.4,1l30.9,2.4
	l5.7-0.4l16.4-4h14.1l6.7,2l5.4,4l4.8,1.4l19.4-3l13.5,2l4.8,2.2c7.3-7.7,15.7-12.5,27.5-12.5c3,0,4.6-4.6,7.7-6.1c0.4,0,1,0,1.4,0
	C1136.7,838.2,1136.1,833.1,1133.7,829.5z"/>
<path id="_x33_13" class="st0" d="M1267.7,920.3c-13.7-0.6-29.1-7.7-38.8-12.7c-12.3-6.1-26-7.7-38.2-12.3
	c-9.1-3-10.7-12.3-16.8-18.4c-1.6-4.6-10.7-4.6-12.3-9.1c-4.6-13.9-16.8-12.3-21.4-19.8c-0.8-1.4-1.2-3-1.8-4.6c-0.4,0-1,0-1.4,0
	c-3,1.6-4.6,6.1-7.7,6.1c-11.9,0-20,4.6-27.5,12.5l6.9,3.2l10.7,7.3l33.5,32.5l10.7,5.7l50.3,11.7l10.7,4.8l9.1,7.7l21.2,22.8
	l1.4,2.4c4.2-0.4,8.1-1.6,10.7-5c3.8-7.5,3.4-20.2,9.9-25.4C1273.8,926.6,1270.6,923.4,1267.7,920.3z"/>
<path id="_x31_01" class="st1" d="M1358.8,1009.1c-3.2-4.6-6.3-8.9-8.5-10.5c-5.4-4.2-8.5-8.9-11.7-14.3c-2.2-3.4-4.2-6.9-7.3-10.7
	c-7.5-9.5-23.2-19.4-35.3-25.4l-0.8-0.6c-0.8-0.6-9.1-8.5-18.4-17.8c-6.5,5.2-6.1,17.8-9.9,25.4c-2.6,3.4-6.5,4.6-10.7,5l0.6,1
	l4.4,11.1l2.4,4l4.4,4l11.7,4.4l4.4,4.4l2.4,7.7l-3.4,3.4l-6.3,0.4h-5.4l-5.7,0.6l-4.8,2l-2.4,4.4l0.4,6.7l5.7,6.7l21.8,10.1
	l15.1,6.7l8.9,6.3c0.2-1.4,1-2.6,2.4-3l55.7-19.2C1365,1017.8,1361.8,1013.2,1358.8,1009.1z"/>
<g id="G_13" class="st4">
	<path id="PATH_14" class="st5" d="M727.5,450.4l-0.8,2"/>
</g>
<g id="G_15">
	<path id="PATH_16" d="M614.3,138.7h-1c-1.2,0-2.2-0.2-2.8-0.8c0,0.2,0.2,0.6,0.2,1c0,2-0.6,3.2-2,3.2c-1.2,0-2-0.6-2.8-1.8
		c-0.6-1-0.8-2.2-0.8-3.4c0-0.2,0-0.6,0-0.8c-0.2,0-0.4,0-0.6,0c-1.4,0-2.2,0.4-2.8,1c0.4,3.2,0.6,5.5,0.6,7.1
		c0,0.8-0.2,1.6-0.6,2.8c-0.2,0.4-0.2,0.6-0.4,0.6c0,0-0.2-0.2-0.2-0.8l-1-9.1c0-0.4,0.2-1,0.6-1.6c0.4-0.6,0.8-1,1.2-1.4
		c0.2-0.2,0.8-0.4,1.6-0.6c0.6-0.2,1.2-0.2,1.6-0.2c0.2,0,0.2,0,0.4,0l0.2-1.2c0-0.2,0.2-0.4,0.2-0.4s0.2,0,0.4,0.2
		c1.6,1.4,2.8,2.4,3.4,2.8c1.2,0.8,2.2,1.2,3.2,1.2h1.2v2.2H614.3z M609.7,138.5c0-0.6-0.4-1.2-1.2-2c-0.2-0.2-0.8-0.8-2.2-2
		c0,0.4,0,0.8,0,1.2c0,1,0.2,1.8,0.6,2.4c0.4,1,1,1.4,1.8,1.4C609.3,139.7,609.7,139.3,609.7,138.5z"/>
	<path id="PATH_17" d="M621.6,138.7h-0.8c-1.8,0-3-0.6-3.6-2c-0.2,0.6-0.6,1-1.2,1.4c-0.6,0.4-1.2,0.6-1.8,0.6h-0.8v-2.4h0.8
		c1.6,0,2.4-0.6,2.4-2v-6.9c0-2.6,0-4.6-0.2-5.9l1.8-1.4v13.3c0,2,0.8,3,2.6,3h0.8V138.7z"/>
	<path id="PATH_18" d="M626.4,134.8c0,2.6-1.4,4-4,4h-1.6v-2.4h1.4c2,0,3-0.4,3-1s-0.4-1.4-1.4-2.4l0.8-2c0-0.2,0.2-0.2,0.2-0.2
		s0.2,0.2,0.4,0.4C626,132.2,626.4,133.6,626.4,134.8z M624.8,143.1l-1.6,1.6l-1.6-1.6l1.6-1.6L624.8,143.1z M628.2,143.1l-1.6,1.6
		l-1.6-1.6l1.6-1.6L628.2,143.1z"/>
	<path id="PATH_19" d="M640.3,134.6c0,2.8-1.8,4.2-5.5,4.2c-1.4,0-2.4-0.2-3-0.6c-0.8-0.4-1.2-1.4-1.2-2.6c0-0.6,0.2-1.2,0.4-1.8
		c0.2-0.2,0.2-0.4,0.4-0.4c0.2,0,0.2,0.2,0.2,0.6c0,0.2,0,0.4,0,0.6c0,0.8,0.4,1.4,1.2,1.6c0.4,0.2,1.2,0.2,2.2,0.2
		c3,0,4.4-0.4,4.4-1.4c0-1.4-1.8-3.4-5.2-5.7l0.6-2c0-0.2,0.2-0.2,0.2-0.2s0.2,0,0.4,0.2C638.7,129.8,640.3,132.4,640.3,134.6z"/>
</g>
<g id="G_20">
	<path id="PATH_21" d="M707.2,268.3c0,1.4-0.4,2.4-1.2,3.2s-2,1-3.2,1c-0.8,0-1.6-0.2-2.2-0.8c-0.6-0.6-1-1.2-1-2c0-1,0.4-2,1.2-3.4
		c0.6-1.2,1.4-2.2,2.2-3C705.9,264.7,707.2,266.3,707.2,268.3z M706.1,269.1c0-0.6-0.4-1.2-1.4-2c-0.8-0.8-1.4-1.2-2.2-1.4
		c-1,1.4-1.6,2.4-1.6,3.2c0,0.4,0.2,0.8,0.8,1.2c0.4,0.2,0.8,0.4,1.4,0.4c0.8,0,1.6-0.2,2.2-0.4
		C705.9,269.5,706.1,269.3,706.1,269.1z"/>
	<path id="PATH_22" d="M717.3,271.7c0,3-1,5.5-3,7.5c-0.6,0.6-1,1-1.2,1c-1.2,0-2.4-0.2-3.8-0.4c-0.6,0-0.8-0.2-0.8-0.2
		s0.2-0.2,0.8-0.4c1.6-0.4,3.2-1.4,4.6-2.6c0.6-0.6,1.2-1,1.6-1.8c0.6-0.8,1-1.6,1-2.2v-0.6H714c-1.8,0-2.8-0.8-2.8-2.2
		c0-1,0.2-2,0.8-3.2c0.6-1.2,1.4-2,2.2-2c1.2,0,2.2,0.8,2.8,2.6C717.1,268.7,717.3,270.1,717.3,271.7z M716,270.1
		c0-0.6-0.2-1.2-0.6-1.8c-0.4-0.6-1-1-1.6-1c-0.4,0-0.8,0.2-1,0.4c-0.4,0.4-0.4,0.6-0.4,1c0,1,0.6,1.4,2,1.4
		C714.6,270.3,715.2,270.1,716,270.1z"/>
	<path id="PATH_23" d="M725.3,272.5h-1.4c-1.4,0-2.6-0.6-3-1.8c-0.4-0.8-0.6-2.2-0.6-3.8v-3.8c0-1.8-0.2-4.4-0.4-7.7l1.2-1.4
		c0.2-0.2,0.4-0.2,0.4,0c0.2,1.8,0.4,4.4,0.4,7.7v5.7c0,1.6,0.8,2.4,2.4,2.4h1V272.5z"/>
	<path id="PATH_24" d="M735,272.5h-1.4c-1.8,0-3-0.6-3.8-1.8c-0.6,1.2-2,1.8-4.2,1.8h-1.2v-2.4h1.8c2,0,3-0.8,3.2-2.2
		c0-0.6,0.2-1,0.4-1s0.4,0.4,0.4,1c0.2,1.4,1.2,2.2,3,2.2h1.8V272.5L735,272.5z M731,262.2l-1.6,1.6l-1.6-1.6l1.6-1.6L731,262.2z"/>
	<path id="PATH_25" d="M746.9,256.4c0,0.4-0.2,1-0.6,2.2c-2.4,0.6-5.4,1.6-8.7,2.6c2.4,2.4,3.8,4.4,4,5.7c0.2,1,0,2-0.4,3
		c-0.4,1-1.2,1.6-2.2,2c-0.8,0.4-2.2,0.4-4,0.4h-0.8v-2.4h0.6c3.8,0,5.7-0.6,5.7-2c0-1-1-2.6-3.2-4.6l-0.2,0.6
		c-0.2-0.2-0.6-0.6-1-1.2c-0.6-0.6-0.8-1-0.8-1.2c0-0.6,0.2-1.2,0.8-1.8c0.2-0.2,1.4-0.6,4-1.4C742.7,257.6,745.1,257,746.9,256.4z
		 M746.5,253.5l-0.4,1.4l-9.7,3.2l0.4-1.4L746.5,253.5z"/>
</g>
<g id="G_26">
	<path id="PATH_27" d="M853.1,368.4c0.2,0.6,0.2,1.2,0.2,1.8c0,0.8-0.2,1.4-0.4,2.2c-0.6,1.4-1.6,2.6-3.6,3.4c-1.6,0.6-3.2,1-5,1
		c-1.8,0-3.2-0.4-4.4-1.2c-1.2-1-1.8-2.2-1.8-4c0-1,0.2-1.8,0.6-3c0.4-0.8,0.6-1.4,1-1.8c0.2-0.2,0.4-0.2,0.4-0.2
		c0.2,0,0.2,0,0.2,0.2c0,0,0,0.2,0,0.4c-0.6,1.2-0.8,2.4-0.8,3.4s0.4,1.8,1,2.6c0.8,1,2.2,1.4,4,1.4c2,0,3.8-0.4,5.2-1
		c1.2-0.6,2-1.2,2.4-2c0.2-0.2,0.2-0.6,0.2-0.8c0-0.6-0.2-1.2-0.4-2c-0.2-0.6-0.8-1.6-1.8-3.2l0.8-1.6c0.2-0.2,0.2-0.4,0.2-0.4
		s0.2,0,0.2,0.2C852.3,365.2,852.9,366.8,853.1,368.4z M847.3,359.7l-1.6,1.6l-1.6-1.6l1.6-1.6L847.3,359.7z"/>
	<path id="PATH_28" d="M861.2,368.6h-1.4c-1.4,0-2.6-0.6-3-1.8c-0.4-0.8-0.6-2.2-0.6-3.8v-3.8c0-1.8-0.2-4.4-0.4-7.7l1.2-1.4
		c0.2-0.2,0.4-0.2,0.4,0c0.2,1.8,0.4,4.4,0.4,7.7v5.7c0,1.6,0.8,2.4,2.4,2.4h1V368.6z"/>
	<path id="PATH_29" d="M870.9,368.6h-1.6c-1.8,0-3-0.6-3.8-1.8c-0.6,1.2-2,1.8-4.2,1.8h-1v-2.4h1.8c2,0,3-0.8,3.2-2.2
		c0-0.6,0.2-1,0.4-1c0.2,0,0.4,0.4,0.4,1c0.2,1.4,1.2,2.2,3,2.2h1.8V368.6L870.9,368.6z M864.2,357.1l-1.6,1.6l-1.6-1.6l1.6-1.6
		L864.2,357.1z M867.6,357.1l-1.6,1.6l-1.6-1.6l1.6-1.6L867.6,357.1z"/>
	<path id="PATH_30" d="M889.2,368.6h-1c-1.4,0-2.2-0.6-2.8-1.6c-0.4,1.2-1.4,1.6-2.6,1.6c-1.2,0-2-0.6-2.6-1.6
		c-0.6,1.2-1.4,1.6-2.6,1.6c-1.4,0-2.4-0.6-3-1.6c-0.8,1.2-1.8,1.6-3.2,1.6h-1.4v-2.4h1.6c1.4,0,2.4-0.8,2.6-2.4
		c0-0.4,0.2-0.6,0.4-0.6c0.2,0,0.2,0.2,0.4,0.6c0.2,1.6,1,2.4,2.6,2.4c1.4,0,2.4-0.8,2.4-2.4c0-0.4,0.2-0.6,0.4-0.6
		c0.2,0,0.4,0.2,0.4,0.6c0.2,1.6,1,2.4,2,2.4c1.4,0,2.4-0.8,2.4-2.4c0-0.4,0.2-0.6,0.4-0.6c0.2,0,0.4,0.2,0.4,0.6
		c0.2,1.6,1,2.4,2.4,2.4h1.2v2.4H889.2z"/>
	<path id="PATH_31" d="M899.1,368.6h-1.6c-1.8,0-3-0.6-3.8-1.8c-0.6,1.2-2,1.8-4.2,1.8h-1.2v-2.4h1.8c2,0,3-0.8,3.2-2.2
		c0-0.6,0.2-1,0.4-1s0.4,0.4,0.4,1c0.2,1.4,1.2,2.2,3,2.2h1.8v2.4H899.1z M892.3,357.1l-1.6,1.6l-1.6-1.6l1.6-1.6L892.3,357.1z
		 M895.7,357.1l-1.6,1.6l-1.6-1.6l1.6-1.6L895.7,357.1z"/>
	<path id="PATH_32" d="M914.7,364.4c0,1.2-0.2,2.2-0.8,3c-0.6,0.8-1.6,1.4-2.6,1.4c-1.4,0-2.2-0.6-2.8-1.6c-0.8,1.2-1.6,1.6-2.8,1.6
		c-1.4,0-2.4-0.6-3-1.6c-0.8,1.2-1.8,1.6-3.2,1.6h-1.4v-2.4h1.6c1.4,0,2.4-0.8,2.6-2.4c0-0.4,0.2-0.6,0.4-0.6c0.2,0,0.2,0.2,0.4,0.6
		c0.2,1.6,1,2.4,2.6,2.4c0.8,0,1.6-0.2,2-0.6c0.2-0.4,0.4-0.8,0.6-1.6c0-0.4,0.2-0.6,0.4-0.6c0.2,0,0.2,0.2,0.4,0.6
		c0.2,1.6,1,2.4,2.4,2.4c1.6,0,2.2-0.4,2.2-1s-0.4-1.4-1.2-2.2l1-1.8c0.2-0.2,0.2-0.4,0.4-0.4c0.2,0,0.2,0.2,0.4,0.4
		C914.3,362.4,914.7,363.4,914.7,364.4z M908,357.1l-1.4,1.4l-1.4-1.4l1.4-1.4L908,357.1z M909.8,354.1l-1.4,1.4l-1.4-1.4l1.4-1.4
		L909.8,354.1z M911.5,357.1l-1.4,1.4l-1.4-1.4l1.4-1.4L911.5,357.1z"/>
	<path id="PATH_33" d="M926.8,364.4c0,2.8-1.8,4.2-5.5,4.2c-1.4,0-2.4-0.2-3-0.6c-0.8-0.4-1.2-1.4-1.2-2.6c0-0.6,0.2-1.2,0.4-1.8
		c0.2-0.2,0.2-0.4,0.4-0.4s0.2,0.2,0.2,0.6c0,0.2,0,0.4,0,0.6c0,0.8,0.4,1.4,1.2,1.6c0.4,0.2,1.2,0.2,2.2,0.2c3,0,4.4-0.4,4.4-1.4
		c0-1.4-1.8-3.4-5.2-5.7l0.6-2c0-0.2,0.2-0.2,0.2-0.2s0.2,0,0.4,0.2C925.2,359.7,926.8,362.2,926.8,364.4z"/>
</g>
<g id="G_34">
	<path id="PATH_35" d="M807.5,455.6h-0.8c-0.8,0-1.2-0.2-1.6-0.4c0,0.2,0,0.4,0,0.6c0,1.8-0.6,3.6-1.8,5.4c-1,1.6-2,2.2-2.6,2.2
		c-1.6,0-2.8,0-4-0.2c-0.4,0-0.6-0.2-0.6-0.2s0.2-0.2,0.6-0.2c1.6-0.4,3.2-1.2,4.8-2.4c1.6-1.4,2.6-2.8,2.6-4.2c0-0.8-0.6-2-2-3.4
		l1-1.8c0-0.2,0.2-0.2,0.2-0.2l0.2,0.2c0.6,0.8,1,1.4,1.4,1.6c0.6,0.4,1.4,0.8,2.2,0.8h0.6v2.2H807.5z"/>
	<path id="PATH_36" d="M819.8,455.6h-1c-0.8,0-1.6,0.2-2.2,0.4c-1,0.4-1.6,1-1.6,2c0,1.2,0.8,2.2,2.4,3.2l-1,2
		c-1.8-0.6-3.4-1.6-4.6-2.8c-1.6-1.4-2.4-3.2-2.4-5h-2.8V453h2.6c0-1.6,0.4-3.2,1.2-5.2c0.8-1.8,1.4-2.6,1.8-2.6s1,0.8,1.6,2.6
		c0.6,1.6,0.8,2.6,0.8,3.2c0,2.8-1.4,4.2-4.2,4.2c0.2,0.8,0.6,1.6,1.2,2.4c0.6,0.8,1.4,1.4,2.2,1.8c0-0.2,0-0.6,0-0.8
		c0-1.4,0.4-2.6,1-3.6c1-1.4,2.2-2.2,4-2.2h0.8v2.8H819.8z M813.9,452.4c0-0.4-0.2-1.2-0.6-2.2c-0.4-1.2-0.8-1.6-1.2-1.6
		c-0.2,0-0.6,0.4-1,1.4c-0.4,1-0.6,2.2-0.6,3.4C812.7,453.2,813.9,453,813.9,452.4z"/>
	<path id="PATH_37" d="M835.5,451.4c0,1.2-0.2,2.2-0.8,3c-0.6,0.8-1.6,1.4-2.6,1.4c-1.4,0-2.2-0.6-2.8-1.6c-0.8,1.2-1.6,1.6-2.8,1.6
		c-1.4,0-2.4-0.6-3-1.6c-0.8,1.2-1.8,1.6-3.2,1.6H819v-2.4h1.6c1.4,0,2.4-0.8,2.6-2.4c0-0.4,0.2-0.6,0.4-0.6c0.2,0,0.2,0.2,0.4,0.6
		c0.2,1.6,1,2.4,2.6,2.4c0.8,0,1.6-0.2,2-0.6c0.2-0.4,0.4-0.8,0.6-1.6c0-0.4,0.2-0.6,0.4-0.6c0.2,0,0.2,0.2,0.4,0.6
		c0.2,1.6,1,2.4,2.4,2.4c1.6,0,2.2-0.4,2.2-1c0-0.6-0.4-1.4-1.2-2.2l1-1.8c0.2-0.2,0.2-0.4,0.4-0.4c0.2,0,0.2,0.2,0.4,0.4
		C835.1,449.4,835.5,450.4,835.5,451.4z M828.7,444.1l-1.4,1.4l-1.4-1.4l1.4-1.4L828.7,444.1z M830.5,440.9l-1.4,1.4l-1.4-1.4
		l1.4-1.4L830.5,440.9z M832.3,444.1l-1.4,1.4l-1.4-1.4l1.4-1.4L832.3,444.1z"/>
	<path id="PATH_38" d="M847.9,455.6h-2.2c-0.2,2.8-1.2,5-3.2,6.9c-0.6,0.6-1,1-1.2,1c-1,0-2.4-0.2-3.8-0.4c-0.4,0-0.8-0.2-0.8-0.2
		s0.2-0.2,0.8-0.4c1.6-0.4,3.2-1.4,4.6-2.4c0.6-0.6,1.2-1,1.6-1.8c0.6-0.8,1-1.6,1-2.2v-0.6h-2.6c-2,0-2.8-0.8-2.8-2.4
		c0-1,0.2-2,0.8-3.2s1.4-2,2.2-2c1,0,1.8,0.6,2.4,2c0.4,1,0.8,2,0.8,3.2h2.2v2.4H847.9z M844.4,453.2c0-0.6-0.2-1.2-0.6-1.8
		c-0.4-0.8-1-1-1.6-1c-0.4,0-0.8,0.2-1,0.4c-0.2,0.2-0.4,0.6-0.4,1.2c0,1,0.8,1.4,2.4,1.4C843.2,453.2,843.8,453.2,844.4,453.2z"/>
	<path id="PATH_39" d="M852.5,451.6c0,2.6-1.4,4-4,4h-1.6v-2.4h1.4c2,0,3-0.4,3-1c0-0.6-0.4-1.4-1.4-2.4l0.8-2
		c0-0.2,0.2-0.2,0.2-0.2s0.2,0.2,0.4,0.4C852.1,449,852.5,450.2,852.5,451.6z M851.9,459.9l-1.6,1.6l-1.6-1.6l1.6-1.6L851.9,459.9z"
		/>
</g>
<g id="G_40">
	<path id="PATH_41" d="M852.7,539.8c0.2,0.6,0.2,1.2,0.2,1.8c0,0.8-0.2,1.4-0.4,2.2c-0.6,1.4-1.6,2.6-3.6,3.4c-1.6,0.6-3.2,1-5,1
		c-1.8,0-3.2-0.4-4.4-1.2c-1.2-1-1.8-2.2-1.8-4c0-1,0.2-1.8,0.6-3c0.4-0.8,0.6-1.4,1-1.8c0.2-0.2,0.4-0.2,0.4-0.2
		c0.2,0,0.2,0,0.2,0.2c0,0,0,0.2,0,0.4c-0.6,1.2-0.8,2.4-0.8,3.4c0,1,0.4,1.8,1,2.6c0.8,1,2.2,1.4,4,1.4c2,0,3.8-0.4,5.2-1
		c1.2-0.6,2-1.2,2.4-2c0.2-0.2,0.2-0.6,0.2-0.8c0-0.6-0.2-1.2-0.4-2c-0.2-0.6-0.8-1.6-1.8-3.2l0.8-1.6c0.2-0.2,0.2-0.4,0.2-0.4
		s0.2,0,0.2,0.2C851.9,536.6,852.5,538.2,852.7,539.8z M846.7,531.1l-1.6,1.6l-1.6-1.6l1.6-1.6L846.7,531.1z"/>
	<path id="PATH_42" d="M860.8,540h-1.4c-1.4,0-2.6-0.6-3-1.8c-0.4-0.8-0.6-2.2-0.6-3.8v-3.8c0-1.8-0.2-4.4-0.4-7.7l1.2-1.4
		c0.2-0.2,0.4-0.2,0.4,0c0.2,1.8,0.4,4.4,0.4,7.7v5.7c0,1.6,0.8,2.4,2.4,2.4h1V540z"/>
	<path id="PATH_43" d="M870.5,540h-1.6c-1.8,0-3-0.6-3.8-1.8c-0.6,1.2-2,1.8-4.2,1.8h-1.2v-2.4h1.8c2,0,3-0.8,3.2-2.2
		c0-0.6,0.2-1,0.4-1s0.4,0.4,0.4,1c0.2,1.4,1.2,2.2,3,2.2h1.8v2.4H870.5z M863.8,528.5l-1.6,1.6l-1.6-1.6l1.6-1.6L863.8,528.5z
		 M867.2,528.5l-1.6,1.6l-1.6-1.6l1.6-1.6L867.2,528.5z"/>
	<path id="PATH_44" d="M888.8,540h-1.2c-1.4,0-2.2-0.6-2.8-1.6c-0.4,1.2-1.4,1.6-2.6,1.6c-1.2,0-2-0.6-2.6-1.6
		c-0.6,1.2-1.4,1.6-2.6,1.6c-1.4,0-2.4-0.6-3-1.6c-0.8,1.2-1.8,1.6-3.2,1.6h-1.4v-2.4h1.6c1.4,0,2.4-0.8,2.6-2.4
		c0-0.4,0.2-0.6,0.4-0.6c0.2,0,0.2,0.2,0.4,0.6c0.2,1.6,1,2.4,2.6,2.4c1.4,0,2.4-0.8,2.4-2.4c0-0.4,0.2-0.6,0.4-0.6
		c0.2,0,0.4,0.2,0.4,0.6c0.2,1.6,1,2.4,2,2.4c1.4,0,2.4-0.8,2.4-2.4c0-0.4,0.2-0.6,0.4-0.6c0.2,0,0.4,0.2,0.4,0.6
		c0.2,1.6,1,2.4,2.4,2.4h1.2v2.4H888.8z"/>
	<path id="PATH_45" d="M902.2,540H901c-1,0-2.2-0.4-3.2-1.4c-0.8-0.6-1.6-1.8-2.6-3.2c-0.2,3-2.2,4.6-6.1,4.6H888v-2.4h0.8
		c3.6,0,5.5-0.8,5.5-2.2c0-1.2-0.8-2.6-2.6-4.2c-0.8-0.8-1.6-1.4-2.6-2.2c0-0.8,0.2-1.4,0.6-2c0.2-0.2,3.8-1.4,10.9-3.6
		c0,0.2-0.2,1-0.6,2.2c-1.8,0.4-4.8,1.4-8.7,2.6c2,2.2,4,4.2,5.4,5.9c1,1,1.6,1.8,2.2,2.2c0.8,0.6,1.8,1,2.8,1h0.8v2.6H902.2z
		 M900.1,521l-0.4,1.4l-9.7,3.2l0.4-1.4L900.1,521z"/>
	<path id="PATH_46" d="M911.9,540h-1.6c-1.8,0-3-0.6-3.8-1.8c-0.6,1.2-2,1.8-4.2,1.8h-1.2v-2.4h1.8c2,0,3-0.8,3.2-2.2
		c0-0.6,0.2-1,0.4-1s0.4,0.4,0.4,1c0.2,1.4,1.2,2.2,3,2.2h1.8v2.4H911.9z M908,529.7l-1.6,1.6l-1.6-1.6l1.6-1.6L908,529.7z"/>
	<path id="PATH_47" d="M916.7,536c0,2.6-1.4,4-4,4h-1.6v-2.4h1.4c2,0,3-0.4,3-1s-0.4-1.4-1.4-2.4l0.8-2c0-0.2,0.2-0.2,0.2-0.2
		s0.2,0.2,0.4,0.4C916.3,533.5,916.7,534.8,916.7,536z M914.7,527.3l-1.6,1.6l-1.6-1.6l1.6-1.6L914.7,527.3z M918.3,527.3l-1.6,1.6
		l-1.6-1.6l1.6-1.6L918.3,527.3z"/>
</g>
<g id="G_48">
	<path id="PATH_49" d="M942.5,636.3h-4.6c-0.6,0-1.2,0-1.6,0.2c-0.8,0.2-1,0.6-1,1c0,0.2,1,0.4,2.8,0.8c1.8,0.4,2.8,0.8,2.8,1.2
		c0,1.6-0.4,2.8-1.4,3.6c-1.6,1.4-4.2,2-7.9,2c-4.6,0-6.9-1.8-6.9-5.2c0-0.8,0.2-1.6,0.6-2.6c0.4-1,0.8-1.8,1.2-2.4
		c0.2-0.2,0.4-0.4,0.6-0.4s0.2,0,0.2,0.2c0,0.2,0,0.4-0.2,0.6c-0.6,1.2-1,2.4-1,3.6c0,1.4,0.6,2.4,2,3c1,0.6,2.2,0.8,3.8,0.8
		c1.6,0,3,0,4.4-0.2c2.4-0.4,3.6-0.8,3.6-1.6c0-0.4-0.6-0.6-1.6-0.8c-1.6-0.2-2.6-0.4-3-0.6c-1-0.2-1.6-0.8-1.6-1.4
		c0-0.4,0.2-1,0.8-1.8c0.4-0.6,0.8-1,1.4-1.4c1-0.8,2.2-1.2,4-1.2h2.8L942.5,636.3L942.5,636.3z"/>
	<path id="PATH_50" d="M952.2,636.3h-1.6c-1.8,0-3-0.6-3.8-1.8c-0.6,1.2-2,1.8-4.2,1.8h-1v-2.4h1.8c2,0,3-0.8,3.2-2.2
		c0-0.6,0.2-1,0.4-1c0.2,0,0.4,0.4,0.4,1c0.2,1.4,1.2,2.2,3,2.2h1.8L952.2,636.3L952.2,636.3z M945.4,624.8l-1.6,1.6l-1.6-1.6
		l1.6-1.6L945.4,624.8z M948.8,624.8l-1.6,1.6l-1.6-1.6l1.6-1.6L948.8,624.8z"/>
	<path id="PATH_51" d="M967.8,632.1c0,1.2-0.2,2.2-0.8,3c-0.6,0.8-1.6,1.4-2.6,1.4c-1.4,0-2.2-0.6-2.8-1.6c-0.8,1.2-1.6,1.6-2.8,1.6
		c-1.4,0-2.4-0.6-3-1.6c-0.8,1.2-1.8,1.6-3.2,1.6h-1.4v-2.4h1.6c1.4,0,2.4-0.8,2.6-2.4c0-0.4,0.2-0.6,0.4-0.6c0.2,0,0.2,0.2,0.4,0.6
		c0.2,1.6,1,2.4,2.6,2.4c0.8,0,1.6-0.2,2-0.6c0.2-0.4,0.4-0.8,0.6-1.6c0-0.4,0.2-0.6,0.4-0.6c0.2,0,0.2,0.2,0.4,0.6
		c0.2,1.6,1,2.4,2.4,2.4c1.6,0,2.2-0.4,2.2-1s-0.4-1.4-1.2-2.2l1-1.8c0.2-0.2,0.2-0.4,0.4-0.4c0.2,0,0.2,0.2,0.4,0.4
		C967.6,630.2,967.8,631.2,967.8,632.1z M961.1,624.8l-1.4,1.4l-1.4-1.4l1.4-1.4L961.1,624.8z M962.9,621.6l-1.4,1.4l-1.4-1.4
		l1.4-1.4L962.9,621.6z M964.7,624.8l-1.4,1.4l-1.4-1.4l1.4-1.4L964.7,624.8z"/>
	<path id="PATH_52" d="M979.9,632.1c0,2.8-1.8,4.2-5.5,4.2c-1.4,0-2.4-0.2-3-0.6c-0.8-0.4-1.2-1.4-1.2-2.6c0-0.6,0.2-1.2,0.4-1.8
		c0.2-0.2,0.2-0.4,0.4-0.4c0.2,0,0.2,0.2,0.2,0.6c0,0.2,0,0.4,0,0.6c0,0.8,0.4,1.4,1.2,1.6c0.4,0.2,1.2,0.2,2.2,0.2
		c3,0,4.4-0.4,4.4-1.4c0-1.4-1.8-3.4-5.2-5.7l0.6-2c0-0.2,0.2-0.2,0.2-0.2s0.2,0,0.4,0.2C978.3,627.4,979.9,630,979.9,632.1z"/>
</g>
<g id="G_53">
	<path id="PATH_54" d="M982.9,789.5h-0.8c-0.8,0-1.2-0.2-1.6-0.4c0,0.2,0,0.4,0,0.6c0,1.8-0.6,3.6-1.8,5.4c-1,1.6-2,2.2-2.6,2.2
		c-1.6,0-2.8,0-4-0.2c-0.4,0-0.6-0.2-0.6-0.2s0.2-0.2,0.6-0.2c1.6-0.4,3.2-1.2,4.8-2.4c1.6-1.4,2.6-2.8,2.6-4.2c0-0.8-0.6-2-2-3.4
		l1-1.8c0-0.2,0.2-0.2,0.2-0.2l0.2,0.2c0.6,0.8,1,1.4,1.4,1.6c0.6,0.4,1.4,0.8,2.2,0.8h0.6v2.2H982.9z"/>
	<path id="PATH_55" d="M987.6,785.5c0,2.6-1.4,4-4,4h-1.6v-2.4h1.4c2,0,3-0.4,3-1s-0.4-1.4-1.4-2.4l0.8-2c0-0.2,0.2-0.2,0.2-0.2
		s0.2,0.2,0.4,0.4C987.2,783,987.6,784.1,987.6,785.5z M986.1,793.8l-1.6,1.6l-1.6-1.6l1.6-1.6L986.1,793.8z M989.4,793.8l-1.6,1.6
		l-1.6-1.6l1.6-1.6L989.4,793.8z"/>
	<path id="PATH_56" d="M1001.7,785.3c0,2.8-1.8,4.2-5.5,4.2c-1.4,0-2.4-0.2-3-0.6c-0.8-0.4-1.2-1.4-1.2-2.6c0-0.6,0.2-1.2,0.4-1.8
		c0.2-0.2,0.2-0.4,0.4-0.4s0.2,0.2,0.2,0.6c0,0.2,0,0.4,0,0.6c0,0.8,0.4,1.4,1.2,1.6c0.4,0.2,1.2,0.2,2.2,0.2c3,0,4.4-0.4,4.4-1.4
		c0-1.4-1.8-3.4-5.2-5.7l0.6-2c0-0.2,0.2-0.2,0.2-0.2s0.2,0,0.4,0.2C999.9,780.6,1001.7,783,1001.7,785.3z"/>
</g>
<g id="G_58">
	<path id="PATH_59" d="M1156.5,884.4c-0.2,2.4-0.8,4.2-2.2,6.1c-0.8,1.4-2.2,2.4-3.2,2.6c-2,0.4-4.2,0.2-5.5-1
		c-2.4-1.6-3-4.2-1.4-6.5c1.2-1.6,2.4-2.4,3.6-3l0.4,0.6c-1,0.6-2,1.4-2.4,2c-0.8,1.2-0.8,2-0.6,2.8c0.2,0.8,0.8,1.8,1.8,2.6
		c1,0.6,2.6,1,3.8,1c0.8,0,1.4-0.2,1.6-0.4c0.6-0.8,0.8-1.8,1.2-2.6c0.4-1.2,0.6-2.4,0.6-3.2C1155.1,885,1155.7,884.6,1156.5,884.4
		L1156.5,884.4z M1155.9,877.9c0.2,0.8,0.4,1.6,0.6,2.4c-0.6,0.2-1.2,0.4-2,0.6c-0.2-0.8-0.4-1.6-0.6-2.4
		C1154.5,878.3,1155.3,878.1,1155.9,877.9z"/>
	<path id="PATH_60" d="M1158.7,896.5L1158.7,896.5c-1.2-0.8-1.6-1.4-1.8-2.4c-0.2-1.4,0.4-2.2,1.6-4.2c1.6-2.4,3.2-5.2,4.8-7.9
		c0.8-0.2,1.4-0.4,2-0.4v0.2c-1.6,3-4,6.3-5.9,9.5l-0.4,0.8c-0.6,0.8-0.4,1.6,0,2c0.2,0.4,0.6,0.6,0.8,0.6l0.2,0.2L1158.7,896.5z"/>
	<path id="PATH_61" d="M1168.6,903.2l-0.2-0.2c-1.6-1-1.8-2.6-2-4.4c0-0.8-0.2-1.6-0.2-2.2l0,0c-1.4,2-3.6,2.8-7.1,0.4l-0.4-0.2
		c-0.8-0.4-0.6-1.2-0.4-1.4c0.2-0.4,0.8-0.6,1.4-0.2l0.6,0.4c1,0.8,2.4,1.4,3.6,1.4c0.4,0,1,0,1-0.2c0.2-0.2,0.2-0.6,0.4-1
		c0.2-1.6-0.2-3.2-0.8-5.5c-0.2-0.6-0.2-1.2-0.2-1.4c0.2-0.2,0.2-0.4,0.4-0.6c0.2-0.4,0.6-0.6,1-0.8c0.2-0.2,0.4,0,0.8-0.2
		c2,0,5.5,1,9.9,2.2l0,0c-0.6,0.4-1.2,0.6-2,1c-1-0.4-2.2-0.6-3.6-1c-2-0.4-3.8-0.8-5-1l0,0c0.4,0.8,1,1.8,1.6,2.4l-0.8,0.4
		c0.6,2.2,1.2,4.6,1.6,7.7c0.2,1.4,0.6,2.4,1.6,3l0.2,0.2L1168.6,903.2z M1167,885.6c0.2-0.2,0.6-0.4,0.8-0.6
		c2.4,0.4,5.4,1.2,8.7,2.2l0,0l-1,0.4C1171.9,886.4,1169.4,885.8,1167,885.6L1167,885.6z"/>
	<path id="PATH_62" d="M1170,901.7c1,0.6,2.4,1,3,0.4l1.4-1.2h1.4v0.2c-0.6,0.6-1.2,1-1.2,1.4c-0.4,0.4-0.4,1-0.2,1.4
		c0.2,0.6,0.6,1.2,1.2,1.6l0.2,0.2l-1.2,1.6l-0.2-0.2c-1.2-0.8-2-1.8-1.8-3.2l0,0c-1,0.6-2.4,0.4-3.4-0.4l-0.2-0.2
		c-0.8-0.4-0.6-1.2-0.4-1.4C1168.8,901.5,1169.4,901.3,1170,901.7L1170,901.7z M1177.5,895.5c0.2,0.8,0.4,1.6,0.6,2.4
		c-0.6,0.2-1.2,0.4-2,0.6c-0.2-0.8-0.4-1.6-0.6-2.4C1176.1,895.9,1176.7,895.7,1177.5,895.5z"/>
	<path id="PATH_63" d="M1191.8,898.5c-0.6,0.4-1.4,0.6-2,1c-0.8-0.2-1.6-0.6-2.6-0.8c-1.6-0.4-3.4-0.8-5.4-1.2l0,0l1.6,2.2l-0.8,0.4
		c1,3,1.2,5.5,0.2,6.7c-0.8,1.2-1.8,2-2.6,2.2c-1.4,0.2-3-0.2-5.4-1.8l-0.6-0.4c-0.8-0.4-0.6-1.2-0.4-1.4c0.2-0.4,0.8-0.6,1.4-0.2
		l0.8,0.6c1.4,0.8,2.6,1.6,4,1.6c0.6,0,1,0,1.2-0.2c0.4-0.6,0.4-1.6,0.4-2.6c0-1.2-0.4-3.2-1.4-6.1c-0.2-0.6,0-1,0.4-1.6
		c0.2-0.2,0.6-0.4,0.8-0.6c0.4-0.2,0.8-0.2,1.6-0.2C1185,896.5,1188,897.3,1191.8,898.5L1191.8,898.5z"/>
</g>
<g id="G_64">
	<path id="PATH_65" d="M1292.4,1014.6h-1.4c-1.8,0-2.8-1-3.2-3.2c-1,1-1.4,1.4-1.6,1.4h-1.8c-0.6,0-1.2,0-1.8-0.2
		c-0.8-0.2-1.2-0.6-1.2-1c0-1.6,0.6-2.8,1.6-3.6c0.8-0.6,2-1.2,3.6-2l-0.4-2l1.4-1.6c0,0.2,0.6,2.4,1.4,6.5c0.2,1.2,0.6,2.2,0.8,2.6
		c0.4,0.6,0.8,0.8,1.6,0.8h1.4v2.2H1292.4z M1287.5,1010.6l-0.6-3.2c-0.6,0.2-1.4,0.6-2.4,1c-1.2,0.6-2,1.2-2,1.4
		c0,0.4,0.4,0.6,1.4,0.8c0.6,0.2,1.2,0.2,1.8,0.2C1286.5,1010.6,1287.1,1010.6,1287.5,1010.6z"/>
	<path id="PATH_66" d="M1297.2,1010.6c0,2.6-1.4,4-4,4h-1.6v-2.4h1.4c2,0,3-0.4,3-1s-0.4-1.4-1.4-2.4l0.8-2c0-0.2,0.2-0.2,0.2-0.2
		s0.2,0.2,0.4,0.4C1296.8,1008.1,1297.2,1009.5,1297.2,1010.6z M1295.6,1019l-1.6,1.6l-1.6-1.6l1.6-1.6L1295.6,1019z M1299.2,1019
		l-1.6,1.6l-1.6-1.6l1.6-1.6L1299.2,1019z"/>
	<path id="PATH_67" d="M1311.4,1014.6h-2.2c-0.2,2.8-1.2,5-3.2,6.9c-0.6,0.6-1,1-1.2,1c-1,0-2.4-0.2-3.8-0.4c-0.4,0-0.8-0.2-0.8-0.2
		s0.2-0.2,0.8-0.4c1.6-0.4,3.2-1.4,4.6-2.4c0.6-0.6,1.2-1,1.6-1.8c0.6-0.8,1-1.6,1-2.2v-0.6h-2.6c-2,0-2.8-0.8-2.8-2.4
		c0-1,0.2-2,0.8-3.2c0.6-1.2,1.4-2,2.2-2c1,0,1.8,0.6,2.4,2c0.4,1,0.8,2,0.8,3.2h2.2v2.4H1311.4z M1307.9,1012.2
		c0-0.6-0.2-1.2-0.6-1.8c-0.4-0.8-1-1-1.6-1c-0.4,0-0.8,0.2-1,0.4c-0.2,0.2-0.4,0.6-0.4,1.2c0,1,0.8,1.4,2.4,1.4
		C1306.7,1012.4,1307.3,1012.2,1307.9,1012.2z"/>
	<path id="PATH_68" d="M1318.8,1014.6h-0.8c-1.8,0-3-0.6-3.6-2c-0.2,0.6-0.6,1-1.2,1.4s-1.2,0.6-1.8,0.6h-0.8v-2.4h0.8
		c1.6,0,2.4-0.6,2.4-2v-6.9c0-2.6,0-4.6-0.2-5.9l1.8-1.4v13.3c0,2,0.8,3,2.6,3h0.8V1014.6z"/>
	<path id="PATH_69" d="M1337,1014.6h-1c-1.4,0-2.2-0.6-2.8-1.6c-0.4,1.2-1.4,1.6-2.6,1.6c-1.2,0-2-0.6-2.6-1.6
		c-0.6,1.2-1.4,1.6-2.6,1.6c-1.4,0-2.4-0.6-3-1.6c-0.8,1.2-1.8,1.6-3.2,1.6h-1.4v-2.4h1.6c1.4,0,2.4-0.8,2.6-2.4
		c0-0.4,0.2-0.6,0.4-0.6c0.2,0,0.2,0.2,0.4,0.6c0.2,1.6,1,2.4,2.6,2.4c1.4,0,2.4-0.8,2.4-2.4c0-0.4,0.2-0.6,0.4-0.6
		c0.2,0,0.4,0.2,0.4,0.6c0.2,1.6,1,2.4,2,2.4c1.4,0,2.4-0.8,2.4-2.4c0-0.4,0.2-0.6,0.4-0.6c0.2,0,0.4,0.2,0.4,0.6
		c0.2,1.6,1,2.4,2.4,2.4h1.2v2.4H1337z"/>
	<path id="PATH_70" d="M1347.5,1010.6l-0.6,1.8l-5.4,1.4c-1.6,0.4-3,0.6-4.2,0.6h-1v-2.4h1.6c0.4,0,0.8,0,1.6-0.2
		c-1.2-1-1.8-1.8-1.8-2.8c0-0.8,0.4-1.8,1.4-3c1.2-1.4,2.4-2.2,3.6-2.2c1.4,0,2.4,0.6,3.2,1.8c0.2,0.4,0.4,0.6,0.4,0.8
		c0,0,0,0.2-0.2,0.2c-0.2,0-0.4,0-1-0.2c-1-0.2-1.8-0.4-2.6-0.4c-0.6,0-1.2,0.2-2,0.6c-0.8,0.4-1.4,0.8-1.4,1.4c0,0.4,0.4,1,1,1.6
		c0.8,0.8,1.8,1.2,2.8,1.2c0.4,0,1.8-0.4,4.2-1c0.2,0,0.2,0,0.4,0l0,0C1347.5,1010.4,1347.5,1010.4,1347.5,1010.6z"/>
</g>
<text transform="matrix(1 0 0 1 1152.9534 815.9277)" class="st6 st7">مج</text>
</svg>
