<?xml version="1.0" encoding="UTF-8"?><svg id="Layer_1" xmlns="http://www.w3.org/2000/svg" viewBox="0 0 817.65 1007.31"><defs><style>.cls-1{fill:#040404;}.cls-2,.cls-3{isolation:isolate;}.cls-4{fill:#fbd1d1;}.cls-4,.cls-5,.cls-6,.cls-7{stroke:#020202;stroke-miterlimit:19.82;stroke-width:.4px;}.cls-5{fill:#fdfad6;}.cls-3{font-family:ArabicTypesetting, 'Arabic Typesetting';font-size:34px;}.cls-6{fill:#e8d0e5;}.cls-7{fill:#dbeccb;}</style></defs><path id="_315" class="cls-5" d="m120.21,169.36c7.9-15.7,16.8-30.3,32.5-32.3-2-1.8-3.8-3-4.6-3.6-2.8-1-15.5-5.5-20.4-10.5-3-3-4.8-7.9-6.9-14.3-2-5.7-4.4-12.1-8.1-18.8-5.5-10.1-8.1-29.9-9.3-41.8l-25.8-9.7c-.6-.2-12.1-5.2-23.8-15.3-5-4.2-9.5-7.7-13.7-11.1-5.5-4.4-10.1-7.9-14.1-11.7-2.4,1.8-6.7,12.9-8.3,25.4-1.6,12.3-11.9,16.8-17.4,17.6l2.6,4.6,4.4,5.7,4.4,3.4-1.6,8.9,6.7,18.8-3.4,11.7,4,2,2,2.4-1.4,2-4.4.6,1,3.4.4,6.3,1,4,1,1.4,10.7,11.7,12.1,7.3,5.4,4.8,6.7,10.1,12.7,24.2,7.7,11.7,1.6,1.8c9.9-6.3,19.2-15.7,29.7-19,5.9-1.7,13.6,4.4,16.6-1.7Z"/><path id="_317" class="cls-4" d="m227.41,346.86c-15.3-7.7-27.5-16.8-26-33.7,0-4.6,12.3-7.7,13.9-12.3,3-6.1-10.7-9.1-6.1-13.9,13.9-13.9,12.3-29.1,9.1-46-3-7.7-12.3-13.9-7.7-18.4,4.6-7.7,7.7-12.3,12.3-19.8,5.4-8.1,21.4-14.9,19-27-5.7.2-12.1.8-18.4,1.2-11.5.8-23.4,1.8-34.7,1.8-13.9,0-20.2-1.4-23.6-5-2.8-3.2-2.4-7.1-2-10.9.4-2.6.6-5.7,0-8.9-1.2-7.7-6.5-13.7-10.5-17.2-15.9,2-24.8,16.6-32.5,32.3-3,6.1-10.7,0-16.8,1.6-10.5,3.4-19.8,12.7-29.7,19l6.1,6.7,4,6.3,2,6.7,2.4,3.4,17,6.7,9.1,9.7,4.4,6.3,2,5.7,2.4,4.4,15.1,12.7,8.3,12.7,1.4,4v-10.1l4.4,2.4,5.7,7.7,3.4,6.7,2.4,9.1,1.4,13.1v13.1l-2,8.3,3.4,6.3,2,2,2.4,1-.6,2.4-1.4,13.7-4-4.8-3,2.4-2,5.7-2,4.4-2.4,4.4-1,4,1,8.1,2.4,9.1,6.3,5.7h0c2.2-.4,4.2-1,6.1-1.8,23.3-8.9,31-36.4,57-41Z"/><path id="_296" class="cls-6" d="m276.31,454.16c3.2-1.6,6.1,1.6,7.7,1.6,3,4.6-6.1,10.7-4.6,12.3,24.6,9.1,32.1-19.8,44.4-33.7,4.6-7.7-13.9-16.8-10.7-29.1-3,0-3-6.1-6.1-6.1-10.7,1.6-21.4-1.6-26-10.7-1.6-6.1,9.1-13.9,4.6-16.8-10.7-9.1-7.7-21.4-18.4-27.5-6.1-4.6-4.6,10.7-10.7,12.3-11.7,3.6-21.4-5.4-32.1-8.5-23.6,6.1-31.5,31.9-53.5,40.6-2,.8-4.2,1.4-6.1,1.8l7.7,1,7.3-4.8,5.4-1,22.2-1,6.7,1,1,2,.4,2.4.4,5.7,1,1.4,2.4-.6,2.4-1.4,2-.6,3.4,3,2,3.4,2.4,9.7,5.4-1.4,2.4,4.8,1,7.7-1,7.3-2,4-5.7,5.4-2,2.4-.6,3.4,1,3,.4,2.4-3,3-3-5.7-4.4-5.7-5.7-4.8-5.4-2.4-5.7,4-1,8.3,1.4,9.1,2.4,6.3,13.1,17.4,2.4,6.7,2.4,3.4,5.4,1.4,11.7,1,12.1,3,.4.2c8-12.1,9.9-30.7,22.8-40.6Z"/><path id="_312" class="cls-6" d="m691.31,805.26c0-4.6-10.7-16.8-18.6-25.8-6.1-6.9-11.9-13.5-14.9-18.4-3.8-6.3-16.8-12.7-29.3-18.8-8.9-4.4-18.4-8.9-25.4-14.1-9.9-7.1-19.6-24-26.8-39.6-2.4,1-4.6,2.6-6.1,4.4-12.3,6.1-19.8,15.3-35.3,12.3-1.6,4.6-3,7.7-6.1,10.7-6.1,3-10.7-4.6-12.3-3-12.3,18.4,4.6,39.8,24.6,47.4,3,1.6-6.1,7.7-4.6,12.3,7.7,10.7,26,0,29.1,16.8,1.6,3.2,13.9-1.6,16.8,3.2,3,4.6,3,12.3,6.1,18.4,4.6,7.7,16.8,6.1,21.4,19.8,1.6,4.6,10.7,4.6,12.3,9.1,6.1,6.1,7.7,15.3,16.8,18.4,12.3,4.6,26,6.1,38.2,12.3,9.7,5,25.2,11.9,38.8,12.7-6.5-6.9-12.3-13.5-14.9-17.8-7.8-14.1-9.8-53.6-9.8-60.3Z"/><path id="_179" class="cls-5" d="m414.21,524.46c-3-6.1,4.6-13.9,0-18.4-6.1-4.6-13.9-6.1-16.8-13.9-1.6-7.7,0-16.8-4.6-19.8-12.3-13.9-15.3-27.5-16.8-44.4-7.7,4.6-18.4-1.6-18.4-4.6,0-31.5-24.6-20.2-45-18.4.2,0,.4.2.6.2-3,12.3,15.3,21.4,10.7,29.1-12.3,13.9-19.8,42.8-44.4,33.7-1.6-1.6,7.7-7.7,4.6-12.3-1.6,0-4.6-3-7.7-1.6-13.1,10.1-14.9,28.7-22.8,39.8l8.9,5.5,7.3,8.7,6.3,12.1,3.4,14.5.4,42.6,2.4,10.7,17,44.6,2.4,3.4,9.1,10.1,10.1,16.4,3.4,4.4,7.1,6.7c5-3.6,8.5-7.9,9.1-13.1,0-10.7-9.1-21.4-13.9-30.5-13.9-21.4-19.8-42.8-16.8-69,1.6-12.3,9.1-23,18.4-26,12.3-4.6,23-12.3,35.3-13.9,23-4.6,29.1,21.4,48.9,27.5,10.3,2.6,20.8-4.8,31.1-5.2-10.2-5.2-24.9-8.4-29.3-18.9Z"/><path id="_304" class="cls-7" d="m526.61,516.96v-2.6c.2-9.3.8-31.5-13.5-45.8-9.5-9.5-25-41.8-39.8-72.7-11.3-23.6-23-48.2-28.1-53.1-12.7-12.7-27.5-35.3-34.5-46.8-6.5-11.1-37.1-29.9-55.5-32.1-20.8-2.6-32.3-18-32.3-27.7,0-5.4-4.6-30.7-6.7-42.8-9.7-1.8-40.8-7.9-49.9-14.7-3.4-2.6-13.1-2.8-24.8-2.2,2.4,11.9-13.7,18.8-19,27-4.6,7.7-7.7,12.3-12.3,19.8-4.6,4.6,4.6,10.7,7.7,18.4,3,16.8,4.6,32.1-9.1,46-4.6,4.6,9.1,7.7,6.1,13.9-1.6,4.6-13.9,7.7-13.9,12.3-1.6,16.8,10.7,26,26,33.7-1.2.2-2.2.4-3.2.8,10.7,3.2,20.6,11.9,32.3,8.5,6.1-1.6,4.6-16.8,10.7-12.3,10.7,6.1,7.7,18.4,18.4,27.5,4.6,3-6.1,10.7-4.6,16.8,4.6,9.1,15.3,12.3,26,10.7,2.8,0,3,5.4,5.5,5.9,20.6-1.6,45-13.1,45,18.4,0,3,10.7,9.1,18.4,4.6,1.6,16.8,4.6,30.5,16.8,44.4,4.6,3,3,12.3,4.6,19.8,3,7.7,10.7,9.1,16.8,13.9,4.6,4.6-3,12.3,0,18.4,4.6,10.5,19,13.7,29.7,19.4,1.8,0,3.8,0,5.5.6,7.7,3,12.3,7.7,19.8,9.1,22.2,1.6,42.8-4.2,63.4-11.5-3.3-14.5-5.5-23.5-5.5-25.6Z"/><path id="_307" class="cls-4" d="m565.41,658.26c-1-5-7.9-29.5-15.5-55.5-7.1-25.2-13.1-45.8-17.2-60.6-20.6,7.3-41.4,12.9-63.4,11.5-7.7-1.6-12.3-6.1-19.8-9.1-12.3-3-24.6,7.7-36.7,4.6-19.8-6.1-26-32.1-48.9-27.5-12.3,1.6-23,9.1-35.3,13.9-9.1,3-16.8,13.9-18.4,26-3,26,3,47.6,16.8,69,4.6,9.1,13.9,19.8,13.9,30.5-.8,5.2-4.4,9.5-9.1,13.1l2.6,2.4,5.7,9.7.4,9.1-6.3,17.8.2,2.4c4-1.6,8.3-2.2,12.7-1.2,3,1.6,6.1,4.6,7.7,9.1,10.7-6.1,15.3-4.6,23,6.1,1.6,4.6,1.6-10.7,10.7-7.7,3,1.6,1.6,7.7,6.1,9.1,1.6-4.6,3.2-9.1,6.1-9.1,4.6-1.6,10.7,6.1,13.9,1.6,9.1-9.1,16.8-23,32.1-19.8,0-7.7,9.1-16.8,13.9-12.3,10.7,9.1,12.3,26,27.5,30.7,10.7,3,12.3-9.1,19.8-12.3,3.4,0,6.5.8,9.3,3,1.6-1,6.1,6.1,12.1,3.2,3-3,4.6-6.1,6.1-10.7,15.3,3.2,23-6.1,35.3-12.3,1.6-1.8,3.8-3.4,6.1-4.4-6.2-12.7-10.2-24.8-11.4-30.3Z"/><path id="_309" class="cls-7" d="m582.51,792.36c-3-4.6-15.3,0-16.8-3.2-3.2-16.8-21.4-6.1-29.1-16.8-1.6-4.6,7.7-10.7,4.6-12.3-19.8-7.7-36.7-29.1-24.6-47.4h.2c-2.8-2.2-5.9-3-9.3-3-7.7,3-9.1,15.3-19.8,12.3-15.3-4.6-16.8-21.4-27.5-30.7-4.6-4.6-13.9,4.6-13.9,12.3-15.3-3.2-23,10.7-32.1,19.8-3,4.6-9.1-3-13.9-1.6-3.2,0-4.6,4.6-6.1,9.1-4.6-1.6-3-7.7-6.1-9.1-9.1-3.2-9.1,12.3-10.7,7.7-7.7-10.7-12.3-12.3-23-6.1-1.6-4.6-4.6-7.7-7.7-9.1-4.4-.8-8.5-.2-12.7,1.2l.4,6.3,1,4.8,2.4,3.4,19.8,19.8,5.7,4.4,13.1,4,7.3,3.4,3,5.4,1,8.3,3,6.3,3.4,4.8,13.1,14.1,5.7,4.8,7.7,2.4,1.4,2,1,2.4.4,3,1.4,2.4,3.4,1,30.9,2.4,5.7-.4,16.4-4h14.1l6.7,2,5.4,4,4.8,1.4,19.4-3,13.5,2,4.8,2.2c7.3-7.7,15.7-12.5,27.5-12.5,3,0,4.6-4.6,7.7-6.1h1.4c-1-5.4-1.6-10.5-4-14.1Z"/><path id="_313" class="cls-5" d="m716.51,883.16c-13.7-.6-29.1-7.7-38.8-12.7-12.3-6.1-26-7.7-38.2-12.3-9.1-3-10.7-12.3-16.8-18.4-1.6-4.6-10.7-4.6-12.3-9.1-4.6-13.9-16.8-12.3-21.4-19.8-.8-1.4-1.2-3-1.8-4.6h-1.4c-3,1.6-4.6,6.1-7.7,6.1-11.9,0-20,4.6-27.5,12.5l6.9,3.2,10.7,7.3,33.5,32.5,10.7,5.7,50.3,11.7,10.7,4.8,9.1,7.7,21.2,22.8,1.4,2.4c4.2-.4,8.1-1.6,10.7-5,3.8-7.5,3.4-20.2,9.9-25.4-3.1-3.1-6.3-6.3-9.2-9.4Z"/><path id="_101" class="cls-4" d="m807.61,971.96c-3.2-4.6-6.3-8.9-8.5-10.5-5.4-4.2-8.5-8.9-11.7-14.3-2.2-3.4-4.2-6.9-7.3-10.7-7.5-9.5-23.2-19.4-35.3-25.4l-.8-.6c-.8-.6-9.1-8.5-18.4-17.8-6.5,5.2-6.1,17.8-9.9,25.4-2.6,3.4-6.5,4.6-10.7,5l.6,1,4.4,11.1,2.4,4,4.4,4,11.7,4.4,4.4,4.4,2.4,7.7-3.4,3.4-6.3.4h-5.4l-5.7.6-4.8,2-2.4,4.4.4,6.7,5.7,6.7,21.8,10.1,15.1,6.7,8.9,6.3c.2-1.4,1-2.6,2.4-3l55.7-19.2c-3.5-4.1-6.7-8.7-9.7-12.8Z"/><g id="G_13" class="cls-2"><path id="PATH_14" class="cls-1" d="m176.31,413.26l-.8,2"/></g><g id="G_15"><path id="PATH_16" d="m63.11,101.56h-1c-1.2,0-2.2-.2-2.8-.8,0,.2.2.6.2,1,0,2-.6,3.2-2,3.2-1.2,0-2-.6-2.8-1.8-.6-1-.8-2.2-.8-3.4v-.8h-.6c-1.4,0-2.2.4-2.8,1,.4,3.2.6,5.5.6,7.1,0,.8-.2,1.6-.6,2.8-.2.4-.2.6-.4.6,0,0-.2-.2-.2-.8l-1-9.1c0-.4.2-1,.6-1.6.4-.6.8-1,1.2-1.4.2-.2.8-.4,1.6-.6.6-.2,1.2-.2,1.6-.2h.4l.2-1.2c0-.2.2-.4.2-.4,0,0,.2,0,.4.2,1.6,1.4,2.8,2.4,3.4,2.8,1.2.8,2.2,1.2,3.2,1.2h1.2v2.2h.2Zm-4.6-.2c0-.6-.4-1.2-1.2-2-.2-.2-.8-.8-2.2-2v1.2c0,1,.2,1.8.6,2.4.4,1,1,1.4,1.8,1.4.6.2,1-.2,1-1Z"/><path id="PATH_17" d="m70.41,101.56h-.8c-1.8,0-3-.6-3.6-2-.2.6-.6,1-1.2,1.4-.6.4-1.2.6-1.8.6h-.8v-2.4h.8c1.6,0,2.4-.6,2.4-2v-6.9c0-2.6,0-4.6-.2-5.9l1.8-1.4v13.3c0,2,.8,3,2.6,3h.8v2.3Z"/><path id="PATH_18" d="m75.21,97.66c0,2.6-1.4,4-4,4h-1.6v-2.4h1.4c2,0,3-.4,3-1s-.4-1.4-1.4-2.4l.8-2c0-.2.2-.2.2-.2l.4.4c.8,1,1.2,2.4,1.2,3.6Zm-1.6,8.3l-1.6,1.6-1.6-1.6,1.6-1.6,1.6,1.6Zm3.4,0l-1.6,1.6-1.6-1.6,1.6-1.6,1.6,1.6Z"/><path id="PATH_19" d="m89.11,97.46c0,2.8-1.8,4.2-5.5,4.2-1.4,0-2.4-.2-3-.6-.8-.4-1.2-1.4-1.2-2.6,0-.6.2-1.2.4-1.8.2-.2.2-.4.4-.4s.2.2.2.6v.6c0,.8.4,1.4,1.2,1.6.4.2,1.2.2,2.2.2,3,0,4.4-.4,4.4-1.4,0-1.4-1.8-3.4-5.2-5.7l.6-2c0-.2.2-.2.2-.2,0,0,.2,0,.4.2,3.3,2.5,4.9,5.1,4.9,7.3Z"/></g><g id="G_20"><path id="PATH_21" d="m156.01,231.16c0,1.4-.4,2.4-1.2,3.2s-2,1-3.2,1c-.8,0-1.6-.2-2.2-.8-.6-.6-1-1.2-1-2,0-1,.4-2,1.2-3.4.6-1.2,1.4-2.2,2.2-3,2.9,1.4,4.2,3,4.2,5Zm-1.1.8c0-.6-.4-1.2-1.4-2-.8-.8-1.4-1.2-2.2-1.4-1,1.4-1.6,2.4-1.6,3.2,0,.4.2.8.8,1.2.4.2.8.4,1.4.4.8,0,1.6-.2,2.2-.4.6-.6.8-.8.8-1Z"/><path id="PATH_22" d="m166.11,234.56c0,3-1,5.5-3,7.5-.6.6-1,1-1.2,1-1.2,0-2.4-.2-3.8-.4-.6,0-.8-.2-.8-.2,0,0,.2-.2.8-.4,1.6-.4,3.2-1.4,4.6-2.6.6-.6,1.2-1,1.6-1.8.6-.8,1-1.6,1-2.2v-.6h-2.5c-1.8,0-2.8-.8-2.8-2.2,0-1,.2-2,.8-3.2s1.4-2,2.2-2c1.2,0,2.2.8,2.8,2.6.1,1.5.3,2.9.3,4.5Zm-1.3-1.6c0-.6-.2-1.2-.6-1.8-.4-.6-1-1-1.6-1-.4,0-.8.2-1,.4-.4.4-.4.6-.4,1,0,1,.6,1.4,2,1.4.2.2.8,0,1.6,0Z"/><path id="PATH_23" d="m174.11,235.36h-1.4c-1.4,0-2.6-.6-3-1.8-.4-.8-.6-2.2-.6-3.8v-3.8c0-1.8-.2-4.4-.4-7.7l1.2-1.4c.2-.2.4-.2.4,0,.2,1.8.4,4.4.4,7.7v5.7c0,1.6.8,2.4,2.4,2.4h1v2.7h0Z"/><path id="PATH_24" d="m183.81,235.36h-1.4c-1.8,0-3-.6-3.8-1.8-.6,1.2-2,1.8-4.2,1.8h-1.2v-2.4h1.8c2,0,3-.8,3.2-2.2,0-.6.2-1,.4-1s.4.4.4,1c.2,1.4,1.2,2.2,3,2.2h1.8v2.4h0Zm-4-10.3l-1.6,1.6-1.6-1.6,1.6-1.6,1.6,1.6Z"/><path id="PATH_25" d="m195.71,219.26c0,.4-.2,1-.6,2.2-2.4.6-5.4,1.6-8.7,2.6,2.4,2.4,3.8,4.4,4,5.7.2,1,0,2-.4,3s-1.2,1.6-2.2,2c-.8.4-2.2.4-4,.4h-.8v-2.4h.6c3.8,0,5.7-.6,5.7-2,0-1-1-2.6-3.2-4.6l-.2.6c-.2-.2-.6-.6-1-1.2-.6-.6-.8-1-.8-1.2,0-.6.2-1.2.8-1.8.2-.2,1.4-.6,4-1.4,2.6-.7,5-1.3,6.8-1.9Zm-.4-2.9l-.4,1.4-9.7,3.2.4-1.4,9.7-3.2Z"/></g><g id="G_26"><path id="PATH_27" d="m301.91,331.26c.2.6.2,1.2.2,1.8,0,.8-.2,1.4-.4,2.2-.6,1.4-1.6,2.6-3.6,3.4-1.6.6-3.2,1-5,1s-3.2-.4-4.4-1.2c-1.2-1-1.8-2.2-1.8-4,0-1,.2-1.8.6-3,.4-.8.6-1.4,1-1.8.2-.2.4-.2.4-.2q.2,0,.2.2v.4c-.6,1.2-.8,2.4-.8,3.4s.4,1.8,1,2.6c.8,1,2.2,1.4,4,1.4,2,0,3.8-.4,5.2-1,1.2-.6,2-1.2,2.4-2,.2-.2.2-.6.2-.8,0-.6-.2-1.2-.4-2-.2-.6-.8-1.6-1.8-3.2l.8-1.6c.2-.2.2-.4.2-.4,0,0,.2,0,.2.2,1,1.4,1.6,3,1.8,4.6Zm-5.8-8.7l-1.6,1.6-1.6-1.6,1.6-1.6,1.6,1.6Z"/><path id="PATH_28" d="m310.01,331.46h-1.4c-1.4,0-2.6-.6-3-1.8-.4-.8-.6-2.2-.6-3.8v-3.8c0-1.8-.2-4.4-.4-7.7l1.2-1.4c.2-.2.4-.2.4,0,.2,1.8.4,4.4.4,7.7v5.7c0,1.6.8,2.4,2.4,2.4h1v2.7h0Z"/><path id="PATH_29" d="m319.71,331.46h-1.6c-1.8,0-3-.6-3.8-1.8-.6,1.2-2,1.8-4.2,1.8h-1v-2.4h1.8c2,0,3-.8,3.2-2.2,0-.6.2-1,.4-1s.4.4.4,1c.2,1.4,1.2,2.2,3,2.2h1.8v2.4h0Zm-6.7-11.5l-1.6,1.6-1.6-1.6,1.6-1.6,1.6,1.6Zm3.4,0l-1.6,1.6-1.6-1.6,1.6-1.6,1.6,1.6Z"/><path id="PATH_30" d="m338.01,331.46h-1c-1.4,0-2.2-.6-2.8-1.6-.4,1.2-1.4,1.6-2.6,1.6s-2-.6-2.6-1.6c-.6,1.2-1.4,1.6-2.6,1.6-1.4,0-2.4-.6-3-1.6-.8,1.2-1.8,1.6-3.2,1.6h-1.4v-2.4h1.6c1.4,0,2.4-.8,2.6-2.4,0-.4.2-.6.4-.6s.2.2.4.6c.2,1.6,1,2.4,2.6,2.4,1.4,0,2.4-.8,2.4-2.4,0-.4.2-.6.4-.6s.4.2.4.6c.2,1.6,1,2.4,2,2.4,1.4,0,2.4-.8,2.4-2.4,0-.4.2-.6.4-.6s.4.2.4.6c.2,1.6,1,2.4,2.4,2.4h1.2v2.4h-.4Z"/><path id="PATH_31" d="m347.91,331.46h-1.6c-1.8,0-3-.6-3.8-1.8-.6,1.2-2,1.8-4.2,1.8h-1.2v-2.4h1.8c2,0,3-.8,3.2-2.2,0-.6.2-1,.4-1s.4.4.4,1c.2,1.4,1.2,2.2,3,2.2h1.8v2.4h.2Zm-6.8-11.5l-1.6,1.6-1.6-1.6,1.6-1.6,1.6,1.6Zm3.4,0l-1.6,1.6-1.6-1.6,1.6-1.6,1.6,1.6Z"/><path id="PATH_32" d="m363.51,327.26c0,1.2-.2,2.2-.8,3s-1.6,1.4-2.6,1.4c-1.4,0-2.2-.6-2.8-1.6-.8,1.2-1.6,1.6-2.8,1.6-1.4,0-2.4-.6-3-1.6-.8,1.2-1.8,1.6-3.2,1.6h-1.4v-2.4h1.6c1.4,0,2.4-.8,2.6-2.4,0-.4.2-.6.4-.6s.2.2.4.6c.2,1.6,1,2.4,2.6,2.4.8,0,1.6-.2,2-.6.2-.4.4-.8.6-1.6,0-.4.2-.6.4-.6s.2.2.4.6c.2,1.6,1,2.4,2.4,2.4,1.6,0,2.2-.4,2.2-1s-.4-1.4-1.2-2.2l1-1.8c.2-.2.2-.4.4-.4s.2.2.4.4c0,.8.4,1.8.4,2.8Zm-6.7-7.3l-1.4,1.4-1.4-1.4,1.4-1.4,1.4,1.4Zm1.8-3l-1.4,1.4-1.4-1.4,1.4-1.4,1.4,1.4Zm1.7,3l-1.4,1.4-1.4-1.4,1.4-1.4,1.4,1.4Z"/><path id="PATH_33" d="m375.61,327.26c0,2.8-1.8,4.2-5.5,4.2-1.4,0-2.4-.2-3-.6-.8-.4-1.2-1.4-1.2-2.6,0-.6.2-1.2.4-1.8.2-.2.2-.4.4-.4s.2.2.2.6v.6c0,.8.4,1.4,1.2,1.6.4.2,1.2.2,2.2.2,3,0,4.4-.4,4.4-1.4,0-1.4-1.8-3.4-5.2-5.7l.6-2c0-.2.2-.2.2-.2,0,0,.2,0,.4.2,3.3,2.6,4.9,5.1,4.9,7.3Z"/></g><g id="G_34"><path id="PATH_35" d="m256.31,418.46h-.8c-.8,0-1.2-.2-1.6-.4v.6c0,1.8-.6,3.6-1.8,5.4-1,1.6-2,2.2-2.6,2.2-1.6,0-2.8,0-4-.2-.4,0-.6-.2-.6-.2,0,0,.2-.2.6-.2,1.6-.4,3.2-1.2,4.8-2.4,1.6-1.4,2.6-2.8,2.6-4.2,0-.8-.6-2-2-3.4l1-1.8c0-.2.2-.2.2-.2l.2.2c.6.8,1,1.4,1.4,1.6.6.4,1.4.8,2.2.8h.6v2.2h-.2Z"/><path id="PATH_36" d="m268.61,418.46h-1c-.8,0-1.6.2-2.2.4-1,.4-1.6,1-1.6,2,0,1.2.8,2.2,2.4,3.2l-1,2c-1.8-.6-3.4-1.6-4.6-2.8-1.6-1.4-2.4-3.2-2.4-5h-2.8v-2.4h2.6c0-1.6.4-3.2,1.2-5.2.8-1.8,1.4-2.6,1.8-2.6s1,.8,1.6,2.6c.6,1.6.8,2.6.8,3.2,0,2.8-1.4,4.2-4.2,4.2.2.8.6,1.6,1.2,2.4.6.8,1.4,1.4,2.2,1.8v-.8c0-1.4.4-2.6,1-3.6,1-1.4,2.2-2.2,4-2.2h.8v2.8h.2Zm-5.9-3.2c0-.4-.2-1.2-.6-2.2-.4-1.2-.8-1.6-1.2-1.6-.2,0-.6.4-1,1.4s-.6,2.2-.6,3.4c2.2-.2,3.4-.4,3.4-1Z"/><path id="PATH_37" d="m284.31,414.26c0,1.2-.2,2.2-.8,3s-1.6,1.4-2.6,1.4c-1.4,0-2.2-.6-2.8-1.6-.8,1.2-1.6,1.6-2.8,1.6-1.4,0-2.4-.6-3-1.6-.8,1.2-1.8,1.6-3.2,1.6h-1.3v-2.4h1.6c1.4,0,2.4-.8,2.6-2.4,0-.4.2-.6.4-.6s.2.2.4.6c.2,1.6,1,2.4,2.6,2.4.8,0,1.6-.2,2-.6.2-.4.4-.8.6-1.6,0-.4.2-.6.4-.6s.2.2.4.6c.2,1.6,1,2.4,2.4,2.4,1.6,0,2.2-.4,2.2-1s-.4-1.4-1.2-2.2l1-1.8c.2-.2.2-.4.4-.4s.2.2.4.4c-.1.8.3,1.8.3,2.8Zm-6.8-7.3l-1.4,1.4-1.4-1.4,1.4-1.4,1.4,1.4Zm1.8-3.2l-1.4,1.4-1.4-1.4,1.4-1.4,1.4,1.4Zm1.8,3.2l-1.4,1.4-1.4-1.4,1.4-1.4,1.4,1.4Z"/><path id="PATH_38" d="m296.71,418.46h-2.2c-.2,2.8-1.2,5-3.2,6.9-.6.6-1,1-1.2,1-1,0-2.4-.2-3.8-.4-.4,0-.8-.2-.8-.2,0,0,.2-.2.8-.4,1.6-.4,3.2-1.4,4.6-2.4.6-.6,1.2-1,1.6-1.8.6-.8,1-1.6,1-2.2v-.6h-2.6c-2,0-2.8-.8-2.8-2.4,0-1,.2-2,.8-3.2s1.4-2,2.2-2c1,0,1.8.6,2.4,2,.4,1,.8,2,.8,3.2h2.2v2.4h.2v.1Zm-3.5-2.4c0-.6-.2-1.2-.6-1.8-.4-.8-1-1-1.6-1-.4,0-.8.2-1,.4-.2.2-.4.6-.4,1.2,0,1,.8,1.4,2.4,1.4,0-.2.6-.2,1.2-.2Z"/><path id="PATH_39" d="m301.31,414.46c0,2.6-1.4,4-4,4h-1.6v-2.4h1.4c2,0,3-.4,3-1s-.4-1.4-1.4-2.4l.8-2c0-.2.2-.2.2-.2,0,0,.2.2.4.4.8,1,1.2,2.2,1.2,3.6Zm-.6,8.3l-1.6,1.6-1.6-1.6,1.6-1.6,1.6,1.6Z"/></g><g id="G_40"><path id="PATH_41" d="m301.51,502.66c.2.6.2,1.2.2,1.8,0,.8-.2,1.4-.4,2.2-.6,1.4-1.6,2.6-3.6,3.4-1.6.6-3.2,1-5,1s-3.2-.4-4.4-1.2c-1.2-1-1.8-2.2-1.8-4,0-1,.2-1.8.6-3,.4-.8.6-1.4,1-1.8.2-.2.4-.2.4-.2q.2,0,.2.2v.4c-.6,1.2-.8,2.4-.8,3.4s.4,1.8,1,2.6c.8,1,2.2,1.4,4,1.4,2,0,3.8-.4,5.2-1,1.2-.6,2-1.2,2.4-2,.2-.2.2-.6.2-.8,0-.6-.2-1.2-.4-2-.2-.6-.8-1.6-1.8-3.2l.8-1.6c.2-.2.2-.4.2-.4,0,0,.2,0,.2.2,1,1.4,1.6,3,1.8,4.6Zm-6-8.7l-1.6,1.6-1.6-1.6,1.6-1.6,1.6,1.6Z"/><path id="PATH_42" d="m309.61,502.86h-1.4c-1.4,0-2.6-.6-3-1.8-.4-.8-.6-2.2-.6-3.8v-3.8c0-1.8-.2-4.4-.4-7.7l1.2-1.4c.2-.2.4-.2.4,0,.2,1.8.4,4.4.4,7.7v5.7c0,1.6.8,2.4,2.4,2.4h1v2.7h0Z"/><path id="PATH_43" d="m319.31,502.86h-1.6c-1.8,0-3-.6-3.8-1.8-.6,1.2-2,1.8-4.2,1.8h-1.2v-2.4h1.8c2,0,3-.8,3.2-2.2,0-.6.2-1,.4-1s.4.4.4,1c.2,1.4,1.2,2.2,3,2.2h1.8v2.4h.2Zm-6.7-11.5l-1.6,1.6-1.6-1.6,1.6-1.6,1.6,1.6Zm3.4,0l-1.6,1.6-1.6-1.6,1.6-1.6,1.6,1.6Z"/><path id="PATH_44" d="m337.61,502.86h-1.2c-1.4,0-2.2-.6-2.8-1.6-.4,1.2-1.4,1.6-2.6,1.6s-2-.6-2.6-1.6c-.6,1.2-1.4,1.6-2.6,1.6-1.4,0-2.4-.6-3-1.6-.8,1.2-1.8,1.6-3.2,1.6h-1.4v-2.4h1.6c1.4,0,2.4-.8,2.6-2.4,0-.4.2-.6.4-.6s.2.2.4.6c.2,1.6,1,2.4,2.6,2.4,1.4,0,2.4-.8,2.4-2.4,0-.4.2-.6.4-.6s.4.2.4.6c.2,1.6,1,2.4,2,2.4,1.4,0,2.4-.8,2.4-2.4,0-.4.2-.6.4-.6s.4.2.4.6c.2,1.6,1,2.4,2.4,2.4h1.2v2.4h-.2Z"/><path id="PATH_45" d="m351.01,502.86h-1.2c-1,0-2.2-.4-3.2-1.4-.8-.6-1.6-1.8-2.6-3.2-.2,3-2.2,4.6-6.1,4.6h-1.1v-2.4h.8c3.6,0,5.5-.8,5.5-2.2,0-1.2-.8-2.6-2.6-4.2-.8-.8-1.6-1.4-2.6-2.2,0-.8.2-1.4.6-2,.2-.2,3.8-1.4,10.9-3.6,0,.2-.2,1-.6,2.2-1.8.4-4.8,1.4-8.7,2.6,2,2.2,4,4.2,5.4,5.9,1,1,1.6,1.8,2.2,2.2.8.6,1.8,1,2.8,1h.8v2.6h-.3v.1Zm-2.1-19l-.4,1.4-9.7,3.2.4-1.4,9.7-3.2Z"/><path id="PATH_46" d="m360.71,502.86h-1.6c-1.8,0-3-.6-3.8-1.8-.6,1.2-2,1.8-4.2,1.8h-1.2v-2.4h1.8c2,0,3-.8,3.2-2.2,0-.6.2-1,.4-1s.4.4.4,1c.2,1.4,1.2,2.2,3,2.2h1.8v2.4h.2Zm-3.9-10.3l-1.6,1.6-1.6-1.6,1.6-1.6,1.6,1.6Z"/><path id="PATH_47" d="m365.51,498.86c0,2.6-1.4,4-4,4h-1.6v-2.4h1.4c2,0,3-.4,3-1s-.4-1.4-1.4-2.4l.8-2c0-.2.2-.2.2-.2l.4.4c.8,1.1,1.2,2.4,1.2,3.6Zm-2-8.7l-1.6,1.6-1.6-1.6,1.6-1.6,1.6,1.6Zm3.6,0l-1.6,1.6-1.6-1.6,1.6-1.6,1.6,1.6Z"/></g><g id="G_48"><path id="PATH_49" d="m391.31,599.16h-4.6c-.6,0-1.2,0-1.6.2-.8.2-1,.6-1,1,0,.2,1,.4,2.8.8,1.8.4,2.8.8,2.8,1.2,0,1.6-.4,2.8-1.4,3.6-1.6,1.4-4.2,2-7.9,2-4.6,0-6.9-1.8-6.9-5.2,0-.8.2-1.6.6-2.6.4-1,.8-1.8,1.2-2.4.2-.2.4-.4.6-.4s.2,0,.2.2,0,.4-.2.6c-.6,1.2-1,2.4-1,3.6,0,1.4.6,2.4,2,3,1,.6,2.2.8,3.8.8s3,0,4.4-.2c2.4-.4,3.6-.8,3.6-1.6,0-.4-.6-.6-1.6-.8-1.6-.2-2.6-.4-3-.6-1-.2-1.6-.8-1.6-1.4,0-.4.2-1,.8-1.8.4-.6.8-1,1.4-1.4,1-.8,2.2-1.2,4-1.2h2.8l-.2,2.6h0Z"/><path id="PATH_50" d="m401.01,599.16h-1.6c-1.8,0-3-.6-3.8-1.8-.6,1.2-2,1.8-4.2,1.8h-1v-2.4h1.8c2,0,3-.8,3.2-2.2,0-.6.2-1,.4-1s.4.4.4,1c.2,1.4,1.2,2.2,3,2.2h1.8v2.4h0Zm-6.8-11.5l-1.6,1.6-1.6-1.6,1.6-1.6,1.6,1.6Zm3.4,0l-1.6,1.6-1.6-1.6,1.6-1.6,1.6,1.6Z"/><path id="PATH_51" d="m416.61,594.96c0,1.2-.2,2.2-.8,3s-1.6,1.4-2.6,1.4c-1.4,0-2.2-.6-2.8-1.6-.8,1.2-1.6,1.6-2.8,1.6-1.4,0-2.4-.6-3-1.6-.8,1.2-1.8,1.6-3.2,1.6h-1.4v-2.4h1.6c1.4,0,2.4-.8,2.6-2.4,0-.4.2-.6.4-.6s.2.2.4.6c.2,1.6,1,2.4,2.6,2.4.8,0,1.6-.2,2-.6.2-.4.4-.8.6-1.6,0-.4.2-.6.4-.6s.2.2.4.6c.2,1.6,1,2.4,2.4,2.4,1.6,0,2.2-.4,2.2-1s-.4-1.4-1.2-2.2l1-1.8c.2-.2.2-.4.4-.4s.2.2.4.4c.2.9.4,1.9.4,2.8Zm-6.7-7.3l-1.4,1.4-1.4-1.4,1.4-1.4,1.4,1.4Zm1.8-3.2l-1.4,1.4-1.4-1.4,1.4-1.4,1.4,1.4Zm1.8,3.2l-1.4,1.4-1.4-1.4,1.4-1.4,1.4,1.4Z"/><path id="PATH_52" d="m428.71,594.96c0,2.8-1.8,4.2-5.5,4.2-1.4,0-2.4-.2-3-.6-.8-.4-1.2-1.4-1.2-2.6,0-.6.2-1.2.4-1.8.2-.2.2-.4.4-.4s.2.2.2.6v.6c0,.8.4,1.4,1.2,1.6.4.2,1.2.2,2.2.2,3,0,4.4-.4,4.4-1.4,0-1.4-1.8-3.4-5.2-5.7l.6-2c0-.2.2-.2.2-.2,0,0,.2,0,.4.2,3.3,2.6,4.9,5.2,4.9,7.3Z"/></g><g id="G_53"><path id="PATH_54" d="m431.71,752.36h-.8c-.8,0-1.2-.2-1.6-.4v.6c0,1.8-.6,3.6-1.8,5.4-1,1.6-2,2.2-2.6,2.2-1.6,0-2.8,0-4-.2-.4,0-.6-.2-.6-.2,0,0,.2-.2.6-.2,1.6-.4,3.2-1.2,4.8-2.4,1.6-1.4,2.6-2.8,2.6-4.2,0-.8-.6-2-2-3.4l1-1.8c0-.2.2-.2.2-.2l.2.2c.6.8,1,1.4,1.4,1.6.6.4,1.4.8,2.2.8h.6v2.2h-.2Z"/><path id="PATH_55" d="m436.41,748.36c0,2.6-1.4,4-4,4h-1.6v-2.4h1.4c2,0,3-.4,3-1s-.4-1.4-1.4-2.4l.8-2c0-.2.2-.2.2-.2l.4.4c.8,1.1,1.2,2.2,1.2,3.6Zm-1.5,8.3l-1.6,1.6-1.6-1.6,1.6-1.6,1.6,1.6Zm3.3,0l-1.6,1.6-1.6-1.6,1.6-1.6,1.6,1.6Z"/><path id="PATH_56" d="m450.51,748.16c0,2.8-1.8,4.2-5.5,4.2-1.4,0-2.4-.2-3-.6-.8-.4-1.2-1.4-1.2-2.6,0-.6.2-1.2.4-1.8.2-.2.2-.4.4-.4s.2.2.2.6v.6c0,.8.4,1.4,1.2,1.6.4.2,1.2.2,2.2.2,3,0,4.4-.4,4.4-1.4,0-1.4-1.8-3.4-5.2-5.7l.6-2c0-.2.2-.2.2-.2,0,0,.2,0,.4.2,3.1,2.6,4.9,5,4.9,7.3Z"/></g><g id="G_58"><path id="PATH_59" d="m605.31,847.26c-.2,2.4-.8,4.2-2.2,6.1-.8,1.4-2.2,2.4-3.2,2.6-2,.4-4.2.2-5.5-1-2.4-1.6-3-4.2-1.4-6.5,1.2-1.6,2.4-2.4,3.6-3l.4.6c-1,.6-2,1.4-2.4,2-.8,1.2-.8,2-.6,2.8.2.8.8,1.8,1.8,2.6,1,.6,2.6,1,3.8,1,.8,0,1.4-.2,1.6-.4.6-.8.8-1.8,1.2-2.6.4-1.2.6-2.4.6-3.2.9-.4,1.5-.8,2.3-1h0Zm-.6-6.5c.2.8.4,1.6.6,2.4-.6.2-1.2.4-2,.6-.2-.8-.4-1.6-.6-2.4.6-.2,1.4-.4,2-.6Z"/><path id="PATH_60" d="m607.51,859.36h0c-1.2-.8-1.6-1.4-1.8-2.4-.2-1.4.4-2.2,1.6-4.2,1.6-2.4,3.2-5.2,4.8-7.9.8-.2,1.4-.4,2-.4v.2c-1.6,3-4,6.3-5.9,9.5l-.4.8c-.6.8-.4,1.6,0,2,.2.4.6.6.8.6l.2.2-1.3,1.6Z"/><path id="PATH_61" d="m617.41,866.06l-.2-.2c-1.6-1-1.8-2.6-2-4.4,0-.8-.2-1.6-.2-2.2h0c-1.4,2-3.6,2.8-7.1.4l-.4-.2c-.8-.4-.6-1.2-.4-1.4.2-.4.8-.6,1.4-.2l.6.4c1,.8,2.4,1.4,3.6,1.4.4,0,1,0,1-.2.2-.2.2-.6.4-1,.2-1.6-.2-3.2-.8-5.5-.2-.6-.2-1.2-.2-1.4.2-.2.2-.4.4-.6.2-.4.6-.6,1-.8.2-.2.4,0,.8-.2,2,0,5.5,1,9.9,2.2h0c-.6.4-1.2.6-2,1-1-.4-2.2-.6-3.6-1-2-.4-3.8-.8-5-1h0c.4.8,1,1.8,1.6,2.4l-.8.4c.6,2.2,1.2,4.6,1.6,7.7.2,1.4.6,2.4,1.6,3l.2.2-1.4,1.2Zm-1.6-17.6c.2-.2.6-.4.8-.6,2.4.4,5.4,1.2,8.7,2.2h0l-1,.4c-3.6-1.2-6.1-1.8-8.5-2h0Z"/><path id="PATH_62" d="m618.81,864.56c1,.6,2.4,1,3,.4l1.4-1.2h1.4v.2c-.6.6-1.2,1-1.2,1.4-.4.4-.4,1-.2,1.4.2.6.6,1.2,1.2,1.6l.2.2-1.2,1.6-.2-.2c-1.2-.8-2-1.8-1.8-3.2h0c-1,.6-2.4.4-3.4-.4l-.2-.2c-.8-.4-.6-1.2-.4-1.4.2-.4.8-.6,1.4-.2h0Zm7.5-6.2c.2.8.4,1.6.6,2.4-.6.2-1.2.4-2,.6-.2-.8-.4-1.6-.6-2.4.6-.2,1.2-.4,2-.6Z"/><path id="PATH_63" d="m640.61,861.36c-.6.4-1.4.6-2,1-.8-.2-1.6-.6-2.6-.8-1.6-.4-3.4-.8-5.4-1.2h0l1.6,2.2-.8.4c1,3,1.2,5.5.2,6.7-.8,1.2-1.8,2-2.6,2.2-1.4.2-3-.2-5.4-1.8l-.6-.4c-.8-.4-.6-1.2-.4-1.4.2-.4.8-.6,1.4-.2l.8.6c1.4.8,2.6,1.6,4,1.6.6,0,1,0,1.2-.2.4-.6.4-1.6.4-2.6,0-1.2-.4-3.2-1.4-6.1-.2-.6,0-1,.4-1.6.2-.2.6-.4.8-.6.4-.2.8-.2,1.6-.2,2,.4,5,1.2,8.8,2.4h0Z"/></g><g id="G_64"><path id="PATH_65" d="m741.21,977.46h-1.4c-1.8,0-2.8-1-3.2-3.2-1,1-1.4,1.4-1.6,1.4h-1.8c-.6,0-1.2,0-1.8-.2-.8-.2-1.2-.6-1.2-1,0-1.6.6-2.8,1.6-3.6.8-.6,2-1.2,3.6-2l-.4-2,1.4-1.6c0,.2.6,2.4,1.4,6.5.2,1.2.6,2.2.8,2.6.4.6.8.8,1.6.8h1.4v2.2h-.4v.1Zm-4.9-4l-.6-3.2c-.6.2-1.4.6-2.4,1-1.2.6-2,1.2-2,1.4,0,.4.4.6,1.4.8.6.2,1.2.2,1.8.2.8-.2,1.4-.2,1.8-.2Z"/><path id="PATH_66" d="m746.01,973.46c0,2.6-1.4,4-4,4h-1.6v-2.4h1.4c2,0,3-.4,3-1s-.4-1.4-1.4-2.4l.8-2c0-.2.2-.2.2-.2,0,0,.2.2.4.4.8,1.1,1.2,2.5,1.2,3.6Zm-1.6,8.4l-1.6,1.6-1.6-1.6,1.6-1.6,1.6,1.6Zm3.6,0l-1.6,1.6-1.6-1.6,1.6-1.6,1.6,1.6Z"/><path id="PATH_67" d="m760.21,977.46h-2.2c-.2,2.8-1.2,5-3.2,6.9-.6.6-1,1-1.2,1-1,0-2.4-.2-3.8-.4-.4,0-.8-.2-.8-.2,0,0,.2-.2.8-.4,1.6-.4,3.2-1.4,4.6-2.4.6-.6,1.2-1,1.6-1.8.6-.8,1-1.6,1-2.2v-.6h-2.6c-2,0-2.8-.8-2.8-2.4,0-1,.2-2,.8-3.2.6-1.2,1.4-2,2.2-2,1,0,1.8.6,2.4,2,.4,1,.8,2,.8,3.2h2.2v2.4h.2v.1Zm-3.5-2.4c0-.6-.2-1.2-.6-1.8-.4-.8-1-1-1.6-1-.4,0-.8.2-1,.4s-.4.6-.4,1.2c0,1,.8,1.4,2.4,1.4,0,0,.6-.2,1.2-.2Z"/><path id="PATH_68" d="m767.61,977.46h-.8c-1.8,0-3-.6-3.6-2-.2.6-.6,1-1.2,1.4s-1.2.6-1.8.6h-.8v-2.4h.8c1.6,0,2.4-.6,2.4-2v-6.9c0-2.6,0-4.6-.2-5.9l1.8-1.4v13.3c0,2,.8,3,2.6,3h.8v2.3h0Z"/><path id="PATH_69" d="m785.81,977.46h-1c-1.4,0-2.2-.6-2.8-1.6-.4,1.2-1.4,1.6-2.6,1.6s-2-.6-2.6-1.6c-.6,1.2-1.4,1.6-2.6,1.6-1.4,0-2.4-.6-3-1.6-.8,1.2-1.8,1.6-3.2,1.6h-1.4v-2.4h1.6c1.4,0,2.4-.8,2.6-2.4,0-.4.2-.6.4-.6s.2.2.4.6c.2,1.6,1,2.4,2.6,2.4,1.4,0,2.4-.8,2.4-2.4,0-.4.2-.6.4-.6s.4.2.4.6c.2,1.6,1,2.4,2,2.4,1.4,0,2.4-.8,2.4-2.4,0-.4.2-.6.4-.6s.4.2.4.6c.2,1.6,1,2.4,2.4,2.4h1.2v2.4h-.4Z"/><path id="PATH_70" d="m796.31,973.46l-.6,1.8-5.4,1.4c-1.6.4-3,.6-4.2.6h-1v-2.4h1.6c.4,0,.8,0,1.6-.2-1.2-1-1.8-1.8-1.8-2.8,0-.8.4-1.8,1.4-3,1.2-1.4,2.4-2.2,3.6-2.2,1.4,0,2.4.6,3.2,1.8.2.4.4.6.4.8,0,0,0,.2-.2.2s-.4,0-1-.2c-1-.2-1.8-.4-2.6-.4-.6,0-1.2.2-2,.6-.8.4-1.4.8-1.4,1.4,0,.4.4,1,1,1.6.8.8,1.8,1.2,2.8,1.2.4,0,1.8-.4,4.2-1h.4v.8Z"/></g><text class="cls-3" transform="translate(601.77 778.79)"><tspan x="0" y="0" xml:space="preserve"> مج</tspan></text></svg>