<?xml version="1.0" encoding="UTF-8"?><svg id="Layer_1" xmlns="http://www.w3.org/2000/svg" viewBox="0 0 1127.32 989.26"><defs><style>.cls-1{fill:#fbf7be;}.cls-1,.cls-2{stroke:#000;stroke-miterlimit:10;stroke-width:.5px;}.cls-2{fill:#e5b9d7;}.cls-3{isolation:isolate;}.cls-4{fill:#fdfad6;}.cls-4,.cls-5,.cls-6,.cls-7{stroke:#020202;stroke-miterlimit:20.42;stroke-width:.41px;}.cls-5{fill:#dbeccb;}.cls-6{fill:#e8d0e5;}.cls-7{fill:#fbd1d1;}</style></defs><path id="_237" class="cls-7" d="m625.6,114.67c2.9,9.8,19.6,8.4,23.9,19.6,2.9,12.7-9.8,25.1-4.3,36.3,5.7,8.4,19.6,8.4,23.9,21-9.8,0-22.5,11.2-16.7,16.7,14.1,15.3,19.6,32.3,32.3,44.9,19.8,19,43.1,12.2,61.9-2.9-5.1-4.7-9.4-10.8-12.5-17.8-9.4-21-6.5-45.3.8-58.6,8.6-14.9,5.5-28.6-11-48.4-8.2-9.8-14.5-24.3-21-39.4-6.1-13.9-12.2-28.2-20.4-40.4-9.6-14.5-20.2-11.4-36.5-5.1-5.3,2-10.6,4.1-15.7,4.9-3.9.6-9.8,2.2-16.5,4.1,1.6,10.2,6.1,19.4,9.2,28.6,4.1,11.4-1.4,25.3,2.6,36.5Z"/><path id="_637" class="cls-5" d="m463.1,145.47c5.5,9.8,11.2,19.6,21,25.1,25.3,18.2,54.7,22.5,72.9,50.4,2.9,5.7,8.4-4.3,14.1-8.4,1.4-1.4,5.7-1.4,6.9,0,15.3,18.2,35.1,32.3,57.4,22.5,8.4-2.9,18.2-4.3,28-8.4.6-.2,1-.4,1.6-.8-3.7-5.9-7.8-11.6-12.9-17.6-5.7-5.5,6.9-16.7,16.7-16.7-4.3-12.7-18.2-12.7-23.9-21-5.5-11.2,6.9-23.9,4.3-36.3-4.3-11.2-21-9.8-23.9-19.6-4.3-11.2,1.4-25.3-2.9-36.3-3.1-9.2-7.6-18.4-9.2-28.6-1.2.4-2.2.6-3.5,1-23.3,6.3-54.9,14.9-81.7,12.7-24.3-2-33.7,15.3-42.9,32.1-2.4,4.3-4.5,8.4-6.9,12-4.9,7.3-14.5,16.5-25.3,24.3,4.5,4,8,8.9,10.2,13.6Z"/><path id="_358" class="cls-6" d="m447.8,193.07c-1.4,8.4-12.7,16.7-8.4,28,4.3,12.7,16.7,18.2,28.2,25.3,9.8,6.9,9.8,22.5,21,28,5.5,1.4,11.2,5.5,15.3,8.4,15.3,16.7,29.4,32.3,53.3,39.2,4.3,1.4,9.8,4.3,14.1,8.4,16.7,22.5,29.4,46.1,58.8,47.6,1.4,32.3,39.2,46.1,64.5,39.2,14.1-4.3,15.3-26.5,25.1-39.2,8.4-9.8,22.5,8.4,35.1,8.4,4.3,0,9.8-8.4,16.7-4.3,11.2,6.9,15.3,18.2,26.7,26.7,2.9,1.4,9.8,1.4,9.8-2.9,6.7-30.6,24.7-53.1,48.4-72.3-8.6-9.8-15.1-22.5-18.8-37-4.7-18.6-22.7-24.1-65.5-33.3-10-2-18.4-6.5-25.3-12.9-19,15.3-42.3,21.8-62.1,2.9-8-8-13.1-17.6-19.4-27.4-.6.2-1.2.6-1.6.8-9.8,4.3-19.6,5.5-28,8.4-22.5,9.8-42.1-4.3-57.4-22.5-1.4-1.4-5.7-1.4-6.9,0-5.5,4.3-11.2,14.1-14.1,8.4-18.2-28-47.6-32.3-72.9-50.4-9.8-5.5-15.3-15.5-21-25.1-2.4-4.9-5.7-9.6-10-13.7-5.3,3.9-11,7.1-16.3,9.8,8.1,15.8,14.2,33.1,10.7,51.5Z"/><path id="_362" class="cls-7" d="m439.4,299.67c14.1,39.2,51.9,64.5,91.1,86.8,5.7,4.3,9.8,9.8,11.2,14.1,9.8,25.3,18.2,55.9,46.1,65.7,11.6-25.5,25.3-50.2,47.2-70.6-2.9-5.1-4.9-11-5.1-17.6-29.4-1.4-42.1-25.3-58.8-47.6-4.3-4.3-9.8-6.9-14.1-8.4-23.7-6.9-37.8-22.5-53.3-39.2-4.3-2.9-9.8-6.9-15.3-8.4-3.7-1.8-6.1-4.5-8-7.8-20.3,7.7-48.3,13.4-41,33Z"/><path id="_361" class="cls-4" d="m467.4,421.47c4.3-1.4,4.3-8.4,2.9-12.7-6.1-18.8-1.4-40.6,11.6-54.3-19-15.3-34.5-32.9-42.5-54.9-7.3-19.6,20.8-25.3,41-33.1-4.3-6.7-6.3-15.5-13.1-20.2-11.2-6.9-23.7-12.7-28-25.3-4.3-11.2,6.9-19.6,8.4-28,3.5-18.4-2.4-35.7-11-51.4-9.8,4.7-19.2,6.7-25.5,3.5-13.1-6.5-52.5-40.2-69.4-57.2-16.3-16.3-39.6-17.1-62.3-2-27.2,18.2-47,1.6-58.8-8.2-1.6-1.4-3.3-2.7-4.7-3.9-5.3-4.1-21.6-14.1-38.8-24.9-19.4-12-41.2-25.9-52.3-33.7-5.3-3.9-9.4-9-12.7-14.9-12.7,6.1-48.2,23.3-62.3,32.7C32.1,44.77,3.4,59.27,2.1,59.87c-.6.2-1.2.2-1.8.4,12.2,21.8,26.5,44.5,38.2,53.1,14.5,10.8,40.2,34.1,60.6,52.5,13.5,12,25.1,22.5,30.6,26.9,7.6,6.1,24.5,23.1,42.5,41,17.6,17.6,35.9,35.9,45.9,44.5,20,17.4,16.1,31.6,12.9,43.3-.6,2.2-1.2,4.7-1.8,7.1-2.4,11.8,13.5,56.6,28,73.9,12.5,14.9,51.4,56.6,72.7,74.5,30-26.3,67.4-43.3,103.7-55.7,11.4-4.1,22.6,4.2,33.8.1Z"/><path id="_353" class="cls-5" d="m586.4,635.87c-22.5-37.8-54.7-58.8-93.9-77-5.5-2.9-14.1-9.8-8.4-18.2,5.7-5.5,12.7-14.1,18.2-14.1,39.2,1.4,77-11.2,100.9-39.2,7.1-7.1-4.7-18.2-12-28.2-1.2,2.4-2.2,4.9-3.5,7.1-28-9.8-36.3-40.6-46.1-65.7-1.4-4.3-5.7-9.8-11.2-14.1-17.1-9.8-33.9-20-48.6-31.8-13.1,13.5-17.8,35.5-11.6,54.3,1.4,4.3,1.4,11.2-2.9,12.7-11.2,4.3-22.5-4.3-33.7,0-36.3,12.5-73.7,29.6-103.7,55.9,3.3,2.9,6.1,5.1,8.4,6.5,17.8,11.8,77.6,65.9,80.2,68.2l2.9,2.4-.6,3.7c-5.3,29.6-7.3,65.1-1.8,70.6,11.2,11.2,32.1,32.1,43.5,40.6,5.5,4.1,11.4,11.4,16.3,18.4,19.8-9,41.9-9.4,63.1,5.5,8.4,5.5,22.5,2.9,30.8-8.4,5.7-6.9,21,1.4,25.1-2.9,8.4-9.8-9.8-22.5-5.5-36.3.4-1,.8-2,1.2-2.9-3-2.2-5.2-4.4-7.1-7.1Z"/><path id="_359" class="cls-4" d="m802.8,409.67c-1.8,0-3.7-.2-4.7-.8-11.2-8.4-15.3-19.6-26.7-26.7-6.9-4.3-12.7,4.3-16.7,4.3-12.7,0-26.5-18.2-35.1-8.4-9.8,12.7-11.2,35.1-25.1,39.2-20,5.5-48-2-59.4-21.6-19.8,18.6-32.9,40.4-43.7,63.5,7.1,10,19.2,21.2,12,28.2-23.9,28-61.7,40.6-100.9,39.2-5.7,0-12.7,8.4-18.2,14.1-5.5,8.4,2.9,15.3,8.4,18.2,39.2,18.2,71.5,39.2,93.9,77,1.8,2.9,4.1,5.1,6.7,6.9,6.7-12.7,23.3-12.2,32.5-5.7,15.3,9.8,30.8,4.3,42.1,14.1,8.4,4.3,9.8,14.1,18.2,16.7,6.9,2.9,16.7,5.5,21,8.4,15.7,11.6,31.6,17.1,48.2,20.2,11.6-18,17.6-42.5,10.6-59.4-18.2-44.9-71.5-57.4-113.5-77-30.8-14.1-25.1-49,1.4-58.8,11.2-4.3,12.7,18.2,25.3,21,32.3,5.5,57.4-16.7,70-46.1,1.4-2.9,6.9-5.5,12.7-4.3,12.7,5.5,32.3,16.7,36.3,2.9,5-20.4-1.6-43.2,4.7-65.1Z"/><path id="_355" class="cls-5" d="m952.5,471.37l-.6-2c-1.6-15.9-7.3-60.6-14.1-74.1-8-15.9-36.1-38.4-54.7-43.7-10-2.9-19.4-9.2-26.9-17.8-23.7,19.4-41.4,41.6-48.4,72.3,0,2.4-2.4,3.5-4.9,3.7-6.1,21.8.2,44.7-4.9,65.1-4.3,14.1-23.7,2.9-36.5-2.9-5.5-1.4-11.2,1.4-12.7,4.3-12.7,29.4-37.8,51.9-70,46.1-12.7-2.9-14.1-25.1-25.3-21-26.5,9.8-32.3,44.9-1.4,58.8,42.1,19.6,95.3,32.3,113.5,77,6.9,17.1,1,41.4-10.6,59.4,17.4,3.3,35.3,3.5,54.1,4.9,8.4,1.4,9.8,15.3,12.7,25.1,2.9,8.4,18.2,9.8,21,18.2,4.3,16.7,2.9,30.8,19.6,39.2,12.2,5.1,23.7,2.9,35.1-1-.8-7.6-1.4-12.2-1.4-14.5,0-4.9,1.8-19.2,4.9-44.1,4.7-37.8,13.7-108,10.2-118.4-3.9-11.6-8.4-41.9,35.1-69.4,27-17.3,6.4-64.6,6.2-65.2Z"/><path id="_364" class="cls-7" d="m842.38,800.51c-8.4-1.93-16.79-3.86-25.19-5.79-4.3-2.77-10.41-6.47-18.09-10.36-.94-.47-3.31-1.74-6.81-3.3-5.5-2.45-9.64-3.72-22.79-9.4-21.5-9.3-58.5-26.7-95.5-48.4-17.5-10.3-30.2-18.7-35.4-22.2-7.7-5.2-14.1-9.7-18.8-13.1-4.5-3.1-9-6.3-13.5-9.4-6.2-4.3-6.9-4.8-6.9-4.8,0,0-.7,6-2.1,8.4-2.9,5.1-17.9-6.9-25.3,2.9-8.4,11.2-22.5,14.1-30.8,8.4-21.2-14.9-43.3-14.5-63.1-5.5,6.3,8.8,11,17.4,12,19l2.2,3.9-2.9,3.5c-29.2,35.7-60.2,76.2-67.6,90.2,11,7.1,39.6,25.3,51,32.3,11.4,6.9,23.7,2.4,43.3-9,23.1-13.1,56.8-24.9,76.8-14.9l3.5,1.6c14.3,7.1,15.1,8.4,30.2,30l4.1,5.7c19.6,28.2,38.6,41.4,59.2,41.4,5.3,0,10.4-1,15.3-2,12.18-2.49,18.56-1.77,23.6,0,2.66.93,11.71,4.71,17.7,20.2,2.8-6.67,5.6-13.33,8.4-20,3.9-9.2,7.8-18.4,11.7-27.5,8.63-9.32,17.26-18.64,25.89-27.96,7.97-8.68,15.94-17.36,23.91-26.04,8.66-2.62,17.32-5.24,25.99-7.86Z"/><g id="G_12"><path id="PATH_13" d="m248.1,231.47h-1.2c-1,0-2.2-.4-3.3-1.4-.8-.6-1.6-1.8-2.7-3.3,0,1.8-.6,3.1-2,3.9-1,.6-2.7.8-4.7.8h-4.3c-4.9,0-7.6-1.4-7.6-4.3,0-1,.4-2,1-3.1.2-.2.4-.4.4-.4q.2,0,.2.2v.4c-.2.8-.4,1.2-.4,1.8,0,.8.4,1.4,1,1.8,1,.8,2.7,1.2,4.9,1.2h4.1c4.1,0,6.3-.8,6.3-2.4,0-1.2-.8-2.7-2.7-4.3-.8-.8-1.6-1.4-2.7-2.2,0-.8.2-1.4.6-2,.2-.2,3.9-1.4,11.2-3.7,0,.2-.2,1-.6,2.2-1.8.4-4.9,1.4-9,2.7,2.2,2.2,4.1,4.3,5.5,6.1,1,1,1.6,1.8,2.2,2.2.8.6,1.8,1,2.9,1h.8l.1,2.8h0Zm-2-19.6l-.4,1.6-10,3.3.4-1.4,10-3.5Z"/><path id="PATH_14" d="m253,227.37c0,2.7-1.4,4.1-4.1,4.1h-1.6v-2.4h1.4c2,0,3.1-.4,3.1-1s-.4-1.4-1.4-2.4l.8-2c0-.2.2-.2.2-.2,0,0,.2.2.4.4.8.8,1.2,2.3,1.2,3.5Zm-.2-9.2l-1.6,1.6-1.6-1.6,1.6-1.6,1.6,1.6Z"/><path id="PATH_15" d="m265.7,231.47h-.8c-.8,0-1.2-.2-1.6-.4v.6c0,1.8-.6,3.7-1.8,5.5-1,1.6-2,2.2-2.7,2.2-1.6,0-2.9,0-4.1-.2-.4,0-.6-.2-.6-.2,0,0,.2-.2.6-.2,1.6-.4,3.3-1.2,4.9-2.4,1.6-1.4,2.7-2.9,2.7-4.3,0-.8-.6-2-2-3.5l1-1.8c0-.2.2-.2.2-.2l.2.2c.6.8,1,1.4,1.4,1.6.6.4,1.4.8,2.2.8h.6v2.2l-.2.1h0Z"/><path id="PATH_16" d="m278.2,227.37c0,.8-.2,1.6-.8,2.4-.6,1-1.2,1.4-2,1.4-.6,0-2-.4-4.3-1.4-1.8,1.2-3.5,1.6-4.9,1.6h-1v-2.4h1.2c.8,0,1.6,0,2.4-.2-.8-.6-1.2-1.4-1.2-2.4,0-1.2.8-2.7,2.7-4.1l-1.4-.6c.4-.4,1-1,1.8-1.8,1.8,1,3.5,1.8,4.9,3.1,1.5,1.5,2.6,3,2.6,4.4Zm-5.3-1.6c0-.6-.2-1-.4-1.4-.2-.6-.6-.8-1.2-.8s-1,.2-1.6.6-1,1-1,1.4c0,.8.8,1.6,2.2,2l1.2-.6c.5-.4.8-.8.8-1.2Zm4.2,2.4c0-.6-.4-1.2-1.2-2-.6-.6-1.2-1.2-1.8-1.4,0,1.6-.4,2.9-1.4,3.7,1.6.6,2.9.8,3.3.8.7-.3,1.1-.5,1.1-1.1Z"/><path id="PATH_17" d="m290.8,231.47h-2.2c-.2,2.9-1.2,5.1-3.3,7.1-.6.6-1,1-1.2,1-1,0-2.4-.2-3.9-.4-.4,0-.8-.2-.8-.2,0,0,.2-.2.8-.4,1.6-.4,3.3-1.4,4.7-2.4.6-.6,1.2-1,1.6-1.8.6-.8,1-1.6,1-2.2v-.6h-2.7c-2,0-2.9-.8-2.9-2.4,0-1,.2-2,.8-3.3.6-1.2,1.4-2,2.2-2,1,0,1.8.6,2.4,2,.4,1,.8,2,.8,3.3h2.2v2.4h.5v-.1h0Zm-3.7-2.5c0-.6-.2-1.2-.6-1.8-.4-.8-1-1-1.6-1-.4,0-.8.2-1,.4-.4.4-.4.6-.4,1.2,0,1,.8,1.4,2.4,1.4.2,0,.6-.2,1.2-.2Z"/><path id="PATH_18" d="m303.5,212.47c0,.4-.4,1.2-.8,2.2l-5.1,1.6c-2.2.8-3.9,1.4-4.7,1.8,1.6,1.6,2.7,2.9,3.3,3.5,1,1.4,1.6,2.7,1.8,4.1,0,1,0,2-.4,2.9-.6,1.8-2.9,2.7-6.3,2.7h-1v-2.5h1.2c1.6,0,2.9,0,3.5-.2,1.4-.4,2.2-1,2.2-2,0-1.4-1-3.1-3.3-5.1l-.2.4c-.2-.2-.6-.6-1-1.2-.6-.6-.8-1.2-.8-1.2,0-.4,0-.8.2-1.6.2-.8.4-1.2.6-1.4.2-.2,1.6-.8,4.3-1.6,2.2-1,4.6-1.8,6.5-2.4Z"/></g><g id="G_20"><path id="PATH_21" d="m675,161.87c.2.6.2,1.2.2,1.8,0,.8-.2,1.4-.4,2.2-.6,1.4-1.6,2.7-3.7,3.5-1.6.6-3.3,1-5.1,1s-3.3-.4-4.5-1.2c-1.2-1-1.8-2.2-1.8-4.1,0-1,.2-1.8.6-3.1.4-.8.6-1.4,1-1.8.2-.2.4-.2.4-.2q.2,0,.2.2v.4c-.6,1.2-.8,2.4-.8,3.5s.4,1.8,1,2.7c.8,1,2.2,1.4,4.1,1.4,2,0,3.9-.4,5.3-1,1.2-.6,2-1.2,2.4-2,.2-.2.2-.6.2-.8,0-.6-.2-1.2-.4-2-.2-.6-.8-1.6-1.8-3.3l.8-1.6c.2-.2.2-.4.2-.4,0,0,.2,0,.2.2,1.1,1.3,1.7,2.9,1.9,4.6Zm-6.1-9l-1.6,1.6-1.6-1.6,1.6-1.6,1.6,1.6Z"/><path id="PATH_22" d="m683.2,162.07h-1.4c-1.4,0-2.7-.6-3.1-1.8-.4-.8-.6-2.2-.6-3.9v-3.9c0-1.8-.2-4.5-.4-8l1.2-1.4c.2-.2.4-.2.4,0,.2,1.8.4,4.5.4,8v5.9c0,1.6.8,2.4,2.4,2.4h1l.1,2.7h0Z"/><path id="PATH_23" d="m693.4,162.07h-1.6c-1.8,0-3.1-.6-3.9-1.8-.6,1.2-2,1.8-4.3,1.8h-1.2v-2.4h1.8c2,0,3.1-.8,3.3-2.2,0-.6.2-1,.4-1s.4.4.4,1c.2,1.4,1.2,2.2,3.1,2.2h1.8v2.4h.2Zm-4.1-10.7l-1.6,1.6-1.6-1.6,1.6-1.6,1.6,1.6Z"/><path id="PATH_24" d="m707.9,162.07h-1.2c-1,0-2-.6-2.9-1.6-.6,1.6-1.2,2.4-1.8,2.4s-1.6-.4-2.9-1c-1-.6-1.8-1.2-2.2-1.6-1,1.2-2,1.8-3.1,1.8h-1.2v-2.4h1.2c1,0,1.8-.4,2.7-1.2.6-.6,1.2-1.4,2-2.2s1.4-1.2,2-1.2c.8,0,1.4.4,2,1.2.4.4.8,1.2,1.8,2.2.6.8,1.4,1.2,2.2,1.2h1.2v2.4h.2Zm-5.5-1.7c0-.6-.2-1.2-.6-2s-1-1.2-1.8-1.2c-.6,0-1.4.6-2.2,1.6.2.2.8.6,1.8,1.2,1,.6,1.8.8,2.4.8q.4-.2.4-.4Z"/><path id="PATH_25" d="m724,157.77c0,1.2-.2,2.2-.8,3.1-.6.8-1.6,1.4-2.7,1.4-1.4,0-2.2-.6-2.9-1.6-.8,1.2-1.6,1.6-2.9,1.6-1.4,0-2.4-.6-3.1-1.6-.8,1.2-1.8,1.6-3.3,1.6h-1.4v-2.5h1.6c1.4,0,2.4-.8,2.7-2.4,0-.4.2-.6.4-.6s.2.2.4.6c.2,1.6,1,2.4,2.7,2.4.8,0,1.6-.2,2-.6.2-.4.4-.8.6-1.6,0-.4.2-.6.4-.6s.2.2.4.6c.2,1.6,1,2.4,2.4,2.4,1.6,0,2.2-.4,2.2-1s-.4-1.4-1.2-2.2l1-1.8c.2-.2.2-.4.4-.4s.2.2.4.4c.3.7.7,1.8.7,2.8Z"/></g><g id="G_26"><path id="PATH_27" d="m594.8,296.57c0,2.9-1.8,4.3-5.7,4.3-1.4,0-2.4-.2-3.1-.6-.8-.4-1.2-1.4-1.2-2.7,0-.6.2-1.2.4-1.8.2-.2.2-.4.4-.4s.2.2.2.6v.6c0,.8.4,1.4,1.2,1.6.4.2,1.2.2,2.2.2,3.1,0,4.5-.4,4.5-1.4,0-1.4-1.8-3.5-5.3-5.9l.6-2c0-.2.2-.2.2-.2,0,0,.2,0,.4.2,3.6,2.6,5.2,5.3,5.2,7.5Z"/><path id="PATH_28" d="m607.7,300.87h-.8c-.8,0-1.2-.2-1.6-.4v.6c0,1.8-.6,3.7-1.8,5.5-1,1.6-2,2.2-2.7,2.2-1.6,0-2.9,0-4.1-.2-.4,0-.6-.2-.6-.2,0,0,.2-.2.6-.2,1.6-.4,3.3-1.2,4.9-2.4,1.6-1.4,2.7-2.9,2.7-4.3,0-.8-.6-2-2-3.5l1-1.8c0-.2.2-.2.2-.2l.2.2c.6.8,1,1.4,1.4,1.6.6.4,1.4.8,2.2.8h.6v2.2l-.2.1h0Z"/><path id="PATH_29" d="m620.3,281.87c0,.4-.4,1.2-.8,2.2l-5.1,1.6c-2.2.8-3.9,1.4-4.7,1.8,1.6,1.6,2.7,2.9,3.3,3.5,1,1.4,1.6,2.7,1.8,4.1,0,1,0,2-.4,2.9-.6,1.8-2.9,2.7-6.3,2.7h-1.2v-2.4h1.2c1.6,0,2.9,0,3.5-.2,1.4-.4,2.2-1,2.2-2,0-1.4-1-3.1-3.3-5.1l-.2.4c-.2-.2-.6-.6-1-1.2-.6-.6-.8-1.2-.8-1.2,0-.4,0-.8.2-1.6.2-.8.4-1.2.6-1.4s1.6-.8,4.3-1.6c2.4-1.1,4.9-1.9,6.7-2.5Z"/><path id="PATH_30" d="m632.2,300.87h-.8c-.8,0-1.2-.2-1.6-.4v.6c0,1.8-.6,3.7-1.8,5.5-1,1.6-2,2.2-2.7,2.2-1.6,0-2.9,0-4.1-.2-.4,0-.6-.2-.6-.2,0,0,.2-.2.6-.2,1.6-.4,3.3-1.2,4.9-2.4,1.6-1.4,2.7-2.9,2.7-4.3,0-.8-.6-2-2-3.5l1-1.8c0-.2.2-.2.2-.2l.2.2c.6.8,1,1.4,1.4,1.6.6.4,1.4.8,2.2.8h.6v2.2l-.2.1h0Z"/><path id="PATH_31" d="m644.8,300.87h-1c-.8,0-1.6.2-2.2.4-1,.4-1.6,1-1.6,2,0,1.2.8,2.2,2.4,3.3l-1,2c-1.8-.6-3.5-1.6-4.7-2.9-1.6-1.4-2.4-3.3-2.4-5.1h-2.9v-2.4h2.7c0-1.6.4-3.3,1.2-5.3.8-1.8,1.4-2.7,1.8-2.7s1,.8,1.6,2.7c.6,1.6.8,2.7.8,3.3,0,2.9-1.4,4.3-4.3,4.3.2.8.6,1.6,1.2,2.4s1.4,1.4,2.2,1.8v-.8c0-1.4.4-2.7,1-3.7,1-1.4,2.2-2.2,4.1-2.2h.8v2.9h.3Zm-6.3-3.3c0-.4-.2-1.2-.6-2.2-.4-1.2-.8-1.6-1.2-1.6-.2,0-.6.4-1,1.4s-.6,2.2-.6,3.5c2.4-.3,3.4-.5,3.4-1.1Z"/><path id="PATH_32" d="m661,296.57c0,1.2-.2,2.2-.8,3.1s-1.6,1.4-2.7,1.4c-1.4,0-2.2-.6-2.9-1.6-.8,1.2-1.6,1.6-2.9,1.6-1.4,0-2.4-.6-3.1-1.6-.8,1.2-1.8,1.6-3.3,1.6h-1.4v-2.4h1.6c1.4,0,2.4-.8,2.7-2.4,0-.4.2-.6.4-.6s.2.2.4.6c.2,1.6,1,2.4,2.7,2.4.8,0,1.6-.2,2-.6.2-.4.4-.8.6-1.6,0-.4.2-.6.4-.6s.2.2.4.6c.2,1.6,1,2.4,2.4,2.4,1.6,0,2.2-.4,2.2-1s-.4-1.4-1.2-2.2l1-1.8c.2-.2.2-.4.4-.4s.2.2.4.4c.2.7.7,1.7.7,2.7Zm-7-7.6l-1.4,1.4-1.4-1.4,1.4-1.4,1.4,1.4Zm1.9-3l-1.4,1.4-1.4-1.4,1.4-1.4,1.4,1.4Zm1.8,3l-1.4,1.4-1.4-1.4,1.4-1.4,1.4,1.4Z"/></g><g id="G_33"><path id="PATH_34" d="m524.8,354.37c.2.6.2,1.2.2,1.8,0,.8-.2,1.4-.4,2.2-.6,1.4-1.6,2.7-3.7,3.5-1.6.6-3.3,1-5.1,1s-3.3-.4-4.5-1.2c-1.2-1-1.8-2.2-1.8-4.1,0-1,.2-1.8.6-3.1.4-.8.6-1.4,1-1.8.2-.2.4-.2.4-.2q.2,0,.2.2v.4c-.6,1.2-.8,2.4-.8,3.5s.4,1.8,1,2.7c.8,1,2.2,1.4,4.1,1.4,2,0,3.9-.4,5.3-1,1.2-.6,2-1.2,2.4-2,.2-.2.2-.6.2-.8,0-.6-.2-1.2-.4-2-.2-.6-.8-1.6-1.8-3.3l.8-1.6c.2-.2.2-.4.2-.4,0,0,.2,0,.2.2.9,1.3,1.5,2.9,1.9,4.6Zm-6.1-8.8l-1.6,1.6-1.6-1.6,1.6-1.6,1.6,1.6Z"/><path id="PATH_35" d="m533,354.57h-1.4c-1.4,0-2.7-.6-3.1-1.8-.4-.8-.6-2.2-.6-3.9v-3.9c0-1.8-.2-4.5-.4-8l1.2-1.4c.2-.2.4-.2.4,0,.2,1.8.4,4.5.4,8v5.9c0,1.6.8,2.4,2.4,2.4h1l.1,2.7h0Z"/><path id="PATH_36" d="m549.1,350.27c0,1.2-.2,2.2-.8,3.1-.6.8-1.6,1.4-2.7,1.4-1.4,0-2.2-.6-2.9-1.6-.8,1.2-1.6,1.6-2.9,1.6-1.4,0-2.4-.6-3.1-1.6-.8,1.2-1.8,1.6-3.3,1.6h-1.4v-2.4h1.6c1.4,0,2.4-.8,2.7-2.4,0-.4.2-.6.4-.6s.2.2.4.6c.2,1.6,1,2.4,2.7,2.4.8,0,1.6-.2,2-.6.2-.4.4-.8.6-1.6,0-.4.2-.6.4-.6s.2.2.4.6c.2,1.6,1,2.4,2.4,2.4,1.6,0,2.2-.4,2.2-1s-.4-1.4-1.2-2.2l1-1.8c.2-.2.2-.4.4-.4s.2.2.4.4c.3.9.7,1.9.7,2.7Z"/><path id="PATH_37" d="m559.5,354.77c0,2-.6,3.9-1.8,5.7-1,1.4-2,2.2-2.7,2.2-1.6,0-2.9,0-4.1-.2-.4,0-.6-.2-.6-.2,0,0,.2-.2.6-.2,1.6-.4,3.3-1.2,4.9-2.4,1.6-1.4,2.7-2.9,2.7-4.3,0-.8-.6-2-2-3.5l1-1.8c0-.2.2-.2.2-.2l.2.2c.4.6,1,1.4,1.2,2.4.2.9.4,1.7.4,2.3Z"/><path id="PATH_38" d="m567.7,354.57h-1.4c-1.4,0-2.7-.6-3.1-1.8-.4-.8-.6-2.2-.6-3.9v-3.9c0-1.8-.2-4.5-.4-8l1.2-1.4c.2-.2.4-.2.4,0,.2,1.8.4,4.5.4,8v5.9c0,1.6.8,2.4,2.4,2.4h1l.1,2.7h0Z"/><path id="PATH_39" d="m575.4,348.87v.8c0,1.4-.2,2.2-.6,2.9-1,1.4-2.7,2-5.3,2h-2.9v-2.4h2c3.5,0,5.3-.6,5.7-1.6v-.4c0-.4,0-.6-.2-.8-.8.2-1.8.2-2.7.2-1.8,0-2.9-.8-2.9-2.4,0-1,.2-2.2.8-3.3.6-1.2,1.4-1.8,2.4-1.8.8,0,1.6.6,2.2,1.6,1.1,1.5,1.5,3.1,1.5,5.2Zm-2.2-11.3l-1.6,1.6-1.6-1.6,1.6-1.6,1.6,1.6Zm.8,9.4c0-.6-.2-1.2-.6-1.8-.4-.6-1-.8-1.6-.8-.4,0-.8.2-1.2.4-.4.2-.4.6-.4,1,0,.8.6,1.2,2,1.2.4.4,1,.2,1.8,0Z"/></g><g id="G_40"><path id="PATH_41" d="m465.8,453.17c0,.2.2.4,0,.4h-1c.4,7.8.6,13.3.4,16.3-.2,4.9-3.1,7.1-8.4,7.1-1.8,0-3.1-.4-4.1-1-1.2-.8-1.8-2-1.8-3.9,0-1.6.4-3.3,1.4-4.5q.2-.2.4-.2t.2.2v.2c-.4,1-.6,2-.6,2.9,0,1.2.4,2.2,1.4,3.1.8.6,1.8,1,3.3,1,2,0,3.7-.4,5.1-1,1.2-.6,1.8-1.2,1.8-2,0-8.8-.2-15.5-.8-20l1.4-1.2q.2-.2.4-.2s.2.2.2.4c-.1.6.3,1.4.7,2.4Z"/><path id="PATH_42" d="m478.4,464.97c0,2.9-1.8,4.3-5.7,4.3-1.4,0-2.4-.2-3.1-.6-.8-.4-1.2-1.4-1.2-2.7,0-.6.2-1.2.4-1.8.2-.2.2-.4.4-.4s.2.2.2.6v.6c0,.8.4,1.4,1.2,1.6.4.2,1.2.2,2.2.2,3.1,0,4.5-.4,4.5-1.4,0-1.4-1.8-3.5-5.3-5.9l.6-2c0-.2.2-.2.2-.2,0,0,.2,0,.4.2,3.4,2.6,5.2,5.3,5.2,7.5Z"/><path id="PATH_43" d="m488.6,469.47c0,2-.6,3.9-1.8,5.7-1,1.4-2,2.2-2.7,2.2-1.6,0-2.9,0-4.1-.2-.4,0-.6-.2-.6-.2,0,0,.2-.2.6-.2,1.6-.4,3.3-1.2,4.9-2.4,1.6-1.4,2.7-2.9,2.7-4.3,0-.8-.6-2-2-3.5l1-1.8c0-.2.2-.2.2-.2l.2.2c.4.6,1,1.4,1.2,2.4.2.7.4,1.5.4,2.3Z"/><path id="PATH_44" d="m493.5,466.87c0,.8-.2,1.6-.6,2.2-.2.4-.4.6-.4.6,0,0-.2-.2-.2-.8,0-2.4-.4-8.2-1.2-17.4l1.6-1.6.2-.2v.4c.6,2.7.6,8.2.6,16.8Z"/></g><g id="G_45"><path id="PATH_46" d="m577.9,570.57c0,2-.6,3.9-1.8,5.7-1,1.4-2,2.2-2.7,2.2-1.6,0-2.9,0-4.1-.2-.4,0-.6-.2-.6-.2,0,0,.2-.2.6-.2,1.6-.4,3.3-1.2,4.9-2.4,1.6-1.4,2.7-2.9,2.7-4.3,0-.8-.6-2-2-3.5l1-1.8c0-.2.2-.2.2-.2l.2.2c.4.6,1,1.4,1.2,2.4.2.7.4,1.5.4,2.3Z"/><path id="PATH_47" d="m586,570.37h-1.4c-1.4,0-2.7-.6-3.1-1.8-.4-.8-.6-2.2-.6-3.9v-3.9c0-1.8-.2-4.5-.4-8l1.2-1.4c.2-.2.4-.2.4,0,.2,1.8.4,4.5.4,8v5.9c0,1.6.8,2.4,2.4,2.4h1l.1,2.7h0Z"/><path id="PATH_48" d="m596,570.37h-1.4c-1.8,0-3.1-.6-3.9-1.8-.6,1.2-2,1.8-4.3,1.8h-1.2v-2.4h1.8c2,0,3.1-.8,3.3-2.2,0-.6.2-1,.4-1s.4.4.4,1c.2,1.4,1.2,2.2,3.1,2.2h1.8v2.4h0Zm-6.7,4.5l-1.6,1.6-1.6-1.6,1.6-1.6,1.6,1.6Zm3.5,0l-1.6,1.6-1.6-1.6,1.6-1.6,1.6,1.6Z"/><path id="PATH_49" d="m608.7,551.37c0,.4-.4,1.2-.8,2.2l-5.1,1.6c-2.2.8-3.9,1.4-4.7,1.8,1.6,1.6,2.7,2.9,3.3,3.5,1,1.4,1.6,2.7,1.8,4.1,0,1,0,2-.4,2.9-.6,1.8-2.9,2.7-6.3,2.7h-1v-2.4h1.2c1.6,0,2.9,0,3.5-.2,1.4-.4,2.2-1,2.2-2,0-1.4-1-3.1-3.3-5.1l-.2.4c-.2-.2-.6-.6-1-1.2-.6-.6-.8-1.2-.8-1.2,0-.4,0-.8.2-1.6s.4-1.2.6-1.4,1.6-.8,4.3-1.6c2.2-1.1,4.7-1.9,6.5-2.5Z"/></g><g id="G_50"><path id="PATH_51" d="m800.4,551.97h-1c-1,0-1.6,0-2-.2,0,.6.2,1,.2,1.6,0,1-.2,1.6-.4,2.2-.6,1.4-1.6,2.7-3.7,3.5-1.6.6-3.3,1-5.1,1s-3.3-.4-4.5-1.2c-1.2-1-1.8-2.2-1.8-4.1,0-1,.2-1.8.6-3.1.4-.8.6-1.4,1-1.8.2-.2.4-.2.4-.2q.2,0,.2.2v.4c-.6,1.2-.8,2.4-.8,3.5s.4,1.8,1,2.7c.8,1,2.2,1.4,4.1,1.4,2,0,3.9-.4,5.3-1,1.2-.6,2-1.2,2.4-2,.2-.2.2-.6,0-1.4,0-.6-.2-1.2-.2-1.4-.2-.6-1-1.6-2-3.1l.8-1.6c.2-.2.2-.4.2-.4,0,0,.2,0,.2.2,1,1.6,2,2.4,3.3,2.4h1.6v2.4h.2Zm-9-9.2l-1.6,1.6-1.6-1.6,1.6-1.6,1.6,1.6Z"/><path id="PATH_52" d="m816.3,546.07l-.8,1.6c-1.4,0-2.7,0-3.3.2-.8.4-2,.8-3.7,1.6-1.6.8-2.9,1.4-3.7,1.6-1.2.4-2.7.6-3.9.6h-1.4v-2.4h1.6c1.8,0,3.5-.4,4.9-1l4.7-2c-.8-.2-2-.6-3.7-1.2-1.4-.6-2.2-.8-2.7-.8-.8,0-1.6.4-2.4,1q-.2.2-.4.2t-.2-.2v-.2c.6-2,1.8-2.9,3.5-2.9.6,0,1.4.2,2.2.6,1.6.8,2.9,1.2,3.7,1.6,1.4.4,3.1.8,4.9.8.4,0,.6,0,.6.2.3.3.3.5.1.7Zm-6.7,10l-1.6,1.6-1.6-1.6,1.6-1.6,1.6,1.6Z"/><path id="PATH_53" d="m827.1,551.17c0,3.1-1,5.7-3.1,7.8-.6.6-1,1-1.2,1-1.2,0-2.4-.2-3.9-.4-.6,0-.8-.2-.8-.2,0,0,.2-.2.8-.4,1.6-.4,3.3-1.4,4.7-2.7.6-.6,1.2-1,1.6-1.8.6-.8,1-1.6,1-2.2v-.6h-2.7c-1.8,0-2.9-.8-2.9-2.2,0-1,.2-2,.8-3.3.6-1.2,1.4-2,2.2-2,1.2,0,2.2.8,2.9,2.7.4,1.2.6,2.7.6,4.3Zm-1.4-1.6c0-.6-.2-1.2-.6-1.8s-1-1-1.6-1c-.4,0-.8.2-1,.4s-.4.6-.4,1c0,1,.6,1.4,2,1.4.2.2.8,0,1.6,0Z"/><path id="PATH_54" d="m839.8,551.97h-.8c-.8,0-1.2-.2-1.6-.4v.6c0,1.8-.6,3.7-1.8,5.5-1,1.6-2,2.2-2.7,2.2-1.6,0-2.9,0-4.1-.2-.4,0-.6-.2-.6-.2,0,0,.2-.2.6-.2,1.6-.4,3.3-1.2,4.9-2.4,1.6-1.4,2.7-2.9,2.7-4.3,0-.8-.6-2-2-3.5l1-1.8c0-.2.2-.2.2-.2l.2.2c.6.8,1,1.4,1.4,1.6.6.4,1.4.8,2.2.8h.6v2.2h-.2v.1h0Z"/><path id="PATH_55" d="m844.7,547.87c0,2.7-1.4,4.1-4.1,4.1h-1.6v-2.4h1.4c2,0,3.1-.4,3.1-1s-.4-1.4-1.4-2.4l.8-2c0-.2.2-.2.2-.2,0,0,.2.2.4.4.8.9,1.2,2.3,1.2,3.5Zm-.6,8.6l-1.6,1.6-1.6-1.6,1.6-1.6,1.6,1.6Z"/></g><g id="G_56"><path id="PATH_57" d="m674,779.37c.2.6.2,1.2.2,1.8,0,.8-.2,1.4-.4,2.2-.6,1.4-1.6,2.7-3.7,3.5-1.6.6-3.3,1-5.1,1s-3.3-.4-4.5-1.2c-1.2-1-1.8-2.2-1.8-4.1,0-1,.2-1.8.6-3.1.4-.8.6-1.4,1-1.8.2-.2.4-.2.4-.2q.2,0,.2.2v.4c-.6,1.2-.8,2.4-.8,3.5,0,1,.4,1.8,1,2.7.8,1,2.2,1.4,4.1,1.4,2,0,3.9-.4,5.3-1,1.2-.6,2-1.2,2.4-2,.2-.2.2-.6.2-.8,0-.6-.2-1.2-.4-2-.2-.6-.8-1.6-1.8-3.3l.8-1.6c.2-.2.2-.4.2-.4,0,0,.2,0,.2.2,1.1,1.4,1.7,3,1.9,4.6Zm-5.9-8.9l-1.6,1.6-1.6-1.6,1.6-1.6,1.6,1.6Z"/><path id="PATH_58" d="m682.4,779.57h-1.4c-1.4,0-2.7-.6-3.1-1.8-.4-.8-.6-2.2-.6-3.9v-3.9c0-1.8-.2-4.5-.4-8l1.2-1.4c.2-.2.4-.2.4,0,.2,1.8.4,4.5.4,8v5.9c0,1.6.8,2.4,2.4,2.4h1l.1,2.7h0Z"/><path id="PATH_59" d="m694.6,763.07c0,.4-.2,1-.6,2.2-2.4.6-5.5,1.6-9,2.7,2.4,2.4,3.9,4.5,4.1,5.9.2,1,0,2-.4,3.1s-1.2,1.6-2.2,2c-.8.4-2.2.4-4.1.4h-.8v-2.4h.6c3.9,0,5.9-.6,5.9-2,0-1-1-2.7-3.3-4.7l-.2.6c-.2-.2-.6-.6-1-1.2-.6-.6-.8-1-.8-1.2,0-.6.2-1.2.8-1.8.2-.2,1.4-.6,4.1-1.4,2.7-1,4.9-1.6,6.9-2.2Zm-.4-3.1l-.4,1.4-10,3.3.4-1.4,10-3.3Z"/><path id="PATH_60" d="m706.7,775.37c0,2.9-1.8,4.3-5.7,4.3-1.4,0-2.4-.2-3.1-.6-.8-.4-1.2-1.4-1.2-2.7,0-.6.2-1.2.4-1.8.2-.2.2-.4.4-.4s.2.2.2.6v.6c0,.8.4,1.4,1.2,1.6.4.2,1.2.2,2.2.2,3.1,0,4.5-.4,4.5-1.4,0-1.4-1.8-3.5-5.3-5.9l.6-2c0-.2.2-.2.2-.2,0,0,.2,0,.4.2,3.4,2.6,5.2,5.2,5.2,7.5Z"/><path id="PATH_61" d="m719.3,779.57h-.8c-.8,0-1.2-.2-1.6-.4v.6c0,1.8-.6,3.7-1.8,5.5-1,1.6-2,2.2-2.7,2.2-1.6,0-2.9,0-4.1-.2-.4,0-.6-.2-.6-.2,0,0,.2-.2.6-.2,1.6-.4,3.3-1.2,4.9-2.4,1.6-1.4,2.7-2.9,2.7-4.3,0-.8-.6-2-2-3.5l1-1.8c0-.2.2-.2.2-.2l.2.2c.6.8,1,1.4,1.4,1.6.6.4,1.4.8,2.2.8h.6v2.2h-.2v.1h0Z"/><path id="PATH_62" d="m724,763.47c.2.2.2.4.2.4h-1c.2,2.7.2,6.5.2,11.6,0,1.2-.2,2.2-.8,2.9-.6.8-1.6,1.2-2.7,1.2h-1.2v-2.4h1c1.6,0,2.4-.6,2.2-1.8-.2-4.3-.4-8.8-.6-13.3l1.4-1.2c.2-.2.4-.4.4-.4,0,0,0,.2.2.4-.1.6.3,1.4.7,2.6Z"/></g><g id="TEXT_60" class="cls-3"><path id="PATH_61-2" d="m555.5,144.07c.7,0,1.3-.1,2-.2s1.3-.4,1.9-.7,1.1-.6,1.5-1,.6-.8.7-1.2c0-.8-.1-1.5-.2-2.2s-.3-1.1-.5-1.6-.4-.8-.7-1.2-.4-.6-.6-.9c0-.1,0-.3.1-.5s.1-.4.2-.6.1-.4.2-.6.2-.3.2-.4c.4.4.7.8,1,1.3s.5,1.1.7,1.7.3,1.2.4,1.8.1,1.2.1,1.8c0,1.1-.2,2.1-.6,3s-1,1.5-1.6,2-1.5.9-2.3,1.2-1.7.4-2.6.4-1.6-.2-2.2-.5-1-.7-1.4-1.2-.6-1-.7-1.6-.2-1.2-.2-1.8.1-1.1.2-1.6.2-.9.4-1.3.3-.6.4-.8.3-.3.3-.3q.1,0,.1.1c-.1.3-.2.6-.3.8s-.1.5-.2.9-.1.8-.1,1.3c0,.6.1,1.1.3,1.5s.5.9.9,1.2.8.6,1.2.8.9.4,1.4.4Zm.4-14.6l1.8,1.2-.9,1.8-1.8-1.2.9-1.8Z"/><path id="PATH_62-2" d="m582.8,132.87c0,.3,0,.6-.1.9s-.1.6-.2.9-.2.6-.3.9-.2.5-.3.7c-.6.4-1.2.7-2,1s-1.7.7-2.7.9-2.1.5-3.3.7-2.5.3-3.8.3c-.8,0-1.5-.1-2.2-.3s-1.3-.5-1.8-.8-.9-.8-1.3-1.4-.5-1.2-.5-2c0-.5.1-1,.2-1.4s.3-.8.4-1.1.3-.6.5-.8.3-.3.3-.3q.1,0,.1.1c-.1.3-.2.5-.3.7s-.1.4-.2.6-.1.5-.1.8c0,.5.1,1,.4,1.4s.6.9,1.1,1.2,1.1.6,1.8.8,1.6.3,2.5.3,1.9-.1,2.9-.2,2-.3,3-.6,1.9-.5,2.7-.8,1.5-.6,2.1-.9c0-.5-.1-1-.2-1.5s-.3-.9-.6-1.2c0-.1,0-.3.1-.5s.1-.4.2-.7.1-.4.2-.6.2-.4.2-.5c.1.1.2.3.4.5s.3.5.4.8.2.6.3,1,.1.8.1,1.1Zm-8.9,8.4l1.8,1.2-.9,1.8-1.8-1.2.9-1.8Z"/></g><path id="_578" class="cls-2" d="m599.5,673.77l60.2,42,93.6,48.9c22,10.4,44,20.7,66,31.1,27.3,6.2,54.6,12.5,81.9,18.7l-2.6-18-1.8-13.2-13.7,3.6-26.6-7.5c-2.7-6.8-5.4-13.6-8-20.4-1-5.4-2-10.9-3.1-16.3-5.8-3.1-11.5-6.2-17.3-9.3l-6.3-6.4c-1.8-9.2-3.7-18.5-5.5-27.7-14.7-.5-29.4-1-44-1.5-12.7-3.1-25.4-6.2-38.2-9.3-10.8-5-21.6-10-32.4-15.1-7.9-6.4-15.8-12.8-23.7-19.2-6.1-2.6-12.2-5.3-18.2-7.9-9.9-3.8-19.8-7.6-29.8-11.5-7.1-.8-14.2-1.6-21.3-2.3l-22,3.1,6.1,21.8,6.7,16.4Z"/><g id="G_62"><path id="PATH_63" d="m718.1,730.17c.2-1.1.2-2.4.2-3.5v-1.7c0-3.2-.4-7.9-.6-10.9.5-.6,1.2-1.4,1.7-1.9l.2.1c.4,3.8.5,8.3.5,12.4,0,1.1,0,2.1-.1,2.9-.1,1-.5,1.7-1.5,2.8l-.4-.2Z"/><path id="PATH_64" d="m729.3,720.77l1.2,2.4c.5.9.9,1.8.9,3.3v1.9c0,1.6-.8,3.2-2.2,4.9-1.1,1.1-2,1.6-2.9,1.6-1.3,0-2.8-.5-4.5-1.4l.2-.6c.5.2,1.2.3,2,.3,2.5,0,5-2.1,6.2-4.7.1-.3.2-.6.2-.8,0-.3-.1-.6-.2-.9-.6-1.4-1.3-2.7-2.1-3.9.4-.8.8-1.5,1.2-2.2v.1Zm-1.6-6c.7.5,1.4,1.2,2.1,1.9-.4.6-.9,1.2-1.5,1.7-.7-.7-1.4-1.2-2.1-1.8.5-.7,1-1.3,1.5-1.8Z"/><path id="PATH_65" d="m740.1,723.87c1,2.4,1.9,3.8,4,3.8h.3v2.2h-.4c-.8,0-1.3-.2-1.8-.6h-.1v.6c0,.8-.2,1.9-.7,2.7-1.4,2.4-2.9,3.5-4.2,3.5s-2.9-.6-4.4-1.4l.3-.6c.5.2,1.1.4,2,.4,2.4,0,5.4-2.7,5.8-5.3-.1-.2-.2-.5-.5-.8-.7-1-1.1-1.8-1.5-2.6.4-.8.7-1.5,1-2l.2.1Z"/><path id="PATH_66" d="m744.8,727.67c1.4,0,2.8-.5,3-1.5l.5-1.9,1.2-.9.1.1c-.2.9-.4,1.7-.4,2,0,.6.2,1.1.6,1.5.6.5,1.2.7,2.2.7h.3v2.2h-.4c-1.7,0-3-.5-3.6-1.8h-.1c-.6,1.2-2,1.8-3.5,1.8h-.3c-1,0-1.2-.7-1.2-1.2,0-.4.3-1.1,1.2-1.1h.4v.1h0Zm2,9.2c-.7-.7-1.4-1.2-2.1-1.8.5-.6.9-1.2,1.4-1.7.7.6,1.3,1.1,2,1.9-.5.7-.8,1.2-1.3,1.6Zm3.4-.2c-.7-.7-1.4-1.2-2.1-1.8.5-.6.9-1.2,1.4-1.7.7.6,1.3,1.1,2,1.9-.5.7-.9,1.1-1.3,1.6Z"/><path id="PATH_67" d="m752.7,727.67c1.3,0,2.3-.9,3-3.1.2-.7.7-1.4,1.3-2.1.7-.6,1.4-1,2.2-1,2.1,0,3.4,3,3.7,6-.4,1.6-1,2.3-1.9,2.3-1.7,0-3.5-.8-5.2-2.1h-.1c-.5,1.5-1.5,2.3-3,2.3h-.3c-1,0-1.2-.7-1.2-1.2,0-.4.3-1.1,1.2-1.1h.3Zm6.2-.7c.7.3,1.4.5,2.1.5.3,0,.5,0,.6-.2-.5-2.7-1.7-3.8-2.8-3.8-1,0-1.8.6-2.4,1.7.5.8,1.4,1.3,2.5,1.8Z"/><path id="PATH_68" d="m783.5,719.67c1.2,2.3,1.9,4.5,1.9,7.2,0,1.8-.5,3.7-1.2,4.5-1.5,1.6-3.8,2.7-5.9,2.7-3.3,0-5.4-2.2-5.4-5.3,0-2.2.7-3.8,1.5-5.1l.7.4c-.6,1.1-1,2.5-1,3.3,0,1.5.5,2.4,1.2,3.1.8.7,2,1.2,3.3,1.2,1.4,0,3.1-.7,4.3-1.5.8-.6,1.2-1.1,1.2-1.5,0-1.2-.3-2.2-.5-3.1-.4-1.4-.9-2.5-1.5-3.5.4-.7.8-1.5,1.4-2.2v-.2Zm-4.8-5.6c.7.5,1.4,1.2,2.1,1.9-.4.6-.9,1.2-1.5,1.7-.7-.7-1.4-1.2-2.1-1.8.6-.7,1-1.3,1.5-1.8Z"/><path id="PATH_69" d="m793.1,729.87h-.2c-1.4,0-2.3-.3-3-1-1.1-1.1-1.1-2.3-1.1-4.9,0-3.3-.2-6.8-.5-10.6.6-.7,1.1-1.2,1.7-1.6l.1.1c.3,3.8.3,8.4.3,12.7v1c0,1.1.6,1.6,1.3,1.9.4.2.9.2,1.1.2h.2l.1,2.2h0Z"/><path id="PATH_70" d="m794.2,727.67c2.8,0,5.8-1,9.4-3.2v-.1c-2-.8-3.9-1.2-5.5-1.2-1,0-1.7.3-2.2.9l.2.9-.5,1.6h-.2l-.9-2.3c.1-2,1.7-3.2,3.8-3.2,1.2,0,3,.4,5.8,1.5.8.3,1.9.5,3,.6h1.5l-.9,1.8c-1.5,0-2.5.3-3,.7l-2.9,1.9c-2.4,1.5-4.9,2.4-7.6,2.4h-.9c-1,0-1.2-.7-1.2-1.2,0-.4.3-1.1,1.2-1.1h.9Zm5-12.8c.7.5,1.4,1.2,2.1,1.9-.4.6-.9,1.2-1.5,1.7-.7-.7-1.4-1.2-2.1-1.8.6-.6,1.1-1.2,1.5-1.8Z"/></g><polygon id="_579" class="cls-1" points="901.2 814.47 844.7 800.47 816.5 808.37 766.7 862.37 746.5 909.87 759.6 941.47 778.1 973.07 795.6 988.97 825.7 975.07 845.1 945.97 878.4 932.77 908.7 938.17 924.9 943.37 919.6 900.37 908.5 838.37 901.2 814.47"/><g id="G_72"><path id="PATH_73" d="m810.8,889.97c.1,1.5.7,2.7,2.9,2.7,1.4,0,2.5-.4,3.8-1.1.2-.1.4-.3.4-.4,0-.9-.6-2.2-1.7-3.3-1-1.1-2.3-2-3.6-2.7-.4-.2-.6-.4-.6-.7,0-.4.5-1.4.9-2h.1c1.4.9,3,2.2,4.2,3.6,1.1,1.3,1.7,2.7,1.7,4.2,0,1.1-.3,2.1-.7,3.1-1.6.9-3.2,1.6-4.9,1.6-2,0-3.4-1.1-3.4-3.7,0-.3,0-.7.1-1.3h.8Z"/><path id="PATH_74" d="m828,885.67l1.2,2.4c.5.9.9,1.8.9,3.3v1.9c0,1.6-.8,3.2-2.2,4.9-1.1,1.1-2,1.6-2.9,1.6-1.3,0-2.8-.5-4.5-1.4l.2-.6c.5.2,1.2.3,2,.3,2.5,0,5-2.1,6.2-4.7.1-.3.2-.6.2-.8,0-.3-.1-.6-.2-.9-.6-1.4-1.3-2.7-2.1-3.9.4-.8.8-1.5,1.2-2.2v.1Z"/><path id="PATH_75" d="m843.6,876.67c.1,3.4.2,6.9.2,10.3,0,1.5,0,2.9.5,3.9.4.8,1.2,1.6,2.1,1.6h.1v2.2h-.3c-1.6,0-3.6-1.5-3.6-4.9h-.1c-.7,2.5-2.2,3.8-3.8,4.5-1.3.5-2.2.7-3.6.7l-1.9-.2-.1-.1c2.8-1.1,5-2.2,6.7-3.3-.3-1.7-2-4.5-5.1-8.6-.9-1.2-1.8-2.3-1.8-2.9,0-.4.3-1.1.5-1.6h.1c.9.9,2.1,1.7,3.3,2.5l-.6,1c.9,1.3,1.9,2.6,2.8,4.3.7,1.2,1.4,2.6,1.4,3.8,0,.4,0,.7-.1,1.1h.1c.5-.5.9-1,1.3-1.5.7-1.1.7-2.4.7-5.4,0-2-.1-4.1-.2-6.1.5-.6.9-1.1,1.4-1.5v.2Z"/><path id="PATH_76" d="m847.9,892.47c1.5,0,2.8-.1,3.8-.4,1.1-.3,2.1-1,2.1-1.5v-.4c-.6.1-1.4.1-2,.1-2,0-3.6-.5-4.2-1.9-.2-.4-.3-.8-.3-1.3,0-1.3.5-2.6,1.3-3.5.7-.7,1.5-1.2,2.3-1.2,1.4,0,2.6,1.4,3.4,3.5.4,1.2.7,2.5.7,4.2,0,1.1-.3,2.1-.9,2.8-1.1,1.3-3.1,1.7-6.3,1.7h-1.4c-1,0-1.2-.7-1.2-1.2,0-.4.3-1.1,1.2-1.1h1.5v.2Zm2.6-7.6c-1.2,0-2.1.9-2.1,1.6,0,1.4,2.3,1.9,5.1,1.8-.3-1.7-1.5-3.4-3-3.4Zm-.3-7.9c.7.5,1.4,1.2,2.1,1.9-.4.6-.9,1.2-1.5,1.7-.7-.7-1.4-1.2-2.1-1.8.5-.7,1-1.3,1.5-1.8Z"/></g></svg>