<?xml version="1.0" encoding="UTF-8"?><svg id="Layer_1" xmlns="http://www.w3.org/2000/svg" viewBox="0 0 1540.74 1027.37"><defs><style>.cls-1{fill:#f3f1a1;}.cls-1,.cls-2{stroke-miterlimit:10;stroke-width:.5px;}.cls-1,.cls-2,.cls-3{stroke:#020202;}.cls-4{fill:#e8d0e5;}.cls-4,.cls-5,.cls-6,.cls-7{stroke:#010101;stroke-width:.47px;}.cls-4,.cls-5,.cls-6,.cls-7,.cls-3{stroke-miterlimit:23.63;}.cls-5{fill:#dbeccb;}.cls-6{fill:#fbd0d1;}.cls-7{fill:#fdfad4;}.cls-2{fill:#fcf8cc;}.cls-3{fill:none;stroke-width:1.18px;}</style></defs><path id="_240" class="cls-5" d="m1340.7,328.06c-6.4-16.8,7.8-37.3-5.2-50.1-15.4-16.8-16.8-37.3-26.9-55.3-14.2-24.3-43.7-33.6-69.5-50.1-15.4-10.4-20.6-28.4-26.9-45.1-9-22,11.6-41.1,19.4-59.3,1.2-2.4,1.7-5.4,1.7-8.7l-315,3.8c1.9,17.7,6.6,34.5,12.3,51.3,2.6,6.4,3.8,14.2,3.8,20.6,1.2,6.4,5.2,11.6,7.8,18,7.8,18-5.2,37.3,0,56.7,1.2,2.6,2.6,5.2,2.6,7.8,3.8,45.1-2.6,88.9-14.2,131.2-10.4,37.3-79.9,55.3-65.7,96.4,9,24.6,51.5,29.5,48.9,66.9-.9,14.2,18,15.6,34.3,20.1-1.4-4.7-3.1-9.2-4-11.8l-.9-2.4,2.1-1.2s55.3-33.6,65.2-39.7c10.6-6.4,30.7-6.4,47-6.4,8.5,0,28.4-.5,47.7-1.2,16.3-.5,31.7-.9,37.3-.9,10.4,0,20.8-10.4,20.8-20.8,0-12.8,12.5-16.1,24.6-19.1,1.7-.5,3.5-.9,5.2-1.4,4.3-1.2,7.3-2.1,9.9-3.1,5.7-1.9,9.9-3.5,22.5-5,16.8-1.9,26.9-16.8,26.9-26.7,0-14.2,11.6-30.7,26.7-30.7h67.4c3.5,0,6.1-.9,9.2-2.6-6.7-9.4-11.7-20.1-15-31.2Z"/><path id="_216" class="cls-7" d="m647.1,573.86c-2.6,0-9,0-7.8,3.8,0,6.4,2.6,15.4,2.6,20.6,2.6,23.2,41.1,34.7,31,65.7-2.6,6.4-11.6,9-9,16.8,5.2,18,10.4,41.1-6.4,54.1-10.2,6.4-23.4,4.3-32.8,8.7,7.3,5.4,15.1,10.6,23.9,14.4,3.8,2.6,7.8,6.4,7.8,9-8,26.2-1.9,60.5,23.9,68.1-.7-5-1.4-8.3-1.4-8.5l-.2-.9.2-.7c.7-1.7,16.3-38.3,26.5-48.4,6.6-6.6,27.6-21,46.8-20.1,5.2.2,9.7,1.7,13.7,4-1.2-5.9-2.6-11.6-4-18-6.4-22-31-22-50.1-34.7-11.6-7.8-22-22-14.2-33.6,20.6-29.5,19.4-65.7,3.8-95.2-4.7-7.8-12.5-12.5-20.3-15.6-11.3,4.3-20.5,11.4-34,10.5Z"/><path id="_235" class="cls-5" d="m592.4,559.66c-18.9,24.1-35.7,48.7-61.4,61.7,9.7,3.8,22,13.9,26,22,1.4,2.8,2.6,7.8,3.8,13,31.7-7.6,50.3-33.6,76.8-54.1.7-1.2,2.1-2.4,4-3.1,0-.2,0-.5-.2-.7,0-5.2-2.6-14.2-2.6-20.6-1.2-3.8,5.2-3.8,7.8-3.8,13.5.9,22.7-6.1,33.6-10.4-2.6-.9-5.4-1.9-8-2.6-12.8-3.3-25.8-5.4-36.4-11.3-3.1,2.8-6.1,6.1-9.9,7.6-11.6,2.3-29.5-2.9-33.5,2.3Z"/><path id="_225" class="cls-7" d="m618.7,519.76c-7.8,5.2-15.4-1.2-22-5.2-5.2-3.8-19.4-1.2-18,9,1.2,2.6,5.2,5.2,5.2,6.4.9,10.6,2.6,21.3,9.9,28.6,5.4-3.5,21.7.7,32.4-1.7,4-1.4,6.9-4.7,9.9-7.6-2.1-1.2-4.3-2.6-6.1-4-10.4-6.4,6.4-16.8,1.2-23.2-2.4-2.1-4.5-4.5-6.1-7.1-1.4.2-2.8.2-4.3.7-.7,1.5-2.1,4.1-2.1,4.1Z"/><path id="_208" class="cls-5" d="m581.4,467.06c-2.6-1.2-3.8,3.8-2.6,6.4,13,11.8,13.2,26.5,18.2,41.4,6.4,3.8,13.9,10.2,21.7,5,0,0,1.2-2.6,2.6-3.8,1.4-.2,2.8-.5,4.3-.7-6.1-9.2-7.6-20.3-10.6-31.7-.9-5-5-7.3-8.3-9.9-9,.4-15.9-5.8-25.3-6.7Z"/><path id="_222" class="cls-6" d="m316.2,506.96c5.2-1.2,5.2-7.8,3.8-9-14.2-12.8-1.2-25.8,3.8-37.3,6.4-12.8-3.8-22-12.8-34.7-3.8-7.8-6.4-18-12.8-24.3-7.8-9-16.8,2.6-23.2,6.4-11.8,5.9-23.4-4.7-34.7-14.7-3.8,3.8-9,7.6-22,7.6-11.3,0-28.6-.9-33.3-1.2-1.7,1.7-4.7,5-4.7,7.6,0,2.8-.2,7.8-.7,13.5-.2,5.2-.7,10.4-.7,13,0,3.8,2.6,10.9,3.8,13.2l.2.5v.7c0,4.7,1.4,18,8,22.7,4.7,3.3,14.7,9.5,23.2,14.9,8.3,5.2,15.1,9.5,17.7,11.6.7.5,1.4,1.2,2.4,1.9,5,4.3,10.9,9,19.4,3.3,12.5-8.3,26-7.6,35.4,1.7.7.7,1.7,1.4,2.4,2.4,8-1,17.3,1.6,24.8.2Z"/><path id="_219" class="cls-5" d="m443.8,465.66c-5.2-10.4-18-12.8-24.3-23.2-5.2-7.8-9-15.4-16.8-18-16.8-3.8-38.5-7.8-48.9,10.4,19.4,10.4-3.8,16.8,1.2,32.1,0,1.2,2.6,3.8,5.2,5.2-2.6,3.8-6.4,5.2-11.6,5.2-9.2-2.1-17.7-8.7-26.7-12.5-5.7,10.4-14.2,21.7-1.7,33.1,1.2,1.2,1.2,7.8-3.8,9-7.8,1.7-17-1.2-24.8-.7,8.5,8,22.7,20.1,27.2,22.2,2.8,1.4,17.3-6.9,22.7-14.9.9-1.4,1.9-3.1,2.8-5,4.3-7.8,10.2-18.7,24.8-17.5,10.9.9,24.6-2.8,34.5-5.4,3.8-.9,7.1-1.9,9.5-2.4,1.7-.2,3.8-1.2,5.9-1.9,5.9-2.4,14.2-5.4,21.3,1.7,4.5-4.9,6.6-11.1,3.5-17.4Z"/><path id="_236" class="cls-4" d="m557,533.96c-16.8-6.4-29.5,10.4-45.1,6.4-9-2.6-20.6-12.8-28.4-3.8-7.8,9-9.9,18.9-19.4,25.5.2,2.8.9,5.9,2.1,8.5,2.6,5.7,6.9,9,12.8,10.4,18,3.8,30.7,6.6,33.8,19.4,2.6,10.4,9,18.2,16.3,20.3.7.2,1.4.5,2.1.7,25.8-13,42.5-37.6,61.4-61.7.2-.5.7-.7.9-.9-4-4-6.4-9-7.8-14.4-2.8,1.4-5.7,2.6-8.7,2.6-7.2-.1-12.4-9.3-20-13Z"/><path id="_242" class="cls-7" d="m523.5,513.36c0-1.2-2.6-5.2-1.2-7.8,2.6-2.6,5.2-5.2,6.4-7.8,1.2-6.4-3.8-12.8-1.2-18,3.8-6.4,11.6-12.8,9-20.6-3.8-16.8-18-18-34.7-19.4-3.8-1.2-7.8-12.8-12.8-12.8-23.2,1.2-41.1-9-59.3-23.2-3.8-3.8-11.6-6.4-19.4-3.8-5.2,1.2-7.8-10.4-14.2-11.6-3.8-1.2-7.8,2.6-9,6.4,0,2.6,1.2,6.4,0,7.8-5.2,5.2-6.9,11.8-7.6,18.7,7.8,0,15.8,1.7,22.9,3.3,7.8,2.6,11.6,10.4,16.8,18,6.4,10.4,19.4,12.8,24.3,23.2,3.1,6.1.9,12.5-3.3,17.3.7.7,1.7,1.7,2.4,2.8,4,5.9,6.9,12.5,9.7,19.1,2.8,6.4,5.4,12.5,8.5,16.3,5.9,7.3,12.1,17,5.7,28.4-1.7,2.8-2.6,7.6-2.1,12.3,9.7-6.6,11.6-16.5,19.4-25.5,7.8-9,19.4,1.2,28.4,3.8,6.9,1.7,13.2-.7,19.6-3.1,2.3-8.7.9-17.7-8.3-23.8Z"/><path id="_160" class="cls-7" d="m332.5,365.66c-.2-.2-.5-.2-.9-.5-11.6-5.2-18-19.4-29.5-24.6-18-6.9-36.9-16.3-40.6-35-2.4,1.2-4.7,2.6-7.1,3.8,1.2,5.9,1.9,13-.2,19.1-3.5,10.4-7.3,12.8-13.2,16.5-1.4.9-3.3,2.1-5.2,3.3-2.1,1.7-4.5,2.8-6.9,4-3.5,1.9-7.6,4.3-7.8,6.1,0,.7.2,2.6,4.3,6.1,12.1,10.9,17.7,16.5,18,21.7,0,1.9-.7,3.5-2.1,5-.5.5-.9.7-1.2,1.2,11.1,9.9,22.9,20.3,34.7,14.7,6.4-3.8,15.4-15.4,23.2-6.4,1.2,1.2,2.1,2.4,3.1,3.8,21.3,3.7,21.3-24.4,31.4-38.8Z"/><path id="_220" class="cls-4" d="m381.9,366.56c-16.3-3.8-35.2,5.9-49.4-.9-10.2,14.4-10.4,42.3-31.2,39.5,4.3,6.1,6.6,14.2,9.7,20.6,9,12.8,19.4,22,12.8,34.7-.7,1.4-1.4,2.8-2.1,4.3,8.7,3.8,17.3,10.4,26.7,12.5,5.2,0,9-1.2,11.6-5.2-2.6-1.2-5.2-3.8-5.2-5.2-5.2-15.4,18-22-1.2-32.1,5.9-10.4,15.6-13.5,26-13.5.5-6.9,2.1-13.5,7.6-18.7,1.2-1.2,0-5.2,0-7.8,1.2-3.8,5.2-7.8,9-6.4.5,0,.9.2,1.2.5-1.1-10-4.4-18.7-15.5-22.3Z"/><path id="_210" class="cls-5" d="m401.3,355.06c1.4-2.6,2.4-5.7,3.1-8.5-6.4,0-14.4-2.8-21-4.3-12.8-1.2-14.2-16.8-23.2-23.2-7.8-5.2-16.8-13-25.8-14.2-12.8,0-25.8,7.8-39.9-1.2-11.8-8.5-22.2-3.5-32.8,2.4,3.8,18.7,22.7,28.4,40.6,35,11.6,5.2,18,19.4,29.5,24.6,14.2,7.8,33.6-2.6,50.1,1.2,3.3.9,5.7,2.4,7.8,4.3,4.7-4.6,8.8-9.8,11.6-16.1Z"/><path id="_243" class="cls-6" d="m579.1,473.36c-13-2.1-26-2.6-27.6-14.9-2.6-19.4-12.8-37.3-26.9-50.1-1.2-1.2,0-5.2,0-6.4,3.8-6.4,11.6-9,16.8-14.2,5.2-7.8,2.6-11.6-5.2-14.2-12.8-2.6-18,14.2-31,5.2-12.8-7.8-26.9-15.4-32.1-31-1.2-5.2-9-6.4-12.8-9-10.6-7.6-23.6-11.3-35-15.6-4.7,4.7-8.7,9.9-11.3,17-1.7,4.3-5.2,5.7-9.7,5.7-.9,2.8-1.7,5.7-3.1,8.5-2.8,6.4-6.9,11.6-11.6,15.8,5,4.5,6.9,10.9,7.6,18,5.7,2.4,8,12.3,13,11.1,7.8-2.6,15.4,0,19.4,3.8,18,14.2,36.2,24.3,59.3,23.2,5.2,0,9,11.6,12.8,12.8,16.8,1.2,31,2.6,34.7,19.4,2.6,7.8-5.2,14.2-9,20.6-2.6,5.2,2.6,11.6,1.2,18-1.2,2.6-3.8,5.2-6.4,7.8-1.2,2.6,1.2,6.4,1.2,7.8,9,6.1,10.6,15.1,8,23.9,8-3.3,16.1-6.9,25.5-3.3,7.8,3.8,12.8,12.8,20.6,12.8,3.1,0,5.9-1.2,8.7-2.6-1.2-4.5-1.9-9.2-2.1-14.2,0-1.2-3.8-3.8-5.2-6.4-1.2-10.4,12.8-13,18-9,0,0,.2,0,.2.2-5.2-14.7-5.7-29.1-18-40.7Z"/><path id="_232" class="cls-4" d="m294.5,303.46c14.2,9,26.9,1.2,39.9,1.2,9,1.2,18,9,25.8,14.2,9,6.4,10.4,22,23.2,23.2,11.6,2.6,26.9,9,31-1.2,2.6-6.9,6.6-12.3,11.3-17-11.8-4.5-22.2-9.2-26.7-19.1-8-18.7-9.9-42.3-16.8-63.8-5.9,1.4-12.3,2.1-18.9,2.1h-9c-14.2-.2-26.2-.5-37.1,5.7-3.8,2.1-7.6,4.7-11.3,7.3-9.9,6.9-20.3,13.7-35,16.8-15.6,3.1-18.9,22.5-19.4,26.2.7,1.7,2.1,5.7,3.3,10.6,13.2-6.9,25.3-16.6,39.7-6.2Z"/><path id="_205" class="cls-7" d="m638.1,441.26c-5.2-1.2-12.8,1.2-12.8-3.8-2.6-14.2-7.8-24.6-15.4-34.7-9-11.6-10.4-31-9-46.3,0-5.2,15.4,3.8,20.6-5.2,1.2-2.6,3.8-5.2,5.2-6.4,7.6-4.7,15.4-6.6,22-10.6-3.1-1.9-5.2-5.7-5.2-8.7-2.6-15.4-9-32.1-24.6-35.9v-5.2c9-2.6,11.6-12.8,2.6-18-12.8-8-29.3-9.5-41.4-16.1-.2,1.2-.5,2.1-1.2,3.3-1.2,0-3.8,1.2-6.4,1.2-10.4,5.2-10.4,26.9-23.2,19.4-14.2-7.8-26.9-7.8-39.9-15.4-16.1-8.5-30.5-20.8-39.7-36.4-9.2,3.3-20.1,4.5-28.6,1.2-14.7-5.4-29.1-1.7-34.3,5-4.3,5.7-13.7,10.4-25.1,13,6.9,21.5,8.7,45.1,16.8,63.8,9,19.4,39.9,19.4,61.7,34.7,3.8,2.6,11.6,3.8,12.8,9,5.2,15.4,19.4,23.2,32.1,31,12.8,9,18-7.8,31-5.2,7.8,2.6,10.4,6.4,5.2,14.2-5.2,5.2-12.8,7.8-16.8,14.2,0,1.2-1.2,5.2,0,6.4,14.2,12.8,24.6,31,26.9,50.1,1.7,12.3,14.7,12.5,27.6,14.9l-.7-.7c-1.2-2.6,0-7.8,2.6-6.4,9.2.9,16.1,7.1,25.1,6.6-1.9-1.4-3.5-3.1-4.5-5.4-2.6-7.8,6.4-16.8,14.2-12.8,5.9,1.7,11.3,6.1,16.8,10.2,2.6-5.9,6.9-11.8,10.2-17.7-2-2.1-2-6.1-4.6-7.3Z"/><path id="_16" class="cls-6" d="m720.3,416.96c.7-.5,1.7-.7,2.6-.9-12.1-12.8-21.3-28.8-25.8-46.8-2.6-12.8-23.2-19.4-22-35.9,2.1.2,4.5.5,6.9.9-7.1-6.1-18.4-2.8-26.2.5-2.8,1.7-5.4,1.2-7.8-.2-6.6,3.8-14.2,5.9-22,10.6-1.2,1.2-3.8,3.8-5.2,6.4-5.2,9-20.6,0-20.6,5.2-1.2,15.4,0,34.7,9,46.3,7.8,10.4,12.8,20.6,15.4,34.7,0,5.2,7.8,2.6,12.8,3.8,2.6,1.2,2.6,5.2,5.2,6.4-3.3,5.9-7.8,12.1-10.2,17.7,6.6,4.5,13.5,8.3,21.7,5.4,10.4-3.8,16.8-15.4,26.9-16.8,12.8-2.6,23.2,15.4,33.6,10.4,3.8-2.6-2.6-10.4-5.2-15.4-4.4-11.8-.6-27.4,10.9-32.3Z"/><path id="_245" class="cls-5" d="m771.9,145.16c-20.6,3.8-29.5,22-45.1,33.6-17.7,14.2-36.2,15.1-54.6,9.2.5,10.2,1.9,20.1-4.5,22.9-12.8,6.4-32.1,11.6-43.7,23.2-10.4,9-24.6-1.2-38.5,1.2-7.6,2.1-4.3,8.7-5.2,14.7,12.1,6.6,28.4,8,41.4,16.1,9,5.2,6.4,15.4-2.6,18v5.2c15.4,3.8,22,20.6,24.6,35.9,0,5.2,6.4,12.8,12.8,9,7.6-3.3,18.9-6.6,26.2-.5,24.3,3.5,52.5,11.3,66.6-8.5,7.8-9-9-25.8-11.6-41.1-5.2-34.7,18-57.9,37.3-86.3,6.4-10.4,6.4-22,7.8-34.7,0-6.1,3.5-9.2,8-11.1-4.8-4.9-12.8-7.5-18.9-6.8Z"/><path id="_229" class="cls-4" d="m509.3,258.56c12.8,7.8,25.8,7.8,39.9,15.4,12.8,7.8,12.8-14.2,23.2-19.4,2.6,0,5.2-1.2,6.4-1.2,3.8-6.4-2.6-15.4,6.4-18,14.2-2.6,28.4,7.8,38.5-1.2,11.6-11.6,31-16.8,43.7-23.2,6.4-2.8,5-12.8,4.5-22.9-30-9.7-59.6-37.8-84.4-56.7-6.4-5.2-15.4,3.8-18,0-18-22-15.4-54.1,1.2-78.5,5.2-6.4-5.2-10.4-5.2-15.4-.7-5.2-1.2-10.6-1.4-15.8-3.8,0-7.1.2-9.7.2-13.7,0-24.8,2.1-30,5.4-5.4,3.5-26.7,13-32.6,15.4-.5,3.3-1.7,11.3-1.7,21.7,0,3.3.2,6.1.5,8.7.7,7.8,1.2,14.2-7.8,19.4-6.6,4-13.2,7.1-17,8.7,5.4,8,18.4,20.8,25.3,26,7.3,5.4,4.5,21.3,2.4,32.6-.5,3.1-1.2,6.1-1.2,7.3,0,20.1-1.4,33.8-4.3,40.6-2.4,5.7-9.7,11.1-18.7,14.4,9.5,15.5,23.9,28,40,36.5Z"/><path id="_227" class="cls-6" d="m815.6,59.16c0-13-4.5-26-7.6-39-8.3.9-17.7,2.6-26.9,5.4-21.3,6.4-55.5,1.9-67.8-6.4L684.7.26c-6.4,2.1-29.5,9.7-35.2,9.7-4,0-30.2,5.9-46.8,9.9h-.5c-1.2,0-22.5,1.4-38,1.9.2,5.2.7,10.4,1.4,15.8,0,5.2,10.4,9,5.2,15.4-16.8,24.3-19.4,56.7-1.2,78.5,2.6,3.8,11.6-5.2,18,0,39.9,31,92.6,84.8,139,47.5,15.4-11.6,24.3-29.5,45.1-33.6,6.1-.9,13.9,1.9,18.4,6.9,5.9-2.6,13.5-3.8,16.3-8,18.4-23.4,9.2-57,9.2-85.1Z"/><path id="_198" class="cls-7" d="m944.4,217.26c0-2.6-1.2-5.2-2.6-7.8-5.2-19.4,7.8-38.5,0-56.7-2.6-6.4-6.4-11.6-7.8-18,0-6.4-1.2-14.2-3.8-20.6-5.7-16.8-10.2-33.6-12.3-51.3h-1.9l-.7-.5c-.2-.2-25.5-17.7-35-21.5-3.5-1.4-9.7-3.8-17-6.4-13.7-5.2-29.3-10.9-34.7-13.5-3.5-1.9-11.3-2.1-20.6-1.2,3.1,13,7.6,26,7.6,39,0,28.4,9,61.7-9,84.8-5.2,7.8-24.3,5.2-24.3,19.4-1.2,12.8-1.2,24.3-7.8,34.7-19.4,28.4-42.5,51.5-37.3,86.3,2.6,15.4,19.4,32.1,11.6,41.1-15.4,22-47.5,10.4-73.3,7.8-1.2,16.8,19.4,23.2,22,35.9,4.5,18,13.7,34,25.8,46.8,7.6-1.7,17.3,2.8,20.6-1.7,18-19.4,55.3-23.2,61.7-1.2,9,29.5,33.6,25.8,56.7,24.6.2-.2.5-.2.9-.2-3.5-35.7,57.7-53.9,67.4-88.6,11.2-42.4,17.6-86.1,13.8-131.2Z"/><path id="_156" class="cls-6" d="m638.1,602.16c-26.5,20.6-45.1,46.6-76.8,54.1,1.9,9.2,2.8,19.6,3.1,22,1.4,3.3,8.5,22-1.2,32.8,8.3-1.4,16.5-1.2,24.8,4.5,13.5,8.7,24.6,18.9,36.6,27.9,9.7-4.3,22.9-2.1,32.8-8.5,16.8-13,11.6-36.2,6.4-54.1-2.6-7.8,6.4-10.4,9-16.8,10.2-30.5-27.4-42.3-30.7-64.8-1.9.6-3.5,1.8-4,2.9Z"/><path id="_213" class="cls-5" d="m656.1,766.96c0-2.6-3.8-6.4-7.8-9-23.2-10.4-38.5-28.4-60.5-42.5-8.3-5.7-16.3-5.9-24.8-4.5-1.2,1.2-2.4,2.4-4,3.3-11.1,7.1-16.1,16.1-13.2,24.3,1.9,5.7-.7,27.6-4.3,55.8-1.2,9.2-2.1,17.3-2.1,19.1,0,2.4,2.4,18.4,5,35.2,2.1,13.9,4.5,29.8,6.4,43.2.5.7.7,1.4.7,2.4,0,.2-.2.5-.2.5,1.7,12.8,2.8,23.2,2.8,27.9,0,18.7,5.4,33.1,16.1,42.5,10.9,9.7,61.2,48.9,77.8,61.7-.7-10.6-1.2-30.7,3.5-38.5,2.8-4.5,5.2-14.4,7.6-23.9,2.6-10.4,5-20.3,8.3-25.5,6.4-10.6,21.3-49.2,19.4-61.4-1.4-9.7-4.7-31-6.6-43-26-7.1-32.2-41.4-24.1-67.6Z"/><path id="_202" class="cls-4" d="m943.7,708.06l.2-1.2c0-.5,5.9-55.3,5.9-63.1,0-31.9-3.35-34.54.9-47.5,1.09-3.33,4.09-11.5.4-15.6-2.46-2.74-7.03-2.69-10.6-2.2-5.01-1.27-10.01-2.53-15.02-3.8-18.13-6.3-36.26-12.6-54.39-18.9l-48.2-27.1c5.2-8.13,10.4-16.27,15.6-24.4,9.6-4.7,19.2-9.4,28.8-14.1,15.83,9.4,31.67,18.8,47.5,28.2,1.84-14.78-1.5-24.03-4.83-29.71-11.63-19.84-37.73-21.1-45.37-43.69-1.11-3.28-1.52-6.1-1.7-7.8-.2-.2-.7,0-.9.2-23.2,1.2-47.7,5.2-56.7-24.6-6.4-22-43.7-18-61.7,1.2-3.8,5.2-15.4-1.2-23.2,2.6-11.6,5.2-15.4,20.6-10.4,32.1,2.6,5.2,9,12.8,5.2,15.4-10.4,5.2-20.6-12.8-33.6-10.4-10.4,1.2-16.8,12.8-26.9,16.8-15.4,5.2-25.8-11.6-38.5-15.4-7.8-3.8-16.8,5.2-14.2,12.8,2.6,6.4,11.6,7.8,12.8,15.4,3.8,14.2,5.2,28.4,16.8,38.5,5.2,6.4-11.6,16.8-1.2,23.2,11.6,9,26.9,11.6,42.5,15.4,10.4,2.6,22,7.8,28.4,18,15.4,29.5,16.8,65.7-3.8,95.2-7.8,11.6,2.6,25.8,14.2,33.6,19.4,12.8,43.7,12.8,50.1,34.7,1.4,6.1,2.8,12.1,4,18,2.6,1.7,5.2,3.8,7.3,6.4,17.5,21.5,34.5,24.6,43.2,24.6,9.9,0,46.1,1.9,47.7,1.9h.7c.2,0,32.8,9.5,51.3.2,17.7-8.7,39.5-7.1,45.6-6.4l25.1-28.6-43-49.9Z"/><path id="_239" class="cls-6" d="m1537.5,54.36l-227.3,4-77,.9c-.2,3.3-.5,6.4-1.7,8.7-7.8,18-28.4,37.3-19.4,59.3,6.4,16.8,11.6,34.7,26.9,45.1,25.8,16.8,55.3,25.8,69.5,50.1,10.4,18,11.6,38.5,26.9,55.3,12.8,12.8-1.2,33.6,5.2,50.1,3.3,11.1,8.3,21.7,14.9,31.2,1.7-.9,3.3-1.9,5.2-3.1,1.7-1.2,3.5-2.4,5.9-3.5,3.3-1.9,6.1-4.7,9-7.3,5.4-5.2,11.1-10.4,18.9-9,7.3,1.4,23.4-1.4,29.5-2.8,5-3.8,30.5-23.2,37.6-26,4.7-1.9,14.9-15.4,20.3-23.4l.9-1.4h26c4.3,0,9.5-.7,14.9-8.7,5-7.6,14.4-20.3,16.8-23.9l-3-195.6Z"/><line id="LINE_28" class="cls-3" x1="298.5" y1="324.06" x2="229.3" y2="287.66"/><line id="LINE_30" class="cls-3" x1="268.3" y1="367.76" x2="200.2" y2="334.96"/><line id="LINE_31" class="cls-3" x1="304.6" y1="590.36" x2="376.7" y2="470.36"/><line id="LINE_36" class="cls-3" x1="765.5" y1="813.76" x2="686.5" y2="742.86"/><line id="LINE_37" class="cls-3" x1="1023.5" y1="621.36" x2="603.1" y2="490.16"/><line id="LINE_38" class="cls-3" x1="1023.5" y1="664.56" x2="603.1" y2="533.46"/><g id="G_40"><path id="PATH_41" d="m421.2,384.36c0,2.9-1.6,4.4-5,4.4-1.3,0-2.1-.2-2.7-.6-.7-.4-1.1-1.5-1.1-2.7,0-.6.2-1.3.4-1.9.2-.2.2-.4.4-.4s.2.2.2.6v.6c0,.8.4,1.5,1.1,1.7.4.2,1.1.2,2,.2,2.7,0,3.9-.4,3.9-1.5,0-1.5-1.6-3.6-4.7-6.1l.5-2.1c0-.2.2-.2.2-.2,0,0,.2,0,.4.2,3,3,4.4,5.5,4.4,7.8Z"/><path id="PATH_42" d="m428.3,388.76h-1.3c-1.3,0-2.3-.6-2.7-1.9-.4-.8-.5-2.3-.5-4v-4c0-1.9-.2-4.6-.4-8.2l1.1-1.5c.2-.2.4-.2.4,0,.2,1.9.4,4.6.4,8.2v6.1c0,1.7.7,2.5,2.1,2.5h.9v2.8Z"/><path id="PATH_43" d="m432.6,384.66c0,2.7-1.3,4.2-3.6,4.2h-1.4v-2.5h1.3c1.8,0,2.7-.4,2.7-1s-.4-1.5-1.3-2.5l.7-2.1c0-.2.2-.2.2-.2,0,0,.2.2.4.4.7,1.1,1,2.4,1,3.7Zm-.5,8.7l-1.4,1.7-1.4-1.7,1.4-1.7,1.4,1.7Z"/><path id="PATH_44" d="m439.8,366.46c-.7.8-1.8,1-2.9,1h-1.4c-.2,0-.4.2-.5.4-.2.2-.4.4-.4.4-.2,0-.2-.2-.2-.4s.2-.6.4-1c.2-.6.4-.8.5-.8s.5,0,1.1.2c.5,0,.9.2,1.1.2,1.1,0,1.8,0,2.3-.2.4,0,.5-.2.5-.2h.2c-.3-.1-.3.2-.7.4Zm-1.1,19.8c0,.8-.2,1.7-.5,2.3-.2.4-.4.6-.4.6,0,0-.2-.2-.2-.8,0-2.5-.4-8.4-1.1-17.8l1.4-1.7.2-.2v.4c.5,2.8.6,8.4.6,17.2Z"/><path id="PATH_45" d="m467.9,388.76h-1.1c-1.1,0-2.3-.4-3.6-1.3-.5.2-1.1.4-1.4.6-1.8.6-3.9,1-6.6,1-1.8,0-3.2-.2-4.1-.6-1.4-.6-2.1-1.9-2.1-3.6,0-1.5.4-2.7.9-3.8.2-.2.2-.4.4-.4s.2,0,.2.2v.4c-.4.8-.4,1.5-.4,2.1,0,1.5.7,2.5,2.3,2.9.7.2,2.1.4,3.9.4,1.4,0,2.7,0,3.4-.2.5,0,1.1-.2,1.6-.4-.5-.6-.9-1.5-.9-2.7,0-1,.4-2.1.9-3.1.7-1.3,1.4-1.7,2.1-1.9.9,0,1.4.4,2,1.5.4.8.5,1.7.5,2.9s-.4,2.3-1.1,2.9c.4.2,1.3.4,2.3.4h.7v2.7h.1Zm-3.9-15.6l-1.4,1.7-1.4-1.7,1.4-1.7,1.4,1.7Zm1.1,10.4c0-.4-.2-1-.5-1.5-.4-.6-.7-.8-1.1-.8s-.7.2-1.3.8c-.5.6-.7,1-.7,1.5,0,.8.7,1.7,2,2.3,1-.8,1.6-1.7,1.6-2.3Z"/><path id="PATH_46" d="m483.7,388.76h-1.8c-2.3,0-3.6-1.5-3.6-4.2v-1c-.9.4-2,1.3-3.4,2.3s-2.3,1.7-3,2.1c-1.1.6-2.3.8-3.4.8h-1.3v-2.5h1.4c1.4,0,3-.4,4.5-1.3.7-.4,2-1.3,3.9-2.3-.4,0-1.4-.4-3.2-.8-1.3-.4-2-.6-2.1-.6-.7,0-1.4.4-2.1,1q-.2.2-.4.2t-.2-.2v-.2c.5-2.1,1.6-3.1,3-3.1.5,0,1.3.2,2.1.4,1.3.4,2.3.8,3.2,1,1.3.2,2.7.4,4.3.4h.5v.4l-.5,1.9c-1.1,0-1.8,0-2.1.2,0,1,.2,1.7.4,1.9.4.6,1.1,1,2.3,1h1.8v2.5h-.3v.1Zm-6.8,4.4l-1.4,1.7-1.4-1.7,1.4-1.7,1.4,1.7Z"/><path id="PATH_47" d="m487.8,384.66c0,2.7-1.3,4.2-3.6,4.2h-1.4v-2.5h1.3c1.8,0,2.7-.4,2.7-1s-.4-1.5-1.3-2.5l.7-2.1c0-.2.2-.2.2-.2,0,0,.2.2.4.4.6,1.1,1,2.4,1,3.7Zm0-9.5l-1.4,1.7-1.4-1.7,1.4-1.7,1.4,1.7Z"/></g><g id="G_48"><path id="PATH_49" d="m310.2,280.96c.2.6.2,1.2.2,1.8,0,.8-.2,1.4-.4,2.3-.6,1.4-1.6,2.7-3.6,3.5-1.6.6-3.2,1-5.1,1s-3.2-.4-4.5-1.2c-1.2-1-1.8-2.3-1.8-4.1,0-1,.2-1.8.6-3.1.4-.8.6-1.4,1-1.8.2-.2.4-.2.4-.2q.2,0,.2.2v.4c-.6,1.2-.8,2.5-.8,3.5s.4,1.8,1,2.7c.8,1,2.2,1.4,4,1.4,2,0,3.8-.4,5.3-1,1.2-.6,2-1.2,2.4-2.1.2-.2.2-.6.2-.8,0-.6-.2-1.2-.4-2.1-.2-.6-.8-1.6-1.8-3.3l.8-1.6c.2-.2.2-.4.2-.4,0,0,.2,0,.2.2,1.1,1.6,1.7,3.1,1.9,4.7Zm-5.8-8.8l-1.6,1.6-1.6-1.6,1.6-1.6,1.6,1.6Z"/><path id="PATH_50" d="m318.5,281.36h-1.4c-1.4,0-2.6-.6-3-1.8-.4-.8-.6-2.3-.6-3.9v-3.9c0-1.8-.2-4.5-.4-8l1.2-1.4c.2-.2.4-.2.4,0,.2,1.8.4,4.5.4,8v6c0,1.6.8,2.5,2.4,2.5h1v2.5h0Z"/><path id="PATH_51" d="m332.1,281.36h-1.2c-1,0-2.2-.4-3.2-1.4-.8-.6-1.6-1.8-2.6-3.3-.2,3.1-2.2,4.7-6.3,4.7h-1.3v-2.5h.8c3.6,0,5.7-.8,5.7-2.3,0-1.2-.8-2.7-2.6-4.3-.8-.8-1.6-1.4-2.6-2.3,0-.8.2-1.4.6-2.1.2-.2,3.8-1.4,11.1-3.7,0,.2-.2,1-.6,2.3-1.8.4-4.9,1.4-8.9,2.7,2,2.3,4,4.3,5.5,6.2,1,1,1.6,1.8,2.2,2.3.8.6,1.8,1,2.8,1h.8v2.7h-.2Zm-2-19.7l-.4,1.4-9.9,3.3.4-1.4,9.9-3.3Z"/><path id="PATH_52" d="m337,277.26c0,2.7-1.4,4.1-4,4.1h-1.6v-2.5h1.4c2,0,3-.4,3-1s-.4-1.4-1.4-2.5l.8-2.1c0-.2.2-.2.2-.2,0,0,.2.2.4.4.7,1.2,1.2,2.6,1.2,3.8Zm-1.7,8.7l-1.6,1.6-1.6-1.6,1.6-1.6,1.6,1.6Zm3.7,0l-1.6,1.6-1.6-1.6,1.6-1.6,1.6,1.6Z"/><path id="PATH_53" d="m346.9,281.36h-1.4c-1.4,0-2.6-.6-3-1.8-.4-.8-.6-2.3-.6-3.9v-3.9c0-1.8-.2-4.5-.4-8l1.2-1.4c.2-.2.4-.2.4,0,.2,1.8.4,4.5.4,8v6c0,1.6.8,2.5,2.4,2.5h1v2.5h0Z"/><path id="PATH_54" d="m357,281.36h-1.6c-1.8,0-3-.6-3.8-1.8-.6,1.2-2,1.8-4.2,1.8h-1.2v-2.5h1.8c2,0,3-.8,3.2-2.3,0-.6.2-1,.4-1s.4.4.4,1c.2,1.4,1.2,2.3,3,2.3h1.8v2.5h.2Zm-9.9,4.1l1.4-1.4,1.4,1.4-1.4,1.4-1.4-1.4Zm1.8,3.1l1.4-1.4,1.4,1.4-1.4,1.4-1.4-1.4Zm1.8-3.1l1.4-1.4,1.4,1.4-1.4,1.4-1.4-1.4Z"/><path id="PATH_55" d="m364.5,281.36h-.8c-1.8,0-3-.6-3.6-2.1-.2.6-.6,1-1.2,1.4s-1.2.6-1.8.6h-.8v-2.5h.8c1.6,0,2.4-.6,2.4-2.1v-7.2c0-2.7,0-4.7-.2-6.2l1.8-1.4v13.8c0,2.1.8,3.1,2.6,3.1h.8v2.6h0Z"/><path id="PATH_56" d="m376.6,264.76c0,.4-.2,1-.6,2.3-2.4.6-5.5,1.6-8.9,2.7,2.4,2.5,3.8,4.5,4,6,.2,1,0,2.1-.4,3.1s-1.2,1.6-2.2,2.1c-.8.4-2.2.4-4,.4h-.8v-2.5h.6c3.8,0,5.9-.6,5.9-2.1,0-1-1-2.7-3.2-4.7l-.2.6c-.2-.2-.6-.6-1-1.2-.6-.6-.8-1-.8-1.2,0-.6.2-1.2.8-1.8.2-.2,1.4-.6,4-1.4,2.4-1.1,4.8-1.9,6.8-2.3Zm-.4-3.1l-.4,1.4-9.9,3.3.4-1.4,9.9-3.3Z"/></g><g id="G_57"><path id="PATH_58" d="m148.4,274.86c0,2.4-.7,4.5-2.1,6.6-1.2,1.7-2.4,2.6-3.1,2.6-1.9,0-3.3,0-4.7-.2-.5,0-.7-.2-.7-.2,0,0,.2-.2.7-.2,1.9-.5,3.8-1.4,5.7-2.8,1.9-1.7,3.1-3.3,3.1-5,0-.9-.7-2.4-2.4-4l.7-2.4c0-.2.2-.2.2-.2l.2.2c.5.7,1.2,1.7,1.4,2.8.8.9,1,2.1,1,2.8Z"/><path id="PATH_59" d="m157.9,274.66h-1.7c-1.7,0-3.1-.7-3.5-2.1-.5-.9-.7-2.6-.7-4.5v-4.5c0-2.1-.2-5.2-.5-9.2l1.2-1.7c.2-.2.5-.2.5,0,.2,2.1.5,5.2.5,9.2v6.9c0,1.9.9,2.8,2.8,2.8h1.2v3.1h.2Z"/><path id="PATH_60" d="m179.6,274.66h-1.4c-1.7,0-2.6-.7-3.3-1.9-.5,1.4-1.7,1.9-3.1,1.9s-2.4-.7-3.1-1.9c-.7,1.4-1.7,1.9-3.1,1.9-1.7,0-2.8-.7-3.5-1.9-.9,1.4-2.1,1.9-3.8,1.9h-1.7v-2.8h1.9c1.7,0,2.8-.9,3.1-2.8,0-.5.2-.7.5-.7s.2.2.5.7c.2,1.9,1.2,2.8,3.1,2.8,1.7,0,2.8-.9,2.8-2.8,0-.5.2-.7.5-.7.2,0,.5.2.5.7.2,1.9,1.2,2.8,2.4,2.8,1.7,0,2.8-.9,2.8-2.8,0-.5.2-.7.5-.7s.5.2.5.7c.2,1.9,1.2,2.8,2.8,2.8h1.4v2.8h-.3Z"/><path id="PATH_61" d="m185.3,269.96c0,3.1-1.7,4.7-4.7,4.7h-1.9v-2.8h1.7c2.4,0,3.5-.5,3.5-1.2s-.5-1.7-1.7-2.8l.9-2.4c0-.2.2-.2.2-.2l.5.5c1,1.3,1.5,2.8,1.5,4.2Zm-.2-10.7l-1.9,1.9-1.9-1.9,1.9-1.9,1.9,1.9Z"/><path id="PATH_62" d="m190.7,271.86c0,.9-.2,1.9-.7,2.6-.2.5-.5.7-.5.7,0,0-.2-.2-.2-.9,0-2.8-.5-9.5-1.4-20.1l1.9-1.9.2-.2v.5c.7,3.2.7,9.6.7,19.3Z"/><path id="PATH_63" d="m205.4,274.66h-2.6c-.2,3.3-1.4,5.9-3.8,8.3-.7.7-1.2,1.2-1.4,1.2-1.2,0-2.8-.2-4.5-.5-.5,0-.9-.2-.9-.2,0,0,.2-.2.9-.5,1.9-.5,3.8-1.7,5.4-2.8.7-.7,1.4-1.2,1.9-2.1.7-.9,1.2-1.9,1.2-2.6v-.7h-3.1c-2.4,0-3.3-.9-3.3-2.8,0-1.2.2-2.4.9-3.8.7-1.4,1.7-2.4,2.6-2.4,1.2,0,2.1.7,2.8,2.4.5,1.2.9,2.4.9,3.8h2.6v2.8h.4v-.1Zm-4.3-2.6c0-.7-.2-1.4-.7-2.1-.5-.9-1.2-1.2-1.9-1.2-.5,0-.9.2-1.2.5-.5.5-.5.7-.5,1.4,0,1.2.9,1.7,2.8,1.7.4-.3.8-.3,1.5-.3Z"/><path id="PATH_64" d="m223.8,267.86l-.9,1.9c-1.7,0-3.1,0-3.8.2-.9.5-2.4.9-4.3,1.9-1.9.9-3.3,1.7-4.3,1.9-1.4.5-3.1.7-4.5.7h-1.7v-2.8h1.9c2.1,0,4-.5,5.7-1.2l5.4-2.4c-.9-.2-2.4-.7-4.3-1.4-1.7-.7-2.6-.9-3.1-.9-.9,0-1.9.5-2.8,1.2q-.2.2-.5.2c-.3,0-.2,0-.2-.2v-.2c.7-2.4,2.1-3.3,4-3.3.7,0,1.7.2,2.6.7,1.9.9,3.3,1.4,4.3,1.9,1.7.5,3.5.9,5.7.9.5,0,.7,0,.7.2.4.2.4.4.1.7Zm-6.6-10.7l-1.9,1.9-1.9-1.9,1.9-1.9,1.9,1.9Z"/></g><g id="G_65"><path id="PATH_66" d="m25.3,318.16h-.9c-1.2,0-2.1-.2-2.6-.7-.7-.5-1.2-1.4-1.2-2.4-2.6,2.4-6.6,3.5-12.1,3.5s-8.5-1.7-8.5-5.2c0-1.2.5-2.4,1.4-3.5q.2-.2.5-.2t.2.2v.5c-.2.7-.5,1.4-.5,2.1,0,2.4,2.6,3.5,7.8,3.5,5.9,0,9.9-1.2,11.8-3.8.5-.5.7-.7.9-.7s.2.2.2.5,0,.5-.2.9c0,.5-.2.7-.2.9,0,1.2.9,1.9,2.6,1.9h.9v2.4h-.1v.1Zm-14.6-13.7l-1.9,1.9-1.9-1.9,1.9-1.9,1.9,1.9Zm4,0l-1.9,1.9-1.9-1.9,1.9-1.9,1.9,1.9Z"/><path id="PATH_67" d="m44,312.96c0,1.4-.2,2.6-.9,3.5-.7.9-1.9,1.7-3.1,1.7-1.7,0-2.6-.7-3.3-1.9-.9,1.4-1.9,1.9-3.3,1.9-1.7,0-2.8-.7-3.5-1.9-.9,1.4-2.1,1.9-3.8,1.9h-1.7v-2.8h1.9c1.7,0,2.8-.9,3.1-2.8,0-.5.2-.7.5-.7.2,0,.2.2.5.7.2,1.9,1.2,2.8,3.1,2.8.9,0,1.9-.2,2.4-.7.2-.5.5-.9.7-1.9,0-.5.2-.7.5-.7.2,0,.2.2.5.7.2,1.9,1.2,2.8,2.8,2.8,1.9,0,2.6-.5,2.6-1.2s-.5-1.7-1.4-2.6l1.2-2.1c.2-.2.2-.5.5-.5s.2.2.5.5c-.3,1.2.2,2.3.2,3.3Zm-8.1-8.5l-1.7,1.7-1.7-1.7,1.7-1.7,1.7,1.7Zm2.2-3.8l-1.7,1.7-1.7-1.7,1.7-1.7,1.7,1.7Zm2.1,3.8l-1.7,1.7-1.7-1.7,1.7-1.7,1.7,1.7Z"/><path id="PATH_68" d="m58.4,313.16c0,3.3-2.1,5-6.6,5-1.7,0-2.8-.2-3.5-.7-.9-.5-1.4-1.7-1.4-3.1,0-.7.2-1.4.5-2.1.2-.2.2-.5.5-.5s.2.2.2.7v.7c0,.9.5,1.7,1.4,1.9.5.2,1.4.2,2.6.2,3.5,0,5.2-.5,5.2-1.7,0-1.7-2.1-4-6.1-6.9l.7-2.4c0-.2.2-.2.2-.2,0,0,.2,0,.5.2,3.9,3.3,5.8,6.1,5.8,8.9Z"/><path id="PATH_69" d="m82.5,318.16h-2.6c-.2,3.3-1.4,5.9-3.8,8.3-.7.7-1.2,1.2-1.4,1.2-1.2,0-2.8-.2-4.5-.5-.5,0-.9-.2-.9-.2,0,0,.2-.2.9-.5,1.9-.5,3.8-1.7,5.4-2.8.7-.7,1.4-1.2,1.9-2.1.7-.9,1.2-1.9,1.2-2.6v-.7h-3.1c-2.4,0-3.3-.9-3.3-2.8,0-1.2.2-2.4.9-3.8.7-1.4,1.7-2.4,2.6-2.4,1.2,0,2.1.7,2.8,2.4.5,1.2.9,2.4.9,3.8h2.6v2.8h.4v-.1Zm-4.3-2.8c0-.7-.2-1.4-.7-2.1-.5-.9-1.2-1.2-1.9-1.2-.5,0-.9.2-1.2.5-.5.5-.5.7-.5,1.4,0,1.2.9,1.7,2.8,1.7.1-.3.8-.3,1.5-.3Z"/><path id="PATH_70" d="m94.1,318.16h-1.9c-2.1,0-3.5-.7-4.5-2.1-.7,1.4-2.4,2.1-5,2.1h-1.4v-2.8h2.1c2.4,0,3.5-.9,3.8-2.6,0-.7.2-1.2.5-1.2.2,0,.5.5.5,1.2.2,1.7,1.4,2.6,3.5,2.6h2.1v2.8h.3Zm-4.7-12.3l-1.9,1.9-1.9-1.9,1.9-1.9,1.9,1.9Z"/><path id="PATH_71" d="m105.7,318.16h-1.9c-2.1,0-3.5-.7-4.5-2.1-.7,1.4-2.4,2.1-5,2.1h-1.4v-2.8h2.1c2.4,0,3.5-.9,3.8-2.6,0-.7.2-1.2.5-1.2.2,0,.5.5.5,1.2.2,1.7,1.4,2.6,3.5,2.6h2.1v2.8h.3Zm-7.8,5.2l-1.9,1.9-1.9-1.9,1.9-1.9,1.9,1.9Zm4,0l-1.9,1.9-1.9-1.9,1.9-1.9,1.9,1.9Z"/><path id="PATH_72" d="m117.5,313.46c0,1.2,0,2.1-.5,3.1-.5,1.2-1.2,1.9-1.9,1.9-1.2,0-3.1-.7-5.4-2.4-.7.9-1.2,1.4-1.4,1.7-.7.5-1.4.7-2.4.7h-1.2v-2.8h1.7c.9,0,1.9-.5,2.8-1.7.5-.5,1.2-1.7,2.1-3.1.7-1.2,1.7-1.7,2.4-1.7,1.2,0,2.1.5,2.8,1.7.5.7.7,1.6,1,2.6Zm-1.4,1.6c0-.7-.2-1.4-.7-2.4-.5-.9-1.2-1.4-1.9-1.4s-1.4.7-2.4,2.1c.5.5,1.2.9,2.1,1.4s1.9.7,2.4.7c.2.3.5.1.5-.4Z"/><path id="PATH_73" d="m138.7,317.16c0,3.5-1.2,6.6-3.5,9-.7.7-1.2,1.2-1.4,1.2-1.4,0-2.8-.2-4.5-.5-.7,0-.9-.2-.9-.2,0,0,.2-.2.9-.5,1.9-.5,3.8-1.7,5.4-3.1.7-.7,1.4-1.2,1.9-2.1.7-.9,1.2-1.9,1.2-2.6v-.7h-3.1c-2.1,0-3.3-.9-3.3-2.6,0-1.2.2-2.4.9-3.8s1.7-2.4,2.6-2.4c1.4,0,2.6.9,3.3,3.1.3,1.7.5,3.4.5,5.2Zm-1.6-2.1c0-.7-.2-1.4-.7-2.1s-1.2-1.2-1.9-1.2c-.5,0-.9.2-1.2.5-.5.5-.5.7-.5,1.2,0,1.2.7,1.7,2.4,1.7.2.2.9.2,1.9-.1Z"/><path id="PATH_74" d="m171.8,318.16h-1.2c-1.2,0-1.9,0-2.4-.2,0,.7.2,1.2.2,1.9,0,1.2-.2,1.9-.5,2.6-.7,1.7-1.9,3.1-4.3,4-1.9.7-3.8,1.2-5.9,1.2s-3.8-.5-5.2-1.4c-1.4-1.2-2.1-2.6-2.1-4.7,0-1.2.2-2.1.7-3.5.5-.9.7-1.7,1.2-2.1.2-.2.5-.2.5-.2q.2,0,.2.2v.5c-.7,1.4-.9,2.8-.9,4s.5,2.1,1.2,3.1c.9,1.2,2.6,1.7,4.7,1.7,2.4,0,4.5-.5,6.1-1.2,1.4-.7,2.4-1.4,2.8-2.4.2-.2.2-.7,0-1.7,0-.7-.2-1.4-.2-1.7-.2-.7-1.2-1.9-2.4-3.5l.9-1.9c.2-.2.2-.5.2-.5,0,0,.2,0,.2.2,1.2,1.9,2.4,2.8,3.8,2.8h1.9v2.8h.5Zm-10.4-10.6l-1.9,1.9-1.9-1.9,1.9-1.9,1.9,1.9Z"/><path id="PATH_75" d="m177.5,313.46c0,3.1-1.7,4.7-4.7,4.7h-1.9v-2.8h1.7c2.4,0,3.5-.5,3.5-1.2s-.5-1.7-1.7-2.8l.9-2.4c0-.2.2-.2.2-.2l.5.5c1,1.1,1.5,2.5,1.5,4.2Zm-1.9,9.9l-1.9,1.9-1.9-1.9,1.9-1.9,1.9,1.9Zm4,0l-1.9,1.9-1.9-1.9,1.9-1.9,1.9,1.9Z"/><path id="PATH_76" d="m194.5,318.16h-2.6c-.2,3.3-1.4,5.9-3.8,8.3-.7.7-1.2,1.2-1.4,1.2-1.2,0-2.8-.2-4.5-.5-.5,0-.9-.2-.9-.2,0,0,.2-.2.9-.5,1.9-.5,3.8-1.7,5.4-2.8.7-.7,1.4-1.2,1.9-2.1.7-.9,1.2-1.9,1.2-2.6v-.7h-3.1c-2.4,0-3.3-.9-3.3-2.8,0-1.2.2-2.4.9-3.8.7-1.4,1.7-2.4,2.6-2.4,1.2,0,2.1.7,2.8,2.4.5,1.2.9,2.4.9,3.8h2.6v2.8h.4v-.1Zm-4.2-2.8c0-.7-.2-1.4-.7-2.1-.5-.9-1.2-1.2-1.9-1.2-.5,0-.9.2-1.2.5-.5.5-.5.7-.5,1.4,0,1.2.9,1.7,2.8,1.7,0-.3.8-.3,1.5-.3Z"/><path id="PATH_77" d="m200.2,313.46c0,3.1-1.7,4.7-4.7,4.7h-1.9v-2.8h1.7c2.4,0,3.5-.5,3.5-1.2s-.5-1.7-1.7-2.8l.9-2.4c0-.2.2-.2.2-.2l.5.5c1,1.1,1.5,2.5,1.5,4.2Zm-.7,9.9l-1.9,1.9-1.9-1.9,1.9-1.9,1.9,1.9Z"/></g><g id="G_78"><path id="PATH_79" d="m199.3,441.46h-.8c-.8,0-1.2-.2-1.6-.4v.6c0,1.7-.6,3.3-1.8,5-1,1.5-2,2-2.6,2-1.6,0-2.8,0-4-.2-.4,0-.6-.2-.6-.2,0,0,.2-.2.6-.2,1.6-.4,3.2-1.1,4.8-2.2,1.6-1.3,2.6-2.6,2.6-3.9,0-.7-.6-1.8-2-3.1l1-1.7c0-.2.2-.2.2-.2l.2.2c.6.7,1,1.3,1.4,1.5.6.4,1.4.7,2.2.7h.6v2h-.2v.1Z"/><path id="PATH_80" d="m211.6,441.46h-1c-.8,0-1.6.2-2.2.4-1,.4-1.6.9-1.6,1.8,0,1.1.8,2,2.4,3l-1,1.8c-1.8-.6-3.4-1.5-4.6-2.6-1.6-1.3-2.4-3-2.4-4.6h-2.7v-2.2h2.6c0-1.5.4-3,1.2-4.8.8-1.7,1.4-2.4,1.8-2.4s1,.7,1.6,2.4c.6,1.5.8,2.4.8,3,0,2.6-1.4,3.9-4.2,3.9.2.7.6,1.5,1.2,2.2s1.4,1.3,2.2,1.7v-.7c0-1.3.4-2.4,1-3.3,1-1.3,2.2-2,4-2h.8v2.6h.1v-.2Zm-6.1-3c0-.4-.2-1.1-.6-2-.4-1.1-.8-1.5-1.2-1.5-.2,0-.6.4-1,1.3s-.6,2-.6,3.1c2.4.1,3.4-.3,3.4-.9Z"/><path id="PATH_81" d="m227.3,437.56c0,1.1-.2,2-.8,2.8-.6.7-1.6,1.3-2.6,1.3-1.4,0-2.2-.6-2.8-1.5-.8,1.1-1.6,1.5-2.8,1.5-1.4,0-2.4-.6-3-1.5-.8,1.1-1.8,1.5-3.2,1.5h-1.4v-2.2h1.6c1.4,0,2.4-.7,2.6-2.2,0-.4.2-.6.4-.6s.2.2.4.6c.2,1.5,1,2.2,2.6,2.2.8,0,1.6-.2,2-.6.2-.4.4-.7.6-1.5,0-.4.2-.6.4-.6s.2.2.4.6c.2,1.5,1,2.2,2.4,2.2,1.6,0,2.2-.4,2.2-.9s-.4-1.3-1.2-2l1-1.7c.2-.2.2-.4.4-.4s.2.2.4.4c0,.8.4,1.9.4,2.6Zm-6.8-6.8l-1.4,1.3-1.4-1.3,1.4-1.3,1.4,1.3Zm1.8-2.8l-1.4,1.3-1.4-1.3,1.4-1.3,1.4,1.3Zm1.8,2.8l-1.4,1.3-1.4-1.3,1.4-1.3,1.4,1.3Z"/><path id="PATH_82" d="m252,441.26c.2.6.2,1.1.2,1.7,0,.7-.2,1.3-.4,2-.6,1.3-1.6,2.4-3.6,3.1-1.6.6-3.2.9-5,.9s-3.2-.4-4.4-1.1c-1.2-.9-1.8-2-1.8-3.7,0-.9.2-1.7.6-2.8.4-.7.6-1.3,1-1.7.2-.2.4-.2.4-.2q.2,0,.2.2v.4c-.6,1.1-.8,2.2-.8,3.1s.4,1.7,1,2.4c.8.9,2.2,1.3,4,1.3,2,0,3.8-.4,5.2-.9,1.2-.6,2-1.1,2.4-1.8.2-.2.2-.6.2-.7,0-.6-.2-1.1-.4-1.8-.2-.6-.8-1.5-1.8-3l.8-1.5c.2-.2.2-.4.2-.4,0,0,.2,0,.2.2,1,1.4,1.6,2.8,1.8,4.3Zm-5.7-7.9l-1.6,1.5-1.6-1.5,1.6-1.5,1.6,1.5Z"/><path id="PATH_83" d="m262.5,440.76c0,2.8-1,5.2-3,7-.6.6-1,.9-1.2.9-1.2,0-2.4-.2-3.8-.4-.6,0-.8-.2-.8-.2,0,0,.2-.2.8-.4,1.6-.4,3.2-1.3,4.6-2.4.6-.6,1.2-.9,1.6-1.7.6-.7,1-1.5,1-2v-.6h-2.6c-1.8,0-2.8-.7-2.8-2,0-.9.2-1.8.8-3,.6-1.1,1.4-1.8,2.2-1.8,1.2,0,2.2.7,2.8,2.4.2,1.6.4,2.9.4,4.2Zm-1.4-1.5c0-.6-.2-1.1-.6-1.7s-1-.9-1.6-.9c-.4,0-.8.2-1,.4-.4.4-.4.6-.4.9,0,.9.6,1.3,2,1.3.2.2.8.2,1.6,0Z"/><path id="PATH_84" d="m278,441.46h-.8c-.8,0-1.4-.2-2-.7-.4-.4-.8-.7-1.2-1.5-.4.7-1,1.3-1.6,1.7-.8.4-1.8.6-3.4.6-2.8,0-4.2-.9-4.2-2.8,0-.6.2-1.3.6-1.8.2-.2.2-.4.4-.4s.2.2.2.4v1.2c0,1.1,1,1.7,3,1.7,2.8,0,4.2-.6,4.2-1.5,0-.6-.8-2.6-2.4-6.1l.8-1.5c.2-.2.2-.4.2-.4,0,0,.2.2.2.4.6,1.5,1.6,3.7,2.8,6.6.6,1.5,1.4,2.2,2.6,2.2h.6v1.9h0Z"/><path id="PATH_85" d="m282.7,437.76c0,2.4-1.4,3.7-4,3.7h-1.6v-2.2h1.4c2,0,3-.4,3-.9s-.4-1.3-1.4-2.2l.8-1.8c0-.2.2-.2.2-.2l.4.4c.8,1,1.2,2.1,1.2,3.2Zm-1.6,7.7l-1.6,1.5-1.6-1.5,1.6-1.5,1.6,1.5Zm3.4,0l-1.6,1.5-1.6-1.5,1.6-1.5,1.6,1.5Z"/><path id="PATH_86" d="m297,441.46h-.8c-.8,0-1.2-.2-1.6-.4v.6c0,1.7-.6,3.3-1.8,5-1,1.5-2,2-2.6,2-1.6,0-2.8,0-4-.2-.4,0-.6-.2-.6-.2,0,0,.2-.2.6-.2,1.6-.4,3.2-1.1,4.8-2.2,1.6-1.3,2.6-2.6,2.6-3.9,0-.7-.6-1.8-2-3.1l1-1.7c0-.2.2-.2.2-.2l.2.2c.6.7,1,1.3,1.4,1.5.6.4,1.4.7,2.2.7h.6v2h-.2v.1Z"/><path id="PATH_87" d="m304.5,436.26v.7c0,1.3-.2,2-.6,2.6-1,1.3-2.6,1.8-5.2,1.8h-2.8v-2.2h2c3.4,0,5.2-.6,5.5-1.5v-.4c0-.4,0-.6-.2-.7-.8.2-1.8.2-2.6.2-1.8,0-2.8-.7-2.8-2.2,0-.9.2-2,.8-3,.6-1.1,1.4-1.7,2.4-1.7.8,0,1.6.6,2.2,1.5,1.1,1.6,1.3,3.1,1.3,4.9Zm-2.2-10.1l-1.6,1.5-1.6-1.5,1.6-1.5,1.6,1.5Zm.8,8.5c0-.6-.2-1.1-.6-1.7-.4-.6-1-.7-1.6-.7-.4,0-.8.2-1.2.4-.2.2-.4.6-.4.9,0,.7.6,1.1,2,1.1.5.3,1,.2,1.8,0Z"/></g><g id="G_88"><path id="PATH_89" d="m340,397.66c.2.6.2,1.1.2,1.7,0,.8-.2,1.3-.4,2.1-.5,1.3-1.4,2.5-3.2,3.2-1.4.6-2.9.9-4.5.9s-2.9-.4-3.9-1.1c-1.1-.9-1.6-2.1-1.6-3.8,0-.9.2-1.7.5-2.8.4-.8.5-1.3.9-1.7.2-.2.4-.2.4-.2q.2,0,.2.2v.4c-.5,1.1-.7,2.3-.7,3.2s.4,1.7.9,2.5c.7.9,2,1.3,3.6,1.3,1.8,0,3.4-.4,4.7-.9,1.1-.6,1.8-1.1,2.1-1.9.2-.2.2-.6.2-.8,0-.6-.2-1.1-.4-1.9-.2-.6-.7-1.5-1.6-3l.7-1.5c.2-.2.2-.4.2-.4,0,0,.2,0,.2.2.7,1.3,1.3,2.8,1.5,4.3Zm-5.2-8.2l-1.4,1.5-1.4-1.5,1.4-1.5,1.4,1.5Z"/><path id="PATH_90" d="m354.1,397.86h-.7c-.7,0-1.3-.2-1.8-.8-.4-.4-.7-.8-1.1-1.5-.4.8-.9,1.3-1.4,1.7-.7.4-1.6.6-3,.6-2.5,0-3.8-.9-3.8-2.8,0-.6.2-1.3.5-1.9.2-.2.2-.4.4-.4s.2.2.2.4v1.2c0,1.1.9,1.7,2.7,1.7,2.5,0,3.8-.6,3.8-1.5,0-.6-.7-2.7-2.1-6.3l.7-1.5c.2-.2.2-.4.2-.4,0,0,.2.2.2.4.5,1.5,1.4,3.8,2.5,6.8.5,1.5,1.3,2.3,2.3,2.3h.5v2h-.1Z"/><path id="PATH_91" d="m358.4,394.06c0,2.5-1.3,3.8-3.6,3.8h-1.4v-2.3h1.3c1.8,0,2.7-.4,2.7-.9s-.4-1.3-1.3-2.3l.7-1.9c0-.2.2-.2.2-.2,0,0,.2.2.4.4.6,1.1,1,2.3,1,3.4Zm-1.4,8l-1.4,1.5-1.4-1.5,1.4-1.5,1.4,1.5Zm3,0l-1.4,1.5-1.4-1.5,1.4-1.5,1.4,1.5Z"/><path id="PATH_92" d="m371.3,397.86h-.7c-.7,0-1.1-.2-1.4-.4v.6c0,1.7-.5,3.4-1.6,5.1-.9,1.5-1.8,2.1-2.3,2.1-1.4,0-2.5,0-3.6-.2-.4,0-.5-.2-.5-.2,0,0,.2-.2.5-.2,1.4-.4,2.9-1.1,4.3-2.3,1.4-1.3,2.3-2.7,2.3-4,0-.8-.5-1.9-1.8-3.2l.9-1.7c0-.2.2-.2.2-.2l.2.2c.5.8.9,1.3,1.3,1.5.5.4,1.3.8,2,.8h.5v2.1h-.3Z"/><path id="PATH_93" d="m378.3,392.56v.8c0,1.3-.2,2.1-.5,2.7-.9,1.3-2.3,1.9-4.7,1.9h-2.5v-2.3h1.8c3,0,4.7-.6,5-1.5v-.4c0-.4,0-.6-.2-.8-.7.2-1.6.2-2.3.2-1.6,0-2.5-.8-2.5-2.3,0-.9.2-2.1.7-3,.5-1.1,1.3-1.7,2.1-1.7.7,0,1.4.6,2,1.5.7,1.5,1.1,3,1.1,4.9Zm-2.2-10.5l-1.4,1.5-1.4-1.5,1.4-1.5,1.4,1.5Zm.8,8.8c0-.6-.2-1.1-.5-1.7-.4-.6-.9-.8-1.4-.8-.4,0-.7.2-1.1.4-.2.2-.4.6-.4.9,0,.8.5,1.1,1.8,1.1.5.4,1,.3,1.6.1Z"/></g><g id="G_94"><path id="PATH_95" d="m222.9,584.06c.2.7.2,1.4.2,2.1,0,.9-.2,1.7-.5,2.6-.7,1.7-1.9,3.1-4.3,4-1.9.7-3.8,1.2-5.9,1.2s-3.8-.5-5.2-1.4c-1.4-1.2-2.1-2.6-2.1-4.7,0-1.2.2-2.1.7-3.5.5-.9.7-1.7,1.2-2.1.2-.2.5-.2.5-.2q.2,0,.2.2v.5c-.7,1.4-.9,2.8-.9,4s.5,2.1,1.2,3.1c.9,1.2,2.6,1.7,4.7,1.7,2.4,0,4.5-.5,6.1-1.2,1.4-.7,2.4-1.4,2.8-2.4.2-.2.2-.7.2-.9,0-.7-.2-1.4-.5-2.4-.2-.7-.9-1.9-2.1-3.8l.9-1.9c.2-.2.2-.5.2-.5,0,0,.2,0,.2.2,1.4,1.6,2.1,3.5,2.4,5.4Zm-6.9-10.2l-1.9,1.9-1.9-1.9,1.9-1.9,1.9,1.9Z"/><path id="PATH_96" d="m232.6,584.26h-1.7c-1.7,0-3.1-.7-3.5-2.1-.5-.9-.7-2.6-.7-4.5v-4.5c0-2.1-.2-5.2-.5-9.2l1.4-1.7c.2-.2.5-.2.5,0,.2,2.1.5,5.2.5,9.2v6.9c0,1.9.9,2.8,2.8,2.8h1.2v3.1h0Z"/><path id="PATH_97" d="m246.7,565.06c0,.5-.2,1.2-.7,2.6-2.8.7-6.4,1.9-10.4,3.1,2.8,2.8,4.5,5.2,4.7,6.9.2,1.2,0,2.4-.5,3.5-.5,1.2-1.4,1.9-2.6,2.4-.9.5-2.6.5-4.7.5h-.9v-2.8h.7c4.5,0,6.9-.7,6.9-2.4,0-1.2-1.2-3.1-3.8-5.4l-.2.7c-.2-.2-.7-.7-1.2-1.4-.7-.7-.9-1.2-.9-1.4,0-.7.2-1.4.9-2.1.2-.2,1.7-.7,4.7-1.7,2.8-1,5.7-1.7,8-2.5Zm-.4-3.5l-.5,1.7-11.6,3.8.5-1.7,11.6-3.8Z"/><path id="PATH_98" d="m260.5,579.26c0,3.3-2.1,5-6.6,5-1.7,0-2.8-.2-3.5-.7-.9-.5-1.4-1.7-1.4-3.1,0-.7.2-1.4.5-2.1.2-.2.2-.5.5-.5.2,0,.2.2.2.7v.7c0,.9.5,1.7,1.4,1.9.5.2,1.4.2,2.6.2,3.5,0,5.2-.5,5.2-1.7,0-1.7-2.1-4-6.1-6.9l.7-2.4c0-.2.2-.2.2-.2,0,0,.2,0,.5.2,3.9,3.5,5.8,6.3,5.8,8.9Z"/><path id="PATH_99" d="m269.9,584.26h-1.7c-1.7,0-3.1-.7-3.5-2.1-.5-.9-.7-2.6-.7-4.5v-4.5c0-2.1-.2-5.2-.5-9.2l1.4-1.7c.2-.2.5-.2.5,0,.2,2.1.5,5.2.5,9.2v6.9c0,1.9.9,2.8,2.8,2.8h1.2v3.1h0Z"/><path id="PATH_100" d="m288.3,577.36l-.9,1.9c-1.7,0-3.1,0-3.8.2-.9.5-2.4.9-4.3,1.9-1.9.9-3.3,1.7-4.3,1.9-1.4.5-3.1.7-4.5.7h-1.7v-2.8h1.9c2.1,0,4-.5,5.7-1.2l5.4-2.4c-.9-.2-2.4-.7-4.3-1.4-1.7-.7-2.6-.9-3.1-.9-.9,0-1.9.5-2.8,1.2q-.2.2-.5.2t-.2-.2v-.2c.7-2.4,2.1-3.3,4-3.3.7,0,1.7.2,2.6.7,1.9.9,3.3,1.4,4.3,1.9,1.7.5,3.5.9,5.7.9.5,0,.7,0,.7.2.4.3.4.5.1.7Zm-13,11.4l1.7-1.7,1.7,1.7-1.7,1.7-1.7-1.7Zm2.2,3.8l1.7-1.7,1.7,1.7-1.7,1.7-1.7-1.7Zm2.1-3.8l1.7-1.7,1.7,1.7-1.7,1.7-1.7-1.7Z"/></g><g id="G_101"><path id="PATH_102" d="m471.4,482.66c.2.7.2,1.4.2,2.1,0,.9-.2,1.7-.5,2.6-.7,1.7-1.9,3.1-4.3,4-1.9.7-3.8,1.2-5.9,1.2s-3.8-.5-5.2-1.4c-1.4-1.2-2.1-2.6-2.1-4.7,0-1.2.2-2.1.7-3.5.5-.9.7-1.7,1.2-2.1.2-.2.5-.2.5-.2q.2,0,.2.2v.5c-.7,1.4-.9,2.8-.9,4s.5,2.1,1.2,3.1c.9,1.2,2.6,1.7,4.7,1.7,2.4,0,4.5-.5,6.1-1.2,1.4-.7,2.4-1.4,2.8-2.4.2-.2.2-.7.2-.9,0-.7-.2-1.4-.5-2.4-.2-.7-.9-1.9-2.1-3.8l.9-1.9c.2-.2.2-.5.2-.5,0,0,.2,0,.2.2,1.4,1.6,2.1,3.5,2.4,5.4Zm-6.9-10.2l-1.9,1.9-1.9-1.9,1.9-1.9,1.9,1.9Z"/><path id="PATH_103" d="m477.3,480.06c0,.9-.2,1.9-.7,2.6-.2.5-.5.7-.5.7,0,0-.2-.2-.2-.9,0-2.8-.5-9.5-1.4-20.1l1.9-1.9.2-.2v.5c.4,3.2.7,9.6.7,19.3Z"/><path id="PATH_104" d="m491.9,482.86h-.9c-.9,0-1.4-.2-1.9-.5v.7c0,2.1-.7,4.3-2.1,6.4-1.2,1.9-2.4,2.6-3.1,2.6-1.9,0-3.3,0-4.7-.2-.5,0-.7-.2-.7-.2,0,0,.2-.2.7-.2,1.9-.5,3.8-1.4,5.7-2.8,1.9-1.7,3.1-3.3,3.1-5,0-.9-.7-2.4-2.4-4l1.2-2.1c0-.2.2-.2.2-.2l.2.2c.7.9,1.2,1.7,1.7,1.9.7.5,1.7.9,2.6.9h.7v2.6h-.3v-.1Z"/><path id="PATH_105" d="m503.5,482.86h-1.9c-2.1,0-3.5-.7-4.5-2.1-.7,1.4-2.4,2.1-5,2.1h-1.4v-2.8h2.1c2.4,0,3.5-.9,3.8-2.6,0-.7.2-1.2.5-1.2.2,0,.5.5.5,1.2.2,1.7,1.4,2.6,3.5,2.6h2.1v2.8h.3Zm-7.8,5.2l-1.9,1.9-1.9-1.9,1.9-1.9,1.9,1.9Zm4,0l-1.9,1.9-1.9-1.9,1.9-1.9,1.9,1.9Z"/><path id="PATH_106" d="m509.2,478.16c0,3.1-1.7,4.7-4.7,4.7h-1.9v-2.8h1.7c2.4,0,3.5-.5,3.5-1.2s-.5-1.7-1.7-2.8l.9-2.4c0-.2.2-.2.2-.2l.5.5c1,1.4,1.5,2.8,1.5,4.2Zm-2.1-10.2l-1.9,1.9-1.9-1.9,1.9-1.9,1.9,1.9Zm4,0l-1.9,1.9-1.9-1.9,1.9-1.9,1.9,1.9Z"/></g><g id="G_107"><path id="PATH_108" d="m516.7,575.46c.2.7.2,1.4.2,2.1,0,.9-.2,1.7-.5,2.6-.7,1.7-1.9,3.1-4.3,4-1.9.7-3.8,1.2-5.9,1.2s-3.8-.5-5.2-1.4c-1.4-1.2-2.1-2.6-2.1-4.7,0-1.2.2-2.1.7-3.5.5-.9.7-1.7,1.2-2.1.2-.2.5-.2.5-.2q.2,0,.2.2v.5c-.7,1.4-.9,2.8-.9,4s.5,2.1,1.2,3.1c.9,1.2,2.6,1.7,4.7,1.7,2.4,0,4.5-.5,6.1-1.2,1.4-.7,2.4-1.4,2.8-2.4.2-.2.2-.7.2-.9,0-.7-.2-1.4-.5-2.4-.2-.7-.9-1.9-2.1-3.8l.9-1.9c.2-.2.2-.5.2-.5,0,0,.2,0,.2.2,1.5,1.7,2.2,3.6,2.4,5.4Zm-6.8-10.1l-1.9,1.9-1.9-1.9,1.9-1.9,1.9,1.9Z"/><path id="PATH_109" d="m526.4,575.76h-1.7c-1.7,0-3.1-.7-3.5-2.1-.5-.9-.7-2.6-.7-4.5v-4.5c0-2.1-.2-5.2-.5-9.2l1.4-1.7c.2-.2.5-.2.5,0,.2,2.1.5,5.2.5,9.2v6.9c0,1.9.9,2.8,2.8,2.8h1.2v3.1Z"/><path id="PATH_110" d="m547.2,575.76h-2.4c-3.1,0-4.7-1.7-4.7-4.7v-1.2c-1.2.5-2.6,1.4-4.5,2.6-1.9,1.2-3.1,1.9-4,2.4-1.4.7-3.1.9-4.5.9h-1.6v-2.8h1.9c1.9,0,4-.5,5.9-1.4.9-.5,2.6-1.4,5.2-2.6-.5,0-1.9-.5-4.3-.9-1.7-.5-2.6-.7-2.8-.7-.9,0-1.9.5-2.8,1.2q-.2.2-.5.2c-.3,0-.2,0-.2-.2v-.2c.7-2.4,2.1-3.5,4-3.5.7,0,1.7.2,2.8.5,1.7.5,3.1.9,4.3,1.2,1.7.2,3.5.5,5.7.5h.7v.5l-.7,2.1c-1.4,0-2.4,0-2.8.2,0,1.2.2,1.9.5,2.1.5.7,1.4,1.2,3.1,1.2h2.4v2.8h-.7v-.2Zm-8.9,4.9l-1.9,1.9-1.9-1.9,1.9-1.9,1.9,1.9Z"/><path id="PATH_111" d="m558.8,575.76h-1.9c-2.1,0-3.5-.7-4.5-2.1-.7,1.4-2.4,2.1-5,2.1h-1.4v-2.8h2.1c2.4,0,3.5-.9,3.8-2.6,0-.7.2-1.2.5-1.2.2,0,.5.5.5,1.2.2,1.7,1.4,2.6,3.5,2.6h2.1v2.8h.3Zm-4.7-12.1l-1.9,1.9-1.9-1.9,1.9-1.9,1.9,1.9Z"/><path id="PATH_112" d="m564.2,557.06c.2.2.2.5.2.5h-1.4c.2,3.1.2,7.6.2,13.5,0,1.4-.2,2.6-.9,3.3-.7.9-1.9,1.4-3.1,1.4h-1.4v-2.8h1.2c1.9,0,2.8-.7,2.6-2.1-.2-5-.5-10.2-.7-15.4l1.7-1.4.5-.5s0,.2.2.5c0,.9.2,1.8.9,3Z"/></g><g id="G_113"><path id="PATH_114" d="m574.2,611.26h-1.3c-1.7,0-2.6-.9-3-3-.9.9-1.3,1.3-1.5,1.3h-1.7c-.6,0-1.1,0-1.7-.2-.8-.2-1.1-.6-1.1-.9,0-1.5.6-2.6,1.5-3.4.8-.6,1.9-1.1,3.4-1.9l-.4-1.9,1.3-1.5c0,.2.6,2.3,1.3,6.2.2,1.1.6,2.1.8,2.5.4.6.8.8,1.5.8h1.3v2.1h-.4v-.1Zm-4.7-4l-.6-3c-.6.2-1.3.6-2.3.9-1.1.6-1.9,1.1-1.9,1.3,0,.4.4.6,1.3.8.6.2,1.1.2,1.7.2s1.2,0,1.8-.2Z"/><path id="PATH_115" d="m585.7,593.66c0,.4-.4,1.1-.8,2.1l-4.7,1.5c-2.1.8-3.6,1.3-4.4,1.7,1.5,1.5,2.5,2.6,3,3.2.9,1.3,1.5,2.5,1.7,3.8,0,.9,0,1.9-.4,2.6-.6,1.7-2.6,2.5-5.9,2.5h-.9v-2.3h1.1c1.5,0,2.6,0,3.2-.2,1.3-.4,2.1-.9,2.1-1.9,0-1.3-.9-2.8-3-4.7l-.2.4c-.2-.2-.6-.6-.9-1.1-.6-.6-.8-1.1-.8-1.1,0-.4,0-.8.2-1.5s.4-1.1.6-1.3c.2-.2,1.5-.8,4-1.5,2.3-.8,4.4-1.6,6.1-2.2Z"/><path id="PATH_116" d="m594.6,611.46c0,1.9-.6,3.6-1.7,5.3-.9,1.3-1.9,2.1-2.5,2.1-1.5,0-2.6,0-3.8-.2-.4,0-.6-.2-.6-.2,0,0,.2-.2.6-.2,1.5-.4,3-1.1,4.5-2.3,1.5-1.3,2.5-2.6,2.5-4,0-.8-.6-1.9-1.9-3.2l.9-1.7c0-.2.2-.2.2-.2l.2.2c.4.6.9,1.3,1.1,2.3.3.6.5,1.3.5,2.1Z"/><path id="PATH_117" d="m602,611.26h-1.3c-1.3,0-2.5-.6-2.8-1.7-.4-.8-.6-2.1-.6-3.6v-3.6c0-1.7-.2-4.2-.4-7.4l1.1-1.3c.2-.2.4-.2.4,0,.2,1.7.4,4.2.4,7.4v5.5c0,1.5.8,2.3,2.3,2.3h.9v2.4h0Z"/><path id="PATH_118" d="m611.5,611.26h-1.5c-1.7,0-2.8-.6-3.6-1.7-.6,1.1-1.9,1.7-4,1.7h-1.1v-2.3h1.7c1.9,0,2.8-.8,3-2.1,0-.6.2-.9.4-.9s.4.4.4.9c.2,1.3,1.1,2.1,2.8,2.1h1.7v2.3h.2Zm-4.2,4.2l-1.5,1.5-1.5-1.5,1.5-1.5,1.5,1.5Z"/><path id="PATH_119" d="m620.7,607.46c0,.9,0,1.7-.4,2.5-.4.9-.9,1.5-1.5,1.5-.9,0-2.5-.6-4.4-1.9-.6.8-.9,1.1-1.1,1.3-.6.4-1.1.6-1.9.6h-.9v-2.3h1.3c.8,0,1.5-.4,2.3-1.3.4-.4.9-1.3,1.7-2.5.6-.9,1.3-1.3,1.9-1.3.9,0,1.7.4,2.3,1.3.5.8.7,1.4.7,2.1Zm-1.1,1.4c0-.6-.2-1.1-.6-1.9s-.9-1.1-1.5-1.1-1.1.6-1.9,1.7c.4.4.9.8,1.7,1.1.8.4,1.5.6,1.9.6.4.1.4-.1.4-.4Z"/></g><g id="G_126"><path id="PATH_127" d="m587.1,857.66c0,.5-.2.9-.7,1.9-.5.9-.9,1.4-1.2,1.4-.7,0-1.7-.2-2.8-.5-1.2-.2-2.1-.5-2.8-.5-1.2,0-2.1.2-2.6.5.5,4,.7,7.1.7,9,0,.9-.2,1.9-.9,3.1-.2.2-.2.5-.2.5v-.2c-.2-3.8-.5-7.6-.9-11.3,0-.5.2-.9.7-1.7.5-.5.7-.9,1.2-1.2.5-.5,1.2-.5,1.9-.5-.2-.7-.2-1.2-.2-1.7,0-.7.2-1.7.9-2.6.7-.9,1.4-1.4,2.4-1.4,1.2,0,2.4.7,3.5,1.9,1,1.2,1,2.4,1,3.3Zm-1.9,1c-.2-.7-.9-1.7-1.7-2.4-.9-.9-1.7-1.2-2.6-1.2-1.2,0-1.7.5-1.7,1.2,0,.5.2.9.5,1.9,1.4-.2,3.3,0,5.5.5Z"/><path id="PATH_128" d="m601.7,862.36h-.9c-.9,0-1.4-.2-1.9-.5v.7c0,2.1-.7,4.3-2.1,6.4-1.2,1.9-2.4,2.6-3.1,2.6-1.9,0-3.3,0-4.7-.2-.5,0-.7-.2-.7-.2,0,0,.2-.2.7-.2,1.9-.5,3.8-1.4,5.7-2.8,1.9-1.7,3.1-3.3,3.1-5,0-.9-.7-2.4-2.4-4l1.2-2.1c0-.2.2-.2.2-.2l.2.2c.7.9,1.2,1.7,1.7,1.9.7.5,1.7.9,2.6.9h.7v2.6h-.3v-.1Z"/><path id="PATH_129" d="m613.3,862.36h-1.9c-2.1,0-3.5-.7-4.5-2.1-.7,1.4-2.4,2.1-5,2.1h-1.4v-2.8h2.1c2.4,0,3.5-.9,3.8-2.6,0-.7.2-1.2.5-1.2s.5.5.5,1.2c.2,1.7,1.4,2.6,3.5,2.6h2.1v2.8h.3Zm-7.8,5.2l-1.9,1.9-1.9-1.9,1.9-1.9,1.9,1.9Zm4,0l-1.9,1.9-1.9-1.9,1.9-1.9,1.9,1.9Z"/><path id="PATH_130" d="m630.3,862.36h-1.4c-1.2,0-2.4-.7-3.3-1.9-.7,1.9-1.4,2.8-2.1,2.8s-1.9-.5-3.3-1.2c-1.2-.7-2.1-1.4-2.6-1.9-1.2,1.4-2.4,2.1-3.5,2.1h-1.4v-2.8h1.4c1.2,0,2.1-.5,3.1-1.4.7-.7,1.4-1.7,2.4-2.6.9-.9,1.7-1.4,2.4-1.4.9,0,1.7.5,2.4,1.4.5.5.9,1.4,2.1,2.6.7.9,1.7,1.4,2.6,1.4h1.4v2.9h-.2Zm-6.4-1.8c0-.7-.2-1.4-.7-2.4-.5-.9-1.2-1.4-2.1-1.4-.7,0-1.7.7-2.6,1.9.2.2.9.7,2.1,1.4,1.2.7,2.1.9,2.8.9.3-.2.5-.2.5-.4Z"/><path id="PATH_131" d="m649,857.46c0,1.4-.2,2.6-.9,3.5s-1.9,1.7-3.1,1.7c-1.7,0-2.6-.7-3.3-1.9-.9,1.4-1.9,1.9-3.3,1.9-1.7,0-2.8-.7-3.5-1.9-.9,1.4-2.1,1.9-3.8,1.9h-1.7v-2.8h1.9c1.7,0,2.8-.9,3.1-2.8,0-.5.2-.7.5-.7s.2.2.5.7c.2,1.9,1.2,2.8,3.1,2.8.9,0,1.9-.2,2.4-.7.2-.5.5-.9.7-1.9,0-.5.2-.7.5-.7s.2.2.5.7c.2,1.9,1.2,2.8,2.8,2.8,1.9,0,2.6-.5,2.6-1.2s-.5-1.7-1.4-2.6l1.2-2.1c.2-.2.2-.5.5-.5.2,0,.2.2.5.5-.3.9.2,2.1.2,3.3Z"/></g><g id="G_132"><path id="PATH_133" d="m782.3,841.16h-1.7c-1.7,0-3.1-.7-3.5-2.1-.5-.9-.7-2.6-.7-4.5v-4.5c0-2.1-.2-5.2-.5-9.2l1.4-1.7c.2-.2.5-.2.5,0,.2,2.1.5,5.2.5,9.2v6.9c0,1.9.9,2.8,2.8,2.8h1.2v3.1h0Z"/><path id="PATH_134" d="m802.8,834.76c0,2.4-1.4,4-4.3,5.2-1.9.7-4.3,1.2-7.1,1.2-1.7,0-2.8,0-3.5-.2-1.2-.2-1.9-.9-2.4-1.9-.9,1.4-2.1,2.1-3.5,2.1h-.7v-2.8h.9c1.9,0,2.8-.9,3.1-2.6,0-.5.2-.7.5-.7s.5.2.5.7c.2,1.7.9,2.6,2.4,2.6,4.5-4.7,7.8-7.1,10.4-7.1,1.2,0,2.1.2,2.8.9.4.7.9,1.6.9,2.6Zm-1.6,1.4c0-.7-.5-1.2-1.2-1.9-.7-.5-1.4-.7-2.1-.7-2.1,0-4.7,1.4-7.6,4.5h2.1c1.7,0,3.3-.2,5-.5,2.3,0,3.8-.4,3.8-1.4Zm-3.8-11.6l-1.9,1.9-1.9-1.9,1.9-1.9,1.9,1.9Z"/><path id="PATH_135" d="m814.6,841.36c0,2.4-.7,4.5-2.1,6.6-1.2,1.7-2.4,2.6-3.1,2.6-1.9,0-3.3,0-4.7-.2-.5,0-.7-.2-.7-.2,0,0,.2-.2.7-.2,1.9-.5,3.8-1.4,5.7-2.8,1.9-1.7,3.1-3.3,3.1-5,0-.9-.7-2.4-2.4-4l1.2-2.1c0-.2.2-.2.2-.2l.2.2c.5.7,1.2,1.7,1.4,2.8.3.6.5,1.6.5,2.5Z"/><path id="PATH_136" d="m829.5,841.16h-.9c-.9,0-1.4-.2-1.9-.5v.7c0,2.1-.7,4.3-2.1,6.4-1.2,1.9-2.4,2.6-3.1,2.6-1.9,0-3.3,0-4.7-.2-.5,0-.7-.2-.7-.2,0,0,.2-.2.7-.2,1.9-.5,3.8-1.4,5.7-2.8,1.9-1.7,3.1-3.3,3.1-5,0-.9-.7-2.4-2.4-4l1.2-2.1c0-.2.2-.2.2-.2l.2.2c.7.9,1.2,1.7,1.7,1.9.7.5,1.7.9,2.6.9h.7v2.6h-.3v-.1Z"/><path id="PATH_137" d="m844.2,841.16h-1.2c-.9,0-1.9.2-2.6.5-1.2.5-1.9,1.2-1.9,2.4,0,1.4.9,2.6,2.8,3.8l-1.2,2.4c-2.1-.7-4-1.9-5.4-3.3-1.9-1.7-2.8-3.8-2.8-5.9h-3.3v-2.8h3.1c0-1.9.5-3.8,1.4-6.1.9-2.1,1.7-3.1,2.1-3.1.5,0,1.2.9,1.9,3.1.7,1.9.9,3.1.9,3.8,0,3.3-1.7,5-5,5,.2.9.7,1.9,1.4,2.8.7.9,1.7,1.7,2.6,2.1v-.9c0-1.7.5-3.1,1.2-4.3,1.2-1.7,2.6-2.6,4.7-2.6h.9v3.3h.4v-.2Zm-7.1-3.8c0-.5-.2-1.4-.7-2.6-.5-1.4-.9-1.9-1.4-1.9-.2,0-.7.5-1.2,1.7s-.7,2.6-.7,4c2.6-.3,4-.5,4-1.2Z"/><path id="PATH_138" d="m862.8,836.16c0,1.4-.2,2.6-.9,3.5-.7.9-1.9,1.7-3.1,1.7-1.7,0-2.6-.7-3.3-1.9-.9,1.4-1.9,1.9-3.3,1.9-1.7,0-2.8-.7-3.5-1.9-.9,1.4-2.1,1.9-3.8,1.9h-1.7v-2.8h1.9c1.7,0,2.8-.9,3.1-2.8,0-.5.2-.7.5-.7.2,0,.2.2.5.7.2,1.9,1.2,2.8,3.1,2.8.9,0,1.9-.2,2.4-.7.2-.5.5-.9.7-1.9,0-.5.2-.7.5-.7s.2.2.5.7c.2,1.9,1.2,2.8,2.8,2.8,1.9,0,2.6-.5,2.6-1.2s-.5-1.7-1.4-2.6l1.2-2.1c.2-.2.2-.5.5-.5s.2.2.5.5c-.2.9.2,2.1.2,3.3Zm-8-8.7l-1.7,1.7-1.7-1.7,1.7-1.7,1.7,1.7Zm2.1-3.6l-1.7,1.7-1.7-1.7,1.7-1.7,1.7,1.7Zm2.2,3.6l-1.7,1.7-1.7-1.7,1.7-1.7,1.7,1.7Z"/></g><g id="G_139"><path id="PATH_140" d="m805.7,664.16c.2.7.2,1.4.2,2.1,0,.9-.2,1.7-.5,2.6-.7,1.7-1.9,3.1-4.3,4-1.9.7-3.8,1.2-5.9,1.2s-3.8-.5-5.2-1.4c-1.4-1.2-2.1-2.6-2.1-4.7,0-1.2.2-2.1.7-3.5.5-.9.7-1.7,1.2-2.1.2-.2.5-.2.5-.2q.2,0,.2.2v.5c-.7,1.4-.9,2.8-.9,4s.5,2.1,1.2,3.1c.9,1.2,2.6,1.7,4.7,1.7,2.4,0,4.5-.5,6.1-1.2,1.4-.7,2.4-1.4,2.8-2.4.2-.2.2-.7.2-.9,0-.7-.2-1.4-.5-2.4-.2-.7-.9-1.9-2.1-3.8l.9-1.9c.2-.2.2-.5.2-.5,0,0,.2,0,.2.2,1.2,1.8,1.9,3.5,2.4,5.4Zm-7.1-10.2l-1.9,1.9-1.9-1.9,1.9-1.9,1.9,1.9Z"/><path id="PATH_141" d="m815.1,664.56h-1.7c-1.7,0-3.1-.7-3.5-2.1-.5-.9-.7-2.6-.7-4.5v-4.5c0-2.1-.2-5.2-.5-9.2l1.4-1.7c.2-.2.5-.2.5,0,.2,2.1.5,5.2.5,9.2v6.9c0,1.9.9,2.8,2.8,2.8h1.2v3.1h0Z"/><path id="PATH_142" d="m829.8,664.56h-1.2c-.9,0-1.9.2-2.6.5-1.2.5-1.9,1.2-1.9,2.4,0,1.4.9,2.6,2.8,3.8l-1.2,2.4c-2.1-.7-4-1.9-5.4-3.3-1.9-1.7-2.8-3.8-2.8-5.9h-3.3v-2.8h3.1c0-1.9.5-3.8,1.4-6.1.9-2.1,1.7-3.1,2.1-3.1s1.2.9,1.9,3.1c.7,1.9.9,3.1.9,3.8,0,3.3-1.7,5-5,5,.2.9.7,1.9,1.4,2.8.7.9,1.7,1.7,2.6,2.1v-.9c0-1.7.5-3.1,1.2-4.3,1.2-1.7,2.6-2.6,4.7-2.6h.9v3.3h.4v-.2Zm-7.1-3.7c0-.5-.2-1.4-.7-2.6-.5-1.4-.9-1.9-1.4-1.9-.2,0-.7.5-1.2,1.7s-.7,2.6-.7,4c2.6-.3,4-.5,4-1.2Z"/><path id="PATH_143" d="m842.5,664.56h-1.2c-.7,0-1.7-.2-2.8-.5-1.2-.2-2.1-.7-2.6-1.2-.5.5-1.2.7-2.1.9-1.2.5-2.4.5-3.5.5h-1.7v-2.8h1.2c1.9,0,3.1-.2,3.5-.5-.5-.2-.7-.7-.9-1.2-.2-.5-.5-.9-.5-1.4,0-.9.5-2.1,1.2-3.5.9-1.4,1.9-2.4,3.1-2.4s1.9.7,2.6,1.9c.5.9.7,2.1.7,3.3,0,.7-.2,1.7-.7,2.1-.2.5-.5.7-.9.9.5.2,1.7.5,3.3.5h.9v3.3h.4v.1Zm-4-6.1c0-.5-.2-1.2-.7-1.7-.5-.7-.9-.9-1.7-.9-.5,0-1.2.2-1.7.7s-.9,1.2-.9,1.7.2,1.2.9,1.7c.5.5,1.2.7,1.7.9.5,0,1.2-.2,1.4-.7.8-.8,1-1.2,1-1.7Zm-.7-11.6l-1.9,1.9-1.9-1.9,1.9-1.9,1.9,1.9Z"/><path id="PATH_144" d="m863.1,658.26c0,2.4-1.4,4-4.3,5.2-1.9.7-4.3,1.2-7.1,1.2-1.7,0-2.8,0-3.5-.2-1.2-.2-1.9-.9-2.4-1.9-.9,1.4-2.1,2.1-3.5,2.1h-.9v-2.8h.9c1.9,0,2.8-.9,3.1-2.6,0-.5.2-.7.5-.7s.5.2.5.7c.2,1.7.9,2.6,2.4,2.6,4.5-4.7,7.8-7.1,10.4-7.1,1.2,0,2.1.2,2.8.9.8.7,1.1,1.6,1.1,2.6Zm-1.7,1.4c0-.7-.5-1.2-1.2-1.9-.7-.5-1.4-.7-2.1-.7-2.1,0-4.7,1.4-7.6,4.5h2.1c1.7,0,3.3-.2,5-.5,2.6,0,3.8-.7,3.8-1.4Z"/><path id="PATH_145" d="m868.8,661.76c0,.9-.2,1.9-.7,2.6-.2.5-.5.7-.5.7,0,0-.2-.2-.2-.9,0-2.8-.5-9.5-1.4-20.1l1.9-1.9.2-.2v.5c.7,3,.7,9.4.7,19.3Z"/></g><g id="G_146"><path id="PATH_147" d="m1037,683.96c.2.7.2,1.4.2,2.1,0,.9-.2,1.7-.5,2.6-.7,1.7-1.9,3.1-4.3,4-1.9.7-3.8,1.2-5.9,1.2s-3.8-.5-5.2-1.4c-1.4-1.2-2.1-2.6-2.1-4.7,0-1.2.2-2.1.7-3.5.5-.9.7-1.7,1.2-2.1.2-.2.5-.2.5-.2q.2,0,.2.2v.5c-.7,1.4-.9,2.8-.9,4s.5,2.1,1.2,3.1c.9,1.2,2.6,1.7,4.7,1.7,2.4,0,4.5-.5,6.1-1.2,1.4-.7,2.4-1.4,2.8-2.4.2-.2.2-.7.2-.9,0-.7-.2-1.4-.5-2.4-.2-.7-.9-1.9-2.1-3.8l.9-1.9c.2-.2.2-.5.2-.5,0,0,.2,0,.2.2,1.2,1.9,1.9,3.5,2.4,5.4Zm-7.1-10.1l-1.9,1.9-1.9-1.9,1.9-1.9,1.9,1.9Z"/><path id="PATH_148" d="m1046.5,684.46h-1.7c-1.7,0-3.1-.7-3.5-2.1-.5-.9-.7-2.6-.7-4.5v-4.5c0-2.1-.2-5.2-.5-9.2l1.4-1.7c.2-.2.5-.2.5,0,.2,2.1.5,5.2.5,9.2v6.9c0,1.9.9,2.8,2.8,2.8h1.2v3.1h0Z"/><path id="PATH_149" d="m1064.9,677.56l-.9,1.9c-1.7,0-3.1,0-3.8.2-.9.5-2.4.9-4.3,1.9-1.9.9-3.3,1.7-4.3,1.9-1.4.5-3.1.7-4.5.7h-1.7v-2.8h1.9c2.1,0,4-.5,5.7-1.2l5.4-2.4c-.9-.2-2.4-.7-4.3-1.4-1.7-.7-2.6-.9-3.1-.9-.9,0-1.9.5-2.8,1.2q-.2.2-.5.2c-.3,0-.2,0-.2-.2v-.2c.7-2.4,2.1-3.3,4-3.3.7,0,1.7.2,2.6.7,1.9.9,3.3,1.4,4.3,1.9,1.7.5,3.5.9,5.7.9.5,0,.7,0,.7.2q.3.3.1.7Zm-7.8,11.6l-1.9,1.9-1.9-1.9,1.9-1.9,1.9,1.9Z"/><path id="PATH_150" d="m1077.2,684.66c0,2.4-.7,4.5-2.1,6.6-1.2,1.7-2.4,2.6-3.1,2.6-1.9,0-3.3,0-4.7-.2-.5,0-.7-.2-.7-.2,0,0,.2-.2.7-.2,1.9-.5,3.8-1.4,5.7-2.8,1.9-1.7,3.1-3.3,3.1-5,0-.9-.7-2.4-2.4-4l1.2-2.1c0-.2.2-.2.2-.2l.2.2c.5.7,1.2,1.7,1.4,2.8.3.6.5,1.6.5,2.5Z"/><path id="PATH_151" d="m1089.2,683.46c0,3.5-1.2,6.6-3.5,9-.7.7-1.2,1.2-1.4,1.2-1.4,0-2.8-.2-4.5-.5-.7,0-.9-.2-.9-.2,0,0,.2-.2.9-.5,1.9-.5,3.8-1.7,5.4-3.1.7-.7,1.4-1.2,1.9-2.1.7-.9,1.2-1.9,1.2-2.6v-.7h-3.1c-2.1,0-3.3-.9-3.3-2.6,0-1.2.2-2.4.9-3.8.7-1.4,1.7-2.4,2.6-2.4,1.4,0,2.6.9,3.3,3.1.3,1.7.5,3.4.5,5.2Zm-1.6-2.1c0-.7-.2-1.4-.7-2.1-.5-.7-1.2-1.2-1.9-1.2-.5,0-.9.2-1.2.5s-.5.7-.5,1.2c0,1.2.7,1.7,2.4,1.7.2.2.9.2,1.9-.1Z"/><path id="PATH_152" d="m1111.5,684.46h-1.4c-2.8,0-4.5-2.1-4.5-6.4v-2.1c-1.9,4.5-4,7.8-6.9,9.7-1.7.5-3.8.7-6.1.7h-.7s.7-.5,2.1-1.2c.9-.5,1.9-.9,2.8-1.4,1.7-.7,3.3-1.9,4.7-3.5-.7-2.4-1.7-4.5-3.1-6.4-.9-1.2-2.4-2.6-4.5-4.3l-.2.9c-.7-.5-1.2-.9-1.7-1.4-.7-.7-1.2-1.2-1.2-1.7s0-1.2.2-2.4c0-.2,0-.5.2-.5s.2,0,.5.2c3.1,2.1,5.4,4.3,6.9,6.1,1.9,2.4,3.1,5,3.8,8,.9-1.2,1.7-2.4,2.1-3.8.7-1.7.9-3.1.9-4.3,0-2.1-.2-4.5-.5-7.1l1.9-1.7c.2,1.2.2,6.6.5,16.3,0,2.1.9,3.3,2.8,3.3h1.2v3h.2Z"/><path id="PATH_153" d="m1120.7,677.56v.9c0,1.7-.2,2.6-.7,3.3-1.2,1.7-3.1,2.4-6.1,2.4h-3.3v-2.8h2.4c4,0,6.1-.7,6.6-1.9v-.5c0-.5,0-.7-.2-.9-.9.2-2.1.2-3.1.2-2.1,0-3.3-.9-3.3-2.8,0-1.2.2-2.6.9-3.8.7-1.4,1.7-2.1,2.8-2.1.9,0,1.9.7,2.6,1.9.9,1.9,1.4,3.8,1.4,6.1Zm-2.9-13l-1.9,1.9-1.9-1.9,1.9-1.9,1.9,1.9Zm1,11.1c0-.7-.2-1.4-.7-2.1-.5-.7-1.2-.9-1.9-.9-.5,0-.9.2-1.4.5-.5.2-.5.7-.5,1.2,0,.9.7,1.4,2.4,1.4.4.2,1.4.2,2.1-.1Z"/></g><g id="G_154"><path id="PATH_155" d="m1052.8,621.36h-.9c-.9,0-1.4-.2-1.9-.5v.7c0,2.1-.7,4.3-2.1,6.4-1.2,1.9-2.4,2.6-3.1,2.6-1.9,0-3.3,0-4.7-.2-.5,0-.7-.2-.7-.2,0,0,.2-.2.7-.2,1.9-.5,3.8-1.4,5.7-2.8,1.9-1.7,3.1-3.3,3.1-5,0-.9-.7-2.4-2.4-4l1.2-2.1c0-.2.2-.2.2-.2l.2.2c.7.9,1.2,1.7,1.7,1.9.7.5,1.7.9,2.6.9h.7v2.6h-.3v-.1Z"/><path id="PATH_156" d="m1067.5,621.36h-1.2c-.9,0-1.9.2-2.6.5-1.2.5-1.9,1.2-1.9,2.4,0,1.4.9,2.6,2.8,3.8l-1.2,2.4c-2.1-.7-4-1.9-5.4-3.3-1.9-1.7-2.8-3.8-2.8-5.9h-3.3v-2.8h3.1c0-1.9.5-3.8,1.4-6.1.9-2.1,1.7-3.1,2.1-3.1s1.2.9,1.9,3.1c.7,1.9.9,3.1.9,3.8,0,3.3-1.7,5-5,5,.2.9.7,1.9,1.4,2.8.7.9,1.7,1.7,2.6,2.1v-.9c0-1.7.5-3.1,1.2-4.3,1.2-1.7,2.6-2.6,4.7-2.6h.9v3.3h.4v-.2Zm-7.3-3.8c0-.5-.2-1.4-.7-2.6-.5-1.4-.9-1.9-1.4-1.9-.2,0-.7.5-1.2,1.7s-.7,2.6-.7,4c2.8-.2,4-.5,4-1.2Z"/><path id="PATH_157" d="m1086.2,616.36c0,1.4-.2,2.6-.9,3.5-.7.9-1.9,1.7-3.1,1.7-1.7,0-2.6-.7-3.3-1.9-.9,1.4-1.9,1.9-3.3,1.9-1.7,0-2.8-.7-3.5-1.9-.9,1.4-2.1,1.9-3.8,1.9h-1.7v-2.8h1.9c1.7,0,2.8-.9,3.1-2.8,0-.5.2-.7.5-.7s.2.2.5.7c.2,1.9,1.2,2.8,3.1,2.8.9,0,1.9-.2,2.4-.7.2-.5.5-.9.7-1.9,0-.5.2-.7.5-.7s.2.2.5.7c.2,1.9,1.2,2.8,2.8,2.8,1.9,0,2.6-.5,2.6-1.2s-.5-1.7-1.4-2.6l1.2-2.1c.2-.2.2-.5.5-.5s.2.2.5.5c-.3,1,.2,2.1.2,3.3Zm-8.1-8.7l-1.7,1.7-1.7-1.7,1.7-1.7,1.7,1.7Zm2.2-3.8l-1.7,1.7-1.7-1.7,1.7-1.7,1.7,1.7Zm2.1,3.8l-1.7,1.7-1.7-1.7,1.7-1.7,1.7,1.7Z"/><path id="PATH_158" d="m1119.5,621.36h-5.4c-.7,0-1.4,0-1.9.2-.9.2-1.2.7-1.2,1.2,0,.2,1.2.5,3.3.9,2.1.5,3.3.9,3.3,1.4,0,1.9-.5,3.3-1.7,4.3-1.9,1.7-5,2.4-9.5,2.4-5.4,0-8.3-2.1-8.3-6.1,0-.9.2-1.9.7-3.1.5-1.2.9-2.1,1.4-2.8.2-.2.5-.5.7-.5s.2,0,.2.2,0,.5-.2.7c-.7,1.4-1.2,2.8-1.2,4.3,0,1.7.7,2.8,2.4,3.5,1.2.7,2.6.9,4.5.9s3.5,0,5.2-.2c2.8-.5,4.3-.9,4.3-1.9,0-.5-.7-.7-1.9-.9-1.9-.2-3.1-.5-3.5-.7-1.2-.2-1.9-.9-1.9-1.7,0-.5.2-1.2.9-2.1.5-.7.9-1.2,1.7-1.7,1.2-.9,2.6-1.4,4.7-1.4h3.3v3.1h.1Z"/><path id="PATH_159" d="m1131.1,621.36h-1.9c-2.1,0-3.5-.7-4.5-2.1-.7,1.4-2.4,2.1-5,2.1h-1.4v-2.8h2.1c2.4,0,3.5-.9,3.8-2.6,0-.7.2-1.2.5-1.2s.5.5.5,1.2c.2,1.7,1.4,2.6,3.5,2.6h2.1v2.8h.3Zm-4.8-12.3l-1.9,1.9-1.9-1.9,1.9-1.9,1.9,1.9Z"/><path id="PATH_160" d="m1142.7,621.36h-1.9c-2.1,0-3.5-.7-4.5-2.1-.7,1.4-2.4,2.1-5,2.1h-1.4v-2.8h2.1c2.4,0,3.5-.9,3.8-2.6,0-.7.2-1.2.5-1.2.2,0,.5.5.5,1.2.2,1.7,1.4,2.6,3.5,2.6h2.1v2.8h.3Zm-7.8,5.2l-1.9,1.9-1.9-1.9,1.9-1.9,1.9,1.9Zm4.2,0l-1.9,1.9-1.9-1.9,1.9-1.9,1.9,1.9Z"/><path id="PATH_161" d="m1159.7,621.36h-1.4c-1.2,0-2.4-.7-3.3-1.9-.7,1.9-1.4,2.8-2.1,2.8s-1.9-.5-3.3-1.2c-1.2-.7-2.1-1.4-2.6-1.9-1.2,1.4-2.4,2.1-3.5,2.1h-1.4v-2.8h1.4c1.2,0,2.1-.5,3.1-1.4.7-.7,1.4-1.7,2.4-2.6.9-.9,1.7-1.4,2.4-1.4.9,0,1.7.5,2.4,1.4.5.5.9,1.4,2.1,2.6.7.9,1.7,1.4,2.6,1.4h1.4l-.2,2.9h0Zm-6.4-1.9c0-.7-.2-1.4-.7-2.4-.5-.9-1.2-1.4-2.1-1.4-.7,0-1.7.7-2.6,1.9.2.2.9.7,2.1,1.4s2.1.9,2.8.9c.2-.2.5-.2.5-.4Z"/><path id="PATH_162" d="m1178.1,614.46l-.9,1.9c-1.7,0-3.1,0-3.8.2-.9.5-2.4.9-4.3,1.9-1.9.9-3.3,1.7-4.3,1.9-1.4.5-3.1.7-4.5.7h-1.7v-2.8h1.9c2.1,0,4-.5,5.7-1.2l5.4-2.4c-.9-.2-2.4-.7-4.3-1.4-1.7-.7-2.6-.9-3.1-.9-.9,0-1.9.5-2.8,1.2q-.2.2-.5.2t-.2-.2v-.2c.7-2.4,2.1-3.3,4-3.3.7,0,1.7.2,2.6.7,1.9.9,3.3,1.4,4.3,1.9,1.7.5,3.5.9,5.7.9.5,0,.7,0,.7.2.3.3.3.5.1.7Zm-6.6-10.8l-1.9,1.9-1.9-1.9,1.9-1.9,1.9,1.9Z"/></g><g id="G_163"><path id="PATH_164" d="m1100.3,268.56h-1.2c-1.2,0-1.9,0-2.4-.2,0,.7.2,1.2.2,1.9,0,1.2-.2,1.9-.5,2.6-.7,1.7-1.9,3.1-4.3,4-1.9.7-3.8,1.2-5.9,1.2s-3.8-.5-5.2-1.4c-1.4-1.2-2.1-2.6-2.1-4.7,0-1.2.2-2.1.7-3.5.5-.9.7-1.7,1.2-2.1.2-.2.5-.2.5-.2q.2,0,.2.2v.5c-.7,1.4-.9,2.8-.9,4s.5,2.1,1.2,3.1c.9,1.2,2.6,1.7,4.7,1.7,2.4,0,4.5-.5,6.1-1.2,1.4-.7,2.4-1.4,2.8-2.4.2-.2.2-.7,0-1.7,0-.7-.2-1.4-.2-1.7-.2-.7-1.2-1.9-2.4-3.5l.9-1.9c.2-.2.2-.5.2-.5,0,0,.2,0,.2.2,1.2,1.9,2.4,2.8,3.8,2.8h1.9v2.8h.5Zm-10.3-10.7l-1.9,1.9-1.9-1.9,1.9-1.9,1.9,1.9Z"/><path id="PATH_165" d="m1112.2,268.56h-1.9c-2.1,0-3.5-.7-4.5-2.1-.7,1.4-2.4,2.1-5,2.1h-1.4v-2.8h2.1c2.4,0,3.5-.9,3.8-2.6,0-.7.2-1.2.5-1.2s.5.5.5,1.2c.2,1.7,1.4,2.6,3.5,2.6h2.1v2.8h.3Zm-7.8,5.2l-1.9,1.9-1.9-1.9,1.9-1.9,1.9,1.9Zm4,0l-1.9,1.9-1.9-1.9,1.9-1.9,1.9,1.9Z"/><path id="PATH_166" d="m1117.8,263.76c0,3.1-1.7,4.7-4.7,4.7h-1.9v-2.8h1.7c2.4,0,3.5-.5,3.5-1.2s-.5-1.7-1.7-2.8l.9-2.4c0-.2.2-.2.2-.2,0,0,.2.2.5.5,1.1,1.2,1.5,2.6,1.5,4.2Zm-1.9,10l-1.9,1.9-1.9-1.9,1.9-1.9,1.9,1.9Zm4.1,0l-1.9,1.9-1.9-1.9,1.9-1.9,1.9,1.9Z"/><path id="PATH_167" d="m1129.4,268.56h-1.7c-1.7,0-3.1-.7-3.5-2.1-.5-.9-.7-2.6-.7-4.5v-4.5c0-2.1-.2-5.2-.5-9.2l1.4-1.7c.2-.2.5-.2.5,0,.2,2.1.5,5.2.5,9.2v6.9c0,1.9.9,2.8,2.8,2.8h1.2v3.1h0Z"/><path id="PATH_168" d="m1135.1,263.76c0,3.1-1.7,4.7-4.7,4.7h-1.9v-2.8h1.7c2.4,0,3.5-.5,3.5-1.2s-.5-1.7-1.7-2.8l.9-2.4c0-.2.2-.2.2-.2,0,0,.2.2.5.5,1,1.2,1.5,2.6,1.5,4.2Zm-.2-10.8l-1.9,1.9-1.9-1.9,1.9-1.9,1.9,1.9Z"/></g><g id="G_169"><path id="PATH_170" d="m1340.2,163.56h-1.7c-1.2,0-2.4-.7-3.8-1.9-.7-.7-1.7-1.9-2.8-3.5,0,1.7-.2,2.8-.9,3.5-1.2,1.4-3.5,2.1-7.1,2.1h-4.7c-5.7,0-8.7-1.7-8.7-5,0-1.2.5-2.4,1.2-3.5.2-.2.5-.5.5-.5q.2,0,.2.2v.5c-.2.9-.5,1.4-.5,2.1,0,.9.5,1.7,1.2,2.1,1.2.9,3.1,1.4,5.7,1.4h4.7c2.6,0,4.5-.2,5.4-.5,1.2-.5,1.7-1.2,1.7-2.1s-.5-2.1-1.7-3.5c-.7-.7-1.7-1.9-3.1-3.1-1.2-.9-1.7-1.7-1.7-1.7,0-1.7.2-2.6.7-3.3,0-.2,1.7-.7,5-1.9s6.1-2.1,8.3-2.8c0,.2-.2,1.2-.7,2.6-2.6.7-6.4,2.1-11.6,4,2.4,2.1,5,5.2,8,9.2,1.2,1.4,2.1,2.4,2.8,2.8.5.2,1.4.5,2.4.5h.9v2.1h.3v.2Z"/><path id="PATH_171" d="m1345.9,158.86c0,3.1-1.7,4.7-4.7,4.7h-1.9v-2.8h1.7c2.4,0,3.5-.5,3.5-1.2s-.5-1.7-1.7-2.8l.9-2.4c0-.2.2-.2.2-.2,0,0,.2.2.5.5,1,1.4,1.5,2.8,1.5,4.2Zm-.2-10.6l-1.9,1.9-1.9-1.9,1.9-1.9,1.9,1.9Z"/><path id="PATH_172" d="m1355.3,163.56h-1.7c-1.7,0-3.1-.7-3.5-2.1-.5-.9-.7-2.6-.7-4.5v-4.5c0-2.1-.2-5.2-.5-9.2l1.4-1.7c.2-.2.5-.2.5,0,.2,2.1.5,5.2.5,9.2v6.9c0,1.9.9,2.8,2.8,2.8h1.2v3.1h0Z"/><path id="PATH_173" d="m1361,158.86c0,3.1-1.7,4.7-4.7,4.7h-1.9v-2.8h1.7c2.4,0,3.5-.5,3.5-1.2s-.5-1.7-1.7-2.8l.9-2.4c0-.2.2-.2.2-.2,0,0,.2.2.5.5,1,1.4,1.5,2.8,1.5,4.2Zm-.9,9.9l-1.9,1.9-1.9-1.9,1.9-1.9,1.9,1.9Z"/><path id="PATH_174" d="m1370.2,163.56h-1.7c-1.7,0-3.1-.7-3.5-2.1-.5-.9-.7-2.6-.7-4.5v-4.5c0-2.1-.2-5.2-.5-9.2l1.4-1.7c.2-.2.5-.2.5,0,.2,2.1.5,5.2.5,9.2v6.9c0,1.9.9,2.8,2.8,2.8h1.2v3.1h0Z"/><path id="PATH_175" d="m1381.8,163.56h-1.9c-2.1,0-3.5-.7-4.5-2.1-.7,1.4-2.4,2.1-5,2.1h-1.4v-2.8h2.1c2.4,0,3.5-.9,3.8-2.6,0-.7.2-1.2.5-1.2s.5.5.5,1.2c.2,1.7,1.4,2.6,3.5,2.6h2.1v2.8h.3Zm-7.8,5.2l-1.9,1.9-1.9-1.9,1.9-1.9,1.9,1.9Zm4.3,0l-1.9,1.9-1.9-1.9,1.9-1.9,1.9,1.9Z"/><path id="PATH_176" d="m1387.5,158.86c0,3.1-1.7,4.7-4.7,4.7h-1.9v-2.8h1.7c2.4,0,3.5-.5,3.5-1.2s-.5-1.7-1.7-2.8l.9-2.4c0-.2.2-.2.2-.2,0,0,.2.2.5.5,1,1.4,1.5,2.8,1.5,4.2Zm-.7,9.9l-1.9,1.9-1.9-1.9,1.9-1.9,1.9,1.9Z"/><path id="PATH_177" d="m1409,162.66c0,3.5-1.2,6.6-3.5,9-.7.7-1.2,1.2-1.4,1.2-1.4,0-2.8-.2-4.5-.5-.7,0-.9-.2-.9-.2,0,0,.2-.2.9-.5,1.9-.5,3.8-1.7,5.4-3.1.7-.7,1.4-1.2,1.9-2.1.7-.9,1.2-1.9,1.2-2.6v-.7h-3.1c-2.1,0-3.3-.9-3.3-2.6,0-1.2.2-2.4.9-3.8.7-1.4,1.7-2.4,2.6-2.4,1.4,0,2.6.9,3.3,3.1.3,1.9.5,3.5.5,5.2Zm-1.7-1.9c0-.7-.2-1.4-.7-2.1-.5-.7-1.2-1.2-1.9-1.2-.5,0-.9.2-1.2.5-.2.2-.5.7-.5,1.2,0,1.2.7,1.7,2.4,1.7.3.1,1,.1,1.9-.1Z"/><path id="PATH_178" d="m1430,163.86c0,2.4-.7,4.5-2.1,6.6-1.2,1.7-2.4,2.6-3.1,2.6-1.9,0-3.3,0-4.7-.2-.5,0-.7-.2-.7-.2,0,0,.2-.2.7-.2,1.9-.5,3.8-1.4,5.7-2.8,1.9-1.7,3.1-3.3,3.1-5,0-.9-.7-2.4-2.4-4l1.2-2.1c0-.2.2-.2.2-.2l.2.2c.5.7,1.2,1.7,1.4,2.8.3.6.5,1.8.5,2.5Z"/><path id="PATH_179" d="m1444.9,163.56h-2.6c-.2,3.3-1.4,5.9-3.8,8.3-.7.7-1.2,1.2-1.4,1.2-1.2,0-2.8-.2-4.5-.5-.5,0-.9-.2-.9-.2,0,0,.2-.2.9-.5,1.9-.5,3.8-1.7,5.4-2.8.7-.7,1.4-1.2,1.9-2.1.7-.9,1.2-1.9,1.2-2.6v-.7h-3.1c-2.4,0-3.3-.9-3.3-2.8,0-1.2.2-2.4.9-3.8.7-1.4,1.7-2.4,2.6-2.4,1.2,0,2.1.7,2.8,2.4.5,1.2.9,2.4.9,3.8h2.6v2.8h.4v-.1Zm-4.2-2.6c0-.7-.2-1.4-.7-2.1-.5-.9-1.2-1.2-1.9-1.2-.5,0-.9.2-1.2.5-.2.2-.5.7-.5,1.4,0,1.2.9,1.7,2.8,1.7,0-.3.7-.3,1.5-.3Z"/><path id="PATH_180" d="m1463.3,156.76l-.9,1.9c-1.7,0-3.1,0-3.8.2-.9.5-2.4.9-4.3,1.9-1.9.9-3.3,1.7-4.3,1.9-1.4.5-3.1.7-4.5.7h-1.7v-2.8h1.9c2.1,0,4-.5,5.7-1.2l5.4-2.4c-.9-.2-2.4-.7-4.3-1.4-1.7-.7-2.6-.9-3.1-.9-.9,0-1.9.5-2.8,1.2q-.2.2-.5.2t-.2-.2v-.2c.7-2.4,2.1-3.3,4-3.3.7,0,1.7.2,2.6.7,1.9.9,3.3,1.4,4.3,1.9,1.7.5,3.5.9,5.7.9.5,0,.7,0,.7.2.4.2.1.4.1.7Zm-6.8-10.7l-1.9,1.9-1.9-1.9,1.9-1.9,1.9,1.9Z"/></g><g id="G_181"><path id="PATH_182" d="m638.8,95.76h-1.2c-1.2,0-2.1-.5-2.6-1.2,0,1.4-.2,3.1-.5,5.2-.7,1.7-1.9,3.1-3.8,3.8-1.7.7-3.3,1.2-5.4,1.2s-3.5-.5-4.7-1.2c-1.4-.9-2.1-2.4-2.1-4.5,0-1.9.5-3.8,1.7-5.2q.2-.2.5-.2t.2.2v.2c-.5,1.2-.7,2.4-.7,3.3,0,1.4.5,2.6,1.7,3.5.9.7,2.1,1.2,3.8,1.2,1.4,0,3.1-.2,4.7-.9,2.4-.7,3.3-1.7,3.3-2.8l-.2-11.3c-.2-5.4-.2-9.2-.5-11.8l1.9-1.7c0,.7.2,3.3.5,8l.2,9.2c0,1.4.9,2.4,2.8,2.4h.7v2.6h-.3Z"/><path id="PATH_183" d="m653,76.66c0,.5-.2,1.2-.7,2.6-2.8.7-6.4,1.9-10.4,3.1,2.8,2.8,4.5,5.2,4.7,6.9.2,1.2,0,2.4-.5,3.5-.5,1.2-1.4,1.9-2.6,2.4-.9.5-2.6.5-4.7.5h-.9v-2.8h.7c4.5,0,6.9-.7,6.9-2.4,0-1.2-1.2-3.1-3.8-5.4l-.2.7c-.2-.2-.7-.7-1.2-1.4-.7-.7-.9-1.2-.9-1.4,0-.7.2-1.4.9-2.1.2-.2,1.7-.7,4.7-1.7,3-1.1,5.9-2.1,8-2.5Zm-.5-3.6l-.5,1.7-11.6,3.8.5-1.7,11.6-3.8Z"/><path id="PATH_184" d="m670.9,95.76h-.9c-.9,0-1.7-.2-2.4-.9-.5-.5-.9-.9-1.4-1.9-.5.9-1.2,1.7-1.9,2.1-.9.5-2.1.7-4,.7-3.3,0-5-1.2-5-3.5,0-.7.2-1.7.7-2.4.2-.2.2-.5.5-.5s.2.2.2.5v1.4c0,1.4,1.2,2.1,3.5,2.1,3.3,0,5-.7,5-1.9,0-.7-.9-3.3-2.8-7.8l.9-1.9c.2-.2.2-.5.2-.5,0,0,.2.2.2.5.7,1.9,1.9,4.7,3.3,8.5.7,1.9,1.7,2.8,3.1,2.8h.7l.1,2.7h0Z"/><path id="PATH_185" d="m682.5,95.76h-1.9c-2.1,0-3.5-.7-4.5-2.1-.7,1.4-2.4,2.1-5,2.1h-1.4v-2.8h2.1c2.4,0,3.5-.9,3.8-2.6,0-.7.2-1.2.5-1.2s.5.5.5,1.2c.2,1.7,1.4,2.6,3.5,2.6h2.1v2.8h.3Zm-7.8,5.2l-1.9,1.9-1.9-1.9,1.9-1.9,1.9,1.9Zm4,0l-1.9,1.9-1.9-1.9,1.9-1.9,1.9,1.9Z"/><path id="PATH_186" d="m688.2,91.06c0,3.1-1.7,4.7-4.7,4.7h-1.9v-2.8h1.7c2.4,0,3.5-.5,3.5-1.2s-.5-1.7-1.7-2.8l.9-2.4c0-.2.2-.2.2-.2,0,0,.2.2.5.5,1,1.1,1.5,2.5,1.5,4.2Zm-.7,9.9l-1.9,1.9-1.9-1.9,1.9-1.9,1.9,1.9Z"/><path id="PATH_187" d="m709.7,94.86c0,3.5-1.2,6.6-3.5,9-.7.7-1.2,1.2-1.4,1.2-1.4,0-2.8-.2-4.5-.5-.7,0-.9-.2-.9-.2,0,0,.2-.2.9-.5,1.9-.5,3.8-1.7,5.4-3.1.7-.7,1.4-1.2,1.9-2.1.7-.9,1.2-1.9,1.2-2.6v-.7h-3.1c-2.1,0-3.3-.9-3.3-2.6,0-1.2.2-2.4.9-3.8s1.7-2.4,2.6-2.4c1.4,0,2.6.9,3.3,3.1.3,1.6.5,3.3.5,5.2Zm-1.9-1.9c0-.7-.2-1.4-.7-2.1s-1.2-1.2-1.9-1.2c-.5,0-.9.2-1.2.5-.5.5-.5.7-.5,1.2,0,1.2.7,1.7,2.4,1.7.3-.1,1.2-.1,1.9-.1Z"/><path id="PATH_188" d="m739.2,95.26c.2.7.2,1.4.2,2.1,0,.9-.2,1.7-.5,2.6-.7,1.7-1.9,3.1-4.3,4-1.9.7-3.8,1.2-5.9,1.2s-3.8-.5-5.2-1.4c-1.4-1.2-2.1-2.6-2.1-4.7,0-1.2.2-2.1.7-3.5.5-.9.7-1.7,1.2-2.1.2-.2.5-.2.5-.2q.2,0,.2.2v.5c-.7,1.4-.9,2.8-.9,4s.5,2.1,1.2,3.1c.9,1.2,2.6,1.7,4.7,1.7,2.4,0,4.5-.5,6.1-1.2,1.4-.7,2.4-1.4,2.8-2.4.2-.2.2-.7.2-.9,0-.7-.2-1.4-.5-2.4-.2-.7-.9-1.9-2.1-3.8l.9-1.9c.2-.2.2-.5.2-.5,0,0,.2,0,.2.2,1.5,1.9,2.2,3.5,2.4,5.4Zm-6.8-10.1l-1.9,1.9-1.9-1.9,1.9-1.9,1.9,1.9Z"/><path id="PATH_189" d="m744.9,92.66c0,.9-.2,1.9-.7,2.6-.2.5-.5.7-.5.7,0,0-.2-.2-.2-.9,0-2.8-.5-9.5-1.4-20.1l1.9-1.9.2-.2v.5c.7,3.3.7,9.6.7,19.3Z"/><path id="PATH_190" d="m757,95.96c0,2.4-.7,4.5-2.1,6.6-1.2,1.7-2.4,2.6-3.1,2.6-1.9,0-3.3,0-4.7-.2-.5,0-.7-.2-.7-.2,0,0,.2-.2.7-.2,1.9-.5,3.8-1.4,5.7-2.8,1.9-1.7,3.1-3.3,3.1-5,0-.9-.7-2.4-2.4-4l1.2-2.1c0-.2.2-.2.2-.2l.2.2c.5.7,1.2,1.7,1.4,2.8.2.7.5,1.6.5,2.5Z"/><path id="PATH_191" d="m766.4,70.46c-.9.9-2.4,1.2-3.8,1.2h-1.8c-.2,0-.5.2-.7.5-.2.2-.5.5-.5.5-.2,0-.2-.2-.2-.5,0-.2.2-.7.5-1.2.2-.7.5-.9.7-.9s.7,0,1.4.2c.7,0,1.2.2,1.4.2,1.4,0,2.4,0,3.1-.2.5,0,.7-.2.7-.2h.2c-.5-.1-.5.2-1,.4Zm-1.4,22.2c0,.9-.2,1.9-.7,2.6-.2.5-.5.7-.5.7,0,0-.2-.2-.2-.9,0-2.8-.5-9.5-1.4-20.1l1.9-1.9.2-.2v.5c.7,3.3.7,9.6.7,19.3Z"/></g><g id="G_192"><path id="PATH_193" d="m541.9,182.26c.2.7.2,1.4.2,2.1,0,.9-.2,1.7-.5,2.6-.7,1.7-1.9,3.1-4.3,4-1.9.7-3.8,1.2-5.9,1.2s-3.8-.5-5.2-1.4c-1.4-1.2-2.1-2.6-2.1-4.7,0-1.2.2-2.1.7-3.5.5-.9.7-1.7,1.2-2.1.2-.2.5-.2.5-.2q.2,0,.2.2v.5c-.7,1.4-.9,2.8-.9,4s.5,2.1,1.2,3.1c.9,1.2,2.6,1.7,4.7,1.7,2.4,0,4.5-.5,6.1-1.2,1.4-.7,2.4-1.4,2.8-2.4.2-.2.2-.7.2-.9,0-.7-.2-1.4-.5-2.4-.2-.7-.9-1.9-2.1-3.8l.9-1.9c.2-.2.2-.5.2-.5,0,0,.2,0,.2.2,1.5,1.6,2.2,3.5,2.4,5.4Zm-6.8-10.2l-1.9,1.9-1.9-1.9,1.9-2.1,1.9,2.1Z"/><path id="PATH_194" d="m551.6,182.46h-1.7c-1.7,0-3.1-.7-3.5-2.1-.5-.9-.7-2.6-.7-4.5v-4.5c0-2.1-.2-5.2-.5-9.2l1.4-1.7c.2-.2.5-.2.5,0,.2,2.1.5,5.2.5,9.2v6.9c0,1.9.9,2.8,2.8,2.8h1.2v3.1h0Z"/><path id="PATH_195" d="m570.3,177.56c0,1.4-.2,2.6-.9,3.5s-1.9,1.7-3.1,1.7c-1.7,0-2.6-.7-3.3-1.9-.9,1.4-1.9,1.9-3.3,1.9-1.7,0-2.8-.7-3.5-1.9-.9,1.4-2.1,1.9-3.8,1.9h-1.7v-2.8h1.9c1.7,0,2.8-.9,3.1-2.8,0-.5.2-.7.5-.7s.2.2.5.7c.2,1.9,1.2,2.8,3.1,2.8.9,0,1.9-.2,2.4-.7.2-.5.5-.9.7-1.9,0-.5.2-.7.5-.7s.2.2.5.7c.2,1.9,1.2,2.8,2.8,2.8,1.9,0,2.6-.5,2.6-1.2s-.5-1.7-1.4-2.6l1.2-2.1c.2-.2.2-.5.5-.5.2,0,.2.2.5.5-.3.9.2,2.3.2,3.3Zm-8.1-8.8l-1.7,1.7-1.7-1.7,1.7-1.7,1.7,1.7Zm2.2-3.5l-1.7,1.7-1.7-1.7,1.7-1.7,1.7,1.7Zm2.1,3.5l-1.7,1.7-1.7-1.7,1.7-1.7,1.7,1.7Z"/><path id="PATH_196" d="m579.7,182.46h-1.7c-1.7,0-3.1-.7-3.5-2.1-.5-.9-.7-2.6-.7-4.5v-4.5c0-2.1-.2-5.2-.5-9.2l1.4-1.7c.2-.2.5-.2.5,0,.2,2.1.5,5.2.5,9.2v6.9c0,1.9.9,2.8,2.8,2.8h1.2v3.1h0Z"/><path id="PATH_197" d="m594.4,160.76c0,.5-.5,1.4-.9,2.6l-5.9,1.9c-2.6.9-4.5,1.7-5.4,2.1,1.9,1.9,3.1,3.3,3.8,4,1.2,1.7,1.9,3.1,2.1,4.7,0,1.2,0,2.4-.5,3.3-.7,2.1-3.3,3.1-7.3,3.1h-1.2v-2.8h1.4c1.9,0,3.3,0,4-.2,1.7-.5,2.6-1.2,2.6-2.4,0-1.7-1.2-3.5-3.8-5.9l-.2.5c-.2-.2-.7-.7-1.2-1.4-.7-.7-.9-1.4-.9-1.4,0-.5,0-.9.2-1.9.2-.9.5-1.4.7-1.7.2-.2,1.9-.9,5-1.9,2.5-1.2,5.4-2.1,7.5-2.6Z"/></g><g id="G_198"><path id="PATH_199" d="m663.4,271.56h-.9c-.9,0-1.4-.2-1.9-.5v.7c0,2.1-.7,4.3-2.1,6.4-1.2,1.9-2.4,2.6-3.1,2.6-1.9,0-3.3,0-4.7-.2-.5,0-.7-.2-.7-.2,0,0,.2-.2.7-.2,1.9-.5,3.8-1.4,5.7-2.8,1.9-1.7,3.1-3.3,3.1-5,0-.9-.7-2.4-2.4-4l1.2-2.1c0-.2.2-.2.2-.2l.2.2c.7.9,1.2,1.7,1.7,1.9.7.5,1.7.9,2.6.9h.7v2.6h-.3v-.1Zm-4.5-12.5l-1.9,1.9-1.9-1.9,1.9-1.9,1.9,1.9Z"/><path id="PATH_200" d="m675,271.56h-1.9c-2.1,0-3.5-.7-4.5-2.1-.7,1.4-2.4,2.1-5,2.1h-1.4v-2.8h2.1c2.4,0,3.5-.9,3.8-2.6,0-.7.2-1.2.5-1.2s.5.5.5,1.2c.2,1.7,1.4,2.6,3.5,2.6h2.1v2.8h.3Zm-4.8-12.3l-1.9,1.9-1.9-1.9,1.9-1.9,1.9,1.9Z"/><path id="PATH_201" d="m695.1,271.56h-1.2c-2.1,0-4.3-.2-5.9-.7-2.1.5-5.2.7-9.2.7h-4.7v-2.8h2.4c.7,0,1.2-.2,1.4-.5s.2-.7.2-1.4v-5.2c-.2-3.8-.5-7.3-.9-10.4l1.7-1.7.2-.2s.2.2.2.5c.2.9.5,1.9.9,2.8,0,.2.2.5.2.5h-1.2c.2,4.3.2,6.9.2,7.6v2.6c0,.9-.2,2.4-.7,4,.2,0,.7-.5,1.9-1.4,1.2-1.2,2.4-2.1,3.3-2.8,1.7-.9,3.1-1.4,4.5-1.4,1.2,0,2.1.2,2.8.9.9.7,1.2,1.4,1.2,2.6,0,1.7-.5,2.8-1.7,3.8h3.7v2.6h.7v-.1Zm-3.8-4.9c0-.7-.5-1.4-1.4-1.9-.7-.5-1.7-.7-2.4-.7-1.7,0-4.5,1.4-8,4.5.9,0,2.1.2,3.1.2,1.4,0,3.1-.2,4.7-.5,2.8-.2,4-.9,4-1.6Z"/><path id="PATH_202" d="m700.7,266.86c0,3.1-1.7,4.7-4.7,4.7h-1.9v-2.8h1.7c2.4,0,3.5-.5,3.5-1.2s-.5-1.7-1.7-2.8l.9-2.4c0-.2.2-.2.2-.2l.5.5c.8,1.1,1.5,2.8,1.5,4.2Zm-.2-10.6l-1.9,1.9-1.9-1.9,1.9-1.9,1.9,1.9Z"/></g><g id="G_203"><path id="PATH_204" d="m799.3,268.06c.2.7.2,1.4.2,2.1,0,.9-.2,1.7-.5,2.6-.7,1.7-1.9,3.1-4.3,4-1.9.7-3.8,1.2-5.9,1.2s-3.8-.5-5.2-1.4c-1.4-1.2-2.1-2.6-2.1-4.7,0-1.2.2-2.1.7-3.5.5-.9.7-1.7,1.2-2.1.2-.2.5-.2.5-.2q.2,0,.2.2v.5c-.7,1.4-.9,2.8-.9,4s.5,2.1,1.2,3.1c.9,1.2,2.6,1.7,4.7,1.7,2.4,0,4.5-.5,6.1-1.2,1.4-.7,2.4-1.4,2.8-2.4.2-.2.2-.7.2-.9,0-.7-.2-1.4-.5-2.4-.2-.7-.9-1.9-2.1-3.8l.9-1.9c.2-.2.2-.5.2-.5,0,0,.2,0,.2.2,1.4,1.8,1.9,3.5,2.4,5.4Zm-7.1-10.2l-1.9,1.9-1.9-1.9,1.9-1.9,1.9,1.9Z"/><path id="PATH_205" d="m808.7,268.56h-1.4c-1.7,0-3.1-.7-3.5-2.1-.5-.9-.7-2.6-.7-4.5v-4.5c0-2.1-.2-5.2-.5-9.2l1.4-1.7c.2-.2.5-.2.5,0,.2,2.1.5,5.2.5,9.2v6.9c0,1.9.9,2.8,2.8,2.8h1.2v3.1h-.3Z"/><path id="PATH_206" d="m820.5,268.56h-1.9c-2.1,0-3.5-.7-4.5-2.1-.7,1.4-2.4,2.1-5,2.1h-1.4v-2.8h2.1c2.4,0,3.5-.9,3.8-2.6,0-.7.2-1.2.5-1.2s.5.5.5,1.2c.2,1.7,1.4,2.6,3.5,2.6h2.1v2.8h.3Zm-8-13.7l-1.9,1.9-1.9-1.9,1.9-1.9,1.9,1.9Zm4,0l-1.9,1.9-1.9-1.9,1.9-1.9,1.9,1.9Z"/><path id="PATH_207" d="m839,263.36c0,1.4-.2,2.6-.9,3.5-.7.9-1.9,1.7-3.1,1.7-1.7,0-2.6-.7-3.3-1.9-.9,1.4-1.9,1.9-3.3,1.9-1.7,0-2.8-.7-3.5-1.9-.9,1.4-2.1,1.9-3.8,1.9h-1.7v-2.8h1.9c1.7,0,2.8-.9,3.1-2.8,0-.5.2-.7.5-.7s.2.2.5.7c.2,1.9,1.2,2.8,3.1,2.8.9,0,1.9-.2,2.4-.7.2-.5.5-.9.7-1.9,0-.5.2-.7.5-.7s.2.2.5.7c.2,1.9,1.2,2.8,2.8,2.8,1.9,0,2.6-.5,2.6-1.2s-.5-1.7-1.4-2.6l1.2-2.1c.2-.2.2-.5.5-.5s.2.2.5.5c-.1,1.1.2,2.3.2,3.3Z"/><path id="PATH_208" d="m853.6,263.56c0,3.3-2.1,5-6.6,5-1.7,0-2.8-.2-3.5-.7-.9-.5-1.4-1.7-1.4-3.1,0-.7.2-1.4.5-2.1.2-.2.2-.5.5-.5s.2.2.2.7v.7c0,.9.5,1.7,1.4,1.9.5.2,1.4.2,2.6.2,3.5,0,5.2-.5,5.2-1.7,0-1.7-2.1-4-6.1-6.9l.7-2.4c0-.2.2-.2.2-.2,0,0,.2,0,.5.2,3.7,3.2,5.8,6.1,5.8,8.9Z"/><path id="PATH_209" d="m865.4,268.76c0,2.4-.7,4.5-2.1,6.6-1.2,1.7-2.4,2.6-3.1,2.6-1.9,0-3.3,0-4.7-.2-.5,0-.7-.2-.7-.2,0,0,.2-.2.7-.2,1.9-.5,3.8-1.4,5.7-2.8,1.9-1.7,3.1-3.3,3.1-5,0-.9-.7-2.4-2.4-4l1.2-2.1c0-.2.2-.2.2-.2l.2.2c.5.7,1.2,1.7,1.4,2.8.3.6.5,1.6.5,2.5Z"/><path id="PATH_210" d="m871.1,265.46c0,.9-.2,1.9-.7,2.6-.2.5-.5.7-.5.7,0,0-.2-.2-.2-.9,0-2.8-.5-9.5-1.4-20.1l1.9-1.9.2-.2v.5c.7,3.2.7,9.6.7,19.3Z"/></g><g id="G_211"><path id="PATH_212" d="m444.1,252.66l-1.2-1.2c-1.4-1.4-1.4-3.3,0-5.4-1.7,0-2.4,0-2.6-.2l-1.4-1.4c-.5-.5-.9-1.2-1.2-1.9-.5-.9-.5-1.7-.2-1.9,1.2-1.2,2.8-1.9,4.5-1.7,1.2,0,2.6.7,4.7,1.4l1.4-1.9h2.4c0,.2-1.7,2.4-4.5,6.6-.9,1.2-1.4,2.1-1.7,2.6-.2.7,0,1.4.5,2.1l1.2,1.2-1.9,1.7Zm-.7-7.5l2.1-3.1c-.7-.5-1.7-.9-2.8-1.2-1.7-.5-2.6-.7-2.8-.5s0,.9.7,1.9c.5.7.9,1.2,1.4,1.7.4.5.9.9,1.4,1.2Z"/><path id="PATH_213" d="m455.7,264.96l-1.2-1.2c-.7-.7-1.2-2.1-.9-3.8-1.9.9-3.1.9-3.5.5s-.9-1.7-1.4-3.1c-.2-1.4-.5-2.4-.5-3.1-1.7.2-3.1-.2-4-1.2l-.9-.9,1.9-1.9.9,1.2c.7.7,1.9,1.2,3.1,1.4h3.3c1.2,0,2.1.2,2.6.7.7.7.9,1.7.7,2.8,0,.7-.2,1.7-.5,3.3-.2,1.2.2,2.1.7,2.8l1.2,1.2-1.5,1.3Zm-2.9-5.9c.5-.5.9-1.2,1.2-2.1.2-.9.2-1.9-.5-2.4-.5-.5-1.7-.7-3.1-.7,0,.5,0,1.2.5,2.4.5,1.2.7,2.1,1.2,2.6.2.4.5.4.7.2Z"/><path id="PATH_214" d="m454.7,271.36h-2.6v-2.6h2.6v2.6Zm2.8,2.8h-2.6v-2.6h2.6v2.6Zm6.2-.9l-1.2-1.4c-1.4-1.7-1.9-3.1-1.4-4.7-1.7.5-3.3-.2-5-1.9l-1.2-1.2,1.9-1.9,1.4,1.4c1.7,1.7,3.1,1.9,4.5.9.5-.5.9-.5,1.2-.5.2.2,0,.5-.5,1.2-1.2,1.4-.9,2.8.5,4.5l1.4,1.4-1.6,2.2Z"/><path id="PATH_215" d="m475.3,278.46c-.7.9-1.7,1.4-2.4,1.7-1.2.5-2.1.5-2.6,0-.9-.9-1.4-2.8-1.9-5.4h-2.1c-.7,0-1.4-.5-2.1-1.2l-.9-.9,1.9-1.9,1.2,1.2c.7.7,1.7.9,3.1.9.7,0,1.9-.2,3.5-.5,1.4-.2,2.4,0,2.8.5.7.7.9,1.9.7,3.3-.3.9-.5,1.6-1.2,2.3Zm-2.2.2c.5-.5.9-1.2,1.2-2.1s.2-1.9-.2-2.4c-.5-.5-1.7-.7-3.3-.2,0,.5.2,1.4.5,2.6.5,1.2.7,1.9,1.2,2.4-.1,0,.4,0,.6-.3Z"/><path id="PATH_216" d="m487.6,296.36c-2.6,2.4-5.4,3.5-9,3.5-1.2,0-1.7,0-1.9-.2-.9-.9-1.9-2.1-2.8-3.5-.2-.5-.5-.7-.5-.9,0,0,.5,0,.9.5,1.7.9,3.8,1.7,5.9,1.9h2.8c1.2-.2,2.1-.5,2.6-.9l.5-.5-2.1-2.1c-1.7-1.4-1.7-2.8-.2-4.3.9-.7,1.9-1.4,3.3-1.9,1.7-.5,2.8-.5,3.5.2.9.9.9,2.6,0,4.5-.9,1.4-1.9,2.6-3,3.7Zm.2-2.6c.5-.5.9-1.2.9-2.1.2-.9,0-1.7-.5-2.1-.2-.2-.7-.5-1.2-.5s-.9.2-1.4.5c-.7.7-.7,1.7.5,2.8.3.5,1,1,1.7,1.4Z"/><path id="PATH_217" d="m503.4,314.36l-.7-.7c-.7-.7-.9-1.2-.9-1.7l-.5.5c-1.7,1.7-3.5,2.6-6.1,2.8-2.1.2-3.5.2-4-.2-1.2-1.2-2.4-2.4-3.1-3.5-.2-.2-.2-.5-.2-.7s.2,0,.7.2c1.7.9,3.5,1.7,5.9,1.9,2.6.2,4.5-.2,5.7-1.2.7-.7,1.2-2.1,1.2-4.5l2.4-.7h.5v.5c-.2,1.2-.2,2.1-.2,2.6,0,.9.5,1.7,1.2,2.6l.5.5-2.4,1.6Z"/><path id="PATH_218" d="m513.6,324.96l-.9-.9c-.7-.7-1.4-1.2-2.1-1.7-1.2-.5-2.4-.5-3.1.2-.9.9-1.2,2.6-.7,4.7l-2.6.9c-.9-2.1-1.4-4.3-1.4-6.1,0-2.4.7-4.5,2.1-6.1l-2.4-2.4,1.9-1.9,2.1,2.4c1.2-1.2,3.1-2.4,5.4-3.1,2.1-.7,3.3-.9,3.8-.7.5.5,0,1.7-.7,3.5-.9,1.7-1.4,2.8-2.1,3.3-2.4,2.4-4.7,2.4-7.1,0-.7.9-.9,1.9-1.2,3.1-.2,1.2,0,2.4.2,3.3l.7-.7c1.2-1.2,2.6-1.9,3.8-2.1,1.9-.2,3.8.2,5,1.7l.7.7-1.4,1.9Zm-2.2-7.8c.2-.2.7-1.2,1.4-2.4.5-1.4.7-2.1.5-2.4-.2-.2-.9,0-2.1.5-1.2.5-2.4,1.2-3.3,2.1,1.6,2,2.8,2.7,3.5,2.2Z"/><path id="PATH_219" d="m530.1,334.96c-.9.9-2.1,1.7-3.1,1.7-1.2.2-2.4-.2-3.3-1.2-1.2-1.2-1.4-2.4-.9-3.8-1.7.2-2.8,0-3.8-.9-1.2-1.2-1.4-2.6-.9-3.8-1.7.2-2.8-.2-4-1.2l-1.2-1.2,1.9-1.9,1.4,1.4c1.2,1.2,2.6,1.4,4,.2.5-.2.7-.2.7-.2.2.2,0,.5-.2.7-1.2,1.4-1.2,2.8,0,4,.7.7,1.4,1.2,2.1.9.5,0,1.2-.2,1.9-.9.5-.2.7-.2.7-.2.2.2,0,.5-.2.7-1.2,1.4-1.2,2.8,0,4s2.1,1.7,2.8.9c.5-.5.9-1.4.9-2.8l2.1-.7c.2,0,.5-.2.7,0v.7c-.2,1.7-.7,2.9-1.6,3.6Zm.7-11.9h-2.4v-2.4h2.4v2.4Zm3.1,3.1h-2.4v-2.4h2.4v2.4Zm1.2-4h-2.4v-2.4h2.4v2.4Z"/><path id="PATH_220" d="m549.7,362.36l-.7-.9c-.7-.9-1.2-1.4-1.4-1.9-.5.5-.9.9-1.4,1.4-.7.7-1.4,1.2-2.1,1.7-1.7.7-3.5.7-5.9-.2-1.9-.7-3.5-1.9-5-3.3-1.4-1.4-2.4-3.1-2.4-4.7-.2-1.9.5-3.5,1.9-5,.7-.7,1.9-1.4,3.1-1.9.9-.2,1.7-.5,2.4-.5.2,0,.5,0,.7.2v.2s-.2.2-.5.2c-1.4.5-2.6,1.2-3.5,1.9-.9.7-1.2,1.9-1.4,2.8,0,1.4.5,3.1,1.9,4.5,1.7,1.7,3.3,2.8,5.2,3.5,1.4.5,2.6.7,3.5.5.2,0,.7-.5,1.2-.9.5-.5.9-1.2.9-1.4.2-.7.7-2.1.9-4l2.1-.7h.5v.5c-.5,2.1-.2,3.8.5,4.7l1.2,1.4-1.7,1.9Zm.3-14.9h-2.6v-2.8h2.6v2.8Z"/><path id="PATH_221" d="m548.5,368.76h-2.6v-2.6h2.6v2.6Zm2.9,2.8h-2.6v-2.6h2.6v2.6Zm6.3-.9l-1.2-1.4c-1.4-1.7-1.9-3.1-1.4-4.7-1.7.5-3.3-.2-5-1.9l-1.2-1.2,1.9-1.9,1.4,1.4c1.7,1.7,3.1,1.9,4.5.9.5-.5.9-.5,1.2-.5.2.2,0,.5-.5,1.2-1.2,1.4-.9,2.8.5,4.5l1.4,1.4-1.6,2.2Z"/><path id="PATH_222" d="m571.2,377.66c-.7.7-1.4.9-2.6,1.2-1.4.2-2.4,0-3.1-.5-.5-.5-1.2-2.1-2.4-4.7-2.4-.5-4.3-1.4-5.4-2.6l-.9-.9,1.9-1.9.9.9c.7.7,1.4,1.4,2.1,1.9-.2-1.2.2-2.1.9-3.1,1.2-.9,2.8-1.4,5.4-.9l-.5-1.7h2.8c.7,2.4,1.2,4.5,1.4,6.4.9,2.9.7,4.8-.5,5.9Zm-3.1-5.9c.5-.5.7-.9.9-1.4.2-.7.2-1.2-.2-1.7-.5-.5-1.2-.7-1.9-.9-.9-.2-1.7,0-1.9.5-.7.7-.7,1.9.2,3.5.5.2.9.5,1.7.5.3.2,1,0,1.2-.5Zm1.5,5.7c.5-.5.7-1.4.7-2.6s0-1.9-.2-2.6c-1.4,1.4-2.8,1.9-4.3,1.7.9,1.9,1.4,3.1,1.9,3.3.7.7,1.4.7,1.9.2Z"/><path id="PATH_223" d="m574.3,387.66l-1.2-1.2c-1.2-1.2-1.7-2.6-.9-4,.5-.9,1.4-2.4,2.8-3.5l3.3-3.1c1.7-1.4,3.5-3.8,6.1-6.9h2.1c.5,0,.5.2.2.5-1.2,1.7-3.3,4-6.4,6.9l-5,4.7c-1.4,1.4-1.4,2.8-.2,4l.9.9-1.7,1.7Z"/><path id="PATH_224" d="m590.8,397.56c-.9.9-2.1,1.7-3.1,1.7-1.2.2-2.4-.2-3.3-1.2-1.2-1.2-1.4-2.4-.9-3.8-1.7.2-2.8,0-3.8-.9-1.2-1.2-1.4-2.6-.9-3.8-1.7.2-2.8-.2-4-1.2l-1.2-1.2,1.9-1.9,1.4,1.4c1.2,1.2,2.6,1.4,4,.2.5-.2.7-.2.7-.2.2.2,0,.5-.2.7-1.2,1.4-1.2,2.8,0,4,.7.7,1.4,1.2,2.1.9.5,0,1.2-.2,1.9-.9.5-.2.7-.2.7-.2.2.2,0,.5-.2.7-1.2,1.4-1.2,2.8,0,4s2.1,1.7,2.8.9c.5-.5.9-1.4.9-2.8l2.1-.7c.2,0,.5-.2.7,0v.7c-.4,1.9-.9,2.9-1.6,3.6Zm.7-11.6h-2.4v-2.4h2.4v2.4Zm2.9,3.1h-2.4v-2.4h2.4v2.4Zm1.2-4.3h-2.4v-2.3h2.4v2.3Z"/></g><g id="G_225"><path id="PATH_226" d="m628.4,398.26c0,2.4-.7,4.5-2.1,6.6-1.2,1.7-2.4,2.6-3.1,2.6-1.9,0-3.3,0-4.7-.2-.5,0-.7-.2-.7-.2,0,0,.2-.2.7-.2,1.9-.5,3.8-1.4,5.7-2.8,1.9-1.7,3.1-3.3,3.1-5,0-.9-.7-2.4-2.4-4l1.2-2.1c0-.2.2-.2.2-.2l.2.2c.5.7,1.2,1.7,1.4,2.8.3.6.5,1.8.5,2.5Z"/><path id="PATH_227" d="m633.8,395.16c0,.9-.2,1.9-.7,2.6-.2.5-.5.7-.5.7,0,0-.2-.2-.2-.9,0-2.8-.5-9.5-1.4-20.1l1.9-1.9.2-.2v.5c.7,3.3.7,9.6.7,19.3Z"/><path id="PATH_228" d="m648.7,398.06h-2.6c-.2,3.3-1.4,5.9-3.8,8.3-.7.7-1.2,1.2-1.4,1.2-1.2,0-2.8-.2-4.5-.5-.5,0-.9-.2-.9-.2,0,0,.2-.2.9-.5,1.9-.5,3.8-1.7,5.4-2.8.7-.7,1.4-1.2,1.9-2.1.7-.9,1.2-1.9,1.2-2.6v-.7h-3.1c-2.4,0-3.3-.9-3.3-2.8,0-1.2.2-2.4.9-3.8s1.7-2.4,2.6-2.4c1.2,0,2.1.7,2.8,2.4.5,1.2.9,2.4.9,3.8h2.6v2.8h.4v-.1Zm-4.2-2.6c0-.7-.2-1.4-.7-2.1-.5-.9-1.2-1.2-1.9-1.2-.5,0-.9.2-1.2.5-.5.5-.5.7-.5,1.4,0,1.2.9,1.7,2.8,1.7.1-.3.8-.3,1.5-.3Z"/><path id="PATH_229" d="m667.2,391.16l-.9,1.9c-1.7,0-3.1,0-3.8.2-.9.5-2.4.9-4.3,1.9-1.9.9-3.3,1.7-4.3,1.9-1.4.5-3.1.7-4.5.7h-1.7v-2.8h1.9c2.1,0,4-.5,5.7-1.2l5.4-2.4c-.9-.2-2.4-.7-4.3-1.4-1.7-.7-2.6-.9-3.1-.9-.9,0-1.9.5-2.8,1.2q-.2.2-.5.2t-.2-.2v-.2c.7-2.4,2.1-3.3,4-3.3.7,0,1.7.2,2.6.7,1.9.9,3.3,1.4,4.3,1.9,1.7.5,3.5.9,5.7.9.5,0,.7,0,.7.2.3.2.1.5.1.7Zm-6.9-10.6l-1.9,1.9-1.9-1.9,1.9-1.9,1.9,1.9Z"/><path id="PATH_230" d="m682.1,398.06h-.9c-.9,0-1.4-.2-1.9-.5v.7c0,2.1-.7,4.3-2.1,6.4-1.2,1.9-2.4,2.6-3.1,2.6-1.9,0-3.3,0-4.7-.2-.5,0-.7-.2-.7-.2,0,0,.2-.2.7-.2,1.9-.5,3.8-1.4,5.7-2.8,1.9-1.7,3.1-3.3,3.1-5,0-.9-.7-2.4-2.4-4l1.2-2.1c0-.2.2-.2.2-.2l.2.2c.7.9,1.2,1.7,1.7,1.9.7.5,1.7.9,2.6.9h.7v2.6h-.3v-.1Z"/><path id="PATH_231" d="m687.7,393.26c0,3.1-1.7,4.7-4.7,4.7h-1.9v-2.8h1.7c2.4,0,3.5-.5,3.5-1.2s-.5-1.7-1.7-2.8l.9-2.4c0-.2.2-.2.2-.2l.5.5c1.1,1.4,1.5,2.8,1.5,4.2Zm-.7,10l-1.9,1.9-1.9-1.9,1.9-1.9,1.9,1.9Z"/></g><g id="G_217"><path id="PATH_218-2" d="m587.9,671.36c1.2,2.3,1.9,4.5,1.9,7.2,0,1.8-.5,3.7-1.2,4.5-1.5,1.6-3.8,2.7-5.9,2.7-3.3,0-5.4-2.2-5.4-5.3,0-2.2.7-3.8,1.5-5.1l.7.4c-.6,1.1-1,2.5-1,3.3,0,1.5.5,2.4,1.2,3.1.8.7,2,1.2,3.3,1.2,1.4,0,3.1-.7,4.3-1.5.8-.6,1.2-1.1,1.2-1.5,0-1.2-.3-2.2-.5-3.1-.4-1.4-.9-2.5-1.5-3.5.4-.7.8-1.5,1.4-2.2v-.2Zm-4.7-5.7c.7.5,1.4,1.2,2.1,1.9-.4.6-.9,1.2-1.5,1.7-.7-.7-1.4-1.2-2.1-1.8.5-.6,1-1.2,1.5-1.8Z"/><path id="PATH_219-2" d="m597.6,681.56h-.2c-1.4,0-2.3-.3-3-1-1.1-1.1-1.1-2.3-1.1-4.9,0-3.3-.2-6.8-.5-10.6.6-.7,1.1-1.2,1.7-1.6l.1.1c.3,3.8.3,8.4.3,12.7v1c0,1.1.6,1.6,1.3,1.9.4.2.9.2,1.1.2h.2v2.2h.1Z"/><path id="PATH_220-2" d="m599.1,679.26c1.5,0,2.8-.1,3.8-.4,1.1-.3,2.1-1,2.1-1.5v-.4c-.6.1-1.4.1-2,.1-2,0-3.6-.5-4.2-1.9-.2-.4-.3-.8-.3-1.3,0-1.3.5-2.6,1.3-3.5.7-.7,1.5-1.2,2.3-1.2,1.4,0,2.6,1.4,3.4,3.5.4,1.2.7,2.5.7,4.2,0,1.1-.3,2.1-.9,2.8-1.1,1.3-3.1,1.7-6.3,1.7h-1.4c-1,0-1.2-.7-1.2-1.2,0-.4.3-1.1,1.2-1.1h1.5v.2Zm.6-11.5c-.7-.7-1.4-1.2-2.1-1.8.5-.6.9-1.2,1.4-1.7.7.6,1.3,1.1,2,1.9-.5.6-.8,1.1-1.3,1.6Zm2,3.9c-1.2,0-2.1.9-2.1,1.6,0,1.4,2.3,1.9,5.1,1.8-.4-1.6-1.6-3.4-3-3.4Zm1.4-4.2c-.7-.7-1.4-1.2-2.1-1.8.5-.6.9-1.2,1.4-1.7.7.6,1.3,1.1,2,1.9-.5.7-.8,1.2-1.3,1.6Z"/><path id="PATH_221-2" d="m614,681.56h-.2c-1.4,0-2.3-.3-3-1-1.1-1.1-1.1-2.3-1.1-4.9,0-3.3-.2-6.8-.5-10.6.6-.7,1.1-1.2,1.7-1.6l.1.1c.3,3.8.3,8.4.3,12.7v1c0,1.1.6,1.6,1.3,1.9.4.2.9.2,1.1.2h.2v2.2h.1Z"/><path id="PATH_222-2" d="m614.3,679.26c.9,0,2-.1,3.1-.5-.3-.7-.4-1.6-.4-2.4,0-1.1.3-2.1,1.1-3.2.5-.7,1-1.2,1.7-1.6.1-.6.2-1.2.3-1.8h.1c1.7,1.6,4.1,3.1,6.2,4.7,1.5,1.2,2.2,2.2,2.2,3.8,0,1.7-1.1,3.3-3.5,3.3-1.5,0-3.7-.5-6-1.2-2,.8-3.5,1.2-4.8,1.2h-.4c-1,0-1.2-.7-1.2-1.2,0-.4.3-1.1,1.2-1.1h.4Zm8.3-2.9c0-1.5-1.1-2.8-1.8-2.8-1.3,0-2.9,1.9-2.9,2.8,0,.6.7,1.4,1.9,2,.9-.3,2.8-1.1,2.8-2Zm3.1,3.2c1,0,1.9-.3,1.9-.8,0-1.1-1.6-2.4-3.8-3.8-.1,1.4-.6,2.7-1.4,4.1,1,.3,2.1.5,3.3.5Z"/><path id="PATH_223-2" d="m632.4,676.76c.1,1.5.7,2.7,2.9,2.7,1.4,0,2.5-.4,3.8-1.1.2-.1.4-.3.4-.4,0-.9-.6-2.2-1.7-3.3-1-1.1-2.3-2-3.6-2.7-.4-.2-.6-.4-.6-.7,0-.4.5-1.4.9-2h.1c1.4.9,3,2.2,4.2,3.6,1.1,1.3,1.7,2.7,1.7,4.2,0,1.1-.3,2.1-.7,3.1-1.6.9-3.2,1.6-4.9,1.6-2,0-3.4-1.1-3.4-3.7,0-.3,0-.7.1-1.3h.8Z"/></g><polygon id="_563" class="cls-1" points="914.8 518.36 867.3 490.16 838.5 504.26 822.9 528.66 871.1 555.76 914.8 571.96 940.5 578.46 951.1 580.66 951.5 562.06 951.7 548.76 947.9 532.06 928.5 524.46 914.8 518.36"/><g id="G_225-2"><path id="PATH_226-2" d="m864.8,541.06c.1,1.5.7,2.7,2.9,2.7,1.4,0,2.5-.4,3.8-1.1.2-.1.4-.3.4-.4,0-.9-.6-2.2-1.7-3.3-1-1.1-2.3-2-3.6-2.7-.4-.2-.6-.4-.6-.7,0-.4.5-1.4.9-2h.1c1.4.9,3,2.2,4.2,3.6,1.1,1.3,1.7,2.7,1.7,4.2,0,1.1-.3,2.1-.7,3.1-1.6.9-3.2,1.6-4.9,1.6-2,0-3.4-1.1-3.4-3.7,0-.3,0-.7.1-1.3h.8Z"/><path id="PATH_227-2" d="m881.9,544.06c-2.1,0-3.8-1-3.8-3.3,0-1.2.4-2.1,1.1-3,.8-.9,1.7-1.5,2.5-1.5,1,0,2,.7,2.7,2,.7,1.2,1.1,2.9,1.1,4.8,0,1.6-.4,3.2-1.3,4.6-1.6,2.4-3.1,3.3-4.5,3.3-1.6,0-3.3-.5-5-1.7l.3-.6c.9.4,1.7.6,2.6.6,1.8,0,3.6-.9,5.2-2.7.8-.9,1.5-1.9,1.7-2.9-1.1.3-1.8.4-2.6.4Zm-.8-5.6c-.8,0-2,.9-2,1.6,0,1.1,1.5,1.9,3,1.9.7,0,1.4-.1,2-.2-.5-1.9-1.5-3.3-3-3.3Z"/><path id="PATH_228-2" d="m894.3,536.86l1.2,2.4c.5.9.9,1.8.9,3.3v1.9c0,1.6-.8,3.2-2.2,4.9-1.1,1.1-2,1.6-2.9,1.6-1.3,0-2.8-.5-4.5-1.4l.2-.6c.5.2,1.2.3,2,.3,2.5,0,5-2.1,6.2-4.7.1-.3.2-.6.2-.8,0-.3-.1-.6-.2-.9-.6-1.4-1.3-2.7-2.1-3.9.4-.8.8-1.5,1.2-2.2v.1Z"/><path id="PATH_229-2" d="m917.1,538.46c.7,1.3,1,2.2,1.4,3.4.5,1.5,1.5,1.8,3.2,1.8h.2v2.2h-.4c-1,0-1.8-.2-2.5-.8h-.1c-.1,1.8-.6,3.4-1.1,4.1-1.2,1.6-3.9,2.8-6,2.8-3.3,0-5.4-2.2-5.4-5.3,0-2.2.7-3.8,1.5-5.1l.7.4c-.6,1.1-1,2.5-1,3.3,0,1.5.5,2.4,1.2,3.1.7.7,2,1.2,3.3,1.2,1.4,0,3.1-.7,4.3-1.5.8-.6,1.3-1.1,1.3-1.8s-.1-1.4-.6-2.9c-.6-1.3-1-2.2-1.4-2.9.4-.6.7-1.3,1.2-1.9h.2v-.1Zm-4.2-5.3c.7.5,1.4,1.2,2.1,1.9-.4.6-.9,1.2-1.5,1.7-.7-.7-1.4-1.2-2.1-1.8.5-.7,1-1.3,1.5-1.8Z"/><path id="PATH_230-2" d="m922.2,543.66c1.5,0,2.7-.1,3.5-.3.6-.2,1-.5,1-.8,0-.8-.8-2.5-1.8-4.3.4-.8.9-1.4,1.3-2h.1c.8,1.4,1.8,3.6,1.8,5.4,0,1.3-.5,2.3-1.2,3.3-.8.8-2,1.1-4.7,1.1h-.2c-1,0-1.2-.7-1.2-1.2,0-.4.3-1.1,1.2-1.1h.2v-.1Zm3.3,5.6c.7.5,1.4,1.2,2.1,1.9-.4.6-.9,1.2-1.5,1.7-.7-.7-1.4-1.2-2.1-1.8.6-.7,1-1.3,1.5-1.8Z"/></g><polygon id="_744" class="cls-2" points="465.8 101.46 370.6 69.96 325.8 39.46 269.9 9.46 182 64.46 85.6 88.56 38.1 111.46 44 160.76 100 197.46 192.2 221.06 251.5 257.46 277.5 272.26 311 252.46 337 242.76 375.2 242.76 397.3 236.16 416.8 221.06 445.5 224.86 469.4 222.46 484 213.66 491.3 191.46 495.4 148.26 491.1 127.46 465.8 101.46"/><g id="G_232"><path id="PATH_233" d="m247.8,140.26l1.4,2.6c.5,1,1,2,1,3.6v2.1c0,1.7-.9,3.5-2.4,5.3-1.2,1.2-2.2,1.7-3.1,1.7-1.4,0-3-.5-4.9-1.5l.2-.6c.6.2,1.3.3,2.1.3,2.7,0,5.4-2.3,6.7-5.1.2-.3.2-.6.2-.8,0-.3-.2-.7-.3-1-.7-1.5-1.4-2.9-2.3-4.2.4-.8.9-1.6,1.4-2.4h0Zm-1.8-6.6c.8.6,1.5,1.3,2.3,2-.4.7-.9,1.3-1.6,1.9-.7-.7-1.5-1.3-2.2-2,.5-.6,1-1.3,1.5-1.9Z"/><path id="PATH_234" d="m259.8,140.26l1.4,2.6c.5,1,1,2,1,3.6v2.1c0,1.7-.9,3.5-2.4,5.3-1.2,1.2-2.2,1.7-3.1,1.7-1.4,0-3-.5-4.9-1.5l.2-.6c.6.2,1.3.3,2.1.3,2.7,0,5.4-2.3,6.7-5.1.2-.3.2-.6.2-.8,0-.3-.2-.7-.3-1-.7-1.5-1.4-2.9-2.3-4.2.4-.8.9-1.6,1.4-2.4h0Z"/><path id="PATH_235" d="m266.3,144.96c.1,1.6.7,2.9,3.1,2.9,1.5,0,2.7-.5,4.1-1.2.2-.1.4-.3.4-.5,0-1-.7-2.4-1.8-3.6-1.1-1.2-2.5-2.2-3.9-2.9-.5-.2-.6-.5-.6-.7,0-.5.5-1.5,1-2.2h.2c1.5,1,3.3,2.4,4.6,3.9,1.2,1.4,1.9,2.9,1.9,4.5,0,1.2-.3,2.3-.8,3.3-1.7,1-3.5,1.8-5.3,1.8-2.2,0-3.7-1.2-3.7-4,0-.3,0-.8.1-1.4h.7v.1Z"/><path id="PATH_236" d="m289.9,147.66v2.4h-1.6c-.1,1.2-.6,2.7-1.4,3.9-1.5,2.2-3.6,3.3-4.6,3.3-1.7,0-3.7-.8-5.5-1.9l.3-.6c.7.4,1.7.7,2.8.7,1.9,0,3.7-1,5.3-2.6.9-.9,1.5-1.7,1.8-2.7h-.9c-3.9,0-5.9-1.2-5.9-3.9,0-1.3.4-2.3,1-3.1.7-1,1.7-1.8,2.9-1.8,1.8,0,3.6,2.5,4.1,6.4h1.7v-.1Zm-4.3-2.8c-.6-.7-1.3-1.1-2-1.1-1.1,0-2.2.9-2.2,1.7,0,1,.9,1.5,2.1,1.9,1,.3,2.2.3,3.4.3-.2-1-.7-2.1-1.3-2.8Z"/><path id="PATH_237" d="m304.6,150.16h-.4c-2.3,0-3.6-1.3-4.9-3.1-.6-.8-1.2-1.6-1.7-2.1h-.1c0,3-1.7,5.2-7.1,5.2h-.5c-1,0-1.3-.8-1.3-1.3s.3-1.2,1.3-1.2h.8c1.5,0,3.4-.3,4.6-1.1.4-.2.9-.7.9-.9,0-.4-.2-.8-.4-1.3-.8-1.7-2.5-3.1-4.5-5.2-.5-.5-1-1-1.3-1.3-.1-.3-.1-.5-.1-.9,0-.5.2-1.1.5-1.6.2-.3.4-.4.7-.6,2-1.3,6.4-2.8,11.6-4.4l.1.1c-.4.8-.8,1.5-1.4,2.3-1.1.3-2.8.8-4.3,1.4-2.3.9-4.5,1.7-5.8,2.4h0c1,.6,2.3,1,3.1,1.3l-.6,1c2,1.8,4.2,3.8,6.8,6.9,1.1,1.3,2.2,1.9,3.7,1.9h.3v2.5Zm-13.8-17c.1-.4.2-.8.5-1.2,2.6-1.3,6.3-2.6,10.4-3.8v.1l-.7,1.2c-4.3,1.3-7.5,2.5-10.2,3.7h0Z"/><path id="PATH_238" d="m305,147.66c1.5,0,3-.6,3.3-1.7l.6-2.1,1.3-1,.1.1c-.3,1-.4,1.8-.4,2.2,0,.7.2,1.2.6,1.6.6.5,1.4.8,2.4.8h.3v2.4h-.4c-1.9,0-3.3-.5-3.9-1.9h-.1c-.6,1.3-2.2,1.9-3.8,1.9h-.4c-1,0-1.3-.8-1.3-1.3s.3-1.2,1.3-1.2h.4v.2Zm2.1,10.1c-.8-.7-1.5-1.4-2.2-2,.5-.7,1-1.3,1.5-1.8.8.6,1.4,1.2,2.2,2-.5.8-.9,1.3-1.5,1.8Zm3.7-.3c-.8-.7-1.5-1.4-2.2-2,.5-.7,1-1.3,1.5-1.8.8.6,1.4,1.2,2.2,2-.6.8-.9,1.3-1.5,1.8Z"/><path id="PATH_239" d="m313.6,147.66c.6,0,1.3-.1,2.1-.5.7-.4,1-1.1,1-2.1,0-3-.2-6.4-.6-9.9-.1-.9-.2-1.7-.2-2.4,0-.4.2-.9.6-1.3.3-.3.6-.7,1-1l.1.1c0,1.2.6,2.7,1.5,4.4-.3.3-.7.6-1.2,1,.1,2.2.2,4.5.2,6.6s-.2,3.6-.8,4.8c-.4,1-.9,1.8-1.7,2.2-.7.4-1.6.6-2.4.6h-.3c-1,0-1.3-.8-1.3-1.3s.3-1.2,1.3-1.2h.7Z"/><path id="PATH_240" d="m322.6,150.46c.2-1.2.2-2.6.2-3.8v-1.9c0-3.5-.4-8.6-.7-11.8.5-.7,1.3-1.5,1.9-2l.2.1c.4,4.2.5,9,.5,13.4,0,1.2,0,2.3-.1,3.1-.1,1-.6,1.8-1.7,3.1l-.3-.2Z"/></g></svg>