<?xml version="1.0" encoding="UTF-8"?><svg id="Layer_1" xmlns="http://www.w3.org/2000/svg" viewBox="0 0 1004.99 1048.85"><defs><style>.cls-1{fill:#fff;stroke:#000;stroke-width:.75px;}.cls-1,.cls-2{stroke-miterlimit:10;}.cls-3{fill:#e8d0e5;}.cls-3,.cls-4,.cls-5,.cls-2,.cls-6{stroke:#020202;}.cls-3,.cls-4,.cls-5,.cls-6{stroke-miterlimit:20;stroke-width:.4px;}.cls-4{fill:#fbd1d1;}.cls-5{fill:#dbeccb;}.cls-2{fill:#d9b2d4;stroke-width:.5px;}.cls-6{fill:#fdfad6;}</style></defs><path id="_570" class="cls-4" d="m236.04,196.23c11.6,4.6,27.8,5.8,36-3.4,11.6-14,3.4-39.4,18.6-43,11.6-3.4,27.8,4.6,43,7,17.4,1.2,33.6-9.2,52.2-4.6,14,4.6,16.2,18.6,20.8,30.2,7,20.8,51,38.2,60.4,8.2,2.8-8,5-17.6,9-24.8-22.4-12-49.8-27.2-51.6-28.2l-.4-.2-30.8-37.8,1.4-1.6c.6-.6,15-16.8,23.6-20.2,3.6-1.4,6-4.6,6.6-8,.6-4.2-1.4-8.4-5.8-12.2-9.8-8.4-18.2-20-20.8-23.6-14.2,1.4-29.4-2.6-31.6-3.4-3.2-.2-31-1.6-38.6-1.6-8,0-23.6-2.8-39.2-22-3.4-4.2-8-6.4-13.8-6.8-13.2-.6-29,9.4-34.6,15-7,7-18.4,33.2-20.4,37.6.8,4.6,5,31.2,6.4,41.6,1.8,12.2-11.8,45.8-16.6,53.6-2.2,3.8-4.2,11.8-6.2,19.6-1,4.2-2,8.4-3.2,12,6.8,4,15.4,5.6,22.8,6.4,5.8-.2,8,8,12.8,10.2Z"/><path id="_328" class="cls-5" d="m124.64,330.83c9.2-5.8,18.6-11.6,22-20.8,3.4-9.6-6-23-3.8-33-.8,0-1.4.2-2.2.2-2.6.2-5.4.4-7.8.4-10.6,0-24.6-11.8-29.8-22.4-5-10-9.4-13.2-17.4-13.2-1.6,0-2,.6-2.2.8-2,3,1.2,12.2,2.4,15.8l1.4,4c2.6,8,9.4,29,13.6,35.8,3.6,6-1.4,17.8-6,26.2,9.6,6,18.8,14.2,29.8,6.2Z"/><path id="_623" class="cls-4" d="m126.84,437.63c12.8-8.2,16.2-24.4,30.2-30.2,2.4-1.2,5.8,0,9.2,0,12.8,3.4,24.4,19.8,36,8.2,4.6-3.4,9.2-4.6,12.8-2.4,7,4.6,14,11.6,22,7,11.6-7,30.2-10.4,29-24.4,0-8.2-16.2-10.4-18.6-23.2-1.2-4.6-14,0-18.6-3.4-14-9.2-9.2-26.6-17.4-39.4-8.2-14-24.4-18.6-33.6-31.4-1.6-2.6-2.8-5.4-3.2-8.6-6.8-.6-12.6-5.2-16.2-10-2.6-3.4-9-3.4-15.6-2.8-2.2,10,7.2,23.4,3.8,33-3.4,9.2-12.8,15-22,20.8-11,8-20.2-.2-29.8-6.4-2.2,4.2-4.4,7.4-5.4,8.8l-.4.6-.6.2c-2.2,1-21.8,10-30.2,10-4.2,0-8.8,10.4-10.6,17.6,0,0-3.2,20.8-3.2,28.6,0,3-1.2,5.6-3.8,7.8-5.4,4.8-16.2,7.2-28.2,5.8-4.4-.4-7.6.4-9.4,2.4-3,3-2.4,8-2.4,8,0,.6-.2,1.2-.4,1.6,3,3,6,7.4,7,12.8.4,3,.2,5.4,0,7.4-.2,1.6-.4,3,0,3.6.6.8,3.4,1.6,12.2,1.6,7.4,0,15.2-.6,23-1.2,16.8-1.2,27.4-1.8,32.2,1.6,4,3,18.6,6.4,27.8,8.4,4.6-3.6,8.4-7.8,13.2-10.6,3.2-1.8,7.8.4,11.2-1.8Z"/><path id="_569" class="cls-5" d="m398.44,334.43c12.8,10.4,29,2.4,43,5.8,5.8,2.4,10.4,7,15,10.4,5.8,4.6,12.8,9.2,17.4,4.6,7-7,18.6-3.4,22-9.2,4.6-9.2-10.4-18.6-5.8-30.2,2.4-7,12.8-4.6,17.4-10.4,9.2-15,1.2-31.4-2.4-46.4-1.2-5.8-18.6-14-15-19.8,10.4-13.8,28.8-24.4,34.6-40.2-5.8-7.4-14.6-17.4-20.2-19.2-3.6-1.2-15.2-7.2-28.4-14.2-4,7.2-6,16.8-9,24.8-9.2,30.2-53.4,12.8-60.4-8.2-.2-.6-.4-1.2-.6-1.8-2.4,2.4-3.2,5.4-.4,8.8,8.2,12.8,14,29,1.2,41.8-2.4,1.2-3.4,4.6-2.4,8.2,4.6,8.2,19.8,14,11.6,22-4.6,7-10.4,12.8-17.4,18.6-1.2,1.2-1.2,4.6,0,5.8,5.8,9.2,20.8,14,16.2,25.6-3,7.2-9,18-18.4,15.6-1,2.8-.4,5.8,2,7.6Z"/><path id="_608" class="cls-5" d="m260.24,572.23c15-3.4-3.4-22-2.4-32.4,3.4-23.2-5.8-40.6-25.6-53.4-9.2-5.8-3.4-18.6-5.8-29-1.2-3.4-4.6-7-7-9.2-7.4-11.2-10.4-23-17.2-32.6,0,0-.2,0-.2.2-4.49-.86-9.02.44-11.49,3.57-3.56,4.51-2.61,12.51,3.49,17.23-1.87,4-3.73,8-5.6,12-5.47,2.73-10.93,5.47-16.4,8.2-7.73-2.67-15.47-5.33-23.2-8-5.23-5.87-10.47-11.73-15.7-17.6-1.18,2.04-3.19,4.79-6.5,6.6-4.24,2.32-7.98.29-11.6,2.4-4.8,2.8-8.6,7-13.2,10.6,2,.4,3.8.8,5.2,1l1.6.2.4,1.6c.4,2.6,5,26.4,5,31.4,0,3.4,5.2,12.2,17.4,13.8,14.2,1.8,35.6,15.4,40.8,24,4.4,7.4,14.2,22.2,22.4,30.4,4,4,11.4,19.2,19.8,37,.2.6.6,1.2.8,1.6,11-13.6,28-16.6,45-19.6Z"/><path id="_601" class="cls-3" d="m333.44,767.03c1.2-14,14-23.2,16.2-37.2,1.2-9.2,1.2-18.6-3.4-24.4-20.8-30.2-37.2-59.2-48.8-94-5.4-16.6-20.4-30.8-36.8-39.6h-.4c-17,3-34,6-45,19.4,9.2,19,19.2,40.2,25,45.8,11,11,10.6,27.2,10.4,34.2v1.6c.2,3,9,33.8,15.4,56.2,5.2,18.2,9.8,34,10.4,37.6,1.6,7.6,12.6,36.2,23.4,44,4.4,3.2,10.4,6.2,16.4,9,3.6,1.8,7,3.4,10,5,1.6-1.8,3-3.6,3.6-5.8,4.6-17,2.4-34.4,3.6-51.8Z"/><path id="_327" class="cls-4" d="m506.24,895.23c2.2-1.2,4.6,2.2,6.8,1.2,5.8-3.4,5.8-9.2,6.8-14.8,4.2,1.2,8.4,2,12.6,2.4-2-2.6-.2-7.8,1.4-11.2,7-10.4,17.4-16.2,24.4-26.6,1.2-2.4,2.4-5.8,1.2-8.2-3.4-3.4-11.6-3.4-12.8-7-9.2-17.4-24.4-17.4-40.6-20.8-5.8,0-5.8-5.8-8.2-11.6-3.4-9.2-20.8-14-20.8-19.8,0-3.8.8-6.8,2.2-9.2-5.8.2-11.8,5-17.2,8-8.2,5.8-9.2,14-8.2,24.4,0,8.2-7,19.8-14,18.6-37.2-4.6-70.2-31.8-107.2-37.8,0,12.2.2,24.4-3,36.8-.4,2.4-1.8,4-3.6,5.8,5.2,3,9.6,6,11.6,9.4,1.8,3,5.4,7.2,9.4,11.6l.4.4c12.8,7.6,24.8,7.8,37.8,12.2,1.4.6,3.2,2.2,4.8,4,2.6-1,5.4-1.2,8-.6,30.2,12.8,59.2,27.8,90.6,39.4,3,1,5.6,3,7.6,5.6,3.6-3.6,6.4-9.2,10-12.2Z"/><path id="_295" class="cls-3" d="m536.44,885.43c-1.8,0-3-.6-3.8-1.6-4.2-.2-8.4-1.2-12.6-2.4-1.2,5.8-1.2,11.4-6.8,14.8-2.2,1.2-4.6-2.2-6.8-1.2-3.8,3.2-6.4,8.6-9.8,12,5.2,6.2,8.6,15.4,14.4,21,4.6,5.8,12.8,8.2,22,9.2,3.2,0,5.8,1.6,8.8,3.8.4-.6,1-1.2,1.8-1.6,22-9.2,48.8,12.8,65-7,10.4-14,25.6-19.8,37.2-30.2-33-21.4-72.4-15.6-109.4-16.8Z"/><path id="_617" class="cls-4" d="m412.24,424.83c16.2,10.4,32.4,27.8,52.2,23.2,4.6-1.2-3.4-8.2-1.2-12.8,4.6-8.2,20.8-9.2,15-17.4-4.6-5.8-8.2-9.2-11.6-15-15.4-26-53-39.2-63.6-65.4-1.6-.8-3.4-1.8-5-3-2.2-1.6-2.8-4.8-2.2-7.6-1.2-.4-2.4-.8-3.8-1.6-11.6-5.8-25.6-14-36,0-1.2,1.2-5.8,0-8.2-1.2-5.8-4.6-10.4-10.4-16.2-16.2-7-7-16.2-2.4-24.4-5.8-10.4-4.6-19.8-12.8-29-22-10.4-11.6-11.6-34.8-30.2-31.4-5.6,1.2-9,10.8-14.4,10.6,2.4,4.6,4.4,8.8,7.6,12.6,7,11.6,18.6,16.2,27.8,26.6,2.4,2.4,1.2,4.6,1.2,7-2.4,7-11.6,11.6-7,18.6,10.8,19.2,37.4,22.6,53.4,20.8,11.6-2.4,24.4,9.2,27.8,20.8,3.4,7-18.6,8.2-10.4,18.6,7.6,12,23.4,19.8,23.4,32.4,19.4.4,37.8-2.2,54.8,8.2Z"/><path id="_501" class="cls-6" d="m481.84,377.23c2.4-1.2,5.8-1.2,8.2,0,8.2,5.8,14,14,24.4,16.2,15.6,2.2,31.2-5.2,34.4-21.2-8.4-.8-17.4,1-24-3.2-11-6.6-18.8-17-28.4-24.6-.2.4-.4,1-.6,1.4-3.4,5.8-15,2.4-22,9.2-4.6,4.6-11.6,0-17.4-4.6-4.6-3.4-9.2-8.2-15-10.4-12.2-3-26.2,2.8-38-2.8,9.8,24.4,43,37.4,60,60,5.4-7.2,10.6-16.2,18.4-20Z"/><path id="_581" class="cls-6" d="m607.24,694.03c-8.2-14-18.6-26.6-36-27.8-2.4,0-7-3.4-8.2-7-1.96-9.36-3.91-18.72-5.87-28.09-15.08-20.06-24.84-29.02-29.28-26.89-2.02.97-2.94,4.23-2.75,9.79-2.9,8.6-5.8,17.19-8.7,25.79l-13.5,16.6c-5.98-3.84-17.45-10-32.97-11.15-8.11-.6-15.05.33-20.24,1.49-7.36.75-14.73,1.51-22.09,2.26-1.32-3.64-3.34-7.97-5.72-7.94-2.01.03-2.88,3.14-5.08,6.54-6.63,10.25-16.43,9.24-18.62,16.07-.8,2.49-.77,6.62,4.2,13.29,3.72,2.32,8.14,4.72,13.25,6.87,9.15,3.86,17.55,5.69,24.17,6.57,1.4.4,2.6.8,3.6,1.2,18.6,11.6,27.8,32.4,48.8,37.2,15,3.4,30.2,3.4,44,8.2,17.8,5.8,12.8,18.4,5.4,30.6,9.6,1.8,19,2,27.2-2.8,11.6-8.2,23.2-19.8,37.2-14,11.6,5.8,24.4,1.2,36-2.4,1.4-.2,2.6-.4,3.8-.6,0-10.6-.6-22.4,1.2-32.4-15-5.4-32.2-7-39.8-21.4Z"/><path id="_594" class="cls-6" d="m309.04,564.03c5.8,3.4,14,2.4,17.4-4.6,4.6-10.4-1.2-25.6,9.2-30.2,19.8-7,41.8-3.4,56.8-22,8.2-9.2,30.2,4.6,44-5.8,3.35-2.53-2.62-8.23,0-12.8,2.16-3.76,7.29-4.92,11.4-5.3-10.49-3.6-20.98-7.2-31.47-10.8-8.31-3.49-16.63-6.98-24.94-10.47-9.36-4.47-18.72-8.95-28.09-13.42l-11.8,1.4v-10.71c-.49-1.98-1.02-4.98-.75-8.61.28-3.74,1.2-5.43.27-6.9-1.84-2.91-8.94-.79-9.83-1.38-24.4-16.2-46.4-18.6-74.2-25.6-.4,0-.8-.2-1.2-.2.2,13.2-17.8,16.6-29,23.4-8.2,4.6-15-2.4-22-7-3.4-2.2-8-1.2-12.6,2.2,6.8,9.6,9.8,21.4,17.2,32.6,2.4,2.4,5.8,5.8,7,9.2,2.4,10.4-3.4,23.2,5.8,29,19.8,12.8,29,30.2,25.6,53.4-.6,5.8,5,14.4,7.2,21.2,3.6-1.2,7.4-4,11.4-6.2,11.6-7.8,22.2,5,32.6,9.6Z"/><path id="_603" class="cls-4" d="m350.84,559.43c-9-5.6-17,4.2-26,2.4-4,4.8-10.8,5.2-15.8,2.2-10.4-4.6-20.8-17.4-32.4-9.2-3.8,2.2-7.6,4.8-11.4,6.2,1.8,5.2,1.6,9.6-4.6,11.2,16.4,8.8,31.2,23,36.8,39.6,11.6,34.8,27.8,63.8,48.8,94,4.6,5.8,4.6,15,3.4,24.4-.2,1.4-.6,2.6-1,3.8,11.4-.4,23.6.4,34.6-2.8,11.6-2.4,9.2-16.2,9.2-26.6,9.2,1.2,15,11.6,25.6,7,8.2-4.6,8.2-16.2,16.2-20.8,1.4-.6,3.6-.6,5.6,0-15.2-6.8-35.4-3.8-41.6-20.8-4.6-9.2,11.6-15,18.6-22,4.6-4.6,5.8-12.8,0-16.2-11.6-8.2-22-19.8-15-29,.8-1,1.8-2,2.8-2.8-9.6-7.4-22-11.8-33-18-8.2-5.2-12.8-15.6-20.8-22.6Z"/><path id="_334" class="cls-5" d="m391.44,536.23c-2.2-8-.8-17.8-2.4-25.2-14.8,14.2-35,11.8-53.2,18.2-10.4,4.6-4.6,19.8-9.2,30.2-.4,1-1,1.8-1.6,2.4,9,1.6,17-8.2,26-2.4,8.2,7,12.8,17.4,20.8,22,10.8,6.2,23.4,10.6,33,18,6.8-6.4,15.8-10.8,23.8-16.8,5.8-3.4,15-3.4,18.6,0,1,.8,2,1.8,3,2.4.4-3,2-5.8,3.8-8.2-21-12.8-56.8-14-62.6-40.6Z"/><path id="_573" class="cls-3" d="m709.24,637.03c2.4-3.4,1.2-9.2,4.6-9.2,8.8-2.2,14-8.2,19.4-13.8-5.6-5.4-10.6-12.4-14.8-20-4.6-9.2-18.6-9.2-30.2-11.6-7-1.2-12.8-5.8-15-14-5.8-14-31.4-16.2-29-36-31.4,2.4-61.4-11.6-80-37.2-2.4-3-1.6-5.4.2-7.2-5.4-2.2-11-3.2-14,1.4-3.4,3.4-2.4,10.4-1.2,12.8,8.2,10.4,30.2,17.4,19.8,31.4-7,9.2-15,23.2-3.4,31.4,20.8,12.8,49.8,4.6,63.8,26.6,4.6,8.2,22,0,30.2,4.6,5.8,3.4,3.4,16.2,7,20.8,4.6,7,10.8,12.2,18,16.2,6.2-4.2,16.4-2.8,24.6,3.8Z"/><path id="_330" class="cls-3" d="m498.04,520.03c-19.8-5.8-44-3.4-59.2-22-.8-1.2-1.8-2.4-2.8-3.4,1,2.8,2.6,5.4.4,6.8-14,10.4-36-3.4-44,5.8-1.2,1.4-2.4,2.8-3.6,3.8,1.8,7.4.2,17.2,2.4,25.2,5.8,26.6,41.8,27.8,62.6,40.6-1.8,2.4-3.4,5.4-3.8,8.2,23.8,18,51.4,11.4,76.2,19.6-.4-8.6,1.6-17.2-3.8-24.4-9.2-14-27.8-24.4-19.8-40.6,2-4.4,4.6-8,7.8-11.2-3.4-4-7.4-7.2-12.4-8.4Z"/><path id="_331" class="cls-4" d="m519.04,463.03c-22.4,0-44.6,0-60.8-14.4h-2.4c.2,9.2,7.4,17.2,5.4,26-2.4,11.6-18.6,5.8-24.4,14-1.4,1.8-1.2,4-.4,5.8,1,1,1.8,2.2,2.8,3.4,15,18.6,39.4,16.2,59.2,22,5,1.2,9,4.4,12.4,8.4,10.8-11,27-15.4,43.2-19,.6-.2,1.4-.4,2-.6-2.6-2-5-4-6.6-6.2-1.2-2.4-2.4-9.2,1.2-12.8.6-.8,1.2-1.6,2-2-4.2-2.2-8.6-4-13.6-5-10.8-3.2-10.8-20.6-20-19.6Z"/><path id="_616" class="cls-5" d="m642.04,424.83c-20.8-7-37.2-24.4-59.2-31.4-9.2-2.4-15-12.8-24.4-18.6-3-1.6-6.2-2.4-9.6-2.6-3.2,16-18.8,23.4-34.4,21.2-10.4-2.4-16.2-10.4-24.4-16.2-2.4-1.2-5.8-1.2-8.2,0-8,3.6-13,12.8-18.6,20.2,1.2,1.6,2.4,3.4,3.6,5.2,3.4,5.8,7,9.2,11.6,15,5.8,8.2-10.4,9.2-15.2,17.4-2.4,4.6,5.8,11.6,1.2,12.8-2.2.6-4.2.8-6.4.8,16.2,14.4,38.6,14.4,60.8,14.4,9.2-1.2,9.2,16.2,19.8,19.8,4.8,1,9.4,2.8,13.6,5,3.2-2.2,7.6-1.2,12.2.6,1.6-1.6,4-2.6,5.6-3.2,7-2.4,14-4.6,19.8-8.2,8.2-4.6,14-16.2,22-19.8,17.8-5.2,38.6-13.4,38.8-32-2.8.6-5.6.4-8.6-.4Z"/><path id="_598" class="cls-5" d="m666.24,617.43c-3.4-4.6-1.2-17.4-7-20.8-8.2-4.6-25.6,3.4-30.2-4.6-14-22-43-14-63.8-26.6-11.6-8.2-3.4-22,3.4-31.4,8.2-11-3.6-17.6-13-25-.6.2-1.4.4-2,.6-20.8,4.6-41.8,10.4-51,30.2-8.2,16.2,10.4,26.6,19.8,40.6,5.6,7.2,3.6,16,3.8,24.4,1,.4,2,.8,3,1.2,19.8,5.8,32.4,30.2,33.6,53.4,1.2,3.4,5.8,7,8.2,7,17.4,1.2,27.8,14,36,27.8,7.6,14.4,25,16,39.8,21.6,1.4-8.6,4.6-16,11-20.4-1-.2-1-3.6.2-5.8,10.4-12.8,18.6-25.6,19.8-43,.4-6.2,2.8-10.4,6.4-12.8-7.2-4.2-13.2-9.4-18-16.4Z"/><path id="_602" class="cls-5" d="m536.44,736.83c-14-4.6-29-4.6-44-8.2-20.8-4.6-30.2-25.6-48.8-37.2-2.4-1.2-7-2.4-9.2-1.2-8.2,4.6-8.2,16.2-16.2,20.8-10.4,4.6-16.2-5.8-25.6-7,0,10.4,2.4,24.4-9.2,26.6-11,3.2-23.2,2.2-34.6,2.8-3.8,11.8-14.2,20.6-15.4,33.2-.4,5.2-.4,10.4-.4,15.4,37,6.2,70,33.4,107.2,37.8,7,1.2,14-10.4,14-18.6-1.2-10.4,0-18.6,8.2-24.4,5.4-3.2,11.4-7.8,17.4-8,7.8-13.4,34.2-8.6,50-4.6,4.2,1,8.2,2,12.4,2.8,7-11.6,11.8-24.2-5.8-30.2Z"/><path id="_583" class="cls-3" d="m814.84,753.03c-1.2-5.8-5.8-15-10.4-17.4-23.2-8.2-41.8-19.8-63.8-31.4-10.4-7-26.6-1.2-31.4,14-17.4-5.8-33.6-15-51-23.2h-.2c-14.2,9.8-12.2,33.4-12.2,52.8,18.4-.8,29.4,22.2,40.2,35.4,4.6,5.8,0,14,3.4,19.8,1.2,3.4,3.4,8.2,8.2,8.2,25.6,1.2,46.4,17.4,69.6,24.4,18.6,4.6,41.8-7,49.8-25.6.4-1,1-1.8,1.6-2.4-6-16-.6-35.6-3.8-54.6Z"/><path id="_585" class="cls-4" d="m918.64,693.83c-.8-5.2-6.2-11-9.6-12.8-5.4-2.8-21-22.4-25-27.4-13.6,5-27.4,6.2-42.4,2-17.4-5.8-20.8-24.4-32.4-37.2-11.6-10.4-27.8-2.4-40.6,3.4-13.2,5.8-25.2,1.4-35-8-5.6,5.6-10.6,11.6-19.4,13.8-3.4,0-2.4,5.8-4.6,9.2-12.8-10.4-30.2-8.2-31.4,9.2-1.2,17.4-9.2,30.2-19.8,42.8-1.2,2.4-1.2,5.8,0,5.8,17.4,8.2,33.6,17.4,51,23.2,4.6-15,20.8-20.8,31.4-14,22,11.6,40.6,23.2,63.8,31.4,4.6,2.4,9.2,11.6,10.4,17.4,3.2,19-2.2,38.6,4,54.4,5.8-5.4,19.2,6.6,28.6,2.4,9.2-4.6,17.4-11.6,29-14,9.8-1.6,18.2.8,26.6,3.8.4-8.2.8-18.8,1.4-29.6,1-21,2-42.8,2-44.8,0-1.6.2-15,10.2-24.8,1.4-1.4,2.2-3.6,1.8-6.2Z"/><path id="_627" class="cls-6" d="m611.84,457.23c-8.2,3.4-14,15-22,19.8-5.8,3.4-12.8,5.8-19.8,8.2-3.4,1.2-10.4,4.6-5.8,10.4,18.6,25.6,48.8,39.4,80,37.2-2.4,19.8,23.2,22,29,36,2.4,8.2,8.2,12.8,15,14,11.6,2.4,25.6,2.4,30.2,11.6,11.6,20.8,29,37.2,49.8,27.8,12.8-5.8,29-14,40.6-3.4,11.6,12.8,15,31.4,32.4,37.2,15,4.2,29,3,42.4-2-.2-.2-.2-.4-.4-.4l-.2-.4-.2-.4c-.2-.6-.8-2.6-1.4-5.2-.8-.4-1.2-1-1.4-1.8-.2-.8.2-1.4.6-2-1.8-8.2-3.6-19.6-1.8-25.2,2.6-8,7.8-48-1-60.6-5-7.2-23-29.4-39-49-15-18.4-28-34.4-30.6-38.4-4.6-6.8-10-16.4-11.8-19.6-6.2-.8-33.6-4.2-39.8-5.4-6.8-1.4-26.8-2.6-31.6-1.4-5.6,1.4-39.8,5.4-41.2,5.6l-1.6.2-18.4-31.2c-.2-.2-.6-.6-1-1.2-3.6,4.4-7.6,7-12.4,7.8,0,18.6-20.8,26.6-38.6,31.8Z"/><path id="_614" class="cls-3" d="m385.64,858.63c-13-4.4-25-4.6-37.8-12.2,8,9.2,13.2,15.6,13.2,20,0,7.8,1.8,30.6,6.2,37.8s24.8,26.6,27.4,29c4.6,2.2,18.2,9.6,25,18.2,2.2,2.8,3.8,5.4,5.2,7.8,2,3.4,3.6,6,6.6,8.2,2,1.4,3.8,4.2,6.2,7.2.4-15.2,15.8-26.4,32.6-30.2,4.6-1.2,5.8-10.4,1.2-14-25.6-18.6-58-17.4-76.6-47.6-2.4-3.4-9.2-4.6-11.6-8.2-3.2-4.8,1.4-10.2,7.2-12.2-1.8-1.6-3.4-3-4.8-3.8Z"/><path id="_612" class="cls-6" d="m510.84,928.23c-8.2-8.2-11.6-23.2-22-26.6-31.4-11.6-60.4-26.6-90.4-39.4-8.2-2.4-19.8,5.8-15,12.8,2.4,3.4,9.2,4.6,11.6,8.2,18.6,30.2,51,29,76.6,47.6,4.6,3.4,3.4,12.8-1.2,14-16.8,3.8-32.2,15-32.6,30.2.2.2.4.6.6.8,4.6,6.4,10.2,14.6,16.4,14.6,11.8,0,43.6,12.8,51.8,18.2,2.6,1.6,5,3.2,7.4,4.6,5.6,3.4,10.8,6.6,14.8,10.6,5.2,5.2,10.2,10.2,18.8,10.2,2.2,0,4.6-.2,7.2-.4,7.8-.6,16-1.2,22.8,3.4,6.8,4.4,17.4,10,20.6,11.6,7.8-3.2,20-9,22.4-12.4,4.2-5.4,22.6-25.2,23.4-26,0,0,4.2-5.4-.2-12-2.2-3.2-4.2-6.2-6-8.6-9.6-2.8-19.4-4.6-29.2-6.6-26.6-4.6-60.4,15-75.4-8.2-4.6-5.8,9.2-15,7-29,0-.8.6-2.8,1.8-4.2-2.8-2.2-5.6-3.8-8.8-3.8-9.6-1.4-17.8-3.8-22.4-9.6Z"/><path id="_613" class="cls-5" d="m934.04,861.83c-2.2-2.8-4.4-7-6.8-11.4-3.2-6.2-6.8-13.2-10.4-15.2-7.2-4.4-14.8-14.6-14.8-19.8,0-1,.2-7,.6-15.4-8.2-3.2-16.8-5.4-26.6-3.8-11.6,2.4-19.8,9.2-29,14-10.4,4.6-25.6-10.4-30.2,0-8.2,18.6-31.4,30.2-49.8,25.6-23.2-7-44-23.2-69.6-24.4-4.6,0-7-4.6-8.2-8.2-3.4-5.8,1.2-14-3.4-19.8-11.6-13.8-23.2-39.4-44-34.8-11.6,3.4-24.4,8.2-36,2.4-14-5.8-25.6,5.8-37.2,14-11.6,7-25.6,3.4-39.4,0-18.6-4.6-52.2-10.4-52.2,14,0,5.8,17.4,10.4,20.8,19.8,2.4,5.8,2.4,11.6,8.2,11.6,16.2,3.4,31.4,3.4,40.6,20.8,1.2,3.4,9.2,3.4,12.8,7,1.2,2.4,0,5.8-1.2,8.2-7,10.4-17.4,16.2-24.4,26.6-2.4,4.6-4.6,12.8,2.4,12.8,37.2,1.2,76.6-4.6,109,17.4-11.6,10.4-26.6,16.2-37.2,30.2-16.2,19.8-43-2.4-65,7-2.4,1.2-3.4,4.6-3.4,5.8,2.4,14-11.6,23.2-7,29,15,23.2,48.8,3.4,75.4,8.2,9.8,2,19.6,3.8,29.2,6.6-2.8-3.8-4.8-6.2-4.8-6.2l-1.8-2.2,2.4-1.4c1.4-.8,33.4-20.8,50-23.6,5.2-.8,10-1.8,14.6-2.8,9.8-2,19-4,29.4-4,13.4,0,51,3.2,71.2,5l6.6.6c16.2,1.4,42.2,2.8,47.6,2.8,4.6,0,19-7.8,24.2-13s42.2-50.4,48.8-59.6c6.8-9.8,12.8-18.4,8.6-23.8Z"/><path id="_567" class="cls-3" d="m558.44,375.03c9.2,5.8,15,16.2,24.4,18.6,22,7,38.2,24.4,59.2,31.4,8.2,2,15.6-.4,21-7.4-3-3.8-10.4-14.4-10.4-22s-4-25-9-31.2c-5.2-6.4-21.2-18.6-21.4-18.6l-.6-.6c-4.8-7.4-15.2-25.2-9.6-30.8,3-3,5.2-16.6,5.8-24.4,0-1.2-1.6-35.6-1.6-45.2s-1.4-16.6-8.8-22.4c-2.2-1.8-4.2-3.6-6-5.2-4.8-4.2-8.2-7.2-12-7.2-6.6,0-56.6-3.2-58.6-3.2h-1.2l-.6-1c-1-1.4-2.6-3.6-4.6-6-5.6,15.8-24.2,26.4-34.6,40.2-3.4,5.8,14,14,15,19.8,3.4,15,11.6,31.4,2.4,46.4-4.6,5.8-15.2,3.4-17.4,10.4-4.4,11,9,20,6.4,28.8,9.6,7.6,17.4,18,28.4,24.6,9.4,5,23.4-.8,33.8,5Z"/><path id="_588" class="cls-3" d="m341.44,422.43c2,1.5,5.4,1.9,8.6,1.5,4-.5,7.6-2.3,7.6-4.9,2.4-14-15-22-23.2-34.8-8.2-10.4,14-11.6,10.4-18.6-3.4-11.6-16.2-23.2-27.8-20.8-15.8,1.8-42.6-1.8-53.4-20.8-4.6-7,4.6-11.6,7-18.6,0-2.4,1.2-4.6-1.2-7-9.2-10.4-20.8-15-27.8-26.6-3-3.8-5.2-8.2-7.6-12.6h-.6c-11.6-4.4-22.6-10.4-35-11.6v21.4c0,7.6-7.2,16.6-16.2,20.2-2.6,1-5.2,1.4-7.8,1.2.4,3,1.6,6,3.2,8.6,9.2,12.8,25.6,17.4,33.6,31.4,8.2,12.8,3.4,30.2,17.4,39.4,4.6,3.4,17.4-1.2,18.6,3.4,2.4,12.8,18.6,15,18.6,23.2v1c.4,0,.8.2,1.2.2,28,6.4,50,8.6,74.4,24.8Z"/><path id="_575" class="cls-6" d="m248.64,248.43c18.6-3.4,19.8,19.8,30.2,31.4,9.2,9.2,18.6,17.4,29,22,8.2,3.4,17.4-1.2,24.4,5.8,5.8,5.8,10.4,11.6,16.2,16.2,2.4,1.2,7,2.4,8.2,1.2,10.4-14,24.4-5.8,36,0,11.6,7,18.6-5.8,22-14,4.6-11.6-10.4-16.2-16.2-25.6-1.2-1.2-1.2-4.6,0-5.8,7-5.8,12.8-11.6,17.4-18.6,8.2-8.2-7-14-11.6-22-1.2-3.4,0-7,2.4-8.2,12.8-12.8,7-29-1.2-41.8-2.8-3.4-1.8-6.4.4-8.8-4.2-11.2-7-24-20.2-28.4-18.6-4.6-34.8,5.8-52.2,4.6-15-2.4-31.4-10.4-43-7-15,3.4-7,29-18.6,43-8.2,9.2-24.4,8.2-36,3.4-4.6-2.4-7-10.4-12.8-10.4-7.4-.8-16-2.2-22.8-6.4-1.2,3.6-2.2,6.8-3.6,9-3.6,6-2.6,26.8-1.8,34.2l3.8,21.4v3c12.4,1.4,23.4,7.2,35,11.6,5.8,1.8,9.2-8.6,15-9.8Z"/><g id="G_32"><path id="PATH_33" d="m296.44,101.03c0,1.4-.4,2.4-1.2,3.2-.8.8-2,1-3.2,1-.8,0-1.6-.2-2.2-.8-.6-.6-1-1.2-1-2,0-1,.4-2,1.2-3.4.6-1.2,1.4-2.2,2.2-3,2.8,1.4,4.2,3,4.2,5Zm-1.2.8c0-.6-.4-1.2-1.4-2-.8-.8-1.4-1.2-2.2-1.4-1,1.4-1.6,2.4-1.6,3.2,0,.4.2.8.8,1.2.4.2.8.4,1.4.4.8,0,1.6-.2,2.2-.4.6-.6.8-.8.8-1Z"/><path id="PATH_34" d="m308.64,101.03c0,2.8-1.8,4.2-5.6,4.2-1.4,0-2.4-.2-3-.6-.8-.4-1.2-1.4-1.2-2.6,0-.6.2-1.2.4-1.8.2-.2.2-.4.4-.4s.2.2.2.6v.6c0,.8.4,1.4,1.2,1.6.4.2,1.2.2,2.2.2,3,0,4.4-.4,4.4-1.4,0-1.4-1.8-3.4-5.2-5.8l.6-2c0-.2.2-.2.2-.2,0,0,.2,0,.4.2,3.2,2.6,5,5.2,5,7.4Z"/><path id="PATH_35" d="m316.64,105.23h-1.4c-1.4,0-2.6-.6-3-1.8-.4-.8-.6-2.2-.6-3.8v-3.8c0-1.8-.2-4.4-.4-7.8l1.2-1.4c.2-.2.4-.2.4,0,.2,1.8.4,4.4.4,7.8v5.8c0,1.6.8,2.4,2.4,2.4h1v2.6h0Z"/><path id="PATH_36" d="m321.24,101.23c0,2.6-1.4,4-4,4h-1.6v-2.4h1.4c2,0,3-.4,3-1s-.4-1.4-1.4-2.4l.8-2c0-.2.2-.2.2-.2,0,0,.2.2.4.4.8,1,1.2,2.4,1.2,3.6Zm-.6,8.4l-1.6,1.6-1.6-1.6,1.6-1.6,1.6,1.6Z"/><path id="PATH_37" d="m329.44,83.83c-.8.8-2,1-3.2,1h-1.6c-.2,0-.4.2-.6.4-.2.2-.4.4-.4.4-.2,0-.2-.2-.2-.4s.2-.6.4-1c.2-.6.4-.8.6-.8s.6,0,1.2.2c.6,0,1,.2,1.2.2,1.2,0,2,0,2.6-.2.4,0,.6-.2.6-.2h.2c-.4,0-.6.2-.8.4Zm-1.4,19c0,.8-.2,1.6-.6,2.2-.2.4-.4.6-.4.6,0,0-.2-.2-.2-.8,0-2.4-.4-8-1.2-17l1.6-1.6.2-.2v.4c.6,2.6.6,8,.6,16.4Z"/></g><g id="G_38"><path id="PATH_39" d="m317.64,241.23h-.8c-.8,0-1.4-.2-2-.8-.4-.4-.8-.8-1.2-1.6-.4.8-1,1.4-1.6,1.8-.8.4-1.8.6-3.4.6-2.8,0-4.2-1-4.2-3,0-.6.2-1.4.6-2,.2-.2.2-.4.4-.4s.2.2.2.4v1.2c0,1.2,1,1.8,3,1.8,2.8,0,4.2-.6,4.2-1.6,0-.6-.8-2.8-2.4-6.6l.8-1.6c.2-.2.2-.4.2-.4,0,0,.2.2.2.4.6,1.6,1.6,4,2.8,7.2.6,1.6,1.4,2.4,2.6,2.4h.6v2.2h0Z"/><path id="PATH_40" d="m327.44,241.23h-1.6c-1.8,0-3-.6-3.8-1.8-.6,1.2-2,1.8-4.2,1.8h-1.2v-2.4h1.8c2,0,3-.8,3.2-2.2,0-.6.2-1,.4-1s.4.4.4,1c.2,1.4,1.2,2.2,3,2.2h1.8v2.4h.2Zm-6.6,4.4l-1.6,1.6-1.6-1.6,1.6-1.6,1.6,1.6Zm3.4,0l-1.6,1.6-1.6-1.6,1.6-1.6,1.6,1.6Z"/><path id="PATH_41" d="m334.84,241.23h-.8c-1.8,0-3-.6-3.6-2-.2.6-.6,1-1.2,1.4-.6.4-1.2.6-1.8.6h-.8v-2.4h.8c1.6,0,2.4-.6,2.4-2v-7c0-2.6,0-4.6-.2-6l1.8-1.4v13.4c0,2,.8,3,2.6,3h.8v2.4h0Z"/><path id="PATH_42" d="m342.64,235.63c0,1.8-.2,3-.6,3.6-1,1.4-2.6,2-5.2,2h-2.8v-2.4h2c3.4,0,5.2-.6,5.6-1.6.2-.4,0-.8-.2-1.2-.8.2-1.6.2-2.6.2-1.8,0-2.8-.8-2.8-2.4,0-1,.2-2.2.8-3.2.6-1.2,1.4-1.8,2.4-1.8.8,0,1.6.6,2.2,1.6.8,1.6,1.2,3.2,1.2,5.2Zm-4-11l-1.6,1.6-1.6-1.6,1.6-1.6,1.6,1.6Zm2.4,9.2c0-.6-.2-1.2-.6-1.8s-1-.8-1.6-.8c-.4,0-.8.2-1.2.4s-.4.6-.4,1c0,.8.6,1.2,2,1.2.4.2,1,.2,1.8,0Zm1-9.2l-1.6,1.6-1.6-1.6,1.6-1.6,1.6,1.6Z"/><path id="PATH_43" d="m347.24,238.83c0,.8-.2,1.6-.6,2.2-.2.4-.4.6-.4.6,0,0-.2-.2-.2-.8,0-2.4-.4-8-1.2-17l1.6-1.6.2-.2v.4c.6,2.6.6,8,.6,16.4Z"/></g><g id="G_44"><path id="PATH_45" d="m429.24,276.63h-.8c-.8,0-1.4-.2-2-.8-.4-.4-.8-.8-1.2-1.6-.4.8-1,1.4-1.6,1.8-.8.4-1.8.6-3.4.6-2.8,0-4.2-1-4.2-3,0-.6.2-1.4.6-2,.2-.2.2-.4.4-.4s.2.2.2.4v1.2c0,1.2,1,1.8,3,1.8,2.8,0,4.2-.6,4.2-1.6,0-.6-.8-2.8-2.4-6.6l.8-1.6c.2-.2.2-.4.2-.4,0,0,.2.2.2.4.6,1.6,1.6,4,2.8,7.2.6,1.6,1.4,2.4,2.6,2.4h.6v2.2h0Z"/><path id="PATH_46" d="m439.04,276.63h-1.6c-1.8,0-3-.6-3.8-1.8-.6,1.2-2,1.8-4.2,1.8h-1.2v-2.4h1.8c2,0,3-.8,3.2-2.2,0-.6.2-1,.4-1s.4.4.4,1c.2,1.4,1.2,2.2,3,2.2h1.8v2.4h.2Zm-6.6,4.4l-1.6,1.6-1.6-1.6,1.6-1.6,1.6,1.6Zm3.6,0l-1.6,1.6-1.6-1.6,1.6-1.6,1.6,1.6Z"/><path id="PATH_47" d="m443.84,272.63c0,2.6-1.4,4-4,4h-1.6v-2.4h1.4c2,0,3-.4,3-1s-.4-1.4-1.4-2.4l.8-2c0-.2.2-.2.2-.2,0,0,.2.2.4.4.8,1.2,1.2,2.4,1.2,3.6Zm-.6,8.4l-1.6,1.6-1.6-1.6,1.6-1.6,1.6,1.6Z"/><path id="PATH_48" d="m464.44,272.83c0,.4-.2.8-.6,1.6-.4.8-.8,1.2-1,1.2-.6,0-1.4-.2-2.4-.4s-1.8-.4-2.4-.4c-1,0-1.8.2-2.2.4.4,3.4.6,6,.6,7.6,0,.8-.2,1.6-.8,2.6-.2.2-.2.4-.2.4v-.2c-.2-3.2-.4-6.4-.8-9.6,0-.4.2-.8.6-1.4.4-.4.6-.8,1-1,.4-.4,1-.4,1.6-.4-.2-.6-.2-1-.2-1.4,0-.6.2-1.4.8-2.2.6-.8,1.2-1.2,2-1.2,1,0,2,.6,3,1.6.6.8,1,1.8,1,2.8Zm-1.6.6c-.2-.6-.8-1.4-1.4-2-.8-.8-1.4-1-2.2-1-1,0-1.4.4-1.4,1,0,.4.2.8.4,1.6,1.4-.2,3,0,4.6.4Z"/><path id="PATH_49" d="m477.04,276.63h-.8c-.8,0-1.2-.2-1.6-.4v.6c0,1.8-.6,3.6-1.8,5.4-1,1.6-2,2.2-2.6,2.2-1.6,0-2.8,0-4-.2-.4,0-.6-.2-.6-.2,0,0,.2-.2.6-.2,1.6-.4,3.2-1.2,4.8-2.4,1.6-1.4,2.6-2.8,2.6-4.2,0-.8-.6-2-2-3.4l1-1.8c0-.2.2-.2.2-.2l.2.2c.6.8,1,1.4,1.4,1.6.6.4,1.4.8,2.2.8h.6v2.2h-.2Z"/><path id="PATH_50" d="m492.64,270.83l-.8,1.6c-1.4,0-2.6,0-3.2.2-.8.4-2,.8-3.6,1.6-1.6.8-2.8,1.4-3.6,1.6-1.2.4-2.6.6-3.8.6h-1.4v-2.4h1.6c1.8,0,3.4-.4,4.8-1l4.6-2c-.8-.2-2-.6-3.6-1.2-1.4-.6-2.2-.8-2.6-.8-.8,0-1.6.4-2.4,1q-.2.2-.4.2t-.2-.2v-.2c.6-2,1.8-2.8,3.4-2.8.6,0,1.4.2,2.2.6,1.6.8,2.8,1.2,3.6,1.6,1.4.4,3,.8,4.8.8.4,0,.6,0,.6.2.2.2.2.4,0,.6Zm-5.8-9l-1.6,1.6-1.6-1.6,1.6-1.6,1.6,1.6Z"/></g><g id="G_51"><path id="PATH_52" d="m552.64,310.83c0,1.4-.4,2.6-1.4,3.2-.6.4-1.8.8-3.6,1-2,.4-4,.6-6.2.6-5.2,0-8-1.4-8-4.4,0-1,.4-2,1.2-3,.2-.2.2-.4.4-.4s.2,0,.2.2v.4c-.2.6-.4,1.2-.4,1.8,0,2,2.6,3,7.6,3,2.4,0,4.6-.2,6.2-.4,2-.4,2.8-.8,2.8-1.4,0-.4-.4-1.2-1.4-2.4l1-1.8q.2-.2.4,0c.8,1.2,1.2,2.4,1.2,3.6Zm-10-7.2l-1.6,1.6-1.6-1.6,1.6-1.6,1.6,1.6Zm3.4,0l-1.6,1.6-1.6-1.6,1.6-1.6,1.6,1.6Z"/><path id="PATH_53" d="m560.64,315.23h-1.4c-1.4,0-2.6-.6-3-1.8-.4-.8-.6-2.2-.6-3.8v-3.8c0-1.8-.2-4.4-.4-7.8l1.2-1.4c.2-.2.4-.2.4,0,.2,1.8.4,4.4.4,7.8v5.8c0,1.6.8,2.4,2.4,2.4h1v2.6h0Z"/><path id="PATH_54" d="m565.24,311.23c0,2.6-1.4,4-4,4h-1.6v-2.4h1.4c2,0,3-.4,3-1s-.4-1.4-1.4-2.4l.8-2c0-.2.2-.2.2-.2,0,0,.2.2.4.4.8,1,1.2,2.4,1.2,3.6Zm0-9l-1.6,1.6-1.6-1.6,1.6-1.6,1.6,1.6Z"/><path id="PATH_55" d="m570.04,312.83c0,.8-.2,1.6-.6,2.2-.2.4-.4.6-.4.6,0,0-.2-.2-.2-.8,0-2.4-.4-8-1.2-17l1.6-1.6.2-.2v.4c.4,2.6.6,8,.6,16.4Z"/><path id="PATH_56" d="m582.44,315.23h-2.2c-.2,2.8-1.2,5-3.2,7-.6.6-1,1-1.2,1-1,0-2.4-.2-3.8-.4-.4,0-.8-.2-.8-.2,0,0,.2-.2.8-.4,1.6-.4,3.2-1.4,4.6-2.4.6-.6,1.2-1,1.6-1.8.6-.8,1-1.6,1-2.2v-.6h-2.6c-2,0-2.8-.8-2.8-2.4,0-1,.2-2,.8-3.2s1.4-2,2.2-2c1,0,1.8.6,2.4,2,.4,1,.8,2,.8,3.2h2.2v2.4h.2Zm-3.6-2.4c0-.6-.2-1.2-.6-1.8-.4-.8-1-1-1.6-1-.4,0-.8.2-1,.4-.2.2-.4.6-.4,1.2,0,1,.8,1.4,2.4,1.4.2,0,.6-.2,1.2-.2Z"/><path id="PATH_57" d="m587.24,311.23c0,2.6-1.4,4-4,4h-1.6v-2.4h1.4c2,0,3-.4,3-1s-.4-1.4-1.4-2.4l.8-2c0-.2.2-.2.2-.2,0,0,.2.2.4.4.8,1,1.2,2.4,1.2,3.6Zm-.6,8.4l-1.6,1.6-1.6-1.6,1.6-1.6,1.6,1.6Z"/></g><g id="G_58"><path id="PATH_59" d="m234.84,334.83c-.2.6-.4,1.2-.6,1.6-.4.6-.8,1.2-1.4,1.8-1.2,1.2-2.6,1.6-4.6,1.6-1.6,0-3.4-.4-5-1.2-1.6-.8-2.6-1.8-3.2-3-.6-1.4-.6-2.8.2-4.4.4-.8,1-1.6,1.8-2.4.6-.6,1.2-.8,1.6-1.2.2-.2.4-.2.6,0,.2,0,.2.2,0,.2l-.2.2c-1,.8-1.8,1.6-2.2,2.6-.4.8-.6,1.8-.2,2.8.4,1.2,1.4,2.2,2.8,3,1.8.8,3.4,1.4,5.2,1.4,1.4,0,2.4-.2,3-.6.2-.2.4-.4.6-.6.2-.4.4-1.2.6-2,0-.6,0-1.8-.2-3.6l1.4-1c.2-.2.4-.2.4-.2,0,0,0,.2.2.4-.2,1.6-.4,3.2-.8,4.6Zm-1.4-10.2l-2.2.6-.8-2.2,2.2-.8.8,2.4Z"/><path id="PATH_60" d="m240.04,335.03c-.4.8-.8,1.4-1.4,1.8-.4.2-.6.4-.6.4,0,0,0-.2.2-.8,1-2,3.2-7.4,6.4-15.8l2.2-.6h.4v.4c-1.2,2.4-3.4,7.4-7.2,14.6Z"/><path id="PATH_61" d="m253.04,344.23l-.8-.4c-.6-.4-1.2-.8-1.4-1.4-.2-.4-.2-1-.4-2-.8.6-1.6.8-2.2.8-.8,0-2-.2-3.2-.8-2.6-1.2-3.4-2.8-2.4-4.6.2-.6.8-1.2,1.4-1.6.2-.2.4-.2.6-.2s.2.2,0,.4c0,.2-.2.2-.2.4-.2.2-.2.4-.2.4-.6,1,.2,2,2,3,2.6,1.2,4,1.4,4.6.4.2-.6.4-2.8.6-7l1.4-1c.2-.2.4-.2.4-.2v.4c-.2,1.8-.4,4.2-.8,7.6-.2,1.8.2,2.8,1.2,3.4l.6.2-1.2,2.2Z"/><path id="PATH_62" d="m254.04,349.63l-2,.8-.8-2,2-.8.8,2Zm7.8-1l-1.4-.6c-1.6-.8-2.4-2-2.6-3.2-1.2.8-2.6.8-4.6-.2l-1.2-.6,1-2,1.6.8c1.8.8,3,.6,3.8-.6.4-.6.6-.8.8-.6s.2.4,0,1c-.6,1.4,0,2.6,1.8,3.4l1.6.8-.8,1.8Zm-4.8,2.6l-2,.8-.8-2,2-.8.8,2Z"/><path id="PATH_63" d="m260.24,352.23l2-.6.6,2-2,.6-.6-2Zm.2,3.6l2-.6.6,2-2,.6-.6-2Zm10.2-2.8l-1.4-.6c-1.6-.8-2.4-2-2.6-3.2-1.2.8-2.6.8-4.6-.2l-1.2-.6,1-2,1.6.8c1.8.8,3,.6,3.8-.6.4-.6.6-.8.8-.6.2.2.2.4,0,1-.6,1.4,0,2.6,1.8,3.4l1.6.8-.8,1.8Zm-7.2.8l2-.6.6,2-2,.6-.6-2Z"/><path id="PATH_64" d="m286.64,356.23c-.6,1-1.2,1.8-2,2.2-1,.6-2,.6-3,0-1.2-.6-1.8-1.6-1.8-2.8-1.2.6-2.2.8-3.2.2-1.4-.6-2-1.6-1.8-2.8-1.2.6-2.4.6-3.6.2l-1.2-.6,1-2,1.4.8c1.2.6,2.4.4,3.4-1,.2-.4.4-.4.6-.4s.2.4,0,.6c-.6,1.4-.2,2.6,1.2,3.2.8.4,1.4.4,2,.2.4-.2.8-.6,1.2-1.2.2-.4.4-.4.6-.4s.2.2,0,.6c-.6,1.6-.2,2.6,1,3.2,1.4.6,2.2.6,2.6,0,.2-.6.2-1.4,0-2.6l1.6-1.2c.2-.2.4-.2.4-.2,0,0,0,.2.2.6,0,1.6-.2,2.6-.6,3.4Z"/></g><g id="G_65"><path id="PATH_66" d="m347.44,349.23l-.6-.4c-.8-.6-1.2-1.2-1.6-1.8-.2-.8-.2-1.6.4-2.2-3,.4-6.4-.6-10.2-3.2-4-2.6-5.2-5.2-3.4-7.6.6-.8,1.4-1.4,2.6-1.8h.6c.2,0,.2.2,0,.4l-.2.2c-.6.4-1,.8-1.4,1.2-1.2,1.6.2,3.6,3.6,6.2,4.2,2.8,7.6,3.8,10.2,3,.6-.2.8-.2,1-.2s0,.2,0,.4-.2.4-.6.6c-.2.2-.4.4-.6.6-.6.8-.4,1.8,1,2.6l.6.4-1.4,1.6Zm-3.8-16.6l-2.2.4-.4-2.2,2.2-.4.4,2.2Zm3,1.8l-2.2.4-.4-2.2,2.2-.4.4,2.2Z"/><path id="PATH_67" d="m355.64,354.83l-1.2-.8c-1.6-1-2.2-2.2-2-3.6-1.2.6-2.8.4-4.4-.8l-1-.8,1.2-2,1.4,1c1.6,1,3,1,4,0,.4-.4.6-.6.8-.4s.2.4-.2,1c-.8,1.4-.4,2.6,1.2,3.6l1.4,1-1.2,1.8Zm.8-13.6l-2.2.4-.4-2.2,2.2-.4.4,2.2Zm3,2l-2.2.4-.4-2.2,2.2-.4.4,2.2Z"/><path id="PATH_68" d="m371.04,360.03c-.6,1-1.4,1.6-2.4,2s-2,.2-3-.4c-1.2-.8-1.6-1.8-1.4-3-1.2.6-2.4.4-3.2-.2-1.2-.8-1.8-1.8-1.4-3-1.2.4-2.4.4-3.6-.4l-1.2-.8,1.2-2,1.4.8c1.2.8,2.4.6,3.4-.6.2-.2.4-.4.6-.2.2,0,.2.4,0,.6-.8,1.4-.4,2.4.8,3.4.8.6,1.4.6,2,.4.4-.2.8-.4,1.4-1,.2-.2.4-.4.6-.2.2.2.2.4,0,.6-.8,1.4-.6,2.6.6,3.4,1.2.8,2,1,2.4.4.4-.4.4-1.4.4-2.6l1.8-1c.2-.2.4-.2.4-.2v.6c0,1.6-.2,2.8-.8,3.4Zm-1.4-9.8l-2,.4-.4-2,2-.4.4,2Zm2.8,2l-2,.4-.4-2,2-.4.4,2Zm.4-3.6l-2,.4-.4-2,2-.4.4,2Z"/><path id="PATH_69" d="m381.24,367.03c-1.6,2.4-3.8,2.4-7,.4-1.2-.8-1.8-1.4-2.2-2.2-.4-.8-.2-1.8.4-2.8.4-.4.8-1,1.4-1.2.2-.2.4-.2.6-.2s0,.2-.2.6c-.2.2-.2.4-.4.4-.4.6-.4,1.4,0,2,.2.4.8.8,1.6,1.4,2.4,1.6,3.8,2,4.4,1.4.8-1.2.4-3.8-1-7.8l1.6-1.4q.2-.2.4-.2s.2.2.2.4c1.4,4.4,1.4,7.4.2,9.2Z"/><path id="PATH_70" d="m387.84,375.63c-1.6,2.4-4,4-6.8,4.6-1,.2-1.4.2-1.6.2-1-.6-2-1.4-3-2.4-.4-.4-.6-.6-.6-.6,0,0,.4,0,.8.2,1.6.6,3.4.6,5.2.4.8,0,1.6-.2,2.4-.6,1-.4,1.6-.8,2-1.2l.4-.6-2.2-1.4c-1.6-1-1.8-2.2-1-3.4.6-.8,1.4-1.6,2.6-2.2,1.2-.6,2.2-.8,3-.4,1,.8,1.4,2,.8,3.6-.6,1.2-1.2,2.6-2,3.8Zm-.4-2.2c.4-.6.6-1.2.4-1.8,0-.8-.4-1.4-.8-1.6s-.8-.4-1.2-.2c-.4,0-.8.4-1,.6-.6.8-.2,1.6.8,2.2.6.2,1.2.4,1.8.8Z"/><path id="PATH_71" d="m397.64,383.23l-.6-.4c-.6-.4-1-.8-1.2-1.2-.2.2-.2.4-.4.6-1,1.6-2.6,2.8-4.6,3.4-1.8.6-2.8.8-3.4.4-1.2-.8-2.2-1.6-3.2-2.4-.2-.2-.4-.4-.4-.6s.2,0,.6,0c1.4.6,3.2.8,5.2.6,2.2-.2,3.6-.8,4.4-2,.4-.8.6-2,.2-4l1.8-1c.2,0,.2-.2.2-.2v.4c0,1,.2,1.8.2,2.2.2.8.8,1.4,1.4,1.8l.6.4-.8,2Z"/><path id="PATH_72" d="m408.04,385.63c-.4.8-1,1.4-1.6,1.8-1,.6-1.8.8-2.2.4-.8-.6-1.8-2-2.6-4.2-1,.2-1.6.4-1.8.4-.6,0-1.4-.2-2-.6l-.8-.6,1.2-2,1.2.8c.8.6,1.6.6,2.8.2.6-.2,1.6-.6,3-1.2,1-.4,1.8-.4,2.4,0,.8.6,1.2,1.4,1.2,2.6-.2,1-.4,1.8-.8,2.4Zm-1.8.6c.4-.4.6-1.2.6-2,0-1-.2-1.6-.6-1.8-.4-.4-1.4-.2-2.8.4,0,.4.4,1.2.8,2,.6.8,1,1.4,1.4,1.6.2,0,.4,0,.6-.2Z"/></g><g id="G_73"><path id="PATH_74" d="m116.24,372.23h-4.6c-.6,0-1.2,0-1.6.2-.8.2-1,.6-1,1,0,.2,1,.4,2.8.8,2,.4,2.8.8,2.8,1.2,0,1.6-.4,2.8-1.4,3.6-1.6,1.4-4.2,2-8,2-4.6,0-7-1.8-7-5.2,0-.8.2-1.6.6-2.6.4-1,.8-1.8,1.2-2.4.2-.2.4-.4.6-.4s.2,0,.2.2,0,.4-.2.6c-.6,1.2-1,2.4-1,3.6,0,1.4.6,2.4,2,3,1,.6,2.2.8,3.8.8s3,0,4.4-.2c2.4-.4,3.6-.8,3.6-1.6,0-.4-.6-.6-1.6-.8-1.6-.2-2.6-.4-3-.6-1-.2-1.6-.8-1.6-1.4,0-.4.2-1,.8-1.8.4-.6.8-1,1.4-1.4,1-.8,2.2-1.2,4-1.2h2.8v2.6Z"/><path id="PATH_75" d="m126.04,372.23h-1.6c-1.8,0-3-.6-3.8-1.8-.6,1.2-2,1.8-4.2,1.8h-1.2v-2.4h1.8c2,0,3-.8,3.2-2.2,0-.6.2-1,.4-1s.4.4.4,1c.2,1.4,1.2,2.2,3,2.2h1.8v2.4h.2Zm-4-10.2l-1.6,1.6-1.6-1.6,1.6-1.6,1.6,1.6Z"/><path id="PATH_76" d="m144.44,372.23h-1.2c-1.4,0-2.2-.6-2.8-1.6-.4,1.2-1.4,1.6-2.6,1.6s-2-.6-2.6-1.6c-.6,1.2-1.4,1.6-2.6,1.6-1.4,0-2.4-.6-3-1.6-.8,1.2-1.8,1.6-3.2,1.6h-1.2v-2.4h1.6c1.4,0,2.4-.8,2.6-2.4,0-.4.2-.6.4-.6s.2.2.4.6c.2,1.6,1,2.4,2.6,2.4,1.4,0,2.4-.8,2.4-2.4,0-.4.2-.6.4-.6s.4.2.4.6c.2,1.6,1,2.4,2,2.4,1.4,0,2.4-.8,2.4-2.4,0-.4.2-.6.4-.6s.4.2.4.6c.2,1.6,1,2.4,2.4,2.4h1.2v2.4h-.4Z"/><path id="PATH_77" d="m158.84,372.23h-1.2c-1,0-2-.6-2.8-1.6-.6,1.6-1.2,2.4-1.8,2.4s-1.6-.4-2.8-1c-1-.6-1.8-1.2-2.2-1.6-1,1.2-2,1.8-3,1.8h-1.2v-2.4h1.2c1,0,1.8-.4,2.6-1.2.6-.6,1.2-1.4,2-2.2.8-.8,1.4-1.2,2-1.2.8,0,1.4.4,2,1.2.4.4.8,1.2,1.8,2.2.6.8,1.4,1.2,2.2,1.2h1.2v2.4Zm-5.4-1.6c0-.6-.2-1.2-.6-2-.4-.8-1-1.2-1.8-1.2-.6,0-1.4.6-2.2,1.6.2.2.8.6,1.8,1.2s1.8.8,2.4.8c.2,0,.2-.2.4-.4Z"/><path id="PATH_78" d="m168.64,368.23c0,1,0,1.8-.4,2.6-.4,1-1,1.6-1.6,1.6-1,0-2.6-.6-4.6-2-.6.8-1,1.2-1.2,1.4-.6.4-1.2.6-2,.6h-1v-2.4h1.4c.8,0,1.6-.4,2.4-1.4.4-.4,1-1.4,1.8-2.6.6-1,1.4-1.4,2-1.4,1,0,1.8.4,2.4,1.4.6.8.8,1.6.8,2.2Zm-1.2,1.6c0-.6-.2-1.2-.6-2-.4-.8-1-1.2-1.6-1.2s-1.2.6-2,1.8c.4.4,1,.8,1.8,1.2.8.4,1.6.6,2,.6.2,0,.4-.2.4-.4Z"/></g><g id="G_79"><path id="PATH_80" d="m291.84,476.23c0,2-.6,3.8-1.8,5.6-1,1.4-2,2.2-2.6,2.2-1.6,0-2.8,0-4-.2-.4,0-.6-.2-.6-.2,0,0,.2-.2.6-.2,1.6-.4,3.2-1.2,4.8-2.4,1.6-1.4,2.6-2.8,2.6-4.2,0-.8-.6-2-2-3.4l1-1.8c0-.2.2-.2.2-.2l.2.2c.4.6,1,1.4,1.2,2.4.2.6.4,1.6.4,2.2Zm-1.4-10.6l-1.6,1.6-1.6-1.6,1.6-1.6,1.6,1.6Z"/><path id="PATH_81" d="m296.64,473.63c0,.8-.2,1.6-.6,2.2-.2.4-.4.6-.4.6,0,0-.2-.2-.2-.8,0-2.4-.4-8-1.2-17l1.6-1.6.2-.2v.4c.4,2.8.6,8.2.6,16.4Z"/><path id="PATH_82" d="m309.04,476.03h-.8c-.8,0-1.2-.2-1.6-.4v.6c0,1.8-.6,3.6-1.8,5.4-1,1.6-2,2.2-2.6,2.2-1.6,0-2.8,0-4-.2-.4,0-.6-.2-.6-.2,0,0,.2-.2.6-.2,1.6-.4,3.2-1.2,4.8-2.4,1.6-1.4,2.6-2.8,2.6-4.2,0-.8-.6-2-2-3.4l1-1.8c0-.2.2-.2.2-.2l.2.2c.6.8,1,1.4,1.4,1.6.6.4,1.4.8,2.2.8h.6v2.2h-.2Z"/><path id="PATH_83" d="m318.84,476.03h-1.6c-1.8,0-3-.6-3.8-1.8-.6,1.2-2,1.8-4.2,1.8h-1.2v-2.4h1.8c2,0,3-.8,3.2-2.2,0-.6.2-1,.4-1s.4.4.4,1c.2,1.4,1.2,2.2,3,2.2h1.8v2.4h.2Zm-6.6,4.4l-1.6,1.6-1.6-1.6,1.6-1.6,1.6,1.6Zm3.6,0l-1.6,1.6-1.6-1.6,1.6-1.6,1.6,1.6Z"/><path id="PATH_84" d="m334.64,471.83c0,1.2-.2,2.2-.8,3s-1.6,1.4-2.6,1.4c-1.4,0-2.2-.6-2.8-1.6-.8,1.2-1.6,1.6-2.8,1.6-1.4,0-2.4-.6-3-1.6-.8,1.2-1.8,1.6-3.2,1.6h-1.4v-2.4h1.6c1.4,0,2.4-.8,2.6-2.4,0-.4.2-.6.4-.6s.2.2.4.6c.2,1.6,1,2.4,2.6,2.4.8,0,1.6-.2,2-.6.2-.4.4-.8.6-1.6,0-.4.2-.6.4-.6s.2.2.4.6c.2,1.6,1,2.4,2.4,2.4,1.6,0,2.2-.4,2.2-1s-.4-1.4-1.2-2.2l1-1.8c.2-.2.2-.4.4-.4s.2.2.4.4c.2.8.4,2,.4,2.8Zm-6.8-7.4l-1.4,1.4-1.4-1.4,1.4-1.4,1.4,1.4Zm1.8-3l-1.4,1.4-1.4-1.4,1.4-1.4,1.4,1.4Zm1.8,3.2l-1.4,1.4-1.4-1.4,1.4-1.4,1.4,1.4Z"/></g><g id="G_85"><path id="PATH_86" d="m177.84,505.63c.2.6.2,1.2.2,1.8,0,.8-.2,1.4-.4,2.2-.6,1.4-1.6,2.6-3.6,3.4-1.6.6-3.2,1-5,1s-3.2-.4-4.4-1.2c-1.2-1-1.8-2.2-1.8-4,0-1,.2-1.8.6-3,.4-.8.6-1.4,1-1.8.2-.2.4-.2.4-.2q.2,0,.2.2v.4c-.6,1.2-.8,2.4-.8,3.4s.4,1.8,1,2.6c.8,1,2.2,1.4,4,1.4,2,0,3.8-.4,5.2-1,1.2-.6,2-1.2,2.4-2,.2-.2.2-.6.2-.8,0-.6-.2-1.2-.4-2-.2-.6-.8-1.6-1.8-3.2l.8-1.6c.2-.2.2-.4.2-.4,0,0,.2,0,.2.2,1,1.6,1.6,3,1.8,4.6Zm-5.8-8.6l-1.6,1.6-1.6-1.6,1.6-1.6,1.6,1.6Z"/><path id="PATH_87" d="m188.44,505.03c0,3-1,5.6-3,7.6-.6.6-1,1-1.2,1-1.2,0-2.4-.2-3.8-.4-.6,0-.8-.2-.8-.2,0,0,.2-.2.8-.4,1.6-.4,3.2-1.4,4.6-2.6.6-.6,1.2-1,1.6-1.8.6-.8,1-1.6,1-2.2v-.6h-2.6c-1.8,0-2.8-.8-2.8-2.2,0-1,.2-2,.8-3.2s1.4-2,2.2-2c1.2,0,2.2.8,2.8,2.6,0,1.6.4,3,.4,4.4Zm-1.6-1.6c0-.6-.2-1.2-.6-1.8-.4-.6-1-1-1.6-1-.4,0-.8.2-1,.4-.4.4-.4.6-.4,1,0,1,.6,1.4,2,1.4.2.2,1,.2,1.6,0Z"/><path id="PATH_88" d="m198.44,506.03c0,2-.6,3.8-1.8,5.6-1,1.4-2,2.2-2.6,2.2-1.6,0-2.8,0-4-.2-.4,0-.6-.2-.6-.2,0,0,.2-.2.6-.2,1.6-.4,3.2-1.2,4.8-2.4,1.6-1.4,2.6-2.8,2.6-4.2,0-.8-.6-2-2-3.4l1-1.8c0-.2.2-.2.2-.2l.2.2c.4.6,1,1.4,1.2,2.4.2.8.4,1.6.4,2.2Z"/><path id="PATH_89" d="m208.64,506.03c0,2-.6,3.8-1.8,5.6-1,1.4-2,2.2-2.6,2.2-1.6,0-2.8,0-4-.2-.4,0-.6-.2-.6-.2,0,0,.2-.2.6-.2,1.6-.4,3.2-1.2,4.8-2.4,1.6-1.4,2.6-2.8,2.6-4.2,0-.8-.6-2-2-3.4l1-1.8c0-.2.2-.2.2-.2l.2.2c.4.6,1,1.4,1.2,2.4,0,.8.4,1.6.4,2.2Zm-1.6-10.6l-1.6,1.6-1.6-1.6,1.6-1.6,1.6,1.6Z"/><path id="PATH_90" d="m216.44,506.03h-1.2c-1.4,0-2.6-.6-3-1.8-.4-.8-.6-2.2-.6-3.8v-3.8c0-1.8-.2-4.4-.4-7.8l1.2-1.4c.2-.2.4-.2.4,0,.2,1.8.4,4.4.4,7.8v5.8c0,1.6.8,2.4,2.4,2.4h1v2.6h-.2Z"/><path id="PATH_91" d="m228.84,487.43c0,.4-.4,1.2-.8,2.2l-5,1.6c-2.2.8-3.8,1.4-4.6,1.8,1.6,1.6,2.6,2.8,3.2,3.4,1,1.4,1.6,2.6,1.8,4,0,1,0,2-.4,2.8-.6,1.8-2.8,2.6-6.2,2.6h-1v-2.4h1.2c1.6,0,2.8,0,3.4-.2,1.4-.4,2.2-1,2.2-2,0-1.4-1-3-3.2-5l-.2.4c-.2-.2-.6-.6-1-1.2-.6-.6-.8-1.2-.8-1.2,0-.4,0-.8.2-1.6.2-.8.4-1.2.6-1.4.2-.2,1.6-.8,4.2-1.6,2.2-1,4.6-1.8,6.4-2.2Z"/></g><g id="G_92"><path id="PATH_93" d="m515.44,433.83c.2.6.2,1.2.2,1.8,0,.8-.2,1.4-.4,2.2-.6,1.4-1.6,2.6-3.6,3.4-1.6.6-3.2,1-5,1s-3.2-.4-4.4-1.2c-1.2-1-1.8-2.2-1.8-4,0-1,.2-1.8.6-3,.4-.8.6-1.4,1-1.8.2-.2.4-.2.4-.2q.2,0,.2.2v.4c-.6,1.2-.8,2.4-.8,3.4s.4,1.8,1,2.6c.8,1,2.2,1.4,4,1.4,2,0,3.8-.4,5.2-1,1.2-.6,2-1.2,2.4-2,.2-.2.2-.6.2-.8,0-.6-.2-1.2-.4-2-.2-.6-.8-1.6-1.8-3.2l.8-1.6c.2-.2.2-.4.2-.4,0,0,.2,0,.2.2,1,1.4,1.6,3,1.8,4.6Zm-5.8-8.8l-1.6,1.6-1.6-1.6,1.6-1.6,1.6,1.6Z"/><path id="PATH_94" d="m523.64,434.03h-1.4c-1.4,0-2.6-.6-3-1.8-.4-.8-.6-2.2-.6-3.8v-3.8c0-1.8-.2-4.4-.4-7.8l1.2-1.4c.2-.2.4-.2.4,0,.2,1.8.4,4.4.4,7.8v5.8c0,1.6.8,2.4,2.4,2.4h1v2.6h0Z"/><path id="PATH_95" d="m541.24,434.03h-2c-2.6,0-4-1.4-4-4v-1c-1,.4-2.2,1.2-3.8,2.2s-2.6,1.6-3.4,2c-1.2.6-2.6.8-3.8.8h-1.4v-2.4h1.6c1.6,0,3.4-.4,5-1.2.8-.4,2.2-1.2,4.4-2.2-.4,0-1.6-.4-3.6-.8-1.4-.4-2.2-.6-2.4-.6-.8,0-1.6.4-2.4,1q-.2.2-.4.2t-.2-.2v-.2c.6-2,1.8-3,3.4-3,.6,0,1.4.2,2.4.4,1.4.4,2.6.8,3.6,1,1.4.2,3,.4,4.8.4h.6v.4l-.6,1.8c-1.2,0-2,0-2.4.2,0,1,.2,1.6.4,1.8.4.6,1.2,1,2.6,1h2v2.4h-.4Zm-7.6,4.2l-1.6,1.6-1.6-1.6,1.6-1.6,1.6,1.6Z"/><path id="PATH_96" d="m550.84,434.03h-1.6c-1.8,0-3-.6-3.8-1.8-.6,1.2-2,1.8-4.2,1.8h-1.2v-2.4h1.8c2,0,3-.8,3.2-2.2,0-.6.2-1,.4-1s.4.4.4,1c.2,1.4,1.2,2.2,3,2.2h1.8v2.4h.2Zm-3.8-10.2l-1.6,1.6-1.6-1.6,1.6-1.6,1.6,1.6Z"/><path id="PATH_97" d="m566.64,429.83c0,1.2-.2,2.2-.8,3s-1.6,1.4-2.6,1.4c-1.4,0-2.2-.6-2.8-1.6-.8,1.2-1.6,1.6-2.8,1.6-1.4,0-2.4-.6-3-1.6-.8,1.2-1.8,1.6-3.2,1.6h-1.4v-2.4h1.6c1.4,0,2.4-.8,2.6-2.4,0-.4.2-.6.4-.6s.2.2.4.6c.2,1.6,1,2.4,2.6,2.4.8,0,1.6-.2,2-.6.2-.4.4-.8.6-1.6,0-.4.2-.6.4-.6s.2.2.4.6c.2,1.6,1,2.4,2.4,2.4,1.6,0,2.2-.4,2.2-1s-.4-1.4-1.2-2.2l1-1.8c.2-.2.2-.4.4-.4s.2.2.4.4c.2.8.4,1.8.4,2.8Z"/><path id="PATH_98" d="m576.84,434.23c0,2-.6,3.8-1.8,5.6-1,1.4-2,2.2-2.6,2.2-1.6,0-2.8,0-4-.2-.4,0-.6-.2-.6-.2,0,0,.2-.2.6-.2,1.6-.4,3.2-1.2,4.8-2.4,1.6-1.4,2.6-2.8,2.6-4.2,0-.8-.6-2-2-3.4l1-1.8c0-.2.2-.2.2-.2l.2.2c.4.6,1,1.4,1.2,2.4.2.6.4,1.6.4,2.2Z"/><path id="PATH_99" d="m581.64,431.63c0,.8-.2,1.6-.6,2.2-.2.4-.4.6-.4.6,0,0-.2-.2-.2-.8,0-2.4-.4-8-1.2-17l1.6-1.6.2-.2v.4c.4,2.8.6,8.2.6,16.4Z"/></g><g id="G_100"><path id="PATH_101" d="m451.04,368.63c0,2.4-1.6,3.6-4.8,3.6-1.2,0-2-.2-2.6-.4-.8-.4-1-1.2-1-2.2,0-.6.2-1,.4-1.6.2-.2.2-.4.4-.4s.2.2.2.4v.6c0,.8.4,1.2,1,1.4.4.2,1,.2,2,.2,2.6,0,3.8-.4,3.8-1.2,0-1.2-1.4-3-4.4-5.2l.6-1.8c0-.2.2-.2.2-.2,0,0,.2,0,.4.2,2.4,2.4,3.8,4.6,3.8,6.6Z"/><path id="PATH_102" d="m458.04,372.23h-1.2c-1.4,0-2.2-.6-2.8-1.6-.4-.8-.6-1.8-.6-3.4v-3.4c0-1.6-.2-3.8-.4-6.8l1-1.2c.2-.2.4-.2.4,0,.2,1.6.4,3.8.4,7v5.2c0,1.4.6,2.2,2,2.2h1v2h.2Z"/><path id="PATH_103" d="m468.44,358.03c0,.2-.2,1-.6,2-2.2.6-4.6,1.4-7.8,2.4,2.2,2,3.4,3.8,3.6,5.2.2,1,0,1.8-.4,2.6-.4.8-1,1.4-1.8,1.8-.8.2-2,.4-3.6.4h-.6v-2h.6c3.4,0,5-.6,5-1.8,0-1-1-2.2-2.8-4l-.2.4c-.2-.2-.6-.4-1-1s-.8-1-.8-1c0-.6.2-1.2.6-1.6,0-.2,1.2-.6,3.4-1.2,2.6-1,4.8-1.6,6.4-2.2Zm-.4-2.6l-.4,1.2-8.6,2.8.4-1.2,8.6-2.8Z"/><path id="PATH_104" d="m476.84,372.43c0,1.8-.6,3.4-1.6,4.8-1,1.2-1.8,2-2.4,2-1.4,0-2.4,0-3.4-.2-.4,0-.4-.2-.4-.2,0,0,.2-.2.4-.2,1.4-.2,2.8-1,4.2-2.2s2.2-2.4,2.2-3.6c0-.8-.6-1.8-1.8-3l.8-1.6c0-.2.2-.2.2-.2,0,0,.2,0,.2.2.4.6.8,1.2,1.2,2,.2.8.4,1.6.4,2.2Z"/><path id="PATH_105" d="m483.84,372.23h-1.2c-1.4,0-2.2-.6-2.8-1.6-.4-.8-.6-1.8-.6-3.4v-3.4c0-1.6-.2-3.8-.4-6.8l1-1.2c.2-.2.4-.2.4,0,.2,1.6.4,3.8.4,7v5.2c0,1.4.6,2.2,2,2.2h1v2h.2Z"/><path id="PATH_106" d="m497.64,368.63c0,1-.2,2-.8,2.6-.6.8-1.4,1.2-2.4,1.2-1.2,0-2-.4-2.6-1.4-.6,1-1.4,1.4-2.4,1.4-1.2,0-2.2-.4-2.6-1.4-.6,1-1.6,1.4-2.8,1.4h-.8v-2h1.4c1.2,0,2-.6,2.2-2,0-.4.2-.6.4-.6s.2.2.2.6c.2,1.4.8,2,2.2,2,.8,0,1.4-.2,1.6-.6.2-.2.4-.8.4-1.4,0-.4.2-.6.2-.6.2,0,.2.2.4.4.2,1.4.8,2,2.2,2s2-.4,2-1-.4-1.2-1-2l.8-1.4c.2-.2.2-.4.2-.4,0,0,.2.2.4.4.6,1,.8,2,.8,2.8Z"/><path id="PATH_107" d="m504.64,372.23h-1.2c-1.4,0-2.2-.6-2.8-1.6-.4-.8-.6-1.8-.6-3.4v-3.4c0-1.6-.2-3.8-.4-6.8l1-1.2c.2-.2.4-.2.4,0,.2,1.6.4,3.8.4,7v5.2c0,1.4.6,2.2,2,2.2h1v2h.2Z"/><path id="PATH_108" d="m508.84,368.83c0,2.4-1.2,3.4-3.4,3.4h-1.4v-2h1.2c1.8,0,2.6-.4,2.6-1,0-.4-.4-1.2-1.2-2.2l.8-1.8c0-.2.2-.2.2-.2,0,0,.2.2.2.4.6,1.2,1,2.2,1,3.4Zm-4.2,6.8l1.4-1.2,1.2,1.2-1.2,1.2-1.4-1.2Zm1.6,2.8l1.2-1.2,1.2,1.2-1.2,1.2-1.2-1.2Zm1.6-2.8l1.2-1.2,1.4,1.2-1.2,1.2-1.4-1.2Z"/></g><g id="G_109"><path id="PATH_110" d="m107.64,286.23l-.4-.8c-.6-1-.8-2-.8-2.8-.2.2-.4.4-.8.6-1.8,1-3,1-3.8-.2-.6-1-.4-2,.2-3.2.6-1,1.4-1.8,2.6-2.4.2-.2.4-.2.6-.4,0-.2-.2-.4-.2-.6-.6-1.2-1.4-1.8-2.4-2-2.6,2-4.6,3.4-6,4.2-.6.4-1.6.6-2.8.8h-.6s.2-.2.6-.6l7.6-5.6c.4-.2,1-.4,1.8-.2.8,0,1.4.2,1.8.4s.8.4,1.2,1c.4.4.8,1,1,1.2l.2.2,1.2-.4h.4v.4c-.4,2.2-.6,3.6-.8,4.4,0,1.4.2,2.6.6,3.4l.6,1-1.8,1.6Zm-2.2-4c.4-.2.8-1,1-2,0-.2.2-1.2.6-3-.4.2-.8.4-1,.6-.8.4-1.4,1-1.8,1.6-.6.8-.6,1.6-.2,2.4.2.6.8.8,1.4.4Z"/><path id="PATH_111" d="m112.64,294.63l-.8-1.4c-1-1.6-1-3-.4-4.2-1.4,0-2.6-.8-3.6-2.6l-.6-1.2,2-1.2,1,1.6c1,1.6,2.2,2.2,3.6,1.6.6-.2.8-.2,1,0s0,.4-.6.8c-1.2.8-1.4,2.2-.4,3.8l.8,1.6-2,1.2Zm6.6-11.8l-2.2-.6.6-2.2,2.2.6-.6,2.2Zm1.6,3l-2.2-.6.6-2,2.2.6-.6,2Z"/><path id="PATH_112" d="m124.24,306.03c-1,.6-2,.8-3,.8s-2-.6-2.4-1.6c-.6-1.2-.6-2.2,0-3.4-1.4,0-2.2-.6-2.8-1.6-.8-1.2-.8-2.4,0-3.4-1.4,0-2.4-.8-3-1.8l-.8-1.2,2-1.2.8,1.4c.8,1.2,1.8,1.6,3.4,1,.4-.2.6-.2.6,0s0,.4-.4.6c-1.2,1-1.6,2-.8,3.4.4.8,1,1.2,1.6,1.2.4,0,1,0,1.8-.4.4-.2.6-.2.6,0s0,.4-.4.6c-1.2,1-1.6,2-.8,3.2.8,1.4,1.4,1.8,2,1.4.4-.2,1-1,1.4-2.2h2.6s0,.2-.2.6c-.6,1.4-1.4,2.2-2.2,2.6Z"/><path id="PATH_113" d="m125.64,317.03c-1.6,1-3.6,1.4-5.6,1.2-1.8-.2-3-.6-3.2-1.2-.8-1.4-1.4-2.4-1.8-3.6-.2-.4-.2-.6,0-.6s.2,0,.6.4c1,1.2,2.6,2.2,4.6,2.8,2,.8,3.6.8,4.8,0,.8-.4,1.4-1.6,1.8-3.6l2-.2h.4v.4c-.2.8-.8,1.4-1.4,2.2-1,1.4-1.6,2-2.2,2.2Z"/></g><g id="G_114"><path id="PATH_115" d="m469.64,494.43h-1.4c-1.8,0-2.8-1-3.2-3.2-1,1-1.4,1.4-1.6,1.4h-1.8c-.6,0-1.2,0-1.8-.2-.8-.2-1.2-.6-1.2-1,0-1.4.6-2.8,1.6-3.6.8-.6,2-1.2,3.6-2l-.4-2,1.4-1.6c0,.2.6,2.4,1.4,6.6.2,1.2.6,2.2.8,2.6.4.6.8.8,1.6.8h1.4v2.2h-.4Zm-5-4l-.6-3.2c-.6.2-1.4.6-2.4,1-1.2.6-2,1.2-2,1.4,0,.4.4.6,1.4.8.6.2,1.2.2,1.8.2.8,0,1.4,0,1.8-.2Z"/><path id="PATH_116" d="m479.64,490.63c0,1,0,1.8-.4,2.6-.4,1-1,1.6-1.6,1.6-1,0-2.6-.6-4.6-2-.6.8-1,1.2-1.2,1.4-.6.4-1.2.6-2,.6h-1v-2.4h1.4c.8,0,1.6-.4,2.4-1.4.4-.4,1-1.4,1.8-2.6.6-1,1.4-1.4,2-1.4,1,0,1.8.4,2.4,1.4.4.6.8,1.4.8,2.2Zm-1.2,1.4c0-.6-.2-1.2-.6-2s-1-1.2-1.6-1.2-1.2.6-2,1.8c.4.4,1,.8,1.8,1.2.8.4,1.6.6,2,.6.2,0,.4,0,.4-.4Z"/><path id="PATH_117" d="m484.24,492.03c0,.8-.2,1.6-.6,2.2-.2.4-.4.6-.4.6,0,0-.2-.2-.2-.8,0-2.4-.4-8-1.2-17l1.6-1.6.2-.2v.4c.6,2.8.6,8.2.6,16.4Z"/><path id="PATH_118" d="m496.84,494.43h-.8c-.8,0-1.2-.2-1.6-.4v.6c0,1.8-.6,3.6-1.8,5.4-1,1.6-2,2.2-2.6,2.2-1.6,0-2.8,0-4-.2-.4,0-.6-.2-.6-.2,0,0,.2-.2.6-.2,1.6-.4,3.2-1.2,4.8-2.4,1.6-1.4,2.6-2.8,2.6-4.2,0-.8-.6-2-2-3.4l1-1.8c0-.2.2-.2.2-.2l.2.2c.6.8,1,1.4,1.4,1.6.6.4,1.4.8,2.2.8h.6v2.2h-.2Z"/><path id="PATH_119" d="m512.44,488.63l-.8,1.6c-1.4,0-2.6,0-3.2.2-.8.4-2,.8-3.6,1.6-1.6.8-2.8,1.4-3.6,1.6-1.2.4-2.6.6-3.8.6h-1.4v-2.4h1.6c1.8,0,3.4-.4,4.8-1l4.6-2c-.8-.2-2-.6-3.6-1.2-1.4-.6-2.2-.8-2.6-.8-.8,0-1.6.4-2.4,1q-.2.2-.4.2t-.2-.2v-.2c.6-2,1.8-2.8,3.4-2.8.6,0,1.4.2,2.2.6,1.6.8,2.8,1.2,3.6,1.6,1.4.4,3,.8,4.8.8.4,0,.6,0,.6.2.2.2,0,.4,0,.6Zm-5.8-9l-1.6,1.6-1.6-1.6,1.6-1.6,1.6,1.6Z"/></g><g id="G_120"><path id="PATH_121" d="m420.64,539.43c.2.6.2,1.2.2,1.8,0,.8-.2,1.4-.4,2.2-.6,1.4-1.6,2.6-3.6,3.4-1.6.6-3.2,1-5,1s-3.2-.4-4.4-1.2c-1.2-1-1.8-2.2-1.8-4,0-1,.2-1.8.6-3,.4-.8.6-1.4,1-1.8.2-.2.4-.2.4-.2q.2,0,.2.2v.4c-.6,1.2-.8,2.4-.8,3.4s.4,1.8,1,2.6c.8,1,2.2,1.4,4,1.4,2,0,3.8-.4,5.2-1,1.2-.6,2-1.2,2.4-2,.2-.2.2-.6.2-.8,0-.6-.2-1.2-.4-2-.2-.6-.8-1.6-1.8-3.2l.8-1.6c.2-.2.2-.4.2-.4,0,0,.2,0,.2.2.8,1.6,1.4,3,1.8,4.6Zm-6-8.6l-1.6,1.6-1.6-1.6,1.6-1.6,1.6,1.6Z"/><path id="PATH_122" d="m428.64,539.83h-1.4c-1.4,0-2.6-.6-3-1.8-.4-.8-.6-2.2-.6-3.8v-3.8c0-1.8-.2-4.4-.4-7.8l1.2-1.4c.2-.2.4-.2.4,0,.2,1.8.4,4.4.4,7.8v5.8c0,1.6.8,2.4,2.4,2.4h1v2.6h0Z"/><path id="PATH_123" d="m438.44,539.83h-1.6c-1.8,0-3-.6-3.8-1.8-.6,1.2-2,1.8-4.2,1.8h-1.2v-2.4h1.8c2,0,3-.8,3.2-2.2,0-.6.2-1,.4-1s.4.4.4,1c.2,1.4,1.2,2.2,3,2.2h1.8v2.4h.2Zm-6.6-11.6l-1.6,1.6-1.6-1.6,1.6-1.6,1.6,1.6Zm3.4,0l-1.6,1.6-1.6-1.6,1.6-1.6,1.6,1.6Z"/><path id="PATH_124" d="m454.24,535.63c0,1.2-.2,2.2-.8,3s-1.6,1.4-2.6,1.4c-1.4,0-2.2-.6-2.8-1.6-.8,1.2-1.6,1.6-2.8,1.6-1.4,0-2.4-.6-3-1.6-.8,1.2-1.8,1.6-3.2,1.6h-1.4v-2.4h1.6c1.4,0,2.4-.8,2.6-2.4,0-.4.2-.6.4-.6s.2.2.4.6c.2,1.6,1,2.4,2.6,2.4.8,0,1.6-.2,2-.6.2-.4.4-.8.6-1.6,0-.4.2-.6.4-.6s.2.2.4.6c.2,1.6,1,2.4,2.4,2.4,1.6,0,2.2-.4,2.2-1s-.4-1.4-1.2-2.2l1-1.8c.2-.2.2-.4.4-.4s.2.2.4.4c.2.8.4,1.8.4,2.8Z"/><path id="PATH_125" d="m464.64,539.03c0,3-1,5.6-3,7.6-.6.6-1,1-1.2,1-1.2,0-2.4-.2-3.8-.4-.6,0-.8-.2-.8-.2,0,0,.2-.2.8-.4,1.6-.4,3.2-1.4,4.6-2.6.6-.6,1.2-1,1.6-1.8.6-.8,1-1.6,1-2.2v-.6h-2.6c-1.8,0-2.8-.8-2.8-2.2,0-1,.2-2,.8-3.2s1.4-2,2.2-2c1.2,0,2.2.8,2.8,2.6.2,1.4.4,2.8.4,4.4Zm-1.4-1.6c0-.6-.2-1.2-.6-1.8s-1-1-1.6-1c-.4,0-.8.2-1,.4-.4.4-.4.6-.4,1,0,1,.6,1.4,2,1.4.2,0,.8,0,1.6,0Z"/><path id="PATH_126" d="m477.04,539.83h-.8c-.8,0-1.2-.2-1.6-.4v.6c0,1.8-.6,3.6-1.8,5.4-1,1.6-2,2.2-2.6,2.2-1.6,0-2.8,0-4-.2-.4,0-.6-.2-.6-.2,0,0,.2-.2.6-.2,1.6-.4,3.2-1.2,4.8-2.4,1.6-1.4,2.6-2.8,2.6-4.2,0-.8-.6-2-2-3.4l1-1.8c0-.2.2-.2.2-.2l.2.2c.6.8,1,1.4,1.4,1.6.6.4,1.4.8,2.2.8h.6v2.2h-.2Z"/><path id="PATH_127" d="m492.84,535.63c0,1.2-.2,2.2-.8,3s-1.6,1.4-2.6,1.4c-1.4,0-2.2-.6-2.8-1.6-.8,1.2-1.6,1.6-2.8,1.6-1.4,0-2.4-.6-3-1.6-.8,1.2-1.8,1.6-3.2,1.6h-1.4v-2.4h1.6c1.4,0,2.4-.8,2.6-2.4,0-.4.2-.6.4-.6s.2.2.4.6c.2,1.6,1,2.4,2.6,2.4.8,0,1.6-.2,2-.6.2-.4.4-.8.6-1.6,0-.4.2-.6.4-.6s.2.2.4.6c.2,1.6,1,2.4,2.4,2.4,1.6,0,2.2-.4,2.2-1s-.4-1.4-1.2-2.2l1-1.8c.2-.2.2-.4.4-.4s.2.2.4.4c.2.8.4,1.8.4,2.8Z"/></g><g id="G_128"><path id="PATH_129" d="m375.44,564.03c-1.2,1.6-2.6,2.8-4.6,3.4-1.8.6-2.8.8-3.4.4-1.2-.8-2.2-1.6-3.2-2.4-.2-.2-.4-.4-.2-.6.2-.2.2,0,.6,0,1.4.6,3.2.8,5.2.6,2.2-.2,3.6-.8,4.4-2,.4-.8.6-2,.2-4l1.8-1c.2,0,.2-.2.4-.2v.4c0,.8,0,1.6-.2,2.6-.2,1.4-.6,2.4-1,2.8Z"/><path id="PATH_130" d="m380.84,564.63c-.4.6-1,1.2-1.6,1.6-.4.2-.6.4-.6.2,0,0,0-.2.4-.6,1.4-2,4.2-6.8,8.6-14.6l2.2-.4h.4s0,.2-.2.4c-1.4,2.2-4.6,6.6-9.2,13.4Z"/><path id="PATH_131" d="m389.64,573.83l-1.8-1.2c-1.6,2.2-3.8,3.4-6.6,4-.8.2-1.4.2-1.4,0-.8-.6-2-1.4-3-2.4-.4-.4-.6-.6-.4-.6,0,0,.4,0,.8.2,1.6.6,3.4.8,5.2.6.8,0,1.6-.2,2.4-.6,1-.4,1.6-.8,2-1.2l.4-.4-2-1.4c-1.6-1-2-2.2-1-3.6.6-.8,1.4-1.6,2.6-2.2,1.2-.6,2.2-.8,3-.4.8.6,1.2,1.6,1,3-.2,1-.6,2-1.2,3.2l1.8,1.2-1.8,1.8Zm-1.6-4c.4-.6.6-1.2.6-1.8,0-.8-.2-1.4-.8-1.8-.4-.2-.8-.4-1.2-.2-.4,0-.8.2-1,.6-.6.8-.2,1.6,1.2,2.4.2.2.8.4,1.2.8Z"/><path id="PATH_132" d="m410.44,565.63c-.2.2-.8.8-2,1.4l-5-1.6c-2.2-.6-3.8-1-4.8-1.2.4,2.2.6,3.8.6,4.6,0,1.8-.2,3.2-.8,4.2-.4.8-1.2,1.6-2,2.2-1.6,1-3.8.6-6.6-1.4l-.8-.6,1.4-2,1,.6c1.2.8,2.2,1.4,3,1.8,1.4.6,2.4.4,2.8-.4.8-1,.8-3,.2-6l-.4.2c0-.2-.2-.8-.2-1.6v-1.6c.2-.4.6-.6,1-1.2.6-.4,1-.8,1.2-.8s1.6.2,4.4,1c2.8,1,5.2,1.6,7,2.4Z"/></g><g id="G_133"><path id="PATH_134" d="m271.84,659.83l-.4-.8c-.2-.6-.4-1.4,0-2,.2-.4.4-1,1-1.6-1-.2-1.8-.4-2.2-.8-.6-.6-1.4-1.4-1.8-2.8-1-2.6-.6-4.2,1.2-5,.6-.2,1.4-.4,2.2-.2.2,0,.4.2.4.2q0,.2-.2.2t-.4.2c-.2.2-.4.2-.4.2-1.2.4-1.2,1.6-.4,3.6,1.2,2.6,2.2,3.8,3.2,3.4.6-.2,2.2-1.8,5-4.8l1.8.2h.4s-.2.2-.2.4c-1.2,1.2-3,3-5.6,5.2-1.2,1.2-1.6,2.2-1.2,3.2l.2.6-2.6.6Z"/><path id="PATH_135" d="m275.64,668.83l-.6-1.4c-.8-1.6-.6-3,.2-4.2-1.4-.2-2.4-1.2-3.2-3l-.6-1.2,2.2-.8.6,1.6c.8,1.8,1.8,2.4,3.4,2,.6-.2,1-.2,1,0s-.2.4-.6.8c-1.4.8-1.6,2-.8,3.6l.6,1.6-2.2,1Zm8-7.6l-2.2-.8.8-2.2,2.2.8-.8,2.2Z"/><path id="PATH_136" d="m273.84,675.63l-2.2-.8.8-2.2,2.2.8-.8,2.2Zm5.6,2.2l-.6-1.4c-.8-1.6-.6-3,.2-4.2-1.4-.2-2.4-1.2-3.2-3l-.6-1.2,2.2-.8.6,1.6c.8,1.8,1.8,2.4,3.4,2,.6-.2,1-.2,1,0s-.2.4-.6.8c-1.4.8-1.6,2-.8,3.6l.6,1.6-2.2,1Z"/><path id="PATH_137" d="m289.44,690.83c-1,.4-2.2.6-3,.4-1-.2-1.8-.8-2.2-2-.6-1.2-.4-2.4.4-3.2-1.4-.2-2.2-1-2.6-2-.6-1.4-.4-2.4.4-3.4-1.4-.2-2.2-1-2.8-2.2l-.4-1.2,2.2-.8.6,1.4c.6,1.4,1.6,1.8,3.2,1.4.4,0,.6,0,.6.2s0,.4-.4.6c-1.4.8-1.8,1.8-1.2,3.2.4.8.8,1.4,1.4,1.4.4.2,1,0,1.8-.2.4-.2.6,0,.6,0,0,.2,0,.4-.4.6-1.4.8-1.8,1.8-1.2,3.2s1.2,2,1.8,1.6c.6-.2,1-.8,1.6-2l2,.2q.4,0,.4.2s0,.2-.2.4c-.8,1.2-1.8,1.8-2.6,2.2Zm4.2-9l-2-.8.8-2,2,.8-.8,2Zm1.4,3.2l-2-.8.8-2,2,.8-.8,2Zm2.2-2.8l-2-.8.8-2,2,.8-.8,2Z"/><path id="PATH_138" d="m289.64,695.83c-.8.4-1.6.4-2.2.4-.4,0-.6,0-.8-.2,0,0,.2-.2.6-.4,2.2-.8,7.2-3.4,15.2-7.6l2,1c.2,0,.2.2.4.2,0,0,0,.2-.2.2-2.4,1.2-7.4,3.2-15,6.4Z"/><path id="PATH_139" d="m292.24,708.43l-.4-.8c-.2-.6-.4-1.2-.2-1.6-.2,0-.4.2-.6.2-1.8.8-3.6.8-5.8.4-1.8-.4-2.8-.8-3-1.6-.6-1.4-1-2.6-1.4-3.8v-.6q.2,0,.4.4c1,1.4,2.2,2.4,4.2,3.4s3.6,1.2,4.8.8c.8-.4,1.6-1.4,2.2-3.2l2,.2h.4s0,.2-.2.4c-.6.8-.8,1.6-1,2-.2.8-.2,1.6.2,2.4l.2.6-1.8.8Z"/><path id="PATH_140" d="m300.44,713.23l-.8.4c-1.2.6-2.2.6-2.8.6-1.6-.4-2.8-1.6-3.8-4l-1-2.6,2.2-.8.8,1.8c1.4,3.2,2.6,4.6,3.8,4.4q.2,0,.4-.2c.2-.2.6-.2.6-.4-.4-.8-1-1.6-1.2-2.4-.8-1.8-.4-2.8,1-3.4,1-.4,2-.6,3.2-.6,1.4,0,2.2.6,2.6,1.6.4.8.2,1.8-.6,2.8-1.2,1.2-2.6,2.2-4.4,2.8Zm1-2c.6-.2,1-.6,1.4-1.2s.4-1.2.2-1.8c-.2-.4-.4-.8-.8-.8-.4-.2-.8-.2-1.2,0-.8.4-1,1-.4,2.2,0,.4.4,1,.8,1.6Zm8.2-4.4l-2.2-.8.8-2.2,2.2.8-.8,2.2Z"/></g><g id="G_141"><path id="PATH_142" d="m324.04,633.03c0,2.8-1.8,4.2-5.6,4.2-1.4,0-2.4-.2-3-.6-.8-.4-1.2-1.4-1.2-2.6,0-.6.2-1.2.4-1.8.2-.2.2-.4.4-.4s.2.2.2.6v.6c0,.8.4,1.4,1.2,1.6.4.2,1.2.2,2.2.2,3,0,4.4-.4,4.4-1.4,0-1.4-1.8-3.4-5.2-5.8l.6-2c0-.2.2-.2.2-.2,0,0,.2,0,.4.2,3.4,2.6,5,5,5,7.4Z"/><path id="PATH_143" d="m332.04,637.03h-1.4c-1.4,0-2.6-.6-3-1.8-.4-.8-.6-2.2-.6-3.8v-3.8c0-1.8-.2-4.4-.4-7.8l1.2-1.4c.2-.2.4-.2.4,0,.2,1.8.4,4.4.4,7.8v5.8c0,1.6.8,2.4,2.4,2.4h1v2.6h0Z"/><path id="PATH_144" d="m336.84,633.23c0,2.6-1.4,4-4,4h-1.6v-2.4h1.4c2,0,3-.4,3-1s-.4-1.4-1.4-2.4l.8-2c0-.2.2-.2.2-.2l.4.4c.8,1,1.2,2.2,1.2,3.6Zm-.6,8.2l-1.6,1.6-1.6-1.6,1.6-1.6,1.6,1.6Z"/><path id="PATH_145" d="m344.84,615.63c-.8.8-2,1-3.2,1h-1.6c-.2,0-.4.2-.6.4l-.4.4c-.2,0-.2-.2-.2-.4s.2-.6.4-1c.2-.6.4-.8.6-.8s.6,0,1.2.2,1,.2,1.2.2c1.2,0,2,0,2.6-.2.4,0,.6-.2.6-.2h.2c-.4,0-.6.2-.8.4Zm-1.2,19c0,.8-.2,1.6-.6,2.2-.2.4-.4.6-.4.6,0,0-.2-.2-.2-.8,0-2.4-.4-8-1.2-17l1.6-1.6.2-.2v.4c.4,2.6.6,8,.6,16.4Z"/><path id="PATH_146" d="m354.84,637.23c0,2-.6,3.8-1.8,5.6-1,1.4-2,2.2-2.6,2.2-1.6,0-2.8,0-4-.2-.4,0-.6-.2-.6-.2,0,0,.2-.2.6-.2,1.6-.4,3.2-1.2,4.8-2.4,1.6-1.4,2.6-2.8,2.6-4.2,0-.8-.6-2-2-3.4l1-1.8c0-.2.2-.2.2-.2l.2.2c.4.6,1,1.4,1.2,2.4.2.8.4,1.6.4,2.2Zm-1.6-10.6l-1.6,1.6-1.6-1.6,1.6-1.6,1.6,1.6Z"/><path id="PATH_147" d="m365.04,636.23c0,3-1,5.6-3,7.6-.6.6-1,1-1.2,1-1.2,0-2.4-.2-3.8-.4-.6,0-.8-.2-.8-.2,0,0,.2-.2.8-.4,1.6-.4,3.2-1.4,4.6-2.6.6-.6,1.2-1,1.6-1.8.6-.8,1-1.6,1-2.2v-.6h-2.6c-1.8,0-2.8-.8-2.8-2.2,0-1,.2-2,.8-3.2s1.4-2,2.2-2c1.2,0,2.2.8,2.8,2.6.2,1.6.4,3,.4,4.4Zm-1.4-1.6c0-.6-.2-1.2-.6-1.8-.4-.6-1-1-1.6-1-.4,0-.8.2-1,.4-.4.4-.4.6-.4,1,0,1,.6,1.4,2,1.4.2.2.8.2,1.6,0Z"/><path id="PATH_148" d="m377.64,637.03h-.8c-.8,0-1.2-.2-1.6-.4v.6c0,1.8-.6,3.6-1.8,5.4-1,1.6-2,2.2-2.6,2.2-1.6,0-2.8,0-4-.2-.4,0-.6-.2-.6-.2,0,0,.2-.2.6-.2,1.6-.4,3.2-1.2,4.8-2.4,1.6-1.4,2.6-2.8,2.6-4.2,0-.8-.6-2-2-3.4l1-1.8c0-.2.2-.2.2-.2l.2.2c.6.8,1,1.4,1.4,1.6.6.4,1.4.8,2.2.8h.6v2.2h-.2Z"/><path id="PATH_149" d="m387.44,637.03h-1.6c-1.8,0-3-.6-3.8-1.8-.6,1.2-2,1.8-4.2,1.8h-1.2v-2.4h1.8c2,0,3-.8,3.2-2.2,0-.6.2-1,.4-1s.4.4.4,1c.2,1.4,1.2,2.2,3,2.2h1.8v2.4h.2Zm-6.6,4.4l-1.6,1.6-1.6-1.6,1.6-1.6,1.6,1.6Zm3.4,0l-1.6,1.6-1.6-1.6,1.6-1.6,1.6,1.6Z"/><path id="PATH_150" d="m395.24,631.43v.8c0,1.4-.2,2.2-.6,2.8-1,1.4-2.6,2-5.2,2h-2.8v-2.4h2c3.4,0,5.2-.6,5.6-1.6v-.4c0-.4,0-.6-.2-.8-.8.2-1.8.2-2.6.2-1.8,0-2.8-.8-2.8-2.4,0-1,.2-2.2.8-3.2.6-1.2,1.4-1.8,2.4-1.8.8,0,1.6.6,2.2,1.6.8,1.6,1.2,3.2,1.2,5.2Zm-2.4-11l-1.6,1.6-1.6-1.6,1.6-1.6,1.6,1.6Zm.8,9.2c0-.6-.2-1.2-.6-1.8-.4-.6-1-.8-1.6-.8-.4,0-.8.2-1.2.4-.2.2-.4.6-.4,1,0,.8.6,1.2,2,1.2.4.4,1,.2,1.8,0Z"/></g><g id="G_151"><path id="PATH_152" d="m610.24,556.03c-.2.6-.6,1.2-.8,1.6-.4.6-1,1.2-1.6,1.6-1.2,1-2.8,1.2-4.8,1-1.6-.2-3.2-.8-4.8-1.8-1.4-1-2.4-2.2-2.8-3.4-.4-1.4-.2-3,.6-4.4.6-.8,1.2-1.4,2.2-2,.6-.4,1.2-.8,1.8-.8h.6c.2,0,.2.2,0,.2l-.2.2c-1.2.6-2,1.4-2.6,2.2s-.8,1.8-.6,2.6c.2,1.2,1,2.4,2.4,3.4,1.6,1,3.4,1.8,5,2,1.4.2,2.4.2,3-.2.2-.2.4-.4.6-.6.2-.4.6-1,.8-1.8.2-.6.2-1.8.2-3.6l1.6-1c.2-.2.4-.2.4-.2v.4c0,1.6-.2,3.2-1,4.6Zm0-10.4l-2.2.4-.4-2.2,2.2-.4.4,2.2Z"/><path id="PATH_153" d="m616.84,560.83l-1.2-.8c-1.2-.8-1.8-2-1.6-3.2.2-1,.6-2.2,1.6-3.6l2.2-3.2c1-1.6,2.4-3.8,4-6.8l1.8-.4q.4,0,.4.2c-.8,1.6-2,3.8-4,6.8l-3.2,4.8c-1,1.4-.8,2.6.6,3.4l.8.6-1.4,2.2Z"/><path id="PATH_154" d="m625.04,566.23l-1.2-.8c-1.6-1-2.2-2.2-2-3.6-1.2.6-2.8.4-4.4-.8l-1-.8,1.2-2,1.4,1c1.6,1,3,1,4-.2.4-.4.6-.6.8-.6.2.2.2.4-.2,1-.8,1.4-.2,2.6,1.2,3.6l1.4,1-1.2,2.2Zm-6,1.2l-2.2.4-.4-2.2,2.2-.4.4,2.2Z"/><path id="PATH_155" d="m635.44,573.03l-.8-.6c-.6-.4-1.4-.8-2-1-1.2-.2-2,0-2.4.8-.6,1-.6,2.4.2,4l-2,1.2c-1.2-1.6-2-3.2-2.4-4.8-.4-2-.2-3.8.8-5.4l-2.2-1.6,1.2-2,2.2,1.4c.8-1.2,2.2-2.4,3.8-3.6,1.6-1,2.6-1.4,3-1.2s.4,1.2,0,3c-.4,1.6-.8,2.6-1,3.2-1.6,2.4-3.4,2.8-5.8,1.4-.4.8-.4,1.8-.4,2.8s.4,1.8.8,2.6c.2-.2.2-.4.4-.8.8-1.2,1.8-2,2.8-2.4,1.6-.6,3-.4,4.4.4l.8.4-1.4,2.2Zm-3.2-6c.2-.4.4-1,.6-2.2s.2-1.8,0-2-.8,0-1.6.8c-1,.6-1.8,1.6-2.4,2.4,2,1.2,3,1.4,3.4,1Z"/><path id="PATH_156" d="m649.64,582.43l-.6-.4c-1.6-1-2.8-2.2-3.8-3.4-1.6-.6-4-1.8-7-3.8l-3.4-2.2,1.2-2,1.8,1.2c.6.4,1,.4,1.2.4s.6-.4.8-.8c.4-.6,1.2-2,2.4-3.8,1.8-2.8,3.2-5.4,4.2-7.8l2-.4h.4v.4c-.2.8-.4,1.6-.6,2.6,0,.2,0,.4-.2.4,0,0-.2,0-.2-.2l-.6-.4c-1.8,3.2-3,5-3.2,5.4l-1.2,1.8c-.4.6-1.2,1.6-2.4,2.6.2,0,.8,0,2-.2,1.4-.2,2.8-.4,3.6-.4,1.6,0,2.8.4,3.8,1,.8.6,1.4,1.2,1.6,2s.2,1.6-.4,2.4c-.8,1.2-1.8,1.8-3,2,.2.2.6.4,1,.6.4.2.8.4,1,.6l.6.4-1,2Zm-.4-5.2c.4-.6.4-1.2,0-2-.4-.6-.8-1.2-1.4-1.6-1.2-.8-3.8-1-7.8-.6.6.6,1.4,1,2.2,1.6,1,.6,2.2,1.2,3.6,2,2,1,3.2,1.2,3.4.6Z"/><path id="PATH_157" d="m667.04,587.63c-1.2,1.6-2.8,2.2-5.4,1.6-1.8-.4-3.6-1.2-5.6-2.6-1.2-.8-2-1.4-2.4-1.8-.6-.8-1-1.6-.8-2.4-1.2.6-2.4.6-3.4-.2l-.6-.4,1.2-2,.6.4c1.2.8,2.4.6,3.4-.4.2-.2.4-.4.6-.2s.2.4,0,.6c-.6,1.2-.6,2.2.4,2.8,5.2-1.2,8.8-1.4,10.6-.2.8.6,1.2,1.2,1.4,2,.6,1.2.6,2,0,2.8Zm-1.8.2c.4-.4.4-1.2,0-1.8-.2-.6-.6-1.2-1.2-1.4-1.6-1-4-1.2-7.4-.4.4.4,1,.6,1.4,1,1.2.8,2.4,1.4,3.6,2,2,.8,3.2,1,3.6.6Z"/><path id="PATH_158" d="m669.44,592.43c-.4.6-1,1.2-1.6,1.6-.4.2-.6.4-.6.2,0,0,0-.2.4-.8,1.2-2,4-6.8,8.4-14.8l2.2-.4h.4s0,.2-.2.4c-1.6,2.4-4.4,7-9,13.8Z"/></g><g id="G_159"><path id="PATH_160" d="m717.44,517.23h-.8c-.8,0-1.2-.2-1.6-.4v.6c0,1.8-.6,3.6-1.8,5.4-1,1.6-2,2.2-2.6,2.2-1.6,0-2.8,0-4-.2-.4,0-.6-.2-.6-.2,0,0,.2-.2.6-.2,1.6-.4,3.2-1.2,4.8-2.4,1.6-1.4,2.6-2.8,2.6-4.2,0-.8-.6-2-2-3.4l1-1.8c0-.2.2-.2.2-.2l.2.2c.6.8,1,1.4,1.4,1.6.6.4,1.4.8,2.2.8h.6v2.2h-.2Zm-3.8-10.6l-1.6,1.6-1.6-1.6,1.6-1.6,1.6,1.6Z"/><path id="PATH_161" d="m722.24,513.23c0,2.6-1.4,4-4,4h-1.6v-2.4h1.4c2,0,3-.4,3-1s-.4-1.4-1.4-2.4l.8-2c0-.2.2-.2.2-.2,0,0,.2.2.4.4.8,1,1.2,2.4,1.2,3.6Zm-1.6,8.4l-1.6,1.6-1.6-1.6,1.6-1.6,1.6,1.6Zm3.4,0l-1.6,1.6-1.6-1.6,1.6-1.6,1.6,1.6Z"/><path id="PATH_162" d="m734.24,517.43c0,2-.6,3.8-1.8,5.6-1,1.4-2,2.2-2.6,2.2-1.6,0-2.8,0-4-.2-.4,0-.6-.2-.6-.2,0,0,.2-.2.6-.2,1.6-.4,3.2-1.2,4.8-2.4,1.6-1.4,2.6-2.8,2.6-4.2,0-.8-.6-2-2-3.4l1-1.8c0-.2.2-.2.2-.2l.2.2c.4.6,1,1.4,1.2,2.4.2.6.4,1.4.4,2.2Z"/><path id="PATH_163" d="m762.44,517.23h-4.6c-.6,0-1.2,0-1.6.2-.8.2-1,.6-1,1,0,.2,1,.4,2.8.8,2,.4,2.8.8,2.8,1.2,0,1.6-.4,2.8-1.4,3.6-1.6,1.4-4.2,2-8,2-4.6,0-7-1.8-7-5.2,0-.8.2-1.6.6-2.6s.8-1.8,1.2-2.4c.2-.2.4-.4.6-.4s.2,0,.2.2,0,.4-.2.6c-.6,1.2-1,2.4-1,3.6,0,1.4.6,2.4,2,3,1,.6,2.2.8,3.8.8s3,0,4.4-.2c2.4-.4,3.6-.8,3.6-1.6,0-.4-.6-.6-1.6-.8-1.6-.2-2.6-.4-3-.6-1-.2-1.6-.8-1.6-1.4,0-.4.2-1,.8-1.8.4-.6.8-1,1.4-1.4,1-.8,2.2-1.2,4-1.2h2.8v2.6h0Z"/><path id="PATH_164" d="m767.24,513.23c0,2.6-1.4,4-4,4h-1.6v-2.4h1.4c2,0,3-.4,3-1s-.4-1.4-1.4-2.4l.8-2c0-.2.2-.2.2-.2,0,0,.2.2.4.4.8,1,1.2,2.4,1.2,3.6Zm-.2-9l-1.6,1.6-1.6-1.6,1.6-1.6,1.6,1.6Z"/></g><g id="G_165"><path id="PATH_166" d="m575.04,613.23h-1.4c-1.4,0-2.6-.6-3-1.8-.4-.8-.6-2.2-.6-3.8v-3.8c0-1.8-.2-4.4-.4-7.8l1.2-1.4c.2-.2.4-.2.4,0,.2,1.8.4,4.4.4,7.8v5.8c0,1.6.8,2.4,2.4,2.4h1v2.6h0Z"/><path id="PATH_167" d="m593.44,613.23h-1.2c-1.4,0-2.2-.6-2.8-1.6-.4,1.2-1.4,1.6-2.6,1.6s-2-.6-2.6-1.6c-.6,1.2-1.4,1.6-2.6,1.6-1.4,0-2.4-.6-3-1.6-.8,1.2-1.8,1.6-3.2,1.6h-1.4v-2.4h1.6c1.4,0,2.4-.8,2.6-2.4,0-.4.2-.6.4-.6s.2.2.4.6c.2,1.6,1,2.4,2.6,2.4,1.4,0,2.4-.8,2.4-2.4,0-.4.2-.6.4-.6s.4.2.4.6c.2,1.6,1,2.4,2,2.4,1.4,0,2.4-.8,2.4-2.4,0-.4.2-.6.4-.6s.4.2.4.6c.2,1.6,1,2.4,2.4,2.4h1.2v2.4h-.2Z"/><path id="PATH_168" d="m601.24,607.63v.8c0,1.4-.2,2.2-.6,2.8-1,1.4-2.6,2-5.2,2h-2.8v-2.4h2c3.4,0,5.2-.6,5.6-1.6v-.4c0-.4,0-.6-.2-.8-.8.2-1.8.2-2.6.2-1.8,0-2.8-.8-2.8-2.4,0-1,.2-2.2.8-3.2.6-1.2,1.4-1.8,2.4-1.8.8,0,1.6.6,2.2,1.6.8,1.4,1.2,3.2,1.2,5.2Zm-2.2-11l-1.6,1.6-1.6-1.6,1.6-1.6,1.6,1.6Zm.8,9.2c0-.6-.2-1.2-.6-1.8s-1-.8-1.6-.8c-.4,0-.8.2-1.2.4s-.4.6-.4,1c0,.8.6,1.2,2,1.2.4.2,1,.2,1.8,0Z"/></g><g id="G_169"><path id="PATH_170" d="m485.64,679.63c0,.4-.2.8-.6,1.6s-.8,1.2-1,1.2c-.6,0-1.4-.2-2.4-.4s-1.8-.4-2.4-.4c-1,0-1.8.2-2.2.4.4,3.4.6,6,.6,7.6,0,.8-.2,1.6-.8,2.6-.2.2-.2.4-.2.4v-.2c-.2-3.2-.4-6.4-.8-9.6,0-.4.2-.8.6-1.4.4-.4.6-.8,1-1,.4-.4,1-.4,1.6-.4-.2-.6-.2-1-.2-1.4,0-.6.2-1.4.8-2.2s1.2-1.2,2-1.2c1,0,2,.6,3,1.6s1,1.8,1,2.8Zm-1.6.6c-.2-.6-.8-1.4-1.4-2-.8-.8-1.4-1-2.2-1-1,0-1.4.4-1.4,1,0,.4.2.8.4,1.6,1.4,0,3,0,4.6.4Z"/><path id="PATH_171" d="m498.24,683.63h-.8c-.8,0-1.2-.2-1.6-.4v.6c0,1.8-.6,3.6-1.8,5.4-1,1.6-2,2.2-2.6,2.2-1.6,0-2.8,0-4-.2-.4,0-.6-.2-.6-.2,0,0,.2-.2.6-.2,1.6-.4,3.2-1.2,4.8-2.4,1.6-1.4,2.6-2.8,2.6-4.2,0-.8-.6-2-2-3.4l1-1.8c0-.2.2-.2.2-.2l.2.2c.6.8,1,1.4,1.4,1.6.6.4,1.4.8,2.2.8h.6v2.2h-.2Z"/><path id="PATH_172" d="m510.64,683.63h-1c-.8,0-1.6.2-2.2.4-1,.4-1.6,1-1.6,2,0,1.2.8,2.2,2.4,3.2l-1,2c-1.8-.6-3.4-1.6-4.6-2.8-1.6-1.4-2.4-3.2-2.4-5h-2.8v-2.2h2.6c0-1.6.4-3.2,1.2-5.2.8-1.8,1.4-2.6,1.8-2.6s1,.8,1.6,2.6c.6,1.6.8,2.6.8,3.2,0,2.8-1.4,4.2-4.2,4.2.2.8.6,1.6,1.2,2.4.6.8,1.4,1.4,2.2,1.8v-.8c0-1.4.4-2.6,1-3.6,1-1.4,2.2-2.2,4-2.2h.8v2.6h.2Zm-6-3.2c0-.4-.2-1.2-.6-2.2-.4-1.2-.8-1.6-1.2-1.6-.2,0-.6.4-1,1.4s-.6,2.2-.6,3.4c2.2-.2,3.4-.4,3.4-1Z"/><path id="PATH_173" d="m526.24,677.83l-.8,1.6c-1.4,0-2.6,0-3.2.2-.8.4-2,.8-3.6,1.6s-2.8,1.4-3.6,1.6c-1.2.4-2.6.6-3.8.6h-1.4v-2.2h1.6c1.8,0,3.4-.4,4.8-1l4.6-2c-.8-.2-2-.6-3.6-1.2-1.4-.6-2.2-.8-2.6-.8-.8,0-1.6.4-2.4,1q-.2.2-.4.2t-.2-.2v-.2c.6-2,1.8-2.8,3.4-2.8.6,0,1.4.2,2.2.6,1.6.8,2.8,1.2,3.6,1.6,1.4.4,3,.8,4.8.8.4,0,.6,0,.6.2.2,0,.2.2,0,.4Zm-6.6,9.8l-1.6,1.6-1.6-1.6,1.6-1.6,1.6,1.6Z"/></g><g id="G_174"><path id="PATH_175" d="m755.44,663.83c0,1.4-.4,2.6-1.4,3.2-.6.4-1.8.8-3.6,1-2,.4-4,.6-6.2.6-5.2,0-8-1.4-8-4.4,0-1,.4-2,1.2-3,.2-.2.2-.4.4-.4s.2,0,.2.2v.4c-.2.6-.4,1.2-.4,1.8,0,2,2.6,3,7.6,3,2.4,0,4.6-.2,6.2-.4,2-.4,2.8-.8,2.8-1.4,0-.4-.4-1.2-1.4-2.4l1-1.8q.2-.2.4,0c.8,1.2,1.2,2.4,1.2,3.6Zm-7.8,9l-1.6,1.6-1.6-1.6,1.6-1.6,1.6,1.6Z"/><path id="PATH_176" d="m760.24,665.83c0,.8-.2,1.6-.6,2.2-.2.4-.4.6-.4.6,0,0-.2-.2-.2-.8,0-2.4-.4-8-1.2-17l1.6-1.6.2-.2v.4c.4,2.6.6,8,.6,16.4Z"/><path id="PATH_177" d="m770.24,668.43c0,2-.6,3.8-1.8,5.6-1,1.4-2,2.2-2.6,2.2-1.6,0-2.8,0-4-.2-.4,0-.6-.2-.6-.2,0,0,.2-.2.6-.2,1.6-.4,3.2-1.2,4.8-2.4,1.6-1.4,2.6-2.8,2.6-4.2,0-.8-.6-2-2-3.4l1-1.8c0-.2.2-.2.2-.2l.2.2c.4.6,1,1.4,1.2,2.4.2.6.4,1.4.4,2.2Z"/><path id="PATH_178" d="m775.04,665.83c0,.8-.2,1.6-.6,2.2-.2.4-.4.6-.4.6,0,0-.2-.2-.2-.8,0-2.4-.4-8-1.2-17l1.6-1.6.2-.2v.4c.4,2.6.6,8,.6,16.4Z"/><path id="PATH_179" d="m787.24,664.03c0,2.8-1.8,4.2-5.6,4.2-1.4,0-2.4-.2-3-.6-.8-.4-1.2-1.4-1.2-2.6,0-.6.2-1.2.4-1.8.2-.2.2-.4.4-.4s.2.2.2.6v.6c0,.8.4,1.4,1.2,1.6.4.2,1.2.2,2.2.2,3,0,4.4-.4,4.4-1.4,0-1.4-1.8-3.4-5.2-5.8l.6-2c0-.2.2-.2.2-.2,0,0,.2,0,.4.2,3.4,2.6,5,5.2,5,7.4Z"/></g><g id="G_180"><path id="PATH_181" d="m703.64,760.63h-.8c-1,0-1.8-.2-2.2-.6-.6-.4-1-1.2-1-2-2.2,2-5.6,3-10.2,3s-7.2-1.4-7.2-4.4c0-1,.4-2,1.2-3q.2-.2.4-.2t.2.2v.4c-.2.6-.4,1.2-.4,1.8,0,2,2.2,3,6.6,3,5,0,8.4-1,10-3.2.4-.4.6-.6.8-.6s.2.2.2.4,0,.4-.2.8c0,.4-.2.6-.2.8,0,1,.8,1.6,2.2,1.6h.8v2h-.2Zm-12.4-11.6l-1.6,1.6-1.6-1.6,1.6-1.6,1.6,1.6Zm3.4,0l-1.6,1.6-1.6-1.6,1.6-1.6,1.6,1.6Z"/><path id="PATH_182" d="m719.44,756.23c0,1.2-.2,2.2-.8,3s-1.6,1.4-2.6,1.4c-1.4,0-2.2-.6-2.8-1.6-.8,1.2-1.6,1.6-2.8,1.6-1.4,0-2.4-.6-3-1.6-.8,1.2-1.8,1.6-3.2,1.6h-1.4v-2.4h1.6c1.4,0,2.4-.8,2.6-2.4,0-.4.2-.6.4-.6s.2.2.4.6c.2,1.6,1,2.4,2.6,2.4.8,0,1.6-.2,2-.6.2-.4.4-.8.6-1.6,0-.4.2-.6.4-.6s.2.2.4.6c.2,1.6,1,2.4,2.4,2.4,1.6,0,2.2-.4,2.2-1s-.4-1.4-1.2-2.2l1-1.8c.2-.2.2-.4.4-.4s.2.2.4.4c.2,1,.4,2,.4,2.8Zm-6.6-7.2l-1.4,1.4-1.4-1.4,1.4-1.4,1.4,1.4Zm1.6-3.2l-1.4,1.4-1.4-1.4,1.4-1.4,1.4,1.4Zm1.8,3.2l-1.4,1.4-1.4-1.4,1.4-1.4,1.4,1.4Z"/><path id="PATH_183" d="m731.84,756.43c0,2.8-1.8,4.2-5.6,4.2-1.4,0-2.4-.2-3-.6-.8-.4-1.2-1.4-1.2-2.6,0-.6.2-1.2.4-1.8.2-.2.2-.4.4-.4s.2.2.2.6v.6c0,.8.4,1.4,1.2,1.6.4.2,1.2.2,2.2.2,3,0,4.4-.4,4.4-1.4,0-1.4-1.8-3.4-5.2-5.8l.6-2c0-.2.2-.2.2-.2,0,0,.2,0,.4.2,3.2,2.6,5,5,5,7.4Z"/><path id="PATH_184" d="m759.84,760.63h-1c-1,0-1.6,0-2-.2,0,.6.2,1,.2,1.6,0,1-.2,1.6-.4,2.2-.6,1.4-1.6,2.6-3.6,3.4-1.6.6-3.2,1-5,1s-3.2-.4-4.4-1.2c-1.2-1-1.8-2.2-1.8-4,0-1,.2-1.8.6-3,.4-.8.6-1.4,1-1.8.2-.2.4-.2.4-.2q.2,0,.2.2v.4c-.6,1.2-.8,2.4-.8,3.4s.4,1.8,1,2.6c.8,1,2.2,1.4,4,1.4,2,0,3.8-.4,5.2-1,1.2-.6,2-1.2,2.4-2,.2-.2.2-.6,0-1.4,0-.6-.2-1.2-.2-1.4-.2-.6-1-1.6-2-3l.8-1.6c.2-.2.2-.4.2-.4,0,0,.2,0,.2.2,1,1.6,2,2.4,3.2,2.4h1.6v2.4h.2Zm-8.8-9l-1.6,1.6-1.6-1.6,1.6-1.6,1.6,1.6Z"/><path id="PATH_185" d="m764.64,756.63c0,2.6-1.4,4-4,4h-1.6v-2.4h1.4c2,0,3-.4,3-1s-.4-1.4-1.4-2.4l.8-2c0-.2.2-.2.2-.2,0,0,.2.2.4.4.8,1,1.2,2.2,1.2,3.6Zm-1.6,8.4l-1.6,1.6-1.6-1.6,1.6-1.6,1.6,1.6Zm3.4,0l-1.6,1.6-1.6-1.6,1.6-1.6,1.6,1.6Z"/><path id="PATH_186" d="m776.64,760.83c0,2-.6,3.8-1.8,5.6-1,1.4-2,2.2-2.6,2.2-1.6,0-2.8,0-4-.2-.4,0-.6-.2-.6-.2,0,0,.2-.2.6-.2,1.6-.4,3.2-1.2,4.8-2.4,1.6-1.4,2.6-2.8,2.6-4.2,0-.8-.6-2-2-3.4l1-1.8c0-.2.2-.2.2-.2l.2.2c.4.6,1,1.4,1.2,2.4.2.6.4,1.4.4,2.2Z"/><path id="PATH_187" d="m786.64,760.83c0,2-.6,3.8-1.8,5.6-1,1.4-2,2.2-2.6,2.2-1.6,0-2.8,0-4-.2-.4,0-.6-.2-.6-.2,0,0,.2-.2.6-.2,1.6-.4,3.2-1.2,4.8-2.4,1.6-1.4,2.6-2.8,2.6-4.2,0-.8-.6-2-2-3.4l1-1.8c0-.2.2-.2.2-.2l.2.2c.4.6,1,1.4,1.2,2.4.2.6.4,1.4.4,2.2Zm-1.4-10.8l-1.6,1.6-1.6-1.6,1.6-1.6,1.6,1.6Z"/></g><g id="G_188"><path id="PATH_189" d="m367.84,751.23h-1c-1,0-1.6,0-2-.2,0,.6.2,1,.2,1.6,0,1-.2,1.6-.4,2.2-.6,1.4-1.6,2.6-3.6,3.4-1.6.6-3.2,1-5,1s-3.2-.4-4.4-1.2c-1.2-1-1.8-2.2-1.8-4,0-1,.2-1.8.6-3,.4-.8.6-1.4,1-1.8.2-.2.4-.2.4-.2q.2,0,.2.2v.4c-.6,1.2-.8,2.4-.8,3.4s.4,1.8,1,2.6c.8,1,2.2,1.4,4,1.4,2,0,3.8-.4,5.2-1,1.2-.6,2-1.2,2.4-2,.2-.2.2-.6,0-1.4,0-.6-.2-1.2-.2-1.4-.2-.6-1-1.6-2-3l.8-1.6c.2-.2.2-.4.2-.4,0,0,.2,0,.2.2,1,1.6,2,2.4,3.2,2.4h1.6v2.4h.2Zm-8.8-9l-1.6,1.6-1.6-1.6,1.6-1.6,1.6,1.6Z"/><path id="PATH_190" d="m372.64,747.23c0,2.6-1.4,4-4,4h-1.6v-2.4h1.4c2,0,3-.4,3-1s-.4-1.4-1.4-2.4l.8-2c0-.2.2-.2.2-.2l.4.4c.8,1,1.2,2.4,1.2,3.6Zm-1.6,8.4l-1.6,1.6-1.6-1.6,1.6-1.6,1.6,1.6Zm3.4,0l-1.6,1.6-1.6-1.6,1.6-1.6,1.6,1.6Z"/><path id="PATH_191" d="m384.64,751.43c0,2-.6,3.8-1.8,5.6-1,1.4-2,2.2-2.6,2.2-1.6,0-2.8,0-4-.2-.4,0-.6-.2-.6-.2,0,0,.2-.2.6-.2,1.6-.4,3.2-1.2,4.8-2.4,1.6-1.4,2.6-2.8,2.6-4.2,0-.8-.6-2-2-3.4l1-1.8c0-.2.2-.2.2-.2l.2.2c.4.6,1,1.4,1.2,2.4.2.6.4,1.4.4,2.2Zm-1.6-10.8l-1.6,1.6-1.6-1.6,1.6-1.6,1.6,1.6Z"/><path id="PATH_192" d="m394.64,751.43c0,2-.6,3.8-1.8,5.6-1,1.4-2,2.2-2.6,2.2-1.6,0-2.8,0-4-.2-.4,0-.6-.2-.6-.2,0,0,.2-.2.6-.2,1.6-.4,3.2-1.2,4.8-2.4,1.6-1.4,2.6-2.8,2.6-4.2,0-.8-.6-2-2-3.4l1-1.8c0-.2.2-.2.2-.2l.2.2c.4.6,1,1.4,1.2,2.4.2.6.4,1.4.4,2.2Z"/><path id="PATH_193" d="m402.64,751.23h-1.4c-1.4,0-2.6-.6-3-1.8-.4-.8-.6-2.2-.6-3.8v-3.8c0-1.8-.2-4.4-.4-7.8l1.2-1.4c.2-.2.4-.2.4,0,.2,1.8.4,4.4.4,7.8v5.8c0,1.6.8,2.4,2.4,2.4h1v2.6h0Z"/><path id="PATH_194" d="m415.04,732.63c0,.4-.4,1.2-.8,2.2l-5,1.6c-2.2.8-3.8,1.4-4.6,1.8,1.6,1.6,2.6,2.8,3.2,3.4,1,1.4,1.6,2.6,1.8,4,0,1,0,2-.4,2.8-.6,1.8-2.8,2.6-6.2,2.6h-1v-2.4h1.2c1.6,0,2.8,0,3.4-.2,1.4-.4,2.2-1,2.2-2,0-1.4-1-3-3.2-5l-.2.4c-.2-.2-.6-.6-1-1.2-.6-.6-.8-1.2-.8-1.2,0-.4,0-.8.2-1.6s.4-1.2.6-1.4c.2-.2,1.6-.8,4.2-1.6,2.2-.8,4.6-1.6,6.4-2.2Z"/><path id="PATH_195" d="m432.24,750.43c0,3-1,5.6-3,7.6-.6.6-1,1-1.2,1-1.2,0-2.4-.2-3.8-.4-.6,0-.8-.2-.8-.2,0,0,.2-.2.8-.4,1.6-.4,3.2-1.4,4.6-2.6.6-.6,1.2-1,1.6-1.8.6-.8,1-1.6,1-2.2v-.6h-2.6c-1.8,0-2.8-.8-2.8-2.2,0-1,.2-2,.8-3.2s1.4-2,2.2-2c1.2,0,2.2.8,2.8,2.6.2,1.4.4,2.8.4,4.4Zm-1.4-1.6c0-.6-.2-1.2-.6-1.8-.4-.6-1-1-1.6-1-.4,0-.8.2-1,.4-.4.4-.4.6-.4,1,0,1,.6,1.4,2,1.4.2.2.8,0,1.6,0Z"/><path id="PATH_196" d="m452.64,751.23h-.8c-.8,0-1.2-.2-1.6-.4v.6c0,1.8-.6,3.6-1.8,5.4-1,1.6-2,2.2-2.6,2.2-1.6,0-2.8,0-4-.2-.4,0-.6-.2-.6-.2,0,0,.2-.2.6-.2,1.6-.4,3.2-1.2,4.8-2.4,1.6-1.4,2.6-2.8,2.6-4.2,0-.8-.6-2-2-3.4l1-1.8c0-.2.2-.2.2-.2l.2.2c.6.8,1,1.4,1.4,1.6.6.4,1.4.8,2.2.8h.6v2.2h-.2Z"/><path id="PATH_197" d="m462.44,751.23h-1.6c-1.8,0-3-.6-3.8-1.8-.6,1.2-2,1.8-4.2,1.8h-1.2v-2.4h1.8c2,0,3-.8,3.2-2.2,0-.6.2-1,.4-1s.4.4.4,1c.2,1.4,1.2,2.2,3,2.2h1.8v2.4h.2Zm-6.6,4.4l-1.6,1.6-1.6-1.6,1.6-1.6,1.6,1.6Zm3.4,0l-1.6,1.6-1.6-1.6,1.6-1.6,1.6,1.6Z"/><path id="PATH_198" d="m470.24,745.63c0,1.8-.2,3-.6,3.6-1,1.4-2.6,2-5.2,2h-2.8v-2.4h2c3.4,0,5.2-.6,5.6-1.6.2-.4,0-.8-.2-1.2-.8.2-1.6.2-2.6.2-1.8,0-2.8-.8-2.8-2.4,0-1,.2-2.2.8-3.2.6-1.2,1.4-1.8,2.4-1.8.8,0,1.6.6,2.2,1.6.8,1.6,1.2,3.2,1.2,5.2Zm-4-11l-1.6,1.6-1.6-1.6,1.6-1.6,1.6,1.6Zm2.4,9.2c0-.6-.2-1.2-.6-1.8-.4-.6-1-.8-1.6-.8-.4,0-.8.2-1.2.4s-.4.6-.4,1c0,.8.6,1.2,2,1.2.4.2,1,.2,1.8,0Zm1-9.2l-1.6,1.6-1.6-1.6,1.6-1.6,1.6,1.6Z"/></g><g id="G_199"><path id="PATH_200" d="m442.04,849.23h-2c-2.6,0-4-1.2-4-3.6,0-.6,0-1,.2-1.6-2.2.4-4,1.2-5.6,2.2-2.2,1.4-3.2,3-3.2,4.8s.8,3,2.6,4c1.4.6,3,1,5,1s3.8-.2,5.4-.6h.4q.2,0,.2.2c0,.2-.2.2-.4.4-1,1-2,1.6-3.2,1.8-1,.2-2.2.4-3.6.4-2.8,0-5-.6-6.4-2-1-1-1.6-2.4-1.6-4,0-3.8,2.6-6.8,7.6-8.8-2.2-.4-3.6-.6-4.6-.6-.4,0-1,.2-1.8.8s-1.2.8-1,.8c-.2,0-.2-.2-.2-.6,0-.6.4-1.2.8-1.8.6-1,1.6-1.6,2.8-1.6,1,0,2.4.2,4.2.6,1.8.4,3.4.6,4.4.6h1.4c.4,0,.6,0,.6.2,0,0,0,.2-.2.4l-.6,1.6c-.6,0-1.4.2-2.6.2v.8c0,1.6,1,2.2,3.2,2.2h1.8v2.2h.4Zm-7.6,1.4l-1.6,1.6-1.6-1.6,1.6-1.6,1.6,1.6Z"/><path id="PATH_201" d="m451.84,849.23h-1.6c-1.8,0-3-.6-3.8-1.8-.6,1.2-2,1.8-4.2,1.8h-1v-2.4h1.8c2,0,3-.8,3.2-2.2,0-.6.2-1,.4-1s.4.4.4,1c.2,1.4,1.2,2.2,3,2.2h1.8v2.4h0Zm-4-10.4l-1.6,1.6-1.6-1.6,1.6-1.6,1.6,1.6Z"/><path id="PATH_202" d="m467.44,843.43l-.8,1.6c-1.4,0-2.6,0-3.2.2-.8.4-2,.8-3.6,1.6s-2.8,1.4-3.6,1.6c-1.2.4-2.6.6-3.8.6h-1.4v-2.4h1.6c1.8,0,3.4-.4,4.8-1l4.6-2c-.8-.2-2-.6-3.6-1.2-1.4-.6-2.2-.8-2.6-.8-.8,0-1.6.4-2.4,1q-.2.2-.4.2t-.2-.2v-.2c.6-2,1.8-2.8,3.4-2.8.6,0,1.4.2,2.2.6,1.6.8,2.8,1.2,3.6,1.6,1.4.4,3,.8,4.8.8.4,0,.6,0,.6.2.2.2.2.4,0,.6Zm-5.6-9.2l-1.6,1.6-1.6-1.6,1.6-1.6,1.6,1.6Z"/></g><g id="G_203"><path id="PATH_204" d="m396.84,912.03l-.6-.6c-.6-.6-.8-1-.8-1.4l-.4.4c-1.4,1.4-3,2.2-5.2,2.6-1.8.4-3,.2-3.4-.2-1-1-2-2-2.6-3-.2-.2-.2-.4-.2-.6,0,0,.2,0,.6.2,1.4.8,3,1.4,5,1.6,2.2.2,3.8-.2,4.6-1.2.6-.6,1-2,.8-3.8l2-.6h.4v.4c-.2,1-.2,1.8-.2,2.2,0,.8.4,1.4,1,2l.4.4-1.4,1.6Z"/><path id="PATH_205" d="m405.64,920.83l-.8-.8c-.6-.6-1.2-1-1.8-1.4-1-.4-2-.4-2.6.4-.8.8-1,2.2-.6,4l-2.2.8c-.8-1.8-1.2-3.6-1.4-5.2,0-2,.6-3.8,1.8-5.2l-2-2,1.6-1.6,1.8,1.8c1-1,2.6-2,4.6-2.8,1.8-.8,2.8-1,3.2-.6s.2,1.4-.6,3c-.6,1.4-1.2,2.4-1.6,2.8-2,2-4,2-6,.2-.4.8-.8,1.6-1,2.6s0,2,.2,2.8l.6-.6c1-1,2-1.6,3.2-1.8,1.6-.4,3.2.2,4.2,1.4l.6.6-1.2,1.6Zm-2-6.6c.2-.2.6-1,1-2,.4-1.2.6-1.8.4-2-.2-.2-.8,0-1.8.4s-2,1.2-2.8,2c1.8,1.4,2.8,2,3.2,1.6Z"/><path id="PATH_206" d="m415.44,925.03c-.6.8-1.4,1.2-2,1.6-1,.4-1.8.4-2.2,0-.8-.8-1.4-2.2-1.8-4.6-1,0-1.6.2-1.8,0-.6,0-1.2-.4-1.8-1l-.8-.8,1.6-1.6,1,1c.6.6,1.6.8,2.6.6.6-.2,1.6-.2,3-.6,1.2-.2,2,0,2.4.4.6.6,1,1.6.6,2.8,0,.8-.2,1.6-.8,2.2Zm-1.8.2c.4-.4.8-1,.8-1.8.2-.8,0-1.6-.4-2s-1.4-.4-2.8-.2c0,.4.2,1.2.4,2.2.4,1,.6,1.6,1,1.8s.8.2,1,0Z"/></g><g id="G_207"><path id="PATH_208" d="m552.84,911.03c0,2.8-1.2,4.2-3.6,4.2-1.4,0-2.2-.6-2.6-1.8-.6,1.2-1.6,1.8-2.8,1.8-.4,0-1,0-1.4-.2,0,1.2-.2,2.4-.2,3.8-.6,1.4-1.6,2.6-3.4,3.4-1.6.6-3.2,1-5,1s-3.2-.4-4.4-1.2c-1.2-1-1.8-2.2-1.8-4,0-1,.2-1.8.6-3,.4-.8.6-1.4,1-1.8.2-.2.4-.2.4-.2q.2,0,.2.2v.4c-.6,1.2-.8,2.4-.8,3.4s.4,1.8,1,2.6c.8,1,2.2,1.4,4,1.4,2,0,3.8-.4,5.2-1,1.2-.6,2-1.2,2.2-2,.2-.2.2-.6,0-1.4,0-.6-.2-1.2-.2-1.4-.2-.6-.8-1.6-2-3l.8-1.6c.2-.2.2-.4.2-.4,0,0,.2,0,.2.2.6.8,1,1.4,1.2,1.6.6.6,1.2.8,2,.8s1.6-.2,2-.8c.2-.4.4-.8.6-1.8,0-.4.2-.6.4-.6s.2.2.2.6c.2,1,.4,1.6.8,2s1.2.6,2.2.6c.4,0,.8-.2,1-.4.4-.2.6-.6.6-1,0-.6-.4-1.2-1.2-2.2l1-1.8.2-.2.2.2c1,1.4,1.2,2.4,1.2,3.6Zm-6.6-7.4l-1.4,1.4-1.4-1.4,1.4-1.4,1.4,1.4Zm1.8-3.2l-1.4,1.4-1.4-1.4,1.4-1.4,1.4,1.4Zm1.8,3.2l-1.4,1.4-1.4-1.4,1.4-1.4,1.4,1.4Z"/><path id="PATH_209" d="m557.64,912.83c0,.8-.2,1.6-.6,2.2-.2.4-.4.6-.4.6,0,0-.2-.2-.2-.8,0-2.4-.4-8-1.2-17l1.6-1.6.2-.2v.4c.4,2.6.6,8,.6,16.4Z"/><path id="PATH_210" d="m570.04,915.23h-.8c-.8,0-1.2-.2-1.6-.4v.6c0,1.8-.6,3.6-1.8,5.4-1,1.6-2,2.2-2.6,2.2-1.6,0-2.8,0-4-.2-.4,0-.6-.2-.6-.2,0,0,.2-.2.6-.2,1.6-.4,3.2-1.2,4.8-2.4,1.6-1.4,2.6-2.8,2.6-4.2,0-.8-.6-2-2-3.4l1-1.8c0-.2.2-.2.2-.2l.2.2c.6.8,1,1.4,1.4,1.6.6.4,1.4.8,2.2.8h.6v2.2h-.2Z"/><path id="PATH_211" d="m582.04,899.03c0,.4-.2,1-.6,2.2-2.4.6-5.4,1.6-8.8,2.6,2.4,2.4,3.8,4.4,4,5.8.2,1,0,2-.4,3s-1.2,1.6-2.2,2c-.8.4-2.2.4-4,.4h-.8v-2.4h.6c3.8,0,5.8-.6,5.8-2,0-1-1-2.6-3.2-4.6l-.2.6c-.2-.2-.6-.6-1-1.2-.6-.6-.8-1-.8-1.2,0-.6.2-1.2.8-1.8.2-.2,1.4-.6,4-1.4,2.6-.8,4.8-1.4,6.8-2Zm-.4-3l-.4,1.4-9.8,3.2.4-1.4,9.8-3.2Z"/></g><g id="G_212"><path id="PATH_213" d="m480.04,970.43c0,2.8-1.8,4.2-5.6,4.2-1.4,0-2.4-.2-3-.6-.8-.4-1.2-1.4-1.2-2.6,0-.6.2-1.2.4-1.8.2-.2.2-.4.4-.4s.2.2.2.6v.6c0,.8.4,1.4,1.2,1.6.4.2,1.2.2,2.2.2,3,0,4.4-.4,4.4-1.4,0-1.4-1.8-3.4-5.2-5.8l.6-2c0-.2.2-.2.2-.2,0,0,.2,0,.4.2,3.4,2.8,5,5.2,5,7.4Z"/><path id="PATH_214" d="m492.44,974.63h-.8c-.8,0-1.2-.2-1.6-.4v.6c0,1.8-.6,3.6-1.8,5.4-1,1.6-2,2.2-2.6,2.2-1.6,0-2.8,0-4-.2-.4,0-.6-.2-.6-.2,0,0,.2-.2.6-.2,1.6-.4,3.2-1.2,4.8-2.4,1.6-1.4,2.6-2.8,2.6-4.2,0-.8-.6-2-2-3.4l1-1.8c0-.2.2-.2.2-.2l.2.2c.6.8,1,1.4,1.4,1.6.6.4,1.4.8,2.2.8h.6v2.2h-.2Z"/><path id="PATH_215" d="m502.44,970.63c0,1,0,1.8-.4,2.6-.4,1-1,1.6-1.6,1.6-1,0-2.6-.6-4.6-2-.6.8-1,1.2-1.2,1.4-.6.4-1.2.6-2,.6h-1v-2.4h1.4c.8,0,1.6-.4,2.4-1.4.4-.4,1-1.4,1.8-2.6.6-1,1.4-1.4,2-1.4,1,0,1.8.4,2.4,1.4.6.8.8,1.6.8,2.2Zm-1.2,1.6c0-.6-.2-1.2-.6-2s-1-1.2-1.6-1.2-1.2.6-2,1.8c.4.4,1,.8,1.8,1.2s1.6.6,2,.6c.2,0,.4-.2.4-.4Z"/><path id="PATH_216" d="m517.64,958.83q0,.2.2.6h-1c0,1.6-.2,3.4-.6,5-.4,2.2-1.2,4-2,5.2.4.8.6,1.8.6,2.6,0,.4-.2,1-.4,1.6s-.6,1-1,1.2c-1.8.4-3.6.6-5.8.4l.6-2.2c2-1,3.4-2,4.2-3.2-2-2.6-4.2-5.2-6.8-7.8l-.4.6c-1.4-1.6-2-2.4-2-2.8s.2-1,.4-2c0-.2.2-.4.2-.4,0,0,.2.2.6.4,3.8,3.6,6.8,7.2,8.8,10.8.8-1.2,1.2-3,1.4-5.2.2-1.8.2-3.8,0-6l1.6-1.6c1,1.2,1.2,2.2,1.4,2.8Zm-3.6,13.8v-.2c0-.6-.2-1.2-.6-1.6-.6.8-1.4,1.6-2.4,2.4h.8c.8-.2,1.6-.2,2.2-.6Z"/></g><g id="G_217"><path id="PATH_218" d="m681.84,877.63c.2.6.2,1.2.2,1.8,0,.8-.2,1.4-.4,2.2-.6,1.4-1.6,2.6-3.6,3.4-1.6.6-3.2,1-5,1s-3.2-.4-4.4-1.2c-1.2-1-1.8-2.2-1.8-4,0-1,.2-1.8.6-3,.4-.8.6-1.4,1-1.8.2-.2.4-.2.4-.2q.2,0,.2.2v.4c-.6,1.2-.8,2.4-.8,3.4s.4,1.8,1,2.6c.8,1,2.2,1.4,4,1.4,2,0,3.8-.4,5.2-1,1.2-.6,2-1.2,2.4-2,.2-.2.2-.6.2-.8,0-.6-.2-1.2-.4-2-.2-.6-.8-1.6-1.8-3.2l.8-1.6c.2-.2.2-.4.2-.4,0,0,.2,0,.2.2,1,1.4,1.6,3,1.8,4.6Zm-5.8-8.6l-1.6,1.6-1.6-1.6,1.6-1.6,1.6,1.6Z"/><path id="PATH_219" d="m690.04,877.83h-1.4c-1.4,0-2.6-.6-3-1.8-.4-.8-.6-2.2-.6-3.8v-3.8c0-1.8-.2-4.4-.4-7.8l1.2-1.4c.2-.2.4-.2.4,0,.2,1.8.4,4.4.4,7.8v5.8c0,1.6.8,2.4,2.4,2.4h1v2.6h0Z"/><path id="PATH_220" d="m699.84,877.83h-1.6c-1.8,0-3-.6-3.8-1.8-.6,1.2-2,1.8-4.2,1.8h-1v-2.4h1.8c2,0,3-.8,3.2-2.2,0-.6.2-1,.4-1s.4.4.4,1c.2,1.4,1.2,2.2,3,2.2h1.8v2.4h0Zm-6.8-11.6l-1.6,1.6-1.6-1.6,1.6-1.6,1.6,1.6Zm3.4,0l-1.6,1.6-1.6-1.6,1.6-1.6,1.6,1.6Z"/><path id="PATH_221" d="m715.64,873.63c0,1.2-.2,2.2-.8,3s-1.6,1.4-2.6,1.4c-1.4,0-2.2-.6-2.8-1.6-.8,1.2-1.6,1.6-2.8,1.6-1.4,0-2.4-.6-3-1.6-.8,1.2-1.8,1.6-3.2,1.6h-1.4v-2.4h1.6c1.4,0,2.4-.8,2.6-2.4,0-.4.2-.6.4-.6s.2.2.4.6c.2,1.6,1,2.4,2.6,2.4.8,0,1.6-.2,2-.6.2-.4.4-.8.6-1.6,0-.4.2-.6.4-.6s.2.2.4.6c.2,1.6,1,2.4,2.4,2.4,1.6,0,2.2-.4,2.2-1s-.4-1.4-1.2-2.2l1-1.8c.2-.2.2-.4.4-.4s.2.2.4.4c0,.8.4,2,.4,2.8Z"/><path id="PATH_222" d="m725.84,878.03c0,2-.6,3.8-1.8,5.6-1,1.4-2,2.2-2.6,2.2-1.6,0-2.8,0-4-.2-.4,0-.6-.2-.6-.2,0,0,.2-.2.6-.2,1.6-.4,3.2-1.2,4.8-2.4,1.6-1.4,2.6-2.8,2.6-4.2,0-.8-.6-2-2-3.4l1-1.8c0-.2.2-.2.2-.2l.2.2c.4.6,1,1.4,1.2,2.4.2.6.4,1.6.4,2.2Z"/><path id="PATH_223" d="m741.04,862.03q0,.2.2.6h-1c0,1.6-.2,3.4-.6,5-.4,2.2-1.2,4-2,5.2.4.8.6,1.8.6,2.6,0,.4-.2,1-.4,1.6-.2.6-.6,1-1,1.2-1.8.4-3.6.6-5.8.4l.6-2.2c2-1,3.4-2,4.2-3.2-2-2.6-4.2-5.2-6.8-7.8l-.4.6c-1.4-1.6-2-2.4-2-2.8s.2-1,.4-2c0-.2.2-.4.2-.4,0,0,.2.2.6.4,3.8,3.6,6.8,7.2,8.8,10.8.8-1.2,1.2-3,1.4-5.2.2-1.8.2-3.8,0-6l1.6-1.6c.8,1.2,1.2,2.2,1.4,2.8Zm-3.8,13.8v-.2c0-.6-.2-1.2-.6-1.6-.6.8-1.4,1.6-2.4,2.4h.8c1-.2,1.6-.2,2.2-.6Z"/></g><polygon id="_580" class="cls-1" points="133.14 431.23 148.84 448.83 172.04 456.83 188.44 448.63 194.04 436.63 189.44 429.33 189.44 419.13 174.44 411.03 166.04 407.63 156.84 407.63 143.84 414.83 133.14 431.23"/><g id="G_223"><path id="PATH_224" d="m147.94,434.33c-1.5,0-2.6-.5-2.6-1.7,0-.4.1-.9.5-1.7.6-1.3,2.1-2.5,4.5-3.9l-.1-1.1c.4-.4.7-.8,1.1-1.2h.2c.1,2.2.1,4.4.1,6.6,0,1,.1,1.6.5,2,.3.3.9.4,1.5.4h.3v1.8h-.3c-1.4,0-2.4-.4-2.9-2-.8.5-1.7.8-2.8.8Zm2.5-5.7c-2.5,1.3-3.8,2.4-3.8,3.1,0,.6.8.8,1.8.8.6,0,1.3-.1,2.1-.4l-.1-3.5Z"/><path id="PATH_225" d="m154.24,433.83c1.1,0,2.2-.4,2.4-1.2l.4-1.5,1-.7.1.1c-.2.7-.3,1.3-.3,1.6,0,.5.1.9.5,1.2.5.4,1,.6,1.8.6h.3v1.8h-.3c-1.4,0-2.4-.4-2.9-1.4h-.1c-.5.9-1.6,1.4-2.8,1.4h-.3c-.8,0-1-.6-1-.9s.2-.9,1-.9h.2v-.1Zm1.6,7.4c-.6-.6-1.1-1-1.7-1.5.4-.5.8-1,1.1-1.3.6.5,1.1.9,1.6,1.5-.3.6-.6,1-1,1.3Zm2.8-.1c-.6-.6-1.1-1-1.7-1.5.4-.5.8-1,1.1-1.3.6.5,1.1.9,1.6,1.5-.3.5-.6.9-1,1.3Z"/><path id="PATH_226" d="m160.44,433.83c1.3,0,2.3-.2,3.5-1.2.2-1.4.8-2.8,1.9-3.8,1-.9,1.9-1.3,3-1.3,1,0,1.9.6,1.9,1.4,0,.5-.1.9-.3,1.4h-.1c-.4-.7-1-1.1-1.8-1.1-.7,0-1.3.2-1.9.6-.9.6-1.5,1.3-1.7,2.1h0c.5-.2.9-.3,1.4-.3.8,0,1.4.3,1.8.8.5.5.7,1.2.7,1.7s-.1,1-.3,1.6c-.5,1-1.2,1.4-1.9,1.4-.8,0-1.5-.3-2-1-.4-.5-.8-1.1-.8-1.8h-.1c-1,1-2.1,1.3-3.4,1.3h-.1c-.8,0-1-.6-1-.9s.2-.9,1-.9h.2Zm6.8,1.6c.5,0,.8-.1.9-.4,0-1-.9-1.8-2.1-1.8-.4,0-.8.1-1.1.3.3,1.1,1.3,1.9,2.3,1.9Zm3.5-10.9c-.2.4-.4.7-.6,1-1.4.2-2.6.6-3.7,1.1h0l.3-.6c.1-.2.4-.4.7-.5h0c-.7-.2-1.1-.6-1.1-1.2,0-.4.3-.9.7-1.2.5-.5,1.1-.8,1.7-.8s.9.3.9.7-.2.7-.5.9h0c-.2-.3-.3-.5-.5-.6h-.4c-.5,0-1,.3-1,.5,0,.7,1.2.9,2,.9.5-.2,1-.2,1.5-.2h0Z"/><path id="PATH_227" d="m176.94,435.63h-.2c-1.1,0-1.8-.2-2.4-.8-.9-.9-.9-1.9-.9-4,0-2.7-.2-5.5-.4-8.5.5-.5.9-1,1.3-1.3l.1.1c.2,3.1.2,6.8.2,10.3v.8c0,.9.5,1.3,1.1,1.5.4.1.7.2.9.2h.2v1.7h.1Z"/><path id="PATH_228" d="m178.14,433.83c1.2,0,2.3,0,3.1-.3.9-.3,1.7-.8,1.7-1.2v-.3c-.5.1-1.1.1-1.6.1-1.6,0-2.9-.4-3.4-1.5-.1-.3-.2-.6-.2-1,0-1,.4-2.1,1.1-2.8.6-.6,1.2-.9,1.8-.9,1.1,0,2.1,1.1,2.7,2.8.4.9.6,2,.6,3.4,0,.9-.2,1.7-.7,2.2-.9,1-2.5,1.4-5.1,1.4h-1.1c-.8,0-1-.6-1-.9s.2-.9,1-.9h1.1v-.1Zm.4-9.3c-.6-.6-1.1-1-1.7-1.5.4-.5.8-1,1.1-1.3.6.5,1.1.9,1.6,1.5-.3.5-.6.9-1,1.3Zm1.7,3.1c-.9,0-1.7.7-1.7,1.3,0,1.1,1.9,1.5,4.1,1.5-.3-1.4-1.3-2.8-2.4-2.8Zm1.1-3.3c-.6-.6-1.1-1-1.7-1.5.4-.5.8-1,1.1-1.3.6.5,1.1.9,1.6,1.5-.4.5-.6.9-1,1.3Z"/></g><path id="_610" class="cls-3" d="m363.34,448.63l4.2,2,32.2,15.4,26.1,10.2,22,7.1c4.3-.4,8.5-.8,12.8-1.3.3-3.9.7-7.7,1-11.6l-5.8-21.8c-6.1-2.8-12.1-5.6-18.2-8.5-7.3-6.1-14.6-12.3-22-18.4-10.4-2.2-20.7-4.3-31.1-6.5-6.8.5-13.6.9-20.4,1.4h-6.8c-2.5,2.4-5,4.9-7.4,7.3l1.6,12.7v13.4l11.8-1.4Z"/><g id="G_230"><path id="PATH_231" d="m388.24,441.53c1,1.9,1.6,3.8,1.6,6,0,1.5-.5,3.1-1,3.7-1.3,1.3-3.1,2.2-4.9,2.2-2.8,0-4.5-1.8-4.5-4.4,0-1.9.6-3.1,1.3-4.3l.6.3c-.5.9-.8,2.1-.8,2.7,0,1.2.4,2,1,2.5.6.6,1.7,1,2.8,1,1.2,0,2.6-.6,3.5-1.3.6-.5,1-.9,1-1.2,0-1-.2-1.9-.5-2.6-.4-1.2-.8-2.1-1.2-2.9.4-.6.7-1.2,1.1-1.8v.1Zm-3.9-4.7c.6.4,1.2,1,1.8,1.6-.3.5-.7,1-1.2,1.4-.6-.5-1.1-1-1.7-1.5.3-.5.7-1.1,1.1-1.5Z"/><path id="PATH_232" d="m396.34,450.03h-.2c-1.2,0-1.9-.2-2.5-.8-.9-.9-.9-1.9-.9-4.1,0-2.8-.2-5.7-.4-8.8.5-.5,1-1,1.4-1.4l.1.1c.2,3.2.2,7,.2,10.6v.8c0,.9.5,1.4,1.1,1.6.4.1.7.2.9.2h.2v1.8h.1Z"/><path id="PATH_233" d="m397.54,448.13c1.3,0,2.4,0,3.2-.3.9-.3,1.7-.8,1.7-1.2v-.3c-.5.1-1.1.1-1.7.1-1.7,0-3-.5-3.5-1.6-.1-.3-.2-.7-.2-1.1,0-1.1.4-2.2,1.1-2.9.6-.6,1.2-1,1.9-1,1.2,0,2.1,1.1,2.8,2.9.4,1,.6,2.1.6,3.5,0,.9-.2,1.7-.7,2.3-.9,1.1-2.6,1.5-5.2,1.5h-1.2c-.8,0-1-.6-1-1s.2-.9,1-.9h1.2Zm.5-9.6c-.6-.6-1.1-1-1.7-1.5.4-.5.8-1,1.2-1.4.6.5,1.1,1,1.7,1.6-.5.5-.8.9-1.2,1.3Zm1.7,3.3c-1,0-1.8.7-1.8,1.3,0,1.2,1.9,1.6,4.2,1.5-.2-1.4-1.2-2.8-2.4-2.8Zm1.1-3.5c-.6-.6-1.1-1-1.7-1.5.4-.5.8-1,1.2-1.4.6.5,1.1,1,1.7,1.6-.4.5-.7.9-1.2,1.3Z"/><path id="PATH_234" d="m411.04,442.43l1,2c.4.7.7,1.5.7,2.8v1.6c0,1.3-.7,2.7-1.8,4.1-.9.9-1.7,1.3-2.4,1.3-1.1,0-2.3-.4-3.8-1.1l.2-.5c.5.1,1,.3,1.6.3,2.1,0,4.2-1.8,5.1-4,.1-.2.2-.5.2-.6,0-.2-.1-.5-.2-.8-.5-1.2-1.1-2.2-1.8-3.2.4-.7.7-1.3,1.2-1.9h0Z"/><path id="PATH_235" d="m420.24,442.43l1,2c.4.7.7,1.5.7,2.8v1.6c0,1.3-.7,2.7-1.8,4.1-.9.9-1.7,1.3-2.4,1.3-1.1,0-2.3-.4-3.8-1.1l.2-.5c.5.1,1,.3,1.6.3,2.1,0,4.2-1.8,5.1-4,.1-.2.2-.5.2-.6,0-.2-.1-.5-.2-.8-.5-1.2-1.1-2.2-1.8-3.2.4-.7.8-1.3,1.2-1.9h0Zm-1.3-5c.6.4,1.2,1,1.8,1.6-.3.5-.7,1-1.2,1.4-.6-.5-1.1-1-1.7-1.5.3-.6.7-1.1,1.1-1.5Z"/></g><path id="_299" class="cls-2" d="m428.64,582.63c-5.7,2.9-11.3,5.8-17,8.7-3.3,3.8-6.5,7.7-9.8,11.5-1.5,4.2-3,8.3-4.5,12.5,5.1,4.3,10.2,8.6,15.3,12.9l15,20.8,41-4.2,34.3,11.6,13.5-16.6,8.2-21.6,1.6-13.4-46.6-9.8c-7.9-2-15.8-4.1-23.8-6.1-4.5-3.6-9.1-7.3-13.6-10.9-4.5,1.5-9.1,3.1-13.6,4.6Z"/><g id="G_237"><path id="PATH_238" d="m445.14,616.83c.9,2.1,1.6,3.3,3.4,3.3h.3v1.9h-.3c-.7,0-1.2-.1-1.5-.5h-.1v.5c0,.7-.2,1.6-.6,2.3-1.2,2.1-2.5,3-3.6,3s-2.5-.5-3.8-1.2l.2-.5c.4.2,1,.3,1.7.3,2,0,4.7-2.3,5-4.5-.1-.2-.2-.4-.4-.7-.6-.8-1-1.5-1.3-2.3.3-.7.6-1.3.8-1.8l.2.2Z"/><path id="PATH_239" d="m449.04,620.13c.8,0,1.8-.2,2.4-.4-.5-.8-.5-1.6-.5-2.3,0-1.2.3-2.5,1.4-3.6.8-.8,1.7-1.4,2.3-1.4s1.2.6,1.8,1.7c.4.7.6,1.4.6,2.2,0,1.4-.4,2.5-1,3.5.6.2,1.3.3,2.4.3h.5v1.9h-.4c-1.5,0-3-.3-4.9-1-1.9.7-3.3,1-4.3,1h-.3c-.8,0-1.1-.6-1.1-1s.2-.9,1.1-.9h0Zm7.1-2.7c0-.5-.2-1.1-.4-1.4-.4-.8-.9-1.4-1.5-1.4-1.2,0-2.3,1.4-2.6,2.5.2.9.8,1.6,2.1,2,1-.1,2.4-1.1,2.4-1.7Zm-2.4-10.1c.6.5,1.2,1,1.8,1.6-.3.5-.7,1-1.3,1.5-.6-.6-1.2-1-1.8-1.6.5-.5.9-1,1.3-1.5Z"/><path id="PATH_240" d="m459.74,620.13c2.5,0,5-.9,8.1-2.7v-.1c-1.8-.7-3.4-1.1-4.8-1.1-.9,0-1.5.3-1.9.8l.2.8-.5,1.4h-.2l-.7-2c.1-1.7,1.5-2.7,3.3-2.7,1,0,2.6.4,5,1.3.7.3,1.6.5,2.6.5h1.2l-.8,1.6c-1.3,0-2.1.2-2.6.6l-2.5,1.6c-2,1.3-4.2,2-6.6,2h-.8c-.8,0-1.1-.6-1.1-1s.2-.9,1.1-.9h1v-.1Zm4.3-11c.6.5,1.2,1,1.8,1.6-.3.5-.7,1-1.3,1.5-.6-.6-1.2-1-1.8-1.6.5-.5.9-1,1.3-1.5Z"/></g></svg>