



    


<svg version="1.1" id="Layer_1" xmlns="http://www.w3.org/2000/svg" xmlns:xlink="http://www.w3.org/1999/xlink" x="0px" y="0px" viewBox="0 0 620.1 481" style="enable-background:new 0 0 620.1 481;" xml:space="preserve" width="100%" height="100%">
<style type="text/css">
	.st0{fill:#E8D0E5;stroke:#020202;stroke-width:0.2;stroke-miterlimit:10;}
	.st1{fill:#FBD1D1;stroke:#020202;stroke-width:0.2;stroke-miterlimit:10;}
	.st2{fill:#DBECCB;stroke:#020202;stroke-width:0.2;stroke-miterlimit:10;}
	.st3{fill:#FDFAD6;stroke:#020202;stroke-width:0.2;stroke-miterlimit:10;}
</style>

		<path class="st0 area" d="M279.2,414.7c-14.2-7.8-2.1-26.9-11.3-37.6c-2.1-1.4-9.9-2.1-14.2,0.7c-1.4,1.4-5,1.4-7.8,0
			c-9.2-7.1-14.2-16.3-26.3-17.7c-5-1.4-12.8-4.3-12.8-11.3c-2.8,0-4.2-3.5-5.7-3.5c-14.9-1.4-33.3-3.5-35.4-22
			c-0.7-2.1-2.8-7.1-7.1-7.1c0.7-1.4-0.7-2.8-0.7-2.8c-5-3.5-11.3-2.1-16.3-4.3c-6.6-3-8.1-10.7-12.3-16c0,0.1-0.1,0.1-0.1,0.2
			c-1.5,3.1-3.1,6.3-5.3,9.3c-2.7,3.7-6.6,5.9-11.1,6.4c-10.5,1.2-22.1-6.4-30-13c-9.4-7.8-15.5-11.4-18.5-12.9L28,319.8
			c-5.8,5.8-7.6,20.6-8.2,33c8.6,1.9,32.6,7.5,40.8,11.6c9.8,4.9,38,23.7,53.1,33.8c14.2,9.5,13.9,19.5,13.6,28.3
			c0,1.2-0.1,2.3-0.1,3.5c0,3.3,1.5,6.3,4.2,8.1c3.3,2.2,7.8,2.4,12.4,0.6c13.5-5.4,24.3-0.1,32.1,5.1c4.8,3.2,16.9,8.9,26.6,13.5
			c4.4,2.1,8.4,4,11.3,5.4c8.1,4,21.1,2.2,36.1,0l2.5-0.4c14.7-2.1,20.9-17.2,20.9-22.8c0-2.6,1.8-4.7,4.7-6.5
			C277.5,426.9,277.9,420.8,279.2,414.7z" id="_x33_52" title="اوج"></path>
		<path class="st1 area" d="M425.2,288.6c-6.4-10.6-17-8.5-25.5-14.2c-7.1-4.3-5-12.8-6.4-20.6c-0.7-5.7-5-11.3-9.9-12.8
			c-11.3-2.1-19.1-7.1-26.2-15.6c0-0.7-2.8-1.4-4.3-0.7c-2.9,3.5-5.7,7.8-9.9,5.7c-6.4-3.5-8.5-14.9-13.5-15.6
			c-9.2-0.7-18.4,9.9-20.6,20.6c0,0-3.5-0.7-3.5,0c-5,6.4,5,5,7.1,8.5c3.5,5-2.1,8.5-2.8,13.5c-0.7,1.4,2.1,3.5,2.8,5.7
			c2.8,5.7-1.4,11.3-0.7,17.7c1.4,3.5,8.5,6.4,6.4,8.5c-8.5,7.1-18.4,14.2-29.8,17.7c-4.3,2.1-8.5,6.4-11.3,9.9
			c-9.9,9.9-12.1,27.6-7.8,41.1c2.3,7.7,2.2,14.5-0.5,20.3c7.5,10.8-3.2,28.9,10.4,36.4c-1.3,6-1.7,12.2-1.1,18.2
			c12.2-7.6,44-9,44.4-9c12.8,0,34.6,2.6,54,9.8c14,5.3,52.5,0.9,69.2-1.4c-5.6-4.5-13.9-10.8-19.4-13.6c-5.7-2.8-9.2-8.7-9.2-15.2
			s3.5-12.4,9.2-15.2c7.2-3.6,12.4-26.8,12.4-37.5c0-6.7,6.7-13.1,14.9-19.6c-0.4-2.4-1.5-4.7-2.8-6.4
			C441.5,312.7,433.7,302,425.2,288.6z" id="_x35_17" title="بویین زهرا"></path>
		<path class="st2 area" d="M330.3,209.2c-4.2-7.8-13.5-14.9-12-24.8c0.7-1.4-1.4-2.1-2.9-2.8c-3.5-0.7-8.5,2.1-10.6,0
			c-9.9-7.8-20.6-7.1-31.2-9.2c-6.4-2.1-11.3-5-19.1-5.7c-5.7-0.7-7.1-9.9-12-11.3c-14.9-5-24.1,10.6-36.1,18.4
			c-1.5,0.9-3,1.6-4.5,2.1c2.4,7.7,4.6,16,4.6,21.6c0,6.8-4.8,23.2-10.5,42.4c-1.8,5.8-3.3,10.9-3.9,13.6
			c-3,12.1-24.6,21.9-43.8,24.3c-11.8,1.5-15,7.9-18.6,15.5c4.2,5.2,5.7,12.9,12.3,16c4.9,2.1,11.3,0.7,16.3,4.3
			c0,0,1.4,1.4,0.7,2.8c4.2,0,6.4,5,7.1,7.1c2.1,18.4,20.6,20.6,35.4,22c1.4,0,2.8,3.5,5.7,3.5c0,7.1,7.8,9.9,12.8,11.3
			c12.1,1.4,17,10.6,26.2,17.7c2.9,1.4,6.4,1.4,7.8,0c4.3-2.8,12.1-2.1,14.2-0.7c0.3,0.4,0.6,0.8,0.9,1.2c2.7-5.8,2.8-12.6,0.5-20.3
			c-4.3-13.5-2.1-31.2,7.8-41.1c2.8-3.5,7.1-7.8,11.3-9.9c11.3-3.5,21.3-10.6,29.8-17.7c2.1-2.1-4.9-5-6.4-8.5
			c-0.7-6.4,3.5-12.1,0.7-17.7c-0.7-2.1-3.5-4.3-2.8-5.7c0.7-5,6.4-8.5,2.8-13.5c-2.1-3.5-12-2.1-7.1-8.5c0-0.7,3.5,0,3.5,0
			c2.1-10.6,11.3-21.3,20.6-20.6c0.1,0,0.3,0.1,0.4,0.1C331,213.3,331.6,211.6,330.3,209.2z" id="_x35_03" title="تاکستان"></path>
		<path class="st2 area" d="M466.3,167.4c-3.5,16.3-18.4,19.8-27.6,29.8c-4.2,4.3-2.1,12-4.2,18.4c-3.5,11.3-16.3,2.8-25.5,5
			c-10.6,2.1-6.4,17-10.6,20.6c-2.4,2-5.1,3.6-8,5.2c1.6,2.2,2.7,4.9,3.1,7.6c1.4,7.8-0.7,16.3,6.4,20.6c8.5,5.7,19.1,3.5,25.5,14.2
			c8.5,13.5,16.3,24.1,25.5,36.1c1.3,1.8,2.4,4.1,2.8,6.4c1.8-1.5,3.7-2.9,5.7-4.4c4.5-3.4,8.7-6.7,11.6-9.6
			c2.6-2.6,6.3-7.7,10.6-13.6c11.2-15.3,26.4-36.3,41.4-40c16.2-4.1,27.2-11.8,29.4-13.4c1.4-2.2,4.1-7.6,2.9-11.9
			c-0.7-2.6-2.9-4.7-6.4-6.2l-2.5-1.1c-29.6-12.6-45-20.4-47.4-27.4c-0.3-1.1-1-2.5-1.9-4.3c-3.7-8.1-9.3-20.2-4.3-28.7
			c1.2-2.2,3.1-3.9,5.4-5.2c-6.3-2.1-11.2-4.9-16.8-7C475.6,156.1,467,162.4,466.3,167.4z" id="_x35_15" title="آبیک"></path>
		<path class="st0 area" d="M450,161c-4.3,3.5-5.7,10.6-10.6,12.8c-4.3,1.4-8.5-5-12.8-0.7c-5,5.7-9.9,9.9-14.9,14.9
			c-4.2,5-12-2.1-17.7,2.1c-2.1,2.1-3.5,5-5.7,5.7c-5,2.1-10.6-5-14.9-2.1c-11.3,7.8-16.3,19.8-22.7,31.2c-0.8,1.3-1.1,2.6-1.2,3.9
			c1.1-1.2,2.2-2.6,3.3-3.9c1.4-0.7,4.3,0,4.3,0.7c7.1,8.5,14.9,13.5,26.2,15.6c2.6,0.7,5,2.7,6.9,5.2c2.9-1.5,5.6-3.2,8-5.2
			c4.3-3.5,0-18.4,10.6-20.6c9.2-2.1,22,6.4,25.5-5c2.1-6.4,0-14.2,4.2-18.4c9.2-9.9,24.1-13.5,27.6-29.8c0.2-1.5,1.2-3.1,2.5-4.6
			C463.8,158.1,456.4,155.3,450,161z" id="_x39_97" title="البرز"></path>
		<path class="st3 area" d="M586.6,128.8c-5.1-2.9-14.1-9.1-24.6-16.4c-22-15.2-58.8-40.6-69.5-40.6c-8.4,0-21.2-4.8-33.5-9.4
			c-10.9-4.1-25.9-9.6-29.6-7.8c-1.9,0.9-4.7,2.4-8,4.2c-14.3,7.6-38.4,20.4-50.5,22.5c-14.7,2.4-56.8,2.4-74.8,2.4
			c-9.1,0-18-3.8-26.6-7.5c-8.3-3.5-16.1-6.9-23.7-6.9c-17.2,0-37.7-11.9-46-23c-1.8-2.4-5.4-6.5-9.7-11.1h-13.8
			c0,0-8.6,0.8-13.5-0.1c-5.9-1-11.2-4.4-14.3-9.2c-1.9-3-9.9-4-13.8-4.5c-4.9-0.6-13.7-3.9-18.1-5.7l-11.3,15.6
			c-1.6,4.7-9.9,29.2-14.6,36.3c-3.5,5.2-0.1,22.2,7.4,37.1c6,12,22.5,14.7,35.8,16.8l2.4,0.4c10.7,1.8,19.9,6,28.8,10.1
			c3.5,1.6,6.9,3.2,10.3,4.5c10.3,4.1,17.3,11.9,21.2,23.8l1.3,3.7c1.1,3.3,2.5,7.4,3.9,11.7c1.5-0.5,3-1.1,4.5-2.1
			c12.1-7.8,21.3-23.4,36.1-18.4c5,1.4,6.4,10.6,12,11.3c7.8,0.7,12.8,3.5,19.1,5.7c10.6,2.1,21.3,1.4,31.2,9.2
			c2.1,2.1,7.1-0.7,10.7,0c1.4,0.7,3.5,1.4,2.8,2.8c-1.4,9.9,7.8,17,12,24.8c1.3,2.4,0.8,4.1-0.3,5.8c4.7,1.2,6.9,12.1,13.1,15.5
			c2.6,1.3,4.7,0.2,6.6-1.7c0.1-1.3,0.4-2.7,1.2-3.9c6.4-11.3,11.3-23.4,22.7-31.2c4.3-2.8,9.9,4.3,14.9,2.1
			c2.1-0.7,3.5-3.5,5.7-5.7c5.7-4.3,13.5,2.8,17.7-2.1c5-5,9.9-9.2,14.9-14.9c4.2-4.3,8.5,2.1,12.8,0.7c5-2.1,6.4-9.2,10.6-12.8
			c6.3-5.7,13.7-2.9,18.8,1.7c3.1-3.4,8.4-6.1,12.4-4.6c5.6,2.1,10.5,4.9,16.8,7c2.3-1.3,5.2-2,8.6-2.4c24.7-2.5,46.2-2.4,56.4,0.1
			c7.3,1.8,29.4,3.7,38.5,4.4C600.8,156,597.4,135,586.6,128.8z" id="_x35_21" title="قزوین"></path>

<g id="G_9" class="area" title="">
	<path d="M324.4,134.5h-0.5c-0.5,0-0.8,0-1-0.1c0,0.3,0.1,0.5,0.1,0.8c0,0.5-0.1,0.8-0.2,1.1c-0.3,0.7-0.8,1.3-1.8,1.7
		c-0.8,0.3-1.6,0.5-2.5,0.5c-0.9,0-1.6-0.2-2.2-0.6c-0.6-0.5-0.9-1.1-0.9-2c0-0.5,0.1-0.9,0.3-1.5c0.2-0.4,0.3-0.7,0.5-0.9
		c0.1-0.1,0.2-0.1,0.2-0.1c0.1,0,0.1,0,0.1,0.1c0,0,0,0.1,0,0.2c-0.3,0.6-0.4,1.2-0.4,1.7c0,0.5,0.2,0.9,0.5,1.3
		c0.4,0.5,1.1,0.7,2,0.7c1,0,1.9-0.2,2.6-0.5c0.6-0.3,1-0.6,1.2-1c0.1-0.1,0.1-0.3,0-0.7c0-0.3-0.1-0.6-0.1-0.7
		c-0.1-0.3-0.5-0.8-1-1.5l0.4-0.8c0.1-0.1,0.1-0.2,0.1-0.2s0.1,0,0.1,0.1c0.5,0.8,1,1.2,1.6,1.2h0.8V134.5z M320,130l-0.8,0.8
		l-0.8-0.8l0.8-0.8L320,130z" id="PATH_10" class="area" title=""></path>
	<path d="M326.8,132.5c0,1.3-0.7,2-2,2H324v-1.2h0.7c1,0,1.5-0.2,1.5-0.5c0-0.3-0.2-0.7-0.7-1.2l0.4-1c0-0.1,0.1-0.1,0.1-0.1
		c0,0,0.1,0.1,0.2,0.2C326.6,131.2,326.8,131.9,326.8,132.5z M326,136.7l-0.8,0.8l-0.8-0.8l0.8-0.8L326,136.7z M327.7,136.7
		l-0.8,0.8l-0.8-0.8l0.8-0.8L327.7,136.7z" id="PATH_11" class="area" title=""></path>
	<path d="M332.9,134.1c0,1.5-0.5,2.8-1.5,3.8c-0.3,0.3-0.5,0.5-0.6,0.5c-0.6,0-1.2-0.1-1.9-0.2c-0.3,0-0.4-0.1-0.4-0.1
		c0,0,0.1-0.1,0.4-0.2c0.8-0.2,1.6-0.7,2.3-1.3c0.3-0.3,0.6-0.5,0.8-0.9c0.3-0.4,0.5-0.8,0.5-1.1v-0.3l-1.3,0
		c-0.9,0-1.4-0.4-1.4-1.1c0-0.5,0.1-1,0.4-1.6c0.3-0.6,0.7-1,1.1-1c0.6,0,1.1,0.4,1.4,1.3C332.8,132.6,332.9,133.3,332.9,134.1z
		 M332.2,133.3c0-0.3-0.1-0.6-0.3-0.9c-0.2-0.3-0.5-0.5-0.8-0.5c-0.2,0-0.4,0.1-0.5,0.2c-0.2,0.2-0.2,0.3-0.2,0.5
		c0,0.5,0.3,0.7,1,0.7C331.5,133.4,331.8,133.3,332.2,133.3z" id="PATH_12" class="area" title=""></path>
	<path d="M339.1,134.5h-0.4c-0.4,0-0.6-0.1-0.8-0.2c0,0.1,0,0.2,0,0.3c0,0.9-0.3,1.8-0.9,2.7c-0.5,0.8-1,1.1-1.3,1.1
		c-0.8,0-1.4,0-2-0.1c-0.2,0-0.3-0.1-0.3-0.1s0.1-0.1,0.3-0.1c0.8-0.2,1.6-0.6,2.4-1.2c0.8-0.7,1.3-1.4,1.3-2.1c0-0.4-0.3-1-1-1.7
		l0.5-0.9c0-0.1,0.1-0.1,0.1-0.1c0,0,0.1,0.1,0.1,0.1c0.3,0.4,0.5,0.7,0.7,0.8c0.3,0.2,0.7,0.4,1.1,0.4h0.3V134.5z M337.2,129.2
		l-0.8,0.8l-0.8-0.8l0.8-0.8L337.2,129.2z" id="PATH_13" class="area" title=""></path>
	<path d="M343,131.7c0,0.9-0.1,1.5-0.3,1.8c-0.5,0.7-1.3,1-2.6,1h-1.4v-1.2h1c1.7,0,2.6-0.3,2.8-0.8c0.1-0.2,0-0.4-0.1-0.6
		c-0.4,0.1-0.8,0.1-1.3,0.1c-0.9,0-1.4-0.4-1.4-1.2c0-0.5,0.1-1.1,0.4-1.6c0.3-0.6,0.7-0.9,1.2-0.9c0.4,0,0.8,0.3,1.1,0.8
		C342.8,129.9,343,130.7,343,131.7z M341.1,126.2l-0.8,0.8l-0.8-0.8l0.8-0.8L341.1,126.2z M342.3,130.8c0-0.3-0.1-0.6-0.3-0.9
		c-0.2-0.3-0.5-0.4-0.8-0.4c-0.2,0-0.4,0.1-0.6,0.2c-0.2,0.1-0.2,0.3-0.2,0.5c0,0.4,0.3,0.6,1,0.6
		C341.6,130.9,341.9,130.9,342.3,130.8z M342.8,126.2L342,127l-0.8-0.8l0.8-0.8L342.8,126.2z" id="PATH_14" class="area" title=""></path>
</g>
<g id="G_15" class="area" title="">
	<path d="M390.6,214.9c0,1-0.3,1.9-0.9,2.8c-0.5,0.7-1,1.1-1.3,1.1c-0.8,0-1.4,0-2-0.1c-0.2,0-0.3-0.1-0.3-0.1s0.1-0.1,0.3-0.1
		c0.8-0.2,1.6-0.6,2.4-1.2c0.8-0.7,1.3-1.4,1.3-2.1c0-0.4-0.3-1-1-1.7l0.5-0.9c0-0.1,0.1-0.1,0.1-0.1c0,0,0.1,0.1,0.1,0.1
		c0.2,0.3,0.5,0.7,0.6,1.2C390.5,214.2,390.6,214.6,390.6,214.9z M389.9,209.6l-0.8,0.8l-0.8-0.8l0.8-0.8L389.9,209.6z" id="PATH_16" class="area" title=""></path>
	<path d="M396.9,214.8h-0.4c-0.4,0-0.6-0.1-0.8-0.2c0,0.1,0,0.2,0,0.3c0,0.9-0.3,1.8-0.9,2.7c-0.5,0.8-1,1.1-1.3,1.1
		c-0.8,0-1.4,0-2-0.1c-0.2,0-0.3-0.1-0.3-0.1s0.1-0.1,0.3-0.1c0.8-0.2,1.6-0.6,2.4-1.2c0.8-0.7,1.3-1.4,1.3-2.1c0-0.4-0.3-1-1-1.7
		l0.5-0.9c0-0.1,0.1-0.1,0.1-0.1c0,0,0.1,0.1,0.1,0.1c0.3,0.4,0.5,0.7,0.7,0.8c0.3,0.2,0.7,0.4,1.1,0.4h0.3V214.8z" id="PATH_17" class="area" title=""></path>
	<path d="M401.8,214.8H401c-0.9,0-1.5-0.3-1.9-0.9c-0.3,0.6-1,0.9-2.1,0.9h-0.6v-1.2h0.9c1,0,1.5-0.4,1.6-1.1c0-0.3,0.1-0.5,0.2-0.5
		s0.2,0.2,0.2,0.5c0.1,0.7,0.6,1.1,1.5,1.1h0.9V214.8z M399.6,217l-0.8,0.8L398,217l0.8-0.8L399.6,217z" id="PATH_18" class="area" title=""></path>
	<path d="M404.1,206.9c0.1,0.1,0.1,0.2,0.1,0.2c0,0-0.1,0-0.2,0h-0.3c0.1,1.3,0.1,3.2,0.1,5.7c0,0.6-0.1,1.1-0.4,1.4
		c-0.3,0.4-0.8,0.6-1.3,0.6h-0.6v-1.2h0.5c0.8,0,1.2-0.3,1.1-0.9c-0.1-2.1-0.2-4.3-0.3-6.5l0.7-0.6c0.1-0.1,0.2-0.2,0.2-0.2
		c0,0,0,0.1,0.1,0.2C403.7,206,403.9,206.4,404.1,206.9z" id="PATH_19" class="area" title=""></path>
	<path d="M406.5,213.6c0,0.4-0.1,0.8-0.3,1.1c-0.1,0.2-0.2,0.3-0.2,0.3c0,0-0.1-0.1-0.1-0.4c0-1.2-0.2-4-0.6-8.5l0.8-0.8
		c0.1-0.1,0.1-0.1,0.1-0.1c0,0,0,0.1,0,0.2C406.5,206.8,406.5,209.5,406.5,213.6z" id="PATH_20" class="area" title=""></path>
</g>
<g id="G_21" class="area" title="">
	<path d="M459.2,249h-0.7c-0.5,0-1-0.3-1.6-0.8c-0.3-0.3-0.7-0.8-1.2-1.5c0,0.7-0.1,1.2-0.4,1.5c-0.5,0.6-1.5,0.9-3,0.9h-2
		c-2.4,0-3.7-0.7-3.7-2.1c0-0.5,0.2-1,0.5-1.5c0.1-0.1,0.2-0.2,0.2-0.2c0.1,0,0.1,0,0.1,0.1c0,0.1,0,0.1,0,0.2
		c-0.1,0.4-0.2,0.6-0.2,0.9c0,0.4,0.2,0.7,0.5,0.9c0.5,0.4,1.3,0.6,2.4,0.6h2c1.1,0,1.9-0.1,2.3-0.2c0.5-0.2,0.7-0.5,0.7-0.9
		c0-0.4-0.2-0.9-0.7-1.5c-0.3-0.3-0.7-0.8-1.3-1.3c-0.5-0.4-0.7-0.7-0.7-0.7c0-0.7,0.1-1.1,0.3-1.4c0-0.1,0.7-0.3,2.1-0.8
		c1.4-0.5,2.6-0.9,3.5-1.2c0,0.1-0.1,0.5-0.3,1.1c-1.1,0.3-2.7,0.9-4.9,1.7c1,0.9,2.1,2.2,3.4,3.9c0.5,0.6,0.9,1,1.2,1.2
		c0.2,0.1,0.6,0.2,1,0.2h0.4V249z" id="PATH_22" class="area" title=""></path>
	<path d="M464.1,249h-0.8c-0.9,0-1.5-0.3-1.9-0.9c-0.3,0.6-1,0.9-2.1,0.9h-0.6v-1.2h0.9c1,0,1.5-0.4,1.6-1.1c0-0.3,0.1-0.5,0.2-0.5
		s0.2,0.2,0.2,0.5c0.1,0.7,0.6,1.1,1.5,1.1h0.9V249z M460.8,251.2l-0.8,0.8l-0.8-0.8l0.8-0.8L460.8,251.2z M462.6,251.2l-0.8,0.8
		l-0.8-0.8l0.8-0.8L462.6,251.2z" id="PATH_23" class="area" title=""></path>
	<path d="M466.5,247c0,1.3-0.7,2-2,2h-0.8v-1.2h0.7c1,0,1.5-0.2,1.5-0.5c0-0.3-0.2-0.7-0.7-1.2l0.4-1c0-0.1,0.1-0.1,0.1-0.1
		s0.1,0.1,0.2,0.2C466.3,245.7,466.5,246.4,466.5,247z M466.2,251.2l-0.8,0.8l-0.8-0.8l0.8-0.8L466.2,251.2z" id="PATH_24" class="area" title=""></path>
	<path d="M468.9,247.8c0,0.4-0.1,0.8-0.3,1.1c-0.1,0.2-0.2,0.3-0.2,0.3c0,0-0.1-0.1-0.1-0.4c0-1.2-0.2-4-0.6-8.5l0.8-0.8
		c0.1-0.1,0.1-0.1,0.1-0.1c0,0,0,0.1,0,0.2C468.8,240.9,468.9,243.6,468.9,247.8z" id="PATH_25" class="area" title=""></path>
</g>
<g id="G_26" class="area" title="">
	<path d="M333.7,343.3c0,0.4-0.1,0.8-0.3,1.1c-0.1,0.2-0.2,0.3-0.2,0.3c0,0-0.1-0.1-0.1-0.4c0-1.2-0.2-4-0.6-8.5l0.8-0.8
		c0.1-0.1,0.1-0.1,0.1-0.1c0,0,0,0.1,0,0.2C333.7,336.4,333.7,339.1,333.7,343.3z" id="PATH_27" class="area" title=""></path>
	<path d="M340,344.5h-0.4c-0.4,0-0.6-0.1-0.8-0.2c0,0.1,0,0.2,0,0.3c0,0.9-0.3,1.8-0.9,2.7c-0.5,0.8-1,1.1-1.3,1.1
		c-0.8,0-1.4,0-2-0.1c-0.2,0-0.3-0.1-0.3-0.1s0.1-0.1,0.3-0.1c0.8-0.2,1.6-0.6,2.4-1.2c0.8-0.7,1.3-1.4,1.3-2.1c0-0.4-0.3-1-1-1.7
		l0.5-0.9c0-0.1,0.1-0.1,0.1-0.1c0,0,0.1,0.1,0.1,0.1c0.3,0.4,0.5,0.7,0.7,0.8c0.3,0.2,0.7,0.4,1.1,0.4h0.3V344.5z" id="PATH_28" class="area" title=""></path>
	<path d="M346.1,342.5c0,0.4-0.1,0.8-0.4,1.2c-0.3,0.5-0.6,0.7-1,0.7c-0.3,0-1-0.2-2.1-0.7c-0.9,0.6-1.7,0.8-2.4,0.8h-0.5v-1.2h0.6
		c0.4,0,0.8,0,1.2-0.1c-0.4-0.3-0.6-0.7-0.6-1.2c0-0.6,0.4-1.3,1.3-2l-0.7-0.3c0.2-0.2,0.5-0.5,0.9-0.9c0.9,0.5,1.7,0.9,2.4,1.5
		C345.6,341.1,346.1,341.8,346.1,342.5z M343.4,341.7c0-0.3-0.1-0.5-0.2-0.7c-0.1-0.3-0.3-0.4-0.6-0.4c-0.3,0-0.5,0.1-0.8,0.3
		c-0.3,0.2-0.5,0.5-0.5,0.7c0,0.4,0.4,0.8,1.1,1c0.2-0.1,0.4-0.2,0.6-0.3C343.3,342.1,343.4,341.9,343.4,341.7z M345.5,342.9
		c0-0.3-0.2-0.6-0.6-1c-0.3-0.3-0.6-0.6-0.9-0.7c0,0.8-0.2,1.4-0.7,1.8c0.8,0.3,1.4,0.4,1.6,0.4
		C345.3,343.3,345.5,343.2,345.5,342.9z" id="PATH_29" class="area" title=""></path>
	<path d="M351.1,344.6c0,1-0.3,1.9-0.9,2.8c-0.5,0.7-1,1.1-1.3,1.1c-0.8,0-1.4,0-2-0.1c-0.2,0-0.3-0.1-0.3-0.1s0.1-0.1,0.3-0.1
		c0.8-0.2,1.6-0.6,2.4-1.2c0.8-0.7,1.3-1.4,1.3-2.1c0-0.4-0.3-1-1-1.7l0.5-0.9c0-0.1,0.1-0.1,0.1-0.1c0,0,0.1,0.1,0.1,0.1
		c0.2,0.3,0.5,0.7,0.6,1.2C351,343.8,351.1,344.2,351.1,344.6z M350.4,339.2l-0.8,0.8l-0.8-0.8l0.8-0.8L350.4,339.2z" id="PATH_30" class="area" title=""></path>
	<path d="M365.1,344.5h-0.5c-0.5,0-0.8,0-1-0.1c0,0.3,0.1,0.5,0.1,0.8c0,0.5-0.1,0.8-0.2,1.1c-0.3,0.7-0.8,1.3-1.8,1.7
		c-0.8,0.3-1.6,0.5-2.5,0.5c-0.9,0-1.6-0.2-2.2-0.6c-0.6-0.5-0.9-1.1-0.9-2c0-0.5,0.1-0.9,0.3-1.5c0.2-0.4,0.3-0.7,0.5-0.9
		c0.1-0.1,0.2-0.1,0.2-0.1c0.1,0,0.1,0,0.1,0.1c0,0,0,0.1,0,0.2c-0.3,0.6-0.4,1.2-0.4,1.7c0,0.5,0.2,0.9,0.5,1.3
		c0.4,0.5,1.1,0.7,2,0.7c1,0,1.9-0.2,2.6-0.5c0.6-0.3,1-0.6,1.2-1c0.1-0.1,0.1-0.3,0-0.7c0-0.3-0.1-0.6-0.1-0.7
		c-0.1-0.3-0.5-0.8-1-1.5l0.4-0.8c0.1-0.1,0.1-0.2,0.1-0.2s0.1,0,0.1,0.1c0.5,0.8,1,1.2,1.6,1.2h0.8V344.5z M360.7,340l-0.8,0.8
		l-0.8-0.8l0.8-0.8L360.7,340z" id="PATH_31" class="area" title=""></path>
	<path d="M370,344.5h-0.8c-0.9,0-1.5-0.3-1.9-0.9c-0.3,0.6-1,0.9-2.1,0.9h-0.6v-1.2h0.9c1,0,1.5-0.4,1.6-1.1c0-0.3,0.1-0.5,0.2-0.5
		s0.2,0.2,0.2,0.5c0.1,0.7,0.6,1.1,1.5,1.1h0.9V344.5z M366.7,346.7l-0.8,0.8l-0.8-0.8l0.8-0.8L366.7,346.7z M368.5,346.7l-0.8,0.8
		l-0.8-0.8l0.8-0.8L368.5,346.7z" id="PATH_32" class="area" title=""></path>
	<path d="M372.4,342.5c0,1.3-0.7,2-2,2h-0.8v-1.2h0.7c1,0,1.5-0.2,1.5-0.5c0-0.3-0.2-0.7-0.7-1.2l0.4-1c0-0.1,0.1-0.1,0.1-0.1
		s0.1,0.1,0.2,0.2C372.2,341.2,372.4,341.9,372.4,342.5z M371.7,346.7l-0.8,0.8l-0.8-0.8l0.8-0.8L371.7,346.7z M373.4,346.7
		l-0.8,0.8l-0.8-0.8l0.8-0.8L373.4,346.7z" id="PATH_33" class="area" title=""></path>
	<path d="M379.6,344.5h-1.1c-0.1,1.4-0.6,2.5-1.6,3.5c-0.3,0.3-0.5,0.5-0.6,0.5c-0.5,0-1.2-0.1-1.9-0.2c-0.2,0-0.4-0.1-0.4-0.1
		c0,0,0.1-0.1,0.4-0.2c0.8-0.2,1.6-0.7,2.3-1.2c0.3-0.3,0.6-0.5,0.8-0.9c0.3-0.4,0.5-0.8,0.5-1.1v-0.3h-1.3c-1,0-1.4-0.4-1.4-1.2
		c0-0.5,0.1-1,0.4-1.6c0.3-0.6,0.7-1,1.1-1c0.5,0,0.9,0.3,1.2,1c0.2,0.5,0.4,1,0.4,1.6h1.1V344.5z M377.8,343.3
		c0-0.3-0.1-0.6-0.3-0.9c-0.2-0.4-0.5-0.5-0.8-0.5c-0.2,0-0.4,0.1-0.5,0.2s-0.2,0.3-0.2,0.6c0,0.5,0.4,0.7,1.2,0.7
		C377.3,343.4,377.5,343.3,377.8,343.3z" id="PATH_34" class="area" title=""></path>
	<path d="M382,342.5c0,1.3-0.7,2-2,2h-0.8v-1.2h0.7c1,0,1.5-0.2,1.5-0.5c0-0.3-0.2-0.7-0.7-1.2l0.4-1c0-0.1,0.1-0.1,0.1-0.1
		s0.1,0.1,0.2,0.2C381.8,341.2,382,341.9,382,342.5z M381.7,346.7l-0.8,0.8l-0.8-0.8l0.8-0.8L381.7,346.7z" id="PATH_35" class="area" title=""></path>
</g>
<g id="G_36" class="area" title="">
	<path d="M160.2,386.3c-0.5,0.5-1,0.8-1.6,0.9c-0.5,0.1-1.1,0.2-1.8,0.2c-1.4,0-2.5-0.3-3.2-1c-0.5-0.5-0.8-1.2-0.8-2
		c0-1.9,1.3-3.4,3.8-4.4c-1.1-0.2-1.8-0.3-2.3-0.3c-0.2,0-0.5,0.1-0.9,0.4c-0.4,0.3-0.6,0.4-0.5,0.4c-0.1,0-0.1-0.1-0.1-0.3
		c0-0.3,0.2-0.6,0.4-0.9c0.3-0.5,0.8-0.8,1.4-0.8c0.5,0,1.2,0.1,2.1,0.3c0.9,0.2,1.7,0.3,2.2,0.3h0.7c0.2,0,0.3,0,0.3,0.1
		c0,0,0,0.1-0.1,0.2l-0.3,0.8c-0.5,0-1,0.1-1.7,0.2c-1,0.2-2,0.6-2.8,1.1c-1.1,0.7-1.6,1.5-1.6,2.4c0,0.9,0.4,1.5,1.3,2
		c0.7,0.3,1.5,0.5,2.5,0.5c1,0,1.9-0.1,2.7-0.3c0.1,0,0.1,0,0.2,0c0.1,0,0.1,0,0.1,0.1C160.3,386.1,160.3,386.2,160.2,386.3z
		 M157.6,383.6l-0.8,0.8l-0.8-0.8l0.8-0.8L157.6,383.6z" id="PATH_37" class="area" title=""></path>
	<path d="M165,382.6c0,1.5-0.5,2.8-1.5,3.8c-0.3,0.3-0.5,0.5-0.6,0.5c-0.6,0-1.2-0.1-1.9-0.2c-0.3,0-0.4-0.1-0.4-0.1
		c0,0,0.1-0.1,0.4-0.2c0.8-0.2,1.6-0.7,2.3-1.3c0.3-0.3,0.6-0.5,0.8-0.9c0.3-0.4,0.5-0.8,0.5-1.1v-0.3l-1.3,0
		c-0.9,0-1.4-0.4-1.4-1.1c0-0.5,0.1-1,0.4-1.6c0.3-0.6,0.7-1,1.1-1c0.6,0,1.1,0.4,1.4,1.3C164.9,381.1,165,381.8,165,382.6z
		 M164.3,381.8c0-0.3-0.1-0.6-0.3-0.9c-0.2-0.3-0.5-0.5-0.8-0.5c-0.2,0-0.4,0.1-0.5,0.2c-0.2,0.2-0.2,0.3-0.2,0.5
		c0,0.5,0.3,0.7,1,0.7C163.6,381.9,163.9,381.8,164.3,381.8z" id="PATH_38" class="area" title=""></path>
	<path d="M169.1,372.3c-0.4,0.4-1,0.5-1.6,0.5c-0.1,0-0.2,0-0.4,0s-0.3,0-0.4,0c-0.1,0-0.2,0.1-0.3,0.2s-0.2,0.2-0.2,0.2
		c-0.1,0-0.1-0.1-0.1-0.2c0-0.1,0.1-0.3,0.2-0.5c0.1-0.3,0.2-0.4,0.3-0.4c0.1,0,0.3,0,0.6,0.1s0.5,0.1,0.6,0.1c0.6,0,1,0,1.3-0.1
		c0.2,0,0.3-0.1,0.3-0.1c0,0,0.1,0,0.1,0C169.3,372.1,169.2,372.2,169.1,372.3z M168.4,381.8c0,0.4-0.1,0.8-0.3,1.1
		c-0.1,0.2-0.2,0.3-0.2,0.3c0,0-0.1-0.1-0.1-0.4c0-1.2-0.2-4-0.6-8.5l0.8-0.8c0.1-0.1,0.1-0.1,0.1-0.1c0,0,0,0.1,0,0.2
		C168.4,374.9,168.4,377.6,168.4,381.8z" id="PATH_39" class="area" title=""></path>
</g>
<g id="G_40" class="area" title="">
	<path d="M226.4,263.4c0.1,0.3,0.1,0.6,0.1,0.9c0,0.4-0.1,0.7-0.2,1.1c-0.3,0.7-0.8,1.3-1.8,1.7c-0.8,0.3-1.6,0.5-2.5,0.5
		c-0.9,0-1.6-0.2-2.2-0.6c-0.6-0.5-0.9-1.1-0.9-2c0-0.5,0.1-0.9,0.3-1.5c0.2-0.4,0.3-0.7,0.5-0.9c0.1-0.1,0.2-0.1,0.2-0.1
		c0.1,0,0.1,0,0.1,0.1c0,0,0,0.1,0,0.2c-0.3,0.6-0.4,1.2-0.4,1.7c0,0.5,0.2,0.9,0.5,1.3c0.4,0.5,1.1,0.7,2,0.7c1,0,1.9-0.2,2.6-0.5
		c0.6-0.3,1-0.6,1.2-1c0.1-0.1,0.1-0.3,0.1-0.4c0-0.3-0.1-0.6-0.2-1c-0.1-0.3-0.4-0.8-0.9-1.6l0.4-0.8c0.1-0.1,0.1-0.2,0.1-0.2
		s0.1,0,0.1,0.1C226,261.8,226.3,262.6,226.4,263.4z M223.5,259l-0.8,0.8l-0.8-0.8l0.8-0.8L223.5,259z" id="PATH_41" class="area" title=""></path>
	<path d="M230.5,263.5h-0.7c-0.7,0-1.3-0.3-1.5-0.9c-0.2-0.4-0.3-1.1-0.3-1.9v-1.9c0-0.9-0.1-2.2-0.2-3.9l0.6-0.7
		c0.1-0.1,0.2-0.1,0.2,0c0.1,0.9,0.2,2.2,0.2,3.9v2.9c0,0.8,0.4,1.2,1.2,1.2h0.5V263.5z" id="PATH_42" class="area" title=""></path>
	<path d="M235.4,263.5h-0.8c-0.9,0-1.5-0.3-1.9-0.9c-0.3,0.6-1,0.9-2.1,0.9H230v-1.2h0.9c1,0,1.5-0.4,1.6-1.1c0-0.3,0.1-0.5,0.2-0.5
		c0.1,0,0.2,0.2,0.2,0.5c0.1,0.7,0.6,1.1,1.5,1.1h0.9V263.5z M232,257.7l-0.8,0.8l-0.8-0.8l0.8-0.8L232,257.7z M233.7,257.7
		l-0.8,0.8l-0.8-0.8l0.8-0.8L233.7,257.7z" id="PATH_43" class="area" title=""></path>
	<path d="M244.6,263.5H244c-0.7,0-1.1-0.3-1.4-0.8c-0.2,0.6-0.7,0.8-1.3,0.8c-0.6,0-1-0.3-1.3-0.8c-0.3,0.6-0.7,0.8-1.3,0.8
		c-0.7,0-1.2-0.3-1.5-0.8c-0.4,0.6-0.9,0.8-1.6,0.8H235v-1.2h0.8c0.7,0,1.2-0.4,1.3-1.2c0-0.2,0.1-0.3,0.2-0.3
		c0.1,0,0.1,0.1,0.2,0.3c0.1,0.8,0.5,1.2,1.3,1.2c0.7,0,1.2-0.4,1.2-1.2c0-0.2,0.1-0.3,0.2-0.3c0.1,0,0.2,0.1,0.2,0.3
		c0.1,0.8,0.5,1.2,1,1.2c0.7,0,1.2-0.4,1.2-1.2c0-0.2,0.1-0.3,0.2-0.3c0.1,0,0.2,0.1,0.2,0.3c0.1,0.8,0.5,1.2,1.2,1.2h0.6V263.5z" id="PATH_44" class="area" title=""></path>
	<path d="M250.8,254.2c0,0.2-0.2,0.6-0.4,1.1l-2.5,0.8c-1.1,0.4-1.9,0.7-2.3,0.9c0.8,0.8,1.3,1.4,1.6,1.7c0.5,0.7,0.8,1.3,0.9,2
		c0,0.5,0,1-0.2,1.4c-0.3,0.9-1.4,1.3-3.1,1.3h-0.5v-1.2h0.6c0.8,0,1.4,0,1.7-0.1c0.7-0.2,1.1-0.5,1.1-1c0-0.7-0.5-1.5-1.6-2.5
		l-0.1,0.2c-0.1-0.1-0.3-0.3-0.5-0.6c-0.3-0.3-0.4-0.6-0.4-0.6c0-0.2,0-0.4,0.1-0.8c0.1-0.4,0.2-0.6,0.3-0.7
		c0.1-0.1,0.8-0.4,2.1-0.8C248.7,254.9,249.9,254.5,250.8,254.2z" id="PATH_45" class="area" title=""></path>
	<path d="M254.3,263.5h-0.7c-0.7,0-1.3-0.3-1.5-0.9c-0.2-0.4-0.3-1.1-0.3-1.9v-1.9c0-0.9-0.1-2.2-0.2-3.9l0.6-0.7
		c0.1-0.1,0.2-0.1,0.2,0c0.1,0.9,0.2,2.2,0.2,3.9v2.9c0,0.8,0.4,1.2,1.2,1.2h0.5V263.5z" id="PATH_46" class="area" title=""></path>
	<path d="M256.7,261.5c0,1.3-0.7,2-2,2h-0.8v-1.2h0.7c1,0,1.5-0.2,1.5-0.5c0-0.3-0.2-0.7-0.7-1.2l0.4-1c0-0.1,0.1-0.1,0.1-0.1
		c0,0,0.1,0.1,0.2,0.2C256.5,260.2,256.7,260.9,256.7,261.5z M255.8,257.1l-0.8,0.8l-0.8-0.8l0.8-0.8L255.8,257.1z M257.5,257.1
		l-0.8,0.8l-0.8-0.8l0.8-0.8L257.5,257.1z" id="PATH_47" class="area" title=""></path>
</g>
</svg>


