<?xml version="1.0" encoding="UTF-8"?><svg id="Layer_1" xmlns="http://www.w3.org/2000/svg" viewBox="0 0 1223.35 1073.04"><defs><style>.cls-1{fill:none;stroke-width:1.11px;}.cls-1,.cls-2,.cls-3,.cls-4,.cls-5,.cls-6{stroke-miterlimit:22.22;}.cls-1,.cls-6{stroke:#040404;}.cls-7{fill:#fef5b4;}.cls-7,.cls-2,.cls-8,.cls-3,.cls-9,.cls-4,.cls-10,.cls-5{stroke:#020202;}.cls-7,.cls-8{stroke-miterlimit:10;}.cls-7,.cls-8,.cls-6{stroke-width:.5px;}.cls-2,.cls-3,.cls-4,.cls-5{stroke-width:.44px;}.cls-2,.cls-9{fill:#e8d0e5;}.cls-8{fill:#fdf9cb;}.cls-3,.cls-10{fill:#dbeccb;}.cls-9,.cls-10{stroke-miterlimit:29.36;stroke-width:.59px;}.cls-4{fill:#fbd1d1;}.cls-5{fill:#fdfad6;}.cls-6{fill:#f8f5b6;}</style></defs><path id="_714" class="cls-4" d="m155.75,563.12c14.4-3.3,26.4-11.1,40.9-14.4,14.4-4.4,32,7.8,40.9-2.2,6.7-5.6-16.7-11.1-8.9-20,2.2-3.3,8.9-3.3,13.3-1.1,12.2,5.6,25.6,15.6,37.6,6.7,10-6.7,20-11.1,26.7-21.1,5.6-8.9-5.6-15.6-8.9-23.3-1.3-2.7-1.1-5.3-.2-7.8l-8-4-34.2-22-25.9-25.9c-4.9,5.3-9.1,11.8-15.8,15.8-4.4,3.3-12.2-1.1-18.9,2.2-11.1,6.7-13.3,20-24.4,24.4-5.6,3.3-12.2-1.1-17.8-1.1-20-1.1-35.3,21.1-58.7,8.9-7.8-4.4-16.7,4.4-24.4,10-2.7,2.2-6,3.1-9.3,3.3,12.2,19.3,22.2,39.3,22.9,40.7,1.6,3.1,3.6,6.2,5.8,9.6,17.8,4,34.2,15.8,51.6,21.8,4.6.6,10.1.6,15.7-.5Z"/><path id="_713" class="cls-3" d="m349.25,547.82c5.6,4.4,5.6,13.3,12.2,16.7,2.2,1.1,6.7-1.1,8.9,0,5.6,6.7,10,14.4,17.8,15.6,6.7,1.1,10-11.1,17.8-6.7,14.4,7.8,31.1-1.1,46.4,5.6,3.3,2.2,5.6,5.6,8.9,5.6,13.3,0,14.4-13.3,6.7-23.3-3.3-3.3,1.1-8.9,4.4-10,15.6-4.4,32-3.3,45.3-7.8,2.7-.9,5.1-1.8,7.6-3.1l-125.8-16.2-35.1-10.4-67.1-33.6c-.9,2.4-1.1,5.1.2,7.8,3.3,7.8,14.4,14.4,8.9,23.3-.2.2-.4.4-.7.9,10.5,16,30.1,22,43.6,35.6Z"/><path id="_711" class="cls-3" d="m642.35,607.62c-4.31.86-4.92.16-8.7,1.1-1.75.43-13.66,4.05-17.07,13.66-.8,2.26-.8,5.01.37,8.54-2.2-1.1-4.4,0-5.6,1.1v4.4c4.4,4.4,15.6,10,10,14.4-11.1,8.9-25.6,10-38.7,3.3-1.1,8.9-11.1,6.7-17.8,5.6,0,2.2-1.1,4.4,0,5.6,5.6,5.6,7.8,14.4,12.2,18.9,4.4,4.4,15.6,1.1,20-4.4,3.3-3.3,4.4-8.9,8.9-12.2,11.1-5.6,21.1,10,28.9,5.6,10-5.6,25.6-3.3,27.8-11.1,4.4-16.7,21.1-25.6,35.3-33.1,8.9-4.4,10-15.6,16.7-23.3,6.7-6.7,15.6-3.3,24.4-5.6,3.3-1.1,4.4-4.4,6.7-8.9,1.6-2.7,4.2-5.1,7.3-7.6l-1.1-1.1-21.6-8c-13.47-2.6-26.93-5.2-40.4-7.8-5.83,9.03-11.67,18.07-17.5,27.1-4.85,2.22-9.69,4.44-14.54,6.67-3.29,2.48-8.53,5.73-15.56,7.13Z"/><path id="_716" class="cls-2" d="m225.45,651.82c17.8-6.7,32.2-27.8,55.3-34.2,12.2-2.2,5.6-23.3,3.3-35.3-2.2-7.8,6.7-13.3,12.2-18.9,4.4-5.6-1.1-10-5.6-14.4-1.1-2.2,1.1-5.6,1.1-7.8.9-5.8-7.1-6-13.3-8-11.8,7.6-24.7-2-36.4-7.3-4.4-2.2-11.1-2.2-13.3,1.1-7.8,8.9,15.6,14.4,8.9,20-8.9,10-26.7-2.2-40.9,2.2-14.4,3.3-26.7,11.1-40.9,14.4-5.6,1.1-11.1,1.1-15.6,0-17.3-6-33.8-17.8-51.6-21.8,4.9,7.1,10.9,14.2,16.7,21.3,4.4,5.3,8.9,10.7,13.1,16.2,13.1,17.6,13.1,42.4,13.1,71.6,0,3.1.2,5.8.9,8.4,30.8,7.8,64.4,3.6,93-7.5Z"/><path id="_726" class="cls-5" d="m709.05,973.82c-36.4-11.1-57.6-46.4-38.7-78.7-17.8,18.9-43.1,45.3-63.1,15.6-2.2-4.4-3.3-14.4-7.8-15.6-16.7-4.4-19.8-16.7-22.2-30.9,0-2.2-2.2-5.6-5.6-5.6-8.9,0-20,0-23.3-7.8-4.4-8.9,8.9-11.1,10-18.9,2.2-7.8,0-14.4-2.2-22.2-4.4-21.1,11.1-45.3-13.3-60.9-.69-.34-1.58-.93-1.99-1.94-.98-2.41,1.65-5.35,1.36-5.58-.25-.2-2.42,1.78-10.11,10.4-8.55,10.94-17.1,21.88-25.65,32.82-5.15-1.16-11.38-3.05-18.1-6.2-4.44-2.09-8.27-4.34-11.5-6.5-3.28-.94-8.48-1.98-14.81-1.34-9.09.91-15.58,4.78-18.69,6.94-3.3,3.3-1.1,8.9-4.4,12.2-12.2,6.7-26.7-3.3-36.4,4.4-31.1,23.3-62,42-100.7,39.8-7.1,0-16.4,3.6-22,10,8.7,19.3,16.4,37.3,18.4,42.2,7.3,7.3,56.2,56.4,67.6,71.8,10.2,13.8,40,33.6,67.1,33.6,15.1,0,30,6.4,44.2,12.4,13.8,6,26.9,11.6,39.6,11.6,27.1,0,99.3,0,122.9-4,17.1-2.9,53.8-22,76.2-34-1.9-1.4-4.1-3-6.8-3.6Z"/><path id="_738" class="cls-2" d="m566.15,694.92c-5.6,2.2-7.8,10-4.4,14.4,2.2,3.3,5.6,8.9,12.2,6.7,8.9-3.3,10-13.3,17.8-17.8,10-5.6,21.1-2.2,30.9-1.1,4.4,0,8.9,3.3,12.2,6.7,7.8,8.9,13.3,13.3,20,22.2,2.2,3.3,7.8,4.4,8.9,7.8,2.2,4.4,0,10,3.3,13.3,16.7,10,32.2-3.3,40.9-18.9,1.1-1.1,5.6,0,8.9,0,2.2,0,2.2-3.3,2.2-3.3,4.4-7.8-4.4-14.4-4.4-20,2.2-15.6,2.2-25.6-12.2-36.4-1.1-1.1-1.1-6.7,1.1-6.7,13.3-3.3,24.4-1.1,36.4-10,6.7-5.6,24.4,1.1,25.6-11.1,0-5.6,1.8-10.4,4.4-14.7l-.9-2.9-4-7.1,1.6-20-14-12.4c-2.9,2.2-5.6,4.7-7.3,7.6-2.2,4.4-3.3,7.8-6.7,8.9-8.9,2.2-17.8-1.1-24.4,5.6-6.7,7.8-7.8,18.9-16.7,23.3-14.4,7.8-30.9,16.7-35.3,33.1-2.2,7.8-17.8,5.6-27.8,11.1-7.8,4.4-17.8-11.1-28.9-5.6-4.4,3.3-5.6,8.9-8.9,12.2-4,5.1-13.6,8.2-18.4,5.6-.7,2.2-1.3,4.4-2.4,6.7-1.9,2.8-5.2,2.8-9.7,2.8Z"/><path id="_740" class="cls-5" d="m635.95,759.12v5.6c11.1,5.6,22.2-6.7,33.1-1.1,5.6,3.3,10,11.1,6.7,15.6-12.2,15.6-13.3,30.9-1.1,44.2,3.3,4.4,12.2,3.3,15.6-1.1,8.9-10,23.3-12.2,25.6-22.2,5.6-18.9,14.4-30.9,27.8-42,3.3-4.4-4.4-11.1-1.1-12.2,14.4-4.4,20-15.6,21.1-29.8,0-.4,0-.7.2-1.1h-.2v-5.6c12.7-4.9,25.3-8.9,33.6-19.6l-10.7-28.2-6.4-10.4-4.9-8-4.9-17.1c-2.9,4.2-4.4,9.1-4.4,14.7-1.1,12.2-18.9,5.6-25.6,11.1-12.2,8.9-23.3,6.7-36.4,10-2.2,0-2.2,5.6-1.1,6.7,14.4,11.1,14.4,21.1,12.2,36.4,0,5.6,8.9,12.2,4.4,20,0,0,0,3.3-2.2,3.3-3.3,0-7.8-1.1-8.9,0-8.9,15.6-24.4,28.9-40.9,18.9-1.6-1.6-2-3.8-2-6.2-10.8,5.7-15.5,19.2-29.5,18.1Z"/><path id="_732" class="cls-5" d="m397.95,644.02c11.1-3.3,15.6-6.7,22.2-16.7,2.2-2.2,7.8-2.2,10-4.4,2.2-5.6,1.1-13.3,5.6-16.7,4.4-4.4,12.2-8.9,14.4-13.3,2.4-3.6,3.1-8.2,4-13.1-.4-.4-1.1-.9-1.8-1.3-15.6-6.7-32,2.2-46.4-5.6-7.8-4.4-11.1,7.8-17.8,6.7-7.8-1.1-12.2-8.9-17.8-15.6-2.2-1.1-6.7,1.1-8.9,0-6.7-3.3-6.7-12.2-12.2-16.7-13.6-13.6-33.1-19.6-43.8-35.8-6.7,9.3-16.2,13.8-26,20.2-.4.2-.7.4-1.1.9,6.2,2,14.2,2.2,13.3,8,0,2.2-2.2,5.6-1.1,7.8,4.4,4.4,10,8.9,5.6,14.4-5.6,5.6-14.4,11.1-12.2,18.9,2.2,12.2,8.9,33.1-3.3,35.3-19.6,5.6-32.9,21.3-47.1,30.2,8.7,4.2,18.4,5.1,24.9-.2,10-6.7,20-13.3,29.8-10,2.2,1.1,1.1,11.1,5.6,13.3,12.2,10,25.6,1.1,32.2-12.2,1.1-1.1,5.6-2.2,6.7-1.1,5.6,11.1,13.3,16.7,24.4,8.9,4.4-3.3,12.2-7.8,16.7-4.4,3.3,2.2,4.4,11.1,10,7.8,4.2-1.6,7.8-2.7,11.6-3.1.3-1.1,1.2-2.2,2.5-2.2Z"/><path id="_734" class="cls-2" d="m454.35,728.02c6.7-15.6-12.2-28.7-24.4-40.9-5.6-6.7,2.2-14.4,0-20-1.1-5.6-3.3-11.1-1.1-16.7,0-1.1,2.2-3.3,3.3-5.6,3.3-6.7-6.7-7.8-7.8-13.3,0-2.2,0-4.4-.4-6.2-1.6.4-2.9.9-3.8,2-6.7,10-11.1,13.3-22.2,16.7-1.3,0-2.2,1.1-2.9,2.4,1.3-.2,2.4-.2,4-.2,1.1,1.1,3.3,2.2,4.4,3.3,0,2.2,1.1,4.4,2.2,6.7,2.2,5.6,10,11.1,7.8,16.7-1.1,3.3-5.6,8.9-12.2,8.9,3.3,2.2,7.8,6.7,3.3,7.8-8.9,3.3-20-2.2-28.7,5.6-3.3,4.4,1.1,11.1-2.2,13.3s-10,4.4-11.1,5.6c-18.9,45.6-60.7,72.2-105.6,85.3,6.2,10,14.9,28.2,22.7,45.3,5.6-6.4,14.9-10,22-10,38.7,2.2,69.8-16.7,100.7-39.8,10-7.8,24.4,2.2,36.4-4.4,3.3-3.3,1.1-8.9,4.4-12.2.9-.7,1.8-1.1,2.7-1.6-3.9-14.9,1.9-33.4,8.5-48.7Z"/><path id="_722" class="cls-4" d="m629.25,592.02c-1.1-3.3,1.1-6.7,2.2-8.9,8.9-14.4-4.4-27.8-14.4-37.6-1.8-.9-2.9-4.2-2.7-7.1h-.2l-16,6.4-19.1,2.4-54-6.9c-2.4,1.1-4.9,2.2-7.6,3.1-13.3,4.4-29.8,3.3-45.3,7.8-3.3,1.1-7.8,6.7-4.4,10,7.8,10,6.7,23.3-6.7,23.3-2.7,0-4.7-2.2-7.1-4.2-.7,4.9-1.6,9.6-3.8,13.1-2.2,4.4-10,8.9-14.4,13.3-4.4,3.3-3.3,11.1-5.6,16.7-1.3,1.3-3.8,1.8-6,2.4.4,2,.4,4.2.4,6.2,1.1,5.6,11.1,6.7,7.8,13.3-1.1,2.2-3.3,4.4-3.3,5.6-2.2,5.6,0,11.1,1.1,16.7,2.2,5.6-5.6,13.3,0,20,12.2,12.2,30.9,25.6,24.4,40.9-6.9,15.1-12.7,33.6-8.4,48.2,3.04-1.71,7.64-3.82,13.55-4.95,7.28-1.39,13.39-.68,17.15.05-.6-3.43-1.2-6.87-1.8-10.3.6-7.67,1.2-15.33,1.8-23,6.6-9.13,13.2-18.27,19.8-27.4,12.05-11.59,24.1-23.18,36.15-34.77,10.58-4.84,21.17-9.69,31.75-14.53,6.74,1.97,13.2.72,16.32-3.32.68-.88,1.5-2.28,1.88-4.38,13.3,6.7,27.6,5.6,38.7-3.3,5.6-4.4-5.6-10-10-14.4v-4.4c1.1-1.1,3.3-2.2,5.6-1.1-4.4-13.3,7.8-15.6,16.7-22.2,6.6-4.5-1.1-11.2-4.5-16.7Z"/><path id="_737" class="cls-3" d="m751.05,903.52c-4.4,1.3-8.7,2.7-12.2.4-13.3-7.8-26.4-8.9-37.6-15.6-5.6-2.2-8.9-12.2-13.3-17.8-6.9-10.7-12-29.1-6.9-44.9-2.4,0-4.9-.9-6.2-2.9-12.2-13.3-11.1-28.7,1.1-44.2,3.3-4.4-1.1-12.2-6.7-15.6-11.1-5.6-22.2,6.7-33.1,1.1v-5.6c14,1.1,18.4-12.4,28.9-18.2-.2-2.4-.2-4.9-1.3-7.1-1.1-3.3-6.7-4.4-8.9-7.8-6.7-8.9-12.2-13.3-20-22.2-3.3-3.3-7.8-6.7-12.2-6.7-10-1.1-21.1-4.4-30.9,1.1-7.8,4.4-8.9,14.4-17.8,17.8-6.4,2.2-9.8-2.9-12-6.2-4.7,7.1-5.6,16.2-11.3,22-3.6,7.6-14.2,14.2-7.6,17.3,24.4,15.6,8.9,39.8,13.3,60.9,2.2,7.8,4.4,14.4,2.2,22.2-1.1,7.8-14.4,10-10,18.9,3.3,7.8,14.4,7.8,23.3,7.8,3.3,0,5.6,3.3,5.6,5.6,2.2,14.4,5.6,26.7,22.2,30.9,4.4,1.1,5.6,11.1,7.8,15.6,19.8,29.8,45.3,3.3,63.1-15.6-18.9,32,2.2,67.6,38.7,78.7,2.7.7,4.9,2.2,6.9,4.2,1.6-.9,2.9-1.6,4.2-2.2,5.8-3.1,10.4-5.6,13.6-7.1.9-.4,2-.9,3.1-1.1-3.8-15.8-7.8-31.1-4.4-46.7.6-5,12.4-9.2,18.4-17Z"/><path id="_728" class="cls-4" d="m806.35,766.92c-1.1-6.7-10-10-13.3-17.8,1.1,0,2.2,0,3.3-1.1-1.1-1.1-3.3-2.2-3.3-3.3,10-25.3-14.2-23.3-29.8-29.8,0,.4-.2.7-.2,1.1-1.1,14.4-6.7,25.6-21.1,29.8-3.3,1.1,4.4,7.8,1.1,12.2-13.3,11.1-22.2,23.3-27.6,42-2.2,10-16.7,12.2-25.6,22.2-2,2.7-5.8,4-9.1,4-4.9,15.6.2,34,6.9,44.9,4.4,5.6,7.8,15.6,13.3,17.8,11.1,6.7,24.4,7.8,37.6,15.6,3.3,2,7.6.7,12.2-.4.4-.4.9-1.1,1.1-1.8,2.2-5.6-5.6-8.9-4.4-12.2,5.6-16.7-3.3-33.1,4.4-47.6,8.9-15.6,7.8-33.1,21.1-43.1,6.7-5.6,14.4-3.3,22.2-4.4,12.2-3.3,4.4-12.2,5.6-21.1.1-1.5,6.7-3.7,5.6-7Z"/><path id="_735" class="cls-3" d="m362.65,713.82c1.1-1.1,7.8-3.3,11.1-5.6s-1.1-8.9,2.2-13.3c8.9-7.8,20-2.2,28.7-5.6,4.4-1.1,0-5.6-3.3-7.8,6.7,0,11.1-5.6,12.2-8.9,2.2-5.6-5.6-11.1-7.8-16.7-1.1-2.2-2.2-4.4-2.2-6.7-1.1-1.1-3.3-2.2-4.4-3.3-5.6,0-10,1.1-15.6,3.3-5.6,3.3-6.7-5.6-10-7.8-4.4-3.3-12.2,1.1-16.7,4.4-11.1,7.8-18.9,2.2-24.4-8.9-1.1-1.1-5.6,0-6.7,1.1-6.7,13.3-20,22.2-32,12.2-4.4-2.2-3.3-12.2-5.6-13.3-10-3.3-20,3.3-30,10-6.4,5.3-16.2,4.4-24.9.2-2.7,1.8-5.6,3.1-8.2,4.2-28.4,11.1-62,15.3-93.1,7.1,4,19.3,20.2,30.2,20.4,30.4l.9.7c3.6,3.6,88.2,88.4,100.4,104.4.9,1.1,1.8,2.7,2.9,4.4,45.4-12.3,87.2-39.2,106.1-84.5Z"/><path id="_729" class="cls-2" d="m900.15,784.42l-8.9-2.4-7.1-4-19.6,8.2c-7.17,4.43-14.33,8.87-21.5,13.3-9.53-5.6-19.07-11.2-28.6-16.8,4.13-3.87,8.27-7.73,12.4-11.6,2.73-12.73,5.47-25.47,8.2-38.2-2.53-1.77-5.07-3.53-7.6-5.3l-16-15.1-14.4-21.6-.4-1.3c-8.2,10.7-20.9,14.7-33.6,19.6v5.6c15.6,6.7,39.8,4.4,29.8,29.8,0,1.1,2.2,2.2,3.3,3.3-1.1,1.1-2.2,1.1-3.3,1.1,3.3,7.8,12.2,11.1,13.3,17.8,1.1,3.3-5.6,5.6-5.6,6.7-1.1,8.9,6.7,17.8-5.6,21.1-7.8,1.1-15.6-1.1-22.2,4.4-13.3,10-12.2,27.6-21.1,43.1-7.8,14.4,1.1,30.9-4.4,47.6-1.1,3.3,6.7,6.7,4.4,12.2-5.6,8.9-18.9,13.3-20,18.9-3.1,15.6.7,31.1,4.4,46.7,10.9-2.9,28.9,3.6,55.8,13.6,4.9,1.8,10,3.8,14.9,5.6.2-.4.7-.9.9-1.3,13.1-10.9,48-42.2,54.2-57.6,8-19.8,31.1-70,32-72.2l23.8-55.8c.4-.9,1.1-1.6,1.8-2.2l-19.3-13.2Z"/><path id="_717" class="cls-3" d="m93.75,478.02c23.3,12.2,38.7-10,58.7-8.9,5.6,0,12.2,4.4,17.8,1.1,11.1-4.4,13.3-17.8,24.4-24.4,6.7-3.3,14.4,1.1,18.9-2.2,6.7-4,10.9-10.2,15.8-15.8l-5.3-5.3-24-32.7-9.6-20.7-4.9-21.6.9-4,.9-5.6v-5.6l-16-24.7-4-8.9-1.6-12v-12l4-11.1-19.1-64-7.1-67.8-8.9-20-.4-7.1c-13.6,2-27.1,0-41.6-3.3-5.6-1.1-12.2,0-16.7,3.3-7.6,5.6-16.2,8.9-24.7,8.4-1.1,9.8-7.8,63.6-7.8,77.6,0,15.3-7.1,50-34.2,72.4-16.7,14-7.6,35.3,6,61.6,1.1,2.4,2.4,4.7,3.6,6.9,12.2,24.4,21.3,46.7,8,73.3-10.4,20.9-8,41.8,6.2,52.4,8.2,6.2,18,19.6,26.7,33.3,3.3-.2,6.7-1.1,9.3-3.3,8-4.9,16.9-13.8,24.7-9.3Z"/><path id="_708" class="cls-5" d="m75.95,105.12c4.4-3.3,11.1-4.4,16.7-3.3,14.2,3.1,28,5.1,41.6,3.3l-.7-22.7-3.1-11.1,5.6-16.7-1.6-48L104.05.22h-15.1l-10.4,5.6-9.6,8-11.1,7.1-12.8,4.9-11.1,3.1-2.9-.2c.2.4.4.9.7,1.3l20.2,80.9-.2,1.1s0,.7-.2,1.6c8.2.2,17.1-3.2,24.4-8.5Z"/><line id="LINE_20" class="cls-1" x1="697.75" y1="612.42" x2="727.05" y2="548.42"/><g id="G_22"><path id="PATH_23" d="m60.65,58.42c0,.9-.2,1.8-.7,2.4-.2.4-.4.7-.4.7,0,0-.2-.2-.2-.9,0-2.7-.4-8.9-1.3-18.9l1.8-1.8.2-.2v.4c.6,3.2.6,9.2.6,18.3Z"/><path id="PATH_24" d="m71.95,61.52c0,2.2-.7,4.2-2,6.2-1.1,1.6-2.2,2.4-2.9,2.4-1.8,0-3.1,0-4.4-.2-.4,0-.7-.2-.7-.2,0,0,.2-.2.7-.2,1.8-.4,3.6-1.3,5.3-2.7,1.8-1.6,2.9-3.1,2.9-4.7,0-.9-.7-2.2-2.2-3.8l1.1-2c0-.2.2-.2.2-.2l.2.2c.4.7,1.1,1.6,1.3,2.7.3.8.5,1.7.5,2.5Z"/><path id="PATH_25" d="m80.85,61.32h-1.6c-1.6,0-2.9-.7-3.3-2-.4-.9-.7-2.4-.7-4.2v-4.2c0-2-.2-4.9-.4-8.7l1.3-1.6c.2-.2.4-.2.4,0,.2,2,.4,4.9.4,8.7v6.7c0,1.8.9,2.7,2.7,2.7h1.1v2.6h.1Z"/><path id="PATH_26" d="m91.75,61.32h-1.8c-2,0-3.3-.7-4.2-2-.7,1.3-2.2,2-4.7,2h-1.3v-2.7h2c2.2,0,3.3-.9,3.6-2.4,0-.7.2-1.1.4-1.1s.4.4.4,1.1c.2,1.6,1.3,2.4,3.3,2.4h2v2.7h.3Zm-7.6-12.9l-1.8,1.8-1.8-1.8,1.8-1.8,1.8,1.8Zm3.8,0l-1.8,1.6-1.8-1.8,1.8-1.8,1.8,2Z"/><path id="PATH_27" d="m109.25,56.42c0,1.3-.2,2.4-.9,3.3-.7.9-1.8,1.6-2.9,1.6-1.6,0-2.4-.7-3.1-1.8-.9,1.3-1.8,1.8-3.1,1.8-1.6,0-2.7-.7-3.3-1.8-.9,1.3-2,1.8-3.6,1.8h-1.6v-2.7h1.8c1.6,0,2.7-.9,2.9-2.7,0-.4.2-.7.4-.7s.2.2.4.7c.2,1.8,1.1,2.7,2.9,2.7.9,0,1.8-.2,2.2-.7.2-.4.4-.9.7-1.8,0-.4.2-.7.4-.7s.2.2.4.7c.2,1.8,1.1,2.7,2.7,2.7,1.8,0,2.4-.4,2.4-1.1s-.4-1.6-1.3-2.4l1.1-2c.2-.2.2-.4.4-.4s.2.2.4.4c.3,1.1.7,2.2.7,3.1Z"/><path id="PATH_28" d="m118.15,37.52c-.9.9-2.2,1.1-3.6,1.1h-1.8c-.2,0-.4.2-.7.4l-.4.4c-.2,0-.2-.2-.2-.4s.2-.7.4-1.1c.2-.7.4-.9.7-.9.2,0,.7,0,1.3.2.7,0,1.1.2,1.3.2,1.3,0,2.2,0,2.9-.2.4,0,.7-.2.7-.2h.2c-.1.1-.3.3-.8.5Zm-1.3,20.9c0,.9-.2,1.8-.7,2.4-.2.4-.4.7-.4.7,0,0-.2-.2-.2-.9,0-2.7-.4-8.9-1.3-18.9l1.8-1.8.2-.2v.4c.6,3.2.6,9.2.6,18.3Z"/></g><g id="G_29"><path id="PATH_30" d="m73.45,311.52h-1.1c-1.6,0-2.4-.7-3.1-1.8-.4,1.3-1.6,2-2.9,2s-2.2-.7-2.9-2c-.7,1.3-1.8,2-3.1,2-.4,0-1.1,0-1.6-.2,0,1.3-.2,2.7-.2,4.2-.7,1.6-1.8,2.9-3.8,3.8-1.8.7-3.6,1.1-5.6,1.1s-3.6-.4-4.9-1.3c-1.3-1.1-2-2.4-2-4.4,0-1.1.2-2,.7-3.3.4-.9.7-1.6,1.1-2,.2-.2.4-.2.4-.2q.2,0,.2.2v.4c-.7,1.3-.9,2.7-.9,3.8s.4,2,1.1,2.9c.9,1.1,2.4,1.6,4.4,1.6,2.2,0,4.2-.4,5.8-1.1,1.3-.7,2.2-1.3,2.4-2.2.2-.2.2-.7,0-1.6,0-.7-.2-1.3-.2-1.6-.2-.7-.9-1.8-2.2-3.3l.9-1.8c.2-.2.2-.4.2-.4,0,0,.2,0,.2.4.7.9,1.1,1.6,1.3,1.8.7.7,1.3.9,2.2.9s1.8-.2,2.2-.9c.2-.4.4-.9.7-2,0-.4.2-.7.4-.7s.2.2.4.7c.2,1.8,1.1,2.9,2.4,2.9,1.6,0,2.7-.9,2.7-2.7,0-.4.2-.7.4-.7s.4.2.4.7c.2,1.8,1.1,2.7,2.7,2.7h1.3v2.2h0v-.1Zm-10.4-11.1l-1.6,1.6-1.6-1.6,1.6-1.6,1.6,1.6Zm2-3.5l-1.6,1.6-1.6-1.6,1.6-1.6,1.6,1.6Zm2,3.5l-1.6,1.6-1.6-1.6,1.6-1.6,1.6,1.6Z"/><path id="PATH_31" d="m78.65,294.02c.2.2.2.4.2.4h-1.1c.2,2.9.2,7.1.2,12.7,0,1.3-.2,2.4-.9,3.1-.7.9-1.8,1.3-2.9,1.3h-1.3v-2.7h1.1c1.8,0,2.7-.7,2.4-2-.2-4.7-.4-9.6-.7-14.4l1.6-1.3c.2-.2.4-.4.4-.4,0,0,0,.2.2.4.1.7.3,1.6.8,2.9Z"/><path id="PATH_32" d="m83.95,308.92c0,.9-.2,1.8-.7,2.4-.2.4-.4.7-.4.7,0,0-.2-.2-.2-.9,0-2.7-.4-8.9-1.3-18.9l1.8-1.8.2-.2v.4c.6,2.9.6,8.9.6,18.3Z"/><path id="PATH_33" d="m97.95,311.52h-2.4c-.2,3.1-1.3,5.6-3.6,7.8-.7.7-1.1,1.1-1.3,1.1-1.1,0-2.7-.2-4.2-.4-.4,0-.9-.2-.9-.2,0,0,.2-.2.9-.4,1.8-.4,3.6-1.6,5.1-2.7.7-.7,1.3-1.1,1.8-2,.7-.9,1.1-1.8,1.1-2.4v-.7h-2.9c-2.2,0-3.1-.9-3.1-2.7,0-1.1.2-2.2.9-3.6s1.6-2.2,2.4-2.2c1.1,0,2,.7,2.7,2.2.4,1.1.9,2.2.9,3.6h2.4v2.7h.2v-.1Zm-4-2.6c0-.7-.2-1.3-.7-2-.4-.9-1.1-1.1-1.8-1.1-.4,0-.9.2-1.1.4-.4.4-.4.7-.4,1.3,0,1.1.9,1.6,2.7,1.6,0,0,.6-.2,1.3-.2Z"/><path id="PATH_34" d="m114.85,305.52c0,2.4-1.3,4.2-4,5.1-2,.7-5.1.9-9.3.9h-4.5v-2.7h2.2c.7,0,1.1-.2,1.3-.4.2-.2.2-.7.2-1.3v-4.9c-.2-3.6-.4-6.9-.9-9.8l1.6-1.6.2-.2s.2.2.2.4c.2.9.4,1.8.9,2.7,0,.2.2.4.2.4h-1.1c.2,4,.2,6.4.2,7.1v2.4c0,.9-.2,2.2-.7,3.8.2,0,.7-.4,1.8-1.3,1.1-1.1,2.2-2,3.1-2.7,1.6-.9,2.9-1.3,4.2-1.3,1.1,0,2,.2,2.7.9,1.2.5,1.7,1.4,1.7,2.5Zm-1.6,1.4c0-.7-.4-1.3-1.3-1.8-.7-.4-1.6-.7-2.2-.7-1.6,0-4.2,1.6-7.6,4.4.9,0,2,.2,2.9.2,1.3,0,2.9-.2,4.4-.4,2.5-.4,3.8-1.1,3.8-1.7Z"/></g><g id="G_35"><path id="PATH_36" d="m128.65,502.72h-.9c-.9,0-1.3-.2-1.8-.4v.7c0,2-.7,4-2,6-1.1,1.8-2.2,2.4-2.9,2.4-1.8,0-3.1,0-4.4-.2-.4,0-.7-.2-.7-.2,0,0,.2-.2.7-.2,1.8-.4,3.6-1.3,5.3-2.7,1.8-1.6,2.9-3.1,2.9-4.7,0-.9-.7-2.2-2.2-3.8l1.1-2c0-.2.2-.2.2-.2l.2.2c.7.9,1.1,1.6,1.6,1.8.7.4,1.6.9,2.4.9h.7v2.4h-.2Z"/><path id="PATH_37" d="m142.35,502.72h-1.1c-.9,0-1.8.2-2.4.4-1.1.4-1.8,1.1-1.8,2.2,0,1.3.9,2.4,2.7,3.6l-1.1,2.2c-2-.7-3.8-1.8-5.1-3.1-1.8-1.6-2.7-3.6-2.7-5.6h-3.1v-2.7h2.9c0-1.8.4-3.6,1.3-5.8.9-2,1.6-2.9,2-2.9s1.1.9,1.8,2.9c.7,1.8.9,2.9.9,3.6,0,3.1-1.6,4.7-4.7,4.7.2.9.7,1.8,1.3,2.7.7.9,1.6,1.6,2.4,2v-.9c0-1.6.4-2.9,1.1-4,1.1-1.6,2.4-2.4,4.4-2.4h.9v3.1h.3Zm-6.9-3.6c0-.4-.2-1.3-.7-2.4-.4-1.3-.9-1.8-1.3-1.8-.2,0-.7.4-1.1,1.6-.4,1.1-.7,2.4-.7,3.8,2.7-.3,3.8-.5,3.8-1.2Z"/><path id="PATH_38" d="m159.95,498.02c0,1.3-.2,2.4-.9,3.3s-1.8,1.6-2.9,1.6c-1.6,0-2.4-.7-3.1-1.8-.9,1.3-1.8,1.8-3.1,1.8-1.6,0-2.7-.7-3.3-1.8-.9,1.3-2,1.8-3.6,1.8h-1.6v-2.7h1.8c1.6,0,2.7-.9,2.9-2.7,0-.4.2-.7.4-.7s.2.2.4.7c.2,1.8,1.1,2.7,2.9,2.7.9,0,1.8-.2,2.2-.7.2-.4.4-.9.7-1.8,0-.4.2-.7.4-.7s.2.2.4.7c.2,1.8,1.1,2.7,2.7,2.7,1.8,0,2.4-.4,2.4-1.1s-.4-1.6-1.3-2.4l1.1-2c.2-.2.2-.4.4-.4s.2.2.4.4c.2.9.7,2,.7,3.1Zm-7.6-8.2l-1.6,1.6-1.6-1.6,1.6-1.6,1.6,1.6Zm2-3.4l-1.6,1.6-1.6-1.6,1.6-1.6,1.6,1.6Zm2,3.4l-1.6,1.6-1.6-1.6,1.6-1.6,1.6,1.6Z"/><path id="PATH_39" d="m187.75,502.42c.2.7.2,1.3.2,2,0,.9-.2,1.6-.4,2.4-.7,1.6-1.8,2.9-4,3.8-1.8.7-3.6,1.1-5.6,1.1s-3.6-.4-4.9-1.3c-1.3-1.1-2-2.4-2-4.4,0-1.1.2-2,.7-3.3.4-.9.7-1.6,1.1-2,.2-.2.4-.2.4-.2q.2,0,.2.2v.4c-.7,1.3-.9,2.7-.9,3.8s.4,2,1.1,2.9c.9,1.1,2.4,1.6,4.4,1.6,2.2,0,4.2-.4,5.8-1.1,1.3-.7,2.2-1.3,2.7-2.2.2-.2.2-.7.2-.9,0-.7-.2-1.3-.4-2.2-.2-.7-.9-1.8-2-3.6l.9-1.8c.2-.2.2-.4.2-.4,0,0,.2,0,.2.2,1.2,1.5,1.8,3.3,2.1,5Zm-6.5-9.7l-1.8,1.8-1.8-1.8,1.8-1.8,1.8,1.8Z"/><path id="PATH_40" d="m193.25,500.02c0,.9-.2,1.8-.7,2.4-.2.4-.4.7-.4.7,0,0-.2-.2-.2-.9,0-2.7-.4-8.9-1.3-18.9l1.8-1.8.2-.2v.4c.4,3,.6,9,.6,18.3Z"/><path id="PATH_41" d="m207.05,502.72h-2.4c-.2,3.1-1.3,5.6-3.6,7.8-.7.7-1.1,1.1-1.3,1.1-1.1,0-2.7-.2-4.2-.4-.4,0-.9-.2-.9-.2,0,0,.2-.2.9-.4,1.8-.4,3.6-1.6,5.1-2.7.7-.7,1.3-1.1,1.8-2,.7-.9,1.1-1.8,1.1-2.4v-.7h-2.9c-2.2,0-3.1-.9-3.1-2.7,0-1.1.2-2.2.9-3.6s1.6-2.2,2.4-2.2c1.1,0,2,.7,2.7,2.2.4,1.1.9,2.2.9,3.6h2.4v2.7h.2v-.1Zm-4-2.7c0-.7-.2-1.3-.7-2-.4-.9-1.1-1.1-1.8-1.1-.4,0-.9.2-1.1.4-.4.4-.4.7-.4,1.3,0,1.1.9,1.6,2.7,1.6,0,0,.6-.2,1.3-.2Z"/><path id="PATH_42" d="m226.35,496.72c0,2.2-1.3,3.8-4,4.9-1.8.7-4,1.1-6.7,1.1-1.6,0-2.7,0-3.3-.2-1.1-.2-1.8-.9-2.2-1.8-.9,1.3-2,2-3.3,2h-.7v-2.7h.9c1.8,0,2.7-.9,2.9-2.4,0-.4.2-.7.4-.7s.4.2.4.7c.2,1.6.9,2.4,2.2,2.4,4.2-4.4,7.3-6.7,9.8-6.7,1.1,0,2,.2,2.7.9.7.7.9,1.6.9,2.5Zm-1.5,1.3c0-.7-.4-1.1-1.1-1.8-.7-.4-1.3-.7-2-.7-2,0-4.4,1.3-7.1,4.2h2c1.6,0,3.1-.2,4.7-.4,2.1,0,3.5-.4,3.5-1.3Zm-3.4-10.9l-1.8,1.8-1.8-1.8,1.8-1.8,1.8,1.8Z"/><path id="PATH_43" d="m237.75,502.92c0,2.2-.7,4.2-2,6.2-1.1,1.6-2.2,2.4-2.9,2.4-1.8,0-3.1,0-4.4-.2-.4,0-.7-.2-.7-.2,0,0,.2-.2.7-.2,1.8-.4,3.6-1.3,5.3-2.7,1.8-1.6,2.9-3.1,2.9-4.7,0-.9-.7-2.2-2.2-3.8l1.1-2c0-.2.2-.2.2-.2l.2.2c.4.7,1.1,1.6,1.3,2.7.2.7.5,1.6.5,2.5Z"/></g><g id="G_44"><path id="PATH_45" d="m176.15,581.52c0,.2.2.4,0,.4h-1.1c.4,8.4.7,14.4.4,17.8-.2,5.3-3.3,7.8-9.1,7.8-2,0-3.3-.4-4.4-1.1-1.3-.9-2-2.2-2-4.2,0-1.8.4-3.6,1.6-4.9q.2-.2.4-.2t.2.2v.2c-.4,1.1-.7,2.2-.7,3.1,0,1.3.4,2.4,1.6,3.3.9.7,2,1.1,3.6,1.1,2.2,0,4-.4,5.6-1.1,1.3-.7,2-1.3,2-2.2,0-9.6-.2-16.9-.9-21.8l1.6-1.3q.2-.2.4-.2s.2.2.2.4c-.3.5-.1,1.4.6,2.7Z"/><path id="PATH_46" d="m185.05,598.92h-1.6c-1.6,0-2.9-.7-3.3-2-.4-.9-.7-2.4-.7-4.2v-4.2c0-2-.2-4.9-.4-8.7l1.3-1.6c.2-.2.4-.2.4,0,.2,2,.4,4.9.4,8.7v6.4c0,1.8.9,2.7,2.7,2.7h1.1v2.9h.1Z"/><path id="PATH_47" d="m202.65,594.22c0,1.3-.2,2.4-.9,3.3-.7.9-1.8,1.6-2.9,1.6-1.6,0-2.4-.7-3.1-1.8-.9,1.3-1.8,1.8-3.1,1.8-1.6,0-2.7-.7-3.3-1.8-.9,1.3-2,1.8-3.6,1.8h-1.6v-2.7h1.8c1.6,0,2.7-.9,2.9-2.7,0-.4.2-.7.4-.7s.2.2.4.7c.2,1.8,1.1,2.7,2.9,2.7.9,0,1.8-.2,2.2-.7.2-.4.4-.9.7-1.8,0-.4.2-.7.4-.7s.2.2.4.7c.2,1.8,1.1,2.7,2.7,2.7,1.8,0,2.4-.4,2.4-1.1s-.4-1.6-1.3-2.4l1.1-2c.2-.2.2-.4.4-.4s.2.2.4.4c.2.9.7,2.2.7,3.1Z"/><path id="PATH_48" d="m211.45,598.92h-1.6c-1.6,0-2.9-.7-3.3-2-.4-.9-.7-2.4-.7-4.2v-4.2c0-2-.2-4.9-.4-8.7l1.3-1.6c.2-.2.4-.2.4,0,.2,2,.4,4.9.4,8.7v6.4c0,1.8.9,2.7,2.7,2.7h1.1v2.9h.1Z"/><path id="PATH_49" d="m222.35,594.42c0,1.1,0,2-.4,2.9-.4,1.1-1.1,1.8-1.8,1.8-1.1,0-2.9-.7-5.1-2.2-.7.9-1.1,1.3-1.3,1.6-.7.4-1.3.7-2.2.7h-.9v-2.7h1.6c.9,0,1.8-.4,2.7-1.6.4-.4,1.1-1.6,2-2.9.7-1.1,1.6-1.6,2.2-1.6,1.1,0,2,.4,2.7,1.6.3.9.5,1.8.5,2.4Zm-1.3,1.8c0-.7-.2-1.3-.7-2.2-.4-.9-1.1-1.3-1.8-1.3s-1.3.7-2.2,2c.4.4,1.1.9,2,1.3.9.4,1.8.7,2.2.7.5,0,.5-.3.5-.5Z"/></g><g id="G_50"><path id="PATH_51" d="m302.15,602.22c0,.9-.2,1.8-.7,2.4-.2.4-.4.7-.4.7,0,0-.2-.2-.2-.9,0-2.7-.4-8.9-1.3-18.9l1.8-1.8.2-.2v.4c.4,3,.6,9,.6,18.3Z"/><path id="PATH_52" d="m315.95,604.92h-.9c-.9,0-1.3-.2-1.8-.4v.7c0,2-.7,4-2,6-1.1,1.8-2.2,2.4-2.9,2.4-1.8,0-3.1,0-4.4-.2-.4,0-.7-.2-.7-.2,0,0,.2-.2.7-.2,1.8-.4,3.6-1.3,5.3-2.7,1.8-1.6,2.9-3.1,2.9-4.7,0-.9-.7-2.2-2.2-3.8l1.1-2c0-.2.2-.2.2-.2l.2.2c.7.9,1.1,1.6,1.6,1.8.7.4,1.6.9,2.4.9h.7v2.4h-.2Z"/><path id="PATH_53" d="m333.45,600.22c0,1.3-.2,2.4-.9,3.3-.7.9-1.8,1.6-2.9,1.6-1.6,0-2.4-.7-3.1-1.8-.9,1.3-1.8,1.8-3.1,1.8-1.6,0-2.7-.7-3.3-1.8-.9,1.3-2,1.8-3.6,1.8h-1.5v-2.7h1.8c1.6,0,2.7-.9,2.9-2.7,0-.4.2-.7.4-.7s.2.2.4.7c.2,1.8,1.1,2.7,2.9,2.7.9,0,1.8-.2,2.2-.7.2-.4.4-.9.7-1.8,0-.4.2-.7.4-.7s.2.2.4.7c.2,1.8,1.1,2.7,2.7,2.7,1.8,0,2.4-.4,2.4-1.1s-.4-1.6-1.3-2.4l1.1-2c.2-.2.2-.4.4-.4s.2.2.4.4c.2.9.6,2,.6,3.1Z"/><path id="PATH_54" d="m357.45,604.92h-1.6c-2,0-3.1-1.1-3.6-3.6-1.1,1.1-1.6,1.6-1.8,1.6h-2.2c-.7,0-1.3,0-2-.2-.9-.2-1.3-.7-1.3-1.1,0-1.8.7-3.1,1.8-4,.9-.7,2.2-1.3,4-2.2l-.4-2.2,1.6-1.8c0,.2.7,2.7,1.6,7.3.2,1.3.7,2.4.9,2.9.4.7.9.9,1.8.9h1.6v2.4h-.4Zm-5.5-4.5l-.7-3.6c-.7.2-1.6.7-2.7,1.1-1.3.7-2.2,1.3-2.2,1.6,0,.4.4.7,1.6.9.7.2,1.3.2,2,.2.9-.2,1.5-.2,2-.2Z"/><path id="PATH_55" d="m369.95,604.92h-1.3c-2.2,0-4-.7-5.1-2.2-1.3,1.6-3.1,2.2-5.1,2.2h-1.8v-2.7h2.2c1.6,0,2.7-.2,3.3-.9-.2-.4-.4-.9-.9-1.3-.4-.4-.9-.9-1.1-.9-.4-.2-.7-.2-.7-.4,0,0,0-.2.2-.4.7-1.3,1.8-2,3.8-2,2.4,0,3.8.7,3.8,2.2,0,.7-.7,1.6-2,2.9.2.4.9.7,1.6.9s1.1.2,1.6.2h1.8v2.4h-.3Z"/><path id="PATH_56" d="m381.05,600.42c0,1.1,0,2-.4,2.9-.4,1.1-1.1,1.8-1.8,1.8-1.1,0-2.9-.7-5.1-2.2-.7.9-1.1,1.3-1.3,1.6-.7.4-1.3.7-2.2.7h-1.2v-2.7h1.6c.9,0,1.8-.4,2.7-1.6.4-.4,1.1-1.6,2-2.9.7-1.1,1.6-1.6,2.2-1.6,1.1,0,2,.4,2.7,1.6.4.9.6,1.5.8,2.4Zm-1.3,1.6c0-.7-.2-1.3-.7-2.2-.4-.9-1.1-1.3-1.8-1.3s-1.3.7-2.2,2c.4.4,1.1.9,2,1.3.9.4,1.8.7,2.2.7.2.2.5-.1.5-.5Z"/><path id="PATH_57" d="m394.85,604.92h-2.4c-.2,3.1-1.3,5.6-3.6,7.8-.7.7-1.1,1.1-1.3,1.1-1.1,0-2.7-.2-4.2-.4-.4,0-.9-.2-.9-.2,0,0,.2-.2.9-.4,1.8-.4,3.6-1.6,5.1-2.7.7-.7,1.3-1.1,1.8-2,.7-.9,1.1-1.8,1.1-2.4v-.7h-2.9c-2.2,0-3.1-.9-3.1-2.7,0-1.1.2-2.2.9-3.6.7-1.3,1.6-2.2,2.4-2.2,1.1,0,2,.7,2.7,2.2.4,1.1.9,2.2.9,3.6h2.4v2.7h.2v-.1Zm-4-2.7c0-.7-.2-1.3-.7-2-.4-.9-1.1-1.1-1.8-1.1-.4,0-.9.2-1.1.4-.4.4-.4.7-.4,1.3,0,1.1.9,1.6,2.7,1.6-.1,0,.6-.2,1.3-.2Z"/><path id="PATH_58" d="m414.15,598.92c0,2.2-1.3,3.8-4,4.9-1.8.7-4,1.1-6.7,1.1-1.6,0-2.7,0-3.3-.2-1.1-.2-1.8-.9-2.2-1.8-.9,1.3-2,2-3.3,2h-.9v-2.7h.9c1.8,0,2.7-.9,2.9-2.4,0-.4.2-.7.4-.7s.4.2.4.7c.2,1.6.9,2.4,2.2,2.4,4.2-4.4,7.3-6.7,9.8-6.7,1.1,0,2,.2,2.7.9.7.7,1.1,1.6,1.1,2.5Zm-1.5,1.3c0-.7-.4-1.1-1.1-1.8-.7-.4-1.3-.7-2-.7-2,0-4.4,1.3-7.1,4.2h2c1.6,0,3.1-.2,4.7-.4,2.1,0,3.5-.4,3.5-1.3Z"/></g><g id="G_59"><path id="PATH_60" d="m361.45,536.92l-4.9-1.8c-.7-.2-1.1-.2-1.8-.2-.9,0-1.3.2-1.6.7,0,0,.9.7,2.7,2,1.8,1.1,2.7,2,2.4,2.4-.7,1.6-1.6,2.7-2.7,3.1-2,.9-5.1.4-9.1-.9-4.9-1.8-6.7-4.4-5.3-8,.2-.9.9-1.8,1.6-2.4.7-.9,1.3-1.6,2.2-2,.2-.2.4-.2.7-.2s.2.2.2.4-.2.4-.4.4c-1.1.9-1.8,2-2.2,3.3s-.2,2.7.9,4c.9.9,2,1.6,3.6,2.2,1.8.7,3.3,1.1,4.7,1.3,2.7.7,4,.4,4.4-.2.2-.2-.4-.7-1.3-1.3-1.6-.9-2.7-1.6-2.9-1.6-.9-.7-1.3-1.3-1.1-2,.2-.4.7-1.1,1.6-1.6.7-.4,1.3-.9,2-1.1,1.3-.4,2.9-.4,4.7.2l2.9,1.1-1.3,2.2Z"/><path id="PATH_61" d="m372.15,522.02v.7h-.4l-.7-.2c-.9,2.9-2.2,6.9-4,12-.4,1.3-1.1,2.2-2,2.7-.9.7-2,.7-3.3.2l-1.3-.4.9-2.4,1.1.4c1.6.7,2.7.2,3.1-1.1,1.3-4.7,2.9-9.1,4.2-14l1.8-.9c.2-.2.4-.2.4-.2v.4c.2.6.2,1.7.2,2.8Z"/><path id="PATH_62" d="m379.45,543.32l-.9-.2c-.7-.2-1.3-.7-1.6-1.1,0,.2-.2.4-.2.7-.7,2-2,3.6-4,5.1-1.6,1.1-2.9,1.6-3.6,1.3-1.6-.7-2.9-1.1-4-1.8-.4-.2-.4-.4-.4-.4,0-.2.2-.2.7,0,1.8.2,3.8,0,5.8-.9,2.2-.9,3.8-2,4.2-3.3.2-.9,0-2.4-.9-4.2l1.6-1.6.2-.2s.2.2.2.4c.4,1.1.7,1.8.9,2.2.4.7,1.1,1.3,2,1.6l.7.2-.7,2.2Zm-.2-12.4l-2.2,1.1-1.1-2.2,2.2-1.1,1.1,2.2Z"/><path id="PATH_63" d="m385.95,540.92c-.9,2.9-2.9,3.8-5.6,2.7l-1.8-.7.9-2.4,1.3.4c2,.7,3.3.7,3.6,0,.2-.4,0-1.6-.4-3.1l1.6-1.8.2-.2s.2.2.2.4c.4,1.8.4,3.3,0,4.7Zm3.3-9.6l-2.2,1.1-1.1-2.2,2.2-1.1,1.1,2.2Z"/><path id="PATH_64" d="m390.35,544.22c-.2.9-.7,1.6-1.3,2.2-.4.4-.7.4-.7.4,0,0,0-.2.2-.9.9-2.4,2.4-8.4,4.9-18.2l2.2-1.1c.2,0,.2-.2.4-.2v.4c-.8,3.2-2.8,8.7-5.7,17.4Z"/><path id="PATH_65" d="m408.15,553.82c-.7,2-2,3.8-4,5.1-1.6,1.1-2.9,1.6-3.6,1.3-1.6-.7-2.9-1.1-4-1.8-.4-.2-.4-.4-.4-.4,0-.2.2-.2.7,0,1.8.2,3.8,0,5.8-.9,2.2-.9,3.8-2,4.2-3.3.2-.9,0-2.4-.9-4.2l1.6-1.6.2-.2s.2.2.2.4c.2.9.4,1.8.4,2.9,0,.9,0,1.8-.2,2.7Z"/><path id="PATH_66" d="m424.35,559.32l-.9-.2c-.9-.2-1.3-.7-1.8-1.6-.2-.4-.4-1.1-.7-2-.9.7-1.6,1.1-2.4,1.3-.9.2-2.2,0-3.8-.7-2.9-1.1-4-2.7-3.3-4.7.2-.7.7-1.3,1.3-2,.2-.2.4-.2.7-.2.2,0,.2.2,0,.4,0,.2-.2.2-.2.4s-.2.4-.2.4c-.4,1.3.4,2.2,2.4,3.1,3.1,1.1,4.7,1.1,5.1-.2.2-.7.2-3.1-.2-7.8l1.6-1.3q.2-.2.4-.2v.4c.2,2,.2,4.7.2,8.4,0,2,.7,3.1,1.8,3.6l.7.2-.7,2.7Z"/><path id="PATH_67" d="m434.85,562.92l-1.6-.7c-2-.7-2.9-1.8-3.1-3.3-1.1,1.1-2.9,1.1-4.9.4l-1.3-.4.9-2.4,1.8.7c2,.7,3.3.2,4.2-1.1.2-.7.7-.9.9-.9s.2.4,0,1.1c-.4,1.6.4,2.9,2.4,3.6l1.8.7-1.1,2.3Zm-.5-12.2l-2.2,1.1-1.1-2.2,2.2-1.1,1.1,2.2Z"/><path id="PATH_68" d="m441.25,560.42c-.9,2.9-2.9,3.8-5.6,2.7l-1.8-.7.9-2.4,1.3.4c2,.7,3.3.7,3.6,0,.2-.4,0-1.6-.4-3.1l1.6-1.8.2-.2s.2.2.2.4c.5,2.1.5,3.4,0,4.7Zm-3.8,8.7l-2.2,1.1-1.1-2.4,2.2-1.1,1.1,2.4Z"/></g><g id="G_69"><path id="PATH_70" d="m512.15,654.92h-.9c-1.1,0-2-.2-2.4-.7-.7-.4-1.1-1.3-1.1-2.2-2.4,2.2-6.2,3.3-11.3,3.3s-8-1.6-8-4.9c0-1.1.4-2.2,1.3-3.3q.2-.2.4-.2t.2.2v.4c-.2.7-.4,1.3-.4,2,0,2.2,2.4,3.3,7.3,3.3,5.6,0,9.3-1.1,11.1-3.6.4-.4.7-.7.9-.7s.2.2.2.4,0,.4-.2.9c0,.4-.2.7-.2.9,0,1.1.9,1.8,2.4,1.8h.9v2.2h-.2v.2Zm-13.8-12.9l-1.8,1.8-1.8-1.8,1.8-1.8,1.8,1.8Zm3.8,0l-1.8,1.8-1.8-1.8,1.8-1.8,1.8,1.8Z"/><path id="PATH_71" d="m529.75,650.22c0,1.3-.2,2.4-.9,3.3-.7.9-1.8,1.6-2.9,1.6-1.6,0-2.4-.7-3.1-1.8-.9,1.3-1.8,1.8-3.1,1.8-1.6,0-2.7-.7-3.3-1.8-.9,1.3-2,1.8-3.6,1.8h-1.6v-2.7h1.8c1.6,0,2.7-.9,2.9-2.7,0-.4.2-.7.4-.7s.2.2.4.7c.2,1.8,1.1,2.7,2.9,2.7.9,0,1.8-.2,2.2-.7.2-.4.4-.9.7-1.8,0-.4.2-.7.4-.7s.2.2.4.7c.2,1.8,1.1,2.7,2.7,2.7,1.8,0,2.4-.4,2.4-1.1s-.4-1.6-1.3-2.4l1.1-2c.2-.2.2-.4.4-.4s.2.2.4.4c.2.9.7,2,.7,3.1Zm-7.6-8.2l-1.6,1.6-1.6-1.6,1.6-1.6,1.6,1.6Zm2-3.3l-1.6,1.6-1.6-1.6,1.6-1.6,1.6,1.6Zm2,3.3l-1.6,1.6-1.6-1.6,1.6-1.6,1.6,1.6Z"/><path id="PATH_72" d="m540.85,655.12c0,2.2-.7,4.2-2,6.2-1.1,1.6-2.2,2.4-2.9,2.4-1.8,0-3.1,0-4.4-.2-.4,0-.7-.2-.7-.2,0,0,.2-.2.7-.2,1.8-.4,3.6-1.3,5.3-2.7,1.8-1.6,2.9-3.1,2.9-4.7,0-.9-.7-2.2-2.2-3.8l1.1-2c0-.2.2-.2.2-.2l.2.2c.4.7,1.1,1.6,1.3,2.7.3.7.5,1.8.5,2.5Z"/></g><g id="G_79"><path id="PATH_80" d="m372.85,761.12h-.9c-1.1,0-2-.2-2.4-.7-.7-.4-1.1-1.3-1.1-2.2-2.4,2.2-6.2,3.3-11.3,3.3s-8-1.6-8-4.9c0-1.1.4-2.2,1.3-3.3q.2-.2.4-.2t.2.2v.4c-.2.7-.4,1.3-.4,2,0,2.2,2.4,3.3,7.3,3.3,5.6,0,9.3-1.1,11.1-3.6.4-.4.7-.7.9-.7s.2.2.2.4,0,.4-.2.9c0,.4-.2.7-.2.9,0,1.1.9,1.8,2.4,1.8h.9v2.2h-.2v.2Zm-13.8-12.9l-1.8,1.8-1.8-1.8,1.8-1.8,1.8,1.8Zm3.8,0l-1.8,1.8-1.8-1.8,1.8-1.8,1.8,1.8Z"/><path id="PATH_81" d="m384.85,761.12h-1.1c-.7,0-1.6-.2-2.7-.4-1.1-.2-2-.7-2.4-1.1-.4.4-1.1.7-2,.9-1.1.4-2.2.4-3.3.4h-1.6v-2.7h1.1c1.8,0,2.9-.2,3.3-.4-.4-.2-.7-.7-.9-1.1-.2-.4-.4-.9-.4-1.3,0-.9.4-2,1.1-3.3.9-1.3,1.8-2.2,2.9-2.2s1.8.7,2.4,1.8c.4.9.7,2,.7,3.1,0,.7-.2,1.6-.7,2-.2.4-.4.7-.9.9.4.2,1.6.4,3.1.4h.9v3.1h.5v-.1Zm-3.8-5.6c0-.4-.2-1.1-.7-1.6-.4-.7-.9-.9-1.6-.9-.4,0-1.1.2-1.6.7-.4.4-.9,1.1-.9,1.6s.2,1.1.9,1.6c.4.4,1.1.7,1.6.9.4,0,1.1-.2,1.3-.7.8-.7,1-1.1,1-1.6Zm-.7-11.1l-1.8,1.8-1.8-1.8,1.8-1.8,1.8,1.8Z"/><path id="PATH_82" d="m402.35,756.42c0,1.3-.2,2.4-.9,3.3-.7.9-1.8,1.6-2.9,1.6-1.6,0-2.4-.7-3.1-1.8-.9,1.3-1.8,1.8-3.1,1.8-1.6,0-2.7-.7-3.3-1.8-.9,1.3-2,1.8-3.6,1.8h-1.6v-2.7h1.8c1.6,0,2.7-.9,2.9-2.7,0-.4.2-.7.4-.7s.2.2.4.7c.2,1.8,1.1,2.7,2.9,2.7.9,0,1.8-.2,2.2-.7.2-.4.4-.9.7-1.8,0-.4.2-.7.4-.7s.2.2.4.7c.2,1.8,1.1,2.7,2.7,2.7,1.8,0,2.4-.4,2.4-1.1s-.4-1.6-1.3-2.4l1.1-2c.2-.2.2-.4.4-.4s.2.2.4.4c.3.9.7,2.2.7,3.1Zm-7.5-8.2l-1.6,1.6-1.6-1.6,1.6-1.6,1.6,1.6Zm2-3.3l-1.6,1.6-1.6-1.6,1.6-1.6,1.6,1.6Zm2,3.3l-1.6,1.6-1.6-1.6,1.6-1.6,1.6,1.6Z"/></g><g id="G_83"><path id="PATH_84" d="m447.25,905.32c0,2.2-.7,4.2-2,6.2-1.1,1.6-2.2,2.4-2.9,2.4-1.8,0-3.1,0-4.4-.2-.4,0-.7-.2-.7-.2,0,0,.2-.2.7-.2,1.8-.4,3.6-1.3,5.3-2.7,1.8-1.6,2.9-3.1,2.9-4.7,0-.9-.7-2.2-2.2-3.8l1.1-2c0-.2.2-.2.2-.2l.2.2c.4.7,1.1,1.6,1.3,2.7.3.7.5,1.6.5,2.5Z"/><path id="PATH_85" d="m456.15,905.12h-1.6c-1.6,0-2.9-.7-3.3-2-.4-.9-.7-2.4-.7-4.2v-4.2c0-2-.2-4.9-.4-8.7l1.3-1.6c.2-.2.4-.2.4,0,.2,2,.4,4.9.4,8.7v6.4c0,1.8.9,2.7,2.7,2.7h1.1v2.9h.1Z"/><path id="PATH_86" d="m461.45,900.72c0,2.9-1.6,4.4-4.4,4.4h-1.8v-2.4h1.6c2.2,0,3.3-.4,3.3-1.1s-.4-1.6-1.6-2.7l.9-2.2c0-.2.2-.2.2-.2l.4.4c1,.9,1.4,2.4,1.4,3.8Zm-.6,9.3l-1.8,1.8-1.8-1.8,1.8-1.8,1.8,1.8Z"/><path id="PATH_87" d="m475.05,900.42c0,3.1-2,4.7-6.2,4.7-1.6,0-2.7-.2-3.3-.7-.9-.4-1.3-1.6-1.3-2.9,0-.7.2-1.3.4-2,.2-.2.2-.4.4-.4s.2.2.2.7v.7c0,.9.4,1.6,1.3,1.8.4.2,1.3.2,2.4.2,3.3,0,4.9-.4,4.9-1.6,0-1.6-2-3.8-5.8-6.4l.7-2.2c0-.2.2-.2.2-.2,0,0,.2,0,.4.2,3.9,2.8,5.7,5.7,5.7,8.1Z"/><path id="PATH_88" d="m486.65,904.22c0,3.3-1.1,6.2-3.3,8.4-.7.7-1.1,1.1-1.3,1.1-1.3,0-2.7-.2-4.2-.4-.7,0-.9-.2-.9-.2,0,0,.2-.2.9-.4,1.8-.4,3.6-1.6,5.1-2.9.7-.7,1.3-1.1,1.8-2,.7-.9,1.1-1.8,1.1-2.4v-.4h-2.9c-2,0-3.1-.9-3.1-2.4,0-1.1.2-2.2.9-3.6.7-1.3,1.6-2.2,2.4-2.2,1.3,0,2.4.9,3.1,2.9.1,1.4.4,2.7.4,4.5Zm-1.8-1.8c0-.7-.2-1.3-.7-2-.4-.7-1.1-1.1-1.8-1.1-.4,0-.9.2-1.1.4-.4.4-.4.7-.4,1.1,0,1.1.7,1.6,2.2,1.6.4.3,1.1,0,1.8,0Z"/><path id="PATH_89" d="m497.75,905.32c0,2.2-.7,4.2-2,6.2-1.1,1.6-2.2,2.4-2.9,2.4-1.8,0-3.1,0-4.4-.2-.4,0-.7-.2-.7-.2,0,0,.2-.2.7-.2,1.8-.4,3.6-1.3,5.3-2.7,1.8-1.6,2.9-3.1,2.9-4.7,0-.9-.7-2.2-2.2-3.8l1.1-2c0-.2.2-.2.2-.2l.2.2c.4.7,1.1,1.6,1.3,2.7.2.7.5,1.6.5,2.5Z"/></g><g id="G_98"><path id="PATH_99" d="m650.85,685.52l-.2,2.4-2.7-.2.2-2.4,2.7.2Zm11.1,3.4c.7.4,1.1.9,1.3,1.3.4.7.9,1.3,1.3,2.2.7,1.6.4,3.6-.7,5.6-.9,1.6-2,3.1-3.6,4.4-1.6,1.3-3.1,1.8-4.7,2-1.8,0-3.1-.7-4.4-2.2-.7-.7-1.1-1.8-1.6-2.9-.2-.9-.4-1.6-.4-2.2,0-.2,0-.4.2-.7h.2s.2.2.2.4c.4,1.6.9,2.7,1.6,3.6.7.9,1.6,1.3,2.7,1.6,1.3.2,2.9-.2,4.4-1.6,1.8-1.3,2.9-2.9,3.8-4.7.7-1.3.9-2.4.7-3.3,0-.2-.2-.4-.4-.9-.4-.4-.9-.9-1.8-1.3-.7-.4-2-.9-3.8-1.3l-.4-2v-.4h.4c2.1.4,3.7,1.3,5,2.4Z"/><path id="PATH_100" d="m669.25,683.32l-1.1.9c-1.3,1.1-2.7,1.3-4,.7-.9-.4-2-1.3-3.1-2.9l-2.7-3.3c-1.3-1.6-3.3-3.8-6-6.4l.2-2c0-.4.2-.4.4-.2,1.6,1.3,3.6,3.6,6,6.4l4.2,5.1c1.1,1.3,2.4,1.6,3.8.4l.9-.7,1.4,2Z"/><path id="PATH_101" d="m684.35,670.92l-1.8,1.3c-2.2,1.8-4.2,1.8-6.2-.7-.2-.2-.4-.7-.7-.9-.4,1.1-1.1,2.4-1.8,4.4s-1.1,3.3-1.6,4.2c-.7,1.3-1.6,2.4-2.7,3.3l-1.1,1.1-1.6-2,1.3-1.1c1.3-1.1,2.4-2.7,3.3-4.7.4-.9,1.1-2.7,2.2-5.1l-3.6,1.8c-1.3.7-2.2,1.1-2.4,1.3-.7.4-1.1,1.3-1.3,2.7,0,.2,0,.4-.2.4h-.4s0-.2-.2-.2c-.9-2.2-.7-3.8.9-4.9.4-.4,1.3-.9,2.2-1.1,1.6-.7,2.9-1.1,3.8-1.6,1.3-.7,2.9-1.8,4.4-3.1.2-.2.4-.2.4-.2,0,0,.2.2.2.4l.7,2c-1.1.9-1.8,1.6-1.8,1.8.7.7,1.1,1.3,1.6,1.3.9.2,1.8,0,2.9-1.1l1.8-1.3,1.7,2Zm-3.7,8.9l-.2,2.4-2.7-.2.2-2.4,2.7.2Z"/><path id="PATH_102" d="m692.65,664.02l-1.3,1.1c-1.6,1.3-3.1,1.6-4.4,1.1.2,1.6-.4,3.1-2.2,4.4l-1.1.9-1.6-2,1.6-1.3c1.8-1.3,2-2.9,1.1-4.2-.4-.7-.4-.9-.2-1.1.2-.2.4,0,1.1.4,1.1,1.1,2.7,1.1,4.2-.2l1.6-1.3,1.2,2.2Zm-2.7,8.4l-.2,2.4-2.4-.2.2-2.4,2.4.2Zm3.1-2.4l-.2,2.4-2.4-.2.2-2.4,2.4.2Z"/><path id="PATH_103" d="m700.15,652.02c.4.7.9,1.6,1.1,2.4.2,1.3,0,2.2-.7,2.7-.4.4-2,1.1-4.7,1.8-.7,2.2-1.8,3.8-2.9,4.9l-.9.7-1.6-2,1.1-.9c.7-.7,1.3-1.3,1.8-2-1.1,0-2-.2-2.7-1.1-.9-1.1-1.1-2.9-.4-5.3l-1.6.4c0-.7.2-1.6.2-2.7,2.2-.4,4.2-.9,6.2-.9,2.2.2,4.2.7,5.1,2Zm-5.5,2.2c-.4-.4-.9-.7-1.3-.9-.7-.2-1.1-.2-1.6.2s-.7.9-.9,1.8c-.2.9-.2,1.6.2,2,.7.7,1.8.9,3.3.2.2-.4.4-.9.7-1.6,0-.8-.2-1.2-.4-1.7Zm5.3-.9c-.4-.4-1.1-.7-2.4-.9h-2.7c1.1,1.3,1.6,2.7,1.3,4,1.8-.7,2.9-1.1,3.3-1.6.7-.4.9-.8.5-1.5Z"/><path id="PATH_104" d="m705.05,631.12s.2.2.4.2l-.2.2-.4.4c1.1,1.3,2.2,3.1,3.1,4.7,1.1,2.2,1.8,4.2,2,6,1.1.4,1.8.9,2.4,1.8.4.4.7.9.9,1.6.2.7.2,1.3,0,1.6-1.3,1.6-2.7,3.1-4.7,4.4l-.9-2.4c1.1-2.2,1.6-4,1.3-5.8-3.6-.9-7.3-1.6-11.3-2l.2.9c-2.2-.2-3.6-.7-3.8-.9-.2-.2-.7-.9-1.1-2-.2-.2-.2-.4,0-.4h.9c5.8.2,10.9,1.3,15.1,2.9-.2-1.6-1.1-3.3-2.4-5.3-1.1-1.8-2.7-3.3-4.2-5.1l.4-2.4c.5.5,1.4,1.2,2.3,1.6Zm6.4,14.4l-.2-.2c-.4-.4-.9-.9-1.6-1.1,0,1.1-.2,2.4-.4,3.8.2-.2.4-.2.7-.4.7-.7,1.3-1.4,1.5-2.1Z"/></g><g id="G_105"><path id="PATH_106" d="m793.95,866.42h-.9c-.9,0-1.3-.2-1.8-.4v.7c0,2-.7,4-2,6-1.1,1.8-2.2,2.4-2.9,2.4-1.8,0-3.1,0-4.4-.2-.4,0-.7-.2-.7-.2,0,0,.2-.2.7-.2,1.8-.4,3.6-1.3,5.3-2.7,1.8-1.6,2.9-3.1,2.9-4.7,0-.9-.7-2.2-2.2-3.8l1.1-2c0-.2.2-.2.2-.2l.2.2c.7.9,1.1,1.6,1.6,1.8.7.4,1.6.9,2.4.9h.7v2.4h-.2Z"/><path id="PATH_107" d="m811.45,861.52c0,1.3-.2,2.4-.9,3.3-.7.9-1.8,1.6-2.9,1.6-1.6,0-2.4-.7-3.1-1.8-.9,1.3-1.8,1.8-3.1,1.8-1.6,0-2.7-.7-3.3-1.8-.9,1.3-2,1.8-3.6,1.8h-1.6v-2.7h1.8c1.6,0,2.7-.9,2.9-2.7,0-.4.2-.7.4-.7s.2.2.4.7c.2,1.8,1.1,2.7,2.9,2.7.9,0,1.8-.2,2.2-.7.2-.4.4-.9.7-1.8,0-.4.2-.7.4-.7s.2.2.4.7c.2,1.8,1.1,2.7,2.7,2.7,1.8,0,2.4-.4,2.4-1.1s-.4-1.6-1.3-2.4l1.1-2c.2-.2.2-.4.4-.4s.2.2.4.4c.5,1.1.7,2.3.7,3.1Z"/><path id="PATH_108" d="m825.25,861.82c0,3.1-2,4.7-6.2,4.7-1.6,0-2.7-.2-3.3-.7-.9-.4-1.3-1.6-1.3-2.9,0-.7.2-1.3.4-2,.2-.2.2-.4.4-.4s.2.2.2.7v.7c0,.9.4,1.6,1.3,1.8.4.2,1.3.2,2.4.2,3.3,0,4.9-.4,4.9-1.6,0-1.6-2-3.8-5.8-6.4l.7-2.2c0-.2.2-.2.2-.2,0,0,.2,0,.4.2,3.7,2.7,5.7,5.4,5.7,8.1Z"/><path id="PATH_109" d="m836.65,865.52c0,3.3-1.1,6.2-3.3,8.4-.7.7-1.1,1.1-1.3,1.1-1.3,0-2.7-.2-4.2-.4-.7,0-.9-.2-.9-.2,0,0,.2-.2.9-.4,1.8-.4,3.6-1.6,5.1-2.9.7-.7,1.3-1.1,1.8-2,.7-.9,1.1-1.8,1.1-2.4v-.7h-2.9c-2,0-3.1-.9-3.1-2.4,0-1.1.2-2.2.9-3.6.7-1.3,1.6-2.2,2.4-2.2,1.3,0,2.4.9,3.1,2.9.1,1.5.4,3.1.4,4.8Zm-1.6-2c0-.7-.2-1.3-.7-2-.4-.7-1.1-1.1-1.8-1.1-.4,0-.9.2-1.1.4s-.4.7-.4,1.1c0,1.1.7,1.6,2.2,1.6.2.3.9.3,1.8,0Z"/><path id="PATH_110" d="m847.95,866.72c0,2.2-.7,4.2-2,6.2-1.1,1.6-2.2,2.4-2.9,2.4-1.8,0-3.1,0-4.4-.2-.4,0-.7-.2-.7-.2,0,0,.2-.2.7-.2,1.8-.4,3.6-1.3,5.3-2.7,1.8-1.6,2.9-3.1,2.9-4.7,0-.9-.7-2.2-2.2-3.8l1.1-2c0-.2.2-.2.2-.2l.2.2c.4.7,1.1,1.6,1.3,2.7,0,.7.5,1.6.5,2.5Z"/></g><g id="G_111"><path id="PATH_112" d="m751.95,798.22l-.9.9c-1.1,1.1-2.2,1.3-3.6.9.4,1.3.2,2.4-.9,3.3-.9.9-2.2,1.1-3.3.4.4,1.6,0,2.7-.9,3.6-.4.4-.9.7-1.3.9.9,1.1,1.8,2,2.7,3.3.7,1.6.7,3.3-.2,5.3-.7,1.8-1.8,3.3-3.1,4.7-1.3,1.3-2.9,2-4.4,2.2-1.8.2-3.3-.4-4.4-1.8-.7-.7-1.3-1.8-1.6-2.9-.2-.9-.4-1.6-.4-2.2,0-.2,0-.4.2-.7h.2s.2.2.2.4c.4,1.3,1.1,2.7,1.8,3.3.7.9,1.6,1.3,2.7,1.3,1.3.2,2.9-.4,4.2-1.8,1.6-1.6,2.7-3.1,3.3-4.7.4-1.3.7-2.4.4-3.3,0-.2-.4-.7-.9-1.1-.7-.4-1.1-.9-1.3-.9-.7-.2-2-.7-3.8-.9l-.4-2v-.4h.4c1.1.2,1.8.4,2,.4.9,0,1.6-.2,2.2-.9.7-.7,1.1-1.3,1.1-2,0-.4-.2-1.1-.9-1.8-.2-.4-.2-.7-.2-.7.2-.2.4,0,.7.2,1.6,1.1,2.7,1.3,3.8.4,1.1-1.1,1.3-2.4.2-3.8-.2-.4-.2-.7-.2-.7.2-.2.4,0,.7.2,1.3,1.1,2.7,1.1,3.8.2l.9-.9,1.2,1.6Zm-16.2-4.9v2.2h-2.2v-2.2h2.2Zm.9,4v2.2h-2.2v-2.2h2.2Zm2.8-2.9v2.2h-2.2v-2.2h2.2Z"/><path id="PATH_113" d="m757.95,792.72l-.7.7c-1.3,1.3-2.9,1.8-4.4,1.1.2.7.2,1.3,0,2s-.7,1.3-1.1,1.8l-.7.7-1.8-1.8.7-.7c1.3-1.3,1.6-2.4.4-3.6l-5.3-5.6c-2-2.2-3.6-3.8-4.7-4.9l.2-2.4,10.2,10.9c1.6,1.6,3.1,1.8,4.4.4l.7-.7,2.1,2.1Z"/><path id="PATH_114" d="m763.05,782.02c.9.7,1.3,1.6,1.6,2.2.4,1.1.4,2-.2,2.4-.9.9-2.7,1.3-5.3,1.8v2c-.2.7-.4,1.3-1.1,2l-.9.9-1.8-1.8,1.1-1.1c.7-.7,1.1-1.6.9-2.9,0-.7-.2-1.8-.4-3.3-.2-1.3,0-2.2.7-2.7.9-.7,1.8-.9,3.1-.7,1,.3,1.6.5,2.3,1.2Zm.2,2c-.4-.4-1.1-.9-2-1.1-.9-.2-1.8-.2-2.2.2s-.7,1.6-.2,3.1c.4,0,1.3,0,2.4-.4s1.8-.7,2.2-1.1c0,0,0-.5-.2-.7Z"/><path id="PATH_115" d="m767.95,779.52c.7.7,1.1,1.3,1.3,2.2.2.4.2.7.2.9,0,0-.2-.2-.7-.4-1.8-1.8-6.4-6.2-13.8-12.9l.2-2.4v-.4s.2,0,.4.2c2.2,2,6.2,6.2,12.4,12.8Z"/></g><g id="G_116"><path id="PATH_117" d="m723.25,731.12c2.7,1.8,2.9,4.2.7,7.8-.9,1.3-1.6,2.2-2.2,2.4-.9.4-2,.4-3.1-.4-.7-.4-1.1-.9-1.3-1.6-.2-.2-.2-.4-.2-.7,0-.2.2,0,.7.2.2.2.4.2.7.4.9.4,1.6.4,2.2,0,.4-.2.9-.9,1.6-2,1.8-2.7,2.2-4.4,1.3-4.9-1.3-.9-4.2-.4-8.4,1.3l-1.6-1.8-.7-.4s.2-.2.4-.2c4.4-1.4,7.7-1.7,9.9-.1Z"/><path id="PATH_118" d="m732.65,723.32c2.9,1.8,4.7,4.2,5.3,7.6.2,1.1.2,1.6.2,1.8-.7,1.1-1.6,2.2-2.7,3.3-.4.4-.7.7-.7.7,0,0,0-.4.2-.9.4-1.8.7-3.8.4-5.8-.2-.9-.4-1.8-.7-2.4-.4-1.1-.9-1.8-1.6-2.2l-.7-.4-1.6,2.4c-1.1,1.8-2.2,2.2-3.8,1.1-.9-.7-1.8-1.6-2.4-2.7-.9-1.3-.9-2.4-.4-3.3.7-1.1,2-1.6,4-1.1,1.6.4,2.9,1,4.5,1.9Zm-2.5.5c-.7-.4-1.3-.4-2-.4-.9,0-1.6.4-1.8.9-.2.4-.2.9-.2,1.3s.4.9.7,1.1c.9.4,1.8.2,2.4-1.1.2-.5.5-1.2.9-1.8Z"/><path id="PATH_119" d="m740.85,712.22l-.4.9c-.4.7-.9,1.1-1.3,1.3.2.2.4.2.7.4,1.8,1.1,3.1,2.7,4,4.9.7,1.8.9,3.1.7,3.8-.9,1.3-1.8,2.7-2.7,3.6-.2.2-.4.4-.7.4-.2,0,0-.2,0-.7.7-1.6.9-3.6.4-6-.2-2.4-1.1-4-2.2-4.9-.9-.4-2.2-.4-4.4,0l-1.1-2c0-.2-.2-.2-.2-.2h.4c1.1,0,2-.2,2.4-.4.9-.2,1.6-.9,2-1.6l.4-.7,2,1.2Z"/><path id="PATH_120" d="m729.45,690.02l1.1,1.3-2.9,11.1-1.1-1.3,2.9-11.1Zm19.4,9.5l-.7,1.1c-.7.9-1.8,1.8-3.1,2.2-1.1.2-2.7.4-4.4.7,2.7,2,2.9,4.9.4,8.7l-.7,1.1-2.2-1.3.4-.7c2.2-3.6,2.7-5.6,1.3-6.4-1.1-.7-2.9-.7-5.6,0-1.1.2-2.2.7-3.6,1.1-.9-.4-1.3-1.1-1.3-1.8,0-.2,1.1-4.4,3.3-12.4.2.2.7.9,1.6,2-.7,2-1.6,5.1-2.9,10,3.3-.7,6.2-1.1,8.9-1.6,1.6-.2,2.7-.4,3.3-.7,1.1-.4,2-1.1,2.7-2l.4-.7,2.2.7Z"/><path id="PATH_121" d="m742.65,687.82l.4,2.4-2.4.7-.4-2.4,2.4-.7Zm12.2,2.4l-.9,1.3c-1.1,1.8-2.4,2.4-4,2.4.7,1.3.4,3.1-.7,4.9l-.7,1.1-2.2-1.3,1.1-1.8c1.1-1.8,1.1-3.3-.2-4.4-.4-.4-.7-.7-.7-.9.2-.2.4-.2,1.1.2,1.6.7,2.9.2,4-1.6l1.1-1.6,2.1,1.7Z"/><path id="PATH_122" d="m742.65,676.42c.2,0,.4.2.4.2,0,0,0,.2-.2.4l-.4.7c2.7,1.6,6.2,3.8,10.7,6.7,1.1.7,1.8,1.6,2.2,2.4.4,1.1.2,2.2-.4,3.1l-.7,1.1-2.2-1.3.7-.9c.9-1.6.9-2.4-.2-3.1-4.2-2.4-8.4-4.9-12.7-7.1l-.4-2v-.4h.4c.5-.2,1.6,0,2.8.2Z"/></g><g id="G_123"><path id="PATH_124" d="m711.35,536.42h-1.5c-1.9,0-3-1.1-3.4-3.6-1.1,1.1-1.5,1.6-1.7,1.6h-1.9c-.6,0-1.3,0-1.9-.2-.9-.2-1.3-.7-1.3-1.1,0-1.8.6-3.1,1.7-4,.9-.7,2.1-1.3,3.9-2.2l-.4-2.2,1.5-1.8c0,.2.6,2.7,1.5,7.3.2,1.3.6,2.4.9,2.9.4.7.9.9,1.7.9h1.5v2.4h-.6Zm-5.3-4.4l-.6-3.6c-.6.2-1.5.7-2.6,1.1-1.3.7-2.1,1.3-2.1,1.6,0,.4.4.7,1.5.9.6.2,1.3.2,1.9.2.8-.2,1.5-.2,1.9-.2Z"/><path id="PATH_125" d="m721.95,536.42h-1.5c-1.9,0-3.2-.7-4.1-2-.6,1.3-2.1,2-4.5,2h-1.3v-2.7h1.9c2.1,0,3.2-.9,3.4-2.4,0-.7.2-1.1.4-1.1s.4.4.4,1.1c.2,1.6,1.3,2.4,3.2,2.4h1.9v2.7h.2Zm-7.1,4.9l-1.7,1.8-1.7-1.8,1.7-1.8,1.7,1.8Zm3.6,0l-1.7,1.8-1.7-1.8,1.7-1.8,1.7,1.8Z"/><path id="PATH_126" d="m730.25,530.22v.9c0,1.6-.2,2.4-.6,3.1-1.1,1.6-2.8,2.2-5.6,2.2h-3v-2.7h2.1c3.6,0,5.6-.7,6-1.8v-.4c0-.4,0-.7-.2-.9-.9.2-1.9.2-2.8.2-1.9,0-3-.9-3-2.7,0-1.1.2-2.4.9-3.6.6-1.3,1.5-2,2.6-2,.9,0,1.7.7,2.4,1.8.8,1.7,1.2,3.7,1.2,5.9Zm-2.6-12.2l-1.7,1.8-1.7-1.8,1.7-1.8,1.7,1.8Zm1.1,10.2c0-.7-.2-1.3-.6-2s-1.1-.9-1.7-.9c-.4,0-.9.2-1.3.4s-.4.7-.4,1.1c0,.9.6,1.3,2.1,1.3.4.3,1.1.3,1.9.1Z"/><path id="PATH_127" d="m743.55,536.42h-.9c-.9,0-1.3-.2-1.7-.4v.7c0,2-.6,4-1.9,6-1.1,1.8-2.1,2.4-2.8,2.4-1.7,0-3,0-4.3-.2-.4,0-.6-.2-.6-.2,0,0,.2-.2.6-.2,1.7-.4,3.4-1.3,5.1-2.7,1.7-1.6,2.8-3.1,2.8-4.7,0-.9-.6-2.2-2.1-3.8l1.1-2c0-.2.2-.2.2-.2l.2.2c.6.9,1.1,1.6,1.5,1.8.6.4,1.5.9,2.4.9h.6v2.4h-.2Z"/><path id="PATH_128" d="m760.45,531.82c0,1.3-.2,2.4-.9,3.3-.6.9-1.7,1.6-2.8,1.6-1.5,0-2.4-.7-3-1.8-.9,1.3-1.7,1.8-3,1.8-1.5,0-2.6-.7-3.2-1.8-.9,1.3-1.9,1.8-3.4,1.8h-1.5v-2.9h1.7c1.5,0,2.6-.9,2.8-2.7,0-.4.2-.7.4-.7s.2.2.4.7c.2,1.8,1.1,2.7,2.8,2.7.9,0,1.7-.2,2.1-.7.2-.4.4-.9.6-1.8,0-.4.2-.7.4-.7s.2.2.4.7c.2,1.8,1.1,2.7,2.6,2.7,1.7,0,2.4-.4,2.4-1.1s-.4-1.6-1.3-2.4l1.1-2c.2-.2.2-.4.4-.4s.2.2.4.4c.2,1,.6,2.2.6,3.3Zm-7.2-8.3l-1.5,1.6-1.5-1.6,1.5-1.6,1.5,1.6Zm1.9-3.3l-1.5,1.6-1.5-1.6,1.5-1.6,1.5,1.6Zm1.9,3.3l-1.5,1.6-1.5-1.6,1.5-1.6,1.5,1.6Z"/><path id="PATH_129" d="m765.65,533.82c0,.9-.2,1.8-.6,2.4-.2.4-.4.7-.4.7,0,0-.2-.2-.2-.9,0-2.7-.4-8.9-1.3-18.9l1.7-1.8.2-.2v.4c.4,2.9.6,9.2.6,18.3Z"/><path id="PATH_130" d="m788.55,536.42h-1.5c-1.9,0-3-1.1-3.4-3.6-1.1,1.1-1.5,1.6-1.7,1.6h-1.9c-.6,0-1.3,0-1.9-.2-.9-.2-1.3-.7-1.3-1.1,0-1.8.6-3.1,1.7-4,.9-.7,2.1-1.3,3.9-2.2l-.4-2.2,1.5-1.8c0,.2.6,2.7,1.5,7.3.2,1.3.6,2.4.9,2.9.4.7.9.9,1.7.9h1.5v2.4h-.6Zm-5.1-4.4l-.6-3.6c-.6.2-1.5.7-2.6,1.1-1.3.7-2.1,1.3-2.1,1.6,0,.4.4.7,1.5.9.6.2,1.3.2,1.9.2.6-.2,1.2-.2,1.9-.2Z"/><path id="PATH_131" d="m793.75,532.02c0,2.9-1.5,4.4-4.3,4.4h-1.7v-2.7h1.5c2.1,0,3.2-.4,3.2-1.1s-.4-1.6-1.5-2.7l.9-2.2c0-.2.2-.2.2-.2,0,0,.2.2.4.4.8,1.2,1.3,2.8,1.3,4.1Zm0-10l-1.7,1.8-1.7-1.8,1.7-1.8,1.7,1.8Z"/><path id="PATH_132" d="m802.25,536.42h-1.5c-1.5,0-2.8-.7-3.2-2-.4-.9-.6-2.4-.6-4.2v-4.2c0-2-.2-4.9-.4-8.7l1.3-1.6c.2-.2.4-.2.4,0,.2,2,.4,4.9.4,8.7v6.4c0,1.8.9,2.7,2.6,2.7h1.1l-.1,2.9h0Z"/><path id="PATH_133" d="m812.75,536.42h-1.7c-1.9,0-3.2-.7-4.1-2-.6,1.3-2.1,2-4.5,2h-1.3v-2.7h1.9c2.1,0,3.2-.9,3.4-2.4,0-.7.2-1.1.4-1.1s.4.4.4,1.1c.2,1.6,1.3,2.4,3.2,2.4h1.9v2.7h.4Zm-7.2-12.9l-1.7,1.8-1.7-1.8,1.7-1.8,1.7,1.8Zm3.6,0l-1.7,1.8-1.7-1.8,1.7-1.8,1.7,1.8Z"/><path id="PATH_134" d="m829.75,531.82c0,1.3-.2,2.4-.9,3.3-.6.9-1.7,1.6-2.8,1.6-1.5,0-2.4-.7-3-1.8-.9,1.3-1.7,1.8-3,1.8-1.5,0-2.6-.7-3.2-1.8-.9,1.3-1.9,1.8-3.4,1.8h-1.5v-2.9h1.7c1.5,0,2.6-.9,2.8-2.7,0-.4.2-.7.4-.7s.2.2.4.7c.2,1.8,1.1,2.7,2.8,2.7.9,0,1.7-.2,2.1-.7.2-.4.4-.9.6-1.8,0-.4.2-.7.4-.7s.2.2.4.7c.2,1.8,1.1,2.7,2.6,2.7,1.7,0,2.4-.4,2.4-1.1s-.4-1.6-1.3-2.4l1.1-2c.2-.2.2-.4.4-.4s.2.2.4.4c.2,1,.6,2.2.6,3.3Z"/><path id="PATH_135" d="m838.55,512.72c-.9.9-2.1,1.1-3.4,1.1h-1.8c-.3,0-.4.2-.6.4s-.4.4-.4.4c-.2,0-.2-.2-.2-.4s.2-.7.4-1.1c.2-.7.4-.9.6-.9s.6,0,1.3.2c.6,0,1.1.2,1.3.2,1.3,0,2.1,0,2.8-.2.4,0,.6-.2.6-.2h.2c-.4,0-.6.2-.8.5Zm-1.5,21.1c0,.9-.2,1.8-.6,2.4-.2.4-.4.7-.4.7,0,0-.2-.2-.2-.9,0-2.7-.4-8.9-1.3-18.9l1.7-1.8.2-.2v.4c.6,2.9.6,8.9.6,18.3Z"/></g><path id="_790" class="cls-9" d="m948.75,907.62c0-2.9,4.7-9.1,6.2-9.1,27.3-4.1,54.3-17.9,64.3-42.3l-41.1-20.8-6.5-6.5-14.7-14.1-6.8-3.2-10-1.8-22.9-14.7c0,.3,0,.6-.3.9l-24.7,57.5c-.3.6-25,53.7-32.9,74-7.3,18.5-42,49.3-54.9,60.5,9.7,2.9,18.2,5.3,24.7,5.3,10.9,0,29.7,9.1,53.1,23.5,35.7-25.2,61.2-64.3,66.5-109.2Z"/><g id="G_36"><path id="PATH_37-2" d="m918.65,870.02h-1c-1,0-1.5-.2-2-.5v.7c0,2.1-.8,4.1-2.3,6.2-1.3,1.8-2.5,2.5-3.3,2.5-2,0-3.5,0-5.1-.2-.5,0-.8-.2-.8-.2,0,0,.3-.2.8-.2,2-.5,4.1-1.4,6.1-2.7,2-1.6,3.3-3.2,3.3-4.8,0-.9-.8-2.3-2.5-3.9l1.3-2.1c0-.2.3-.2.3-.2l.3.2c.8.9,1.3,1.6,1.8,1.8.8.5,1.8.9,2.8.9h.8v2.5h-.5Z"/><path id="PATH_38-2" d="m942.25,870.02h-1.5c-1.8,0-2.8-.7-3.5-1.8-.5,1.4-1.8,1.8-3.3,1.8s-2.5-.7-3.3-1.8c-.8,1.1-1.8,1.8-3.3,1.8-1.8,0-3-.7-3.8-1.8-1,1.4-2.3,1.8-4.1,1.8h-1.8v-2.7h2c1.8,0,3-.9,3.3-2.7,0-.5.3-.7.5-.7s.3.2.5.7c.3,1.8,1.3,2.7,3.3,2.7,1.8,0,3-.9,3-2.7,0-.5.3-.7.5-.7s.5.2.5.7c.3,1.8,1.3,2.7,2.5,2.7,1.8,0,3-.9,3-2.7,0-.5.3-.7.5-.7.3,0,.5.2.5.7.3,1.8,1.3,2.7,3,2.7h1.5v2.7h0Z"/><path id="PATH_39-2" d="m954.65,865.42c0,1.1,0,2.1-.5,3-.5,1.1-1.3,1.8-2,1.8-1.3,0-3.3-.7-5.8-2.3-.8.9-1.3,1.4-1.5,1.6-.8.5-1.5.7-2.5.7h-1.3v-2.7h1.8c1,0,2-.5,3-1.6.5-.5,1.3-1.6,2.3-3,.8-1.1,1.8-1.6,2.5-1.6,1.3,0,2.3.5,3,1.6.7.9,1,1.6,1,2.5Zm-1.6,1.6c0-.7-.3-1.4-.8-2.3-.5-.9-1.3-1.4-2-1.4s-1.5.7-2.5,2.1c.5.5,1.3.9,2.3,1.4s2,.7,2.5.7c.5.2.5,0,.5-.5Z"/><path id="PATH_40-2" d="m960.65,867.22c0,.9-.3,1.8-.8,2.5-.3.5-.5.7-.5.7,0,0-.3-.2-.3-.9,0-2.7-.5-9.1-1.5-19.4l2-1.8c.3,0,.5,0,.5-.2v.5c.4,2.9.6,9.1.6,18.6Z"/><path id="PATH_41-2" d="m973.35,870.22c0,2.3-.8,4.3-2.3,6.4-1.3,1.6-2.5,2.5-3.3,2.5-2,0-3.5,0-5.1-.2-.5,0-.8-.2-.8-.2,0,0,.3-.2.8-.2,2-.5,4.1-1.4,6.1-2.7,2-1.6,3.3-3.2,3.3-4.8,0-.9-.8-2.3-2.5-3.9l1.3-2.1c0-.2.3-.2.3-.2l.3.2c.5.7,1.3,1.6,1.5,2.7.2.7.4,1.6.4,2.5Z"/></g><path id="_788" class="cls-10" d="m1045.15,1060.22c13.8-.8,17.5,6.2,32.2,6.9,13.3.6,14.5-5,26.9-3.6,12.7,1.4,14.8,8.9,24.4,9.2,21,.7,38.8-16.5,44.3-32.1,4.7-15.3-30.5-21.4-39.6-41.1-4.7-9.1-1.5-18.5,9.1-20-4.7-19.4,2.1-33.8,16.4-43.4l-38.5-16.4-69-47-35.5-17.9c-10,24.7-37.3,38.2-64.3,42.3-1.5,0-6.2,6.2-6.2,9.1-5.3,44.9-30.8,84-66.3,108.9,13.8,12.9,54.3,49.5,73.1,48.7.8,0,8.9-.4,19.5-1.2,7.6-.6,13.8-1.2,17.6-1.5,3.8,1.9,9.5,4.3,16.9,5.4,9.7,1.4,17.6-.2,22.2-1.5,3.8-2.1,9.6-4.4,16.8-4.8Z"/><g id="G_167"><path id="PATH_168" d="m1010.35,971.02h-1.3c-1.3,0-2,0-2.6-.2,0,.7.3,1.2.3,2,0,1.2-.3,2-.5,2.7-.8,1.7-2,3.2-4.6,4.2-2,.7-4.1,1.2-6.4,1.2s-4.1-.5-5.6-1.5c-1.5-1.2-2.3-2.7-2.3-4.9,0-1.2.3-2.2.8-3.7.5-1,.8-1.7,1.3-2.2.3-.2.5-.2.5-.2q.3,0,.3.2v.5c-.8,1.5-1,3-1,4.2s.5,2.2,1.3,3.2c1,1.2,2.8,1.7,5.1,1.7,2.6,0,4.9-.5,6.7-1.2,1.5-.7,2.6-1.5,3.1-2.5.3-.2.3-.7,0-1.7,0-.7-.3-1.5-.3-1.7-.3-.7-1.3-2-2.6-3.7l1-2c.3-.2.3-.5.3-.5,0,0,.3,0,.3.2,1.3,2,2.6,3,4.1,3h2v3h.1v-.1Zm-11.3-11.1l-2,2-2-2,2-2,2,2Z"/><path id="PATH_169" d="m1016.45,966.12c0,3.2-1.8,4.9-5.1,4.9h-2v-3h1.8c2.6,0,3.8-.5,3.8-1.2s-.5-1.7-1.8-3l1-2.5c0-.2.3-.2.3-.2,0,0,.3.2.5.5,1,1.3,1.5,2.7,1.5,4.5Zm-.7,10.3l-2,2-2-2,2-2,2,2Z"/><path id="PATH_170" d="m1026.75,971.02h-1.8c-1.8,0-3.3-.7-3.8-2.2-.5-1-.8-2.7-.8-4.7v-4.7c0-2.2-.3-5.4-.5-9.6l1.5-1.7c.3-.2.5-.2.5,0,.3,2.2.5,5.4.5,9.6v7.1c0,2,1,3,3.1,3h1.3v3.2h0Z"/><path id="PATH_171" d="m1044.35,971.02h-1.8c-1.3,0-2.6-.7-4.1-2-.8-.7-1.8-2-3.1-3.7.3,3.9-2,5.9-6.9,5.9h-2.8v-3h3.3c3.3,0,5.1-1,5.1-2.7,0-1-.5-2.2-1.8-3.7-.8-1-1.8-2-3.3-3.2-1.3-1.2-1.8-2-1.8-2,0-1.7.3-3,.8-3.7,0-.2,1.8-.7,5.1-2s6.4-2.2,9.2-3c0,.2-.3,1.2-.8,2.7-3.3,1-7.4,2.5-12.5,4.4,2.3,2,5.4,5.2,8.7,9.6,1.3,1.5,2.3,2.5,3.1,3,.5.2,1.5.5,2.6.5h1v2.9h0Z"/><path id="PATH_172" d="m1056.95,971.02h-2c-2.3,0-3.8-.7-4.9-2.2-.8,1.5-2.6,2.2-5.4,2.2h-1.5v-3h2.3c2.6,0,3.8-1,4.1-2.7,0-.7.3-1.2.5-1.2.3,0,.5.5.5,1.2.3,1.7,1.5,2.7,3.8,2.7h2.3v3h.3Zm-5.2-12.8l-2,2-2-2,2-2,2,2Z"/><path id="PATH_173" d="m1063.05,966.12c0,3.2-1.8,4.9-5.1,4.9h-2v-3h1.8c2.6,0,3.8-.5,3.8-1.2s-.5-1.7-1.8-3l1-2.5c0-.2.3-.2.3-.2,0,0,.3.2.5.5,1,1.3,1.5,2.7,1.5,4.5Zm-2.3-10.9l-2,2-2-2,2-2,2,2Zm4.3,0l-2,2-2-2,2-2,2,2Z"/></g><g id="G_136"><path id="PATH_137" d="m251.35,695.12c.7,1.3,1,2.2,1.4,3.4.5,1.5,1.5,1.8,3.2,1.8h.2v2.2h-.4c-1,0-1.8-.2-2.5-.8h-.1c-.1,1.8-.6,3.4-1.1,4.1-1.2,1.6-3.9,2.8-6,2.8-3.3,0-5.4-2.2-5.4-5.3,0-2.2.7-3.8,1.5-5.1l.7.4c-.6,1.1-1,2.5-1,3.3,0,1.5.5,2.4,1.2,3.1.7.7,2,1.2,3.3,1.2,1.4,0,3.1-.7,4.3-1.5.8-.6,1.3-1.1,1.3-1.8s-.1-1.4-.6-2.9c-.6-1.3-1-2.2-1.4-2.9.4-.6.7-1.3,1.2-1.9h.2v-.1Zm-4.1-5.3c.7.5,1.4,1.2,2.1,1.9-.4.6-.9,1.2-1.5,1.7-.7-.7-1.4-1.2-2.1-1.8.5-.7,1-1.3,1.5-1.8Z"/><path id="PATH_138" d="m256.65,700.32c1.3,0,2.3-.9,3-3.1.2-.7.7-1.4,1.3-2.1.7-.6,1.4-1,2.2-1,2.1,0,3.4,3,3.7,6-.4,1.6-1,2.3-1.9,2.3-1.7,0-3.5-.8-5.2-2.1h-.1c-.5,1.5-1.5,2.3-3,2.3h-.3c-1,0-1.2-.7-1.2-1.2,0-.4.3-1.1,1.2-1.1h.3Zm6.1-.7c.7.3,1.4.5,2.1.5.3,0,.5,0,.6-.2-.5-2.7-1.7-3.8-2.8-3.8-1,0-1.8.6-2.4,1.7.6.8,1.5,1.4,2.5,1.8Z"/><path id="PATH_139" d="m280.25,700.32v2.2h-1.5c-.1,1.1-.6,2.5-1.3,3.6-1.4,2.1-3.3,3-4.2,3-1.6,0-3.4-.7-5.1-1.8l.3-.6c.7.4,1.5.6,2.6.6,1.8,0,3.4-.9,4.9-2.4.8-.9,1.4-1.6,1.7-2.5h-.9c-3.6,0-5.4-1.1-5.4-3.6,0-1.2.4-2.1.9-2.8.7-1,1.6-1.7,2.7-1.7,1.6,0,3.3,2.3,3.8,5.9h1.5v.1Zm-4-2.6c-.6-.6-1.2-1-1.9-1-1,0-2,.8-2,1.5,0,.9.8,1.4,1.9,1.7,1,.3,2,.3,3.2.3-.2-.9-.6-1.8-1.2-2.5Z"/><path id="PATH_140" d="m281.65,700.32c1.5,0,2.8-.1,3.8-.4,1.1-.3,2.1-1,2.1-1.5v-.4c-.6.1-1.4.1-2,.1-2,0-3.6-.5-4.2-1.9-.2-.4-.3-.8-.3-1.3,0-1.3.5-2.6,1.3-3.5.7-.7,1.5-1.2,2.3-1.2,1.4,0,2.6,1.4,3.4,3.5.4,1.2.7,2.5.7,4.2,0,1.1-.3,2.1-.9,2.8-1.1,1.3-3.1,1.7-6.3,1.7h-1.4c-1,0-1.2-.7-1.2-1.2,0-.4.3-1.1,1.2-1.1h1.5v.2Zm2.6-7.6c-1.2,0-2.1.9-2.1,1.6,0,1.4,2.3,1.9,5.1,1.8-.3-1.7-1.5-3.4-3-3.4Zm-.3-7.9c.7.5,1.4,1.2,2.1,1.9-.4.6-.9,1.2-1.5,1.7-.7-.7-1.4-1.2-2.1-1.8.5-.7,1-1.3,1.5-1.8Z"/></g><g id="G_141"><path id="PATH_142" d="m581.75,799.02c.1,4.6.3,8.6.3,13,0,.9.4,1.9.9,2.4.4.3,1,.5,1.8.5h.2v2.4h-.4c-1.3,0-2.3-.4-2.9-1.4h-.1c-.1.9-.3,1.9-.6,2.8-.6.9-1.3,1.6-2.1,2.1-1.2.8-2.5,1.2-3.9,1.2-1.6,0-3-.6-3.9-1.6s-1.3-2.4-1.3-4.2c0-1.6.5-3.1,1.2-4.7l.7.3c-.5,1.1-.8,2.2-.8,3.2,0,1.1.3,2,.9,2.9.8,1,1.9,1.5,3.2,1.5,1.2,0,2.3-.4,3.2-.9.9-.5,1.7-1.1,2-1.8,0-.2.1-.4.1-1.2,0-2.9-.1-7.7-.6-14.9.6-.6,1.1-1.2,1.7-1.6h.4Z"/><path id="PATH_143" d="m599.25,817.32h-.4c-2.3,0-3.5-1.3-4.8-3-.6-.8-1.2-1.6-1.6-2.1h-.1c0,2.9-1.7,5.1-6.9,5.1h-.5c-1,0-1.3-.7-1.3-1.2,0-.4.3-1.1,1.3-1.1h.7c1.5,0,3.3-.3,4.5-1.1.4-.2.9-.6.9-.9,0-.4-.2-.8-.4-1.3-.8-1.7-2.6-3.7-4.6-5.6-.5-.5-.9-.9-1.2-1.3-.1-.3-.1-.7-.1-1,0-.5.2-1,.5-1.6.1-.3.4-.5.7-.7,1.9-1.2,6.3-2.7,11.4-4.3l.1.1c-.4.8-.9,1.5-1.4,2.3-1.1.3-2.7.8-4.2,1.4-2.2.8-4.3,1.7-5.6,2.4v.1c1,.6,2.1,1.1,2.9,1.4l-.6.9c2,1.8,4.3,4.4,6.8,7.3,1,1.2,2.1,1.9,3.6,1.9h.3v2.3h0Z"/><path id="PATH_144" d="m599.55,815.02c.9,0,2.2-.1,3.3-.5-.3-.8-.4-1.7-.4-2.5,0-1.1.4-2.2,1.2-3.4.5-.7,1.1-1.3,1.8-1.7.1-.6.2-1.2.3-1.9h.1c1.8,1.7,4.4,3.3,6.5,5,1.6,1.2,2.3,2.3,2.3,4,0,1.8-1.2,3.5-3.7,3.5-1.5,0-3.9-.5-6.3-1.3-2.1.9-3.7,1.3-5.1,1.3h-.4c-1,0-1.3-.7-1.3-1.2,0-.4.3-1.1,1.3-1.1h.4v-.2Zm8.8-3.2c0-1.6-1.1-3-1.9-3-1.4,0-3.1,2-3.1,2.9,0,.6.7,1.5,2,2.2,1-.3,3-1.1,3-2.1Zm3.3,3.5c1,0,2-.4,2-.8,0-1.2-1.7-2.5-4-4-.1,1.5-.6,2.9-1.4,4.3.9.3,2,.5,3.4.5Z"/><path id="PATH_145" d="m622.75,817.32h-.2c-1.5,0-2.4-.3-3.2-1.1-1.1-1.2-1.2-2.5-1.2-5.2,0-3.5-.2-7.2-.5-11.2.6-.7,1.2-1.3,1.7-1.7l.1.1c.3,4.1.3,8.9.3,13.4v1.1c0,1.2.7,1.7,1.4,2,.5.2.9.2,1.2.2h.3v2.4h.1Z"/><path id="PATH_146" d="m623.15,815.02c1.4,0,2.9-.6,3.2-1.6l.5-2,1.3-.9.1.1c-.3.9-.4,1.7-.4,2.2,0,.6.2,1.2.6,1.5.6.5,1.3.7,2.3.7h.3v2.4h-.4c-1.8,0-3.2-.5-3.8-1.9h-.1c-.6,1.2-2.1,1.9-3.7,1.9h-.4c-1,0-1.3-.7-1.3-1.2,0-.4.3-1.1,1.3-1.1h.5v-.1Zm2.1,9.7c-.8-.7-1.4-1.3-2.2-1.9.5-.7,1-1.3,1.5-1.8.8.6,1.4,1.2,2.1,2-.5.8-.8,1.3-1.4,1.7Zm3.6-.2c-.8-.7-1.4-1.3-2.2-1.9.5-.7,1-1.3,1.5-1.8.8.6,1.4,1.2,2.1,2-.5.7-.9,1.2-1.4,1.7Z"/><path id="PATH_147" d="m646.15,809.42c.2,1.4.3,2.5.3,3.3s-.3,1.9-.7,2.5c-.7,1.2-1.7,2-2.7,2-.8,0-1.7-.6-2.3-1.5h-.1c-.8.9-1.9,1.6-3.2,1.6-1,0-1.7-.5-1.8-1.6h-.1c-1.1,1.3-2.7,1.6-4,1.6h-.3c-1,0-1.3-.7-1.3-1.2,0-.4.3-1.1,1.3-1.1h.6c1.7,0,3-.4,3.9-1.7l1-1.5,1.4-.5.1.1c-.7,1.2-1.3,2.1-1.3,2.7s.4.9,1,.9c.5,0,1.2-.2,1.7-.5.6-.5.7-1,1.3-3l1.1-.6.1.1c-.1.6-.2,1.3-.2,1.8,0,1.4,1,2.1,1.9,2.1.5,0,1-.3,1-.8,0-.7-.2-1.9-.5-3,.5-.6,1.1-1.2,1.7-1.7h.1Z"/></g><polygon id="_271" class="cls-7" points="564.55 661.82 530.25 677.52 496.65 711.12 476.85 738.52 475.05 761.52 476.85 771.82 488.35 778.32 506.45 784.52 519.85 769.62 535.85 746.22 550.35 735.02 564.55 709.22 576.15 692.02 577.25 684.22 569.75 666.72 564.55 661.82"/><g id="G_149"><path id="PATH_150" d="m509.15,719.52c.9,2.2,1.8,3.5,3.6,3.5h.3v2.1h-.3c-.7,0-1.2-.1-1.6-.5h-.1v.6c0,.8-.2,1.7-.6,2.5-1.3,2.2-2.7,3.2-3.9,3.2s-2.7-.5-4-1.3l.2-.5c.4.2,1,.4,1.9.4,2.2,0,5-2.4,5.3-4.8-.1-.2-.2-.5-.4-.7-.6-.9-1-1.6-1.4-2.4.3-.7.6-1.3.9-1.9l.1-.2Z"/><path id="PATH_151" d="m525.45,725.12h-.3c-2,0-3-1.1-4.2-2.6-.5-.7-1-1.4-1.4-1.8h-.1c0,2.5-1.4,4.4-6,4.4h-.4c-.9,0-1.1-.6-1.1-1.1,0-.4.3-1,1.1-1h.6c1.3,0,2.9-.2,3.9-.9.3-.2.8-.6.8-.8,0-.3-.1-.7-.3-1.1-.7-1.5-2.1-2.6-3.8-4.4-.4-.5-.9-.8-1.1-1.1,0-.3-.1-.4-.1-.7,0-.5.2-.9.4-1.4.1-.2.4-.4.6-.5,1.7-1.1,5.4-2.4,9.8-3.7v.1c-.3.7-.7,1.3-1.1,1.9-1,.2-2.3.7-3.7,1.2-1.9.7-3.8,1.5-4.9,2.1h0c.9.5,1.9.8,2.6,1.1l-.5.9c1.7,1.5,3.6,3.2,5.8,5.8.9,1.1,1.8,1.6,3.1,1.6h.3v2h0Zm-11.6-14.3c.1-.3.2-.7.4-1,2.2-1.1,5.3-2.2,8.8-3.2h0l-.6,1c-3.7,1.1-6.4,2.1-8.6,3.2h0Z"/><path id="PATH_152" d="m525.85,723.02c1.2,0,2.5-.5,2.8-1.4l.5-1.7,1.1-.8.1.1c-.2.8-.4,1.5-.4,1.9,0,.6.1,1,.5,1.3.5.4,1.1.6,2,.6h.3v2.1h-.4c-1.6,0-2.8-.4-3.3-1.6h-.1c-.5,1.1-1.8,1.6-3.2,1.6h-.3c-.9,0-1.1-.6-1.1-1.1,0-.4.3-1,1.1-1h.4Zm2.8-9.7c.7.5,1.3,1.1,1.9,1.7-.4.6-.8,1.1-1.3,1.6-.6-.6-1.3-1.1-1.9-1.7.4-.5.8-1.1,1.3-1.6Z"/><path id="PATH_153" d="m545.75,718.22c.2,1.2.3,2.2.3,2.9s-.3,1.6-.6,2.2c-.6,1-1.5,1.8-2.4,1.8-.7,0-1.4-.5-2-1.3h-.1c-.7.8-1.6,1.4-2.8,1.4-.9,0-1.5-.4-1.5-1.4h-.1c-1,1.1-2.3,1.4-3.4,1.4h-.3c-.9,0-1.1-.6-1.1-1.1,0-.4.3-1,1.1-1h.5c1.5,0,2.6-.4,3.4-1.5l.9-1.3,1.2-.4.1.1c-.6,1-1.1,1.8-1.1,2.3s.3.8.8.8,1-.2,1.4-.5c.6-.4.6-.9,1.1-2.6l1-.6.1.1c-.1.5-.2,1.1-.2,1.6,0,1.2.9,1.9,1.7,1.9.5,0,.9-.2.9-.7,0-.6-.2-1.7-.4-2.6.4-.6.9-1.1,1.5-1.5h0Z"/></g><path id="_618" class="cls-6" d="m689.95,566.72l-17.5,27.1-30.1,13.8-8.6,1.1-.4-10.9-4.1-5.8c1.27-8.43,2.53-16.87,3.8-25.3,0,0-8.8-16.5-11.5-16.6-2.7,0-11-10.2-11-10.2l12.8-3,17.9,1.6,23.9,15.6,16.7,9.5,8.1,3.1Z"/><g id="G_155"><path id="PATH_156" d="m638.15,571.52c.6,1.5,1.2,2.4,2.5,2.4h.2v1.4h-.2c-.5,0-.9-.1-1.1-.4h0v.4c0,.5-.1,1.2-.4,1.7-.9,1.6-1.9,2.2-2.7,2.2s-1.9-.4-2.8-.9l.2-.4c.3.1.7.2,1.3.2,1.5,0,3.5-1.7,3.7-3.4-.1-.1-.2-.3-.3-.5-.4-.6-.7-1.1-1-1.7.1-.2.3-.6.6-1h0Z"/><path id="PATH_157" d="m642.15,573.92c.2-.8.4-1.6.6-2.4.3-1.1.7-2,1.3-2.9h.1c.1.2.3.4.4.7.8,1.2,1.5,2.2,1.5,3.2,0,.5-.1,1-.2,1.5h2.2v1.4h-.3c-.2,0-.7,0-.9-.1h-.1c.3.5.5,1.1.5,1.5,0,.5-.1,1-.4,1.3-.3.6-1,1.1-1.7,1.1-.5,0-1.1-.1-1.6-.4-.9-.6-1.5-1.8-1.5-2.9v-.6c-.3,0-.6.1-.9.1h-.2c-.6,0-.8-.4-.8-.8,0-.3.2-.7.8-.7h1.2Zm1.2,3c.6.7,1.4,1.1,2.1,1.1.4,0,.7-.2.7-.6s-.1-.8-.4-1.3-.9-.9-1.8-.9c-.4,0-.8,0-1.3.1,0,.6.3,1.2.7,1.6Zm1.1-3.1c.5-.1.7-.4.7-.6,0-.7-.7-1.7-1.4-2.7h-.1c-.4,1.1-.7,2.3-1.1,3.4.8,0,1.4,0,1.9-.1Z"/><path id="PATH_158" d="m659.45,575.42h-.3c-1.4,0-2-.4-2.3-1.1h-.1c-.6.7-1.3,1.1-1.9,1.1-.5,0-1-.1-1.2-.9h0c-.5.6-1.1.9-1.9.9-.6,0-1-.3-1.1-1h0c-.7.8-1.6,1-2.4,1h-.2c-.6,0-.8-.4-.8-.8,0-.3.2-.7.8-.7h.4c1,0,1.8-.3,2.4-1l.6-.9.9-.3v.1c-.4.7-.7,1.3-.7,1.6s.3.6.6.6.7-.1,1-.3.6-.6.7-1l.3-.7.9-.4h0c-.3.9-.5,1.3-.5,1.7,0,.3.2.7.6.7s.6-.1.8-.2c.3-.2.5-.6.7-1.1,0-.2.1-.4.2-.9l.9-.6h0c-.1.5-.3,1.1-.3,1.5,0,.9.8,1.2,1.8,1.2h.2v1.5h-.1Zm-6-5.5c-.5-.4-.9-.8-1.3-1.2.3-.4.6-.8.9-1.1.5.4.8.7,1.3,1.2-.3.5-.6.8-.9,1.1Zm.6-2.4c-.5-.4-.9-.8-1.3-1.2.3-.4.6-.8.9-1.1.5.4.8.7,1.3,1.2-.3.5-.5.8-.9,1.1Zm1.6,2.3c-.5-.4-.9-.8-1.3-1.2.3-.4.6-.8.9-1.1.5.4.8.7,1.3,1.2-.4.5-.6.8-.9,1.1Z"/><path id="PATH_159" d="m659.65,573.92c1,0,1.7,0,2.2-.2.4-.1.6-.3.6-.5,0-.5-.5-1.6-1.1-2.8.3-.5.5-.9.8-1.3h.1c.5.9,1.1,2.3,1.1,3.4,0,.8-.3,1.5-.8,2.1-.5.5-1.3.7-3,.7h-.1c-.6,0-.8-.4-.8-.8,0-.3.2-.7.8-.7h.2v.1Zm1.6-8.3c.5.3.9.7,1.3,1.2-.2.4-.5.8-.9,1.1-.4-.4-.9-.8-1.3-1.2.3-.4.6-.8.9-1.1Z"/><path id="PATH_160" d="m668.35,575.42h-.1c-.9,0-1.5-.2-1.9-.6-.7-.7-.7-1.5-.7-3.1,0-2.1-.1-4.4-.3-6.7.4-.4.7-.8,1.1-1h.1c.2,2.5.2,5.4.2,8.1v.6c0,.7.4,1,.8,1.2.3.1.6.1.7.1h.2v1.4h-.1Z"/><path id="PATH_161" d="m668.55,573.92c.9,0,1.8-.3,1.9-1l.3-1.2.8-.6.1.1c-.2.6-.2,1.1-.2,1.3,0,.4.1.7.4.9.4.3.8.4,1.4.4h.2v1.4h-.3c-1.1,0-1.9-.3-2.3-1.1h0c-.4.8-1.3,1.1-2.2,1.1h-.2c-.6,0-.8-.4-.8-.8,0-.3.2-.7.8-.7h.1v.2Zm1.3,6c-.5-.4-.9-.8-1.3-1.2.3-.4.6-.8.9-1.1.5.4.8.7,1.3,1.2-.4.5-.6.8-.9,1.1Zm2.2-.2c-.5-.4-.9-.8-1.3-1.2.3-.4.6-.8.9-1.1.5.4.8.7,1.3,1.2-.4.5-.6.8-.9,1.1Z"/><path id="PATH_162" d="m680.35,563.32c-.2.5-.5.9-.8,1.4-.6.1-1.2.3-1.8.6-1.2.4-2.4.9-3.7,1.5h0l1.8.7-.3.6c1.7,1.4,2.9,2.8,2.9,4,0,1-.3,1.9-.7,2.3-.7.6-1.8,1-3.9,1h-.4c-.6,0-.8-.4-.8-.8,0-.3.2-.7.8-.7h.7c1.2,0,2.2-.1,3-.6.4-.2.6-.5.6-.6,0-.5-.3-1.1-.8-1.7-.5-.7-1.5-1.8-3.4-3.2-.3-.2-.4-.7-.4-1,0-.2.1-.5.3-.7.1-.2.3-.4.8-.7,1.3-.6,3.5-1.3,6.1-2.1h0Z"/></g><path id="_704" class="cls-8" d="m835.05,732.92l-8.2,38.2-12.4,11.6,28.6,16.8,21.5-13.3,14.7-6.2,5.1-2s-7.4-17.2-10.6-16.4c-3.1.8-17.9-17.1-17.9-17.1l-20.8-11.6Z"/><g id="G_164"><path id="PATH_165" d="m840.95,767.92c-.2-.8-.5-1.2-.7-1.2-.4,0-1,.3-1.6.7-.5.4-1,.9-1,1.3,0,.9,2.5.8,3.2,1.3.3.2.4.5.4,1.1,0,.5-.4,1.4-.8,1.8-1,.9-2.5,1.6-3.8,1.6-2.3,0-3.4-1.5-3.4-3.6,0-.9.2-1.7.5-2.4l.4.1c-.2.7-.3,1.2-.3,1.7,0,1.8,1.3,2.8,2.9,2.8.6,0,1.7-.2,2.6-.8.6-.4,1.2-.8,1.2-1,0-.3-.7-.5-1.5-.6-.9-.1-1.5-.3-1.8-.6-.2-.2-.4-.5-.4-.9,0-1,.4-1.8,1.1-2.5s1.7-1.4,2.4-1.4c.3,0,.5.2.7.5s.2.7.2.9-.2.7-.4,1.1l.1.1Z"/><path id="PATH_166" d="m845.85,771.62h-.1c-.8,0-1.3-.2-1.7-.6-.6-.6-.6-1.3-.6-2.7,0-1.9-.1-3.8-.3-5.9.3-.4.6-.7.9-.9h.1c.2,2.1.2,4.7.2,7.1v.6c0,.6.4.9.7,1,.2.1.5.1.6.1h.1v1.3h.1Z"/><path id="PATH_167" d="m846.45,770.42c1.6,0,3.2-.6,5.2-1.8h0c-1.1-.4-2.2-.7-3.1-.7-.6,0-1,.2-1.2.5l.1.5-.3.9h-.1l-.5-1.3c.1-1.1.9-1.8,2.1-1.8.7,0,1.7.2,3.2.8.5.2,1.1.3,1.7.3h.8l-.5,1c-.8,0-1.4.2-1.7.4l-1.6,1.1c-1.3.8-2.7,1.3-4.2,1.3h-.5c-.5,0-.7-.4-.7-.7,0-.2.2-.6.7-.6h.6v.1Zm2.6,4.2c-.4-.4-.8-.7-1.1-1,.3-.4.5-.7.8-.9.4.3.7.6,1.1,1-.4.4-.6.6-.8.9Zm1.3,1.9c-.4-.4-.8-.7-1.1-1,.3-.4.5-.7.8-.9.4.3.7.6,1.1,1-.3.4-.5.7-.8.9Zm.6-2c-.4-.4-.8-.7-1.1-1,.3-.4.5-.7.8-.9.4.3.7.6,1.1,1-.4.3-.6.6-.8.9Z"/><path id="PATH_168-2" d="m861.65,761.62c.1,1.9.1,3.8.1,5.7,0,.9,0,1.6.3,2.2.2.5.7.9,1.2.9h.1v1.2h-.2c-.9,0-2-.8-2-2.7h-.1c-.4,1.4-1.2,2.1-2.1,2.5-.7.3-1.2.4-2,.4l-1.1-.1v-.1c1.6-.6,2.8-1.2,3.7-1.8-.2-1-1.1-2.5-2.8-4.8-.5-.7-1-1.3-1-1.6,0-.2.2-.6.3-.9h0c.5.5,1.2,1,1.8,1.4l-.3.6c.5.7,1,1.5,1.6,2.4.4.7.8,1.5.8,2.1v.6h0c.3-.3.5-.6.7-.8.4-.6.4-1.3.4-3,0-1.1-.1-2.3-.1-3.4.1-.4.3-.6.7-.8h0Z"/><path id="PATH_169-2" d="m869.35,761.12c-.2.4-.5.8-.7,1.2-.5.1-1,.3-1.6.5-1,.4-2.1.8-3.2,1.3h0l1.6.6-.2.5c1.5,1.2,2.5,2.5,2.5,3.5,0,.9-.2,1.6-.6,2-.6.5-1.6.9-3.4.9h-.4c-.5,0-.7-.4-.7-.7,0-.2.2-.6.7-.6h.6c1,0,1.9-.1,2.6-.5.4-.2.5-.4.5-.5,0-.4-.3-1-.7-1.5-.4-.6-1.3-1.5-2.9-2.8-.3-.2-.4-.6-.4-.9,0-.2.1-.4.2-.6.1-.2.3-.4.7-.6,1.2-.5,3.1-1.1,5.4-1.8h0Z"/></g></svg>