



    


<svg version="1.1" id="Layer_1" xmlns="http://www.w3.org/2000/svg" xmlns:xlink="http://www.w3.org/1999/xlink" x="0px" y="0px" viewBox="0 0 548.7 388" style="enable-background:new 0 0 548.7 388;" xml:space="preserve" width="100%" height="100%">
<style type="text/css">
	.st0{fill:#FBD1D1;stroke:#020202;stroke-width:0.2;stroke-miterlimit:10;}
	.st1{fill:#FDFAD6;stroke:#020202;stroke-width:0.2;stroke-miterlimit:10;}
	.st2{fill:#E8D0E5;stroke:#020202;stroke-width:0.2;stroke-miterlimit:10;}
	.st3{fill:#DBECCB;stroke:#020202;stroke-width:0.2;stroke-miterlimit:10;}
	.st4{fill:none;stroke:#040404;stroke-width:0.5;stroke-miterlimit:10;}
</style>

		<path class="st0 area" d="M321.9,234.8c-5.3-5.3-8.9-12.6-17.4-10.5c-1.6,0-1.6,3.7-1.1,5.3c0,4.7-8.9-0.5-6.8,5.3
			c1.6,5.8,10,4.7,12.1,9.5c1.6,4.2,2.6,7.9,5.8,11.6c2.1,2.6-1.1,4.2-1.6,6.3c-0.5,4.7,6.8,2.1,8.9,5.8c1.1,3.2-0.5,6.8,1.6,10
			c1.6,2.1,5.8,2.1,5.3,4.7c-2.1,7.9,2.1,12.6,2.1,19.5c0,1.6-4.8,3.7-3.7,6.8c0.2,0.4,0.4,0.8,0.6,1.1h22.6
			c3.7-2.7,22.3-15.9,26.7-18.9c3.5-2.4,14.9-15.5,19.7-21.3c-0.2-1.9-0.4-5.7-0.4-10.2c-3.5-0.7-6.9-2-10.3-2.9
			c-5.8-1.1-7.9,5.8-12.6,8.4c-3.1,1.6-4.7-1.1-7.4-1.6c-4.7-1.6-10,0-14.7-1.1c2.6-4.7-3.7-6.8-6.8-9.5c-3.2-3.2,0.5-8.4-1.6-11.6
			c-4.1-6.6-18.4-0.9-18.5-6.7C323.5,235.1,322.6,235.2,321.9,234.8z" id="_x38_11" title="آزاد شهر"></path>
		<path class="st1 area" d="M398.7,17.9c-0.1-0.2-0.1-0.3-0.2-0.5l-19.9,4l-12.2,0.6l-4.5,1.6l-13.8,10l-4.2,1.9l-3.9,2.9l-1.9,0.3
			l-8.7,2.9l-4.2,1.9l-1.6,3.5l-2.2,1L310.6,50l-3.5,1l-1.6,1.9l-2.3,3.9l-1.3,1.6l-1.9,1l-2.6,0.3l-2.6,1.3l-1,2.9l-1.3,2.2l-9,9.3
			l-28.3,18l-5.5,5.8l-2.6,3.9l-1,3.5l-0.6,4.2l-3.2,7.1l0.3,4.5l0.6,1.3l2.3,1.9l0.6,1.6l0.3,1.3l-0.3,5.5l-0.6,3.2l-2.6,5.5
			l-0.3,3.5l-1,1.6l-4.8,3.5l-9,5.5l-2.3,2.3l-3.9,1.3l-4.5,4.8l-2.9,1.3h-4.2l-1.4-0.3c-0.1,4.1-3.9,6-6.1,8.7
			c-6.3,8.9,10.5,16.8,17.4,20.5c12.1,5.3,22.6,11.6,20.5,27.4c0,2.1,5.3,5.8,5.3,10.5c-0.5,5.3,10,5.3,7.4,12.1
			c2.6,1.1,5.8,1.6,7.9,4.7c0.5,0.5,2.1,1.6,3.7,1.1c7.4-2.6,11.1-9.5,19.5-10c3.1,0,4.7-5.8,8.9-7.4c0.9,0,2-0.3,2.9-0.5
			c0.2-3.1,7.2,0.5,7.2-3.7c-0.5-1.6-0.5-5.3,1.1-5.3c8.4-2.1,12.1,5.3,17.4,10.5c0.7,0.3,1.6,0.2,2.6,0.1c0-0.2,0-0.4,0.1-0.7
			c0.5-3.2,1-6.8,3.7-9.5c0.5-1.6,3.2,1.6,4.7,0.5c2.1-2.6,4.8-3.7,6.3-6.3c1.6-1.1-0.5-4.2,0-6.3c1-2.1,3.7-2.6,6.3-3.2
			c2.9-0.5-0.4-4.4,1.8-5.9c-0.1-0.1-0.2-0.2-0.2-0.4c-1.9-2.6-0.5-4.8,1.7-6.6c-0.3-0.2-0.5-0.4-0.6-0.8c-1.6-2.6-3.7-6.3-5.8-10
			c-0.5-1.1,0-2.1,0.5-3.2c3.2-5.3,11.6-6.8,11.1-13.2c-0.5-1.6-5.3-1.6-6.3-4.2c-1.6-5.3,2.6-11.1-1-16.3
			c-2.6-3.7-4.8-7.4-4.2-11.6c0.5-4.2,6.8-7.4,6.3-10.5c-1.1-7.9-7.9-15.8-3.7-24.2c3.7-7.9,12.6-15.3,22.1-12.6
			c4.7,1.1,7.9,4.2,13.2,3.2c2.3-0.7,3.2-2.4,4-4.2c-1.2-1.1-1.5-3.7-0.3-5.3c5.8-7.9,5.8-16.8,2.6-25.3c-1-3.2-1.6-7.9,1-8.9
			c7.4-2.6,14.7-5.8,17.4-12.6C407.2,30.6,401.4,24.3,398.7,17.9z" id="_x38_14" title="گنبد کاووس"></path>
		<path class="st2 area" d="M132.9,269.6c3.2,2.6,6.8-3.7,11.6-2.1c7.4,2.1,20,3.2,20-3.7c0-10,3.2-16.8,8.9-24.7
			c1.6-1.6,2.6-4.7,1.1-5.8c-6.8-5.8-16.8-3.2-22.1-12.1c-3.2-5.8,1.1-11.6-1.6-16.3c-0.5-1.1-4.2-1.6-3.7-3.2
			c0.4-6.7-2.5-11.7-6.4-16.2l-0.8,0.5l-3.2,3.2l-3.5,1.3h-3.9l-51.1-4.2l1.6,19l1,3.2l5.8,14.5l4.2,18.6l2.9,8.4l4.5,6.4L94,264
			l-0.6,3.2l3.6,1.3l0.5,0.3c1.2-0.1,2.5-0.3,3.8-0.8C111.3,264.8,123.4,262.2,132.9,269.6z" id="_x35_09" title="گمیشان"></path>
		<path class="st1 area" d="M101.3,331.7c2.1-4.7,7.9-7.9,6.3-13.7c-0.5-0.5-0.5-2.1-2.1-1.6c0.5-3.7,0-8.4,0.5-11.6
			c0.7-4.6-3.5-4-7.8-3.4l-1,0.8l-23.8,6.1l-3.2-1l-1.5-0.8c0.2,0.4,0.4,0.8,0.4,1.2c0,0.1,0,12.6,1.5,18.7c1.1,4.4,7.6,8.5,10,9.7
			c0,0,11.5,4.8,21.1,8.4c0.5-0.5,0.9-1.1,1.1-1.8C103.9,339,99.7,335.4,101.3,331.7z" id="_x38_05" title="بندرگز"></path>
		<path class="st3 area" d="M161.8,278.5c5.3,3.2,12.6,3.2,17.9,0c3.2-2.1,6.3,2.1,9.5,1.1c1.1-1.1,1.1-3.7,3.1-3.2
			c6.3,1.1,12.1-0.5,14.2-7.4c0-0.5,1.6-1.1,2.6-0.5c5.3,2.1,8.9,10.5,13.7,6.3c6.3-5.8,0.5-15.8,8.4-20c4.2-2.1,8.9-1.1,13.7-1.6
			c-1.1-5.3,3.7-4.7,7.4-6.3c0.8-0.2,1.4-0.7,1.8-1.3c-0.3-0.1-0.5-0.2-0.7-0.3c2.6-6.8-7.9-6.8-7.4-12.1c0-4.7-5.3-8.4-5.3-10.5
			c2.1-15.8-8.4-22.1-20.5-27.4c-6.8-3.7-23.7-11.6-17.4-20.5c2.2-2.7,6-4.6,6.1-8.7l-9.9-2l-4.5,0.6l-31.8,17.4l-6.8,1.9h-4.2
			l-4.2-0.6l-4.2,0.3l-2.8,1.8c3.9,4.4,6.8,9.5,6.4,16.2c-0.5,1.6,3.2,2.1,3.7,3.2c2.6,4.7-1.6,10.5,1.6,16.3
			c5.3,8.9,15.3,6.3,22.1,12.1c1.6,1.1,0.5,4.2-1.1,5.8c-5.8,7.9-8.9,14.7-8.9,24.7c0,1.4-0.6,2.5-1.5,3.3
			C165.1,270.6,165.8,274.3,161.8,278.5z" id="_x38_08" title="آق قلا"></path>
		<path class="st0 area" d="M114.5,293.2c5.8-1.6,11-2.1,16.8-6.3c2.6-2.1,7.9,1.1,11.6-0.5c2.1-0.5,4.2-3.2,5.8-3.7
			c5.2-0.5,10-1.8,13.9-5.1c3.1-3.9,2.3-7.2,0.3-10.5c-3.6,3-12.7,2-18.5,0.3c-4.8-1.6-8.4,4.7-11.6,2.1c-9.5-7.4-21.6-4.7-31.6-1.6
			c-1.4,0.5-2.6,0.8-3.9,0.8l2.4,1.3l1,3.5v23.1l-1.3,3.5l-1.3,1.1c2.2-0.3,4.4-0.6,6-0.2C107.5,298.2,110.3,294.4,114.5,293.2z" id="_x37_80" title="ترکمن"></path>
		<path class="st3 area" d="M159.7,366.9c1.6-2.6,2.6-4.7,4.2-7.4c1.1-2.6-2.1-3.7-2.6-5.8c-2.1-4.2,2.1-7.4,3.7-10.5
			c3.2-6.3,2.6-13.7-4.2-16.8c-3.2-1.6-7.4,1.1-9.5-0.5c-4.8-3.2-6.8-9.5-4.8-14.7c1.1-2.6,2.6-5.3,1.6-8.4
			c-1.1,0.5-1.1-1.6-2.1-1.1c2.6-6.8-4.2-10-7.9-13.7c-0.4-0.4-0.5-0.8-0.6-1.4c-2.4-0.4-4.7-0.9-6.2,0.3
			c-5.8,4.2-11.1,4.7-16.8,6.3c-4.1,1.1-6.9,4.9-10.3,8c1.4,0.4,2.2,1.4,1.9,3.6c-0.5,3.2,0,7.9-0.5,11.6c1.6-0.5,1.6,1.1,2.1,1.6
			c1.6,5.8-4.2,8.9-6.3,13.7c-1.6,3.7,2.6,7.4,1.6,11.1c-0.2,0.7-0.6,1.3-1.1,1.8c2.8,1,5.4,2,7.5,2.7c3.2,1.1,5.8,3.6,7.3,7.2
			c2.5,6.1,1.9,14.3,0.3,19.9c8.5-0.3,30.2-0.8,43.6-0.5C159.7,371.5,158.9,369.2,159.7,366.9z" id="_x38_06" title="کردکوی"></path>
		<path class="st1 area" d="M234,308.5c-2.1-6.3,2.1-14.2,0.5-19c-1.8-5.7-7-10.4-10.7-15.7c-0.3,0.3-0.6,0.6-0.9,0.9
			c-4.8,4.2-8.4-4.2-13.7-6.3c-1.1-0.5-2.6,0-2.6,0.5c-2.1,6.8-7.9,8.4-14.2,7.4c-2.1-0.5-2.1,2.1-3.2,3.2c-3.2,1.1-6.3-3.2-9.5-1.1
			c-5.3,3.2-12.6,3.2-17.9,0c0.3-0.3,0.5-0.6,0.8-0.9c-3.9,3.3-8.7,4.6-13.9,5.1c-1.6,0.5-3.7,3.2-5.8,3.7c-1.6,0.7-3.5,0.5-5.3,0.2
			c0.1,0.5,0.2,1,0.6,1.4c3.7,3.7,10.5,6.8,7.9,13.7c1-0.5,1,1.6,2.1,1.1c1.1,3.2-0.5,5.8-1.6,8.4c-2.1,5.3,0,11.6,4.7,14.7
			c2.1,1.6,6.3-1.1,9.5,0.5c6.8,3.2,7.4,10.5,4.2,16.8c-1.6,3.2-5.8,6.3-3.7,10.5c0.5,2.1,3.7,3.2,2.6,5.8c-1.6,2.6-2.6,4.7-4.2,7.4
			c-0.9,2.3,0,4.6,0.7,6.9c4.2,0.1,7.5,0.3,9.5,0.6c8.5,1.4,33.5-6,43-13.9c2.8-2.4,5.1-4.9,7.1-7.1c2.4-2.7,4.7-5.2,7.4-6.6
			c-1.8-1.8-2.8-3.7-0.9-5.7c5.8-5.3,1.1-9.5,0.5-14.7c-0.5-2.1,4.2-3.2,5.8-5.3c1.6-1.1-2.6-2.6-1.6-4.7c1-1.6,4.7-0.5,5.3-2.1
			C238.2,312.2,234.5,310.1,234,308.5z" id="_x38_09" title="گرگان"></path>
		<path class="st0 area" d="M305.6,307.5c0-2.6-5.3-1.1-5.3-3.7c0-6.8-6.9-14.2-11.6-11.6c-6.8,3.7-16.3,2.1-17.4-3.2
			c-1.1-4.7-4.2-6.8-5.3-10.5c-1.1-5.3,2.6-8.4,5.8-12.6c0.5-1.1,0.5-2.6,0-3.2c-3.1-3.5-7.5-7.1-8.4-11.5c-1-0.2-1.8-0.8-2.2-1.1
			c-1.9-2.9-4.7-3.6-7.2-4.5c-0.4,0.6-1,1.1-1.8,1.3c-3.7,1.6-8.4,1.1-7.4,6.3c-4.8,0.5-9.5-0.5-13.7,1.6c-7.5,4-2.7,13.2-7.5,19.1
			c3.7,5.3,8.9,10,10.7,15.7c1.6,4.7-2.6,12.6-0.5,19c0.5,1.6,4.2,3.7,2.6,5.8c-0.5,1.6-4.2,0.5-5.3,2.1c-1,2.1,3.2,3.7,1.6,4.7
			c-1.6,2.1-6.3,3.2-5.8,5.3c0.5,5.3,5.3,9.5-0.5,14.7c-1.9,1.9-0.9,3.9,0.9,5.7c2.6-1.4,5.6-1.5,9.2,0.7c2.3,1.4,5.4,1.6,8.9,0.7
			c6.9-1.8,13.9-7.9,18.3-15.9c8.5-15.2,27.4-21.3,42.4-22C305.9,309.4,305.7,308.5,305.6,307.5z" id="_x38_00" title="علی آباد"></path>
		<path class="st2 area" d="M328.7,282.7c0.5-2.6-3.7-2.6-5.3-4.7c-2.1-3.2-0.5-6.8-1.6-10c-2.1-3.7-9.5-1.1-8.9-5.8
			c0.5-2.1,3.7-3.7,1.6-6.3c-3.2-3.7-4.2-7.4-5.8-11.6c-2.1-4.7-10.5-3.7-12.1-9.5c-0.2-0.7-0.3-1.2-0.3-1.6
			c-0.9,0.2-1.9,0.5-2.9,0.5c-4.2,1.6-5.8,7.4-8.9,7.4c-8.4,0.5-12.1,7.4-19.5,10c-0.5,0.2-1,0.2-1.5,0.1c0.9,4.4,5.2,8,8.4,11.5
			c0.5,0.5,0.5,2.1,0,3.2c-3.1,4.2-6.8,7.4-5.8,12.6c1.1,3.7,4.2,5.8,5.3,10.5c1.1,5.3,10.5,6.8,17.4,3.2
			c4.8-2.6,11.6,4.7,11.6,11.6c0,2.6,5.3,1.1,5.3,3.7c0.1,1,0.3,2,0.6,2.8c1.1-0.1,2.1-0.1,3.1-0.1h18.4c-0.2-0.4-0.4-0.7-0.6-1.1
			c-1.1-3.2,3.7-5.3,3.7-6.8C330.8,295.4,326.6,290.6,328.7,282.7z" id="_x38_13" title="رامیان"></path>
		<path class="st3 area" d="M406.4,231.7c5.5-2.3,9.2-5.6,11.2-9.9c-0.5,0.1-1,0-1.5-0.1c-8.4-1.1-13.7,2.6-21.6,3.2
			c-7.4,0-14.7-4.2-21.6-7.4c-7.9-3.2-14.2-4.2-20-11.6c-1-1.5-4.3-0.7-5.6-2.3c-2.2,1.5,1.1,5.5-1.8,5.9c-2.6,0.5-5.3,1.1-6.3,3.2
			c-0.5,2.1,1.6,5.3,0,6.3c-1.6,2.6-4.2,3.7-6.3,6.3c-1.6,1.1-4.2-2.1-4.7-0.5c-2.6,2.6-3.2,6.3-3.7,9.5c-1,6.8,14.2,0.5,18.4,7.4
			c2.1,3.2-1.6,8.4,1.6,11.6c3.1,2.6,9.5,4.7,6.8,9.5c4.7,1.1,10-0.5,14.7,1.1c2.6,0.5,4.2,3.2,7.4,1.6c4.7-2.6,6.8-9.5,12.6-8.4
			c3.4,0.9,6.8,2.2,10.3,2.9C396.5,249.4,398.2,235.2,406.4,231.7z" id="_x38_18" title="مینو دشت"></path>
		<path class="st2 area" d="M465.6,177.4c-1.1-0.5-1.6-1.6-2.6-2.6c-6.9-4.2-14.8,0.5-20.5-4.2c-4.7-3.2-7.9-7.4-12.1-10
			c-1.6-1.1-4.2-1.1-5.8,0.5c-4.2,4.7-7.4,9.5-13.2,12.6c-7.4,4.7-15.8,8.4-25.3,8.9c-3.1,0-3.7,4.2-4.7,7.9
			c-1.1,5.3-8.9,5.3-13.2,3.7c-3.2-1.6-6.3-3.2-9.5-1.1c-2.8,1.4-7.8,4.9-9.9,3.4c-2.2,1.9-3.5,4-1.7,6.6c1,2.1,4.7,1.1,5.8,2.6
			c5.8,7.4,12.1,8.4,20,11.6c6.8,3.2,14.2,7.4,21.6,7.4c7.9-0.5,13.2-4.2,21.6-3.2c0.5,0.2,0.9,0.2,1.5,0.1c1.2-2.6,1.8-5.5,1.8-8.8
			c0-10,12.2-17.2,17.4-19.8c6.5-3.3,17.6-6.5,18.1-6.6l0.7-0.1H474c0.1-2.2,0.2-5.5,0.5-9.3C471.7,178.4,468.6,178.7,465.6,177.4z" id="_x38_10" title="گالیکش"></path>
		<path class="st0 area" d="M457.2,163.2c-1.1-4.2,1.1-8.9-0.5-13.2c-2.1-5.3-6.8-8.9-6.3-15.8c0.5-1.1-4.2-1.1-6.3,0
			c-1.6,1.1-4.2,2.6-5.3,1.1c-4.8-4.2-10.5-3.7-15.8-1.6c-5.3,1.6-11.6,1.6-16.8-1.1c-3.2-1.6-9.5-6.8-5.8-9.5
			c6.8-4.7,3.7-10,3.1-15.8c0-0.5,1.6-1.1,2.1-1.6c1.6-0.5,3.7,0.5,5.3,0c3.2-1.6,3.7-5.3,3.2-8.9c-0.5-2.1,2.1-2.1,3.7-3.2
			c-10-4.7-21.6-3.7-32.1-4.2c-0.5,0-0.9-0.2-1.3-0.5c-0.8,1.8-1.7,3.5-4,4.2c-5.3,1.1-8.4-2.1-13.2-3.2
			c-9.5-2.6-18.4,4.7-22.1,12.6c-4.2,8.4,2.6,16.3,3.7,24.2c0.5,3.2-5.8,6.3-6.3,10.5c-0.5,4.2,1.6,7.9,4.2,11.6
			c3.7,5.3-0.5,11.1,1.1,16.3c1.1,2.6,5.8,2.6,6.3,4.2c0.5,6.3-7.9,7.9-11,13.2c-0.5,1.1-1.1,2.1-0.5,3.2c2.1,3.7,4.2,7.4,5.8,10
			c1.6,3.2,7.4-1.1,10.5-2.6c3.1-2.1,6.3-0.5,9.5,1.1c4.2,1.6,12.1,1.6,13.2-3.7c1.1-3.7,1.6-7.9,4.7-7.9c9.5-0.5,17.9-4.2,25.3-8.9
			c5.8-3.2,8.9-7.9,13.2-12.6c1.6-1.6,4.2-1.6,5.8-0.5c4.2,2.6,7.4,6.8,12.1,10c5.8,4.7,13.7,0,20.5,4.2c1,1.1,1.6,2.1,2.6,2.6
			c3,1.3,6.1,0.9,8.9-0.3c0.3-3.6,0.7-7.5,1.3-11.5C469,165.3,459.9,171,457.2,163.2z" id="_x38_16" title="کلاله"></path>
		<path class="st3 area active" d="M528.8,21.4l-1.9,1.3l-16.1,2.6l-2.9-0.3l-5.8-2.2l-1-0.6l-7.7-0.6l-27,4.5l-2.9-0.3L461,25l-5.2-2.6l-3.2-1
			H443l-2.6-1l-7.4-3.9L421.5,14h-5.8l-17.1,3.4c0.1,0.2,0.1,0.3,0.2,0.5c2.6,6.3,8.4,12.6,6.3,19c-2.6,6.8-10,10-17.4,12.6
			c-2.6,1.1-2.1,5.8-1.1,8.9c3.2,8.4,3.2,17.4-2.6,25.3c-1.6,2.1-0.5,5.8,1.6,5.8c10.5,0.5,22.1-0.5,32.1,4.2
			c-1.6,1.1-4.2,1.1-3.7,3.2c0.5,3.7,0,7.4-3.2,8.9c-1.6,0.5-3.7-0.5-5.3,0c-0.5,0.5-2.1,1.1-2.1,1.6c0.5,5.8,3.7,11.1-3.1,15.8
			c-3.7,2.6,2.6,7.9,5.8,9.5c5.3,2.6,11.6,2.6,16.8,1.1c5.3-2.1,11-2.6,15.8,1.6c1.1,1.6,3.7,0,5.3-1.1c2.1-1.1,6.8-1.1,6.3,0
			c-0.5,6.8,4.2,10.5,6.3,15.8c1.6,4.2-0.5,8.9,0.5,13.2c2.7,7.8,11.8,2.1,18.6,2.5c1.3-7.6,3.4-15.1,7-18.7
			c7.2-7.2,25.4-30.8,28.3-34.6l3.3-27.6l19.1-16V44.6L528.8,21.4z" id="_x35_04" title="مروش تپه"></path>

	<line class="st4 area" x1="69.6" y1="345.6" x2="87" y2="322.9" id="LINE_17" title=""></line>

<g id="G_18" class="area" title="">
	<path d="M436.8,77.5H436c-0.9,0-1.4-0.5-1.6-1.6c-0.5,0.5-0.7,0.7-0.8,0.7h-0.9c-0.3,0-0.6,0-0.9-0.1c-0.4-0.1-0.6-0.3-0.6-0.5
		c0-0.7,0.3-1.4,0.8-1.8c0.4-0.3,1-0.6,1.8-1l-0.2-1l0.7-0.8c0,0.1,0.3,1.2,0.7,3.3c0.1,0.6,0.3,1.1,0.4,1.3
		c0.2,0.3,0.4,0.4,0.8,0.4h0.7V77.5z M434.3,75.5l-0.3-1.6c-0.3,0.1-0.7,0.3-1.2,0.5c-0.6,0.3-1,0.6-1,0.7c0,0.2,0.2,0.3,0.7,0.4
		c0.3,0.1,0.6,0.1,0.9,0.1C433.8,75.5,434,75.5,434.3,75.5z" id="PATH_19" class="area" title=""></path>
	<path d="M441.7,77.5h-0.8c-0.9,0-1.5-0.3-1.9-0.9c-0.3,0.6-1,0.9-2.1,0.9h-0.6v-1.2h0.9c1,0,1.5-0.4,1.6-1.1c0-0.3,0.1-0.5,0.2-0.5
		s0.2,0.2,0.2,0.5c0.1,0.7,0.6,1.1,1.5,1.1h0.9V77.5z M436.9,79.5l0.7-0.7l0.7,0.7l-0.7,0.7L436.9,79.5z M437.8,81l0.7-0.7l0.7,0.7
		l-0.7,0.7L437.8,81z M438.6,79.5l0.7-0.7l0.7,0.7l-0.7,0.7L438.6,79.5z" id="PATH_20" class="area" title=""></path>
	<path d="M444.1,75.5c0,1.3-0.7,2-2,2h-0.8v-1.2h0.7c1,0,1.5-0.2,1.5-0.5c0-0.3-0.2-0.7-0.7-1.2l0.4-1c0-0.1,0.1-0.1,0.1-0.1
		s0.1,0.1,0.2,0.2C443.9,74.2,444.1,74.9,444.1,75.5z M443.2,71.1l-0.8,0.8l-0.8-0.8l0.8-0.8L443.2,71.1z M444.9,71.1l-0.8,0.8
		l-0.8-0.8l0.8-0.8L444.9,71.1z" id="PATH_21" class="area" title=""></path>
	<path d="M462.7,75.4c0,1.4-0.6,2.1-1.8,2.1c-0.7,0-1.1-0.3-1.3-0.9c-0.3,0.6-0.8,0.9-1.4,0.9c-0.2,0-0.5,0-0.7-0.1
		c0,0.6-0.1,1.2-0.1,1.9c-0.3,0.7-0.8,1.3-1.7,1.7c-0.8,0.3-1.6,0.5-2.5,0.5c-0.9,0-1.6-0.2-2.2-0.6c-0.6-0.5-0.9-1.1-0.9-2
		c0-0.5,0.1-0.9,0.3-1.5c0.2-0.4,0.3-0.7,0.5-0.9c0.1-0.1,0.2-0.1,0.2-0.1c0.1,0,0.1,0,0.1,0.1c0,0,0,0.1,0,0.2
		c-0.3,0.6-0.4,1.2-0.4,1.7c0,0.5,0.2,0.9,0.5,1.3c0.4,0.5,1.1,0.7,2,0.7c1,0,1.9-0.2,2.6-0.5c0.6-0.3,1-0.6,1.1-1
		c0.1-0.1,0.1-0.3,0-0.7c0-0.3-0.1-0.6-0.1-0.7c-0.1-0.3-0.4-0.8-1-1.5l0.4-0.8c0.1-0.1,0.1-0.2,0.1-0.2c0,0,0.1,0,0.1,0.1
		c0.3,0.4,0.5,0.7,0.6,0.8c0.3,0.3,0.6,0.4,1,0.4c0.4,0,0.8-0.1,1-0.4c0.1-0.2,0.2-0.4,0.3-0.9c0-0.2,0.1-0.3,0.2-0.3
		c0.1,0,0.1,0.1,0.1,0.3c0.1,0.5,0.2,0.8,0.4,1c0.2,0.2,0.6,0.3,1.1,0.3c0.2,0,0.4-0.1,0.5-0.2c0.2-0.1,0.3-0.3,0.3-0.5
		c0-0.3-0.2-0.6-0.6-1.1l0.5-0.9c0.1-0.1,0.1-0.1,0.1-0.1c0,0,0.1,0.1,0.1,0.1C462.5,74.3,462.7,74.8,462.7,75.4z M459.3,71.7
		l-0.7,0.7l-0.7-0.7l0.7-0.7L459.3,71.7z M460.2,70.1l-0.7,0.7l-0.7-0.7l0.7-0.7L460.2,70.1z M461.1,71.7l-0.7,0.7l-0.7-0.7l0.7-0.7
		L461.1,71.7z" id="PATH_22" class="area" title=""></path>
	<path d="M467.8,77.1c0,1.5-0.5,2.8-1.5,3.8c-0.3,0.3-0.5,0.5-0.6,0.5c-0.6,0-1.2-0.1-1.9-0.2c-0.3,0-0.4-0.1-0.4-0.1
		c0,0,0.1-0.1,0.4-0.2c0.8-0.2,1.6-0.7,2.3-1.3c0.3-0.3,0.6-0.5,0.8-0.9c0.3-0.4,0.5-0.8,0.5-1.1v-0.3l-1.3,0
		c-0.9,0-1.4-0.4-1.4-1.1c0-0.5,0.1-1,0.4-1.6c0.3-0.6,0.7-1,1.1-1c0.6,0,1.1,0.4,1.4,1.3C467.7,75.6,467.8,76.3,467.8,77.1z
		 M467.1,76.3c0-0.3-0.1-0.6-0.3-0.9c-0.2-0.3-0.5-0.5-0.8-0.5c-0.2,0-0.4,0.1-0.5,0.2s-0.2,0.3-0.2,0.5c0,0.5,0.3,0.7,1,0.7
		C466.4,76.4,466.7,76.3,467.1,76.3z" id="PATH_23" class="area" title=""></path>
	<path d="M474,77.5h-0.4c-0.4,0-0.6-0.1-0.8-0.2c0,0.1,0,0.2,0,0.3c0,0.9-0.3,1.8-0.9,2.7c-0.5,0.8-1,1.1-1.3,1.1
		c-0.8,0-1.4,0-2-0.1c-0.2,0-0.3-0.1-0.3-0.1s0.1-0.1,0.3-0.1c0.8-0.2,1.6-0.6,2.4-1.2c0.8-0.7,1.3-1.4,1.3-2.1c0-0.4-0.3-1-1-1.7
		l0.5-0.9c0-0.1,0.1-0.1,0.1-0.1c0,0,0.1,0.1,0.1,0.1c0.3,0.4,0.5,0.7,0.7,0.8c0.3,0.2,0.7,0.4,1.1,0.4h0.3V77.5z" id="PATH_24" class="area" title=""></path>
	<path d="M479,75.5c0,0.5,0,0.9-0.2,1.3c-0.2,0.5-0.5,0.8-0.8,0.8c-0.5,0-1.3-0.3-2.3-1c-0.3,0.4-0.5,0.6-0.6,0.7
		c-0.3,0.2-0.6,0.3-1,0.3h-0.5v-1.2h0.7c0.4,0,0.8-0.2,1.2-0.7c0.2-0.2,0.5-0.7,0.9-1.3c0.3-0.5,0.7-0.7,1-0.7
		c0.5,0,0.9,0.2,1.2,0.7C478.8,74.8,479,75.1,479,75.5z M478.4,76.2c0-0.3-0.1-0.6-0.3-1c-0.2-0.4-0.5-0.6-0.8-0.6
		c-0.3,0-0.6,0.3-1,0.9c0.2,0.2,0.5,0.4,0.9,0.6c0.4,0.2,0.8,0.3,1,0.3C478.3,76.5,478.4,76.4,478.4,76.2z" id="PATH_25" class="area" title=""></path>
</g>
<g id="G_26" class="area" title="">
	<path d="M383.5,152h-0.7c-0.9,0-1.4-0.5-1.6-1.6c-0.5,0.5-0.7,0.7-0.8,0.7h-0.9c-0.3,0-0.6,0-0.9-0.1c-0.4-0.1-0.6-0.3-0.6-0.5
		c0-0.7,0.3-1.4,0.8-1.8c0.4-0.3,1-0.6,1.8-1l-0.2-1l0.7-0.8c0,0.1,0.3,1.2,0.7,3.3c0.1,0.6,0.3,1.1,0.4,1.3
		c0.2,0.3,0.4,0.4,0.8,0.4h0.7V152z M381,150l-0.3-1.6c-0.3,0.1-0.7,0.3-1.2,0.5c-0.6,0.3-1,0.6-1,0.7c0,0.2,0.2,0.3,0.7,0.4
		c0.3,0.1,0.6,0.1,0.9,0.1C380.4,150,380.7,150,381,150z" id="PATH_27" class="area" title=""></path>
	<path d="M385.8,144.1c0.1,0.1,0.1,0.2,0.1,0.2c0,0-0.1,0-0.2,0h-0.3c0.1,1.3,0.1,3.2,0.1,5.7c0,0.6-0.1,1.1-0.4,1.4
		c-0.3,0.4-0.8,0.6-1.3,0.6h-0.6v-1.2h0.5c0.8,0,1.2-0.3,1.1-0.9c-0.1-2.1-0.2-4.3-0.3-6.5l0.7-0.6c0.1-0.1,0.2-0.2,0.2-0.2
		c0,0,0,0.1,0.1,0.2C385.4,143.1,385.6,143.5,385.8,144.1z" id="PATH_28" class="area" title=""></path>
	<path d="M395.2,152h-0.6c-1.2,0-1.9-0.9-1.9-2.7c0-0.2,0-0.5,0-0.9c-0.8,1.9-1.7,3.3-2.9,4.1c-0.7,0.2-1.6,0.3-2.6,0.3
		c-0.2,0-0.3,0-0.3,0c0,0,0.3-0.2,0.9-0.5c0.4-0.2,0.8-0.4,1.2-0.6c0.7-0.3,1.4-0.8,2-1.5c-0.3-1-0.7-1.9-1.3-2.7
		c-0.4-0.5-1-1.1-1.9-1.8l-0.1,0.4c-0.3-0.2-0.5-0.4-0.7-0.6c-0.3-0.3-0.5-0.5-0.5-0.7c0-0.2,0-0.5,0.1-1c0-0.1,0-0.2,0.1-0.2
		s0.1,0,0.2,0.1c1.3,0.9,2.3,1.8,2.9,2.6c0.8,1,1.3,2.1,1.6,3.4c0.4-0.5,0.7-1,0.9-1.6c0.3-0.7,0.4-1.3,0.4-1.8c0-0.9-0.1-1.9-0.2-3
		l0.8-0.7c0.1,0.5,0.1,2.8,0.2,6.9c0,0.9,0.4,1.4,1.2,1.4h0.5V152z" id="PATH_29" class="area" title=""></path>
	<path d="M401.4,142.7c0,0.2-0.2,0.6-0.4,1.1l-2.5,0.8c-1.1,0.4-1.9,0.7-2.3,0.9c0.8,0.8,1.3,1.4,1.6,1.7c0.5,0.7,0.8,1.3,0.9,2
		c0,0.5,0,1-0.2,1.4c-0.3,0.9-1.4,1.3-3.1,1.3h-0.5v-1.2h0.6c0.8,0,1.4,0,1.7-0.1c0.7-0.2,1.1-0.5,1.1-1c0-0.7-0.5-1.5-1.6-2.5
		l-0.1,0.2c-0.1-0.1-0.3-0.3-0.5-0.6c-0.3-0.3-0.4-0.6-0.4-0.6c0-0.2,0-0.4,0.1-0.8c0.1-0.4,0.2-0.6,0.3-0.7
		c0.1-0.1,0.8-0.4,2.1-0.8C399.3,143.4,400.5,143,401.4,142.7z" id="PATH_30" class="area" title=""></path>
</g>
<g id="G_31" class="area" title="">
	<path d="M275.2,140.9c0,1.4-0.6,2.1-1.8,2.1c-0.7,0-1.1-0.3-1.3-0.9c-0.3,0.6-0.8,0.9-1.4,0.9c-0.2,0-0.5,0-0.7-0.1
		c0,0.6-0.1,1.2-0.1,1.9c-0.3,0.7-0.8,1.3-1.7,1.7c-0.8,0.3-1.6,0.5-2.5,0.5c-0.9,0-1.6-0.2-2.2-0.6c-0.6-0.5-0.9-1.1-0.9-2
		c0-0.5,0.1-0.9,0.3-1.5c0.2-0.4,0.3-0.7,0.5-0.9c0.1-0.1,0.2-0.1,0.2-0.1c0.1,0,0.1,0,0.1,0.1c0,0,0,0.1,0,0.2
		c-0.3,0.6-0.4,1.2-0.4,1.7c0,0.5,0.2,0.9,0.5,1.3c0.4,0.5,1.1,0.7,2,0.7c1,0,1.9-0.2,2.6-0.5c0.6-0.3,1-0.6,1.1-1
		c0.1-0.1,0.1-0.3,0-0.7c0-0.3-0.1-0.6-0.1-0.7c-0.1-0.3-0.4-0.8-1-1.5l0.4-0.8c0.1-0.1,0.1-0.2,0.1-0.2c0,0,0.1,0,0.1,0.1
		c0.3,0.4,0.5,0.7,0.6,0.8c0.3,0.3,0.6,0.4,1,0.4c0.4,0,0.8-0.1,1-0.4c0.1-0.2,0.2-0.4,0.3-0.9c0-0.2,0.1-0.3,0.2-0.3
		c0.1,0,0.1,0.1,0.1,0.3c0.1,0.5,0.2,0.8,0.4,1c0.2,0.2,0.6,0.3,1.1,0.3c0.2,0,0.4-0.1,0.5-0.2c0.2-0.1,0.3-0.3,0.3-0.5
		c0-0.3-0.2-0.6-0.6-1.1l0.5-0.9c0.1-0.1,0.1-0.1,0.1-0.1c0,0,0.1,0.1,0.1,0.1C275,139.8,275.2,140.3,275.2,140.9z" id="PATH_32" class="area" title=""></path>
	<path d="M280.3,142.6c0,1.5-0.5,2.8-1.5,3.8c-0.3,0.3-0.5,0.5-0.6,0.5c-0.6,0-1.2-0.1-1.9-0.2c-0.3,0-0.4-0.1-0.4-0.1
		c0,0,0.1-0.1,0.4-0.2c0.8-0.2,1.6-0.7,2.3-1.3c0.3-0.3,0.6-0.5,0.8-0.9c0.3-0.4,0.5-0.8,0.5-1.1v-0.3l-1.3,0
		c-0.9,0-1.4-0.4-1.4-1.1c0-0.5,0.1-1,0.4-1.6c0.3-0.6,0.7-1,1.1-1c0.6,0,1.1,0.4,1.4,1.3C280.2,141.2,280.3,141.8,280.3,142.6z
		 M279.6,141.8c0-0.3-0.1-0.6-0.3-0.9c-0.2-0.3-0.5-0.5-0.8-0.5c-0.2,0-0.4,0.1-0.5,0.2c-0.2,0.2-0.2,0.3-0.2,0.5
		c0,0.5,0.3,0.7,1,0.7C278.9,141.9,279.2,141.8,279.6,141.8z" id="PATH_33" class="area" title=""></path>
	<path d="M285.5,142.6c0,1.5-0.5,2.8-1.5,3.8c-0.3,0.3-0.5,0.5-0.6,0.5c-0.6,0-1.2-0.1-1.9-0.2c-0.3,0-0.4-0.1-0.4-0.1
		c0,0,0.1-0.1,0.4-0.2c0.8-0.2,1.6-0.7,2.3-1.3c0.3-0.3,0.6-0.5,0.8-0.9c0.3-0.4,0.5-0.8,0.5-1.1v-0.3l-1.3,0
		c-0.9,0-1.4-0.4-1.4-1.1c0-0.5,0.1-1,0.4-1.6c0.3-0.6,0.7-1,1.1-1c0.6,0,1.1,0.4,1.4,1.3C285.3,141.2,285.5,141.8,285.5,142.6z
		 M284.7,141.8c0-0.3-0.1-0.6-0.3-0.9c-0.2-0.3-0.5-0.5-0.8-0.5c-0.2,0-0.4,0.1-0.5,0.2c-0.2,0.2-0.2,0.3-0.2,0.5
		c0,0.5,0.3,0.7,1,0.7C284,141.9,284.4,141.8,284.7,141.8z" id="PATH_34" class="area" title=""></path>
	<path d="M289.4,143h-0.7c-0.7,0-1.3-0.3-1.5-0.9c-0.2-0.4-0.3-1.1-0.3-1.9v-1.9c0-0.9-0.1-2.2-0.2-3.9l0.6-0.7
		c0.1-0.1,0.2-0.1,0.2,0c0.1,0.9,0.2,2.2,0.2,3.9v2.9c0,0.8,0.4,1.2,1.2,1.2h0.5V143z" id="PATH_35" class="area" title=""></path>
	<path d="M295.6,133.7c0,0.2-0.2,0.6-0.4,1.1l-2.5,0.8c-1.1,0.4-1.9,0.7-2.3,0.9c0.8,0.8,1.3,1.4,1.6,1.7c0.5,0.7,0.8,1.3,0.9,2
		c0,0.5,0,1-0.2,1.4c-0.3,0.9-1.4,1.3-3.1,1.3H289v-1.2h0.6c0.8,0,1.4,0,1.7-0.1c0.7-0.2,1.1-0.5,1.1-1c0-0.7-0.5-1.5-1.6-2.5
		l-0.1,0.2c-0.1-0.1-0.3-0.3-0.5-0.6c-0.3-0.3-0.4-0.6-0.4-0.6c0-0.2,0-0.4,0.1-0.8c0.1-0.4,0.2-0.6,0.3-0.7
		c0.1-0.1,0.8-0.4,2.1-0.8C293.5,134.4,294.7,134,295.6,133.7z" id="PATH_36" class="area" title=""></path>
	<path d="M306.9,143h-0.4c-0.4,0-0.7-0.1-1-0.4c-0.2-0.2-0.4-0.4-0.6-0.8c-0.2,0.4-0.5,0.7-0.8,0.9c-0.4,0.2-0.9,0.3-1.7,0.3
		c-1.4,0-2.1-0.5-2.1-1.5c0-0.3,0.1-0.7,0.3-1c0.1-0.1,0.1-0.2,0.2-0.2c0.1,0,0.1,0.1,0.1,0.2c0,0.1,0,0.1,0,0.3c0,0.1,0,0.2,0,0.3
		c0,0.6,0.5,0.9,1.5,0.9c1.4,0,2.1-0.3,2.1-0.8c0-0.3-0.4-1.4-1.2-3.3l0.4-0.8c0.1-0.1,0.1-0.2,0.1-0.2c0,0,0.1,0.1,0.1,0.2
		c0.3,0.8,0.8,2,1.4,3.6c0.3,0.8,0.7,1.2,1.3,1.2h0.3V143z" id="PATH_37" class="area" title=""></path>
	<path d="M311.8,143H311c-0.9,0-1.5-0.3-1.9-0.9c-0.3,0.6-1,0.9-2.1,0.9h-0.6v-1.2h0.9c1,0,1.5-0.4,1.6-1.1c0-0.3,0.1-0.5,0.2-0.5
		s0.2,0.2,0.2,0.5c0.1,0.7,0.6,1.1,1.5,1.1h0.9V143z M309.6,145.2l-0.8,0.8l-0.8-0.8l0.8-0.8L309.6,145.2z" id="PATH_38" class="area" title=""></path>
	<path d="M316.7,143H316c-0.9,0-1.5-0.3-1.9-0.9c-0.3,0.6-1,0.9-2.1,0.9h-0.6v-1.2h0.9c1,0,1.5-0.4,1.6-1.1c0-0.3,0.1-0.5,0.2-0.5
		s0.2,0.2,0.2,0.5c0.1,0.7,0.6,1.1,1.5,1.1h0.9V143z M314.7,137.8l-0.8,0.8l-0.8-0.8l0.8-0.8L314.7,137.8z" id="PATH_39" class="area" title=""></path>
	<path d="M322.7,134.9c0,0.2-0.1,0.5-0.3,1.1c-1.2,0.3-2.7,0.8-4.4,1.3c1.2,1.2,1.9,2.2,2,2.9c0.1,0.5,0,1-0.2,1.5
		c-0.2,0.5-0.6,0.8-1.1,1c-0.4,0.2-1.1,0.2-2,0.2h-0.4v-1.2h0.3c1.9,0,2.9-0.3,2.9-1c0-0.5-0.5-1.3-1.6-2.3l-0.1,0.3
		c-0.1-0.1-0.3-0.3-0.5-0.6c-0.3-0.3-0.4-0.5-0.4-0.6c0-0.3,0.1-0.6,0.4-0.9c0.1-0.1,0.7-0.3,2-0.7
		C320.6,135.5,321.8,135.2,322.7,134.9z M322.5,133.4l-0.2,0.7l-4.9,1.6l0.2-0.7L322.5,133.4z" id="PATH_40" class="area" title=""></path>
</g>
<g id="G_41" class="area" title="">
	<path d="M393.7,201.5h-0.5c-0.7,0-1.1-0.3-1.4-0.8c-0.2,0.6-0.7,0.9-1.3,0.9c-0.6,0-1-0.3-1.3-0.9c-0.3,0.6-0.8,0.9-1.4,0.9
		c-0.2,0-0.5,0-0.7-0.1c0,0.6-0.1,1.2-0.1,1.9c-0.3,0.7-0.8,1.3-1.7,1.7c-0.8,0.3-1.6,0.5-2.5,0.5c-0.9,0-1.6-0.2-2.2-0.6
		c-0.6-0.5-0.9-1.1-0.9-2c0-0.5,0.1-0.9,0.3-1.5c0.2-0.4,0.3-0.7,0.5-0.9c0.1-0.1,0.2-0.1,0.2-0.1c0.1,0,0.1,0,0.1,0.1
		c0,0,0,0.1,0,0.2c-0.3,0.6-0.4,1.2-0.4,1.7c0,0.5,0.2,0.9,0.5,1.3c0.4,0.5,1.1,0.7,2,0.7c1,0,1.9-0.2,2.6-0.5c0.6-0.3,1-0.6,1.1-1
		c0.1-0.1,0.1-0.3,0-0.7c0-0.3-0.1-0.6-0.1-0.7c-0.1-0.3-0.4-0.8-1-1.5l0.4-0.8c0.1-0.1,0.1-0.2,0.1-0.2c0,0,0.1,0,0.1,0.2
		c0.3,0.4,0.5,0.7,0.6,0.8c0.3,0.3,0.6,0.4,1,0.4c0.4,0,0.8-0.1,1-0.4c0.1-0.2,0.2-0.4,0.3-0.9c0-0.2,0.1-0.3,0.2-0.3
		s0.1,0.1,0.2,0.3c0.1,0.8,0.5,1.3,1.1,1.3c0.7,0,1.2-0.4,1.2-1.2c0-0.2,0.1-0.3,0.2-0.3c0.1,0,0.2,0.1,0.2,0.3
		c0.1,0.8,0.5,1.2,1.2,1.2h0.6V201.5z M389,196.5l-0.7,0.7l-0.7-0.7l0.7-0.7L389,196.5z M389.8,194.9l-0.7,0.7l-0.7-0.7l0.7-0.7
		L389.8,194.9z M390.7,196.5l-0.7,0.7l-0.7-0.7l0.7-0.7L390.7,196.5z" id="PATH_42" class="area" title=""></path>
	<path d="M400.6,201.5h-0.7c-0.5,0-1-0.3-1.6-0.8c-0.3-0.3-0.7-0.8-1.2-1.5c0.1,1.6-0.8,2.4-2.7,2.4h-1.1v-1.2h1.3
		c1.3,0,2-0.4,2-1.1c0-0.4-0.2-0.9-0.7-1.5c-0.3-0.4-0.7-0.8-1.3-1.3c-0.5-0.4-0.7-0.7-0.7-0.7c0-0.7,0.1-1.2,0.3-1.5
		c0-0.1,0.7-0.3,2-0.8c1.3-0.5,2.5-0.9,3.6-1.2c0,0.1-0.1,0.5-0.3,1.1c-1.3,0.4-2.9,1-4.9,1.8c0.9,0.8,2.1,2.1,3.4,3.9
		c0.5,0.6,0.9,1,1.2,1.2c0.2,0.1,0.6,0.2,1,0.2h0.4V201.5z" id="PATH_43" class="area" title=""></path>
	<path d="M405.5,201.5h-0.8c-0.9,0-1.5-0.3-1.9-0.9c-0.3,0.6-1,0.9-2.1,0.9h-0.6v-1.2h0.9c1,0,1.5-0.4,1.6-1.1
		c0-0.3,0.1-0.5,0.2-0.5s0.2,0.2,0.2,0.5c0.1,0.7,0.6,1.1,1.5,1.1h0.9V201.5z M402.2,203.7l-0.8,0.8l-0.8-0.8l0.8-0.8L402.2,203.7z
		 M403.9,203.7l-0.8,0.8l-0.8-0.8l0.8-0.8L403.9,203.7z" id="PATH_44" class="area" title=""></path>
	<path d="M407.8,193.6c0.1,0.1,0.1,0.2,0.1,0.2c0,0-0.1,0-0.2,0h-0.3c0.1,1.3,0.1,3.2,0.1,5.7c0,0.6-0.1,1.1-0.4,1.4
		c-0.3,0.4-0.8,0.6-1.3,0.6h-0.6v-1.2h0.5c0.8,0,1.2-0.3,1.1-0.9c-0.1-2.1-0.2-4.3-0.3-6.5l0.7-0.6c0.1-0.1,0.2-0.2,0.2-0.2
		c0,0,0,0.1,0.1,0.2C407.4,192.6,407.6,193,407.8,193.6z" id="PATH_45" class="area" title=""></path>
	<path d="M411.8,201.5h-0.7c-0.7,0-1.3-0.3-1.5-0.9c-0.2-0.4-0.3-1.1-0.3-1.9v-1.9c0-0.9-0.1-2.2-0.2-3.9l0.6-0.7
		c0.1-0.1,0.2-0.1,0.2,0c0.1,0.9,0.2,2.2,0.2,3.9v2.9c0,0.8,0.4,1.2,1.2,1.2h0.5V201.5z" id="PATH_46" class="area" title=""></path>
	<path d="M417.8,193.4c0,0.2-0.1,0.5-0.3,1.1c-1.2,0.3-2.7,0.8-4.4,1.3c1.2,1.2,1.9,2.2,2,2.9c0.1,0.5,0,1-0.2,1.5
		c-0.2,0.5-0.6,0.8-1.1,1c-0.4,0.2-1.1,0.2-2,0.2h-0.4v-1.2h0.3c1.9,0,2.9-0.3,2.9-1c0-0.5-0.5-1.3-1.6-2.3l-0.1,0.3
		c-0.1-0.1-0.3-0.3-0.5-0.6c-0.3-0.3-0.4-0.5-0.4-0.6c0-0.3,0.1-0.6,0.4-0.9c0.1-0.1,0.7-0.3,2-0.7
		C415.7,194,416.8,193.7,417.8,193.4z M417.6,191.9l-0.2,0.7l-4.9,1.6l0.2-0.7L417.6,191.9z" id="PATH_47" class="area" title=""></path>
</g>
<g id="G_48" class="area" title="">
	<path d="M353.5,236.1h-0.4c-0.5,0-0.9-0.1-1.1-0.3c-0.3-0.2-0.5-0.6-0.5-1c-1.1,1-2.8,1.5-5.1,1.5c-2.4,0-3.6-0.7-3.6-2.2
		c0-0.5,0.2-1,0.6-1.5c0.1-0.1,0.1-0.1,0.2-0.1c0.1,0,0.1,0,0.1,0.1c0,0,0,0.1,0,0.2c-0.1,0.3-0.2,0.6-0.2,0.9c0,1,1.1,1.5,3.3,1.5
		c2.5,0,4.2-0.5,5-1.6c0.2-0.2,0.3-0.3,0.4-0.3c0.1,0,0.1,0.1,0.1,0.2c0,0.1,0,0.2-0.1,0.4c0,0.2-0.1,0.3-0.1,0.4
		c0,0.5,0.4,0.8,1.1,0.8h0.4V236.1z M347.3,230.3l-0.8,0.8l-0.8-0.8l0.8-0.8L347.3,230.3z M349,230.3l-0.8,0.8l-0.8-0.8l0.8-0.8
		L349,230.3z" id="PATH_49" class="area" title=""></path>
	<path d="M361.4,234c0,0.6-0.1,1.1-0.4,1.5c-0.3,0.4-0.8,0.7-1.3,0.7c-0.7,0-1.1-0.3-1.4-0.8c-0.4,0.6-0.8,0.8-1.4,0.8
		c-0.7,0-1.2-0.3-1.5-0.8c-0.4,0.6-0.9,0.8-1.6,0.8h-0.7V235h0.8c0.7,0,1.2-0.4,1.3-1.2c0-0.2,0.1-0.3,0.2-0.3
		c0.1,0,0.1,0.1,0.2,0.3c0.1,0.8,0.5,1.2,1.3,1.2c0.4,0,0.8-0.1,1-0.3c0.1-0.2,0.2-0.4,0.3-0.8c0-0.2,0.1-0.3,0.2-0.3
		c0.1,0,0.1,0.1,0.2,0.3c0.1,0.8,0.5,1.2,1.2,1.2c0.8,0,1.1-0.2,1.1-0.5c0-0.3-0.2-0.7-0.6-1.1l0.5-0.9c0.1-0.1,0.1-0.2,0.2-0.2
		s0.1,0.1,0.2,0.2C361.3,233,361.4,233.5,361.4,234z M358.1,230.3l-0.7,0.7l-0.7-0.7l0.7-0.7L358.1,230.3z M358.9,228.8l-0.7,0.7
		l-0.7-0.7l0.7-0.7L358.9,228.8z M359.8,230.3l-0.7,0.7l-0.7-0.7l0.7-0.7L359.8,230.3z" id="PATH_50" class="area" title=""></path>
	<path d="M367.6,234c0,1.4-0.9,2.1-2.8,2.1c-0.7,0-1.2-0.1-1.5-0.3c-0.4-0.2-0.6-0.7-0.6-1.3c0-0.3,0.1-0.6,0.2-0.9
		c0.1-0.1,0.1-0.2,0.2-0.2c0.1,0,0.1,0.1,0.1,0.3c0,0.1,0,0.2,0,0.3c0,0.4,0.2,0.7,0.6,0.8c0.2,0.1,0.6,0.1,1.1,0.1
		c1.5,0,2.2-0.2,2.2-0.7c0-0.7-0.9-1.7-2.6-2.9l0.3-1c0-0.1,0.1-0.1,0.1-0.1c0,0,0.1,0,0.2,0.1C366.7,231.7,367.6,232.9,367.6,234z" id="PATH_51" class="area" title=""></path>
	<path d="M377.7,236.1h-1.1c-0.1,1.4-0.6,2.5-1.6,3.5c-0.3,0.3-0.5,0.5-0.6,0.5c-0.5,0-1.2-0.1-1.9-0.2c-0.2,0-0.4-0.1-0.4-0.1
		c0,0,0.1-0.1,0.4-0.2c0.8-0.2,1.6-0.7,2.3-1.2c0.3-0.3,0.6-0.5,0.8-0.9c0.3-0.4,0.5-0.8,0.5-1.1v-0.3h-1.3c-1,0-1.4-0.4-1.4-1.2
		c0-0.5,0.1-1,0.4-1.6c0.3-0.6,0.7-1,1.1-1c0.5,0,0.9,0.3,1.2,1c0.2,0.5,0.4,1,0.4,1.6h1.1V236.1z M375.9,235c0-0.3-0.1-0.6-0.3-0.9
		c-0.2-0.4-0.5-0.5-0.8-0.5c-0.2,0-0.4,0.1-0.5,0.2s-0.2,0.3-0.2,0.6c0,0.5,0.4,0.7,1.2,0.7C375.3,235,375.6,235,375.9,235z" id="PATH_52" class="area" title=""></path>
	<path d="M382.6,236.1h-0.8c-0.9,0-1.5-0.3-1.9-0.9c-0.3,0.6-1,0.9-2.1,0.9h-0.6V235h0.9c1,0,1.5-0.4,1.6-1.1c0-0.3,0.1-0.5,0.2-0.5
		s0.2,0.2,0.2,0.5c0.1,0.7,0.6,1.1,1.5,1.1h0.9V236.1z M380.6,231l-0.8,0.8L379,231l0.8-0.8L380.6,231z" id="PATH_53" class="area" title=""></path>
	<path d="M387.5,236.1h-0.8c-0.9,0-1.5-0.3-1.9-0.9c-0.3,0.6-1,0.9-2.1,0.9h-0.6V235h0.9c1,0,1.5-0.4,1.6-1.1c0-0.3,0.1-0.5,0.2-0.5
		s0.2,0.2,0.2,0.5c0.1,0.7,0.6,1.1,1.5,1.1h0.9V236.1z M384.2,238.3l-0.8,0.8l-0.8-0.8l0.8-0.8L384.2,238.3z M386,238.3l-0.8,0.8
		l-0.8-0.8l0.8-0.8L386,238.3z" id="PATH_54" class="area" title=""></path>
	<path d="M392.5,234.1c0,0.5,0,0.9-0.2,1.3c-0.2,0.5-0.5,0.8-0.8,0.8c-0.5,0-1.3-0.3-2.3-1c-0.3,0.4-0.5,0.6-0.6,0.7
		c-0.3,0.2-0.6,0.3-1,0.3h-0.5V235h0.7c0.4,0,0.8-0.2,1.2-0.7c0.2-0.2,0.5-0.7,0.9-1.3c0.3-0.5,0.7-0.7,1-0.7c0.5,0,0.9,0.2,1.2,0.7
		C392.3,233.4,392.5,233.8,392.5,234.1z M391.9,234.9c0-0.3-0.1-0.6-0.3-1c-0.2-0.4-0.5-0.6-0.8-0.6c-0.3,0-0.6,0.3-1,0.9
		c0.2,0.2,0.5,0.4,0.9,0.6s0.8,0.3,1,0.3C391.8,235.1,391.9,235,391.9,234.9z" id="PATH_55" class="area" title=""></path>
</g>
<g id="G_56" class="area" title="">
	<path d="M337.5,279.9h-0.4c-0.4,0-0.6-0.1-0.8-0.2c0,0.1,0,0.2,0,0.3c0,0.9-0.3,1.8-0.9,2.7c-0.5,0.8-1,1.1-1.3,1.1
		c-0.8,0-1.4,0-2-0.1c-0.2,0-0.3-0.1-0.3-0.1s0.1-0.1,0.3-0.1c0.8-0.2,1.6-0.6,2.4-1.2c0.8-0.7,1.3-1.4,1.3-2.1c0-0.4-0.3-1-1-1.7
		l0.5-0.9c0-0.1,0.1-0.1,0.1-0.1c0,0,0.1,0.1,0.1,0.1c0.3,0.4,0.5,0.7,0.7,0.8c0.3,0.2,0.7,0.4,1.1,0.4h0.3V279.9z" id="PATH_57" class="area" title=""></path>
	<path d="M343.7,279.9h-0.5c-0.4,0-0.8,0.1-1.1,0.2c-0.5,0.2-0.8,0.5-0.8,1c0,0.6,0.4,1.1,1.2,1.6l-0.5,1c-0.9-0.3-1.7-0.8-2.3-1.4
		c-0.8-0.7-1.2-1.6-1.2-2.5h-1.4v-1.2h1.3c0-0.8,0.2-1.6,0.6-2.6c0.4-0.9,0.7-1.3,0.9-1.3c0.2,0,0.5,0.4,0.8,1.3
		c0.3,0.8,0.4,1.3,0.4,1.6c0,1.4-0.7,2.1-2.1,2.1c0.1,0.4,0.3,0.8,0.6,1.2s0.7,0.7,1.1,0.9c0-0.1,0-0.3,0-0.4c0-0.7,0.2-1.3,0.5-1.8
		c0.5-0.7,1.1-1.1,2-1.1h0.4V279.9z M340.7,278.3c0-0.2-0.1-0.6-0.3-1.1c-0.2-0.6-0.4-0.8-0.6-0.8c-0.1,0-0.3,0.2-0.5,0.7
		c-0.2,0.5-0.3,1.1-0.3,1.7C340.1,278.8,340.7,278.6,340.7,278.3z" id="PATH_58" class="area" title=""></path>
	<path d="M351.6,277.8c0,0.6-0.1,1.1-0.4,1.5c-0.3,0.4-0.8,0.7-1.3,0.7c-0.7,0-1.1-0.3-1.4-0.8c-0.4,0.6-0.8,0.8-1.4,0.8
		c-0.7,0-1.2-0.3-1.5-0.8c-0.4,0.6-0.9,0.8-1.6,0.8h-0.7v-1.2h0.8c0.7,0,1.2-0.4,1.3-1.2c0-0.2,0.1-0.3,0.2-0.3
		c0.1,0,0.1,0.1,0.2,0.3c0.1,0.8,0.5,1.2,1.3,1.2c0.4,0,0.8-0.1,1-0.3c0.1-0.2,0.2-0.4,0.3-0.8c0-0.2,0.1-0.3,0.2-0.3
		c0.1,0,0.1,0.1,0.2,0.3c0.1,0.8,0.5,1.2,1.2,1.2c0.8,0,1.1-0.2,1.1-0.5c0-0.3-0.2-0.7-0.6-1.1l0.5-0.9c0.1-0.1,0.1-0.2,0.2-0.2
		s0.1,0.1,0.2,0.2C351.4,276.8,351.6,277.3,351.6,277.8z M348.2,274.1l-0.7,0.7l-0.7-0.7l0.7-0.7L348.2,274.1z M349.1,272.6
		l-0.7,0.7l-0.7-0.7l0.7-0.7L349.1,272.6z M350,274.1l-0.7,0.7l-0.7-0.7l0.7-0.7L350,274.1z" id="PATH_59" class="area" title=""></path>
	<path d="M361.6,277.8c0,1.4-0.9,2.1-2.8,2.1c-0.7,0-1.2-0.1-1.5-0.3c-0.4-0.2-0.6-0.7-0.6-1.3c0-0.3,0.1-0.6,0.2-0.9
		c0.1-0.1,0.1-0.2,0.2-0.2c0.1,0,0.1,0.1,0.1,0.3c0,0.1,0,0.2,0,0.3c0,0.4,0.2,0.7,0.6,0.8c0.2,0.1,0.6,0.1,1.1,0.1
		c1.5,0,2.2-0.2,2.2-0.7c0-0.7-0.9-1.7-2.6-2.9l0.3-1c0-0.1,0.1-0.1,0.1-0.1c0,0,0.1,0,0.2,0.1C360.8,275.5,361.6,276.7,361.6,277.8
		z" id="PATH_60" class="area" title=""></path>
	<path d="M364,278.7c0,0.4-0.1,0.8-0.3,1.1c-0.1,0.2-0.2,0.3-0.2,0.3c0,0-0.1-0.1-0.1-0.4c0-1.2-0.2-4-0.6-8.5l0.8-0.8
		c0.1-0.1,0.1-0.1,0.1-0.1c0,0,0,0.1,0,0.2C363.9,271.9,364,274.6,364,278.7z" id="PATH_61" class="area" title=""></path>
	<path d="M369,280c0,1-0.3,1.9-0.9,2.8c-0.5,0.7-1,1.1-1.3,1.1c-0.8,0-1.4,0-2-0.1c-0.2,0-0.3-0.1-0.3-0.1s0.1-0.1,0.3-0.1
		c0.8-0.2,1.6-0.6,2.4-1.2c0.8-0.7,1.3-1.4,1.3-2.1c0-0.4-0.3-1-1-1.7l0.5-0.9c0-0.1,0.1-0.1,0.1-0.1c0,0,0.1,0.1,0.1,0.1
		c0.2,0.3,0.5,0.7,0.6,1.2C368.9,279.2,369,279.7,369,280z M368.3,274.6l-0.8,0.8l-0.8-0.8l0.8-0.8L368.3,274.6z" id="PATH_62" class="area" title=""></path>
	<path d="M373.1,269.2c-0.4,0.4-1,0.5-1.6,0.5c-0.1,0-0.2,0-0.4,0s-0.3,0-0.4,0c-0.1,0-0.2,0.1-0.3,0.2s-0.2,0.2-0.2,0.2
		c-0.1,0-0.1-0.1-0.1-0.2c0-0.1,0.1-0.3,0.2-0.5c0.1-0.3,0.2-0.4,0.3-0.4c0.1,0,0.3,0,0.6,0.1s0.5,0.1,0.6,0.1c0.6,0,1,0,1.3-0.1
		c0.2,0,0.3-0.1,0.3-0.1c0,0,0.1,0,0.1,0C373.3,269,373.2,269.1,373.1,269.2z M372.4,278.7c0,0.4-0.1,0.8-0.3,1.1
		c-0.1,0.2-0.2,0.3-0.2,0.3c0,0-0.1-0.1-0.1-0.4c0-1.2-0.2-4-0.6-8.5l0.8-0.8c0.1-0.1,0.1-0.1,0.1-0.1c0,0,0,0.1,0,0.2
		C372.4,271.8,372.4,274.5,372.4,278.7z" id="PATH_63" class="area" title=""></path>
</g>
<g id="G_64" class="area" title="">
	<path d="M289.6,278.8c0.1,0.3,0.1,0.6,0.1,0.9c0,0.4-0.1,0.7-0.2,1.1c-0.3,0.7-0.8,1.3-1.8,1.7c-0.8,0.3-1.6,0.5-2.5,0.5
		c-0.9,0-1.6-0.2-2.2-0.6c-0.6-0.5-0.9-1.1-0.9-2c0-0.5,0.1-0.9,0.3-1.5c0.2-0.4,0.3-0.7,0.5-0.9c0.1-0.1,0.2-0.1,0.2-0.1
		c0.1,0,0.1,0,0.1,0.1c0,0,0,0.1,0,0.2c-0.3,0.6-0.4,1.2-0.4,1.7c0,0.5,0.2,0.9,0.5,1.3c0.4,0.5,1.1,0.7,2,0.7c1,0,1.9-0.2,2.6-0.5
		c0.6-0.3,1-0.6,1.2-1c0.1-0.1,0.1-0.3,0.1-0.4c0-0.3-0.1-0.6-0.2-1c-0.1-0.3-0.4-0.8-0.9-1.6l0.4-0.8c0.1-0.1,0.1-0.2,0.1-0.2
		s0.1,0,0.1,0.1C289.2,277.3,289.5,278,289.6,278.8z M286.7,274.5l-0.8,0.8l-0.8-0.8l0.8-0.8L286.7,274.5z" id="PATH_65" class="area" title=""></path>
	<path d="M293.7,279H293c-0.7,0-1.3-0.3-1.5-0.9c-0.2-0.4-0.3-1.1-0.3-1.9v-1.9c0-0.9-0.1-2.2-0.2-3.9l0.6-0.7
		c0.1-0.1,0.2-0.1,0.2,0c0.1,0.9,0.2,2.2,0.2,3.9v2.9c0,0.8,0.4,1.2,1.2,1.2h0.5V279z" id="PATH_66" class="area" title=""></path>
	<path d="M298.6,279h-0.8c-0.9,0-1.5-0.3-1.9-0.9c-0.3,0.6-1,0.9-2.1,0.9h-0.6v-1.2h0.9c1,0,1.5-0.4,1.6-1.1c0-0.3,0.1-0.5,0.2-0.5
		c0.1,0,0.2,0.2,0.2,0.5c0.1,0.7,0.6,1.1,1.5,1.1h0.9V279z M295.3,281.2l-0.8,0.8l-0.8-0.8l0.8-0.8L295.3,281.2z M297,281.2
		l-0.8,0.8l-0.8-0.8l0.8-0.8L297,281.2z" id="PATH_67" class="area" title=""></path>
	<path d="M303.6,277c0,0.5,0,0.9-0.2,1.3c-0.2,0.5-0.5,0.8-0.8,0.8c-0.5,0-1.3-0.3-2.3-1c-0.3,0.4-0.5,0.6-0.6,0.7
		c-0.3,0.2-0.6,0.3-1,0.3h-0.5v-1.2h0.7c0.4,0,0.8-0.2,1.2-0.7c0.2-0.2,0.5-0.7,0.9-1.3c0.3-0.5,0.7-0.7,1-0.7
		c0.5,0,0.9,0.2,1.2,0.7C303.4,276.3,303.6,276.6,303.6,277z M303,277.7c0-0.3-0.1-0.6-0.3-1c-0.2-0.4-0.5-0.6-0.8-0.6
		c-0.3,0-0.6,0.3-1,0.9c0.2,0.2,0.5,0.4,0.9,0.6s0.8,0.3,1,0.3C302.9,278,303,277.9,303,277.7z" id="PATH_68" class="area" title=""></path>
	<path d="M305.9,277.7c0,0.4-0.1,0.8-0.3,1.1c-0.1,0.2-0.2,0.3-0.2,0.3c0,0-0.1-0.1-0.1-0.4c0-1.2-0.2-4-0.6-8.5l0.8-0.8
		c0.1-0.1,0.1-0.1,0.1-0.1c0,0,0,0.1,0,0.2C305.9,270.9,305.9,273.6,305.9,277.7z" id="PATH_69" class="area" title=""></path>
	<path d="M311,279.1c0,1-0.3,1.9-0.9,2.8c-0.5,0.7-1,1.1-1.3,1.1c-0.8,0-1.4,0-2-0.1c-0.2,0-0.3-0.1-0.3-0.1s0.1-0.1,0.3-0.1
		c0.8-0.2,1.6-0.6,2.4-1.2c0.8-0.7,1.3-1.4,1.3-2.1c0-0.4-0.3-1-1-1.7l0.5-0.9c0-0.1,0.1-0.1,0.1-0.1c0,0,0.1,0.1,0.1,0.1
		c0.2,0.3,0.5,0.7,0.6,1.2C310.9,278.3,311,278.7,311,279.1z" id="PATH_70" class="area" title=""></path>
</g>
<g id="G_71" class="area" title="">
	<path d="M248.1,303.4c0,1.4-0.9,2.1-2.8,2.1c-0.7,0-1.2-0.1-1.5-0.3c-0.4-0.2-0.6-0.7-0.6-1.3c0-0.3,0.1-0.6,0.2-0.9
		c0.1-0.1,0.1-0.2,0.2-0.2c0.1,0,0.1,0.1,0.1,0.3c0,0.1,0,0.2,0,0.3c0,0.4,0.2,0.7,0.6,0.8c0.2,0.1,0.6,0.1,1.1,0.1
		c1.5,0,2.2-0.2,2.2-0.7c0-0.7-0.9-1.7-2.6-2.9l0.3-1c0-0.1,0.1-0.1,0.1-0.1c0,0,0.1,0,0.2,0.1C247.3,301,248.1,302.3,248.1,303.4z" id="PATH_72" class="area" title=""></path>
	<path d="M252.1,305.5h-0.7c-0.7,0-1.3-0.3-1.5-0.9c-0.2-0.4-0.3-1.1-0.3-1.9v-1.9c0-0.9-0.1-2.2-0.2-3.9l0.6-0.7
		c0.1-0.1,0.2-0.1,0.2,0c0.1,0.9,0.2,2.2,0.2,3.9v2.9c0,0.8,0.4,1.2,1.2,1.2h0.5V305.5z" id="PATH_73" class="area" title=""></path>
	<path d="M254.5,303.5c0,1.3-0.7,2-2,2h-0.8v-1.2h0.7c1,0,1.5-0.2,1.5-0.5c0-0.3-0.2-0.7-0.7-1.2l0.4-1c0-0.1,0.1-0.1,0.1-0.1
		c0,0,0.1,0.1,0.2,0.2C254.2,302.2,254.5,302.9,254.5,303.5z M254.1,307.7l-0.8,0.8l-0.8-0.8l0.8-0.8L254.1,307.7z" id="PATH_74" class="area" title=""></path>
	<path d="M258.5,294.8c-0.4,0.4-1,0.5-1.6,0.5c-0.1,0-0.2,0-0.4,0s-0.3,0-0.4,0c-0.1,0-0.2,0.1-0.3,0.2s-0.2,0.2-0.2,0.2
		c-0.1,0-0.1-0.1-0.1-0.2c0-0.1,0.1-0.3,0.2-0.5c0.1-0.3,0.2-0.4,0.3-0.4c0.1,0,0.3,0,0.6,0.1s0.5,0.1,0.6,0.1c0.6,0,1,0,1.3-0.1
		c0.2,0,0.3-0.1,0.3-0.1c0,0,0.1,0,0.1,0C258.7,294.6,258.6,294.7,258.5,294.8z M257.8,304.3c0,0.4-0.1,0.8-0.3,1.1
		c-0.1,0.2-0.2,0.3-0.2,0.3c0,0-0.1-0.1-0.1-0.4c0-1.2-0.2-4-0.6-8.5l0.8-0.8c0.1-0.1,0.1-0.1,0.1-0.1c0,0,0,0.1,0,0.2
		C257.8,297.4,257.8,300.1,257.8,304.3z" id="PATH_75" class="area" title=""></path>
	<path d="M272.5,305.5h-2.3c-0.3,0-0.6,0-0.8,0.1c-0.4,0.1-0.5,0.3-0.5,0.5c0,0.1,0.5,0.2,1.4,0.4s1.4,0.4,1.4,0.6
		c0,0.8-0.2,1.4-0.7,1.8c-0.8,0.7-2.1,1-4,1c-2.3,0-3.5-0.9-3.5-2.6c0-0.4,0.1-0.8,0.3-1.3c0.2-0.5,0.4-0.9,0.6-1.2
		c0.1-0.1,0.2-0.2,0.3-0.2s0.1,0,0.1,0.1c0,0.1,0,0.2-0.1,0.3c-0.3,0.6-0.5,1.2-0.5,1.8c0,0.7,0.3,1.2,1,1.5
		c0.5,0.3,1.1,0.4,1.9,0.4c0.8,0,1.5,0,2.2-0.1c1.2-0.2,1.8-0.4,1.8-0.8c0-0.2-0.3-0.3-0.8-0.4c-0.8-0.1-1.3-0.2-1.5-0.3
		c-0.5-0.1-0.8-0.4-0.8-0.7c0-0.2,0.1-0.5,0.4-0.9c0.2-0.3,0.4-0.5,0.7-0.7c0.5-0.4,1.1-0.6,2-0.6h1.4V305.5z" id="PATH_76" class="area" title=""></path>
	<path d="M276.2,305.5h-0.4c-0.9,0-1.5-0.3-1.8-1c-0.1,0.3-0.3,0.5-0.6,0.7c-0.3,0.2-0.6,0.3-0.9,0.3h-0.4v-1.2h0.4
		c0.8,0,1.2-0.3,1.2-1v-3.5c0-1.3,0-2.3-0.1-3l0.9-0.7v6.7c0,1,0.4,1.5,1.3,1.5h0.4V305.5z" id="PATH_77" class="area" title=""></path>
	<path d="M281.5,303.5l-0.3,0.9l-2.7,0.7c-0.8,0.2-1.5,0.3-2.1,0.3h-0.5v-1.2h0.8c0.2,0,0.4,0,0.8-0.1c-0.6-0.5-0.9-0.9-0.9-1.4
		c0-0.4,0.2-0.9,0.7-1.5c0.6-0.7,1.2-1.1,1.8-1.1c0.7,0,1.2,0.3,1.6,0.9c0.1,0.2,0.2,0.3,0.2,0.4c0,0,0,0.1-0.1,0.1
		c-0.1,0-0.2,0-0.5-0.1c-0.5-0.1-0.9-0.2-1.3-0.2c-0.3,0-0.6,0.1-1,0.3c-0.4,0.2-0.7,0.4-0.7,0.7c0,0.2,0.2,0.5,0.5,0.8
		c0.4,0.4,0.9,0.6,1.4,0.6c0.2,0,0.9-0.2,2.1-0.5c0.1,0,0.1,0,0.2,0c0,0,0,0,0,0C281.5,303.4,281.5,303.4,281.5,303.5z" id="PATH_78" class="area" title=""></path>
</g>
<g id="G_79" class="area" title="">
	<path d="M185.4,318.4c0.1,0.3,0.1,0.6,0.1,0.9c0,0.4-0.1,0.7-0.2,1.1c-0.3,0.7-0.8,1.3-1.8,1.7c-0.8,0.3-1.6,0.5-2.5,0.5
		c-0.9,0-1.6-0.2-2.2-0.6c-0.6-0.5-0.9-1.1-0.9-2c0-0.5,0.1-0.9,0.3-1.5c0.2-0.4,0.3-0.7,0.5-0.9c0.1-0.1,0.2-0.1,0.2-0.1
		c0.1,0,0.1,0,0.1,0.1c0,0,0,0.1,0,0.2c-0.3,0.6-0.4,1.2-0.4,1.7c0,0.5,0.2,0.9,0.5,1.3c0.4,0.5,1.1,0.7,2,0.7c1,0,1.9-0.2,2.6-0.5
		c0.6-0.3,1-0.6,1.2-1c0.1-0.1,0.1-0.3,0.1-0.4c0-0.3-0.1-0.6-0.2-1c-0.1-0.3-0.4-0.8-0.9-1.6l0.4-0.8c0.1-0.1,0.1-0.2,0.1-0.2
		s0.1,0,0.1,0.1C185,316.8,185.3,317.6,185.4,318.4z M182.5,314l-0.8,0.8l-0.8-0.8l0.8-0.8L182.5,314z" id="PATH_80" class="area" title=""></path>
	<path d="M189.5,318.5h-0.7c-0.7,0-1.3-0.3-1.5-0.9c-0.2-0.4-0.3-1.1-0.3-1.9v-1.9c0-0.9-0.1-2.2-0.2-3.9l0.6-0.7
		c0.1-0.1,0.2-0.1,0.2,0c0.1,0.9,0.2,2.2,0.2,3.9v2.9c0,0.8,0.4,1.2,1.2,1.2h0.5V318.5z" id="PATH_81" class="area" title=""></path>
	<path d="M195.5,310.4c0,0.2-0.1,0.5-0.3,1.1c-1.2,0.3-2.7,0.8-4.4,1.3c1.2,1.2,1.9,2.2,2,2.9c0.1,0.5,0,1-0.2,1.5
		c-0.2,0.5-0.6,0.8-1.1,1c-0.4,0.2-1.1,0.2-2,0.2h-0.4v-1.2h0.3c1.9,0,2.9-0.3,2.9-1c0-0.5-0.5-1.3-1.6-2.3l-0.1,0.3
		c-0.1-0.1-0.3-0.3-0.5-0.6c-0.3-0.3-0.4-0.5-0.4-0.6c0-0.3,0.1-0.6,0.4-0.9c0.1-0.1,0.7-0.3,2-0.7
		C193.3,311,194.5,310.7,195.5,310.4z M195.3,308.9l-0.2,0.7l-4.9,1.6l0.2-0.7L195.3,308.9z" id="PATH_82" class="area" title=""></path>
	<path d="M201.5,318.5h-0.4c-0.4,0-0.6-0.1-0.8-0.2c0,0.1,0,0.2,0,0.3c0,0.9-0.3,1.8-0.9,2.7c-0.5,0.8-1,1.1-1.3,1.1
		c-0.8,0-1.4,0-2-0.1c-0.2,0-0.3-0.1-0.3-0.1s0.1-0.1,0.3-0.1c0.8-0.2,1.6-0.6,2.4-1.2c0.8-0.7,1.3-1.4,1.3-2.1c0-0.4-0.3-1-1-1.7
		l0.5-0.9c0-0.1,0.1-0.1,0.1-0.1c0,0,0.1,0.1,0.1,0.1c0.3,0.4,0.5,0.7,0.7,0.8c0.3,0.2,0.7,0.4,1.1,0.4h0.3V318.5z" id="PATH_83" class="area" title=""></path>
	<path d="M207.5,310.4c0,0.2-0.1,0.5-0.3,1.1c-1.2,0.3-2.7,0.8-4.4,1.3c1.2,1.2,1.9,2.2,2,2.9c0.1,0.5,0,1-0.2,1.5
		c-0.2,0.5-0.6,0.8-1.1,1c-0.4,0.2-1.1,0.2-2,0.2h-0.4v-1.2h0.3c1.9,0,2.9-0.3,2.9-1c0-0.5-0.5-1.3-1.6-2.3l-0.1,0.3
		c-0.1-0.1-0.3-0.3-0.5-0.6c-0.3-0.3-0.4-0.5-0.4-0.6c0-0.3,0.1-0.6,0.4-0.9c0.1-0.1,0.7-0.3,2-0.7
		C205.3,311,206.5,310.7,207.5,310.4z M207.3,308.9l-0.2,0.7l-4.9,1.6l0.2-0.7L207.3,308.9z" id="PATH_84" class="area" title=""></path>
</g>
<g id="G_85" class="area" title="">
	<path d="M123.4,337.8c0,0.2,0,0.3,0,0.3c0,0-0.1,0-0.3-0.1c-0.3-0.2-0.7-0.3-1.2-0.3c-0.7,0-1.3,0.3-1.8,0.8
		c-0.5,0.5-0.7,0.8-0.7,1.1c0,0.3,0.5,0.6,1.4,0.7c1,0.2,1.6,0.4,1.8,0.7c0,0.1,0.1,0.2,0.1,0.3c0,0.5-0.2,1.1-0.5,1.7
		c-0.2,0.4-0.7,0.7-1.5,1c-1,0.4-2,0.6-3.3,0.6c-0.9,0-1.6-0.2-2.2-0.7c-0.6-0.5-0.9-1.2-0.9-2c0-0.9,0.3-1.8,0.9-2.6
		c0.1-0.1,0.2-0.2,0.3-0.2c0.1,0,0.1,0,0.1,0.1c0,0.1,0,0.1-0.1,0.3c-0.4,0.7-0.6,1.4-0.6,2c0,0.5,0.2,0.9,0.5,1.2
		c0.5,0.5,1.2,0.7,2.1,0.7c0.8,0,1.7-0.1,2.6-0.3c1.3-0.3,2-0.7,2-1.2c0-0.2-0.6-0.4-1.9-0.7c-0.5-0.1-0.8-0.2-1-0.3
		c-0.2-0.1-0.4-0.4-0.4-0.7c0-0.7,0.3-1.4,1-2.3c0.7-0.9,1.5-1.4,2.2-1.4C122.7,336.7,123.2,337.1,123.4,337.8z" id="PATH_86" class="area" title=""></path>
	<path d="M129.6,341.5h-1.1c-0.1,1.4-0.6,2.5-1.6,3.5c-0.3,0.3-0.5,0.5-0.6,0.5c-0.5,0-1.2-0.1-1.9-0.2c-0.2,0-0.4-0.1-0.4-0.1
		c0,0,0.1-0.1,0.4-0.2c0.8-0.2,1.6-0.7,2.3-1.2c0.3-0.3,0.6-0.5,0.8-0.9c0.3-0.4,0.5-0.8,0.5-1.1v-0.3h-1.3c-1,0-1.4-0.4-1.4-1.2
		c0-0.5,0.1-1,0.4-1.6c0.3-0.6,0.7-1,1.1-1c0.5,0,0.9,0.3,1.2,1c0.2,0.5,0.4,1,0.4,1.6h1.1V341.5z M127.8,340.3
		c0-0.3-0.1-0.6-0.3-0.9c-0.2-0.4-0.5-0.5-0.8-0.5c-0.2,0-0.4,0.1-0.5,0.2c-0.2,0.2-0.2,0.3-0.2,0.6c0,0.5,0.4,0.7,1.2,0.7
		C127.3,340.4,127.5,340.3,127.8,340.3z" id="PATH_87" class="area" title=""></path>
	<path d="M135.8,332.2c0,0.2-0.2,0.6-0.4,1.1l-2.5,0.8c-1.1,0.4-1.9,0.7-2.3,0.9c0.8,0.8,1.3,1.4,1.6,1.7c0.5,0.7,0.8,1.3,0.9,2
		c0,0.5,0,1-0.2,1.4c-0.3,0.9-1.4,1.3-3.1,1.3h-0.5v-1.2h0.6c0.8,0,1.4,0,1.7-0.1c0.7-0.2,1.1-0.5,1.1-1c0-0.7-0.5-1.5-1.6-2.5
		l-0.1,0.2c-0.1-0.1-0.3-0.3-0.5-0.6c-0.3-0.3-0.4-0.6-0.4-0.6c0-0.2,0-0.4,0.1-0.8c0.1-0.4,0.2-0.6,0.3-0.7
		c0.1-0.1,0.8-0.4,2.1-0.8C133.7,332.9,134.9,332.5,135.8,332.2z" id="PATH_88" class="area" title=""></path>
	<path d="M141.5,339.4c0,1.4-0.9,2.1-2.8,2.1c-0.7,0-1.2-0.1-1.5-0.3c-0.4-0.2-0.6-0.7-0.6-1.3c0-0.3,0.1-0.6,0.2-0.9
		c0.1-0.1,0.1-0.2,0.2-0.2c0.1,0,0.1,0.1,0.1,0.3c0,0.1,0,0.2,0,0.3c0,0.4,0.2,0.7,0.6,0.8c0.2,0.1,0.6,0.1,1.1,0.1
		c1.5,0,2.2-0.2,2.2-0.7c0-0.7-0.9-1.7-2.6-2.9l0.3-1c0-0.1,0.1-0.1,0.1-0.1c0,0,0.1,0,0.2,0.1C140.7,337,141.5,338.3,141.5,339.4z" id="PATH_89" class="area" title=""></path>
	<path d="M147.7,341.5h-0.4c-0.4,0-0.6-0.1-0.8-0.2c0,0.1,0,0.2,0,0.3c0,0.9-0.3,1.8-0.9,2.7c-0.5,0.8-1,1.1-1.3,1.1
		c-0.8,0-1.4,0-2-0.1c-0.2,0-0.3-0.1-0.3-0.1s0.1-0.1,0.3-0.1c0.8-0.2,1.6-0.6,2.4-1.2c0.8-0.7,1.3-1.4,1.3-2.1c0-0.4-0.3-1-1-1.7
		l0.5-0.9c0-0.1,0.1-0.1,0.1-0.1c0,0,0.1,0.1,0.1,0.1c0.3,0.4,0.5,0.7,0.7,0.8c0.3,0.2,0.7,0.4,1.1,0.4h0.3V341.5z" id="PATH_90" class="area" title=""></path>
	<path d="M153.9,332.2c0,0.2-0.2,0.6-0.4,1.1l-2.5,0.8c-1.1,0.4-1.9,0.7-2.3,0.9c0.8,0.8,1.3,1.4,1.6,1.7c0.5,0.7,0.8,1.3,0.9,2
		c0,0.5,0,1-0.2,1.4c-0.3,0.9-1.4,1.3-3.1,1.3h-0.5v-1.2h0.6c0.8,0,1.4,0,1.7-0.1c0.7-0.2,1.1-0.5,1.1-1c0-0.7-0.5-1.5-1.6-2.5
		l-0.1,0.2c-0.1-0.1-0.3-0.3-0.5-0.6c-0.3-0.3-0.4-0.6-0.4-0.6c0-0.2,0-0.4,0.1-0.8c0.1-0.4,0.2-0.6,0.3-0.7
		c0.1-0.1,0.8-0.4,2.1-0.8C151.8,332.9,153,332.5,153.9,332.2z" id="PATH_91" class="area" title=""></path>
</g>
<g id="G_92" class="area" title="">
	<path d="M52.4,357h-0.4c-0.4,0-0.6-0.1-0.8-0.2c0,0.1,0,0.2,0,0.3c0,0.9-0.3,1.8-0.9,2.7c-0.5,0.8-1,1.1-1.3,1.1
		c-0.8,0-1.4,0-2-0.1c-0.2,0-0.3-0.1-0.3-0.1s0.1-0.1,0.3-0.1c0.8-0.2,1.6-0.6,2.4-1.2c0.8-0.7,1.3-1.4,1.3-2.1c0-0.4-0.3-1-1-1.7
		l0.5-0.9c0-0.1,0.1-0.1,0.1-0.1c0,0,0.1,0.1,0.1,0.1c0.3,0.4,0.5,0.7,0.7,0.8c0.3,0.2,0.7,0.4,1.1,0.4h0.3V357z M50.4,351.7
		l-0.8,0.8l-0.8-0.8l0.8-0.8L50.4,351.7z" id="PATH_93" class="area" title=""></path>
	<path d="M58.4,348.9c0,0.2-0.1,0.5-0.3,1.1c-1.2,0.3-2.7,0.8-4.4,1.3c1.2,1.2,1.9,2.2,2,2.9c0.1,0.5,0,1-0.2,1.5
		c-0.2,0.5-0.6,0.8-1.1,1c-0.4,0.2-1.1,0.2-2,0.2h-0.4v-1.2h0.3c1.9,0,2.9-0.3,2.9-1c0-0.5-0.5-1.3-1.6-2.3l-0.1,0.3
		c-0.1-0.1-0.3-0.3-0.5-0.6c-0.3-0.3-0.4-0.5-0.4-0.6c0-0.3,0.1-0.6,0.4-0.9c0.1-0.1,0.7-0.3,2-0.7
		C56.2,349.5,57.4,349.2,58.4,348.9z M58.2,347.4l-0.2,0.7l-4.9,1.6l0.2-0.7L58.2,347.4z" id="PATH_94" class="area" title=""></path>
	<path d="M63.2,357.1c0,1-0.3,1.9-0.9,2.8c-0.5,0.7-1,1.1-1.3,1.1c-0.8,0-1.4,0-2-0.1c-0.2,0-0.3-0.1-0.3-0.1s0.1-0.1,0.3-0.1
		c0.8-0.2,1.6-0.6,2.4-1.2c0.8-0.7,1.3-1.4,1.3-2.1c0-0.4-0.3-1-1-1.7l0.5-0.9c0-0.1,0.1-0.1,0.1-0.1c0,0,0.1,0.1,0.1,0.1
		c0.2,0.3,0.5,0.7,0.6,1.2C63.1,356.3,63.2,356.7,63.2,357.1z" id="PATH_95" class="area" title=""></path>
	<path d="M71,357h-0.4c-0.4,0-0.7-0.1-1-0.4c-0.2-0.2-0.4-0.4-0.6-0.8c-0.2,0.4-0.5,0.7-0.8,0.9c-0.4,0.2-0.9,0.3-1.7,0.3
		c-1.4,0-2.1-0.5-2.1-1.5c0-0.3,0.1-0.7,0.3-1c0.1-0.1,0.1-0.2,0.2-0.2c0.1,0,0.1,0.1,0.1,0.2c0,0.1,0,0.1,0,0.3s0,0.2,0,0.3
		c0,0.6,0.5,0.9,1.5,0.9c1.4,0,2.1-0.3,2.1-0.8c0-0.3-0.4-1.4-1.2-3.3l0.4-0.8c0.1-0.1,0.1-0.2,0.1-0.2c0,0,0.1,0.1,0.1,0.2
		c0.3,0.8,0.8,2,1.4,3.6c0.3,0.8,0.7,1.2,1.3,1.2H71V357z" id="PATH_96" class="area" title=""></path>
	<path d="M75.9,357h-0.8c-0.9,0-1.5-0.3-1.9-0.9c-0.3,0.6-1,0.9-2.1,0.9h-0.6v-1.2h0.9c1,0,1.5-0.4,1.6-1.1c0-0.3,0.1-0.5,0.2-0.5
		c0.1,0,0.2,0.2,0.2,0.5c0.1,0.7,0.6,1.1,1.5,1.1h0.9V357z M73.9,351.8l-0.8,0.8l-0.8-0.8l0.8-0.8L73.9,351.8z" id="PATH_97" class="area" title=""></path>
	<path d="M78.3,355c0,1.3-0.7,2-2,2h-0.8v-1.2h0.7c1,0,1.5-0.2,1.5-0.5c0-0.3-0.2-0.7-0.7-1.2l0.4-1c0-0.1,0.1-0.1,0.1-0.1
		c0,0,0.1,0.1,0.2,0.2C78.1,353.7,78.3,354.4,78.3,355z M78,359.2l-0.8,0.8l-0.8-0.8l0.8-0.8L78,359.2z" id="PATH_98" class="area" title=""></path>
</g>
<g id="G_99" class="area" title="">
	<path d="M114.1,280.9h-0.5c-0.5,0-0.8,0-1-0.1c0,0.3,0.1,0.5,0.1,0.8c0,0.5-0.1,0.8-0.2,1.1c-0.3,0.7-0.8,1.3-1.8,1.7
		c-0.8,0.3-1.6,0.5-2.5,0.5c-0.9,0-1.6-0.2-2.2-0.6c-0.6-0.5-0.9-1.1-0.9-2c0-0.5,0.1-0.9,0.3-1.5c0.2-0.4,0.3-0.7,0.5-0.9
		c0.1-0.1,0.2-0.1,0.2-0.1c0.1,0,0.1,0,0.1,0.1c0,0,0,0.1,0,0.2c-0.3,0.6-0.4,1.2-0.4,1.7c0,0.5,0.2,0.9,0.5,1.3
		c0.4,0.5,1.1,0.7,2,0.7c1,0,1.9-0.2,2.6-0.5c0.6-0.3,1-0.6,1.2-1c0.1-0.1,0.1-0.3,0-0.7c0-0.3-0.1-0.6-0.1-0.7
		c-0.1-0.3-0.5-0.8-1-1.5l0.4-0.8c0.1-0.1,0.1-0.2,0.1-0.2s0.1,0,0.1,0.1c0.5,0.8,1,1.2,1.6,1.2h0.8V280.9z M109.7,276.4l-0.8,0.8
		l-0.8-0.8l0.8-0.8L109.7,276.4z" id="PATH_100" class="area" title=""></path>
	<path d="M121.3,280.9h-0.6c-0.5,0-1-0.3-1.4-0.8c-0.3,0.8-0.6,1.2-0.9,1.2c-0.3,0-0.8-0.2-1.4-0.5c-0.5-0.3-0.9-0.6-1.1-0.8
		c-0.5,0.6-1,0.9-1.5,0.9h-0.6v-1.2h0.6c0.5,0,0.9-0.2,1.3-0.6c0.3-0.3,0.6-0.7,1-1.1c0.4-0.4,0.7-0.6,1-0.6c0.4,0,0.7,0.2,1,0.6
		c0.2,0.2,0.4,0.6,0.9,1.1c0.3,0.4,0.7,0.6,1.1,0.6h0.6V280.9z M118.6,280c0-0.3-0.1-0.6-0.3-1c-0.2-0.4-0.5-0.6-0.9-0.6
		c-0.3,0-0.7,0.3-1.1,0.8c0.1,0.1,0.4,0.3,0.9,0.6c0.5,0.3,0.9,0.4,1.2,0.4C118.5,280.2,118.6,280.2,118.6,280z" id="PATH_101" class="area" title=""></path>
	<path d="M127.5,271.6c0,0.2-0.2,0.6-0.4,1.1l-2.5,0.8c-1.1,0.4-1.9,0.7-2.3,0.9c0.8,0.8,1.3,1.4,1.6,1.7c0.5,0.7,0.8,1.3,0.9,2
		c0,0.5,0,1-0.2,1.4c-0.3,0.9-1.4,1.3-3.1,1.3h-0.5v-1.2h0.6c0.8,0,1.4,0,1.7-0.1c0.7-0.2,1.1-0.5,1.1-1c0-0.7-0.5-1.5-1.6-2.5
		l-0.1,0.2c-0.1-0.1-0.3-0.3-0.5-0.6c-0.3-0.3-0.4-0.6-0.4-0.6c0-0.2,0-0.4,0.1-0.8c0.1-0.4,0.2-0.6,0.3-0.7
		c0.1-0.1,0.8-0.4,2.1-0.8C125.4,272.3,126.6,271.9,127.5,271.6z" id="PATH_102" class="area" title=""></path>
	<path d="M133.3,280.9h-0.4c-0.4,0-0.6-0.1-0.8-0.2c0,0.1,0,0.2,0,0.3c0,0.9-0.3,1.8-0.9,2.7c-0.5,0.8-1,1.1-1.3,1.1
		c-0.8,0-1.4,0-2-0.1c-0.2,0-0.3-0.1-0.3-0.1s0.1-0.1,0.3-0.1c0.8-0.2,1.6-0.6,2.4-1.2c0.8-0.7,1.3-1.4,1.3-2.1c0-0.4-0.3-1-1-1.7
		l0.5-0.9c0-0.1,0.1-0.1,0.1-0.1c0,0,0.1,0.1,0.1,0.1c0.3,0.4,0.5,0.7,0.7,0.8c0.3,0.2,0.7,0.4,1.1,0.4h0.3V280.9z" id="PATH_103" class="area" title=""></path>
	<path d="M135.6,278.9c0,1.3-0.7,2-2,2h-0.8v-1.2h0.7c1,0,1.5-0.2,1.5-0.5c0-0.3-0.2-0.7-0.7-1.2l0.4-1c0-0.1,0.1-0.1,0.1-0.1
		c0,0,0.1,0.1,0.2,0.2C135.4,277.6,135.6,278.2,135.6,278.9z M134.7,274.5l-0.8,0.8l-0.8-0.8l0.8-0.8L134.7,274.5z M136.4,274.5
		l-0.8,0.8l-0.8-0.8l0.8-0.8L136.4,274.5z" id="PATH_104" class="area" title=""></path>
</g>
<g id="G_105" class="area" title="">
	<path d="M109.6,234.9c0.1,0.3,0.1,0.6,0.1,0.9c0,0.4-0.1,0.7-0.2,1.1c-0.3,0.7-0.8,1.3-1.8,1.7c-0.8,0.3-1.6,0.5-2.5,0.5
		c-0.9,0-1.6-0.2-2.2-0.6c-0.6-0.5-0.9-1.1-0.9-2c0-0.5,0.1-0.9,0.3-1.5c0.2-0.4,0.3-0.7,0.5-0.9c0.1-0.1,0.2-0.1,0.2-0.1
		c0.1,0,0.1,0,0.1,0.1c0,0,0,0.1,0,0.2c-0.3,0.6-0.4,1.2-0.4,1.7c0,0.5,0.2,0.9,0.5,1.3c0.4,0.5,1.1,0.7,2,0.7c1,0,1.9-0.2,2.6-0.5
		c0.6-0.3,1-0.6,1.2-1c0.1-0.1,0.1-0.3,0.1-0.4c0-0.3-0.1-0.6-0.2-1c-0.1-0.3-0.4-0.8-0.9-1.6l0.4-0.8c0.1-0.1,0.1-0.2,0.1-0.2
		s0.1,0,0.1,0.1C109.2,233.3,109.5,234.1,109.6,234.9z M106.7,230.5l-0.8,0.8l-0.8-0.8l0.8-0.8L106.7,230.5z" id="PATH_106" class="area" title=""></path>
	<path d="M113.7,235H113c-0.7,0-1.3-0.3-1.5-0.9c-0.2-0.4-0.3-1.1-0.3-1.9v-1.9c0-0.9-0.1-2.2-0.2-3.9l0.6-0.7
		c0.1-0.1,0.2-0.1,0.2,0c0.1,0.9,0.2,2.2,0.2,3.9v2.9c0,0.8,0.4,1.2,1.2,1.2h0.5V235z" id="PATH_107" class="area" title=""></path>
	<path d="M122.9,235h-0.6c-0.7,0-1.1-0.3-1.4-0.8c-0.2,0.6-0.7,0.8-1.3,0.8c-0.6,0-1-0.3-1.3-0.8c-0.3,0.6-0.7,0.8-1.3,0.8
		c-0.7,0-1.2-0.3-1.5-0.8c-0.4,0.6-0.9,0.8-1.6,0.8h-0.7v-1.2h0.8c0.7,0,1.2-0.4,1.3-1.2c0-0.2,0.1-0.3,0.2-0.3
		c0.1,0,0.1,0.1,0.2,0.3c0.1,0.8,0.5,1.2,1.3,1.2c0.7,0,1.2-0.4,1.2-1.2c0-0.2,0.1-0.3,0.2-0.3c0.1,0,0.2,0.1,0.2,0.3
		c0.1,0.8,0.5,1.2,1,1.2c0.7,0,1.2-0.4,1.2-1.2c0-0.2,0.1-0.3,0.2-0.3c0.1,0,0.2,0.1,0.2,0.3c0.1,0.8,0.5,1.2,1.2,1.2h0.6V235z
		 M118.2,230l-0.7,0.7l-0.7-0.7l0.7-0.7L118.2,230z M119.1,228.4l-0.7,0.7l-0.7-0.7l0.7-0.7L119.1,228.4z M120,230l-0.7,0.7
		l-0.7-0.7l0.7-0.7L120,230z" id="PATH_108" class="area" title=""></path>
	<path d="M127.8,235H127c-0.9,0-1.5-0.3-1.9-0.9c-0.3,0.6-1,0.9-2.1,0.9h-0.6v-1.2h0.9c1,0,1.5-0.4,1.6-1.1c0-0.3,0.1-0.5,0.2-0.5
		c0.1,0,0.2,0.2,0.2,0.5c0.1,0.7,0.6,1.1,1.5,1.1h0.9V235z M124.5,237.2l-0.8,0.8l-0.8-0.8l0.8-0.8L124.5,237.2z M126.2,237.2
		l-0.8,0.8l-0.8-0.8l0.8-0.8L126.2,237.2z" id="PATH_109" class="area" title=""></path>
	<path d="M135,235h-0.6c-0.5,0-1-0.3-1.4-0.8c-0.3,0.8-0.6,1.2-0.9,1.2c-0.3,0-0.8-0.2-1.4-0.5c-0.5-0.3-0.9-0.6-1.1-0.8
		c-0.5,0.6-1,0.9-1.5,0.9h-0.6v-1.2h0.6c0.5,0,0.9-0.2,1.3-0.6c0.3-0.3,0.6-0.7,1-1.1c0.4-0.4,0.7-0.6,1-0.6c0.4,0,0.7,0.2,1,0.6
		c0.2,0.2,0.4,0.6,0.9,1.1c0.3,0.4,0.7,0.6,1.1,0.6h0.6V235z M132.3,234.2c0-0.3-0.1-0.6-0.3-1c-0.2-0.4-0.5-0.6-0.9-0.6
		c-0.3,0-0.7,0.3-1.1,0.8c0.1,0.1,0.4,0.3,0.9,0.6c0.5,0.3,0.9,0.4,1.2,0.4C132.2,234.3,132.3,234.3,132.3,234.2z" id="PATH_110" class="area" title=""></path>
	<path d="M141,226.9c0,0.2-0.1,0.5-0.3,1.1c-1.2,0.3-2.7,0.8-4.4,1.3c1.2,1.2,1.9,2.2,2,2.9c0.1,0.5,0,1-0.2,1.5
		c-0.2,0.5-0.6,0.8-1.1,1c-0.4,0.2-1.1,0.2-2,0.2h-0.4v-1.2h0.3c1.9,0,2.9-0.3,2.9-1c0-0.5-0.5-1.3-1.6-2.3l-0.1,0.3
		c-0.1-0.1-0.3-0.3-0.5-0.6c-0.3-0.3-0.4-0.5-0.4-0.6c0-0.3,0.1-0.6,0.4-0.9c0.1-0.1,0.7-0.3,2-0.7C138.8,227.5,140,227.2,141,226.9
		z M140.8,225.4l-0.2,0.7l-4.9,1.6l0.2-0.7L140.8,225.4z" id="PATH_111" class="area" title=""></path>
</g>
<g id="G_112" class="area" title="">
	<path d="M192.2,222.5h-0.6c-1.2,0-1.9-0.9-1.9-2.7c0-0.2,0-0.5,0-0.9c-0.8,1.9-1.7,3.3-2.9,4.1c-0.7,0.2-1.6,0.3-2.6,0.3
		c-0.2,0-0.3,0-0.3,0c0,0,0.3-0.2,0.9-0.5c0.4-0.2,0.8-0.4,1.2-0.6c0.7-0.3,1.4-0.8,2-1.5c-0.3-1-0.7-1.9-1.3-2.7
		c-0.4-0.5-1-1.1-1.9-1.8l-0.1,0.4c-0.3-0.2-0.5-0.4-0.7-0.6c-0.3-0.3-0.5-0.5-0.5-0.7c0-0.2,0-0.5,0.1-1c0-0.1,0-0.2,0.1-0.2
		s0.1,0,0.2,0.1c1.3,0.9,2.3,1.8,2.9,2.6c0.8,1,1.3,2.1,1.6,3.4c0.4-0.5,0.7-1,0.9-1.6c0.3-0.7,0.4-1.3,0.4-1.8c0-0.9-0.1-1.9-0.2-3
		l0.8-0.7c0.1,0.5,0.1,2.8,0.2,6.9c0,0.9,0.4,1.4,1.2,1.4h0.5V222.5z" id="PATH_113" class="area" title=""></path>
	<path d="M196.1,219.7c0,0.9-0.1,1.5-0.3,1.8c-0.5,0.7-1.3,1-2.6,1h-1.4v-1.2h1c1.7,0,2.6-0.3,2.8-0.8c0.1-0.2,0-0.4-0.1-0.6
		c-0.4,0.1-0.8,0.1-1.3,0.1c-0.9,0-1.4-0.4-1.4-1.2c0-0.5,0.1-1.1,0.4-1.6c0.3-0.6,0.7-0.9,1.2-0.9c0.4,0,0.8,0.3,1.1,0.8
		C195.9,217.8,196.1,218.7,196.1,219.7z M194.2,214.2l-0.8,0.8l-0.8-0.8l0.8-0.8L194.2,214.2z M195.4,218.8c0-0.3-0.1-0.6-0.3-0.9
		c-0.2-0.3-0.5-0.4-0.8-0.4c-0.2,0-0.4,0.1-0.6,0.2c-0.2,0.1-0.2,0.3-0.2,0.5c0,0.4,0.3,0.6,1,0.6
		C194.7,218.9,195,218.9,195.4,218.8z M195.9,214.2l-0.8,0.8l-0.8-0.8l0.8-0.8L195.9,214.2z" id="PATH_114" class="area" title=""></path>
	<path d="M209,222.1c0,0.1,0,0.4,0,0.7c0,0.8-0.1,1.3-0.2,1.7c-0.3,0.7-0.9,1.2-1.8,1.6c-0.7,0.3-1.5,0.5-2.4,0.5
		c-2.3,0-3.4-0.9-3.4-2.6c0-0.4,0.1-0.9,0.3-1.4c0.1-0.4,0.3-0.8,0.5-1c0.1-0.1,0.2-0.2,0.3-0.2c0.1,0,0.1,0,0.1,0.1
		c0,0.1,0,0.2-0.1,0.3c-0.3,0.6-0.4,1.1-0.4,1.6c0,0.7,0.3,1.2,0.9,1.5c0.5,0.3,1.1,0.5,1.8,0.5c0.8,0,1.6-0.1,2.2-0.3
		c0.9-0.3,1.5-0.7,1.7-1.3c0-0.1,0.1-0.2,0.1-0.4c0-0.2,0-0.5-0.1-1c-0.4,0.1-0.8,0.1-1.4,0.1c-1,0-1.4-0.4-1.4-1.2
		c0-0.5,0.1-1,0.4-1.6c0.3-0.6,0.7-0.9,1.2-1c0.4,0,0.8,0.2,1.2,0.8C208.8,220.2,209,221,209,222.1z M206.9,216.5l-0.8,0.8l-0.8-0.8
		l0.8-0.8L206.9,216.5z M208.2,221.2c0-0.3-0.1-0.6-0.4-0.8c-0.2-0.2-0.5-0.4-0.8-0.4c-0.2,0-0.4,0.1-0.5,0.2
		c-0.2,0.1-0.2,0.3-0.2,0.5c0,0.4,0.3,0.6,1,0.6C207.6,221.3,207.9,221.3,208.2,221.2z M208.7,216.5l-0.8,0.8l-0.8-0.8l0.8-0.8
		L208.7,216.5z" id="PATH_115" class="area" title=""></path>
	<path d="M213.1,211.8c-0.4,0.4-1,0.5-1.6,0.5c-0.1,0-0.2,0-0.4,0s-0.3,0-0.4,0c-0.1,0-0.2,0.1-0.3,0.2s-0.2,0.2-0.2,0.2
		c-0.1,0-0.1-0.1-0.1-0.2c0-0.1,0.1-0.3,0.2-0.5c0.1-0.3,0.2-0.4,0.3-0.4c0.1,0,0.3,0,0.6,0.1s0.5,0.1,0.6,0.1c0.6,0,1,0,1.3-0.1
		c0.2,0,0.3-0.1,0.3-0.1c0,0,0.1,0,0.1,0C213.3,211.6,213.2,211.7,213.1,211.8z M212.4,221.2c0,0.4-0.1,0.8-0.3,1.1
		c-0.1,0.2-0.2,0.3-0.2,0.3c0,0-0.1-0.1-0.1-0.4c0-1.2-0.2-4-0.6-8.5l0.8-0.8c0.1-0.1,0.1-0.1,0.1-0.1c0,0,0,0.1,0,0.2
		C212.4,214.4,212.4,217.1,212.4,221.2z" id="PATH_116" class="area" title=""></path>
</g>
</svg>


