<?xml version="1.0" encoding="UTF-8"?><svg id="Layer_1" xmlns="http://www.w3.org/2000/svg" viewBox="0 0 837.39 1051.72"><defs><style>.cls-1{fill:#fff;stroke:#000;stroke-miterlimit:10;stroke-width:.5px;}.cls-2{fill:#dbeccb;}.cls-2,.cls-3,.cls-4,.cls-5,.cls-6{stroke-miterlimit:21.01;stroke-width:.42px;}.cls-2,.cls-3,.cls-4,.cls-6{stroke:#020202;}.cls-3{fill:#fbd1d1;}.cls-4{fill:#e8d0e5;}.cls-5{fill:#d3d3d3;stroke:#030303;}.cls-6{fill:#fdfad6;}</style></defs><path id="_893" class="cls-2" d="m396.26,122.06c-1.7,3.4-10.3,3.4-15.5,8.6-3.4,6.9-3.4,15.5,0,20.6,18.9,30.9,58.4,42.9,49.8,87.6-1.7,8.6,10.3,17.2,20.6,17.2,34.5,5.3,79-15.5,96.2,24,5.3,13.7,3.4,29.2,17.2,36.1,8.6,3.4,17.2,1.7,25.8,6.9,12.41,8.24,19.24,27.51,31.16,28.72,3.58.36,6.26-1.1,10.04-2.92,12.35-5.95,17.63-17.41,19.37-21.76l19.13-18.84c-8.17-7.33-16.33-14.67-24.5-22,.08-15.59.16-31.19.24-46.78,2.59-17.07,5.17-34.15,7.76-51.22,11-10.3,22-20.6,33-30.9-3.74-1.27-6.38-2.93-8-4.1-12.09-8.73-13.4-23.61-13.4-25.6,0-2.3,0-4.6.2-6.7.4-15.1.8-27.1-19.1-40.3-25.4-17-78.6-52.3-95.8-60.9-13-6.5-52.3-15.8-69.3-19.5v13.7c0,8,4.6,13.9,9.5,20.2,6.1,8,13.9,17.9,7.4,30.9-6.1,12-18.5,21.2-31.5,23.3-2.1.4-4,.4-6.1.4-10.7,0-21.2-4.6-30-13.4-.2-.2-.6-.6-.8-.8-17,9.3-25.2,28.4-33.4,47.5Z"/><path id="_896" class="cls-4" d="m835.86,328.46c-1.5-2.9-4.2-4.8-8.4-6.3-15.8-5.3-34.5-13-41.8-26.1-11.1,6.7-25.2,10.1-37.2,14.9-20.6,6.9-41.2-8.6-63.7-6.9-27.5,1.7-34.2,30.9-53.2,44.8-18.9,12-25.8-15.5-41.2-25.8-8.6-5.3-17.2-3.4-25.8-6.9-.8-.4-1.9-1.1-2.5-1.5.4,7.6,1.7,15.1.8,22.1-1.7,17.2-20.6,17.2-25.8,30.9-6.9,20.6,20.6,27.5,36.1,37.8,6.7,5.3,6.7,12,6.7,18.9,1.7,8.6,12,13.7,18.9,15.5,17.2,5.3,36.1-6.9,51.5,0,13.7,6.9,30.9,20.6,32.6,36.1,1.1,13.2,5.7,22.9,12.6,30.5,10.9-12.6,24.8-21.6,41.8-21.6,42.7,0,67.9-10.7,67.9-28.6,0-16.4,8.6-42.4,15.5-63.5,2.9-8.8,5.3-16.4,6.7-21.4.8-3.6,2.3-7.6,3.8-11.8,3.8-10.7,8.3-23.8,4.7-31.1Z"/><path id="_964" class="cls-6" d="m336.16,338.56c3.4-1.7,8.6-1.7,12,0,8.6,10.3,8.6,37.8,24,30.9,17.2-8.6,32.6-27.5,51.5-20.6,25.8,8.6,29.2,41.2,8.6,63.7-8.6,8.6,10.3,17.2,20.6,12,12-8.6,15.5-24,25.8-25.8,23.1-5,46.9-3.6,68.1-8.2-8-5.7-13.2-12.4-9.7-22.9,5.3-13.7,24-13.7,25.8-30.9.8-7.1-.4-14.7-.8-22.1-10.9-7.6-9.9-21.6-14.5-34.5-17.2-39.5-61.8-18.9-96.2-24-10.3,0-22.3-8.6-20.6-17.2,8.6-44.8-30.9-56.7-49.8-87.6-3.4-5.3-3.4-13.7,0-20.6,5.3-5.3,13.7-5.3,15.5-8.6,8.2-19.1,16.4-38.2,33.2-47.7-11.8-10.9-24.8-6.9-40.1-2.3-8,2.5-16.4,5-24.4,5-12,0-21.4-7.1-31.3-14.7-11.3-8.6-24-18.3-43.9-20.4-40.3-4.4-71.4-22.1-72.7-22.7l-1.3-.6-.8-1.3c-.4-.6-4.6-6.5-10.1-14.5-11.8,10.5-48.1,42.9-60.1,54.8-17.9,17.9-85.7,25.2-109.9,25.2-2.1,0-3.6.4-4,.8-2.9,4.4,4.6,22.3,9.2,33.2,5.3,12.2,10.1,24,10.1,32.4,0,12,19.8,31.3,33,44.3,6.3,6.1,11.8,11.6,15.3,16,4.4,5.5,10.7,11.1,17,16.8,10.3,9,20.8,18.5,24.8,28.8,3.8,9.7,29.8,37.8,45.4,53.4l1.9,1.9v38.9c25,2.5,50.8,1.5,73.1,10.1,30.8,11.5,53.1,1.2,75.3-21Z"/><path id="PATH_6" class="cls-5" d="m437.46,405.96c.2-.2.4-.6.6-.8-.2.2-.4.2-.4.4,0,0-.2.2-.2.4Z"/><path id="_892" class="cls-4" d="m152.56,652.86c25.8-6.9,39.5-22.3,53.2-42.9,3.4-3.4,12-1.7,12-5.3,1.7-10.3,5.3-18.9,12-25.8,3.4-5.3-1.7-12-3.4-17.2-10.3-15.5-29.2-24-36.1-39.5-10.3-22.3-12-46.4-20.6-68.7-2.7-5.7-2.1-13.7,0-20.2h-.4c-1.7,0-3.4.2-5.7.2-10.1.6-27.1,1.7-65.3-3.2-38.7-4.8-62.2,23.3-66.2,28.6,3.2,2.7,5.5,5.7,6.1,9.9,1.3,7.6-3.2,15.3-14.7,26.9-20.4,20.4-27.7,52.7-20.6,66.8,4,7.8,5.5,20.6,6.9,34,1.9,16.2,4.4,38.2,12,42,17.9,8.8,30.7,12.8,55.1,17,23.1,3.8,46,14.1,52.5,17.2,7.4-7.4,14.2-16.7,23.2-19.8Z"/><path id="_894" class="cls-3" d="m276.06,566.96h0c-3.4-37.8,36.1-63.7,65.3-77.3,8.6-3.4,10.3-13.7,13.7-24,1.7-5.3,6.9-10.3,12-10.3,28.6,1.5,54.8-9,65.8-33.6-2.9-2.5-4-5.9-.6-9.5,1.9-2.1,3.6-4.2,5-6.3v-.4q.2-.2.4-.4c14.1-21.6,8.8-48.5-14.3-56.3-18.9-6.9-34.5,12-51.5,20.6-15.5,6.9-15.5-20.6-24-30.9-3.4-1.7-8.6-1.7-12,0-22.3,22.3-44.8,32.6-75.6,20.6-22.3-8.6-48.3-7.6-73.1-10.1v34c0,18.7-2.3,49.8-17.9,50.4-2.3,6.5-2.9,14.5,0,20.2,8.6,22.3,10.3,46.4,20.6,68.7,6.9,15.5,25.8,24,36.1,39.5,1.5,4.2,4.8,9.2,4.6,13.9,14.9,2.5,30.6-3.6,45.5-8.8Z"/><path id="_880" class="cls-6" d="m166.16,785.06c17.2,12,34.2,6.9,49.8,24,5.3,3.4,12,3.4,17.2,1.7,13.7-10.3,32.6-15.5,42.9-8.6,10.3,8.6,6.9,41.2,25.8,27.5,15.5-10.3,30.9-12,48.1-17.2,10.3-1.7,10.3-15.5,17.2-24,3.4-5.3,13.7,0,15.5-6.9,1.7-10.3,5.3-22.3,0-32.6-1.7-5.3-8.6-12-3.4-15.5,15.1-15.1,18.1-31.7,15.5-49-1.9-1.3-3.8-2.7-5.3-4.4-32.6-37.8-61.8-77.3-104.8-103.2-3.4-3.4-6.9-6.9-8.6-10.3-14.9,5.3-30.9,11.1-45.2,8.6,0,1.3-.4,2.3-1.1,3.4-6.9,6.9-10.3,15.5-12,25.8,0,3.4-8.6,1.7-12,5.3-13.7,20.6-27.5,36.1-53.2,42.9-9,3.4-15.8,12.4-23.1,20,1.1.4,1.7.8,1.9.8l3.2,1.7.4,3.6c.2,1.9,4.4,44.3,4.4,57.6,0,3.8-1.9,8.4-4.6,13.4,6.2,14.8,16.7,26.1,31.4,35.4Z"/><path id="_887" class="cls-3" d="m657.86,981.86c-18.1-22.5-43.9-95.2-45-98.3l-22.1-74.8c-.6-2.1-9.2-43.3,9.9-67.2,6.3-8,9.5-17.2,12.6-26.3,1.3-3.8,2.5-7.6,4.2-11.1-12.4-6.5-23.7-14.5-30.7-27.1-5.3-10.3,15.5-18.9,6.9-22.3-22.3-10.3-51.5-6.9-77.3,1.7-20.6,5.3-36.1-10.3-53.2-15.5-25.8-10.3-22.3,20.6-30.9,36.1-7.4,13.2-26.1,15.1-37.8,7.8,2.5,17-.2,33.6-15.5,49-5.3,3.4,1.7,10.3,3.4,15.5,5.3,10.3,1.7,22.3,0,32.6-1.7,6.9-12,1.7-15.5,6.9-6.9,8.6-6.9,22.3-17.2,24-17.2,5.3-32.6,6.9-48.1,17.2-7.4,5.5-11.3,3.6-14.1-1.1-4.8,16-4.4,30.9,7.1,38.9,24,13.7,46.4,27.5,55.1,58.4,0,5.3,8.6,8.6,8.6,13.7-1.3,16.4.6,30.7,10.9,41,9.5-4.2,20.4-5,30.5-5,5.9,0,12.6-.6,20-1.3,21-2.1,42.9-4,51.3,8.6,4.2,6.3,12,16.2,19.5,25.8,7.6,9.7,15.5,20,20,26.7,6.7,10.1,38.7,18.5,49.4,14.9,4.6-1.5,11.1-4.2,18.7-6.9,14.1-5.3,31.3-12.2,43.1-15.1,11.6-2.9,33-18.9,37.8-33,2.2-5.6,1.6-10-1.6-13.8Z"/><path id="_890" class="cls-2" d="m358.66,939.66c0-5.3-8.6-8.6-8.6-13.7-8.6-30.9-30.9-44.8-55.1-58.4-11.6-8-12-22.9-7.1-38.9-4.2-7.1-5.5-21.2-11.6-26.5-10.3-6.9-29.2-1.7-42.9,8.6-5.3,1.7-12,1.7-17.2-1.7-15.5-17.2-32.6-12-49.8-24-14.7-9.2-25.2-20.8-31.5-35.1-8.4,14.9-25.8,33-32.4,39.5l-34.9,39.1c-1.1,1.1-18.3,18.9-8,36.1,12.2,20.4,18.9,27.5,46.9,27.5,34,0,53.8,10.5,59,31.3,4,16.2,12.6,50.2,36.8,66.2s75.6,36.4,81.5,38.5c11.8,2.3,43.3,5.7,56.3-3.6,3.2-2.3,4.8-5,5.5-8.6,2.9-20,12.4-30.3,24.2-35.5-10.7-10.1-12.6-24.4-11.1-40.8Z"/><path id="_897" class="cls-2" d="m641.06,686.26c19.1,0,24.2-21.4,24.2-32.8,0-17-4.4-73.5-4.4-74v-1.1l.2-1.1c.6-2.5,11.3-44.3,34.9-71-6.7-7.6-11.6-17.2-12.6-30.5-1.7-15.5-18.9-29.2-32.6-36.1-15.5-6.9-34.5,5.3-51.5,0-6.9-1.7-17.2-6.9-18.9-15.5,0-6.9,0-13.7-6.9-18.9-7.8-5-18.5-9.5-26.3-14.9-21.2,4.4-45,3.2-68.1,8.2-10.3,1.7-13.7,17.2-25.8,25.8-6.1,3.2-15.5,1.3-20-2.7-10.9,24.4-37.2,34.9-65.8,33.6-5.3,0-10.3,5.3-12,10.3-3.4,10.3-5.3,20.6-13.7,24-29.2,13.7-68.7,39.5-65.3,77.3,1.7,3.4,5.3,6.9,8.6,10.3,42.9,25.8,72.1,65.3,104.8,103.2,10.3,12,34.5,12,42.9-3.4,8.6-15.5,5.3-46.4,30.9-36.1,17.2,5.3,32.6,20.6,53.2,15.5,25.8-8.6,55.1-12,77.3-1.7,8.6,3.4-12,12-6.9,22.3,6.9,12.6,18.3,20.6,30.7,27.1,4-10,10.1-17.8,23.1-17.8Z"/><g id="G_13"><path id="PATH_14" d="m550.46,179.46c.2.6.2,1.3.2,1.9,0,.8-.2,1.5-.4,2.3-.6,1.5-1.7,2.7-3.8,3.6-1.7.6-3.4,1.1-5.3,1.1s-3.4-.4-4.6-1.3c-1.3-1.1-1.9-2.3-1.9-4.2,0-1.1.2-1.9.6-3.2.4-.8.6-1.5,1.1-1.9.2-.2.4-.2.4-.2q.2,0,.2.2v.4c-.6,1.3-.8,2.5-.8,3.6s.4,1.9,1.1,2.7c.8,1.1,2.3,1.5,4.2,1.5,2.1,0,4-.4,5.5-1.1,1.3-.6,2.1-1.3,2.5-2.1.2-.2.2-.6.2-.8,0-.6-.2-1.3-.4-2.1-.2-.6-.8-1.7-1.9-3.4l.8-1.7c.2-.2.2-.4.2-.4,0,0,.2,0,.2.2,1.1,1.5,1.7,3.2,1.9,4.9Zm-6.3-9.2l-1.7,1.7-1.7-1.7,1.7-1.7,1.7,1.7Z"/><path id="PATH_15" d="m561.26,179.86c0,2.1-.6,4-1.9,5.9-1.1,1.5-2.1,2.3-2.7,2.3-1.7,0-2.9,0-4.2-.2-.4,0-.6-.2-.6-.2,0,0,.2-.2.6-.2,1.7-.4,3.4-1.3,5-2.5,1.7-1.5,2.7-2.9,2.7-4.4,0-.8-.6-2.1-2.1-3.6l1.1-1.9c0-.2.2-.2.2-.2l.2.2c.4.6,1.1,1.5,1.3,2.5.2.6.4,1.5.4,2.3Zm-1.5-11.3l-1.7,1.7-1.7-1.7,1.7-1.7,1.7,1.7Z"/><path id="PATH_16" d="m571.96,179.86c0,2.1-.6,4-1.9,5.9-1.1,1.5-2.1,2.3-2.7,2.3-1.7,0-2.9,0-4.2-.2-.4,0-.6-.2-.6-.2,0,0,.2-.2.6-.2,1.7-.4,3.4-1.3,5-2.5,1.7-1.5,2.7-2.9,2.7-4.4,0-.8-.6-2.1-2.1-3.6l1.1-1.9c0-.2.2-.2.2-.2l.2.2c.4.6,1.1,1.5,1.3,2.5.2.6.4,1.5.4,2.3Z"/></g><g id="G_17"><path id="PATH_18" d="m228.36,247.96h-1.3c-1.1,0-2.3-.4-3.4-1.5-.8-.6-1.7-1.9-2.7-3.4,0,1.9-.6,3.2-2.1,4-1.1.6-2.7.8-4.8.8h-4.4c-5,0-7.8-1.5-7.8-4.4,0-1.1.4-2.1,1.1-3.2l.4-.4q.2,0,.2.2v.4c-.2.8-.4,1.3-.4,1.9,0,.8.4,1.5,1.1,1.9,1.1.8,2.7,1.3,5,1.3h4.2c4.2,0,6.5-.8,6.5-2.5,0-1.3-.8-2.7-2.7-4.4-.8-.8-1.7-1.5-2.7-2.3,0-.8.2-1.5.6-2.1.2-.2,4-1.5,11.6-3.8,0,.2-.2,1.1-.6,2.3-1.9.4-5,1.5-9.2,2.7,2.3,2.3,4.2,4.4,5.7,6.3,1.1,1.1,1.7,1.9,2.3,2.3.8.6,1.9,1.1,2.9,1.1h.8v2.7h-.3v.1Zm-2.3-20.2l-.4,1.7-10.3,3.4.4-1.5,10.3-3.6Z"/><path id="PATH_19" d="m238.66,247.96h-1.7c-1.9,0-3.2-.6-4-1.9-.6,1.3-2.1,1.9-4.4,1.9h-1.3v-2.5h1.9c2.1,0,3.2-.8,3.4-2.3,0-.6.2-1.1.4-1.1s.4.4.4,1.1c.2,1.5,1.3,2.3,3.2,2.3h1.9v2.5h.2Zm-4.2-10.9l-1.7,1.7-1.7-1.7,1.7-1.7,1.7,1.7Z"/><path id="PATH_20" d="m251.56,243.76c0,.8-.2,1.7-.8,2.5-.6,1.1-1.3,1.5-2.1,1.5-.6,0-2.1-.4-4.4-1.5-1.9,1.3-3.6,1.7-5,1.7h-1.3v-2.5h1.3c.8,0,1.7,0,2.5-.2-.8-.6-1.3-1.5-1.3-2.5,0-1.3.8-2.7,2.7-4.2l-1.5-.6c.4-.4,1.1-1.1,1.9-1.9,1.9,1.1,3.6,1.9,5,3.2,1.9,1.6,3,3,3,4.5Zm-5.5-1.7c0-.6-.2-1.1-.4-1.5-.2-.6-.6-.8-1.3-.8s-1.1.2-1.7.6c-.6.4-1.1,1.1-1.1,1.5,0,.8.8,1.7,2.3,2.1.4-.2.8-.4,1.3-.6.5-.4.9-.9.9-1.3Zm4.4,2.5c0-.6-.4-1.3-1.3-2.1-.6-.6-1.3-1.3-1.9-1.5,0,1.7-.4,2.9-1.5,3.8,1.7.6,2.9.8,3.4.8.9-.1,1.3-.3,1.3-1Z"/><path id="PATH_21" d="m259.96,225.46c-.8.8-2.1,1.1-3.4,1.1h-1.6c-.2,0-.4.2-.6.4s-.4.4-.4.4c-.2,0-.2-.2-.2-.4s.2-.6.4-1.1c.2-.6.4-.8.6-.8s.6,0,1.3.2c.6,0,1.1.2,1.3.2,1.3,0,2.1,0,2.7-.2.4,0,.6-.2.6-.2h.2c-.5,0-.7.2-.9.4Zm-1.3,20c0,.8-.2,1.7-.6,2.3-.2.4-.4.6-.4.6,0,0-.2-.2-.2-.8,0-2.5-.4-8.4-1.3-17.9l1.7-1.7.2-.2v.4c.4,2.8.6,8.5.6,17.3Z"/><path id="PATH_22" d="m270.46,248.16c0,2.1-.6,4-1.9,5.9-1.1,1.5-2.1,2.3-2.7,2.3-1.7,0-2.9,0-4.2-.2-.4,0-.6-.2-.6-.2,0,0,.2-.2.6-.2,1.7-.4,3.4-1.3,5-2.5,1.7-1.5,2.7-2.9,2.7-4.4,0-.8-.6-2.1-2.1-3.6l1.1-1.9c0-.2.2-.2.2-.2l.2.2c.4.6,1.1,1.5,1.3,2.5.2.6.4,1.5.4,2.3Z"/><path id="PATH_23" d="m283.26,243.56c0,2.9-1.9,4.4-5.9,4.4-1.5,0-2.5-.2-3.2-.6-.8-.4-1.3-1.5-1.3-2.7,0-.6.2-1.3.4-1.9.2-.2.2-.4.4-.4s.2.2.2.6v.6c0,.8.4,1.5,1.3,1.7.4.2,1.3.2,2.3.2,3.2,0,4.6-.4,4.6-1.5,0-1.5-1.9-3.6-5.5-6.1l.6-2.1c0-.2.2-.2.2-.2,0,0,.2,0,.4.2,3.8,2.7,5.5,5.5,5.5,7.8Z"/><path id="PATH_24" d="m296.26,247.96h-2.3c-.2,2.9-1.3,5.3-3.4,7.4-.6.6-1.1,1.1-1.3,1.1-1.1,0-2.5-.2-4-.4-.4,0-.8-.2-.8-.2,0,0,.2-.2.8-.4,1.7-.4,3.4-1.5,4.8-2.5.6-.6,1.3-1.1,1.7-1.9.6-.8,1.1-1.7,1.1-2.3v-.6h-2.7c-2.1,0-2.9-.8-2.9-2.5,0-1.1.2-2.1.8-3.4s1.5-2.1,2.3-2.1c1.1,0,1.9.6,2.5,2.1.4,1.1.8,2.1.8,3.4h2.3v2.5h.3v-.2Zm-3.8-2.5c0-.6-.2-1.3-.6-1.9-.4-.8-1.1-1.1-1.7-1.1-.4,0-.8.2-1.1.4-.4.4-.4.6-.4,1.3,0,1.1.8,1.5,2.5,1.5.3,0,.7-.2,1.3-.2Z"/><path id="PATH_25" d="m306.56,247.96h-1.5c-1.9,0-3.2-.6-4-1.9-.6,1.3-2.1,1.9-4.4,1.9h-1.3v-2.5h1.9c2.1,0,3.2-.8,3.4-2.3,0-.6.2-1.1.4-1.1s.4.4.4,1.1c.2,1.5,1.3,2.3,3.2,2.3h1.9v2.5h0Zm-4.4,4.6l-1.7,1.7-1.7-1.7,1.7-1.7,1.7,1.7Z"/><path id="PATH_26" d="m319.56,228.46c0,.4-.4,1.3-.8,2.3l-5.3,1.7c-2.3.8-4,1.5-4.8,1.9,1.7,1.7,2.7,2.9,3.4,3.6,1.1,1.5,1.7,2.7,1.9,4.2,0,1.1,0,2.1-.4,2.9-.6,1.9-2.9,2.7-6.5,2.7h-1.1v-2.5h1.3c1.7,0,2.9,0,3.6-.2,1.5-.4,2.3-1.1,2.3-2.1,0-1.5-1.1-3.2-3.4-5.3l-.2.4c-.2-.2-.6-.6-1.1-1.3-.6-.6-.8-1.3-.8-1.3,0-.4,0-.8.2-1.7s.4-1.3.6-1.5,1.7-.8,4.4-1.7c2.3-.7,4.8-1.5,6.7-2.1Z"/></g><g id="G_27"><path id="PATH_28" d="m696.76,390.46h-1.1c-1.1,0-1.7,0-2.1-.2,0,.6.2,1.1.2,1.7,0,1.1-.2,1.7-.4,2.3-.6,1.5-1.7,2.7-3.8,3.6-1.7.6-3.4,1.1-5.3,1.1s-3.4-.4-4.6-1.3c-1.3-1.1-1.9-2.3-1.9-4.2,0-1.1.2-1.9.6-3.2.4-.8.6-1.5,1.1-1.9.2-.2.4-.2.4-.2q.2,0,.2.2v.4c-.6,1.3-.8,2.5-.8,3.6s.4,1.9,1.1,2.7c.8,1.1,2.3,1.5,4.2,1.5,2.1,0,4-.4,5.5-1.1,1.3-.6,2.1-1.3,2.5-2.1.2-.2.2-.6,0-1.5,0-.6-.2-1.3-.2-1.5-.2-.6-1.1-1.7-2.1-3.2l.8-1.7c.2-.2.2-.4.2-.4,0,0,.2,0,.2.2,1.1,1.7,2.1,2.5,3.4,2.5h1.7v2.5h.2v.2Zm-9.3-9.3l-1.7,1.7-1.7-1.7,1.7-1.7,1.7,1.7Z"/><path id="PATH_29" d="m707.06,390.46h-1.7c-1.9,0-3.2-.6-4-1.9-.6,1.3-2.1,1.9-4.4,1.9h-1.1v-2.5h1.9c2.1,0,3.2-.8,3.4-2.3,0-.6.2-1.1.4-1.1s.4.4.4,1.1c.2,1.5,1.3,2.3,3.2,2.3h1.9v2.5h0Zm-6.9,4.6l-1.7,1.7-1.7-1.7,1.7-1.7,1.7,1.7Zm3.5,0l-1.7,1.7-1.7-1.7,1.7-1.7,1.7,1.7Z"/><path id="PATH_30" d="m717.36,390.46h-1.7c-1.9,0-3.2-.6-4-1.9-.6,1.3-2.1,1.9-4.4,1.9h-1.3v-2.5h1.9c2.1,0,3.2-.8,3.4-2.3,0-.6.2-1.1.4-1.1s.4.4.4,1.1c.2,1.5,1.3,2.3,3.2,2.3h1.9v2.5h.2Zm-4.2-10.8l-1.7,1.7-1.7-1.7,1.7-1.7,1.7,1.7Z"/><path id="PATH_31" d="m727.86,386.26c0,1.1,0,1.9-.4,2.7-.4,1.1-1.1,1.7-1.7,1.7-1.1,0-2.7-.6-4.8-2.1-.6.8-1.1,1.3-1.3,1.5-.6.4-1.3.6-2.1.6h-1.1v-2.5h1.5c.8,0,1.7-.4,2.5-1.5.4-.4,1.1-1.5,1.9-2.7.6-1.1,1.5-1.5,2.1-1.5,1.1,0,1.9.4,2.5,1.5.5.8.7,1.6.9,2.3Zm-1.3,1.6c0-.6-.2-1.3-.6-2.1-.4-.8-1.1-1.3-1.7-1.3s-1.3.6-2.1,1.9c.4.4,1.1.8,1.9,1.3.8.4,1.7.6,2.1.6.2.1.4.1.4-.4Z"/><path id="PATH_32" d="m736.06,390.46h-1.5c-1.5,0-2.7-.6-3.2-1.9-.4-.8-.6-2.3-.6-4v-4c0-1.9-.2-4.6-.4-8.2l1.3-1.5c.2-.2.4-.2.4,0,.2,1.9.4,4.6.4,8.2v6.1c0,1.7.8,2.5,2.5,2.5h1.1v2.8h0Z"/><path id="PATH_33" d="m744.26,384.56v.8c0,1.5-.2,2.3-.6,2.9-1.1,1.5-2.7,2.1-5.5,2.1h-2.9v-2.5h2.1c3.6,0,5.5-.6,5.9-1.7v-.4c0-.4,0-.6-.2-.8-.8.2-1.9.2-2.7.2-1.9,0-2.9-.8-2.9-2.5,0-1.1.2-2.3.8-3.4.6-1.3,1.5-1.9,2.5-1.9.8,0,1.7.6,2.3,1.7.8,1.7,1.2,3.4,1.2,5.5Zm-2.3-11.6l-1.7,1.7-1.7-1.7,1.7-1.7,1.7,1.7Zm.8,9.7c0-.6-.2-1.3-.6-1.9s-1.1-.8-1.7-.8c-.4,0-.8.2-1.3.4-.4.2-.4.6-.4,1.1,0,.8.6,1.3,2.1,1.3.4.3,1.1.1,1.9-.1Z"/></g><g id="G_34"><path id="PATH_35" d="m265.36,439.36c0,2.1-.6,4-1.9,5.9-1.1,1.5-2.1,2.3-2.7,2.3-1.7,0-2.9,0-4.2-.2-.4,0-.6-.2-.6-.2,0,0,.2-.2.6-.2,1.7-.4,3.4-1.3,5-2.5,1.7-1.5,2.7-2.9,2.7-4.4,0-.8-.6-2.1-2.1-3.6l1.1-1.9c0-.2.2-.2.2-.2l.2.2c.4.6,1.1,1.5,1.3,2.5.2.6.4,1.5.4,2.3Z"/><path id="PATH_36" d="m273.76,439.16h-1.5c-1.5,0-2.7-.6-3.2-1.9-.4-.8-.6-2.3-.6-4v-4c0-1.9-.2-4.6-.4-8.2l1.3-1.5c.2-.2.4-.2.4,0,.2,1.9.4,4.6.4,8.2v6.1c0,1.7.8,2.5,2.5,2.5h1.1v2.8Z"/><path id="PATH_37" d="m286.86,439.16h-1.1c-.8,0-1.7.2-2.3.4-1.1.4-1.7,1.1-1.7,2.1,0,1.3.8,2.3,2.5,3.4l-1.1,2.1c-1.9-.6-3.6-1.7-4.8-2.9-1.7-1.5-2.5-3.4-2.5-5.3h-2.9v-2.5h2.7c0-1.7.4-3.4,1.3-5.5.8-1.9,1.5-2.7,1.9-2.7s1.1.8,1.7,2.7c.6,1.7.8,2.7.8,3.4,0,2.9-1.5,4.4-4.4,4.4.2.8.6,1.7,1.3,2.5s1.5,1.5,2.3,1.9v-.8c0-1.5.4-2.7,1.1-3.8,1.1-1.5,2.3-2.3,4.2-2.3h.8v2.9h.2Zm-6.4-3.4c0-.4-.2-1.3-.6-2.3-.4-1.3-.8-1.7-1.3-1.7-.2,0-.6.4-1.1,1.5-.4,1.1-.6,2.3-.6,3.6,2.4-.2,3.6-.4,3.6-1.1Z"/><path id="PATH_38" d="m291.86,434.96c0,2.7-1.5,4.2-4.2,4.2h-1.7v-2.5h1.5c2.1,0,3.2-.4,3.2-1.1,0-.6-.4-1.5-1.5-2.5l.8-2.1c0-.2.2-.2.2-.2,0,0,.2.2.4.4.9,1.1,1.3,2.5,1.3,3.8Zm-.6,8.8l-1.7,1.7-1.7-1.7,1.7-1.7,1.7,1.7Z"/></g><g id="G_39"><path id="PATH_40" d="m462.46,544.86c.2.6.2,1.3.2,1.9,0,.8-.2,1.5-.4,2.3-.6,1.5-1.7,2.7-3.8,3.6-1.7.6-3.4,1.1-5.3,1.1s-3.4-.4-4.6-1.3c-1.3-1.1-1.9-2.3-1.9-4.2,0-1.1.2-1.9.6-3.2.4-.8.6-1.5,1.1-1.9.2-.2.4-.2.4-.2q.2,0,.2.2v.4c-.6,1.3-.8,2.5-.8,3.6s.4,1.9,1.1,2.7c.8,1.1,2.3,1.5,4.2,1.5,2.1,0,4-.4,5.5-1.1,1.3-.6,2.1-1.3,2.5-2.1.2-.2.2-.6.2-.8,0-.6-.2-1.3-.4-2.1-.2-.6-.8-1.7-1.9-3.4l.8-1.7c.2-.2.2-.4.2-.4,0,0,.2,0,.2.2,1.1,1.5,1.7,3.2,1.9,4.9Zm-6.1-9.3l-1.7,1.7-1.7-1.7,1.7-1.7,1.7,1.7Z"/><path id="PATH_41" d="m467.76,542.56c0,.8-.2,1.7-.6,2.3-.2.4-.4.6-.4.6,0,0-.2-.2-.2-.8,0-2.5-.4-8.4-1.3-17.9l1.7-1.7.2-.2v.4c.4,3,.6,8.7.6,17.3Z"/><path id="PATH_42" d="m484.16,545.06h-.8c-.8,0-1.5-.2-2.1-.8-.4-.4-.8-.8-1.3-1.7-.4.8-1.1,1.5-1.7,1.9-.8.4-1.9.6-3.6.6-2.9,0-4.4-1.1-4.4-3.2,0-.6.2-1.5.6-2.1.2-.2.2-.4.4-.4s.2.2.2.4v1.2c0,1.3,1.1,1.9,3.2,1.9,2.9,0,4.4-.6,4.4-1.7,0-.6-.8-2.9-2.5-6.9l.8-1.7c.2-.2.2-.4.2-.4,0,0,.2.2.2.4.6,1.7,1.7,4.2,2.9,7.6.6,1.7,1.5,2.5,2.7,2.5h.6v2.4h.2Z"/><path id="PATH_43" d="m499.06,545.06h-1.3c-1.1,0-2.1-.6-2.9-1.7-.6,1.7-1.3,2.5-1.9,2.5s-1.7-.4-2.9-1.1c-1.1-.6-1.9-1.3-2.3-1.7-1.1,1.3-2.1,1.9-3.2,1.9h-1.3v-2.5h1.3c1.1,0,1.9-.4,2.7-1.3.6-.6,1.3-1.5,2.1-2.3s1.5-1.3,2.1-1.3c.8,0,1.5.4,2.1,1.3.4.4.8,1.3,1.9,2.3.6.8,1.5,1.3,2.3,1.3h1.3v2.6h0Zm-5.7-1.7c0-.6-.2-1.3-.6-2.1s-1.1-1.3-1.9-1.3c-.6,0-1.5.6-2.3,1.7.2.2.8.6,1.9,1.3,1.1.6,1.9.8,2.5.8.4,0,.4-.2.4-.4Z"/><path id="PATH_44" d="m511.86,540.86c0,.8-.2,1.7-.8,2.5-.6,1.1-1.3,1.5-2.1,1.5-.6,0-2.1-.4-4.4-1.5-1.9,1.3-3.6,1.7-5,1.7h-1.1v-2.5h1.3c.8,0,1.7,0,2.5-.2-.8-.6-1.3-1.5-1.3-2.5,0-1.3.8-2.7,2.7-4.2l-1.5-.6,1.9-1.9c1.9,1.1,3.6,1.9,5,3.2,1.9,1.6,2.8,3,2.8,4.5Zm-5.5-1.7c0-.6-.2-1.1-.4-1.5-.2-.6-.6-.8-1.3-.8s-1.1.2-1.7.6-1.1,1.1-1.1,1.5c0,.8.8,1.7,2.3,2.1.4-.2.8-.4,1.3-.6.7-.4.9-.9.9-1.3Zm4.4,2.5c0-.6-.4-1.3-1.3-2.1-.6-.6-1.3-1.3-1.9-1.5,0,1.7-.4,2.9-1.5,3.8,1.7.6,2.9.8,3.4.8.9.1,1.3-.3,1.3-1Z"/></g><g id="G_45"><path id="PATH_46" d="m88.86,562.46c0,2.9-1.9,4.4-5.9,4.4-1.5,0-2.5-.2-3.2-.6-.8-.4-1.3-1.5-1.3-2.7,0-.6.2-1.3.4-1.9.2-.2.2-.4.4-.4s.2.2.2.6v.6c0,.8.4,1.5,1.3,1.7.4.2,1.3.2,2.3.2,3.2,0,4.6-.4,4.6-1.5,0-1.5-1.9-3.6-5.5-6.1l.6-2.1c0-.2.2-.2.2-.2,0,0,.2,0,.4.2,3.8,2.8,5.5,5.5,5.5,7.8Z"/><path id="PATH_47" d="m97.26,566.96h-1.5c-1.5,0-2.7-.6-3.2-1.9-.4-.8-.6-2.3-.6-4v-4c0-1.9-.2-4.6-.4-8.2l1.3-1.5c.2-.2.4-.2.4,0,.2,1.9.4,4.6.4,8.2v6.1c0,1.7.8,2.5,2.5,2.5h1.1v2.8Z"/><path id="PATH_48" d="m102.36,562.76c0,2.7-1.5,4.2-4.2,4.2h-1.7v-2.5h1.5c2.1,0,3.2-.4,3.2-1.1,0-.6-.4-1.5-1.5-2.5l.8-2.1c0-.2.2-.2.2-.2l.4.4c.9,1,1.3,2.5,1.3,3.8Zm-.7,8.8l-1.7,1.7-1.7-1.7,1.7-1.7,1.7,1.7Z"/><path id="PATH_49" d="m110.76,544.46c-.8.8-2.1,1.1-3.4,1.1h-1.6c-.2,0-.4.2-.6.4s-.4.4-.4.4c-.2,0-.2-.2-.2-.4s.2-.6.4-1.1c.2-.6.4-.8.6-.8s.6,0,1.3.2c.6.2,1.1.2,1.3.2,1.3,0,2.1,0,2.7-.2.4,0,.6-.2.6-.2h.2c-.5,0-.7.2-.9.4Zm-1.3,19.9c0,.8-.2,1.7-.6,2.3-.2.4-.4.6-.4.6,0,0-.2-.2-.2-.8,0-2.5-.4-8.4-1.3-17.9l1.7-1.7.2-.2v.4c.4,2.8.6,8.5.6,17.3Z"/><path id="PATH_50" d="m126.96,566.96h-.8c-.8,0-1.5-.2-2.1-.8-.4-.4-.8-.8-1.3-1.7-.4.8-1.1,1.5-1.7,1.9-.8.4-1.9.6-3.6.6-2.9,0-4.4-1.1-4.4-3.2,0-.6.2-1.5.6-2.1.2-.2.2-.4.4-.4s.2.2.2.4v1.2c0,1.3,1.1,1.9,3.2,1.9,2.9,0,4.4-.6,4.4-1.7,0-.6-.8-2.9-2.5-6.9l.8-1.7c.2-.2.2-.4.2-.4,0,0,.2.2.2.4.6,1.7,1.7,4.2,2.9,7.6.6,1.7,1.5,2.5,2.7,2.5h.6l.2,2.4h0Z"/><path id="PATH_51" d="m143.56,562.46c0,1.3-.2,2.3-.8,3.2-.6.8-1.7,1.5-2.7,1.5-1.5,0-2.3-.6-2.9-1.7-.8,1.3-1.7,1.7-2.9,1.7-1.5,0-2.5-.6-3.2-1.7-.8,1.3-1.9,1.7-3.4,1.7h-1.5v-2.5h1.7c1.5,0,2.5-.8,2.7-2.5,0-.4.2-.6.4-.6s.2.2.4.6c.2,1.7,1.1,2.5,2.7,2.5.8,0,1.7-.2,2.1-.6.2-.4.4-.8.6-1.7,0-.4.2-.6.4-.6s.2.2.4.6c.2,1.7,1.1,2.5,2.5,2.5,1.7,0,2.3-.4,2.3-1.1s-.4-1.5-1.3-2.3l1.1-1.9c.2-.2.2-.4.4-.4s.2.2.4.4c.3.8.6,1.9.6,2.9Z"/><path id="PATH_52" d="m148.56,564.36c0,.8-.2,1.7-.6,2.3-.2.4-.4.6-.4.6,0,0-.2-.2-.2-.8,0-2.5-.4-8.4-1.3-17.9l1.7-1.7.2-.2v.4c.6,3,.6,8.7.6,17.3Z"/></g><g id="G_53"><path id="PATH_54" d="m238.86,712.06c.2.6.2,1.3.2,1.9,0,.8-.2,1.5-.4,2.3-.6,1.5-1.7,2.7-3.8,3.6-1.7.6-3.4,1.1-5.3,1.1s-3.4-.4-4.6-1.3c-1.3-1.1-1.9-2.3-1.9-4.2,0-1.1.2-1.9.6-3.2.4-.8.6-1.5,1.1-1.9.2-.2.4-.2.4-.2q.2,0,.2.2v.4c-.6,1.3-.8,2.5-.8,3.6s.4,1.9,1.1,2.7c.8,1.1,2.3,1.5,4.2,1.5,2.1,0,4-.4,5.5-1.1,1.3-.6,2.1-1.3,2.5-2.1.2-.2.2-.6.2-.8,0-.6-.2-1.3-.4-2.1-.2-.6-.8-1.7-1.9-3.4l.8-1.7c.2-.2.2-.4.2-.4,0,0,.2,0,.2.2,1.1,1.6,1.7,3.3,1.9,4.9Zm-6-9.2l-1.7,1.7-1.7-1.7,1.7-1.7,1.7,1.7Z"/><path id="PATH_55" d="m247.56,712.36h-1.5c-1.5,0-2.7-.6-3.2-1.9-.4-.8-.6-2.3-.6-4v-4c0-1.9-.2-4.6-.4-8.2l1.3-1.5c.2-.2.4-.2.4,0,.2,1.9.4,4.6.4,8.2v6.1c0,1.7.8,2.5,2.5,2.5h1.1v2.8Z"/><path id="PATH_56" d="m260.56,692.76c0,.4-.4,1.3-.8,2.3l-5.3,1.7c-2.3.8-4,1.5-4.8,1.9,1.7,1.7,2.7,2.9,3.4,3.6,1.1,1.5,1.7,2.7,1.9,4.2,0,1.1,0,2.1-.4,2.9-.6,1.9-2.9,2.7-6.5,2.7h-1.1v-2.5h1.3c1.7,0,2.9,0,3.6-.2,1.5-.4,2.3-1.1,2.3-2.1,0-1.5-1.1-3.2-3.4-5.3l-.2.4c-.2-.2-.6-.6-1.1-1.3-.6-.6-.8-1.3-.8-1.3,0-.4,0-.8.2-1.7s.4-1.3.6-1.5,1.7-.8,4.4-1.7c2.3-.6,4.6-1.5,6.7-2.1Z"/><path id="PATH_57" d="m272.56,712.36h-.8c-.8,0-1.3-.2-1.7-.4v.6c0,1.9-.6,3.8-1.9,5.7-1.1,1.7-2.1,2.3-2.7,2.3-1.7,0-2.9,0-4.2-.2-.4,0-.6-.2-.6-.2,0,0,.2-.2.6-.2,1.7-.4,3.4-1.3,5-2.5,1.7-1.5,2.7-2.9,2.7-4.4,0-.8-.6-2.1-2.1-3.6l1.1-1.9c0-.2.2-.2.2-.2l.2.2c.6.8,1.1,1.5,1.5,1.7.6.4,1.5.8,2.3.8h.6v2.3h-.2Z"/><path id="PATH_58" d="m292.06,712.36h-1.3c-1.5,0-2.3-.6-2.9-1.7-.4,1.3-1.5,1.7-2.7,1.7-1.3,0-2.1-.6-2.7-1.7-.6,1.3-1.5,1.7-2.7,1.7-1.5,0-2.5-.6-3.2-1.7-.8,1.3-1.9,1.7-3.4,1.7h-1.5v-2.5h1.7c1.5,0,2.5-.8,2.7-2.5,0-.4.2-.6.4-.6s.2.2.4.6c.2,1.7,1.1,2.5,2.7,2.5,1.5,0,2.5-.8,2.5-2.5,0-.4.2-.6.4-.6s.4.2.4.6c.2,1.7,1.1,2.5,2.1,2.5,1.5,0,2.5-.8,2.5-2.5,0-.4.2-.6.4-.6s.4.2.4.6c.2,1.7,1.1,2.5,2.5,2.5h1.3v2.5h0Z"/><path id="PATH_59" d="m297.06,708.16c0,2.7-1.5,4.2-4.2,4.2h-1.7v-2.5h1.5c2.1,0,3.2-.4,3.2-1.1s-.4-1.5-1.5-2.5l.8-2.1c0-.2.2-.2.2-.2l.4.4c.9,1,1.3,2.5,1.3,3.8Zm-1.6,8.8l-1.7,1.7-1.7-1.7,1.7-1.7,1.7,1.7Zm3.5,0l-1.7,1.7-1.7-1.7,1.7-1.7,1.7,1.7Z"/><path id="PATH_60" d="m312.06,712.36h-2.3c-.2,2.9-1.3,5.3-3.4,7.4-.6.6-1.1,1.1-1.3,1.1-1.1,0-2.5-.2-4-.4-.4,0-.8-.2-.8-.2,0,0,.2-.2.8-.4,1.7-.4,3.4-1.5,4.8-2.5.6-.6,1.3-1.1,1.7-1.9.6-.8,1.1-1.7,1.1-2.3v-.6h-2.7c-2.1,0-2.9-.8-2.9-2.5,0-1.1.2-2.1.8-3.4.6-1.3,1.5-2.1,2.3-2.1,1.1,0,1.9.6,2.5,2.1.4,1.1.8,2.1.8,3.4h2.3v2.5h.3v-.2Zm-3.8-2.6c0-.6-.2-1.3-.6-1.9-.4-.8-1.1-1.1-1.7-1.1-.4,0-.8.2-1.1.4-.4.4-.4.6-.4,1.3,0,1.1.8,1.5,2.5,1.5.2,0,.7-.2,1.3-.2Z"/><path id="PATH_61" d="m317.06,708.16c0,2.7-1.5,4.2-4.2,4.2h-1.7v-2.5h1.5c2.1,0,3.2-.4,3.2-1.1s-.4-1.5-1.5-2.5l.8-2.1c0-.2.2-.2.2-.2l.4.4c.9,1,1.3,2.5,1.3,3.8Zm-1.9-9.3l-1.7,1.7-1.7-1.7,1.7-1.7,1.7,1.7Zm3.6,0l-1.7,1.7-1.7-1.7,1.7-1.7,1.7,1.7Z"/></g><g id="G_62"><path id="PATH_63" d="m448.86,858.36h-.8c-.8,0-1.3-.2-1.7-.4v.6c0,1.9-.6,3.8-1.9,5.7-1.1,1.7-2.1,2.3-2.7,2.3-1.7,0-2.9,0-4.2-.2-.4,0-.6-.2-.6-.2,0,0,.2-.2.6-.2,1.7-.4,3.4-1.3,5-2.5,1.7-1.5,2.7-2.9,2.7-4.4,0-.8-.6-2.1-2.1-3.6l1.1-1.9c0-.2.2-.2.2-.2l.2.2c.6.8,1.1,1.5,1.5,1.7.6.4,1.5.8,2.3.8h.6v2.3h-.2Z"/><path id="PATH_64" d="m453.86,854.16c0,2.7-1.5,4.2-4.2,4.2h-1.7v-2.5h1.5c2.1,0,3.2-.4,3.2-1.1s-.4-1.5-1.5-2.5l.8-2.1c0-.2.2-.2.2-.2l.4.4c.9,1.1,1.3,2.5,1.3,3.8Zm-1.7,8.8l-1.7,1.7-1.7-1.7,1.7-1.7,1.7,1.7Zm3.6,0l-1.7,1.7-1.7-1.7,1.7-1.7,1.7,1.7Z"/><path id="PATH_65" d="m475.46,858.36h-1.3c-2.5,0-4-1.9-4-5.7v-1.9c-1.7,4-3.6,6.9-6.1,8.6-1.5.4-3.4.6-5.5.6h-.6s.6-.4,1.9-1.1c.8-.4,1.7-.8,2.5-1.3,1.5-.6,2.9-1.7,4.2-3.2-.6-2.1-1.5-4-2.7-5.7-.8-1.1-2.1-2.3-4-3.8l-.2.8c-.6-.4-1.1-.8-1.5-1.3-.6-.6-1.1-1.1-1.1-1.5s0-1.1.2-2.1c0-.2,0-.4.2-.4s.2,0,.4.2c2.7,1.9,4.8,3.8,6.1,5.5,1.7,2.1,2.7,4.4,3.4,7.1.8-1.1,1.5-2.1,1.9-3.4.6-1.5.8-2.7.8-3.8,0-1.9-.2-4-.4-6.3l1.7-1.5c.2,1.1.2,5.9.4,14.5,0,1.9.8,2.9,2.5,2.9h1.1l.1,2.8h0Z"/><path id="PATH_66" d="m485.76,854.16c0,1.1,0,1.9-.4,2.7-.4,1.1-1.1,1.7-1.7,1.7-1.1,0-2.7-.6-4.8-2.1-.6.8-1.1,1.3-1.3,1.5-.6.4-1.3.6-2.1.6h-1.1v-2.5h1.5c.8,0,1.7-.4,2.5-1.5.4-.4,1.1-1.5,1.9-2.7.6-1.1,1.5-1.5,2.1-1.5,1.1,0,1.9.4,2.5,1.5.7.8.9,1.4.9,2.3Zm-1.2,1.5c0-.6-.2-1.3-.6-2.1s-1.1-1.3-1.7-1.3-1.3.6-2.1,1.9c.4.4,1.1.8,1.9,1.3.8.4,1.7.6,2.1.6.4.2.4,0,.4-.4Z"/></g><g id="G_67"><path id="PATH_68" d="m204.06,890.46h-.8c-.8,0-1.5-.2-2.1-.8-.4-.4-.8-.8-1.3-1.7-.4.8-1.1,1.5-1.7,1.9-.8.4-1.9.6-3.6.6-2.9,0-4.4-1.1-4.4-3.2,0-.6.2-1.5.6-2.1.2-.2.2-.4.4-.4s.2.2.2.4v1.2c0,1.3,1.1,1.9,3.2,1.9,2.9,0,4.4-.6,4.4-1.7,0-.6-.8-2.9-2.5-6.9l.8-1.7c.2-.2.2-.4.2-.4,0,0,.2.2.2.4.6,1.7,1.7,4.2,2.9,7.6.6,1.7,1.5,2.5,2.7,2.5h.6v2.4h.2Z"/><path id="PATH_69" d="m209.06,886.26c0,2.7-1.5,4.2-4.2,4.2h-1.7v-2.5h1.5c2.1,0,3.2-.4,3.2-1.1s-.4-1.5-1.5-2.5l.8-2.1c0-.2.2-.2.2-.2l.4.4c.9,1.1,1.3,2.6,1.3,3.8Zm-.2-9.4l-1.7,1.7-1.7-1.7,1.7-1.7,1.7,1.7Z"/><path id="PATH_70" d="m219.76,889.66c0,3.2-1.1,5.9-3.2,8-.6.6-1.1,1.1-1.3,1.1-1.3,0-2.5-.2-4-.4-.6,0-.8-.2-.8-.2,0,0,.2-.2.8-.4,1.7-.4,3.4-1.5,4.8-2.7.6-.6,1.3-1.1,1.7-1.9.6-.8,1.1-1.7,1.1-2.3v-.6h-2.7c-1.9,0-2.9-.8-2.9-2.3,0-1.1.2-2.1.8-3.4s1.5-2.1,2.3-2.1c1.3,0,2.3.8,2.9,2.7.3,1.6.5,2.8.5,4.5Zm-1.4-1.7c0-.6-.2-1.3-.6-1.9s-1.1-1.1-1.7-1.1c-.4,0-.8.2-1.1.4-.4.4-.4.6-.4,1.1,0,1.1.6,1.5,2.1,1.5.2.2.8,0,1.7,0Z"/><path id="PATH_71" d="m228.16,890.46h-1.5c-1.5,0-2.7-.6-3.2-1.9-.4-.8-.6-2.3-.6-4v-4c0-1.9-.2-4.6-.4-8.2l1.3-1.5c.2-.2.4-.2.4,0,.2,1.9.4,4.6.4,8.2v6.1c0,1.7.8,2.5,2.5,2.5h1.1v2.8h0Z"/><path id="PATH_72" d="m241.26,890.46h-1.1c-.8,0-1.7.2-2.3.4-1.1.4-1.7,1.1-1.7,2.1,0,1.3.8,2.3,2.5,3.4l-1.1,2.1c-1.9-.6-3.6-1.7-4.8-2.9-1.7-1.5-2.5-3.4-2.5-5.3h-2.9v-2.5h2.7c0-1.7.4-3.4,1.3-5.5.8-1.9,1.5-2.7,1.9-2.7s1.1.8,1.7,2.7c.6,1.7.8,2.7.8,3.4,0,2.9-1.5,4.4-4.4,4.4.2.8.6,1.7,1.3,2.5.6.8,1.5,1.5,2.3,1.9v-.8c0-1.5.4-2.7,1.1-3.8,1.1-1.5,2.3-2.3,4.2-2.3h.8v2.9h.2Zm-6.3-3.3c0-.4-.2-1.3-.6-2.3-.4-1.3-.8-1.7-1.3-1.7-.2,0-.6.4-1.1,1.5s-.6,2.3-.6,3.6c2.3-.3,3.6-.5,3.6-1.1Z"/><path id="PATH_73" d="m246.26,886.26c0,2.7-1.5,4.2-4.2,4.2h-1.7v-2.5h1.5c2.1,0,3.2-.4,3.2-1.1s-.4-1.5-1.5-2.5l.8-2.1c0-.2.2-.2.2-.2l.4.4c.9,1.1,1.3,2.6,1.3,3.8Zm-.2-9.4l-1.7,1.7-1.7-1.7,1.7-1.7,1.7,1.7Z"/></g><polygon id="_480" class="cls-1" points="752.06 159.16 722.16 153.16 686.56 157.36 653.56 188.26 645.56 241.06 645.56 286.26 670.06 308.26 684.76 304.06 709.76 307.46 736.06 312.86 768.46 303.86 785.66 296.06 785.66 284.26 806.56 245.06 830.56 198.26 830.56 188.26 767.56 161.26 752.06 159.16"/><g id="G_73"><path id="PATH_74" d="m674.06,223.76c.6,1.2.9,2,1.3,3.1.5,1.4,1.3,1.6,2.9,1.6h.2v2.1h-.3c-1,0-1.7-.2-2.3-.7h0c-.1,1.6-.6,3.1-1,3.7-1.1,1.5-3.6,2.6-5.5,2.6-3,0-4.9-2-4.9-4.9,0-2,.6-3.5,1.4-4.7l.6.3c-.5,1-.9,2.3-.9,3,0,1.4.5,2.2,1.1,2.8s1.8,1.1,3,1.1c1.3,0,2.9-.6,3.9-1.4.7-.5,1.2-1,1.2-1.7,0-.6-.1-1.3-.6-2.7-.5-1.2-.9-2-1.3-2.6.3-.6.7-1.2,1.1-1.7h.1v.1Zm-3.8-5c.7.5,1.3,1.1,1.9,1.7-.4.6-.8,1.1-1.3,1.6-.6-.6-1.3-1.1-1.9-1.7.4-.5.8-1.1,1.3-1.6Z"/><path id="PATH_75" d="m678.76,228.46c1.4,0,2.5,0,3.2-.3.6-.2.9-.4.9-.7,0-.8-.8-2.3-1.6-4,.4-.7.8-1.3,1.2-1.8h.1c.7,1.3,1.6,3.3,1.6,4.9,0,1.2-.5,2.1-1.1,3-.7.7-1.9,1-4.3,1h-.2c-.9,0-1.1-.6-1.1-1.1,0-.4.3-1,1.1-1h.2Zm1.6,8.5c-.7-.6-1.2-1.1-1.9-1.7.4-.6.9-1.1,1.3-1.5.7.5,1.2,1,1.8,1.7-.4.6-.8,1.1-1.2,1.5Zm3.1-.2c-.7-.6-1.2-1.1-1.9-1.7.4-.6.9-1.1,1.3-1.5.7.5,1.2,1,1.8,1.7-.4.6-.7,1.1-1.2,1.5Z"/><path id="PATH_76" d="m692.26,224.96c.9,2.2,1.8,3.5,3.6,3.5h.3v2.1h-.3c-.7,0-1.2-.1-1.6-.5h-.1v.6c0,.8-.2,1.7-.6,2.5-1.3,2.2-2.7,3.2-3.9,3.2s-2.7-.5-4-1.3l.2-.5c.4.2,1,.4,1.9.4,2.2,0,5-2.4,5.3-4.8-.1-.2-.2-.5-.4-.7-.6-.9-1-1.6-1.4-2.4.3-.7.6-1.3.9-1.9l.1-.2Zm-1.4-5.6c.7.5,1.3,1.1,1.9,1.7-.4.6-.8,1.1-1.3,1.6-.6-.6-1.3-1.1-1.9-1.7.4-.5.9-1.1,1.3-1.6Z"/><path id="PATH_77" d="m697.16,228.46c2.6,0,5.3-.9,8.6-2.9v-.1c-1.9-.7-3.6-1.1-5.1-1.1-.9,0-1.6.3-2,.8l.2.8-.5,1.5h-.2l-.8-2.1c.1-1.8,1.6-2.9,3.5-2.9,1.1,0,2.8.4,5.3,1.4.8.3,1.7.5,2.8.5h1.3l-.9,1.7c-1.4,0-2.3.3-2.8.6l-2.7,1.8c-2.2,1.4-4.5,2.2-7,2.2h-.8c-.9,0-1.1-.6-1.1-1.1,0-.4.3-1,1.1-1h1.1v-.1Zm4.9,4.5c.7.5,1.3,1.1,1.9,1.7-.4.6-.8,1.1-1.3,1.6-.6-.6-1.3-1.1-1.9-1.7.4-.6.9-1.1,1.3-1.6Z"/><path id="PATH_78" d="m718.16,222.16l1.1,2.2c.4.8.8,1.7.8,3.1v1.8c0,1.4-.8,3-2,4.5-1,1-1.9,1.5-2.7,1.5-1.2,0-2.6-.4-4.1-1.2l.2-.5c.5.2,1.1.3,1.8.3,2.3,0,4.6-2,5.7-4.4.1-.3.2-.5.2-.7,0-.3-.1-.6-.2-.9-.6-1.3-1.2-2.5-1.9-3.5.2-.9.6-1.5,1.1-2.2h0Z"/><path id="PATH_79" d="m723.66,226.16c0,1.4.6,2.5,2.6,2.5,1.3,0,2.3-.4,3.5-1,.2-.1.3-.3.3-.4,0-.9-.6-2-1.5-3.1-.9-1-2.1-1.9-3.3-2.4-.4-.2-.5-.4-.5-.6,0-.4.5-1.2.8-1.8h.1c1.3.8,2.8,2,3.9,3.3,1,1.2,1.6,2.5,1.6,3.8,0,1-.3,1.9-.7,2.8-1.4.9-3,1.5-4.5,1.5-1.8,0-3.1-1-3.1-3.4,0-.3,0-.7.1-1.2h.7Z"/><path id="PATH_80" d="m743.36,219.86l.2-.1c1,.9,4,2.8,4.6,4.6.2.7.2,1.2.2,1.8,0,1-.4,2.4-.9,3-1,1.1-2.2,1.5-3.3,1.5-.8,0-1.5-.2-1.9-.5-1.1-.7-1.7-2-1.7-3.6,0-1.1.5-2.3,1-3.1.4-.6.9-1.3,1.6-2,0-.5.1-1,.2-1.6Zm-1.8,6.5c0,1.2,1.3,2.2,2.7,2.2.9,0,1.8-.3,2.5-.9.5-.4.7-.7.7-1.1,0-.5-.4-1.2-.9-1.8-.7-.8-1.6-1.5-2.6-2.1-1.5,1.3-2.4,2.5-2.4,3.7Z"/><path id="PATH_81" d="m756.36,228.86c-1.9,0-3.5-.9-3.5-3,0-1.1.4-2,1-2.8.7-.8,1.5-1.3,2.3-1.3.9,0,1.8.7,2.4,1.8s1,2.6,1,4.4c0,1.5-.4,2.9-1.2,4.2-1.4,2.2-2.8,3.1-4.1,3.1-1.5,0-3-.5-4.6-1.6l.2-.5c.8.4,1.6.5,2.4.5,1.6,0,3.3-.8,4.7-2.5.7-.8,1.4-1.7,1.5-2.7-.6.3-1.3.4-2.1.4Zm-.7-5.1c-.8,0-1.8.8-1.8,1.4,0,1,1.4,1.7,2.7,1.7.6,0,1.2-.1,1.8-.2-.3-1.6-1.3-2.9-2.7-2.9Z"/><path id="PATH_82" d="m767.56,224.96c.9,2.2,1.8,3.5,3.6,3.5h.3v2.1h-.3c-.7,0-1.2-.1-1.6-.5h-.1v.6c0,.8-.2,1.7-.6,2.5-1.3,2.2-2.7,3.2-3.9,3.2s-2.7-.5-4-1.3l.2-.5c.4.2,1,.4,1.9.4,2.2,0,5-2.4,5.3-4.8-.1-.2-.2-.5-.4-.7-.6-.9-1-1.6-1.4-2.4.3-.7.6-1.3.9-1.9l.1-.2Z"/><path id="PATH_83" d="m772.86,228.46c1.4,0,2.6,0,3.5-.3,1-.3,1.9-.9,1.9-1.3v-.4c-.6.1-1.2.1-1.8.1-1.9,0-3.3-.5-3.9-1.7-.1-.3-.2-.7-.2-1.2,0-1.2.4-2.4,1.2-3.2.6-.7,1.4-1.1,2.1-1.1,1.3,0,2.4,1.2,3.1,3.2.4,1.1.7,2.3.7,3.8,0,1-.2,1.9-.8,2.5-1,1.2-2.9,1.6-5.8,1.6h-1.3c-.9,0-1.1-.6-1.1-1.1,0-.4.3-1,1.1-1h1.3v.1Zm.5-10.6c-.7-.6-1.2-1.1-1.9-1.7.4-.6.9-1.1,1.3-1.5.7.5,1.2,1,1.8,1.7-.4.6-.7,1.1-1.2,1.5Zm1.9,3.6c-1.1,0-1.9.8-1.9,1.4,0,1.3,2.1,1.7,4.7,1.7-.4-1.5-1.5-3.1-2.8-3.1Zm1.2-3.8c-.7-.6-1.2-1.1-1.9-1.7.4-.6.9-1.1,1.3-1.5.7.5,1.2,1,1.8,1.7-.4.6-.7,1-1.2,1.5Z"/></g></svg>