<?xml version="1.0" encoding="UTF-8"?><svg id="Layer_1" xmlns="http://www.w3.org/2000/svg" viewBox="0 0 1642.06 1011.76"><defs><style>.cls-1{fill:none;stroke:#020202;stroke-width:1.3px;}.cls-1,.cls-2,.cls-3,.cls-4,.cls-5,.cls-6{stroke-miterlimit:26.09;}.cls-2{stroke-width:.78px;}.cls-2,.cls-3,.cls-4,.cls-5,.cls-6{stroke:#010101;}.cls-2,.cls-5{fill:#dbeccb;}.cls-3{fill:#fbd0d1;}.cls-3,.cls-4,.cls-5,.cls-6{stroke-width:.52px;}.cls-4{fill:#fdfad4;}.cls-6{fill:#e8d0e5;}</style></defs><path id="_420" class="cls-4" d="m330.7,549.59c4.4-1.8,7.6-5,10.7-7.8-5.7-3.1-16.2-8.6-23.5-13.3-6.8-4.7-15.7-3.9-24.8-3.4-3.1.3-6.3.5-9.4.5-13.3,0-20.9-7.8-27.9-14.6-4.4-4.4-10.7-8.3-17.5-12.5-3.1-1.8-6.3-3.9-9.7-6-10.2-6.8-49-21.7-61.6-21.7-4.7,0-8.9-2.1-12.5-5.5h0l-49.6,17h-.2l16.4,15.7,11,3.4,5,3.1,2.1,6,2.3,2.9,13.8,3.7,3.4,3.7,2.3,5,3.1,3.7,5,1.3,5.2.8,78.3,27.9c6.3-1.8,12.5-3.9,18.8-6,19.6-5.2,40.2,1.6,59.3-3.9Z"/><path id="_866" class="cls-5" d="m699.8,509.99c-24.5-9.7-53.2-12.3-80.6-8.1-26.1,4.2-41,31.6-64.2,43.8-30,16.4-68.3,20.6-101.2,13.6-28.2-7.6-52.7-21.9-80.1-27.7-9.1,6-23.2,11.7-25.3,12.5l-1.3.5-1.3-.5c-.3,0-1.8-1-4.4-2.3-3.1,3.1-6.3,6-10.7,7.8-19,5.5-39.7-1.3-58.7,4.2-6.3,1.8-12.5,3.9-18.8,6l2.9,1,7.8,5,4.2,5.2,2.1,5.7.5,13.6,1.3,5.2,3.7,4.4,23.2,18.3,18,11.5,12.3,11.5,2.9,1.3,5.7-3.4,5.7.5,10.7,3.7,5.2-.5,9.7-2.9,11-1.6,15.4-7.8,5.2-.8h2.3l2.1.8,4.4,4.2,2.3.8,4.2.8,16.2,5,5.2.8,18-1.6,5-1.3,4.4-.8,5.2.8,7,6,4.4,8.6,3.7,9.4,4.2,7,8.9,4.4,21.7-.8,10.7,2.1,7,7.3,2.9,8.1,4.2,6,10.7,1.6,20.3-1.6,2.9.5,4.2,2.3,2.9.8,2.9-.8,1.6-1.6,1.6-1.6,1.6-1.6,25.3-15.7,23-20.1,2.9-1.6,15.4-14.6,3.7-1.6,10.7-3.4,4.4-.8,5.7-1.3,2.3-4.2,1.3-5,2.9-5.2,8.9-4.4,11,1.6,19,7,11,.5,9.9-2.1,8.9-5,7.8-7.3,3.7-5.7,2.3-7.8,1.6-8.6-3.4-8.1-2.6-7-2.1-6.3-5.5-16.2-1.6-3.9c-6.3-13.6,2.6,2.6-4.2-8.6-9.5-16.1-34-23.1-55.9-29.9Z"/><path id="_862" class="cls-3" d="m717.5,490.89c-8.3,5.5-18.8-12-24.3-20.1-19-27.4-44.1-1.6-72.8-7.3-5.5,0-8.1-8.1-4.2-13.6,4.2-7.6,11-14.1,15.4-21.9-8.6-.5-17.5-1-25-1.8l-8.3-.8c-25.3-2.1-72.3-6.3-89-6.3-12.5,0-23.2,2.3-35.5,5-6,1.3-12,2.6-18.8,3.7-16.7,2.9-48,21.1-57.7,26.9,2.6,3.4,7.3,9.4,11.7,16.2,6.3,9.7,2.6,18.8-.3,22.4-.5.5-24,25.8-29,32.3-1.3,1.8-3.9,3.7-6.8,5.7,27.4,5.7,52.2,20.1,80.1,27.7,32.9,6.8,71.2,2.6,101.2-13.6,23.2-12.3,38.3-39.7,64.2-43.8,27.4-4.2,56.1-1.3,80.6,8.1,9.9,3.1,20.3,6.3,29.7,10.2,3.1-3.7,6-7.3,8.6-11.5,8.9-12-8.8-25.8-19.8-17.5Z"/><path id="_434" class="cls-6" d="m826.8,536.09c9.7-15.1,20.6-30,0-43.8-4.2-2.6-2.6-11,2.6-13.6,16.4-6.8,30,13.6,46.4,9.7,17.7-4.2,15.1-30,11-42.3-8.1-19-32.9-17.7-51.9-21.9-20.6-4.2-24.5-31.6-45.1-36.8-15.1-4.2-31.6-4.2-47.7,0-7.3,1.3-15.1,2.9-22.7,3.9-8.6,10.2-15.7,18.5-18,20.9-7.3,7.3-26.9,18-34.7,18-4.4,0-19.6-.8-35.2-1.6-4.2,7.8-11,14.3-15.4,21.9-4.2,5.5-1.3,13.6,4.2,13.6,28.7,5.5,53.7-20.1,72.8,7.3,5.5,8.1,15.9,25.6,24.3,20.1,11-8.1,28.7,5.5,20.6,17.7-2.6,4.2-5.5,8.1-8.6,11.5,11.2,4.7,21.1,11,26.3,19.8,6.8,11.2,12.8,36.5,19,50.1l5.2-18,2.3-2.3,3.4-1.6,7.8-7.8,5-2.1h2.1l7.8,1.6h8.9l2.1-.5,3.7-2.9,2.3-.5,5,.3c-4.8-6.9-7.1-14.2-3.5-20.7Z"/><path id="_869" class="cls-3" d="m1641.8,918.99c0-9.9-3.7-17.2-7-23.7l-1-2.3c-3.1-6.5-20.1-30-26.3-35-7-5.2-15.4-13-15.1-20.6,0-2.3,1-5.7,5-8.3,9.7-6.3,11.5-8.3,6-18.3-1-1.8-2.3-4.7-3.9-8.1-27.9,5.7-50.3,23.7-77.5,35-24.5,9.7-50.6-12.3-73.8-24.5-15.1-8.1-35.5-1.3-47.7,11-2.6,2.9-9.7,2.9-12.3,0-24.5-21.9-54.8-19-84.8-24.5-8.1-1.3-17.7-11-24.5-21.9-2.6-2.6-8.1-5.5-12.3-2.6-8.3,6.8-12.3,24.5-24.5,19-9.7-4.2-20.6-6.8-26.1,2.6-2.6,5.5-4.2,12.3-8.1,13.6-16.7,6.3-32.6,17.2-48.3,27.7l.5,2.3.5,1.3h.8l2.9-.5,1.3.5,5.2,6.5.5,1.3,2.3,2.3,2.1,5.2,2.9,11.5,5.7,14.3,1.6,13.8,1.6,4.2,3.4,2.1,31.3,2.9-2.1,1.6,16.4,5.2,6,.8,2.3-.5,4.4-1.3,2.9-.5,2.9.5,5,2.9,2.9.5,13.6-3.4,5.2-.5,6,.5,5,1.3,3.7,3.4,2.3,6.5.5,2.3-.5.8-.5,1.6-.8,3.1-1.3,12.3h3.7l5.2-3.1,8.1-7.3,9.9-5.2,9.7-2.3,8.9,2.1,7.3,9.9,7.3,15.9,5.2,7.8,6.5,3.1,7.8,1.3,7.3,2.3,8.1,1.6,8.6-1.3,8.6-6.5,1.3-.5.8,1.6,2.1.5,2.3-.8,2.1-1.3,2.9-2.9h1.3l.8.8,1.6.8,3.7-.8,5.2-5,3.4-2.1,7.8-1.6,7-.5-1.6,4.4,4.4,2.3,12.5.8,15.1-2.3,43.3,8.6h20.3l2.9.8,1.3,2.1.8,2.9,1.6,2.9,2.1,1.3,8.1-.5,9.4,4.4,6,7.8,11,18.8,2.9,2.9,4.2,1.6,5,1.3,5.2.5,2.3-.8,2.1-.8,2.1-.8,1.6,1.3,2.1,2.1,2.1.5,5-1.3,13.6-7,3.1-.5c-.3-.5-.3-1-.3-1.3-.4-1,3-70.6,3-82.4Z"/><path id="_436" class="cls-5" d="m1212.4,708.29c-8.3-34.2-12.3-68.3-28.7-98.3-5.5-9.7-32.9-2.6-28.7-17.7,1.3-6.8,13.6-13.6,6.8-21.9-5.5-5.5-13.6-12.3-21.9-9.7-12.8,4.4-24,14.1-36,20.6l-.3,2.6,2.9,4.4,8.1,7.3,3.4,5.2,15.4,65.2.8,13-4.2,35v2.9l.8,6,.8,2.3,1.3,2.3,4.4,4.4,2.9,5.2,1.6,6,1.3,12.5,1.6,2.1-1.3,7.3,15.9,18.3,3.4,8.9-2.3,5.7-7.8,8.6-1.3,6,.5,3.4,2.3,5.2.8,5,3.1,10.2.3,1c15.7-10.4,31.6-21.4,48.3-27.7,4.2-1.3,5.5-8.1,8.1-13.6,5.5-9.7,16.4-6.8,26.1-2.9,2.6,1,4.7,1.3,6.5.8,7.6-25.8-11-50.3-25.8-73.3-1.6-2.1-2.1-5.5-1.8-8.3-3.4-.1-6.5-2-7.3-4Z"/><path id="_857" class="cls-5" d="m837.8,284.59c9.7-4.2,20.6-13.6,31.6-9.7,13.6,4.2,21.9,16.4,36.8,12.3,13.6-5.5,23.2-17.7,35.5-20.6,23.2-2.6,45.1,5.5,69.7,2.6,2.9-1.3,8.1,6.8,11,15.1,2.6,8.1,16.4,1.3,20.6,8.1,11,16.4,9.7,45.1,34.2,38.3,6.8-2.9,19-8.1,19-15.1-1.3-25.6,17.7-40.4,35.7-55.6-8.3-11.5-13.3-25-13.3-30.3,0-6.3-6.5-38.3-9.7-53.2l-63.7,4.7-4.7,18.5c-2.1,8.9-17.5,14.3-23.5,14.3-2.6,0-10.7.5-18.8.8-8.3.5-16.4.8-19,.8-16.2,0-27.7-.5-34.7-1.8-9.7-1.6-25-14.6-36.3-24.3-1.6-1.3-3.1-2.6-4.4-3.9-11.5-9.4-20.1-26.1-23.2-33.7-3.9-9.7,0-62.1,1.6-68.6,1.3-5.2,7.3-58.4,9.9-83l-13,1.3c-1.8.5-14.1,3.4-22.2,5.2-6.5,1.3-20.3,8.3-30.3,13.6-2.3,1.3-4.7,2.3-6.5,3.4-4.7,2.3-12,6.3-19.6,10.2-9.4,5-19,9.9-26.6,13.8-16.2,8.1-29.2,6.3-39.7-5.7-6.3-7.6-18.5-8.1-25-7.8.5,1.8.8,3.1,1,4.4,9.1,11.7,24.8,30.5,29.5,32.9,5.5,2.9,13.8,11.5,15.4,20.3.8,5.2-.8,9.9-4.4,13.6-10.7,10.7-11,25.3-11,26.9,0,2.6-1.3,29-2.6,56.6-1.3,26.3-2.6,53.7-2.6,56.3,0,3.4,7.3,14.6,15.7,19.6,6,3.7,10.7,12.8,15.1,21.7,2.6,5.2,5.2,10.2,7.8,13.3,1.6,2.1,2.6,4.2,2.9,6.5,10.2-3.9,17.5-13,27.1-17.7,11.5-7,23.7-.2,34.7-4.1Z"/><path id="_859" class="cls-4" d="m1093.4,484.19c5.5-6.8,0-20.6-6.8-30-1.3-2.6-1.3-8.1,0-11,11-17.7,34.2-24.5,39.7-43.8,8.1-30-23.2-49.3-31.6-78,0-.3-.3-.8-.3-1-3.7,4.7-12,8.6-17.5,10.7-24.5,6.8-23.2-21.9-34.2-38.3-4.2-6.8-17.7,0-20.6-8.1-2.6-8.1-8.1-16.4-11-15.1-24.5,2.9-46.4-5.5-69.7-2.6-12.3,2.6-21.9,15.1-35.5,20.6-15.1,4.2-23.2-8.1-36.8-12.3-11-4.2-21.9,5.5-31.6,9.7-11,4.2-23.2-2.6-34.2,4.2-9.7,4.7-17.2,13.8-27.1,17.7,1.6,9.1-5.7,19.6-13,29.7-5.7,8.1-27.7,35-43.8,54.8,7.8-1,15.4-2.6,22.7-3.9,16.4-4.2,32.9-4.2,47.7,0,20.6,5.5,24.5,32.9,45.1,36.8,19,4.2,43.8,2.6,51.9,21.9,4.2,12.3,6.8,38.3-11,42.3-16.4,4.2-30-16.4-46.4-9.7-5.5,2.6-6.8,11-2.6,13.6,20.6,13.6,9.7,28.7,0,43.8-3.7,6.5-1.6,13.8,3.4,20.6l3.1.3,2.3-.5,9.7-2.3,10.7-1.6,2.9-.8,4.2-4.2,1.3-.8v-1.3l6-5,15.9-10.2,4.2-3.7,2.1-1.6,2.1-.5,1.3-.8.5-2.9.8-1.6,4.2-4.2,1.6-1.3,6.5-1.6,15.4-.5,5.2-2.9,5.2-4.2,7.8-2.1,14.6-.8,7.3,1.3,12.8,5.2,7,1.6,14.6.8,7.3,1.3,5.7,3.7,1.6-2.1,5.2,1.6,24.8.5,2.3,1.3,1.6,2.3,2.3,2.9,3.4,1.3h6.5l3.4-1.3,2.9-2.9,1.3,6.5,4.2,5.7,1.8,1.3c1.4-17.2,4-33.9,19.6-48.5Z"/><path id="_477" class="cls-3" d="m1152.4,458.09c1.3,2.6,5.5,4.2,6.8,6.8,13.6,20.6,8.1,57.4,32.9,56.1,11-1.3,19-12.3,36.8-15.1,12.8-1.8,11-15.1,8.9-28.4-3.4-1.6-7.3-2.9-12-3.4-18.5-1.8-26.6-21.7-26.6-28.7,0-2.1-1-9.7-2.1-17-1.6-10.4-3.1-22.4-3.1-27.4v-2.1c.3-8.3.3-16.2-13-18.8-5.7-1-8.1-4.4-8.9-6.8-3.4-9.4,7.6-23.7,8.9-25.6.3-.5,12-12.3,17-18.8,4.7-6,19.8-12.8,26.1-15.4-1.6-5.2-4.4-17-4.4-23.7,0-2.1,0-7.3-8.9-7.3-1.8,0-5.2-.3-10.2-.8-9.9-1-24.5-2.6-39.4-2.6-11.5,0-21.7-8.6-29-18.8-18,15.1-37,30-35.7,55.6,0,1.6-.8,3.1-1.8,4.4,0,.3.3.8.3,1,8.1,28.7,39.7,47.7,31.6,78-1.8,6.3-5.7,11.5-10.2,15.9,15.6,9.7,28.7,24.1,36,42.9Z"/><path id="_877" class="cls-6" d="m1321.7,559.59c-18,0-20.9-3.9-26.6-15.4-5-9.9-11.2-17.7-25.8-24.3-13.8-6-15.4-18.3-16.4-25.3-.3-1.6-.5-3.1-.8-3.9-.8-2.6-5.7-9.4-14.6-13.6,2.1,13.6,3.9,26.6-8.9,28.4-17.7,2.9-26.1,13.6-36.8,15.1-24.5,1.3-19-35.5-32.9-56.1-1.3-2.6-5.5-4.2-6.8-6.8-7.3-18.8-20.3-33.1-36.3-42.8-9.4,9.1-22.2,15.9-29.5,27.9-1.3,2.6-1.3,8.1,0,11,6.8,9.7,12.3,23.2,6.8,30-15.7,14.9-18.3,31.6-19.6,49l3.7,2.6,7,1.3v2.1l-2.1,1.6-3.7,5.2-1.3.8-2.3,1.3v2.1l1.6,1.3,2.9-.5v2.9l.8,2.1,1.3,1.3,5-2.3,1.6,1.3,1.3,1.6,1.3,1.3,1.3.5.8,1.3,1.3,1.6,2.3.5,2.3-.5,7.3-3.1-1.6,2.1-.8,2.9.5,2.3,2.1,2.1-2.9,1.3-2.3,1.6-2.9,1.3-3.4-.5,2.3,2.9,7.3,5.2-.3,1.8c12-6.8,23.2-16.2,36-20.6,8.1-2.6,16.4,4.2,21.9,9.7,6.8,8.3-5.5,15.1-6.8,21.9-4.2,15.1,23.2,8.1,28.7,17.7,16.4,30,20.6,64.2,28.7,98.3.8,2.1,3.9,3.7,7.8,5.2.3-2.6,1.3-4.7,3.1-5.2,26.1-6.8,57.4,20.6,75.1-5.5,5.5-6.8-5.5-9.7-6.8-15.1-1.3-5.5,4.2-11,2.9-15.1-2.9-17.7-4.2-32.9,9.7-47.7,4.2-4.2-2.6-11-4.2-16.4-4.2-9.7,1.3-21.9,12.3-27.4,8.1-3.7,9.1-13,12.3-21.4-1.1-.9-1.9-.9-2.9-.9Z"/><path id="_105" class="cls-4" d="m1581,761.19c-5.2-12.8-10.4-24.8-12.3-29-4.7-9.4-10.4-40.4-12-48.5-.8.3-1.3.5-2.1.5-.8.3-1.6.3-2.6.3-10.2,0-24.3-8.3-36-15.1-1.6-.8-3.1-1.8-4.4-2.6-1.6-.8-3.1-1.8-5-2.9-12-6.8-25.6-14.3-29-22.7-1-2.6-1.6-5-1.8-7.3-1-5-1.8-9.4-11-17.2-13-11.5-17.2-11-29.7-7.8-15.4,3.9-40.2-7.3-48.8-14.3-6-4.7-13.3-12.5-20.3-20.1-3.1-3.4-6.3-6.5-8.9-9.4-6.3-6.3-15.1-6.3-28.2-6h-4.7c-3.1,8.3-4.2,18-12.3,21.4-11,5.5-16.4,17.7-12.3,27.4,1.3,5.5,8.1,12.3,4.2,16.4-13.6,15.1-12.3,30-9.7,47.7,1.3,4.2-4.2,9.7-2.9,15.1,1.3,5.5,12.3,8.1,6.8,15.1-17.7,26.1-49.3-1.3-75.1,5.5-4.2,1.3-4.2,9.7-1.3,13.6,14.9,22.7,33.4,47.5,25.8,73.3,7.6-2.1,11.5-14.3,18-19.8,4.2-2.6,9.7,0,12.3,2.9,6.8,11,16.4,20.6,24.5,21.9,30,5.5,60.3,2.9,84.8,24.5,2.6,2.6,9.7,2.6,12.3,0,12.3-12.3,32.9-19,47.7-11,23.2,12.3,49.3,34.2,73.8,24.5,27.1-11.2,49.6-29.2,77.5-35-4.3-9.8-11-26.3-17.3-41.4Z"/><polygon id="_102" class="cls-2" points="406.8 693.09 405 692.09 404.7 689.99 404.7 687.59 404.2 685.59 400.6 684.29 392 682.89 388 681.89 383.1 681.39 379.2 682.69 375.3 685.59 372.9 689.49 377.9 697.79 385.4 701.69 405 702.99 407.6 701.49 408.9 698.09 408.4 694.89 406.8 693.09"/><polygon id="_872" class="cls-3" points="935.1 561.89 928.8 558.99 924.1 558.29 914.7 558.29 883.2 565.59 858.1 582.79 849 585.09 815.6 571.79 809.9 575.49 811.4 577.79 815.1 581.19 819.3 585.09 821.4 590.09 822.7 602.89 821.6 608.09 818 612.29 819 614.09 819.8 616.19 817.2 616.89 814.8 618.99 813.3 619.79 810.7 620.29 806 619.79 803.4 619.79 788 626.29 783 630.49 772 637.29 767.9 639.09 763.4 639.89 731.6 650.89 719.1 658.19 716.5 657.39 714.1 658.89 702.7 654.49 700.3 657.39 702.7 666.29 704 667.59 703.4 670.69 701.9 675.59 703.2 682.69 704.2 685.79 706 687.59 708.4 687.09 711.3 686.29 713.6 684.79 714.9 682.69 715.7 680.09 718.3 680.09 720.9 681.39 723 681.89 725.1 680.59 729.5 677.69 740.2 674.89 754.8 672.79 759 670.69 767.1 664.19 780.7 658.19 793.7 648.79 798.4 645.89 803.4 645.09 814.3 646.69 819.3 646.69 823.7 643.79 828.1 639.89 844 631.29 850.3 636.49 855.5 641.99 860.7 644.29 867.8 640.19 879.5 627.89 881.6 626.89 883.7 624.29 892.6 619.59 894.7 616.89 896.2 613.29 906.1 602.59 909 597.89 914.2 585.09 919.4 580.39 934.6 576.29 941.9 571.29 940.3 566.29 935.1 561.89"/><line id="LINE_29" class="cls-1" x1="216.4" y1="516.29" x2="111.3" y2="542.09"/><line id="LINE_30" class="cls-1" x1="933.5" y1="667.79" x2="848" y2="611.69"/><g id="G_31"><path id="PATH_32" d="m783.8,215.99c0,3.7-2.3,5.5-7.3,5.5-1.8,0-3.1-.3-3.9-.8-1-.5-1.6-1.8-1.6-3.4,0-.8.3-1.6.5-2.3.3-.3.3-.5.5-.5.3,0,.3.3.3.8v.8c0,1,.5,1.8,1.6,2.1.5.3,1.6.3,2.9.3,3.9,0,5.7-.5,5.7-1.8,0-1.8-2.3-4.4-6.8-7.6l.8-2.6c0-.3.3-.3.3-.3,0,0,.3,0,.5.3,4.1,3.2,6.5,6.4,6.5,9.5Z"/><path id="PATH_33" d="m794.2,221.49h-1.8c-1.8,0-3.4-.8-3.9-2.3-.5-1-.8-2.9-.8-5v-5c0-2.3-.3-5.7-.5-10.2l1.6-1.8c.3-.3.5-.3.5,0,.3,2.3.5,5.7.5,10.2v7.6c0,2.1,1,3.1,3.1,3.1h1.3v3.4h0Z"/><path id="PATH_34" d="m800.2,216.29c0,3.4-1.8,5.2-5.2,5.2h-2.1v-3.1h1.8c2.6,0,3.9-.5,3.9-1.3s-.5-1.8-1.8-3.1l1-2.6c0-.3.3-.3.3-.3,0,0,.3.3.5.5,1.1,1.3,1.6,2.8,1.6,4.7Zm-.8,10.9l-2.1,2.1-2.1-2.1,2.1-2.1,2.1,2.1Z"/><path id="PATH_35" d="m810.9,193.59c-1,1-2.6,1.3-4.2,1.3h-2c-.3,0-.5.3-.8.5-.3.3-.5.5-.5.5-.3,0-.3-.3-.3-.5s.3-.8.5-1.3c.3-.8.5-1,.8-1s.8,0,1.6.3c.8,0,1.3.3,1.6.3,1.6,0,2.6,0,3.4-.3.5,0,.8-.3.8-.3h.3c-.7-.1-.9-.1-1.2.5Zm-1.8,24.5c0,1-.3,2.1-.8,2.9-.3.5-.5.8-.5.8,0,0-.3-.3-.3-1,0-3.1-.5-10.4-1.6-22.2l2.1-2.1.3-.3v.5c.8,3.4.8,10.7.8,21.4Z"/><path id="PATH_36" d="m847.4,221.49h-6c-.8,0-1.6,0-2.1.3-1,.3-1.3.8-1.3,1.3,0,.3,1.3.5,3.7,1,2.6.5,3.7,1,3.7,1.6,0,2.1-.5,3.7-1.8,4.7-2.1,1.8-5.5,2.6-10.4,2.6-6,0-9.1-2.3-9.1-6.8,0-1,.3-2.1.8-3.4s1-2.3,1.6-3.1c.3-.3.5-.5.8-.5s.3,0,.3.3,0,.5-.3.8c-.8,1.6-1.3,3.1-1.3,4.7,0,1.8.8,3.1,2.6,3.9,1.3.8,2.9,1,5,1s3.9,0,5.7-.3c3.1-.5,4.7-1,4.7-2.1,0-.5-.8-.8-2.1-1-2.1-.3-3.4-.5-3.9-.8-1.3-.3-2.1-1-2.1-1.8,0-.5.3-1.3,1-2.3.5-.8,1-1.3,1.8-1.8,1.3-1,2.9-1.6,5.2-1.6h3.7v3.3h-.2Z"/><path id="PATH_37" d="m867.8,213.89l-1,2.1c-1.8,0-3.4,0-4.2.3-1,.5-2.6,1-4.7,2.1-2.1,1-3.7,1.8-4.7,2.1-1.6.5-3.4.8-5,.8h-1.8v-3.1h2.1c2.3,0,4.4-.5,6.3-1.3l6-2.6c-1-.3-2.6-.8-4.7-1.6-1.8-.8-2.9-1-3.4-1-1,0-2.1.5-3.1,1.3q-.3.3-.5.3t-.3-.3v-.4c.8-2.6,2.3-3.7,4.4-3.7.8,0,1.8.3,2.9.8,2.1,1,3.7,1.6,4.7,2.1,1.8.5,3.9,1,6.3,1,.5,0,.8,0,.8.3q.1.3-.1.8Zm-8.6,12.8l-2.1,2.1-2.1-2.1,2.1-2.1,2.1,2.1Z"/><path id="PATH_38" d="m878.5,221.49h-1.8c-1.8,0-3.4-.8-3.9-2.3-.5-1-.8-2.9-.8-5v-5c0-2.3-.3-5.7-.5-10.2l1.6-1.8c.3-.3.5-.3.5,0,.3,2.3.5,5.7.5,10.2v7.6c0,2.1,1,3.1,3.1,3.1h1.3v3.4h0Z"/><path id="PATH_39" d="m898.8,213.89l-1,2.1c-1.8,0-3.4,0-4.2.3-1,.5-2.6,1-4.7,2.1-2.1,1-3.7,1.8-4.7,2.1-1.6.5-3.4.8-5,.8h-1.8v-3.1h2.1c2.3,0,4.4-.5,6.3-1.3l6-2.6c-1-.3-2.6-.8-4.7-1.6-1.8-.8-2.9-1-3.4-1-1,0-2.1.5-3.1,1.3q-.3.3-.5.3t-.3-.3v-.4c.8-2.6,2.3-3.7,4.4-3.7.8,0,1.8.3,2.9.8,2.1,1,3.7,1.6,4.7,2.1,1.8.5,3.9,1,6.3,1,.5,0,.8,0,.8.3.2.3-.1.3-.1.8Z"/></g><g id="G_40"><path id="PATH_41" d="m1145.9,374.59c-.8.5-1.3,1-1.8,1.6-.8.5-1.6,1-2.6,1.3-2.1.5-4.2,0-6.3-1.3-1.8-1-3.4-2.6-4.7-4.7-1.3-1.8-1.8-3.7-1.8-5.5.3-2.1,1-3.7,2.9-5,1-.8,2.1-1,3.7-1.3,1-.3,1.8-.3,2.6-.3.3,0,.5,0,.8.3v.3s-.3,0-.5.3c-1.8.3-3.1.8-4.2,1.6s-1.8,1.8-2.1,2.9c-.3,1.6,0,3.4,1.3,5.2,1.6,2.1,3.1,3.7,5,5,1.6,1,2.9,1.3,3.7,1,.3,0,.8-.3,1-.5.5-.3,1.3-1,1.8-1.8s1.3-2.1,2.1-4.4l2.3-.3h.5v.5c-1.1,1.7-2.2,3.5-3.7,5.1Zm4.9-12.8l-2.9-.5.5-2.9,2.9.5-.5,2.9Z"/><path id="PATH_42" d="m1151.9,378.29c-.8.5-1.8,1-2.9,1h-1s.3-.3.8-.8c2.6-1.6,8.3-6.3,17.5-13.8l2.9.8c.3,0,.5,0,.5.3,0,0,0,.3-.3.3-2.9,2-8.7,6.2-17.5,12.2Z"/><path id="PATH_43" d="m1162.6,389.99c-3.1,2.1-5.7,1-8.6-2.9-1-1.6-1.6-2.6-1.6-3.7,0-1.3.5-2.3,1.8-3.1.5-.5,1.3-.8,2.3-.8h.8q0,.3-.5.5c-.3.3-.5.3-.8.5-.8.5-1.3,1.3-1,2.3.3.5.5,1.6,1.3,2.6,2.1,3.1,3.7,4.4,4.7,3.7,1.6-1,2.3-4.4,2.6-9.9l2.6-.8h.5v.5c-.2,5.9-1.8,9.5-4.1,11.1Z"/><path id="PATH_44" d="m1166.5,403.79c-3.1,2.1-6.8,2.9-10.4,2.3-1.3-.3-1.8-.5-2.1-.5-.8-1.3-1.6-2.6-2.3-4.4-.3-.5-.3-1-.3-1,0,0,.5.3,1,.5,1.6,1.3,3.7,2.3,6,3.1,1,.3,2.1.5,3.1.5,1.3,0,2.3-.3,2.9-.5l.8-.5-2.1-2.9c-1.3-1.8-1.3-3.4.5-4.7,1-.8,2.3-1.3,4.2-1.3,1.8-.3,3.1,0,3.7,1,1,1.3.8,2.9-.8,5-1.3,1.1-2.7,2.1-4.2,3.4Zm.8-2.9c.8-.5,1.3-1,1.6-2.1.3-1,.3-1.8-.3-2.3-.3-.5-.8-.8-1.3-.8s-1,0-1.6.3c-1,.8-1,1.8,0,3.1.3.5.8,1.1,1.6,1.8Z"/><path id="PATH_45" d="m1172.7,415.29c-2.1,1.3-4.4,2.1-7.3,2.1-2.3,0-3.9-.5-4.4-1.3-1-1.6-2.1-3.1-2.6-4.4-.3-.5-.3-.8,0-.8s.3,0,.8.3c1.6,1.6,3.7,2.6,6.3,3.4,2.9.8,5,.8,6.3-.3,1-.5,1.6-2.1,2.1-4.7l2.6-.5h.5v.5c-.3,1-.8,2.1-1.6,3.1-1.1,1.3-1.9,2.1-2.7,2.6Z"/></g><g id="G_46"><path id="PATH_47" d="m928,389.69c0,3.7-1.6,5.5-4.7,5.5-1.8,0-2.9-.8-3.4-2.3-.8,1.6-2.1,2.3-3.7,2.3-.5,0-1.3,0-1.8-.3,0,1.6-.3,3.1-.3,5-.8,1.8-2.1,3.4-4.4,4.4-2.1.8-4.2,1.3-6.5,1.3s-4.2-.5-5.7-1.6c-1.6-1.3-2.3-2.9-2.3-5.2,0-1.3.3-2.3.8-3.9.5-1,.8-1.8,1.3-2.3.3-.3.5-.3.5-.3q.3,0,.3.3v.5c-.8,1.6-1,3.1-1,4.4s.5,2.3,1.3,3.4c1,1.3,2.9,1.8,5.2,1.8,2.6,0,5-.5,6.8-1.3,1.6-.8,2.6-1.6,2.9-2.6.3-.3.3-.8,0-1.8,0-.8-.3-1.6-.3-1.8-.3-.8-1-2.1-2.6-3.9l1-2.1c.3-.3.3-.5.3-.5,0,0,.3,0,.3.3.8,1,1.3,1.8,1.6,2.1.8.8,1.6,1,2.6,1s2.1-.3,2.6-1c.3-.5.5-1,.8-2.3,0-.5.3-.8.5-.8.3,0,.3.3.3.8.3,1.3.5,2.1,1,2.6s1.6.8,2.9.8c.5,0,1-.3,1.3-.5.5-.3.8-.8.8-1.3,0-.8-.5-1.6-1.6-2.9l1.3-2.3.3-.3.3.3c.8,1.7,1.3,3.2,1.3,4.5Z"/><path id="PATH_48" d="m938.5,395.19h-1.8c-1.8,0-3.4-.8-3.9-2.3-.5-1-.8-2.9-.8-5v-5c0-2.3-.3-5.7-.5-10.2l1.6-1.8c.3-.3.5-.3.5,0,.3,2.3.5,5.7.5,10.2v7.6c0,2.1,1,3.1,3.1,3.1h1.3v3.4h0Z"/><path id="PATH_49" d="m951.3,395.19h-2.1c-2.3,0-3.9-.8-5-2.3-.8,1.6-2.6,2.3-5.5,2.3h-1.6v-3.1h2.3c2.6,0,3.9-1,4.2-2.9,0-.8.3-1.3.5-1.3s.5.5.5,1.3c.3,1.8,1.6,2.9,3.9,2.9h2.3v3.1h.5Zm-5.8,5.7l-2.1,2.1-2.1-2.1,2.1-2.1,2.1,2.1Z"/><path id="PATH_50" d="m965.1,390.29l-.8,2.3-7,1.8c-2.1.5-3.9.8-5.5.8h-1.3v-3.1h2.1c.5,0,1,0,2.1-.3-1.6-1.3-2.3-2.3-2.3-3.7,0-1,.5-2.3,1.8-3.9,1.6-1.8,3.1-2.9,4.7-2.9,1.8,0,3.1.8,4.2,2.3.3.5.5.8.5,1,0,0,0,.3-.3.3s-.5,0-1.3-.3c-1.3-.3-2.3-.5-3.4-.5-.8,0-1.6.3-2.6.8s-1.8,1-1.8,1.8c0,.5.5,1.3,1.3,2.1,1,1,2.3,1.6,3.7,1.6.5,0,2.3-.5,5.5-1.3h.5c-.1.6-.1.9-.1,1.2Z"/><path id="PATH_51" d="m978.1,395.49c0,2.6-.8,5-2.3,7.3-1.3,1.8-2.6,2.9-3.4,2.9-2.1,0-3.7,0-5.2-.3-.5,0-.8-.3-.8-.3,0,0,.3-.3.8-.3,2.1-.5,4.2-1.6,6.3-3.1,2.1-1.8,3.4-3.7,3.4-5.5,0-1-.8-2.6-2.6-4.4l1.3-2.3c0-.3.3-.3.3-.3l.3.3c.5.8,1.3,1.8,1.6,3.1.1.8.3,2.1.3,2.9Z"/><path id="PATH_52" d="m998.5,395.19h-1c-1,0-1.8-.3-2.6-1-.5-.5-1-1-1.6-2.1-.5,1-1.3,1.8-2.1,2.3-1,.5-2.3.8-4.4.8-3.7,0-5.5-1.3-5.5-3.9,0-.8.3-1.8.8-2.6.3-.3.3-.5.5-.5s.3.3.3.5v1.6c0,1.6,1.3,2.3,3.9,2.3,3.7,0,5.5-.8,5.5-2.1,0-.8-1-3.7-3.1-8.6l1-2.1c.3-.3.3-.5.3-.5,0,0,.3.3.3.5.8,2.1,2.1,5.2,3.7,9.4.8,2.1,1.8,3.1,3.4,3.1h.8l-.2,2.9h0Z"/><path id="PATH_53" d="m1011.5,395.19h-2.1c-2.3,0-3.9-.8-5-2.3-.8,1.6-2.6,2.3-5.5,2.3h-1.6v-3.1h2.3c2.6,0,3.9-1,4.2-2.9,0-.8.3-1.3.5-1.3.3,0,.5.5.5,1.3.3,1.8,1.6,2.9,3.9,2.9h2.3v3.1h.5Zm-5.2-13.3l-2.1,2.1-2.1-2.1,2.1-2.1,2.1,2.1Z"/><path id="PATH_54" d="m1017.8,389.99c0,3.4-1.8,5.2-5.2,5.2h-2.1v-3.1h1.8c2.6,0,3.9-.5,3.9-1.3s-.5-1.8-1.8-3.1l1-2.6c0-.3.3-.3.3-.3,0,0,.3.3.5.5,1.1,1.6,1.6,3.1,1.6,4.7Zm-1.1,10.9l-2.1,2.1-2.1-2.1,2.1-2.1,2.1,2.1Z"/></g><g id="G_55"><path id="PATH_56" d="m736.8,457.79h-1c-1,0-1.6-.3-2.1-.5v.8c0,2.3-.8,4.7-2.3,7-1.3,2.1-2.6,2.9-3.4,2.9-2.1,0-3.7,0-5.2-.3-.5,0-.8-.3-.8-.3,0,0,.3-.3.8-.3,2.1-.5,4.2-1.6,6.3-3.1,2.1-1.8,3.4-3.7,3.4-5.5,0-1-.8-2.6-2.6-4.4l1.3-2.3c0-.3.3-.3.3-.3l.3.3c.8,1,1.3,1.8,1.8,2.1.8.5,1.8,1,2.9,1h.8v2.9h-.5Z"/><path id="PATH_57" d="m749.6,457.79h-2.1c-2.3,0-3.9-.8-5-2.3-.8,1.6-2.6,2.3-5.5,2.3h-1.6v-3.1h2.3c2.6,0,3.9-1,4.2-2.9,0-.8.3-1.3.5-1.3.3,0,.5.5.5,1.3.3,1.8,1.6,2.9,3.9,2.9h2.3v3.1h.5Zm-8.6,5.8l-2.1,2.1-2.1-2.1,2.1-2.1,2.1,2.1Zm4.7,0l-2.1,2.1-2.1-2.1,2.1-2.1,2.1,2.1Z"/><path id="PATH_58" d="m768.4,457.79h-1.6c-1.3,0-2.6-.8-3.7-2.1-.8,2.1-1.6,3.1-2.3,3.1-.8,0-2.1-.5-3.7-1.3-1.3-.8-2.3-1.6-2.9-2.1-1.3,1.6-2.6,2.3-3.9,2.3h-1.6v-3.1h1.6c1.3,0,2.3-.5,3.4-1.6.8-.8,1.6-1.8,2.6-2.9,1-1,1.8-1.6,2.6-1.6,1,0,1.8.5,2.6,1.6.5.5,1,1.6,2.3,2.9.8,1,1.8,1.6,2.9,1.6h1.6v3.2h.1Zm-7-2.1c0-.8-.3-1.6-.8-2.6s-1.3-1.6-2.3-1.6c-.8,0-1.8.8-2.9,2.1.3.3,1,.8,2.3,1.6,1.3.8,2.3,1,3.1,1,.3.1.6-.2.6-.5Z"/><path id="PATH_59" d="m788.7,450.29l-1,2.1c-1.8,0-3.4,0-4.2.3-1,.5-2.6,1-4.7,2.1-2.1,1-3.7,1.8-4.7,2.1-1.6.5-3.4.8-5,.8h-1.8v-3.1h2.1c2.3,0,4.4-.5,6.3-1.3l6-2.6c-1-.3-2.6-.8-4.7-1.6-1.8-.8-2.9-1-3.4-1-1,0-2.1.5-3.1,1.3q-.3.3-.5.3t-.3-.3v-.3c.8-2.6,2.3-3.7,4.4-3.7.8,0,1.8.3,2.9.8,2.1,1,3.7,1.6,4.7,2.1,1.8.5,3.9,1,6.3,1,.5,0,.8,0,.8.3.2.1.2.4-.1.7Zm-7.3-11.8l-2.1,2.1-2.1-2.1,2.1-2.1,2.1,2.1Z"/></g><g id="G_60"><path id="PATH_61" d="m1203.5,567.59c0,1.8-.5,3.4-1.8,4.2-.8.5-2.3,1-4.7,1.3-2.6.5-5.2.8-8.1.8-6.8,0-10.4-1.8-10.4-5.7,0-1.3.5-2.6,1.6-3.9.3-.3.3-.5.5-.5s.3,0,.3.3v.5c-.3.8-.5,1.6-.5,2.3,0,2.6,3.4,3.9,9.9,3.9,3.1,0,6-.3,8.1-.5,2.6-.5,3.7-1,3.7-1.8,0-.5-.5-1.6-1.8-3.1l1.3-2.3q.3-.3.5,0c.9,1.7,1.4,3.2,1.4,4.5Zm-10.4,11.8l-2.1,2.1-2.1-2.1,2.1-2.1,2.1,2.1Z"/><path id="PATH_62" d="m1214,573.59h-1.8c-1.8,0-3.4-.8-3.9-2.3-.5-1-.8-2.9-.8-5v-5c0-2.3-.3-5.7-.5-10.2l1.6-1.8c.3-.3.5-.3.5,0,.3,2.3.5,5.7.5,10.2v7.6c0,2.1,1,3.1,3.1,3.1h1.3v3.4h0Z"/><path id="PATH_63" d="m1226.7,573.59h-2.1c-2.3,0-3.9-.8-5-2.3-.8,1.6-2.6,2.3-5.5,2.3h-1.6v-3.1h2.3c2.6,0,3.9-1,4.2-2.9,0-.8.3-1.3.5-1.3s.5.5.5,1.3c.3,1.8,1.6,2.9,3.9,2.9h2.3v3.1h.5Zm-5.2-13.5l-2.1,2.1-2.1-2.1,2.1-2.1,2.1,2.1Z"/><path id="PATH_64" d="m1239.5,573.59h-2.1c-2.3,0-3.9-.8-5-2.3-.8,1.6-2.6,2.3-5.5,2.3h-1.6v-3.1h2.3c2.6,0,3.9-1,4.2-2.9,0-.8.3-1.3.5-1.3s.5.5.5,1.3c.3,1.8,1.6,2.9,3.9,2.9h2.3v3.1h.5Zm-8.6,5.8l-2.1,2.1-2.1-2.1,2.1-2.1,2.1,2.1Zm4.5,0l-2.1,2.1-2.1-2.1,2.1-2.1,2.1,2.1Z"/><path id="PATH_65" d="m1252.6,568.39c0,1.3,0,2.3-.5,3.4-.5,1.3-1.3,2.1-2.1,2.1-1.3,0-3.4-.8-6-2.6-.8,1-1.3,1.6-1.6,1.8-.8.5-1.6.8-2.6.8h-1.3v-3.1h1.8c1,0,2.1-.5,3.1-1.8.5-.5,1.3-1.8,2.3-3.4.8-1.3,1.8-1.8,2.6-1.8,1.3,0,2.3.5,3.1,1.8.6.7.9,1.8,1.2,2.8Zm-1.6,1.9c0-.8-.3-1.6-.8-2.6s-1.3-1.6-2.1-1.6-1.6.8-2.6,2.3c.5.5,1.3,1,2.3,1.6s2.1.8,2.6.8c.3.2.6,0,.6-.5Z"/></g><g id="G_66"><path id="PATH_67" d="m951.8,677.99h-1.3c-1.6,0-2.9-.3-3.7-1,0,.3.3.8.3,1.3,0,2.6-.8,4.2-2.6,4.2-1.6,0-2.6-.8-3.7-2.3-.8-1.3-1-2.9-1-4.4v-1h-.8c-1.8,0-2.9.5-3.7,1.3.5,4.2.8,7.3.8,9.4,0,1-.3,2.1-.8,3.7-.3.5-.3.8-.5.8s-.3-.3-.3-1l-1.3-12c0-.5.3-1.3.8-2.1s1-1.3,1.6-1.8c.3-.3,1-.5,2.1-.8.8-.3,1.6-.3,2.1-.3h.5l.3-1.6c0-.3.3-.5.3-.5,0,0,.3,0,.5.3,2.1,1.8,3.7,3.1,4.4,3.7,1.6,1,2.9,1.6,4.2,1.6h1.6v2.9h.2v-.4Zm-5.8-.3c0-.8-.5-1.6-1.6-2.6-.3-.3-1-1-2.9-2.6v1.6c0,1.3.3,2.3.8,3.1.5,1.3,1.3,1.8,2.3,1.8.9,0,1.4-.2,1.4-1.3Z"/><path id="PATH_68" d="m976,677.99h-1.6c-1.8,0-2.9-.8-3.7-2.1-.5,1.6-1.8,2.1-3.4,2.1s-2.6-.8-3.4-2.1c-.8,1.6-1.8,2.1-3.4,2.1-1.8,0-3.1-.8-3.9-2.1-1,1.6-2.3,2.1-4.2,2.1h-1.8v-3.1h2.1c1.8,0,3.1-1,3.4-3.1,0-.5.3-.8.5-.8s.3.3.5.8c.3,2.1,1.3,3.1,3.4,3.1,1.8,0,3.1-1,3.1-3.1,0-.5.3-.8.5-.8s.5.3.5.8c.3,2.1,1.3,3.1,2.6,3.1,1.8,0,3.1-1,3.1-3.1,0-.5.3-.8.5-.8s.5.3.5.8c.3,2.1,1.3,3.1,3.1,3.1h1.6v3.1h0Zm-12.2-13.3l-1.8,1.8-1.8-1.8,1.8-1.8,1.8,1.8Zm2.3-3.9l-1.8,1.8-1.8-1.8,1.8-1.8,1.8,1.8Zm2.4,3.9l-1.8,1.8-1.8-1.8,1.8-1.8,1.8,1.8Z"/><path id="PATH_69" d="m986,670.39c0,2.3-.3,3.9-.8,4.7-1.3,1.8-3.4,2.6-6.8,2.6h-3.7v-3.1h2.6c4.4,0,6.8-.8,7.3-2.1.3-.5,0-1-.3-1.6-1,.3-2.1.3-3.4.3-2.3,0-3.7-1-3.7-3.1,0-1.3.3-2.9,1-4.2.8-1.6,1.8-2.3,3.1-2.3,1,0,2.1.8,2.9,2.1,1.2,2,1.8,4.1,1.8,6.7Zm-5-14.1l-2.1,2.1-2.1-2.1,2.1-2.1,2.1,2.1Zm3.1,12c0-.8-.3-1.6-.8-2.3-.5-.8-1.3-1-2.1-1-.5,0-1,.3-1.6.5-.5.3-.5.8-.5,1.3,0,1,.8,1.6,2.6,1.6.6.2,1.4.2,2.4-.1Zm1.3-12l-2.1,2.1-2.1-2.1,2.1-2.1,2.1,2.1Z"/></g><g id="G_70"><path id="PATH_71" d="m500.5,495.39h-1.8c-1.3,0-2.6-.8-4.2-2.1-.8-.8-1.8-2.1-3.1-3.9,0,1.8-.3,3.1-1,3.9-1.3,1.6-3.9,2.3-7.8,2.3h-5.2c-6.3,0-9.7-1.8-9.7-5.5,0-1.3.5-2.6,1.3-3.9l.5-.5q.3,0,.3.3v.5c-.3,1-.5,1.6-.5,2.3,0,1,.5,1.8,1.3,2.3,1.3,1,3.4,1.6,6.3,1.6h5.2c2.9,0,5-.3,6-.5,1.3-.5,1.8-1.3,1.8-2.3s-.5-2.3-1.8-3.9c-.8-.8-1.8-2.1-3.4-3.4-1.3-1-1.8-1.8-1.8-1.8,0-1.8.3-2.9.8-3.7,0-.3,1.8-.8,5.5-2.1,3.7-1.3,6.8-2.3,9.1-3.1,0,.3-.3,1.3-.8,2.9-2.9.8-7,2.3-12.8,4.4,2.6,2.3,5.5,5.7,8.9,10.2,1.3,1.6,2.3,2.6,3.1,3.1.5.3,1.6.5,2.6.5h1v2.3h.2v.1Z"/><path id="PATH_72" d="m513.3,495.39h-2.1c-2.3,0-3.9-.8-5-2.3-.8,1.6-2.6,2.3-5.5,2.3h-1.6v-3.1h2.3c2.6,0,3.9-1,4.2-2.9,0-.8.3-1.3.5-1.3s.5.5.5,1.3c.3,1.8,1.6,2.9,3.9,2.9h2.3v3.1h.5Zm-8.9-15.1l-2.1,2.1-2.1-2.1,2.1-2.1,2.1,2.1Zm4.4,0l-2.1,2.1-2.1-2.1,2.1-2.1,2.1,2.1Z"/><path id="PATH_73" d="m537.3,495.39h-1.6c-1.8,0-2.9-.8-3.7-2.1-.5,1.6-1.8,2.1-3.4,2.1s-2.6-.8-3.4-2.1c-.8,1.6-1.8,2.1-3.4,2.1-1.8,0-3.1-.8-3.9-2.1-1,1.6-2.3,2.1-4.2,2.1h-1.8v-3.1h2.1c1.8,0,3.1-1,3.4-3.1,0-.5.3-.8.5-.8s.3.3.5.8c.3,2.1,1.3,3.1,3.4,3.1,1.8,0,3.1-1,3.1-3.1,0-.5.3-.8.5-.8s.5.3.5.8c.3,2.1,1.3,3.1,2.6,3.1,1.8,0,3.1-1,3.1-3.1,0-.5.3-.8.5-.8s.5.3.5.8c.3,2.1,1.3,3.1,3.1,3.1h1.6v3.1h0Z"/><path id="PATH_74" d="m543.5,490.19c0,3.4-1.8,5.2-5.2,5.2h-2.1v-3.1h1.8c2.6,0,3.9-.5,3.9-1.3s-.5-1.8-1.8-3.1l1-2.6c0-.3.3-.3.3-.3l.5.5c1.1,1.3,1.6,2.8,1.6,4.7Zm-.8,10.9l-2.1,2.1-2.1-2.1,2.1-2.1,2.1,2.1Z"/></g><g id="G_75"><path id="PATH_76" d="m493.7,608.29h-2.1c-2.3,0-3.7-1.3-4.2-4.2-1.3,1.3-1.8,1.8-2.1,1.8h-2.3c-.8,0-1.6,0-2.3-.3-1-.3-1.6-.8-1.6-1.3,0-2.1.8-3.7,2.1-4.7,1-.8,2.6-1.6,4.7-2.6l-.5-2.6,1.8-2.1c0,.3.8,3.1,1.8,8.6.3,1.6.8,2.9,1,3.4.5.8,1,1,2.1,1h1.8v2.9h-.2v.1Zm-6.5-5.2l-.8-4.2c-.8.3-1.8.8-3.1,1.3-1.6.8-2.6,1.6-2.6,1.8,0,.5.5.8,1.8,1,.8.3,1.6.3,2.3.3,1.1.1,1.9-.2,2.4-.2Z"/><path id="PATH_77" d="m511.4,608.29h-1.6c-1.3,0-2.9-.5-4.2-1.8-1-.8-2.1-2.3-3.4-4.2-.3,3.9-2.9,6-8.1,6h-1.4v-3.1h1c4.7,0,7.3-1,7.3-2.9,0-1.6-1-3.4-3.4-5.5-1-1-2.1-1.8-3.4-2.9,0-1,.3-1.8.8-2.6.3-.3,5-1.8,14.3-4.7,0,.3-.3,1.3-.8,2.9-2.3.5-6.3,1.8-11.5,3.4,2.6,2.9,5.2,5.5,7,7.8,1.3,1.3,2.1,2.3,2.9,2.9,1,.8,2.3,1.3,3.7,1.3h1v3.4h-.2Zm-2.8-25l-.5,1.8-12.8,4.2.5-1.8,12.8-4.2Z"/><path id="PATH_78" d="m524.2,608.29h-2.1c-2.3,0-3.9-.8-5-2.3-.8,1.6-2.6,2.3-5.5,2.3h-1.6v-3.1h2.3c2.6,0,3.9-1,4.2-2.9,0-.8.3-1.3.5-1.3.3,0,.5.5.5,1.3.3,1.8,1.6,2.9,3.9,2.9h2.3v3.1h.5Zm-5.2-13.3l-2.1,2.1-2.1-2.1,2.1-2.1,2.1,2.1Z"/><path id="PATH_79" d="m530.2,587.69c.3.3.3.5.3.5h-1.3c.3,3.4.3,8.3.3,14.9,0,1.6-.3,2.9-1,3.7-.8,1-2.1,1.6-3.4,1.6h-1.6v-3.1h1.3c2.1,0,3.1-.8,2.9-2.3-.3-5.5-.5-11.2-.8-17l1.8-1.6.5-.5s0,.3.3.5c-.3,1,.2,2,.7,3.3Z"/><path id="PATH_80" d="m543.5,608.59c0,2.6-.8,5-2.3,7.3-1.3,1.8-2.6,2.9-3.4,2.9-2.1,0-3.7,0-5.2-.3-.5,0-.8-.3-.8-.3,0,0,.3-.3.8-.3,2.1-.5,4.2-1.6,6.3-3.1,2.1-1.8,3.4-3.7,3.4-5.5,0-1-.8-2.6-2.6-4.4l1.3-2.3c0-.3.3-.3.3-.3l.3.3c.5.8,1.3,1.8,1.6,3.1.1.8.3,2.1.3,2.9Z"/><path id="PATH_81" d="m563.9,608.29h-1c-1,0-1.8-.3-2.6-1-.5-.5-1-1-1.6-2.1-.5,1-1.3,1.8-2.1,2.3-1,.5-2.3.8-4.4.8-3.7,0-5.5-1.3-5.5-3.9,0-.8.3-1.8.8-2.6.3-.3.3-.5.5-.5s.3.3.3.5v1.6c0,1.6,1.3,2.3,3.9,2.3,3.7,0,5.5-.8,5.5-2.1,0-.8-1-3.7-3.1-8.6l1-2.1c.3-.3.3-.5.3-.5,0,0,.3.3.3.5.8,2.1,2.1,5.2,3.7,9.4.8,2.1,1.8,3.1,3.4,3.1h.8l-.2,2.9h0Z"/><path id="PATH_82" d="m576.7,608.29h-2.1c-2.3,0-3.9-.8-5-2.3-.8,1.6-2.6,2.3-5.5,2.3h-1.6v-3.1h2.3c2.6,0,3.9-1,4.2-2.9,0-.8.3-1.3.5-1.3s.5.5.5,1.3c.3,1.8,1.6,2.9,3.9,2.9h2.3v3.1h.5Zm-5.3-13.3l-2.1,2.1-2.1-2.1,2.1-2.1,2.1,2.1Z"/><path id="PATH_83" d="m582.9,603.09c0,3.4-1.8,5.2-5.2,5.2h-2.1v-3.1h1.8c2.6,0,3.9-.5,3.9-1.3s-.5-1.8-1.8-3.1l1-2.6c0-.3.3-.3.3-.3l.5.5c1.1,1.6,1.6,3.2,1.6,4.7Zm-.8,11l-2.1,2.1-2.1-2.1,2.1-2.1,2.1,2.1Z"/></g><g id="G_84"><path id="PATH_85" d="m19.4,546.99c.3.8.3,1.6.3,2.3,0,1-.3,1.8-.5,2.9-.8,1.8-2.1,3.4-4.7,4.4-2.1.8-4.2,1.3-6.5,1.3s-4.2-.5-5.7-1.6c-1.6-1.3-2.3-2.9-2.3-5.2,0-1.3.3-2.3.8-3.9.5-1,.8-1.8,1.3-2.3.3-.3.5-.3.5-.3q.3,0,.3.3v.5c-.8,1.6-1,3.1-1,4.4s.5,2.3,1.3,3.4c1,1.3,2.9,1.8,5.2,1.8,2.6,0,5-.5,6.8-1.3,1.6-.8,2.6-1.6,3.1-2.6.3-.3.3-.8.3-1,0-.8-.3-1.6-.5-2.6-.3-.8-1-2.1-2.3-4.2l1-2.1c.3-.3.3-.5.3-.5,0,0,.3,0,.3.3,1,2.1,1.8,3.9,2,6Zm-7.5-11.2l-2.1,2.1-2.1-2.1,2.1-2.1,2.1,2.1Z"/><path id="PATH_86" d="m30.1,547.59h-1.8c-1.8,0-3.4-.8-3.9-2.3-.5-1-.8-2.9-.8-5v-5c0-2.3-.3-5.7-.5-10.2l1.6-1.8c.3-.3.5-.3.5,0,.3,2.3.5,5.7.5,10.2v7.6c0,2.1,1,3.1,3.1,3.1h1.3s0,3.4,0,3.4Z"/><path id="PATH_87" d="m42.9,547.59h-2.1c-2.3,0-3.9-.8-5-2.3-.8,1.6-2.6,2.3-5.5,2.3h-1.6v-3.1h2.3c2.6,0,3.9-1,4.2-2.9,0-.8.3-1.3.5-1.3.3,0,.5.5.5,1.3.3,1.8,1.6,2.9,3.9,2.9h2.6v3.1h.2Zm-8.6,5.7l-2.1,2.1-2.1-2.1,2.1-2.1,2.1,2.1Zm4.4,0l-2.1,2.1-2.1-2.1,2.1-2.1,2.1,2.1Z"/><path id="PATH_88" d="m63.5,541.79c0,1.6-.3,2.9-1,3.9s-2.1,1.8-3.4,1.8c-1.8,0-2.9-.8-3.7-2.1-1,1.6-2.1,2.1-3.7,2.1-1.8,0-3.1-.8-3.9-2.1-1,1.6-2.3,2.1-4.2,2.1h-1.8v-3.1h2.1c1.8,0,3.1-1,3.4-3.1,0-.5.3-.8.5-.8.3,0,.3.3.5.8.3,2.1,1.3,3.1,3.4,3.1,1,0,2.1-.3,2.6-.8.3-.5.5-1,.8-2.1,0-.5.3-.8.5-.8s.3.3.5.8c.3,2.1,1.3,3.1,3.1,3.1,2.1,0,2.9-.5,2.9-1.3s-.5-1.8-1.6-2.9l1.3-2.3c.3-.3.3-.5.5-.5.3,0,.3.3.5.5.2,1.4.7,2.7.7,3.7Z"/><path id="PATH_89" d="m76.8,547.79c0,2.6-.8,5-2.3,7.3-1.3,1.8-2.6,2.9-3.4,2.9-2.1,0-3.7,0-5.2-.3-.5,0-.8-.3-.8-.3,0,0,.3-.3.8-.3,2.1-.5,4.2-1.6,6.3-3.1,2.1-1.8,3.4-3.7,3.4-5.5,0-1-.8-2.6-2.6-4.4l1.3-2.3c0-.3.3-.3.3-.3l.3.3c.5.8,1.3,1.8,1.6,3.1.1.8.3,1.9.3,2.9Z"/><path id="PATH_90" d="m87.3,547.59h-1.8c-1.8,0-3.4-.8-3.9-2.3-.5-1-.8-2.9-.8-5v-5c0-2.3-.3-5.7-.5-10.2l1.6-1.8c.3-.3.5-.3.5,0,.3,2.3.5,5.7.5,10.2v7.6c0,2.1,1,3.1,3.1,3.1h1.3v3.4h0Z"/><path id="PATH_91" d="m93.3,542.29c0,3.4-1.8,5.2-5.2,5.2h-2.1v-3.1h1.8c2.6,0,3.9-.5,3.9-1.3s-.5-1.8-1.8-3.1l1-2.6c0-.3.3-.3.3-.3,0,0,.3.3.5.5,1,1.3,1.6,2.9,1.6,4.7Zm-6,10.2l1.8-1.8,1.8,1.8-1.8,1.8-1.8-1.8Zm2.3,4.2l1.8-1.8,1.8,1.8-1.8,1.8-1.8-1.8Zm2.1-4.2l1.8-1.8,1.8,1.8-1.8,1.8-1.8-1.8Z"/></g><g id="G_100"><path id="PATH_101" d="m1401.8,895.29h-1.8c-1.3,0-2.6-.8-4.2-2.1-.8-.8-1.8-2.1-3.1-3.9,0,1.8-.3,3.1-1,3.9-1.3,1.6-3.9,2.3-7.8,2.3h-5.2c-6.3,0-9.7-1.8-9.7-5.5,0-1.3.5-2.6,1.3-3.9.3-.3.5-.5.5-.5q.3,0,.3.3v.5c-.3,1-.5,1.6-.5,2.3,0,1,.5,1.8,1.3,2.3,1.3,1,3.4,1.6,6.3,1.6h5.2c2.9,0,5-.3,6-.5,1.3-.5,1.8-1.3,1.8-2.3s-.5-2.3-1.8-3.9c-.8-.8-1.8-2.1-3.4-3.4-1.3-1-1.8-1.8-1.8-1.8,0-1.8.3-2.9.8-3.7,0-.3,1.8-.8,5.5-2.1s6.8-2.3,9.1-3.1c0,.3-.3,1.3-.8,2.9-2.9.8-7,2.3-12.8,4.4,2.6,2.3,5.5,5.7,8.9,10.2,1.3,1.6,2.3,2.6,3.1,3.1.5.3,1.6.5,2.6.5h1v2.3h.2v.1Z"/><path id="PATH_102" d="m1422.4,889.79c0,1.6-.3,2.9-1,3.9-.8,1-2.1,1.8-3.4,1.8-1.8,0-2.9-.8-3.7-2.1-1,1.6-2.1,2.1-3.7,2.1-1.8,0-3.1-.8-3.9-2.1-1,1.6-2.3,2.1-4.2,2.1h-1.8v-3.1h2.1c1.8,0,3.1-1,3.4-3.1,0-.5.3-.8.5-.8.3,0,.3.3.5.8.3,2.1,1.3,3.1,3.4,3.1,1,0,2.1-.3,2.6-.8.3-.5.5-1,.8-2.1,0-.5.3-.8.5-.8.3,0,.3.3.5.8.3,2.1,1.3,3.1,3.1,3.1,2.1,0,2.9-.5,2.9-1.3s-.5-1.8-1.6-2.9l1.3-2.3c.3-.3.3-.5.5-.5s.3.3.5.5c.2,1.1.7,2.4.7,3.7Z"/><path id="PATH_103" d="m1432.8,895.29h-1.8c-1.8,0-3.4-.8-3.9-2.3-.5-1-.8-2.9-.8-5v-5c0-2.3-.3-5.7-.5-10.2l1.6-1.8c.3-.3.5-.3.5,0,.3,2.3.5,5.7.5,10.2v7.6c0,2.1,1,3.1,3.1,3.1h1.3v3.4h0Z"/><path id="PATH_104" d="m1453.2,887.69l-1,2.1c-1.8,0-3.4,0-4.2.3-1,.5-2.6,1-4.7,2.1-2.1,1-3.7,1.8-4.7,2.1-1.6.5-3.4.8-5,.8h-1.8v-3.1h2.1c2.3,0,4.4-.5,6.3-1.3l6-2.6c-1-.3-2.6-.8-4.7-1.6-1.8-.8-2.9-1-3.4-1-1,0-2.1.5-3.1,1.3q-.3.3-.5.3t-.3-.3v-.3c.8-2.6,2.3-3.7,4.4-3.7.8,0,1.8.3,2.9.8,2.1,1,3.7,1.6,4.7,2.1,1.8.5,3.9,1,6.3,1,.5,0,.8,0,.8.3.1.2-.1.5-.1.7Zm-8.6,12.8l-2.1,2.1-2.1-2.1,2.1-2.1,2.1,2.1Z"/></g><g id="G_105"><path id="PATH_106" d="m1345.4,725.49c0,3.7-2.3,5.5-7.3,5.5-1.8,0-3.1-.3-3.9-.8-1-.5-1.6-1.8-1.6-3.4,0-.8.3-1.6.5-2.3.3-.3.3-.5.5-.5.3,0,.3.3.3.8v.8c0,1,.5,1.8,1.6,2.1.5.3,1.6.3,2.9.3,3.9,0,5.7-.5,5.7-1.8,0-1.8-2.3-4.4-6.8-7.6l.8-2.6c0-.3.3-.3.3-.3,0,0,.3,0,.5.3,4.2,3.2,6.5,6.6,6.5,9.5Z"/><path id="PATH_107" d="m1358.5,731.19c0,2.6-.8,5-2.3,7.3-1.3,1.8-2.6,2.9-3.4,2.9-2.1,0-3.7,0-5.2-.3-.5,0-.8-.3-.8-.3,0,0,.3-.3.8-.3,2.1-.5,4.2-1.6,6.3-3.1,2.1-1.8,3.4-3.7,3.4-5.5,0-1-.8-2.6-2.6-4.4l1.3-2.3c0-.3.3-.3.3-.3l.3.3c.5.8,1.3,1.8,1.6,3.1,0,.8.3,1.9.3,2.9Z"/><path id="PATH_108" d="m1368.9,730.89h-1.8c-1.8,0-3.4-.8-3.9-2.3-.5-1-.8-2.9-.8-5v-5c0-2.3-.3-5.7-.5-10.2l1.6-1.8c.3-.3.5-.3.5,0,.3,2.3.5,5.7.5,10.2v7.6c0,2.1,1,3.1,3.1,3.1h1.3v3.4h0Z"/><path id="PATH_109" d="m1384.6,709.79c0,.5-.3,1.3-.8,2.9-3.1.8-7,2.1-11.5,3.4,3.1,3.1,5,5.7,5.2,7.6.3,1.3,0,2.6-.5,3.9-.5,1.3-1.6,2.1-2.9,2.6-1,.5-2.9.5-5.2.5h-1v-3.1h.8c5,0,7.6-.8,7.6-2.6,0-1.3-1.3-3.4-4.2-6l-.3.8c-.3-.3-.8-.8-1.3-1.6-.8-.8-1-1.3-1-1.6,0-.8.3-1.6,1-2.3.3-.3,1.8-.8,5.2-1.8,3.1-1.1,6.3-1.9,8.9-2.7Zm-.6-3.9l-.5,1.8-12.8,4.2.5-1.8,12.8-4.2Z"/><path id="PATH_110" d="m1397.1,731.19c0,2.6-.8,5-2.3,7.3-1.3,1.8-2.6,2.9-3.4,2.9-2.1,0-3.7,0-5.2-.3-.5,0-.8-.3-.8-.3,0,0,.3-.3.8-.3,2.1-.5,4.2-1.6,6.3-3.1,2.1-1.8,3.4-3.7,3.4-5.5,0-1-.8-2.6-2.6-4.4l1.3-2.3c0-.3.3-.3.3-.3l.3.3c.5.8,1.3,1.8,1.6,3.1,0,.8.3,1.9.3,2.9Z"/><path id="PATH_111" d="m1407.5,730.89h-1.8c-1.8,0-3.4-.8-3.9-2.3-.5-1-.8-2.9-.8-5v-5c0-2.3-.3-5.7-.5-10.2l1.6-1.8c.3-.3.5-.3.5,0,.3,2.3.5,5.7.5,10.2v7.6c0,2.1,1,3.1,3.1,3.1h1.3v3.4h0Z"/><path id="PATH_112" d="m1428.1,725.49c0,1.6-.3,2.9-1,3.9-.8,1-2.1,1.8-3.4,1.8-1.8,0-2.9-.8-3.7-2.1-1,1.6-2.1,2.1-3.7,2.1-1.8,0-3.1-.8-3.9-2.1-1,1.6-2.3,2.1-4.2,2.1h-1.8v-3.1h2.1c1.8,0,3.1-1,3.4-3.1,0-.5.3-.8.5-.8.3,0,.3.3.5.8.3,2.1,1.3,3.1,3.4,3.1,1,0,2.1-.3,2.6-.8.3-.5.5-1,.8-2.1,0-.5.3-.8.5-.8s.3.3.5.8c.3,2.1,1.3,3.1,3.1,3.1,2.1,0,2.9-.5,2.9-1.3s-.5-1.8-1.6-2.9l1.3-2.3c.3-.3.3-.5.5-.5s.3.3.5.5c.2,1.1.7,2.4.7,3.7Z"/><path id="PATH_113" d="m1438.6,730.89h-1.8c-1.8,0-3.4-.8-3.9-2.3-.5-1-.8-2.9-.8-5v-5c0-2.3-.3-5.7-.5-10.2l1.6-1.8c.3-.3.5-.3.5,0,.3,2.3.5,5.7.5,10.2v7.6c0,2.1,1,3.1,3.1,3.1h1.3v3.4h0Z"/><path id="PATH_114" d="m1444.6,725.69c0,3.4-1.8,5.2-5.2,5.2h-2.1v-3.1h1.8c2.6,0,3.9-.5,3.9-1.3s-.5-1.8-1.8-3.1l1-2.6c0-.3.3-.3.3-.3,0,0,.3.3.5.5,1,1.3,1.6,3.2,1.6,4.7Zm-6,10.5l1.8-1.8,1.8,1.8-1.8,1.8-1.8-1.8Zm2.3,3.9l1.8-1.8,1.8,1.8-1.8,1.8-1.8-1.8Zm2.1-3.9l1.8-1.8,1.8,1.8-1.8,1.8-1.8-1.8Z"/></g><g id="G_115"><path id="PATH_116" d="m1161.5,696.79l-1.3-1.6c-.8-1-1-2.6-1-4.7,0-1,.5-2.6,1-5-1.3,1.3-2.6,1.8-3.9,1.8-2.1,0-4.2-1.6-6.8-4.4l-3.4-3.9c-4.2-5-4.7-8.6-2.1-10.7,1-.8,2.3-1.3,3.9-1.6.5,0,.8,0,.8.3v.5s-.3.3-.5.3c-1,.3-1.6.5-2.1,1-.8.5-1,1.6-1,2.6,0,1.6,1,3.7,2.9,5.7l3.4,3.9c1.8,2.3,3.4,3.7,4.2,4.2,1,.8,2.1.8,3.1,0,.8-.8,1.3-1.8,1.8-3.9.3-1,.3-2.6.5-5,0-1.6.3-2.6.3-2.6,1.3-1,2.3-1.8,3.4-1.8.3,0,1.8.8,5.2,2.9,3.4,1.8,6,3.7,8.3,5-.3.3-1.3.8-2.6,1.3-2.6-1.6-6.5-3.9-11.7-6.8-.3,3.4-.8,7.8-2.1,13.3-.5,2.1-.5,3.4-.5,4.4,0,.8.5,1.6,1.3,2.3l.8.8-1.9,1.7Z"/><path id="PATH_117" d="m1160,703.59l-2.9-.3.3-2.9,2.9.3-.3,2.9Zm2.8,3.3l-2.9-.3.3-2.9,2.9.3-.3,2.9Zm6.8-8.8c-2.6,2.3-5,2.1-7.3-.5l-1.3-1.6,2.3-1.8,1,1.3c1.6,2.1,2.9,2.6,3.7,2.1.5-.5,1-1.6,1.3-3.4l2.6-.8h.5v.5c-.4,1.8-1.5,3.1-2.8,4.2Z"/><path id="PATH_118" d="m1177.7,715.79l-.8-.8c-.5-.8-1-1.3-1-2.1-.3.3-.5.3-.5.5-1.8,1.6-4.2,2.6-7,2.6-2.3.3-3.9,0-4.4-.8-1.3-1.6-2.3-2.9-3.1-4.2-.3-.5-.3-.8-.3-.8,0,0,.3,0,.8.3,1.6,1.3,3.7,2.1,6.5,2.6,2.9.5,5,.3,6.3-1,.8-.8,1.3-2.3,1.6-5l2.6-.8h.5v.5c-.3,1.3-.5,2.3-.5,2.9,0,1,.5,2.1,1,2.9l.5.5-2.2,2.7Z"/><path id="PATH_119" d="m1176.1,722.89l-2.9-.3.3-2.9,2.9.3-.3,2.9Zm2.9,3.4l-2.9-.3.3-2.9,2.9.3-.3,2.9Zm7-.6l-1.3-1.6c-1.6-1.8-2.1-3.7-1.3-5.2-1.8.3-3.7-.5-5.2-2.6l-1-1.3,2.3-1.8,1.6,1.8c1.6,1.8,3.4,2.3,5,1.3.8-.5,1-.5,1.3-.3.3.3,0,.5-.5,1.3-1.3,1.3-1.3,3.1.3,5l1.6,1.8-2.8,1.6Z"/><path id="PATH_120" d="m1203.5,737.69c-1.3,1-2.3,1.6-3.7,1.6s-2.6-.3-3.7-1.6c-1-1.3-1.3-2.9-.8-4.2-1.8.3-3.1-.3-3.9-1.3-1.3-1.6-1.6-2.9-.8-4.4-1.8.3-3.1-.5-4.2-1.8l-1-1.3,2.3-1.8,1.3,1.6c1.3,1.6,2.6,1.6,4.4.5.5-.3.8-.3.8,0,.3.3,0,.5-.3.8-1.3,1.6-1.6,2.9-.3,4.4.8.8,1.6,1.3,2.3,1.3.5,0,1.3-.3,2.1-.8.5-.3.8-.3.8-.3.3.3,0,.5-.3.8-1.3,1.6-1.6,3.1-.3,4.4,1.3,1.6,2.3,2.1,2.9,1.3.5-.5,1-1.6,1.3-3.1l2.3-.5h.8s0,.3-.3.8c-.1,1.8-.9,3.1-1.7,3.6Z"/></g><g id="G_98"><path id="PATH_99" d="m386.1,733.19c-.2,1.3-.4,2.4-.8,3.3-1,2.4-4,4-6.9,4-4,0-6-2.7-6-6.3,0-2.2.7-4.3,1.6-5.7l.7.4c-.6,1.3-1,2.6-1,3.8,0,3.4,2.3,5,5,5,3.2,0,6.1-2.4,6.1-4.3,0-1.3-.8-3.5-2.1-5.4.4-.7.8-1.3,1.4-2.2h.1c.8,1.5,1.3,2.7,1.7,3.9.3.7.6,1,1.3,1,.6,0,1.2-.3,1.6-.6.4-.3.9-.8,1.2-1.6l.5-1.5,1.4-.6.1.1c-.5,1.4-.6,2.3-.6,3,0,.9.6,1.3,1.4,1.3,1.6,0,2.2-1.5,2.5-2.7l.3-1.4,1.5-.9.1.1c-.2.9-.5,2.1-.5,2.8,0,1.6,1.6,2.1,3.5,2.1h.5v2.6h-.5c-2.5,0-3.9-.8-4.4-1.9h-.1c-1.1,1.4-2.4,1.9-3.6,1.9-.9,0-1.9-.3-2.2-1.7h-.2c-.7,1-1.7,1.7-3.3,1.7h-.3v-.2Zm3.4-10.2c-.8-.8-1.6-1.5-2.4-2.1.5-.7,1.1-1.4,1.6-1.9.8.7,1.5,1.3,2.3,2.2-.5.7-.9,1.2-1.5,1.8Zm1.1-4.4c-.8-.8-1.6-1.5-2.4-2.1.5-.7,1.1-1.4,1.6-1.9.8.7,1.5,1.3,2.3,2.2-.5.7-.9,1.3-1.5,1.8Zm2.9,4.1c-.8-.8-1.6-1.5-2.4-2.1.5-.7,1.1-1.4,1.6-1.9.8.7,1.5,1.3,2.3,2.2-.5.7-.9,1.3-1.5,1.8Z"/><path id="PATH_100" d="m401.2,730.49c1.6,0,3.2-.6,3.5-1.8l.6-2.2,1.4-1,.1.1c-.3,1-.5,1.9-.5,2.4,0,.7.2,1.3.7,1.7.7.5,1.5.8,2.5.8h.4v2.6h-.5c-2,0-3.5-.6-4.2-2.1h-.1c-.7,1.4-2.3,2.1-4.1,2.1h-.3c-1.1,0-1.4-.8-1.4-1.4,0-.5.3-1.3,1.4-1.3h.5v.1Zm2.3,10.8c-.8-.8-1.6-1.5-2.4-2.1.5-.7,1.1-1.4,1.6-1.9.8.7,1.5,1.3,2.3,2.2-.5.8-.9,1.3-1.5,1.8Zm3.9-.2c-.8-.8-1.6-1.5-2.4-2.1.5-.7,1.1-1.4,1.6-1.9.8.7,1.5,1.3,2.3,2.2-.5.7-.9,1.2-1.5,1.8Z"/><path id="PATH_101-2" d="m422.7,711.09c-.5.8-1,1.7-1.5,2.5-1,.3-2.2.6-3.3,1-2.2.8-4.4,1.7-6.7,2.7v.1l3.3,1.3-.5,1c3.2,2.6,5.3,5.2,5.3,7.3,0,1.9-.5,3.4-1.3,4.2-1.3,1.1-3.3,1.9-7.2,1.9h-.8c-1.1,0-1.4-.8-1.4-1.4,0-.5.3-1.3,1.4-1.3h1.3c2.1,0,4.1-.2,5.5-1.1.7-.5,1.1-.9,1.1-1.1,0-.9-.6-2-1.4-3.1-.9-1.2-2.8-3.2-6.2-5.8-.6-.5-.7-1.2-.7-1.9,0-.4.2-.9.5-1.3.2-.4.6-.8,1.5-1.3,2.4-1.2,6.3-2.6,11-4.1l.1.4Z"/></g></svg>