



    


<svg version="1.1" id="Layer_1" xmlns="http://www.w3.org/2000/svg" xmlns:xlink="http://www.w3.org/1999/xlink" x="0px" y="0px" viewBox="0 0 575 575" style="enable-background:new 0 0 575 575;" xml:space="preserve" width="100%" height="100%">
<style type="text/css">
	.st0{fill:#FBD1D1;stroke:#020202;stroke-width:0.2;stroke-miterlimit:10;}
	.st1{fill:#E8D0E5;stroke:#020202;stroke-width:0.2;stroke-miterlimit:10;}
	.st2{fill:#DBECCB;stroke:#020202;stroke-width:0.2;stroke-miterlimit:10;}
	.st3{fill:#FDFAD6;stroke:#020202;stroke-width:0.2;stroke-miterlimit:10;}
	.st4{enable-background:new    ;}
	.st5{fill:#040404;}
</style>
		<path class="st0 area" d="M113.7,61.8c0.8-1.6,3.3-0.8,4.1-0.8c11.5,10.7,21.4,18.9,37,23c9.9,2.5,14.8,19.7,27.9,21.4
			c6.6,0.8,8.2,14,15.6,9.9c0.8-0.8,0-4.9-1.6-7.4c-3.3-5.8-11.5-8.2-8.2-16.4c2-4,3.8-8.6,4.9-13.2c-0.3,0-0.5,0-0.8,0.1
			c-8.2-16.4-23-24.6-33.7-39.4c-0.2-0.4-0.4-0.9-0.5-1.3c-9.7-1-23.1-8.6-31.1-18.6c-3.2-4-4.5-4.2-4.5-4.2
			c-0.4,0.4-1.2,3.5-1.6,5.2c-0.4,1.5-0.8,3.1-1.4,4.5c-2.6,6.5-10.5,13-24.9,11.5c-6.5-0.7-11.7-1-13.7,0.8c-1.1,1-1.7,3.1-1.7,6.2
			c0,6.4,3.4,9.9,6.9,13.6c1.8,1.8,3.6,3.7,4.9,5.9c1.2,2.1,1.6,4.4,1,7C100.8,73.2,109.8,74.2,113.7,61.8z" id="_x32_47" title="ایوان"></path>
		<path class="st1 area" d="M222.9,139.9c9,18.9,27.1,34.5,47.6,26.3c11.5,14,27.9,19.7,42.7,28.7c1.3,1,2.5,0.7,3.7-0.1
			c-0.2-1.6,0.2-3.6,1.7-5.9c0.5-0.7,0.5-1.6,0.1-2.5c-0.5-1.4-1.7-2.4-2.5-2.6c-3.4-1-16.2-8.5-18.8-9.9l-0.5-0.4l-8-7.5
			c-0.2-0.2-4.1-4.1-6.5-7.5c-2.1-3-5-7.1-2-11.6c0.4-0.6,0.6-1.5,0.9-2.5c0.4-1.4,0.8-3.3,2.2-4.7c-15-11.3-27.4-23-47.5-27.7
			c-2.5,0-4.9-3.3-6.6-5.8c-8.1-15.4-17.8-30-36.2-28c-1,4.6-2.9,9.2-4.9,13.2c-1.9,4.7,0,7.5,2.5,10.1c0-0.1,0-0.1,0-0.2
			c0,0.1,0,0.1,0,0.2c1.9,2,4.3,3.9,5.7,6.4c1.6,2.5,2.5,6.6,1.6,7.4c-0.1,0.1-0.2,0.1-0.2,0.1C205.9,124.1,217.8,129.6,222.9,139.9
			z" id="_x32_59" title="شیروان"></path>
		<path class="st2 area" d="M97.3,142.3c1.6-3.3,7.4,2.5,10.7-0.8c4.9-4.9,9.9-12.3,18.1-9c2.5,0.8,3.3,5.7,5.8,7.4
			c9,4.1,12.3-11.5,20.5-8.2c14.8,6.6,22.2,28.8,42.7,23c1.6,0,2.5,2.5,3.3,3.3c0,3.3,0.8,7.4,3.3,7.4c9.9,2.5,16.4,3.3,23,12.3
			c4.9,4.9,10.7-3.3,14-0.8c9,7.4,20.5,12.3,29.6,7.4c2.5-0.8-0.8-4.9-2.5-8.2c-1.5-4.1,0.4-6.6,2.7-9.1
			c-19.6,6.3-36.7-8.8-45.4-27.1c-5.1-10.3-17-15.8-24.9-24.5c-7.2,3.7-8.9-9.2-15.4-10c-13.1-1.6-18.1-18.9-27.9-21.4
			c-15.6-4.1-25.5-12.3-37-23c-0.8,0-3.3-0.8-4.1,0.8c-3.9,12.3-12.9,11.3-21.4,7.5c-0.1,0.4-0.2,0.8-0.3,1.2c-2,5.8-8.2,11-13.1,13
			c-2.6,1-4.9,4.1-7.8,8c-2.8,3.6-6.2,8.2-11,12.4c-10,8.7-30.5,18.4-31.3,18.8c-0.4,0.2-0.8,0.2-1.2,0.2c-0.3,0-0.6-0.1-0.9-0.2
			c-0.1,0.1-0.3,0.1-0.5,0.2l2.7,2.7l10.3,7l0.7,2.2l0.7,1.8v8.8l1.5,1.8l3.7-0.7l3.7-2.6l6.3-5.9l3.7-1.5l10.7-0.4l4.4-1.1
			l-0.7,7.8l3.7,4.1l4.8,2.9l1.3,5.1C89.4,152.9,94.4,149,97.3,142.3z" id="_x32_49" title="ایلام"></path>
		<path class="st3 area" d="M241,278.7c2.5-3.3-5.8-6.6-2.5-9c1.6-2.5,0.8-4.1,0.8-5.8c-1.6-4.1-6.6-4.9-10.7-4.9
			c-4.1-0.8-7.4-4.9-8.2-8.2c-1.6-4.1-0.8-11.5-5.8-11.5c-14-0.8-35.3,10.7-41.9-5.8c-3.3-9,7.4-24.6-3.3-27.1
			c-6.6-0.8-14-3.3-18.1-8.2c-0.8-1.6,0-4.9,0.8-6.6c5.8-4.9,9.9-6.6,12.3-14c4.2-9.7,19.4-12.4,20.6-22.3
			c-13.6-2.2-20.8-18.2-33-23.7c-8.2-3.3-11.5,12.3-20.5,8.2c-2.5-1.6-3.3-6.6-5.8-7.4c-8.2-3.3-13.1,4.1-18.1,9
			c-3.3,3.3-9-2.5-10.7,0.8c-2.9,6.7-7.9,10.6-13.7,12.8l0.2,0.8l-2.6,3.7l-10.3,6.3l-3.3,4.4l3.7,3l6.3,1.5l6.6-0.7l4.1-3.7
			l1.1-0.7l1.1-0.4l1.1,0.4l1.1,0.7l0.4,0.4l0.7,0.4l7.4,8.8l2.2,4.4l1.8,4.8l0.7,5.1v4.4l1.1,3.7l7.4,7l8.5,11.8l7,5.5l2.9,3
			l1.8,4.4v2.6l-1.1,4.8l-0.4,2.2l1.1,2.2l2.6,1.8v2.2l-1.5,3.3l-2.9,3.3l-5.9,5.9l-4.4,3.3l-3.7,0.7l-3.3-0.4l-4.8,0.7l-4.4,2.2
			l-0.4,3l2.9,2.6l9.6,1.1l4.1,1.8l3.3,2.6l1.1,3.7l-1.5,4.4l-3.3,3.3l-3.3,2.6l-3,3.3l4.8,10.3l12.5,1.5l25.4-2.9l22.8,7l16.5,7.9
			c5.6-7.8,10-16.1,15.5-24.4C220.5,286.1,233.6,287.7,241,278.7z" id="_x32_63" title="مهران"></path>
		<path class="st0 area" d="M274.7,248.3c9.9-3.3,5.8-15.6,8.2-23.8c2.5-5.8,3.3-12.3,1.6-18.9c-0.8-4.1-6.6-4.9-9-8.2
			c-3.1-4.2-6-8.4-9.1-12.3c-8.7,3.5-19.4-1.2-27.9-8.2c-3.3-2.5-9,5.8-14,0.8c-6.6-9-13.1-9.9-23-12.3c-2.5,0-3.3-4.1-3.3-7.4
			c-0.8-0.8-1.6-3.3-3.3-3.3c-3.6,1-6.8,1.2-9.8,0.7c-1.2,10-16.5,12.7-20.6,22.3c-2.5,7.4-6.6,9-12.3,14c-0.8,1.6-1.6,4.9-0.8,6.6
			c4.1,4.9,11.5,7.4,18.1,8.2c10.7,2.5,0,18.1,3.3,27.1c6.6,16.4,27.9,4.9,41.9,5.8c4.9,0,4.1,7.4,5.7,11.5c0.8,3.3,4.1,7.4,8.2,8.2
			c4.1,0,9,0.8,10.7,4.9c0,1.6,0.8,3.3-0.8,5.8c-0.7,0.5-0.9,1.1-0.7,1.7c1.2-0.3,2.3-0.8,3.2-1.7
			C251.7,259.8,260.7,252.4,274.7,248.3z" id="_x39_89" title="ملکشاهی"></path>
		<path class="st3 area" d="M301,226.1c3.3,4.9,10.7,1.6,16.4,2.5c3.3,0.8,5.8,1.6,7.4,4.1c4.9,9.9,14.8,20.5,24.6,18.9
			c8.2-1.6,12.3-10.7,13.1-20.5c0-0.5,0.7-1.4,1.3-2.3c-1.2-1.3-2.1-2.9-2.8-4.3c-0.3-0.5-0.5-0.9-0.8-1.4c-1.5-2.7-3-3.6-5.2-4.8
			c-1.9-1.1-11.2-8.1-12.5-10.2c-0.3-0.2-2.7-1.1-4.8-1.6c-3.1-0.5-14.3-2.6-17.4-5.8c-1.6-1.6-3.1-3.4-3.4-5.8
			c-1.2,0.8-2.4,1.1-3.7,0.1c-14.8-9-31.2-14.8-42.7-28.7c-0.7,0.3-1.5,0.6-2.2,0.8c-2.3,2.5-4.3,5-2.7,9.1c1.6,3.3,4.9,7.4,2.5,8.2
			c-0.5,0.3-1.1,0.5-1.7,0.8c3.1,4,5.9,8.2,9.1,12.3c2.5,3.3,8.2,4.1,9,8.2c0.4,1.5,0.6,2.9,0.7,4.4
			C290.9,214.6,295.9,219.6,301,226.1z" id="_x32_75" title="بدره"></path>
		<path class="st0 area" d="M545.4,354.5c0-0.6-0.8-2.6-1.6-4.4l-3.6-7.3l-4.7-7c-3.2-0.5-11.1-2.4-13.5-7.7c-1.7-3.8-9.6-9.9-14.6-13.1
			c-2-1.2-4.3-2.4-6.3-3.4c-3-1.5-5.4-2.7-6.8-4.1c-1-1-1.9-2.2-3-3.6c-1-1.3-2.1-2.7-3.2-3.8c-1.3-1.3-6.2-3.7-9.5-5.1l-9-1
			c-5.7-2-19.1-6.8-21.5-8.7c-0.6-0.5-1.5-1.1-2.5-1.8c-4.1-3-7.4-5.5-8.6-7.5c-0.7-1.1-3.5-2.4-5-3.1c-0.5-0.2-1-0.5-1.4-0.6
			c-1.2-0.6-5.3-2.9-6.8-7.3c-0.8-2.3-5.4-9-6.7-10c-0.9-0.7-4.8-2.2-7.8-3.3l-0.9-0.3l-0.5-0.7c-1.4-2.1-4.4-5.6-6.5-6.4
			c-1.1-0.4-4-1.7-7.6-3.2c-7.1-3.1-21.9-9.5-24.4-9.8c-2.5-0.3-4.3-1.4-5.6-2.7c-0.7,1-1.3,1.8-1.3,2.3
			c-0.8,9.9-4.9,18.9-13.1,20.5c-0.1,0-0.3,0.1-0.5,0.1c0.1,0.5,0.3,1.1,0.5,1.6c4.1,8.2,9.9,14,17.2,19.7
			c8.2,5.7,18.9-4.1,25.5,3.3c8.2,9,17.3,9,27.9,13.1c3.3,1.6,4.9,8.2,8.2,9.9c8.2,4.9,17.2,3.3,25.5,8.2c8.2,5.8,6.6,17.3,14,23
			c7.4,5.8,14.8,12.3,23.8,16.4c4.9,1.6,9,0,14-1.6c14-3.3,22.2,9.9,32,18c2.5,1.9,7.2,0.9,10.8-1.7c-0.2-0.3-0.4-0.7-0.6-1
			C546.3,358,545.4,356.2,545.4,354.5z" id="_x32_53" title="دره شهر"></path>
		<path class="st2 area" d="M505.5,415.8c-13.1-2.5-32,4.1-38.6-11.5c-4.1-9-16.4-9-22.2-17.2c-3.3-4.1-0.8-9.9-4.9-13.1
			c-6.6-4.1-15.6-2.5-19.7-9c-3.3-5.8-8.2-9.9-14-9.9c-18.9,2.5-42.7-4.1-40.2-25.5c0.8-12.3,1.6-23-9.9-30.4
			c-12.3-7.4-26.3-6.6-37-15.6c-2.5-2.5,0-4.9,0.8-6.6c1.6-4.1-3.3-6.6-4.1-9.9c-3.2-12.6,10.4-16.2,19.5-20.8
			c-4.3-3.7-8-8.8-10.4-13.7c-1.6-2.5-4.1-3.3-7.4-4.1c-5.8-0.8-13.1,2.5-16.4-2.5c-5-6.6-10.1-11.6-15.7-16.2
			c0.5,5.1-0.5,10.1-2.4,14.5c-2.5,8.2,1.6,20.5-8.2,23.8c-14,4.1-23,11.5-33.7,21.4c-0.9,0.9-2,1.5-3.2,1.7
			c0.5,2.2,5.1,4.7,3.2,7.3c-7.4,9-20.5,7.4-27.9,18.1c-5.5,8.3-9.9,16.6-15.5,24.4l5.2,2.5l5.9,5.9l21,12.2l9.9,7.8l14,8.8l8.8,9.9
			l65.2,56.4l7,5.1l6.3,3.3l7,1.5l7.4-0.7l4.1-1.5l9.9-5.5l3,0.4l12.2,4.1l4.4,2.6l2.9,3.3l2.6,3.7l3.3,4.8l5.9,4.4l1.1,1.8l0.4,2.9
			l-0.7,1.5l-1.1,1.5l-1.8,4.8l-1.1,1.1v1.1l1.5,3.3l1.1,1.5l6.3,6.3l1.1,1.5l0.7,1.5l4.1,5.2l1.1,1.5l2.2,1.1l1.1,3l4.4,3.3
			l1.1,3.3l-0.4,3.7l-1.1,2.2l-1.5,2.2l-0.7,3l-0.4,3.7v1.8l1.5,1.1l3.3,1.1l2.9,1.8l1.8,2.6l1.8,2.2l3.3,0.4l4.1,1.5l0.4,0.7
			l3.3,4.8l4.8,11l3.3,3.7l7.7,3.7l1.8,4.4v0.4l1.1,4.4l2.6,4.7c0-0.1,0-0.1,0-0.1c0.8-4,5.1-24.2,11.1-29.2
			c1.9-1.6,4.3-3.3,6.9-5.1c5-3.5,10.6-7.6,12.8-10.9c3.7-5.5,10.8-20.8,12.5-26.8c1.8-6.4,9.1-30.2,9.2-30.5l4.5-12.6v-11.7
			C518.7,425.5,513.8,417.6,505.5,415.8z" id="_x32_56" title="دهلران"></path>
		<path class="st1 area" d="M548.7,362.2c-0.1-0.2-0.2-0.4-0.4-0.7c-3.6,2.7-8.4,3.6-10.8,1.7c-9.9-8.2-18.1-21.4-32-18
			c-4.9,1.6-9,3.3-14,1.6c-9-4.1-16.4-10.7-23.8-16.4c-7.4-5.7-5.8-17.2-14-23c-8.2-4.9-17.3-3.3-25.5-8.2c-3.3-1.6-4.9-8.2-8.2-9.9
			c-10.7-4.1-19.7-4.1-27.9-13.1c-6.6-7.4-17.2,2.5-25.5-3.3c-7.4-5.8-13.1-11.5-17.2-19.7c-0.2-0.5-0.3-1-0.5-1.6
			c-4.8,0.6-9.6-1.6-13.8-5.2c-9.1,4.6-22.6,8.2-19.5,20.8c0.8,3.3,5.8,5.8,4.1,9.9c-0.8,1.6-3.3,4.1-0.8,6.6
			c10.7,9,24.6,8.2,37,15.6c11.5,7.4,10.7,18.1,9.9,30.4c-2.5,21.4,21.4,27.9,40.2,25.5c5.8,0,10.7,4.1,14,9.9
			c4.1,6.6,13.1,4.9,19.7,9c4.1,3.3,1.6,9,4.9,13.1c5.8,8.2,18.1,8.2,22.2,17.2c6.6,15.6,25.5,9,38.6,11.5
			c8.4,1.8,13.3,9.7,16.3,18.3v-12.4l-0.8-7.6l-2.7-4.1l-5-6.2l5.2-9l1.8,0.2c2.1,0.2,4.8-0.1,5.3-0.6c1.1-1.3,1.1-3.4,0.6-4.1
			c-1.2-1.5-1.5-3.5-0.9-5.5c0.8-2.5,2.6-4.4,4.7-5c1.3-0.4,9.2-3.9,14.4-6.2c3-5.8,4.5-7.6,5.1-8.3
			C549.5,364.6,549.2,363.2,548.7,362.2z" id="_x32_51" title="آبدانان"></path>
		<path class="st3 area active" d="M192.6,78.3c18.9-2.5,28.7,12.3,37,27.9c1.6,2.5,4.1,5.8,6.6,5.8c20,4.7,32.5,16.4,47.5,27.7
			c0.7-0.8,1.7-1.4,3.1-1.8c2.1-0.5,11.3-2.1,14.8,0.5c1,0.8,2.1,1.7,3.2,2.7c0.9,0.8,1.8,1.6,2.9,2.5c0.9,0.7,4.4,1.2,7,1.2l0.4,0
			l3.8,0.6c0.4-1.2,0.7-2.4,0.6-2.8c-1-1.9-1.8-6.5-2-7.4l-0.2-1.3l0.8-1c1.5-1.8,6.5-7.9,9-9.4c0.1-0.3,0-2.1-0.3-3.4l-1.1-4
			l4.1,0.5c4.1,0.5,11.6,1,14.5,0.1c3.7-1.1,6.9-5,6.9-5.1l1.8-2.3l2.2,2c0.1,0.1,3.6,3.1,6.8,1.1c4.5-2.9,9.3-5.4,13.3-2.1
			c1.5,1,10.8,1.6,17.6-0.9c6.8-2.5,11.5-5.2,12.5-6.4c0.3-1.7,2-4.5,8.2-12.7c0.7-0.9,1.2-1.7,1.4-1.9c0.7-1,1.8-1.7,3.6-2.8
			c2.2-1.4,5.1-3.3,6.5-5.4c1.7-2.5,1.3-4.3,0.8-6.7c-0.1-0.5-0.2-1-0.3-1.5c-0.4-2.6-2.7-12.2-2.7-12.2l-0.1-0.5l0.1-0.5
			c0.2-1.5,0.3-3.6,0.2-5.5c-7.5-2.1-29.4-8.3-35.7-11.5c-0.8-0.4-1.3-0.4-1.4-0.4c-0.5,0.7-0.2,5.3,1.3,7.5
			c3.1,4.6,4.1,14.3,4.1,21.2c0,8.9-12.4,18.7-23.6,18.7c-12.6,0-41.5-10.8-42.7-11.2c-4-1.5-7.1-1.7-9.1-0.5
			c-1.6,0.9-2.7,2.9-3.2,5.8c-0.4,2.3-2,4.3-4.7,6.1c-7.8,4.9-24.6,6.8-31.9,4.7c-2.5-0.7-6.4-1-10.5-1.3
			c-9.7-0.7-20.8-1.5-26.5-8.2c-4-4.7-16.7-15.3-27.9-24.6c-8.9-7.4-17.2-14.4-21-18.2c-8.8-8.8-21.7-5.5-25.4-4.2
			c-1.8,0.6-4,0.8-6.4,0.5c0.1,0.5,0.3,0.9,0.5,1.3C169.6,53.6,184.3,61.8,192.6,78.3z" id="_x39_59" title="چرداول"></path>

	<g class="st4 area" id="G_13" title="">
		<path class="st5 area" d="M474.5,265.6L474.5,265.6" id="PATH_14" title=""></path>
	</g>

<g id="G_15" class="area" title="">
	<path d="M290,101.1c0,0.1,0.1,0.2,0,0.2c0,0-0.1,0-0.2,0h-0.3c0.2,3.8,0.3,6.5,0.2,8c-0.1,2.4-1.5,3.5-4.1,3.5
		c-0.9,0-1.5-0.2-2-0.5c-0.6-0.4-0.9-1-0.9-1.9c0-0.8,0.2-1.6,0.7-2.2c0.1-0.1,0.1-0.1,0.2-0.1c0.1,0,0.1,0,0.1,0.1c0,0,0,0.1,0,0.1
		c-0.2,0.5-0.3,1-0.3,1.4c0,0.6,0.2,1.1,0.7,1.5c0.4,0.3,0.9,0.5,1.6,0.5c1,0,1.8-0.2,2.5-0.5c0.6-0.3,0.9-0.6,0.9-1
		c0-4.3-0.1-7.6-0.4-9.8l0.7-0.6c0.1-0.1,0.1-0.1,0.2-0.1c0,0,0.1,0.1,0.1,0.2C289.6,100.1,289.8,100.5,290,101.1z" id="PATH_16" class="area" title=""></path>
	<path d="M295.2,108.6c0,1.5-0.5,2.8-1.5,3.8c-0.3,0.3-0.5,0.5-0.6,0.5c-0.6,0-1.2-0.1-1.9-0.2c-0.3,0-0.4-0.1-0.4-0.1
		c0,0,0.1-0.1,0.4-0.2c0.8-0.2,1.6-0.7,2.3-1.3c0.3-0.3,0.6-0.5,0.8-0.9c0.3-0.4,0.5-0.8,0.5-1.1v-0.3l-1.3,0
		c-0.9,0-1.4-0.4-1.4-1.1c0-0.5,0.1-1,0.4-1.6c0.3-0.6,0.7-1,1.1-1c0.6,0,1.1,0.4,1.4,1.3C295.1,107.1,295.2,107.8,295.2,108.6z
		 M294.5,107.7c0-0.3-0.1-0.6-0.3-0.9c-0.2-0.3-0.5-0.5-0.8-0.5c-0.2,0-0.4,0.1-0.5,0.2c-0.2,0.2-0.2,0.3-0.2,0.5
		c0,0.5,0.3,0.7,1,0.7C293.8,107.8,294.1,107.8,294.5,107.7z" id="PATH_17" class="area" title=""></path>
	<path d="M297.6,107.7c0,0.4-0.1,0.8-0.3,1.1c-0.1,0.2-0.2,0.3-0.2,0.3c0,0-0.1-0.1-0.1-0.4c0-1.2-0.2-4-0.6-8.5l0.8-0.8
		c0.1-0.1,0.1-0.1,0.1-0.1c0,0,0,0.1,0,0.2C297.5,100.9,297.6,103.6,297.6,107.7z" id="PATH_18" class="area" title=""></path>
	<path d="M303.7,106.9c0,1.4-0.9,2.1-2.8,2.1c-0.7,0-1.2-0.1-1.5-0.3c-0.4-0.2-0.6-0.7-0.6-1.3c0-0.3,0.1-0.6,0.2-0.9
		c0.1-0.1,0.1-0.2,0.2-0.2c0.1,0,0.1,0.1,0.1,0.3c0,0.1,0,0.2,0,0.3c0,0.4,0.2,0.7,0.6,0.8c0.2,0.1,0.6,0.1,1.1,0.1
		c1.5,0,2.2-0.2,2.2-0.7c0-0.7-0.9-1.7-2.6-2.9l0.3-1c0-0.1,0.1-0.1,0.1-0.1c0,0,0.1,0,0.2,0.1C302.8,104.5,303.7,105.7,303.7,106.9
		z" id="PATH_19" class="area" title=""></path>
	<path d="M309.9,109h-0.4c-0.4,0-0.6-0.1-0.8-0.2c0,0.1,0,0.2,0,0.3c0,0.9-0.3,1.8-0.9,2.7c-0.5,0.8-1,1.1-1.3,1.1
		c-0.8,0-1.4,0-2-0.1c-0.2,0-0.3-0.1-0.3-0.1s0.1-0.1,0.3-0.1c0.8-0.2,1.6-0.6,2.4-1.2c0.8-0.7,1.3-1.4,1.3-2.1c0-0.4-0.3-1-1-1.7
		l0.5-0.9c0-0.1,0.1-0.1,0.1-0.1c0,0,0.1,0.1,0.1,0.1c0.3,0.4,0.5,0.7,0.7,0.8c0.3,0.2,0.7,0.4,1.1,0.4h0.3V109z" id="PATH_20" class="area" title=""></path>
	<path d="M317.7,106l-0.4,0.8c-0.7,0-1.3,0-1.6,0.1c-0.4,0.2-1,0.4-1.8,0.8c-0.8,0.4-1.4,0.7-1.8,0.8c-0.6,0.2-1.3,0.3-1.9,0.3h-0.7
		v-1.2h0.8c0.9,0,1.7-0.2,2.4-0.5l2.3-1c-0.4-0.1-1-0.3-1.8-0.6c-0.7-0.3-1.1-0.4-1.3-0.4c-0.4,0-0.8,0.2-1.2,0.5
		c-0.1,0.1-0.1,0.1-0.2,0.1c-0.1,0-0.1,0-0.1-0.1c0,0,0-0.1,0-0.1c0.3-1,0.9-1.4,1.7-1.4c0.3,0,0.7,0.1,1.1,0.3
		c0.8,0.4,1.4,0.6,1.8,0.8c0.7,0.2,1.5,0.4,2.4,0.4c0.2,0,0.3,0,0.3,0.1C317.8,105.9,317.8,105.9,317.7,106z M312.2,110.8l0.7-0.7
		l0.7,0.7l-0.7,0.7L312.2,110.8z M313.1,112.4l0.7-0.7l0.7,0.7l-0.7,0.7L313.1,112.4z M314,110.8l0.7-0.7l0.7,0.7l-0.7,0.7
		L314,110.8z" id="PATH_21" class="area" title=""></path>
</g>
<g id="G_22" class="area" title="">
	<path d="M229.7,133.2c0.1,0.3,0.1,0.6,0.1,0.9c0,0.4-0.1,0.7-0.2,1.1c-0.3,0.7-0.8,1.3-1.8,1.7c-0.8,0.3-1.6,0.5-2.5,0.5
		c-0.9,0-1.6-0.2-2.2-0.6c-0.6-0.5-0.9-1.1-0.9-2c0-0.5,0.1-0.9,0.3-1.5c0.2-0.4,0.3-0.7,0.5-0.9c0.1-0.1,0.2-0.1,0.2-0.1
		c0.1,0,0.1,0,0.1,0.1c0,0,0,0.1,0,0.2c-0.3,0.6-0.4,1.2-0.4,1.7c0,0.5,0.2,0.9,0.5,1.3c0.4,0.5,1.1,0.7,2,0.7c1,0,1.9-0.2,2.6-0.5
		c0.6-0.3,1-0.6,1.2-1c0.1-0.1,0.1-0.3,0.1-0.4c0-0.3-0.1-0.6-0.2-1c-0.1-0.3-0.4-0.8-0.9-1.6l0.4-0.8c0.1-0.1,0.1-0.2,0.1-0.2
		s0.1,0,0.1,0.1C229.2,131.6,229.5,132.4,229.7,133.2z M226.7,128.9l-0.8,0.8l-0.8-0.8l0.8-0.8L226.7,128.9z" id="PATH_23" class="area" title=""></path>
	<path d="M232.1,132.1c0,0.4-0.1,0.8-0.3,1.1c-0.1,0.2-0.2,0.3-0.2,0.3c0,0-0.1-0.1-0.1-0.4c0-1.2-0.2-4-0.6-8.5l0.8-0.8
		c0.1-0.1,0.1-0.1,0.1-0.1c0,0,0,0.1,0,0.2C232.1,125.3,232.1,128,232.1,132.1z" id="PATH_24" class="area" title=""></path>
	<path d="M237.3,132.9c0,1.5-0.5,2.8-1.5,3.8c-0.3,0.3-0.5,0.5-0.6,0.5c-0.6,0-1.2-0.1-1.9-0.2c-0.3,0-0.4-0.1-0.4-0.1
		c0,0,0.1-0.1,0.4-0.2c0.8-0.2,1.6-0.7,2.3-1.3c0.3-0.3,0.6-0.5,0.8-0.9c0.3-0.4,0.5-0.8,0.5-1.1v-0.3l-1.3,0
		c-0.9,0-1.4-0.4-1.4-1.1c0-0.5,0.1-1,0.4-1.6c0.3-0.6,0.7-1,1.1-1c0.6,0,1.1,0.4,1.4,1.3C237.2,131.5,237.3,132.2,237.3,132.9z
		 M236.5,132.1c0-0.3-0.1-0.6-0.3-0.9c-0.2-0.3-0.5-0.5-0.8-0.5c-0.2,0-0.4,0.1-0.5,0.2c-0.2,0.2-0.2,0.3-0.2,0.5
		c0,0.5,0.3,0.7,1,0.7C235.8,132.2,236.2,132.2,236.5,132.1z" id="PATH_25" class="area" title=""></path>
	<path d="M243.5,133.3h-0.4c-0.4,0-0.6-0.1-0.8-0.2c0,0.1,0,0.2,0,0.3c0,0.9-0.3,1.8-0.9,2.7c-0.5,0.8-1,1.1-1.3,1.1
		c-0.8,0-1.4,0-2-0.1c-0.2,0-0.3-0.1-0.3-0.1s0.1-0.1,0.3-0.1c0.8-0.2,1.6-0.6,2.4-1.2c0.8-0.7,1.3-1.4,1.3-2.1c0-0.4-0.3-1-1-1.7
		l0.5-0.9c0-0.1,0.1-0.1,0.1-0.1c0,0,0.1,0.1,0.1,0.1c0.3,0.4,0.5,0.7,0.7,0.8c0.3,0.2,0.7,0.4,1.1,0.4h0.3V133.3z" id="PATH_26" class="area" title=""></path>
	<path d="M248.4,133.3h-0.8c-0.9,0-1.5-0.3-1.9-0.9c-0.3,0.6-1,0.9-2.1,0.9h-0.6v-1.2h0.9c1,0,1.5-0.4,1.6-1.1
		c0-0.3,0.1-0.5,0.2-0.5c0.1,0,0.2,0.2,0.2,0.5c0.1,0.7,0.6,1.1,1.5,1.1h0.9V133.3z M245.1,135.5l-0.8,0.8l-0.8-0.8l0.8-0.8
		L245.1,135.5z M246.8,135.5l-0.8,0.8l-0.8-0.8l0.8-0.8L246.8,135.5z" id="PATH_27" class="area" title=""></path>
	<path d="M256.3,131.2c0,0.6-0.1,1.1-0.4,1.5c-0.3,0.4-0.8,0.7-1.3,0.7c-0.7,0-1.1-0.3-1.4-0.8c-0.4,0.6-0.8,0.8-1.4,0.8
		c-0.7,0-1.2-0.3-1.5-0.8c-0.4,0.6-0.9,0.8-1.6,0.8H248v-1.2h0.8c0.7,0,1.2-0.4,1.3-1.2c0-0.2,0.1-0.3,0.2-0.3
		c0.1,0,0.1,0.1,0.2,0.3c0.1,0.8,0.5,1.2,1.3,1.2c0.4,0,0.8-0.1,1-0.3c0.1-0.2,0.2-0.4,0.3-0.8c0-0.2,0.1-0.3,0.2-0.3
		c0.1,0,0.1,0.1,0.2,0.3c0.1,0.8,0.5,1.2,1.2,1.2c0.8,0,1.1-0.2,1.1-0.5c0-0.3-0.2-0.7-0.6-1.1l0.5-0.9c0.1-0.1,0.1-0.2,0.2-0.2
		s0.1,0.1,0.2,0.2C256.1,130.2,256.3,130.8,256.3,131.2z M252.9,127.5l-0.7,0.7l-0.7-0.7l0.7-0.7L252.9,127.5z M253.8,126l-0.7,0.7
		l-0.7-0.7l0.7-0.7L253.8,126z M254.7,127.5l-0.7,0.7l-0.7-0.7l0.7-0.7L254.7,127.5z" id="PATH_28" class="area" title=""></path>
</g>
<g id="G_29" class="area" title="">
	<path d="M139.1,55.4c0.1,0.3,0.1,0.6,0.1,0.9c0,0.4-0.1,0.7-0.2,1.1c-0.3,0.7-0.8,1.3-1.8,1.7c-0.8,0.3-1.6,0.5-2.5,0.5
		c-0.9,0-1.6-0.2-2.2-0.6c-0.6-0.5-0.9-1.1-0.9-2c0-0.5,0.1-0.9,0.3-1.5c0.2-0.4,0.3-0.7,0.5-0.9c0.1-0.1,0.2-0.1,0.2-0.1
		c0.1,0,0.1,0,0.1,0.1c0,0,0,0.1,0,0.2c-0.3,0.6-0.4,1.2-0.4,1.7c0,0.5,0.2,0.9,0.5,1.3c0.4,0.5,1.1,0.7,2,0.7c1,0,1.9-0.2,2.6-0.5
		c0.6-0.3,1-0.6,1.2-1c0.1-0.1,0.1-0.3,0.1-0.4c0-0.3-0.1-0.6-0.2-1c-0.1-0.3-0.4-0.8-0.9-1.6l0.4-0.8c0.1-0.1,0.1-0.2,0.1-0.2
		s0.1,0,0.1,0.1C138.6,53.8,138.9,54.6,139.1,55.4z M136.1,51l-0.8,0.8l-0.8-0.8l0.8-0.8L136.1,51z" id="PATH_30" class="area" title=""></path>
	<path d="M141.5,54.3c0,0.4-0.1,0.8-0.3,1.1c-0.1,0.2-0.2,0.3-0.2,0.3c0,0-0.1-0.1-0.1-0.4c0-1.2-0.2-4-0.6-8.5l0.8-0.8
		c0.1-0.1,0.1-0.1,0.1-0.1c0,0,0,0.1,0,0.2C141.5,47.4,141.5,50.1,141.5,54.3z" id="PATH_31" class="area" title=""></path>
	<path d="M147.7,55.5h-1.1c-0.1,1.4-0.6,2.5-1.6,3.5c-0.3,0.3-0.5,0.5-0.6,0.5c-0.5,0-1.2-0.1-1.9-0.2c-0.2,0-0.4-0.1-0.4-0.1
		s0.1-0.1,0.4-0.2c0.8-0.2,1.6-0.7,2.3-1.2c0.3-0.3,0.6-0.5,0.8-0.9c0.3-0.4,0.5-0.8,0.5-1.1v-0.3h-1.3c-1,0-1.4-0.4-1.4-1.2
		c0-0.5,0.1-1,0.4-1.6c0.3-0.6,0.7-1,1.1-1c0.5,0,0.9,0.3,1.2,1c0.2,0.5,0.4,1,0.4,1.6h1.1V55.5z M145.9,54.3c0-0.3-0.1-0.6-0.3-0.9
		c-0.2-0.4-0.5-0.5-0.8-0.5c-0.2,0-0.4,0.1-0.5,0.2c-0.2,0.2-0.2,0.3-0.2,0.6c0,0.5,0.4,0.7,1.2,0.7
		C145.4,54.4,145.6,54.3,145.9,54.3z" id="PATH_32" class="area" title=""></path>
	<path d="M150.1,53.5c0,1.3-0.7,2-2,2h-0.8v-1.2h0.7c1,0,1.5-0.2,1.5-0.5c0-0.3-0.2-0.7-0.7-1.2l0.4-1c0-0.1,0.1-0.1,0.1-0.1
		c0,0,0.1,0.1,0.2,0.2C149.9,52.2,150.1,52.9,150.1,53.5z M149.3,57.7l-0.8,0.8l-0.8-0.8l0.8-0.8L149.3,57.7z M151,57.7l-0.8,0.8
		l-0.8-0.8l0.8-0.8L151,57.7z" id="PATH_33" class="area" title=""></path>
	<path d="M153.4,54.3c0,0.4-0.1,0.8-0.3,1.1c-0.1,0.2-0.2,0.3-0.2,0.3c0,0-0.1-0.1-0.1-0.4c0-1.2-0.2-4-0.6-8.5l0.8-0.8
		c0.1-0.1,0.1-0.1,0.1-0.1c0,0,0,0.1,0,0.2C153.4,47.4,153.4,50.1,153.4,54.3z" id="PATH_34" class="area" title=""></path>
</g>
<g id="G_35" class="area" title="">
	<path d="M124,107c0,0.2-0.1,0.4-0.3,0.8c-0.2,0.4-0.4,0.6-0.5,0.6c-0.3,0-0.7-0.1-1.2-0.2c-0.5-0.1-0.9-0.2-1.2-0.2
		c-0.5,0-0.9,0.1-1.1,0.2c0.2,1.7,0.3,3,0.3,3.8c0,0.4-0.1,0.8-0.4,1.3c-0.1,0.1-0.1,0.2-0.1,0.2c0,0,0,0,0-0.1
		c-0.1-1.6-0.2-3.2-0.4-4.8c0-0.2,0.1-0.4,0.3-0.7c0.2-0.2,0.3-0.4,0.5-0.5c0.2-0.2,0.5-0.2,0.8-0.2c-0.1-0.3-0.1-0.5-0.1-0.7
		c0-0.3,0.1-0.7,0.4-1.1c0.3-0.4,0.6-0.6,1-0.6c0.5,0,1,0.3,1.5,0.8C123.7,106,124,106.5,124,107z M123.2,107.3
		c-0.1-0.3-0.4-0.7-0.7-1c-0.4-0.4-0.7-0.5-1.1-0.5c-0.5,0-0.7,0.2-0.7,0.5c0,0.2,0.1,0.4,0.2,0.8
		C121.5,107,122.3,107.1,123.2,107.3z" id="PATH_36" class="area" title=""></path>
	<path d="M133.3,109h-0.6c-1.2,0-1.9-0.9-1.9-2.7c0-0.2,0-0.5,0-0.9c-0.8,1.9-1.7,3.3-2.9,4.1c-0.7,0.2-1.6,0.3-2.6,0.3
		c-0.2,0-0.3,0-0.3,0c0,0,0.3-0.2,0.9-0.5c0.4-0.2,0.8-0.4,1.2-0.6c0.7-0.3,1.4-0.8,2-1.5c-0.3-1-0.7-1.9-1.3-2.7
		c-0.4-0.5-1-1.1-1.9-1.8l-0.1,0.4c-0.3-0.2-0.5-0.4-0.7-0.6c-0.3-0.3-0.5-0.5-0.5-0.7c0-0.2,0-0.5,0.1-1c0-0.1,0-0.2,0.1-0.2
		s0.1,0,0.2,0.1c1.3,0.9,2.3,1.8,2.9,2.6c0.8,1,1.3,2.1,1.6,3.4c0.4-0.5,0.7-1,0.9-1.6c0.3-0.7,0.4-1.3,0.4-1.8c0-0.9-0.1-1.9-0.2-3
		l0.8-0.7c0.1,0.5,0.1,2.8,0.2,6.9c0,0.9,0.4,1.4,1.2,1.4h0.5V109z" id="PATH_37" class="area" title=""></path>
	<path d="M135.7,107c0,1.3-0.7,2-2,2h-0.8v-1.2h0.7c1,0,1.5-0.2,1.5-0.5c0-0.3-0.2-0.7-0.7-1.2l0.4-1c0-0.1,0.1-0.1,0.1-0.1
		c0,0,0.1,0.1,0.2,0.2C135.5,105.7,135.7,106.3,135.7,107z M134.9,111.2l-0.8,0.8l-0.8-0.8l0.8-0.8L134.9,111.2z M136.6,111.2
		l-0.8,0.8l-0.8-0.8l0.8-0.8L136.6,111.2z" id="PATH_38" class="area" title=""></path>
	<path d="M139,107.7c0,0.4-0.1,0.8-0.3,1.1c-0.1,0.2-0.2,0.3-0.2,0.3c0,0-0.1-0.1-0.1-0.4c0-1.2-0.2-4-0.6-8.5l0.8-0.8
		c0.1-0.1,0.1-0.1,0.1-0.1c0,0,0,0.1,0,0.2C139,100.9,139,103.6,139,107.7z" id="PATH_39" class="area" title=""></path>
</g>
<g id="G_40" class="area" title="">
	<path d="M197.2,208.9h-2.3c-0.3,0-0.6,0-0.8,0.1c-0.4,0.1-0.5,0.3-0.5,0.5c0,0.1,0.5,0.2,1.4,0.4c1,0.2,1.4,0.4,1.4,0.6
		c0,0.8-0.2,1.4-0.7,1.8c-0.8,0.7-2.1,1-4,1c-2.3,0-3.5-0.9-3.5-2.6c0-0.4,0.1-0.8,0.3-1.3c0.2-0.5,0.4-0.9,0.6-1.2
		c0.1-0.1,0.2-0.2,0.3-0.2c0.1,0,0.1,0,0.1,0.1c0,0.1,0,0.2-0.1,0.3c-0.3,0.6-0.5,1.2-0.5,1.8c0,0.7,0.3,1.2,1,1.5
		c0.5,0.3,1.1,0.4,1.9,0.4c0.8,0,1.5,0,2.2-0.1c1.2-0.2,1.8-0.4,1.8-0.8c0-0.2-0.3-0.3-0.8-0.4c-0.8-0.1-1.3-0.2-1.5-0.3
		c-0.5-0.1-0.8-0.4-0.8-0.7c0-0.2,0.1-0.5,0.4-0.9c0.2-0.3,0.4-0.5,0.7-0.7c0.5-0.4,1.1-0.6,2-0.6h1.4V208.9z" id="PATH_41" class="area" title=""></path>
	<path d="M203.3,206.9c0,0.4-0.1,0.8-0.4,1.2c-0.3,0.5-0.6,0.7-1,0.7c-0.3,0-1-0.2-2.1-0.7c-0.9,0.6-1.7,0.8-2.4,0.8h-0.5v-1.2h0.6
		c0.4,0,0.8,0,1.2-0.1c-0.4-0.3-0.6-0.7-0.6-1.2c0-0.6,0.4-1.3,1.3-2l-0.7-0.3c0.2-0.2,0.5-0.5,0.9-0.9c0.9,0.5,1.7,0.9,2.4,1.5
		C202.8,205.5,203.3,206.2,203.3,206.9z M200.7,206.1c0-0.3-0.1-0.5-0.2-0.7c-0.1-0.3-0.3-0.4-0.6-0.4c-0.3,0-0.5,0.1-0.8,0.3
		c-0.3,0.2-0.5,0.5-0.5,0.7c0,0.4,0.4,0.8,1.1,1c0.2-0.1,0.4-0.2,0.6-0.3C200.5,206.5,200.7,206.3,200.7,206.1z M202.8,207.3
		c0-0.3-0.2-0.6-0.6-1c-0.3-0.3-0.6-0.6-0.9-0.7c0,0.8-0.2,1.4-0.7,1.8c0.8,0.3,1.4,0.4,1.6,0.4
		C202.6,207.8,202.8,207.6,202.8,207.3z" id="PATH_42" class="area" title=""></path>
	<path d="M207.3,208.9h-0.7c-0.7,0-1.3-0.3-1.5-0.9c-0.2-0.4-0.3-1.1-0.3-1.9v-1.9c0-0.9-0.1-2.2-0.2-3.9l0.6-0.7
		c0.1-0.1,0.2-0.1,0.2,0c0.1,0.9,0.2,2.2,0.2,3.9v2.9c0,0.8,0.4,1.2,1.2,1.2h0.5V208.9z" id="PATH_43" class="area" title=""></path>
	<path d="M216.5,208.9h-0.6c-0.7,0-1.1-0.3-1.4-0.8c-0.2,0.6-0.7,0.8-1.3,0.8c-0.6,0-1-0.3-1.3-0.8c-0.3,0.6-0.7,0.8-1.3,0.8
		c-0.7,0-1.2-0.3-1.5-0.8c-0.4,0.6-0.9,0.8-1.6,0.8h-0.7v-1.2h0.8c0.7,0,1.2-0.4,1.3-1.2c0-0.2,0.1-0.3,0.2-0.3
		c0.1,0,0.1,0.1,0.2,0.3c0.1,0.8,0.5,1.2,1.3,1.2c0.7,0,1.2-0.4,1.2-1.2c0-0.2,0.1-0.3,0.2-0.3c0.1,0,0.2,0.1,0.2,0.3
		c0.1,0.8,0.5,1.2,1,1.2c0.7,0,1.2-0.4,1.2-1.2c0-0.2,0.1-0.3,0.2-0.3c0.1,0,0.2,0.1,0.2,0.3c0.1,0.8,0.5,1.2,1.2,1.2h0.6V208.9z
		 M211.8,203.9l-0.7,0.7l-0.7-0.7l0.7-0.7L211.8,203.9z M212.7,202.3l-0.7,0.7l-0.7-0.7l0.7-0.7L212.7,202.3z M213.6,203.9l-0.7,0.7
		l-0.7-0.7l0.7-0.7L213.6,203.9z" id="PATH_44" class="area" title=""></path>
	<path d="M223.3,208.9h-0.7c-0.5,0-1-0.3-1.6-0.8c-0.3-0.3-0.7-0.8-1.2-1.5c0.1,1.6-0.8,2.4-2.7,2.4h-1.1v-1.2h1.3
		c1.3,0,2-0.4,2-1.1c0-0.4-0.2-0.9-0.7-1.5c-0.3-0.4-0.7-0.8-1.3-1.3c-0.5-0.4-0.7-0.7-0.7-0.7c0-0.7,0.1-1.2,0.3-1.5
		c0-0.1,0.7-0.3,2-0.8c1.3-0.5,2.5-0.9,3.6-1.2c0,0.1-0.1,0.5-0.3,1.1c-1.3,0.4-2.9,1-4.9,1.8c0.9,0.8,2.1,2.1,3.4,3.9
		c0.5,0.6,0.9,1,1.2,1.2c0.2,0.1,0.6,0.2,1,0.2h0.4V208.9z" id="PATH_45" class="area" title=""></path>
	<path d="M227,208.9h-0.4c-0.9,0-1.5-0.3-1.8-1c-0.1,0.3-0.3,0.5-0.6,0.7c-0.3,0.2-0.6,0.3-0.9,0.3h-0.4v-1.2h0.4
		c0.8,0,1.2-0.3,1.2-1v-3.5c0-1.3,0-2.3-0.1-3l0.9-0.7v6.7c0,1,0.4,1.5,1.3,1.5h0.4V208.9z" id="PATH_46" class="area" title=""></path>
	<path d="M232,206.9c0,0.5,0,0.9-0.2,1.3c-0.2,0.5-0.5,0.8-0.8,0.8c-0.5,0-1.3-0.3-2.3-1c-0.3,0.4-0.5,0.6-0.6,0.7
		c-0.3,0.2-0.6,0.3-1,0.3h-0.5v-1.2h0.7c0.4,0,0.8-0.2,1.2-0.7c0.2-0.2,0.5-0.7,0.9-1.3c0.3-0.5,0.7-0.7,1-0.7
		c0.5,0,0.9,0.2,1.2,0.7C231.8,206.2,232,206.6,232,206.9z M231.4,207.7c0-0.3-0.1-0.6-0.3-1c-0.2-0.4-0.5-0.6-0.8-0.6
		c-0.3,0-0.6,0.3-1,0.9c0.2,0.2,0.5,0.4,0.9,0.6c0.4,0.2,0.8,0.3,1,0.3C231.3,207.9,231.4,207.9,231.4,207.7z" id="PATH_47" class="area" title=""></path>
</g>
<g id="G_48" class="area" title="">
	<path d="M162.6,265.4c0.1,0.3,0.1,0.6,0.1,0.9c0,0.4-0.1,0.7-0.2,1.1c-0.3,0.7-0.8,1.3-1.8,1.7c-0.8,0.3-1.6,0.5-2.5,0.5
		c-0.9,0-1.6-0.2-2.2-0.6c-0.6-0.5-0.9-1.1-0.9-2c0-0.5,0.1-0.9,0.3-1.5c0.2-0.4,0.3-0.7,0.5-0.9c0.1-0.1,0.2-0.1,0.2-0.1
		c0.1,0,0.1,0,0.1,0.1c0,0,0,0.1,0,0.2c-0.3,0.6-0.4,1.2-0.4,1.7c0,0.5,0.2,0.9,0.5,1.3c0.4,0.5,1.1,0.7,2,0.7c1,0,1.9-0.2,2.6-0.5
		c0.6-0.3,1-0.6,1.2-1c0.1-0.1,0.1-0.3,0.1-0.4c0-0.3-0.1-0.6-0.2-1c-0.1-0.3-0.4-0.8-0.9-1.6l0.4-0.8c0.1-0.1,0.1-0.2,0.1-0.2
		s0.1,0,0.1,0.1C162.2,263.9,162.5,264.6,162.6,265.4z M159.7,261.1l-0.8,0.8l-0.8-0.8l0.8-0.8L159.7,261.1z" id="PATH_49" class="area" title=""></path>
	<path d="M165.1,264.3c0,0.4-0.1,0.8-0.3,1.1c-0.1,0.2-0.2,0.3-0.2,0.3c0,0-0.1-0.1-0.1-0.4c0-1.2-0.2-4-0.6-8.5l0.8-0.8
		c0.1-0.1,0.1-0.1,0.1-0.1c0,0,0,0.1,0,0.2C165.1,257.5,165.1,260.2,165.1,264.3z" id="PATH_50" class="area" title=""></path>
	<path d="M171.3,265.6h-0.4c-0.4,0-0.6-0.1-0.8-0.2c0,0.1,0,0.2,0,0.3c0,0.9-0.3,1.8-0.9,2.7c-0.5,0.8-1,1.1-1.3,1.1
		c-0.8,0-1.4,0-2-0.1c-0.2,0-0.3-0.1-0.3-0.1s0.1-0.1,0.3-0.1c0.8-0.2,1.6-0.6,2.4-1.2c0.8-0.7,1.3-1.4,1.3-2.1c0-0.4-0.3-1-1-1.7
		l0.5-0.9c0-0.1,0.1-0.1,0.1-0.1c0,0,0.1,0.1,0.1,0.1c0.3,0.4,0.5,0.7,0.7,0.8c0.3,0.2,0.7,0.4,1.1,0.4h0.3V265.6z" id="PATH_51" class="area" title=""></path>
	<path d="M177.5,265.6H177c-0.4,0-0.8,0.1-1.1,0.2c-0.5,0.2-0.8,0.5-0.8,1c0,0.6,0.4,1.1,1.2,1.6l-0.5,1c-0.9-0.3-1.7-0.8-2.3-1.4
		c-0.8-0.7-1.2-1.6-1.2-2.5h-1.4v-1.2h1.3c0-0.8,0.2-1.6,0.6-2.6c0.4-0.9,0.7-1.3,0.9-1.3c0.2,0,0.5,0.4,0.8,1.3
		c0.3,0.8,0.4,1.3,0.4,1.6c0,1.4-0.7,2.1-2.1,2.1c0.1,0.4,0.3,0.8,0.6,1.2c0.3,0.4,0.7,0.7,1.1,0.9c0-0.1,0-0.3,0-0.4
		c0-0.7,0.2-1.3,0.5-1.8c0.5-0.7,1.1-1.1,2-1.1h0.4V265.6z M174.5,264c0-0.2-0.1-0.6-0.3-1.1c-0.2-0.6-0.4-0.8-0.6-0.8
		c-0.1,0-0.3,0.2-0.5,0.7c-0.2,0.5-0.3,1.1-0.3,1.7C173.9,264.4,174.5,264.3,174.5,264z" id="PATH_52" class="area" title=""></path>
	<path d="M182.5,263.6c0,0.5,0,0.9-0.2,1.3c-0.2,0.5-0.5,0.8-0.8,0.8c-0.5,0-1.3-0.3-2.3-1c-0.3,0.4-0.5,0.6-0.6,0.7
		c-0.3,0.2-0.6,0.3-1,0.3h-0.5v-1.2h0.7c0.4,0,0.8-0.2,1.2-0.7c0.2-0.2,0.5-0.7,0.9-1.3c0.3-0.5,0.7-0.7,1-0.7
		c0.5,0,0.9,0.2,1.2,0.7C182.3,262.9,182.5,263.2,182.5,263.6z M181.9,264.3c0-0.3-0.1-0.6-0.3-1c-0.2-0.4-0.5-0.6-0.8-0.6
		c-0.3,0-0.6,0.3-1,0.9c0.2,0.2,0.5,0.4,0.9,0.6c0.4,0.2,0.8,0.3,1,0.3C181.8,264.6,181.9,264.5,181.9,264.3z" id="PATH_53" class="area" title=""></path>
</g>
<g id="G_54" class="area" title="">
	<path d="M306.8,207.8c0,0.7-0.2,1.2-0.6,1.6c-0.4,0.4-1,0.5-1.6,0.5c-0.4,0-0.8-0.1-1.1-0.4c-0.3-0.3-0.5-0.6-0.5-1
		c0-0.5,0.2-1,0.6-1.7c0.3-0.6,0.7-1.1,1.1-1.5C306.1,206,306.8,206.9,306.8,207.8z M306.2,208.2c0-0.3-0.2-0.6-0.7-1
		c-0.4-0.4-0.7-0.6-1.1-0.7c-0.5,0.7-0.8,1.2-0.8,1.6c0,0.2,0.1,0.4,0.4,0.6c0.2,0.1,0.4,0.2,0.7,0.2c0.4,0,0.8-0.1,1.1-0.2
		C306.1,208.4,306.2,208.3,306.2,208.2z" id="PATH_55" class="area" title=""></path>
	<path d="M311.8,210c0,1-0.3,1.9-0.9,2.8c-0.5,0.7-1,1.1-1.3,1.1c-0.8,0-1.4,0-2-0.1c-0.2,0-0.3-0.1-0.3-0.1s0.1-0.1,0.3-0.1
		c0.8-0.2,1.6-0.6,2.4-1.2c0.8-0.7,1.3-1.4,1.3-2.1c0-0.4-0.3-1-1-1.7l0.5-0.9c0-0.1,0.1-0.1,0.1-0.1c0,0,0.1,0.1,0.1,0.1
		c0.2,0.3,0.5,0.7,0.6,1.2C311.7,209.2,311.8,209.7,311.8,210z" id="PATH_56" class="area" title=""></path>
	<path d="M319.6,209.9h-0.4c-0.4,0-0.7-0.1-1-0.4c-0.2-0.2-0.4-0.4-0.6-0.8c-0.2,0.4-0.5,0.7-0.8,0.9c-0.4,0.2-0.9,0.3-1.7,0.3
		c-1.4,0-2.1-0.5-2.1-1.5c0-0.3,0.1-0.7,0.3-1c0.1-0.1,0.1-0.2,0.2-0.2c0.1,0,0.1,0.1,0.1,0.2c0,0.1,0,0.1,0,0.3c0,0.1,0,0.2,0,0.3
		c0,0.6,0.5,0.9,1.5,0.9c1.4,0,2.1-0.3,2.1-0.8c0-0.3-0.4-1.4-1.2-3.3l0.4-0.8c0.1-0.1,0.1-0.2,0.1-0.2c0,0,0.1,0.1,0.1,0.2
		c0.3,0.8,0.8,2,1.4,3.6c0.3,0.8,0.7,1.2,1.3,1.2h0.3V209.9z" id="PATH_57" class="area" title=""></path>
	<path d="M322,207.9c0,1.3-0.7,2-2,2h-0.8v-1.2h0.7c1,0,1.5-0.2,1.5-0.5c0-0.3-0.2-0.7-0.7-1.2l0.4-1c0-0.1,0.1-0.1,0.1-0.1
		s0.1,0.1,0.2,0.2C321.8,206.7,322,207.3,322,207.9z M321.7,212.1l-0.8,0.8l-0.8-0.8l0.8-0.8L321.7,212.1z" id="PATH_58" class="area" title=""></path>
</g>
<g id="G_59" class="area" title="">
	<path d="M321.4,356.4c0.1,0.3,0.1,0.6,0.1,0.9c0,0.4-0.1,0.7-0.2,1.1c-0.3,0.7-0.8,1.3-1.8,1.7c-0.8,0.3-1.6,0.5-2.5,0.5
		c-0.9,0-1.6-0.2-2.2-0.6c-0.6-0.5-0.9-1.1-0.9-2c0-0.5,0.1-0.9,0.3-1.5c0.2-0.4,0.3-0.7,0.5-0.9c0.1-0.1,0.2-0.1,0.2-0.1
		c0.1,0,0.1,0,0.1,0.1c0,0,0,0.1,0,0.2c-0.3,0.6-0.4,1.2-0.4,1.7c0,0.5,0.2,0.9,0.5,1.3c0.4,0.5,1.1,0.7,2,0.7c1,0,1.9-0.2,2.6-0.5
		c0.6-0.3,1-0.6,1.2-1c0.1-0.1,0.1-0.3,0.1-0.4c0-0.3-0.1-0.6-0.2-1c-0.1-0.3-0.4-0.8-0.9-1.6l0.4-0.8c0.1-0.1,0.1-0.2,0.1-0.2
		s0.1,0,0.1,0.1C321,354.8,321.3,355.6,321.4,356.4z M318.5,352l-0.8,0.8l-0.8-0.8l0.8-0.8L318.5,352z" id="PATH_60" class="area" title=""></path>
	<path d="M323.9,355.3c0,0.4-0.1,0.8-0.3,1.1c-0.1,0.2-0.2,0.3-0.2,0.3c0,0-0.1-0.1-0.1-0.4c0-1.2-0.2-4-0.6-8.5l0.8-0.8
		c0.1-0.1,0.1-0.1,0.1-0.1c0,0,0,0.1,0,0.2C323.8,348.4,323.9,351.1,323.9,355.3z" id="PATH_61" class="area" title=""></path>
	<path d="M330.1,356.5h-0.4c-0.4,0-0.6-0.1-0.8-0.2c0,0.1,0,0.2,0,0.3c0,0.9-0.3,1.8-0.9,2.7c-0.5,0.8-1,1.1-1.3,1.1
		c-0.8,0-1.4,0-2-0.1c-0.2,0-0.3-0.1-0.3-0.1s0.1-0.1,0.3-0.1c0.8-0.2,1.6-0.6,2.4-1.2c0.8-0.7,1.3-1.4,1.3-2.1c0-0.4-0.3-1-1-1.7
		l0.5-0.9c0-0.1,0.1-0.1,0.1-0.1c0,0,0.1,0.1,0.1,0.1c0.3,0.4,0.5,0.7,0.7,0.8c0.3,0.2,0.7,0.4,1.1,0.4h0.3V356.5z" id="PATH_62" class="area" title=""></path>
	<path d="M333.8,356.5h-0.4c-0.9,0-1.5-0.3-1.8-1c-0.1,0.3-0.3,0.5-0.6,0.7c-0.3,0.2-0.6,0.3-0.9,0.3h-0.4v-1.2h0.4
		c0.8,0,1.2-0.3,1.2-1v-3.5c0-1.3,0-2.3-0.1-3l0.9-0.7v6.7c0,1,0.4,1.5,1.3,1.5h0.4V356.5z" id="PATH_63" class="area" title=""></path>
	<path d="M339.9,354.5c0,0.4-0.1,0.8-0.4,1.2c-0.3,0.5-0.6,0.7-1,0.7c-0.3,0-1-0.2-2.1-0.7c-0.9,0.6-1.7,0.8-2.4,0.8h-0.5v-1.2h0.6
		c0.4,0,0.8,0,1.2-0.1c-0.4-0.3-0.6-0.7-0.6-1.2c0-0.6,0.4-1.3,1.3-2l-0.7-0.3c0.2-0.2,0.5-0.5,0.9-0.9c0.9,0.5,1.7,0.9,2.4,1.5
		C339.4,353.1,339.9,353.8,339.9,354.5z M337.3,353.7c0-0.3-0.1-0.5-0.2-0.7c-0.1-0.3-0.3-0.4-0.6-0.4c-0.3,0-0.5,0.1-0.8,0.3
		c-0.3,0.2-0.5,0.5-0.5,0.7c0,0.4,0.4,0.8,1.1,1c0.2-0.1,0.4-0.2,0.6-0.3C337.2,354.1,337.3,353.9,337.3,353.7z M339.4,354.9
		c0-0.3-0.2-0.6-0.6-1c-0.3-0.3-0.6-0.6-0.9-0.7c0,0.8-0.2,1.4-0.7,1.8c0.8,0.3,1.4,0.4,1.6,0.4
		C339.2,355.3,339.4,355.2,339.4,354.9z" id="PATH_64" class="area" title=""></path>
	<path d="M346,354.4c0,1.4-0.9,2.1-2.8,2.1c-0.7,0-1.2-0.1-1.5-0.3c-0.4-0.2-0.6-0.7-0.6-1.3c0-0.3,0.1-0.6,0.2-0.9
		c0.1-0.1,0.1-0.2,0.2-0.2c0.1,0,0.1,0.1,0.1,0.3c0,0.1,0,0.2,0,0.3c0,0.4,0.2,0.7,0.6,0.8c0.2,0.1,0.6,0.1,1.1,0.1
		c1.5,0,2.2-0.2,2.2-0.7c0-0.7-0.9-1.7-2.6-2.9l0.3-1c0-0.1,0.1-0.1,0.1-0.1c0,0,0.1,0,0.2,0.1C345.2,352,346,353.3,346,354.4z" id="PATH_65" class="area" title=""></path>
</g>
<g id="G_66" class="area" title="">
	<path d="M395.6,324.9c0.1,0.3,0.1,0.6,0.1,0.9c0,0.4-0.1,0.7-0.2,1.1c-0.3,0.7-0.8,1.3-1.8,1.7c-0.8,0.3-1.6,0.5-2.5,0.5
		c-0.9,0-1.6-0.2-2.2-0.6c-0.6-0.5-0.9-1.1-0.9-2c0-0.5,0.1-0.9,0.3-1.5c0.2-0.4,0.3-0.7,0.5-0.9c0.1-0.1,0.2-0.1,0.2-0.1
		c0.1,0,0.1,0,0.1,0.1c0,0,0,0.1,0,0.2c-0.3,0.6-0.4,1.2-0.4,1.7c0,0.5,0.2,0.9,0.5,1.3c0.4,0.5,1.1,0.7,2,0.7c1,0,1.9-0.2,2.6-0.5
		c0.6-0.3,1-0.6,1.2-1c0.1-0.1,0.1-0.3,0.1-0.4c0-0.3-0.1-0.6-0.2-1c-0.1-0.3-0.4-0.8-0.9-1.6l0.4-0.8c0.1-0.1,0.1-0.2,0.1-0.2
		s0.1,0,0.1,0.1C395.1,323.3,395.4,324.1,395.6,324.9z M392.6,320.5l-0.8,0.8l-0.8-0.8l0.8-0.8L392.6,320.5z" id="PATH_67" class="area" title=""></path>
	<path d="M399.6,325h-0.7c-0.7,0-1.3-0.3-1.5-0.9c-0.2-0.4-0.3-1.1-0.3-1.9v-1.9c0-0.9-0.1-2.2-0.2-3.9l0.6-0.7
		c0.1-0.1,0.2-0.1,0.2,0c0.1,0.9,0.2,2.2,0.2,3.9v2.9c0,0.8,0.4,1.2,1.2,1.2h0.5V325z" id="PATH_68" class="area" title=""></path>
	<path d="M402,323c0,1.3-0.7,2-2,2h-0.8v-1.2h0.7c1,0,1.5-0.2,1.5-0.5c0-0.3-0.2-0.7-0.7-1.2l0.4-1c0-0.1,0.1-0.1,0.1-0.1
		s0.1,0.1,0.2,0.2C401.8,321.7,402,322.4,402,323z M401.9,318.5l-0.8,0.8l-0.8-0.8l0.8-0.8L401.9,318.5z" id="PATH_69" class="area" title=""></path>
	<path d="M404.3,323.8c0,0.4-0.1,0.8-0.3,1.1c-0.1,0.2-0.2,0.3-0.2,0.3c0,0-0.1-0.1-0.1-0.4c0-1.2-0.2-4-0.6-8.5l0.8-0.8
		c0.1-0.1,0.1-0.1,0.1-0.1c0,0,0,0.1,0,0.2C404.3,316.9,404.3,319.6,404.3,323.8z" id="PATH_70" class="area" title=""></path>
	<path d="M412.1,325h-0.4c-0.4,0-0.7-0.1-1-0.4c-0.2-0.2-0.4-0.4-0.6-0.8c-0.2,0.4-0.5,0.7-0.8,0.9c-0.4,0.2-0.9,0.3-1.7,0.3
		c-1.4,0-2.1-0.5-2.1-1.5c0-0.3,0.1-0.7,0.3-1c0.1-0.1,0.1-0.2,0.2-0.2c0.1,0,0.1,0.1,0.1,0.2c0,0.1,0,0.1,0,0.3s0,0.2,0,0.3
		c0,0.6,0.5,0.9,1.5,0.9c1.4,0,2.1-0.3,2.1-0.8c0-0.3-0.4-1.4-1.2-3.3l0.4-0.8c0.1-0.1,0.1-0.2,0.1-0.2c0,0,0.1,0.1,0.1,0.2
		c0.3,0.8,0.8,2,1.4,3.6c0.3,0.8,0.7,1.2,1.3,1.2h0.3V325z" id="PATH_71" class="area" title=""></path>
	<path d="M414.5,323c0,1.3-0.7,2-2,2h-0.8v-1.2h0.7c1,0,1.5-0.2,1.5-0.5c0-0.3-0.2-0.7-0.7-1.2l0.4-1c0-0.1,0.1-0.1,0.1-0.1
		s0.1,0.1,0.2,0.2C414.3,321.7,414.5,322.4,414.5,323z M414.2,327.2l-0.8,0.8l-0.8-0.8l0.8-0.8L414.2,327.2z" id="PATH_72" class="area" title=""></path>
	<path d="M418.6,314.3c-0.4,0.4-1,0.5-1.6,0.5c-0.1,0-0.2,0-0.4,0s-0.3,0-0.4,0c-0.1,0-0.2,0.1-0.3,0.2s-0.2,0.2-0.2,0.2
		c-0.1,0-0.1-0.1-0.1-0.2c0-0.1,0.1-0.3,0.2-0.5c0.1-0.3,0.2-0.4,0.3-0.4c0.1,0,0.3,0,0.6,0.1s0.5,0.1,0.6,0.1c0.6,0,1,0,1.3-0.1
		c0.2,0,0.3-0.1,0.3-0.1c0,0,0.1,0,0.1,0C418.8,314.1,418.7,314.2,418.6,314.3z M417.9,323.8c0,0.4-0.1,0.8-0.3,1.1
		c-0.1,0.2-0.2,0.3-0.2,0.3c0,0-0.1-0.1-0.1-0.4c0-1.2-0.2-4-0.6-8.5l0.8-0.8c0.1-0.1,0.1-0.1,0.1-0.1c0,0,0,0.1,0,0.2
		C417.9,316.9,417.9,319.6,417.9,323.8z" id="PATH_73" class="area" title=""></path>
</g>
<g id="G_74" class="area" title="">
	<path d="M424,283.3l-0.3-0.2c-0.3-0.2-0.5-0.4-0.6-0.6c-0.1,0.1-0.1,0.2-0.2,0.3c-0.5,0.8-1.3,1.4-2.3,1.8
		c-0.9,0.3-1.4,0.4-1.7,0.2c-0.6-0.4-1.2-0.8-1.6-1.2c-0.1-0.1-0.2-0.2-0.2-0.3c0-0.1,0.1,0,0.3,0c0.7,0.3,1.6,0.4,2.7,0.3
		c1.1-0.1,1.8-0.5,2.2-1c0.2-0.4,0.3-1,0-2l0.9-0.5c0.1,0,0.1-0.1,0.1-0.1c0,0,0,0.1,0,0.2c0,0.5,0.1,0.9,0.1,1.1
		c0.1,0.4,0.4,0.7,0.7,0.9l0.3,0.2L424,283.3z" id="PATH_75" class="area" title=""></path>
	<path d="M429.2,286.7l-0.4-0.3c-0.3-0.2-0.7-0.4-1-0.5c-0.6-0.1-1,0-1.2,0.4c-0.3,0.5-0.3,1.2,0.1,2l-1,0.6c-0.6-0.8-1-1.6-1.2-2.4
		c-0.2-1-0.1-1.9,0.3-2.7l-1.1-0.8l0.6-1l1.1,0.7c0.4-0.6,1.1-1.2,1.9-1.8c0.8-0.5,1.3-0.7,1.5-0.6c0.2,0.1,0.2,0.6,0,1.5
		c-0.2,0.8-0.4,1.3-0.5,1.6c-0.8,1.2-1.7,1.4-2.9,0.7c-0.2,0.4-0.2,0.9-0.2,1.4c0,0.5,0.2,1,0.4,1.3c0.1-0.1,0.1-0.2,0.2-0.4
		c0.4-0.6,0.9-1,1.4-1.2c0.8-0.3,1.5-0.3,2.2,0.2l0.4,0.2L429.2,286.7z M427.5,283.7c0.1-0.2,0.2-0.5,0.3-1.1c0.1-0.6,0.1-0.9,0-1
		c-0.1-0.1-0.4,0-0.8,0.4c-0.5,0.3-0.9,0.8-1.2,1.2C426.8,283.8,427.3,284,427.5,283.7z" id="PATH_76" class="area" title=""></path>
	<path d="M436.9,289.3c-0.3,0.5-0.7,0.8-1.2,1c-0.5,0.2-1,0.1-1.5-0.2c-0.6-0.4-0.8-0.9-0.7-1.5c-0.6,0.3-1.2,0.2-1.6-0.1
		c-0.6-0.4-0.9-0.9-0.8-1.5c-0.6,0.3-1.2,0.2-1.8-0.2l-0.6-0.4l0.6-1l0.7,0.4c0.6,0.4,1.2,0.3,1.7-0.3c0.1-0.1,0.2-0.2,0.3-0.1
		c0.1,0,0.1,0.2,0,0.3c-0.4,0.7-0.2,1.3,0.4,1.7c0.4,0.2,0.7,0.3,1,0.2c0.2-0.1,0.4-0.2,0.7-0.5c0.1-0.1,0.2-0.2,0.3-0.1
		c0.1,0,0.1,0.2,0,0.3c-0.3,0.7-0.2,1.3,0.4,1.7c0.6,0.4,1.1,0.5,1.3,0.2c0.2-0.2,0.2-0.7,0.2-1.3l0.8-0.5c0.1-0.1,0.2-0.1,0.2-0.1
		c0,0,0,0.1,0,0.3C437.3,288.4,437.2,288.9,436.9,289.3z M436.1,284.4l-1,0.2l-0.2-1l1-0.2L436.1,284.4z M437.6,285.4l-1,0.2l-0.2-1
		l1-0.2L437.6,285.4z M437.7,283.6l-1,0.2l-0.2-1l1-0.2L437.7,283.6z" id="PATH_77" class="area" title=""></path>
	<path d="M444.4,294.2c-0.4,0.6-0.8,0.9-1.4,1c-0.5,0.1-1.1-0.1-1.7-0.5c-0.4-0.2-0.6-0.5-0.7-0.9c-0.1-0.4,0-0.8,0.2-1.1
		c0.3-0.4,0.7-0.8,1.4-1.1c0.6-0.3,1.2-0.5,1.8-0.6C444.8,292.3,444.9,293.4,444.4,294.2z M443.7,294.2c0.2-0.2,0.2-0.6,0-1.2
		c-0.1-0.5-0.3-0.9-0.5-1.2c-0.8,0.3-1.3,0.6-1.5,0.9c-0.1,0.2-0.1,0.4,0,0.7c0.1,0.2,0.3,0.4,0.5,0.5c0.4,0.2,0.7,0.4,1,0.4
		C443.5,294.4,443.6,294.3,443.7,294.2z" id="PATH_78" class="area" title=""></path>
	<path d="M447.4,298.8c-0.5,0.8-1.3,1.4-2.3,1.8c-0.8,0.3-1.4,0.4-1.7,0.2c-0.6-0.4-1.2-0.8-1.6-1.2c-0.1-0.1-0.2-0.2-0.2-0.3
		s0.1,0,0.3,0c0.7,0.3,1.6,0.4,2.7,0.3c1.1-0.1,1.8-0.5,2.2-1c0.2-0.4,0.3-1,0-2l0.9-0.5c0.1,0,0.1-0.1,0.2-0.1c0,0,0,0.1,0,0.2
		c0,0.4,0,0.8-0.1,1.3C447.7,298.1,447.6,298.5,447.4,298.8z" id="PATH_79" class="area" title=""></path>
	<path d="M453.7,300.4c-0.8,1.2-1.9,1.2-3.5,0.2c-0.6-0.4-0.9-0.7-1.1-1.1c-0.2-0.4-0.1-0.9,0.2-1.4c0.2-0.2,0.4-0.5,0.7-0.6
		c0.1-0.1,0.2-0.1,0.3-0.1c0.1,0,0,0.1-0.1,0.3c-0.1,0.1-0.1,0.2-0.2,0.3c-0.2,0.3-0.2,0.7,0,1c0.1,0.2,0.4,0.4,0.9,0.7
		c1.2,0.8,2,1,2.2,0.6c0.4-0.6,0.2-1.9-0.5-3.8l0.8-0.7c0.1-0.1,0.1-0.1,0.2-0.1c0,0,0.1,0.1,0.1,0.2
		C454.3,297.9,454.3,299.4,453.7,300.4z" id="PATH_80" class="area" title=""></path>
</g>
</svg>


