<!--?xml version="1.0" encoding="utf-8"?-->
<!-- Generator: Adobe Illustrator 27.4.1, SVG Export Plug-In . SVG Version: 6.00 Build 0)  -->
<svg version="1.1" id="Layer_1" xmlns="http://www.w3.org/2000/svg" xmlns:xlink="http://www.w3.org/1999/xlink" x="0px" y="0px" viewBox="0 0 1920 1080" style="enable-background:new 0 0 1920 1080;" xml:space="preserve" width="100%" height="100%">
<style type="text/css">
	.st0{fill:#7C7C7C;stroke:#FFFFFF;stroke-width:2.3789;stroke-linecap:round;stroke-linejoin:round;stroke-miterlimit:4.7577;}
</style>
<path id="IRN99" class="st0 area" d="M1061.2,997.7l-1.2-0.1l-0.5-1.1l0.2-0.5l1.2-0.7l0.7,0.2l0.1,1.7L1061.2,997.7L1061.2,997.7z
	 M676.4,700.1l0.4,0.1v0.6l0.1,2l-1.7-0.1l-0.5,0.6l-1.2-0.6l-0.1-1.4l0.2-1l1.1-0.2H676.4z" title=""></path>
<path id="_x6A9__x647__x6AF__x64A__x644__x648__x64A__x647___x648___x628__x648__x64A__x631__x627__x62D__x645__x62F_" class="st0 area" d="
	M815.1,652.6l0.4,4.9l3.4,8.8l6.7,7l8.6,6.2l1.3,1.3l1.8,8.9v3.3l-0.4,0.7l-1.5,1.7l-3,1.8l-3.4,1l-6.5-1.8l-2.3-1.3l-1.4-1.8
	l-1.5-0.4l-7-3.4l-5-1.3l-1,1.2l1.1,5.9l1.9,5.5l0.1,1.7l-0.8,1.4l0.5,1.5l1.4,2.6v3.7l-1.3,2.7l-16.4,9.6l-2.6,0.4l-10.3-0.6
	l-6.2,1.5v0.1l-1.1-1l-2.3-1.7l-7.3-2.6l-1.1-11.2l-1.1-4.8l-2-2.3l-0.4-3.7l3.6-8.4l-1.1-3.7l-3.6-2.5l-5.8-3.2l-4.8-4.8l-2.5-3.2
	l-10.5,1.4l-0.5-1.8l0.6-2.4l0.4-2.1l0.2-1.1l-0.1-2.9l-2.9-10.1v-4.3l1-2.3l1.5-2.1l2.1-1.5l4.8-2l7.4-6.7l4-5.5l4.4,2.7l10.8,4.3
	l3.2-0.1l1.9,0.2l22.8,20.3h2.1l7,1l3.3-1.8l3.1-2.7l3.9-0.7L815.1,652.6L815.1,652.6z" title=""></path>
<path id="_x628__x648__x634__x647__x631_" class="st0 area" d="M754.6,791.8l-0.6,0.1l-0.6-0.6l-0.6-1.5l-0.5-1.3l-0.4-0.8l0.7-0.5
	l1.8,0.8l0.6,0.4l-0.2,1.2l0.1,1.2L754.6,791.8L754.6,791.8z M917.2,919.5l-2.6,1.5l-0.8,0.2l-2.9-0.1l-3.1-0.7l-1.1-0.1l-3.9,0.5
	l-0.7-0.1l-1.2,0.6l-0.7,0.4l-1,1.9l-4.8-2l-1.3-1.4l-0.1-1.4l0.6-0.8l1.1-0.5l1.3-0.1h1.1l1.4-0.1l0.7-0.7l-0.5-1.5l-1.1-0.8
	l-2.5-1l-1-0.8l-0.5-0.8l-1-2.3l-0.4-0.7l-4.6-4.8l-2-1.7l-2.3-1l-10.9-2.4l-2.4-1.2l-7.3-6.8l-2.3-1.4l-2.5-1.1l-3-0.5l-4.3,0.6
	l-1-0.4l-1.1-0.7l-2.3,0.1l-2.4,0.6l-3.8,0.7l-2.5-0.4l-5.2-1.2l-0.7-0.1l-0.4-0.5l-0.1-0.7l-0.5-0.8l-1.9-0.2l-2.6-0.8l-1.3-1.4
	l-1.4-2.4l-1.5-1l-0.5,2l-1.2,0.1l-1.2-4.2l-1.2-1.8l-1-2.5l-2.4-3.8l-2.3-2.4l-0.4-1.4l1.3-3.7v-1.9l-1.3-2l-2.1-1.9l-0.7-1
	l-2.3-3.4l-2-2.1l-0.5-0.7l-3.7-9.3l-0.5-2.1l-0.1-9l-0.7-3l-1.4-2.6l-1.5-1.8l-2-1.3l-2.6-0.6l-2.5-0.1l-1.2-0.4l-0.5-0.7l-0.5-1.4
	l-3-3.7l-0.5-1.3l-0.4-1.9l0.2-1.8l1.3-0.7l1.2,0.5l1.2,1l1.1,1.3l0.6,1.2l0.6-0.6l-0.4-1.1l0.1-0.8l0.4-0.5l1.3-1.2l0.4-0.7
	l0.2-1.5l-0.1-1.5l-0.6-1.1l-1.2,0.4l-0.5-2.1l-0.5-0.7l-0.7-0.6l-1.4,0.6l-0.2-0.4l-0.1-1.2l-0.2-1l-1.5-0.2l-4.8,0.2l-1.2,0.2
	l-1.5,1l-1.8-0.2l-1.3-1.2l-0.6-1.9l-0.1-1.8l0.2-0.8l0.5-0.8l1-2.1l0.5-0.5l1,1l0.2-2.9l0.2-0.5l-0.6-0.2l-0.5-0.4l-0.7-1.4
	l0.5-1.7v-2.9l-0.4-2.7l-0.5-1.9l-0.8-1.4l-1.2-1.7l-1-0.5v2.1l-0.4-0.8l-1.8-2.6l-3.2-2.7l-0.5-0.8l-0.5-1.3l-1-1.3l-2-2l-3.7-1.4
	l-0.5-0.8l-0.5-1.3l-0.8-1.4l-1.7-1.8l-1.7-2.5l-2.7-5.1l-1.5-2.1l-1.1-1l-2.6-1.7l-2.4-2.4l-0.4-1.2l-0.1-1.3l-0.2-0.8h1.1l0.1-0.5
	l-0.4-0.5l-0.8-0.5l0.7-2.4l-1.4-4l0.4-1.8l-0.8-0.7l-1-1.3l-0.8-1.4l-0.4-1.2L739,722l-1.4-0.8l4-2l6.3-1.1l3.6,1.8l9.4,0.5
	l7.3,2.6l2.3,1.7l1.1,1v3.7l1.7,5.1l3.1,3.1l3.7,7.6l3.6,1.4l13.6,1l8.4,2.7l4.2,4.6l3.3,7.6l4.3,6.9l3.9,4.2l5,1.8l5.4,5l27.6,52.1
	l1.4,6.3l9,25.6l1.5,2.5l2.7,1.1l2,1.2l4.6,5.5l8.3,18.7l8.1,10l8,7.5L917.2,919.5L917.2,919.5z" title=""></path>
<path id="_x627__x635__x641__x647__x627__x646_" class="st0 area" d="M1065,420.1l0.7,50.2l-1.7,5.2l-5.2,9.2l-3.6,2.5l-4.8,0.5l-6.1,3.3
	l-3.3,4l-2.9,12.4l-1.9,5.5l-2.4,4.4l-3.4,4.2l-6.4,3.8l-65.2,22.5l-19.4-4.5l-4.5,0.1l-5.9,2.4l-3.7,2.4l-2.7,2.3l-3.9,2.3
	l-4.4,1.3l-2.5,1.7l-0.5,2.4l1.8,22.4l-0.6,4.6l-2.5,10.2l-1.2,8.8l-0.7,1.8l0.2,5l2.6,10.7h-0.1l-20.9,6.1h-4.6l-13.7-3.1l-2.9-2.5
	l-0.6-6.7l-0.8-2l-1.1-0.1l-8.4,4.5l-1.2,1.7l-1.8,0.8l-8.2,5.6l-4.6,0.6l-5.9-1.4l-0.2,2.1l1.4,3.4l1.9,1.9l2.4,1l2.7,0.5l3.6,2.7
	l1.8,4.9l-1.5,4.9l-1.2,7.4l-5.2,13l-0.5,6.3l0.6,4.2v2.4l-1.7,0.6l-4.6,0.7l-1.3-1.3l-8.6-6.2l-6.7-7l-3.4-8.8l-0.4-4.9l0.6-2.5
	l0.1-5.6l-5.6-18.6l-1.3-8.2l0.4-3.9l2-1.5l2.6-1.1l-0.1-2.3l-1.9-2.4l-1.2-2.1l0.2-2.3l2.5-1.7l1.9-3.9l-1.1-7.5l-3.2-5.8l-7.1-5.5
	l-3.2-3.2l-7.9-6.1l-0.6-5.7l0.4-5.4l-1.4-2.1l-0.5-2.1l-1-1l-1.5-0.5l-0.7-1.8l-0.6-3.3l-2.4-2l-2.6,0.4l-1.4,1.5l-2.5,0.8
	l-8.1,0.2l-2.4,0.5l-6.9,4.5l-2.7,0.6l-1.9-0.7l-3.1,0.7l-3.9-0.5l-3.8-3.1l-3.7-2.1l-2.7,0.6l-2,1l-2.1,0.4l-4.2-0.5l-12.1,6.5
	l1.7-5.5l1.3-2l-2.6-3.4l-6.2-2.4l-5.4,0.4l-3.3-1.8l-3-7.4v-0.7l0.4-1.8l0.8-1.4l1.4-1l4.9-1.7l2.9-2l1.1-8.8l3.6-4.2l9.2-2.5
	l1.4-1l0.1-1.3l0.4-1.8l6.2-12.5l-0.1-3.2l0.2-3.9l1.4-3l5.1-4.3l9.8-5.8l25.6-6.7l3.9-2.5l3.4-2.9l3.8-1.3h3.6l1.7-2.9l5.8-14.3
	l0.7-4.4l-1.7-1l-1.3-3.2l1.8-14.6l0.7-2.1l2.4-2.4l5.8-2.5l13.3-1.5l4.8,0.2l20.7-5.4l11.9,6.4l6.1,1l16.8-1.1l4.2,0.7l26.2,8.7
	l3.2,0.5l146.8-4.4l3.4,1.1l1.4,1.3L1065,420.1L1065,420.1z" title=""></path>
<path id="_x641__x627__x631__x633_" class="st0 area" d="M911,621.5l15.7,5.9l9.3,8.6l7.9,9.6l14.4,36.4l10.2,18.3l9.8,12l2.7,4.8
	l2.1,15.6l1.8,4.3l9.5,7.3l12.5,6.3v1.4l1.7,5.6l5,10.3l0.7,2.7l1.4,2.4l1.4,1.5l2.7,1.7l14,1.3l3.7,1.5l12.4,30.9l3.6,10.7v2
	l-2,1.4l0.4,3.3l18.4,18l1.7,4.4l-0.7,7.9l-3.1,11.4l-0.4,2.9l0.4,2.3l5.1,4.3l3,4.8l-0.4,3.9l-1.1,1.8l-1.4,1l-1.8,0.8l-3.6-0.2
	l-5.7,1.5l-8.3,4.5l-2.4,3.8l-2,6.2l-3.6,3.3l-7.7,2.4l-16.3-2.4l-5.7,1.3l-3,1.3l-3-1l-3.7-0.5l-16.4,1.4l-6.4,2.3l-2.6,3.3l-1,5.5
	l-1.3,3.8v0.7l0.7,2l-1.7,2.7l-6.4,3.4l-18.8-3.3h-1.7l-4.4,1.1l-1.1-0.1l-1.1-0.5l-5.2-4.3l-2.3-1l-13.7-1.2l-4.5-4.3l-1.7-3.2
	l-12.3-8.9l-8-7.5l-8.1-10l-8.3-18.7l-4.6-5.5l-2-1.2l-2.7-1.1l-1.5-2.5l-9-25.6l-1.4-6.3l-27.6-52.1l-5.4-5l-5-1.8l-3.9-4.2
	l-4.3-6.9l-3.3-7.6l-4.2-4.6l-8.4-2.7l-13.6-1l-3.6-1.4l-3.7-7.6l-3.1-3.1l-1.7-5.1v-3.7v-0.1l6.2-1.5l10.3,0.6l2.6-0.4l16.4-9.6
	l1.3-2.7v-3.7l-1.4-2.6l-0.5-1.5l0.8-1.4l-0.1-1.7l-1.9-5.5l-1.1-5.9l1-1.2l5,1.3l7,3.4l1.5,0.4l1.4,1.8l2.3,1.3l6.5,1.8l3.4-1
	l3-1.8l1.5-1.7l0.4-0.7v-3.3l-1.8-8.9l4.6-0.7l1.7-0.6v-2.4l-0.6-4.2l0.5-6.3l5.2-13l1.2-7.4l1.5-4.9l-1.8-4.9l-3.6-2.7l-2.7-0.5
	l-2.4-1l-1.9-1.9l-1.4-3.4l0.2-2.1l5.9,1.4l4.6-0.6l8.2-5.6l1.8-0.8l1.2-1.7l8.4-4.5l1.1,0.1l0.8,2l0.6,6.7l2.9,2.5l13.7,3.1h4.6
	l20.9-6.1L911,621.5L911,621.5z" title=""></path>
<path id="_x6AF__x644__x633__x62A__x627__x646_" class="st0 area" d="M1113.7,134.9l0.5,5.5l-0.5,2.3l0.2,2.9l0.7,3.2l-0.1,1.9l-1.2,5
	l0.1,3.6l2.1,2.5l2.9,1.4l2.5,1.9l1.2,4.8l-3.4,4.8l-7.1,2.5l-1.7,0.2l-1.9,0.8l-1.9,1.7l-4.4,1.9l-4.5,8l-1.9,1.8l-2.5,2.1
	l-11.4,17.7l-5.1,11.3l-1.2,8.4l-2,5.2l-3.2,1.5l-21.9-3.1l-5.2,0.6l-10.8,6.2l-10.3,8.2l-3.8,4.2l-8.7,4.2l-4.3,1l-4.9-0.8l-12,0.2
	l-2.5-3.8l-6.5-6.8l-13.6-8.2l-2.1-3.7l-0.7-1.9v-1.1l9.3,0.8l1,0.6l1.1,0.4l7.6-2.1l0.8-0.6l0.4-1.3v-8l-0.2-1.3l-1-0.5l-1.2-0.5
	l0.2-1.2l1.3-2.6l-1.4-2.3l-1-2.9l-1.4-6.4l-1.8-5.1l-0.4-1.1l-0.6-6.5l16.8,1.4h1.3l1.1-0.5l1.2-1.2l1.1-0.7l1.3-0.1l1.4,0.2h1.4
	l2.1-0.7l10.5-6.1l1.3-0.2l3.8,0.8h1.3l1-0.5l1.5-1.5l1.2-0.6l0.7-0.7l3-1.9l1.5-1.3l0.4-0.6l0.1-1.2l0.8-1.9l0.2-1.1v-1.9l-0.4-1.1
	l-0.7-0.6l-0.1-0.5l-0.1-1.7l1.1-2.4l0.2-1.5l0.4-1.2l0.7-1.3l1.9-2l9.3-6.4l2.9-3.2l0.5-0.8l0.2-1.1l0.8-0.4l1.5-0.4l0.4-0.6
	l0.7-1.4l0.5-0.6l1.2-0.5l3.6-0.6l0.8-0.4l0.5-1.2l1.4-0.8l2.7-1h0.7l1.3-1.1l1.2-0.7l4.6-3.4l1.4-0.7l3.9-0.1l12.1-2.6h1.9l3.8,1
	l2.4,1.3l1,0.4h3.1l1.1,0.4l1.7,0.8l0.8,0.4h1l8.8-1.5l2.5,0.2L1113.7,134.9L1113.7,134.9z" title=""></path>
<path id="_x645__x627__x632__x646__x62F__x631__x627__x646_" class="st0 area" d="M962.4,232.9v1.1l0.7,1.9l2.1,3.7l13.6,8.2l6.5,6.8
	l2.5,3.8l-6.2,1.9l-5.1,3l-4.6,4.6l-2.1,4.3l-1.4,4.5l-1,6.2l-2.4,2.9l-6.3,5.6l-1.4,2.1l-0.7,1.9l-1.5,2l-2.6,2.4l-4.4,2.4
	l-4.6,1.4l-3.1,0.5l-2-1.1L935,304l-3.9,2.3l-2.9,0.8l-6.2,0.6l-1,0.5l-5.5-3.8l-2.7-0.7l-2,1.2l-3.2,0.5l-4.6-1l-7-3.8l-5.6-1.1
	l-4.4-1.8l-4-0.6l-5.6,4.5l-8,9.6l-4.3,1.8l-4.9-0.4l-3-1.1l-1.9-1.1l-2.1-2.6l-3.6-6.7l-6.3-6.8l-8.3-3.3l-9.4-0.8l-6.7-3.9l-4-4.6
	l-10.1-2.3l-2.5-1.1l-2.4-2.3l-1.1-1.5l-3.9-1.5l-10.2-2v-1.5l-0.7-2.1l-10-7.6l-3.4-1.8l-16.3-13.9l3.1-2l3.8-6.8l1.3-6.3l2.5-2.5
	l3.2-1.7l2.1-3l0.6-2.3l3,2l1.2,0.4l1,0.4l1.8,2l1,0.7l9.6,5.4l8.9,6.3l5.1,2.3l17.1,3.4l10.9,3.2l11.4,2l10.9,3.2l11.4-1.5
	l10.1-3.7L884,243l10.9-2.1l10.5-2.1l10.5-3.1l10.2-3.2l20.3-4.5l2.9-0.5l24.1-1.4l4.4-1.1l3-2.5l-0.1,3l-3.4,1.2l-4.4,0.5l-2.7,1
	l-0.8,0.4l-0.8-0.1l-1.7-0.5l-1,0.1l-1.7,0.6l-1,0.2l-3.7-0.5h-3.1l0.5,0.8l0.8,0.4l2-0.1l-1.7,0.5l1.4,2l2.5,1.1L962.4,232.9
	L962.4,232.9z" title=""></path>
<path id="_x633__x645__x646__x627__x646_" class="st0 area" d="M1144.7,246.2l1.2-0.4l2,0.1l2.5,1.5l1.4,5.9l-1.5,7.1l-2.5,4.8l-1,8.3
	l1.2,14.4l1.9,9.2l1.8,4.3l14.5,11.9l4,4.6l-1,5.4l-10.7,18.4l-2.6,6.1l-1.8,1.4l-13.1,4.9l-6.9,4.2l-8,7.4l-9.9,12.3l-22.1,37.2
	l-6.8,3.6l-15.7-0.4l-5.7,1.1l-1.1,0.5v0.1l-0.6-0.7l-1.4-1.3l-3.4-1.1l-146.8,4.4l-3.2-0.5l-26.2-8.7l-4.2-0.7l-16.8,1.1l-6.1-1
	l-11.9-6.4l2-3l2.7-6.4l1.7-6.5l0.1-6.1l-0.8-3l0.2-3.2l1.9-6.1l3.2-4.9l0.7-4.6l-2.7-5l-7-9.3l-0.5-3.2l0.5-3.4l1.1-4.5l0.8-7
	l1.1-1.1l1.2,0.6l0.7,0.7l1.3,0.5l3.7,0.1l3.3,3l11.3,6.9l4.4,1.5l4.8,0.1l13.8,4l5,0.2l7-2.4l6.1-3.2l9.8-8.9l2-6.9l-0.8-7.6
	l-1.9-8.4l1-0.5l6.2-0.6l2.9-0.8l3.9-2.3l3.2-1.1l2,1.1l3.1-0.5l4.6-1.4l4.4-2.4l2.6-2.4l1.5-2l0.7-1.9l1.4-2.1l6.3-5.6l2.4-2.9
	l1-6.2l1.4-4.5l2.1-4.3l4.6-4.6l5.1-3l6.2-1.9l12-0.2l4.9,0.8l4.3-1l8.7-4.2l3.8-4.2l10.3-8.2l10.8-6.2l5.2-0.6l21.9,3.1l3.2-1.5
	l2-5.2l1.2-8.4l5.1-11.3l11.4-17.7l2.5-2.1l9.4,12.5l4.3,3.1l2.5-0.5l3,1.3l-0.7,1.8l-3.6,1.1l-1.5,1.2l-0.4,1.2l0.7,1.4l0.4,2
	l-0.4,5.2l-1.1,4.6l-0.2,1.5l1.1,2.4l7.4,8.2l6.9,6.1l3.4,1.1l5.9,1.1l3,1.2L1144.7,246.2L1144.7,246.2z" title=""></path>
<path id="_x62A__x647__x631__x627__x646_" class="st0 area active" d="M921.1,308.2l1.9,8.4l0.8,7.6l-2,6.9l-9.8,8.9l-6.1,3.2l-7,2.4l-5-0.2
	l-13.8-4l-4.8-0.1l-4.4-1.5l-11.3-6.9l-3.3-3l-3.7-0.1l-1.3-0.5l-0.7-0.7l-1.2-0.6l-1.1,1.1l-0.8,7l-1.1,4.5l-0.5,3.4l0.5,3.2l7,9.3
	l2.7,5l-0.7,4.6l-3.2,4.9l-1.9,6.1l-0.2,3.2l-35-20.9l-14.9-4.5l-17.6-0.1v-0.2l5.4-17.2L788,332l-1.5-3.1l-2.9-3.6
	c0.5-0.7,0.9-1.4,1.4-2.2c0.8,0.4,1.6,0.8,2.3,1.2c1.1-2.5,2.1-5,3.2-7.5c1.2-2.1,2.4-4.2,3.7-6.3c0.4,0.9,1.1,2.2,2.3,3.7
	c0.8,1,2.3,2.5,10,6.6c3.3,1.8,5,2.7,7.2,3.5c1.4,0.5,2.2,0.8,5.4,1.8c2.7,0.9,4.9,1.6,6.4,2.1c4.1-0.5,8.3-0.9,12.4-1.4
	c4.7-2.3,9.4-4.7,14.1-7c0.3-1.1,0.5-2.2,0.8-3.3c0.1-0.7,0.2-1.3,0.3-2c0.1-0.9,0.2-1.7,0.3-2.6c0.4-0.5,0.7-0.9,1.1-1.4l1.9,1.1
	l3,1.1l4.9,0.4l4.3-1.8l8-9.6l5.6-4.5l4,0.6l4.4,1.8l5.6,1.1l7,3.8l4.6,1l3.2-0.5l2-1.2l2.7,0.7
	C917.5,305.6,919.3,306.9,921.1,308.2z" title=""></path>
<path id="_x6CC__x632__x62F_" class="st0 area" d="M1235.5,537.7l0.4,5.6l-0.5,2.3l-1.7,2.7l-1.1,2.6l0.5,1.7l0.8,1.7l1.9,2v2.3l1.9,4
	l2.5,4l-0.1,4l-1.4,4l-0.6,3.6l-1,3.3l-8.2,11.1l-2.3,6.3l-6.3,9.9l-3.2,8.2l-1,1.4l-65.9-28.4l-7.9-1.3l-1.3,2l-2.9,3l-12.8,7.3
	l-4.3,4.6l-32.7,17.2l-2.7,5.9l-0.7,22.6l-1,5l-10.5,4.6l-11.5,1.5l-5.1-1l-7.9-0.4l-34.5,6.2l-5.5,6.1l-2.9,5.4l-1.3,5.2l0.1,3.6
	l3.4,6.5l3.7,9.5l1.4,7.1l2,2.4l1.9,1.4l-0.7,23.1l0.6,4l0.8,2.7l0.1,2l-1.9,1.4l-6.3,0.7l-0.6,0.6l-2.7,1.2l-12.5-6.3l-9.5-7.3
	l-1.8-4.3l-2.1-15.6l-2.7-4.8l-9.8-12L958.2,682l-14.4-36.4L936,636l-9.3-8.6l-15.7-5.9l-2.6-10.7l-0.2-5l0.7-1.8l1.2-8.8l2.5-10.2
	l0.6-4.6l-1.8-22.4l0.5-2.4l2.5-1.7l4.4-1.3l3.9-2.3l2.7-2.3l3.7-2.4l5.9-2.4l4.5-0.1l19.4,4.5l65.2-22.5l6.4-3.8l3.4-4.2l2.4-4.4
	l1.9-5.5l2.9-12.4l3.3-4l6.1-3.3l4.8-0.5l3.6-2.5l5.2-9.2l1.7-5.2l-0.7-50.2V420l1.1-0.5l5.7-1.1l15.7,0.4l6.8-3.6l22.1-37.2
	l25.1-6.7l24.5-11.5l15.5-4l6.8,1.8l18,13.8l2.1,4.8l-0.8,4.8l-5.9,5.8l-24.4,17.4l-4.2,7.5l-7.9,23.4l-0.5,12.5l3.8,21.4l3,4.5
	l12.1,1.5l15.7-3.7l2.7,3.3l2.4,4.8l4.6,31l3.9,9.2l5.2,3l1.5,1.2l3.9,1.8l5.2,3.3l5,7.7L1235.5,537.7L1235.5,537.7z" title=""></path>
<path id="_x686__x647__x627__x631__x645__x62D__x627__x644___x648___x628__x62E__x62A__x6CC__x627__x631__x6CC_" class="st0 area" d="
	M815.1,652.6l-2.1-0.1l-3.9,0.7L806,656l-3.3,1.8l-7-1h-2.1l-22.8-20.3l-1.9-0.2l-3.2,0.1l-10.8-4.3l-4.4-2.7l2.3-4.3l3.3-4.2
	l0.1-3.3l-1.8-4l-5.2-5.6l-1.2-2.1l-3-2.7l-1.9-3.1l-1.9-4.3l-1.7-6.1l-0.8-1.9l-1-1.1l-3-1l-0.8-1l-1.5-1.2l-1.5-1.9l-1.9-4.9
	l-9.3-14.7l-1-4.4l-0.2-2.1l12.1-6.5l4.2,0.5l2.1-0.4l2-1l2.7-0.6l3.7,2.1l3.8,3.1l3.9,0.5l3.1-0.7l1.9,0.7l2.7-0.6l6.9-4.5l2.4-0.5
	l8.1-0.2l2.5-0.8l1.4-1.5l2.6-0.4l2.4,2l0.6,3.3l0.7,1.8l1.5,0.5l1,1l0.5,2.1l1.4,2.1l-0.4,5.4l0.6,5.7l7.9,6.1l3.2,3.2l7.1,5.5
	l3.2,5.8l1.1,7.5l-1.9,3.9l-2.5,1.7l-0.2,2.3l1.2,2.1l1.9,2.4l0.1,2.3l-2.6,1.1l-2,1.5l-0.4,3.9l1.3,8.2l5.6,18.6l-0.1,5.6
	L815.1,652.6L815.1,652.6z" title=""></path>
<path id="_x62E__x648__x632__x633__x62A__x627__x646_" class="st0 area" d="M700.8,533.3l3,7.4l3.3,1.8l5.4-0.4l6.2,2.4l2.6,3.4l-1.3,2
	l-1.7,5.5l0.2,2.1l1,4.4l9.3,14.7l1.9,4.9l1.5,1.9l1.5,1.2l0.8,1l3,1l1,1.1l0.8,1.9l1.7,6.1l1.9,4.3l1.9,3.1l3,2.7l1.2,2.1l5.2,5.6
	l1.8,4l-0.1,3.3l-3.3,4.2l-2.3,4.3l-4,5.5l-7.4,6.7l-4.8,2L732,645l-1.5,2.1l-1,2.3v4.3l2.9,10.1l0.1,2.9l-0.2,1.1l-0.4,2.1
	l-0.6,2.4l0.5,1.8l10.5-1.4l2.5,3.2l4.8,4.8l5.8,3.2l3.6,2.5l1.1,3.7l-3.6,8.4l0.4,3.7l2,2.3l1.1,4.8l1.1,11.2l-9.4-0.5l-3.6-1.8
	l-6.3,1.1l-4,2l-1.5-0.7l-2.3-0.2l-2.3,0.4l-2.3,0.8L710,733.8l-2.3,1l-2-0.5l-1.7-2.5l-0.1-1.2l-0.1-3.2l-0.5-1.2l-0.8-1.4
	l-0.6-0.4l-1.2-0.4l-1.3-0.1l-2,0.4l-0.7,0.1l-0.7-0.1l-1-0.7l-0.5-0.1l-1.3,0.2l-2.3,1l-1.3,0.2l-1.5-0.1l-0.6-0.6l0.1-3l-1.1-0.8
	l-0.2-0.4v-1.4l0.4-1.1V717l-0.8-0.5l-0.4,1.2l-0.6,1.2l-1,1l-1,0.1l-1.2-0.7l-0.5-1l-0.7-0.7l-1.1-0.1l-1.4-0.5l-4-2.4l-0.8-0.7
	l-0.4-2.4l-1.1-1.4l-1.7-0.8l-2-0.5l0.7-1.2l1.1-0.2l2.5,0.4h1.3l2-0.7l1.1-0.2l1.3,0.4l2.5,1.3l0.8,0.4l1.4,0.1l1,0.5l0.8,0.7
	l0.8,1.1l0.4-1l1.2-2l1.8-2.4l0.4-0.7l0.1-1.3l-1.3,0.4l-1-0.6l-0.6-1.2l-0.5-2.6l-0.7,0.4l-1,1.1l-1,0.7l0.1-1l0.4-0.5l-0.6-0.8
	l-0.5,0.1l-0.6,0.5l-1,0.2l-0.4-0.2l-0.6-1.1l-0.5-0.2l-1.3,0.6l-1.2-0.2l-1.1-0.4h-1.1l-1.1,0.6l-2.1-0.4l-1.8,1.1l-0.5,1.4
	l1.7,0.8l1.9,0.4l1.5,1l0.5,1.3l-1.2,1.2H673l-3.3-0.5l-0.7,0.2l-3.3,3.2l-0.7,1.1l-0.4,1l0.7,0.6l-0.8,1.4l0.4,1.5l1.1,1.2l1.3,1
	l1,1.1l0.6,1.3l0.4,1.5l0.4,3.2l-0.1,0.8l-0.6,1.5l-0.1,0.8v0.7l0.4,1.3v0.8l-0.4,1.4l-0.8,1.2l-1.1,1l-1.3,0.4l-4.2-0.5l-1.1,0.5
	l-1.2-0.6l-4.3,0.1l-2.6-1.5l-1-0.1l-0.2,1.2l0.4,0.8l0.8,1.3l0.1,1.1l-0.1,0.6l-0.5,0.7l-1.1,0.8l-1.4,0.4l-5.4-0.5l-1.9-0.5
	l-1-0.6l-0.8-0.7l-0.7-0.8l-0.5-1.4l-0.1-1l-1.2-3.4l-0.5-0.8l-1.2-1.4L635,726l-0.1-0.5l0.1-0.8l1.1-1.1l0.5-0.6l0.1-0.8l-0.1-0.7
	l-0.7-1.3l-2.4-2.3l-1.9-2.3l-1.3-2l-0.6-0.6l-0.7-0.2h-0.7l-2.3,0.4l-1.5-0.1l-0.6-0.2l-0.6-0.6l-0.2-0.6l-0.5-3.2l-0.6-1.5
	l-0.7-1.4l-1.1-1.1l-1.3-0.6l-6.5-1l-0.1-2.1l0.2-34.5l-0.1-1l-0.7-0.4h-20.2l0.4-29.7l9.4-25.6l0.4-1.7l-0.1-1.5l-0.8-1.3l-2.5-1.8
	l-1-1.2l-0.6-1.8l-0.4-0.6l-0.4-0.5l-1.2-0.7l-0.4-0.6L592,594l-0.2-1.3l-0.6-1.3l-2.1-1.1l-1-1.1l-1.4-3.2l-1-1.3l1.7-0.6l6.4-4.3
	l2.3-3.6l-0.8-4.6V568l4.4-6.2l5.7-13.2l3.3-5l8.4-22.1l3.3-2.5l15.1-1.1l4.4-1.3l6.5-0.5l6.3,1.9l3.2,3.1l3.8,1.1l13.6,1.4
	l14.4,9.9l8.7,0.8L700.8,533.3L700.8,533.3z" title=""></path>
<path id="_x644__x631__x633__x62A__x627__x646_" class="st0 area" d="M592.7,419.5l1.5,0.7l2.6,1.7l1.3,1.9l26.4,17.4l13.7,1.7l2.3,0.8
	l1.8-0.5l3.2-3.3l1.7-0.4l3.2,0.1l4-0.5l16.8,7.3l-1,1.5l-0.5,2.4l0.8,2l0.2,1.7l-2.5,5.7l-0.5,1.7l-0.4,1.8l0.8,1.5l3.1,1.8l4,1.5
	l6.9,0.6l1.8,0.6l4.9-3.1l1.2-1.2l2-6.5l2.7-1.5l3.4-1.2l3.1-1.7l3.3,1.1l2.7,3.2l1.7,2.9l0.1,2l-1.1,2.1l-0.6,2.1l0.6,1.8l2,1.7
	l4.5,2.4l2.1,2.3l1.9,1.4l1.4-1l0.5-1.9l1.2-2.4l2.1-1.5l1.3,0.8l1.1,1.8l1.9,1.5l1.3,1.3v2.1l0.4,2.1l3.9,2.1l0.6,0.6l-1.4,3
	l-0.2,3.9l0.1,3.2l-6.2,12.5l-0.4,1.8l-0.1,1.3l-1.4,1l-9.2,2.5l-3.6,4.2l-1.1,8.8l-2.9,2l-4.9,1.7l-1.4,1l-0.8,1.4l-0.4,1.8v0.7
	l-4.4,1l-8.7-0.8l-14.4-9.9l-13.6-1.4l-3.8-1.1l-3.2-3.1l-6.3-1.9l-6.5,0.5l-4.4,1.3l-15.1,1.1l-3.3,2.5l-8.4,22.1l-3.3,5l-0.7-0.7
	l-1.3-1.8l-9.9-20.9l-7.3-9.5l-2-2.3l-0.8-0.5l-1.2-0.4l-0.8-0.8l-1.2-2.4l-1.4-1.7l-0.7-0.4h-1l-0.7-0.2l-0.4-1l-0.7-0.8l-7.5-3.7
	l-2.6-0.7l-1.5-1l-1.2-1.2v-1l-1.1-0.5l-3-2.4l-0.7-0.6h-0.8l-0.4,0.4l-0.7-0.1l-0.5-0.8L553,493l-1.2-0.6l-0.7-0.7l-0.8-1l-0.2-0.6
	l0.7-1.3l0.1-0.7l-0.2-0.7l-0.6-0.2l-3.3-2l-1.3-0.5l-1.7-2l-1.9-1.1l-1.4-2.5l-1-0.5V478l1-2.9l0.1-1.1l1.1-0.5l1.1-0.1l1.3-3.4
	l3.8-3.6l21.5-6.1l1.3-1.8l3.3-2.3l1.5-1.5l0.8-1.7l0.2-2.4l-0.5-3.6l-1.4-3.3l-0.8-1.2l1.1-0.7l0.8-1.4l-0.2-0.6v-0.8l0.1-1.3
	l-0.1-0.8l-0.2-0.7l-0.8-0.8l-0.1-0.7l0.4-1.1l3.6-1.8l4.4-0.2l3-1.5l0.4-4.2l-0.6-4l0.2-1.7l1.1-0.7l1.8-0.6L592.7,419.5
	L592.7,419.5z" title=""></path>
<path id="_x627__x6CC__x644__x627__x645_" class="st0 area" d="M573.8,442.7l0.8,1.2l1.4,3.3l0.5,3.6l-0.2,2.4l-0.8,1.7l-1.5,1.5
	l-3.3,2.3l-1.3,1.8l-21.5,6.1l-3.8,3.6l-1.3,3.4l-1.1,0.1l-1.1,0.5l-0.1,1.1l-1,2.9v0.6l1,0.5l1.4,2.5l1.9,1.1l1.7,2l1.3,0.5l3.3,2
	l0.6,0.2l0.2,0.7l-0.1,0.7l-0.7,1.3l0.2,0.6l0.8,1l0.7,0.7l1.2,0.6l2.3,0.7l0.5,0.8l0.7,0.1l0.4-0.4h0.8l0.7,0.6l3,2.4l1.1,0.5v1
	l1.2,1.2l1.5,1l2.6,0.7l7.5,3.7l0.7,0.8l0.4,1l0.7,0.2h1l0.7,0.4l1.4,1.7l1.2,2.4l0.8,0.8l1.2,0.4l0.8,0.5l2,2.3l7.3,9.5l9.9,20.9
	l1.3,1.8l0.7,0.7l-5.7,13.2l-4.4,6.2v3.7l0.8,4.6l-2.3,3.6l-6.4,4.3l-1.7,0.6l-0.1-0.1l-1.2-0.5l-1-0.1l-1-1.4l-0.8-0.5l-1-0.2
	l-0.5-0.4l0.1-1.5l0.2-0.8l0.7-1.3v-1.1l-0.2-1l-1.2-1l-0.4-0.8l-1-0.7l-1.7-2.4l-1.8-1.8l-0.7-1.3l0.8-2l0.5-0.8v-1l-0.4-0.5
	l-1.7-1.3l-1.1-1.3l-0.7-1.1l-0.7-1l-1.3-0.7l-3.6-1.2h-0.8l-2.9,1.5l-1.1,0.4l-2.1,0.2l-1.9-0.4l-1.9-1.1l-2-1.4l-18.4-16.2
	l-2.6-2.9l-4-2.5l-2.7-2.3l-5.9-3.4l-1.8-1.8l-6.1-3l-6.5-2l-7.3,0.8l-3.7-0.5l-1.3-2.9l0.8-1l1-0.8l1-1l0.4-1.2l-0.2-1.1l-1-0.7
	l-1.2-0.6l-2.6-0.2l-1-0.7l0.1-1l1.2-0.7l1.4-0.1l1,0.1l1.1-0.2l1.3-1l1.7-1.7l0.8-1.1l0.4-1v-0.6l-0.7-0.5l-0.2-0.7v-0.6l0.4-1.4
	v-0.7l-0.5-1.2l-1-1l-1.9-1.5l-2.5-3.4l-2-2l-0.4-1.1V490l-0.2-1.5l-0.5-1.4l-0.7-1.2l-2-2.6l-1-0.5l-0.7,0.2l-1.1,1.1l-1.9,0.2
	l-1.8-0.5l-1.1-0.8l1-1.3l3-1.8l0.7-1.2l-0.5-1.5l-1.3-1l-1.1-1.1l0.2-2.3l-1.3,0.4h-3l-1.1,0.5l-1.8,1.7l-1.1,0.7l-1.1,0.2
	l-0.4-0.5v-2.6l-0.2-0.6l1.4-1.1l1.3-10.7l2.3-7.5l0.7-4.8l-0.8-2.7l1.1-1.4l3.7,0.1l9.5-1.2l9.2,3.8l5,0.4l5,1.2l4,2.5l4.5,3.9
	l15.5,5l7.3,0.6l10.5-2.7l9.6,0.5l1.2-2.5l1-4.8l-1-1.9l-1.7-2.5v-2.4l9.9-2.3l2,0.2L573.8,442.7L573.8,442.7z" title=""></path>
<path id="_x647__x631__x645__x632__x6AF__x627__x646_" class="st0 area" d="M1045.3,1024l-0.5,0.4l-0.8,0.2l-0.8-0.7l-0.5-1.1l1-0.5
	l1.1-0.4l0.2,0.6L1045.3,1024L1045.3,1024z M1014.5,1021.5l-0.6,0.5l-0.8-0.1l-1-0.5l-0.2-0.8l0.7-0.4l1.5-0.5l0.2,0.6
	L1014.5,1021.5L1014.5,1021.5z M1012.8,997.5h-0.4l-1.4-0.6l-0.4-0.4l-0.2-2.3l0.2-0.8l0.5-0.5l0.5-0.2l0.6,0.1l0.6,0.6l0.5,0.2
	l0.6,0.6l0.2,0.5L1012.8,997.5L1012.8,997.5z M983.4,980.8l-0.7,0.4l-5-0.2l-2-1l-1.2-2.1l0.6-1l1-0.6l1.1-0.4h1.2l1.1,0.4l2.3,0.2
	l0.8,0.4l0.2,0.5v1.2l0.8,0.6l0.1,0.8L983.4,980.8L983.4,980.8z M1096.7,971.9l-1.3,0.7l-1-0.6l0.1-1.5l0.8-1.5l1-0.7l0.6-0.1
	l0.5,0.7l0.1,1.5L1096.7,971.9z M959.5,968.8l-0.8,0.8l-1.1-0.2l-1.1-0.5l-0.6-0.8l0.5-0.8h1.2l1.4,0.5L959.5,968.8z M942.5,959.5
	l-1,0.2l-2.4-0.2l-0.7,0.2l-1.1,0.6h-1.2l-3.6-0.6l-1.1-0.5l-1-0.6l-1.9-1.7l-0.6-0.6l0.2-0.2l1.5-0.4l5.2,1.5l4.5,0.4l1.5,0.6
	L942.5,959.5L942.5,959.5z M1126.8,957l-2.4,0.8l-1.1-0.5l0.2-1.9l0.8-1.2l1.5-0.7l2.4-0.2l0.4,2.1L1126.8,957z M1114,952.4
	l-1.4,3.1l-0.7,1.2l-2.5,2.6l-0.5,1l-0.5,0.5l-2.4,1.2l-0.5,0.7l-0.6,0.2l-3,3l-1.8,1.1l-1.4-0.6l-1.4-1.4l-1.5-1.2l-4,2.1l-1.2,1
	l-1.2,0.6h-1.3l-2.7-0.4l-1.3,0.2l-1.3,0.6l-3.2,2.4l-3.4,1.5l-2.1,1.5l-1.1,0.6l-3.8,0.4l-2.7,0.7l-1.1,0.8l-0.6,0.1l-1.2-0.2h-0.6
	l-0.6,1l-0.7,0.5l-1.3,0.2l-0.5-0.4l-0.2-0.7l-0.4-1.8l0.5-1.2l0.1-0.7l-0.4-0.4l-0.6-2.1l0.6-0.7l3,1l0.6-0.2l0.6,0.1l3.2-1.8
	l8.2-2.7l1.2-0.1l1.1-0.4l2.9-1.8l1.2-1l4-1.7l1.9,0.1l1.1-0.2l0.6-0.6l0.6-0.1l-0.5-1l1-1.1l0.2-1.3l-0.2-3.1l-0.5-1.2l-1.1-1.1
	l-1.1-0.7l-0.4-0.6l1.5-1l8.6,3.3l2.4-0.6l6.4-4.2l8.1-1.9h2.5l1.2,0.4l1.5,0.6l1.3,1.1l0.6,1.3l-2,1.1l-3.8,1.1L1114,952.4
	L1114,952.4z M1133.1,942.7l-1,0.1l-1.9-0.7l0.1-1.8l1.1-1.5l1.1-0.2l1.4,0.7l0.6,0.5l0.2,1.1l-0.2,0.8l-0.6,0.6L1133.1,942.7
	L1133.1,942.7z M1279.5,1014l-0.7,0.4l-1.1,1.8l-0.4,2.1l0.2,1.2l0.8,0.4l2.3,1.4l11.7,10.3l1.9,3.2l0.4,2.5l1.3,1.4l1.9,0.7l1,1.2
	l0.5,1.4l0.8,1.1l1.1,1.1l2.1,3.7l0.5,0.6l1.2,0.6l-0.2,2.1l-1.7,0.7l0.4,1.7l-3.4,0.5l-3.6,1.7l-1.3,0.4l-0.5-0.1l-0.8-0.7
	l-1.8,0.5l-1.3-0.1l-1.3-0.2l-1-0.4l-0.8-0.7l-2.9-4.5l-1.5-1.9l-2.4-1.1h-2.1l-0.6-0.2l-0.8-1.9l-0.7-0.2h-5.4l-11.2-2l-3.8,0.6
	l-3.3-0.1l-1.1-0.6l0.4-1.1l-1.8,0.1l-1.9,0.4l-0.8,0.5l-1.4,1.2l-1,0.2l-1-0.5l-1.2,1.1l-0.6,0.1l-1.2-0.4l-2.1,1.5l-2.3,0.4
	l-2-0.5l-1.9-0.6l-2-0.4l-1.7-0.7l-1.4-1.8l-1.8-3.9l-1.9-2.4l-2.4-0.6l-2.5,0.7l-2.5,1.3l-2.1,1.7l-1.3,0.8h-1l0.2-3l0.5-1.4
	l-0.1-0.5l-0.6-1.5l-1-0.8l-1.3-0.4l-1.5-0.1l-1.4,0.2l-3.3,0.7l-0.8-0.1l-1.2-0.6l-0.8-0.2l-0.6,0.1l-1.9,0.4l-1.5-0.1l-4.2-1.3
	l0.5-0.4l-8.2-0.6l-1-0.5l-0.5-1.1l-0.4-3.3l-1.4-3.4l-0.8-2.9l-0.5-1.3l-2-2.4h-1.3l-0.4-1.2l-0.8-2.4l-0.2-1.2l-0.6-1.3l-0.1-0.8
	l0.4-1.4l1.9-2l0.7-1.4l-0.8-2.1l-4-4.5l0.4-1.9l-0.5-0.4l-0.4-3.1l-0.5-1.5l-0.7-1.3l-1.2-1.1l-0.5-1.2l-0.2-2.1l1.1-8.6l-0.2-3.2
	l-3.9-16.1l-0.8-1.2l-2.1-1.8l-0.7-1.2l0.1-1.1l-1.9-1.3l-0.7-0.6h1l2-1l-0.5-0.5l-0.1-0.7l0.6-1.2l-1.9,0.8l-0.6,0.1l-0.6-0.1
	l-0.6-0.7l-0.6-0.4l-0.7-0.7l-1.3,0.6l-0.4-0.2l-0.1-1.3l-0.7,0.2l-0.5-0.4v-0.6l1-0.5l1.1-1.2l0.5-0.4v-0.6l-1.8-0.2l-1.4-1
	l-1.1-1.4l-0.4-1.5l-0.7,0.7l-0.8,0.2h-1.7l-0.8-0.2l-1.1-1.4l-0.6-0.2l-6.3-0.1l-1.4-0.5l-0.5,0.6l-1.4-0.8l-1.9-0.4l-3.8-0.2
	l-1.8-0.4l-3.2-1.3l-2-0.2l-3.7,0.1l-2,0.6l-1.4,1l-1.3,0.6l-3.9,0.2l-1.7,0.2l-0.5,0.4l-1.1,1.1l-0.4,1.1l-0.7,0.4l-1.7,1.2
	l-4.2,2.5l-1.4,1.3v0.2l-1.4,1.2l-0.7,0.2l-2.7,0.4l-2.5,0.6l-0.7,0.1l-2-0.1l-0.7,0.1l-1,0.7l-0.5,0.1h-2.4l-1.9-0.5h-0.6l-1.2,0.5
	l-2,2l-1.4,1l-3.3,3.7l0.8-0.4l0.8-0.6l0.2,1.7l-0.4,2.1l-0.7,1.9l-0.8,1.4l-2,1.8l-2.4,1.2l-2.5,0.5l-2.9-0.1l-4.9-1.8l-2.9-0.4
	l-2.4,1.1l-0.7,1.3l-0.4,1.3l-0.6,0.8l-1.4,0.4l-1.2,0.2l-2.7,0.7l-1,0.5l-3.9,3.6l-0.7,0.5l-5.9,4.8l-6.7,3.9l-1.3,1.2l-0.6,0.2
	l-0.8-0.1l-1-0.7l-0.7-0.1l-5.4,0.5l-2.6-0.4l-1.1-1.5l-0.8-2l-1.8-1.8l-2.7-0.5l-5.6,0.2l-2.3-1.1l-1.1-1.8l-1-2.3l-1.1-2l-1.9-1.5
	l-1.3-0.2l-1.2,0.2l-1.2,0.2l-4.6,0.4l-1.3-0.1l-4.3-1.2l-1.7-0.5l-1.2-1l-0.5-0.2h-0.7l-1.2,0.2l-4,1.9l-2.9,0.5l-2.5,0.7h-1.4
	l-2.7-1l-1.4-0.1l-1.4,0.8l-0.8-0.2l-3.2-2.9l-4.6-2.7l-5.9-4.5l-0.8-1.1l-0.4-1.3l-0.1-3.3l-0.6-1.3l-1-1.3l-2-1.2l-20.9-7.1
	l-1.3-0.1l-1.3-0.5l-0.8-0.8l-0.7-1.2l-0.7-1l-3.7-0.8l-0.6-0.7l-0.5-1.5l-1.3-0.7l-2.7-0.8l-5-4.5l-2.1-1.4l-3.3-1.5l1-1.9l0.7-0.4
	l1.2-0.6l0.7,0.1l3.9-0.5l1.1,0.1l3.1,0.7l2.9,0.1l0.8-0.2l2.6-1.5l1.7,3.2l4.5,4.3l13.7,1.2l2.3,1l5.2,4.3l1.1,0.5l1.1,0.1l4.4-1.1
	h1.7l18.8,3.3l6.4-3.4l1.7-2.7l-0.7-2v-0.7l1.3-3.8l1-5.5l2.6-3.3l6.4-2.3l16.4-1.4l3.7,0.5l3,1l3-1.3l5.7-1.3l16.3,2.4l7.7-2.4
	l3.6-3.3l2-6.2l2.4-3.8l8.3-4.5l5.7-1.5l3.6,0.2l1.8-0.8l1.4-1l1.1-1.8l0.4-3.9l-3-4.8l-5.1-4.3l-0.4-2.3l0.4-2.9l3.1-11.4l0.7-7.9
	l-1.7-4.4l-18.4-18l-0.4-3.3l2-1.4v-2l-3.6-10.7l5.2,0.4l11.1,3.2l5.6,4.3l2.6,3.6l2.7,1.9l2.7,1.3l3.1-0.8l12.4-9.3l7.3-3.4
	l1.8-0.2l1.8,2.6l1.2,26.6l-1.5,5.2l1.3,6.9l5.5,7l5.2,4.9l6.3,3.8l7.4,1.2l3.9-0.7l7.3-3.6l6.7-6.4l1.9-2.3l2.7-2.3l3.3,0.1
	l6.4,3.2l0.5,1.1l-0.5,7.1l2.3,10.8l0.8,1.5l1.2,1.1l1.9,0.2l3.2,1.7l2.5,3.2l1.4,2.7l2.7,3.1l2.9,4.3l0.4,3.4l-1.7,1.4l-1.1,2.1
	l1.4,2l1.5,0.8l1.7,3.4l1.9,5.5l1.9,25.8l1.3,4l19,10.1l4.2,3.1l1.8,0.6l3-2.7l1.4-2.1l2.5-1.7l4,0.1l4.3,2.5l4.5,3.9l3.7,4.2
	l1.8,3.8l-0.6,1.3l-3.8-2.4h-1.3l-0.1,1.3l1.5,4.5v1.7l-0.4,1.2l-1.1,1.4l-0.8,2l-1.4,13.4l0.4,2v2l-0.7,3.8l-1.3,1.5l0.1,1.3
	l8.2-0.5l5,0.8l3.3-0.2l2.1-1.1l2.1,0.5l2.4,1.1l3.8,0.6l1.2,0.8l-0.1,0.7l-0.6,1.2l0.1,1.4l0.7,1.4l0.1,2.1l1.1,1.9l2.5,0.6
	l3.1,0.1l2.6-0.4l1.8-1.9l1.8-0.5l2.4,1h1.8l0.8,0.7L1279.5,1014L1279.5,1014z" title=""></path>
<path id="_x627__x631__x62F__x628__x6CC__x644_" class="st0 area" d="M649.2,110.3l0.4,0.8l2,1.7l1.2,1.7l0.4,1.5l1.5,0.6l2.3,0.5l1,1.1
	l-0.5,1.4l-13.9,16.5l-1.3,3l-0.5,4.2l-2,3.1l-0.1,4.3l5.7,15.7l10.1,16.1l3.4,3.6l3.9,3.1l2,2.6l0.1,2.1l-0.4,3.4l0.6,4l0.6,1.9
	l-4-2.3l-2.3,0.7l-2.4,1.7l-2.3-0.4l-1.7-1l-1.2,0.5l-0.8,1.3v1.3l-0.8,1.4l-1.8,0.4l-4.6-4.9l-2.5-1l-1.8,0.5l-1.8-0.7h-0.5l-1-1.7
	l-0.8-0.5h-2.1l-1,0.4l-0.5,0.7h-0.5l0.5-1.5l-2.9-2.4l-1.3-1.3l-3.7-2.5l-1.7-3.8l-0.5-5.6l-1.7-1.4l-4.5-2.4l-1.3-0.2l-0.4,0.2
	L608,175l-1.8-8.4l0.5-7.1l1.4-2.9l0.6-2.3l-0.6-1.3l-4.2-3.8l-4.9-6.7l-3.1-7.7l-0.4-6.2l-1.8-5.8l-4.3-2.1l-13.9,2l-1.8-0.2
	l-0.8-0.7l-1.9-1.9l-3.9,0.6l-3,1.1l-0.7-2.4l0.2-4l1.3-2.9l1.5-2l1.9-3.7l5-3.6l2.5-2.9l4.3-1.2l4.4,0.7l3-2l-1.2-3.9l-3.2-1.8
	l-0.1-2.3l2.4-3l0.6-5.4l-3.6-8.9l-0.1-5.9l-1-1.3l0.8-9l-2.5-1l-3.9,3.6l-4.2,2.5l-2.5-0.2l-4.6,3.2l-7,12.3l0.8,1.3l1,0.4l-0.8,1
	l-3.8,3l-2.3,3.2l-2.6,2l-9.2-2.6l-4,1.2l-4.3,2.3l-4.2,1.5l-3.2-1.8l-1.7-4.3l1-4.9l2.5-3.3l1.7-1l0.6-1.2l2.3-0.2l3.3,0.8l0.8-0.7
	l0.4-2.3l0.1-2.3l0.1-1.2l1.3-0.1l2.7,2.4l2.7-0.6l2.5-1.4l3.8-0.5l5.4-3.7l1.3-1.8l0.4-1.4l0.2-1.5l-1.2-4.8l-0.8-1.7l-1.9-1
	l-0.8-1l-0.1-0.8l-0.2-0.1l-0.5-1.5l0.5-0.2l1-1.4l1.1-3l2.1-3.6l0.2-0.8l0.6-0.6l3-1.9l6.1-2.4l2.6-1.4l2-2.1l3.1-3.9l2-1.7
	l2.5-1.4l4.3-1.4l1.4-0.2l0.8-0.5l3.2-3.3l8.6-4.9l3.6-3.7l1.2-0.8l1.4-0.4l4.6,0.1l0.8-0.2l0.6-0.6l0.7-1.1l0.8,0.2l1.2,0.8
	l3.8,3.6l10.3,12.4l4.2,3.9l1.8,2.4l1.3,2.9l-2.1,0.8l-3.3,2.1l-3.8,0.7l-2,1.2l-1.8,1.7l-1.2,2.3l-0.1,2.7l0.8,2.1l1.5,2.1l3.4,3.3
	l3.6,1.5l0.8,0.8l1.9,4l0.4,1v1.1l-0.4,1.2l-0.5,1l-0.6,1l-2.5,1.5l-11.4,2l-0.1,0.5l-0.2,1.1l-3.2,2l-0.6,1l0.2,3.2l1.2,2.3l4,3.2
	l8.1,4l0.7,0.6l0.5,1.9l-0.2,1.4l0.1,1.4l3,2.4l1,1.4l1.2,1.1h1.9l3.1-1.4h1.4l0.7,1.7l0.4,2.1l0.8,1.1l1,0.8l1.1,1.7l1.1,1.1
	l0.8,1.3l2.4,3l1.7,2.9l1.9,1.9L649.2,110.3L649.2,110.3z" title=""></path>
<path id="_x645__x631__x6A9__x632__x6CC_" class="st0 area" d="M783.6,325.3l2.9,3.6l1.5,3.1l0.1,5.2l-5.4,17.2l-1.8,2.5l-2,5.8
	l-1.1,11.5l-0.7,2.9l-1.2,0.7l-6.3,2.1l-7.6,1.2l-3.7,2.5l-5.4,1.5l-5.6-0.8l-3.4,2.9l-0.1,4.9l1.3,1.8l-0.7,1.5l-5.7,3.2l-0.6,3.9
	l3.3,3.8l2.7,2.5l2.3,1.1l2.4-0.2l1.9,1.1l1.8,2.1l1,2.1l-0.2,3.1l1.4,3.7l2.9,3.6l4,3.4l15.9,1.4l6.3,3.4l14.2,3.9l-0.7,4.4
	l-5.8,14.3l-1.7,2.9h-3.6l-3.8,1.3l-3.4,2.9l-3.9,2.5l-25.6,6.7l-9.8,5.8l-5.1,4.3l-0.6-0.6l-3.9-2.1l-0.4-2.1v-2.1l-1.3-1.3
	l-1.9-1.5l-1.1-1.8l-1.3-0.8l-2.1,1.5l-1.2,2.4l-0.5,1.9l-1.4,1l-1.9-1.4l-2.1-2.3l-4.5-2.4l-2-1.7l-0.6-1.8l0.6-2.1l1.1-2.1l-0.1-2
	l-1.7-2.9l-2.7-3.2l-3.3-1.1l-3.1,1.7l-3.4,1.2l-2.7,1.5l-2,6.5l-1.2,1.2l-4.9,3.1l-1.8-0.6l-6.9-0.6l-4-1.5l-3.1-1.8l-0.8-1.5
	l0.4-1.8l0.5-1.7l2.5-5.7l-0.2-1.7l-0.8-2l0.5-2.4l1-1.5l6.4-5.8l1.1-1.4l0.2-1.8l-1.2-4.8l-0.4-4.2l-1-4l-4.4-8.6l-0.5-7.9
	l-1.1-4.8l-3.1-1.2l-0.8-2.1l2.1-0.8l6.3,0.7l2.9,1.3l1.4-0.4l-1.1-5.7l0.2-5.2l1.5-2.7l0.8-2.6l-0.7-4.4l1.5-2.4l11.2-0.6l5.4,1
	l1.4,2.1l-1.3,2.9l1,3.3l2.4,3l2,1.8l2.7,0.2l1.4-3l-1.3-8.1l-1.5-3.7l-3-3.6l-3.1-1.5l-6.7-1.8l-2.7-1.4l-1.4-1.3l-0.1-1.1l1.1-1.3
	l1.9-0.2l3.4-1.1l3-3.4l-0.7-3.4l-2.7-4.6l-1.2-5l1.9-2.5l1.7-0.1l0.2,1.4l-0.1,1.9l1.2,1.7l2.1,0.5l2-2.4l0.2-2.9l-1.4-1.9
	l-0.5-2.7v-1.8l10.8-0.2l1.8-4.3l2.6-1.9l10.8-3.3l3.2-1.5l3.3-1.1l2.9-0.1l11.1-4.8l3.6-0.2l1.9,0.2l2.6,0.6l6.2,0.5l6.1,1.7
	l3.6,3.2l1.5,1l0.6-1.1v-1.3l-2.4-3.3l0.8-2h3.4l2.4,2.9v4.2l0.4,2.5l1.8-0.2l1.7-3.6L783.6,325.3L783.6,325.3z" title=""></path>
<path id="_x642__x645_" class="st0 area" d="M850.2,380.3l0.8,3l-0.1,6.1l-1.7,6.5l-2.7,6.4l-2,3l-20.7,5.4l-4.8-0.2l-13.3,1.5l-5.8,2.5
	l-2.4,2.4l-0.7,2.1l-1.8,14.6l1.3,3.2l1.7,1l-14.2-3.9l-6.3-3.4l-15.9-1.4l-4-3.4l-2.9-3.6l-1.4-3.7l0.2-3.1l-1-2.1l-1.8-2.1
	l-1.9-1.1l-2.4,0.2l-2.3-1.1l-2.7-2.5l-3.3-3.8l0.6-3.9l5.7-3.2l0.7-1.5l-1.3-1.8l0.1-4.9l3.4-2.9l5.6,0.8l5.4-1.5l3.7-2.5l7.6-1.2
	l6.3-2.1l1.2-0.7l0.7-2.9l1.1-11.5l2-5.8l1.8-2.5v0.2l17.6,0.1l14.9,4.5L850.2,380.3L850.2,380.3z" title=""></path>
<path id="_x647__x645__x62F__x627__x646_" class="st0 area" d="M625.4,318.9l2,3.7l2.9,1.8l13.2,0.5l5.4,2.9l5.1,1.3l4.6-1.7l2.3-3.1
	v-1.3l2.9-1.2l6.8,0.1l5.1,2.9l2.3,3l-1.8,2.9l4.2,3.2l7.9,1.3l1.8-0.4l8.7,2.1l1.5,1.1v1.8l0.5,2.7l1.4,1.9l-0.2,2.9l-2,2.4
	l-2.1-0.5l-1.2-1.7l0.1-1.9l-0.2-1.4l-1.7,0.1l-1.9,2.5l1.2,5l2.7,4.6l0.7,3.4l-3,3.4l-3.4,1.1l-1.9,0.2l-1.1,1.3l0.1,1.1l1.4,1.3
	l2.7,1.4l6.7,1.8l3.1,1.5l3,3.6l1.5,3.7l1.3,8.1l-1.4,3l-2.7-0.2l-2-1.8l-2.4-3l-1-3.3l1.3-2.9l-1.4-2.1l-5.4-1l-11.2,0.6l-1.5,2.4
	l0.7,4.4L680,387l-1.5,2.7l-0.2,5.2l1.1,5.7l-1.4,0.4l-2.9-1.3l-6.3-0.7l-2.1,0.8l0.8,2.1l3.1,1.2l1.1,4.8l0.5,7.9l4.4,8.6l1,4
	l0.4,4.2l1.2,4.8l-0.2,1.8l-1.1,1.4l-6.4,5.8l-16.8-7.3l-4,0.5l-3.2-0.1l-1.7,0.4l-3.2,3.3l-1.8,0.5l-2.3-0.8l-13.7-1.7l-26.4-17.4
	l-1.3-1.9l-2.6-1.7l-1.5-0.7l1.1-2l2.3-3.4l6.1-0.5l6.9,1.4l1.9-1.5l-0.1-3.4l0.6-4.9l-0.6-3.1l-1.2-1.8l-1.4,0.4l-2.7,1.2l-5.4,5.5
	l-1.5-2.4l-0.8-3.1L596,401l-2-0.5l-4.5-2.4l-3.2-2.6l-0.6-3l1-1.2l1.9-0.7l6.2-0.7l2.9-4.3l2.5-5.5l2-2.4l0.4-2l-0.1-1.2l1.9-1
	l3.8-1.2l2.3-1.2l0.6-2.1l1.2-0.2l2,4.9l1.3,0.7l2-1.8l2.1-3.4l1.3-5.6l-1.8-7l-3.4-3.4l-2.5-1.7l-3.1-3.7l-6.5-14.7l-4.3-6.4l1-1.9
	l3.2-3.6l1.4-0.2l2.9,6.1l1.9,0.6l2-1l1.8-1.7l4.4-1.5v-1.9l-0.7-1.7l-1.9-2.3l-1.1-3.1l2.3-0.6L625.4,318.9L625.4,318.9z" title=""></path>
<path id="_x632__x646__x62C__x627__x646_" class="st0 area" d="M665.7,203.2l9.3,5.9l6.9,7.1l2.6,4.3l3.6,12.6l-5,1.8l-6.7,4.4l-2.5,5.8
	l1.3,4.9l3.2,4.2l2,5l2,3.1l3.1,1.5l1.9,0.1l1.2,0.6l1.1,1.3l1.7,0.8l1.1,2.1l1.1,3.8l1.9,3.1l1.4,3.2l1,8.1l-1.4,2l-11.2,3.1
	l-6.2,3.6l-3.8,4.2l-0.4,3.1l0.1,0.8l-5.6-2.6l-4-0.2l-5.6,1.5l-3.4,2.5l-2.1,0.5l-2.7,0.1l-1.9,0.4l-1.2,1l0.1,2.3l7.9,7.1l4.5,6.7
	v1.3l-2.3,3.1L654,329l-5.1-1.3l-5.4-2.9l-13.2-0.5l-2.9-1.8l-2-3.7l-0.6-1.7l-1.2-2.1l-1.1-1l-17-10.3l-0.8-2l1.1-2.7l2.4-2.6
	l1.3-5.5l0.1-7.9l-1.2-4.3l-1.3-0.2l-0.1-0.5l0.5-1.1l0.1-0.5l-0.5-1.9l0.1-0.6l0.7-0.6l-0.6-1l-0.7-1.4l-0.6-1.7l-0.2-1.5l-0.4-0.8
	l-2-2.1l-0.2-0.4l-30.9-6.2l-1.8-1.8l-8.6-19l-0.4-2.5v-3.8l1.2-2.4l9.3-9.5l2.6-4.3l1.9-1.3l4-2l3.3-3.6l2.1-1.3l2.1-1l19.4-2.3
	l5.8,1l3.9-0.7l14.7,1.5l4.6-1.8l2.1-1.7l0.7-0.5l1.8-0.5l2.5,1l4.6,4.9l1.8-0.4l0.8-1.4v-1.3l0.8-1.3l1.2-0.5l1.7,1l2.3,0.4
	l2.4-1.7l2.3-0.7L665.7,203.2L665.7,203.2z" title=""></path>
<path id="_x642__x632__x648__x6CC__x646_" class="st0 area" d="M753.3,244.1l16.3,13.9l3.4,1.8l10,7.6l0.7,2.1v1.5l-14.6-1.5l-6.9,0.5
	l-1.8,2.7l3.1,4.3l2.3,2l4.4,1.3l2.9,2.4l-2,6.7l-2.9,6.1l-0.8,2.9l-2,2l-12.5,6.1l-3.3,3.3l-0.8,3l0.5,2.3l1.7,3.6l1.3,2.1
	l-1.9-0.2l-3.6,0.2l-11.1,4.8l-2.9,0.1l-3.3,1.1l-3.2,1.5l-10.8,3.3l-2.6,1.9l-1.8,4.3l-10.8,0.2l-1.5-1.1l-8.7-2.1l-1.8,0.4
	l-7.9-1.3l-4.2-3.2l1.8-2.9l-2.3-3l-5.1-2.9l-6.8-0.1l-2.9,1.2l-4.5-6.7l-7.9-7.1l-0.1-2.3l1.2-1l1.9-0.4l2.7-0.1l2.1-0.5l3.4-2.5
	l5.6-1.5l4,0.2l5.6,2.6l-0.1-0.8l0.4-3.1l3.8-4.2l6.2-3.6l11.2-3.1l1.4-2l-1-8.1l-1.4-3.2l-1.9-3.1l-1.1-3.8l-1.1-2.1l-1.7-0.8
	l-1.1-1.3l-1.2-0.6l-1.9-0.1l-3.1-1.5l-2-3.1l-2-5l-3.2-4.2l-1.3-4.9l2.5-5.8l6.7-4.4l5-1.8l5.8,2.9l0.1,1.3l0.8,2.4l3.4,4.4
	l3.7,3.6l8.4,2.5l3.2-0.1l1.9,0.4l1.3,1l5.6,1.1l3.1-0.5l11.5-6.3l1.3-0.5l1.3-0.7l5.1-1.1L753.3,244.1L753.3,244.1z" title=""></path>
<path id="_x622__x630__x631__x628__x627__x6CC__x62C__x627__x646___x63A__x631__x628__x6CC_" class="st0 area" d="M457.5,64l-7.1,7.7
	l-1.4,3.2l-1.8,8.4l0.8,4.5l1.7,4.2l-0.1,3.9l-2.3,4.2l-10.6,10.9l-3.4,5.8l-0.7,3.4l0.8,2.6l3.9,5.2h0.5v1.1l0.8,1.1l0.4,0.6
	l0.4,1.4l0.1,0.8L439,134l-0.1,2.5l2.1,21.1l1.3,1.7l0.4,1l0.5,4.8l-0.2,0.4l-1.2,0.8l-0.2,0.8l0.5,1.2l0.8,1.7l0.4,1.3l4.2,5
	l1.5,3.6l-0.7,9.6l0.8,4.2l2.3,3.4l18,11.9l8,1.4l6.7,0.1l8.4,7.7l1.1,2l7.6,4.4l2.7,2.4l2.9,1.2l1.8-1.2l1-1.5l0.2-0.7l1-2.1l2-2.6
	l3.7-2.4l3-0.6l1.5,0.1l1.7-1.5l2.6-1.8l2.9,0.5l1.9,2l2.4,1.5l3.2,0.7l1.9,1.7l0.2,1.5l-0.7,1.2l2.4,7.1v5.1l2.1,3.2l6.1,0.8
	l14.5-1.7l8.6,19l-1.5,0.5l-1.8,1.2l-0.2,1.4l0.5,1.3l-0.4,1.2l-1.1,2.1l-2.6,3l-4.6,2l-6.9-0.6l-6.4-1.8l-2.4-1.7l-1.1-1.1
	l-1.2-1.1l-0.8-1.2l-0.5-1l-0.7-0.6l-31.9,3l-15.5-2.1l-5.4,2l-1.3,1.8l-0.1,3.7l-3,4.5l-10,3.2l-1.9,2l-0.7,1.3l-1.3,1.3l-0.8,3.8
	l-3.4,3.8l-1,2.5l-2.5,2.4l-2,1.3l-1.4-0.5H455l-2.1,1.1l-1.1,0.4l-1.2,0.8l-1.4,0.5l-1.3-0.2l-1.1-1.1l-0.5-1.3l0.5-1.5l0.7-1.5
	l0.7-1.2l0.2-1.5l-0.7-1.5l-1.9-2.5l-0.4-1.5l0.1-3.6l-0.2-1.4l-1-1l-1.1-0.8l-0.4-1l1.4-1l-1.1-1.5l-0.5-1.3l-0.1-3.2l-0.4-1.8
	l-0.6-1.9l-1.1-1.4l-1.5-0.1l-3.4,1.4l-1.8,0.1l-1.7-0.8l-0.7-0.8l-0.7-2.4l-1.4-1.9v-1.1l-0.8-0.8l-1.2-1.1l-0.8-1.2l0.1-1.2
	l1.2-0.6l0.1-1.7l0.6-2.6l1.2-2.7l0.1-1.4l-0.6-1.7l-1.5-2.7l-1-1.3l-1-0.5L425,238l-0.7-0.1l-0.6-0.5l-1.4-1.4l-0.8-0.1l-1.9,0.1
	l-1.7-0.4l-1.2-0.8l-0.5-1.3l0.7-1.9l2.1-2.7l0.8-1.3l0.4-1.9l-0.4-1.7l-0.5-1.3l-0.4-1.3l0.4-2.1l0.6-0.8l0.1-0.8l-0.4-0.7
	l-1.4-0.7l-0.7-0.7l-0.4-0.2h-0.6l-1.2,0.4l-0.6-0.1l-0.4-0.4l-0.5-1.7l-1.3-0.7l-0.4-0.5l-0.6-1.4v-0.7l0.8-2.3l0.5-1.4l-0.5-1.3
	l-0.5-1.3l-0.2-1.5l0.4-1.4l0.8-0.6l0.8-0.6l0.7-1l0.2-2.5l-1.4-1.5l-3.6-2.3l-0.5-1.1l-0.4-1.1l-0.6-0.7l-2.3,0.2l-0.5-0.6l-1-2.3
	l-1-0.7l-2.3-0.1l-0.8-0.5l-0.4-1.3l0.8-2.4l-0.6-2.9l0.1-1.9l0.4-1.9l0.6-1.5l-0.2-1.3l-1.4-1.1l-1.2-1.4l0.2-2.4l0.5-0.7l2.1-1.7
	l0.7-1.1l-0.2-0.7l-2.3-2.7l-1.4-1.3l-1.8-0.8l-1.7,0.2l-0.8,0.4l-1,0.4h-0.8l-0.5-1l0.4-1.7l-0.1-0.5l-0.5-0.4l-0.8,0.2l-0.5-0.1
	l-0.6-0.8l-0.6-1.9l-0.4-0.7l-0.7-0.5l-2.1-1.1l-0.8-0.2l-3.9,0.5l-2.1-0.4l-1.1-1.7l0.2-1l1.2-1.5l-0.1-1.1l-0.2-1.1l0.1-1l0.4-1
	l1.1-2.1l1.5-1.7l0.5-1.2l0.5-1.7l0.6-1.1l0.8-0.6l1.2-0.6l0.4-0.5l-0.5-1.4v-0.7l0.6-0.5l1.1-0.5l0.5-0.6l0.4-1.1l0.4-1.5l0.2-1.5
	l-0.2-3.8l1.7-1.9l2.3-1.8l1.4-2l-0.1-1.2l-0.4-1.3l-0.8-1.1l-0.8-0.7l-1-0.4l-0.8,0.1l-2,1.2l-3.1-0.5l-1.4-0.8l-0.2-0.7l0.2-2
	l-0.1-2v-0.8l0.7-3.2l0.1-1.3l-0.6-4l0.4-3.1v-1.7l-0.5-1.3l-1-0.8l-1.1-0.4l-0.7-0.4l0.1-0.5l0.6-0.6l0.2-0.6l-0.4-1.4l-0.2-0.8
	l-0.1-1.1l0.2-1.5l1.7-5.7l-0.4-2.4l-3.2-1.5l-1-1l-0.8-1.2l-1.1-3v-1.4l-1.1-0.8l-0.4-0.6l-0.2-1.2l-0.6-1.2l1-1.4l1-0.8l0.6-1
	l-0.6-3.1l0.4-1.3l1.2-2.4l-0.5-1.9l-2.4-1.8l-2.7-1.4l-1.7-1.2V46l0.4-1.4v-0.7l-0.7-1.5l-0.2-1.4l0.1-1.1l-0.7-1.5l-0.4-1.7
	l-0.2-0.8l-1.7-1.9l-0.4-1l0.7-1l1.2-0.8l1-0.4h1l1.4,0.1l1.4-0.1l3.3-0.8l1.4,0.1l4.3,2.1l1.5,0.1L385,32l3.2-1.4l1.2-0.8l1.1-1.7
	v-1.4l-0.2-1.4l0.4-1.8l0.6-1v-1l-0.4-2.1l0.1-1.3l0.4-1.1l2-4.2l0.4-1.1l0.1-1.2L393.6,8l0.2-1l6.5-5.4l1.5-0.5l1,0.7l1.5,2.5l1,1
	l3.6,1.7l1.2,1.1l5.1,3.7l0.1,0.1l1.1,0.7l1.3,0.2h1.4l-0.4,0.6l1.3,1l0.7,1.8l1.8,7.6l0.8,1.7l1.2,1.1l-0.5,1.1l0.2,0.5l1.5,1.2
	l1.5,0.1l0.5,1l2.3,1.5l1.1,1.8l0.6,0.8l0.6,0.2l0.5,0.8l1.5,3.3l1,1.7l0.6,3.9l0.4,1.2l1.7-0.5l6.4,2.1l1.1-0.7l0.6,0.1l0.2,0.5
	l-0.2,1.4l0.6,0.2l0.8,0.2l0.8,0.5l0.4,0.8l-0.5,1.2l0.4,0.8l1.2,0.7l0.5,0.6l0.8,2.4l0.2,0.7l0.6,0.4l1.4,0.7l0.4,0.5l-0.1,0.8
	l-0.5,1.3l0.1,0.8l0.7,1l1.3,0.8l1.4,0.7L457.5,64L457.5,64z" title=""></path>
<path id="_x622__x630__x631__x628__x627__x6CC__x62C__x627__x646___x634__x631__x642__x6CC_" class="st0 area" d="M639.6,201.5l-0.7,0.5
	l-2.1,1.7l-4.6,1.8l-14.7-1.5l-3.9,0.7l-5.8-1l-19.4,2.3l-2.1,1l-2.1,1.3l-3.3,3.6l-4,2l-1.9,1.3l-2.6,4.3l-9.3,9.5l-1.2,2.4v3.8
	l0.4,2.5l-14.5,1.7l-6.1-0.8l-2.1-3.2V230l-2.4-7.1l0.7-1.2l-0.2-1.5l-1.9-1.7l-3.2-0.7l-2.4-1.5l-1.9-2l-2.9-0.5l-2.6,1.8l-1.7,1.5
	l-1.5-0.1l-3,0.6l-3.7,2.4l-2,2.6l-1,2.1l-0.2,0.7l-1,1.5l-1.8,1.2l-2.9-1.2l-2.7-2.4l-7.6-4.4l-1.1-2l-8.4-7.7l-6.7-0.1l-8-1.4
	l-18-11.9l-2.3-3.4l-0.8-4.2l0.7-9.6l-1.5-3.6l-4.2-5l-0.4-1.3l-0.8-1.7l-0.5-1.2l0.2-0.8l1.2-0.8l0.2-0.4l-0.5-4.8l-0.4-1l-1.3-1.7
	l-2.1-21.1l0.1-2.5l0.4-0.8l-0.1-0.8l-0.4-1.4l-0.4-0.6l-0.8-1.1v-1.1h-0.5l-3.9-5.2l-0.8-2.6l0.7-3.4l3.4-5.8l10.6-10.9l2.3-4.2
	l0.1-3.9l-1.7-4.2l-0.8-4.5l1.8-8.4l1.4-3.2l7.1-7.7l1,0.4l1.3,0.7l0.7,0.1l1.7,0.1l3.6,0.8h5.5l4.5,1.9l13,2.7l4,1.8l3.6,1l4.8-0.7
	l1.1-0.5l3.2-2.3l1.2-0.6l0.8-0.2l2.4-0.1l1.4-0.5l0.7-0.1l0.8,0.2l6.4,2.9l1.1,0.4l1.1-0.1l1.4-0.5l1-0.7l1-0.7l0.8-1l0.7-1.2
	l1.8-3.6l0.7-1.1l1.2-1l3.6-1.8l1-1l1.1-2.5l0.7-1.1l1.5-1l0.8-1l1.5-2.7l0.8-1l1-0.8l1.1-0.5h1l1.7,0.7l1,0.2l0.7-0.1l3.7-2
	l0.5,1.5l0.2,0.1l0.1,0.8l0.8,1l1.9,1l0.8,1.7l1.2,4.8l-0.2,1.5l-0.4,1.4l-1.3,1.8l-5.4,3.7l-3.8,0.5l-2.5,1.4l-2.7,0.6l-2.7-2.4
	l-1.3,0.1l-0.1,1.2l-0.1,2.3l-0.4,2.3l-0.8,0.7l-3.3-0.8l-2.3,0.2l-0.6,1.2l-1.7,1l-2.5,3.3l-1,4.9l1.7,4.3l3.2,1.8l4.2-1.5l4.3-2.3
	l4-1.2l9.2,2.6l2.6-2l2.3-3.2l3.8-3l0.8-1l-1-0.4l-0.8-1.3l7-12.3l4.6-3.2l2.5,0.2l4.2-2.5l3.9-3.6l2.5,1l-0.8,9l1,1.3l0.1,5.9
	l3.6,8.9l-0.6,5.4l-2.4,3l0.1,2.3l3.2,1.8l1.2,3.9l-3,2l-4.4-0.7l-4.3,1.2l-2.5,2.9l-5,3.6l-1.9,3.7l-1.5,2l-1.3,2.9l-0.2,4l0.7,2.4
	l3-1.1l3.9-0.6l1.9,1.9l0.8,0.7l1.8,0.2l13.9-2l4.3,2.1l1.8,5.8l0.4,6.2l3.1,7.7l4.9,6.7l4.2,3.8l0.6,1.3l-0.6,2.3l-1.4,2.9
	l-0.5,7.1l1.8,8.4l6.1,3.8l0.4-0.2l1.3,0.2l4.5,2.4l1.7,1.4l0.5,5.6l1.7,3.8l3.7,2.5l1.3,1.3l2.9,2.4l-0.5,1.5h0.5l0.5-0.7l1-0.4
	h2.1l0.8,0.5l1,1.7h0.5L639.6,201.5L639.6,201.5z" title=""></path>
<path id="_x6A9__x631__x645__x627__x646__x634__x627__x647_" class="st0 area" d="M602.3,374.6l0.1,1.2l-0.4,2l-2,2.4l-2.5,5.5l-2.9,4.3
	l-6.2,0.7l-1.9,0.7l-1,1.2l0.6,3l3.2,2.6l4.5,2.4l2,0.5l1.7,0.8l0.8,3.1l1.5,2.4l5.4-5.5l2.7-1.2l1.4-0.4l1.2,1.8l0.6,3.1l-0.6,4.9
	l0.1,3.4L609,415l-6.9-1.4L596,414l-2.3,3.4l-1.1,2l-4.3-0.6l-1.8,0.6l-1.1,0.7l-0.2,1.7l0.6,4l-0.4,4.2l-3,1.5l-4.4,0.2l-3.6,1.8
	l-0.4,1.1l0.1,0.7l0.8,0.8l0.2,0.7l0.1,0.8l-0.1,1.3v0.8l0.2,0.6l-0.8,1.4l-1.1,0.7l-1.1-0.2l-2-0.2l-9.9,2.3v2.4l1.7,2.5l1,1.9
	l-1,4.8l-1.2,2.5l-9.6-0.5l-10.5,2.7l-7.3-0.6l-15.5-5l-4.5-3.9l-4-2.5l-5-1.2l-5-0.4l-9.2-3.8l-9.5,1.2l-3.7-0.1l-1.1,1.4l0.8,2.7
	l-0.7,4.8l-2.3,7.5l-1.3,10.7l-1.4,1.1l-0.2-0.5l-2.9-2.1l-1-1l-0.8-1.2l-0.6-1.2l-0.5-1.3l-0.2-1.5l-0.5-1.2l-0.8-0.8l-1-0.8
	l-0.8-1l-5.5-10l-0.4-0.1l-1.8,0.2l-1.7-0.1l-1.3-0.8l-1.3-1.8l1.3-0.6l1.1-1l1-2l0.6-1.9l0.6-1.7l1.5-1.3l1-1l2.5-2l0.6-0.8v-0.8
	l-0.8-1.3l-0.2-0.8l0.1-0.7l0.8-1.4l0.2-0.6l0.8-3.6l0.1-1.9l-0.2-1.7l-1-1.4l-1.3-0.8h-1.4l-1.2,1l-1.2-0.8l-0.7-1.5l-1.9-6.2
	l0.6-1l3.2-0.7l0.8-1l0.7-1.1v-2.3l-0.5-3l0.2-2.1l2.4,0.7l2.1,1.2l1.9,0.5l4.3,0.2l1.3,0.6l0.4-0.1l0.4-1.3l0.1-0.8l-0.2-0.5
	l-0.7-1l-0.1-1.2l-0.1-1.4l-0.1-1.4l-1-1.3l-0.4-1.4l-0.5-0.6l-1.1-0.7l-0.8-1.1l0.5-1.2l1.7-1.9l0.2-1l-0.2-1.4l0.2-1l0.6-0.8
	l0.8-0.4l1.7-0.1l1.8-1.2l0.2-1.9l-0.1-1.9l0.5-1.4h1.4l1.8,1l1.7,0.6l1-1.3l0.5-1.8l0.5-1.4l0.2-1.4l-0.6-1.9l-0.2-1.1v-1l0.4-0.8
	l0.6-0.7l1.3-0.2l0.5-0.5l-0.1-1.3l0.8-1.4l0.5-0.1l1,0.2l1.3,0.8l0.6,0.4l0.8-0.1l1.8,0.8l1-0.2l1-0.8l1.7-1.1h0.6l1.1,0.2l1.5-0.5
	l0.8-0.2l0.6-0.4l0.5-0.8l-1.2-1.5l0.8-2.1l1.3-2.3l0.2-1.9l-1-0.8h-2.4l-0.8-0.6l-0.2-1.2l0.6-1l0.7-1l0.4-0.7l1.7,0.6l11.8,9.2
	l14.7,20.3l2.6,1.8l1.4-0.1l0.2,1.5l-0.5,2.3v3l2.1,2.3l3.7-0.5l5.5,0.7l4.2-0.6l2.4-1.3l0.2-2.5l1.3-1.5l1.9-0.4l1.3-1.5l0.1-2.1
	l0.7-1.7l2.6-0.8l3.7-3.9l3.8-0.4l2.4,0.2l1.3-0.7l0.4-4.9l0.6-1.5l8.8-0.6l2.1-1.9l0.2-2.5l-1.1-2.3l0.6-1.4l1.8,0.1l2.5,2.1l7,3.2
	l9.4,10.6l2.6,0.5L602.3,374.6L602.3,374.6z" title=""></path>
<path id="_x6AF__x6CC__x644__x627__x646_" class="st0 area" d="M769.9,219.6l-0.6,2.3l-2.1,3l-3.2,1.7l-2.5,2.5l-1.3,6.3l-3.8,6.8l-3.1,2
	l-8.4-0.7l-5.1,1.1l-1.3,0.7l-1.3,0.5l-11.5,6.3l-3.1,0.5l-5.6-1.1l-1.3-1l-1.9-0.4l-3.2,0.1l-8.4-2.5l-3.7-3.6l-3.4-4.4l-0.8-2.4
	l-0.1-1.3l-5.8-2.9l-3.6-12.6l-2.6-4.3l-6.9-7.1l-9.3-5.9l-0.6-1.9l-0.6-4l0.4-3.4l-0.1-2.1l-2-2.6l-3.9-3.1l-3.4-3.6l-10.1-16.1
	l-5.7-15.7l0.1-4.3l2-3.1l0.5-4.2l1.3-3l13.9-16.5l0.5-1.4l-1-1.1l-2.3-0.5l-1.5-0.6l-0.4-1.5l-1.2-1.7l-2-1.7l-0.4-0.8l2.9,0.2
	l1.4-0.5l1.7-0.7l1.5-1l1.3-1.2l1.3-0.8l2,0.1l3.9,0.8l0.2,6.9l-0.7,2.3l0.4,1.7l0.1,4.2l1.2,2.9l0.8,9.6l2.6,9l-0.5,1.5l-0.1,1.8
	l0.2,1.7l0.5,1.2l2.3,3.6v0.7l-0.4,1.3l0.7,3.1l1.3,2.9l3.1,4.8l4.2,4.3l4.4,3.2l10,5.2l4.6,1.5l23.6,3.2l2.6-0.5l2-0.8l2-0.4
	l2.1,1.2l-0.6,0.1l-1-0.4l-0.5,0.7l5.1,2l8,1.8l2.9,1.2l2,1.8l-0.2,2.9l0.5,1.1l0.8,2.7l0.6,1.2l0.8,1.3l1.4,4.2l1.9,3.1l2.1,2
	l4.4,3.4l3.1,3.7l1,0.5l1.2,0.4L769.9,219.6L769.9,219.6z" title=""></path>
<path id="_x6A9__x631__x62F__x633__x62A__x627__x646_" class="st0 area" d="M625.4,318.9l-9-5l-2.3,0.6l1.1,3.1l1.9,2.3l0.7,1.7v1.9
	l-4.4,1.5l-1.8,1.7l-2,1l-1.9-0.6l-2.9-6.1l-1.4,0.2l-3.2,3.6l-1,1.9l4.3,6.4l6.5,14.7l3.1,3.7l2.5,1.7l3.4,3.4l1.8,7l-1.3,5.6
	l-2.1,3.4l-2,1.8l-1.3-0.7l-2-4.9l-1.2,0.2l-0.6,2.1l-2.3,1.2l-3.8,1.2l-1.9,1l-1.9,0.1l-2.6-0.5l-9.4-10.6l-7-3.2l-2.5-2.1
	l-1.8-0.1l-0.6,1.4l1.1,2.3l-0.2,2.5l-2.1,1.9l-8.8,0.6l-0.6,1.5l-0.4,4.9l-1.3,0.7l-2.4-0.2l-3.8,0.4l-3.7,3.9l-2.6,0.8l-0.7,1.7
	l-0.1,2.1l-1.3,1.5l-1.9,0.4l-1.3,1.5l-0.2,2.5l-2.4,1.3l-4.2,0.6l-5.5-0.7l-3.7,0.5l-2.1-2.3v-3l0.5-2.3l-0.2-1.5l-1.4,0.1
	l-2.6-1.8l-14.7-20.3l-11.8-9.2l-1.7-0.6l0.1-0.4l-0.5-2.1l-1.4-1.8l-3.4-3l-3.9-6.3l-0.7-2.3l0.1-1.3l0.8-0.8l0.2-0.6l-1-2.1
	l-0.6-1.4l0.6-0.1l1.9,0.6l0.1-1.1l-0.6-3v-1.2l0.2-1.3l0.5-1.2l0.8-1l1.2-0.4l4.4,0.1l1.2-0.4l3.1-1.5l2.4,0.1l1.3-0.2l1-0.8
	l0.8-1.3l1.9-1.2l1-0.8l0.7-1.3l0.1-1.2l-0.5-1l-1-0.7l-1.3-0.1l-1.2,0.5l-1,0.7l-1.2,0.5l-2.6,0.6h-1.3l-1.3-0.5l-0.8-0.8l-0.2-0.6
	l-0.4-1.5l-2.6-1.1h-1.1l-1,0.4l-1.2,0.7l-1.2,0.4l-3.9-0.1l-2,0.7l-1.9-0.4l-1.4,1.3l-1.2,0.6l-1.3,0.1l-1-0.7l-0.7-0.1l-2.3,0.7
	l-1.2-0.4l-0.7-1l-1.5-3.9l-2.9-4l-1.9-1.8l-1.7-0.2l-0.7-0.6l-2.4-2l-2.3-1l2-1.3l2.5-2.4l1-2.5l3.4-3.8l0.8-3.8l1.3-1.3l0.7-1.3
	l1.9-2l10-3.2l3-4.5l0.1-3.7l1.3-1.8l5.4-2l15.5,2.1l31.9-3l0.7,0.6l0.5,1l0.8,1.2l1.2,1.1l1.1,1.1l2.4,1.7l6.4,1.8l6.9,0.6l4.6-2
	l2.6-3l1.1-2.1l0.4-1.2l-0.5-1.3l0.2-1.4l1.8-1.2l1.5-0.5l1.8,1.8l30.9,6.2l0.2,0.4l2,2.1l0.4,0.8l0.2,1.5l0.6,1.7l0.7,1.4l0.6,1
	l-0.7,0.6l-0.1,0.6l0.5,1.9l-0.1,0.5l-0.5,1.1l0.1,0.5l1.3,0.2l1.2,4.3l-0.1,7.9l-1.3,5.5l-2.4,2.6l-1.1,2.7l0.8,2l17,10.3l1.1,1
	l1.2,2.1L625.4,318.9L625.4,318.9z" title=""></path>
<path id="_x62E__x631__x627__x633__x627__x646___x62C__x646__x648__x628__x6CC_" class="st0 area" d="M1379.4,439.5l0.7,6.5l1.8,11.3
	l-0.1,2.9l-1.9,4.3l-0.5,2.5l1.4,5.4l3.9,3.8l5,2l4.8,0.4l4.5-0.2l2.4,0.1l2.1,0.6l1,0.5l1,1l0.6,1.1l-0.6,1l-0.8,0.4l-3,0.2
	l-1.1,0.7l-0.1,1.1l0.2,2.5l-0.4,1.4l-0.6,0.8l-2,1.3l-1.8,1.5l-5.4,7.3l-6.3,8.6l-0.4,1.1l0.1,5.7l0.8,4.8l6.1,20.3l4.8,16.2
	l4.8,18l-0.1,5.8l-0.8,5.8l-0.4,1.2l-1.7,2.1l-0.5,1.1l0.2,0.5l1,0.7l-0.6,1.5l0.1,0.7l0.6,1.5l0.1,1.5l-0.5,4.5l0.1,3.4l0.8,6.8
	l-0.7,5.4l0.1,1.7l1,3.4l0.7,6.8l2,0.8l16.7,2.5l1.1,4.2l-0.8,8.7l-3.9,9.5l-3,10.5l-1.3,18.8l0.2,5.5l3.2,13.8l-0.1,2.3l-1,1.4
	l-2.1,0.8l-8.3,0.4l-5-4.4l-9.8-13.8l-7.5-5.6l-5.7-1.5l-1.4-1.1l-2.1-2.4l-3.4-0.6l-46,13.1l-2,1l-24.5-35.8l-8.8-6.5l-70.1-31.8
	l1-1.4l3.2-8.2l6.3-9.9l2.3-6.3l8.2-11.1l1-3.3l0.6-3.6l1.4-4l0.1-4l-2.5-4l-1.9-4v-2.3l-1.9-2l-0.8-1.7l-0.5-1.7l1.1-2.6l1.7-2.7
	l0.5-2.3l-0.4-5.6l1.5-1.8l2.6-4.5l2-8.7l8.6-13l19.4-12.8l2.7-2.9l3-4.9l0.5-2.1l1.8-3.4l-9.3-6.8l-0.6-2.1l-0.6-1.8l-1.4-1
	l-1.8-1.7l-0.2-3.2l1-4.2l1.5-3.8l0.2-3l-0.7-3.2l1.3-5.5l0.6-5l-2.4-3.8l-0.4-2l1-2.1l3.2-1.2l9.9,1.2l6.3,2l1.7-1.3l1.8-1.9
	l18.2-2.7l5.7-3.3l6.4-2.4l3.3,2.9l5.9,9.9l8.1,2.9l38.3-0.1L1379.4,439.5z" title=""></path>
<path id="_x62E__x631__x627__x633__x627__x646___x631__x636__x648__x6CC_" class="st0 area" d="M1379.4,439.5l-4.8,0.8l-38.3,0.1
	l-8.1-2.9l-5.9-9.9l-3.3-2.9l-6.4,2.4l-5.7,3.3l-18.2,2.7l-1.8,1.9l-1.7,1.3l-6.3-2l-9.9-1.2l-3.2,1.2l-1,2.1l0.4,2l2.4,3.8l-0.6,5
	l-1.3,5.5l0.7,3.2l-0.2,3l-1.5,3.8l-1,4.2l0.2,3.2l1.8,1.7l1.4,1l0.6,1.8l0.6,2.1l9.3,6.8l-1.8,3.4l-0.5,2.1l-3,4.9l-2.7,2.9
	l-19.4,12.8l-8.6,13l-2,8.7l-2.6,4.5l-1.5,1.8l-1.5-1.2l-5-7.7l-5.2-3.3l-3.9-1.8l-1.5-1.2l-5.2-3l-3.9-9.2l-4.6-31l-2.4-4.8
	l-2.7-3.3l-15.7,3.7l-12.1-1.5l-3-4.5l-3.8-21.4l0.5-12.5l7.9-23.4l4.2-7.5l24.4-17.4l5.9-5.8l0.8-4.8l-2.1-4.8l-18-13.8l-6.8-1.8
	l-15.5,4l-24.5,11.5l-25.1,6.7l9.9-12.3l8-7.4l6.9-4.2l13.1-4.9l1.8-1.4l2.6-6.1l10.7-18.4l1-5.4l-4-4.6l-14.5-11.9l-1.8-4.3
	l-1.9-9.2l-1.2-14.4l1-8.3l2.5-4.8l1.5-7.1l-1.4-5.9l-2.5-1.5l-2-0.1l-1.2,0.4l0.2-2l-0.5-2.7l0.5-3.6l3.6-4.6l14.7-12.1l9.9,0.5
	l40.7,22.7l17,2.6l4.6-1.2l2.4-2.1l2-6.1l-0.5-2.4l-2.3-1.3l-0.7-1.2l0.4-2.1l3.7-3.9l-0.2-1.8l-2-1l-1.3-1.9l-0.5-2l-0.8,0.4
	l-0.8,2.4l-1.7,0.2l-1.2-2.1l-1.7-1.9l-3-2.1l-0.4-2.6l2.5-3.1l3.7-10.9l2.3-3.1l0.6-2.4l0.1-1.5l0.5-1.3l1.7-2l1.3-2.5l-0.4-3.1
	l-1.7-3.4l-5.6-5.2l-1.4-3.2l-0.7-2.6l-1.2-1.5l-27.6-1.3l-2.4-1.7l1.1-2.6l0.7-3v-3.3l2.3-2.4l7.5-4.6l1.2-0.2l0.5,0.1l0.5,0.5
	l0.6,1.2l0.4,0.5l1,0.4h1l1.1-0.4h1l2.1,0.6l9.6,4.6l4,1l2.1,0.1l1,0.2l1.1,0.5l0.5,0.6l-0.1,1.7l1,1.9l0.2,0.5l0.1,1.4v1.1l0.4,1
	l1.1,0.8l1,0.5l4.9,0.7l0.7,0.4l1.7,1.1l0.8,0.2l5.6-0.5l1.1-0.6l0.8-1.2l0.6-1.3l0.7-1.2l1-0.6l1.2-0.1l1,0.5l3.1,2.7l2.7,1.2
	l1.3,0.1l1.4-0.1l0.5-0.4l0.8-0.8h0.7l1.3,0.4l1.3-0.4l0.8-1l0.1-1.2l0.4-0.6l3.7,2.1l4.8,1.1l2.5,1.1l0.8,0.7l0.8,0.2l1.8,0.2
	l0.6,0.4l2,2.1l8.2,5.9l1.3,0.1l3.4-1.5l1.4,0.4l1.3,1.2l1.2,1.5l0.2,1.1l-0.2,1.8l0.6,1.4l-0.6,1.4l-0.2,1l0.1,1.5l1.2,5.4l0.7,1.1
	l3.9,3.2l1.5,1.8l-0.5,0.8l-0.2,1.2l0.2,0.6l1,0.2l1,0.8l1,0.2l2-0.7l0.8,0.1l1.1,1.1l0.5,1.3l0.2,1.4l0.5,1.3l0.8,0.6l0.6-0.1
	l0.4-0.5l0.7-1.1l0.6-0.4h0.7l8.8,3l4,3.3l2.3,1.4l5,0.8l2.4,1.1l1.8,2.4l2.4,5l2.7,4.3l6.5,8l1.3,2.1l1.8,4.8l1.3,2.1l2,1.2
	l31.5-0.6l13.6-0.2l3.1,0.6l2.5,0.2l0.5,2.6l0.7,1.9l0.1,1l-0.1,1l-0.2,0.8l-0.7,1.3l-0.2,0.8l0.1,1l0.4,1.2l-1.3,6.1l-0.4,3.8
	l0.8,2.1l-0.5,1.1l1.1,0.7l0.7,0.8l0.4,1.7v1.8l0.2,0.7l0.8,1.4l1,4.8l0.1,2.3v1l-1,1.3l-0.2,0.7l-0.1,1.4l-0.2,0.8l-1.1,0.6
	l-0.4,0.4l-0.2,1l0.2,1.5v0.7l-0.8,0.7l-1.2,1.1l-0.7,1l0.8,0.4l1.5,0.2l1.2,0.7l1.1,1l1,1.2l0.7,1.1l0.5,1.3l0.5,1.3l0.2,2.7
	l0.2,1.1v1.3l-0.4,1.7l0.4,0.6v0.7l-0.4,1.8v1.8l-0.2,0.5l-0.8,0.8l-0.2,0.5l0.2,2l0.8,1.8l1.9,3l0.6,3.1l0.2,1.5l-0.4,1.5l-0.8,1.4
	l-1.4,1.8l-0.7,1.4l-0.6,2.4l-0.4,0.8l-1.2,1.7l-0.4,0.8l-0.4,1.5l0.4,3.9l-0.5,1.3l-1.2,0.7l-1.5,0.2h-1.3l-0.8,0.7l-0.4,1.7v2.4
	l0.4,0.2l0.2,0.7v0.8l-1,0.6l0.2,0.7l2.3,3l0.1,0.4l-0.2,1.5l0.1,0.6l0.6,0.7l-1.5,2l-0.4,1.1l-0.4,3.2l-1,2.7l-0.4,2.3l-1,1.3
	l-0.1,1l0.4,2.9l-0.2,2.6l-0.5,2.5l-1.9,0.6l-0.4,1.3l-1.2,2.1l-2,1.5l-1.1,1.3l-0.1,1.8l0.2,1.9l-0.2,1.8l-0.6,0.8l-0.7,0.2
	l-0.8-0.1l-0.8,0.1l-0.8,0.5l-0.7,1.2l-2.9,3.2l-1.2,0.7l-1.5,0.5l-3.3,0.5l-1.5,0.8l-0.8,1.5l0.6,0.1l0.6,0.2l0.4,0.5l0.5,1.8
	l0.6,0.6l1.5,0.7l0.7,0.6l0.6,1l1,1.9l4.5,5.9l0.7,1.4l-15.1,0.8l0.4,1.7l-1,1l-2.9,1.7l-2.3,2.1l-1.9,2.6l-1.7,3.4l-0.5,3.3
	L1379.4,439.5L1379.4,439.5z" title=""></path>
<path id="_x62E__x631__x627__x633__x627__x646___x634__x645__x627__x644__x6CC_" class="st0 area" d="M1210.1,149.2l-7.5,4.6l-2.3,2.4
	v3.3l-0.7,3l-1.1,2.6l2.4,1.7l27.6,1.3l1.2,1.5l0.7,2.6l1.4,3.2l5.6,5.2l1.7,3.4l0.4,3.1l-1.3,2.5l-1.7,2l-0.5,1.3l-0.1,1.5
	l-0.6,2.4l-2.3,3.1l-3.7,10.9l-2.5,3.1l0.4,2.6l3,2.1l1.7,1.9l1.2,2.1l1.7-0.2l0.8-2.4l0.8-0.4l0.5,2l1.3,1.9l2,1l0.2,1.8l-3.7,3.9
	l-0.4,2.1l0.7,1.2l2.3,1.3l0.5,2.4l-2,6.1l-2.4,2.1l-4.6,1.2l-17-2.6l-40.7-22.7l-9.9-0.5l-14.7,12.1l-3.6,4.6l-0.5,3.6l0.5,2.7
	l-0.2,2l-9.4,1.7l-3-1.2l-5.9-1.1l-3.4-1.1l-6.9-6.1l-7.4-8.2l-1.1-2.4l0.2-1.5l1.1-4.6l0.4-5.2l-0.4-2l-0.7-1.4l0.4-1.2l1.5-1.2
	l3.6-1.1l0.7-1.8l-3-1.3l-2.5,0.5l-4.3-3.1l-9.4-12.5l1.9-1.8l4.5-8l4.4-1.9l1.9-1.7l1.9-0.8l1.7-0.2l7.1-2.5l3.4-4.8l-1.2-4.8
	l-2.5-1.9l-2.9-1.4l-2.1-2.5l-0.1-3.6l1.2-5l0.1-1.9l-0.7-3.2l-0.2-2.9l0.5-2.3l-0.5-5.5l1.9,0.8l1.1,0.1l5.2-0.8l1-0.7l0.6-1.3
	l0.2-1.4l-0.2-1.3l-1.7-2l0.4-1.1l3.8-3.6l2.1-1.4l2.3-0.8l5.6-0.2l1.1,0.2l1.7,1.2l0.8,0.4l1-0.1l4.9-2.3l3-0.5l0.6,0.1l2.4,2
	l2.1,1.2l1,0.2l9.3,1.8l2.4,1.1l1.3,0.1l1.1-0.6l0.8-0.7l2-1.4l0.7-0.7l1.3-2.1l0.7-0.8l1.1-0.5h1.3l1.3,0.4l0.7,0.5l0.1,1.1
	l0.4,0.7l1.4,2.4l1.1,2.7l0.7,1.1l2,2.3l0.7,2.3l1.3,1.9l0.4,1.4l-0.2,1.3l-1.2,4l1.5,2.1l8.8,3.4l1.1-0.1l1-0.2l1-0.2l1.1,0.1
	l3.1,1h3.1l0.8-0.2h1l0.8,0.5l0.8,0.7L1210.1,149.2L1210.1,149.2z" title=""></path>
<path id="_x633__x6CC__x633__x62A__x627__x646___x648___x628__x644__x648__x686__x633__x62A__x627__x646_" class="st0 area" d="
	M1303.4,1053.6l-0.4-1.7l1.7-0.7l0.2-2.1l-1.2-0.6l-0.5-0.6l-2.1-3.7l-1.1-1.1l-0.8-1.1l-0.5-1.4l-1-1.2l-1.9-0.7l-1.3-1.4l-0.4-2.5
	l-1.9-3.2l-11.7-10.3l-2.3-1.4l-0.8-0.4l-0.2-1.2l0.4-2.1l1.1-1.8l0.7-0.4l1.2-3l0.4-2.6v-4.2l0.7-1.8l0.8-1.1l-0.1-2.3l1.2-1.4
	l1-2.6l-0.5-2.7l-2.1-2.5l-1.1-3.9l1.4-3.2l2-2.4v-2.4l-2-1.8l-1-1.5l1.7-3l1.8-5.2l-3.3-6.5l-4.6-5.5l-1.3-4.6l0.2-4.4l-0.2-2.6
	l-1.4-5.8V930l7-27.7l0.8-8l-0.5-24.1l7.1-9.3l1.9-6.3l-2.1-3.6l-5.1-3.8l-2.3-3.6l3.6-1.9l7-2.4l14.3-8.3l2.7-2.3l1.8-1.9l0.1-2.6
	l-0.6-2.7l-1.8-3.8l-0.1-5.7l-0.8-4.8l0.8-4.5l5.1-7.9l1.9-7l0.2-6.1l-2.1-15l-2.5-6.2l-2.7-1.9l-1.4-1.4l0.5-5.9l12.6-58.8l2-1
	l46-13.1l3.4,0.6l2.1,2.4l1.4,1.1l5.7,1.5l7.5,5.6l9.8,13.8l5,4.4l8.3-0.4l2.1-0.8l1-1.4l0.1-2.3l-3.2-13.8l-0.2-5.5l1.3-18.8
	l3-10.5l3.9-9.5l0.8-8.7l-1.1-4.2l22.5,3.3l10.5,1.4l1.5,0.7l1.2,1l2.3,2.7l0.4,1.4l-0.4,3.1v1.4l0.6,1.4l1.7,2.7l0.5,1.7l0.1,2
	l0.1,0.7l1.1,2.4l0.7,2.3l0.4,1.4v1.4l-0.5,1.5l-1.2,2.4l0.4,0.8l0.2,4.9l-0.6,0.7v1.3l0.2,0.5l-1.1,1.1l-19.9,24.1l-15.2,18.1
	l-14.5,17.5l-8.3,9.6l8.2,9.8l13.6,16.2l5,6.1l1.2,1l1.3,0.6l1.1,0.7l0.6,1.8l-0.1,1.4l-0.7,2.5v1.3l0.6,1.4l1.9,2.1l0.8,1.3
	l0.1,0.7l0.2,1.8l0.4,0.8l0.6,0.7l1.2,0.2l0.6,0.4l0.6,1.1l0.4,1.2l0.5,1l1.1,0.5l0.6,0.5l0.1,0.6l-0.1,0.7l-1.1,1.1v0.8l1.3,0.7
	l0.6,0.6l0.6,0.7l2.6,5.9l0.4,1.3l0.1,1.2l0.4,1.1l1.8,2l1.7,3.8l1.8,2.3l6.4,5.8l2.5,3.2l3.9,3.7l1.9,2.3l1.2,0.6l3.7,1.1l3,1.7
	l1.8,0.6l4.2,0.4l1.9,0.5l5.1,2.3l8.1,1.7l1.8,0.8l0.7,0.8l0.5,1l0.6,0.8l1.1,0.6l1,0.4l0.7,0.4l0.4,0.7l0.5,1.3l0.8,1.4l3.9,4.3
	l1.2,0.7l10.1-2l1.3,0.8l0.4,2.5l-1.9,15.1l2.7,11.4l1.2,13.3l1,10l-0.4,2.9l-3.2,7.3l1.2,1.5l0.2,0.7l-0.1,1.1l-0.2,1.1l-0.4,0.7
	l-0.6,0.5l-1,0.1l2.6,2.4l1,0.5h0.5l0.8-0.5h1l1.4,0.8l1.9,0.5l1.7-0.1l3.6-0.7l1.7-0.2l3.2-1.1h1.7h1.8l3.3-1.1l0.6,0.1l0.8,0.2
	l1.5,1.4l0.7,0.5l1.5,0.6l0.5,0.4l0.7,0.7l0.8,1.3l2.1,4.6l-1.1-0.5h-1.3l-1.2,0.6l-0.7,1.1l-0.2,0.7l-0.6,1l-0.4,0.7v0.7l0.2,7.9
	l0.6,1.3l0.7,1.1l0.6,1.2l-0.2,1.2l-1,0.8l-2.5,0.5l-1,0.5l-0.5,1.1l-0.5,10l-0.7,2.9l-1.3,1.3h-0.6l-1.5-0.8l-0.6-0.1l-1.8,0.5
	l-2.4-0.1l-2.4-0.4l-14.6-0.4l-0.6,0.2l-0.5,0.6l-0.7,1.2l-1.3,0.7l-1.9,0.5h-0.6l-1.3-0.5l-0.5,0.2l-1.1,1l-1.2,0.5l-10.3,1.1
	l-1.1,0.6l-0.5,0.8l-0.4,0.4l-0.6,0.1h-1.3l-1.2,0.2l-1.2,0.8l-1.3,0.6l-0.5,0.2l-0.4,0.6l-0.1,0.6l0.5,1.2l-0.7,1.2l-1.9,1.9
	l-0.4,1l0.2,1.5l0.6,1.3l0.1,1l-1.3,0.7l-2.4-0.4l-2.7-1l-2.3-0.4l-1.1,1.7l-0.2,1.7l-0.6,0.7l-2.5,0.5l-1.3,0.4l-1.1,0.6l-2.3,1.4
	l-7.4,2.1l-1.5,1.2l-0.8,1.8l-0.5,2.1l-1.1,7.9l-2,14.7l-0.4,1.2l-1,1.2l-1.1,0.2h-1.2l-1.3,0.2l-1.3,1.9l0.4,2.5l0.6,2.6l-0.1,2.4
	l-1.3,1.4l-0.4,0.7l-0.2,1l-1.4,22.4l-1.9,5.6l-0.4-1l-0.1-1.1l-1.1-0.8l-0.6-0.6l-0.6,0.4l-0.1,0.4l-0.1,1.2l-0.1,0.4l1.2,1.3
	l-1.3-0.1l-1-0.4h-1.1l-1.3,1l1.5,0.5l0.6,0.4l0.5,0.6l-0.4,0.7l-1,1.2l-0.4,1.3l-0.5,0.5l-1,0.5l-3.3,1.1l1,0.6l-1.4,1.9l-10.3-3.6
	l-3.7-0.7l0.1-1.2l-1-1.7l-8.6-3.1l-10.1-1.7l-8.6-2l-5.8-0.7l-1-0.6l1-0.8l-1.5-2.1l-0.1-1l-0.1-3.8l-0.1-0.6l-2.3-2.3l-1-0.6
	l-1.1-0.1l-1.1,0.1l-4.3,1.3l-1.1,0.6l-0.6,1l-1.4,1.9l0.5,2.3l1.3,0.6h0.6l1.2,1.3h-0.7l1.8,1l-0.2,0.8l-0.7-0.1l-4.4-1.9l-1.3-0.7
	h-2.6l-1.8-1.4l0.8-1.3l-1-0.5l-1.1-0.1l-2.3,0.1l-2,0.5l-0.6,0.6l0.2,0.7l1.3,1l-0.5,1.2h-1.7l-1.2-0.8l-0.7-0.2l-2.1-0.2l-0.5-0.4
	l-0.7-1l-1-0.5l-2.3,0.1l-3.1,0.5l-3.3,0.1l-2.3,1.7l-2.6-0.8l-2.5-2.5l-2.9-0.7l-7,0.5h-2.9l-4.6-1.2l-3-3l-2.1-1.2l-3.6,0.7
	L1303.4,1053.6L1303.4,1053.6z" title=""></path>
<path id="_x6A9__x631__x645__x627__x646_" class="st0 area" d="M1216.2,618.5l70.1,31.8l8.8,6.5l24.5,35.8l-12.6,58.8l-0.5,5.9l1.4,1.4
	l2.7,1.9l2.5,6.2l2.1,15l-0.2,6.1l-1.9,7l-5.1,7.9l-0.8,4.5l0.8,4.8l0.1,5.7l1.8,3.8l0.6,2.7l-0.1,2.6l-1.8,1.9l-2.7,2.3l-14.3,8.3
	l-7,2.4l-3.6,1.9l2.3,3.6l5.1,3.8l2.1,3.6l-1.9,6.3l-7.1,9.3l0.5,24.1l-0.8,8l-7,27.7v6.9l1.4,5.8l0.2,2.6l-0.2,4.4l1.3,4.6l4.6,5.5
	l3.3,6.5l-1.8,5.2l-1.7,3l1,1.5l2,1.8v2.4l-2,2.4l-1.4,3.2l1.1,3.9l2.1,2.5l0.5,2.7l-1,2.6l-1.2,1.4l0.1,2.3l-0.8,1.1l-0.7,1.8v4.2
	l-0.4,2.6l-1.2,3l-2.5-3.8l-0.8-0.7h-1.8l-2.4-1l-1.8,0.5l-1.8,1.9l-2.6,0.4l-3.1-0.1l-2.5-0.6l-1.1-1.9l-0.1-2.1l-0.7-1.4l-0.1-1.4
	l0.6-1.2l0.1-0.7l-1.2-0.8l-3.8-0.6l-2.4-1.1l-2.1-0.5l-2.1,1.1l-3.3,0.2l-5-0.8l-8.2,0.5l-0.1-1.3l1.3-1.5l0.7-3.8v-2l-0.4-2
	l1.4-13.4l0.8-2l1.1-1.4l0.4-1.2v-1.7l-1.5-4.5l0.1-1.3h1.3l3.8,2.4l0.6-1.3l-1.8-3.8l-3.7-4.2l-4.5-3.9l-4.3-2.5l-4-0.1l-2.5,1.7
	l-1.4,2.1l-3,2.7l-1.8-0.6l-4.2-3.1l-19-10.1l-1.3-4l-1.9-25.8l-1.9-5.5l-1.7-3.4l-1.5-0.8l-1.4-2l1.1-2.1l1.7-1.4l-0.4-3.4
	l-2.9-4.3l-2.7-3.1l-1.4-2.7l-2.5-3.2l-3.2-1.7l-1.9-0.2l-1.2-1.1l-0.8-1.5l-2.3-10.8l0.5-7.1l-0.5-1.1l-6.4-3.2l-3.3-0.1l-2.7,2.3
	l-1.9,2.3l-6.7,6.4l-7.3,3.6l-3.9,0.7l-7.4-1.2l-6.3-3.8l-5.2-4.9l-5.5-7l-1.3-6.9l1.5-5.2l-1.2-26.6l-1.8-2.6l-1.8,0.2l-7.3,3.4
	l-12.4,9.3l-3.1,0.8l-2.7-1.3l-2.7-1.9l-2.6-3.6l-5.6-4.3l-11.1-3.2l-5.2-0.4l-12.4-30.9l-3.7-1.5l-14-1.3l-2.7-1.7l-1.4-1.5
	l-1.4-2.4l-0.7-2.7l-5-10.3l-1.7-5.6v-1.4l2.7-1.2l0.6-0.6l6.3-0.7l1.9-1.4l-0.1-2l-0.8-2.7l-0.6-4l0.7-23.1l-1.9-1.4l-2-2.4
	l-1.4-7.1l-3.7-9.5l-3.4-6.5l-0.1-3.6l1.3-5.2l2.9-5.4l5.5-6.1l34.5-6.2l7.9,0.4l5.1,1l11.5-1.5l10.5-4.6l1-5l0.7-22.6l2.7-5.9
	l32.7-17.2l4.3-4.6l12.8-7.3l2.9-3l1.3-2l7.9,1.3L1216.2,618.5L1216.2,618.5z" title=""></path>
<path id="_x627__x644__x628__x631__x632_" class="st0 area" d="M783.7,271.1l10.2,2l3.9,1.5l1.1,1.5l2.4,2.3l2.5,1.1l10.1,2.3l4,4.6
	l-0.2,3.3v4.3l-3.4,2.1l-5-0.6l-5,1.8l-3.7,4.3l-0.2,4.9l-0.7,3.7l-5.5,0.4l-1.8,4.5l-3.2,4l-3.9,2.4l-1.7,3.8l-2.9,0.2l-1.7,3.6
	l-1.8,0.2l-0.4-2.5v-4.2l-2.4-2.9h-3.4l-0.8,2l2.4,3.3v1.3l-0.6,1.1l-1.5-1l-3.6-3.2l-6.1-1.7l-6.2-0.5l-2.6-0.6l-1.3-2.1l-1.7-3.6
	l-0.5-2.3l0.8-3l3.3-3.3l12.5-6.1l2-2l0.8-2.9l2.9-6.1l2-6.7l-2.9-2.4l-4.4-1.3l-2.3-2l-3.1-4.3l1.8-2.7l6.9-0.5L783.7,271.1
	L783.7,271.1z" title=""></path>
<path class="st0 area" d="M802.9,318.8c2.6,1.5,5.3,3.1,7.9,4.6c4.9,1.6,9.7,3.2,14.6,4.9c2.6-0.1,5.3-0.2,7.9-0.3
	c3.1-0.8,6.1-1.5,9.2-2.3c1.4-1.2,2.7-2.4,4.1-3.6c0.6,0,3.3-0.1,5.4-2.3c1.9-2,2.4-5.1,1.4-7.9v-2.7l-7.6-11.1l-6.4-4.8l-9-2.5
	l-5.8-0.5l-6.7-3.9l-0.2,3.3l-5.1,5.6l-8.3,2l-3.7,4.3l-0.2,4.9l-3.9,2.8l-2.3,1.2l0,0c0.5,1.1,1.2,2.4,2.3,3.7
	C798.8,316.9,801.4,318.2,802.9,318.8z" id="_x62A__x647__x631__x627__x646___x628__x632__x631__x6AF_" title=""></path>
<path class="st0 area" d="M796.5,309.4" id="PATH_34" title=""></path>
<path class="st0 area" d="M841.7,339.5" id="PATH_35" title=""></path>
<path class="st0 area" d="M830.2,340.8" id="PATH_36" title=""></path>
</svg>
