<?xml version="1.0" encoding="utf-8"?>
<!-- Generator: Adobe Illustrator 27.4.1, SVG Export Plug-In . SVG Version: 6.00 Build 0)  -->
<svg version="1.1" id="Layer_1" xmlns="http://www.w3.org/2000/svg" xmlns:xlink="http://www.w3.org/1999/xlink" x="0px" y="0px"
	 viewBox="0 0 1920 1080" style="enable-background:new 0 0 1920 1080;" xml:space="preserve">
<style type="text/css">
	.st0{fill:#FBD0D1;stroke:#010101;stroke-width:0.4193;stroke-miterlimit:20.9668;}
	.st1{fill:#DBECCB;stroke:#010101;stroke-width:0.4193;stroke-miterlimit:20.9668;}
	.st2{fill:#E8D0E5;stroke:#010101;stroke-width:0.4193;stroke-miterlimit:20.9668;}
	.st3{fill:#FDFAD4;stroke:#010101;stroke-width:0.4193;stroke-miterlimit:20.9668;}
	.st4{fill:none;stroke:#020202;stroke-width:1.0483;stroke-miterlimit:20.9668;}
	.st5{font-family:'ArabicTypesetting';}
	.st6{font-size:32px;}
</style>
<path id="_x36_81" class="st0" d="M843.8,169.6c2.9,1.5,4.6,6.1,6.1,10.7C865,200,900,200,898.4,225.8c0,6.1-18.2,13.6-13.6,24.3
	c9,24.3,34.8,30.4,59.1,24.3c19.7-4.6,45.5-12.2,50.1-34.8c7.5-27.3,18.2-48.4,28.7-72.8c9-21.2,2.9-50.1-6.1-75.9
	c-3.1-9.4,0.8-18,4.6-26.8c-9.4-3.4-15.3-5.7-17-6.9c-1.3-1-13.8-6.3-101.1-35.2l-3.1-1c-7.3-2.5-22.2-4.2-25.8-2.3
	c-4.2,2.1-19.7,3.1-25,3.6c0,1.7,0,2.5,0,2.5c0,0.4-2.3,17.2-2.3,22.9c0,0.6,0,1.3,0,1.9c0.2,5.9,0.2,15.7-8.2,19.3
	c-1.7,0.8-3.8,1.5-5.7,2.3c-6.7,2.7-15.3,6.3-17.6,8.6c-1.3,1.3-3.4,2.5-5.9,4c2.3,3.4,3.8,6.9,3.8,10.5
	C815.1,122.7,816.6,149.9,843.8,169.6z"/>
<path id="_x36_75" class="st1" d="M749.9,251.6c1.5,4.6,4.6,9,7.5,9c25.8-1.5,45.5,9,68.1,21.2c4.6,1.5,7.5-1.5,9-4.6
	c4.6-7.5,4.6-13.6,12.2-16.8c9-1.5,16.8,2.9,25.8,1.5c6.5-0.8,8.4-7.5,12.2-12.2c-4.4-10.5,13.6-18.2,13.6-24.3
	c1.5-25.8-33.3-25.8-48.4-45.5c-1.5-4.6-2.9-9-6.1-10.7c-4-2.9-7.3-5.9-10.3-9c-8.6,10.5-11.3,20.3-0.4,36.3c0,1.5-4.6,2.9-4.6,6.1
	c-16.8-15.1-28.7,6.1-47,6.1c-2.9,1.5-7.5,0-9-2.9c-14.5-24.1-30.8-44.2-50.5-62.3c-5.9,3.6-12,6.9-17,9.2c1,27.5,21,52.4,40,72.8
	C751.4,231.9,743.8,242.4,749.9,251.6z"/>
<path id="_x36_72" class="st2" d="M700,249.9c-19.7,10.7-45.5,18.2-42.4,48.4c0,7.5-19.7,12.2-15.1,22.9
	c7.5,18.2,33.3,16.8,51.6,13.6c7.5,0,18.2-10.7,21.2-1.5c4.6,12.2-7.5,22.6-10.7,33.3c-4.6,25.8,25.8,42.6,48.4,44
	c1.5,0,4.6-4.6,6.1-7.5c7.5-10.7,0-25.8,4.6-31.9c13.6-15.1,37.9-12.2,54.5-24.3c6.1-4.6,7.5-15.1,15.1-19.7
	c4.6-1.5,10.7,1.5,12.2,0c10.7-16.8-6.1-27.3-15.1-39.4c-1.3-1.7-1.9-3.6-1.9-5.7c-0.8,0-1.7,0-2.7-0.4
	c-22.6-12.2-42.4-22.6-68.1-21.2c-2.9,0-6.1-4.6-7.5-9c-6.1-9,1.5-19.7-4.6-25.8c-19.3-20.3-39.2-45.3-40.3-72.8
	c-3.1,1.5-5.7,2.5-7.5,3.4c-12.4,4.6-30.6,10.3-30.8,10.3s-15.3,5.9-28.5,11.1C651.6,205.9,687.9,218.9,700,249.9z"/>
<path id="_x36_79" class="st3" d="M704.4,366.7c2.9-10.7,15.1-21.2,10.7-33.3c-2.9-9-13.6,1.5-21.2,1.5c-18.2,2.9-44,4.6-51.6-13.6
	c-4.6-10.7,15.1-15.1,15.1-22.9c-0.4-5-0.2-9.4,0.6-13.2c-10.7,0.4-20.3-3.6-20.3-10.9c4.2-38.6-33.3-53-49.1-80.1
	c-5.9,1.7-10.3,2.9-10.7,3.1l-0.6,0.2l-0.6-0.2c-5.5-2.5-21.6-8.6-28.5-7.8c-8.8,1-19.9,4.4-23.5,5.7c-2.5,0.8-8.4,2.9-11.1,4
	l2.3,90.8l-0.8,0.6c-0.8,0.6-20.5,14.9-26.4,18.2c-2.9,1.7-6.5,4-6.7,5.7c0,1.3,1.3,2.5,2.3,3.6c3.4,2.7,7.5,8.4,11.7,14
	c3.8,5,9.4,12.4,11.3,13c4.8,1.3,8,5.7,9.4,13c0.8,4.2,2.3,34.8,2.9,53.9c18.7,9.6,41.9-0.8,60.4-10.1c25.8-12.2,45.5,12.2,69.8,9
	c7.5-1.5,16.8-10.7,25.8-12.2c11.3-2.5,22.2-7.1,31.9-13.4C704.6,379.7,703.2,373.6,704.4,366.7z"/>
<path id="_x33_73" class="st0" d="M637.7,274.2c0,7.5,9.9,11.5,20.3,10.9c4.6-19.7,25.4-26.4,41.7-35.2c-12.2-31-48.4-44-61.4-72.3
	c-8.4,3.4-15.9,6.3-18,7.1c-3.8,1.5-20.3,6.3-31.7,9.6C604.4,221.2,642.1,235.7,637.7,274.2z"/>
<path id="_x36_77" class="st1" d="M818.3,469.9c2.9-27.3-28.7-28.7-47-39.4c-8.4-4.6-11.7-13.4-15.5-22c-1,1.3-2.1,2.3-2.7,2.3
	c-16.8-1-37.5-10.5-45.5-25.4c-9.6,6.3-20.5,10.9-31.9,13.4c-9,1.5-18.2,10.7-25.8,12.2c-24.3,2.9-44-21.2-69.8-9
	c-18.5,9.2-41.7,19.7-60.4,10.1c0.2,7.8,0.4,13.4,0.4,14.9c0,3.1,4.6,20.5,7.8,31.9c0.8,0.2,1.5,0.2,2.1,0.4c5.5,1,33.8,4.4,34,4.6
	l1,0.2l0.4,0.8c0,0,5.7,10.3,10.1,17c2.1,3.1,13.4,17,25.4,31.7c14,17.2,28.5,35,32.7,41.1c8.8,12.6,3.4,48.2,1.5,54.3
	c-1.3,3.6,0.2,12,1.7,18.7c4.8-0.2,15.1,0,20.8,6.7s12.4,7.5,21.4,2.9c4.8-2.5,11.3-5.9,17.6-9c5.2-2.7,10.1-5.2,13.2-6.9
	c1.3-0.6,2.7-1.5,4.4-2.1c7.3-3.8,16.4-8.4,21.2-9.4c5.7-1,14.7-3.4,14.7-3.4h0.2l13.8-1.5l-0.2,1.7c29.1-30.6,19.9-78.4,39-116.4
	C806.1,482,818.3,478.9,818.3,469.9z"/>
<path id="_x39_48" class="st1" d="M1220,612.4c-9-2.9-9,10.7-13.6,12.2c-15.1,6.1-21.2-12.2-33.3-18.2c-7.5-2.9-13.6,6.1-16.8,12.2
	c-2.9,7.5,2.9,15.1,0,24.3c-1.5,4.6-6.1,7.5-7.5,12.2c-4.6,15.1,1.5,30.4-10.7,45.5c-10.7,12.2,2.9,28.7,15.1,33.3
	c20.5,7.3,43.2,6.7,62.9,14c2.7-3.1,6.5-5.5,11.5-5.5c14.9,0,16.1-2.7,16.1-5.9v-27.7l-10.9-13c-0.2-0.2-2.3-2.3-1.7-5.5
	c0.4-2.3,2.5-4.4,5.9-5.9c7.8-3.4,15.5-8.8,15.5-8.8l0.6-0.4h0.8c0.4,0,46.8,3.4,52.2,3.4c3.1,0,5.7-0.8,6.3-1.9s-0.4-2.9-1-4
	c-3.4-5-4-28.1-4-43.2c-23.9-7.1-51.4-6.1-76.9-8C1226.1,621.5,1222.9,613.9,1220,612.4z"/>
<path id="_x36_59" class="st0" d="M891,488.1c24.3-7.5,44,19.7,65.2,6.1c7.5-4.6,13.6-18.2,4.6-25.8c-21.2-19.7-25.8-40.9-33.3-66.7
	c-6.1-28.7-48.4-15.1-78.8-21.2c-15.9-2.5-25-17.8-35.9-30c-16.1,8.4-36.9,7.3-49.1,21c-4.6,6.1,2.9,21.2-4.6,31.9
	c-0.8,1.7-2.1,3.8-3.4,5.2c3.8,8.6,6.9,17.4,15.5,22c18.2,10.5,49.9,12.2,47,39.2c8.2,0,17,4.6,24.3,7.8c2.9,1.5,0,10.7,1.5,15.1
	c2.9,4.6,9,2.9,13.6,6.1c4.8,1.9,8.4,5.2,10.9,9.2C875.5,500.7,880.3,492.1,891,488.1z"/>
<path id="_x36_80" class="st2" d="M1135.1,870.1c-22.6-2.9-27.3-33.3-45.5-40.9c-21.2-7.5-19.7-30.4-30.4-45.5
	c-1.5,0-4.6-2.9-6.1-1.5c-9,13.6-34.8,24.3-25.8,40.9c9,18.2,1.5,34.8,2.9,51.6c4.6,19.7,28.7,24.3,42.4,40.9
	c1.5,2.9,2.9,7.5,1.5,12.2c-8.2,16.4-36.9,30.2-30.8,49.1c0.6,0,1.3,0,2.1,0c1.7,0,3.4,0,4.8,0c9-0.2,16.1-0.2,21.6,5.2
	c1.9,1.9,4,4,6.1,6.3c4.4,4.6,9.4,9.9,13.2,13c5.2,4.2,20.5,10.9,28.9,8.8c9.4-2.3,13.6-2.5,23.5,6.1c7.1,6.1,7.8,10.1,8.6,13.8
	c0.2,1.3,0.4,2.7,1,4c1.7,4.2,10.5,9.2,17.4,13c1,0.6,2.3,1.3,3.4,1.9c0.8,0.6,1.9,1,2.9,1.7c7.1,4.2,17.6,10.3,23.1,9.4
	c3.1-0.4,5.7-2.5,8.2-4.2c2.7-1.9,5.2-3.8,8-3.8c3.1,0,8.6-0.6,11.5-0.8c-0.6-5.5-2.1-20.5-2.1-24.3c0-14.5-3.4-18-6.3-18.5
	c-9-1.3-17.6-13.6-18.9-18.7c-1.3-5.2,0.2-8.2,3.6-15.1c2.9-6.1,1-12-1.3-17.6c-0.8-1.9-2.3-4.8-4-7.8c-4-7.3-6.5-12.6-6.5-15.7
	c0-4.6,2.3-18,2.3-18.7l5-44.9C1178.1,869.3,1157.1,872.8,1135.1,870.1z"/>
<path id="_x36_92" class="st3" d="M1003.2,811c-6.1,4.6-12.8,3.8-19.9,1c0.8,3.1,1.5,5.7,1.5,5.9l0.6,1.9l-1.7,0.6
	c-5.5,2.1-15.1,6.7-17.4,9.6c-3.4,4.6-11.3,12.4-11.5,12.8c-2.5,3.1-6.3,9.6-5,12.8c0.2,0.4,0.6,1.5,2.9,1.9
	c12.2,2.5,12,10.9,12,16.6v1.5c0,3.1,1,11.1,2.1,17.8c0.8,6.3,1.5,10.3,1.5,12c0,2.3,3.8,14,14,15.1c12,1.3,19.7,9.6,21.2,13.8
	c0.2,0.8,0.4,2.1,0.6,3.4c0.6,4.4,1.5,10.5,8.6,13.6c11.5,5,16.1,11.7,19.3,18c3.1,6.1,4,7.8,12.2,8c-5.9-19.1,22.9-32.9,30.8-49.1
	c1.5-4.6,0-9-1.5-12.2c-13.6-16.8-37.9-21.2-42.4-40.9c-1.5-16.8,6.1-33.3-2.9-51.6c-3.6-6.5-1.7-12.2,2.3-17.4
	C1021.4,802.8,1012.2,803.9,1003.2,811z"/>
<path id="_x39_81" class="st0" d="M1069.9,717.1c-13.6-7.5-25.8,9-34.8,19.7c-1.5,2.9-1.5,9,0,12.2c9.6,10.9,16.4,21.6,17.2,34.8
	c0.4-0.4,0.6-0.8,1-1.3c1.5-1.5,4.6,1.5,6.1,1.5c10.7,15.1,9,37.9,30.4,45.5c18.2,7.5,22.6,37.9,45.5,40.9c22,2.7,43-0.8,64.8-0.2
	l4.2-38.2c0.4-10.1,2.3-60.6,3.6-64.2c0.2-0.4,0.2-1,0.4-1.9c1-4.2,3.1-12.6,8.2-18c-19.9-7.3-42.4-6.7-62.9-14
	c-3.8-1.5-7.5-4-10.9-7.1C1119.6,753.1,1091,727.5,1069.9,717.1z"/>
<path id="_x33_70" class="st3" d="M1197.1,571.3c2.9-9-6.1-21.2-16.8-18.2c-9,2.9-18.2,10.7-28.7,7.5c-4.6,0-9-6.1-15.1-4.6
	c-10.7,6.1-18.2,24.3-6.1,33.3c7.5,6.1,16.8,2.9,22.6,9c3.6,2.7,6.7,6.5,10.3,9.9c2.7-2.3,5.9-3.6,9.4-2.1c0.4,0.2,0.6,0.4,1,0.6
	c5.5-9.6,14.5-14.9,15.7-27.9C1189.6,577.4,1195.7,574.5,1197.1,571.3z"/>
<path id="_x36_91" class="st1" d="M1010.7,754.8c-21.2,12.2-45.5-1.5-65.2,12.2c-7.3,4.6-11.3,12.2-15.1,20.3c2.5,1.7,5.2,2.7,8,2.7
	c10.1,0,20.1,1,26.6,1.7c2.9,0.2,5.2,0.6,6.3,0.6c6.3,0,10.1,3.4,10.1,8.8c0,2.7,0.8,7.1,1.7,10.7c6.9,2.9,13.8,3.6,19.9-1
	c9.2-7.1,18.2-8.2,26.4-5.2c5.9-7.8,16.8-14.5,22.4-22.2c-0.8-13-7.5-23.9-17.2-34.8c-1.5-2.9-1.5-9,0-12.2c0.4-0.6,0.8-1,1.3-1.7
	C1025.4,735.1,1020.8,749.1,1010.7,754.8z"/>
<path id="_x36_68" class="st3" d="M1110.8,636.6c-2.9-6.1-10.7-6.1-13.6-2.9c-25.8,22.6-56.2,33.3-89.5,34.8
	c-2.9,0-7.5,1.5-10.7,4.6c-10.5,17.6-16.6,37.7-31.9,48.2c0.4,1.3,1,2.3,1.5,3.4c1.5,2.9,7.5,9,12.2,9c15.1,4.2,30.4,3.4,38.6,15.5
	c6.1-6.3,10.7-14.3,18.9-14.3c9-10.5,20.5-25.4,33.5-18c21.2,10.5,49.7,36.1,72.5,9.4c-7.3-7.1-11.5-17.8-4.2-26.2
	c7.8-9.6,8.2-19.5,8.4-29.1C1135.7,657.9,1120.2,651.4,1110.8,636.6z"/>
<path id="_x36_69" class="st1" d="M1059.2,588.1c-4.6-4.6-13.6-1.5-19.7-4.6c-1.5-1.5-6.1-6.1-6.1-9c6.1-24.3,0-50.1-22.6-59.1
	c-21.2-9-44,1.5-65.2,4.6c-2.9,0.6-5.9,1-9,1.3c-3.6,8-8.8,15.7-13.8,22.9c-4.6,6.1-1.5,16.8,2.9,24.3c8.2,21.6-11.5,32.3-28.7,29.1
	c1.3,14,1.3,28.1-1.7,42.1c-1.7,7.1-4.8,14.5-9,21.2c18,0.6,37.9-1,30.4,15.3c-0.4,0.6-0.8,1.5-1,2.1c5.5-1.7,10.9-3.4,16.1-0.6
	c1.5,0,1.5,7.5,4.6,7.5c21.2,4.2,22.6,21.4,28.7,36.1c15.3-10.5,21.4-30.6,31.9-48.2c2.9-2.9,7.5-4.6,10.7-4.6
	c33.3-1.5,63.7-12.2,89.5-34.8c0,0,0.2,0,0.2-0.2c-1.5-4.8-2.9-9.4-6.3-13.4C1080.3,607.8,1072.8,597.1,1059.2,588.1z"/>
<path id="_x36_85" class="st3" d="M1021.4,501.7c2.9-1.5,4.6-6.1,7.5-7.5c12.2-2.9,24.3-9,34.8-18.2c12.2-10.7,18.2,15.1,21.2,27.3
	c7.5,21.2,37.9,34.8,50.1,13.6c7.5-13.6,10.7-34.8,24.3-39.4c22.6-4.6,48.4-21.2,65.2-15.1c22,9.9,46.8,23.5,69.2,15.7
	c-0.8-12.8-1.9-28.5-2.7-43.4c-1.9-30.6-3.6-57.2-3.6-59.3c0-0.4,0.8-38.8,3.8-43.2c1.3-1.9,2.9-13.6,4.2-24.3
	c-5.9-6.3-14.9-15.7-17.2-17.2c-1.9-1.3-9.2-11.3-25.8-35c-7.5-10.7-15.3-22-16.8-23.3c-2.3-2.3-4.6-7.1-6.5-11.5
	c-1-2.5-2.1-4.8-2.9-5.9c-0.2-0.4-0.6-0.8-0.8-1.5c-2.3-3.8-6.1-9.9-17.4-13.6c-13.8-4.6-29.1-20.5-34.2-28.1
	c-3.6-5.2-36.5-37.1-52.2-52.4c-4.4-4.4-7.8-7.5-9-8.8c-4.2-4.2-29.6-19.5-41.7-26.8c-4.4-2.5-7.1-4.4-8-4.8
	c-1.5-0.8-12.8-4.8-23.1-8.4c-6.9-2.3-13-4.6-18-6.3c-3.8,9-7.8,17.6-4.6,26.8c9,25.8,15.1,54.5,6.1,75.9
	c-10.7,24.3-21.2,45.5-28.7,72.8c-4.6,22.6-30.4,30.4-50.1,34.8c-24.3,6.1-50.1,0-59.1-24.3l0,0c-3.6,4.6-5.7,11.3-12.2,12.2
	c-9,1.5-16.8-2.9-25.8-1.5c-7.5,2.9-7.5,9-12.2,16.8c-1.3,2.3-3.4,4.8-6.5,5c0,2.1,0.6,4,1.9,5.7c9,12.2,25.8,22.6,15.1,39.4
	c-1.5,1.5-7.5-1.5-12.2,0c-7.5,4.6-9,15.1-15.1,19.7c-1.7,1.3-3.6,2.3-5.5,3.4c10.9,12.2,19.9,27.5,35.9,30
	c30.4,6.1,72.8-7.5,78.8,21.2c7.5,25.8,12.2,47,33.3,66.7c9,7.5,2.9,21.2-4.6,25.8c-4.8,3.1-9.4,4-14.3,3.8
	c0.4,7.5-1.7,15.5-5.2,23.3c2.9-0.2,5.9-0.6,9-1.3c21.2-2.9,44-13.6,65.2-4.6c5,2.1,9.4,5,12.8,8.4
	C1027.3,517.3,1027.9,509.9,1021.4,501.7z"/>
<path id="_x36_63" class="st2" d="M1216.8,524.4c3.8-20.1,11.7-41.1,28.1-53c-6.9-2.9-13.8-6.3-20.5-9.2
	c-16.8-6.1-42.4,10.7-65.2,15.1c-13.6,4.6-16.8,25.8-24.3,39.4c-12.2,21.2-42.6,7.5-50.1-13.6c-2.9-12.2-9-37.9-21.2-27.3
	c-10.7,9-22.6,15.1-34.8,18.2c-2.9,1.5-4.6,6.1-7.5,7.5c6.5,8.2,6.1,15.5,2.3,22.2c12,12.2,14.7,31.9,9.9,50.7c0,2.9,4.6,7.5,6.1,9
	c6.1,2.9,15.1,0,19.7,4.6c13.6,9,21.2,19.7,31.9,31.9c3.4,4.2,4.8,8.8,6.3,13.4c3.1-2.9,10.5-2.7,13.4,3.1
	c9.4,14.9,25,21.4,35.9,34.4c0.2-5.5,0.4-10.9,2.1-16.4c1.5-4.6,6.1-7.5,7.5-12.2c2.9-9-2.9-16.8,0-24.3c1.7-3.1,4.2-7.3,7.1-9.9
	c-3.6-3.1-6.7-6.9-10.3-9.9c-6.1-6.1-15.1-2.9-22.6-9c-12.2-9-4.6-27.3,6.1-33.3c6.1-1.5,10.7,4.6,15.1,4.6
	c10.7,2.9,19.7-4.6,28.7-7.5c2.9-0.8,5.7-0.4,8.2,0.6C1199.4,544.5,1213.3,538.6,1216.8,524.4z"/>
<path id="_x33_68" class="st0" d="M1307.2,572c1.3-1.3,3.1-6.1-5-25.2c-3.6-8.4-6.9-36.1-6.9-41.7c0-1.5-0.6-12.4-1.5-27
	c-15.5,5.2-32.5,0.2-48.6-6.7c-16.4,11.7-24.3,32.9-28.1,53c-3.6,14.3-17.4,20.1-28.3,29.4c6.5,2.7,10.9,11.1,8.6,17.6
	c-1.5,2.9-7.5,6.1-7.5,7.5c-1.3,13-10.3,18.2-15.7,27.9c11.5,6.5,17.6,23.5,32.3,17.6c4.6-1.5,4.6-15.1,13.6-12.2
	c2.9,1.5,6.1,9,10.7,9c25.6,1.9,53,0.8,76.9,8c0-6.1,0-10.9,0.2-12.6c-1.7-11.1-4.4-24.1-6.3-26C1296.7,586,1302.4,576.8,1307.2,572
	z"/>
<path id="_x35_62" class="st2" d="M978.9,733.6c-4.6,0-10.7-6.1-12.2-9c-7.5-15.1-7.5-34.8-30.4-39.4c-2.9,0-2.9-7.5-4.6-7.5
	c-5.5-2.7-10.9-1-16.1,0.6c-6.3,13.2-8.2,30.2-16.6,44l8-0.6l0.4,1.7c0.2,1.3,6.9,32.1,6.9,37.9c0,3.6,6.7,19.5,16.1,26
	c3.8-8.2,7.8-15.7,15.1-20.3c19.7-13.6,44,0,65.2-12.2c2.5-1.5,4.8-3.4,6.9-5.7C1009.3,737,994,737.8,978.9,733.6z"/>
<path id="_x33_66" class="st2" d="M925.8,568.4c-4.6-7.5-7.5-18.2-2.9-24.3C933,530,943,513.3,942,498c-16.1-0.8-32.1-15.7-50.9-9.9
	c-10.7,4-15.5,12.6-22.4,19.7c5.2,8.4,6.3,20.5,7.3,31.9c0,4.6,10.7,6.1,12.2,9c4,16.4,7.8,32.5,9.2,48.9
	C914.3,600.7,934,590,925.8,568.4z"/>
<path id="_x33_65" class="st0" d="M886.4,660.7c-11.1,17.6-29.1,31.9-45.5,31.9c-9,0-19.7-31.9-31.9-18.2
	c-19.5,19.5-35.9,5.9-52.6-5.9c-1.3,10.3-2.3,35.2-0.6,39.4c2.1,5.5,7.8,15.5,14.3,20.8c0.8,0.8,1.9,1.7,3.1,2.5
	c6.7,5.7,16.8,14.3,22.2,15.3c4.4,0.8,12,1,22.4,1c1.7,0,7.1-0.2,12.4-0.6c5.7-0.2,10.9-0.6,12.6-0.6c3.1,0,10.9-3.4,11.7-6.5
	l3.8-15.1l40.9-3.1c8.8-14.5,10.3-32.7,17.6-46.1C924.4,659.6,904.4,661.3,886.4,660.7z"/>
<path id="_x36_57" class="st3" d="M809,674.5c12.2-13.6,22.6,18.2,31.9,18.2c22.6,0,48.4-27.3,54.5-53c6.1-30.4,0-60.6-7.5-91
	c-1.5-2.9-12.2-4.6-12.2-9c-1.5-16.8-2.9-34.8-18.2-40.9c-4.6-2.9-10.7-1.5-13.6-6.1c-1.5-4.6,1.5-13.6-1.5-15.1
	c-7.3-3.1-16.1-7.8-24.3-7.8v0.2c0,9-12.2,12.2-15.1,19.7c-19.1,37.9-9.9,85.8-39,116.4v0.8c-0.2,2.1-5.7,53.7-6.9,58.3
	c-0.2,0.6-0.4,1.9-0.6,3.6C773.2,680.4,789.7,694,809,674.5z"/>
<path id="_x36_74" class="st3" d="M772.8,206.1c1.5,2.9,6.1,4.6,9,2.9c18.2,0,30.4-21.2,47-6.1c0-2.9,4.6-4.6,4.6-6.1
	c-10.9-15.9-8.2-25.8,0.4-36.3c-17.4-18.7-18.9-42.1-20.1-66.9c0-3.6-1.5-7.1-3.8-10.5c-5,2.7-10.9,5.2-12,5.7L787.4,94l-1-1.3
	c0,0-5.2-6.1-10.9-6.1C769,86.6,757,91,757,98.1c0,5.2-2.5,8.4-4.8,11.3c-2.1,2.7-4.4,5.5-5.5,10.7c-1.5,7.3-12.8,16.1-24.7,23.3
	C741.9,161.9,758.3,182,772.8,206.1z"/>
<line id="LINE_26" class="st4" x1="778.4" y1="135.7" x2="743.6" y2="75.7"/>
<line id="LINE_27" class="st4" x1="1010.9" y1="887.9" x2="946.8" y2="914.4"/>
<line id="LINE_28" class="st4" x1="939.9" y1="737.4" x2="886.4" y2="781.6"/>
<line id="LINE_29" class="st4" x1="1319" y1="490.8" x2="1170.7" y2="574.9"/>
<line id="LINE_30" class="st4" x1="913" y1="543.9" x2="705.3" y2="722.7"/>
<g id="G_31">
	<path id="PATH_32" d="M700,63.5c0.2,0.6,0.2,1.3,0.2,1.9c0,0.8-0.2,1.5-0.4,2.3c-0.6,1.5-1.7,2.7-3.8,3.6c-1.7,0.6-3.4,1-5.2,1
		c-1.9,0-3.4-0.4-4.6-1.3c-1.3-1-1.9-2.3-1.9-4.2c0-1,0.2-1.9,0.6-3.1c0.4-0.8,0.6-1.5,1-1.9c0.2-0.2,0.4-0.2,0.4-0.2
		c0.2,0,0.2,0,0.2,0.2c0,0,0,0.2,0,0.4c-0.6,1.3-0.8,2.5-0.8,3.6s0.4,1.9,1,2.7c0.8,1,2.3,1.5,4.2,1.5c2.1,0,4-0.4,5.5-1
		c1.3-0.6,2.1-1.3,2.5-2.1c0.2-0.2,0.2-0.6,0.2-0.8c0-0.6-0.2-1.3-0.4-2.1c-0.2-0.6-0.8-1.7-1.9-3.4l0.8-1.7
		c0.2-0.2,0.2-0.4,0.2-0.4s0.2,0,0.2,0.2C699.2,60.4,699.8,61.9,700,63.5z M693.7,54.5l-1.7,1.7l-1.7-1.7l1.7-1.7L693.7,54.5z"/>
	<path id="PATH_33" d="M708.4,63.9h-1.5c-1.5,0-2.7-0.6-3.1-1.9c-0.4-0.8-0.6-2.3-0.6-4v-4c0-1.9-0.2-4.6-0.4-8.2l1.3-1.5
		c0.2-0.2,0.4-0.2,0.4,0c0.2,1.9,0.4,4.6,0.4,8.2v6.1c0,1.7,0.8,2.5,2.5,2.5h1L708.4,63.9L708.4,63.9z"/>
	<path id="PATH_34" d="M713.4,59.8c0,2.7-1.5,4.2-4.2,4.2h-1.7v-2.5h1.5c2.1,0,3.1-0.4,3.1-1s-0.4-1.5-1.5-2.5l0.8-2.1
		c0-0.2,0.2-0.2,0.2-0.2s0.2,0.2,0.4,0.4C713,57,713.4,58.3,713.4,59.8z M713.4,50.1l-1.7,1.7l-1.7-1.7l1.7-1.7L713.4,50.1z"/>
	<path id="PATH_35" d="M721.8,63.9h-1.5c-1.5,0-2.7-0.6-3.1-1.9c-0.4-0.8-0.6-2.3-0.6-4v-4c0-1.9-0.2-4.6-0.4-8.2l1.3-1.5
		c0.2-0.2,0.4-0.2,0.4,0c0.2,1.9,0.4,4.6,0.4,8.2v6.1c0,1.7,0.8,2.5,2.5,2.5h1L721.8,63.9L721.8,63.9z"/>
	<path id="PATH_36" d="M732.1,63.9h-1.7c-1.9,0-3.1-0.6-4-1.9c-0.6,1.3-2.1,1.9-4.4,1.9h-1v-2.5h1.9c2.1,0,3.1-0.8,3.4-2.3
		c0-0.6,0.2-1,0.4-1s0.4,0.4,0.4,1c0.2,1.5,1.3,2.3,3.1,2.3h1.9L732.1,63.9L732.1,63.9z M727.5,68.6l-1.7,1.7l-1.7-1.7l1.7-1.7
		L727.5,68.6z"/>
	<path id="PATH_37" d="M744.9,59.5c0,0.8-0.2,1.7-0.8,2.5c-0.6,1-1.3,1.5-2.1,1.5c-0.6,0-2.1-0.4-4.4-1.5c-1.9,1.3-3.6,1.7-5,1.7h-1
		v-2.5h1.3c0.8,0,1.7,0,2.5-0.2c-0.8-0.6-1.3-1.5-1.3-2.5c0-1.3,0.8-2.7,2.7-4.2l-1.5-0.6c0.4-0.4,1-1,1.9-1.9c1.9,1,3.6,1.9,5,3.1
		C743.8,56.6,744.9,58.1,744.9,59.5z M739.4,57.9c0-0.6-0.2-1-0.4-1.5c-0.2-0.6-0.6-0.8-1.3-0.8c-0.6,0-1,0.2-1.7,0.6
		c-0.6,0.4-1,1-1,1.5c0,0.8,0.8,1.7,2.3,2.1c0.4-0.2,0.8-0.4,1.3-0.6C739.2,58.7,739.4,58.3,739.4,57.9z M743.8,60.4
		c0-0.6-0.4-1.3-1.3-2.1c-0.6-0.6-1.3-1.3-1.9-1.5c0,1.7-0.4,2.9-1.5,3.8c1.7,0.6,2.9,0.8,3.4,0.8C743.4,61.4,743.8,61,743.8,60.4z"
		/>
	<path id="PATH_38" d="M757.9,63.9h-2.3c-0.2,2.9-1.3,5.2-3.4,7.3c-0.6,0.6-1,1-1.3,1c-1,0-2.5-0.2-4-0.4c-0.4,0-0.8-0.2-0.8-0.2
		s0.2-0.2,0.8-0.4c1.7-0.4,3.4-1.5,4.8-2.5c0.6-0.6,1.3-1,1.7-1.9c0.6-0.8,1-1.7,1-2.3v-0.6h-2.7c-2.1,0-2.9-0.8-2.9-2.5
		c0-1,0.2-2.1,0.8-3.4c0.6-1.3,1.5-2.1,2.3-2.1c1,0,1.9,0.6,2.5,2.1c0.4,1,0.8,2.1,0.8,3.4h2.3v2.5H757.9z M754.1,61.4
		c0-0.6-0.2-1.3-0.6-1.9c-0.4-0.8-1-1-1.7-1c-0.4,0-0.8,0.2-1,0.4c-0.4,0.4-0.4,0.6-0.4,1.3c0,1,0.8,1.5,2.5,1.5
		C753.1,61.4,753.5,61.4,754.1,61.4z"/>
	<path id="PATH_39" d="M770.9,44.4c0,0.4-0.4,1.3-0.8,2.3l-5.2,1.7c-2.3,0.8-4,1.5-4.8,1.9c1.7,1.7,2.7,2.9,3.4,3.6
		c1,1.5,1.7,2.7,1.9,4.2c0,1,0,2.1-0.4,2.9c-0.6,1.9-2.9,2.7-6.5,2.7h-1v-2.5h1.3c1.7,0,2.9,0,3.6-0.2c1.5-0.4,2.3-1,2.3-2.1
		c0-1.5-1-3.1-3.4-5.2l-0.2,0.4c-0.2-0.2-0.6-0.6-1-1.3c-0.6-0.6-0.8-1.3-0.8-1.3c0-0.4,0-0.8,0.2-1.7c0.2-0.8,0.4-1.3,0.6-1.5
		c0.2-0.2,1.7-0.8,4.4-1.7C766.5,45.7,769,44.9,770.9,44.4z"/>
</g>
<g id="G_40">
	<path id="PATH_41" d="M926.2,144c0,2.1-0.6,4-1.9,5.9c-1,1.5-2.1,2.3-2.7,2.3c-1.7,0-2.9,0-4.2-0.2c-0.4,0-0.6-0.2-0.6-0.2
		s0.2-0.2,0.6-0.2c1.7-0.4,3.4-1.3,5-2.5c1.7-1.5,2.7-2.9,2.7-4.4c0-0.8-0.6-2.1-2.1-3.6l1-1.9c0-0.2,0.2-0.2,0.2-0.2l0.2,0.2
		c0.4,0.6,1,1.5,1.3,2.5C926,142.4,926.2,143.4,926.2,144z"/>
	<path id="PATH_42" d="M937.1,143c0,3.1-1,5.9-3.1,8c-0.6,0.6-1,1-1.3,1c-1.3,0-2.5-0.2-4-0.4c-0.6,0-0.8-0.2-0.8-0.2
		s0.2-0.2,0.8-0.4c1.7-0.4,3.4-1.5,4.8-2.7c0.6-0.6,1.3-1,1.7-1.9c0.6-0.8,1-1.7,1-2.3v-0.6h-2.7c-1.9,0-2.9-0.8-2.9-2.3
		c0-1,0.2-2.1,0.8-3.4c0.6-1.3,1.5-2.1,2.3-2.1c1.3,0,2.3,0.8,2.9,2.7C936.9,140.1,937.1,141.3,937.1,143z M935.7,141.3
		c0-0.6-0.2-1.3-0.6-1.9c-0.4-0.6-1-1-1.7-1c-0.4,0-0.8,0.2-1,0.4c-0.4,0.4-0.4,0.6-0.4,1c0,1,0.6,1.5,2.1,1.5
		C934.2,141.5,934.8,141.3,935.7,141.3z"/>
	<path id="PATH_43" d="M942,141.3c0,0.8-0.2,1.7-0.6,2.3c-0.2,0.4-0.4,0.6-0.4,0.6s-0.2-0.2-0.2-0.8c0-2.5-0.4-8.4-1.3-17.8l1.7-1.7
		c0.2-0.2,0.2-0.2,0.2-0.2s0,0.2,0,0.4C942,126.8,942,132.7,942,141.3z"/>
	<path id="PATH_44" d="M952.7,144c0,2.1-0.6,4-1.9,5.9c-1,1.5-2.1,2.3-2.7,2.3c-1.7,0-2.9,0-4.2-0.2c-0.4,0-0.6-0.2-0.6-0.2
		s0.2-0.2,0.6-0.2c1.7-0.4,3.4-1.3,5-2.5c1.7-1.5,2.7-2.9,2.7-4.4c0-0.8-0.6-2.1-2.1-3.6l1-1.9c0-0.2,0.2-0.2,0.2-0.2l0.2,0.2
		c0.4,0.6,1,1.5,1.3,2.5C952.5,142.4,952.7,143.4,952.7,144z"/>
</g>
<g id="G_45">
	<path id="PATH_46" d="M801.1,233.4h-0.8c-0.8,0-1.5-0.2-2.1-0.8c-0.4-0.4-0.8-0.8-1.3-1.7c-0.4,0.8-1,1.5-1.7,1.9
		c-0.8,0.4-1.9,0.6-3.6,0.6c-2.9,0-4.4-1-4.4-3.1c0-0.6,0.2-1.5,0.6-2.1c0.2-0.2,0.2-0.4,0.4-0.4s0.2,0.2,0.2,0.4s0,0.2,0,0.6
		c0,0.2,0,0.4,0,0.6c0,1.3,1,1.9,3.1,1.9c2.9,0,4.4-0.6,4.4-1.7c0-0.6-0.8-2.9-2.5-6.9l0.8-1.7c0.2-0.2,0.2-0.4,0.2-0.4
		s0.2,0.2,0.2,0.4c0.6,1.7,1.7,4.2,2.9,7.5c0.6,1.7,1.5,2.5,2.7,2.5h0.6L801.1,233.4L801.1,233.4z"/>
	<path id="PATH_47" d="M806.1,229.4c0,2.7-1.5,4.2-4.2,4.2h-1.7v-2.5h1.5c2.1,0,3.1-0.4,3.1-1s-0.4-1.5-1.5-2.5l0.8-2.1
		c0-0.2,0.2-0.2,0.2-0.2s0.2,0.2,0.4,0.4C805.7,226.7,806.1,227.9,806.1,229.4z M805.9,219.7l-1.7,1.7l-1.7-1.7l1.7-1.7L805.9,219.7
		z"/>
	<path id="PATH_48" d="M816.6,233.6c0,2.1-0.6,4-1.9,5.9c-1,1.5-2.1,2.3-2.7,2.3c-1.7,0-2.9,0-4.2-0.2c-0.4,0-0.6-0.2-0.6-0.2
		s0.2-0.2,0.6-0.2c1.7-0.4,3.4-1.3,5-2.5c1.7-1.5,2.7-2.9,2.7-4.4c0-0.8-0.6-2.1-2.1-3.6l1-1.9c0-0.2,0.2-0.2,0.2-0.2l0.2,0.2
		c0.4,0.6,1,1.5,1.3,2.5C816.4,231.9,816.6,232.9,816.6,233.6z"/>
	<path id="PATH_49" d="M827.3,233.6c0,2.1-0.6,4-1.9,5.9c-1,1.5-2.1,2.3-2.7,2.3c-1.7,0-2.9,0-4.2-0.2c-0.4,0-0.6-0.2-0.6-0.2
		s0.2-0.2,0.6-0.2c1.7-0.4,3.4-1.3,5-2.5c1.7-1.5,2.7-2.9,2.7-4.4c0-0.8-0.6-2.1-2.1-3.6l1-1.9c0-0.2,0.2-0.2,0.2-0.2l0.2,0.2
		c0.4,0.6,1,1.5,1.3,2.5C827.1,231.9,827.3,232.9,827.3,233.6z M825.6,222.5l-1.7,1.7l-1.7-1.7l1.7-1.7L825.6,222.5z"/>
</g>
<g id="G_50">
	<path id="PATH_51" d="M648.6,233.6c0,2.1-0.6,4-1.9,5.9c-1,1.5-2.1,2.3-2.7,2.3c-1.7,0-2.9,0-4.2-0.2c-0.4,0-0.6-0.2-0.6-0.2
		s0.2-0.2,0.6-0.2c1.7-0.4,3.4-1.3,5-2.5c1.7-1.5,2.7-2.9,2.7-4.4c0-0.8-0.6-2.1-2.1-3.6l1-1.9c0-0.2,0.2-0.2,0.2-0.2l0.2,0.2
		c0.4,0.6,1,1.5,1.3,2.5C648.4,231.9,648.6,232.9,648.6,233.6z"/>
	<path id="PATH_52" d="M656.8,233.4h-1.5c-1.5,0-2.7-0.6-3.1-1.9c-0.4-0.8-0.6-2.3-0.6-4v-4c0-1.9-0.2-4.6-0.4-8.2l1.3-1.5
		c0.2-0.2,0.4-0.2,0.4,0c0.2,1.9,0.4,4.6,0.4,8.2v6.1c0,1.7,0.8,2.5,2.5,2.5h1L656.8,233.4L656.8,233.4z"/>
	<path id="PATH_53" d="M661.9,229.4c0,2.7-1.5,4.2-4.2,4.2H656v-2.5h1.5c2.1,0,3.1-0.4,3.1-1s-0.4-1.5-1.5-2.5l0.8-2.1
		c0-0.2,0.2-0.2,0.2-0.2s0.2,0.2,0.4,0.4C661.4,226.7,661.9,227.9,661.9,229.4z M661.9,219.7l-1.7,1.7l-1.7-1.7l1.7-1.7L661.9,219.7
		z"/>
	<path id="PATH_54" d="M666.9,230.8c0,0.8-0.2,1.7-0.6,2.3c-0.2,0.4-0.4,0.6-0.4,0.6s-0.2-0.2-0.2-0.8c0-2.5-0.4-8.4-1.3-17.8
		l1.7-1.7c0.2-0.2,0.2-0.2,0.2-0.2s0,0.2,0,0.4C666.7,216.6,666.9,222.2,666.9,230.8z"/>
</g>
<g id="G_55">
	<path id="PATH_56" d="M557.2,321.8h-1.5c-1,0-2.1-0.6-3.4-1.7c-0.6-0.6-1.5-1.7-2.5-3.1c0,1.5-0.2,2.5-0.8,3.1
		c-1,1.3-3.1,1.9-6.3,1.9h-4.2c-5,0-7.8-1.5-7.8-4.4c0-1,0.4-2.1,1-3.1c0.2-0.2,0.4-0.4,0.4-0.4c0.2,0,0.2,0,0.2,0.2s0,0.2,0,0.4
		c-0.2,0.8-0.4,1.3-0.4,1.9c0,0.8,0.4,1.5,1,1.9c1,0.8,2.7,1.3,5,1.3h4.2c2.3,0,4-0.2,4.8-0.4c1-0.4,1.5-1,1.5-1.9s-0.4-1.9-1.5-3.1
		c-0.6-0.6-1.5-1.7-2.7-2.7c-1-0.8-1.5-1.5-1.5-1.5c0-1.5,0.2-2.3,0.6-2.9c0-0.2,1.5-0.6,4.4-1.7c2.9-1,5.5-1.9,7.3-2.5
		c0,0.2-0.2,1-0.6,2.3c-2.3,0.6-5.7,1.9-10.3,3.6c2.1,1.9,4.4,4.6,7.1,8.2c1,1.3,1.9,2.1,2.5,2.5c0.4,0.2,1.3,0.4,2.1,0.4h0.8v1.9
		h0.6V321.8z"/>
	<path id="PATH_57" d="M562.3,317.6c0,2.7-1.5,4.2-4.2,4.2h-1.7v-2.5h1.5c2.1,0,3.1-0.4,3.1-1s-0.4-1.5-1.5-2.5l0.8-2.1
		c0-0.2,0.2-0.2,0.2-0.2s0.2,0.2,0.4,0.4C561.8,314.9,562.3,316.4,562.3,317.6z M561.6,326.5l-1.7,1.7l-1.7-1.7l1.7-1.7L561.6,326.5
		z"/>
	<path id="PATH_58" d="M570.6,321.8h-1.5c-1.5,0-2.7-0.6-3.1-1.9c-0.4-0.8-0.6-2.3-0.6-4v-4c0-1.9-0.2-4.6-0.4-8.2l1.3-1.5
		c0.2-0.2,0.4-0.2,0.4,0c0.2,1.9,0.4,4.6,0.4,8.2v6.1c0,1.7,0.8,2.5,2.5,2.5h1L570.6,321.8L570.6,321.8z"/>
	<path id="PATH_59" d="M575.5,317.6c0,2.7-1.5,4.2-4.2,4.2h-1.7v-2.5h1.5c2.1,0,3.1-0.4,3.1-1s-0.4-1.5-1.5-2.5l0.8-2.1
		c0-0.2,0.2-0.2,0.2-0.2s0.2,0.2,0.4,0.4C575,314.9,575.5,316.4,575.5,317.6z M574.8,326.5l-1.7,1.7l-1.7-1.7l1.7-1.7L574.8,326.5z"
		/>
	<path id="PATH_60" d="M588.7,321.8h-0.8c-0.8,0-1.3-0.2-1.7-0.4c0,0.2,0,0.4,0,0.6c0,1.9-0.6,3.8-1.9,5.7c-1,1.7-2.1,2.3-2.7,2.3
		c-1.7,0-2.9,0-4.2-0.2c-0.4,0-0.6-0.2-0.6-0.2s0.2-0.2,0.6-0.2c1.7-0.4,3.4-1.3,5-2.5c1.7-1.5,2.7-2.9,2.7-4.4
		c0-0.8-0.6-2.1-2.1-3.6l1-1.9c0-0.2,0.2-0.2,0.2-0.2l0.2,0.2c0.6,0.8,1,1.5,1.5,1.7c0.6,0.4,1.5,0.8,2.3,0.8h0.6L588.7,321.8
		L588.7,321.8L588.7,321.8z"/>
	<path id="PATH_61" d="M601.7,321.8h-1c-0.8,0-1.7,0.2-2.3,0.4c-1,0.4-1.7,1-1.7,2.1c0,1.3,0.8,2.3,2.5,3.4l-1,2.1
		c-1.9-0.6-3.6-1.7-4.8-2.9c-1.7-1.5-2.5-3.4-2.5-5.2H588v-2.5h2.7c0-1.7,0.4-3.4,1.3-5.5c0.8-1.9,1.5-2.7,1.9-2.7s1,0.8,1.7,2.7
		c0.6,1.7,0.8,2.7,0.8,3.4c0,2.9-1.5,4.4-4.4,4.4c0.2,0.8,0.6,1.7,1.3,2.5c0.6,0.8,1.5,1.5,2.3,1.9c0-0.2,0-0.6,0-0.8
		c0-1.5,0.4-2.7,1-3.8c1-1.5,2.3-2.3,4.2-2.3h0.8v2.9h0.1V321.8z M595.2,318.5c0-0.4-0.2-1.3-0.6-2.3c-0.4-1.3-0.8-1.7-1.3-1.7
		c-0.2,0-0.6,0.4-1,1.5s-0.6,2.3-0.6,3.6C594.1,319.3,595.2,319.1,595.2,318.5z"/>
	<path id="PATH_62" d="M618.2,317.4c0,1.3-0.2,2.3-0.8,3.1s-1.7,1.5-2.7,1.5c-1.5,0-2.3-0.6-2.9-1.7c-0.8,1.3-1.7,1.7-2.9,1.7
		c-1.5,0-2.5-0.6-3.1-1.7c-0.8,1.3-1.9,1.7-3.4,1.7h-1.5v-2.5h1.7c1.5,0,2.5-0.8,2.7-2.5c0-0.4,0.2-0.6,0.4-0.6s0.2,0.2,0.4,0.6
		c0.2,1.7,1,2.5,2.7,2.5c0.8,0,1.7-0.2,2.1-0.6c0.2-0.4,0.4-0.8,0.6-1.7c0-0.4,0.2-0.6,0.4-0.6s0.2,0.2,0.4,0.6
		c0.2,1.7,1,2.5,2.5,2.5c1.7,0,2.3-0.4,2.3-1s-0.4-1.5-1.3-2.3l1-1.9c0.2-0.2,0.2-0.4,0.4-0.4s0.2,0.2,0.4,0.4
		C617.8,315.3,618.2,316.4,618.2,317.4z M611.1,309.7l-1.5,1.5l-1.5-1.5l1.5-1.5L611.1,309.7z M613,306.5l-1.5,1.5l-1.5-1.5l1.5-1.5
		L613,306.5z M614.9,309.7l-1.5,1.5l-1.5-1.5l1.5-1.5L614.9,309.7z"/>
</g>
<g id="G_63">
	<path id="PATH_64" d="M715.9,307c0.2,0.6,0.2,1.3,0.2,1.9c0,0.8-0.2,1.5-0.4,2.3c-0.6,1.5-1.7,2.7-3.8,3.6c-1.7,0.6-3.4,1-5.2,1
		s-3.4-0.4-4.6-1.3c-1.3-1-1.9-2.3-1.9-4.2c0-1,0.2-1.9,0.6-3.1c0.4-0.8,0.6-1.5,1-1.9c0.2-0.2,0.4-0.2,0.4-0.2c0.2,0,0.2,0,0.2,0.2
		c0,0,0,0.2,0,0.4c-0.6,1.3-0.8,2.5-0.8,3.6s0.4,1.9,1,2.7c0.8,1,2.3,1.5,4.2,1.5c2.1,0,4-0.4,5.5-1c1.3-0.6,2.1-1.3,2.5-2.1
		c0.2-0.2,0.2-0.6,0.2-0.8c0-0.6-0.2-1.3-0.4-2.1c-0.2-0.6-0.8-1.7-1.9-3.4l0.8-1.7c0.2-0.2,0.2-0.4,0.2-0.4s0.2,0,0.2,0.2
		C715.1,303.6,715.7,305.3,715.9,307z M709.9,297.7l-1.7,1.7l-1.7-1.7l1.7-1.7L709.9,297.7z"/>
	<path id="PATH_65" d="M724.5,307.2H723c-1.5,0-2.7-0.6-3.1-1.9c-0.4-0.8-0.6-2.3-0.6-4v-4c0-1.9-0.2-4.6-0.4-8.2l1.3-1.5
		c0.2-0.2,0.4-0.2,0.4,0c0.2,1.9,0.4,4.6,0.4,8.2v6.1c0,1.7,0.8,2.5,2.5,2.5h1L724.5,307.2L724.5,307.2z"/>
	<path id="PATH_66" d="M743,307.2h-2.1c-2.7,0-4.2-1.5-4.2-4.2c0-0.4,0-0.6,0-1c-1,0.4-2.3,1.3-4,2.3s-2.7,1.7-3.6,2.1
		c-1.3,0.6-2.7,0.8-4,0.8h-1.5v-2.5h1.7c1.7,0,3.6-0.4,5.2-1.3c0.8-0.4,2.3-1.3,4.6-2.3c-0.4,0-1.7-0.4-3.8-0.8
		c-1.5-0.4-2.3-0.6-2.5-0.6c-0.8,0-1.7,0.4-2.5,1c-0.2,0.2-0.2,0.2-0.4,0.2s-0.2,0-0.2-0.2v-0.2c0.6-2.1,1.9-3.1,3.6-3.1
		c0.6,0,1.5,0.2,2.5,0.4c1.5,0.4,2.7,0.8,3.8,1c1.5,0.2,3.1,0.4,5,0.4c0.4,0,0.4,0,0.6,0c0,0,0,0.2,0,0.4l-0.6,1.9
		c-1.3,0-2.1,0-2.5,0.2c0,1,0.2,1.7,0.4,1.9c0.4,0.6,1.3,1,2.7,1h2.1v2.5H743V307.2z M735,311.4l-1.7,1.7l-1.7-1.7l1.7-1.7
		L735,311.4z"/>
	<path id="PATH_67" d="M753.3,307.2h-1.7c-1.9,0-3.1-0.6-4-1.9c-0.6,1.3-2.1,1.9-4.4,1.9h-1.3v-2.5h1.9c2.1,0,3.1-0.8,3.4-2.3
		c0-0.6,0.2-1,0.4-1s0.4,0.4,0.4,1c0.2,1.5,1.3,2.3,3.1,2.3h1.9v2.5H753.3z M749.1,296.3l-1.7,1.7l-1.7-1.7l1.7-1.7L749.1,296.3z"/>
	<path id="PATH_68" d="M772.6,307.2h-1.3c-1.5,0-2.3-0.6-2.9-1.7c-0.4,1.3-1.5,1.7-2.7,1.7c-1.3,0-2.1-0.6-2.7-1.7
		c-0.6,1.3-1.5,1.7-2.7,1.7c-1.5,0-2.5-0.6-3.1-1.7c-0.8,1.3-1.9,1.7-3.4,1.7h-1.3v-2.5h1.7c1.5,0,2.5-0.8,2.7-2.5
		c0-0.4,0.2-0.6,0.4-0.6s0.2,0.2,0.4,0.6c0.2,1.7,1,2.5,2.7,2.5c1.5,0,2.5-0.8,2.5-2.5c0-0.4,0.2-0.6,0.4-0.6s0.4,0.2,0.4,0.6
		c0.2,1.7,1,2.5,2.1,2.5c1.5,0,2.5-0.8,2.5-2.5c0-0.4,0.2-0.6,0.4-0.6s0.4,0.2,0.4,0.6c0.2,1.7,1,2.5,2.5,2.5h1.3v2.5H772.6z"/>
	<path id="PATH_69" d="M780.7,301.3v0.8c0,1.5-0.2,2.3-0.6,2.9c-1,1.5-2.7,2.1-5.5,2.1h-2.9v-2.5h2.1c3.6,0,5.5-0.6,5.9-1.7
		c0-0.2,0-0.2,0-0.4c0-0.4,0-0.6-0.2-0.8c-0.8,0.2-1.9,0.2-2.7,0.2c-1.9,0-2.9-0.8-2.9-2.5c0-1,0.2-2.3,0.8-3.4
		c0.6-1.3,1.5-1.9,2.5-1.9c0.8,0,1.7,0.6,2.3,1.7C780.3,297.3,780.7,299.2,780.7,301.3z M778.2,289.8l-1.7,1.7l-1.7-1.7l1.7-1.7
		L778.2,289.8z M779.1,299.4c0-0.6-0.2-1.3-0.6-1.9c-0.4-0.6-1-0.8-1.7-0.8c-0.4,0-0.8,0.2-1.3,0.4c-0.2,0.2-0.4,0.6-0.4,1
		c0,0.8,0.6,1.3,2.1,1.3C777.6,299.6,778.2,299.6,779.1,299.4z"/>
	<path id="PATH_70" d="M791.2,307.4c0,2.1-0.6,4-1.9,5.9c-1,1.5-2.1,2.3-2.7,2.3c-1.7,0-2.9,0-4.2-0.2c-0.4,0-0.6-0.2-0.6-0.2
		s0.2-0.2,0.6-0.2c1.7-0.4,3.4-1.3,5-2.5c1.7-1.5,2.7-2.9,2.7-4.4c0-0.8-0.6-2.1-2.1-3.6l1-1.9c0-0.2,0.2-0.2,0.2-0.2l0.2,0.2
		c0.4,0.6,1,1.5,1.3,2.5C791,305.7,791.2,306.5,791.2,307.4z"/>
</g>
<g id="G_71">
	<path id="PATH_72" d="M828.5,427.7h-0.8c-0.8,0-1.3-0.2-1.7-0.4c0,0.2,0,0.4,0,0.6c0,1.9-0.6,3.8-1.9,5.7c-1,1.7-2.1,2.3-2.7,2.3
		c-1.7,0-2.9,0-4.2-0.2c-0.4,0-0.6-0.2-0.6-0.2s0.2-0.2,0.6-0.2c1.7-0.4,3.4-1.3,5-2.5c1.7-1.5,2.7-2.9,2.7-4.4
		c0-0.8-0.6-2.1-2.1-3.6l1-1.9c0-0.2,0.2-0.2,0.2-0.2l0.2,0.2c0.6,0.8,1,1.5,1.5,1.7c0.6,0.4,1.5,0.8,2.3,0.8h0.6L828.5,427.7
		L828.5,427.7L828.5,427.7z"/>
	<path id="PATH_73" d="M838.8,427.7h-1.7c-1.9,0-3.1-0.6-4-1.9c-0.6,1.3-2.1,1.9-4.4,1.9h-1.3v-2.5h1.9c2.1,0,3.1-0.8,3.4-2.3
		c0-0.6,0.2-1,0.4-1s0.4,0.4,0.4,1c0.2,1.5,1.3,2.3,3.1,2.3h1.9v2.5H838.8z M831.9,432.3l-1.7,1.7l-1.7-1.7l1.7-1.7L831.9,432.3z
		 M835.7,432.3L834,434l-1.7-1.7l1.7-1.7L835.7,432.3z"/>
	<path id="PATH_74" d="M855.4,423.3c0,1.3-0.2,2.3-0.8,3.1c-0.6,0.8-1.7,1.5-2.7,1.5c-1.5,0-2.3-0.6-2.9-1.7
		c-0.8,1.3-1.7,1.7-2.9,1.7c-1.5,0-2.5-0.6-3.1-1.7c-0.8,1.3-1.9,1.7-3.4,1.7H838v-2.5h1.7c1.5,0,2.5-0.8,2.7-2.5
		c0-0.4,0.2-0.6,0.4-0.6s0.2,0.2,0.4,0.6c0.2,1.7,1,2.5,2.7,2.5c0.8,0,1.7-0.2,2.1-0.6c0.2-0.4,0.4-0.8,0.6-1.7
		c0-0.4,0.2-0.6,0.4-0.6s0.2,0.2,0.4,0.6c0.2,1.7,1,2.5,2.5,2.5c1.7,0,2.3-0.4,2.3-1s-0.4-1.5-1.3-2.3l1-1.9
		c0.2-0.2,0.2-0.4,0.4-0.4s0.2,0.2,0.4,0.4C855.2,421.2,855.4,422.3,855.4,423.3z"/>
	<path id="PATH_75" d="M868.4,423.3c0,2.9-1.9,4.4-5.9,4.4c-1.5,0-2.5-0.2-3.1-0.6c-0.8-0.4-1.3-1.5-1.3-2.7c0-0.6,0.2-1.3,0.4-1.9
		c0.2-0.2,0.2-0.4,0.4-0.4s0.2,0.2,0.2,0.6c0,0.2,0,0.4,0,0.6c0,0.8,0.4,1.5,1.3,1.7c0.4,0.2,1.3,0.2,2.3,0.2c3.1,0,4.6-0.4,4.6-1.5
		c0-1.5-1.9-3.6-5.5-6.1l0.6-2.1c0-0.2,0.2-0.2,0.2-0.2s0.2,0,0.4,0.2C866.5,418.3,868.4,421,868.4,423.3z"/>
	<path id="PATH_76" d="M881.4,427.7h-0.8c-0.8,0-1.3-0.2-1.7-0.4c0,0.2,0,0.4,0,0.6c0,1.9-0.6,3.8-1.9,5.7c-1,1.7-2.1,2.3-2.7,2.3
		c-1.7,0-2.9,0-4.2-0.2c-0.4,0-0.6-0.2-0.6-0.2s0.2-0.2,0.6-0.2c1.7-0.4,3.4-1.3,5-2.5c1.7-1.5,2.7-2.9,2.7-4.4
		c0-0.8-0.6-2.1-2.1-3.6l1-1.9c0-0.2,0.2-0.2,0.2-0.2l0.2,0.2c0.6,0.8,1,1.5,1.5,1.7c0.6,0.4,1.5,0.8,2.3,0.8h0.6L881.4,427.7
		L881.4,427.7L881.4,427.7z"/>
	<path id="PATH_77" d="M886.4,423.5c0,2.7-1.5,4.2-4.2,4.2h-1.7v-2.5h1.5c2.1,0,3.1-0.4,3.1-1s-0.4-1.5-1.5-2.5l0.8-2.1
		c0-0.2,0.2-0.2,0.2-0.2s0.2,0.2,0.4,0.4C886,420.8,886.4,422.3,886.4,423.5z M885.8,432.3l-1.7,1.7l-1.7-1.7l1.7-1.7L885.8,432.3z"
		/>
</g>
<g id="G_78">
	<path id="PATH_79" d="M1004,346.8c0.2,0.6,0.2,1.3,0.2,1.9c0,0.8-0.2,1.5-0.4,2.3c-0.6,1.5-1.7,2.7-3.8,3.6c-1.7,0.6-3.4,1-5.2,1
		c-1.9,0-3.4-0.4-4.6-1.3c-1.3-1-1.9-2.3-1.9-4.2c0-1,0.2-1.9,0.6-3.1c0.4-0.8,0.6-1.5,1-1.9c0.2-0.2,0.4-0.2,0.4-0.2
		c0.2,0,0.2,0,0.2,0.2c0,0,0,0.2,0,0.4c-0.6,1.3-0.8,2.5-0.8,3.6s0.4,1.9,1,2.7c0.8,1,2.3,1.5,4.2,1.5c2.1,0,4-0.4,5.5-1
		c1.3-0.6,2.1-1.3,2.5-2.1c0.2-0.2,0.2-0.6,0.2-0.8c0-0.6-0.2-1.3-0.4-2.1c-0.2-0.6-0.8-1.7-1.9-3.4l0.8-1.7
		c0.2-0.2,0.2-0.4,0.2-0.4s0.2,0,0.2,0.2C1003.2,343.4,1003.8,345.1,1004,346.8z M997.7,337.6l-1.7,1.7l-1.7-1.7l1.7-1.7
		L997.7,337.6z"/>
	<path id="PATH_80" d="M1012.4,347h-1.5c-1.5,0-2.7-0.6-3.1-1.9c-0.4-0.8-0.6-2.3-0.6-4v-4c0-1.9-0.2-4.6-0.4-8.2l1.3-1.5
		c0.2-0.2,0.4-0.2,0.4,0c0.2,1.9,0.4,4.6,0.4,8.2v6.1c0,1.7,0.8,2.5,2.5,2.5h1L1012.4,347L1012.4,347z"/>
	<path id="PATH_81" d="M1022.9,342.8c0,1,0,1.9-0.4,2.7c-0.4,1-1,1.7-1.7,1.7c-1,0-2.7-0.6-4.8-2.1c-0.6,0.8-1,1.3-1.3,1.5
		c-0.6,0.4-1.3,0.6-2.1,0.6h-1v-2.5h1.5c0.8,0,1.7-0.4,2.5-1.5c0.4-0.4,1-1.5,1.9-2.7c0.6-1,1.5-1.5,2.1-1.5c1,0,1.9,0.4,2.5,1.5
		C1022.5,341.3,1022.9,342,1022.9,342.8z M1021.6,344.3c0-0.6-0.2-1.3-0.6-2.1c-0.4-0.8-1-1.3-1.7-1.3c-0.6,0-1.3,0.6-2.1,1.9
		c0.4,0.4,1,0.8,1.9,1.3c0.8,0.4,1.7,0.6,2.1,0.6C1021.4,344.9,1021.6,344.7,1021.6,344.3z"/>
	<path id="PATH_82" d="M1035.9,347h-0.8c-0.8,0-1.3-0.2-1.7-0.4c0,0.2,0,0.4,0,0.6c0,1.9-0.6,3.8-1.9,5.7c-1,1.7-2.1,2.3-2.7,2.3
		c-1.7,0-2.9,0-4.2-0.2c-0.4,0-0.6-0.2-0.6-0.2s0.2-0.2,0.6-0.2c1.7-0.4,3.4-1.3,5-2.5c1.7-1.5,2.7-2.9,2.7-4.4
		c0-0.8-0.6-2.1-2.1-3.6l1-1.9c0-0.2,0.2-0.2,0.2-0.2l0.2,0.2c0.6,0.8,1,1.5,1.5,1.7c0.6,0.4,1.5,0.8,2.3,0.8h0.6L1035.9,347
		L1035.9,347L1035.9,347z"/>
	<path id="PATH_83" d="M1048.9,327.5c0,0.4-0.4,1.3-0.8,2.3l-5.2,1.7c-2.3,0.8-4,1.5-4.8,1.9c1.7,1.7,2.7,2.9,3.4,3.6
		c1,1.5,1.7,2.7,1.9,4.2c0,1,0,2.1-0.4,2.9c-0.6,1.9-2.9,2.7-6.5,2.7h-1v-2.5h1.3c1.7,0,2.9,0,3.6-0.2c1.5-0.4,2.3-1,2.3-2.1
		c0-1.5-1-3.1-3.4-5.2l-0.2,0.4c-0.2-0.2-0.6-0.6-1-1.3c-0.6-0.6-0.8-1.3-0.8-1.3c0-0.4,0-0.8,0.2-1.7c0.2-0.8,0.4-1.3,0.6-1.5
		s1.7-0.8,4.4-1.7C1044.5,329,1047,328.1,1048.9,327.5z"/>
</g>
<g id="G_84">
	<path id="PATH_85" d="M650.9,494.6c0.2,0.6,0.2,1.3,0.2,1.9c0,0.8-0.2,1.5-0.4,2.3c-0.6,1.5-1.7,2.7-3.8,3.6c-1.7,0.6-3.4,1-5.2,1
		s-3.4-0.4-4.6-1.3c-1.3-1-1.9-2.3-1.9-4.2c0-1,0.2-1.9,0.6-3.1c0.4-0.8,0.6-1.5,1-1.9c0.2-0.2,0.4-0.2,0.4-0.2c0.2,0,0.2,0,0.2,0.2
		c0,0,0,0.2,0,0.4c-0.6,1.3-0.8,2.5-0.8,3.6c0,1,0.4,1.9,1,2.7c0.8,1,2.3,1.5,4.2,1.5c2.1,0,4-0.4,5.5-1c1.3-0.6,2.1-1.3,2.5-2.1
		c0.2-0.2,0.2-0.6,0.2-0.8c0-0.6-0.2-1.3-0.4-2.1c-0.2-0.6-0.8-1.7-1.9-3.4l0.8-1.7c0.2-0.2,0.2-0.4,0.2-0.4s0.2,0,0.2,0.2
		C650.1,491.3,650.7,492.9,650.9,494.6z M644.9,485.4l-1.7,1.7l-1.7-1.7l1.7-1.7L644.9,485.4z"/>
	<path id="PATH_86" d="M659.5,494.8H658c-1.5,0-2.7-0.6-3.1-1.9c-0.4-0.8-0.6-2.3-0.6-4v-4c0-1.9-0.2-4.6-0.4-8.2l1.3-1.5
		c0.2-0.2,0.4-0.2,0.4,0c0.2,1.9,0.4,4.6,0.4,8.2v6.1c0,1.7,0.8,2.5,2.5,2.5h1L659.5,494.8L659.5,494.8z"/>
	<path id="PATH_87" d="M675.9,488.7l-0.8,1.7c-1.5,0-2.7,0-3.4,0.2c-0.8,0.4-2.1,0.8-3.8,1.7c-1.7,0.8-2.9,1.5-3.8,1.7
		c-1.3,0.4-2.7,0.6-4,0.6h-1.5v-2.5h1.5c1.9,0,3.6-0.4,5-1l4.8-2.1c-0.8-0.2-2.1-0.6-3.8-1.3c-1.5-0.6-2.3-0.8-2.7-0.8
		c-0.8,0-1.7,0.4-2.5,1c-0.2,0.2-0.2,0.2-0.4,0.2s-0.2,0-0.2-0.2v-0.2c0.6-2.1,1.9-2.9,3.6-2.9c0.6,0,1.5,0.2,2.3,0.6
		c1.7,0.8,2.9,1.3,3.8,1.7c1.5,0.4,3.1,0.8,5,0.8c0.4,0,0.6,0,0.6,0.2C676.1,488.3,676.1,488.5,675.9,488.7z M669,499l-1.7,1.7
		l-1.7-1.7l1.7-1.7L669,499z"/>
	<path id="PATH_88" d="M689.1,494.8h-0.8c-0.8,0-1.3-0.2-1.7-0.4c0,0.2,0,0.4,0,0.6c0,1.9-0.6,3.8-1.9,5.7c-1,1.7-2.1,2.3-2.7,2.3
		c-1.7,0-2.9,0-4.2-0.2c-0.4,0-0.6-0.2-0.6-0.2s0.2-0.2,0.6-0.2c1.7-0.4,3.4-1.3,5-2.5c1.7-1.5,2.7-2.9,2.7-4.4
		c0-0.8-0.6-2.1-2.1-3.6l1-1.9c0-0.2,0.2-0.2,0.2-0.2l0.2,0.2c0.6,0.8,1,1.5,1.5,1.7c0.6,0.4,1.5,0.8,2.3,0.8h0.6L689.1,494.8
		L689.1,494.8L689.1,494.8z"/>
	<path id="PATH_89" d="M699.4,494.8h-1.5c-1.9,0-3.1-0.6-4-1.9c-0.6,1.3-2.1,1.9-4.4,1.9h-1.3v-2.5h1.9c2.1,0,3.1-0.8,3.4-2.3
		c0-0.6,0.2-1,0.4-1s0.4,0.4,0.4,1c0.2,1.5,1.3,2.3,3.1,2.3h1.9L699.4,494.8L699.4,494.8z M692.5,499.4l-1.7,1.7l-1.7-1.7l1.7-1.7
		L692.5,499.4z M696.2,499.4l-1.7,1.7l-1.7-1.7l1.7-1.7L696.2,499.4z"/>
	<path id="PATH_90" d="M715.9,490.4c0,1.3-0.2,2.3-0.8,3.1c-0.6,0.8-1.7,1.5-2.7,1.5c-1.5,0-2.3-0.6-2.9-1.7
		c-0.8,1.3-1.7,1.7-2.9,1.7c-1.5,0-2.5-0.6-3.1-1.7c-0.8,1.3-1.9,1.7-3.4,1.7h-1.5v-2.5h1.7c1.5,0,2.5-0.8,2.7-2.5
		c0-0.4,0.2-0.6,0.4-0.6s0.2,0.2,0.4,0.6c0.2,1.7,1,2.5,2.7,2.5c0.8,0,1.7-0.2,2.1-0.6c0.2-0.4,0.4-0.8,0.6-1.7
		c0-0.4,0.2-0.6,0.4-0.6s0.2,0.2,0.4,0.6c0.2,1.7,1,2.5,2.5,2.5c1.7,0,2.3-0.4,2.3-1s-0.4-1.5-1.3-2.3l1-1.9
		c0.2-0.2,0.2-0.4,0.4-0.4s0.2,0.2,0.4,0.4C715.7,488.3,715.9,489.4,715.9,490.4z"/>
</g>
<g id="G_91">
	<path id="PATH_92" d="M827.5,581.2h-0.8c-1,0-1.9-0.2-2.3-0.6c-0.6-0.4-1-1.3-1-2.1c-2.3,2.1-5.9,3.1-10.7,3.1
		c-5,0-7.5-1.5-7.5-4.6c0-1,0.4-2.1,1.3-3.1c0.2-0.2,0.2-0.2,0.4-0.2s0.2,0,0.2,0.2c0,0,0,0.2,0,0.4c-0.2,0.6-0.4,1.3-0.4,1.9
		c0,2.1,2.3,3.1,6.9,3.1c5.2,0,8.8-1,10.5-3.4c0.4-0.4,0.6-0.6,0.8-0.6s0.2,0.2,0.2,0.4s0,0.4-0.2,0.8c0,0.4-0.2,0.6-0.2,0.8
		c0,1,0.8,1.7,2.3,1.7h0.8v2.1L827.5,581.2L827.5,581.2z M814.5,569l-1.7,1.7l-1.7-1.7l1.7-1.7L814.5,569z M818.1,569l-1.7,1.7
		l-1.7-1.7l1.7-1.7L818.1,569z"/>
	<path id="PATH_93" d="M835.7,575.3v0.8c0,1.5-0.2,2.3-0.6,2.9c-1,1.5-2.7,2.1-5.5,2.1h-2.9v-2.5h2.1c3.6,0,5.5-0.6,5.9-1.7
		c0-0.2,0-0.2,0-0.4c0-0.4,0-0.6-0.2-0.8c-0.8,0.2-1.9,0.2-2.7,0.2c-1.9,0-2.9-0.8-2.9-2.5c0-1,0.2-2.3,0.8-3.4
		c0.6-1.3,1.5-1.9,2.5-1.9c0.8,0,1.7,0.6,2.3,1.7C835.2,571.3,835.7,573.2,835.7,575.3z M833.2,563.8l-1.7,1.7l-1.7-1.7l1.7-1.7
		L833.2,563.8z M834,573.4c0-0.6-0.2-1.3-0.6-1.9c-0.4-0.6-1-0.8-1.7-0.8c-0.4,0-0.8,0.2-1.3,0.4c-0.2,0.2-0.4,0.6-0.4,1
		c0,0.8,0.6,1.3,2.1,1.3C832.5,573.7,833.2,573.7,834,573.4z"/>
	<path id="PATH_94" d="M843.8,581.2h-1.5c-1.5,0-2.7-0.6-3.1-1.9c-0.4-0.8-0.6-2.3-0.6-4v-4c0-1.9-0.2-4.6-0.4-8.2l1.3-1.5
		c0.2-0.2,0.4-0.2,0.4,0c0.2,1.9,0.4,4.6,0.4,8.2v6.1c0,1.7,0.8,2.5,2.5,2.5h1L843.8,581.2L843.8,581.2z"/>
	<path id="PATH_95" d="M848.9,577c0,2.7-1.5,4.2-4.2,4.2H843v-2.5h1.5c2.1,0,3.1-0.4,3.1-1s-0.4-1.5-1.5-2.5l0.8-2.1
		c0-0.2,0.2-0.2,0.2-0.2s0.2,0.2,0.4,0.4C848.5,574.3,848.9,575.5,848.9,577z M848.2,585.8l-1.7,1.7l-1.7-1.7l1.7-1.7L848.2,585.8z"
		/>
</g>
<g id="G_96">
	<path id="PATH_97" d="M969.4,616.4h-0.8c-1,0-1.9-0.2-2.3-0.6c-0.6-0.4-1-1.3-1-2.1c-2.3,2.1-5.9,3.1-10.7,3.1
		c-5,0-7.5-1.5-7.5-4.6c0-1,0.4-2.1,1.3-3.1c0.2-0.2,0.2-0.2,0.4-0.2s0.2,0,0.2,0.2c0,0,0,0.2,0,0.4c-0.2,0.6-0.4,1.3-0.4,1.9
		c0,2.1,2.3,3.1,6.9,3.1c5.2,0,8.8-1,10.5-3.4c0.4-0.4,0.6-0.6,0.8-0.6s0.2,0.2,0.2,0.4s0,0.4-0.2,0.8c0,0.4-0.2,0.6-0.2,0.8
		c0,1,0.8,1.7,2.3,1.7h0.8v2.1L969.4,616.4L969.4,616.4z M956.4,604.3l-1.7,1.7l-1.7-1.7l1.7-1.7L956.4,604.3z M960,604.3l-1.7,1.7
		l-1.7-1.7l1.7-1.7L960,604.3z"/>
	<path id="PATH_98" d="M977.6,610.6v0.8c0,1.5-0.2,2.3-0.6,2.9c-1,1.5-2.7,2.1-5.5,2.1h-2.9v-2.5h2.1c3.6,0,5.5-0.6,5.9-1.7
		c0-0.2,0-0.2,0-0.4c0-0.4,0-0.6-0.2-0.8c-0.8,0.2-1.9,0.2-2.7,0.2c-1.9,0-2.9-0.8-2.9-2.5c0-1,0.2-2.3,0.8-3.4
		c0.6-1.3,1.5-1.9,2.5-1.9c0.8,0,1.7,0.6,2.3,1.7C977.2,606.6,977.6,608.5,977.6,610.6z M975.1,599l-1.7,1.7l-1.7-1.7l1.7-1.7
		L975.1,599z M976.1,608.7c0-0.6-0.2-1.3-0.6-1.9c-0.4-0.6-1-0.8-1.7-0.8c-0.4,0-0.8,0.2-1.3,0.4c-0.2,0.2-0.4,0.6-0.4,1
		c0,0.8,0.6,1.3,2.1,1.3C974.7,608.9,975.3,608.9,976.1,608.7z"/>
	<path id="PATH_99" d="M990.6,616.4h-0.8c-0.8,0-1.3-0.2-1.7-0.4c0,0.2,0,0.4,0,0.6c0,1.9-0.6,3.8-1.9,5.7c-1,1.7-2.1,2.3-2.7,2.3
		c-1.7,0-2.9,0-4.2-0.2c-0.4,0-0.6-0.2-0.6-0.2s0.2-0.2,0.6-0.2c1.7-0.4,3.4-1.3,5-2.5c1.7-1.5,2.7-2.9,2.7-4.4
		c0-0.8-0.6-2.1-2.1-3.6l1-1.9c0-0.2,0.2-0.2,0.2-0.2l0.2,0.2c0.6,0.8,1,1.5,1.5,1.7c0.6,0.4,1.5,0.8,2.3,0.8h0.6L990.6,616.4
		L990.6,616.4L990.6,616.4z"/>
	<path id="PATH_100" d="M1000.9,616.4h-1.7c-1.9,0-3.1-0.6-4-1.9c-0.6,1.3-2.1,1.9-4.4,1.9h-1.3v-2.5h1.9c2.1,0,3.1-0.8,3.4-2.3
		c0-0.6,0.2-1,0.4-1s0.4,0.4,0.4,1c0.2,1.5,1.3,2.3,3.1,2.3h1.9v2.5H1000.9z M994,621l-1.7,1.7l-1.7-1.7l1.7-1.7L994,621z
		 M997.7,621l-1.7,1.7l-1.7-1.7l1.7-1.7L997.7,621z"/>
	<path id="PATH_101" d="M1017.2,610.3l-0.8,1.7c-1.5,0-2.7,0-3.4,0.2c-0.8,0.4-2.1,0.8-3.8,1.7c-1.7,0.8-2.9,1.5-3.8,1.7
		c-1.3,0.4-2.7,0.6-4,0.6h-1.5v-2.5h1.7c1.9,0,3.6-0.4,5-1l4.8-2.1c-0.8-0.2-2.1-0.6-3.8-1.3c-1.5-0.6-2.3-0.8-2.7-0.8
		c-0.8,0-1.7,0.4-2.5,1c-0.2,0.2-0.2,0.2-0.4,0.2s-0.2,0-0.2-0.2v-0.2c0.6-2.1,1.9-2.9,3.6-2.9c0.6,0,1.5,0.2,2.3,0.6
		c1.7,0.8,2.9,1.3,3.8,1.7c1.5,0.4,3.1,0.8,5,0.8c0.4,0,0.6,0,0.6,0.2C1017.7,609.9,1017.4,610.1,1017.2,610.3z M1010.5,620.6
		l-1.7,1.7l-1.7-1.7l1.7-1.7L1010.5,620.6z"/>
</g>
<g id="G_103">
	<path id="PATH_104" d="M986,786.5c-1,1-2.1,1.7-3.4,1.9c-1,0.2-2.3,0.4-3.8,0.4c-2.9,0-5.2-0.6-6.7-2.1c-1-1-1.7-2.5-1.7-4.2
		c0-4,2.7-7.1,8-9.2c-2.3-0.4-3.8-0.6-4.8-0.6c-0.4,0-1,0.2-1.9,0.8c-0.8,0.6-1.3,0.8-1,0.8c-0.2,0-0.2-0.2-0.2-0.6
		c0-0.6,0.4-1.3,0.8-1.9c0.6-1,1.7-1.7,2.9-1.7c1,0,2.5,0.2,4.4,0.6c1.9,0.4,3.6,0.6,4.6,0.6h1.5c0.4,0,0.6,0,0.6,0.2
		c0,0,0,0.2-0.2,0.4l-0.6,1.7c-1,0-2.1,0.2-3.6,0.4c-2.1,0.4-4.2,1.3-5.9,2.3c-2.3,1.5-3.4,3.1-3.4,5s0.8,3.1,2.7,4.2
		c1.5,0.6,3.1,1,5.2,1s4-0.2,5.7-0.6c0.2,0,0.2,0,0.4,0s0.2,0,0.2,0.2C986.2,786.3,986.2,786.5,986,786.5z M980.5,781l-1.7,1.7
		l-1.7-1.7l1.7-1.7L980.5,781z"/>
	<path id="PATH_105" d="M998.4,779.5h-2.3c-0.2,2.9-1.3,5.2-3.4,7.3c-0.6,0.6-1,1-1.3,1c-1,0-2.5-0.2-4-0.4c-0.4,0-0.8-0.2-0.8-0.2
		s0.2-0.2,0.8-0.4c1.7-0.4,3.4-1.5,4.8-2.5c0.6-0.6,1.3-1,1.7-1.9c0.6-0.8,1-1.7,1-2.3v-0.6h-2.7c-2.1,0-2.9-0.8-2.9-2.5
		c0-1,0.2-2.1,0.8-3.4c0.6-1.3,1.5-2.1,2.3-2.1c1,0,1.9,0.6,2.5,2.1c0.4,1,0.8,2.1,0.8,3.4h2.3v2.5L998.4,779.5L998.4,779.5z
		 M994.6,777.2c0-0.6-0.2-1.3-0.6-1.9c-0.4-0.8-1-1-1.7-1c-0.4,0-0.8,0.2-1,0.4s-0.4,0.6-0.4,1.3c0,1,0.8,1.5,2.5,1.5
		C993.5,777.2,994,777.2,994.6,777.2z"/>
	<path id="PATH_106" d="M1008.6,779.5h-1.7c-1.9,0-3.1-0.6-4-1.9c-0.6,1.3-2.1,1.9-4.4,1.9h-1.3V777h1.9c2.1,0,3.1-0.8,3.4-2.3
		c0-0.6,0.2-1,0.4-1s0.4,0.4,0.4,1c0.2,1.5,1.3,2.3,3.1,2.3h1.9v2.5H1008.6z M1004.4,768.9l-1.7,1.7l-1.7-1.7l1.7-1.7L1004.4,768.9z
		"/>
	<path id="PATH_107" d="M1021.6,779.5h-1c-0.8,0-1.7,0.2-2.3,0.4c-1,0.4-1.7,1-1.7,2.1c0,1.3,0.8,2.3,2.5,3.4l-1,2.1
		c-1.9-0.6-3.6-1.7-4.8-2.9c-1.7-1.5-2.5-3.4-2.5-5.2h-2.9v-2.5h2.7c0-1.7,0.4-3.4,1.3-5.5c0.8-1.9,1.5-2.7,1.9-2.7s1,0.8,1.7,2.7
		c0.6,1.7,0.8,2.7,0.8,3.4c0,2.9-1.5,4.4-4.4,4.4c0.2,0.8,0.6,1.7,1.3,2.5c0.6,0.8,1.5,1.5,2.3,1.9c0-0.2,0-0.6,0-0.8
		c0-1.5,0.4-2.7,1-3.8c1-1.5,2.3-2.3,4.2-2.3h0.8v2.9h0.1V779.5z M1015.4,776.2c0-0.4-0.2-1.3-0.6-2.3c-0.4-1.3-0.8-1.7-1.3-1.7
		c-0.2,0-0.6,0.4-1,1.5s-0.6,2.3-0.6,3.6C1014.1,777.2,1015.4,776.8,1015.4,776.2z"/>
	<path id="PATH_108" d="M1034.6,760.3c0,0.4-0.4,1.3-0.8,2.3l-5.2,1.7c-2.3,0.8-4,1.5-4.8,1.9c1.7,1.7,2.7,2.9,3.4,3.6
		c1,1.5,1.7,2.7,1.9,4.2c0,1,0,2.1-0.4,2.9c-0.6,1.9-2.9,2.7-6.5,2.7h-1.3V777h1.3c1.7,0,2.9,0,3.6-0.2c1.5-0.4,2.3-1,2.3-2.1
		c0-1.5-1-3.1-3.4-5.2l-0.2,0.4c-0.2-0.2-0.6-0.6-1-1.3c-0.6-0.6-0.8-1.3-0.8-1.3c0-0.4,0-0.8,0.2-1.7c0.2-0.8,0.4-1.3,0.6-1.5
		c0.2-0.2,1.7-0.8,4.4-1.7C1030.2,761.5,1032.8,760.7,1034.6,760.3z"/>
</g>
<g id="G_109">
	<path id="PATH_110" d="M1086.4,782.1h-4.8c-0.6,0-1.3,0-1.7,0.2c-0.8,0.2-1,0.6-1,1c0,0.2,1,0.4,2.9,0.8c1.9,0.4,2.9,0.8,2.9,1.3
		c0,1.7-0.4,2.9-1.5,3.8c-1.7,1.5-4.4,2.1-8.4,2.1c-4.8,0-7.3-1.9-7.3-5.5c0-0.8,0.2-1.7,0.6-2.7s0.8-1.9,1.3-2.5
		c0.2-0.2,0.4-0.4,0.6-0.4s0.2,0,0.2,0.2s0,0.4-0.2,0.6c-0.6,1.3-1,2.5-1,3.8c0,1.5,0.6,2.5,2.1,3.1c1,0.6,2.3,0.8,4,0.8
		s3.1,0,4.6-0.2c2.5-0.4,3.8-0.8,3.8-1.7c0-0.4-0.6-0.6-1.7-0.8c-1.7-0.2-2.7-0.4-3.1-0.6c-1-0.2-1.7-0.8-1.7-1.5
		c0-0.4,0.2-1,0.8-1.9c0.4-0.6,0.8-1,1.5-1.5c1-0.8,2.3-1.3,4.2-1.3h2.9L1086.4,782.1L1086.4,782.1z"/>
	<path id="PATH_111" d="M1091.5,778.1c0,2.7-1.5,4.2-4.2,4.2h-1.7v-2.5h1.5c2.1,0,3.1-0.4,3.1-1s-0.4-1.5-1.5-2.5l0.8-2.1
		c0-0.2,0.2-0.2,0.2-0.2s0.2,0.2,0.4,0.4C1091,775.4,1091.5,776.6,1091.5,778.1z M1090.8,786.7l-1.7,1.7l-1.7-1.7l1.7-1.7
		L1090.8,786.7z"/>
	<path id="PATH_112" d="M1104.5,782.1h-2.3c-0.2,2.9-1.3,5.2-3.4,7.3c-0.6,0.6-1,1-1.3,1c-1,0-2.5-0.2-4-0.4c-0.4,0-0.8-0.2-0.8-0.2
		s0.2-0.2,0.8-0.4c1.7-0.4,3.4-1.5,4.8-2.5c0.6-0.6,1.3-1,1.7-1.9c0.6-0.8,1-1.7,1-2.3v-0.6h-2.7c-2.1,0-2.9-0.8-2.9-2.5
		c0-1,0.2-2.1,0.8-3.4c0.6-1.3,1.5-2.1,2.3-2.1c1,0,1.9,0.6,2.5,2.1c0.4,1,0.8,2.1,0.8,3.4h2.3v2.5L1104.5,782.1L1104.5,782.1z
		 M1100.7,779.8c0-0.6-0.2-1.3-0.6-1.9c-0.4-0.8-1-1-1.7-1c-0.4,0-0.8,0.2-1,0.4s-0.4,0.6-0.4,1.3c0,1,0.8,1.5,2.5,1.5
		C1099.4,779.8,1100.1,779.8,1100.7,779.8z"/>
	<path id="PATH_113" d="M1114.7,782.1h-1.7c-1.9,0-3.1-0.6-4-1.9c-0.6,1.3-2.1,1.9-4.4,1.9h-1.3v-2.5h1.9c2.1,0,3.1-0.8,3.4-2.3
		c0-0.6,0.2-1,0.4-1s0.4,0.4,0.4,1c0.2,1.5,1.3,2.3,3.1,2.3h1.9v2.5H1114.7z M1110.5,771.4l-1.7,1.7l-1.7-1.7l1.7-1.7L1110.5,771.4z
		"/>
	<path id="PATH_114" d="M1131.1,776l-0.8,1.7c-1.5,0-2.7,0-3.4,0.2c-0.8,0.4-2.1,0.8-3.8,1.7c-1.7,0.8-2.9,1.5-3.8,1.7
		c-1.3,0.4-2.7,0.6-4,0.6h-1.5v-2.5h1.7c1.9,0,3.6-0.4,5-1l4.8-2.1c-0.8-0.2-2.1-0.6-3.8-1.3c-1.5-0.6-2.3-0.8-2.7-0.8
		c-0.8,0-1.7,0.4-2.5,1c-0.2,0.2-0.2,0.2-0.4,0.2c-0.2,0-0.2,0-0.2-0.2V775c0.6-2.1,1.9-2.9,3.6-2.9c0.6,0,1.5,0.2,2.3,0.6
		c1.7,0.8,2.9,1.3,3.8,1.7c1.5,0.4,3.1,0.8,5,0.8c0.4,0,0.6,0,0.6,0.2C1131.3,775.6,1131.3,775.8,1131.1,776z M1124.2,786.5
		l-1.7,1.7l-1.7-1.7l1.7-1.7L1124.2,786.5z"/>
	<path id="PATH_115" d="M1150.2,782.3c0,2.1-0.6,4-1.9,5.9c-1,1.5-2.1,2.3-2.7,2.3c-1.7,0-2.9,0-4.2-0.2c-0.4,0-0.6-0.2-0.6-0.2
		s0.2-0.2,0.6-0.2c1.7-0.4,3.4-1.3,5-2.5c1.7-1.5,2.7-2.9,2.7-4.4c0-0.8-0.6-2.1-2.1-3.6l1-1.9c0-0.2,0.2-0.2,0.2-0.2l0.2,0.2
		c0.4,0.6,1,1.5,1.3,2.5C1150,780.6,1150.2,781.6,1150.2,782.3z"/>
	<path id="PATH_116" d="M1158.3,782.1h-1.3c-1.5,0-2.7-0.6-3.1-1.9c-0.4-0.8-0.6-2.3-0.6-4v-4c0-1.9-0.2-4.6-0.4-8.2l1.3-1.5
		c0.2-0.2,0.4-0.2,0.4,0c0.2,1.9,0.4,4.6,0.4,8.2v6.1c0,1.7,0.8,2.5,2.5,2.5h1v2.7h-0.2V782.1z"/>
	<path id="PATH_117" d="M1163.4,778.1c0,2.7-1.5,4.2-4.2,4.2h-1.7v-2.5h1.5c2.1,0,3.1-0.4,3.1-1s-0.4-1.5-1.5-2.5l0.8-2.1
		c0-0.2,0.2-0.2,0.2-0.2s0.2,0.2,0.4,0.4C1163,775.4,1163.4,776.6,1163.4,778.1z M1162.7,786.7l-1.7,1.7l-1.7-1.7l1.7-1.7
		L1162.7,786.7z"/>
	<path id="PATH_118" d="M1176.2,777.9c0,2.9-1.9,4.4-5.9,4.4c-1.5,0-2.5-0.2-3.1-0.6c-0.8-0.4-1.3-1.5-1.3-2.7
		c0-0.6,0.2-1.3,0.4-1.9c0.2-0.2,0.2-0.4,0.4-0.4c0.2,0,0.2,0.2,0.2,0.6c0,0.2,0,0.4,0,0.6c0,0.8,0.4,1.5,1.3,1.7
		c0.4,0.2,1.3,0.2,2.3,0.2c3.1,0,4.6-0.4,4.6-1.5c0-1.5-1.9-3.6-5.5-6.1l0.6-2.1c0-0.2,0.2-0.2,0.2-0.2s0.2,0,0.4,0.2
		C1174.5,772.8,1176.2,775.4,1176.2,777.9z"/>
	<path id="PATH_119" d="M1187.1,781.2c0,3.1-1,5.9-3.1,8c-0.6,0.6-1,1-1.3,1c-1.3,0-2.5-0.2-4-0.4c-0.6,0-0.8-0.2-0.8-0.2
		s0.2-0.2,0.8-0.4c1.7-0.4,3.4-1.5,4.8-2.7c0.6-0.6,1.3-1,1.7-1.9c0.6-0.8,1-1.7,1-2.3v-0.2h-2.7c-1.9,0-2.9-0.8-2.9-2.3
		c0-1,0.2-2.1,0.8-3.4c0.6-1.3,1.5-2.1,2.3-2.1c1.3,0,2.3,0.8,2.9,2.7C1186.9,778.3,1187.1,779.8,1187.1,781.2z M1185.6,779.5
		c0-0.6-0.2-1.3-0.6-1.9c-0.4-0.6-1-1-1.7-1c-0.4,0-0.8,0.2-1,0.4s-0.4,0.6-0.4,1c0,1,0.6,1.5,2.1,1.5
		C1184.1,779.8,1184.8,779.8,1185.6,779.5z"/>
	<path id="PATH_120" d="M1197.6,782.3c0,2.1-0.6,4-1.9,5.9c-1,1.5-2.1,2.3-2.7,2.3c-1.7,0-2.9,0-4.2-0.2c-0.4,0-0.6-0.2-0.6-0.2
		s0.2-0.2,0.6-0.2c1.7-0.4,3.4-1.3,5-2.5c1.7-1.5,2.7-2.9,2.7-4.4c0-0.8-0.6-2.1-2.1-3.6l1-1.9c0-0.2,0.2-0.2,0.2-0.2l0.2,0.2
		c0.4,0.6,1,1.5,1.3,2.5C1197.3,780.6,1197.6,781.6,1197.6,782.3z"/>
</g>
<g id="G_121">
	<path id="PATH_122" d="M1183.3,670.7c0.2,0.6,0.2,1.3,0.2,1.9c0,0.8-0.2,1.5-0.4,2.3c-0.6,1.5-1.7,2.7-3.8,3.6
		c-1.7,0.6-3.4,1-5.2,1s-3.4-0.4-4.6-1.3c-1.3-1-1.9-2.3-1.9-4.2c0-1,0.2-1.9,0.6-3.1c0.4-0.8,0.6-1.5,1-1.9
		c0.2-0.2,0.4-0.2,0.4-0.2c0.2,0,0.2,0,0.2,0.2c0,0,0,0.2,0,0.4c-0.6,1.3-0.8,2.5-0.8,3.6s0.4,1.9,1,2.7c0.8,1,2.3,1.5,4.2,1.5
		c2.1,0,4-0.4,5.5-1c1.3-0.6,2.1-1.3,2.5-2.1c0.2-0.2,0.2-0.6,0.2-0.8c0-0.6-0.2-1.3-0.4-2.1c-0.2-0.6-0.8-1.7-1.9-3.4l0.8-1.7
		c0.2-0.2,0.2-0.4,0.2-0.4l0.2,0.2C1182.2,667.6,1182.9,669.1,1183.3,670.7z M1177,661.7l-1.7,1.7l-1.7-1.7l1.7-1.7L1177,661.7z"/>
	<path id="PATH_123" d="M1191.7,671.1h-1.5c-1.5,0-2.7-0.6-3.1-1.9c-0.4-0.8-0.6-2.3-0.6-4v-4c0-1.9-0.2-4.6-0.4-8.2l1.3-1.5
		c0.2-0.2,0.4-0.2,0.4,0c0.2,1.9,0.4,4.6,0.4,8.2v6.1c0,1.7,0.8,2.5,2.5,2.5h1L1191.7,671.1L1191.7,671.1z"/>
	<path id="PATH_124" d="M1205.9,671.1h-1.3c-1,0-2.3-0.4-3.4-1.5c-0.8-0.6-1.7-1.9-2.7-3.4c-0.2,3.1-2.3,4.8-6.5,4.8h-1.3v-2.5h0.8
		c3.8,0,5.9-0.8,5.9-2.3c0-1.3-0.8-2.7-2.7-4.4c-0.8-0.8-1.7-1.5-2.7-2.3c0-0.8,0.2-1.5,0.6-2.1c0.2-0.2,4-1.5,11.5-3.8
		c0,0.2-0.2,1-0.6,2.3c-1.9,0.4-5,1.5-9.2,2.7c2.1,2.3,4.2,4.4,5.7,6.3c1,1,1.7,1.9,2.3,2.3c0.8,0.6,1.9,1,2.9,1h0.8v2.7h-0.1V671.1
		z M1203.6,650.8l-0.4,1.5l-10.3,3.4l0.4-1.5L1203.6,650.8z"/>
	<path id="PATH_125" d="M1211,667c0,2.7-1.5,4.2-4.2,4.2h-1.7v-2.5h1.5c2.1,0,3.1-0.4,3.1-1s-0.4-1.5-1.5-2.5l0.8-2.1
		c0-0.2,0.2-0.2,0.2-0.2s0.2,0.2,0.4,0.4C1210.6,664.2,1211,665.5,1211,667z M1209.3,675.8l-1.7,1.7l-1.7-1.7l1.7-1.7L1209.3,675.8z
		 M1212.9,675.8l-1.7,1.7l-1.7-1.7l1.7-1.7L1212.9,675.8z"/>
	<path id="PATH_126" d="M1223.6,671.1c0,2.1-0.6,4-1.9,5.9c-1,1.5-2.1,2.3-2.7,2.3c-1.7,0-2.9,0-4.2-0.2c-0.4,0-0.6-0.2-0.6-0.2
		s0.2-0.2,0.6-0.2c1.7-0.4,3.4-1.3,5-2.5c1.7-1.5,2.7-2.9,2.7-4.4c0-0.8-0.6-2.1-2.1-3.6l1-1.9c0-0.2,0.2-0.2,0.2-0.2l0.2,0.2
		c0.4,0.6,1,1.5,1.3,2.5C1223.3,669.7,1223.6,670.5,1223.6,671.1z"/>
</g>
<g id="G_127">
	<path id="PATH_128" d="M1028.1,688.3c0,2.9-1.9,4.4-5.9,4.4c-1.5,0-2.5-0.2-3.1-0.6c-0.8-0.4-1.3-1.5-1.3-2.7
		c0-0.6,0.2-1.3,0.4-1.9c0.2-0.2,0.2-0.4,0.4-0.4s0.2,0.2,0.2,0.6c0,0.2,0,0.4,0,0.6c0,0.8,0.4,1.5,1.3,1.7c0.4,0.2,1.3,0.2,2.3,0.2
		c3.1,0,4.6-0.4,4.6-1.5c0-1.5-1.9-3.6-5.5-6.1l0.6-2.1c0-0.2,0.2-0.2,0.2-0.2s0.2,0,0.4,0.2C1026.5,683.3,1028.1,686,1028.1,688.3z
		"/>
	<path id="PATH_129" d="M1036.5,692.7h-1.5c-1.5,0-2.7-0.6-3.1-1.9c-0.4-0.8-0.6-2.3-0.6-4v-4c0-1.9-0.2-4.6-0.4-8.2l1.3-1.5
		c0.2-0.2,0.4-0.2,0.4,0c0.2,1.9,0.4,4.6,0.4,8.2v6.1c0,1.7,0.8,2.5,2.5,2.5h1L1036.5,692.7L1036.5,692.7z"/>
	<path id="PATH_130" d="M1041.6,688.5c0,2.7-1.5,4.2-4.2,4.2h-1.7v-2.5h1.5c2.1,0,3.1-0.4,3.1-1s-0.4-1.5-1.5-2.5l0.8-2.1
		c0-0.2,0.2-0.2,0.2-0.2s0.2,0.2,0.4,0.4C1041.1,685.8,1041.6,687.1,1041.6,688.5z M1040.7,697.4l-1.7,1.7l-1.7-1.7l1.7-1.7
		L1040.7,697.4z"/>
	<path id="PATH_131" d="M1049.9,670.3c-0.8,0.8-2.1,1-3.4,1c-0.2,0-0.4,0-0.8,0s-0.6,0-0.8,0s-0.4,0.2-0.6,0.4s-0.4,0.4-0.4,0.4
		c-0.2,0-0.2-0.2-0.2-0.4s0.2-0.6,0.4-1c0.2-0.6,0.4-0.8,0.6-0.8s0.6,0,1.3,0.2c0.6,0.2,1,0.2,1.3,0.2c1.3,0,2.1,0,2.7-0.2
		c0.4,0,0.6-0.2,0.6-0.2h0.2C1050.4,669.9,1050.2,670.1,1049.9,670.3z M1048.5,690c0,0.8-0.2,1.7-0.6,2.3c-0.2,0.4-0.4,0.6-0.4,0.6
		s-0.2-0.2-0.2-0.8c0-2.5-0.4-8.4-1.3-17.8l1.7-1.7c0.2-0.2,0.2-0.2,0.2-0.2s0,0.2,0,0.4C1048.5,675.8,1048.5,681.4,1048.5,690z"/>
	<path id="PATH_132" d="M1060.4,693c0,2.1-0.6,4-1.9,5.9c-1,1.5-2.1,2.3-2.7,2.3c-1.7,0-2.9,0-4.2-0.2c-0.4,0-0.6-0.2-0.6-0.2
		s0.2-0.2,0.6-0.2c1.7-0.4,3.4-1.3,5-2.5c1.7-1.5,2.7-2.9,2.7-4.4c0-0.8-0.6-2.1-2.1-3.6l1-1.9c0-0.2,0.2-0.2,0.2-0.2l0.2,0.2
		c0.4,0.6,1,1.5,1.3,2.5C1060.2,691.3,1060.4,692.1,1060.4,693z"/>
	<path id="PATH_133" d="M1068.6,692.7h-1.5c-1.5,0-2.7-0.6-3.1-1.9c-0.4-0.8-0.6-2.3-0.6-4v-4c0-1.9-0.2-4.6-0.4-8.2l1.3-1.5
		c0.2-0.2,0.4-0.2,0.4,0c0.2,1.9,0.4,4.6,0.4,8.2v6.1c0,1.7,0.8,2.5,2.5,2.5h1L1068.6,692.7L1068.6,692.7z"/>
	<path id="PATH_134" d="M1079.1,692.7h-1.7c-1.9,0-3.1-0.6-4-1.9c-0.6,1.3-2.1,1.9-4.4,1.9h-1.3v-2.5h1.9c2.1,0,3.1-0.8,3.4-2.3
		c0-0.6,0.2-1,0.4-1s0.4,0.4,0.4,1c0.2,1.5,1.3,2.3,3.1,2.3h1.9v2.5H1079.1z M1074.5,697.4l-1.7,1.7l-1.7-1.7l1.7-1.7L1074.5,697.4z
		"/>
	<path id="PATH_135" d="M1083.9,688.5c0,2.7-1.5,4.2-4.2,4.2h-1.7v-2.5h1.5c2.1,0,3.1-0.4,3.1-1s-0.4-1.5-1.5-2.5l0.8-2.1
		c0-0.2,0.2-0.2,0.2-0.2s0.2,0.2,0.4,0.4C1083.5,685.8,1083.9,687.1,1083.9,688.5z M1083.9,678.9l-1.7,1.7l-1.7-1.7l1.7-1.7
		L1083.9,678.9z"/>
	<path id="PATH_136" d="M1088.9,690c0,0.8-0.2,1.7-0.6,2.3c-0.2,0.4-0.4,0.6-0.4,0.6s-0.2-0.2-0.2-0.8c0-2.5-0.4-8.4-1.3-17.8
		l1.7-1.7c0.2-0.2,0.2-0.2,0.2-0.2s0,0.2,0,0.4C1088.9,675.8,1088.9,681.4,1088.9,690z"/>
</g>
<g id="G_137">
	<path id="PATH_138" d="M830.2,777.4c0,1.5-0.4,2.7-1.5,3.4c-0.6,0.4-1.9,0.8-3.8,1c-2.1,0.4-4.2,0.6-6.5,0.6
		c-5.5,0-8.4-1.5-8.4-4.6c0-1,0.4-2.1,1.3-3.1c0.2-0.2,0.2-0.4,0.4-0.4s0.2,0,0.2,0.2c0,0,0,0.2,0,0.4c-0.2,0.6-0.4,1.3-0.4,1.9
		c0,2.1,2.7,3.1,8,3.1c2.5,0,4.8-0.2,6.5-0.4c2.1-0.4,2.9-0.8,2.9-1.5c0-0.4-0.4-1.3-1.5-2.5l1-1.9c0.2-0.2,0.2-0.2,0.4,0
		C829.8,775.1,830.2,776.4,830.2,777.4z M822,786.9l-1.7,1.7l-1.7-1.7l1.7-1.7L822,786.9z"/>
	<path id="PATH_139" d="M838.6,782.1h-1.5c-1.5,0-2.7-0.6-3.1-1.9c-0.4-0.8-0.6-2.3-0.6-4v-4c0-1.9-0.2-4.6-0.4-8.2l1.3-1.5
		c0.2-0.2,0.4-0.2,0.4,0c0.2,1.9,0.4,4.6,0.4,8.2v6.1c0,1.7,0.8,2.5,2.5,2.5h1L838.6,782.1L838.6,782.1z"/>
	<path id="PATH_140" d="M843.6,778.1c0,2.7-1.5,4.2-4.2,4.2h-1.7v-2.5h1.5c2.1,0,3.1-0.4,3.1-1s-0.4-1.5-1.5-2.5l0.8-2.1
		c0-0.2,0.2-0.2,0.2-0.2s0.2,0.2,0.4,0.4C843,775.4,843.6,776.6,843.6,778.1z M842,786.7l-1.7,1.7l-1.7-1.7l1.7-1.7L842,786.7z
		 M845.5,786.7l-1.7,1.7l-1.7-1.7l1.7-1.7L845.5,786.7z"/>
	<path id="PATH_141" d="M856.2,782.3c0,2.1-0.6,4-1.9,5.9c-1,1.5-2.1,2.3-2.7,2.3c-1.7,0-2.9,0-4.2-0.2c-0.4,0-0.6-0.2-0.6-0.2
		s0.2-0.2,0.6-0.2c1.7-0.4,3.4-1.3,5-2.5c1.7-1.5,2.7-2.9,2.7-4.4c0-0.8-0.6-2.1-2.1-3.6l1-1.9c0-0.2,0.2-0.2,0.2-0.2l0.2,0.2
		c0.4,0.6,1,1.5,1.3,2.5C855.8,780.6,856.2,781.6,856.2,782.3z"/>
	<path id="PATH_142" d="M864.4,782.1h-1.5c-1.5,0-2.7-0.6-3.1-1.9c-0.4-0.8-0.6-2.3-0.6-4v-4c0-1.9-0.2-4.6-0.4-8.2l1.3-1.5
		c0.2-0.2,0.4-0.2,0.4,0c0.2,1.9,0.4,4.6,0.4,8.2v6.1c0,1.7,0.8,2.5,2.5,2.5h1L864.4,782.1L864.4,782.1z"/>
	<path id="PATH_143" d="M872.6,776.2v0.8c0,1.5-0.2,2.3-0.6,2.9c-1,1.5-2.7,2.1-5.5,2.1h-2.9v-2.5h2.1c3.6,0,5.5-0.6,5.9-1.7
		c0-0.2,0-0.2,0-0.4c0-0.4,0-0.6-0.2-0.8c-0.8,0.2-1.9,0.2-2.7,0.2c-1.9,0-2.9-0.8-2.9-2.5c0-1,0.2-2.3,0.8-3.4
		c0.6-1.3,1.5-1.9,2.5-1.9c0.8,0,1.7,0.6,2.3,1.7C872.1,772.4,872.6,774.1,872.6,776.2z M870.1,764.7l-1.7,1.7l-1.7-1.7l1.7-1.7
		L870.1,764.7z M870.9,774.3c0-0.6-0.2-1.3-0.6-1.9c-0.4-0.6-1-0.8-1.7-0.8c-0.4,0-0.8,0.2-1.3,0.4c-0.2,0.2-0.4,0.6-0.4,1
		c0,0.8,0.6,1.3,2.1,1.3C869.6,774.7,870.3,774.5,870.9,774.3z"/>
</g>
<g id="G_144">
	<path id="PATH_145" d="M672.1,717.5h-0.8c-0.8,0-1.3-0.2-1.7-0.4c0,0.2,0,0.4,0,0.6c0,1.9-0.6,3.8-1.9,5.7c-1,1.7-2.1,2.3-2.7,2.3
		c-1.7,0-2.9,0-4.2-0.2c-0.4,0-0.6-0.2-0.6-0.2s0.2-0.2,0.6-0.2c1.7-0.4,3.4-1.3,5-2.5c1.7-1.5,2.7-2.9,2.7-4.4
		c0-0.8-0.6-2.1-2.1-3.6l1-1.9c0-0.2,0.2-0.2,0.2-0.2l0.2,0.2c0.6,0.8,1,1.5,1.5,1.7c0.6,0.4,1.5,0.8,2.3,0.8h0.6L672.1,717.5
		L672.1,717.5L672.1,717.5z"/>
	<path id="PATH_146" d="M677.2,713.3c0,2.7-1.5,4.2-4.2,4.2h-1.7V715h1.5c2.1,0,3.1-0.4,3.1-1s-0.4-1.5-1.5-2.5l0.8-2.1
		c0-0.2,0.2-0.2,0.2-0.2s0.2,0.2,0.4,0.4C676.7,710.6,677.2,711.8,677.2,713.3z M676.5,722.1l-1.7,1.7l-1.7-1.7l1.7-1.7L676.5,722.1
		z"/>
	<path id="PATH_147" d="M682,714.8c0,0.8-0.2,1.7-0.6,2.3c-0.2,0.4-0.4,0.6-0.4,0.6s-0.2-0.2-0.2-0.8c0-2.5-0.4-8.4-1.3-17.8
		l1.7-1.7c0.2-0.2,0.2-0.2,0.2-0.2s0,0.2,0,0.4C682,700.5,682,706.2,682,714.8z"/>
	<path id="PATH_148" d="M692.7,717.7c0,2.1-0.6,4-1.9,5.9c-1,1.5-2.1,2.3-2.7,2.3c-1.7,0-2.9,0-4.2-0.2c-0.4,0-0.6-0.2-0.6-0.2
		s0.2-0.2,0.6-0.2c1.7-0.4,3.4-1.3,5-2.5c1.7-1.5,2.7-2.9,2.7-4.4c0-0.8-0.6-2.1-2.1-3.6l1-1.9c0-0.2,0.2-0.2,0.2-0.2l0.2,0.2
		c0.4,0.6,1,1.5,1.3,2.5C692.5,716,692.7,716.9,692.7,717.7z"/>
</g>
<g id="G_149">
	<path id="PATH_150" d="M799.8,715h-1.5c-1.9,0-2.9-1-3.4-3.4c-1,1-1.5,1.5-1.7,1.5h-1.9c-0.6,0-1.3,0-1.9-0.2
		c-0.8-0.2-1.3-0.6-1.3-1c0-1.7,0.6-2.9,1.7-3.8c0.8-0.6,2.1-1.3,3.8-2.1l-0.4-2.1l1.5-1.7c0,0.2,0.6,2.5,1.5,6.9
		c0.2,1.3,0.6,2.3,0.8,2.7c0.4,0.6,0.8,0.8,1.7,0.8h1.5v2.3L799.8,715L799.8,715z M794.6,710.8l-0.6-3.4c-0.6,0.2-1.5,0.6-2.5,1
		c-1.3,0.6-2.1,1.3-2.1,1.5c0,0.4,0.4,0.6,1.5,0.8c0.6,0.2,1.3,0.2,1.9,0.2C793.5,711,794.2,710.8,794.6,710.8z"/>
	<path id="PATH_151" d="M810.1,715h-1.7c-1.9,0-3.1-0.6-4-1.9c-0.6,1.3-2.1,1.9-4.4,1.9h-1.3v-2.5h1.9c2.1,0,3.1-0.8,3.4-2.3
		c0-0.6,0.2-1,0.4-1s0.4,0.4,0.4,1c0.2,1.5,1.3,2.3,3.1,2.3h1.9v2.5H810.1z M803.2,719.6l-1.7,1.7l-1.7-1.7l1.7-1.7L803.2,719.6z
		 M806.7,719.6l-1.7,1.7l-1.7-1.7l1.7-1.7L806.7,719.6z"/>
	<path id="PATH_152" d="M815.1,710.8c0,2.7-1.5,4.2-4.2,4.2h-1.7v-2.5h1.5c2.1,0,3.1-0.4,3.1-1s-0.4-1.5-1.5-2.5l0.8-2.1
		c0-0.2,0.2-0.2,0.2-0.2s0.2,0.2,0.4,0.4C814.7,708.3,815.1,709.5,815.1,710.8z M814.9,702.4l-0.2,1c-1.5,0.2-3.1,0.6-4.6,1.3v-0.8
		c0.2-0.2,0.6-0.4,1.3-0.8c-0.8-0.6-1.3-1-1.3-1.5c0-0.4,0.2-1,0.8-1.7c0.6-0.8,1.3-1,1.9-1c0.8,0,1.3,0.4,1.7,1
		c0,0.2,0.2,0.4,0,0.4c0,0-0.2,0-0.4,0c-0.4-0.2-0.8-0.2-1.3-0.2c-0.2,0-0.4,0-0.8,0.2c-0.4,0.2-0.4,0.4-0.4,0.6
		c0,0.4,0.2,0.8,0.8,1c0.4,0.2,0.8,0.4,1.3,0.4s0.6,0,1-0.2l0,0c0.2,0,0.4,0,0.4,0S814.9,702.2,814.9,702.4z"/>
	<path id="PATH_153" d="M825.8,714.1c0,3.1-1,5.9-3.1,8c-0.6,0.6-1,1-1.3,1c-1.3,0-2.5-0.2-4-0.4c-0.6,0-0.8-0.2-0.8-0.2
		s0.2-0.2,0.8-0.4c1.7-0.4,3.4-1.5,4.8-2.7c0.6-0.6,1.3-1,1.7-1.9c0.6-0.8,1-1.7,1-2.3V715h-2.7c-1.9,0-2.9-0.8-2.9-2.3
		c0-1,0.2-2.1,0.8-3.4c0.6-1.3,1.5-2.1,2.3-2.1c1.3,0,2.3,0.8,2.9,2.7C825.6,711.2,825.8,712.7,825.8,714.1z M824.3,712.5
		c0-0.6-0.2-1.3-0.6-1.9c-0.4-0.6-1-1-1.7-1c-0.4,0-0.8,0.2-1,0.4c-0.4,0.4-0.4,0.6-0.4,1c0,1,0.6,1.5,2.1,1.5
		C822.9,712.7,823.5,712.7,824.3,712.5z"/>
	<path id="PATH_154" d="M836.5,715.2c0,2.1-0.6,4-1.9,5.9c-1,1.5-2.1,2.3-2.7,2.3c-1.7,0-2.9,0-4.2-0.2c-0.4,0-0.6-0.2-0.6-0.2
		s0.2-0.2,0.6-0.2c1.7-0.4,3.4-1.3,5-2.5c1.7-1.5,2.7-2.9,2.7-4.4c0-0.8-0.6-2.1-2.1-3.6l1-1.9c0-0.2,0.2-0.2,0.2-0.2l0.2,0.2
		c0.4,0.6,1,1.5,1.3,2.5C836.3,713.5,836.5,714.5,836.5,715.2z M835,704.1l-1.7,1.7l-1.7-1.7l1.7-1.7L835,704.1z"/>
	<path id="PATH_155" d="M847,715.2c0,2.1-0.6,4-1.9,5.9c-1,1.5-2.1,2.3-2.7,2.3c-1.7,0-2.9,0-4.2-0.2c-0.4,0-0.6-0.2-0.6-0.2
		s0.2-0.2,0.6-0.2c1.7-0.4,3.4-1.3,5-2.5c1.7-1.5,2.7-2.9,2.7-4.4c0-0.8-0.6-2.1-2.1-3.6l1-1.9c0-0.2,0.2-0.2,0.2-0.2l0.2,0.2
		c0.4,0.6,1,1.5,1.3,2.5C846.8,713.5,847,714.5,847,715.2z"/>
	<path id="PATH_156" d="M852,712.5c0,0.8-0.2,1.7-0.6,2.3c-0.2,0.4-0.4,0.6-0.4,0.6s-0.2-0.2-0.2-0.8c0-2.5-0.4-8.4-1.3-17.8
		l1.7-1.7c0.2-0.2,0.2-0.2,0.2-0.2s0,0.2,0,0.4C852,698.2,852,703.9,852,712.5z"/>
</g>
<g id="G_157">
	<path id="PATH_158" d="M871.5,913.7c0.2,0.6,0.2,1.3,0.2,1.9c0,0.8-0.2,1.5-0.4,2.3c-0.6,1.5-1.7,2.7-3.8,3.6c-1.7,0.6-3.4,1-5.2,1
		c-1.9,0-3.4-0.4-4.6-1.3c-1.3-1-1.9-2.3-1.9-4.2c0-1,0.2-1.9,0.6-3.1c0.4-0.8,0.6-1.5,1-1.9c0.2-0.2,0.4-0.2,0.4-0.2
		c0.2,0,0.2,0,0.2,0.2c0,0,0,0.2,0,0.4c-0.6,1.3-0.8,2.5-0.8,3.6s0.4,1.9,1,2.7c0.8,1,2.3,1.5,4.2,1.5c2.1,0,4-0.4,5.5-1
		c1.3-0.6,2.1-1.3,2.5-2.1c0.2-0.2,0.2-0.6,0.2-0.8c0-0.6-0.2-1.3-0.4-2.1c-0.2-0.6-0.8-1.7-1.9-3.4l0.8-1.7
		c0.2-0.2,0.2-0.4,0.2-0.4s0.2,0,0.2,0.2C870.7,910.6,871.3,912.1,871.5,913.7z M865.4,904.7l-1.7,1.7l-1.7-1.7l1.7-1.7L865.4,904.7
		z"/>
	<path id="PATH_159" d="M880.1,914.2h-1.5c-1.5,0-2.7-0.6-3.1-1.9c-0.4-0.8-0.6-2.3-0.6-4v-4c0-1.9-0.2-4.6-0.4-8.2l1.3-1.5
		c0.2-0.2,0.4-0.2,0.4,0c0.2,1.9,0.4,4.6,0.4,8.2v6.1c0,1.7,0.8,2.5,2.5,2.5h1L880.1,914.2L880.1,914.2z"/>
	<path id="PATH_160" d="M896.5,908.1l-0.8,1.7c-1.5,0-2.7,0-3.4,0.2c-0.8,0.4-2.1,0.8-3.8,1.7c-1.7,0.8-2.9,1.5-3.8,1.7
		c-1.3,0.4-2.7,0.6-4,0.6h-1.5v-2.5h1.7c1.9,0,3.6-0.4,5-1l4.8-2.1c-0.8-0.2-2.1-0.6-3.8-1.3c-1.5-0.6-2.3-0.8-2.7-0.8
		c-0.8,0-1.7,0.4-2.5,1c-0.2,0.2-0.2,0.2-0.4,0.2s-0.2,0-0.2-0.2V907c0.6-2.1,1.9-2.9,3.6-2.9c0.6,0,1.5,0.2,2.3,0.6
		c1.7,0.8,2.9,1.3,3.8,1.7c1.5,0.4,3.1,0.8,5,0.8c0.4,0,0.6,0,0.6,0.2C896.7,907.7,896.7,907.9,896.5,908.1z M889.6,918.3l-1.7,1.7
		l-1.7-1.7l1.7-1.7L889.6,918.3z"/>
	<path id="PATH_161" d="M909.7,914.2h-2.3c-0.2,2.9-1.3,5.2-3.4,7.3c-0.6,0.6-1,1-1.3,1c-1,0-2.5-0.2-4-0.4c-0.4,0-0.8-0.2-0.8-0.2
		s0.2-0.2,0.8-0.4c1.7-0.4,3.4-1.5,4.8-2.5c0.6-0.6,1.3-1,1.7-1.9c0.6-0.8,1-1.7,1-2.3v-0.6h-2.7c-2.1,0-2.9-0.8-2.9-2.5
		c0-1,0.2-2.1,0.8-3.4c0.6-1.3,1.5-2.1,2.3-2.1c1,0,1.9,0.6,2.5,2.1c0.4,1,0.8,2.1,0.8,3.4h2.3v2.5L909.7,914.2L909.7,914.2z
		 M905.9,911.6c0-0.6-0.2-1.3-0.6-1.9c-0.4-0.8-1-1-1.7-1c-0.4,0-0.8,0.2-1,0.4c-0.4,0.4-0.4,0.6-0.4,1.3c0,1,0.8,1.5,2.5,1.5
		C904.6,911.6,905.3,911.6,905.9,911.6z"/>
	<path id="PATH_162" d="M920,914.2h-1.7c-1.9,0-3.1-0.6-4-1.9c-0.6,1.3-2.1,1.9-4.4,1.9h-1.3v-2.5h1.9c2.1,0,3.1-0.8,3.4-2.3
		c0-0.6,0.2-1,0.4-1s0.4,0.4,0.4,1c0.2,1.5,1.3,2.3,3.1,2.3h1.9v2.5H920z M915.8,903.2l-1.7,1.7l-1.7-1.7l1.7-1.7L915.8,903.2z"/>
	<path id="PATH_163" d="M930.4,910c0,1,0,1.9-0.4,2.7c-0.4,1-1,1.7-1.7,1.7c-1,0-2.7-0.6-4.8-2.1c-0.6,0.8-1,1.3-1.3,1.5
		c-0.6,0.4-1.3,0.6-2.1,0.6h-1v-2.5h1.5c0.8,0,1.7-0.4,2.5-1.5c0.4-0.4,1-1.5,1.9-2.7c0.6-1,1.5-1.5,2.1-1.5c1,0,1.9,0.4,2.5,1.5
		C930,908.5,930.2,909.1,930.4,910z M929.2,911.4c0-0.6-0.2-1.3-0.6-2.1c-0.4-0.8-1-1.3-1.7-1.3s-1.3,0.6-2.1,1.9
		c0.4,0.4,1,0.8,1.9,1.3c0.8,0.4,1.7,0.6,2.1,0.6C929,912.1,929.2,911.8,929.2,911.4z"/>
</g>
<g id="G_164">
	<path id="PATH_165" d="M1098.2,941.4h-2.1c-2.7,0-4.2-1.3-4.2-3.8c0-0.6,0-1,0.2-1.7c-2.3,0.4-4.2,1.3-5.9,2.3
		c-2.3,1.5-3.4,3.1-3.4,5s0.8,3.1,2.7,4.2c1.5,0.6,3.1,1,5.2,1s4-0.2,5.7-0.6c0.2,0,0.2,0,0.4,0c0.2,0,0.2,0,0.2,0.2
		s-0.2,0.2-0.4,0.4c-1,1-2.1,1.7-3.4,1.9c-1,0.2-2.3,0.4-3.8,0.4c-2.9,0-5.2-0.6-6.7-2.1c-1-1-1.7-2.5-1.7-4.2c0-4,2.7-7.1,8-9.2
		c-2.3-0.4-3.8-0.6-4.8-0.6c-0.4,0-1,0.2-1.9,0.8s-1.3,0.8-1,0.8c-0.2,0-0.2-0.2-0.2-0.6c0-0.6,0.4-1.3,0.8-1.9
		c0.6-1,1.7-1.7,2.9-1.7c1,0,2.5,0.2,4.4,0.6c1.9,0.4,3.6,0.6,4.6,0.6h1.5c0.4,0,0.6,0,0.6,0.2c0,0,0,0.2-0.2,0.4l-0.6,1.7
		c-0.6,0-1.5,0.2-2.7,0.2c0,0.4,0,0.6,0,0.8c0,1.7,1,2.3,3.4,2.3h1.9v2.3h0.5V941.4z M1090.4,942.9l-1.7,1.7l-1.7-1.7l1.7-1.7
		L1090.4,942.9z"/>
	<path id="PATH_166" d="M1108.4,941.4h-1.7c-1.9,0-3.1-0.6-4-1.9c-0.6,1.3-2.1,1.9-4.4,1.9h-1.3v-2.5h1.9c2.1,0,3.1-0.8,3.4-2.3
		c0-0.6,0.2-1,0.4-1s0.4,0.4,0.4,1c0.2,1.5,1.3,2.3,3.1,2.3h1.9v2.5H1108.4z M1104.5,930.5l-1.7,1.7l-1.7-1.7l1.7-1.7L1104.5,930.5z
		"/>
	<path id="PATH_167" d="M1121.2,924.4c0,0.4-0.2,1-0.6,2.3c-2.5,0.6-5.7,1.7-9.2,2.7c2.5,2.5,4,4.6,4.2,6.1c0.2,1,0,2.1-0.4,3.1
		s-1.3,1.7-2.3,2.1c-0.8,0.4-2.3,0.4-4.2,0.4h-0.8v-2.5h0.6c4,0,6.1-0.6,6.1-2.1c0-1-1-2.7-3.4-4.8l-0.2,0.6c-0.2-0.2-0.6-0.6-1-1.3
		c-0.6-0.6-0.8-1-0.8-1.3c0-0.6,0.2-1.3,0.8-1.9c0.2-0.2,1.5-0.6,4.2-1.5C1116.6,925.7,1119.1,925.1,1121.2,924.4z M1120.8,921.3
		l-0.4,1.5l-10.3,3.4l0.4-1.5L1120.8,921.3z"/>
	<path id="PATH_168" d="M1143.2,941.4h-1.5c-1.9,0-2.9-1-3.4-3.4c-1,1-1.5,1.5-1.7,1.5h-1.9c-0.6,0-1.3,0-1.9-0.2
		c-0.8-0.2-1.3-0.6-1.3-1c0-1.7,0.6-2.9,1.7-3.8c0.8-0.6,2.1-1.3,3.8-2.1l-0.4-2.1l1.5-1.7c0,0.2,0.6,2.5,1.5,6.9
		c0.2,1.3,0.6,2.3,0.8,2.7c0.4,0.6,0.8,0.8,1.7,0.8h1.5v2.3L1143.2,941.4L1143.2,941.4z M1138,937.2l-0.6-3.4
		c-0.6,0.2-1.5,0.6-2.5,1c-1.3,0.6-2.1,1.3-2.1,1.5c0,0.4,0.4,0.6,1.5,0.8c0.6,0.2,1.3,0.2,1.9,0.2
		C1136.8,937.2,1137.4,937.2,1138,937.2z"/>
	<path id="PATH_169" d="M1155,941.4h-1.3c-2.1,0-3.8-0.6-4.8-2.1c-1.3,1.5-2.9,2.1-4.8,2.1h-1.7v-2.5h2.1c1.5,0,2.5-0.2,3.1-0.8
		c-0.2-0.4-0.4-0.8-0.8-1.3c-0.4-0.4-0.8-0.8-1-0.8c-0.4-0.2-0.6-0.2-0.6-0.4c0,0,0-0.2,0.2-0.4c0.6-1.3,1.7-1.9,3.6-1.9
		c2.3,0,3.6,0.6,3.6,2.1c0,0.6-0.6,1.5-1.9,2.7c0.2,0.4,0.8,0.6,1.5,0.8c0.6,0.2,1,0.2,1.5,0.2h1.7v2.3L1155,941.4L1155,941.4z"/>
	<path id="PATH_170" d="M1162.7,941.4h-0.8c-1.9,0-3.1-0.6-3.8-2.1c-0.2,0.6-0.6,1-1.3,1.5c-0.6,0.4-1.3,0.6-1.9,0.6h-0.8v-2.5h0.8
		c1.7,0,2.5-0.6,2.5-2.1v-7.3c0-2.7,0-4.8-0.2-6.3l1.9-1.5v14c0,2.1,0.8,3.1,2.7,3.1h0.8v2.6H1162.7z"/>
	<path id="PATH_171" d="M1170.9,935.5c0,1.9-0.2,3.1-0.6,3.8c-1,1.5-2.7,2.1-5.5,2.1h-2.9v-2.5h2.1c3.6,0,5.5-0.6,5.9-1.7
		c0.2-0.4,0-0.8-0.2-1.3c-0.8,0.2-1.7,0.2-2.7,0.2c-1.9,0-2.9-0.8-2.9-2.5c0-1,0.2-2.3,0.8-3.4c0.6-1.3,1.5-1.9,2.5-1.9
		c0.8,0,1.7,0.6,2.3,1.7C1170.5,931.8,1170.9,933.4,1170.9,935.5z M1166.7,924l-1.7,1.7l-1.7-1.7l1.7-1.7L1166.7,924z M1169.2,933.7
		c0-0.6-0.2-1.3-0.6-1.9c-0.4-0.6-1-0.8-1.7-0.8c-0.4,0-0.8,0.2-1.3,0.4c-0.4,0.2-0.4,0.6-0.4,1c0,0.8,0.6,1.3,2.1,1.3
		C1167.8,933.9,1168.4,933.9,1169.2,933.7z M1170.3,924l-1.7,1.7l-1.7-1.7l1.7-1.7L1170.3,924z"/>
</g>
<g id="G_172">
	<path id="PATH_173" d="M1235.7,582.5c-1,1-2.1,1.7-3.4,1.9c-1,0.2-2.3,0.4-3.8,0.4c-2.9,0-5.2-0.6-6.7-2.1c-1-1-1.7-2.5-1.7-4.2
		c0-4,2.7-7.1,8-9.2c-2.3-0.4-3.8-0.6-4.8-0.6c-0.4,0-1,0.2-1.9,0.8c-0.8,0.6-1.3,0.8-1,0.8c-0.2,0-0.2-0.2-0.2-0.6
		c0-0.6,0.4-1.3,0.8-1.9c0.6-1,1.7-1.7,2.9-1.7c1,0,2.5,0.2,4.4,0.6c1.9,0.4,3.6,0.6,4.6,0.6h1.5c0.4,0,0.6,0,0.6,0.2
		c0,0,0,0.2-0.2,0.4l-0.6,1.7c-1,0-2.1,0.2-3.6,0.4c-2.1,0.4-4.2,1.3-5.9,2.3c-2.3,1.5-3.4,3.1-3.4,5s0.8,3.1,2.7,4.2
		c1.5,0.6,3.1,1,5.2,1s4-0.2,5.7-0.6c0.2,0,0.2,0,0.4,0c0.2,0,0.2,0,0.2,0.2C1235.9,582,1235.9,582.2,1235.7,582.5z M1230.3,576.8
		l-1.7,1.7l-1.7-1.7l1.7-1.7L1230.3,576.8z"/>
	<path id="PATH_174" d="M1248.1,575.5h-0.8c-0.8,0-1.3-0.2-1.7-0.4c0,0.2,0,0.4,0,0.6c0,1.9-0.6,3.8-1.9,5.7c-1,1.7-2.1,2.3-2.7,2.3
		c-1.7,0-2.9,0-4.2-0.2c-0.4,0-0.6-0.2-0.6-0.2s0.2-0.2,0.6-0.2c1.7-0.4,3.4-1.3,5-2.5c1.7-1.5,2.7-2.9,2.7-4.4
		c0-0.8-0.6-2.1-2.1-3.6l1-1.9c0-0.2,0.2-0.2,0.2-0.2l0.2,0.2c0.6,0.8,1,1.5,1.5,1.7c0.6,0.4,1.5,0.8,2.3,0.8h0.6L1248.1,575.5
		L1248.1,575.5L1248.1,575.5z"/>
	<path id="PATH_175" d="M1261.1,575.5h-1c-0.8,0-1.7,0.2-2.3,0.4c-1,0.4-1.7,1-1.7,2.1c0,1.3,0.8,2.3,2.5,3.4l-1,2.1
		c-1.9-0.6-3.6-1.7-4.8-2.9c-1.7-1.5-2.5-3.4-2.5-5.2h-2.9v-2.5h2.7c0-1.7,0.4-3.4,1.3-5.5c0.8-1.9,1.5-2.7,1.9-2.7s1,0.8,1.7,2.7
		c0.6,1.7,0.8,2.7,0.8,3.4c0,2.9-1.5,4.4-4.4,4.4c0.2,0.8,0.6,1.7,1.3,2.5c0.6,0.8,1.5,1.5,2.3,1.9c0-0.2,0-0.6,0-0.8
		c0-1.5,0.4-2.7,1-3.8c1-1.5,2.3-2.3,4.2-2.3h0.8v2.9h0.1V575.5z M1254.8,572.2c0-0.4-0.2-1.3-0.6-2.3c-0.4-1.3-0.8-1.7-1.3-1.7
		c-0.2,0-0.6,0.4-1,1.5c-0.4,1-0.6,2.3-0.6,3.6C1253.5,573,1254.8,572.8,1254.8,572.2z"/>
	<path id="PATH_176" d="M1269.3,569.7v0.8c0,1.5-0.2,2.3-0.6,2.9c-1,1.5-2.7,2.1-5.5,2.1h-2.9V573h2.1c3.6,0,5.5-0.6,5.9-1.7
		c0-0.2,0-0.2,0-0.4c0-0.4,0-0.6-0.2-0.8c-0.8,0.2-1.9,0.2-2.7,0.2c-1.9,0-2.9-0.8-2.9-2.5c0-1,0.2-2.3,0.8-3.4
		c0.6-1.3,1.5-1.9,2.5-1.9c0.8,0,1.7,0.6,2.3,1.7C1268.8,565.7,1269.3,567.6,1269.3,569.7z M1267,558.1l-1.7,1.7l-1.7-1.7l1.7-1.7
		L1267,558.1z M1267.8,567.8c0-0.6-0.2-1.3-0.6-1.9s-1-0.8-1.7-0.8c-0.4,0-0.8,0.2-1.3,0.4c-0.4,0.2-0.4,0.6-0.4,1
		c0,0.8,0.6,1.3,2.1,1.3C1266.3,568,1267,568,1267.8,567.8z"/>
</g>
<g id="G_177">
	<path id="PATH_178" d="M1349.6,486.6h-0.8c-0.8,0-1.3-0.2-1.7-0.4c0,0.2,0,0.4,0,0.6c0,1.9-0.6,3.8-1.9,5.7c-1,1.7-2.1,2.3-2.7,2.3
		c-1.7,0-2.9,0-4.2-0.2c-0.4,0-0.6-0.2-0.6-0.2s0.2-0.2,0.6-0.2c1.7-0.4,3.4-1.3,5-2.5c1.7-1.5,2.7-2.9,2.7-4.4
		c0-0.8-0.6-2.1-2.1-3.6l1-1.9c0-0.2,0.2-0.2,0.2-0.2l0.2,0.2c0.6,0.8,1,1.5,1.5,1.7c0.6,0.4,1.5,0.8,2.3,0.8h0.6L1349.6,486.6
		L1349.6,486.6L1349.6,486.6z"/>
	<path id="PATH_179" d="M1359.8,486.6h-1.7c-1.9,0-3.1-0.6-4-1.9c-0.6,1.3-2.1,1.9-4.4,1.9h-1.3v-2.3h1.9c2.1,0,3.1-0.8,3.4-2.3
		c0-0.6,0.2-1,0.4-1c0.2,0,0.4,0.4,0.4,1c0.2,1.5,1.3,2.3,3.1,2.3h1.9v2.3H1359.8z M1352.9,491.3l-1.7,1.7l-1.7-1.7l1.7-1.7
		L1352.9,491.3z M1356.5,491.3l-1.7,1.7l-1.7-1.7l1.7-1.7L1356.5,491.3z"/>
	<path id="PATH_180" d="M1379.1,486.6h-1.3c-1.5,0-2.3-0.6-2.9-1.7c-0.4,1.3-1.5,1.7-2.7,1.7c-1.3,0-2.1-0.6-2.7-1.7
		c-0.6,1.3-1.5,1.7-2.7,1.7c-1.5,0-2.5-0.6-3.1-1.7c-0.8,1.3-1.9,1.7-3.4,1.7h-1.5v-2.3h1.7c1.5,0,2.5-0.8,2.7-2.5
		c0-0.4,0.2-0.6,0.4-0.6s0.2,0.2,0.4,0.6c0.2,1.7,1,2.5,2.7,2.5c1.5,0,2.5-0.8,2.5-2.5c0-0.4,0.2-0.6,0.4-0.6s0.4,0.2,0.4,0.6
		c0.2,1.7,1,2.5,2.1,2.5c1.5,0,2.5-0.8,2.5-2.5c0-0.4,0.2-0.6,0.4-0.6s0.4,0.2,0.4,0.6c0.2,1.7,1,2.5,2.5,2.5h1.3v2.3H1379.1z
		 M1369.5,476.2l-1.5,1.5l-1.5-1.5l1.5-1.5L1369.5,476.2z M1371.2,472.8l-1.5,1.5l-1.5-1.5l1.5-1.5L1371.2,472.8z M1373,476.2
		l-1.5,1.5l-1.5-1.5l1.5-1.5L1373,476.2z"/>
	<path id="PATH_181" d="M1389.6,482.4c0,1,0,1.9-0.4,2.7c-0.4,1-1,1.7-1.7,1.7c-1,0-2.7-0.6-4.8-2.1c-0.6,0.8-1,1.3-1.3,1.5
		c-0.6,0.4-1.3,0.6-2.1,0.6h-1v-2.5h1.5c0.8,0,1.7-0.4,2.5-1.5c0.4-0.4,1-1.5,1.9-2.7c0.6-1,1.5-1.5,2.1-1.5c1,0,1.9,0.4,2.5,1.5
		C1389.2,481,1389.6,481.8,1389.6,482.4z M1388.4,484.1c0-0.6-0.2-1.3-0.6-2.1c-0.4-0.8-1-1.3-1.7-1.3c-0.6,0-1.3,0.6-2.1,1.9
		c0.4,0.4,1,0.8,1.9,1.3c0.8,0.4,1.7,0.6,2.1,0.6C1388.1,484.5,1388.4,484.3,1388.4,484.1z"/>
	<path id="PATH_182" d="M1402.6,486.6h-0.8c-0.8,0-1.3-0.2-1.7-0.4c0,0.2,0,0.4,0,0.6c0,1.9-0.6,3.8-1.9,5.7c-1,1.7-2.1,2.3-2.7,2.3
		c-1.7,0-2.9,0-4.2-0.2c-0.4,0-0.6-0.2-0.6-0.2s0.2-0.2,0.6-0.2c1.7-0.4,3.4-1.3,5-2.5c1.7-1.5,2.7-2.9,2.7-4.4
		c0-0.8-0.6-2.1-2.1-3.6l1-1.9c0-0.2,0.2-0.2,0.2-0.2l0.2,0.2c0.6,0.8,1,1.5,1.5,1.7c0.6,0.4,1.5,0.8,2.3,0.8h0.6L1402.6,486.6
		L1402.6,486.6L1402.6,486.6z"/>
	<path id="PATH_183" d="M1407.6,482.4c0,2.7-1.5,4.2-4.2,4.2h-1.7v-2.3h1.5c2.1,0,3.1-0.4,3.1-1s-0.4-1.5-1.5-2.5l0.8-2.1
		c0-0.2,0.2-0.2,0.2-0.2s0.2,0.2,0.4,0.4C1407.2,479.7,1407.6,481.2,1407.6,482.4z M1407.4,473l-1.7,1.7l-1.7-1.7l1.7-1.7
		L1407.4,473z"/>
</g>
<text transform="matrix(1 0 0 1 1066.4698 551.2344)" class="st5 st6"></text>
</svg>
