



    


<svg version="1.1" id="Layer_1" xmlns="http://www.w3.org/2000/svg" xmlns:xlink="http://www.w3.org/1999/xlink" x="0px" y="0px" viewBox="0 0 658.9 446" style="enable-background:new 0 0 658.9 446;" xml:space="preserve" width="100%" height="100%">
<style type="text/css">
	.st0{fill:#FDFAD6;stroke:#020202;stroke-width:0.2;stroke-miterlimit:10;}
	.st1{fill:#E8D0E5;stroke:#020202;stroke-width:0.2;stroke-miterlimit:10;}
	.st2{fill:#FBD1D1;stroke:#020202;stroke-width:0.2;stroke-miterlimit:10;}
	.st3{fill:#DBECCB;stroke:#020202;stroke-width:0.2;stroke-miterlimit:10;}
	.st4{fill:none;stroke:#040404;stroke-width:0.5;stroke-miterlimit:10;}
</style>
		<path class="st0 area" d="M451.6,127.3c3.8-1.9,9.6-3.2,12.2-1.3c15.4,12.2,26.9,33.3,47.4,31.4c7-0.6,14.7-7.1,20.5-3.2
			c12.8,7.7,23.7,17.9,39.1,16c8.9-1.2,17.4-4.2,23.7-9.9c-1.2-4.2-1.8-9.3-2.4-14.3c-0.6-5.2-1.2-10.6-2.5-13.2
			c-4.7-9.4,0.2-26.5,10.4-36.7c4.9-4.9,5-6.6,4.9-7c-0.2-1-3.5-2.7-6.1-4c-6.9-3.4-6.9-10.9-6.9-17.4c0-2.9,0-5.7-0.6-8
			c-1.2-4.6-19.9-9.5-36.4-9.5H500c-5.3,0-8.8,9.6-8.8,18.6c0,11.7-9.2,18.6-24.5,18.6c-8.1,0-12.3-2-14.4-4.1
			c-3.7,3.4-10.5,9.3-17.4,13.5c-5.6,3.3-3.4,10.3,0.9,21.4c0.8,2.2,1.7,4.4,2.4,6.5c0.8,2.4,0.6,4.3,0,5.7
			C442.5,131.1,447.9,128.9,451.6,127.3z" id="_x32_86" title="سنقر"></path>
		<path class="st1 area" d="M270.2,81.1c-1.3,2.6-1.9,7.1-5.1,9.6c-5.8,3.8-14.1-0.6-16.7,6.4c-0.6,2.6,0.6,5.8,2.6,6.4
			c9.6,3.8,19.9,3.2,23.7,15.4c2.6,7.7,14.7,2.6,23.1,3.8c4.5,0.6,10.3,4.5,7,9.6c-3.2,5.8-10.9,5.8-13.5,12.8
			c-1.3,5.8-9.6,6.4-16,7.7c-7.7,1.9-7.1,10.9-5.1,16.7c1.9,4.6,5.2,8.2,9,11.4c9.3-2.1,16.1,4.2,21.7,11.1c3.8,3.8,8.3-1.3,12.2,0
			c5.1,1.9,5.8,8.3,9.6,10.9c6.4,3.8,10.3-5.8,16.7-7c7.1-1.3,14.7,7.7,19.2,1.3c3.2-4.5-0.6-10.9,3.2-17.3
			c2.6-4.5-2.6-9.6-0.6-14.7c0.6-1.9,5.1-1.3,5.8-4.5c1.3-3.8-2.6-4.5-4.5-7c-1.3-0.6-1.3-3.8,0-5.1c3.3-4.4,2.3-9.3,0.4-13.9
			c-6.8-0.1-11.8-0.1-12-0.1h-1.7l-0.9-1.5c-0.3-0.6-7.9-13.9-11.8-21.7c-1.6-3.1-8.4-5.1-14.9-6.9c-6.4-1.8-13.7-3.9-19.4-7.6
			c-6.3-4.2-10-11.7-12.1-19.6c-2.4,2.2-4.5,4.7-7.7,4.7C278.6,81.8,272.8,76,270.2,81.1z" id="_x32_83" title="روانسر"></path>
		<path class="st0 area" d="M170.2,73.4c1.3,1.3,3.8,0.6,4.5,1.9c0,0.6,0,2.6,0,3.2c2.6,4.5,7.7,1.9,10.9,3.8c3.2,1.9,1.9,7,4.5,10.3
			c5.8,6.4,15.4,3.2,21.8,8.3c1.3,1.3,0,3.8,1.3,5.1c1.9,1.9,7,0,7,2.6c0.6,5.1,2.6,9.6,6.4,10.9c6.4,1.9,12.2-3.2,17.3,3.2
			c8.3,10.3-5.8,15.4-5.8,23.1c0.6,5.1,9.6,6.4,10.9,10.9c1.3,5.1,3.2,12.8,9,12.2c3.8,0,1.9-8.3,6.4-8.3c1.6-0.3,3.1-0.2,4.6,0.1
			c0.4-3.6,2.1-6.7,6.3-7.8c6.4-1.3,14.7-1.9,16-7.7c2.6-7,10.3-7,13.5-12.8c3.2-5.1-2.6-9-7-9.6c-8.3-1.3-20.5,3.8-23.1-3.8
			c-3.8-12.2-14.1-11.5-23.7-15.4c-1.9-0.6-3.2-3.8-2.6-6.4c0.5-1.3,1.2-2.2,2-2.9c-2.2-1-4.4-2.4-6.5-4.2c-2.6-3.2-7,0.6-10.3,2.6
			c-3.2,2.6-8.3-1.3-8.3-4.5c0-8.3-3.2-14.1-10.2-17.9c-5.8-3.2-11.5,0.6-17.3-1.3c-2.7-1-4.7-3.1-6.6-5.4l-1.5,0.3l-7.1-2.7
			l-3.1,0.4l-2.4-1.2l-4.7-3.1l-3.5-0.8l-1.6,0.4l-3.1,5.1v1.2l0.2,1.5C166.7,67.3,167.4,71.1,170.2,73.4z" id="_x32_82" title="جوانرود"></path>
		<path class="st0 area" d="M156.8,377.2c-3.2-9-9.6-14.1-18.6-16.7c-3.8-1.3-3.8-5.8-4.5-10.3c-1.9-7-10.3-5.8-16.7-7
			c-5.1-1.9-7.7-5.8-9-10.9c-2.6-13.5,9.6-21.8,16-32c4.5-7.1-7-12.2-8.3-17.9c-1.3-8.3-3.2-15.4-8.3-21.8
			c-7.7-8.3,6.4-9.6,14.7-8.3c0-5.1,4.5-7.7,4.5-12.2c0.6-7-0.6-12.8,4.5-18.6c0.6-1.3,0-2.6,0-3.8c-1.9-3.8-7-5.8-7.7-8.3
			c0-3.5-1.5-6.4-3.6-8.9l-1.2,1.6l-1.2,0.4l-5.1-1.6l-15.7-1.2l-7.1-2l-7.8-3.9l-9-2.4l-1.2,7.4l2,10.6l-0.4,8.2l-0.8,2l-1.6,2
			l-1.2,2l-2,1.6l-11.8,2.4l-2.4,3.5l7.1,22.4l2.7,5.9l4.3,3.1l4.7-3.5h5.1l4.7,2.7l3.5,5.5l1.2,5.9l-0.4,7.1L83.4,293l-1.2,2.4
			l-3.1,5.1l-0.4,2.4l1.2,3.1l1.6,2.4l1.6,2.4v3.1l-2.4,3.1l-9.4,7.4l-3.5,3.5l-5.5,4.7l-2.7,5.9l-1.6,7.1l-3.5,7.4l-2,2l-2.4,1.6
			l-5.1,2.4l4.7,6.3l5.5,3.1l5.9,0.4l6.7-1.2h0.8l0.4,0.4l0.4,0.4l20.4,36.5l3.1,3.1l3.5,3.1l3.1,3.1l1.6,4.7l1.2,5.5l1.6,4.7l2,4.3
			l1.2,1.7c0.4-0.1,0.8-0.2,1.2-0.3c0.2-0.8,0.7-1.6,1.6-2c0.2-0.1,22-10.4,32-19.2c4.7-4.1,8-8.5,10.9-12.3
			c3.5-4.7,6.6-8.7,10.9-10.4c1.8-0.7,3.8-2,5.6-3.6C163.8,384.4,158.5,382,156.8,377.2z" id="_x32_89" title="قصر شیرین"></path>
		<path class="st1 area" d="M275.4,327.2c-4.5-7.1-8.3-14.7-16-16.7c-12.2-2.5-23.7,0.6-34-8.3c-5.8-5.1-5.1-12.8-9-19.2
			c-1.9-2.6-3.2-5.1-6.4-5.8c-9-0.6-17.3,5.1-25.6,2.6c-9.6-2.6-10.9-14.1-14.1-22.4c-0.6-1.9-3.2-2.6-4.5-2.6
			c-13.5,0-15.4-16-25.6-21.1c-4-1.7-9.6,1.7-13.4,6.1c0,0.1,0,0.2,0,0.3c0,4.5-4.5,7-4.5,12.2c-8.3-1.3-22.4,0-14.7,8.3
			c5.1,6.4,7,13.5,8.3,21.8c1.3,5.8,12.8,10.9,8.3,17.9c-6.4,10.2-18.6,18.6-16,32c1.3,5.1,3.8,9,9,10.9c6.4,1.3,14.7,0,16.7,7
			c0.6,4.5,0.6,9,4.5,10.3c9,2.6,15.4,7.7,18.6,16.7c1.7,4.8,7.1,7.2,12.3,10.1c2.2-2,4.2-4.4,4.9-6.7c0.5-1.5,0.4-2.8-0.2-3.8
			c-1.1-1.8-2.7-3.4-4.4-5.2c-4-4.1-9.1-9.3-9.1-18.5c0-5.2,1.2-8.7,3.7-11c4-3.6,10.2-3.3,19.1-2.4c12.1,1.2,18.5-3.7,20.5-8.6
			c0.5-1.1,0.9-2.6,1.2-4.1c1.2-4.4,2.4-8.9,6.4-9.8c4-0.8,7.7,3.1,10.5,6.6c10.3,12.8,27.3,19.4,33.4,17.4
			c4.8-1.6,21.3-5.9,33.1,5.9c2,2,5.4,5,9.5,8.5c0-0.1,0-0.1,0-0.1C301.6,342.6,282.4,338.1,275.4,327.2z" id="_x32_93" title="گیلان غرب"></path>
		<path class="st2 area" d="M192.7,249c-1.9-3.8,1.3-9-0.6-12.8c-1.9-3.9-9-2.6-12.2-6.4c-0.6-1.3-1.9-3.2-1.9-3.8
			c-0.6-13.5-16.7-18.6-21.8-30.1c-1.3-4.5,1.3-7.7,4.5-9.6c5.8-3.8,10.9,1.3,16,3.2c8.2,2.6,14-3.2,19-9.8c-0.4-0.5-0.7-1.1-1-1.7
			c-1.9-5.8,7-14.1,1.3-16c-10.2-3.2-21.1,6.4-32,9c-6.4,1.9-13.5-0.6-19.9-1.9c-9.6-2.6-16.7,5.8-25,9c-0.9,0.3-1.9,0.3-2.9,0.3
			l0.2,1.5v5.1l0.8,4.7l2.7,3.5l0.8,1.6l-0.4,3.1l-0.4,2.7l0,0c2.1,2.5,3.6,5.4,3.6,8.9c0.6,2.6,5.8,4.5,7.7,8.3
			c0,1.3,0.6,2.6,0,3.8c-5.1,5.7-3.9,11.4-4.5,18.3c3.9-4.4,9.4-7.8,13.4-6.1c10.3,5.1,12.2,21.1,25.6,21.1c1.3,0,3.8,0.6,4.5,2.6
			c3.2,8.3,4.5,19.9,14.1,22.4c6.2,1.9,12.5-0.8,18.9-2.1c0.6-1.4,1.1-2.9,1.6-4.4C208.1,262.5,196.5,257.4,192.7,249z" id="_x32_84" title="سرپل ذهاب"></path>
		<path class="st0 area" d="M290.7,244.6c-1.3-6.4,3.8-12.2,0.6-19.2c-1.9-3.8-7.1-7.1-7.7-9.6c-1.9-9-5.8-16.7-10.3-23.7
			c-1.7-2.9-0.9-6.4,1.1-8.7c-3.3-1.3-7.2-1.2-9.5,0.3c-14.1,10.3-22.4-7.7-33.3-10.9c-11.5-3.2-11.5,14.1-14.7,23.1
			c0,0.6-2.6,0-3.8-1.3c-1.9-2.6-2.6-7-4.5-8.3c-4-2.3-10-2.5-13.1-6.6c-4.9,6.6-10.8,12.4-19,9.8c-5.1-1.9-10.3-7.1-16-3.2
			c-3.2,1.9-5.8,5.1-4.5,9.6c5.1,11.5,21.1,16.7,21.8,30.1c0,0.6,1.3,2.6,1.9,3.8c3.2,3.8,10.3,2.6,12.2,6.4c1.9,3.9-1.3,9,0.6,12.8
			c3.8,8.3,15.4,13.5,12.2,24.4c-0.5,1.5-1,2.9-1.6,4.3c2.2-0.4,4.4-0.7,6.7-0.5c3.2,0.6,4.5,3.2,6.4,5.8c3.8,6.4,3.2,14.1,9,19.2
			c10.3,9,21.8,5.8,34,8.3c0.5,0.1,0.9,0.3,1.4,0.4c2-4.7,1.8-10.3,5.7-13.2c5.1-5.1,12.2-7.1,16-13.5c2.6-5.1-5.8-9-2.6-14.1
			c3.2-3.8,7.7-6.4,12.8-8.3c3-0.9,3.7-4,4.2-7.4C294.1,251.7,291.5,248.7,290.7,244.6z" id="_x39_79" title="دالاهو"></path>
		<path class="st3 area" d="M119,177.9c8.3-3.2,15.4-11.5,25-9c6.4,1.3,13.5,3.8,19.9,1.9c10.9-2.6,21.8-12.2,32-9
			c5.8,1.9-3.2,10.3-1.3,16c2.6,5.8,9.6,5.8,14.1,8.3c1.9,1.3,2.6,5.8,4.5,8.3c1.3,1.3,3.8,1.9,3.8,1.3c3.2-9,3.2-26.3,14.7-23.1
			c10.9,3.2,19.2,21.2,33.3,10.9c2.3-1.5,6.2-1.7,9.5-0.3c1.1-1.2,2.4-2,4-2.2c0.2-0.1,0.5-0.1,0.7-0.2c-3.9-3.1-7.1-6.8-9-11.4
			c-0.9-2.6-1.5-5.9-1.2-8.9c-1.5-0.3-3-0.4-4.6-0.1c-4.5,0-2.6,8.3-6.4,8.3c-5.8,0.6-7.7-7-9-12.2c-1.3-4.5-10.3-5.8-10.9-10.9
			c0-7.7,14.1-12.8,5.8-23.1c-5.1-6.4-10.9-1.3-17.3-3.2c-3.8-1.3-5.8-5.8-6.4-10.9c0-2.6-5.1-0.6-7-2.6c-1.3-1.3,0-3.8-1.3-5.1
			c-6.4-5.1-16-1.9-21.8-8.3c-2.6-3.2-1.3-8.3-4.5-10.3c-3.2-1.9-8.3,0.6-10.9-3.8c0-0.6,0-2.6,0-3.2c-0.6-1.3-3.2-0.6-4.5-1.9
			c-2.9-2.4-3.6-6.2-5.9-8.8l0.2,2l-0.4,1.2l-1.2,0.8l-3.5,0.4l-1.6,0.4l-2.4,2.4l-1.2,3.1v3.5l0.8,3.5v0.4l2,6.7l-0.4,5.1l-2,5.1
			l-2,6.7l-3.1,4.3l-6.3-2l-7.1-3.5l-5.1,0.4l-1.6,5.1l0.4,7.1l-1.2,6.3l-6.3,4.3l-6.7,0.8l-2.7,1.2l-2.4,3.1l-0.8,3.1l0.8,5.5
			l-0.8,3.1l-6.7,7.1l-1.6,4.3l3.5,3.9l2,1.2l2,1.6l1.6,2l0.8,2l0.8,3.1l1.2,1.6l1.2,1.2l0.8,2l0.6,3.6
			C117.1,178.2,118.1,178.2,119,177.9z" id="_x36_15" title="ثلاث باباجانی"></path>
		<path class="st3 area" d="M392.6,388.1c-2.6-8.3,2.6-16.7-2.6-25c-3.2-5.8,3.8-14.7,0-19.9c-6.4-6.4-12.8-7.7-15.4-19.2
			c-0.6-5.8-7.7-5.8-14.1-7.7c-5.8-1.9,0-10.3-3.8-13.5c-10.9-9.6-28.2-9.6-37.8-20.5c-2.6-2.6,4.5-8.3,0-10.9
			c-4.5-1.9-9.6-0.6-14.7-0.6c2-7.9-2.9-11.9-7.3-16.3c-0.5,3.3-1.2,6.5-4.2,7.4c-5.1,1.9-9.6,4.5-12.8,8.3c-3.2,5.1,5.1,9,2.6,14.1
			c-3.8,6.4-10.9,8.3-16,13.5c-3.9,2.9-3.7,8.5-5.7,13.2c6.8,2.4,10.4,9.6,14.7,16.3c7,10.9,26.3,15.4,22.4,28.2c0,0,0,0.1,0,0.1
			c3.7,3.2,8.1,6.8,12.5,10.5c12.7,10.6,25.8,21.5,30.4,26.9c4.5,5.3,15.4,6,24.2,6.7c4.7,0.3,9.1,0.6,12.3,1.6
			c5.5,1.6,17.9,0.5,25.7-2.6C398.3,396.3,393.8,393.2,392.6,388.1z" id="_x32_67" title="اسلام آباد غرب"></path>
		<path class="st2 area" d="M197.8,69c5.8,1.9,11.5-1.9,17.3,1.3c7.1,3.8,10.3,9.6,10.3,17.9c0,3.2,5.1,7.1,8.3,4.5
			c3.2-1.9,7.7-5.8,10.2-2.6c2.1,1.8,4.2,3.1,6.5,4.2c3.6-2.8,10-0.4,14.7-3.5c3.2-2.6,3.8-7.1,5.1-9.6c2.6-5.1,8.3,0.6,12.2,0.6
			c3.1,0,5.3-2.5,7.7-4.7c-2.5-9.1-2.9-18.7-2.9-24.1c0-4.8-5.5-8.9-11.4-13.3c-5.8-4.3-11.9-8.9-14-15.2c-1.9-5.8-4.2-9.3-7.1-10.6
			c-2.2-1-5.1-0.8-8.7,0.6c-9.1,3.6-19.5,5.6-21.7,6l1.8,1.4l-0.8,7.1l-5.1,8.2l-3.1,7.8l5.1,5.1l-2,3.5l-2.4,1.2l-3.1,0.4l-5.9,2
			l-3.9-0.8h-2.4l-6.3,3.5l-3.1,3.1l-2,0.4C193.1,65.9,195.1,67.9,197.8,69z" id="_x32_77" title="پاوه"></path>
		<path class="st2 area" d="M525,348.4c-0.8-1.2-5-5.9-6.5-7.4c-1.7-1.7-3.4-6.9-4.7-11l-0.1-0.8v-8.4c-1.2,0-2.4-0.1-3.8-0.6
			c-8.3-1.9-14.7-9-17.9-17.3c-1.9-3.2-5.8-6.4-9.6-9.6c-2.6-2.5,1.9-5.1,2.6-7c1.3-6.4,5.1-11.5,9.6-15.4c3.2-3.8-3.2-10.9-2.6-16
			c0.6-5.1,7.7-13.5,0-16c-5.8-1.3-12.2,7.7-17.9,1.3c-2.6-3.8,0-10.9-4.5-12.8c-6.4-2.6-13.5,6.4-16.7,0.6
			c-4.5-6.4-5.1-16-14.7-19.2c-2.6-0.6-4.5-4.5-2.6-7.1c2.2-2.6,4.1-5.3,5.5-8.3c-0.3-0.2-0.6-0.4-1-0.7c-4.5-2.6-9.6-8.3-5.8-10.9
			c7.7-5.8,9-11.5,11.5-19.2c0.6-3.2,4.5-5.1,8.3-4.5c-3.2-3.8-7.7-5.1-10.3-9.6c-0.6-1.3,0.6-3.8,0-5.1c-3.4-2.9-6.8-5.5-9.1-9.1
			c-9.8,6.6-36.1,2.3-37.3,2.1c-7.1-1.2-23.3-1.6-34.6-1.8c2,4.6,3,9.5-0.4,13.9c-1.3,1.3-1.3,4.5,0,5.1c1.9,2.6,5.8,3.2,4.5,7
			c-0.6,3.2-5.1,2.6-5.8,4.5c-1.9,5.1,3.2,10.3,0.6,14.7c-3.8,6.4,0,12.8-3.2,17.3c-4.5,6.4-12.2-2.6-19.2-1.3
			c-6.4,1.3-10.3,10.9-16.7,7.1c-3.8-2.6-4.5-9-9.6-10.9c-3.8-1.3-8.3,3.8-12.2,0c-5.8-7-12.8-13.5-22.4-10.9
			c-4.5,0.6-7.7,6.4-5.1,10.9c4.5,7.1,8.3,14.7,10.3,23.7c0.6,2.6,5.8,5.8,7.7,9.6c3.2,7.1-1.9,12.8-0.6,19.2
			c1.9,10.9,16.7,13.5,13.5,26.3c5.1,0,10.3-1.3,14.7,0.6c4.5,2.6-2.6,8.3,0,10.9c9.6,10.9,26.9,10.9,37.8,20.5
			c3.8,3.2-1.9,11.5,3.8,13.5c6.4,1.9,13.5,1.9,14.1,7.7c2.6,11.5,9,12.8,15.4,19.2c3.8,5.1-3.2,14.1,0,19.9c5.1,8.3,0,16.7,2.6,25
			c1.1,5,5.7,8.1,10.3,10.5c1.3-0.5,2.6-1.1,3.6-1.7c1.4-0.9,2.2-1.8,2.3-2.5c1-6.1,4-8.9,6.2-10.2c3.7-2.2,8.7-2.1,14.7,0.1
			c12.4,4.7,34.2,11.6,43.4,11.6c9.3,0,19.3-8.2,19.3-14.1c0-8.2-1.4-16.3-3.4-19.3c-2.1-3.1-4.2-11.3-0.7-15.2
			c0.9-1,3.5-3.2,8.4-0.8c5.4,2.7,23.5,8,33.3,10.8C528.1,353.8,525.6,349.4,525,348.4z" id="_x32_72" title="کرمانشاه"></path>
		<path class="st1 area" d="M547.1,252.9c-6.4-3.2-8.3-12.2-14.7-16c-5.8-2.6-12.2,4.5-17.9,1.9c-0.6-0.6-1.9,0-2.6-0.6
			c-1.3-4.5,3.2-7.7,5.1-11.5c0-0.6,0.6-1.9-0.6-3.2c-3.8-3.8-9.6-5.1-12.2-9.6c-1.3-1.9-0.6-4.5,1.3-6.4c1.3-2.6,1.3-5.8-0.6-7.7
			c-0.6-0.6-2.6,0.6-3.2,0c-3.8-3.8-3.8-10.9-9-12.2c-8.3-1.3-14.7,7.7-23.1,5.1c-4.5-1.3-9.6-4.5-14.1-2.6
			c-4.8,2.4-9.1,6.5-14.4,3.2c-1.4,3-3.3,5.7-5.5,8.3c-1.9,2.6,0,6.4,2.6,7c9.6,3.2,10.3,12.8,14.7,19.2c3.2,5.8,10.3-3.2,16.7-0.6
			c4.5,1.9,1.9,9,4.5,12.8c5.8,6.4,12.2-2.6,17.9-1.3c7.7,2.6,0.6,10.9,0,16c-0.6,5.1,5.8,12.2,2.6,16c-4.5,3.8-8.3,9-9.6,15.4
			c-0.6,1.9-5.1,4.5-2.6,7c3.8,3.2,7.7,6.4,9.6,9.6c3.2,8.3,9.6,15.4,17.9,17.3c1.3,0.4,2.6,0.6,3.8,0.6v-1.5l0.6-0.8
			c1-1.2,9.8-12.3,15-15.4c2.3-1.4,6.2-6,9.7-10.1c3.2-3.8,6.2-7.4,8.6-9.3c3.7-3,7.7-17.2,8.2-21.2c0.3-2.3,2.3-9.1,3.8-14
			C555.7,251.9,551,254.8,547.1,252.9z" id="_x32_73" title="هرسین"></path>
		<path class="st3 area" d="M595.8,220.2c-3.8-5.1-9-6.4-14.7-8.3c-7.7-1.9-7.7-9-12.2-15.4c-1.3-1.9-4.5-1.9-7-3.2
			c-1.3-1.9-3.2-4.5-1.9-6.4c3.8-4.8,6.1-10.7,6.4-16.4c-13.1-0.3-23.1-9.3-34.6-16.2c-5.8-3.8-13.5,2.6-20.5,3.2
			c-20.5,1.9-32-19.2-47.4-31.4c-2.6-1.9-8.3-0.6-12.2,1.3c-3.7,1.7-9.1,3.8-13.6,3.1c-0.3,0.9-0.8,1.6-1.3,2.1
			c-0.5,0.6-1.2,1.2-1.9,1.7c2.3,3.6,5.7,6.2,9.1,9.1c0.6,1.3-0.6,3.8,0,5.1c2.6,4.5,7,5.8,10.3,9.6c-3.8-0.6-7.7,1.3-8.3,4.5
			c-2.6,7.7-3.8,13.5-11.5,19.2c-3.8,2.6,1.3,8.3,5.8,10.9c5.8,4.5,10.3,0,15.4-2.6c4.5-1.9,9.6,1.3,14.1,2.6
			c8.3,2.6,14.7-6.4,23.1-5.1c5.1,1.3,5.1,8.3,9,12.2c0.6,0.6,2.6-0.6,3.2,0c1.9,1.9,1.9,5.1,0.6,7.7c-1.9,1.9-2.6,4.5-1.3,6.4
			c2.6,4.5,8.3,5.8,12.2,9.6c1.3,1.3,0.6,2.6,0.6,3.2c-1.9,3.8-6.4,7.1-5.1,11.5c0.6,0.6,1.9,0,2.6,0.6c5.8,2.6,12.2-4.5,17.9-1.9
			c6.4,3.8,8.3,12.8,14.7,16c3.9,2,8.6-1,12.6-4.5c0.8-2.8,1.5-5,1.7-5.5l1.1-3.6l14.3,8.7c1.3-4.8,0.6-9.2,5.6-13
			c3.8-2.6-4.5-4.5-2.6-9c0.6-1.3,1.9-2.6,2.6-3.2c4.5-0.6,8.3,5.1,12.8,1.9C595.8,223.4,596.4,221.5,595.8,220.2z" id="_x32_70" title="صحنه"></path>
		<path class="st2 area active" d="M648.2,184.4c-3.4-1.6-12.4-5.4-21.3-6.9c-11.5-1.9-17.9-3.9-26.3-8.1c-3.1-1.6-4.9-4.9-6.2-9.1
			c-6.3,5.6-14.7,8.7-23.7,9.9c-1.5,0.2-3,0.3-4.5,0.2c-0.3,5.7-2.6,11.6-6.4,16.4c-1.3,1.9,0.6,4.5,1.9,6.4c2.6,1.3,5.8,1.3,7,3.2
			c4.5,6.4,4.5,13.5,12.2,15.4c5.8,1.9,10.9,3.2,14.7,8.3c0.6,1.3,0,3.2-0.6,4.5c-4.5,3.2-8.3-2.6-12.8-1.9
			c-0.6,0.6-1.9,1.9-2.6,3.2c-1.9,4.5,6.4,6.4,2.6,9c-5,3.9-4.2,8.2-5.6,13l1.7,1l6.3-1.5l6.2,3.6h24.2c1.8-3.5,4.1-5.8,4.3-6
			l15.6-17.5c7.3-7.3,14.9-16.8,14.9-19.6C650,203.3,648.7,189.3,648.2,184.4z" id="_x32_91" title="کنگاور"></path>

	<line class="st4 area" x1="142.7" y1="210.7" x2="94.8" y2="174.4" id="LINE_17" title=""></line>

<g id="G_18" class="area" title="">
	<path d="M245,54.4c0,0.7-0.2,1.2-0.6,1.6c-0.4,0.4-1,0.5-1.6,0.5c-0.4,0-0.8-0.1-1.1-0.4c-0.3-0.3-0.5-0.6-0.5-1
		c0-0.5,0.2-1,0.6-1.7c0.3-0.6,0.7-1.1,1.1-1.5C244.3,52.6,245,53.4,245,54.4z M244.5,54.8c0-0.3-0.2-0.6-0.7-1
		c-0.4-0.4-0.7-0.6-1.1-0.7c-0.5,0.7-0.8,1.2-0.8,1.6c0,0.2,0.1,0.4,0.4,0.6c0.2,0.1,0.4,0.2,0.7,0.2c0.4,0,0.8-0.1,1.1-0.2
		C244.3,55,244.5,54.9,244.5,54.8z" id="PATH_19" class="area" title=""></path>
	<path d="M250.2,56.1c0,1.5-0.5,2.8-1.5,3.8c-0.3,0.3-0.5,0.5-0.6,0.5c-0.6,0-1.2-0.1-1.9-0.2c-0.3,0-0.4-0.1-0.4-0.1
		c0,0,0.1-0.1,0.4-0.2c0.8-0.2,1.6-0.7,2.3-1.3c0.3-0.3,0.6-0.5,0.8-0.9c0.3-0.4,0.5-0.8,0.5-1.1v-0.3l-1.3,0
		c-0.9,0-1.4-0.4-1.4-1.1c0-0.5,0.1-1,0.4-1.6c0.3-0.6,0.7-1,1.1-1c0.6,0,1.1,0.4,1.4,1.3C250.1,54.6,250.2,55.3,250.2,56.1z
		 M249.5,55.2c0-0.3-0.1-0.6-0.3-0.9c-0.2-0.3-0.5-0.5-0.8-0.5c-0.2,0-0.4,0.1-0.5,0.2c-0.2,0.2-0.2,0.3-0.2,0.5
		c0,0.5,0.3,0.7,1,0.7C248.8,55.3,249.1,55.3,249.5,55.2z" id="PATH_20" class="area" title=""></path>
	<path d="M254.1,56.5h-0.7c-0.7,0-1.3-0.3-1.5-0.9c-0.2-0.4-0.3-1.1-0.3-1.9v-1.9c0-0.9-0.1-2.2-0.2-3.9l0.6-0.7
		c0.1-0.1,0.2-0.1,0.2,0c0.1,0.9,0.2,2.2,0.2,3.9v2.9c0,0.8,0.4,1.2,1.2,1.2h0.5V56.5z" id="PATH_21" class="area" title=""></path>
	<path d="M256.5,54.5c0,1.3-0.7,2-2,2h-0.8v-1.2h0.7c1,0,1.5-0.2,1.5-0.5c0-0.3-0.2-0.7-0.7-1.2l0.4-1c0-0.1,0.1-0.1,0.1-0.1
		c0,0,0.1,0.1,0.2,0.2C256.3,53.2,256.5,53.8,256.5,54.5z M254.2,58.4l0.7-0.7l0.7,0.7l-0.7,0.7L254.2,58.4z M255.1,60l0.7-0.7
		l0.7,0.7l-0.7,0.7L255.1,60z M255.9,58.4l0.7-0.7l0.7,0.7l-0.7,0.7L255.9,58.4z" id="PATH_22" class="area" title=""></path>
</g>
<g id="G_23" class="area" title="">
	<path d="M256.8,136.7c0,1.4-0.9,2.1-2.8,2.1c-0.7,0-1.2-0.1-1.5-0.3c-0.4-0.2-0.6-0.7-0.6-1.3c0-0.3,0.1-0.6,0.2-0.9
		c0.1-0.1,0.1-0.2,0.2-0.2c0.1,0,0.1,0.1,0.1,0.3c0,0.1,0,0.2,0,0.3c0,0.4,0.2,0.7,0.6,0.8c0.2,0.1,0.6,0.1,1.1,0.1
		c1.5,0,2.2-0.2,2.2-0.7c0-0.7-0.9-1.7-2.6-2.9l0.3-1c0-0.1,0.1-0.1,0.1-0.1c0,0,0.1,0,0.2,0.1C255.9,134.3,256.8,135.6,256.8,136.7
		z" id="PATH_24" class="area" title=""></path>
	<path d="M261.9,138.4c0,1.5-0.5,2.8-1.5,3.8c-0.3,0.3-0.5,0.5-0.6,0.5c-0.6,0-1.2-0.1-1.9-0.2c-0.3,0-0.4-0.1-0.4-0.1
		c0,0,0.1-0.1,0.4-0.2c0.8-0.2,1.6-0.7,2.3-1.3c0.3-0.3,0.6-0.5,0.8-0.9c0.3-0.4,0.5-0.8,0.5-1.1v-0.3l-1.3,0
		c-0.9,0-1.4-0.4-1.4-1.1c0-0.5,0.1-1,0.4-1.6c0.3-0.6,0.7-1,1.1-1c0.6,0,1.1,0.4,1.4,1.3C261.8,137,261.9,137.6,261.9,138.4z
		 M261.2,137.6c0-0.3-0.1-0.6-0.3-0.9c-0.2-0.3-0.5-0.5-0.8-0.5c-0.2,0-0.4,0.1-0.5,0.2c-0.2,0.2-0.2,0.3-0.2,0.5
		c0,0.5,0.3,0.7,1,0.7C260.5,137.7,260.8,137.6,261.2,137.6z" id="PATH_25" class="area" title=""></path>
	<path d="M268.1,138.8h-0.4c-0.4,0-0.6-0.1-0.8-0.2c0,0.1,0,0.2,0,0.3c0,0.9-0.3,1.8-0.9,2.7c-0.5,0.8-1,1.1-1.3,1.1
		c-0.8,0-1.4,0-2-0.1c-0.2,0-0.3-0.1-0.3-0.1s0.1-0.1,0.3-0.1c0.8-0.2,1.6-0.6,2.4-1.2c0.8-0.7,1.3-1.4,1.3-2.1c0-0.4-0.3-1-1-1.7
		l0.5-0.9c0-0.1,0.1-0.1,0.1-0.1c0,0,0.1,0.1,0.1,0.1c0.3,0.4,0.5,0.7,0.7,0.8c0.3,0.2,0.7,0.4,1.1,0.4h0.3V138.8z" id="PATH_26" class="area" title=""></path>
	<path d="M270.5,136.8c0,1.3-0.7,2-2,2h-0.8v-1.2h0.7c1,0,1.5-0.2,1.5-0.5c0-0.3-0.2-0.7-0.7-1.2l0.4-1c0-0.1,0.1-0.1,0.1-0.1
		c0,0,0.1,0.1,0.2,0.2C270.3,135.5,270.5,136.2,270.5,136.8z M270.5,132.3l-0.8,0.8l-0.8-0.8l0.8-0.8L270.5,132.3z" id="PATH_27" class="area" title=""></path>
	<path d="M272.9,137.6c0,0.4-0.1,0.8-0.3,1.1c-0.1,0.2-0.2,0.3-0.2,0.3c0,0-0.1-0.1-0.1-0.4c0-1.2-0.2-4-0.6-8.5l0.8-0.8
		c0.1-0.1,0.1-0.1,0.1-0.1c0,0,0,0.1,0,0.2C272.8,130.7,272.9,133.5,272.9,137.6z" id="PATH_28" class="area" title=""></path>
	<path d="M279.1,138.8H278c-0.1,1.4-0.6,2.5-1.6,3.5c-0.3,0.3-0.5,0.5-0.6,0.5c-0.5,0-1.2-0.1-1.9-0.2c-0.2,0-0.4-0.1-0.4-0.1
		s0.1-0.1,0.4-0.2c0.8-0.2,1.6-0.7,2.3-1.2c0.3-0.3,0.6-0.5,0.8-0.9c0.3-0.4,0.5-0.8,0.5-1.1v-0.3h-1.3c-1,0-1.4-0.4-1.4-1.2
		c0-0.5,0.1-1,0.4-1.6c0.3-0.6,0.7-1,1.1-1c0.5,0,0.9,0.3,1.2,1c0.2,0.5,0.4,1,0.4,1.6h1.1V138.8z M277.3,137.6
		c0-0.3-0.1-0.6-0.3-0.9c-0.2-0.4-0.5-0.5-0.8-0.5c-0.2,0-0.4,0.1-0.5,0.2c-0.2,0.2-0.2,0.3-0.2,0.6c0,0.5,0.4,0.7,1.2,0.7
		C276.7,137.7,277,137.7,277.3,137.6z" id="PATH_29" class="area" title=""></path>
	<path d="M286.9,135.9l-0.4,0.8c-0.7,0-1.3,0-1.6,0.1c-0.4,0.2-1,0.4-1.8,0.8c-0.8,0.4-1.4,0.7-1.8,0.8c-0.6,0.2-1.3,0.3-1.9,0.3
		h-0.7v-1.2h0.8c0.9,0,1.7-0.2,2.4-0.5l2.3-1c-0.4-0.1-1-0.3-1.8-0.6c-0.7-0.3-1.1-0.4-1.3-0.4c-0.4,0-0.8,0.2-1.2,0.5
		c-0.1,0.1-0.1,0.1-0.2,0.1c-0.1,0-0.1,0-0.1-0.1c0,0,0-0.1,0-0.1c0.3-1,0.9-1.4,1.7-1.4c0.3,0,0.7,0.1,1.1,0.3
		c0.8,0.4,1.4,0.6,1.8,0.8c0.7,0.2,1.5,0.4,2.4,0.4c0.2,0,0.3,0,0.3,0.1C287,135.7,287,135.8,286.9,135.9z M283.6,140.8l-0.8,0.8
		l-0.8-0.8l0.8-0.8L283.6,140.8z" id="PATH_30" class="area" title=""></path>
</g>
<g id="G_31" class="area" title="">
	<path d="M151.2,138.8h-2.3c-0.3,0-0.6,0-0.8,0.1c-0.4,0.1-0.5,0.3-0.5,0.5c0,0.1,0.5,0.2,1.4,0.4c1,0.2,1.4,0.4,1.4,0.6
		c0,0.8-0.2,1.4-0.7,1.8c-0.8,0.7-2.1,1-4,1c-2.3,0-3.5-0.9-3.5-2.6c0-0.4,0.1-0.8,0.3-1.3c0.2-0.5,0.4-0.9,0.6-1.2
		c0.1-0.1,0.2-0.2,0.3-0.2c0.1,0,0.1,0,0.1,0.1c0,0.1,0,0.2-0.1,0.3c-0.3,0.6-0.5,1.2-0.5,1.8c0,0.7,0.3,1.2,1,1.5
		c0.5,0.3,1.1,0.4,1.9,0.4c0.8,0,1.5,0,2.2-0.1c1.2-0.2,1.8-0.4,1.8-0.8c0-0.2-0.3-0.3-0.8-0.4c-0.8-0.1-1.3-0.2-1.5-0.3
		c-0.5-0.1-0.8-0.4-0.8-0.7c0-0.2,0.1-0.5,0.4-0.9c0.2-0.3,0.4-0.5,0.7-0.7c0.5-0.4,1.1-0.6,2-0.6h1.4V138.8z" id="PATH_32" class="area" title=""></path>
	<path d="M153.6,136.8c0,1.3-0.7,2-2,2h-0.8v-1.2h0.7c1,0,1.5-0.2,1.5-0.5c0-0.3-0.2-0.7-0.7-1.2l0.4-1c0-0.1,0.1-0.1,0.1-0.1
		c0,0,0.1,0.1,0.2,0.2C153.4,135.5,153.6,136.2,153.6,136.8z M153.5,132.3l-0.8,0.8l-0.8-0.8l0.8-0.8L153.5,132.3z" id="PATH_33" class="area" title=""></path>
	<path d="M157.5,138.8h-0.7c-0.7,0-1.3-0.3-1.5-0.9c-0.2-0.4-0.3-1.1-0.3-1.9v-1.9c0-0.9-0.1-2.2-0.2-3.9l0.6-0.7
		c0.1-0.1,0.2-0.1,0.2,0c0.1,0.9,0.2,2.2,0.2,3.9v2.9c0,0.8,0.4,1.2,1.2,1.2h0.5V138.8z" id="PATH_34" class="area" title=""></path>
	<path d="M165.3,135.9l-0.4,0.8c-0.7,0-1.3,0-1.6,0.1c-0.4,0.2-1,0.4-1.8,0.8c-0.8,0.4-1.4,0.7-1.8,0.8c-0.6,0.2-1.3,0.3-1.9,0.3
		h-0.7v-1.2h0.8c0.9,0,1.7-0.2,2.4-0.5l2.3-1c-0.4-0.1-1-0.3-1.8-0.6c-0.7-0.3-1.1-0.4-1.3-0.4c-0.4,0-0.8,0.2-1.2,0.5
		c-0.1,0.1-0.1,0.1-0.2,0.1c-0.1,0-0.1,0-0.1-0.1c0,0,0-0.1,0-0.1c0.3-1,0.9-1.4,1.7-1.4c0.3,0,0.7,0.1,1.1,0.3
		c0.8,0.4,1.4,0.6,1.8,0.8c0.7,0.2,1.5,0.4,2.4,0.4c0.2,0,0.3,0,0.3,0.1C165.4,135.7,165.4,135.8,165.3,135.9z M162,140.8l-0.8,0.8
		l-0.8-0.8l0.8-0.8L162,140.8z" id="PATH_35" class="area" title=""></path>
	<path d="M169.4,138.8h-0.7c-0.7,0-1.3-0.3-1.5-0.9c-0.2-0.4-0.3-1.1-0.3-1.9v-1.9c0-0.9-0.1-2.2-0.2-3.9l0.6-0.7
		c0.1-0.1,0.2-0.1,0.2,0c0.1,0.9,0.2,2.2,0.2,3.9v2.9c0,0.8,0.4,1.2,1.2,1.2h0.5V138.8z" id="PATH_36" class="area" title=""></path>
	<path d="M171.8,136.8c0,1.3-0.7,2-2,2H169v-1.2h0.7c1,0,1.5-0.2,1.5-0.5c0-0.3-0.2-0.7-0.7-1.2l0.4-1c0-0.1,0.1-0.1,0.1-0.1
		c0,0,0.1,0.1,0.2,0.2C171.6,135.5,171.8,136.2,171.8,136.8z M171.5,141l-0.8,0.8l-0.8-0.8l0.8-0.8L171.5,141z" id="PATH_37" class="area" title=""></path>
	<path d="M175.7,138.8h-0.7c-0.7,0-1.3-0.3-1.5-0.9c-0.2-0.4-0.3-1.1-0.3-1.9v-1.9c0-0.9-0.1-2.2-0.2-3.9l0.6-0.7
		c0.1-0.1,0.2-0.1,0.2,0c0.1,0.9,0.2,2.2,0.2,3.9v2.9c0,0.8,0.4,1.2,1.2,1.2h0.5V138.8z" id="PATH_38" class="area" title=""></path>
	<path d="M178.1,136.8c0,1.3-0.7,2-2,2h-0.8v-1.2h0.7c1,0,1.5-0.2,1.5-0.5c0-0.3-0.2-0.7-0.7-1.2l0.4-1c0-0.1,0.1-0.1,0.1-0.1
		c0,0,0.1,0.1,0.2,0.2C177.9,135.5,178.1,136.2,178.1,136.8z M177.8,141l-0.8,0.8l-0.8-0.8l0.8-0.8L177.8,141z" id="PATH_39" class="area" title=""></path>
	<path d="M192.9,136.6c0,0.7-0.2,1.3-0.7,1.6c-0.3,0.2-0.9,0.4-1.8,0.5c-1,0.2-2,0.3-3.1,0.3c-2.6,0-4-0.7-4-2.2
		c0-0.5,0.2-1,0.6-1.5c0.1-0.1,0.1-0.2,0.2-0.2c0.1,0,0.1,0,0.1,0.1c0,0,0,0.1,0,0.2c-0.1,0.3-0.2,0.6-0.2,0.9c0,1,1.3,1.5,3.8,1.5
		c1.2,0,2.3-0.1,3.1-0.2c1-0.2,1.4-0.4,1.4-0.7c0-0.2-0.2-0.6-0.7-1.2l0.5-0.9c0.1-0.1,0.1-0.1,0.2,0
		C192.7,135.5,192.9,136.1,192.9,136.6z M188,133.8l-0.7,0.7l-0.7-0.7l0.7-0.7L188,133.8z M188.8,132.2l-0.7,0.7l-0.7-0.7l0.7-0.7
		L188.8,132.2z M189.7,133.8l-0.7,0.7l-0.7-0.7l0.7-0.7L189.7,133.8z" id="PATH_40" class="area" title=""></path>
	<path d="M202.2,138.8h-0.6c-1.2,0-1.9-0.9-1.9-2.7c0-0.2,0-0.5,0-0.9c-0.8,1.9-1.7,3.3-2.9,4.1c-0.7,0.2-1.6,0.3-2.6,0.3
		c-0.2,0-0.3,0-0.3,0c0,0,0.3-0.2,0.9-0.5c0.4-0.2,0.8-0.4,1.2-0.6c0.7-0.3,1.4-0.8,2-1.5c-0.3-1-0.7-1.9-1.3-2.7
		c-0.4-0.5-1-1.1-1.9-1.8l-0.1,0.4c-0.3-0.2-0.5-0.4-0.7-0.6c-0.3-0.3-0.5-0.5-0.5-0.7c0-0.2,0-0.5,0.1-1c0-0.1,0-0.2,0.1-0.2
		s0.1,0,0.2,0.1c1.3,0.9,2.3,1.8,2.9,2.6c0.8,1,1.3,2.1,1.6,3.4c0.4-0.5,0.7-1,0.9-1.6c0.3-0.7,0.4-1.3,0.4-1.8c0-0.9-0.1-1.9-0.2-3
		l0.8-0.7c0.1,0.5,0.1,2.8,0.2,6.9c0,0.9,0.4,1.4,1.2,1.4h0.5V138.8z" id="PATH_41" class="area" title=""></path>
	<path d="M204.6,136.8c0,1.3-0.7,2-2,2h-0.8v-1.2h0.7c1,0,1.5-0.2,1.5-0.5c0-0.3-0.2-0.7-0.7-1.2l0.4-1c0-0.1,0.1-0.1,0.1-0.1
		c0,0,0.1,0.1,0.2,0.2C204.4,135.5,204.6,136.2,204.6,136.8z M203.5,132.6l-0.7,0.7l-0.7-0.7l0.7-0.7L203.5,132.6z M204.4,131.1
		l-0.7,0.7l-0.7-0.7l0.7-0.7L204.4,131.1z M205.3,132.6l-0.7,0.7l-0.7-0.7l0.7-0.7L205.3,132.6z" id="PATH_42" class="area" title=""></path>
</g>
<g id="G_43" class="area" title="">
	<path d="M313.8,158.5h-0.4c-0.4,0-0.6-0.1-0.8-0.2c0,0.1,0,0.2,0,0.3c0,0.9-0.3,1.8-0.9,2.7c-0.5,0.8-1,1.1-1.3,1.1
		c-0.8,0-1.4,0-2-0.1c-0.2,0-0.3-0.1-0.3-0.1s0.1-0.1,0.3-0.1c0.8-0.2,1.6-0.6,2.4-1.2c0.8-0.7,1.3-1.4,1.3-2.1c0-0.4-0.3-1-1-1.7
		l0.5-0.9c0-0.1,0.1-0.1,0.1-0.1c0,0,0.1,0.1,0.1,0.1c0.3,0.4,0.5,0.7,0.7,0.8c0.3,0.2,0.7,0.4,1.1,0.4h0.3V158.5z" id="PATH_44" class="area" title=""></path>
	<path d="M323.1,158.5h-0.6c-0.7,0-1.1-0.3-1.4-0.8c-0.2,0.6-0.7,0.8-1.3,0.8c-0.6,0-1-0.3-1.3-0.8c-0.3,0.6-0.7,0.8-1.3,0.8
		c-0.7,0-1.2-0.3-1.5-0.8c-0.4,0.6-0.9,0.8-1.6,0.8h-0.7v-1.2h0.8c0.7,0,1.2-0.4,1.3-1.2c0-0.2,0.1-0.3,0.2-0.3
		c0.1,0,0.1,0.1,0.2,0.3c0.1,0.8,0.5,1.2,1.3,1.2c0.7,0,1.2-0.4,1.2-1.2c0-0.2,0.1-0.3,0.2-0.3c0.1,0,0.2,0.1,0.2,0.3
		c0.1,0.8,0.5,1.2,1,1.2c0.7,0,1.2-0.4,1.2-1.2c0-0.2,0.1-0.3,0.2-0.3c0.1,0,0.2,0.1,0.2,0.3c0.1,0.8,0.5,1.2,1.2,1.2h0.6V158.5z" id="PATH_45" class="area" title=""></path>
	<path d="M325.4,156.5c0,1.3-0.7,2-2,2h-0.8v-1.2h0.7c1,0,1.5-0.2,1.5-0.5c0-0.3-0.2-0.7-0.7-1.2l0.4-1c0-0.1,0.1-0.1,0.1-0.1
		c0,0,0.1,0.1,0.2,0.2C325.2,155.2,325.4,155.9,325.4,156.5z M325.4,152l-0.8,0.8l-0.8-0.8l0.8-0.8L325.4,152z" id="PATH_46" class="area" title=""></path>
	<path d="M327.8,157.3c0,0.4-0.1,0.8-0.3,1.1c-0.1,0.2-0.2,0.3-0.2,0.3c0,0-0.1-0.1-0.1-0.4c0-1.2-0.2-4-0.6-8.5l0.8-0.8
		c0.1-0.1,0.1-0.1,0.1-0.1c0,0,0,0.1,0,0.2C327.7,150.4,327.8,153.1,327.8,157.3z" id="PATH_47" class="area" title=""></path>
	<path d="M332.9,158.1c0,1.5-0.5,2.8-1.5,3.8c-0.3,0.3-0.5,0.5-0.6,0.5c-0.6,0-1.2-0.1-1.9-0.2c-0.3,0-0.4-0.1-0.4-0.1
		c0,0,0.1-0.1,0.4-0.2c0.8-0.2,1.6-0.7,2.3-1.3c0.3-0.3,0.6-0.5,0.8-0.9c0.3-0.4,0.5-0.8,0.5-1.1v-0.3l-1.3,0
		c-0.9,0-1.4-0.4-1.4-1.1c0-0.5,0.1-1,0.4-1.6c0.3-0.6,0.7-1,1.1-1c0.6,0,1.1,0.4,1.4,1.3C332.8,156.6,332.9,157.3,332.9,158.1z
		 M332.2,157.3c0-0.3-0.1-0.6-0.3-0.9c-0.2-0.3-0.5-0.5-0.8-0.5c-0.2,0-0.4,0.1-0.5,0.2c-0.2,0.2-0.2,0.3-0.2,0.5
		c0,0.5,0.3,0.7,1,0.7C331.5,157.4,331.8,157.3,332.2,157.3z" id="PATH_48" class="area" title=""></path>
	<path d="M338,158.6c0,1-0.3,1.9-0.9,2.8c-0.5,0.7-1,1.1-1.3,1.1c-0.8,0-1.4,0-2-0.1c-0.2,0-0.3-0.1-0.3-0.1s0.1-0.1,0.3-0.1
		c0.8-0.2,1.6-0.6,2.4-1.2c0.8-0.7,1.3-1.4,1.3-2.1c0-0.4-0.3-1-1-1.7l0.5-0.9c0-0.1,0.1-0.1,0.1-0.1c0,0,0.1,0.1,0.1,0.1
		c0.2,0.3,0.5,0.7,0.6,1.2C337.9,157.8,338,158.2,338,158.6z" id="PATH_49" class="area" title=""></path>
</g>
<g id="G_50" class="area" title="">
	<path d="M227.7,241.7h-1.1c-0.1,1.4-0.6,2.5-1.6,3.5c-0.3,0.3-0.5,0.5-0.6,0.5c-0.5,0-1.2-0.1-1.9-0.2c-0.2,0-0.4-0.1-0.4-0.1
		c0,0,0.1-0.1,0.4-0.2c0.8-0.2,1.6-0.7,2.3-1.2c0.3-0.3,0.6-0.5,0.8-0.9c0.3-0.4,0.5-0.8,0.5-1.1v-0.3h-1.3c-1,0-1.4-0.4-1.4-1.2
		c0-0.5,0.1-1,0.4-1.6c0.3-0.6,0.7-1,1.1-1c0.5,0,0.9,0.3,1.2,1c0.2,0.5,0.4,1,0.4,1.6h1.1V241.7z M225.9,240.5
		c0-0.3-0.1-0.6-0.3-0.9c-0.2-0.4-0.5-0.5-0.8-0.5c-0.2,0-0.4,0.1-0.5,0.2c-0.2,0.2-0.2,0.3-0.2,0.6c0,0.5,0.4,0.7,1.2,0.7
		C225.4,240.5,225.6,240.5,225.9,240.5z" id="PATH_51" class="area" title=""></path>
	<path d="M233.8,239.6c0,0.4-0.1,0.8-0.4,1.2c-0.3,0.5-0.6,0.7-1,0.7c-0.3,0-1-0.2-2.1-0.7c-0.9,0.6-1.7,0.8-2.4,0.8h-0.5v-1.2h0.6
		c0.4,0,0.8,0,1.2-0.1c-0.4-0.3-0.6-0.7-0.6-1.2c0-0.6,0.4-1.3,1.3-2l-0.7-0.3c0.2-0.2,0.5-0.5,0.9-0.9c0.9,0.5,1.7,0.9,2.4,1.5
		C233.3,238.2,233.8,239,233.8,239.6z M231.2,238.8c0-0.3-0.1-0.5-0.2-0.7c-0.1-0.3-0.3-0.4-0.6-0.4c-0.3,0-0.5,0.1-0.8,0.3
		c-0.3,0.2-0.5,0.5-0.5,0.7c0,0.4,0.4,0.8,1.1,1c0.2-0.1,0.4-0.2,0.6-0.3C231.1,239.3,231.2,239.1,231.2,238.8z M233.3,240
		c0-0.3-0.2-0.6-0.6-1c-0.3-0.3-0.6-0.6-0.9-0.7c0,0.8-0.2,1.4-0.7,1.8c0.8,0.3,1.4,0.4,1.6,0.4C233.1,240.5,233.3,240.4,233.3,240z
		" id="PATH_52" class="area" title=""></path>
	<path d="M241.4,233.8c0,0.1,0,0.1,0.1,0.3c0,0-0.1,0-0.2,0h-0.3c0,0.8-0.1,1.7-0.3,2.5c-0.2,1.1-0.6,2-1,2.6
		c0.2,0.4,0.3,0.9,0.3,1.3c0,0.2-0.1,0.5-0.2,0.8c-0.1,0.3-0.3,0.5-0.5,0.6c-0.9,0.2-1.8,0.3-2.9,0.2l0.3-1.1c1-0.5,1.7-1,2.1-1.6
		c-1-1.3-2.1-2.6-3.4-3.9l-0.2,0.3c-0.7-0.8-1-1.2-1-1.4c0-0.2,0.1-0.5,0.2-1c0-0.1,0.1-0.2,0.1-0.2c0,0,0.1,0.1,0.3,0.2
		c1.9,1.8,3.4,3.6,4.4,5.4c0.4-0.6,0.6-1.5,0.7-2.6c0.1-0.9,0.1-1.9,0-3l0.8-0.8C241.2,232.9,241.3,233.4,241.4,233.8z M239.6,240.7
		c0,0,0-0.1,0-0.1c0-0.3-0.1-0.6-0.3-0.8c-0.3,0.4-0.7,0.8-1.2,1.2c0.1,0,0.2,0,0.4,0C238.9,240.9,239.3,240.8,239.6,240.7z" id="PATH_53" class="area" title=""></path>
	<path d="M243.9,240.4c0,0.4-0.1,0.8-0.3,1.1c-0.1,0.2-0.2,0.3-0.2,0.3c0,0-0.1-0.1-0.1-0.4c0-1.2-0.2-4-0.6-8.5l0.8-0.8
		c0.1-0.1,0.1-0.1,0.1-0.1c0,0,0,0.1,0,0.2C243.8,233.6,243.9,236.3,243.9,240.4z" id="PATH_54" class="area" title=""></path>
	<path d="M250,239.6c0,1.4-0.9,2.1-2.8,2.1c-0.7,0-1.2-0.1-1.5-0.3c-0.4-0.2-0.6-0.7-0.6-1.3c0-0.3,0.1-0.6,0.2-0.9
		c0.1-0.1,0.1-0.2,0.2-0.2c0.1,0,0.1,0.1,0.1,0.3c0,0.1,0,0.2,0,0.3c0,0.4,0.2,0.7,0.6,0.8c0.2,0.1,0.6,0.1,1.1,0.1
		c1.5,0,2.2-0.2,2.2-0.7c0-0.7-0.9-1.7-2.6-2.9l0.3-1c0-0.1,0.1-0.1,0.1-0.1c0,0,0.1,0,0.2,0.1C249.2,237.2,250,238.4,250,239.6z" id="PATH_55" class="area" title=""></path>
</g>
<g id="G_56" class="area" title="">
	<path d="M37.6,162.8c0,0.7-0.2,1.3-0.7,1.6c-0.3,0.2-0.9,0.4-1.8,0.5c-1,0.2-2,0.3-3.1,0.3c-2.6,0-4-0.7-4-2.2c0-0.5,0.2-1,0.6-1.5
		c0.1-0.1,0.1-0.2,0.2-0.2c0.1,0,0.1,0,0.1,0.1c0,0,0,0.1,0,0.2c-0.1,0.3-0.2,0.6-0.2,0.9c0,1,1.3,1.5,3.8,1.5
		c1.2,0,2.3-0.1,3.1-0.2c1-0.2,1.4-0.4,1.4-0.7c0-0.2-0.2-0.6-0.7-1.2l0.5-0.9c0.1-0.1,0.1-0.1,0.2,0
		C37.4,161.6,37.6,162.2,37.6,162.8z M33.6,167.3l-0.8,0.8l-0.8-0.8l0.8-0.8L33.6,167.3z" id="PATH_57" class="area" title=""></path>
	<path d="M41.5,165h-0.7c-0.7,0-1.3-0.3-1.5-0.9c-0.2-0.4-0.3-1.1-0.3-1.9v-1.9c0-0.9-0.1-2.2-0.2-3.9l0.6-0.7
		c0.1-0.1,0.2-0.1,0.2,0c0.1,0.9,0.2,2.2,0.2,3.9v2.9c0,0.8,0.4,1.2,1.2,1.2h0.5V165z" id="PATH_58" class="area" title=""></path>
	<path d="M47.6,163c0,0.4-0.1,0.8-0.4,1.2c-0.3,0.5-0.6,0.7-1,0.7c-0.3,0-1-0.2-2.1-0.7c-0.9,0.6-1.7,0.8-2.4,0.8h-0.5v-1.2h0.6
		c0.4,0,0.8,0,1.2-0.1c-0.4-0.3-0.6-0.7-0.6-1.2c0-0.6,0.4-1.3,1.3-2l-0.7-0.3c0.2-0.2,0.5-0.5,0.9-0.9c0.9,0.5,1.7,0.9,2.4,1.5
		C47.2,161.6,47.6,162.3,47.6,163z M45,162.2c0-0.3-0.1-0.5-0.2-0.7c-0.1-0.3-0.3-0.4-0.6-0.4c-0.3,0-0.5,0.1-0.8,0.3
		c-0.3,0.2-0.5,0.5-0.5,0.7c0,0.4,0.4,0.8,1.1,1c0.2-0.1,0.4-0.2,0.6-0.3C44.9,162.6,45,162.4,45,162.2z M47.1,163.4
		c0-0.3-0.2-0.6-0.6-1c-0.3-0.3-0.6-0.6-0.9-0.7c0,0.8-0.2,1.4-0.7,1.8c0.8,0.3,1.4,0.4,1.6,0.4C46.9,163.8,47.1,163.7,47.1,163.4z" id="PATH_59" class="area" title=""></path>
	<path d="M53.7,162.9c0,1.4-0.9,2.1-2.8,2.1c-0.7,0-1.2-0.1-1.5-0.3c-0.4-0.2-0.6-0.7-0.6-1.3c0-0.3,0.1-0.6,0.2-0.9
		c0.1-0.1,0.1-0.2,0.2-0.2c0.1,0,0.1,0.1,0.1,0.3c0,0.1,0,0.2,0,0.3c0,0.4,0.2,0.7,0.6,0.8c0.2,0.1,0.6,0.1,1.1,0.1
		c1.5,0,2.2-0.2,2.2-0.7c0-0.7-0.9-1.7-2.6-2.9l0.3-1c0-0.1,0.1-0.1,0.1-0.1c0,0,0.1,0,0.2,0.1C52.9,160.5,53.7,161.8,53.7,162.9z
		 M51.8,156.8l-0.8,0.8l-0.8-0.8L51,156L51.8,156.8z" id="PATH_60" class="area" title=""></path>
	<path d="M67.5,165H67c-0.5,0-0.9-0.2-1.1-0.5c0,0.6-0.1,1.3-0.2,2.2c-0.3,0.7-0.8,1.3-1.6,1.6c-0.7,0.3-1.4,0.5-2.3,0.5
		c-0.9,0-1.5-0.2-2-0.5c-0.6-0.4-0.9-1-0.9-1.9c0-0.8,0.2-1.6,0.7-2.2c0.1-0.1,0.1-0.1,0.2-0.1c0.1,0,0.1,0,0.1,0.1c0,0,0,0.1,0,0.1
		c-0.2,0.5-0.3,1-0.3,1.4c0,0.6,0.2,1.1,0.7,1.5c0.4,0.3,0.9,0.5,1.6,0.5c0.6,0,1.3-0.1,2-0.4c1-0.3,1.4-0.7,1.4-1.2l-0.1-4.8
		c-0.1-2.3-0.1-3.9-0.2-5l0.8-0.7c0,0.3,0.1,1.4,0.2,3.4l0.1,3.9c0,0.6,0.4,1,1.2,1h0.3V165z" id="PATH_61" class="area" title=""></path>
	<path d="M69.9,163c0,1.3-0.7,2-2,2h-0.8v-1.2h0.7c1,0,1.5-0.2,1.5-0.5c0-0.3-0.2-0.7-0.7-1.2l0.4-1c0-0.1,0.1-0.1,0.1-0.1
		c0,0,0.1,0.1,0.2,0.2C69.6,161.7,69.9,162.4,69.9,163z M67.5,167l0.7-0.7L69,167l-0.7,0.7L67.5,167z M68.4,168.5l0.7-0.7l0.7,0.7
		l-0.7,0.7L68.4,168.5z M69.3,167l0.7-0.7l0.7,0.7l-0.7,0.7L69.3,167z" id="PATH_62" class="area" title=""></path>
	<path d="M77.1,165h-0.4c-0.4,0-0.6-0.1-0.8-0.2c0,0.1,0,0.2,0,0.3c0,0.9-0.3,1.8-0.9,2.7c-0.5,0.8-1,1.1-1.3,1.1
		c-0.8,0-1.4,0-2-0.1c-0.2,0-0.3-0.1-0.3-0.1s0.1-0.1,0.3-0.1c0.8-0.2,1.6-0.6,2.4-1.2c0.8-0.7,1.3-1.4,1.3-2.1c0-0.4-0.3-1-1-1.7
		l0.5-0.9c0-0.1,0.1-0.1,0.1-0.1c0,0,0.1,0.1,0.1,0.1c0.3,0.4,0.5,0.7,0.7,0.8c0.3,0.2,0.7,0.4,1.1,0.4h0.3V165z" id="PATH_63" class="area" title=""></path>
	<path d="M85,162.9c0,0.6-0.1,1.1-0.4,1.5c-0.3,0.4-0.8,0.7-1.3,0.7c-0.7,0-1.1-0.3-1.4-0.8c-0.4,0.6-0.8,0.8-1.4,0.8
		c-0.7,0-1.2-0.3-1.5-0.8c-0.4,0.6-0.9,0.8-1.6,0.8h-0.7v-1.2h0.8c0.7,0,1.2-0.4,1.3-1.2c0-0.2,0.1-0.3,0.2-0.3
		c0.1,0,0.1,0.1,0.2,0.3c0.1,0.8,0.5,1.2,1.3,1.2c0.4,0,0.8-0.1,1-0.3c0.1-0.2,0.2-0.4,0.3-0.8c0-0.2,0.1-0.3,0.2-0.3
		c0.1,0,0.1,0.1,0.2,0.3c0.1,0.8,0.5,1.2,1.2,1.2c0.8,0,1.1-0.2,1.1-0.5c0-0.3-0.2-0.7-0.6-1.1l0.5-0.9c0.1-0.1,0.1-0.2,0.2-0.2
		s0.1,0.1,0.2,0.2C84.8,161.9,85,162.4,85,162.9z" id="PATH_64" class="area" title=""></path>
</g>
<g id="G_65" class="area" title="">
	<path d="M162.2,304.3c0,0.7-0.2,1.3-0.7,1.6c-0.3,0.2-0.9,0.4-1.8,0.5c-1,0.2-2,0.3-3.1,0.3c-2.6,0-4-0.7-4-2.2
		c0-0.5,0.2-1,0.6-1.5c0.1-0.1,0.1-0.2,0.2-0.2c0.1,0,0.1,0,0.1,0.1c0,0,0,0.1,0,0.2c-0.1,0.3-0.2,0.6-0.2,0.9c0,1,1.3,1.5,3.8,1.5
		c1.2,0,2.3-0.1,3.1-0.2c1-0.2,1.4-0.4,1.4-0.7c0-0.2-0.2-0.6-0.7-1.2l0.5-0.9c0.1-0.1,0.1-0.1,0.2,0
		C162,303.1,162.2,303.7,162.2,304.3z M158.3,308.8l-0.8,0.8l-0.8-0.8l0.8-0.8L158.3,308.8z" id="PATH_66" class="area" title=""></path>
	<path d="M168.4,306.5H168c-0.4,0-0.6-0.1-0.8-0.2c0,0.1,0,0.2,0,0.3c0,0.9-0.3,1.8-0.9,2.7c-0.5,0.8-1,1.1-1.3,1.1
		c-0.8,0-1.4,0-2-0.1c-0.2,0-0.3-0.1-0.3-0.1s0.1-0.1,0.3-0.1c0.8-0.2,1.6-0.6,2.4-1.2c0.8-0.7,1.3-1.4,1.3-2.1c0-0.4-0.3-1-1-1.7
		l0.5-0.9c0-0.1,0.1-0.1,0.1-0.1c0,0,0.1,0.1,0.1,0.1c0.3,0.4,0.5,0.7,0.7,0.8c0.3,0.2,0.7,0.4,1.1,0.4h0.3V306.5z" id="PATH_67" class="area" title=""></path>
	<path d="M174.1,306.5h-0.6c-0.8,0-1.5-0.2-2-0.7c0-0.1-0.1-0.1-0.2-0.3l-0.3,0.3c-0.6,0.5-1.3,0.7-2.1,0.7H168v-1.2h1
		c0.7,0,1.2-0.1,1.5-0.4c-0.1-0.2-0.2-0.4-0.4-0.6c-0.2-0.2-0.4-0.4-0.5-0.4c-0.2-0.1-0.3-0.1-0.3-0.2c0,0,0-0.1,0.1-0.2
		c0.3-0.6,0.8-0.9,1.7-0.9c1.1,0,1.7,0.3,1.7,1c0,0.3-0.3,0.7-0.9,1.3c0.1,0.1,0.4,0.3,0.7,0.4c0.3,0.1,0.5,0.1,0.8,0.1h0.8V306.5z
		 M171.9,299.5l-0.8,0.8l-0.8-0.8l0.8-0.8L171.9,299.5z" id="PATH_68" class="area" title=""></path>
	<path d="M176.5,304.5c0,1.3-0.7,2-2,2h-0.8v-1.2h0.7c1,0,1.5-0.2,1.5-0.5c0-0.3-0.2-0.7-0.7-1.2l0.4-1c0-0.1,0.1-0.1,0.1-0.1
		c0,0,0.1,0.1,0.2,0.2C176.3,303.2,176.5,303.9,176.5,304.5z M176.4,300l-0.8,0.8l-0.8-0.8l0.8-0.8L176.4,300z" id="PATH_69" class="area" title=""></path>
	<path d="M185.8,306.5h-0.6c-1.2,0-1.9-0.9-1.9-2.7c0-0.2,0-0.5,0-0.9c-0.8,1.9-1.7,3.3-2.9,4.1c-0.7,0.2-1.6,0.3-2.6,0.3
		c-0.2,0-0.3,0-0.3,0c0,0,0.3-0.2,0.9-0.5c0.4-0.2,0.8-0.4,1.2-0.6c0.7-0.3,1.4-0.8,2-1.5c-0.3-1-0.7-1.9-1.3-2.7
		c-0.4-0.5-1-1.1-1.9-1.8l-0.1,0.4c-0.3-0.2-0.5-0.4-0.7-0.6c-0.3-0.3-0.5-0.5-0.5-0.7c0-0.2,0-0.5,0.1-1c0-0.1,0-0.2,0.1-0.2
		s0.1,0,0.2,0.1c1.3,0.9,2.3,1.8,2.9,2.6c0.8,1,1.3,2.1,1.6,3.4c0.4-0.5,0.7-1,0.9-1.6c0.3-0.7,0.4-1.3,0.4-1.8c0-0.9-0.1-1.9-0.2-3
		l0.8-0.7c0.1,0.5,0.1,2.8,0.2,6.9c0,0.9,0.4,1.4,1.2,1.4h0.5V306.5z" id="PATH_70" class="area" title=""></path>
	<path d="M190.7,306.5H190c-0.9,0-1.5-0.3-1.9-0.9c-0.3,0.6-1,0.9-2.1,0.9h-0.6v-1.2h0.9c1,0,1.5-0.4,1.6-1.1c0-0.3,0.1-0.5,0.2-0.5
		c0.1,0,0.2,0.2,0.2,0.5c0.1,0.7,0.6,1.1,1.5,1.1h0.9V306.5z M187.4,308.7l-0.8,0.8l-0.8-0.8l0.8-0.8L187.4,308.7z M189.1,308.7
		l-0.8,0.8l-0.8-0.8l0.8-0.8L189.1,308.7z" id="PATH_71" class="area" title=""></path>
	<path d="M196.7,298.4c0,0.2-0.1,0.5-0.3,1.1c-1.2,0.3-2.7,0.8-4.4,1.3c1.2,1.2,1.9,2.2,2,2.9c0.1,0.5,0,1-0.2,1.5
		c-0.2,0.5-0.6,0.8-1.1,1c-0.4,0.2-1.1,0.2-2,0.2h-0.4v-1.2h0.3c1.9,0,2.9-0.3,2.9-1c0-0.5-0.5-1.3-1.6-2.3l-0.1,0.3
		c-0.1-0.1-0.3-0.3-0.5-0.6c-0.3-0.3-0.4-0.5-0.4-0.6c0-0.3,0.1-0.6,0.4-0.9c0.1-0.1,0.7-0.3,2-0.7
		C194.6,299,195.8,298.7,196.7,298.4z M196.5,296.9l-0.2,0.7l-4.9,1.6l0.2-0.7L196.5,296.9z" id="PATH_72" class="area" title=""></path>
</g>
<g id="G_73" class="area" title="">
	<path d="M82.5,367.5H82c-0.5,0-0.8,0-1-0.1c0,0.3,0.1,0.5,0.1,0.8c0,0.5-0.1,0.8-0.2,1.1c-0.3,0.7-0.8,1.3-1.8,1.7
		c-0.8,0.3-1.6,0.5-2.5,0.5c-0.9,0-1.6-0.2-2.2-0.6c-0.6-0.5-0.9-1.1-0.9-2c0-0.5,0.1-0.9,0.3-1.5c0.2-0.4,0.3-0.7,0.5-0.9
		c0.1-0.1,0.2-0.1,0.2-0.1c0.1,0,0.1,0,0.1,0.1c0,0,0,0.1,0,0.2c-0.3,0.6-0.4,1.2-0.4,1.7c0,0.5,0.2,0.9,0.5,1.3
		c0.4,0.5,1.1,0.7,2,0.7c1,0,1.9-0.2,2.6-0.5c0.6-0.3,1-0.6,1.2-1c0.1-0.1,0.1-0.3,0-0.7c0-0.3-0.1-0.6-0.1-0.7
		c-0.1-0.3-0.5-0.8-1-1.5l0.4-0.8C80,365.1,80,365,80,365s0.1,0,0.1,0.1c0.5,0.8,1,1.2,1.6,1.2h0.8V367.5z M78.1,363l-0.8,0.8
		l-0.8-0.8l0.8-0.8L78.1,363z" id="PATH_74" class="area" title=""></path>
	<path d="M84.9,365.5c0,1.3-0.7,2-2,2h-0.8v-1.2h0.7c1,0,1.5-0.2,1.5-0.5c0-0.3-0.2-0.7-0.7-1.2l0.4-1c0-0.1,0.1-0.1,0.1-0.1
		c0,0,0.1,0.1,0.2,0.2C84.7,364.2,84.9,364.9,84.9,365.5z M84.1,369.7l-0.8,0.8l-0.8-0.8l0.8-0.8L84.1,369.7z M85.8,369.7l-0.8,0.8
		l-0.8-0.8l0.8-0.8L85.8,369.7z" id="PATH_75" class="area" title=""></path>
	<path d="M92.1,367.5h-0.4c-0.4,0-0.6-0.1-0.8-0.2c0,0.1,0,0.2,0,0.3c0,0.9-0.3,1.8-0.9,2.7c-0.5,0.8-1,1.1-1.3,1.1
		c-0.8,0-1.4,0-2-0.1c-0.2,0-0.3-0.1-0.3-0.1s0.1-0.1,0.3-0.1c0.8-0.2,1.6-0.6,2.4-1.2c0.8-0.7,1.3-1.4,1.3-2.1c0-0.4-0.3-1-1-1.7
		l0.5-0.9c0-0.1,0.1-0.1,0.1-0.1c0,0,0.1,0.1,0.1,0.1c0.3,0.4,0.5,0.7,0.7,0.8c0.3,0.2,0.7,0.4,1.1,0.4h0.3V367.5z" id="PATH_76" class="area" title=""></path>
	<path d="M97,367.5h-0.8c-0.9,0-1.5-0.3-1.9-0.9c-0.3,0.6-1,0.9-2.1,0.9h-0.6v-1.2h0.9c1,0,1.5-0.4,1.6-1.1c0-0.3,0.1-0.5,0.2-0.5
		c0.1,0,0.2,0.2,0.2,0.5c0.1,0.7,0.6,1.1,1.5,1.1H97V367.5z M93.7,369.7l-0.8,0.8l-0.8-0.8l0.8-0.8L93.7,369.7z M95.4,369.7
		l-0.8,0.8l-0.8-0.8l0.8-0.8L95.4,369.7z" id="PATH_77" class="area" title=""></path>
	<path d="M104.9,365.4c0,0.6-0.1,1.1-0.4,1.5c-0.3,0.4-0.8,0.7-1.3,0.7c-0.7,0-1.1-0.3-1.4-0.8c-0.4,0.6-0.8,0.8-1.4,0.8
		c-0.7,0-1.2-0.3-1.5-0.8c-0.4,0.6-0.9,0.8-1.6,0.8h-0.7v-1.2h0.8c0.7,0,1.2-0.4,1.3-1.2c0-0.2,0.1-0.3,0.2-0.3
		c0.1,0,0.1,0.1,0.2,0.3c0.1,0.8,0.5,1.2,1.3,1.2c0.4,0,0.8-0.1,1-0.3c0.1-0.2,0.2-0.4,0.3-0.8c0-0.2,0.1-0.3,0.2-0.3
		c0.1,0,0.1,0.1,0.2,0.3c0.1,0.8,0.5,1.2,1.2,1.2c0.8,0,1.1-0.2,1.1-0.5c0-0.3-0.2-0.7-0.6-1.1l0.5-0.9c0.1-0.1,0.1-0.2,0.2-0.2
		s0.1,0.1,0.2,0.2C104.7,364.4,104.9,364.9,104.9,365.4z M101.5,361.7l-0.7,0.7l-0.7-0.7l0.7-0.7L101.5,361.7z M102.4,360.2
		l-0.7,0.7l-0.7-0.7l0.7-0.7L102.4,360.2z M103.3,361.7l-0.7,0.7l-0.7-0.7l0.7-0.7L103.3,361.7z" id="PATH_78" class="area" title=""></path>
	<path d="M115.1,367.5h-0.4c-0.4,0-0.6-0.1-0.8-0.2c0,0.1,0,0.2,0,0.3c0,0.9-0.3,1.8-0.9,2.7c-0.5,0.8-1,1.1-1.3,1.1
		c-0.8,0-1.4,0-2-0.1c-0.2,0-0.3-0.1-0.3-0.1s0.1-0.1,0.3-0.1c0.8-0.2,1.6-0.6,2.4-1.2c0.8-0.7,1.3-1.4,1.3-2.1c0-0.4-0.3-1-1-1.7
		l0.5-0.9c0-0.1,0.1-0.1,0.1-0.1c0,0,0.1,0.1,0.1,0.1c0.3,0.4,0.5,0.7,0.7,0.8c0.3,0.2,0.7,0.4,1.1,0.4h0.3V367.5z" id="PATH_79" class="area" title=""></path>
	<path d="M124.6,367.5h-0.8c-0.7,0-1.4-0.1-2.2-0.3c-0.7,0.2-1.6,0.3-2.6,0.3c-0.7,0-1.2,0-1.5-0.1c-0.5-0.1-0.8-0.4-1-0.8
		c-0.4,0.6-0.9,0.9-1.5,0.9h-0.4v-1.2h0.4c0.8,0,1.2-0.4,1.3-1.2c0-0.2,0.1-0.3,0.2-0.3s0.2,0.1,0.2,0.3c0.1,0.7,0.4,1.1,1,1.1
		c1.9-2,3.3-3,4.4-3c0.5,0,0.9,0.1,1.2,0.4c0.3,0.3,0.5,0.7,0.5,1.1c0,0.6-0.2,1.1-0.7,1.6c0.1,0,0.3,0,0.5,0s0.4,0,0.5,0h0.4V367.5
		z M123.1,365.4c0-0.3-0.2-0.6-0.5-0.8c-0.3-0.2-0.6-0.3-0.9-0.3c-0.9,0-2,0.6-3.2,1.9c0.3,0,0.6,0,0.9,0c0.7,0,1.4-0.1,2.1-0.2
		C122.5,366,123.1,365.8,123.1,365.4z" id="PATH_80" class="area" title=""></path>
	<path d="M128.5,364.7c0,0.9-0.1,1.5-0.3,1.8c-0.5,0.7-1.3,1-2.6,1h-1.4v-1.2h1c1.7,0,2.6-0.3,2.8-0.8c0.1-0.2,0-0.4-0.1-0.6
		c-0.4,0.1-0.8,0.1-1.3,0.1c-0.9,0-1.4-0.4-1.4-1.2c0-0.5,0.1-1.1,0.4-1.6c0.3-0.6,0.7-0.9,1.2-0.9c0.4,0,0.8,0.3,1.1,0.8
		C128.3,362.9,128.5,363.7,128.5,364.7z M126.6,359.2l-0.8,0.8l-0.8-0.8l0.8-0.8L126.6,359.2z M127.8,363.8c0-0.3-0.1-0.6-0.3-0.9
		c-0.2-0.3-0.5-0.4-0.8-0.4c-0.2,0-0.4,0.1-0.6,0.2c-0.2,0.1-0.2,0.3-0.2,0.5c0,0.4,0.3,0.6,1,0.6
		C127.1,363.9,127.4,363.9,127.8,363.8z M128.3,359.2l-0.8,0.8l-0.8-0.8l0.8-0.8L128.3,359.2z" id="PATH_81" class="area" title=""></path>
</g>
<g id="G_82" class="area" title="">
	<path d="M302.7,335.8c0,0.7-0.2,1.3-0.7,1.6c-0.3,0.2-0.9,0.4-1.8,0.5c-1,0.2-2,0.3-3.1,0.3c-2.6,0-4-0.7-4-2.2
		c0-0.5,0.2-1,0.6-1.5c0.1-0.1,0.1-0.2,0.2-0.2c0.1,0,0.1,0,0.1,0.1c0,0,0,0.1,0,0.2c-0.1,0.3-0.2,0.6-0.2,0.9c0,1,1.3,1.5,3.8,1.5
		c1.2,0,2.3-0.1,3.1-0.2c1-0.2,1.4-0.4,1.4-0.7c0-0.2-0.2-0.6-0.7-1.2l0.5-0.9c0.1-0.1,0.1-0.1,0.2,0
		C302.5,334.6,302.7,335.2,302.7,335.8z M298.8,340.3l-0.8,0.8l-0.8-0.8l0.8-0.8L298.8,340.3z" id="PATH_83" class="area" title=""></path>
	<path d="M308.9,338h-0.4c-0.4,0-0.6-0.1-0.8-0.2c0,0.1,0,0.2,0,0.3c0,0.9-0.3,1.8-0.9,2.7c-0.5,0.8-1,1.1-1.3,1.1
		c-0.8,0-1.4,0-2-0.1c-0.2,0-0.3-0.1-0.3-0.1s0.1-0.1,0.3-0.1c0.8-0.2,1.6-0.6,2.4-1.2c0.8-0.7,1.3-1.4,1.3-2.1c0-0.4-0.3-1-1-1.7
		l0.5-0.9c0-0.1,0.1-0.1,0.1-0.1c0,0,0.1,0.1,0.1,0.1c0.3,0.4,0.5,0.7,0.7,0.8c0.3,0.2,0.7,0.4,1.1,0.4h0.3V338z" id="PATH_84" class="area" title=""></path>
	<path d="M314.2,336l-0.3,0.9c-0.8,0.2-1.6,0.4-2.4,0.7c-0.9,0.2-1.8,0.4-2.4,0.4h-0.5v-1.2h0.8c0.4,0,0.6,0,0.8-0.1
		c-0.2-0.1-0.3-0.3-0.4-0.4c-0.3-0.3-0.4-0.6-0.4-1c0-0.3,0.1-0.6,0.4-1.1c0.7-1,1.3-1.5,2.1-1.5c0.7,0,1.2,0.3,1.6,0.9
		c0.1,0.2,0.2,0.3,0.2,0.4c0,0,0,0.1-0.1,0.1c-0.1,0-0.3,0-0.5-0.1c-0.3-0.1-0.5-0.1-0.6-0.1c-0.2,0-0.4,0-0.6-0.1
		c-0.3,0-0.6,0.1-1,0.3c-0.4,0.2-0.7,0.4-0.7,0.7c0,0.2,0.2,0.5,0.5,0.8c0.4,0.4,0.9,0.6,1.4,0.6c0.2,0,0.7-0.1,1.3-0.3l0.8-0.2
		c0,0,0.1,0,0.2,0c0,0,0,0,0,0C314.3,335.9,314.3,335.9,314.2,336z M312.4,330.1l-0.8,0.8l-0.8-0.8l0.8-0.8L312.4,330.1z" id="PATH_85" class="area" title=""></path>
	<path d="M324.3,335.9c0,1.4-0.9,2.1-2.8,2.1c-0.7,0-1.2-0.1-1.5-0.3c-0.4-0.2-0.6-0.7-0.6-1.3c0-0.3,0.1-0.6,0.2-0.9
		c0.1-0.1,0.1-0.2,0.2-0.2c0.1,0,0.1,0.1,0.1,0.3c0,0.1,0,0.2,0,0.3c0,0.4,0.2,0.7,0.6,0.8c0.2,0.1,0.6,0.1,1.1,0.1
		c1.5,0,2.2-0.2,2.2-0.7c0-0.7-0.9-1.7-2.6-2.9l0.3-1c0-0.1,0.1-0.1,0.1-0.1c0,0,0.1,0,0.2,0.1C323.4,333.5,324.3,334.8,324.3,335.9
		z" id="PATH_86" class="area" title=""></path>
	<path d="M328.2,338h-0.7c-0.7,0-1.3-0.3-1.5-0.9c-0.2-0.4-0.3-1.1-0.3-1.9v-1.9c0-0.9-0.1-2.2-0.2-3.9l0.6-0.7
		c0.1-0.1,0.2-0.1,0.2,0c0.1,0.9,0.2,2.2,0.2,3.9v2.9c0,0.8,0.4,1.2,1.2,1.2h0.5V338z" id="PATH_87" class="area" title=""></path>
	<path d="M330.6,336c0,1.3-0.7,2-2,2h-0.8v-1.2h0.7c1,0,1.5-0.2,1.5-0.5c0-0.3-0.2-0.7-0.7-1.2l0.4-1c0-0.1,0.1-0.1,0.1-0.1
		c0,0,0.1,0.1,0.2,0.2C330.4,334.7,330.6,335.4,330.6,336z M330.3,340.2l-0.8,0.8l-0.8-0.8l0.8-0.8L330.3,340.2z" id="PATH_88" class="area" title=""></path>
	<path d="M334.6,327.3c-0.4,0.4-1,0.5-1.6,0.5c-0.1,0-0.2,0-0.4,0s-0.3,0-0.4,0c-0.1,0-0.2,0.1-0.3,0.2s-0.2,0.2-0.2,0.2
		c-0.1,0-0.1-0.1-0.1-0.2c0-0.1,0.1-0.3,0.2-0.5c0.1-0.3,0.2-0.4,0.3-0.4c0.1,0,0.3,0,0.6,0.1s0.5,0.1,0.6,0.1c0.6,0,1,0,1.3-0.1
		c0.2,0,0.3-0.1,0.3-0.1c0,0,0.1,0,0.1,0C334.8,327.1,334.8,327.2,334.6,327.3z M334,336.8c0,0.4-0.1,0.8-0.3,1.1
		c-0.1,0.2-0.2,0.3-0.2,0.3c0,0-0.1-0.1-0.1-0.4c0-1.2-0.2-4-0.6-8.5l0.8-0.8c0.1-0.1,0.1-0.1,0.1-0.1c0,0,0,0.1,0,0.2
		C334,329.9,334,332.6,334,336.8z" id="PATH_89" class="area" title=""></path>
	<path d="M344.9,336c0,0.2-0.1,0.4-0.3,0.8c-0.2,0.4-0.4,0.6-0.5,0.6c-0.3,0-0.7-0.1-1.2-0.2c-0.5-0.1-0.9-0.2-1.2-0.2
		c-0.5,0-0.9,0.1-1.1,0.2c0.2,1.7,0.3,3,0.3,3.8c0,0.4-0.1,0.8-0.4,1.3c-0.1,0.1-0.1,0.2-0.1,0.2c0,0,0,0,0-0.1
		c-0.1-1.6-0.2-3.2-0.4-4.8c0-0.2,0.1-0.4,0.3-0.7c0.2-0.2,0.3-0.4,0.5-0.5c0.2-0.2,0.5-0.2,0.8-0.2c-0.1-0.3-0.1-0.5-0.1-0.7
		c0-0.3,0.1-0.7,0.4-1.1c0.3-0.4,0.6-0.6,1-0.6c0.5,0,1,0.3,1.5,0.8S344.9,335.6,344.9,336z M344.1,336.4c-0.1-0.3-0.4-0.7-0.7-1
		c-0.4-0.4-0.7-0.5-1.1-0.5c-0.5,0-0.7,0.2-0.7,0.5c0,0.2,0.1,0.4,0.2,0.8C342.4,336.1,343.2,336.2,344.1,336.4z" id="PATH_90" class="area" title=""></path>
	<path d="M354.2,338h-0.6c-1.2,0-1.9-0.9-1.9-2.7c0-0.2,0-0.5,0-0.9c-0.8,1.9-1.7,3.3-2.9,4.1c-0.7,0.2-1.6,0.3-2.6,0.3
		c-0.2,0-0.3,0-0.3,0c0,0,0.3-0.2,0.9-0.5c0.4-0.2,0.8-0.4,1.2-0.6c0.7-0.3,1.4-0.8,2-1.5c-0.3-1-0.7-1.9-1.3-2.7
		c-0.4-0.5-1-1.1-1.9-1.8l-0.1,0.4c-0.3-0.2-0.5-0.4-0.7-0.6c-0.3-0.3-0.5-0.5-0.5-0.7c0-0.2,0-0.5,0.1-1c0-0.1,0-0.2,0.1-0.2
		s0.1,0,0.2,0.1c1.3,0.9,2.3,1.8,2.9,2.6c0.8,1,1.3,2.1,1.6,3.4c0.4-0.5,0.7-1,0.9-1.6c0.3-0.7,0.4-1.3,0.4-1.8c0-0.9-0.1-1.9-0.2-3
		l0.8-0.7c0.1,0.5,0.1,2.8,0.2,6.9c0,0.9,0.4,1.4,1.2,1.4h0.5V338z" id="PATH_91" class="area" title=""></path>
	<path d="M362.1,335.9c0,0.6-0.1,1.1-0.4,1.5c-0.3,0.4-0.8,0.7-1.3,0.7c-0.7,0-1.1-0.3-1.4-0.8c-0.4,0.6-0.8,0.8-1.4,0.8
		c-0.7,0-1.2-0.3-1.5-0.8c-0.4,0.6-0.9,0.8-1.6,0.8h-0.7v-1.2h0.8c0.7,0,1.2-0.4,1.3-1.2c0-0.2,0.1-0.3,0.2-0.3
		c0.1,0,0.1,0.1,0.2,0.3c0.1,0.8,0.5,1.2,1.3,1.2c0.4,0,0.8-0.1,1-0.3c0.1-0.2,0.2-0.4,0.3-0.8c0-0.2,0.1-0.3,0.2-0.3
		c0.1,0,0.1,0.1,0.2,0.3c0.1,0.8,0.5,1.2,1.2,1.2c0.8,0,1.1-0.2,1.1-0.5c0-0.3-0.2-0.7-0.6-1.1l0.5-0.9c0.1-0.1,0.1-0.2,0.2-0.2
		s0.1,0.1,0.2,0.2C362,334.9,362.1,335.4,362.1,335.9z" id="PATH_92" class="area" title=""></path>
	<path d="M364.5,336.8c0,0.4-0.1,0.8-0.3,1.1c-0.1,0.2-0.2,0.3-0.2,0.3c0,0-0.1-0.1-0.1-0.4c0-1.2-0.2-4-0.6-8.5l0.8-0.8
		c0.1-0.1,0.1-0.1,0.1-0.1c0,0,0,0.1,0,0.2C364.5,329.9,364.5,332.6,364.5,336.8z" id="PATH_93" class="area" title=""></path>
</g>
<g id="G_94" class="area" title="">
	<path d="M378.5,264.4c0,0.7-0.2,1.2-0.6,1.6c-0.4,0.4-1,0.5-1.6,0.5c-0.4,0-0.8-0.1-1.1-0.4c-0.3-0.3-0.5-0.6-0.5-1
		c0-0.5,0.2-1,0.6-1.7c0.3-0.6,0.7-1.1,1.1-1.5C377.8,262.6,378.5,263.5,378.5,264.4z M377.9,264.9c0-0.3-0.2-0.6-0.7-1
		c-0.4-0.4-0.7-0.6-1.1-0.7c-0.5,0.7-0.8,1.2-0.8,1.6c0,0.2,0.1,0.4,0.4,0.6c0.2,0.1,0.4,0.2,0.7,0.2c0.4,0,0.8-0.1,1.1-0.2
		C377.8,265.1,377.9,265,377.9,264.9z" id="PATH_95" class="area" title=""></path>
	<path d="M382.5,266.6h-0.7c-0.7,0-1.3-0.3-1.5-0.9c-0.2-0.4-0.3-1.1-0.3-1.9v-1.9c0-0.9-0.1-2.2-0.2-3.9l0.6-0.7
		c0.1-0.1,0.2-0.1,0.2,0c0.1,0.9,0.2,2.2,0.2,3.9v2.9c0,0.8,0.4,1.2,1.2,1.2h0.5V266.6z" id="PATH_96" class="area" title=""></path>
	<path d="M391.7,266.6h-0.6c-0.7,0-1.1-0.3-1.4-0.8c-0.2,0.6-0.7,0.8-1.3,0.8c-0.6,0-1-0.3-1.3-0.8c-0.3,0.6-0.7,0.8-1.3,0.8
		c-0.7,0-1.2-0.3-1.5-0.8c-0.4,0.6-0.9,0.8-1.6,0.8h-0.7v-1.2h0.8c0.7,0,1.2-0.4,1.3-1.2c0-0.2,0.1-0.3,0.2-0.3
		c0.1,0,0.1,0.1,0.2,0.3c0.1,0.8,0.5,1.2,1.3,1.2c0.7,0,1.2-0.4,1.2-1.2c0-0.2,0.1-0.3,0.2-0.3c0.1,0,0.2,0.1,0.2,0.3
		c0.1,0.8,0.5,1.2,1,1.2c0.7,0,1.2-0.4,1.2-1.2c0-0.2,0.1-0.3,0.2-0.3c0.1,0,0.2,0.1,0.2,0.3c0.1,0.8,0.5,1.2,1.2,1.2h0.6V266.6z
		 M387,261.5l-0.7,0.7l-0.7-0.7l0.7-0.7L387,261.5z M387.9,260l-0.7,0.7l-0.7-0.7l0.7-0.7L387.9,260z M388.8,261.5l-0.7,0.7
		l-0.7-0.7l0.7-0.7L388.8,261.5z" id="PATH_97" class="area" title=""></path>
	<path d="M394.1,264.6c0,1.3-0.7,2-2,2h-0.8v-1.2h0.7c1,0,1.5-0.2,1.5-0.5c0-0.3-0.2-0.7-0.7-1.2l0.4-1c0-0.1,0.1-0.1,0.1-0.1
		s0.1,0.1,0.2,0.2C393.9,263.3,394.1,263.9,394.1,264.6z M394,260l-0.8,0.8l-0.8-0.8l0.8-0.8L394,260z" id="PATH_98" class="area" title=""></path>
	<path d="M398,266.6h-0.7c-0.7,0-1.3-0.3-1.5-0.9c-0.2-0.4-0.3-1.1-0.3-1.9v-1.9c0-0.9-0.1-2.2-0.2-3.9l0.6-0.7
		c0.1-0.1,0.2-0.1,0.2,0c0.1,0.9,0.2,2.2,0.2,3.9v2.9c0,0.8,0.4,1.2,1.2,1.2h0.5V266.6z" id="PATH_99" class="area" title=""></path>
	<path d="M403,264.6c0,0.5,0,0.9-0.2,1.3c-0.2,0.5-0.5,0.8-0.8,0.8c-0.5,0-1.3-0.3-2.3-1c-0.3,0.4-0.5,0.6-0.6,0.7
		c-0.3,0.2-0.6,0.3-1,0.3h-0.5v-1.2h0.7c0.4,0,0.8-0.2,1.2-0.7c0.2-0.2,0.5-0.7,0.9-1.3c0.3-0.5,0.7-0.7,1-0.7
		c0.5,0,0.9,0.2,1.2,0.7C402.8,263.8,403,264.2,403,264.6z M402.4,265.3c0-0.3-0.1-0.6-0.3-1c-0.2-0.4-0.5-0.6-0.8-0.6
		c-0.3,0-0.6,0.3-1,0.9c0.2,0.2,0.5,0.4,0.9,0.6s0.8,0.3,1,0.3C402.3,265.6,402.4,265.5,402.4,265.3z" id="PATH_100" class="area" title=""></path>
	<path d="M409.2,266.6h-0.4c-0.4,0-0.6-0.1-0.8-0.2c0,0.1,0,0.2,0,0.3c0,0.9-0.3,1.8-0.9,2.7c-0.5,0.8-1,1.1-1.3,1.1
		c-0.8,0-1.4,0-2-0.1c-0.2,0-0.3-0.1-0.3-0.1s0.1-0.1,0.3-0.1c0.8-0.2,1.6-0.6,2.4-1.2c0.8-0.7,1.3-1.4,1.3-2.1c0-0.4-0.3-1-1-1.7
		l0.5-0.9c0-0.1,0.1-0.1,0.1-0.1c0,0,0.1,0.1,0.1,0.1c0.3,0.4,0.5,0.7,0.7,0.8c0.3,0.2,0.7,0.4,1.1,0.4h0.3V266.6z" id="PATH_101" class="area" title=""></path>
	<path d="M415.4,257.3c0,0.2-0.2,0.6-0.4,1.1l-2.5,0.8c-1.1,0.4-1.9,0.7-2.3,0.9c0.8,0.8,1.3,1.4,1.6,1.7c0.5,0.7,0.8,1.3,0.9,2
		c0,0.5,0,1-0.2,1.4c-0.3,0.9-1.4,1.3-3.1,1.3h-0.5v-1.2h0.6c0.8,0,1.4,0,1.7-0.1c0.7-0.2,1.1-0.5,1.1-1c0-0.7-0.5-1.5-1.6-2.5
		l-0.1,0.2c-0.1-0.1-0.3-0.3-0.5-0.6c-0.3-0.3-0.4-0.6-0.4-0.6c0-0.2,0-0.4,0.1-0.8c0.1-0.4,0.2-0.6,0.3-0.7
		c0.1-0.1,0.8-0.4,2.1-0.8C413.3,257.9,414.5,257.5,415.4,257.3z" id="PATH_102" class="area" title=""></path>
</g>
<g id="G_103" class="area" title="">
	<path d="M514.6,266.4h-0.5c-0.5,0-0.8,0-1-0.1c0,0.3,0.1,0.5,0.1,0.8c0,0.5-0.1,0.8-0.2,1.1c-0.3,0.7-0.8,1.3-1.8,1.7
		c-0.8,0.3-1.6,0.5-2.5,0.5c-0.9,0-1.6-0.2-2.2-0.6c-0.6-0.5-0.9-1.1-0.9-2c0-0.5,0.1-0.9,0.3-1.5c0.2-0.4,0.3-0.7,0.5-0.9
		c0.1-0.1,0.2-0.1,0.2-0.1c0.1,0,0.1,0,0.1,0.1c0,0,0,0.1,0,0.2c-0.3,0.6-0.4,1.2-0.4,1.7c0,0.5,0.2,0.9,0.5,1.3
		c0.4,0.5,1.1,0.7,2,0.7c1,0,1.9-0.2,2.6-0.5c0.6-0.3,1-0.6,1.2-1c0.1-0.1,0.1-0.3,0-0.7c0-0.3-0.1-0.6-0.1-0.7
		c-0.1-0.3-0.5-0.8-1-1.5l0.4-0.8c0.1-0.1,0.1-0.2,0.1-0.2s0.1,0,0.1,0.1c0.5,0.8,1,1.2,1.6,1.2h0.8V266.4z M510.1,261.9l-0.8,0.8
		l-0.8-0.8l0.8-0.8L510.1,261.9z" id="PATH_104" class="area" title=""></path>
	<path d="M519.5,266.4h-0.8c-0.9,0-1.5-0.3-1.9-0.9c-0.3,0.6-1,0.9-2.1,0.9h-0.6v-1.2h0.9c1,0,1.5-0.4,1.6-1.1
		c0-0.3,0.1-0.5,0.2-0.5c0.1,0,0.2,0.2,0.2,0.5c0.1,0.7,0.6,1.1,1.5,1.1h0.9V266.4z M516.2,268.6l-0.8,0.8l-0.8-0.8l0.8-0.8
		L516.2,268.6z M517.9,268.6l-0.8,0.8l-0.8-0.8l0.8-0.8L517.9,268.6z" id="PATH_105" class="area" title=""></path>
	<path d="M527.4,264.3c0,0.6-0.1,1.1-0.4,1.5c-0.3,0.4-0.8,0.7-1.3,0.7c-0.7,0-1.1-0.3-1.4-0.8c-0.4,0.6-0.8,0.8-1.4,0.8
		c-0.7,0-1.2-0.3-1.5-0.8c-0.4,0.6-0.9,0.8-1.6,0.8h-0.7v-1.2h0.8c0.7,0,1.2-0.4,1.3-1.2c0-0.2,0.1-0.3,0.2-0.3
		c0.1,0,0.1,0.1,0.2,0.3c0.1,0.8,0.5,1.2,1.3,1.2c0.4,0,0.8-0.1,1-0.3c0.1-0.2,0.2-0.4,0.3-0.8c0-0.2,0.1-0.3,0.2-0.3
		c0.1,0,0.1,0.1,0.2,0.3c0.1,0.8,0.5,1.2,1.2,1.2c0.8,0,1.1-0.2,1.1-0.5c0-0.3-0.2-0.7-0.6-1.1l0.5-0.9c0.1-0.1,0.1-0.2,0.2-0.2
		s0.1,0.1,0.2,0.2C527.2,263.3,527.4,263.8,527.4,264.3z" id="PATH_106" class="area" title=""></path>
	<path d="M533.6,266.4h-0.4c-0.4,0-0.6-0.1-0.8-0.2c0,0.1,0,0.2,0,0.3c0,0.9-0.3,1.8-0.9,2.7c-0.5,0.8-1,1.1-1.3,1.1
		c-0.8,0-1.4,0-2-0.1c-0.2,0-0.3-0.1-0.3-0.1s0.1-0.1,0.3-0.1c0.8-0.2,1.6-0.6,2.4-1.2c0.8-0.7,1.3-1.4,1.3-2.1c0-0.4-0.3-1-1-1.7
		l0.5-0.9c0-0.1,0.1-0.1,0.1-0.1c0,0,0.1,0.1,0.1,0.1c0.3,0.4,0.5,0.7,0.7,0.8c0.3,0.2,0.7,0.4,1.1,0.4h0.3V266.4z" id="PATH_107" class="area" title=""></path>
	<path d="M539.7,264.4c0,0.4-0.1,0.8-0.4,1.2c-0.3,0.5-0.6,0.7-1,0.7c-0.3,0-1-0.2-2.1-0.7c-0.9,0.6-1.7,0.8-2.4,0.8h-0.5v-1.2h0.6
		c0.4,0,0.8,0,1.2-0.1c-0.4-0.3-0.6-0.7-0.6-1.2c0-0.6,0.4-1.3,1.3-2l-0.7-0.3c0.2-0.2,0.5-0.5,0.9-0.9c0.9,0.5,1.7,0.9,2.4,1.5
		C539.2,263,539.7,263.7,539.7,264.4z M537.1,263.6c0-0.3-0.1-0.5-0.2-0.7c-0.1-0.3-0.3-0.4-0.6-0.4c-0.3,0-0.5,0.1-0.8,0.3
		c-0.3,0.2-0.5,0.5-0.5,0.7c0,0.4,0.4,0.8,1.1,1c0.2-0.1,0.4-0.2,0.6-0.3C537,264,537.1,263.8,537.1,263.6z M539.2,264.8
		c0-0.3-0.2-0.6-0.6-1c-0.3-0.3-0.6-0.6-0.9-0.7c0,0.8-0.2,1.4-0.7,1.8c0.8,0.3,1.4,0.4,1.6,0.4C539,265.3,539.2,265.1,539.2,264.8z
		" id="PATH_108" class="area" title=""></path>
</g>
<g id="G_109" class="area" title="">
	<path d="M603.4,203.9c0,1-0.3,1.9-0.9,2.8c-0.5,0.7-1,1.1-1.3,1.1c-0.8,0-1.4,0-2-0.1c-0.2,0-0.3-0.1-0.3-0.1s0.1-0.1,0.3-0.1
		c0.8-0.2,1.6-0.6,2.4-1.2c0.8-0.7,1.3-1.4,1.3-2.1c0-0.4-0.3-1-1-1.7l0.5-0.9c0-0.1,0.1-0.1,0.1-0.1c0,0,0.1,0.1,0.1,0.1
		c0.2,0.3,0.5,0.7,0.6,1.2C603.3,203.1,603.4,203.5,603.4,203.9z" id="PATH_110" class="area" title=""></path>
	<path d="M608.6,203.4c0,1.5-0.5,2.8-1.5,3.8c-0.3,0.3-0.5,0.5-0.6,0.5c-0.6,0-1.2-0.1-1.9-0.2c-0.3,0-0.4-0.1-0.4-0.1
		c0,0,0.1-0.1,0.4-0.2c0.8-0.2,1.6-0.7,2.3-1.3c0.3-0.3,0.6-0.5,0.8-0.9c0.3-0.4,0.5-0.8,0.5-1.1v-0.3l-1.3,0
		c-0.9,0-1.4-0.4-1.4-1.1c0-0.5,0.1-1,0.4-1.6c0.3-0.6,0.7-1,1.1-1c0.6,0,1.1,0.4,1.4,1.3C608.5,201.9,608.6,202.6,608.6,203.4z
		 M607.9,202.6c0-0.3-0.1-0.6-0.3-0.9c-0.2-0.3-0.5-0.5-0.8-0.5c-0.2,0-0.4,0.1-0.5,0.2s-0.2,0.3-0.2,0.5c0,0.5,0.3,0.7,1,0.7
		C607.2,202.6,607.5,202.6,607.9,202.6z" id="PATH_111" class="area" title=""></path>
	<path d="M612.5,203.8h-0.7c-0.7,0-1.3-0.3-1.5-0.9c-0.2-0.4-0.3-1.1-0.3-1.9v-1.9c0-0.9-0.1-2.2-0.2-3.9l0.6-0.7
		c0.1-0.1,0.2-0.1,0.2,0c0.1,0.9,0.2,2.2,0.2,3.9v2.9c0,0.8,0.4,1.2,1.2,1.2h0.5V203.8z" id="PATH_112" class="area" title=""></path>
	<path d="M619.3,203.8h-0.6c-0.5,0-1.1-0.2-1.6-0.7c-0.4-0.3-0.8-0.9-1.3-1.6c-0.1,1.5-1.1,2.3-3.1,2.3h-0.6v-1.2h0.4
		c1.8,0,2.8-0.4,2.8-1.1c0-0.6-0.4-1.3-1.3-2.1c-0.4-0.4-0.8-0.7-1.3-1.1c0-0.4,0.1-0.7,0.3-1c0.1-0.1,1.9-0.7,5.5-1.8
		c0,0.1-0.1,0.5-0.3,1.1c-0.9,0.2-2.4,0.7-4.4,1.3c1,1.1,2,2.1,2.7,3c0.5,0.5,0.8,0.9,1.1,1.1c0.4,0.3,0.9,0.5,1.4,0.5h0.4V203.8z
		 M618.3,194.2l-0.2,0.7l-4.9,1.6l0.2-0.7L618.3,194.2z" id="PATH_113" class="area" title=""></path>
	<path d="M624.2,203.8h-0.8c-0.9,0-1.5-0.3-1.9-0.9c-0.3,0.6-1,0.9-2.1,0.9h-0.6v-1.2h0.9c1,0,1.5-0.4,1.6-1.1
		c0-0.3,0.1-0.5,0.2-0.5s0.2,0.2,0.2,0.5c0.1,0.7,0.6,1.1,1.5,1.1h0.9V203.8z M622.2,198.6l-0.8,0.8l-0.8-0.8l0.8-0.8L622.2,198.6z" id="PATH_114" class="area" title=""></path>
	<path d="M630.4,194.5c0,0.2-0.2,0.6-0.4,1.1l-2.5,0.8c-1.1,0.4-1.9,0.7-2.3,0.9c0.8,0.8,1.3,1.4,1.6,1.7c0.5,0.7,0.8,1.3,0.9,2
		c0,0.5,0,1-0.2,1.4c-0.3,0.9-1.4,1.3-3.1,1.3h-0.5v-1.2h0.6c0.8,0,1.4,0,1.7-0.1c0.7-0.2,1.1-0.5,1.1-1c0-0.7-0.5-1.5-1.6-2.5
		l-0.1,0.2c-0.1-0.1-0.3-0.3-0.5-0.6c-0.3-0.3-0.4-0.6-0.4-0.6c0-0.2,0-0.4,0.1-0.8c0.1-0.4,0.2-0.6,0.3-0.7
		c0.1-0.1,0.8-0.4,2.1-0.8C628.3,195.2,629.5,194.8,630.4,194.5z" id="PATH_115" class="area" title=""></path>
</g>
<g id="G_116" class="area" title="">
	<path d="M521.3,189.3h-0.7c-0.9,0-1.4-0.5-1.6-1.6c-0.5,0.5-0.7,0.7-0.8,0.7h-0.9c-0.3,0-0.6,0-0.9-0.1c-0.4-0.1-0.6-0.3-0.6-0.5
		c0-0.7,0.3-1.4,0.8-1.8c0.4-0.3,1-0.6,1.8-1l-0.2-1l0.7-0.8c0,0.1,0.3,1.2,0.7,3.3c0.1,0.6,0.3,1.1,0.4,1.3
		c0.2,0.3,0.4,0.4,0.8,0.4h0.7V189.3z M518.8,187.2l-0.3-1.6c-0.3,0.1-0.7,0.3-1.2,0.5c-0.6,0.3-1,0.6-1,0.7c0,0.2,0.2,0.3,0.7,0.4
		c0.3,0.1,0.6,0.1,0.9,0.1C518.3,187.3,518.6,187.3,518.8,187.2z" id="PATH_117" class="area" title=""></path>
	<path d="M526.3,189.3h-0.8c-0.9,0-1.5-0.3-1.9-0.9c-0.3,0.6-1,0.9-2.1,0.9h-0.6v-1.2h0.9c1,0,1.5-0.4,1.6-1.1
		c0-0.3,0.1-0.5,0.2-0.5s0.2,0.2,0.2,0.5c0.1,0.7,0.6,1.1,1.5,1.1h0.9V189.3z M524.3,184.1l-0.8,0.8l-0.8-0.8l0.8-0.8L524.3,184.1z" id="PATH_118" class="area" title=""></path>
	<path d="M535.1,189.3h-1c-1.3,0-2-0.7-2-2c0-0.2,0-0.3,0-0.5c-0.5,0.2-1.1,0.6-1.9,1.1c-0.8,0.5-1.3,0.8-1.7,1
		c-0.6,0.3-1.3,0.4-1.9,0.4h-0.7v-1.2h0.8c0.8,0,1.7-0.2,2.5-0.6c0.4-0.2,1.1-0.6,2.2-1.1c-0.2,0-0.8-0.2-1.8-0.4
		c-0.7-0.2-1.1-0.3-1.2-0.3c-0.4,0-0.8,0.2-1.2,0.5c-0.1,0.1-0.1,0.1-0.2,0.1c-0.1,0-0.1,0-0.1-0.1c0,0,0-0.1,0-0.1
		c0.3-1,0.9-1.5,1.7-1.5c0.3,0,0.7,0.1,1.2,0.2c0.7,0.2,1.3,0.4,1.8,0.5c0.7,0.1,1.5,0.2,2.4,0.2c0.2,0,0.2,0,0.3,0c0,0,0,0.1,0,0.2
		l-0.3,0.9c-0.6,0-1,0-1.2,0.1c0,0.5,0.1,0.8,0.2,0.9c0.2,0.3,0.6,0.5,1.3,0.5h1V189.3z" id="PATH_119" class="area" title=""></path>
	<path d="M543.7,186.6c0,1-0.6,1.7-1.8,2.2c-0.8,0.3-1.8,0.5-3,0.5c-0.7,0-1.2,0-1.5-0.1c-0.5-0.1-0.8-0.4-1-0.8
		c-0.4,0.6-0.9,0.9-1.5,0.9h-0.4v-1.2h0.4c0.8,0,1.2-0.4,1.3-1.1c0-0.2,0.1-0.3,0.2-0.3s0.2,0.1,0.2,0.3c0.1,0.7,0.4,1.1,1,1.1
		c1.9-2,3.3-3,4.4-3c0.5,0,0.9,0.1,1.2,0.4C543.6,185.8,543.7,186.2,543.7,186.6z M543,187.2c0-0.3-0.2-0.5-0.5-0.8
		c-0.3-0.2-0.6-0.3-0.9-0.3c-0.9,0-2,0.6-3.2,1.9c0.3,0,0.6,0,0.9,0c0.7,0,1.4-0.1,2.1-0.2C542.4,187.8,543,187.5,543,187.2z" id="PATH_120" class="area" title=""></path>
</g>
<g id="G_121" class="area" title="">
	<path d="M506.2,112.7h-0.4c-0.4,0-0.6-0.1-0.8-0.2c0,0.1,0,0.2,0,0.3c0,0.9-0.3,1.8-0.9,2.7c-0.5,0.8-1,1.1-1.3,1.1
		c-0.8,0-1.4,0-2-0.1c-0.2,0-0.3-0.1-0.3-0.1s0.1-0.1,0.3-0.1c0.8-0.2,1.6-0.6,2.4-1.2c0.8-0.7,1.3-1.4,1.3-2.1c0-0.4-0.3-1-1-1.7
		l0.5-0.9c0-0.1,0.1-0.1,0.1-0.1c0,0,0.1,0.1,0.1,0.1c0.3,0.4,0.5,0.7,0.7,0.8c0.3,0.2,0.7,0.4,1.1,0.4h0.3V112.7z" id="PATH_122" class="area" title=""></path>
	<path d="M511.7,112.7h-0.5c-0.3,0-0.7-0.1-1.2-0.2c-0.5-0.1-0.8-0.3-1.1-0.5c-0.6,0.4-1.4,0.6-2.4,0.6h-0.7v-1.2h0.5
		c0.8,0,1.3-0.1,1.5-0.2c-0.4-0.3-0.6-0.7-0.6-1.1c0-0.4,0.2-0.9,0.5-1.5c0.4-0.6,0.8-1,1.3-1c0.5,0,0.8,0.3,1.1,0.8
		c0.2,0.4,0.3,0.9,0.3,1.4c0,0.6-0.2,1-0.7,1.4c0.3,0.1,0.7,0.2,1.4,0.2h0.4V112.7z M508.7,105.3l-0.8,0.8l-0.8-0.8l0.8-0.8
		L508.7,105.3z M509.9,110.1c0-0.2-0.1-0.5-0.3-0.8c-0.2-0.3-0.4-0.4-0.6-0.4c-0.2,0-0.4,0.1-0.7,0.3c-0.3,0.2-0.4,0.5-0.4,0.7
		c0,0.2,0.1,0.5,0.4,0.7c0.2,0.2,0.5,0.3,0.7,0.4c0.2,0,0.4-0.1,0.6-0.3C509.8,110.6,509.9,110.4,509.9,110.1z M510.4,105.3
		l-0.8,0.8l-0.8-0.8l0.8-0.8L510.4,105.3z" id="PATH_123" class="area" title=""></path>
	<path d="M516.6,112.7h-0.8c-0.9,0-1.5-0.3-1.9-0.9c-0.3,0.6-1,0.9-2.1,0.9h-0.6v-1.2h0.9c1,0,1.5-0.4,1.6-1.1
		c0-0.3,0.1-0.5,0.2-0.5s0.2,0.2,0.2,0.5c0.1,0.7,0.6,1.1,1.5,1.1h0.9V112.7z M514.6,107.6l-0.8,0.8l-0.8-0.8l0.8-0.8L514.6,107.6z" id="PATH_124" class="area" title=""></path>
	<path d="M524.5,110.6c0,0.6-0.1,1.1-0.4,1.5c-0.3,0.4-0.8,0.7-1.3,0.7c-0.7,0-1.1-0.3-1.4-0.8c-0.4,0.6-0.8,0.8-1.4,0.8
		c-0.7,0-1.2-0.3-1.5-0.8c-0.4,0.6-0.9,0.8-1.6,0.8h-0.7v-1.2h0.8c0.7,0,1.2-0.4,1.3-1.2c0-0.2,0.1-0.3,0.2-0.3
		c0.1,0,0.1,0.1,0.2,0.3c0.1,0.8,0.5,1.2,1.3,1.2c0.4,0,0.8-0.1,1-0.3c0.1-0.2,0.2-0.4,0.3-0.8c0-0.2,0.1-0.3,0.2-0.3
		c0.1,0,0.1,0.1,0.2,0.3c0.1,0.8,0.5,1.2,1.2,1.2c0.8,0,1.1-0.2,1.1-0.5c0-0.3-0.2-0.7-0.6-1.1l0.5-0.9c0.1-0.1,0.1-0.2,0.2-0.2
		s0.1,0.1,0.2,0.2C524.3,109.6,524.5,110.1,524.5,110.6z" id="PATH_125" class="area" title=""></path>
</g>
</svg>


