<?xml version="1.0" encoding="UTF-8"?><svg id="Layer_1" xmlns="http://www.w3.org/2000/svg" viewBox="0 0 925.81 1042.72"><defs><style>.cls-1{fill:#fbd0d1;}.cls-1,.cls-2,.cls-3,.cls-4,.cls-5{stroke-miterlimit:20.97;}.cls-1,.cls-2,.cls-4,.cls-5{stroke:#010101;stroke-width:.42px;}.cls-2{fill:#dbeccb;}.cls-6{font-family:ArabicTypesetting, 'Arabic Typesetting';font-size:32px;isolation:isolate;}.cls-3{fill:none;stroke:#020202;stroke-width:1.05px;}.cls-4{fill:#e8d0e5;}.cls-5{fill:#fdfad4;}</style></defs><path id="_681" class="cls-1" d="m362.01,151.92c2.9,1.5,4.6,6.1,6.1,10.7,15.1,19.7,50.1,19.7,48.5,45.5,0,6.1-18.2,13.6-13.6,24.3,9,24.3,34.8,30.4,59.1,24.3,19.7-4.6,45.5-12.2,50.1-34.8,7.5-27.3,18.2-48.4,28.7-72.8,9-21.2,2.9-50.1-6.1-75.9-3.1-9.4.8-18,4.6-26.8-9.4-3.4-15.3-5.7-17-6.9-1.3-1-13.8-6.3-101.1-35.2l-3.1-1c-7.3-2.5-22.2-4.2-25.8-2.3-4.2,2.1-19.7,3.1-25,3.6v2.5c0,.4-2.3,17.2-2.3,22.9v1.9c.2,5.9.2,15.7-8.2,19.3-1.7.8-3.8,1.5-5.7,2.3-6.7,2.7-15.3,6.3-17.6,8.6-1.3,1.3-3.4,2.5-5.9,4,2.3,3.4,3.8,6.9,3.8,10.5,1.8,28.4,3.3,55.6,30.5,75.3Z"/><path id="_675" class="cls-2" d="m268.11,233.92c1.5,4.6,4.6,9,7.5,9,25.8-1.5,45.5,9,68.1,21.2,4.6,1.5,7.5-1.5,9-4.6,4.6-7.5,4.6-13.6,12.2-16.8,9-1.5,16.8,2.9,25.8,1.5,6.5-.8,8.4-7.5,12.2-12.2-4.4-10.5,13.6-18.2,13.6-24.3,1.5-25.8-33.3-25.8-48.4-45.5-1.5-4.6-2.9-9-6.1-10.7-4-2.9-7.3-5.9-10.3-9-8.6,10.5-11.3,20.3-.4,36.3,0,1.5-4.6,2.9-4.6,6.1-16.8-15.1-28.7,6.1-47,6.1-2.9,1.5-7.5,0-9-2.9-14.5-24.1-30.8-44.2-50.5-62.3-5.9,3.6-12,6.9-17,9.2,1,27.5,21,52.4,40,72.8,6.4,6.4-1.2,16.9,4.9,26.1Z"/><path id="_672" class="cls-4" d="m218.21,232.22c-19.7,10.7-45.5,18.2-42.4,48.4,0,7.5-19.7,12.2-15.1,22.9,7.5,18.2,33.3,16.8,51.6,13.6,7.5,0,18.2-10.7,21.2-1.5,4.6,12.2-7.5,22.6-10.7,33.3-4.6,25.8,25.8,42.6,48.4,44,1.5,0,4.6-4.6,6.1-7.5,7.5-10.7,0-25.8,4.6-31.9,13.6-15.1,37.9-12.2,54.5-24.3,6.1-4.6,7.5-15.1,15.1-19.7,4.6-1.5,10.7,1.5,12.2,0,10.7-16.8-6.1-27.3-15.1-39.4-1.3-1.7-1.9-3.6-1.9-5.7-.8,0-1.7,0-2.7-.4-22.6-12.2-42.4-22.6-68.1-21.2-2.9,0-6.1-4.6-7.5-9-6.1-9,1.5-19.7-4.6-25.8-19.3-20.3-39.2-45.3-40.3-72.8-3.1,1.5-5.7,2.5-7.5,3.4-12.4,4.6-30.6,10.3-30.8,10.3s-15.3,5.9-28.5,11.1c13.1,28.2,49.4,41.2,61.5,72.2Z"/><path id="_679" class="cls-5" d="m222.61,349.02c2.9-10.7,15.1-21.2,10.7-33.3-2.9-9-13.6,1.5-21.2,1.5-18.2,2.9-44,4.6-51.6-13.6-4.6-10.7,15.1-15.1,15.1-22.9-.4-5-.2-9.4.6-13.2-10.7.4-20.3-3.6-20.3-10.9,4.2-38.6-33.3-53-49.1-80.1-5.9,1.7-10.3,2.9-10.7,3.1l-.6.2-.6-.2c-5.5-2.5-21.6-8.6-28.5-7.8-8.8,1-19.9,4.4-23.5,5.7-2.5.8-8.4,2.9-11.1,4l2.3,90.8-.8.6c-.8.6-20.5,14.9-26.4,18.2-2.9,1.7-6.5,4-6.7,5.7,0,1.3,1.3,2.5,2.3,3.6,3.4,2.7,7.5,8.4,11.7,14,3.8,5,9.4,12.4,11.3,13,4.8,1.3,8,5.7,9.4,13,.8,4.2,2.3,34.8,2.9,53.9,18.7,9.6,41.9-.8,60.4-10.1,25.8-12.2,45.5,12.2,69.8,9,7.5-1.5,16.8-10.7,25.8-12.2,11.3-2.5,22.2-7.1,31.9-13.4-2.9-5.6-4.3-11.7-3.1-18.6Z"/><path id="_373" class="cls-1" d="m155.91,256.52c0,7.5,9.9,11.5,20.3,10.9,4.6-19.7,25.4-26.4,41.7-35.2-12.2-31-48.4-44-61.4-72.3-8.4,3.4-15.9,6.3-18,7.1-3.8,1.5-20.3,6.3-31.7,9.6,15.8,26.9,53.5,41.4,49.1,79.9Z"/><path id="_677" class="cls-2" d="m336.51,452.22c2.9-27.3-28.7-28.7-47-39.4-8.4-4.6-11.7-13.4-15.5-22-1,1.3-2.1,2.3-2.7,2.3-16.8-1-37.5-10.5-45.5-25.4-9.6,6.3-20.5,10.9-31.9,13.4-9,1.5-18.2,10.7-25.8,12.2-24.3,2.9-44-21.2-69.8-9-18.5,9.2-41.7,19.7-60.4,10.1.2,7.8.4,13.4.4,14.9,0,3.1,4.6,20.5,7.8,31.9.8.2,1.5.2,2.1.4,5.5,1,33.8,4.4,34,4.6l1,.2.4.8s5.7,10.3,10.1,17c2.1,3.1,13.4,17,25.4,31.7,14,17.2,28.5,35,32.7,41.1,8.8,12.6,3.4,48.2,1.5,54.3-1.3,3.6.2,12,1.7,18.7,4.8-.2,15.1,0,20.8,6.7s12.4,7.5,21.4,2.9c4.8-2.5,11.3-5.9,17.6-9,5.2-2.7,10.1-5.2,13.2-6.9,1.3-.6,2.7-1.5,4.4-2.1,7.3-3.8,16.4-8.4,21.2-9.4,5.7-1,14.7-3.4,14.7-3.4h.2l13.8-1.5-.2,1.7c29.1-30.6,19.9-78.4,39-116.4,3.2-8.3,15.4-11.4,15.4-20.4Z"/><path id="_948" class="cls-2" d="m738.21,594.72c-9-2.9-9,10.7-13.6,12.2-15.1,6.1-21.2-12.2-33.3-18.2-7.5-2.9-13.6,6.1-16.8,12.2-2.9,7.5,2.9,15.1,0,24.3-1.5,4.6-6.1,7.5-7.5,12.2-4.6,15.1,1.5,30.4-10.7,45.5-10.7,12.2,2.9,28.7,15.1,33.3,20.5,7.3,43.2,6.7,62.9,14,2.7-3.1,6.5-5.5,11.5-5.5,14.9,0,16.1-2.7,16.1-5.9v-27.7l-10.9-13c-.2-.2-2.3-2.3-1.7-5.5.4-2.3,2.5-4.4,5.9-5.9,7.8-3.4,15.5-8.8,15.5-8.8l.6-.4h.8c.4,0,46.8,3.4,52.2,3.4,3.1,0,5.7-.8,6.3-1.9s-.4-2.9-1-4c-3.4-5-4-28.1-4-43.2-23.9-7.1-51.4-6.1-76.9-8-4.4,0-7.6-7.6-10.5-9.1Z"/><path id="_659" class="cls-1" d="m409.21,470.42c24.3-7.5,44,19.7,65.2,6.1,7.5-4.6,13.6-18.2,4.6-25.8-21.2-19.7-25.8-40.9-33.3-66.7-6.1-28.7-48.4-15.1-78.8-21.2-15.9-2.5-25-17.8-35.9-30-16.1,8.4-36.9,7.3-49.1,21-4.6,6.1,2.9,21.2-4.6,31.9-.8,1.7-2.1,3.8-3.4,5.2,3.8,8.6,6.9,17.4,15.5,22,18.2,10.5,49.9,12.2,47,39.2,8.2,0,17,4.6,24.3,7.8,2.9,1.5,0,10.7,1.5,15.1,2.9,4.6,9,2.9,13.6,6.1,4.8,1.9,8.4,5.2,10.9,9.2,7-7.3,11.8-15.9,22.5-19.9Z"/><path id="_680" class="cls-4" d="m653.31,852.42c-22.6-2.9-27.3-33.3-45.5-40.9-21.2-7.5-19.7-30.4-30.4-45.5-1.5,0-4.6-2.9-6.1-1.5-9,13.6-34.8,24.3-25.8,40.9,9,18.2,1.5,34.8,2.9,51.6,4.6,19.7,28.7,24.3,42.4,40.9,1.5,2.9,2.9,7.5,1.5,12.2-8.2,16.4-36.9,30.2-30.8,49.1h6.9c9-.2,16.1-.2,21.6,5.2,1.9,1.9,4,4,6.1,6.3,4.4,4.6,9.4,9.9,13.2,13,5.2,4.2,20.5,10.9,28.9,8.8,9.4-2.3,13.6-2.5,23.5,6.1,7.1,6.1,7.8,10.1,8.6,13.8.2,1.3.4,2.7,1,4,1.7,4.2,10.5,9.2,17.4,13,1,.6,2.3,1.3,3.4,1.9.8.6,1.9,1,2.9,1.7,7.1,4.2,17.6,10.3,23.1,9.4,3.1-.4,5.7-2.5,8.2-4.2,2.7-1.9,5.2-3.8,8-3.8,3.1,0,8.6-.6,11.5-.8-.6-5.5-2.1-20.5-2.1-24.3,0-14.5-3.4-18-6.3-18.5-9-1.3-17.6-13.6-18.9-18.7-1.3-5.2.2-8.2,3.6-15.1,2.9-6.1,1-12-1.3-17.6-.8-1.9-2.3-4.8-4-7.8-4-7.3-6.5-12.6-6.5-15.7,0-4.6,2.3-18,2.3-18.7l5-44.9c-21.3-.7-42.3,2.8-64.3.1Z"/><path id="_692" class="cls-5" d="m521.41,793.32c-6.1,4.6-12.8,3.8-19.9,1,.8,3.1,1.5,5.7,1.5,5.9l.6,1.9-1.7.6c-5.5,2.1-15.1,6.7-17.4,9.6-3.4,4.6-11.3,12.4-11.5,12.8-2.5,3.1-6.3,9.6-5,12.8.2.4.6,1.5,2.9,1.9,12.2,2.5,12,10.9,12,16.6v1.5c0,3.1,1,11.1,2.1,17.8.8,6.3,1.5,10.3,1.5,12,0,2.3,3.8,14,14,15.1,12,1.3,19.7,9.6,21.2,13.8.2.8.4,2.1.6,3.4.6,4.4,1.5,10.5,8.6,13.6,11.5,5,16.1,11.7,19.3,18,3.1,6.1,4,7.8,12.2,8-5.9-19.1,22.9-32.9,30.8-49.1,1.5-4.6,0-9-1.5-12.2-13.6-16.8-37.9-21.2-42.4-40.9-1.5-16.8,6.1-33.3-2.9-51.6-3.6-6.5-1.7-12.2,2.3-17.4-9.1-3.3-18.3-2.2-27.3,4.9Z"/><path id="_981" class="cls-1" d="m588.11,699.42c-13.6-7.5-25.8,9-34.8,19.7-1.5,2.9-1.5,9,0,12.2,9.6,10.9,16.4,21.6,17.2,34.8.4-.4.6-.8,1-1.3,1.5-1.5,4.6,1.5,6.1,1.5,10.7,15.1,9,37.9,30.4,45.5,18.2,7.5,22.6,37.9,45.5,40.9,22,2.7,43-.8,64.8-.2l4.2-38.2c.4-10.1,2.3-60.6,3.6-64.2.2-.4.2-1,.4-1.9,1-4.2,3.1-12.6,8.2-18-19.9-7.3-42.4-6.7-62.9-14-3.8-1.5-7.5-4-10.9-7.1-23.1,26.3-51.7.7-72.8-9.7Z"/><path id="_370" class="cls-5" d="m715.31,553.62c2.9-9-6.1-21.2-16.8-18.2-9,2.9-18.2,10.7-28.7,7.5-4.6,0-9-6.1-15.1-4.6-10.7,6.1-18.2,24.3-6.1,33.3,7.5,6.1,16.8,2.9,22.6,9,3.6,2.7,6.7,6.5,10.3,9.9,2.7-2.3,5.9-3.6,9.4-2.1.4.2.6.4,1,.6,5.5-9.6,14.5-14.9,15.7-27.9.2-1.4,6.3-4.3,7.7-7.5Z"/><path id="_691" class="cls-2" d="m528.91,737.12c-21.2,12.2-45.5-1.5-65.2,12.2-7.3,4.6-11.3,12.2-15.1,20.3,2.5,1.7,5.2,2.7,8,2.7,10.1,0,20.1,1,26.6,1.7,2.9.2,5.2.6,6.3.6,6.3,0,10.1,3.4,10.1,8.8,0,2.7.8,7.1,1.7,10.7,6.9,2.9,13.8,3.6,19.9-1,9.2-7.1,18.2-8.2,26.4-5.2,5.9-7.8,16.8-14.5,22.4-22.2-.8-13-7.5-23.9-17.2-34.8-1.5-2.9-1.5-9,0-12.2.4-.6.8-1,1.3-1.7-10.5.4-15.1,14.4-25.2,20.1Z"/><path id="_668" class="cls-5" d="m629.01,618.92c-2.9-6.1-10.7-6.1-13.6-2.9-25.8,22.6-56.2,33.3-89.5,34.8-2.9,0-7.5,1.5-10.7,4.6-10.5,17.6-16.6,37.7-31.9,48.2.4,1.3,1,2.3,1.5,3.4,1.5,2.9,7.5,9,12.2,9,15.1,4.2,30.4,3.4,38.6,15.5,6.1-6.3,10.7-14.3,18.9-14.3,9-10.5,20.5-25.4,33.5-18,21.2,10.5,49.7,36.1,72.5,9.4-7.3-7.1-11.5-17.8-4.2-26.2,7.8-9.6,8.2-19.5,8.4-29.1-10.8-13.1-26.3-19.6-35.7-34.4Z"/><path id="_669" class="cls-2" d="m577.41,570.42c-4.6-4.6-13.6-1.5-19.7-4.6-1.5-1.5-6.1-6.1-6.1-9,6.1-24.3,0-50.1-22.6-59.1-21.2-9-44,1.5-65.2,4.6-2.9.6-5.9,1-9,1.3-3.6,8-8.8,15.7-13.8,22.9-4.6,6.1-1.5,16.8,2.9,24.3,8.2,21.6-11.5,32.3-28.7,29.1,1.3,14,1.3,28.1-1.7,42.1-1.7,7.1-4.8,14.5-9,21.2,18,.6,37.9-1,30.4,15.3-.4.6-.8,1.5-1,2.1,5.5-1.7,10.9-3.4,16.1-.6,1.5,0,1.5,7.5,4.6,7.5,21.2,4.2,22.6,21.4,28.7,36.1,15.3-10.5,21.4-30.6,31.9-48.2,2.9-2.9,7.5-4.6,10.7-4.6,33.3-1.5,63.7-12.2,89.5-34.8,0,0,.2,0,.2-.2-1.5-4.8-2.9-9.4-6.3-13.4-10.8-12.3-18.3-23-31.9-32Z"/><path id="_685" class="cls-5" d="m539.61,484.02c2.9-1.5,4.6-6.1,7.5-7.5,12.2-2.9,24.3-9,34.8-18.2,12.2-10.7,18.2,15.1,21.2,27.3,7.5,21.2,37.9,34.8,50.1,13.6,7.5-13.6,10.7-34.8,24.3-39.4,22.6-4.6,48.4-21.2,65.2-15.1,22,9.9,46.8,23.5,69.2,15.7-.8-12.8-1.9-28.5-2.7-43.4-1.9-30.6-3.6-57.2-3.6-59.3,0-.4.8-38.8,3.8-43.2,1.3-1.9,2.9-13.6,4.2-24.3-5.9-6.3-14.9-15.7-17.2-17.2-1.9-1.3-9.2-11.3-25.8-35-7.5-10.7-15.3-22-16.8-23.3-2.3-2.3-4.6-7.1-6.5-11.5-1-2.5-2.1-4.8-2.9-5.9-.2-.4-.6-.8-.8-1.5-2.3-3.8-6.1-9.9-17.4-13.6-13.8-4.6-29.1-20.5-34.2-28.1-3.6-5.2-36.5-37.1-52.2-52.4-4.4-4.4-7.8-7.5-9-8.8-4.2-4.2-29.6-19.5-41.7-26.8-4.4-2.5-7.1-4.4-8-4.8-1.5-.8-12.8-4.8-23.1-8.4-6.9-2.3-13-4.6-18-6.3-3.8,9-7.8,17.6-4.6,26.8,9,25.8,15.1,54.5,6.1,75.9-10.7,24.3-21.2,45.5-28.7,72.8-4.6,22.6-30.4,30.4-50.1,34.8-24.3,6.1-50.1,0-59.1-24.3h0c-3.6,4.6-5.7,11.3-12.2,12.2-9,1.5-16.8-2.9-25.8-1.5-7.5,2.9-7.5,9-12.2,16.8-1.3,2.3-3.4,4.8-6.5,5,0,2.1.6,4,1.9,5.7,9,12.2,25.8,22.6,15.1,39.4-1.5,1.5-7.5-1.5-12.2,0-7.5,4.6-9,15.1-15.1,19.7-1.7,1.3-3.6,2.3-5.5,3.4,10.9,12.2,19.9,27.5,35.9,30,30.4,6.1,72.8-7.5,78.8,21.2,7.5,25.8,12.2,47,33.3,66.7,9,7.5,2.9,21.2-4.6,25.8-4.8,3.1-9.4,4-14.3,3.8.4,7.5-1.7,15.5-5.2,23.3,2.9-.2,5.9-.6,9-1.3,21.2-2.9,44-13.6,65.2-4.6,5,2.1,9.4,5,12.8,8.4,3.5-7,4.1-14.4-2.4-22.6Z"/><path id="_663" class="cls-4" d="m735.01,506.72c3.8-20.1,11.7-41.1,28.1-53-6.9-2.9-13.8-6.3-20.5-9.2-16.8-6.1-42.4,10.7-65.2,15.1-13.6,4.6-16.8,25.8-24.3,39.4-12.2,21.2-42.6,7.5-50.1-13.6-2.9-12.2-9-37.9-21.2-27.3-10.7,9-22.6,15.1-34.8,18.2-2.9,1.5-4.6,6.1-7.5,7.5,6.5,8.2,6.1,15.5,2.3,22.2,12,12.2,14.7,31.9,9.9,50.7,0,2.9,4.6,7.5,6.1,9,6.1,2.9,15.1,0,19.7,4.6,13.6,9,21.2,19.7,31.9,31.9,3.4,4.2,4.8,8.8,6.3,13.4,3.1-2.9,10.5-2.7,13.4,3.1,9.4,14.9,25,21.4,35.9,34.4.2-5.5.4-10.9,2.1-16.4,1.5-4.6,6.1-7.5,7.5-12.2,2.9-9-2.9-16.8,0-24.3,1.7-3.1,4.2-7.3,7.1-9.9-3.6-3.1-6.7-6.9-10.3-9.9-6.1-6.1-15.1-2.9-22.6-9-12.2-9-4.6-27.3,6.1-33.3,6.1-1.5,10.7,4.6,15.1,4.6,10.7,2.9,19.7-4.6,28.7-7.5,2.9-.8,5.7-.4,8.2.6,10.7-9,24.6-14.9,28.1-29.1Z"/><path id="_368" class="cls-1" d="m825.41,554.32c1.3-1.3,3.1-6.1-5-25.2-3.6-8.4-6.9-36.1-6.9-41.7,0-1.5-.6-12.4-1.5-27-15.5,5.2-32.5.2-48.6-6.7-16.4,11.7-24.3,32.9-28.1,53-3.6,14.3-17.4,20.1-28.3,29.4,6.5,2.7,10.9,11.1,8.6,17.6-1.5,2.9-7.5,6.1-7.5,7.5-1.3,13-10.3,18.2-15.7,27.9,11.5,6.5,17.6,23.5,32.3,17.6,4.6-1.5,4.6-15.1,13.6-12.2,2.9,1.5,6.1,9,10.7,9,25.6,1.9,53,.8,76.9,8,0-6.1,0-10.9.2-12.6-1.7-11.1-4.4-24.1-6.3-26-4.9-4.6.8-13.8,5.6-18.6Z"/><path id="_562" class="cls-4" d="m497.11,715.92c-4.6,0-10.7-6.1-12.2-9-7.5-15.1-7.5-34.8-30.4-39.4-2.9,0-2.9-7.5-4.6-7.5-5.5-2.7-10.9-1-16.1.6-6.3,13.2-8.2,30.2-16.6,44l8-.6.4,1.7c.2,1.3,6.9,32.1,6.9,37.9,0,3.6,6.7,19.5,16.1,26,3.8-8.2,7.8-15.7,15.1-20.3,19.7-13.6,44,0,65.2-12.2,2.5-1.5,4.8-3.4,6.9-5.7-8.3-12.1-23.6-11.3-38.7-15.5Z"/><path id="_366" class="cls-4" d="m444.01,550.72c-4.6-7.5-7.5-18.2-2.9-24.3,10.1-14.1,20.1-30.8,19.1-46.1-16.1-.8-32.1-15.7-50.9-9.9-10.7,4-15.5,12.6-22.4,19.7,5.2,8.4,6.3,20.5,7.3,31.9,0,4.6,10.7,6.1,12.2,9,4,16.4,7.8,32.5,9.2,48.9,16.9,3.1,36.6-7.6,28.4-29.2Z"/><path id="_365" class="cls-1" d="m404.61,643.02c-11.1,17.6-29.1,31.9-45.5,31.9-9,0-19.7-31.9-31.9-18.2-19.5,19.5-35.9,5.9-52.6-5.9-1.3,10.3-2.3,35.2-.6,39.4,2.1,5.5,7.8,15.5,14.3,20.8.8.8,1.9,1.7,3.1,2.5,6.7,5.7,16.8,14.3,22.2,15.3,4.4.8,12,1,22.4,1,1.7,0,7.1-.2,12.4-.6,5.7-.2,10.9-.6,12.6-.6,3.1,0,10.9-3.4,11.7-6.5l3.8-15.1,40.9-3.1c8.8-14.5,10.3-32.7,17.6-46.1,7.6-15.9-12.4-14.2-30.4-14.8Z"/><path id="_657" class="cls-5" d="m327.21,656.82c12.2-13.6,22.6,18.2,31.9,18.2,22.6,0,48.4-27.3,54.5-53,6.1-30.4,0-60.6-7.5-91-1.5-2.9-12.2-4.6-12.2-9-1.5-16.8-2.9-34.8-18.2-40.9-4.6-2.9-10.7-1.5-13.6-6.1-1.5-4.6,1.5-13.6-1.5-15.1-7.3-3.1-16.1-7.8-24.3-7.8v.2c0,9-12.2,12.2-15.1,19.7-19.1,37.9-9.9,85.8-39,116.4v.8c-.2,2.1-5.7,53.7-6.9,58.3-.2.6-.4,1.9-.6,3.6,16.7,11.6,33.2,25.2,52.5,5.7Z"/><path id="_674" class="cls-5" d="m291.01,188.42c1.5,2.9,6.1,4.6,9,2.9,18.2,0,30.4-21.2,47-6.1,0-2.9,4.6-4.6,4.6-6.1-10.9-15.9-8.2-25.8.4-36.3-17.4-18.7-18.9-42.1-20.1-66.9,0-3.6-1.5-7.1-3.8-10.5-5,2.7-10.9,5.2-12,5.7l-10.5,5.2-1-1.3s-5.2-6.1-10.9-6.1c-6.5,0-18.5,4.4-18.5,11.5,0,5.2-2.5,8.4-4.8,11.3-2.1,2.7-4.4,5.5-5.5,10.7-1.5,7.3-12.8,16.1-24.7,23.3,19.9,18.5,36.3,38.6,50.8,62.7Z"/><line id="LINE_26" class="cls-3" x1="296.61" y1="118.02" x2="261.81" y2="58.02"/><line id="LINE_27" class="cls-3" x1="529.11" y1="870.22" x2="465.01" y2="896.72"/><line id="LINE_28" class="cls-3" x1="458.11" y1="719.72" x2="404.61" y2="763.92"/><line id="LINE_29" class="cls-3" x1="837.21" y1="473.12" x2="688.91" y2="557.22"/><line id="LINE_30" class="cls-3" x1="431.21" y1="526.22" x2="223.51" y2="705.02"/><g id="G_31"><path id="PATH_32" d="m218.21,45.82c.2.6.2,1.3.2,1.9,0,.8-.2,1.5-.4,2.3-.6,1.5-1.7,2.7-3.8,3.6-1.7.6-3.4,1-5.2,1-1.9,0-3.4-.4-4.6-1.3-1.3-1-1.9-2.3-1.9-4.2,0-1,.2-1.9.6-3.1.4-.8.6-1.5,1-1.9.2-.2.4-.2.4-.2q.2,0,.2.2v.4c-.6,1.3-.8,2.5-.8,3.6s.4,1.9,1,2.7c.8,1,2.3,1.5,4.2,1.5,2.1,0,4-.4,5.5-1,1.3-.6,2.1-1.3,2.5-2.1.2-.2.2-.6.2-.8,0-.6-.2-1.3-.4-2.1-.2-.6-.8-1.7-1.9-3.4l.8-1.7c.2-.2.2-.4.2-.4,0,0,.2,0,.2.2,1.2,1.7,1.8,3.2,2,4.8Zm-6.3-9l-1.7,1.7-1.7-1.7,1.7-1.7,1.7,1.7Z"/><path id="PATH_33" d="m226.61,46.22h-1.5c-1.5,0-2.7-.6-3.1-1.9-.4-.8-.6-2.3-.6-4v-4c0-1.9-.2-4.6-.4-8.2l1.3-1.5c.2-.2.4-.2.4,0,.2,1.9.4,4.6.4,8.2v6.1c0,1.7.8,2.5,2.5,2.5h1v2.8h0Z"/><path id="PATH_34" d="m231.61,42.12c0,2.7-1.5,4.2-4.2,4.2h-1.7v-2.5h1.5c2.1,0,3.1-.4,3.1-1s-.4-1.5-1.5-2.5l.8-2.1c0-.2.2-.2.2-.2l.4.4c1,.9,1.4,2.2,1.4,3.7Zm0-9.7l-1.7,1.7-1.7-1.7,1.7-1.7,1.7,1.7Z"/><path id="PATH_35" d="m240.01,46.22h-1.5c-1.5,0-2.7-.6-3.1-1.9-.4-.8-.6-2.3-.6-4v-4c0-1.9-.2-4.6-.4-8.2l1.3-1.5c.2-.2.4-.2.4,0,.2,1.9.4,4.6.4,8.2v6.1c0,1.7.8,2.5,2.5,2.5h1v2.8h0Z"/><path id="PATH_36" d="m250.31,46.22h-1.7c-1.9,0-3.1-.6-4-1.9-.6,1.3-2.1,1.9-4.4,1.9h-1v-2.5h1.9c2.1,0,3.1-.8,3.4-2.3,0-.6.2-1,.4-1s.4.4.4,1c.2,1.5,1.3,2.3,3.1,2.3h1.9v2.5h0Zm-4.6,4.7l-1.7,1.7-1.7-1.7,1.7-1.7,1.7,1.7Z"/><path id="PATH_37" d="m263.11,41.82c0,.8-.2,1.7-.8,2.5-.6,1-1.3,1.5-2.1,1.5-.6,0-2.1-.4-4.4-1.5-1.9,1.3-3.6,1.7-5,1.7h-1v-2.5h1.3c.8,0,1.7,0,2.5-.2-.8-.6-1.3-1.5-1.3-2.5,0-1.3.8-2.7,2.7-4.2l-1.5-.6c.4-.4,1-1,1.9-1.9,1.9,1,3.6,1.9,5,3.1,1.6,1.7,2.7,3.2,2.7,4.6Zm-5.5-1.6c0-.6-.2-1-.4-1.5-.2-.6-.6-.8-1.3-.8-.6,0-1,.2-1.7.6-.6.4-1,1-1,1.5,0,.8.8,1.7,2.3,2.1.4-.2.8-.4,1.3-.6.6-.5.8-.9.8-1.3Zm4.4,2.5c0-.6-.4-1.3-1.3-2.1-.6-.6-1.3-1.3-1.9-1.5,0,1.7-.4,2.9-1.5,3.8,1.7.6,2.9.8,3.4.8.9,0,1.3-.4,1.3-1Z"/><path id="PATH_38" d="m276.11,46.22h-2.3c-.2,2.9-1.3,5.2-3.4,7.3-.6.6-1,1-1.3,1-1,0-2.5-.2-4-.4-.4,0-.8-.2-.8-.2,0,0,.2-.2.8-.4,1.7-.4,3.4-1.5,4.8-2.5.6-.6,1.3-1,1.7-1.9.6-.8,1-1.7,1-2.3v-.6h-2.7c-2.1,0-2.9-.8-2.9-2.5,0-1,.2-2.1.8-3.4.6-1.3,1.5-2.1,2.3-2.1,1,0,1.9.6,2.5,2.1.4,1,.8,2.1.8,3.4h2.3v2.5h.4Zm-3.8-2.5c0-.6-.2-1.3-.6-1.9-.4-.8-1-1-1.7-1-.4,0-.8.2-1,.4-.4.4-.4.6-.4,1.3,0,1,.8,1.5,2.5,1.5.2-.3.6-.3,1.2-.3Z"/><path id="PATH_39" d="m289.11,26.72c0,.4-.4,1.3-.8,2.3l-5.2,1.7c-2.3.8-4,1.5-4.8,1.9,1.7,1.7,2.7,2.9,3.4,3.6,1,1.5,1.7,2.7,1.9,4.2,0,1,0,2.1-.4,2.9-.6,1.9-2.9,2.7-6.5,2.7h-1v-2.5h1.3c1.7,0,2.9,0,3.6-.2,1.5-.4,2.3-1,2.3-2.1,0-1.5-1-3.1-3.4-5.2l-.2.4c-.2-.2-.6-.6-1-1.3-.6-.6-.8-1.3-.8-1.3,0-.4,0-.8.2-1.7.2-.8.4-1.3.6-1.5.2-.2,1.7-.8,4.4-1.7,2-.9,4.5-1.7,6.4-2.2Z"/></g><g id="G_40"><path id="PATH_41" d="m444.41,126.32c0,2.1-.6,4-1.9,5.9-1,1.5-2.1,2.3-2.7,2.3-1.7,0-2.9,0-4.2-.2-.4,0-.6-.2-.6-.2,0,0,.2-.2.6-.2,1.7-.4,3.4-1.3,5-2.5,1.7-1.5,2.7-2.9,2.7-4.4,0-.8-.6-2.1-2.1-3.6l1-1.9c0-.2.2-.2.2-.2l.2.2c.4.6,1,1.5,1.3,2.5.3.7.5,1.7.5,2.3Z"/><path id="PATH_42" d="m455.31,125.32c0,3.1-1,5.9-3.1,8-.6.6-1,1-1.3,1-1.3,0-2.5-.2-4-.4-.6,0-.8-.2-.8-.2,0,0,.2-.2.8-.4,1.7-.4,3.4-1.5,4.8-2.7.6-.6,1.3-1,1.7-1.9.6-.8,1-1.7,1-2.3v-.6h-2.7c-1.9,0-2.9-.8-2.9-2.3,0-1,.2-2.1.8-3.4.6-1.3,1.5-2.1,2.3-2.1,1.3,0,2.3.8,2.9,2.7.3,1.7.5,2.9.5,4.6Zm-1.4-1.7c0-.6-.2-1.3-.6-1.9-.4-.6-1-1-1.7-1-.4,0-.8.2-1,.4-.4.4-.4.6-.4,1,0,1,.6,1.5,2.1,1.5.1.2.7,0,1.6,0Z"/><path id="PATH_43" d="m460.21,123.62c0,.8-.2,1.7-.6,2.3-.2.4-.4.6-.4.6,0,0-.2-.2-.2-.8,0-2.5-.4-8.4-1.3-17.8l1.7-1.7.2-.2v.4c.6,2.7.6,8.6.6,17.2Z"/><path id="PATH_44" d="m470.91,126.32c0,2.1-.6,4-1.9,5.9-1,1.5-2.1,2.3-2.7,2.3-1.7,0-2.9,0-4.2-.2-.4,0-.6-.2-.6-.2,0,0,.2-.2.6-.2,1.7-.4,3.4-1.3,5-2.5,1.7-1.5,2.7-2.9,2.7-4.4,0-.8-.6-2.1-2.1-3.6l1-1.9c0-.2.2-.2.2-.2l.2.2c.4.6,1,1.5,1.3,2.5.3.7.5,1.7.5,2.3Z"/></g><g id="G_45"><path id="PATH_46" d="m319.31,215.72h-.8c-.8,0-1.5-.2-2.1-.8-.4-.4-.8-.8-1.3-1.7-.4.8-1,1.5-1.7,1.9-.8.4-1.9.6-3.6.6-2.9,0-4.4-1-4.4-3.1,0-.6.2-1.5.6-2.1.2-.2.2-.4.4-.4s.2.2.2.4v1.2c0,1.3,1,1.9,3.1,1.9,2.9,0,4.4-.6,4.4-1.7,0-.6-.8-2.9-2.5-6.9l.8-1.7c.2-.2.2-.4.2-.4,0,0,.2.2.2.4.6,1.7,1.7,4.2,2.9,7.5.6,1.7,1.5,2.5,2.7,2.5h.6l.3,2.4h0Z"/><path id="PATH_47" d="m324.31,211.72c0,2.7-1.5,4.2-4.2,4.2h-1.7v-2.5h1.5c2.1,0,3.1-.4,3.1-1s-.4-1.5-1.5-2.5l.8-2.1c0-.2.2-.2.2-.2l.4.4c1,1,1.4,2.2,1.4,3.7Zm-.2-9.7l-1.7,1.7-1.7-1.7,1.7-1.7,1.7,1.7Z"/><path id="PATH_48" d="m334.81,215.92c0,2.1-.6,4-1.9,5.9-1,1.5-2.1,2.3-2.7,2.3-1.7,0-2.9,0-4.2-.2-.4,0-.6-.2-.6-.2,0,0,.2-.2.6-.2,1.7-.4,3.4-1.3,5-2.5,1.7-1.5,2.7-2.9,2.7-4.4,0-.8-.6-2.1-2.1-3.6l1-1.9c0-.2.2-.2.2-.2l.2.2c.4.6,1,1.5,1.3,2.5.3.6.5,1.6.5,2.3Z"/><path id="PATH_49" d="m345.51,215.92c0,2.1-.6,4-1.9,5.9-1,1.5-2.1,2.3-2.7,2.3-1.7,0-2.9,0-4.2-.2-.4,0-.6-.2-.6-.2,0,0,.2-.2.6-.2,1.7-.4,3.4-1.3,5-2.5,1.7-1.5,2.7-2.9,2.7-4.4,0-.8-.6-2.1-2.1-3.6l1-1.9c0-.2.2-.2.2-.2l.2.2c.4.6,1,1.5,1.3,2.5.3.6.5,1.6.5,2.3Zm-1.7-11.1l-1.7,1.7-1.7-1.7,1.7-1.7,1.7,1.7Z"/></g><g id="G_50"><path id="PATH_51" d="m166.81,215.92c0,2.1-.6,4-1.9,5.9-1,1.5-2.1,2.3-2.7,2.3-1.7,0-2.9,0-4.2-.2-.4,0-.6-.2-.6-.2,0,0,.2-.2.6-.2,1.7-.4,3.4-1.3,5-2.5,1.7-1.5,2.7-2.9,2.7-4.4,0-.8-.6-2.1-2.1-3.6l1-1.9c0-.2.2-.2.2-.2l.2.2c.4.6,1,1.5,1.3,2.5.3.6.5,1.6.5,2.3Z"/><path id="PATH_52" d="m175.01,215.72h-1.5c-1.5,0-2.7-.6-3.1-1.9-.4-.8-.6-2.3-.6-4v-4c0-1.9-.2-4.6-.4-8.2l1.3-1.5c.2-.2.4-.2.4,0,.2,1.9.4,4.6.4,8.2v6.1c0,1.7.8,2.5,2.5,2.5h1v2.8h0Z"/><path id="PATH_53" d="m180.11,211.72c0,2.7-1.5,4.2-4.2,4.2h-1.7v-2.5h1.5c2.1,0,3.1-.4,3.1-1s-.4-1.5-1.5-2.5l.8-2.1c0-.2.2-.2.2-.2l.4.4c.9,1,1.4,2.2,1.4,3.7Zm0-9.7l-1.7,1.7-1.7-1.7,1.7-1.7,1.7,1.7Z"/><path id="PATH_54" d="m185.11,213.12c0,.8-.2,1.7-.6,2.3-.2.4-.4.6-.4.6,0,0-.2-.2-.2-.8,0-2.5-.4-8.4-1.3-17.8l1.7-1.7.2-.2v.4c.4,3,.6,8.6.6,17.2Z"/></g><g id="G_55"><path id="PATH_56" d="m75.41,304.12h-1.5c-1,0-2.1-.6-3.4-1.7-.6-.6-1.5-1.7-2.5-3.1,0,1.5-.2,2.5-.8,3.1-1,1.3-3.1,1.9-6.3,1.9h-4.2c-5,0-7.8-1.5-7.8-4.4,0-1,.4-2.1,1-3.1.2-.2.4-.4.4-.4q.2,0,.2.2v.4c-.2.8-.4,1.3-.4,1.9,0,.8.4,1.5,1,1.9,1,.8,2.7,1.3,5,1.3h4.2c2.3,0,4-.2,4.8-.4,1-.4,1.5-1,1.5-1.9s-.4-1.9-1.5-3.1c-.6-.6-1.5-1.7-2.7-2.7-1-.8-1.5-1.5-1.5-1.5,0-1.5.2-2.3.6-2.9,0-.2,1.5-.6,4.4-1.7,2.9-1,5.5-1.9,7.3-2.5,0,.2-.2,1-.6,2.3-2.3.6-5.7,1.9-10.3,3.6,2.1,1.9,4.4,4.6,7.1,8.2,1,1.3,1.9,2.1,2.5,2.5.4.2,1.3.4,2.1.4h.8v1.9h.6v-.2h0Z"/><path id="PATH_57" d="m80.51,299.92c0,2.7-1.5,4.2-4.2,4.2h-1.7v-2.5h1.5c2.1,0,3.1-.4,3.1-1s-.4-1.5-1.5-2.5l.8-2.1c0-.2.2-.2.2-.2,0,0,.2.2.4.4.9,1,1.4,2.5,1.4,3.7Zm-.7,8.9l-1.7,1.7-1.7-1.7,1.7-1.7,1.7,1.7Z"/><path id="PATH_58" d="m88.81,304.12h-1.5c-1.5,0-2.7-.6-3.1-1.9-.4-.8-.6-2.3-.6-4v-4c0-1.9-.2-4.6-.4-8.2l1.3-1.5c.2-.2.4-.2.4,0,.2,1.9.4,4.6.4,8.2v6.1c0,1.7.8,2.5,2.5,2.5h1v2.8h0Z"/><path id="PATH_59" d="m93.71,299.92c0,2.7-1.5,4.2-4.2,4.2h-1.7v-2.5h1.5c2.1,0,3.1-.4,3.1-1s-.4-1.5-1.5-2.5l.8-2.1c0-.2.2-.2.2-.2,0,0,.2.2.4.4.9,1,1.4,2.5,1.4,3.7Zm-.7,8.9l-1.7,1.7-1.7-1.7,1.7-1.7,1.7,1.7Z"/><path id="PATH_60" d="m106.91,304.12h-.8c-.8,0-1.3-.2-1.7-.4v.6c0,1.9-.6,3.8-1.9,5.7-1,1.7-2.1,2.3-2.7,2.3-1.7,0-2.9,0-4.2-.2-.4,0-.6-.2-.6-.2,0,0,.2-.2.6-.2,1.7-.4,3.4-1.3,5-2.5,1.7-1.5,2.7-2.9,2.7-4.4,0-.8-.6-2.1-2.1-3.6l1-1.9c0-.2.2-.2.2-.2l.2.2c.6.8,1,1.5,1.5,1.7.6.4,1.5.8,2.3.8h.6l-.1,2.3h0Z"/><path id="PATH_61" d="m119.91,304.12h-1c-.8,0-1.7.2-2.3.4-1,.4-1.7,1-1.7,2.1,0,1.3.8,2.3,2.5,3.4l-1,2.1c-1.9-.6-3.6-1.7-4.8-2.9-1.7-1.5-2.5-3.4-2.5-5.2h-2.9v-2.5h2.7c0-1.7.4-3.4,1.3-5.5.8-1.9,1.5-2.7,1.9-2.7s1,.8,1.7,2.7c.6,1.7.8,2.7.8,3.4,0,2.9-1.5,4.4-4.4,4.4.2.8.6,1.7,1.3,2.5.6.8,1.5,1.5,2.3,1.9v-.8c0-1.5.4-2.7,1-3.8,1-1.5,2.3-2.3,4.2-2.3h.8v2.9h.1v-.1h0Zm-6.5-3.3c0-.4-.2-1.3-.6-2.3-.4-1.3-.8-1.7-1.3-1.7-.2,0-.6.4-1,1.5s-.6,2.3-.6,3.6c2.4-.3,3.5-.5,3.5-1.1Z"/><path id="PATH_62" d="m136.41,299.72c0,1.3-.2,2.3-.8,3.1s-1.7,1.5-2.7,1.5c-1.5,0-2.3-.6-2.9-1.7-.8,1.3-1.7,1.7-2.9,1.7-1.5,0-2.5-.6-3.1-1.7-.8,1.3-1.9,1.7-3.4,1.7h-1.5v-2.5h1.7c1.5,0,2.5-.8,2.7-2.5,0-.4.2-.6.4-.6s.2.2.4.6c.2,1.7,1,2.5,2.7,2.5.8,0,1.7-.2,2.1-.6.2-.4.4-.8.6-1.7,0-.4.2-.6.4-.6s.2.2.4.6c.2,1.7,1,2.5,2.5,2.5,1.7,0,2.3-.4,2.3-1s-.4-1.5-1.3-2.3l1-1.9c.2-.2.2-.4.4-.4s.2.2.4.4c.2.8.6,1.9.6,2.9Zm-7.1-7.7l-1.5,1.5-1.5-1.5,1.5-1.5,1.5,1.5Zm1.9-3.2l-1.5,1.5-1.5-1.5,1.5-1.5,1.5,1.5Zm1.9,3.2l-1.5,1.5-1.5-1.5,1.5-1.5,1.5,1.5Z"/></g><g id="G_63"><path id="PATH_64" d="m234.11,289.32c.2.6.2,1.3.2,1.9,0,.8-.2,1.5-.4,2.3-.6,1.5-1.7,2.7-3.8,3.6-1.7.6-3.4,1-5.2,1s-3.4-.4-4.6-1.3c-1.3-1-1.9-2.3-1.9-4.2,0-1,.2-1.9.6-3.1.4-.8.6-1.5,1-1.9.2-.2.4-.2.4-.2q.2,0,.2.2v.4c-.6,1.3-.8,2.5-.8,3.6s.4,1.9,1,2.7c.8,1,2.3,1.5,4.2,1.5,2.1,0,4-.4,5.5-1,1.3-.6,2.1-1.3,2.5-2.1.2-.2.2-.6.2-.8,0-.6-.2-1.3-.4-2.1-.2-.6-.8-1.7-1.9-3.4l.8-1.7c.2-.2.2-.4.2-.4,0,0,.2,0,.2.2,1.2,1.4,1.8,3.1,2,4.8Zm-6-9.3l-1.7,1.7-1.7-1.7,1.7-1.7,1.7,1.7Z"/><path id="PATH_65" d="m242.71,289.52h-1.5c-1.5,0-2.7-.6-3.1-1.9-.4-.8-.6-2.3-.6-4v-4c0-1.9-.2-4.6-.4-8.2l1.3-1.5c.2-.2.4-.2.4,0,.2,1.9.4,4.6.4,8.2v6.1c0,1.7.8,2.5,2.5,2.5h1v2.8h0Z"/><path id="PATH_66" d="m261.21,289.52h-2.1c-2.7,0-4.2-1.5-4.2-4.2v-1c-1,.4-2.3,1.3-4,2.3s-2.7,1.7-3.6,2.1c-1.3.6-2.7.8-4,.8h-1.5v-2.5h1.7c1.7,0,3.6-.4,5.2-1.3.8-.4,2.3-1.3,4.6-2.3-.4,0-1.7-.4-3.8-.8-1.5-.4-2.3-.6-2.5-.6-.8,0-1.7.4-2.5,1q-.2.2-.4.2t-.2-.2v-.2c.6-2.1,1.9-3.1,3.6-3.1.6,0,1.5.2,2.5.4,1.5.4,2.7.8,3.8,1,1.5.2,3.1.4,5,.4h.6v.4l-.6,1.9c-1.3,0-2.1,0-2.5.2,0,1,.2,1.7.4,1.9.4.6,1.3,1,2.7,1h2.1v2.5h-.3v.1Zm-8,4.2l-1.7,1.7-1.7-1.7,1.7-1.7,1.7,1.7Z"/><path id="PATH_67" d="m271.51,289.52h-1.7c-1.9,0-3.1-.6-4-1.9-.6,1.3-2.1,1.9-4.4,1.9h-1.3v-2.5h1.9c2.1,0,3.1-.8,3.4-2.3,0-.6.2-1,.4-1s.4.4.4,1c.2,1.5,1.3,2.3,3.1,2.3h1.9v2.5h.3Zm-4.2-10.9l-1.7,1.7-1.7-1.7,1.7-1.7,1.7,1.7Z"/><path id="PATH_68" d="m290.81,289.52h-1.3c-1.5,0-2.3-.6-2.9-1.7-.4,1.3-1.5,1.7-2.7,1.7-1.3,0-2.1-.6-2.7-1.7-.6,1.3-1.5,1.7-2.7,1.7-1.5,0-2.5-.6-3.1-1.7-.8,1.3-1.9,1.7-3.4,1.7h-1.3v-2.5h1.7c1.5,0,2.5-.8,2.7-2.5,0-.4.2-.6.4-.6s.2.2.4.6c.2,1.7,1,2.5,2.7,2.5,1.5,0,2.5-.8,2.5-2.5,0-.4.2-.6.4-.6s.4.2.4.6c.2,1.7,1,2.5,2.1,2.5,1.5,0,2.5-.8,2.5-2.5,0-.4.2-.6.4-.6s.4.2.4.6c.2,1.7,1,2.5,2.5,2.5h1.3v2.5h-.3Z"/><path id="PATH_69" d="m298.91,283.62v.8c0,1.5-.2,2.3-.6,2.9-1,1.5-2.7,2.1-5.5,2.1h-2.9v-2.5h2.1c3.6,0,5.5-.6,5.9-1.7v-.4c0-.4,0-.6-.2-.8-.8.2-1.9.2-2.7.2-1.9,0-2.9-.8-2.9-2.5,0-1,.2-2.3.8-3.4.6-1.3,1.5-1.9,2.5-1.9.8,0,1.7.6,2.3,1.7.8,1.5,1.2,3.4,1.2,5.5Zm-2.5-11.5l-1.7,1.7-1.7-1.7,1.7-1.7,1.7,1.7Zm.9,9.6c0-.6-.2-1.3-.6-1.9-.4-.6-1-.8-1.7-.8-.4,0-.8.2-1.3.4-.2.2-.4.6-.4,1,0,.8.6,1.3,2.1,1.3.4.2,1,.2,1.9,0Z"/><path id="PATH_70" d="m309.41,289.72c0,2.1-.6,4-1.9,5.9-1,1.5-2.1,2.3-2.7,2.3-1.7,0-2.9,0-4.2-.2-.4,0-.6-.2-.6-.2,0,0,.2-.2.6-.2,1.7-.4,3.4-1.3,5-2.5,1.7-1.5,2.7-2.9,2.7-4.4,0-.8-.6-2.1-2.1-3.6l1-1.9c0-.2.2-.2.2-.2l.2.2c.4.6,1,1.5,1.3,2.5.3.6.5,1.4.5,2.3Z"/></g><g id="G_71"><path id="PATH_72" d="m346.71,410.02h-.8c-.8,0-1.3-.2-1.7-.4v.6c0,1.9-.6,3.8-1.9,5.7-1,1.7-2.1,2.3-2.7,2.3-1.7,0-2.9,0-4.2-.2-.4,0-.6-.2-.6-.2,0,0,.2-.2.6-.2,1.7-.4,3.4-1.3,5-2.5,1.7-1.5,2.7-2.9,2.7-4.4,0-.8-.6-2.1-2.1-3.6l1-1.9c0-.2.2-.2.2-.2l.2.2c.6.8,1,1.5,1.5,1.7.6.4,1.5.8,2.3.8h.6l-.1,2.3h0Z"/><path id="PATH_73" d="m357.01,410.02h-1.7c-1.9,0-3.1-.6-4-1.9-.6,1.3-2.1,1.9-4.4,1.9h-1.3v-2.5h1.9c2.1,0,3.1-.8,3.4-2.3,0-.6.2-1,.4-1s.4.4.4,1c.2,1.5,1.3,2.3,3.1,2.3h1.9v2.5h.3Zm-6.9,4.6l-1.7,1.7-1.7-1.7,1.7-1.7,1.7,1.7Zm3.8,0l-1.7,1.7-1.7-1.7,1.7-1.7,1.7,1.7Z"/><path id="PATH_74" d="m373.61,405.62c0,1.3-.2,2.3-.8,3.1-.6.8-1.7,1.5-2.7,1.5-1.5,0-2.3-.6-2.9-1.7-.8,1.3-1.7,1.7-2.9,1.7-1.5,0-2.5-.6-3.1-1.7-.8,1.3-1.9,1.7-3.4,1.7h-1.6v-2.5h1.7c1.5,0,2.5-.8,2.7-2.5,0-.4.2-.6.4-.6s.2.2.4.6c.2,1.7,1,2.5,2.7,2.5.8,0,1.7-.2,2.1-.6.2-.4.4-.8.6-1.7,0-.4.2-.6.4-.6s.2.2.4.6c.2,1.7,1,2.5,2.5,2.5,1.7,0,2.3-.4,2.3-1s-.4-1.5-1.3-2.3l1-1.9c.2-.2.2-.4.4-.4s.2.2.4.4c.5.8.7,1.9.7,2.9Z"/><path id="PATH_75" d="m386.61,405.62c0,2.9-1.9,4.4-5.9,4.4-1.5,0-2.5-.2-3.1-.6-.8-.4-1.3-1.5-1.3-2.7,0-.6.2-1.3.4-1.9.2-.2.2-.4.4-.4s.2.2.2.6v.6c0,.8.4,1.5,1.3,1.7.4.2,1.3.2,2.3.2,3.1,0,4.6-.4,4.6-1.5,0-1.5-1.9-3.6-5.5-6.1l.6-2.1c0-.2.2-.2.2-.2,0,0,.2,0,.4.2,3.5,2.8,5.4,5.5,5.4,7.8Z"/><path id="PATH_76" d="m399.61,410.02h-.8c-.8,0-1.3-.2-1.7-.4v.6c0,1.9-.6,3.8-1.9,5.7-1,1.7-2.1,2.3-2.7,2.3-1.7,0-2.9,0-4.2-.2-.4,0-.6-.2-.6-.2,0,0,.2-.2.6-.2,1.7-.4,3.4-1.3,5-2.5,1.7-1.5,2.7-2.9,2.7-4.4,0-.8-.6-2.1-2.1-3.6l1-1.9c0-.2.2-.2.2-.2l.2.2c.6.8,1,1.5,1.5,1.7.6.4,1.5.8,2.3.8h.6l-.1,2.3h0Z"/><path id="PATH_77" d="m404.61,405.82c0,2.7-1.5,4.2-4.2,4.2h-1.7v-2.5h1.5c2.1,0,3.1-.4,3.1-1s-.4-1.5-1.5-2.5l.8-2.1c0-.2.2-.2.2-.2,0,0,.2.2.4.4,1,1,1.4,2.5,1.4,3.7Zm-.6,8.8l-1.7,1.7-1.7-1.7,1.7-1.7,1.7,1.7Z"/></g><g id="G_78"><path id="PATH_79" d="m522.21,329.12c.2.6.2,1.3.2,1.9,0,.8-.2,1.5-.4,2.3-.6,1.5-1.7,2.7-3.8,3.6-1.7.6-3.4,1-5.2,1-1.9,0-3.4-.4-4.6-1.3-1.3-1-1.9-2.3-1.9-4.2,0-1,.2-1.9.6-3.1.4-.8.6-1.5,1-1.9.2-.2.4-.2.4-.2q.2,0,.2.2v.4c-.6,1.3-.8,2.5-.8,3.6s.4,1.9,1,2.7c.8,1,2.3,1.5,4.2,1.5,2.1,0,4-.4,5.5-1,1.3-.6,2.1-1.3,2.5-2.1.2-.2.2-.6.2-.8,0-.6-.2-1.3-.4-2.1-.2-.6-.8-1.7-1.9-3.4l.8-1.7c.2-.2.2-.4.2-.4,0,0,.2,0,.2.2,1.2,1.4,1.8,3.1,2,4.8Zm-6.3-9.2l-1.7,1.7-1.7-1.7,1.7-1.7,1.7,1.7Z"/><path id="PATH_80" d="m530.61,329.32h-1.5c-1.5,0-2.7-.6-3.1-1.9-.4-.8-.6-2.3-.6-4v-4c0-1.9-.2-4.6-.4-8.2l1.3-1.5c.2-.2.4-.2.4,0,.2,1.9.4,4.6.4,8.2v6.1c0,1.7.8,2.5,2.5,2.5h1v2.8h0Z"/><path id="PATH_81" d="m541.11,325.12c0,1,0,1.9-.4,2.7-.4,1-1,1.7-1.7,1.7-1,0-2.7-.6-4.8-2.1-.6.8-1,1.3-1.3,1.5-.6.4-1.3.6-2.1.6h-1v-2.5h1.5c.8,0,1.7-.4,2.5-1.5.4-.4,1-1.5,1.9-2.7.6-1,1.5-1.5,2.1-1.5,1,0,1.9.4,2.5,1.5.4.8.8,1.5.8,2.3Zm-1.3,1.5c0-.6-.2-1.3-.6-2.1-.4-.8-1-1.3-1.7-1.3-.6,0-1.3.6-2.1,1.9.4.4,1,.8,1.9,1.3.8.4,1.7.6,2.1.6.2.2.4,0,.4-.4Z"/><path id="PATH_82" d="m554.11,329.32h-.8c-.8,0-1.3-.2-1.7-.4v.6c0,1.9-.6,3.8-1.9,5.7-1,1.7-2.1,2.3-2.7,2.3-1.7,0-2.9,0-4.2-.2-.4,0-.6-.2-.6-.2,0,0,.2-.2.6-.2,1.7-.4,3.4-1.3,5-2.5,1.7-1.5,2.7-2.9,2.7-4.4,0-.8-.6-2.1-2.1-3.6l1-1.9c0-.2.2-.2.2-.2l.2.2c.6.8,1,1.5,1.5,1.7.6.4,1.5.8,2.3.8h.6l-.1,2.3h0Z"/><path id="PATH_83" d="m567.11,309.82c0,.4-.4,1.3-.8,2.3l-5.2,1.7c-2.3.8-4,1.5-4.8,1.9,1.7,1.7,2.7,2.9,3.4,3.6,1,1.5,1.7,2.7,1.9,4.2,0,1,0,2.1-.4,2.9-.6,1.9-2.9,2.7-6.5,2.7h-1v-2.5h1.3c1.7,0,2.9,0,3.6-.2,1.5-.4,2.3-1,2.3-2.1,0-1.5-1-3.1-3.4-5.2l-.2.4c-.2-.2-.6-.6-1-1.3-.6-.6-.8-1.3-.8-1.3,0-.4,0-.8.2-1.7.2-.8.4-1.3.6-1.5s1.7-.8,4.4-1.7c2-.7,4.5-1.6,6.4-2.2Z"/></g><g id="G_84"><path id="PATH_85" d="m169.11,476.92c.2.6.2,1.3.2,1.9,0,.8-.2,1.5-.4,2.3-.6,1.5-1.7,2.7-3.8,3.6-1.7.6-3.4,1-5.2,1s-3.4-.4-4.6-1.3c-1.3-1-1.9-2.3-1.9-4.2,0-1,.2-1.9.6-3.1.4-.8.6-1.5,1-1.9.2-.2.4-.2.4-.2q.2,0,.2.2v.4c-.6,1.3-.8,2.5-.8,3.6,0,1,.4,1.9,1,2.7.8,1,2.3,1.5,4.2,1.5,2.1,0,4-.4,5.5-1,1.3-.6,2.1-1.3,2.5-2.1.2-.2.2-.6.2-.8,0-.6-.2-1.3-.4-2.1-.2-.6-.8-1.7-1.9-3.4l.8-1.7c.2-.2.2-.4.2-.4,0,0,.2,0,.2.2,1.2,1.5,1.8,3.1,2,4.8Zm-6-9.2l-1.7,1.7-1.7-1.7,1.7-1.7,1.7,1.7Z"/><path id="PATH_86" d="m177.71,477.12h-1.5c-1.5,0-2.7-.6-3.1-1.9-.4-.8-.6-2.3-.6-4v-4c0-1.9-.2-4.6-.4-8.2l1.3-1.5c.2-.2.4-.2.4,0,.2,1.9.4,4.6.4,8.2v6.1c0,1.7.8,2.5,2.5,2.5h1v2.8h0Z"/><path id="PATH_87" d="m194.11,471.02l-.8,1.7c-1.5,0-2.7,0-3.4.2-.8.4-2.1.8-3.8,1.7-1.7.8-2.9,1.5-3.8,1.7-1.3.4-2.7.6-4,.6h-1.5v-2.5h1.5c1.9,0,3.6-.4,5-1l4.8-2.1c-.8-.2-2.1-.6-3.8-1.3-1.5-.6-2.3-.8-2.7-.8-.8,0-1.7.4-2.5,1q-.2.2-.4.2t-.2-.2v-.2c.6-2.1,1.9-2.9,3.6-2.9.6,0,1.5.2,2.3.6,1.7.8,2.9,1.3,3.8,1.7,1.5.4,3.1.8,5,.8.4,0,.6,0,.6.2.5.2.5.4.3.6Zm-6.9,10.3l-1.7,1.7-1.7-1.7,1.7-1.7,1.7,1.7Z"/><path id="PATH_88" d="m207.31,477.12h-.8c-.8,0-1.3-.2-1.7-.4v.6c0,1.9-.6,3.8-1.9,5.7-1,1.7-2.1,2.3-2.7,2.3-1.7,0-2.9,0-4.2-.2-.4,0-.6-.2-.6-.2,0,0,.2-.2.6-.2,1.7-.4,3.4-1.3,5-2.5,1.7-1.5,2.7-2.9,2.7-4.4,0-.8-.6-2.1-2.1-3.6l1-1.9c0-.2.2-.2.2-.2l.2.2c.6.8,1,1.5,1.5,1.7.6.4,1.5.8,2.3.8h.6l-.1,2.3h0Z"/><path id="PATH_89" d="m217.61,477.12h-1.5c-1.9,0-3.1-.6-4-1.9-.6,1.3-2.1,1.9-4.4,1.9h-1.3v-2.5h1.9c2.1,0,3.1-.8,3.4-2.3,0-.6.2-1,.4-1s.4.4.4,1c.2,1.5,1.3,2.3,3.1,2.3h1.9l.1,2.5h0Zm-6.9,4.6l-1.7,1.7-1.7-1.7,1.7-1.7,1.7,1.7Zm3.7,0l-1.7,1.7-1.7-1.7,1.7-1.7,1.7,1.7Z"/><path id="PATH_90" d="m234.11,472.72c0,1.3-.2,2.3-.8,3.1-.6.8-1.7,1.5-2.7,1.5-1.5,0-2.3-.6-2.9-1.7-.8,1.3-1.7,1.7-2.9,1.7-1.5,0-2.5-.6-3.1-1.7-.8,1.3-1.9,1.7-3.4,1.7h-1.5v-2.5h1.7c1.5,0,2.5-.8,2.7-2.5,0-.4.2-.6.4-.6s.2.2.4.6c.2,1.7,1,2.5,2.7,2.5.8,0,1.7-.2,2.1-.6.2-.4.4-.8.6-1.7,0-.4.2-.6.4-.6s.2.2.4.6c.2,1.7,1,2.5,2.5,2.5,1.7,0,2.3-.4,2.3-1s-.4-1.5-1.3-2.3l1-1.9c.2-.2.2-.4.4-.4s.2.2.4.4c.4.8.6,1.9.6,2.9Z"/></g><g id="G_91"><path id="PATH_92" d="m345.71,563.52h-.8c-1,0-1.9-.2-2.3-.6-.6-.4-1-1.3-1-2.1-2.3,2.1-5.9,3.1-10.7,3.1s-7.5-1.5-7.5-4.6c0-1,.4-2.1,1.3-3.1q.2-.2.4-.2t.2.2v.4c-.2.6-.4,1.3-.4,1.9,0,2.1,2.3,3.1,6.9,3.1,5.2,0,8.8-1,10.5-3.4.4-.4.6-.6.8-.6s.2.2.2.4,0,.4-.2.8c0,.4-.2.6-.2.8,0,1,.8,1.7,2.3,1.7h.8v2.1l-.3.1h0Zm-13-12.2l-1.7,1.7-1.7-1.7,1.7-1.7,1.7,1.7Zm3.6,0l-1.7,1.7-1.7-1.7,1.7-1.7,1.7,1.7Z"/><path id="PATH_93" d="m353.91,557.62v.8c0,1.5-.2,2.3-.6,2.9-1,1.5-2.7,2.1-5.5,2.1h-2.9v-2.5h2.1c3.6,0,5.5-.6,5.9-1.7v-.4c0-.4,0-.6-.2-.8-.8.2-1.9.2-2.7.2-1.9,0-2.9-.8-2.9-2.5,0-1,.2-2.3.8-3.4.6-1.3,1.5-1.9,2.5-1.9.8,0,1.7.6,2.3,1.7.7,1.5,1.2,3.4,1.2,5.5Zm-2.5-11.5l-1.7,1.7-1.7-1.7,1.7-1.7,1.7,1.7Zm.8,9.6c0-.6-.2-1.3-.6-1.9-.4-.6-1-.8-1.7-.8-.4,0-.8.2-1.3.4-.2.2-.4.6-.4,1,0,.8.6,1.3,2.1,1.3.4.3,1.1.3,1.9,0Z"/><path id="PATH_94" d="m362.01,563.52h-1.5c-1.5,0-2.7-.6-3.1-1.9-.4-.8-.6-2.3-.6-4v-4c0-1.9-.2-4.6-.4-8.2l1.3-1.5c.2-.2.4-.2.4,0,.2,1.9.4,4.6.4,8.2v6.1c0,1.7.8,2.5,2.5,2.5h1v2.8h0Z"/><path id="PATH_95" d="m367.11,559.32c0,2.7-1.5,4.2-4.2,4.2h-1.7v-2.5h1.5c2.1,0,3.1-.4,3.1-1s-.4-1.5-1.5-2.5l.8-2.1c0-.2.2-.2.2-.2l.4.4c1,1,1.4,2.2,1.4,3.7Zm-.7,8.8l-1.7,1.7-1.7-1.7,1.7-1.7,1.7,1.7Z"/></g><g id="G_96"><path id="PATH_97" d="m487.61,598.72h-.8c-1,0-1.9-.2-2.3-.6-.6-.4-1-1.3-1-2.1-2.3,2.1-5.9,3.1-10.7,3.1s-7.5-1.5-7.5-4.6c0-1,.4-2.1,1.3-3.1q.2-.2.4-.2t.2.2v.4c-.2.6-.4,1.3-.4,1.9,0,2.1,2.3,3.1,6.9,3.1,5.2,0,8.8-1,10.5-3.4.4-.4.6-.6.8-.6s.2.2.2.4,0,.4-.2.8c0,.4-.2.6-.2.8,0,1,.8,1.7,2.3,1.7h.8v2.1l-.3.1h0Zm-13-12.1l-1.7,1.7-1.7-1.7,1.7-1.7,1.7,1.7Zm3.6,0l-1.7,1.7-1.7-1.7,1.7-1.7,1.7,1.7Z"/><path id="PATH_98" d="m495.81,592.92v.8c0,1.5-.2,2.3-.6,2.9-1,1.5-2.7,2.1-5.5,2.1h-2.9v-2.5h2.1c3.6,0,5.5-.6,5.9-1.7v-.4c0-.4,0-.6-.2-.8-.8.2-1.9.2-2.7.2-1.9,0-2.9-.8-2.9-2.5,0-1,.2-2.3.8-3.4.6-1.3,1.5-1.9,2.5-1.9.8,0,1.7.6,2.3,1.7.8,1.5,1.2,3.4,1.2,5.5Zm-2.5-11.6l-1.7,1.7-1.7-1.7,1.7-1.7,1.7,1.7Zm1,9.7c0-.6-.2-1.3-.6-1.9-.4-.6-1-.8-1.7-.8-.4,0-.8.2-1.3.4-.2.2-.4.6-.4,1,0,.8.6,1.3,2.1,1.3.5.2,1.1.2,1.9,0Z"/><path id="PATH_99" d="m508.81,598.72h-.8c-.8,0-1.3-.2-1.7-.4v.6c0,1.9-.6,3.8-1.9,5.7-1,1.7-2.1,2.3-2.7,2.3-1.7,0-2.9,0-4.2-.2-.4,0-.6-.2-.6-.2,0,0,.2-.2.6-.2,1.7-.4,3.4-1.3,5-2.5,1.7-1.5,2.7-2.9,2.7-4.4,0-.8-.6-2.1-2.1-3.6l1-1.9c0-.2.2-.2.2-.2l.2.2c.6.8,1,1.5,1.5,1.7.6.4,1.5.8,2.3.8h.6l-.1,2.3h0Z"/><path id="PATH_100" d="m519.11,598.72h-1.7c-1.9,0-3.1-.6-4-1.9-.6,1.3-2.1,1.9-4.4,1.9h-1.3v-2.5h1.9c2.1,0,3.1-.8,3.4-2.3,0-.6.2-1,.4-1s.4.4.4,1c.2,1.5,1.3,2.3,3.1,2.3h1.9v2.5h.3Zm-6.9,4.6l-1.7,1.7-1.7-1.7,1.7-1.7,1.7,1.7Zm3.7,0l-1.7,1.7-1.7-1.7,1.7-1.7,1.7,1.7Z"/><path id="PATH_101" d="m535.41,592.62l-.8,1.7c-1.5,0-2.7,0-3.4.2-.8.4-2.1.8-3.8,1.7-1.7.8-2.9,1.5-3.8,1.7-1.3.4-2.7.6-4,.6h-1.5v-2.5h1.7c1.9,0,3.6-.4,5-1l4.8-2.1c-.8-.2-2.1-.6-3.8-1.3-1.5-.6-2.3-.8-2.7-.8-.8,0-1.7.4-2.5,1q-.2.2-.4.2t-.2-.2v-.2c.6-2.1,1.9-2.9,3.6-2.9.6,0,1.5.2,2.3.6,1.7.8,2.9,1.3,3.8,1.7,1.5.4,3.1.8,5,.8.4,0,.6,0,.6.2.6.2.3.4.1.6Zm-6.7,10.3l-1.7,1.7-1.7-1.7,1.7-1.7,1.7,1.7Z"/></g><g id="G_103"><path id="PATH_104" d="m504.21,768.82c-1,1-2.1,1.7-3.4,1.9-1,.2-2.3.4-3.8.4-2.9,0-5.2-.6-6.7-2.1-1-1-1.7-2.5-1.7-4.2,0-4,2.7-7.1,8-9.2-2.3-.4-3.8-.6-4.8-.6-.4,0-1,.2-1.9.8-.8.6-1.3.8-1,.8-.2,0-.2-.2-.2-.6,0-.6.4-1.3.8-1.9.6-1,1.7-1.7,2.9-1.7,1,0,2.5.2,4.4.6,1.9.4,3.6.6,4.6.6h1.5c.4,0,.6,0,.6.2,0,0,0,.2-.2.4l-.6,1.7c-1,0-2.1.2-3.6.4-2.1.4-4.2,1.3-5.9,2.3-2.3,1.5-3.4,3.1-3.4,5s.8,3.1,2.7,4.2c1.5.6,3.1,1,5.2,1s4-.2,5.7-.6h.4q.2,0,.2.2c.4.2.4.4.2.4Zm-5.5-5.5l-1.7,1.7-1.7-1.7,1.7-1.7,1.7,1.7Z"/><path id="PATH_105" d="m516.61,761.82h-2.3c-.2,2.9-1.3,5.2-3.4,7.3-.6.6-1,1-1.3,1-1,0-2.5-.2-4-.4-.4,0-.8-.2-.8-.2,0,0,.2-.2.8-.4,1.7-.4,3.4-1.5,4.8-2.5.6-.6,1.3-1,1.7-1.9.6-.8,1-1.7,1-2.3v-.6h-2.7c-2.1,0-2.9-.8-2.9-2.5,0-1,.2-2.1.8-3.4.6-1.3,1.5-2.1,2.3-2.1,1,0,1.9.6,2.5,2.1.4,1,.8,2.1.8,3.4h2.3v2.5h.4Zm-3.8-2.3c0-.6-.2-1.3-.6-1.9-.4-.8-1-1-1.7-1-.4,0-.8.2-1,.4s-.4.6-.4,1.3c0,1,.8,1.5,2.5,1.5.1-.3.6-.3,1.2-.3Z"/><path id="PATH_106" d="m526.81,761.82h-1.7c-1.9,0-3.1-.6-4-1.9-.6,1.3-2.1,1.9-4.4,1.9h-1.3v-2.5h1.9c2.1,0,3.1-.8,3.4-2.3,0-.6.2-1,.4-1s.4.4.4,1c.2,1.5,1.3,2.3,3.1,2.3h1.9v2.5h.3Zm-4.2-10.6l-1.7,1.7-1.7-1.7,1.7-1.7,1.7,1.7Z"/><path id="PATH_107" d="m539.81,761.82h-1c-.8,0-1.7.2-2.3.4-1,.4-1.7,1-1.7,2.1,0,1.3.8,2.3,2.5,3.4l-1,2.1c-1.9-.6-3.6-1.7-4.8-2.9-1.7-1.5-2.5-3.4-2.5-5.2h-2.9v-2.5h2.7c0-1.7.4-3.4,1.3-5.5.8-1.9,1.5-2.7,1.9-2.7s1,.8,1.7,2.7c.6,1.7.8,2.7.8,3.4,0,2.9-1.5,4.4-4.4,4.4.2.8.6,1.7,1.3,2.5.6.8,1.5,1.5,2.3,1.9v-.8c0-1.5.4-2.7,1-3.8,1-1.5,2.3-2.3,4.2-2.3h.8v2.9h.1v-.1h0Zm-6.2-3.3c0-.4-.2-1.3-.6-2.3-.4-1.3-.8-1.7-1.3-1.7-.2,0-.6.4-1,1.5s-.6,2.3-.6,3.6c2.2-.1,3.5-.5,3.5-1.1Z"/><path id="PATH_108" d="m552.81,742.62c0,.4-.4,1.3-.8,2.3l-5.2,1.7c-2.3.8-4,1.5-4.8,1.9,1.7,1.7,2.7,2.9,3.4,3.6,1,1.5,1.7,2.7,1.9,4.2,0,1,0,2.1-.4,2.9-.6,1.9-2.9,2.7-6.5,2.7h-1.3v-2.6h1.3c1.7,0,2.9,0,3.6-.2,1.5-.4,2.3-1,2.3-2.1,0-1.5-1-3.1-3.4-5.2l-.2.4c-.2-.2-.6-.6-1-1.3-.6-.6-.8-1.3-.8-1.3,0-.4,0-.8.2-1.7.2-.8.4-1.3.6-1.5.2-.2,1.7-.8,4.4-1.7,2.3-.9,4.9-1.7,6.7-2.1Z"/></g><g id="G_109"><path id="PATH_110" d="m604.61,764.42h-4.8c-.6,0-1.3,0-1.7.2-.8.2-1,.6-1,1,0,.2,1,.4,2.9.8,1.9.4,2.9.8,2.9,1.3,0,1.7-.4,2.9-1.5,3.8-1.7,1.5-4.4,2.1-8.4,2.1-4.8,0-7.3-1.9-7.3-5.5,0-.8.2-1.7.6-2.7s.8-1.9,1.3-2.5c.2-.2.4-.4.6-.4s.2,0,.2.2,0,.4-.2.6c-.6,1.3-1,2.5-1,3.8,0,1.5.6,2.5,2.1,3.1,1,.6,2.3.8,4,.8s3.1,0,4.6-.2c2.5-.4,3.8-.8,3.8-1.7,0-.4-.6-.6-1.7-.8-1.7-.2-2.7-.4-3.1-.6-1-.2-1.7-.8-1.7-1.5,0-.4.2-1,.8-1.9.4-.6.8-1,1.5-1.5,1-.8,2.3-1.3,4.2-1.3h2.9v2.9h0Z"/><path id="PATH_111" d="m609.71,760.42c0,2.7-1.5,4.2-4.2,4.2h-1.7v-2.5h1.5c2.1,0,3.1-.4,3.1-1s-.4-1.5-1.5-2.5l.8-2.1c0-.2.2-.2.2-.2,0,0,.2.2.4.4.9,1,1.4,2.2,1.4,3.7Zm-.7,8.6l-1.7,1.7-1.7-1.7,1.7-1.7,1.7,1.7Z"/><path id="PATH_112" d="m622.71,764.42h-2.3c-.2,2.9-1.3,5.2-3.4,7.3-.6.6-1,1-1.3,1-1,0-2.5-.2-4-.4-.4,0-.8-.2-.8-.2,0,0,.2-.2.8-.4,1.7-.4,3.4-1.5,4.8-2.5.6-.6,1.3-1,1.7-1.9.6-.8,1-1.7,1-2.3v-.6h-2.7c-2.1,0-2.9-.8-2.9-2.5,0-1,.2-2.1.8-3.4.6-1.3,1.5-2.1,2.3-2.1,1,0,1.9.6,2.5,2.1.4,1,.8,2.1.8,3.4h2.3v2.5h.4Zm-3.8-2.3c0-.6-.2-1.3-.6-1.9-.4-.8-1-1-1.7-1-.4,0-.8.2-1,.4s-.4.6-.4,1.3c0,1,.8,1.5,2.5,1.5-.1-.3.6-.3,1.2-.3Z"/><path id="PATH_113" d="m632.91,764.42h-1.7c-1.9,0-3.1-.6-4-1.9-.6,1.3-2.1,1.9-4.4,1.9h-1.3v-2.5h1.9c2.1,0,3.1-.8,3.4-2.3,0-.6.2-1,.4-1s.4.4.4,1c.2,1.5,1.3,2.3,3.1,2.3h1.9v2.5h.3Zm-4.2-10.7l-1.7,1.7-1.7-1.7,1.7-1.7,1.7,1.7Z"/><path id="PATH_114" d="m649.31,758.32l-.8,1.7c-1.5,0-2.7,0-3.4.2-.8.4-2.1.8-3.8,1.7-1.7.8-2.9,1.5-3.8,1.7-1.3.4-2.7.6-4,.6h-1.5v-2.5h1.7c1.9,0,3.6-.4,5-1l4.8-2.1c-.8-.2-2.1-.6-3.8-1.3-1.5-.6-2.3-.8-2.7-.8-.8,0-1.7.4-2.5,1q-.2.2-.4.2t-.2-.2v-.2c.6-2.1,1.9-2.9,3.6-2.9.6,0,1.5.2,2.3.6,1.7.8,2.9,1.3,3.8,1.7,1.5.4,3.1.8,5,.8.4,0,.6,0,.6.2.3.2.3.4.1.6Zm-6.9,10.5l-1.7,1.7-1.7-1.7,1.7-1.7,1.7,1.7Z"/><path id="PATH_115" d="m668.41,764.62c0,2.1-.6,4-1.9,5.9-1,1.5-2.1,2.3-2.7,2.3-1.7,0-2.9,0-4.2-.2-.4,0-.6-.2-.6-.2,0,0,.2-.2.6-.2,1.7-.4,3.4-1.3,5-2.5,1.7-1.5,2.7-2.9,2.7-4.4,0-.8-.6-2.1-2.1-3.6l1-1.9c0-.2.2-.2.2-.2l.2.2c.4.6,1,1.5,1.3,2.5.3.6.5,1.6.5,2.3Z"/><path id="PATH_116" d="m676.51,764.42h-1.3c-1.5,0-2.7-.6-3.1-1.9-.4-.8-.6-2.3-.6-4v-4c0-1.9-.2-4.6-.4-8.2l1.3-1.5c.2-.2.4-.2.4,0,.2,1.9.4,4.6.4,8.2v6.1c0,1.7.8,2.5,2.5,2.5h1v2.7h-.2v.1h0Z"/><path id="PATH_117" d="m681.61,760.42c0,2.7-1.5,4.2-4.2,4.2h-1.7v-2.5h1.5c2.1,0,3.1-.4,3.1-1s-.4-1.5-1.5-2.5l.8-2.1c0-.2.2-.2.2-.2,0,0,.2.2.4.4,1,1,1.4,2.2,1.4,3.7Zm-.7,8.6l-1.7,1.7-1.7-1.7,1.7-1.7,1.7,1.7Z"/><path id="PATH_118" d="m694.41,760.22c0,2.9-1.9,4.4-5.9,4.4-1.5,0-2.5-.2-3.1-.6-.8-.4-1.3-1.5-1.3-2.7,0-.6.2-1.3.4-1.9.2-.2.2-.4.4-.4s.2.2.2.6v.6c0,.8.4,1.5,1.3,1.7.4.2,1.3.2,2.3.2,3.1,0,4.6-.4,4.6-1.5,0-1.5-1.9-3.6-5.5-6.1l.6-2.1c0-.2.2-.2.2-.2,0,0,.2,0,.4.2,3.7,2.7,5.4,5.3,5.4,7.8Z"/><path id="PATH_119" d="m705.31,763.52c0,3.1-1,5.9-3.1,8-.6.6-1,1-1.3,1-1.3,0-2.5-.2-4-.4-.6,0-.8-.2-.8-.2,0,0,.2-.2.8-.4,1.7-.4,3.4-1.5,4.8-2.7.6-.6,1.3-1,1.7-1.9.6-.8,1-1.7,1-2.3v-.2h-2.7c-1.9,0-2.9-.8-2.9-2.3,0-1,.2-2.1.8-3.4.6-1.3,1.5-2.1,2.3-2.1,1.3,0,2.3.8,2.9,2.7.3,1.3.5,2.8.5,4.2Zm-1.5-1.7c0-.6-.2-1.3-.6-1.9-.4-.6-1-1-1.7-1-.4,0-.8.2-1,.4s-.4.6-.4,1c0,1,.6,1.5,2.1,1.5.1.3.8.3,1.6,0Z"/><path id="PATH_120" d="m715.81,764.62c0,2.1-.6,4-1.9,5.9-1,1.5-2.1,2.3-2.7,2.3-1.7,0-2.9,0-4.2-.2-.4,0-.6-.2-.6-.2,0,0,.2-.2.6-.2,1.7-.4,3.4-1.3,5-2.5,1.7-1.5,2.7-2.9,2.7-4.4,0-.8-.6-2.1-2.1-3.6l1-1.9c0-.2.2-.2.2-.2l.2.2c.4.6,1,1.5,1.3,2.5.2.6.5,1.6.5,2.3Z"/></g><g id="G_121"><path id="PATH_122" d="m701.51,653.02c.2.6.2,1.3.2,1.9,0,.8-.2,1.5-.4,2.3-.6,1.5-1.7,2.7-3.8,3.6-1.7.6-3.4,1-5.2,1s-3.4-.4-4.6-1.3c-1.3-1-1.9-2.3-1.9-4.2,0-1,.2-1.9.6-3.1.4-.8.6-1.5,1-1.9.2-.2.4-.2.4-.2q.2,0,.2.2v.4c-.6,1.3-.8,2.5-.8,3.6s.4,1.9,1,2.7c.8,1,2.3,1.5,4.2,1.5,2.1,0,4-.4,5.5-1,1.3-.6,2.1-1.3,2.5-2.1.2-.2.2-.6.2-.8,0-.6-.2-1.3-.4-2.1-.2-.6-.8-1.7-1.9-3.4l.8-1.7c.2-.2.2-.4.2-.4l.2.2c.9,1.7,1.6,3.2,2,4.8Zm-6.3-9l-1.7,1.7-1.7-1.7,1.7-1.7,1.7,1.7Z"/><path id="PATH_123" d="m709.91,653.42h-1.5c-1.5,0-2.7-.6-3.1-1.9-.4-.8-.6-2.3-.6-4v-4c0-1.9-.2-4.6-.4-8.2l1.3-1.5c.2-.2.4-.2.4,0,.2,1.9.4,4.6.4,8.2v6.1c0,1.7.8,2.5,2.5,2.5h1v2.8h0Z"/><path id="PATH_124" d="m724.11,653.42h-1.3c-1,0-2.3-.4-3.4-1.5-.8-.6-1.7-1.9-2.7-3.4-.2,3.1-2.3,4.8-6.5,4.8h-1.3v-2.5h.8c3.8,0,5.9-.8,5.9-2.3,0-1.3-.8-2.7-2.7-4.4-.8-.8-1.7-1.5-2.7-2.3,0-.8.2-1.5.6-2.1.2-.2,4-1.5,11.5-3.8,0,.2-.2,1-.6,2.3-1.9.4-5,1.5-9.2,2.7,2.1,2.3,4.2,4.4,5.7,6.3,1,1,1.7,1.9,2.3,2.3.8.6,1.9,1,2.9,1h.8v2.7h-.1v.2h0Zm-2.3-20.3l-.4,1.5-10.3,3.4.4-1.5,10.3-3.4Z"/><path id="PATH_125" d="m729.21,649.32c0,2.7-1.5,4.2-4.2,4.2h-1.7v-2.5h1.5c2.1,0,3.1-.4,3.1-1s-.4-1.5-1.5-2.5l.8-2.1c0-.2.2-.2.2-.2,0,0,.2.2.4.4,1,.9,1.4,2.2,1.4,3.7Zm-1.7,8.8l-1.7,1.7-1.7-1.7,1.7-1.7,1.7,1.7Zm3.6,0l-1.7,1.7-1.7-1.7,1.7-1.7,1.7,1.7Z"/><path id="PATH_126" d="m741.81,653.42c0,2.1-.6,4-1.9,5.9-1,1.5-2.1,2.3-2.7,2.3-1.7,0-2.9,0-4.2-.2-.4,0-.6-.2-.6-.2,0,0,.2-.2.6-.2,1.7-.4,3.4-1.3,5-2.5,1.7-1.5,2.7-2.9,2.7-4.4,0-.8-.6-2.1-2.1-3.6l1-1.9c0-.2.2-.2.2-.2l.2.2c.4.6,1,1.5,1.3,2.5.2.9.5,1.7.5,2.3Z"/></g><g id="G_127"><path id="PATH_128" d="m546.31,670.62c0,2.9-1.9,4.4-5.9,4.4-1.5,0-2.5-.2-3.1-.6-.8-.4-1.3-1.5-1.3-2.7,0-.6.2-1.3.4-1.9.2-.2.2-.4.4-.4s.2.2.2.6v.6c0,.8.4,1.5,1.3,1.7.4.2,1.3.2,2.3.2,3.1,0,4.6-.4,4.6-1.5,0-1.5-1.9-3.6-5.5-6.1l.6-2.1c0-.2.2-.2.2-.2,0,0,.2,0,.4.2,3.8,2.8,5.4,5.5,5.4,7.8Z"/><path id="PATH_129" d="m554.71,675.02h-1.5c-1.5,0-2.7-.6-3.1-1.9-.4-.8-.6-2.3-.6-4v-4c0-1.9-.2-4.6-.4-8.2l1.3-1.5c.2-.2.4-.2.4,0,.2,1.9.4,4.6.4,8.2v6.1c0,1.7.8,2.5,2.5,2.5h1v2.8h0Z"/><path id="PATH_130" d="m559.81,670.82c0,2.7-1.5,4.2-4.2,4.2h-1.7v-2.5h1.5c2.1,0,3.1-.4,3.1-1s-.4-1.5-1.5-2.5l.8-2.1c0-.2.2-.2.2-.2,0,0,.2.2.4.4.9,1,1.4,2.3,1.4,3.7Zm-.9,8.9l-1.7,1.7-1.7-1.7,1.7-1.7,1.7,1.7Z"/><path id="PATH_131" d="m568.11,652.62c-.8.8-2.1,1-3.4,1h-1.6c-.2,0-.4.2-.6.4s-.4.4-.4.4c-.2,0-.2-.2-.2-.4s.2-.6.4-1c.2-.6.4-.8.6-.8s.6,0,1.3.2c.6.2,1,.2,1.3.2,1.3,0,2.1,0,2.7-.2.4,0,.6-.2.6-.2h.2c-.4,0-.6.2-.9.4Zm-1.4,19.7c0,.8-.2,1.7-.6,2.3-.2.4-.4.6-.4.6,0,0-.2-.2-.2-.8,0-2.5-.4-8.4-1.3-17.8l1.7-1.7.2-.2v.4c.6,3,.6,8.6.6,17.2Z"/><path id="PATH_132" d="m578.61,675.32c0,2.1-.6,4-1.9,5.9-1,1.5-2.1,2.3-2.7,2.3-1.7,0-2.9,0-4.2-.2-.4,0-.6-.2-.6-.2,0,0,.2-.2.6-.2,1.7-.4,3.4-1.3,5-2.5,1.7-1.5,2.7-2.9,2.7-4.4,0-.8-.6-2.1-2.1-3.6l1-1.9c0-.2.2-.2.2-.2l.2.2c.4.6,1,1.5,1.3,2.5.3.6.5,1.4.5,2.3Z"/><path id="PATH_133" d="m586.81,675.02h-1.5c-1.5,0-2.7-.6-3.1-1.9-.4-.8-.6-2.3-.6-4v-4c0-1.9-.2-4.6-.4-8.2l1.3-1.5c.2-.2.4-.2.4,0,.2,1.9.4,4.6.4,8.2v6.1c0,1.7.8,2.5,2.5,2.5h1v2.8h0Z"/><path id="PATH_134" d="m597.31,675.02h-1.7c-1.9,0-3.1-.6-4-1.9-.6,1.3-2.1,1.9-4.4,1.9h-1.3v-2.5h1.9c2.1,0,3.1-.8,3.4-2.3,0-.6.2-1,.4-1s.4.4.4,1c.2,1.5,1.3,2.3,3.1,2.3h1.9v2.5h.3Zm-4.6,4.7l-1.7,1.7-1.7-1.7,1.7-1.7,1.7,1.7Z"/><path id="PATH_135" d="m602.11,670.82c0,2.7-1.5,4.2-4.2,4.2h-1.7v-2.5h1.5c2.1,0,3.1-.4,3.1-1s-.4-1.5-1.5-2.5l.8-2.1c0-.2.2-.2.2-.2,0,0,.2.2.4.4,1,1,1.4,2.3,1.4,3.7Zm0-9.6l-1.7,1.7-1.7-1.7,1.7-1.7,1.7,1.7Z"/><path id="PATH_136" d="m607.11,672.32c0,.8-.2,1.7-.6,2.3-.2.4-.4.6-.4.6,0,0-.2-.2-.2-.8,0-2.5-.4-8.4-1.3-17.8l1.7-1.7.2-.2v.4c.6,3,.6,8.6.6,17.2Z"/></g><g id="G_137"><path id="PATH_138" d="m348.41,759.72c0,1.5-.4,2.7-1.5,3.4-.6.4-1.9.8-3.8,1-2.1.4-4.2.6-6.5.6-5.5,0-8.4-1.5-8.4-4.6,0-1,.4-2.1,1.3-3.1.2-.2.2-.4.4-.4s.2,0,.2.2v.4c-.2.6-.4,1.3-.4,1.9,0,2.1,2.7,3.1,8,3.1,2.5,0,4.8-.2,6.5-.4,2.1-.4,2.9-.8,2.9-1.5,0-.4-.4-1.3-1.5-2.5l1-1.9q.2-.2.4,0c1,1.5,1.4,2.8,1.4,3.8Zm-8.2,9.5l-1.7,1.7-1.7-1.7,1.7-1.7,1.7,1.7Z"/><path id="PATH_139" d="m356.81,764.42h-1.5c-1.5,0-2.7-.6-3.1-1.9-.4-.8-.6-2.3-.6-4v-4c0-1.9-.2-4.6-.4-8.2l1.3-1.5c.2-.2.4-.2.4,0,.2,1.9.4,4.6.4,8.2v6.1c0,1.7.8,2.5,2.5,2.5h1v2.8h0Z"/><path id="PATH_140" d="m361.81,760.42c0,2.7-1.5,4.2-4.2,4.2h-1.7v-2.5h1.5c2.1,0,3.1-.4,3.1-1s-.4-1.5-1.5-2.5l.8-2.1c0-.2.2-.2.2-.2l.4.4c.8,1,1.4,2.2,1.4,3.7Zm-1.6,8.6l-1.7,1.7-1.7-1.7,1.7-1.7,1.7,1.7Zm3.5,0l-1.7,1.7-1.7-1.7,1.7-1.7,1.7,1.7Z"/><path id="PATH_141" d="m374.41,764.62c0,2.1-.6,4-1.9,5.9-1,1.5-2.1,2.3-2.7,2.3-1.7,0-2.9,0-4.2-.2-.4,0-.6-.2-.6-.2,0,0,.2-.2.6-.2,1.7-.4,3.4-1.3,5-2.5,1.7-1.5,2.7-2.9,2.7-4.4,0-.8-.6-2.1-2.1-3.6l1-1.9c0-.2.2-.2.2-.2l.2.2c.4.6,1,1.5,1.3,2.5.1.6.5,1.6.5,2.3Z"/><path id="PATH_142" d="m382.61,764.42h-1.5c-1.5,0-2.7-.6-3.1-1.9-.4-.8-.6-2.3-.6-4v-4c0-1.9-.2-4.6-.4-8.2l1.3-1.5c.2-.2.4-.2.4,0,.2,1.9.4,4.6.4,8.2v6.1c0,1.7.8,2.5,2.5,2.5h1v2.8h0Z"/><path id="PATH_143" d="m390.81,758.52v.8c0,1.5-.2,2.3-.6,2.9-1,1.5-2.7,2.1-5.5,2.1h-2.9v-2.5h2.1c3.6,0,5.5-.6,5.9-1.7v-.4c0-.4,0-.6-.2-.8-.8.2-1.9.2-2.7.2-1.9,0-2.9-.8-2.9-2.5,0-1,.2-2.3.8-3.4.6-1.3,1.5-1.9,2.5-1.9.8,0,1.7.6,2.3,1.7.7,1.7,1.2,3.4,1.2,5.5Zm-2.5-11.5l-1.7,1.7-1.7-1.7,1.7-1.7,1.7,1.7Zm.8,9.6c0-.6-.2-1.3-.6-1.9-.4-.6-1-.8-1.7-.8-.4,0-.8.2-1.3.4-.2.2-.4.6-.4,1,0,.8.6,1.3,2.1,1.3.6.4,1.3.2,1.9,0Z"/></g><g id="G_144"><path id="PATH_145" d="m190.31,699.82h-.8c-.8,0-1.3-.2-1.7-.4v.6c0,1.9-.6,3.8-1.9,5.7-1,1.7-2.1,2.3-2.7,2.3-1.7,0-2.9,0-4.2-.2-.4,0-.6-.2-.6-.2,0,0,.2-.2.6-.2,1.7-.4,3.4-1.3,5-2.5,1.7-1.5,2.7-2.9,2.7-4.4,0-.8-.6-2.1-2.1-3.6l1-1.9c0-.2.2-.2.2-.2l.2.2c.6.8,1,1.5,1.5,1.7.6.4,1.5.8,2.3.8h.6l-.1,2.3h0Z"/><path id="PATH_146" d="m195.41,695.62c0,2.7-1.5,4.2-4.2,4.2h-1.7v-2.5h1.5c2.1,0,3.1-.4,3.1-1s-.4-1.5-1.5-2.5l.8-2.1c0-.2.2-.2.2-.2l.4.4c.9,1,1.4,2.2,1.4,3.7Zm-.7,8.8l-1.7,1.7-1.7-1.7,1.7-1.7,1.7,1.7Z"/><path id="PATH_147" d="m200.21,697.12c0,.8-.2,1.7-.6,2.3-.2.4-.4.6-.4.6,0,0-.2-.2-.2-.8,0-2.5-.4-8.4-1.3-17.8l1.7-1.7.2-.2v.4c.6,2.9.6,8.6.6,17.2Z"/><path id="PATH_148" d="m210.91,700.02c0,2.1-.6,4-1.9,5.9-1,1.5-2.1,2.3-2.7,2.3-1.7,0-2.9,0-4.2-.2-.4,0-.6-.2-.6-.2,0,0,.2-.2.6-.2,1.7-.4,3.4-1.3,5-2.5,1.7-1.5,2.7-2.9,2.7-4.4,0-.8-.6-2.1-2.1-3.6l1-1.9c0-.2.2-.2.2-.2l.2.2c.4.6,1,1.5,1.3,2.5.3.6.5,1.5.5,2.3Z"/></g><g id="G_149"><path id="PATH_150" d="m318.01,697.32h-1.5c-1.9,0-2.9-1-3.4-3.4-1,1-1.5,1.5-1.7,1.5h-1.9c-.6,0-1.3,0-1.9-.2-.8-.2-1.3-.6-1.3-1,0-1.7.6-2.9,1.7-3.8.8-.6,2.1-1.3,3.8-2.1l-.4-2.1,1.5-1.7c0,.2.6,2.5,1.5,6.9.2,1.3.6,2.3.8,2.7.4.6.8.8,1.7.8h1.5v2.3l-.4.1h0Zm-5.2-4.2l-.6-3.4c-.6.2-1.5.6-2.5,1-1.3.6-2.1,1.3-2.1,1.5,0,.4.4.6,1.5.8.6.2,1.3.2,1.9.2.7.1,1.4-.1,1.8-.1Z"/><path id="PATH_151" d="m328.31,697.32h-1.7c-1.9,0-3.1-.6-4-1.9-.6,1.3-2.1,1.9-4.4,1.9h-1.3v-2.5h1.9c2.1,0,3.1-.8,3.4-2.3,0-.6.2-1,.4-1s.4.4.4,1c.2,1.5,1.3,2.3,3.1,2.3h1.9v2.5h.3Zm-6.9,4.6l-1.7,1.7-1.7-1.7,1.7-1.7,1.7,1.7Zm3.5,0l-1.7,1.7-1.7-1.7,1.7-1.7,1.7,1.7Z"/><path id="PATH_152" d="m333.31,693.12c0,2.7-1.5,4.2-4.2,4.2h-1.7v-2.5h1.5c2.1,0,3.1-.4,3.1-1s-.4-1.5-1.5-2.5l.8-2.1c0-.2.2-.2.2-.2l.4.4c1,1.2,1.4,2.4,1.4,3.7Zm-.2-8.4l-.2,1c-1.5.2-3.1.6-4.6,1.3v-.8c.2-.2.6-.4,1.3-.8-.8-.6-1.3-1-1.3-1.5,0-.4.2-1,.8-1.7.6-.8,1.3-1,1.9-1,.8,0,1.3.4,1.7,1,0,.2.2.4,0,.4h-.4c-.4-.2-.8-.2-1.3-.2-.2,0-.4,0-.8.2-.4.2-.4.4-.4.6,0,.4.2.8.8,1,.4.2.8.4,1.3.4s.6,0,1-.2h.4s-.2.1-.2.3Z"/><path id="PATH_153" d="m344.01,696.42c0,3.1-1,5.9-3.1,8-.6.6-1,1-1.3,1-1.3,0-2.5-.2-4-.4-.6,0-.8-.2-.8-.2,0,0,.2-.2.8-.4,1.7-.4,3.4-1.5,4.8-2.7.6-.6,1.3-1,1.7-1.9.6-.8,1-1.7,1-2.3v-.2h-2.7c-1.9,0-2.9-.8-2.9-2.3,0-1,.2-2.1.8-3.4.6-1.3,1.5-2.1,2.3-2.1,1.3,0,2.3.8,2.9,2.7.3,1.3.5,2.8.5,4.2Zm-1.5-1.6c0-.6-.2-1.3-.6-1.9-.4-.6-1-1-1.7-1-.4,0-.8.2-1,.4-.4.4-.4.6-.4,1,0,1,.6,1.5,2.1,1.5.2.2.8.2,1.6,0Z"/><path id="PATH_154" d="m354.71,697.52c0,2.1-.6,4-1.9,5.9-1,1.5-2.1,2.3-2.7,2.3-1.7,0-2.9,0-4.2-.2-.4,0-.6-.2-.6-.2,0,0,.2-.2.6-.2,1.7-.4,3.4-1.3,5-2.5,1.7-1.5,2.7-2.9,2.7-4.4,0-.8-.6-2.1-2.1-3.6l1-1.9c0-.2.2-.2.2-.2l.2.2c.4.6,1,1.5,1.3,2.5.3.6.5,1.6.5,2.3Zm-1.5-11.1l-1.7,1.7-1.7-1.7,1.7-1.7,1.7,1.7Z"/><path id="PATH_155" d="m365.21,697.52c0,2.1-.6,4-1.9,5.9-1,1.5-2.1,2.3-2.7,2.3-1.7,0-2.9,0-4.2-.2-.4,0-.6-.2-.6-.2,0,0,.2-.2.6-.2,1.7-.4,3.4-1.3,5-2.5,1.7-1.5,2.7-2.9,2.7-4.4,0-.8-.6-2.1-2.1-3.6l1-1.9c0-.2.2-.2.2-.2l.2.2c.4.6,1,1.5,1.3,2.5.3.6.5,1.6.5,2.3Z"/><path id="PATH_156" d="m370.21,694.82c0,.8-.2,1.7-.6,2.3-.2.4-.4.6-.4.6,0,0-.2-.2-.2-.8,0-2.5-.4-8.4-1.3-17.8l1.7-1.7.2-.2v.4c.6,2.9.6,8.6.6,17.2Z"/></g><g id="G_157"><path id="PATH_158" d="m389.71,896.02c.2.6.2,1.3.2,1.9,0,.8-.2,1.5-.4,2.3-.6,1.5-1.7,2.7-3.8,3.6-1.7.6-3.4,1-5.2,1-1.9,0-3.4-.4-4.6-1.3-1.3-1-1.9-2.3-1.9-4.2,0-1,.2-1.9.6-3.1.4-.8.6-1.5,1-1.9.2-.2.4-.2.4-.2q.2,0,.2.2v.4c-.6,1.3-.8,2.5-.8,3.6s.4,1.9,1,2.7c.8,1,2.3,1.5,4.2,1.5,2.1,0,4-.4,5.5-1,1.3-.6,2.1-1.3,2.5-2.1.2-.2.2-.6.2-.8,0-.6-.2-1.3-.4-2.1-.2-.6-.8-1.7-1.9-3.4l.8-1.7c.2-.2.2-.4.2-.4,0,0,.2,0,.2.2,1.2,1.7,1.8,3.2,2,4.8Zm-6.1-9l-1.7,1.7-1.7-1.7,1.7-1.7,1.7,1.7Z"/><path id="PATH_159" d="m398.31,896.52h-1.5c-1.5,0-2.7-.6-3.1-1.9-.4-.8-.6-2.3-.6-4v-4c0-1.9-.2-4.6-.4-8.2l1.3-1.5c.2-.2.4-.2.4,0,.2,1.9.4,4.6.4,8.2v6.1c0,1.7.8,2.5,2.5,2.5h1v2.8h0Z"/><path id="PATH_160" d="m414.71,890.42l-.8,1.7c-1.5,0-2.7,0-3.4.2-.8.4-2.1.8-3.8,1.7-1.7.8-2.9,1.5-3.8,1.7-1.3.4-2.7.6-4,.6h-1.5v-2.5h1.7c1.9,0,3.6-.4,5-1l4.8-2.1c-.8-.2-2.1-.6-3.8-1.3-1.5-.6-2.3-.8-2.7-.8-.8,0-1.7.4-2.5,1q-.2.2-.4.2t-.2-.2v-.3c.6-2.1,1.9-2.9,3.6-2.9.6,0,1.5.2,2.3.6,1.7.8,2.9,1.3,3.8,1.7,1.5.4,3.1.8,5,.8.4,0,.6,0,.6.2.3.3.3.5.1.7Zm-6.9,10.2l-1.7,1.7-1.7-1.7,1.7-1.7,1.7,1.7Z"/><path id="PATH_161" d="m427.91,896.52h-2.3c-.2,2.9-1.3,5.2-3.4,7.3-.6.6-1,1-1.3,1-1,0-2.5-.2-4-.4-.4,0-.8-.2-.8-.2,0,0,.2-.2.8-.4,1.7-.4,3.4-1.5,4.8-2.5.6-.6,1.3-1,1.7-1.9.6-.8,1-1.7,1-2.3v-.6h-2.7c-2.1,0-2.9-.8-2.9-2.5,0-1,.2-2.1.8-3.4.6-1.3,1.5-2.1,2.3-2.1,1,0,1.9.6,2.5,2.1.4,1,.8,2.1.8,3.4h2.3v2.5h.4Zm-3.8-2.6c0-.6-.2-1.3-.6-1.9-.4-.8-1-1-1.7-1-.4,0-.8.2-1,.4-.4.4-.4.6-.4,1.3,0,1,.8,1.5,2.5,1.5-.1-.3.6-.3,1.2-.3Z"/><path id="PATH_162" d="m438.21,896.52h-1.7c-1.9,0-3.1-.6-4-1.9-.6,1.3-2.1,1.9-4.4,1.9h-1.3v-2.5h1.9c2.1,0,3.1-.8,3.4-2.3,0-.6.2-1,.4-1s.4.4.4,1c.2,1.5,1.3,2.3,3.1,2.3h1.9v2.5h.3Zm-4.2-11l-1.7,1.7-1.7-1.7,1.7-1.7,1.7,1.7Z"/><path id="PATH_163" d="m448.61,892.32c0,1,0,1.9-.4,2.7-.4,1-1,1.7-1.7,1.7-1,0-2.7-.6-4.8-2.1-.6.8-1,1.3-1.3,1.5-.6.4-1.3.6-2.1.6h-1v-2.5h1.5c.8,0,1.7-.4,2.5-1.5.4-.4,1-1.5,1.9-2.7.6-1,1.5-1.5,2.1-1.5,1,0,1.9.4,2.5,1.5.4.8.6,1.4.8,2.3Zm-1.2,1.4c0-.6-.2-1.3-.6-2.1-.4-.8-1-1.3-1.7-1.3s-1.3.6-2.1,1.9c.4.4,1,.8,1.9,1.3.8.4,1.7.6,2.1.6.2.3.4,0,.4-.4Z"/></g><g id="G_164"><path id="PATH_165" d="m616.41,923.72h-2.1c-2.7,0-4.2-1.3-4.2-3.8,0-.6,0-1,.2-1.7-2.3.4-4.2,1.3-5.9,2.3-2.3,1.5-3.4,3.1-3.4,5s.8,3.1,2.7,4.2c1.5.6,3.1,1,5.2,1s4-.2,5.7-.6h.4q.2,0,.2.2c0,.2-.2.2-.4.4-1,1-2.1,1.7-3.4,1.9-1,.2-2.3.4-3.8.4-2.9,0-5.2-.6-6.7-2.1-1-1-1.7-2.5-1.7-4.2,0-4,2.7-7.1,8-9.2-2.3-.4-3.8-.6-4.8-.6-.4,0-1,.2-1.9.8s-1.3.8-1,.8c-.2,0-.2-.2-.2-.6,0-.6.4-1.3.8-1.9.6-1,1.7-1.7,2.9-1.7,1,0,2.5.2,4.4.6,1.9.4,3.6.6,4.6.6h1.5c.4,0,.6,0,.6.2,0,0,0,.2-.2.4l-.6,1.7c-.6,0-1.5.2-2.7.2v.8c0,1.7,1,2.3,3.4,2.3h1.9v2.3h.5v.3Zm-7.8,1.5l-1.7,1.7-1.7-1.7,1.7-1.7,1.7,1.7Z"/><path id="PATH_166" d="m626.61,923.72h-1.7c-1.9,0-3.1-.6-4-1.9-.6,1.3-2.1,1.9-4.4,1.9h-1.3v-2.5h1.9c2.1,0,3.1-.8,3.4-2.3,0-.6.2-1,.4-1s.4.4.4,1c.2,1.5,1.3,2.3,3.1,2.3h1.9v2.5h.3Zm-3.9-10.9l-1.7,1.7-1.7-1.7,1.7-1.7,1.7,1.7Z"/><path id="PATH_167" d="m639.41,906.72c0,.4-.2,1-.6,2.3-2.5.6-5.7,1.7-9.2,2.7,2.5,2.5,4,4.6,4.2,6.1.2,1,0,2.1-.4,3.1s-1.3,1.7-2.3,2.1c-.8.4-2.3.4-4.2.4h-.8v-2.5h.6c4,0,6.1-.6,6.1-2.1,0-1-1-2.7-3.4-4.8l-.2.6c-.2-.2-.6-.6-1-1.3-.6-.6-.8-1-.8-1.3,0-.6.2-1.3.8-1.9.2-.2,1.5-.6,4.2-1.5,2.4-.6,4.9-1.2,7-1.9Zm-.4-3.1l-.4,1.5-10.3,3.4.4-1.5,10.3-3.4Z"/><path id="PATH_168" d="m661.41,923.72h-1.5c-1.9,0-2.9-1-3.4-3.4-1,1-1.5,1.5-1.7,1.5h-1.9c-.6,0-1.3,0-1.9-.2-.8-.2-1.3-.6-1.3-1,0-1.7.6-2.9,1.7-3.8.8-.6,2.1-1.3,3.8-2.1l-.4-2.1,1.5-1.7c0,.2.6,2.5,1.5,6.9.2,1.3.6,2.3.8,2.7.4.6.8.8,1.7.8h1.5v2.3l-.4.1h0Zm-5.2-4.2l-.6-3.4c-.6.2-1.5.6-2.5,1-1.3.6-2.1,1.3-2.1,1.5,0,.4.4.6,1.5.8.6.2,1.3.2,1.9.2.6-.1,1.2-.1,1.8-.1Z"/><path id="PATH_169" d="m673.21,923.72h-1.3c-2.1,0-3.8-.6-4.8-2.1-1.3,1.5-2.9,2.1-4.8,2.1h-1.7v-2.5h2.1c1.5,0,2.5-.2,3.1-.8-.2-.4-.4-.8-.8-1.3-.4-.4-.8-.8-1-.8-.4-.2-.6-.2-.6-.4,0,0,0-.2.2-.4.6-1.3,1.7-1.9,3.6-1.9,2.3,0,3.6.6,3.6,2.1,0,.6-.6,1.5-1.9,2.7.2.4.8.6,1.5.8.6.2,1,.2,1.5.2h1.7v2.3h-.4Z"/><path id="PATH_170" d="m680.91,923.72h-.8c-1.9,0-3.1-.6-3.8-2.1-.2.6-.6,1-1.3,1.5-.6.4-1.3.6-1.9.6h-.8v-2.5h.8c1.7,0,2.5-.6,2.5-2.1v-7.3c0-2.7,0-4.8-.2-6.3l1.9-1.5v14c0,2.1.8,3.1,2.7,3.1h.8v2.6h.1Z"/><path id="PATH_171" d="m689.11,917.82c0,1.9-.2,3.1-.6,3.8-1,1.5-2.7,2.1-5.5,2.1h-2.9v-2.5h2.1c3.6,0,5.5-.6,5.9-1.7.2-.4,0-.8-.2-1.3-.8.2-1.7.2-2.7.2-1.9,0-2.9-.8-2.9-2.5,0-1,.2-2.3.8-3.4.6-1.3,1.5-1.9,2.5-1.9.8,0,1.7.6,2.3,1.7.8,1.8,1.2,3.4,1.2,5.5Zm-4.2-11.5l-1.7,1.7-1.7-1.7,1.7-1.7,1.7,1.7Zm2.5,9.7c0-.6-.2-1.3-.6-1.9-.4-.6-1-.8-1.7-.8-.4,0-.8.2-1.3.4-.4.2-.4.6-.4,1,0,.8.6,1.3,2.1,1.3.5.2,1.1.2,1.9,0Zm1.1-9.7l-1.7,1.7-1.7-1.7,1.7-1.7,1.7,1.7Z"/></g><g id="G_172"><path id="PATH_173" d="m753.91,564.82c-1,1-2.1,1.7-3.4,1.9-1,.2-2.3.4-3.8.4-2.9,0-5.2-.6-6.7-2.1-1-1-1.7-2.5-1.7-4.2,0-4,2.7-7.1,8-9.2-2.3-.4-3.8-.6-4.8-.6-.4,0-1,.2-1.9.8-.8.6-1.3.8-1,.8-.2,0-.2-.2-.2-.6,0-.6.4-1.3.8-1.9.6-1,1.7-1.7,2.9-1.7,1,0,2.5.2,4.4.6,1.9.4,3.6.6,4.6.6h1.5c.4,0,.6,0,.6.2,0,0,0,.2-.2.4l-.6,1.7c-1,0-2.1.2-3.6.4-2.1.4-4.2,1.3-5.9,2.3-2.3,1.5-3.4,3.1-3.4,5s.8,3.1,2.7,4.2c1.5.6,3.1,1,5.2,1s4-.2,5.7-.6h.4q.2,0,.2.2c.4-.1.4.1.2.4Zm-5.4-5.7l-1.7,1.7-1.7-1.7,1.7-1.7,1.7,1.7Z"/><path id="PATH_174" d="m766.31,557.82h-.8c-.8,0-1.3-.2-1.7-.4v.6c0,1.9-.6,3.8-1.9,5.7-1,1.7-2.1,2.3-2.7,2.3-1.7,0-2.9,0-4.2-.2-.4,0-.6-.2-.6-.2,0,0,.2-.2.6-.2,1.7-.4,3.4-1.3,5-2.5,1.7-1.5,2.7-2.9,2.7-4.4,0-.8-.6-2.1-2.1-3.6l1-1.9c0-.2.2-.2.2-.2l.2.2c.6.8,1,1.5,1.5,1.7.6.4,1.5.8,2.3.8h.6l-.1,2.3h0Z"/><path id="PATH_175" d="m779.31,557.82h-1c-.8,0-1.7.2-2.3.4-1,.4-1.7,1-1.7,2.1,0,1.3.8,2.3,2.5,3.4l-1,2.1c-1.9-.6-3.6-1.7-4.8-2.9-1.7-1.5-2.5-3.4-2.5-5.2h-2.9v-2.5h2.7c0-1.7.4-3.4,1.3-5.5.8-1.9,1.5-2.7,1.9-2.7s1,.8,1.7,2.7c.6,1.7.8,2.7.8,3.4,0,2.9-1.5,4.4-4.4,4.4.2.8.6,1.7,1.3,2.5.6.8,1.5,1.5,2.3,1.9v-.8c0-1.5.4-2.7,1-3.8,1-1.5,2.3-2.3,4.2-2.3h.8v2.9h.1v-.1Zm-6.3-3.3c0-.4-.2-1.3-.6-2.3-.4-1.3-.8-1.7-1.3-1.7-.2,0-.6.4-1,1.5-.4,1-.6,2.3-.6,3.6,2.2-.3,3.5-.5,3.5-1.1Z"/><path id="PATH_176" d="m787.51,552.02v.8c0,1.5-.2,2.3-.6,2.9-1,1.5-2.7,2.1-5.5,2.1h-2.9v-2.5h2.1c3.6,0,5.5-.6,5.9-1.7v-.4c0-.4,0-.6-.2-.8-.8.2-1.9.2-2.7.2-1.9,0-2.9-.8-2.9-2.5,0-1,.2-2.3.8-3.4.6-1.3,1.5-1.9,2.5-1.9.8,0,1.7.6,2.3,1.7.7,1.5,1.2,3.4,1.2,5.5Zm-2.3-11.6l-1.7,1.7-1.7-1.7,1.7-1.7,1.7,1.7Zm.8,9.7c0-.6-.2-1.3-.6-1.9s-1-.8-1.7-.8c-.4,0-.8.2-1.3.4-.4.2-.4.6-.4,1,0,.8.6,1.3,2.1,1.3.4.2,1.1.2,1.9,0Z"/></g><g id="G_177"><path id="PATH_178" d="m867.81,468.92h-.8c-.8,0-1.3-.2-1.7-.4v.6c0,1.9-.6,3.8-1.9,5.7-1,1.7-2.1,2.3-2.7,2.3-1.7,0-2.9,0-4.2-.2-.4,0-.6-.2-.6-.2,0,0,.2-.2.6-.2,1.7-.4,3.4-1.3,5-2.5,1.7-1.5,2.7-2.9,2.7-4.4,0-.8-.6-2.1-2.1-3.6l1-1.9c0-.2.2-.2.2-.2l.2.2c.6.8,1,1.5,1.5,1.7.6.4,1.5.8,2.3.8h.6l-.1,2.3h0Z"/><path id="PATH_179" d="m878.01,468.92h-1.7c-1.9,0-3.1-.6-4-1.9-.6,1.3-2.1,1.9-4.4,1.9h-1.3v-2.3h1.9c2.1,0,3.1-.8,3.4-2.3,0-.6.2-1,.4-1s.4.4.4,1c.2,1.5,1.3,2.3,3.1,2.3h1.9v2.3h.3Zm-6.9,4.7l-1.7,1.7-1.7-1.7,1.7-1.7,1.7,1.7Zm3.6,0l-1.7,1.7-1.7-1.7,1.7-1.7,1.7,1.7Z"/><path id="PATH_180" d="m897.31,468.92h-1.3c-1.5,0-2.3-.6-2.9-1.7-.4,1.3-1.5,1.7-2.7,1.7-1.3,0-2.1-.6-2.7-1.7-.6,1.3-1.5,1.7-2.7,1.7-1.5,0-2.5-.6-3.1-1.7-.8,1.3-1.9,1.7-3.4,1.7h-1.5v-2.3h1.7c1.5,0,2.5-.8,2.7-2.5,0-.4.2-.6.4-.6s.2.2.4.6c.2,1.7,1,2.5,2.7,2.5,1.5,0,2.5-.8,2.5-2.5,0-.4.2-.6.4-.6s.4.2.4.6c.2,1.7,1,2.5,2.1,2.5,1.5,0,2.5-.8,2.5-2.5,0-.4.2-.6.4-.6s.4.2.4.6c.2,1.7,1,2.5,2.5,2.5h1.3v2.3h-.1Zm-9.6-10.4l-1.5,1.5-1.5-1.5,1.5-1.5,1.5,1.5Zm1.7-3.4l-1.5,1.5-1.5-1.5,1.5-1.5,1.5,1.5Zm1.8,3.4l-1.5,1.5-1.5-1.5,1.5-1.5,1.5,1.5Z"/><path id="PATH_181" d="m907.81,464.72c0,1,0,1.9-.4,2.7-.4,1-1,1.7-1.7,1.7-1,0-2.7-.6-4.8-2.1-.6.8-1,1.3-1.3,1.5-.6.4-1.3.6-2.1.6h-1v-2.5h1.5c.8,0,1.7-.4,2.5-1.5.4-.4,1-1.5,1.9-2.7.6-1,1.5-1.5,2.1-1.5,1,0,1.9.4,2.5,1.5.4.9.8,1.7.8,2.3Zm-1.2,1.7c0-.6-.2-1.3-.6-2.1-.4-.8-1-1.3-1.7-1.3-.6,0-1.3.6-2.1,1.9.4.4,1,.8,1.9,1.3.8.4,1.7.6,2.1.6.1,0,.4-.2.4-.4Z"/><path id="PATH_182" d="m920.81,468.92h-.8c-.8,0-1.3-.2-1.7-.4v.6c0,1.9-.6,3.8-1.9,5.7-1,1.7-2.1,2.3-2.7,2.3-1.7,0-2.9,0-4.2-.2-.4,0-.6-.2-.6-.2,0,0,.2-.2.6-.2,1.7-.4,3.4-1.3,5-2.5,1.7-1.5,2.7-2.9,2.7-4.4,0-.8-.6-2.1-2.1-3.6l1-1.9c0-.2.2-.2.2-.2l.2.2c.6.8,1,1.5,1.5,1.7.6.4,1.5.8,2.3.8h.6l-.1,2.3h0Z"/><path id="PATH_183" d="m925.81,464.72c0,2.7-1.5,4.2-4.2,4.2h-1.7v-2.3h1.5c2.1,0,3.1-.4,3.1-1s-.4-1.5-1.5-2.5l.8-2.1c0-.2.2-.2.2-.2,0,0,.2.2.4.4,1,.8,1.4,2.3,1.4,3.5Zm-.2-9.4l-1.7,1.7-1.7-1.7,1.7-1.7,1.7,1.7Z"/></g><text class="cls-6" transform="translate(584.68 533.56)"><tspan x="0" y="0"></tspan></text></svg>