<?xml version="1.0" encoding="UTF-8"?><svg id="Layer_1" xmlns="http://www.w3.org/2000/svg" viewBox="0 0 1063.81 1044.44"><defs><style>.cls-1{fill:#dbeccb;}.cls-1,.cls-2,.cls-3,.cls-4,.cls-5{stroke-miterlimit:25.9;}.cls-1,.cls-3,.cls-4,.cls-5{stroke:#010101;stroke-width:.52px;}.cls-2{fill:none;stroke:#020202;stroke-width:1.29px;}.cls-3{fill:#e8d0e5;}.cls-4{fill:#fbd0d1;}.cls-5{fill:#fdfad4;}</style></defs><path id="_414" class="cls-5" d="m538.73,554.74c-13.2-43-66.3-56.2-86.2-96.1-16.6-36.5,13.2-76.1,0-112.7-13.2-26.4-39.9-9.8-59.6-3.4-49.7,9.8-49.7-49.7-39.9-89.4-16.6,0-39.6-19.9-33.2-29.8,16.6-33.2,29.8-66.3,39.9-99.5,7.5-17.6,33.9-23.8,56.5-34.2,1-6.7,6.5-13.5,10.1-17.9l1-1.3c3.4-4.1,12.4-8.5,20.7-12.2,4.4-2.1,8.3-3.9,10.1-5.2.3-.3.5-.5.5-1.3.3-3.4-3.9-10.1-9.3-15.5-6-6-18.1-14.2-24.6-17.6-2.1-1-4.4-1.8-6.7-2.6-6.2-2.3-13.5-4.7-18.1-11.4-3.4-4.7-21.2-5.7-53.4-2.6h-1c-9.3.8-27.7,10.4-38.6,16.1-4.1,2.1-7.3,3.6-8.8,4.4-5.4,2.1-16.8,14.8-17.9,19.9-1.6,7.5-23.8,27.7-31.1,32.9-7.5,5.2-22.8,16.3-44,13.7-17.4-2.6-38.8-2.6-42.7-2.6-3.9,4.9-7,8.5-8.5,10.1-3.1,3.1-33.2,57.5-51.3,90.9l-.8,1.3-85.7,1.6,2.3,165.5-.5.8c0,.3-9.6,13.2-14.5,20.5-1,1.6-2.1,2.8-3.1,3.9l35.7,51c1.6,2.6,12.4,23.8,13.7,31.1.8,4.7,16.6,30,26.9,45.3,6.5,1.8,46.9,12.9,55.4,14.2,10.9,1.3,29.5,19.4,34.2,26.4,1,1.8,3.1,5.2,6,9.8,9.1,15.3,25.9,44,35.7,52.3,13.5,11.1,34.4,47.9,35.2,49.7l1,1.8-1.8,1.3s-4.9,3.6-6,10.9c-.8,4.7-1,12.9-1.3,19.2,10.1-.5,24.9-2.1,28.2-3.9,6.7-3.4,27.7.3,35.2,2.6l3.6,1.3c79.3,26.2,121.2,40.9,124.8,43.5,2.8,2.1,25.1,9.8,41.7,15.5.8.3,1.6.5,2.3.8,1.6-1.3,2.8-2.6,4.4-4.1,46.9-49.2,83.4-122.2,63.5-195Z"/><path id="_416" class="cls-3" d="m459.23,326.04c9.8-19.9-16.6-33.2-26.4-46.4-6.7-13.2,13.2-29.8,6.7-43-6.7-6.7-13.2-13.2-13.2-16.6-13.2-26.4,16.6-33.2,33.2-46.4,2.3-2.3,1.3-8,.5-13.5-.5,0-1.3-.3-1.8-.3l-1.6-.3-.5-1.6s-2.3-8.3-7-15l-2.6-4.1c-6.7-10.4-21.2-31.9-27.2-39.1-2.8-3.4-3.4-6.7-2.8-10.4-22.5,10.6-48.9,16.8-56.5,34.2-9.8,33.2-23.3,66.3-39.9,99.5-6.7,9.8,16.6,29.8,33.2,29.8-9.8,39.9-9.8,99.5,39.9,89.4,18.6-6.2,43-21.2,57-1,4.3-4.1,7.2-9.5,9-15.2Z"/><path id="_418" class="cls-4" d="m512.33,369.24c3.4-6.7,3.4-19.9,6.7-29.8,0-3.4,13.2-6.7,13.2-9.8,13.2-19.9,3.4-53.1,16.6-66.3,9.8-9.8,36.5-3.4,49.7-23.3-9.8,0-26.4,16.6-26.4,0,0-8.5,16.8-12.2,23.8-25.4-3.1-2.6-5.4-4.7-6.5-6-4.9-4.9-19.7-25.9-23.6-35.7-.5-1.3-1.3-2.1-2.6-2.6-3.6-1.3-9.8,1-12.7,2.3-1.8,2.8-8.8,12.7-24.9,11.4-17.4-1.3-20.5-2.6-27.2-11.9-3.9-5.2-24.9-10.1-38.6-11.9.8,5.4,1.8,11.1-.5,13.5-16.6,13.2-46.4,19.9-33.2,46.4,0,3.4,6.7,9.8,13.2,16.6,6.7,13.2-13.2,29.8-6.7,43,9.8,13.2,36.5,26.4,26.4,46.4-1.8,5.4-4.7,11.1-9.3,15.3,1,1.3,1.8,2.8,2.6,4.4,4.7,12.7,4.1,25.6,2.1,38.6,19,6.1,41.8-1.4,57.9-15.2Z"/><path id="_252" class="cls-1" d="m568.53,451.94c3.4-6.7,9.8-13.2,13.2-16.6,26.4-9.8,59.6-6.7,76.1-26.4,33.2-29.8-39.9-46.4-29.8-82.9,0-3.4,13.2-9.8,19.9-16.6,6.7-16.6-19.9-19.9-19.9-26.4,0-17.9,6-35.5-1.8-50.5-.3,1.3-.5,2.1-.5,2.3l-.3,4.7-3.6-3.1c-.8-.8-16.6-13.7-26.2-22-7,13.2-23.8,16.8-23.8,25.4,0,16.6,16.6,0,26.4,0-13.2,19.9-39.6,13.2-49.7,23.3-13.2,13.2-3.4,46.4-16.6,66.3,0,3.4-13.2,6.7-13.2,9.8-3.4,9.8-3.4,23.3-6.7,29.8-16.1,13.7-38.6,21.2-57.8,15.5-3.9,24.9-12.9,50-2.1,73.8,18.9,37.6,67.1,51.5,83.7,89.4,33.2-19.2,14-64.8,32.7-95.8Z"/><path id="_421" class="cls-3" d="m677.83,435.34c19.9,6.7,16.6-19.9,29.8-26.4,13.2-3.4,26.4,13.2,39.9,6.7,16.6-13.2,33.2-33.2,39.9-49.7,3.4-19.9-23.3-33.2-13.2-53.1,6.7-6.7,19.9-13.2,23.3-6.7,19.9,23.3,39.9,46.4,66.3,33.2,36.5-16.6-13.2-43-19.9-69.7,6.7,3.4,16.6-3.4,19.9-3.4,4.4-6.5,8.8-16.1,6.5-23.6-17.6-.8-59.1-.8-59.6-.8h-1.6l-.8-1.3s-7.3-12.9-16.3-21c-6.2-5.4-6.7-5.2-10.1-4.7-1.6.3-3.6.5-6.5.5-4.9,0-22.5.5-39.4,1.3-16.1.5-31.3,1-35.2,1-3.4,0-10.6.5-18.9.8-12.4.8-28,1.6-38.8,1.6-11.9,0-15.3,8.3-16.3,12.2,7.8,14.8,1.8,32.6,1.8,50.5,0,6.7,26.4,9.8,19.9,26.4-6.7,6.7-19.9,13.2-19.9,16.6-9.8,36.5,62.9,53.1,29.8,82.9-1.8,2.3-3.9,4.1-6.2,5.7,7.4,8.8,15.7,16.1,25.6,21Z"/><path id="_248" class="cls-4" d="m677.83,819.64c0-6.7-3.4-16.6,3.4-23.3,6.7-3.4,13.2,3.4,19.9,0v-13.2c13.2-16.6,29.8-13.2,23.3-36.5,3.4,0,9.8-3.4,13.2-3.4,9.8-9.8-9.8-26.4,0-33.2,9.8-9.8,0-19.9,6.7-29.8,13.2,9.8,29.8,6.7,23.3-9.8-6.7-29.8-36.5-53.1-19.9-79.5,6.7-13.2,16.6-29.8,13.2-43-9.8-19.9-33.2-13.2-53.1-19.9-13.2-6.7-3.4-23.3,6.7-29.8,0-3.4-9.8-6.7-13.2-6.7-6.7-9.8-3.4-26.4-16.6-29.8-6.7-3.4-13.2,6.7-19.9,3.4-16.1-10.1-24.9-28.5-37.3-40.1-14.5,3.4-31.1,4.9-45.6,10.4-3.4,3.4-9.8,9.8-13.2,16.6-18.6,31.1.5,76.7-32.4,95.8,1,2.3,1.8,4.4,2.6,6.7,19.9,72.8-16.6,145.8-62.9,195.5-1.3,1.3-2.8,2.8-4.4,4.1,15.8,5.4,24.9,8.8,26.7,9.8,1,.5,4.7,2.8,9.6,6,22.5,13.5,46.9,28.2,52.1,33.4,1.6,1.6,5.4,5.4,10.9,10.6,11.7,11.1,28.5,27.7,42.2,41.4,1.8-.8,3.6-1.6,5.4-2.6,19.6-13.1,32.9-36.4,59.3-33.1Z"/><path id="_377" class="cls-5" d="m780.63,541.54c19.9-19.9,6.7-46.4,39.9-53.1-6.7-6.7-6.7-9.8-6.7-19.9s-23.3-9.8-26.4-26.4h9.8c-3.4-6.7-6.7-13.2-3.4-19.9,6.7-9.8,19.9-6.7,29.8-13.2,3.1-1,4.1-2.8,4.4-4.9-14.2-13.2-21.5-34.2-37.6-44.8-1-.8-2.3-1.6-3.6-2.3.8,2.8,1,5.7.3,8.8-6.7,16.6-23.3,36.5-39.9,49.7-13.2,6.7-26.4-9.8-39.9-6.7-13.2,6.7-9.8,33.2-29.8,26.4-9.8-4.9-18.1-12.4-26.2-20.7-6.7,5.2-15.3,8-24.6,10.4,12.4,11.7,21.2,30,37.3,40.1,6.7,3.4,13.2-6.7,19.9-3.4,13.2,3.4,9.8,19.9,16.6,29.8,3.4,0,13.2,3.4,13.2,6.7-9.8,6.7-19.9,23.3-6.7,29.8,19.9,6.7,43,0,53.1,19.9.5,1.6.5,3.4.8,4.9,8.3-1.1,15-5.3,19.7-11.2Z"/><path id="_995" class="cls-4" d="m863.53,538.14c13.2,6.7,26.4,0,39.9,6.7,9.8,6.7,6.7,26.4,16.6,26.4,35.7,8.3,62.4-22.3,93.2-23.3l-15.3-50.8-2.6-14.5-.3-18.1,1-3.1,2.8-3.9c-11.4-.8-23.6-7.5-35.7-5.4-6.7,0-13.2,6.7-19.9,3.4-6.7-6.7-6.7-19.9,3.4-26.4-19.9-26.4-49.7-26.4-79.5-16.6-6.7,0-19.9,3.4-26.4,0-4.7-2.1-8.8-4.9-12.2-8.3,0,2.1-1.3,3.9-4.4,4.9-9.8,6.7-23.3,3.4-29.8,13.2-3.4,6.7,0,13.2,3.4,19.9h-9.8c3.4,16.6,26.4,16.6,26.4,26.4,0,6.5,0,10.1,1.8,13.5,17.8,15.9,26.6,43.1,47.4,56Z"/><path id="_643" class="cls-3" d="m754.23,627.54c36.5,13.2,59.6,6.7,96.1,3.4,16.6,0,29.8,16.6,46.4,29.8,6.7,9.8,16.6-6.7,26.4-9.8,23.3-9.8,19.9,26.4,26.4,33.2,28.7,17.1,67.3-10.1,96.3,5.7l.5-3.4.3-18.6-15-56.2-18.9-63.5c-30.8,1-57.5,31.6-93.2,23.3-9.8,0-6.7-19.9-16.6-26.4-13.2-6.7-26.4,0-39.9-6.7-20.7-12.9-29.3-39.9-47.9-55.9,1,2.1,2.6,3.9,4.9,6.2-33.2,6.7-19.9,33.2-39.9,53.1-4.7,6.2-11.4,10.1-19.2,11.7.3,12.2-8,26.4-14,38.1-7.8,12.4-5.4,24.1,0,36,2.9-.8,5.2-.6,7.3,0Z"/><path id="_443" class="cls-1" d="m1042.73,708.54l1-3.9,2.1-15c-29.3-15.8-67.9,11.4-96.3-5.7-6.7-6.7-3.4-43-26.4-33.2-9.8,3.4-19.9,19.9-26.4,9.8-16.6-13.2-29.8-29.8-46.4-29.8-36.5,3.4-59.6,9.8-96.1-3.4-2.1-.8-4.1-.8-6.5-.5,6.2,13.7,16.3,27.7,19.7,43.5,6.7,16.6-9.8,19.9-23.3,9.8-6.7,9.8,3.4,19.9-6.7,29.8-9.8,6.7,9.8,23.3,0,33.2-3.4,0-9.8,3.4-13.2,3.4,6.7,23.3-9.8,19.9-23.3,36.5v13.2c-6.7,3.4-13.2-3.4-19.9,0-6.7,6.7-3.4,16.6-3.4,23.3-26.4-3.4-39.9,19.9-59.6,33.2-1.8.8-3.6,1.8-5.4,2.6,11.1,11.1,20.2,20.5,22.3,23.6,5.7,8.3,23.3,27.2,39.1,32.4,15.5,5.2,21,14,23.8,18.9.3.5.8,1,1,1.6,1.3,1.8,2.6,4.7,3.9,8,2.1,4.7,4.7,10.4,6.7,12.4,1.8,1.8,9.1,12.2,21,29,11.7,16.8,27.7,39.6,30,41.7,3.9,2.6,17.1,16.8,21.5,21.2l88.8-36.3c.5-4.7,2.6-20.2,2.6-24.6v-1.3c0-3.4-.3-8,3.1-11.1,2.6-2.6,6.5-3.9,11.9-3.9,14.8,0,34.2-3.1,37.6-5.2,5.7-3.9,15-12.2,12.9-19.4-1-3.6-6-22.8.3-33.2,2.1-3.4,4.9-5.4,8.8-6.2,6-1.3,16.8-4.4,27.2-7.5,17.1-4.9,27.7-8,31.6-8,6,0,17.9-4.9,24.6-11.7,6.5-6.5,19.9-31.9,20.5-32.6h0l-6.7-2.6-2.3-21.5-2.6-10.9-.8-5.4,2.6-17.1-2.6-21-.8-11.1,1.6-14.2-.3-4.9-1-2.3-1-2.3-.3-2.3,1.6-4.9-1-1.3-1.6-1-.8-1.3,1.3-3.6,5.6-6.9Z"/><path id="_310" class="cls-1" d="m1062.63,374.94l-3.4-3.1-3.1-1.6-6.2-1.6-7.8-.8-14.2,1-15.3-1.3-15.5-6.2-12.2-11.7-4.9-16.6,1.6-7.5,6-13.2.3-8.8-5.4-35.2-2.1-18.4c-.5.5-1,.8-1.8.8h-33.7c-1.8.3-9.1,8.3-14.8,18.1-4.1,7.3-9.8,11.1-16.3,11.1-2.3,0-4.9-.5-7.5-1.6-7.8-3.4-8.8-14-9.3-20.5-.3-1.6-.3-3.4-.5-3.9-.8-2.3-11.7-9.3-21-10.4-1.3-.3-3.6-.3-6.2-.5,2.3,7.5-2.1,17.1-6.5,23.6-3.4,0-13.2,6.7-19.9,3.4,6.7,26.4,56.2,53.1,19.9,69.7-26.4,13.2-46.4-9.8-66.3-33.2-3.4-6.7-16.6,0-23.3,6.7-8.3,16.8,9.1,28.7,12.9,44,1.3.8,2.6,1.6,3.6,2.3,19.9,13.2,26.4,43,49.7,53.1,6.7,3.4,19.9,0,26.4,0,29.8-9.8,59.6-9.8,79.5,16.6-9.8,6.7-9.8,19.9-3.4,26.4,6.7,3.4,13.2-3.4,19.9-3.4,12.2-2.1,24.3,4.7,35.7,5.4l33.9-45.6,5.7-4.9,6.7-3.9,2.1-2.6,1-4.4-.3-3.9-.5-3.9.3-3.4,3.6-2.1,9.3-.8,2.6-1,1.6-2.8-.9-3.4Z"/><line id="LINE_14" class="cls-2" x1="390.33" y1="174.04" x2="461.53" y2="117.84"/><g id="G_15"><path id="PATH_16" d="m259.53,438.14h-1.3c-1.8,0-2.8-.8-3.6-2.1-.5,1.6-1.8,2.3-3.4,2.3s-2.6-.8-3.4-2.3c-.8,1.6-2.1,2.3-3.6,2.3-.5,0-1.3,0-1.8-.3,0,1.6-.3,3.1-.3,4.9-.8,1.8-2.1,3.4-4.4,4.4-2.1.8-4.1,1.3-6.5,1.3s-4.1-.5-5.7-1.6c-1.6-1.3-2.3-2.8-2.3-5.2,0-1.3.3-2.3.8-3.9.5-1,.8-1.8,1.3-2.3.3-.3.5-.3.5-.3q.3,0,.3.3v.5c-.8,1.6-1,3.1-1,4.4s.5,2.3,1.3,3.4c1,1.3,2.8,1.8,5.2,1.8,2.6,0,4.9-.5,6.7-1.3,1.6-.8,2.6-1.6,2.8-2.6.3-.3.3-.8,0-1.8,0-.8-.3-1.6-.3-1.8-.3-.8-1-2.1-2.6-3.9l1-2.1c.3-.3.3-.5.3-.5,0,0,.3,0,.3.5.8,1,1.3,1.8,1.6,2.1.8.8,1.6,1,2.6,1s2.1-.3,2.6-1c.3-.5.5-1,.8-2.3,0-.5.3-.8.5-.8s.3.3.5.8c.3,2.1,1.3,3.4,2.8,3.4,1.8,0,3.1-1,3.1-3.1,0-.5.3-.8.5-.8s.5.3.5.8c.3,2.1,1.3,3.1,3.1,3.1h1.6v2.6h-.5v.1Z"/><path id="PATH_17" d="m272.23,438.14h-2.1c-2.3,0-3.9-.8-4.9-2.3-.8,1.6-2.6,2.3-5.4,2.3h-1.6v-3.1h2.3c2.6,0,3.9-1,4.1-2.8,0-.8.3-1.3.5-1.3s.5.5.5,1.3c.3,1.8,1.6,2.8,3.9,2.8h2.3v3.1h.4Zm-5.7,5.7l-2.1,2.1-2.1-2.1,2.1-2.1,2.1,2.1Z"/><path id="PATH_18" d="m291.93,431.14c0,2.8-1.6,4.9-4.7,6-2.3.8-6,1-10.9,1h-5.2v-3.1h2.6c.8,0,1.3-.3,1.6-.5.3-.3.3-.8.3-1.6v-5.7c-.3-4.1-.5-8-1-11.4l1.8-1.8.3-.3s.3.3.3.5c.3,1,.5,2.1,1,3.1,0,.3.3.5.3.5h-1.3c.3,4.7.3,7.5.3,8.3v2.8c0,1-.3,2.6-.8,4.4.3,0,.8-.5,2.1-1.6,1.3-1.3,2.6-2.3,3.6-3.1,1.8-1,3.4-1.6,4.9-1.6,1.3,0,2.3.3,3.1,1,1.2.8,1.7,1.9,1.7,3.1Zm-1.8,1.6c0-.8-.5-1.6-1.6-2.1-.8-.5-1.8-.8-2.6-.8-1.8,0-4.9,1.8-8.8,5.2,1,0,2.3.3,3.4.3,1.6,0,3.4-.3,5.2-.5,3.1-.5,4.4-1.3,4.4-2.1Z"/></g><g id="G_19"><path id="PATH_20" d="m600.83,656.54h-1.6c-1.6,0-3.4-.5-5.2-1.6-.8.3-1.6.5-2.1.8-2.6.8-5.7,1.3-9.6,1.3-2.6,0-4.7-.3-6-.8-2.1-.8-3.1-2.3-3.1-4.4,0-1.8.5-3.4,1.3-4.7.3-.3.3-.5.5-.5s.3,0,.3.3v.5c-.5,1-.5,1.8-.5,2.6,0,1.8,1,3.1,3.4,3.6,1,.3,3.1.5,5.7.5,2.1,0,3.9,0,4.9-.3.8,0,1.6-.3,2.3-.5-.8-.8-1.3-1.8-1.3-3.4,0-1.3.5-2.6,1.3-3.9,1-1.6,2.1-2.1,3.1-2.3,1.3,0,2.1.5,2.8,1.8.5,1,.8,2.1.8,3.6s-.5,2.8-1.6,3.6c.5.3,1.8.5,3.4.5h1v3.3h.2Zm-5.7-19.5l-2.1,2.1-2.1-2.1,2.1-2.1,2.1,2.1Zm1.6,12.7c0-.5-.3-1.3-.8-1.8s-1-1-1.6-1c-.5,0-1,.3-1.8,1-.8.8-1,1.3-1,1.8,0,1,1,2.1,2.8,2.8,1.6-.9,2.4-1.7,2.4-2.8Z"/><path id="PATH_21" d="m621.33,651.04c0,1.6-.3,2.8-1,3.9-.8,1-2.1,1.8-3.4,1.8-1.8,0-2.8-.8-3.6-2.1-1,1.6-2.1,2.1-3.6,2.1-1.8,0-3.1-.8-3.9-2.1-1,1.6-2.3,2.1-4.1,2.1h-1.8v-3.1h2.1c1.8,0,3.1-1,3.4-3.1,0-.5.3-.8.5-.8.3,0,.3.3.5.8.3,2.1,1.3,3.1,3.4,3.1,1,0,2.1-.3,2.6-.8.3-.5.5-1,.8-2.1,0-.5.3-.8.5-.8.3,0,.3.3.5.8.3,2.1,1.3,3.1,3.1,3.1,2.1,0,2.8-.5,2.8-1.3s-.5-1.8-1.6-2.8l1.3-2.3c.3-.3.3-.5.5-.5.3,0,.3.3.5.5,0,1,.5,2.3.5,3.6Z"/><path id="PATH_22" d="m637.43,656.54h-2.8c-.3,3.6-1.6,6.5-4.1,9.1-.8.8-1.3,1.3-1.6,1.3-1.3,0-3.1-.3-4.9-.5-.5,0-1-.3-1-.3,0,0,.3-.3,1-.5,2.1-.5,4.1-1.8,6-3.1.8-.8,1.6-1.3,2.1-2.3.8-1,1.3-2.1,1.3-2.8v-.9h-3.4c-2.6,0-3.6-1-3.6-3.1,0-1.3.3-2.6,1-4.1.8-1.6,1.8-2.6,2.8-2.6,1.3,0,2.3.8,3.1,2.6.5,1.3,1,2.6,1,4.1h2.8v3.1h.3Zm-4.7-3.1c0-.8-.3-1.6-.8-2.3-.5-1-1.3-1.3-2.1-1.3-.5,0-1,.3-1.3.5-.3.3-.5.8-.5,1.6,0,1.3,1,1.8,3.1,1.8.3-.1.8-.3,1.6-.3Z"/><path id="PATH_23" d="m657.63,649.04l-1,2.1c-1.8,0-3.4,0-4.1.3-1,.5-2.6,1-4.7,2.1s-3.6,1.8-4.7,2.1c-1.6.5-3.4.8-4.9.8h-1.8v-3.1h2.1c2.3,0,4.4-.5,6.2-1.3l6-2.6c-1-.3-2.6-.8-4.7-1.6-1.8-.8-2.8-1-3.4-1-1,0-2.1.5-3.1,1.3q-.3.3-.5.3c-.2,0-.3,0-.3-.3v-.3c.8-2.6,2.3-3.6,4.4-3.6.8,0,1.8.3,2.8.8,2.1,1,3.6,1.6,4.7,2.1,1.8.5,3.9,1,6.2,1,.5,0,.8,0,.8.3.2,0,.2.3,0,.6Zm-7.3-12l-2.1,2.1-2.1-2.1,2.1-2.1,2.1,2.1Z"/></g><g id="G_24"><path id="PATH_25" d="m797.73,846.14c.3.8.3,1.6.3,2.3,0,1-.3,1.8-.5,2.8-.8,1.8-2.1,3.4-4.7,4.4-2.1.8-4.1,1.3-6.5,1.3s-4.1-.5-5.7-1.6c-1.6-1.3-2.3-2.8-2.3-5.2,0-1.3.3-2.3.8-3.9.5-1,.8-1.8,1.3-2.3.3-.3.5-.3.5-.3q.3,0,.3.3v.5c-.8,1.6-1,3.1-1,4.4s.5,2.3,1.3,3.4c1,1.3,2.8,1.8,5.2,1.8,2.6,0,4.9-.5,6.7-1.3,1.6-.8,2.6-1.6,3.1-2.6.3-.3.3-.8.3-1,0-.8-.3-1.6-.5-2.6-.3-.8-1-2.1-2.3-4.1l1-2.1c.3-.3.3-.5.3-.5,0,0,.3,0,.3.3,1,1.8,1.8,3.9,2.1,6Zm-7.5-11.2l-2.1,2.1-2.1-2.1,2.1-2.1,2.1,2.1Z"/><path id="PATH_26" d="m803.93,843.24c0,1-.3,2.1-.8,2.8-.3.5-.5.8-.5.8,0,0-.3-.3-.3-1,0-3.1-.5-10.4-1.6-22l2.1-2.1.3-.3v.5c.8,3.7.8,10.7.8,21.3Z"/><path id="PATH_27" d="m824.13,846.34h-1c-1,0-1.8-.3-2.6-1-.5-.5-1-1-1.6-2.1-.5,1-1.3,1.8-2.1,2.3-1,.5-2.3.8-4.4.8-3.6,0-5.4-1.3-5.4-3.9,0-.8.3-1.8.8-2.6.3-.3.3-.5.5-.5s.3.3.3.5v1.6c0,1.6,1.3,2.3,3.9,2.3,3.6,0,5.4-.8,5.4-2.1,0-.8-1-3.6-3.1-8.5l1-2.1c.3-.3.3-.5.3-.5,0,0,.3.3.3.5.8,2.1,2.1,5.2,3.6,9.3.8,2.1,1.8,3.1,3.4,3.1h.8l-.1,2.9h0Z"/><path id="PATH_28" d="m837.03,846.34h-2.1c-2.3,0-3.9-.8-4.9-2.3-.8,1.6-2.6,2.3-5.4,2.3h-1.6v-3.1h2.3c2.6,0,3.9-1,4.1-2.8,0-.8.3-1.3.5-1.3s.5.5.5,1.3c.3,1.8,1.6,2.8,3.9,2.8h2.3v3.1h.4Zm-5.1-13.2l-2.1,2.1-2.1-2.1,2.1-2.1,2.1,2.1Z"/><path id="PATH_29" d="m849.73,846.34h-2.1c-2.3,0-3.9-.8-4.9-2.3-.8,1.6-2.6,2.3-5.4,2.3h-1.6v-3.1h2.3c2.6,0,3.9-1,4.1-2.8,0-.8.3-1.3.5-1.3.3,0,.5.5.5,1.3.3,1.8,1.6,2.8,3.9,2.8h2.3v3.1h.4Zm-5.7,5.7l-2.1,2.1-2.1-2.1,2.1-2.1,2.1,2.1Z"/><path id="PATH_30" d="m865.83,846.34h-1.3c-1,0-2.1.3-2.8.5-1.3.5-2.1,1.3-2.1,2.6,0,1.6,1,2.8,3.1,4.1l-1.3,2.6c-2.3-.8-4.4-2.1-6-3.6-2.1-1.8-3.1-4.1-3.1-6.5h-3.6v-3.1h3.4c0-2.1.5-4.1,1.6-6.7,1-2.3,1.8-3.4,2.3-3.4s1.3,1,2.1,3.4c.8,2.1,1,3.4,1,4.1,0,3.6-1.8,5.4-5.4,5.4.3,1,.8,2.1,1.6,3.1.8,1,1.8,1.8,2.8,2.3v-1c0-1.8.5-3.4,1.3-4.7,1.3-1.8,2.8-2.8,5.2-2.8h1v3.6h.2v.1Zm-7.8-4.1c0-.5-.3-1.6-.8-2.8-.5-1.6-1-2.1-1.6-2.1-.3,0-.8.5-1.3,1.8s-.8,2.8-.8,4.4c3,0,4.5-.6,4.5-1.3Z"/><path id="PATH_31" d="m872.03,841.14c0,3.4-1.8,5.2-5.2,5.2h-2.1v-3.1h1.8c2.6,0,3.9-.5,3.9-1.3s-.5-1.8-1.8-3.1l1-2.6c0-.3.3-.3.3-.3,0,0,.3.3.5.5,1.1,1.6,1.6,3.2,1.6,4.7Zm-.2-11.6l-2.1,2.1-2.1-2.1,2.1-2.1,2.1,2.1Z"/></g><g id="G_32"><path id="PATH_33" d="m873.63,605.44h-1.8c-2.3,0-3.6-1.3-4.1-4.1-1.3,1.3-1.8,1.8-2.1,1.8h-2.3c-.8,0-1.6,0-2.3-.3-1-.3-1.6-.8-1.6-1.3,0-2.1.8-3.6,2.1-4.7,1-.8,2.6-1.6,4.7-2.6l-.5-2.6,1.8-2.1c0,.3.8,3.1,1.8,8.5.3,1.6.8,2.8,1,3.4.5.8,1,1,2.1,1h1.8v2.8h-.6v.2Zm-6.5-5.1l-.8-4.1c-.8.3-1.8.8-3.1,1.3-1.6.8-2.6,1.6-2.6,1.8,0,.5.5.8,1.8,1,.8.3,1.6.3,2.3.3,1.1-.1,1.9-.3,2.4-.3Z"/><path id="PATH_34" d="m897.43,605.44h-1.6c-1.8,0-2.8-.8-3.6-2.1-.5,1.6-1.8,2.1-3.4,2.1s-2.6-.8-3.4-2.1c-.8,1.6-1.8,2.1-3.4,2.1-1.8,0-3.1-.8-3.9-2.1-1,1.6-2.3,2.1-4.1,2.1h-1.8v-3.1h2.1c1.8,0,3.1-1,3.4-3.1,0-.5.3-.8.5-.8s.3.3.5.8c.3,2.1,1.3,3.1,3.4,3.1,1.8,0,3.1-1,3.1-3.1,0-.5.3-.8.5-.8s.5.3.5.8c.3,2.1,1.3,3.1,2.6,3.1,1.8,0,3.1-1,3.1-3.1,0-.5.3-.8.5-.8s.5.3.5.8c.3,2.1,1.3,3.1,3.1,3.1h1.6v3.1h-.2Zm-11.9-12.9l-1.8,1.8-1.8-1.8,1.8-1.8,1.8,1.8Zm2.3-4.1l-1.8,1.8-1.8-1.8,1.8-1.8,1.8,1.8Zm2.3,4.1l-1.8,1.8-1.8-1.8,1.8-1.8,1.8,1.8Z"/><path id="PATH_35" d="m910.33,605.44h-2.1c-2.3,0-3.9-.8-4.9-2.3-.8,1.6-2.6,2.3-5.4,2.3h-1.6v-3.1h2.3c2.6,0,3.9-1,4.1-2.8,0-.8.3-1.3.5-1.3s.5.5.5,1.3c.3,1.8,1.6,2.8,3.9,2.8h2.3v3.1h.4Zm-8.5,5.7l-2.1,2.1-2.1-2.1,2.1-2.1,2.1,2.1Zm4.4,0l-2.1,2.1-2.1-2.1,2.1-2.1,2.1,2.1Z"/><path id="PATH_36" d="m916.63,600.34c0,3.4-1.8,5.2-5.2,5.2h-2.1v-3.1h1.8c2.6,0,3.9-.5,3.9-1.3s-.5-1.8-1.8-3.1l1-2.6c0-.3.3-.3.3-.3,0,0,.3.3.5.5.8,1.6,1.6,3.1,1.6,4.7Zm-1.1,10.8l-2.1,2.1-2.1-2.1,2.1-2.1,2.1,2.1Z"/><path id="PATH_37" d="m932.63,605.44h-1c-1,0-1.6-.3-2.1-.5v.8c0,2.3-.8,4.7-2.3,7-1.3,2.1-2.6,2.8-3.4,2.8-2.1,0-3.6,0-5.2-.3-.5,0-.8-.3-.8-.3,0,0,.3-.3.8-.3,2.1-.5,4.1-1.6,6.2-3.1,2.1-1.8,3.4-3.6,3.4-5.4,0-1-.8-2.6-2.6-4.4l1.3-2.3c0-.3.3-.3.3-.3l.3.3c.8,1,1.3,1.8,1.8,2.1.8.5,1.8,1,2.8,1h.8v2.8h-.3v.1Z"/><path id="PATH_38" d="m953.13,600.04c0,1.6-.3,2.8-1,3.9-.8,1-2.1,1.8-3.4,1.8-1.8,0-2.8-.8-3.6-2.1-1,1.6-2.1,2.1-3.6,2.1-1.8,0-3.1-.8-3.9-2.1-1,1.6-2.3,2.1-4.1,2.1h-1.8v-3.1h2.1c1.8,0,3.1-1,3.4-3.1,0-.5.3-.8.5-.8s.3.3.5.8c.3,2.1,1.3,3.1,3.4,3.1,1,0,2.1-.3,2.6-.8.3-.5.5-1,.8-2.1,0-.5.3-.8.5-.8s.3.3.5.8c.3,2.1,1.3,3.1,3.1,3.1,2.1,0,2.8-.5,2.8-1.3s-.5-1.8-1.6-2.8l1.3-2.3c.3-.3.3-.5.5-.5s.3.3.5.5c0,1,.5,2.6.5,3.6Z"/></g><g id="G_39"><path id="PATH_40" d="m877.73,488.44c.3.8.3,1.6.3,2.3,0,1-.3,1.8-.5,2.8-.8,1.8-2.1,3.4-4.7,4.4-2.1.8-4.1,1.3-6.5,1.3s-4.1-.5-5.7-1.6c-1.6-1.3-2.3-2.8-2.3-5.2,0-1.3.3-2.3.8-3.9.5-1,.8-1.8,1.3-2.3.3-.3.5-.3.5-.3q.3,0,.3.3v.5c-.8,1.6-1,3.1-1,4.4s.5,2.3,1.3,3.4c1,1.3,2.8,1.8,5.2,1.8,2.6,0,4.9-.5,6.7-1.3,1.6-.8,2.6-1.6,3.1-2.6.3-.3.3-.8.3-1,0-.8-.3-1.6-.5-2.6-.3-.8-1-2.1-2.3-4.1l1-2.1c.3-.3.3-.5.3-.5,0,0,.3,0,.3.3.8,1.8,1.6,3.9,2.1,6Zm-7.8-11.4l-2.1,2.1-2.1-2.1,2.1-2.1,2.1,2.1Z"/><path id="PATH_41" d="m888.13,488.64h-1.8c-1.8,0-3.4-.8-3.9-2.3-.5-1-.8-2.8-.8-4.9v-4.9c0-2.3-.3-5.7-.5-10.1l1.6-1.8c.3-.3.5-.3.5,0,.3,2.3.5,5.7.5,10.1v7.5c0,2.1,1,3.1,3.1,3.1h1.3v3.3h0Z"/><path id="PATH_42" d="m900.83,488.64h-2.1c-2.3,0-3.9-.8-4.9-2.3-.8,1.6-2.6,2.3-5.4,2.3h-1.6v-3.1h2.3c2.6,0,3.9-1,4.1-2.8,0-.8.3-1.3.5-1.3.3,0,.5.5.5,1.3.3,1.8,1.6,2.8,3.9,2.8h2.3v3.1h.4Zm-8.6,5.7l-2.1,2.1-2.1-2.1,2.1-2.1,2.1,2.1Zm4.7,0l-2.1,2.1-2.1-2.1,2.1-2.1,2.1,2.1Z"/><path id="PATH_43" d="m913.73,483.54c0,1.3,0,2.3-.5,3.4-.5,1.3-1.3,2.1-2.1,2.1-1.3,0-3.4-.8-6-2.6-.8,1-1.3,1.6-1.6,1.8-.8.5-1.6.8-2.6.8h-1.3v-3.1h1.8c1,0,2.1-.5,3.1-1.8.5-.5,1.3-1.8,2.3-3.4.8-1.3,1.8-1.8,2.6-1.8,1.3,0,2.3.5,3.1,1.8.7,1,1.2,2,1.2,2.8Zm-1.5,2c0-.8-.3-1.6-.8-2.6s-1.3-1.6-2.1-1.6-1.6.8-2.6,2.3c.5.5,1.3,1,2.3,1.6,1,.5,2.1.8,2.6.8.3.1.6-.2.6-.5Z"/><path id="PATH_44" d="m926.73,488.94c0,2.6-.8,4.9-2.3,7.3-1.3,1.8-2.6,2.8-3.4,2.8-2.1,0-3.6,0-5.2-.3-.5,0-.8-.3-.8-.3,0,0,.3-.3.8-.3,2.1-.5,4.1-1.6,6.2-3.1,2.1-1.8,3.4-3.6,3.4-5.4,0-1-.8-2.6-2.6-4.4l1.3-2.3c0-.3.3-.3.3-.3l.3.3c.5.8,1.3,1.8,1.6,3.1.1.8.4,2.1.4,2.9Z"/><path id="PATH_45" d="m942.73,483.24c0,3.6-2.3,5.4-7.3,5.4-1.8,0-3.1-.3-3.9-.8-1-.5-1.6-1.8-1.6-3.4,0-.8.3-1.6.5-2.3.3-.3.3-.5.5-.5s.3.3.3.8v.8c0,1,.5,1.8,1.6,2.1.5.3,1.6.3,2.8.3,3.9,0,5.7-.5,5.7-1.8,0-1.8-2.3-4.4-6.7-7.5l.8-2.6c0-.3.3-.3.3-.3,0,0,.3,0,.5.3,4.2,3.3,6.5,6.7,6.5,9.5Z"/></g><g id="G_46"><path id="PATH_47" d="m718.93,474.44h-1c-1,0-1.8-.3-2.6-1-.5-.5-1-1-1.6-2.1-.5,1-1.3,1.8-2.1,2.3-1,.5-2.3.8-4.4.8-3.6,0-5.4-1.3-5.4-3.9,0-.8.3-1.8.8-2.6.3-.3.3-.5.5-.5.3,0,.3.3.3.5v1.6c0,1.6,1.3,2.3,3.9,2.3,3.6,0,5.4-.8,5.4-2.1,0-.8-1-3.6-3.1-8.5l1-2.1c.3-.3.3-.5.3-.5,0,0,.3.3.3.5.8,2.1,2.1,5.2,3.6,9.3.8,2.1,1.8,3.1,3.4,3.1h.8v2.9h-.1Z"/><path id="PATH_48" d="m731.63,474.44h-2.1c-2.3,0-3.9-.8-4.9-2.3-.8,1.6-2.6,2.3-5.4,2.3h-1.6v-3.1h2.3c2.6,0,3.9-1,4.1-2.8,0-.8.3-1.3.5-1.3s.5.5.5,1.3c.3,1.8,1.6,2.8,3.9,2.8h2.3v3.1h.4Zm-5.1-13.5l-2.1,2.1-2.1-2.1,2.1-2.1,2.1,2.1Z"/><path id="PATH_49" d="m751.83,466.94l-1,2.1c-1.8,0-3.4,0-4.1.3-1,.5-2.6,1-4.7,2.1s-3.6,1.8-4.7,2.1c-1.6.5-3.4.8-4.9.8h-1.8v-3.1h2.1c2.3,0,4.4-.5,6.2-1.3l6-2.6c-1-.3-2.6-.8-4.7-1.6-1.8-.8-2.8-1-3.4-1-1,0-2.1.5-3.1,1.3q-.3.3-.5.3c-.2,0-.3,0-.3-.3v-.3c.8-2.6,2.3-3.6,4.4-3.6.8,0,1.8.3,2.8.8,2.1,1,3.6,1.6,4.7,2.1,1.8.5,3.9,1,6.2,1,.5,0,.8,0,.8.3q.3.1,0,.6Zm-8.5,12.7l-2.1,2.1-2.1-2.1,2.1-2.1,2.1,2.1Z"/><path id="PATH_50" d="m768.23,474.44h-1c-1,0-1.6-.3-2.1-.5v.8c0,2.3-.8,4.7-2.3,7-1.3,2.1-2.6,2.8-3.4,2.8-2.1,0-3.6,0-5.2-.3-.5,0-.8-.3-.8-.3,0,0,.3-.3.8-.3,2.1-.5,4.1-1.6,6.2-3.1,2.1-1.8,3.4-3.6,3.4-5.4,0-1-.8-2.6-2.6-4.4l1.3-2.3c0-.3.3-.3.3-.3l.3.3c.8,1,1.3,1.8,1.8,2.1.8.5,1.8,1,2.8,1h.8v2.8h-.3v.1Z"/><path id="PATH_51" d="m781.13,474.44h-2.1c-2.3,0-3.9-.8-4.9-2.3-.8,1.6-2.6,2.3-5.4,2.3h-1.6v-3.1h2.3c2.6,0,3.9-1,4.1-2.8,0-.8.3-1.3.5-1.3s.5.5.5,1.3c.3,1.8,1.6,2.8,3.9,2.8h2.3v3.1h.4Zm-8.5,5.7l-2.1,2.1-2.1-2.1,2.1-2.1,2.1,2.1Zm4.4,0l-2.1,2.1-2.1-2.1,2.1-2.1,2.1,2.1Z"/><path id="PATH_52" d="m787.33,469.24c0,3.4-1.8,5.2-5.2,5.2h-2.1v-3.1h1.8c2.6,0,3.9-.5,3.9-1.3s-.5-1.8-1.8-3.1l1-2.6c0-.3.3-.3.3-.3,0,0,.3.3.5.5.8,1.4,1.6,2.9,1.6,4.7Zm-1,10.9l-2.1,2.1-2.1-2.1,2.1-2.1,2.1,2.1Z"/></g><g id="G_53"><path id="PATH_54" d="m888.63,365.44c0,1.8-.5,3.1-1.6,4.1-1,1-2.6,1.3-4.1,1.3-1,0-2.1-.3-2.8-1-.8-.8-1.3-1.6-1.3-2.6,0-1.3.5-2.6,1.6-4.4.8-1.6,1.8-2.8,2.8-3.9,3.6,1.8,5.4,3.9,5.4,6.5Zm-1.6,1c0-.8-.5-1.6-1.8-2.6-1-1-1.8-1.6-2.8-1.8-1.3,1.8-2.1,3.1-2.1,4.1,0,.5.3,1,1,1.6.5.3,1,.5,1.8.5,1,0,2.1-.3,2.8-.5.9-.8,1.1-1,1.1-1.3Z"/><path id="PATH_55" d="m904.63,370.84h-2.8c-.3,3.6-1.6,6.5-4.1,9.1-.8.8-1.3,1.3-1.6,1.3-1.3,0-3.1-.3-4.9-.5-.5,0-1-.3-1-.3,0,0,.3-.3,1-.5,2.1-.5,4.1-1.8,6-3.1.8-.8,1.6-1.3,2.1-2.3.8-1,1.3-2.1,1.3-2.8v-.8h-3.4c-2.6,0-3.6-1-3.6-3.1,0-1.3.3-2.6,1-4.1.8-1.6,1.8-2.6,2.8-2.6,1.3,0,2.3.8,3.1,2.6.5,1.3,1,2.6,1,4.1h2.8v3.1h.3v-.1Zm-4.6-3.1c0-.8-.3-1.6-.8-2.3-.5-1-1.3-1.3-2.1-1.3-.5,0-1,.3-1.3.5-.3.3-.5.8-.5,1.6,0,1.3,1,1.8,3.1,1.8.3-.3.8-.3,1.6-.3Z"/><path id="PATH_56" d="m920.73,346.74c0,.5-.5,1.6-1,2.8l-6.5,2.1c-2.8,1-4.9,1.8-6,2.3,2.1,2.1,3.4,3.6,4.1,4.4,1.3,1.8,2.1,3.4,2.3,5.2,0,1.3,0,2.6-.5,3.6-.8,2.3-3.6,3.4-8,3.4h-1.3v-3.1h1.6c2.1,0,3.6,0,4.4-.3,1.8-.5,2.8-1.3,2.8-2.6,0-1.8-1.3-3.9-4.1-6.5l-.3.5c-.3-.3-.8-.8-1.3-1.6-.8-.8-1-1.6-1-1.6,0-.5,0-1,.3-2.1.3-1,.5-1.6.8-1.8.3-.3,2.1-1,5.4-2.1,2.9-.8,6-1.8,8.3-2.6Z"/><path id="PATH_57" d="m935.73,370.84h-1c-1,0-1.6-.3-2.1-.5v.8c0,2.3-.8,4.7-2.3,7-1.3,2.1-2.6,2.8-3.4,2.8-2.1,0-3.6,0-5.2-.3-.5,0-.8-.3-.8-.3,0,0,.3-.3.8-.3,2.1-.5,4.1-1.6,6.2-3.1,2.1-1.8,3.4-3.6,3.4-5.4,0-1-.8-2.6-2.6-4.4l1.3-2.3c0-.3.3-.3.3-.3l.3.3c.8,1,1.3,1.8,1.8,2.1.8.5,1.8,1,2.8,1h.8v2.8h-.3v.1Z"/><path id="PATH_58" d="m941.93,365.64c0,3.4-1.8,5.2-5.2,5.2h-2.1v-3.1h1.8c2.6,0,3.9-.5,3.9-1.3s-.5-1.8-1.8-3.1l1-2.6c0-.3.3-.3.3-.3,0,0,.3.3.5.5,1.1,1.4,1.6,2.9,1.6,4.7Zm-2,10.9l-2.1,2.1-2.1-2.1,2.1-2.1,2.1,2.1Zm4.4,0l-2.1,2.1-2.1-2.1,2.1-2.1,2.1,2.1Z"/><path id="PATH_59" d="m957.53,371.14c0,2.6-.8,4.9-2.3,7.3-1.3,1.8-2.6,2.8-3.4,2.8-2.1,0-3.6,0-5.2-.3-.5,0-.8-.3-.8-.3,0,0,.3-.3.8-.3,2.1-.5,4.1-1.6,6.2-3.1,2.1-1.8,3.4-3.6,3.4-5.4,0-1-.8-2.6-2.6-4.4l1.3-2.3c0-.3.3-.3.3-.3l.3.3c.5.8,1.3,1.8,1.6,3.1.1.8.4,1.8.4,2.9Zm-1.8-14l-2.1,2.1-2.1-2.1,2.1-2.1,2.1,2.1Z"/></g><g id="G_65"><path id="PATH_66" d="m476.53,110.84h-1.8c-2.3,0-3.6-1.3-4.1-4.1-1.3,1.3-1.8,1.8-2.1,1.8h-2.3c-.8,0-1.6,0-2.3-.3-1-.3-1.6-.8-1.6-1.3,0-1.8.8-3.6,2.1-4.7,1-.8,2.6-1.6,4.7-2.6l-.5-2.6,1.8-2.1c0,.3.8,3.1,1.8,8.5.3,1.6.8,2.8,1,3.4.5.8,1,1,2.1,1h1.8v2.8h-.6v.2Zm-6.4-5.2l-.8-4.1c-.8.3-1.8.8-3.1,1.3-1.6.8-2.6,1.6-2.6,1.8,0,.5.5.8,1.8,1,.8.3,1.6.3,2.3.3,1.1,0,1.8-.3,2.4-.3Z"/><path id="PATH_67" d="m482.73,105.64c0,3.4-1.8,5.2-5.2,5.2h-2.1v-3.1h1.8c2.6,0,3.9-.5,3.9-1.3s-.5-1.8-1.8-3.1l1-2.6c0-.3.3-.3.3-.3,0,0,.3.3.5.5,1.1,1.6,1.6,3.1,1.6,4.7Zm-2,10.9l-2.1,2.1-2.1-2.1,2.1-2.1,2.1,2.1Zm4.6,0l-2.1,2.1-2-2.1,2.1-2.1,2,2.1Z"/><path id="PATH_68" d="m498.53,109.74c0,3.9-1.3,7.3-3.9,9.8-.8.8-1.3,1.3-1.6,1.3-1.6,0-3.1-.3-4.9-.5-.8,0-1-.3-1-.3,0,0,.3-.3,1-.5,2.1-.5,4.1-1.8,6-3.4.8-.8,1.6-1.3,2.1-2.3.8-1,1.3-2.1,1.3-2.8v-.8h-3.4c-2.3,0-3.6-1-3.6-2.8,0-1.3.3-2.6,1-4.1.8-1.6,1.8-2.6,2.8-2.6,1.6,0,2.8,1,3.6,3.4.4,2,.6,3.8.6,5.6Zm-1.8-2c0-.8-.3-1.6-.8-2.3-.5-.8-1.3-1.3-2.1-1.3-.5,0-1,.3-1.3.5-.5.5-.5.8-.5,1.3,0,1.3.8,1.8,2.6,1.8.3.2,1.1.2,2.1,0Z"/><path id="PATH_69" d="m514.63,110.84h-1c-1,0-1.6-.3-2.1-.5v.8c0,2.3-.8,4.7-2.3,7-1.3,2.1-2.6,2.8-3.4,2.8-2.1,0-3.6,0-5.2-.3-.5,0-.8-.3-.8-.3,0,0,.3-.3.8-.3,2.1-.5,4.1-1.6,6.2-3.1,2.1-1.8,3.4-3.6,3.4-5.4,0-1-.8-2.6-2.6-4.4l1.3-2.3c0-.3.3-.3.3-.3l.3.3c.8,1,1.3,1.8,1.8,2.1.8.5,1.8,1,2.8,1h.8v2.8h-.3v.1Z"/><path id="PATH_70" d="m538.73,110.84h-1.6c-1.8,0-2.8-.8-3.6-2.1-.5,1.6-1.8,2.1-3.4,2.1s-2.6-.8-3.4-2.1c-.8,1.6-1.8,2.1-3.4,2.1-1.8,0-3.1-.8-3.9-2.1-1,1.6-2.3,2.1-4.1,2.1h-1.8v-3.1h2.1c1.8,0,3.1-1,3.4-3.1,0-.5.3-.8.5-.8.3,0,.3.3.5.8.3,2.1,1.3,3.1,3.4,3.1,1.8,0,3.1-1,3.1-3.1,0-.5.3-.8.5-.8s.5.3.5.8c.3,2.1,1.3,3.1,2.6,3.1,1.8,0,3.1-1,3.1-3.1,0-.5.3-.8.5-.8.3,0,.5.3.5.8.3,2.1,1.3,3.1,3.1,3.1h1.6v3.1h-.2Zm-12.2-13l-1.8,1.8-1.8-1.8,1.8-1.8,1.8,1.8Zm2.3-4.1l-1.8,1.8-1.8-1.8,1.8-1.8,1.8,1.8Zm2.4,4.1l-1.8,1.8-1.8-1.8,1.8-1.8,1.8,1.8Z"/><path id="PATH_71" d="m544.93,105.64c0,3.4-1.8,5.2-5.2,5.2h-2.1v-3.1h1.8c2.6,0,3.9-.5,3.9-1.3s-.5-1.8-1.8-3.1l1-2.6c0-.3.3-.3.3-.3,0,0,.3.3.5.5,1.1,1.6,1.6,3.1,1.6,4.7Zm-1,10.9l-2.1,2.1-2.1-2.1,2.1-2.1,2.1,2.1Z"/></g><g id="G_72"><path id="PATH_73" d="m485.63,252.24c0,3.6-1.6,5.4-4.7,5.4-1.8,0-2.8-.8-3.4-2.3-.8,1.6-2.1,2.3-3.6,2.3-.5,0-1.3,0-1.8-.3,0,1.6-.3,3.1-.3,4.9-.8,1.8-2.1,3.4-4.4,4.4-2.1.8-4.1,1.3-6.5,1.3s-4.1-.5-5.7-1.6c-1.6-1.3-2.3-2.8-2.3-5.2,0-1.3.3-2.3.8-3.9.5-1,.8-1.8,1.3-2.3.3-.3.5-.3.5-.3q.3,0,.3.3v.5c-.8,1.6-1,3.1-1,4.4s.5,2.3,1.3,3.4c1,1.3,2.8,1.8,5.2,1.8,2.6,0,4.9-.5,6.7-1.3,1.6-.8,2.6-1.6,2.8-2.6.3-.3.3-.8,0-1.8,0-.8-.3-1.6-.3-1.8-.3-.8-1-2.1-2.6-3.9l1-2.1c.3-.3.3-.5.3-.5,0,0,.3,0,.3.3.8,1,1.3,1.8,1.6,2.1.8.8,1.6,1,2.6,1s2.1-.3,2.6-1c.3-.5.5-1,.8-2.3,0-.5.3-.8.5-.8.3,0,.3.3.3.8.3,1.3.5,2.1,1,2.6s1.6.8,2.8.8c.5,0,1-.3,1.3-.5.5-.3.8-.8.8-1.3,0-.8-.5-1.6-1.6-2.8l1.3-2.3.3-.3.3.3c1,1.7,1.5,3,1.5,4.6Z"/><path id="PATH_74" d="m498.83,256.64c0,3.9-1.3,7.3-3.9,9.8-.8.8-1.3,1.3-1.6,1.3-1.6,0-3.1-.3-4.9-.5-.8,0-1-.3-1-.3,0,0,.3-.3,1-.5,2.1-.5,4.1-1.8,6-3.4.8-.8,1.6-1.3,2.1-2.3.8-1,1.3-2.1,1.3-2.8v-.8h-3.4c-2.3,0-3.6-1-3.6-2.8,0-1.3.3-2.6,1-4.1.8-1.6,1.8-2.6,2.8-2.6,1.6,0,2.8,1,3.6,3.4.3,1.7.6,3.5.6,5.6Zm-1.8-2.1c0-.8-.3-1.6-.8-2.3-.5-.8-1.3-1.3-2.1-1.3-.5,0-1,.3-1.3.5-.5.5-.5.8-.5,1.3,0,1.3.8,1.8,2.6,1.8.3.3,1.1,0,2.1,0Z"/><path id="PATH_75" d="m514.63,252.24c0,3.6-2.3,5.4-7.3,5.4-1.8,0-3.1-.3-3.9-.8-1-.5-1.6-1.8-1.6-3.4,0-.8.3-1.6.5-2.3.3-.3.3-.5.5-.5.3,0,.3.3.3.8v.8c0,1,.5,1.8,1.6,2.1.5.3,1.6.3,2.8.3,3.9,0,5.7-.5,5.7-1.8,0-1.8-2.3-4.4-6.7-7.5l.8-2.6c0-.3.3-.3.3-.3,0,0,.3,0,.5.3,4.4,3.3,6.5,6.6,6.5,9.5Z"/><path id="PATH_76" d="m530.73,257.64h-1c-1,0-1.6-.3-2.1-.5v.8c0,2.3-.8,4.7-2.3,7-1.3,2.1-2.6,2.8-3.4,2.8-2.1,0-3.6,0-5.2-.3-.5,0-.8-.3-.8-.3,0,0,.3-.3.8-.3,2.1-.5,4.1-1.6,6.2-3.1,2.1-1.8,3.4-3.6,3.4-5.4,0-1-.8-2.6-2.6-4.4l1.3-2.3c0-.3.3-.3.3-.3l.3.3c.8,1,1.3,1.8,1.8,2.1.8.5,1.8,1,2.8,1h.8v2.8h-.3v.1Z"/><path id="PATH_77" d="m540.83,250.44v1c0,1.8-.3,2.8-.8,3.6-1.3,1.8-3.4,2.6-6.7,2.6h-3.6v-3.1h2.6c4.4,0,6.7-.8,7.3-2.1v-.5c0-.5,0-.8-.3-1-1,.3-2.3.3-3.4.3-2.3,0-3.6-1-3.6-3.1,0-1.3.3-2.8,1-4.1.8-1.6,1.8-2.3,3.1-2.3,1,0,2.1.8,2.8,2.1,1,1.6,1.6,4,1.6,6.6Zm-2.9-14.3l-2.1,2.1-2.1-2.1,2.1-2.1,2.1,2.1Zm1,11.9c0-.8-.3-1.6-.8-2.3-.5-.8-1.3-1-2.1-1-.5,0-1,.3-1.6.5-.5.3-.5.8-.5,1.3,0,1,.8,1.6,2.6,1.6.6.2,1.4.2,2.4-.1Z"/></g><g id="G_78"><path id="PATH_79" d="m540.83,392.84c.3.8.3,1.6.3,2.3,0,1-.3,1.8-.5,2.8-.8,1.8-2.1,3.4-4.7,4.4-2.1.8-4.1,1.3-6.5,1.3s-4.1-.5-5.7-1.6c-1.6-1.3-2.3-2.8-2.3-5.2,0-1.3.3-2.3.8-3.9.5-1,.8-1.8,1.3-2.3.3-.3.5-.3.5-.3q.3,0,.3.3v.5c-.8,1.6-1,3.1-1,4.4s.5,2.3,1.3,3.4c1,1.3,2.8,1.8,5.2,1.8,2.6,0,4.9-.5,6.7-1.3,1.6-.8,2.6-1.6,3.1-2.6.3-.3.3-.8.3-1,0-.8-.3-1.6-.5-2.6-.3-.8-1-2.1-2.3-4.1l1-2.1c.3-.3.3-.5.3-.5,0,0,.3,0,.3.3,1,1.9,1.8,3.9,2.1,6Zm-7.5-11.1l-2.1,2.1-2.1-2.1,2.1-2.1,2.1,2.1Z"/><path id="PATH_80" d="m551.43,393.14h-1.8c-1.8,0-3.4-.8-3.9-2.3-.5-1-.8-2.8-.8-4.9v-4.9c0-2.3-.3-5.7-.5-10.1l1.6-1.8c.3-.3.5-.3.5,0,.3,2.3.5,5.7.5,10.1v7.5c0,2.1,1,3.1,3.1,3.1h1.3v3.3h0Z"/><path id="PATH_81" d="m557.33,387.94c0,3.4-1.8,5.2-5.2,5.2h-2.1v-3.1h1.8c2.6,0,3.9-.5,3.9-1.3s-.5-1.8-1.8-3.1l1-2.6c0-.3.3-.3.3-.3l.5.5c1.1,1.6,1.6,3.1,1.6,4.7Zm-1.8,10.9l-2.1,2.1-2.1-2.1,2.1-2.1,2.1,2.1Zm4.4,0l-2.1,2.1-2.1-2.1,2.1-2.1,2.1,2.1Z"/><path id="PATH_82" d="m565.93,390.04c0,1-.3,2.1-.8,2.8-.3.5-.5.8-.5.8,0,0-.3-.3-.3-1,0-3.1-.5-10.4-1.6-22l2.1-2.1.3-.3v.5c.8,3.7.8,10.6.8,21.3Z"/><path id="PATH_83" d="m582.23,393.14h-1c-1,0-1.6-.3-2.1-.5v.8c0,2.3-.8,4.7-2.3,7-1.3,2.1-2.6,2.8-3.4,2.8-2.1,0-3.6,0-5.2-.3-.5,0-.8-.3-.8-.3,0,0,.3-.3.8-.3,2.1-.5,4.1-1.6,6.2-3.1,2.1-1.8,3.4-3.6,3.4-5.4,0-1-.8-2.6-2.6-4.4l1.3-2.3c0-.3.3-.3.3-.3l.3.3c.8,1,1.3,1.8,1.8,2.1.8.5,1.8,1,2.8,1h.8v2.8h-.3v.1Z"/><path id="PATH_84" d="m602.73,387.64c0,1.6-.3,2.8-1,3.9-.8,1-2.1,1.8-3.4,1.8-1.8,0-2.8-.8-3.6-2.1-1,1.6-2.1,2.1-3.6,2.1-1.8,0-3.1-.8-3.9-2.1-1,1.6-2.3,2.1-4.1,2.1h-1.8v-3.1h2.1c1.8,0,3.1-1,3.4-3.1,0-.5.3-.8.5-.8.3,0,.3.3.5.8.3,2.1,1.3,3.1,3.4,3.1,1,0,2.1-.3,2.6-.8.3-.5.5-1,.8-2.1,0-.5.3-.8.5-.8.3,0,.3.3.5.8.3,2.1,1.3,3.1,3.1,3.1,2.1,0,2.8-.5,2.8-1.3s-.5-1.8-1.6-2.8l1.3-2.3c.3-.3.3-.5.5-.5.3,0,.3.3.5.5-.1,1,.5,2.6.5,3.6Z"/></g><g id="G_78-2"><path id="PATH_79-2" d="m684.93,297.54c-6.5,0-11.5-2.4-11.5-8.2,0-1.9.4-3.8,1.4-5.7l.9.4c-.4,1.3-.7,2.5-.7,3.6,0,4.7,4.7,6.7,10.5,6.7,2.7,0,5.4-.4,8-1,1.1-.3,2.1-.5,3.1-1,.2-.1.2-.2.2-.3,0-1.1-1.1-3.4-2.3-5.8.6-1,1.1-1.9,1.8-2.6h.1c1.1,1.9,2.3,4.8,2.3,7.1,0,1.8-.6,2.8-1.2,3.9-2,1.4-8,2.9-12.6,2.9Zm-.9-15.6c-1-.9-1.8-1.7-2.7-2.4.6-.8,1.3-1.6,1.9-2.2,1,.8,1.8,1.5,2.7,2.5-.8.9-1.3,1.5-1.9,2.1Zm4.5-.3c-1-.9-1.8-1.7-2.7-2.4.6-.8,1.3-1.6,1.9-2.2,1,.8,1.8,1.5,2.7,2.5-.8.9-1.2,1.5-1.9,2.1Z"/><path id="PATH_80-2" d="m709.13,296.64h-.3c-1.9,0-3-.4-4-1.3-1.4-1.5-1.5-3.1-1.5-6.6,0-4.5-.3-9.1-.6-14.1.8-.9,1.5-1.6,2.2-2.2l.2.1c.4,5.1.4,11.2.4,17v1.3c0,1.5.8,2.2,1.8,2.5.6.2,1.2.3,1.5.3h.3v3Z"/><path id="PATH_81-2" d="m709.63,293.64c1.8,0,3.7-.7,4-2.1l.7-2.5,1.6-1.2.1.2c-.3,1.2-.5,2.2-.5,2.7,0,.8.2,1.5.8,1.9.8.6,1.7.9,2.9.9h.4v3h-.5c-2.3,0-4-.6-4.8-2.4h-.1c-.8,1.6-2.6,2.4-4.7,2.4h-.4c-1.3,0-1.6-.9-1.6-1.6,0-.6.4-1.4,1.6-1.4h.5v.1Zm4.1-14.1c1,.7,1.9,1.5,2.8,2.5-.5.8-1.1,1.6-1.9,2.3-.9-.9-1.8-1.6-2.8-2.4.6-.9,1.3-1.7,1.9-2.4Z"/><path id="PATH_82-2" d="m720.13,293.64c2,0,3.6-.1,4.6-.4.8-.3,1.3-.6,1.3-1,0-1.1-1.1-3.4-2.3-5.8.6-1,1.1-1.9,1.8-2.6h.1c1.1,1.9,2.3,4.8,2.3,7.1,0,1.8-.7,3.1-1.6,4.4-1.1,1.1-2.7,1.4-6.3,1.4h-.3c-1.3,0-1.6-.9-1.6-1.6,0-.6.4-1.4,1.6-1.4h.4v-.1Zm7.6-14.9c-.3.6-.6,1.1-.9,1.6-2.3.4-4.4,1-6.1,1.8v-.1l.6-1c.2-.3.7-.6,1.1-.8v-.1c-1.1-.3-1.8-1-1.8-2,0-.6.4-1.5,1.1-2.1.8-.8,1.9-1.3,2.8-1.3s1.5.5,1.5,1.1-.4,1.1-.8,1.5h0c-.3-.5-.5-.8-.8-.9-.2,0-.4-.1-.7-.1-.8,0-1.6.5-1.6.8,0,1.1,2,1.5,3.4,1.5.6.1,1.4,0,2.2.1h0Z"/><path id="PATH_83-2" d="m738.43,296.64h-.3c-1.9,0-3-.4-4-1.3-1.4-1.5-1.5-3.1-1.5-6.6,0-4.5-.3-9.1-.6-14.1.8-.9,1.5-1.6,2.2-2.2l.2.1c.4,5.1.4,11.2.4,17v1.3c0,1.5.8,2.2,1.8,2.5.6.2,1.2.3,1.5.3h.3v3Z"/><path id="PATH_84-2" d="m740.43,293.64c2,0,3.8-.1,5.1-.5,1.5-.4,2.8-1.3,2.8-1.9v-.5c-.8.1-1.8.1-2.6.1-2.7,0-4.8-.7-5.6-2.5-.2-.5-.4-1.1-.4-1.7,0-1.7.6-3.4,1.8-4.6.9-1,2-1.6,3-1.6,1.9,0,3.4,1.8,4.5,4.6.6,1.5,1,3.3,1,5.6,0,1.5-.4,2.8-1.1,3.7-1.5,1.7-4.2,2.3-8.4,2.3h-1.9c-1.3,0-1.6-.9-1.6-1.6,0-.6.4-1.4,1.6-1.4h1.8Zm.8-15.4c-1-.9-1.8-1.7-2.7-2.4.6-.8,1.3-1.6,1.9-2.2,1,.8,1.8,1.5,2.7,2.5-.8.8-1.3,1.5-1.9,2.1Zm2.7,5.2c-1.5,0-2.8,1.2-2.8,2.1,0,1.9,3.1,2.5,6.8,2.5-.5-2.2-2.1-4.6-4-4.6Zm1.8-5.5c-1-.9-1.8-1.7-2.7-2.4.6-.8,1.3-1.6,1.9-2.2,1,.8,1.8,1.5,2.7,2.5-.8.8-1.3,1.4-1.9,2.1Z"/></g></svg>