<?xml version="1.0" encoding="UTF-8"?><svg id="Layer_1" xmlns="http://www.w3.org/2000/svg" viewBox="0 0 1118.43 1012.1"><defs><style>.cls-1{fill:none;stroke:#020202;stroke-width:1.16px;}.cls-1,.cls-2,.cls-3,.cls-4,.cls-5,.cls-6{stroke-miterlimit:23.13;}.cls-2{fill:#d3d3d3;}.cls-2,.cls-3,.cls-4,.cls-5,.cls-6{stroke:#010101;stroke-width:.46px;}.cls-3{fill:#e8d0e5;}.cls-4{fill:#fbd0d1;}.cls-5{fill:#dbeccb;}.cls-6{fill:#fdfad4;}</style></defs><path id="_397" class="cls-4" d="m550.8,134.4c7.2,3.7-5.3,19.9,3.7,23.6,36.1,14.6,63.4,37.9,94.1,56,5.3,3.7,19.9,3.7,18-5.3,0-18,9-27.1,23.6-36.1,10.9-5.3-12.7-23.6-3.7-34.5,2.8-2.8,8.8-3.5,13.9-6l-4.2-16.2-.5-5.6.7-2.5,1.2-2.5,1.2-2.3-.7-2.3-1.2-3,.5-5.6-.7-3.2-4.4-5.6-4.2-3.7-5.1-1.4-12.3,5.6-4.4-.7-28.9-19.4-7.2-7.2-2.5-1.2-6.2-1.2-3-.7-3-2.3-8.6-3.7-16.5-3.2-13.4-7.2-1.2,1.9-.5,3.7-3,3.2-2.3.7-2.3.5-4.9-.7h-2.3l-1.4,1.2-1.4,1.4-1.9,1.2-4.9.5-5.3-.7-9.3-3.2-10.9-9.3-3.7-1.9-4.2.5-3.2,2.3-2.5,3.7-2.3,4.4-3,4.2-3.7,1.9-3,.2v.9c-8.7,41.1,20.3,61,51,80.8Z"/><path id="_400" class="cls-5" d="m236.1,304.6c-7.2-10.9,9-19.9,14.6-30.8.2-1.2.5-2.5.2-3.7-2.1-.5-4.4-1.2-6.5-1.6-7.9-2.1-15.3-3.9-21.7-5.3-16-3.2-28.9-10.2-33.1-12.5-7.4,3.5-43.9,20.8-63.8,29.1-17.8,7.4-27.1,22.4-29.4,27.1,7.4,0,11.3-1.4,17.8-3.5l2.3-.7c4.9-1.6,6.5-3.2,7.6-4.4,1.9-1.9,3.5-3.2,8.1-3.2,2.3,0,4.2.7,5.8,2.3,3.2,3.5,3,9.5,2.8,14.3v2.8c0,1.6,3.9,4.9,6.5,6.7,3.7,3,7.2,5.6,8.3,9,1.9,5.8,2.1,26.4,2.1,28.7v1.4l-2.5,2.1c9.7-2.8,19.4-8.1,27.1-12.5,23.6-12.7,43.5,7.2,61.5,19.9,1.6,1.6,8.3,6.7,10.6-.7-.2-1.4-.2-2.8-.2-4.4,0,1.6.2,3,.2,4.4,0-.5.2-.7.2-1.2,5-23.5-4-43.4-18.5-63.3Z"/><path id="_496" class="cls-3" d="m257.3,435.3c11.1-3.7,33.5-11.1,22.2-29.8-10.1-10.2-23.6-20.6-25.6-36.6-2.1,7.4-8.8,2.5-10.6.7-18-12.7-37.9-32.6-61.5-19.9-7.6,4.4-17.3,9.7-27.1,12.5l-29.8,23.1,27.1,36.3-1.4,3.7c29,23,67.9,16.5,106.7,10Z"/><path id="_406" class="cls-6" d="m484,505.4c-5.6-1.9-16.2,3.7-14.6-3.7,0-3.7,3.7-10.9,0-14.6-3.7-5.3-12.7-9-14.6-16.2-3.7-12.7,1.9-23.6,10.9-36.1,5.3-5.3,1.9-19.9-7.2-25.4-5.3,0-12.7,3.7-14.6,1.9-3.7-3.7-9-5.3-10.9-5.3-16.2-5.3-34.5-1.9-46.9-9-18-10.9-32.6-10.9-50.6-14.6,3.7-5.3,7.2-16.2,5.3-16.2-25.9-1.6-64.8,18.5-87,2.1,0,.2-.2.5-.2.9,2.1,16,15.5,26.4,25.7,36.5,11.1,18.5-11.1,25.9-22.2,29.8-38.9,6.5-77.5,13-106.6-9.9l-18,45.8,1.4,34.7c7.4,6.2,53.9,46,60.1,53.7,7.6,9.3,16,27.8,6.9,41.2-1.2,1.9-2.1,4.4-2.5,6.9,8.1,3.9,16,8.3,25,13.4,10.9,7.2,21.7-10.9,34.5-14.6,7.2,0,14.6-1.9,21.7-5.3,3.7-1.9,9-7.2,14.6-7.2,28.9-5.3,57.8,3.7,83.3-16.2,3.7-1.9,9-1.9,10.9,0,9,9,5.3,37.9,19.9,25.4,14.6-10.9,30.8-9,45.3-10.9-1.9-3.7,7.2-3.7,3.7-7.2-7.2-3.7-23.6-3.7-16.2-14.6,3.7-7.2,16.2-3.7,23.6-7.2,14.6-7.2-5.3-19.9-9-28.9-6.2-18.3,19.3-18.3,28.3-29.2Z"/><path id="PATH_7" class="cls-2" d="m444,580.8c-1.6-2.5-3.2-5.1-4.9-7.6-1.4,3.9,1.2,6.2,4.9,7.6Z"/><path id="_424" class="cls-5" d="m507.6,277.4c7.2,16.2,28.9,50.6,48.8,25.2,5.3-7.2-9-16.2-1.9-18,14.6-3.7,28.9-5.3,34.5-16.2,9-18-25.2-19.9-36.1-34.5v-7.2c10.9-12.7,30.8,1.9,37.9-14.6,2.8-10.6,2.3-22.2,4.9-32.6-12.7-8.1-26.1-15.5-41.2-21.5-9-3.7,3.7-19.9-3.7-23.6-30.8-19.9-59.7-39.8-50.6-81.4v-.9l-16.9,1.6-3-.7-5.3-3.9v62.7c0,.5-1.9,33.5-1.9,40.9,0,8.3-9.7,15.7-25.7,24.7-3.5,1.9-5.1,4.6-5.1,8.1-.2,6,4.2,13,7.2,15,1.9,1.2,4.2,2.1,6.9,3.2,5.6,2.3,11.1,4.6,12.7,9.3,2.1,6.2-1.4,17.1-1.9,18.5,6,3.5,13,6,20.1,7.9,18.4,3.7,14.7,25.5,20.3,38Z"/><path id="_260" class="cls-4" d="m388,331.2c-10.2-1.9-21-7.2-25.9-15.5-2.5-4.2-13.2-7.2-22.4-9.7-8.8-2.3-16.9-4.6-21.5-8.3-2.3-1.9-4.6-3.9-7.2-6.5-7.6-7.2-16.2-15.3-26.4-15.3-8.6,0-21-3-33.8-6.2,0,1.2,0,2.5-.2,3.7-5.3,10.9-21.7,19.9-14.6,30.8,14.6,19.9,23.6,39.8,18,63.4v.2c15.5,11.3,39.1,5.1,60.6.9,5.1-11.3,11.3-23.4,19-26.4,16.2-5.3,37.9,12.7,52.5-1.9,2.6-2,2.8-5.5,1.9-9.2Z"/><path id="_181" class="cls-3" d="m446,400.4c-5.3-7.2,3.7-19.9-1.9-23.6-7.2-9-14.6-19.9-5.3-25.4,9.3-4.6,15.7-14.3,20.8-23.8-2.8-1.6-5.3-3.5-8.1-5.1-3.7-3.7-1.9-18,7.2-25.4,9-9-5.3-21.7-14.6-32.6-3.2-3.2-.7-10.4-2.5-17.1-1.9.7-3.5,1.6-5.6,2.3-16.2,6.5-13.2,24.1-13.2,24.7.5,8.3,2.8,31,7.2,38.2,1.4,2.5,1.6,5.1.2,7.6-4.6,8.3-26.1,11.6-34.2,11.6-2.5,0-5.3-.2-8.1-.7.9,3.7.7,7.2-1.9,9.7-14.6,14.6-36.1-3.7-52.5,1.9-7.6,3-13.9,15-19,26.4,9.5-1.9,18.5-3.5,26.1-2.8,1.9,0-1.9,10.9-5.3,16.2,18,3.7,32.6,3.7,50.6,14.6,12.7,7.2,30.8,3.7,46.9,9,1.9,0,7.2,1.9,10.9,5.3,1.6,1.6,7.6-1.2,12.7-1.6v-3.7c-3.2-2-6.9-3.9-10.4-5.7Z"/><path id="_258" class="cls-5" d="m541.8,368c-7.2-16.2-32.6-14.6-48.8-21.7-11.8-4.4-22.2-11.1-33.5-18.3-5.1,9.5-11.8,19.2-20.8,23.8-9,5.3-1.9,16.2,5.3,25.2,5.6,3.7-3.7,16.2,1.9,23.6,3.7,1.9,7.2,3.7,10.9,5.3v3.7c.7,0,1.2-.2,1.9-.2,9,5.3,12.7,19.9,7.2,25.2h0c20.1.2,39.8.9,52.5,16.2,1.9,1.9,9,0,9,0,9.1-26.8,23.4-55.7,14.4-82.8Z"/><path id="_448" class="cls-4" d="m509.2,505.4c7.2,1.9,16.2,9,9,14.6-5.3,7.2-12.7,16.2-7.2,23.6,14.6,14.6,50.6-3.7,43.5,27.1,18-3.7,25.4-23.6,34.5-36.1,5.3-10.9,19.9,7.2,25.4,0,7.2-10.9,12.7-28.9,27.1-37.9,1.9-1.9-5.3-7.2-3.7-10.9,26.94-16.7,44.06-39.61,39.8-57.8-2.96-12.63-15.85-21.44-36.2-35.35-12.32-8.42-23.42-14.09-31.33-17.71-3.15-5.19-6.3-10.37-9.45-15.56-.14-6.88-1.53-16.5-8.28-23.59-4.39-4.61-7.92-6.63-14.25-8.98-8.6-3.2-13.9-14.6-21.3-24.1,0,.2-.2.5-.5.5-19.9,25.4-41.6-9-48.8-25.2-5.3-12.7-1.9-34.5-19.9-37.9-7.2-1.9-14.1-4.6-20.1-7.9l-.2.7-.7.5c-.5.5-9.5,7.9-25,14.8,1.9,6.7-.7,13.9,2.5,17.1,9,10.9,23.6,23.6,14.6,32.6-9,7.2-10.9,21.7-7.2,25.2,14.6,9,27.1,18,41.6,23.6,16.2,7.2,41.6,5.3,48.8,21.7,9,27.1-5.3,56-14.6,83.3,0,0-7.2,1.9-9,0-12.7-15.3-32.4-16-52.5-16.2-9,12.7-14.3,23.4-10.9,36.1,1.9,7.2,10.9,10.9,14.6,16.2,3.7,3.7,0,10.9,0,14.6-1.6,6.7,7.2,2.8,13,3.2,8.6-2.8,17.4-3.7,26.7-.2Z"/><path id="_429" class="cls-3" d="m494.8,633.7c-3.7,12.7,1.9,27.1,1.9,39.8,1.9,14.6-7.2,34.5,12.7,43.5,7.2,1.9,10.9-5.3,10.9-7.2,3.7-7.2,7.2-14.6,12.7-14.6,18-3.7,41.6-3.7,46.9-21.7,3.7-9-3.7-18,1.9-27.1,5.3-5.3,7.2-10.9,3.7-16.2-1.9-3.7-5.3-9-10.9-10.9,9-12.7,9-28.9,1.9-41.6-1.9-5.3-14.6,5.3-21.7-3.7-1.2-2.3-.7-4.9.7-7.2,3.7-25.7-30.3-9.7-44.2-23.6-5.3-7.2,1.9-16.2,7.2-23.6,7.2-5.3-1.9-12.7-9-14.6-9.5-3.5-18-2.5-26.8-.2.5,0,1.2.2,1.6.2-9,10.9-34.5,10.9-28.9,28.9,3.7,9,23.6,21.7,9,28.9-7.2,3.7-19.9,0-23.6,7.2-.7.9-1.2,1.9-1.4,2.5-2.1,4.9,1.6,6,4.9,7.6,3.9,1.6,9.5,2.5,12.7,4.2,3.7,3.7-5.3,3.7-3.7,7.2h0c6,6.9,12.3,13.2,18.3,19.9,1.6,2.5.9,5.1-.5,7.4,4.9,1.9,9.9,3.5,14.8,5.1,1.8.8,10.8,6.4,8.9,9.8Z"/><path id="_427" class="cls-4" d="m460.4,740.6c3.7-3.7,0-10.9,3.7-14.6,15.5-8.3,36.3.5,43.2-10.2-17.1-9.5-8.8-28.4-10.6-42.3,0-12.7-5.3-27.1-1.9-39.8,1.9-3.7-7.2-9-9-9-5.1-1.6-9.9-3.2-14.8-5.1-1.6,2.5-3.9,5.1-5.1,6.9-9,12.7-3.7,30.8-23.6,32.6-5.3,0-16.2,7.2-10.9,16.2,3.7,3.7,9,5.3,9,9,0,16.2-12.7,27.1-23.6,39.8-3.2,6.7,4.2,15-1.9,21.7,14,4.5,30.5,1.3,45.5-5.2Z"/><path id="_431" class="cls-6" d="m503.9,859.9c5.3-27.1,27.1-41.6,34.5-63.4,16.1-41.6-38-32.6-63.4-50.6-3.7-3.7-7.2-5.3-10.9-9-.7-.2-1.2-.5-1.9-.7-.2,1.6-.7,3-1.6,4.2-15,6.5-31.5,9.7-45.3,5.6-.5.5-1.2,1.2-1.9,1.6-10.9,10.9-23.6,23.6-37.9,16.2-5.8-2.3-8.8-9.3-13-15.3l-1.4,1.4c-2.3,1.6-6.9,3.9-12.3,6.2-7.6,3.5-18,8.3-21,12l-1.2,1.6c-6.9,8.6-13.9,18.3-8.3,24.7,7.2,8.3,23.4,32.6,31,44.4l3,4.6c4.2,6.2,6.9,13.4,7.9,16.7,8.6,1.2,40.7,6.5,47.4,15.7,6,8.6,7.9,9.7,26.4,11.1,16.9,1.2,22.9-10.4,22.9-10.6l.5-.7.7-.5c1.2-.7,11.8-6.2,19.4-3.5,2.1.9,3.9,2.3,5.1,4.4,11.1-2.2,20.1-6.8,21.3-16.1Z"/><path id="_388" class="cls-5" d="m666.7,738.7c0-7.2-14.6-1.9-14.6-5.3-1.9-12.7,18-5.3,21.7-16.2-10.9-1.9-23.6-5.3-28.9-16.2-7.2-12.7,9-18,7.2-27.1-5.3-10.9-12.7-23.6-21.7-34.5s-21.7-3.7-34.5-1.9c-2.1,0-5.6-1.9-9-2.8.5,3.9-1.4,7.9-5.3,11.8-5.3,9,1.9,18-1.9,27.1-5.3,18-28.9,18-46.9,21.7-5.3,0-9,7.2-12.7,14.6,0,1.9-3.7,9-10.9,7.2-.7-.2-1.4-.7-2.1-1.2-6.9,10.6-27.8,1.6-43.2,10.2-2.5,2.5-1.6,6.7-1.9,10.2.7.2,1.4.2,1.9.7,3.7,3.7,7.2,5.3,10.9,9,21.5,15.3,63.8,11.1,66.1,34.9,6.5,6.9,13.4,13,24.3,10.2,5.3,0,9-7.2,14.6-7.2,14.6-1.9,28.9-3.7,43.5-7.2,8.8-3.5,20.8-3.7,23.4,1.2,13.3-7.5,21.1-23.2,20-39.2Z"/><path id="_438" class="cls-3" d="m690.3,221.4c7.2-1.9,16.2-3.7,23.6,0,10.9,5.3,18,21.7,28.9,25.4,21.7,5.3,32.6,18,45.3,34.5,3.7,5.3,14.6,7.2,18,12.7,16.2,19.9,28.9,59.7,56,48.8,16.2-5.3,34.5,0,45.3-12.7,5.1-3.2.9-14.3,4.4-21.5l-6.7-3.7-4.4-7.4-6.2-15.5-4.4-7.2-23.1-26.4-9.9-14.8-8.1-16.4-6.7-8.1-7.9-3.2-18.3-3-8.3-4.9-14.1-11.1-31.5-9.7-2.3-.5-1.9,1.2-2.5,3.7-1.4,1.4-2.3.5-3-1.9-1.4-4.4-1.2-4.9-1.4-4.2-3.7-3.7-3-.5-6.9,2.5h-2.1l-1.8-1.2-1.4-1.2-1.4-1.4-3.7-.7-.5-1.9.5-2.3.5-1.9.5-.7.7-.7.5-1.2-1.4-1.9-4.2-4.2-13.4-10.9-2.5-3.7-.2-1.2c-5.1,2.5-11.1,3.2-13.9,6-9,10.9,14.6,28.9,3.7,34.5-13.6,8.6-22.4,17.1-23.4,33.5,5.2,9.4,12.8,17.5,22.6,16.1Z"/><path id="_409" class="cls-6" d="m873,348.1c10.9,10.9,34.5,18,32.6,36.1,0,5.3-12.7,5.3-14.6,10.9-5.3,9,5.3,16.2,3.7,27.1-1.9,3.7,3.7,3.7,7.2,5.3,7.2,1.9,18-5.3,21.7,0,19.9,25.4,39.8,36.1,70.5,25.4,3.7,0,10.9,9,16.2,5.3,7.2-7.2,18-19.9,23.6-12.7,10.9,14.6,21.7,19.9,34.5,5.3,3.7-1.9,9,0,10.9,1.9,3.2,6.2,8.1,13.2,13.9,16.9l.2-1.6-.7-5.3.5-3,1.4-1.4,2.3-.7,1.9-1.2.7-3v-2.3l.5-2.5.7-2.3,1.2-1.9,2.3-2.5.5-1.9-.5-1.2-.5-7.9-3.2-16-3.2-4.9-.7-2.5v-6l-.5-2.5-.7-3-1.2-1.4-1.2-1.4-1.8-1.2-1.9-1.2.5-1.9.5-.5.7-1.2-3.2-7.4,1.4-12.7,4.4-20.4-1.2-4.2-.5-3,1.2-2.5,1.2-2.3,1.2-2.3,1.2-3v-6.2l-1.2-2.5-1.9-3.7-1.4-9-9-1.2-10.9-1.9-159.3,3-.7-.5c-3.5,7.4.7,18.3-4.4,21.5-9.5,11.1-24.3,8.3-38.6,11.1.2,4.4,1.6,7,3.7,8.1Z"/><path id="_540" class="cls-5" d="m836.7,583.1c-19.9,18-39.8,3.7-57.8,0-23.6-5.3-46.9,0-70.5,5.3-9,1.9-23.6,14.6-14.6,25.4,3.7,7.2,14.6,16.2,9,23.6-3.7,5.3-10.9,12.7-7.2,14.6,14.6,5.3,21.7,16.2,32.6,25.4,10.9,9,16.2-9,21.7-14.6,9,21.7,23.6,3.7,39.8,3.7,7.2,1.9,7.2,10.9,10.9,16.2,5.1,9.9,17.8,13.9,25.9,22,.5-.2.9-.2,1.4-.5,7.6-1.6,14.8-.5,21.5,2.1-1.9-13.9-5.1-26.1.2-40,7.4-13.4,7.6-37.7,18.5-52-6.2-1.9-12.3-4.4-16.7-9.5-5.1-6.9-15.3-17.1-6.7-22.7-3.4-.6-6.2-.6-8,1Z"/><path id="_393" class="cls-4" d="m681.2,666.3c-5.3,9,19.9,16.2,9,32.6-5.8,7.6-13,13.4-21,17.1,1.6.2,3.2.7,4.9.9-3.7,10.9-23.6,3.7-21.7,16.2,0,3.7,14.6-1.9,14.6,5.3,1.2,16-6.7,31.7-20.1,39.3,0,.2.2.5.2.5,16.2,30.8,37.9,59.7,76.1,54.3.9,0,1.6-.2,2.3,0,8.8-5.1,18.3-8.3,24.7-12.5,27.1-18,16.2-50.6-12.7-70.5-1.9-3.7,3.7-7.2,5.3-9,25.4-9,39.8,28.9,57.8,19.9,17.8-9-3-47.6,25.9-55.7-8.1-8.1-20.8-12-25.9-22-3.7-5.3-3.7-14.6-10.9-16.2-16.2,0-30.8,18-39.8-3.7-5.3,5.3-10.9,23.6-21.7,14.6-10.9-9-18-19.9-32.6-25.4h0c-7,3-12.5,9.3-14.4,14.3Z"/><path id="_390" class="cls-6" d="m728.2,536.1c-12.7-10.9-34.5,1.9-45.3-7.2-15-12.5-28.2-24.1-44.4-30.5-12.5,9.5-17.6,25.9-24.3,36.1-5.3,7.2-19.9-10.9-25.4,0-9,12.7-16.2,32.6-34.5,36.1.2-1.4.5-2.5.7-3.5-1.4,2.3-1.9,4.9-.7,7.2,7.2,9,19.9-1.9,21.7,3.7,7.2,12.7,7.2,28.9-1.9,41.6,5.3,1.9,9,7.2,10.9,10.9.9,1.6,1.6,3,1.9,4.6,3.5.7,6.9,2.8,9,2.8,12.7-1.9,25.2-9,34.5,1.9,9,10.9,16.2,23.6,21.7,34.5,1.9,9-14.6,14.6-7.2,27.1,4.6,9.3,14.6,13.2,24.3,15.3,8.1-3.9,15.3-9.5,21-17.1,10.9-16.2-14.6-23.6-9-32.6,2.1-5.1,7.4-11.3,14.3-14.6-3.5-1.9,3.7-9,7.2-14.3,5.3-7.2-5.3-16.2-9-23.6-9-10.9,5.3-23.6,14.6-25.2,9.3-2.1,18.7-4.4,28-5.8-3.7-5.1-8.6-9.7-11.8-16-5.3-11.5,14.6-22.3,3.7-31.4Z"/><path id="_435" class="cls-3" d="m635.9,283.5c7.37-8.23,14.73-16.47,22.1-24.7,4.2-.81,8.4-1.63,12.6-2.44,1.83.25,8.51,1.11,10.6-2.06,2.42-3.66-1.69-12.05-11.32-20.36-4.63-1.08-9.25-2.16-13.88-3.24,6-3.7,2.3-8.8.5-14.1-3-.2-5.8-.9-7.6-2.3-18-10.6-34.9-23.1-53-34.5-2.5,10.4-2.3,22-4.9,32.6-7.2,16.2-27.1,1.9-37.9,14.6v7.2c10.9,14.6,45.3,16.2,36.1,34.5-5.3,10.9-19.9,12.7-34.5,16.2-6.9,1.9,6.5,10.4,2.1,17.6,7.4,9.5,12.7,20.8,21.3,24.1,6.7,2.6,9.9,4,14.2,9,7.9,9.1,6.9,21.2,9,21.2.8,0,2-2,3.2-9.9,3.6-9.5,7.9-19.8,13.1-30.4,6.1-12.3,12.3-23.2,18.3-33Z"/><path id="_347" class="cls-6" d="m726.3,413.1c1.9-1.9,9,1.9,12.7,0,18-19.9-19.9-25.4-21.7-39.8,0-3.7,5.3-9,3.7-10.9-19.2-14.8-32.1-30.5-52-28.2.5.5.9.7,1.4,1.2,1.9,3.7,1.9,9,0,12.7-12.5,15.7-42.6,13.6-46.9,34,21.5,11.8,44.6,26.8,54.3,45.8,1.2,2.5,1.6,4.9,1.4,7.2,16.6,1.1,33.7-6.3,47.1-22Z"/><path id="_439" class="cls-5" d="m945.3,472.8c-6-9.3-7.6-19.4-6.5-28.9-5.1-4.4-10.2-9.9-15.3-16.2-3.7-5.3-14.6,1.9-21.7,0-3.7-1.9-9-1.9-7.2-5.3,1.9-10.9-9-18-3.7-27.1,1.9-5.3,14.6-5.3,14.6-10.9,1.9-18-21.7-25.4-32.6-36.1-2.1-.9-3.5-3.7-4.4-7.2-2.1.5-4.4.9-6.5,1.6-27.1,10.9-39.8-28.9-56-48.8-3.7-5.3-14.6-7.2-18-12.7-12.7-16.2-23.6-28.9-45.3-34.5-10.9-3.7-18-19.9-28.9-25.4-7.2-3.7-16.2-1.9-23.6,0-9.7,1.4-17.1-6.7-23.4-15.5v2.8c1.2,6-4.6,8.1-10.4,7.6,2.1,5.3,5.6,10.4-.5,14.1,5.3,3.7,14.6,1.9,16.2,5.3,10.9,12.7,7.2,23.6,18,37.9,9,12.7-10.9,36.1-27.1,50.6-3.2,4.9,2.1,6.7,6,9.7,19.7-2.3,32.8,13.6,52,28.2,1.9,1.9-3.7,7.2-3.7,10.9,1.9,14.6,39.8,19.9,21.7,39.8-3.7,1.9-10.9-1.9-12.7,0-13.4,15.7-30.5,23.1-47.4,21.7-.9,16.9-30.1,31.7-41.2,50.6-1.9,3.7,5.3,9,3.7,10.9-.9.7-1.9,1.2-2.8,1.9,16.2,6.7,29.4,18.3,44.4,30.5,9.9,8.3,28.7-1.4,41.6,4.9v-1.2c1.9-36.1,16.2-65.2,45.3-86.7,9-7.2,28.9-1.9,30.8,5.3,3.7,19.9,9,39.8,27.1,46.9,16.2,7.2,30.8-3.7,45.3-12.7,5.3-1.9,10.9-1.9,16.2,0,5.3,3.7,9,9,14.6,12.7,14.6,6.7,32.1,3.5,46.3,9.3,3.5-11.8,1.2-24.8-4.9-34Z"/><path id="_437" class="cls-3" d="m889.1,485.5c-5.3-1.9-10.9-1.9-16.2,0-14.6,9-28.9,19.9-45.3,12.7-18-7.2-23.6-27.1-27.1-46.9-1.9-7.2-21.7-12.7-30.8-5.3-28.9,21.7-43.5,50.6-45.3,86.7v1.2c1.4.7,2.5,1.4,3.7,2.5,10.9,9-9,19.9-3.7,30.8,3.2,6.2,8.1,10.9,11.8,16,14.1-2.3,28.4-3,42.6.5,18,3.7,37.9,18,57.8,0,1.6-1.6,4.6-1.9,7.6-1.2.5-.2.9-.5,1.4-.7,14.6-7.2,21.7-16.2,23.6-30.8,0-3.7,12.7,1.9,14.6-1.9,3.7-5.3,0-18,7.2-18,21.7,0,43.5,5.3,56.2-16.2,1.2-2.3,2.1-4.6,2.8-6.9-14.1-5.8-31.5-2.5-46.3-9.3-5.5-4.2-9-9.5-14.6-13.2Z"/><path id="_393-2" class="cls-6" d="m1031.6,903.6l-2.5-4.9-16.4-20.4-3.2-6.7-1.9-3-3-2.3-5.3-2.5-1.9-1.9-1.9-6-1.4-1.9-1.9-1.2h-2.3l3-5.6,5.6-2.5,11.8-1.4,5.6-1.4,4.2-3,1.6-1.9c-18,.7-35.4.2-51.1-11.6-18-12.7-28.9-27.1-45.3-41.6-10.9-9-16.2-28.9-30.8-39.8-1.9-1.9-1.9-9,0-10.9.5-.5.7-.9,1.2-1.2-7.2-3.7-14.3-7.9-21-11.3-14.6-9-28.9-19.9-46.9-16.2-30.8,7.2-9,46.9-27.1,56.2-18,9-32.6-28.9-57.8-19.9-1.9,1.9-7.2,5.3-5.3,9,28.9,19.9,39.8,52.5,12.7,70.5-6.5,4.4-16.2,7.4-24.7,12.5,12.7.2,1.4,18.7,3.2,29.1,0,1.9,5.3,3.7,7.2,7.2,1.4,17.1,4.4,40.7-6.9,53.9,1.9,1.2,4.2,2.8,7.2,5.6,9.3,8.1,16.4,19.7,18.7,23.6,10.2,0,63.1.2,73.1,1.4,10.9,1.4,26.1,9.7,28,15.5.5,1.4.7,3.2.9,5.8.5,6,1.4,16,7.2,18.3,9.7,4.2,16-2.1,19.4-8.3,0-.2,13.4-23.1,21.3-23.1h37.9c.7,0,1.2.2,1.6.5v-.7l1.4-11.6,6-11.8,7.2-9,7.4-7.9,10.4-5.1,3.2-3.7-1.4-5.6,53-3.2Z"/><path id="_402" class="cls-5" d="m1052,706.1c-12.7-5.3-12.7-19.9-23.6-27.1-9-7.2-19.9,7.2-23.6,18h-7.2c-4.9-6-9.5-9.5-14.8-9.7-1.7.7-3.53,1.4-5.49,2.08,0,0-3.36,1.15-6.31,1.92-7.2,1.88-17.22,2.01-18.84,2.02-5.41-2.66-10.81-5.32-16.22-7.98-4.83-6.11-9.71-12.61-14.59-19.51-7.74-10.95-14.55-21.62-20.54-31.81-20.31-22.41-31.29-20.49-34.51-19.53-16.04,4.81-22.79,41.17-16.9,91.8,15,8.9,30.1,17.9,45.1,26.8-.4,2.7-.8,5.4-1.2,8.1,4.2,5.3,10.5,13.4,18,23.4,7.9,10.6,10.4,16,14,19.2,16.2,14.6,27.1,28.9,45.3,41.6,15.5,11.8,33.1,12.3,51.1,11.6l8.3-9.3,1.2-1.9,1.2-1.9,3-1.4,3-.5h3l2.5-.5,2.3-3,.7-6.2-.7-6.7.5-6,4.2-4.4,6.7-5.3,4.4-7.4,1.2-4.4,6.7-2.3,1.8-8.1.7-9.3v-2.3l-1.2-4.9v-2.3l.5-3,3.2-4.9.7-2.5.5-4.9,3.2-9.7,1.2-10.9.2-.7c-9.5-1.6-19.3-2.9-28.7-6.2Z"/><path id="_383" class="cls-4" d="m1117.6,582.9l-2.3-10.4-1.8-2.5-5.1-7.9-3-6-.5-6.7.7-1.4,3-3,.7-1.9-.5-4.4.5-1.4,1.4-6v-2.5l-1.4-1.9,1.4-5.6-.5-4.4-.7-3.7-1.2-9.3-1.2-4.4-1.9-4.2-2.5-3.7-3.2-4.2-3.7-3.2-4.4-2.3-5.3-.7-3-1.4,2.3-3,4.4-3.2,2.5-3v-.7c-5.8-3.7-10.6-10.4-13.9-16.9-1.8-1.9-7.2-3.7-10.9-1.9-12.7,14.6-23.6,9-34.5-5.3-5.3-7.2-16.2,5.3-23.6,12.7-5.3,3.7-12.7-5.3-16.2-5.3-22.9,8.1-40,4.2-55.3-9-1.2,9.5.5,19.9,6.5,28.9,7.2,10.9,9,27.1,1.9,41.6-12.7,21.7-34.5,16.2-56.2,16.2-7.2,0-3.7,12.7-7.2,18-1.9,3.7-14.6-1.9-14.6,1.9-1.8,14.6-9,23.6-23.6,30.8-10.9,5.3,0,16.2,5.3,23.6,10.9,12.7,30.8,9,41.6,19.9,16.2,12.7,23.6,32.6,36.1,50.6,9,14.6,27.1,23.6,45.3,14.6,9-5.3,16.2-1.9,23.6,7.2h7.2c3.7-10.9,14.6-25.4,23.6-18,10.9,7.2,10.9,21.7,23.6,27.1,9.5,3.2,19.2,4.6,28.4,6.5l1.6-3,5.3-7.2-2.3-2.3-.5-2.3.5-2.3.5-3-.5-1.2-7.9-9.9-.5-2.8,1.4-1.2,1.9-1.2.5-2.5-1.2-2.3-1.2-1.2-.5-2.5.5-5.6,1.2-5.3,3-2.5h4.9l5.3-1.2,4.2-2.3,1.9-4.4-1.2-13.4,1.2-5.3,1.2-3,4.4-6,1.4-2.5,1.9-7.9,2.3-5.1,5.3-6,3-4.9,1.2-5.1-.6-4.8Z"/><path id="_432" class="cls-3" d="m735.4,868.9c-1.8-3.7-7.2-5.3-7.2-7.2-1.8-10.9,10.9-30.8-5.3-28.9-37.9,5.3-59.7-23.6-76.1-54.3-1.9-5.3-14.6-5.3-23.6-1.9-14.6,3.7-28.9,5.3-43.5,7.2-5.3,0-9,7.2-14.6,7.2-10.9,2.8-17.6-3.2-24.3-10.2.5,4.2-.5,9.5-2.8,15.7-7.2,21.7-28.9,36.1-34.5,63.4-1.2,9-10.2,13.9-21,16.2.5.7.7,1.2.9,1.9,3.9,10.2,19.9,33.1,25,38.2,4.2,4.2,24.3,21,32.6,28,2.3-7.4,8.8-16.7,23.4-16.7,12,0,29.4-.9,43.2-1.6,9.5-.5,17.8-.9,21.7-.9,4.6,0,21.5-.7,39.5-1.4,19-.7,38.6-1.4,44.4-1.4,2.8,0,4.6-.2,6.2-.5,3.5-.5,5.6-.5,8.6,1.2,12-13.3,8.7-36.9,7.4-54Z"/><path id="_426" class="cls-5" d="m375.5,764.2c14.6,7.2,27.1-5.3,37.9-16.2,9-7.2,0-16.2,3.7-23.6,10.9-12.7,23.6-23.6,23.6-39.8,0-3.7-5.3-5.3-9-9-5.3-9,5.3-16.2,10.9-16.2,19.9-1.9,14.6-19.9,23.6-32.6,1.9-3.7,9-9,5.3-14.6-5.8-6.7-12.3-13-18.3-19.9-14.6,1.9-30.8,0-45.1,10.9-14.6,12.7-10.9-16.2-19.9-25.4-1.9-1.9-7.2-1.9-10.9,0-25.2,19.9-54.3,10.9-83.3,16.2-5.3,0-10.9,5.6-14.6,7.2-7.2,3.7-14.6,5.3-21.7,5.3-12.7,3.7-23.6,21.7-34.5,14.6-9-5.1-16.9-9.5-25-13.4-1.2,8.1.9,19,2.5,27.5.9,5.1,1.9,9.5,1.9,12.5,0,12-16,16.2-29.8,16.2s-22.9,5.6-24.7,8.3l-.7,1.2c-3.7,6-15.3,24.5-39.3,25.9-15.7.9-27.1,7.4-32.8,18.7-.9,2.1-9.9,19.7-19.4,29.1-4.4,4.4-14.1,16.7-22.9,27.5-.7.9-1.6,2.1-2.3,3,9,.2,28,.7,43.9,2.8,21.5,2.8,37.7-8.8,45.3-14.3,9.9-7.2,31.7-28.2,32.6-33.5,1.6-8.1,16-23.4,23.4-26.4,1.6-.7,5.1-2.3,9.5-4.6,13.4-6.9,33.8-17.3,45.3-18.5h.9c28.4-2.5,58.3-3.9,65,5.3,4.2,6,11.1,8.3,17.8,10.6,3,.9,5.8,2.1,8.3,3.2,8.8,4.4,22.4,14.1,29.1,20.8,4.6,4.6,12.5,14.6,12,21.7,0,1.6-.7,3-1.4,4.2,4.3,6,7.1,13,13.1,15.3Z"/><line id="LINE_32" class="cls-1" x1="91.3" y1="337.3" x2="199.5" y2="330.8"/><line id="LINE_33" class="cls-1" x1="410.4" y1="369.9" x2="388.2" y2="263.7"/><line id="LINE_34" class="cls-1" x1="624.1" y1="282.7" x2="709.2" y2="41.7"/><line id="LINE_35" class="cls-1" x1="679.9" y1="399.5" x2="832" y2="96"/><line id="LINE_36" class="cls-1" x1="251.6" y1="847.9" x2="460.4" y2="700.6"/><line id="LINE_38" class="cls-1" x1="700.4" y1="977.2" x2="650.5" y2="580.8"/><g id="G_39"><path id="PATH_40" d="m690.7,22c.2.7.2,1.4.2,2.1,0,.9-.2,1.6-.5,2.5-.7,1.6-1.9,3-4.2,3.9-1.9.7-3.7,1.2-5.8,1.2s-3.7-.5-5.1-1.4c-1.4-1.2-2.1-2.5-2.1-4.6,0-1.2.2-2.1.7-3.5.5-.9.7-1.6,1.2-2.1.2-.2.5-.2.5-.2q.2,0,.2.2v.5c-.7,1.4-.9,2.8-.9,3.9,0,1.2.5,2.1,1.2,3,.9,1.2,2.5,1.6,4.6,1.6,2.3,0,4.4-.5,6-1.2,1.4-.7,2.3-1.4,2.8-2.3.2-.2.2-.7.2-.9,0-.7-.2-1.4-.5-2.3-.2-.7-.9-1.9-2.1-3.7l.9-1.9c.2-.2.2-.5.2-.5,0,0,.2,0,.2.2,1.4,1.8,2.1,3.7,2.3,5.5Zm-6.7-10.1l-1.9,1.9-1.9-1.9,1.9-1.9,1.9,1.9Z"/><path id="PATH_41" d="m696.5,19.5c0,.9-.2,1.9-.7,2.5-.2.5-.5.7-.5.7,0,0-.2-.2-.2-.9,0-2.8-.5-9.3-1.4-19.7l1.9-1.9.2-.2v.5c.5,3,.7,9.3.7,19Z"/><path id="PATH_42" d="m708.1,22.5c0,2.3-.7,4.4-2.1,6.5-1.2,1.6-2.3,2.5-3,2.5-1.9,0-3.2,0-4.6-.2-.5,0-.7-.2-.7-.2,0,0,.2-.2.7-.2,1.9-.5,3.7-1.4,5.6-2.8,1.9-1.6,3-3.2,3-4.9,0-.9-.7-2.3-2.3-3.9l1.2-2.1c0-.2.2-.2.2-.2l.2.2c.5.7,1.2,1.6,1.4,2.8.1.7.4,1.6.4,2.5Z"/><path id="PATH_43" d="m717.3,22.3h-1.6c-1.6,0-3-.7-3.5-2.1-.5-.9-.7-2.5-.7-4.4v-4.4c0-2.1-.2-5.1-.5-9l1.4-1.6c.2-.2.5-.2.5,0,.2,2.1.5,5.1.5,9v6.7c0,1.9.9,2.8,2.8,2.8h1.2l-.1,3h0Z"/><path id="PATH_44" d="m728.7,22.3h-1.9c-2.1,0-3.5-.7-4.4-2.1-.7,1.4-2.3,2.1-4.9,2.1h-1.4v-2.8h2.1c2.3,0,3.5-.9,3.7-2.5,0-.7.2-1.2.5-1.2.2,0,.5.5.5,1.2.2,1.6,1.4,2.5,3.5,2.5h2.1v2.8h.2Zm-4.7-12l-1.9,1.9-1.9-1.9,1.9-1.9,1.9,1.9Z"/><path id="PATH_45" d="m746.7,15.6l-.9,1.9c-1.6,0-3,0-3.7.2-.9.5-2.3.9-4.2,1.9-1.9.9-3.2,1.6-4.2,1.9-1.4.5-3,.7-4.4.7h-1.6v-2.8h1.9c2.1,0,3.9-.5,5.6-1.2l5.3-2.3c-.9-.2-2.3-.7-4.2-1.4-1.6-.7-2.5-.9-3-.9-.9,0-1.9.5-2.8,1.2q-.2.2-.5.2t-.2-.2v-.2c.7-2.3,2.1-3.2,3.9-3.2.7,0,1.6.2,2.5.7,1.9.9,3.2,1.4,4.2,1.9,1.6.5,3.5.9,5.6.9.5,0,.7,0,.7.2.2,0,.2.2,0,.5Zm-12.7,11.1l1.6-1.6,1.6,1.6-1.6,1.6-1.6-1.6Zm2.1,3.4l1.6-1.6,1.6,1.6-1.6,1.6-1.6-1.6Zm2-3.4l1.6-1.6,1.6,1.6-1.6,1.6-1.6-1.6Z"/></g><g id="G_46"><path id="PATH_47" d="m571.2,113.2h-.9c-.9,0-1.4-.2-1.9-.5v.7c0,2.1-.7,4.2-2.1,6.2-1.2,1.9-2.3,2.5-3,2.5-1.9,0-3.2,0-4.6-.2-.5,0-.7-.2-.7-.2,0,0,.2-.2.7-.2,1.9-.5,3.7-1.4,5.6-2.8,1.9-1.6,3-3.2,3-4.9,0-.9-.7-2.3-2.3-3.9l1.2-2.1c0-.2.2-.2.2-.2l.2.2c.7.9,1.2,1.6,1.6,1.9.7.5,1.6.9,2.5.9h.7v2.5l-.2.1h0Zm-4.4-12.1l-1.9,1.9-1.9-1.9,1.9-1.9,1.9,1.9Z"/><path id="PATH_48" d="m585,94.4c0,.5-.2,1.2-.7,2.5-2.8.7-6.2,1.9-10.2,3,2.8,2.8,4.4,5.1,4.6,6.7.2,1.2,0,2.3-.5,3.5s-1.4,1.9-2.5,2.3c-.9.5-2.5.5-4.6.5h-.9v-2.8h.7c4.4,0,6.7-.7,6.7-2.3,0-1.2-1.2-3-3.7-5.3l-.2.7c-.2-.2-.7-.7-1.2-1.4-.7-.7-.9-1.2-.9-1.4,0-.7.2-1.4.9-2.1.2-.2,1.6-.7,4.6-1.6,3.1-.9,5.9-1.6,7.9-2.3Zm-.4-3.4l-.5,1.6-11.3,3.7.5-1.6,11.3-3.7Z"/><path id="PATH_49" d="m596.1,113.4c0,2.3-.7,4.4-2.1,6.5-1.2,1.6-2.3,2.5-3,2.5-1.9,0-3.2,0-4.6-.2-.5,0-.7-.2-.7-.2,0,0,.2-.2.7-.2,1.9-.5,3.7-1.4,5.6-2.8,1.9-1.6,3-3.2,3-4.9,0-.9-.7-2.3-2.3-3.9l1.2-2.1c0-.2.2-.2.2-.2l.2.2c.5.7,1.2,1.6,1.4,2.8.2.6.4,1.8.4,2.5Z"/><path id="PATH_50" d="m610.5,108.3c0,3.2-2.1,4.9-6.5,4.9-1.6,0-2.8-.2-3.5-.7-.9-.5-1.4-1.6-1.4-3,0-.7.2-1.4.5-2.1.2-.2.2-.5.5-.5.2,0,.2.2.2.7v.7c0,.9.5,1.6,1.4,1.9.5.2,1.4.2,2.5.2,3.5,0,5.1-.5,5.1-1.6,0-1.6-2.1-3.9-6-6.7l.7-2.3c0-.2.2-.2.2-.2,0,0,.2,0,.5.2,3.7,3.2,5.8,6,5.8,8.5Z"/></g><g id="G_51"><path id="PATH_52" d="m511.5,198.5c.2.7.2,1.4.2,2.1,0,.9-.2,1.6-.5,2.5-.7,1.6-1.9,3-4.2,3.9-1.9.7-3.7,1.2-5.8,1.2s-3.7-.5-5.1-1.4c-1.4-1.2-2.1-2.5-2.1-4.6,0-1.2.2-2.1.7-3.5.5-.9.7-1.6,1.2-2.1.2-.2.5-.2.5-.2q.2,0,.2.2v.5c-.7,1.4-.9,2.8-.9,3.9s.5,2.1,1.2,3c.9,1.2,2.5,1.6,4.6,1.6,2.3,0,4.4-.5,6-1.2,1.4-.7,2.3-1.4,2.8-2.3.2-.2.2-.7.2-.9,0-.7-.2-1.4-.5-2.3-.2-.7-.9-1.9-2.1-3.7l.9-1.9c.2-.2.2-.5.2-.5,0,0,.2,0,.2.2,1.4,1.8,2.1,3.6,2.3,5.5Zm-6.7-9.9l-1.9,1.9-1.9-1.9,1.9-1.9,1.9,1.9Z"/><path id="PATH_53" d="m521,198.7h-1.6c-1.6,0-3-.7-3.5-2.1-.5-.9-.7-2.5-.7-4.4v-4.3c0-2.1-.2-5.1-.5-9l1.4-1.6c.2-.2.5-.2.5,0,.2,2.1.5,5.1.5,9v6.7c0,1.9.9,2.8,2.8,2.8h1.2v2.9h-.1Z"/><path id="PATH_54" d="m539,192l-.9,1.9c-1.6,0-3,0-3.7.2-.9.5-2.3.9-4.2,1.9-1.9.9-3.2,1.6-4.2,1.9-1.4.5-3,.7-4.4.7h-1.6v-2.8h1.9c2.1,0,3.9-.5,5.6-1.2l5.3-2.3c-.9-.2-2.3-.7-4.2-1.4-1.6-.7-2.5-.9-3-.9-.9,0-1.9.5-2.8,1.2q-.2.2-.5.2c-.3,0-.2,0-.2-.2v-.3c.7-2.3,2.1-3.2,3.9-3.2.7,0,1.6.2,2.5.7,1.9.9,3.2,1.4,4.2,1.9,1.6.5,3.5.9,5.6.9.5,0,.7,0,.7.2.2.2,0,.4,0,.6Zm-12.9,11.1l1.6-1.6,1.6,1.6-1.6,1.6-1.6-1.6Zm2,3.7l1.6-1.6,1.6,1.6-1.6,1.6-1.6-1.6Zm2.1-3.7l1.6-1.6,1.6,1.6-1.6,1.6-1.6-1.6Z"/><path id="PATH_55" d="m553.6,198.7h-2.5c-.2,3.2-1.4,5.8-3.7,8.1-.7.7-1.2,1.2-1.4,1.2-1.2,0-2.8-.2-4.4-.5-.5,0-.9-.2-.9-.2,0,0,.2-.2.9-.5,1.9-.5,3.7-1.6,5.3-2.8.7-.7,1.4-1.2,1.9-2.1.7-.9,1.2-1.9,1.2-2.5v-.7h-3c-2.3,0-3.2-.9-3.2-2.8,0-1.2.2-2.3.9-3.7s1.6-2.3,2.5-2.3c1.2,0,2.1.7,2.8,2.3.5,1.2.9,2.3.9,3.7h2.5v2.8h.2Zm-4.2-2.5c0-.7-.2-1.4-.7-2.1-.5-.9-1.2-1.2-1.9-1.2-.5,0-.9.2-1.2.5-.5.5-.5.7-.5,1.4,0,1.2.9,1.6,2.8,1.6.1-.2.8-.2,1.5-.2Z"/><path id="PATH_56" d="m562.6,192.3c0,2.1-.2,3.5-.7,4.2-1.2,1.6-3,2.3-6,2.3h-3.2v-2.8h2.3c3.9,0,6-.7,6.5-1.9.2-.5,0-.9-.2-1.4-.9.2-1.9.2-3,.2-2.1,0-3.2-.9-3.2-2.8,0-1.2.2-2.5.9-3.7.7-1.4,1.6-2.1,2.8-2.1.9,0,1.9.7,2.5,1.9.8,1.9,1.3,3.7,1.3,6.1Zm-4.6-12.5l-1.9,1.9-1.9-1.9,1.9-1.9,1.9,1.9Zm2.8,10.4c0-.7-.2-1.4-.7-2.1-.5-.7-1.2-.9-1.9-.9-.5,0-.9.2-1.4.5-.5.2-.5.7-.5,1.2,0,.9.7,1.4,2.3,1.4.5.3,1.2.1,2.2-.1Zm1.1-10.4l-1.9,1.9-1.9-1.9,1.9-1.9,1.9,1.9Z"/></g><g id="G_57"><path id="PATH_58" d="m814.4,69c0,3.2-2.1,4.9-6.5,4.9-1.6,0-2.8-.2-3.5-.7-.9-.5-1.4-1.6-1.4-3,0-.7.2-1.4.5-2.1.2-.2.2-.5.5-.5s.2.2.2.7v.7c0,.9.5,1.6,1.4,1.9.5.2,1.4.2,2.5.2,3.5,0,5.1-.5,5.1-1.6,0-1.6-2.1-3.9-6-6.7l.7-2.3c0-.2.2-.2.2-.2,0,0,.2,0,.5.2,4,3.2,5.8,5.9,5.8,8.5Z"/><path id="PATH_59" d="m828.8,73.8h-2.5c-.2,3.2-1.4,5.8-3.7,8.1-.7.7-1.2,1.2-1.4,1.2-1.2,0-2.8-.2-4.4-.5-.5,0-.9-.2-.9-.2,0,0,.2-.2.9-.5,1.9-.5,3.7-1.6,5.3-2.8.7-.7,1.4-1.2,1.9-2.1.7-.9,1.2-1.9,1.2-2.5v-.7h-3c-2.3,0-3.2-.9-3.2-2.8,0-1.2.2-2.3.9-3.7.7-1.4,1.6-2.3,2.5-2.3,1.2,0,2.1.7,2.8,2.3.5,1.2.9,2.3.9,3.7h2.5v2.8h.2Zm-4.2-2.5c0-.7-.2-1.4-.7-2.1-.5-.9-1.2-1.2-1.9-1.2-.5,0-.9.2-1.2.5s-.5.7-.5,1.4c0,1.2.9,1.6,2.8,1.6.4-.2.8-.2,1.5-.2Z"/><path id="PATH_60" d="m834.1,55.6c.2.2.2.5.2.5h-1.2c.2,3,.2,7.4.2,13.2,0,1.4-.2,2.5-.9,3.2-.7.9-1.8,1.4-3,1.4h-1.4v-2.8h1.2c1.9,0,2.8-.7,2.5-2.1-.2-4.9-.5-9.9-.7-15l1.6-1.4c.2-.2.5-.5.5-.5,0,0,0,.2.2.5.1.9.3,1.8.8,3Z"/><path id="PATH_61" d="m843.4,73.8h-1.6c-1.6,0-3-.7-3.5-2.1-.5-.9-.7-2.5-.7-4.4v-4.4c0-2.1-.2-5.1-.5-9l1.4-1.6c.2-.2.5-.2.5,0,.2,2.1.5,5.1.5,9v6.7c0,1.9.9,2.8,2.8,2.8h1.2l-.1,3h0Z"/><path id="PATH_62" d="m854.7,73.8h-1.9c-2.1,0-3.5-.7-4.4-2.1-.7,1.4-2.3,2.1-4.9,2.1h-1.2v-2.8h2.1c2.3,0,3.5-.9,3.7-2.5,0-.7.2-1.2.5-1.2s.5.5.5,1.2c.2,1.6,1.4,2.5,3.5,2.5h2.1v2.8h0Zm-4.4-11.7l-1.9,1.8-1.8-1.9,1.8-1.9,1.9,2Z"/><path id="PATH_63" d="m866.3,73.8h-1.9c-2.1,0-3.5-.7-4.4-2.1-.7,1.4-2.3,2.1-4.9,2.1h-1.4v-2.8h2.1c2.3,0,3.5-.9,3.7-2.5,0-.7.2-1.2.5-1.2s.5.5.5,1.2c.2,1.6,1.4,2.5,3.5,2.5h2.1v2.8h.2Zm-7.7,5.1l-1.9,1.9-1.9-1.9,1.9-1.9,1.9,1.9Zm4,0l-1.9,1.9-1.9-1.9,1.9-1.9,1.9,1.9Z"/><path id="PATH_64" d="m871.8,69.2c0,3-1.6,4.6-4.6,4.6h-1.9v-2.8h1.6c2.3,0,3.5-.5,3.5-1.2s-.5-1.6-1.6-2.8l.9-2.3c0-.2.2-.2.2-.2,0,0,.2.2.5.5.9,1.4,1.4,2.8,1.4,4.2Zm-.9,9.7l-1.9,1.9-1.9-1.9,1.9-1.9,1.9,1.9Z"/></g><g id="G_65"><path id="PATH_66" d="m802.4,253.8c0,1.6-.5,3-1.6,3.7-.7.5-2.1.9-4.2,1.2-2.3.5-4.6.7-7.2.7-6,0-9.3-1.6-9.3-5.1,0-1.2.5-2.3,1.4-3.5.2-.2.2-.5.5-.5q.2,0,.2.2v.5c-.2.7-.5,1.4-.5,2.1,0,2.3,3,3.5,8.8,3.5,2.8,0,5.3-.2,7.2-.5,2.3-.5,3.2-.9,3.2-1.6,0-.5-.5-1.4-1.6-2.8l1.2-2.1q.2-.2.5,0c1,1.6,1.4,3,1.4,4.2Zm-11.8-8.4l-1.9,1.9-1.9-1.9,1.9-1.9,1.9,1.9Zm4,0l-1.8,1.9-1.9-1.9,1.9-1.9,1.8,1.9Z"/><path id="PATH_67" d="m823.9,258.9h-1.4c-2.8,0-4.4-2.1-4.4-6.2v-2.1c-1.9,4.4-3.9,7.6-6.7,9.5-1.6.5-3.7.7-6,.7h-.7s.7-.5,2.1-1.2c.9-.5,1.9-.9,2.8-1.4,1.6-.7,3.2-1.9,4.6-3.5-.7-2.3-1.6-4.4-3-6.2-.9-1.2-2.3-2.5-4.4-4.2l-.2.9c-.7-.5-1.2-.9-1.6-1.4-.7-.7-1.2-1.2-1.2-1.6,0-.5,0-1.2.2-2.3,0-.2,0-.5.2-.5s.2,0,.5.2c3,2.1,5.3,4.2,6.7,6,1.9,2.3,3,4.9,3.7,7.9.9-1.2,1.6-2.3,2.1-3.7.7-1.6.9-3,.9-4.2,0-2.1-.2-4.4-.5-6.9l1.9-1.6c.2,1.2.2,6.5.5,16,0,2.1.9,3.2,2.8,3.2h1.2l-.1,2.6h0Z"/><path id="PATH_68" d="m838.3,237.6c0,.5-.5,1.4-.9,2.5l-5.8,1.9c-2.5.9-4.4,1.6-5.3,2.1,1.9,1.9,3,3.2,3.7,3.9,1.2,1.6,1.9,3,2.1,4.6,0,1.2,0,2.3-.5,3.2-.7,2.1-3.2,3-7.2,3h-1.2v-2.8h1.4c1.9,0,3.2,0,3.9-.2,1.6-.5,2.5-1.2,2.5-2.3,0-1.6-1.2-3.5-3.7-5.8l-.2.5c-.2-.2-.7-.7-1.2-1.4-.7-.7-.9-1.4-.9-1.4,0-.5,0-.9.2-1.9.2-.9.5-1.4.7-1.6.2-.2,1.9-.9,4.9-1.9,2.6-1,5.4-2,7.5-2.4Z"/></g><g id="G_69"><path id="PATH_70" d="m980.3,375h-1.2c-1.6,0-2.5-.7-3.2-1.9-.5,1.4-1.6,2.1-3,2.1s-2.3-.7-3-2.1c-.7,1.4-1.9,2.1-3.2,2.1-.5,0-1.2,0-1.6-.2,0,1.4-.2,2.8-.2,4.4-.7,1.6-1.9,3-3.9,3.9-1.9.7-3.7,1.2-5.8,1.2s-3.7-.5-5.1-1.4c-1.4-1.2-2.1-2.5-2.1-4.6,0-1.2.2-2.1.7-3.5.5-.9.7-1.6,1.2-2.1.2-.2.5-.2.5-.2q.2,0,.2.2v.5c-.7,1.4-.9,2.8-.9,3.9s.5,2.1,1.2,3c.9,1.2,2.5,1.6,4.6,1.6,2.3,0,4.4-.5,6-1.2,1.4-.7,2.3-1.4,2.5-2.3.2-.2.2-.7,0-1.6,0-.7-.2-1.4-.2-1.6-.2-.7-.9-1.9-2.3-3.5l.9-1.9c.2-.2.2-.5.2-.5,0,0,.2,0,.2.5.7.9,1.2,1.6,1.4,1.9.7.7,1.4.9,2.3.9s1.9-.2,2.3-.9c.2-.5.5-.9.7-2.1,0-.5.2-.7.5-.7.2,0,.2.2.5.7.2,1.9,1.2,3,2.5,3,1.6,0,2.8-.9,2.8-2.8,0-.5.2-.7.5-.7s.5.2.5.7c.2,1.9,1.2,2.8,2.8,2.8h1.4v2.3h-.7v.1h0Z"/><path id="PATH_71" d="m998.3,368.2l-.9,1.9c-1.6,0-3,0-3.7.2-.9.5-2.3.9-4.2,1.9-1.9.9-3.2,1.6-4.2,1.9-1.4.5-3,.7-4.4.7h-1.6v-2.9h1.9c2.1,0,3.9-.5,5.6-1.2l5.3-2.3c-.9-.2-2.3-.7-4.2-1.4-1.6-.7-2.5-.9-3-.9-.9,0-1.9.5-2.8,1.2q-.2.2-.5.2t-.2-.2v-.2c.7-2.3,2.1-3.2,3.9-3.2.7,0,1.6.2,2.5.7,1.9.9,3.2,1.4,4.2,1.9,1.6.5,3.5.9,5.6.9.5,0,.7,0,.7.2.2.2.2.4,0,.6Zm-6.5-10.4l-1.8,1.9-1.9-1.9,1.9-1.9,1.8,1.9Z"/><path id="PATH_72" d="m1012.9,375h-.9c-.9,0-1.4-.2-1.9-.5v.7c0,2.1-.7,4.2-2.1,6.2-1.2,1.9-2.3,2.5-3,2.5-1.9,0-3.2,0-4.6-.2-.5,0-.7-.2-.7-.2,0,0,.2-.2.7-.2,1.9-.5,3.7-1.4,5.6-2.8,1.9-1.6,3-3.2,3-4.9,0-.9-.7-2.3-2.3-3.9l1.2-2.1c0-.2.2-.2.2-.2l.2.2c.7.9,1.2,1.6,1.6,1.9.7.5,1.6.9,2.5.9h.7v2.5h-.2v.1h0Z"/><path id="PATH_73" d="m1031.1,370.1c0,1.4-.2,2.5-.9,3.5s-1.9,1.6-3,1.6c-1.6,0-2.5-.7-3.2-1.9-.9,1.4-1.9,1.9-3.2,1.9-1.6,0-2.8-.7-3.5-1.9-.9,1.4-2.1,1.9-3.7,1.9h-1.6v-2.8h1.9c1.6,0,2.8-.9,3-2.8,0-.5.2-.7.5-.7.2,0,.2.2.5.7.2,1.9,1.2,2.8,3,2.8.9,0,1.9-.2,2.3-.7.2-.5.5-.9.7-1.9,0-.5.2-.7.5-.7.2,0,.2.2.5.7.2,1.9,1.2,2.8,2.8,2.8,1.9,0,2.5-.5,2.5-1.2s-.5-1.6-1.4-2.5l1.2-2.1c.2-.2.2-.5.5-.5.2,0,.2.2.5.5-.1,1,.1,2.1.1,3.3Z"/></g><g id="G_74"><path id="PATH_75" d="m793.9,388.8h-.9c-.9,0-1.6-.2-2.3-.9-.5-.5-.9-.9-1.4-1.9-.5.9-1.2,1.6-1.9,2.1-.9.5-2.1.7-3.9.7-3.2,0-4.9-1.2-4.9-3.5,0-.7.2-1.6.7-2.3.2-.2.2-.5.5-.5.2,0,.2.2.2.5v1.4c0,1.4,1.2,2.1,3.5,2.1,3.2,0,4.9-.7,4.9-1.9,0-.7-.9-3.2-2.8-7.6l.9-1.9c.2-.2.2-.5.2-.5,0,0,.2.2.2.5.7,1.9,1.9,4.6,3.2,8.3.7,1.9,1.6,2.8,3,2.8h.7l.1,2.6h0Z"/><path id="PATH_76" d="m808.2,388.8h-1.2c-.9,0-1.9.2-2.5.5-1.2.5-1.9,1.2-1.9,2.3,0,1.4.9,2.5,2.8,3.7l-1.2,2.3c-2.1-.7-3.9-1.9-5.3-3.2-1.9-1.6-2.8-3.7-2.8-5.8h-3.2v-2.8h3c0-1.9.5-3.7,1.4-6,.9-2.1,1.6-3,2.1-3s1.2.9,1.9,3c.7,1.9.9,3,.9,3.7,0,3.2-1.6,4.9-4.9,4.9.2.9.7,1.9,1.4,2.8.7.9,1.6,1.6,2.5,2.1v-.9c0-1.6.5-3,1.2-4.2,1.2-1.6,2.5-2.5,4.6-2.5h.9v3.2h.3v-.1h0Zm-6.9-3.7c0-.5-.2-1.4-.7-2.5-.5-1.4-.9-1.9-1.4-1.9-.2,0-.7.5-1.2,1.6-.5,1.2-.7,2.5-.7,3.9,2.6.1,4-.4,4-1.1Z"/><path id="PATH_77" d="m829.7,388.8h-1.4c-1.6,0-2.5-.7-3.2-1.9-.5,1.4-1.6,1.9-3,1.9s-2.3-.7-3-1.9c-.7,1.4-1.6,1.9-3,1.9-1.6,0-2.8-.7-3.5-1.9-.9,1.4-2.1,1.9-3.7,1.9h-1.6v-2.8h1.9c1.6,0,2.8-.9,3-2.8,0-.5.2-.7.5-.7.2,0,.2.2.5.7.2,1.9,1.2,2.8,3,2.8,1.6,0,2.8-.9,2.8-2.8,0-.5.2-.7.5-.7.2,0,.5.2.5.7.2,1.9,1.2,2.8,2.3,2.8,1.6,0,2.8-.9,2.8-2.8,0-.5.2-.7.5-.7.2,0,.5.2.5.7.2,1.9,1.2,2.8,2.8,2.8h1.4v2.8h-.6Zm-10.9-11.5l-1.6,1.6-1.6-1.6,1.6-1.6,1.6,1.6Zm2.1-3.7l-1.6,1.6-1.6-1.6,1.6-1.6,1.6,1.6Zm2.1,3.7l-1.6,1.6-1.6-1.6,1.6-1.6,1.6,1.6Z"/><path id="PATH_78" d="m841,384.2c0,1.2,0,2.1-.5,3-.5,1.2-1.2,1.9-1.9,1.9-1.2,0-3-.7-5.3-2.3-.7.9-1.2,1.4-1.4,1.6-.7.5-1.4.7-2.3.7h-1.2v-2.8h1.6c.9,0,1.9-.5,2.8-1.6.5-.5,1.2-1.6,2.1-3,.7-1.2,1.6-1.6,2.3-1.6,1.2,0,2.1.5,2.8,1.6.8.9,1,1.8,1,2.5Zm-1.3,1.9c0-.7-.2-1.4-.7-2.3s-1.2-1.4-1.8-1.4c-.7,0-1.4.7-2.3,2.1.5.5,1.2.9,2.1,1.4s1.9.7,2.3.7c.1-.1.4-.3.4-.5Z"/></g><g id="G_79"><path id="PATH_80" d="m957.4,579.6c0,.5-.2.9-.7,1.9-.5.9-.9,1.4-1.2,1.4-.7,0-1.6-.2-2.8-.5-1.2-.2-2.1-.5-2.8-.5-1.2,0-2.1.2-2.5.5.5,3.9.7,6.9.7,8.8,0,.9-.2,1.9-.9,3-.2.2-.2.5-.2.5v-.2c-.2-3.7-.5-7.4-.9-11.1,0-.5.2-.9.7-1.6.5-.5.7-.9,1.2-1.2.5-.5,1.2-.5,1.9-.5-.2-.7-.2-1.2-.2-1.6,0-.7.2-1.6.9-2.5s1.4-1.4,2.3-1.4c1.2,0,2.3.7,3.5,1.9,1,1,1,2,1,3.1Zm-1.6.7c-.2-.7-.9-1.6-1.6-2.3-.9-.9-1.6-1.2-2.5-1.2-1.2,0-1.6.5-1.6,1.2,0,.5.2.9.5,1.9,1.2-.3,3.1,0,5.2.4Z"/><path id="PATH_81" d="m966.6,584h-1.6c-1.6,0-3-.7-3.5-2.1-.5-.9-.7-2.5-.7-4.4v-4.4c0-2.1-.2-5.1-.5-9l1.4-1.6c.2-.2.5-.2.5,0,.2,2.1.5,5.1.5,9v6.7c0,1.9.9,2.8,2.8,2.8h1.2l-.1,3h0Z"/><path id="PATH_82" d="m984.7,577.3l-.9,1.9c-1.6,0-3,0-3.7.2-.9.5-2.3.9-4.2,1.9s-3.2,1.6-4.2,1.9c-1.4.5-3,.7-4.4.7h-1.6v-2.8h1.9c2.1,0,3.9-.5,5.6-1.2l5.3-2.3c-.9-.2-2.3-.7-4.2-1.4-1.6-.7-2.5-.9-3-.9-.9,0-1.9.5-2.8,1.2q-.2.2-.5.2t-.2-.2v-.2c.7-2.3,2.1-3.2,3.9-3.2.7,0,1.6.2,2.5.7,1.8.9,3.2,1.4,4.2,1.9,1.6.5,3.5.9,5.6.9.5,0,.7,0,.7.2.2,0,.2.3,0,.5Zm-7.7,11.6l-1.9,1.9-1.9-1.9,1.9-1.9,1.9,1.9Z"/><path id="PATH_83" d="m1021.7,584h-.9c-1.2,0-2.1-.2-2.5-.7-.7-.5-1.2-1.4-1.2-2.3-2.5,2.3-6.5,3.5-11.8,3.5-5.6,0-8.3-1.6-8.3-5.1,0-1.2.5-2.3,1.4-3.5q.2-.2.5-.2t.2.2v.5c-.2.7-.5,1.4-.5,2.1,0,2.3,2.5,3.5,7.6,3.5,5.8,0,9.7-1.2,11.6-3.7.5-.5.7-.7.9-.7s.2.2.2.5c0,.2,0,.5-.2.9,0,.5-.2.7-.2.9,0,1.2.9,1.9,2.5,1.9h.9v2.3h-.2v-.1Zm-14.4-13.4l-1.9,1.9-1.9-1.9,1.9-1.9,1.9,1.9Zm4,0l-1.9,1.9-1.9-1.9,1.9-1.9,1.9,1.9Z"/><path id="PATH_84" d="m1027.2,579.6c0,3-1.6,4.6-4.6,4.6h-1.9v-2.8h1.6c2.3,0,3.5-.5,3.5-1.2s-.5-1.6-1.6-2.8l.9-2.3c0-.2.2-.2.2-.2,0,0,.2.2.5.5.9,1.2,1.4,2.6,1.4,4.2Zm-.7,9.5l-1.9,1.9-1.9-1.9,1.9-1.9,1.9,1.9Z"/><path id="PATH_85" d="m1041.8,584h-.9c-.9,0-1.4-.2-1.9-.5v.7c0,2.1-.7,4.2-2.1,6.2-1.2,1.9-2.3,2.5-3,2.5-1.9,0-3.2,0-4.6-.2-.5,0-.7-.2-.7-.2,0,0,.2-.2.7-.2,1.9-.5,3.7-1.4,5.6-2.8,1.9-1.6,3-3.2,3-4.9,0-.9-.7-2.3-2.3-3.9l1.2-2.1c0-.2.2-.2.2-.2l.2.2c.7.9,1.2,1.6,1.6,1.9.7.5,1.6.9,2.5.9h.7v2.5l-.2.1h0Z"/><path id="PATH_86" d="m1047.3,579.6c0,3-1.6,4.6-4.6,4.6h-1.8v-2.8h1.6c2.3,0,3.5-.5,3.5-1.2s-.5-1.6-1.6-2.8l.9-2.3c0-.2.2-.2.2-.2,0,0,.2.2.5.5.6,1.2,1.3,2.6,1.3,4.2Zm-2.3-10.2l-1.9,1.9-1.9-1.9,1.9-1.9,1.9,1.9Zm4,0l-1.9,1.9-1.9-1.9,1.9-1.9,1.9,1.9Z"/></g><g id="G_87"><path id="PATH_88" d="m784.2,536.8c.2.7.2,1.4.2,2.1,0,.9-.2,1.6-.5,2.5-.7,1.6-1.9,3-4.2,3.9-1.9.7-3.7,1.2-5.8,1.2s-3.7-.5-5.1-1.4c-1.4-1.2-2.1-2.5-2.1-4.6,0-1.2.2-2.1.7-3.5.5-.9.7-1.6,1.2-2.1.2-.2.5-.2.5-.2q.2,0,.2.2v.5c-.7,1.4-.9,2.8-.9,3.9s.5,2.1,1.2,3c.9,1.2,2.5,1.6,4.6,1.6,2.3,0,4.4-.5,6-1.2,1.4-.7,2.3-1.4,2.8-2.3.2-.2.2-.7.2-.9,0-.7-.2-1.4-.5-2.3-.2-.7-.9-1.9-2.1-3.7l.9-1.9c.2-.2.2-.5.2-.5,0,0,.2,0,.2.2,1.1,2.1,1.8,3.7,2.3,5.5Zm-7-9.9l-1.9,1.9-1.9-1.9,1.9-1.9,1.9,1.9Z"/><path id="PATH_89" d="m793.4,537.3h-1.6c-1.6,0-3-.7-3.5-2.1-.5-.9-.7-2.5-.7-4.4v-4.4c0-2.1-.2-5.1-.5-9l1.4-1.6c.2-.2.5-.2.5,0,.2,2.1.5,5.1.5,9v6.7c0,1.9.9,2.8,2.8,2.8h1.2v3h-.1Z"/><path id="PATH_90" d="m810.1,537.3h-1.4c-1.2,0-2.3-.7-3.2-1.9-.7,1.9-1.4,2.8-2.1,2.8s-1.9-.5-3.2-1.2c-1.2-.7-2.1-1.4-2.5-1.9-1.2,1.4-2.3,2.1-3.5,2.1h-1.4v-2.8h1.4c1.2,0,2.1-.5,3-1.4.7-.7,1.4-1.6,2.3-2.5s1.6-1.4,2.3-1.4c.9,0,1.6.5,2.3,1.4.5.5.9,1.4,2.1,2.5.7.9,1.6,1.4,2.5,1.4h1.4v2.9h0Zm-6.3-2.1c0-.7-.2-1.4-.7-2.3s-1.2-1.4-2.1-1.4c-.7,0-1.6.7-2.5,1.9.2.2.9.7,2.1,1.4s2.1.9,2.8.9c.2,0,.4,0,.4-.5Z"/><path id="PATH_91" d="m815.6,532.7c0,3-1.6,4.6-4.6,4.6h-1.9v-2.8h1.6c2.3,0,3.5-.5,3.5-1.2s-.5-1.6-1.6-2.8l.9-2.3c0-.2.2-.2.2-.2,0,0,.2.2.5.5.9,1.2,1.4,2.6,1.4,4.2Zm-1.8,9.7l-1.9,1.9-1.9-1.9,1.9-1.9,1.9,1.9Zm3.9,0l-1.9,1.9-1.8-1.9,1.8-1.9,1.9,1.9Z"/><path id="PATH_92" d="m832.3,537.3h-.9c-.9,0-1.4-.2-1.9-.5v.7c0,2.1-.7,4.2-2.1,6.2-1.2,1.9-2.3,2.5-3,2.5-1.9,0-3.2,0-4.6-.2-.5,0-.7-.2-.7-.2,0,0,.2-.2.7-.2,1.9-.5,3.7-1.4,5.6-2.8,1.9-1.6,3-3.2,3-4.9,0-.9-.7-2.3-2.3-3.9l1.2-2.1c0-.2.2-.2.2-.2l.2.2c.7.9,1.2,1.6,1.6,1.9.7.5,1.6.9,2.5.9h.7v2.5l-.2.1h0Z"/><path id="PATH_93" d="m841,530.6v.9c0,1.6-.2,2.5-.7,3.2-1.2,1.6-3,2.3-6,2.3h-3.2v-2.8h2.3c3.9,0,6-.7,6.5-1.9v-.5c0-.5,0-.7-.2-.9-.9.2-2.1.2-3,.2-2.1,0-3.2-.9-3.2-2.8,0-1.2.2-2.5.9-3.7.7-1.4,1.6-2.1,2.8-2.1.9,0,1.8.7,2.5,1.9.9,2,1.3,3.9,1.3,6.2Zm-2.5-12.7l-1.9,1.9-1.9-1.9,1.9-1.9,1.9,1.9Zm.9,10.8c0-.7-.2-1.4-.7-2.1-.5-.7-1.2-.9-1.8-.9-.5,0-.9.2-1.4.5-.5.2-.5.7-.5,1.2,0,.9.7,1.4,2.3,1.4.5.2,1.2.2,2.1-.1Z"/></g><g id="G_107"><path id="PATH_108" d="m846.8,854.8v.5c0,1.6-.2,2.8-.7,3.7-1.2,1.9-5.6,2.8-13,2.8-5.6,0-8.6-1.6-8.6-4.6,0-1.6.5-3,1.2-4.2.2-.2.5-.5.5-.5q.2,0,.2.2c0,.2-.2.7-.5,1.6,0,.5-.2.7-.2,1.2,0,1.6,1.2,2.5,3.2,3.2,1.2.2,2.8.5,5.1.5,6.7,0,10.4-.7,11.1-2.1,0-.2.2-.5.2-.9v-.7c-1.2.2-2.3.2-3.2.2-2.1,0-3.2-.9-3.2-2.8,0-1.2.2-2.5.9-3.7.7-1.4,1.6-2.1,2.8-2.1.9,0,1.9.7,2.8,1.9,1,1.7,1.4,3.5,1.4,5.8Zm-3-12.7l-1.9,1.9-1.8-1.9,1.8-1.9,1.9,1.9Zm1.2,10.6c0-.7-.2-1.4-.7-2.1-.5-.7-1.2-.9-1.8-.9-1.2,0-1.9.7-1.9,1.9,0,.9.7,1.4,2.3,1.4.5.2,1.2,0,2.1-.3Z"/><path id="PATH_109" d="m852.1,858.5c0,.9-.2,1.9-.7,2.5-.2.5-.5.7-.5.7,0,0-.2-.2-.2-.9,0-2.8-.5-9.3-1.4-19.7l1.9-1.9.2-.2v.5c.7,3.3.7,9.5.7,19Z"/><path id="PATH_110" d="m866.5,861.3h-2.5c-.2,3.2-1.4,5.8-3.7,8.1-.7.7-1.2,1.2-1.4,1.2-1.2,0-2.8-.2-4.4-.5-.5,0-.9-.2-.9-.2,0,0,.2-.2.9-.5,1.9-.5,3.7-1.6,5.3-2.8.7-.7,1.4-1.2,1.9-2.1.7-.9,1.2-1.9,1.2-2.5v-.7h-3c-2.3,0-3.2-.9-3.2-2.8,0-1.2.2-2.3.9-3.7.7-1.4,1.6-2.3,2.5-2.3,1.2,0,2.1.7,2.8,2.3.5,1.2.9,2.3.9,3.7h2.5v2.8h.2Zm-4.2-2.8c0-.7-.2-1.4-.7-2.1-.5-.9-1.2-1.2-1.9-1.2-.5,0-.9.2-1.2.5-.2.2-.5.7-.5,1.4,0,1.2.9,1.6,2.8,1.6.4.1.8.1,1.5-.2Z"/><path id="PATH_111" d="m884.5,854.6l-.9,1.9c-1.6,0-3,0-3.7.2-.9.5-2.3.9-4.2,1.9s-3.2,1.6-4.2,1.9c-1.4.5-3,.7-4.4.7h-1.6v-2.8h1.9c2.1,0,3.9-.5,5.6-1.2l5.3-2.3c-.9-.2-2.3-.7-4.2-1.4-1.6-.7-2.5-.9-3-.9-.9,0-1.9.5-2.8,1.2q-.2.2-.5.2t-.2-.2v-.2c.7-2.3,2.1-3.2,3.9-3.2.7,0,1.6.2,2.5.7,1.8.9,3.2,1.4,4.2,1.9,1.6.5,3.5.9,5.6.9.5,0,.7,0,.7.2.3,0,.3.3,0,.5Zm-6.5-10.4l-1.8,1.9-1.9-1.9,1.9-1.9,1.8,1.9Z"/></g><g id="G_112"><path id="PATH_113" d="m768.9,628.6c0,1.6-.5,2.8-1.4,3.7s-2.3,1.2-3.7,1.2c-.9,0-1.9-.2-2.5-.9-.7-.7-1.2-1.4-1.2-2.3,0-1.2.5-2.3,1.4-3.9.7-1.4,1.6-2.5,2.5-3.5,3.3,1.6,4.9,3.4,4.9,5.7Zm-1.2,1c0-.7-.5-1.4-1.6-2.3-.9-.9-1.6-1.4-2.5-1.6-1.2,1.6-1.9,2.8-1.9,3.7,0,.5.2.9.9,1.4.5.2.9.5,1.6.5.9,0,1.9-.2,2.5-.5.6-.8,1-1,1-1.2Z"/><path id="PATH_114" d="m780.9,632.6c0,3.5-1.2,6.5-3.5,8.8-.7.7-1.2,1.2-1.4,1.2-1.4,0-2.8-.2-4.4-.5-.7,0-.9-.2-.9-.2,0,0,.2-.2.9-.5,1.9-.5,3.7-1.6,5.3-3,.7-.7,1.4-1.2,1.8-2.1.7-.9,1.2-1.9,1.2-2.5v-.7h-3c-2.1,0-3.2-.9-3.2-2.5,0-1.2.2-2.3.9-3.7.7-1.4,1.6-2.3,2.5-2.3,1.4,0,2.5.9,3.2,3,.4,1.5.6,3.1.6,5Zm-1.6-2.1c0-.7-.2-1.4-.7-2.1s-1.2-1.2-1.9-1.2c-.5,0-.9.2-1.2.5-.2.2-.5.7-.5,1.2,0,1.2.7,1.6,2.3,1.6.4.2,1.1.2,2,0Z"/><path id="PATH_115" d="m786.2,630.5c0,.9-.2,1.9-.7,2.5-.2.5-.5.7-.5.7,0,0-.2-.2-.2-.9,0-2.8-.5-9.3-1.4-19.7l1.9-1.9.2-.2v.5c.7,3.3.7,9.5.7,19Z"/><path id="PATH_116" d="m798,633.7c0,2.3-.7,4.4-2.1,6.5-1.2,1.6-2.3,2.5-3,2.5-1.9,0-3.2,0-4.6-.2-.5,0-.7-.2-.7-.2,0,0,.2-.2.7-.2,1.9-.5,3.7-1.4,5.6-2.8,1.9-1.6,3-3.2,3-4.9,0-.9-.7-2.3-2.3-3.9l1.2-2.1c0-.2.2-.2.2-.2l.2.2c.5.7,1.2,1.6,1.4,2.8.2.7.4,1.6.4,2.5Zm-1.8-12.5l-1.9,1.9-1.9-1.9,1.9-1.9,1.9,1.9Z"/></g><g id="G_117"><path id="PATH_118" d="m697.9,723.2c0,2.3-.7,4.4-2.1,6.5-1.2,1.6-2.3,2.5-3,2.5-1.9,0-3.2,0-4.6-.2-.5,0-.7-.2-.7-.2,0,0,.2-.2.7-.2,1.8-.5,3.7-1.4,5.6-2.8,1.8-1.6,3-3.2,3-4.9,0-.9-.7-2.3-2.3-3.9l1.2-2.1c0-.2.2-.2.2-.2l.2.2c.5.7,1.2,1.6,1.4,2.8.2.7.4,1.6.4,2.5Z"/><path id="PATH_119" d="m703.4,720.2c0,.9-.2,1.9-.7,2.5-.2.5-.5.7-.5.7,0,0-.2-.2-.2-.9,0-2.8-.5-9.3-1.4-19.7l1.9-1.9.2-.2v.5c.5,3.1.7,9.3.7,19Z"/><path id="PATH_120" d="m717.8,723h-2.5c-.2,3.2-1.4,5.8-3.7,8.1-.7.7-1.2,1.2-1.4,1.2-1.2,0-2.8-.2-4.4-.5-.5,0-.9-.2-.9-.2,0,0,.2-.2.9-.5,1.9-.5,3.7-1.6,5.3-2.8.7-.7,1.4-1.2,1.9-2.1.7-.9,1.2-1.9,1.2-2.5v-.7h-3c-2.3,0-3.2-.9-3.2-2.8,0-1.2.2-2.3.9-3.7.7-1.4,1.6-2.3,2.5-2.3,1.2,0,2.1.7,2.8,2.3.5,1.2.9,2.3.9,3.7h2.5v2.8h.2Zm-4.2-2.8c0-.7-.2-1.4-.7-2.1-.5-.9-1.2-1.2-1.9-1.2-.5,0-.9.2-1.2.5-.2.2-.5.7-.5,1.4,0,1.2.9,1.6,2.8,1.6.1.1.8-.2,1.5-.2Z"/><path id="PATH_121" d="m738.1,723h-2.3c-3,0-4.6-1.6-4.6-4.6v-1.2c-1.2.5-2.5,1.4-4.4,2.5s-3,1.9-3.9,2.3c-1.4.7-3,.9-4.4.9h-1.6v-2.8h1.9c1.9,0,3.9-.5,5.8-1.4.9-.5,2.5-1.4,5.1-2.5-.5,0-1.9-.5-4.2-.9-1.6-.5-2.5-.7-2.8-.7-.9,0-1.9.5-2.8,1.2q-.2.2-.5.2t-.2-.2v-.2c.7-2.3,2.1-3.5,3.9-3.5.7,0,1.6.2,2.8.5,1.6.5,3,.9,4.2,1.2,1.6.2,3.5.5,5.6.5h.7c.2,0,0,.2,0,.5l-.7,2.1c-1.4,0-2.3,0-2.8.2,0,1.2.2,1.9.5,2.1.5.7,1.4,1.2,3,1.2h2.3v2.8h-.6v-.2Zm-8.8-17.3l-1.9,1.9-1.9-1.9,1.9-1.9,1.9,1.9Z"/><path id="PATH_122" d="m749.5,723h-1.9c-2.1,0-3.5-.7-4.4-2.1-.7,1.4-2.3,2.1-4.9,2.1h-1.4v-2.8h2.1c2.3,0,3.5-.9,3.7-2.5,0-.7.2-1.2.5-1.2.2,0,.5.5.5,1.2.2,1.6,1.4,2.5,3.5,2.5h2.1v2.8h.2Zm-7.9-13.4l-1.9,1.9-1.9-1.9,1.9-1.9,1.9,1.9Zm3.9,0l-1.9,1.9-1.9-1.9,1.9-1.9,1.9,1.9Z"/><path id="PATH_123" d="m767.5,718.1c0,1.4-.2,2.5-.9,3.5s-1.9,1.6-3,1.6c-1.6,0-2.5-.7-3.2-1.9-.9,1.4-1.9,1.9-3.2,1.9-1.6,0-2.8-.7-3.5-1.9-.9,1.4-2.1,1.9-3.7,1.9h-1.6v-2.8h1.9c1.6,0,2.8-.9,3-2.8,0-.5.2-.7.5-.7.2,0,.2.2.5.7.2,1.9,1.2,2.8,3,2.8.9,0,1.9-.2,2.3-.7.2-.5.5-.9.7-1.9,0-.5.2-.7.5-.7.2,0,.2.2.5.7.2,1.9,1.2,2.8,2.8,2.8,1.9,0,2.5-.5,2.5-1.2s-.5-1.6-1.4-2.5l1.2-2.1c.2-.2.2-.5.5-.5.2,0,.2.2.5.5-.1,1,.1,2.2.1,3.3Zm-7.6-8.5l-1.6,1.6-1.6-1.6,1.6-1.6,1.6,1.6Zm1.8-3.5l-1.6,1.6-1.6-1.6,1.6-1.6,1.6,1.6Zm2.1,3.5l-1.6,1.6-1.6-1.6,1.6-1.6,1.6,1.6Z"/><path id="PATH_124" d="m779.3,723.2c0,2.3-.7,4.4-2.1,6.5-1.2,1.6-2.3,2.5-3,2.5-1.9,0-3.2,0-4.6-.2-.5,0-.7-.2-.7-.2,0,0,.2-.2.7-.2,1.9-.5,3.7-1.4,5.6-2.8,1.9-1.6,3-3.2,3-4.9,0-.9-.7-2.3-2.3-3.9l1.2-2.1c0-.2.2-.2.2-.2l.2.2c.5.7,1.2,1.6,1.4,2.8.2.7.4,1.6.4,2.5Z"/></g><g id="G_125"><path id="PATH_126" d="m561,726.9c0,1.6-.5,3-1.6,3.7-.7.5-2.1.9-4.2,1.2-2.3.5-4.6.7-7.2.7-6,0-9.3-1.6-9.3-5.1,0-1.2.5-2.3,1.4-3.5.2-.2.2-.5.5-.5s.2,0,.2.2v.5c-.2.7-.5,1.4-.5,2.1,0,2.3,3,3.5,8.8,3.5,2.8,0,5.3-.2,7.2-.5,2.3-.5,3.2-.9,3.2-1.6,0-.5-.5-1.4-1.6-2.8l1.2-2.1q.2-.2.5,0c.7,1.7,1.4,3.1,1.4,4.2Zm-11.8-8.3l-1.9,1.9-1.9-1.9,1.9-1.9,1.9,1.9Zm3.9,0l-1.9,1.9-1.9-1.9,1.9-1.9,1.9,1.9Z"/><path id="PATH_127" d="m578.6,713.8q0,.2.2.7h-1.2c0,1.9-.2,3.9-.7,5.8-.5,2.5-1.4,4.6-2.3,6,.5.9.7,2.1.7,3,0,.5-.2,1.2-.5,1.9-.2.7-.7,1.2-1.2,1.4-2.1.5-4.2.7-6.7.5l.7-2.5c2.3-1.2,3.9-2.3,4.9-3.7-2.3-3-4.9-6-7.9-9l-.5.7c-1.6-1.9-2.3-2.8-2.3-3.2,0-.5.2-1.2.5-2.3,0-.2.2-.5.2-.5,0,0,.2.2.7.5,4.4,4.2,7.9,8.3,10.2,12.5.9-1.4,1.4-3.5,1.6-6,.2-2.1.2-4.4,0-6.9l1.9-1.9c1,1.1,1.4,2.3,1.7,3Zm-4.4,15.9v-.2c0-.7-.2-1.4-.7-1.9-.7.9-1.6,1.9-2.8,2.8h.9c.9-.2,1.9-.2,2.6-.7Z"/><path id="PATH_128" d="m590.6,731.1c0,3.5-1.2,6.5-3.5,8.8-.7.7-1.2,1.2-1.4,1.2-1.4,0-2.8-.2-4.4-.5-.7,0-.9-.2-.9-.2,0,0,.2-.2.9-.5,1.9-.5,3.7-1.6,5.3-3,.7-.7,1.4-1.2,1.9-2.1.7-.9,1.2-1.9,1.2-2.5v-.7h-3c-2.1,0-3.2-.9-3.2-2.5,0-1.2.2-2.3.9-3.7s1.6-2.3,2.5-2.3c1.4,0,2.5.9,3.2,3,.3,1.8.5,3.4.5,5Zm-1.6-1.9c0-.7-.2-1.4-.7-2.1-.5-.7-1.2-1.2-1.9-1.2-.5,0-.9.2-1.2.5-.5.5-.5.7-.5,1.2,0,1.2.7,1.6,2.3,1.6.3.3,1,.3,2,0Z"/><path id="PATH_129" d="m615.6,732h-1.6c-2.1,0-3.2-1.2-3.7-3.7-1.2,1.2-1.6,1.6-1.9,1.6h-2.1c-.7,0-1.4,0-2.1-.2-.9-.2-1.4-.7-1.4-1.2,0-1.9.7-3.2,1.9-4.2.9-.7,2.3-1.4,4.2-2.3l-.5-2.3,1.6-1.9c0,.2.7,2.8,1.6,7.6.2,1.4.7,2.5.9,3,.5.7.9.9,1.9.9h1.6v2.5h-.4v.2Zm-5.8-4.6l-.7-3.7c-.7.2-1.6.7-2.8,1.2-1.4.7-2.3,1.4-2.3,1.6,0,.5.5.7,1.6.9.7.2,1.4.2,2.1.2.9,0,1.4-.2,2.1-.2Z"/><path id="PATH_130" d="m626.9,727.4c0,1.2,0,2.1-.5,3-.5,1.2-1.2,1.9-1.9,1.9-1.2,0-3-.7-5.3-2.3-.7.9-1.2,1.4-1.4,1.6-.7.5-1.4.7-2.3.7h-1.1v-2.8h1.6c.9,0,1.9-.5,2.8-1.6.5-.5,1.2-1.6,2.1-3,.7-1.2,1.6-1.6,2.3-1.6,1.2,0,2.1.5,2.8,1.6.7.9.9,1.8.9,2.5Zm-1.2,1.8c0-.7-.2-1.4-.7-2.3-.5-.9-1.2-1.4-1.9-1.4s-1.4.7-2.3,2.1c.5.5,1.2.9,2.1,1.4.9.5,1.9.7,2.3.7.3,0,.5-.2.5-.5Z"/></g><g id="G_131"><path id="PATH_132" d="m578.3,854.4c0,3.2-2.1,4.9-6.5,4.9-1.6,0-2.8-.2-3.5-.7-.9-.5-1.4-1.6-1.4-3,0-.7.2-1.4.5-2.1.2-.2.2-.5.5-.5s.2.2.2.7v.7c0,.9.5,1.6,1.4,1.9.5.2,1.4.2,2.5.2,3.5,0,5.1-.5,5.1-1.6,0-1.6-2.1-3.9-6-6.7l.7-2.3c0-.2.2-.2.2-.2,0,0,.2,0,.5.2,4,2.9,5.8,5.9,5.8,8.5Z"/><path id="PATH_133" d="m587.6,859.2h-1.6c-1.6,0-3-.7-3.5-2.1-.5-.9-.7-2.5-.7-4.4v-4.4c0-2.1-.2-5.1-.5-9l1.4-1.6c.2-.2.5-.2.5,0,.2,2.1.5,5.1.5,9v6.7c0,1.9.9,2.8,2.8,2.8h1.2l-.1,3h0Z"/><path id="PATH_134" d="m593.1,854.6c0,3-1.6,4.6-4.6,4.6h-1.9v-2.8h1.6c2.3,0,3.5-.5,3.5-1.2s-.5-1.6-1.6-2.8l.9-2.3c0-.2.2-.2.2-.2l.5.5c1,1.2,1.4,2.8,1.4,4.2Zm-.7,9.7l-1.9,1.9-1.9-1.9,1.9-1.9,1.9,1.9Z"/><path id="PATH_135" d="m602.4,859.2h-1.6c-1.6,0-3-.7-3.5-2.1-.5-.9-.7-2.5-.7-4.4v-4.4c0-2.1-.2-5.1-.5-9l1.4-1.6c.2-.2.5-.2.5,0,.2,2.1.5,5.1.5,9v6.7c0,1.9.9,2.8,2.8,2.8h1.2l-.1,3h0Z"/><path id="PATH_136" d="m613.7,859.2h-1.9c-2.1,0-3.5-.7-4.4-2.1-.7,1.4-2.3,2.1-4.9,2.1h-1.4v-2.8h2.1c2.3,0,3.5-.9,3.7-2.5,0-.7.2-1.2.5-1.2.2,0,.5.5.5,1.2.2,1.6,1.4,2.5,3.5,2.5h2.1v2.8h.2Zm-4.6-12l-1.9,1.9-1.9-1.9,1.9-1.9,1.9,1.9Z"/><path id="PATH_137" d="m627.6,840.5c0,.5-.2,1.2-.7,2.5-2.8.7-6.2,1.9-10.2,3,2.8,2.8,4.4,5.1,4.6,6.7.2,1.2,0,2.3-.5,3.5s-1.4,1.9-2.5,2.3c-.9.5-2.5.5-4.6.5h-.9v-2.8h.7c4.4,0,6.7-.7,6.7-2.3,0-1.2-1.2-3-3.7-5.3l-.2.7c-.2-.2-.7-.7-1.2-1.4-.7-.7-.9-1.2-.9-1.4,0-.7.2-1.4.9-2.1.2-.2,1.6-.7,4.6-1.6,2.8-.9,5.6-1.6,7.9-2.3Zm-.5-3.5l-.5,1.6-11.3,3.7.5-1.6,11.3-3.7Z"/></g><g id="G_138"><path id="PATH_139" d="m619.5,1002.8h-1.6c-2.1,0-3.2-1.2-3.7-3.7-1.2,1.2-1.6,1.6-1.9,1.6h-2.1c-.7,0-1.4,0-2.1-.2-.9-.2-1.4-.7-1.4-1.2,0-1.9.7-3.2,1.9-4.2.9-.7,2.3-1.4,4.2-2.3l-.5-2.3,1.6-1.9c0,.2.7,2.8,1.6,7.6.2,1.4.7,2.5.9,3,.5.7.9.9,1.9.9h1.6v2.5h-.4v.2Zm-5.8-4.6l-.7-3.7c-.7.2-1.6.7-2.8,1.2-1.4.7-2.3,1.4-2.3,1.6,0,.5.5.7,1.6.9.7.2,1.4.2,2.1.2,1-.2,1.7-.2,2.1-.2Z"/><path id="PATH_140" d="m625,998.2c0,3-1.6,4.6-4.6,4.6h-1.9v-2.8h1.6c2.3,0,3.5-.5,3.5-1.2s-.5-1.6-1.6-2.8l.9-2.3c0-.2.2-.2.2-.2l.5.5c1,1.2,1.4,2.8,1.4,4.2Zm-1.8,9.7l-1.9,1.9-1.9-1.9,1.9-1.9,1.9,1.9Zm3.9,0l-1.9,1.9-1.9-1.9,1.9-1.9,1.9,1.9Z"/><path id="PATH_141" d="m638.9,1003.1c0,2.3-.7,4.4-2.1,6.5-1.2,1.6-2.3,2.5-3,2.5-1.9,0-3.2,0-4.6-.2-.5,0-.7-.2-.7-.2,0,0,.2-.2.7-.2,1.9-.5,3.7-1.4,5.6-2.8,1.9-1.6,3-3.2,3-4.9,0-.9-.7-2.3-2.3-3.9l1.2-2.1c0-.2.2-.2.2-.2l.2.2c.5.7,1.2,1.6,1.4,2.8.2.6.4,1.5.4,2.5Z"/><path id="PATH_142" d="m657,1002.8h-.9c-.9,0-1.6-.2-2.3-.9-.5-.5-.9-.9-1.4-1.9-.5.9-1.2,1.6-1.9,2.1-.9.5-2.1.7-3.9.7-3.2,0-4.9-1.2-4.9-3.5,0-.7.2-1.6.7-2.3.2-.2.2-.5.5-.5s.2.2.2.5v1.4c0,1.4,1.2,2.1,3.5,2.1,3.2,0,4.9-.7,4.9-1.9,0-.7-.9-3.2-2.8-7.6l.9-1.9c.2-.2.2-.5.2-.5,0,0,.2.2.2.5.7,1.9,1.9,4.6,3.2,8.3.7,1.9,1.6,2.8,3,2.8h.7l.1,2.6h0Z"/><path id="PATH_143" d="m668.3,1002.8h-1.6c-2.1,0-3.5-.7-4.4-2.1-.7,1.4-2.3,2.1-4.9,2.1h-1.4v-2.8h2.1c2.3,0,3.5-.9,3.7-2.5,0-.7.2-1.2.5-1.2.2,0,.5.5.5,1.2.2,1.6,1.4,2.5,3.5,2.5h2.1l-.1,2.8h0Zm-7.6,5.1l-1.9,1.9-1.9-1.9,1.9-1.9,1.9,1.9Zm3.9,0l-1.9,1.9-1.9-1.9,1.9-1.9,1.9,1.9Z"/><path id="PATH_144" d="m686.3,996.1l-.9,1.9c-1.6,0-3,0-3.7.2-.9.5-2.3.9-4.2,1.9s-3.2,1.6-4.2,1.9c-1.4.5-3,.7-4.4.7h-1.6v-2.8h1.9c2.1,0,3.9-.5,5.6-1.2l5.3-2.3c-.9-.2-2.3-.7-4.2-1.4-1.6-.7-2.5-.9-3-.9-.9,0-1.9.5-2.8,1.2q-.2.2-.5.2t-.2-.2v-.2c.7-2.3,2.1-3.2,3.9-3.2.7,0,1.6.2,2.5.7,1.9.9,3.2,1.4,4.2,1.9,1.6.5,3.5.9,5.6.9.5,0,.7,0,.7.2.3.1.3.3,0,.5Z"/><path id="PATH_145" d="m723.3,1002.8h-.9c-1.2,0-2.1-.2-2.5-.7-.7-.5-1.2-1.4-1.2-2.3-2.5,2.3-6.5,3.5-11.8,3.5-5.6,0-8.3-1.6-8.3-5.1,0-1.2.5-2.3,1.4-3.5q.2-.2.5-.2t.2.2v.5c-.2.7-.5,1.4-.5,2.1,0,2.3,2.5,3.5,7.6,3.5,5.8,0,9.7-1.2,11.6-3.7.5-.5.7-.7.9-.7s.2.2.2.5c0,.2,0,.5-.2.9,0,.5-.2.7-.2.9,0,1.2.9,1.9,2.5,1.9h.9v2.3h-.2v-.1Zm-14.3-13.4l-1.9,1.9-1.9-1.9,1.9-1.9,1.9,1.9Zm3.9,0l-1.9,1.9-1.9-1.9,1.9-1.9,1.9,1.9Z"/><path id="PATH_146" d="m728.9,998.2c0,3-1.6,4.6-4.6,4.6h-1.9v-2.8h1.6c2.3,0,3.5-.5,3.5-1.2s-.5-1.6-1.6-2.8l.9-2.3c0-.2.2-.2.2-.2,0,0,.2.2.5.5.9,1.2,1.4,2.8,1.4,4.2Zm-.7,9.7l-1.8,1.9-1.9-1.9,1.9-1.9,1.8,1.9Z"/><path id="PATH_147" d="m743.5,1002.8h-.9c-.9,0-1.4-.2-1.9-.5v.7c0,2.1-.7,4.2-2.1,6.2-1.2,1.9-2.3,2.5-3,2.5-1.9,0-3.2,0-4.6-.2-.5,0-.7-.2-.7-.2,0,0,.2-.2.7-.2,1.9-.5,3.7-1.4,5.6-2.8,1.9-1.6,3-3.2,3-4.9,0-.9-.7-2.3-2.3-3.9l1.2-2.1c0-.2.2-.2.2-.2l.2.2c.7.9,1.2,1.6,1.6,1.9.7.5,1.6.9,2.5.9h.7v2.5l-.2.1h0Z"/><path id="PATH_148" d="m749,998.2c0,3-1.6,4.6-4.6,4.6h-1.9v-2.8h1.6c2.3,0,3.5-.5,3.5-1.2s-.5-1.6-1.6-2.8l.9-2.3c0-.2.2-.2.2-.2,0,0,.2.2.5.5.7,1.2,1.4,2.8,1.4,4.2Zm-2.3-10.2l-1.9,1.9-1.8-1.9,1.8-1.9,1.9,1.9Zm3.9,0l-1.9,1.9-1.9-1.9,1.9-1.9,1.9,1.9Z"/></g><g id="G_149"><path id="PATH_150" d="m396.3,808.3c.2.7.2,1.4.2,2.1,0,.9-.2,1.6-.5,2.5-.7,1.6-1.9,3-4.2,3.9-1.9.7-3.7,1.2-5.8,1.2s-3.7-.5-5.1-1.4c-1.4-1.2-2.1-2.5-2.1-4.6,0-1.2.2-2.1.7-3.5.5-.9.7-1.6,1.2-2.1.2-.2.5-.2.5-.2q.2,0,.2.2v.5c-.7,1.4-.9,2.8-.9,3.9s.5,2.1,1.2,3c.9,1.2,2.5,1.6,4.6,1.6,2.3,0,4.4-.5,6-1.2,1.4-.7,2.3-1.4,2.8-2.3.2-.2.2-.7.2-.9,0-.7-.2-1.4-.5-2.3-.2-.7-.9-1.9-2.1-3.7l.9-1.9c.2-.2.2-.5.2-.5,0,0,.2,0,.2.2,1.4,1.8,2.1,3.7,2.3,5.5Zm-6.7-10.1l-1.9,1.9-1.9-1.9,1.9-1.9,1.9,1.9Z"/><path id="PATH_151" d="m405.8,808.6h-1.6c-1.6,0-3-.7-3.5-2.1-.5-.9-.7-2.5-.7-4.4v-4.4c0-2.1-.2-5.1-.5-9l1.4-1.6c.2-.2.5-.2.5,0,.2,2.1.5,5.1.5,9v6.7c0,1.9.9,2.8,2.8,2.8h1.2v3h-.1Z"/><path id="PATH_152" d="m417.1,808.6h-1.9c-2.1,0-3.5-.7-4.4-2.1-.7,1.4-2.3,2.1-4.9,2.1h-1.4v-2.8h2.1c2.3,0,3.5-.9,3.7-2.5,0-.7.2-1.2.5-1.2s.5.5.5,1.2c.2,1.6,1.4,2.5,3.5,2.5h2.1v2.8h.2Zm-7.8-13.4l-1.9,1.9-1.9-1.9,1.9-1.9,1.9,1.9Zm3.9,0l-1.9,1.9-1.9-1.9,1.9-1.9,1.9,1.9Z"/><path id="PATH_153" d="m438.4,808.6h-1.4c-1.6,0-2.5-.7-3.2-1.9-.5,1.4-1.6,1.9-3,1.9s-2.3-.7-3-1.9c-.7,1.4-1.6,1.9-3,1.9-1.6,0-2.8-.7-3.5-1.9-.9,1.4-2.1,1.9-3.7,1.9h-1.6v-2.8h1.9c1.6,0,2.8-.9,3-2.8,0-.5.2-.7.5-.7s.2.2.5.7c.2,1.9,1.2,2.8,3,2.8,1.6,0,2.8-.9,2.8-2.8,0-.5.2-.7.5-.7.2,0,.5.2.5.7.2,1.9,1.2,2.8,2.3,2.8,1.6,0,2.8-.9,2.8-2.8,0-.5.2-.7.5-.7s.5.2.5.7c.2,1.9,1.2,2.8,2.8,2.8h1.4v2.8h-.6Z"/><path id="PATH_154" d="m458.8,808.6h-2.3c-3,0-4.6-1.6-4.6-4.6v-1.2c-1.2.5-2.5,1.4-4.4,2.5s-3,1.9-3.9,2.3c-1.4.7-3,.9-4.4.9h-1.6v-2.8h1.9c1.9,0,3.9-.5,5.8-1.4.9-.5,2.5-1.4,5.1-2.5-.5,0-1.9-.5-4.2-.9-1.6-.5-2.5-.7-2.8-.7-.9,0-1.9.5-2.8,1.2q-.2.2-.5.2c-.3,0-.2,0-.2-.2v-.2c.7-2.3,2.1-3.5,3.9-3.5.7,0,1.6.2,2.8.5,1.6.5,3,.9,4.2,1.2,1.6.2,3.5.5,5.6.5h.7v.5l-.7,2.1c-1.4,0-2.3,0-2.8.2,0,1.2.2,1.9.5,2.1.5.7,1.4,1.2,3,1.2h2.3v2.8h-.6v-.2Z"/><path id="PATH_155" d="m464.1,803.9c0,3-1.6,4.6-4.6,4.6h-1.9v-2.8h1.6c2.3,0,3.5-.5,3.5-1.2s-.5-1.6-1.6-2.8l.9-2.3c0-.2.2-.2.2-.2l.5.5c.9,1.2,1.4,2.9,1.4,4.2Zm-.7,9.8l-1.9,1.9-1.9-1.9,1.9-1.9,1.9,1.9Z"/></g><g id="G_156"><path id="PATH_157" d="m146.6,848.3c0,3.2-2.1,4.9-6.5,4.9-1.6,0-2.8-.2-3.5-.7-.9-.5-1.4-1.6-1.4-3,0-.7.2-1.4.5-2.1.2-.2.2-.5.5-.5s.2.2.2.7v.7c0,.9.5,1.6,1.4,1.9.5.2,1.4.2,2.5.2,3.5,0,5.1-.5,5.1-1.6,0-1.6-2.1-3.9-6-6.7l.7-2.3c0-.2.2-.2.2-.2,0,0,.2,0,.5.2,3.9,3.2,5.8,6,5.8,8.5Z"/><path id="PATH_158" d="m155.8,853.2h-1.6c-1.6,0-3-.7-3.5-2.1-.5-.9-.7-2.5-.7-4.4v-4.4c0-2.1-.2-5.1-.5-9l1.4-1.6c.2-.2.5-.2.5,0,.2,2.1.5,5.1.5,9v6.7c0,1.9.9,2.8,2.8,2.8h1.2l-.1,3h0Z"/><path id="PATH_159" d="m161.4,848.6c0,3-1.6,4.6-4.6,4.6h-1.9v-2.8h1.6c2.3,0,3.5-.5,3.5-1.2s-.5-1.6-1.6-2.8l.9-2.3c0-.2.2-.2.2-.2l.5.5c.7,1.4,1.4,2.8,1.4,4.2Zm-1,9.7l-1.9,1.9-1.9-1.9,1.9-1.9,1.9,1.9Z"/><path id="PATH_160" d="m170.6,828.5c-.9.9-2.3,1.2-3.7,1.2h-1.8c-.2,0-.5.2-.7.5s-.5.5-.5.5c-.2,0-.2-.2-.2-.5s.2-.7.5-1.2c.2-.7.5-.9.7-.9s.7,0,1.4.2,1.2.2,1.4.2c1.4,0,2.3,0,3-.2.5,0,.7-.2.7-.2h.2c-.5-.1-.8.1-1,.4Zm-1.6,21.9c0,.9-.2,1.9-.7,2.5-.2.5-.5.7-.5.7,0,0-.2-.2-.2-.9,0-2.8-.5-9.3-1.4-19.7l1.9-1.9.2-.2v.5c.7,3.1.7,9.3.7,19Z"/><path id="PATH_161" d="m202.1,853.2h-1.2c-1.2,0-2.1-.5-2.5-1.2,0,1.4-.2,3-.5,5.1-.7,1.6-1.9,3-3.7,3.7-1.6.7-3.2,1.2-5.3,1.2s-3.5-.5-4.6-1.2c-1.4-.9-2.1-2.3-2.1-4.4,0-1.9.5-3.7,1.6-5.1q.2-.2.5-.2c.3,0,.2,0,.2.2v.2c-.5,1.2-.7,2.3-.7,3.2,0,1.4.5,2.5,1.6,3.5.9.7,2.1,1.2,3.7,1.2,1.4,0,3-.2,4.6-.9,2.3-.7,3.2-1.6,3.2-2.8l-.2-11.1c-.2-5.3-.2-9-.5-11.6l1.9-1.6c0,.7.2,3.2.5,7.9l.2,9c0,1.4.9,2.3,2.8,2.3h.7v2.5l-.2.1h0Z"/><path id="PATH_162" d="m213.4,853.2h-1.9c-2.1,0-3.5-.7-4.4-2.1-.7,1.4-2.3,2.1-4.9,2.1h-1.4v-2.8h2.1c2.3,0,3.5-.9,3.7-2.5,0-.7.2-1.2.5-1.2s.5.5.5,1.2c.2,1.6,1.4,2.5,3.5,2.5h2.1v2.8h.2Zm-7.6,5.1l-1.9,1.9-1.9-1.9,1.9-1.9,1.9,1.9Zm4.1,0l-1.9,1.9-1.9-1.9,1.9-1.9,1.9,1.9Z"/><path id="PATH_163" d="m222,853.2h-.9c-2.1,0-3.5-.7-4.2-2.3-.2.7-.7,1.2-1.4,1.6-.7.5-1.4.7-2.1.7h-.9v-2.8h.9c1.9,0,2.8-.7,2.8-2.3v-8.1c0-3,0-5.3-.2-6.9l2.1-1.6v15.5c0,2.3.9,3.5,3,3.5h.9v2.7h0Z"/><path id="PATH_164" d="m240,846.5l-.9,1.9c-1.6,0-3,0-3.7.2-.9.5-2.3.9-4.2,1.9-1.9.9-3.2,1.6-4.2,1.9-1.4.5-3,.7-4.4.7h-1.6v-2.8h1.9c2.1,0,3.9-.5,5.6-1.2l5.3-2.3c-.9-.2-2.3-.7-4.2-1.4-1.6-.7-2.5-.9-3-.9-.9,0-1.9.5-2.8,1.2q-.2.2-.5.2c-.3,0-.2,0-.2-.2v-.2c.7-2.3,2.1-3.2,3.9-3.2.7,0,1.6.2,2.5.7,1.9.9,3.2,1.4,4.2,1.9,1.6.5,3.5.9,5.6.9.5,0,.7,0,.7.2.2,0,.2.3,0,.5Zm-6.5-10.4l-1.9,1.9-1.9-1.9,1.9-1.9,1.9,1.9Z"/></g><g id="G_165"><path id="PATH_166" d="m300.8,660.6h-1.2c-1.2,0-1.9,0-2.3-.2,0,.7.2,1.2.2,1.9,0,1.2-.2,1.9-.5,2.5-.7,1.6-1.9,3-4.2,3.9-1.9.7-3.7,1.2-5.8,1.2s-3.7-.5-5.1-1.4c-1.4-1.2-2.1-2.5-2.1-4.6,0-1.2.2-2.1.7-3.5.5-.9.7-1.6,1.2-2.1.2-.2.5-.2.5-.2q.2,0,.2.2v.5c-.7,1.4-.9,2.8-.9,3.9s.5,2.1,1.2,3c.9,1.2,2.5,1.6,4.6,1.6,2.3,0,4.4-.5,6-1.2,1.4-.7,2.3-1.4,2.8-2.3.2-.2.2-.7,0-1.6,0-.7-.2-1.4-.2-1.6-.2-.7-1.2-1.9-2.3-3.5l.9-1.9c.2-.2.2-.5.2-.5,0,0,.2,0,.2.2,1.2,1.9,2.3,2.8,3.7,2.8h1.9v2.8l.3.1h0Zm-10.2-10.4l-1.9,1.9-1.9-1.9,1.9-1.9,1.9,1.9Z"/><path id="PATH_167" d="m316.8,660.6h-1.6c-1.2,0-2.3-.7-3.7-1.9-.7-.7-1.6-1.9-2.8-3.5.2,3.7-1.9,5.6-6.2,5.6h-2.5v-2.8h3c3,0,4.6-.9,4.6-2.5,0-.9-.5-2.1-1.6-3.5-.7-.9-1.6-1.9-3-3-1.2-.9-1.6-1.6-1.6-1.6,0-1.6.2-2.8.7-3.5,0-.2,1.6-.7,4.6-1.9s5.8-2.1,8.3-2.8c0,.2-.2,1.2-.7,2.5-3,.9-6.7,2.3-11.3,4.2,2.1,1.9,4.9,4.9,7.9,9,1.2,1.4,2.1,2.3,2.8,2.8.5.2,1.4.5,2.3.5h.9v2.4h-.1Z"/><path id="PATH_168" d="m335,655.7c0,1.4-.2,2.5-.9,3.5-.7.9-1.9,1.6-3,1.6-1.6,0-2.5-.7-3.2-1.9-.9,1.4-1.9,1.9-3.2,1.9-1.6,0-2.8-.7-3.5-1.9-.9,1.4-2.1,1.9-3.7,1.9h-1.6v-2.8h1.9c1.6,0,2.8-.9,3-2.8,0-.5.2-.7.5-.7s.2.2.5.7c.2,1.9,1.2,2.8,3,2.8.9,0,1.9-.2,2.3-.7.2-.5.5-.9.7-1.9,0-.5.2-.7.5-.7.2,0,.2.2.5.7.2,1.9,1.2,2.8,2.8,2.8,1.9,0,2.5-.5,2.5-1.2s-.5-1.6-1.4-2.5l1.2-2.1c.2-.2.2-.5.5-.5.2,0,.2.2.5.5-.3,1,.1,2.2.1,3.3Z"/><path id="PATH_169" d="m349.1,655.7c0,3.2-2.1,4.9-6.5,4.9-1.6,0-2.8-.2-3.5-.7-.9-.5-1.4-1.6-1.4-3,0-.7.2-1.4.5-2.1.2-.2.2-.5.5-.5s.2.2.2.7v.7c0,.9.5,1.6,1.4,1.9.5.2,1.4.2,2.5.2,3.5,0,5.1-.5,5.1-1.6,0-1.6-2.1-3.9-6-6.7l.7-2.3c0-.2.2-.2.2-.2,0,0,.2,0,.5.2,4,3,5.8,6,5.8,8.5Z"/><path id="PATH_170" d="m363.7,660.6h-.9c-.9,0-1.4-.2-1.9-.5v.7c0,2.1-.7,4.2-2.1,6.2-1.2,1.9-2.3,2.5-3,2.5-1.9,0-3.2,0-4.6-.2-.5,0-.7-.2-.7-.2,0,0,.2-.2.7-.2,1.9-.5,3.7-1.4,5.6-2.8,1.9-1.6,3-3.2,3-4.9,0-.9-.7-2.3-2.3-3.9l1.2-2.1c0-.2.2-.2.2-.2l.2.2c.7.9,1.2,1.6,1.6,1.9.7.5,1.6.9,2.5.9h.7v2.5l-.2.1h0Z"/><path id="PATH_171" d="m369,655.9c0,3-1.6,4.6-4.6,4.6h-1.9v-2.8h1.6c2.3,0,3.5-.5,3.5-1.2s-.5-1.6-1.6-2.8l.9-2.3c0-.2.2-.2.2-.2l.5.5c1,1.2,1.4,2.9,1.4,4.2Zm-.7,9.8l-1.9,1.9-1.9-1.9,1.9-1.9,1.9,1.9Z"/></g><g id="G_172"><path id="PATH_173" d="m497.2,605.8h-.9c-.9,0-1.4-.2-1.9-.5v.7c0,2.1-.7,4.2-2.1,6.2-1.2,1.9-2.3,2.5-3,2.5-1.9,0-3.2,0-4.6-.2-.5,0-.7-.2-.7-.2,0,0,.2-.2.7-.2,1.9-.5,3.7-1.4,5.6-2.8,1.9-1.6,3-3.2,3-4.9,0-.9-.7-2.3-2.3-3.9l1.2-2.1c0-.2.2-.2.2-.2l.2.2c.7.9,1.2,1.6,1.6,1.9.7.5,1.6.9,2.5.9h.7v2.5l-.2.1h0Z"/><path id="PATH_174" d="m513.8,605.8h-1.4c-1.2,0-2.3-.7-3.2-1.9-.7,1.9-1.4,2.8-2.1,2.8s-1.9-.5-3.2-1.2c-1.2-.7-2.1-1.4-2.5-1.9-1.2,1.4-2.3,2.1-3.5,2.1h-1.4v-2.8h1.4c1.2,0,2.1-.5,3-1.4.7-.7,1.4-1.6,2.3-2.5s1.6-1.4,2.3-1.4c.9,0,1.6.5,2.3,1.4.5.5.9,1.4,2.1,2.5.7.9,1.6,1.4,2.5,1.4h1.4v2.9h0Zm-6.2-1.9c0-.7-.2-1.4-.7-2.3-.5-.9-1.2-1.4-2.1-1.4-.7,0-1.6.7-2.5,1.9.2.2.9.7,2.1,1.4s2.1.9,2.8.9c.1,0,.4-.3.4-.5Z"/><path id="PATH_175" d="m532.1,600.9c0,1.4-.2,2.5-.9,3.5-.7.9-1.9,1.6-3,1.6-1.6,0-2.5-.7-3.2-1.9-.9,1.4-1.9,1.9-3.2,1.9-1.6,0-2.8-.7-3.5-1.9-.9,1.4-2.1,1.9-3.7,1.9h-1.6v-2.8h1.9c1.6,0,2.8-.9,3-2.8,0-.5.2-.7.5-.7s.2.2.5.7c.2,1.9,1.2,2.8,3,2.8.9,0,1.9-.2,2.3-.7.2-.5.5-.9.7-1.9,0-.5.2-.7.5-.7s.2.2.5.7c.2,1.9,1.2,2.8,2.8,2.8,1.9,0,2.5-.5,2.5-1.2s-.5-1.6-1.4-2.5l1.2-2.1c.2-.2.2-.5.5-.5.2,0,.2.2.5.5-.4,1,.1,2.4.1,3.3Zm-7.9-8.6l-1.6,1.6-1.6-1.6,1.6-1.6,1.6,1.6Zm2.1-3.4l-1.6,1.6-1.6-1.6,1.6-1.6,1.6,1.6Zm2.1,3.4l-1.6,1.6-1.6-1.6,1.6-1.6,1.6,1.6Z"/><path id="PATH_176" d="m541.3,605.8h-1.6c-1.6,0-3-.7-3.5-2.1-.5-.9-.7-2.5-.7-4.4v-4.4c0-2.1-.2-5.1-.5-9l1.4-1.6c.2-.2.5-.2.5,0,.2,2.1.5,5.1.5,9v6.7c0,1.9.9,2.8,2.8,2.8h1.2v3h-.1Z"/><path id="PATH_177" d="m555.7,584.5c0,.5-.5,1.4-.9,2.5l-5.8,1.9c-2.5.9-4.4,1.6-5.3,2.1,1.9,1.9,3,3.2,3.7,3.9,1.2,1.6,1.9,3,2.1,4.6,0,1.2,0,2.3-.5,3.2-.7,2.1-3.2,3-7.2,3h-1.2v-2.8h1.4c1.9,0,3.2,0,3.9-.2,1.6-.5,2.5-1.2,2.5-2.3,0-1.6-1.2-3.5-3.7-5.8l-.2.5c-.2-.2-.7-.7-1.2-1.4-.7-.7-.9-1.4-.9-1.4,0-.5,0-.9.2-1.9.2-.9.5-1.4.7-1.6.2-.2,1.9-.9,4.9-1.9,2.6-1,5.4-2,7.5-2.4Z"/></g><g id="G_178"><path id="PATH_179" d="m279.3,512.1c0,2.3-.7,4.4-2.1,6.5-1.2,1.6-2.3,2.5-3,2.5-1.9,0-3.2,0-4.6-.2-.5,0-.7-.2-.7-.2,0,0,.2-.2.7-.2,1.9-.5,3.7-1.4,5.6-2.8,1.9-1.6,3-3.2,3-4.9,0-.9-.7-2.3-2.3-3.9l1.2-2.1c0-.2.2-.2.2-.2l.2.2c.5.7,1.2,1.6,1.4,2.8.2.6.4,1.6.4,2.5Z"/><path id="PATH_180" d="m284.9,508.9c0,.9-.2,1.9-.7,2.5-.2.5-.5.7-.5.7,0,0-.2-.2-.2-.9,0-2.8-.5-9.3-1.4-19.7l1.9-1.9.2-.2v.5c.4,3.2.7,9.5.7,19Z"/><path id="PATH_181" d="m296.7,510.9c0,3.5-1.2,6.5-3.5,8.8-.7.7-1.2,1.2-1.4,1.2-1.4,0-2.8-.2-4.4-.5-.7,0-.9-.2-.9-.2,0,0,.2-.2.9-.5,1.9-.5,3.7-1.6,5.3-3,.7-.7,1.4-1.2,1.9-2.1.7-.9,1.2-1.9,1.2-2.5v-.7h-3c-2.1,0-3.2-.9-3.2-2.5,0-1.2.2-2.3.9-3.7s1.6-2.3,2.5-2.3c1.4,0,2.5.9,3.2,3,.2,1.6.5,3.2.5,5Zm-1.7-2c0-.7-.2-1.4-.7-2.1-.5-.7-1.2-1.2-1.9-1.2-.5,0-.9.2-1.2.5-.5.5-.5.7-.5,1.2,0,1.2.7,1.6,2.3,1.6.4.2,1.1.2,2,0Z"/><path id="PATH_182" d="m311,511.9h-.9c-.9,0-1.4-.2-1.9-.5v.7c0,2.1-.7,4.2-2.1,6.2-1.2,1.9-2.3,2.5-3,2.5-1.9,0-3.2,0-4.6-.2-.5,0-.7-.2-.7-.2,0,0,.2-.2.7-.2,1.9-.5,3.7-1.4,5.6-2.8,1.9-1.6,3-3.2,3-4.9,0-.9-.7-2.3-2.3-3.9l1.2-2.1c0-.2.2-.2.2-.2l.2.2c.7.9,1.2,1.6,1.6,1.9.7.5,1.6.9,2.5.9h.7v2.5l-.2.1h0Zm-4.4-12.3l-1.9,1.9-1.9-1.9,1.9-1.9,1.9,1.9Z"/><path id="PATH_183" d="m322.6,511.9h-1.9c-2.1,0-3.5-.7-4.4-2.1-.7,1.4-2.3,2.1-4.9,2.1h-1.4v-2.8h2.1c2.3,0,3.5-.9,3.7-2.5,0-.7.2-1.2.5-1.2s.5.5.5,1.2c.2,1.6,1.4,2.5,3.5,2.5h2.1v2.8h.2Zm-5.1,5l-1.9,1.9-1.9-1.9,1.9-1.9,1.9,1.9Z"/><path id="PATH_184" d="m340.6,506.8c0,1.4-.2,2.5-.9,3.5-.7.9-1.9,1.6-3,1.6-1.6,0-2.5-.7-3.2-1.9-.9,1.4-1.9,1.9-3.2,1.9-1.6,0-2.8-.7-3.5-1.9-.9,1.4-2.1,1.9-3.7,1.9h-1.7v-2.8h1.9c1.6,0,2.8-.9,3-2.8,0-.5.2-.7.5-.7s.2.2.5.7c.2,1.9,1.2,2.8,3,2.8.9,0,1.9-.2,2.3-.7.2-.5.5-.9.7-1.9,0-.5.2-.7.5-.7s.2.2.5.7c.2,1.9,1.2,2.8,2.8,2.8,1.9,0,2.5-.5,2.5-1.2s-.5-1.6-1.4-2.5l1.2-2.1c.2-.2.2-.5.5-.5.2,0,.2.2.5.5,0,1.2.2,2.3.2,3.3Z"/></g><g id="G_185"><path id="PATH_186" d="m190.7,399.5c.2.7.2,1.4.2,2.1,0,.9-.2,1.6-.5,2.5-.7,1.6-1.9,3-4.2,3.9-1.9.7-3.7,1.2-5.8,1.2s-3.7-.5-5.1-1.4c-1.4-1.2-2.1-2.5-2.1-4.6,0-1.2.2-2.1.7-3.5.5-.9.7-1.6,1.2-2.1.2-.2.5-.2.5-.2q.2,0,.2.2v.5c-.7,1.4-.9,2.8-.9,3.9s.5,2.1,1.2,3c.9,1.2,2.5,1.6,4.6,1.6,2.3,0,4.4-.5,6-1.2,1.4-.7,2.3-1.4,2.8-2.3.2-.2.2-.7.2-.9,0-.7-.2-1.4-.5-2.3-.2-.7-.9-1.9-2.1-3.7l.9-1.9c.2-.2.2-.5.2-.5,0,0,.2,0,.2.2,1.4,2,1.9,3.6,2.3,5.5Zm-6.9-10l-1.9,1.9-1.9-1.9,1.9-1.9,1.9,1.9Z"/><path id="PATH_187" d="m202.5,399.9c0,2.3-.7,4.4-2.1,6.5-1.2,1.6-2.3,2.5-3,2.5-1.9,0-3.2,0-4.6-.2-.5,0-.7-.2-.7-.2,0,0,.2-.2.7-.2,1.9-.5,3.7-1.4,5.6-2.8,1.9-1.6,3-3.2,3-4.9,0-.9-.7-2.3-2.3-3.9l1.2-2.1c0-.2.2-.2.2-.2l.2.2c.5.7,1.2,1.6,1.4,2.8.2.9.4,1.8.4,2.5Zm-1.6-12.2l-1.9,1.9-1.9-1.9,1.9-1.9,1.9,1.9Z"/><path id="PATH_188" d="m214.3,399.9c0,2.3-.7,4.4-2.1,6.5-1.2,1.6-2.3,2.5-3,2.5-1.9,0-3.2,0-4.6-.2-.5,0-.7-.2-.7-.2,0,0,.2-.2.7-.2,1.9-.5,3.7-1.4,5.6-2.8,1.9-1.6,3-3.2,3-4.9,0-.9-.7-2.3-2.3-3.9l1.2-2.1c0-.2.2-.2.2-.2l.2.2c.5.7,1.2,1.6,1.4,2.8.2.9.4,1.8.4,2.5Z"/><path id="PATH_189" d="m226.1,399c0,3.5-1.2,6.5-3.5,8.8-.7.7-1.2,1.2-1.4,1.2-1.4,0-2.8-.2-4.4-.5-.7,0-.9-.2-.9-.2,0,0,.2-.2.9-.5,1.9-.5,3.7-1.6,5.3-3,.7-.7,1.4-1.2,1.9-2.1.7-.9,1.2-1.9,1.2-2.5v-.7h-3c-2.1,0-3.2-.9-3.2-2.5,0-1.2.2-2.3.9-3.7s1.6-2.3,2.5-2.3c1.4,0,2.5.9,3.2,3,.3,1.5.5,3.2.5,5Zm-1.6-2.1c0-.7-.2-1.4-.7-2.1s-1.2-1.2-1.9-1.2c-.5,0-.9.2-1.2.5-.5.5-.5.7-.5,1.2,0,1.2.7,1.6,2.3,1.6.4.3,1.1.3,2,0Z"/><path id="PATH_190" d="m231.7,396.9c0,.9-.2,1.9-.7,2.5-.2.5-.5.7-.5.7,0,0-.2-.2-.2-.9,0-2.8-.5-9.3-1.4-19.7l1.9-1.9.2-.2v.5c.4,3.3.7,9.5.7,19Z"/><path id="PATH_191" d="m245.8,395.1c0,3.2-2.1,4.9-6.5,4.9-1.6,0-2.8-.2-3.5-.7-.9-.5-1.4-1.6-1.4-3,0-.7.2-1.4.5-2.1.2-.2.2-.5.5-.5s.2.2.2.7v.7c0,.9.5,1.6,1.4,1.9.5.2,1.4.2,2.5.2,3.5,0,5.1-.5,5.1-1.6,0-1.6-2.1-3.9-6-6.7l.7-2.3c0-.2.2-.2.2-.2,0,0,.2,0,.5.2,3.9,2.9,5.8,5.7,5.8,8.5Z"/></g><g id="G_192"><path id="PATH_193" d="m21.2,333.8v.7s-.2,0-.7-.2c-.7-.5-1.6-.7-2.8-.7-1.6,0-3,.7-4.2,1.9s-1.6,1.9-1.6,2.5c0,.7,1.2,1.4,3.2,1.6,2.3.5,3.7.9,4.2,1.6,0,.2.2.5.2.7,0,1.2-.5,2.5-1.2,3.9-.5.9-1.6,1.6-3.5,2.3-2.3.9-4.6,1.4-7.6,1.4-2.1,0-3.7-.5-5.1-1.6-1.4-1.2-2.1-2.8-2.1-4.6,0-2.1.7-4.2,2.1-6,.2-.2.5-.5.7-.5s.2,0,.2.2,0,.2-.2.7c-.9,1.6-1.4,3.2-1.4,4.6,0,1.2.5,2.1,1.2,2.8,1.2,1.2,2.8,1.6,4.9,1.6,1.9,0,3.9-.2,6-.7,3-.7,4.6-1.6,4.6-2.8,0-.5-1.4-.9-4.4-1.6-1.2-.2-1.9-.5-2.3-.7-.5-.2-.9-.9-.9-1.6,0-1.6.7-3.2,2.3-5.3,1.6-2.1,3.5-3.2,5.1-3.2,1.7.2,2.9,1.1,3.3,3Z"/><path id="PATH_194" d="m30.5,342.1h-1.6c-1.6,0-3-.7-3.5-2.1-.5-.9-.7-2.5-.7-4.4v-4.4c0-2.1-.2-5.1-.5-9l1.4-1.6c.2-.2.5-.2.5,0,.2,2.1.5,5.1.5,9v6.7c0,1.9.9,2.8,2.8,2.8h1.2c-.1,0-.1,3-.1,3Z"/><path id="PATH_195" d="m41.8,342.1h-1.9c-2.1,0-3.5-.7-4.4-2.1-.7,1.4-2.3,2.1-4.9,2.1h-1.4v-2.8h2.1c2.3,0,3.5-.9,3.7-2.5,0-.7.2-1.2.5-1.2.2,0,.5.5.5,1.2.2,1.6,1.4,2.5,3.5,2.5h2.1v2.8h.2Zm-7.9-13.4l-1.9,1.9-1.9-1.9,1.9-1.9,1.9,1.9Zm4,0l-1.9,1.9-1.9-1.9,1.9-1.9,1.9,1.9Z"/><path id="PATH_196" d="m54.7,342.1h-1.3c-1.9,0-3.5-.5-4.6-1.6,0-.2-.2-.2-.5-.7l-.7.7c-1.4,1.2-3,1.6-4.9,1.6h-1.9v-2.8h2.3c1.6,0,2.8-.2,3.5-.9-.2-.5-.5-.9-.9-1.4-.5-.5-.9-.9-1.2-.9-.5-.2-.7-.2-.7-.5,0,0,0-.2.2-.5.7-1.4,1.9-2.1,3.9-2.1,2.5,0,3.9.7,3.9,2.3,0,.7-.7,1.6-2.1,3,.2.2.9.7,1.6.9.7.2,1.2.2,1.9.2h1.9v2.5h-.4v.2h0Zm-5-16.2l-1.9,1.9-1.9-1.9,1.9-1.9,1.9,1.9Z"/><path id="PATH_197" d="m72.8,335.4l-.9,1.9c-1.6,0-3,0-3.7.2-.9.5-2.3.9-4.2,1.9-1.9.9-3.2,1.6-4.2,1.9-1.4.5-3,.7-4.4.7h-1.6v-2.8h1.9c2.1,0,3.9-.5,5.6-1.2l5.3-2.3c-.9-.2-2.3-.7-4.2-1.4-1.6-.7-2.5-.9-3-.9-.9,0-1.9.5-2.8,1.2q-.2.2-.5.2c-.3,0-.2,0-.2-.2v-.2c.7-2.3,2.1-3.2,3.9-3.2.7,0,1.6.2,2.5.7,1.9.9,3.2,1.4,4.2,1.9,1.6.5,3.5.9,5.6.9.5,0,.7,0,.7.2.2,0,.2.3,0,.5Zm-7.6,11.6l-1.9,1.9-1.9-1.9,1.9-1.9,1.9,1.9Z"/></g><g id="G_198"><path id="PATH_199" d="m279.1,329.9h-1.2c-1.2,0-1.9,0-2.3-.2,0,.7.2,1.2.2,1.9,0,1.2-.2,1.9-.5,2.5-.7,1.6-1.9,3-4.2,3.9-1.9.7-3.7,1.2-5.8,1.2s-3.7-.5-5.1-1.4c-1.4-1.2-2.1-2.5-2.1-4.6,0-1.2.2-2.1.7-3.5.5-.9.7-1.6,1.2-2.1.2-.2.5-.2.5-.2q.2,0,.2.2v.5c-.7,1.4-.9,2.8-.9,3.9s.5,2.1,1.2,3c.9,1.2,2.5,1.6,4.6,1.6,2.3,0,4.4-.5,6-1.2,1.4-.7,2.3-1.4,2.8-2.3.2-.2.2-.7,0-1.6,0-.7-.2-1.4-.2-1.6-.2-.7-1.2-1.9-2.3-3.5l.9-1.9c.2-.2.2-.5.2-.5,0,0,.2,0,.2.2,1.2,1.9,2.3,2.8,3.7,2.8h1.9v2.8h.3v.1h0Zm-10.2-10.4l-1.9,1.9-1.9-1.9,1.9-1.9,1.9,1.9Z"/><path id="PATH_200" d="m284.6,325.2c0,3-1.6,4.6-4.6,4.6h-1.9v-2.8h1.6c2.3,0,3.5-.5,3.5-1.2s-.5-1.6-1.6-2.8l.9-2.3c0-.2.2-.2.2-.2l.5.5c1,1.2,1.4,2.6,1.4,4.2Zm-1.8,9.7l-1.9,1.9-1.9-1.9,1.9-1.9,1.9,1.9Zm3.9,0l-1.9,1.9-1.9-1.9,1.9-1.9,1.9,1.9Z"/><path id="PATH_201" d="m301.3,329.9h-2.5c-.2,3.2-1.4,5.8-3.7,8.1-.7.7-1.2,1.2-1.4,1.2-1.2,0-2.8-.2-4.4-.5-.5,0-.9-.2-.9-.2,0,0,.2-.2.9-.5,1.9-.5,3.7-1.6,5.3-2.8.7-.7,1.4-1.2,1.9-2.1.7-.9,1.2-1.9,1.2-2.5v-.7h-3c-2.3,0-3.2-.9-3.2-2.8,0-1.2.2-2.3.9-3.7.7-1.4,1.6-2.3,2.5-2.3,1.2,0,2.1.7,2.8,2.3.5,1.2.9,2.3.9,3.7h2.5v2.8h.2Zm-4.2-2.8c0-.7-.2-1.4-.7-2.1-.5-.9-1.2-1.2-1.9-1.2-.5,0-.9.2-1.2.5-.5.5-.5.7-.5,1.4,0,1.2.9,1.6,2.8,1.6.1-.2.8-.2,1.5-.2Z"/><path id="PATH_202" d="m319.3,323.2l-.9,1.9c-1.6,0-3,0-3.7.2-.9.5-2.3.9-4.2,1.9-1.9.9-3.2,1.6-4.2,1.9-1.4.5-3,.7-4.4.7h-1.5v-2.9h1.9c2.1,0,3.9-.5,5.6-1.2l5.3-2.3c-.9-.2-2.3-.7-4.2-1.4-1.6-.7-2.5-.9-3-.9-.9,0-1.9.5-2.8,1.2q-.2.2-.5.2t-.2-.2v-.2c.7-2.3,2.1-3.2,3.9-3.2.7,0,1.6.2,2.5.7,1.9.9,3.2,1.4,4.2,1.9,1.6.5,3.5.9,5.6.9.5,0,.7,0,.7.2q.1.1-.1.6Zm-7.6,11.3l-1.9,1.9-1.9-1.9,1.9-1.9,1.9,1.9Z"/></g><g id="G_203"><path id="PATH_204" d="m346.8,233c0,1.6-.5,3-1.6,3.7-.7.5-2.1.9-4.2,1.2-2.3.5-4.6.7-7.2.7-6,0-9.3-1.6-9.3-5.1,0-1.2.5-2.3,1.4-3.5.2-.2.2-.5.5-.5q.2,0,.2.2v.5c-.2.7-.5,1.4-.5,2.1,0,2.3,3,3.5,8.8,3.5,2.8,0,5.3-.2,7.2-.5,2.3-.5,3.2-.9,3.2-1.6,0-.5-.5-1.4-1.6-2.8l1.2-2.1q.2-.2.5,0c1,1.6,1.4,3,1.4,4.2Zm-9.2,10.4l-1.9,1.9-1.9-1.9,1.9-1.9,1.9,1.9Z"/><path id="PATH_205" d="m355.9,238h-1.4c-1.6,0-3-.7-3.5-2.1-.5-.9-.7-2.5-.7-4.4v-4.4c0-2.1-.2-5.1-.5-9l1.4-1.6c.2-.2.5-.2.5,0,.2,2.1.5,5.1.5,9v6.7c0,1.9.9,2.8,2.8,2.8h1.2v3h-.3Z"/><path id="PATH_206" d="m374.1,233.2c0,1.4-.2,2.5-.9,3.5-.7.9-1.9,1.6-3,1.6-1.6,0-2.5-.7-3.2-1.9-.9,1.4-1.9,1.9-3.2,1.9-1.6,0-2.8-.7-3.5-1.9-.9,1.4-2.1,1.9-3.7,1.9h-1.6v-2.8h1.9c1.6,0,2.8-.9,3-2.8,0-.5.2-.7.5-.7s.2.2.5.7c.2,1.9,1.2,2.8,3,2.8.9,0,1.9-.2,2.3-.7.2-.5.5-.9.7-1.9,0-.5.2-.7.5-.7.2,0,.2.2.5.7.2,1.9,1.2,2.8,2.8,2.8,1.9,0,2.5-.5,2.5-1.2s-.5-1.6-1.4-2.5l1.2-2.1c.2-.2.2-.5.5-.5.2,0,.2.2.5.5-.1,1,.1,2.4.1,3.3Zm-7.8-8.6l-1.6,1.6-1.6-1.6,1.6-1.6,1.6,1.6Zm2-3.4l-1.6,1.6-1.6-1.6,1.6-1.6,1.6,1.6Zm2.1,3.4l-1.6,1.6-1.6-1.6,1.6-1.6,1.6,1.6Z"/><path id="PATH_207" d="m388.7,238h-2.5c-.2,3.2-1.4,5.8-3.7,8.1-.7.7-1.2,1.2-1.4,1.2-1.2,0-2.8-.2-4.4-.5-.5,0-.9-.2-.9-.2,0,0,.2-.2.9-.5,1.9-.5,3.7-1.6,5.3-2.8.7-.7,1.4-1.2,1.9-2.1.7-.9,1.2-1.9,1.2-2.5v-.7h-3c-2.3,0-3.2-.9-3.2-2.8,0-1.2.2-2.3.9-3.7s1.6-2.3,2.5-2.3c1.2,0,2.1.7,2.8,2.3.5,1.2.9,2.3.9,3.7h2.5v2.8h.2Zm-4.2-2.5c0-.7-.2-1.4-.7-2.1-.5-.9-1.2-1.2-1.9-1.2-.5,0-.9.2-1.2.5-.5.5-.5.7-.5,1.4,0,1.2.9,1.6,2.8,1.6.1-.2.8-.2,1.5-.2Z"/><path id="PATH_208" d="m406.7,231.3l-.9,1.9c-1.6,0-3,0-3.7.2-.9.5-2.3.9-4.2,1.9-1.9.9-3.2,1.6-4.2,1.9-1.4.5-3,.7-4.4.7h-1.6v-2.8h1.9c2.1,0,3.9-.5,5.6-1.2l5.3-2.3c-.9-.2-2.3-.7-4.2-1.4-1.6-.7-2.5-.9-3-.9-.9,0-1.9.5-2.8,1.2q-.2.2-.5.2c-.3,0-.2,0-.2-.2v-.2c.7-2.3,2.1-3.2,3.9-3.2.7,0,1.6.2,2.5.7,1.9.9,3.2,1.4,4.2,1.9,1.6.5,3.5.9,5.6.9.5,0,.7,0,.7.2.3.1,0,.3,0,.5Zm-6.7-10.4l-1.9,1.9-1.9-1.9,1.9-1.9,1.9,1.9Z"/></g><g id="G_209"><path id="PATH_210" d="m466.2,384.2c.2.7.2,1.4.2,2.1,0,.9-.2,1.6-.5,2.5-.7,1.6-1.9,3-4.2,3.9-1.9.7-3.7,1.2-5.8,1.2s-3.7-.5-5.1-1.4c-1.4-1.2-2.1-2.5-2.1-4.6,0-1.2.2-2.1.7-3.5.5-.9.7-1.6,1.2-2.1.2-.2.5-.2.5-.2q.2,0,.2.2v.5c-.7,1.4-.9,2.8-.9,3.9s.5,2.1,1.2,3c.9,1.2,2.5,1.6,4.6,1.6,2.3,0,4.4-.5,6-1.2,1.4-.7,2.3-1.4,2.8-2.3.2-.2.2-.7.2-.9,0-.7-.2-1.4-.5-2.3-.2-.7-.9-1.9-2.1-3.7l.9-1.9c.2-.2.2-.5.2-.5,0,0,.2,0,.2.2,1.3,1.8,2,3.7,2.3,5.5Zm-6.7-10.2l-1.9,1.9-1.9-1.9,1.9-1.9,1.9,1.9Z"/><path id="PATH_211" d="m471.9,381.7c0,.9-.2,1.9-.7,2.5-.2.5-.5.7-.5.7,0,0-.2-.2-.2-.9,0-2.8-.5-9.3-1.4-19.7l1.9-1.9.2-.2v.5c.5,3.2.7,9.5.7,19Z"/><path id="PATH_212" d="m483.5,384.7c0,2.3-.7,4.4-2.1,6.5-1.2,1.6-2.3,2.5-3,2.5-1.9,0-3.2,0-4.6-.2-.5,0-.7-.2-.7-.2,0,0,.2-.2.7-.2,1.9-.5,3.7-1.4,5.6-2.8,1.9-1.6,3-3.2,3-4.9,0-.9-.7-2.3-2.3-3.9l1.2-2.1c0-.2.2-.2.2-.2l.2.2c.5.7,1.2,1.6,1.4,2.8.2.6.4,1.8.4,2.5Zm-1.6-12.5l-1.9,1.9-1.9-1.9,1.9-1.9,1.9,1.9Z"/><path id="PATH_213" d="m495.5,383.5c0,3.5-1.2,6.5-3.5,8.8-.7.7-1.2,1.2-1.4,1.2-1.4,0-2.8-.2-4.4-.5-.7,0-.9-.2-.9-.2,0,0,.2-.2.9-.5,1.9-.5,3.7-1.6,5.3-3,.7-.7,1.4-1.2,1.9-2.1.7-.9,1.2-1.9,1.2-2.5v-.7h-3c-2.1,0-3.2-.9-3.2-2.5,0-1.2.2-2.3.9-3.7s1.6-2.3,2.5-2.3c1.4,0,2.5.9,3.2,3,.3,1.8.5,3.2.5,5Zm-1.6-1.8c0-.7-.2-1.4-.7-2.1s-1.2-1.2-1.9-1.2c-.5,0-.9.2-1.2.5-.5.5-.5.7-.5,1.2,0,1.2.7,1.6,2.3,1.6.4.2,1.1,0,2,0Z"/><path id="PATH_214" d="m509.9,384.4h-.9c-.9,0-1.4-.2-1.9-.5v.7c0,2.1-.7,4.2-2.1,6.2-1.2,1.9-2.3,2.5-3,2.5-1.9,0-3.2,0-4.6-.2-.5,0-.7-.2-.7-.2,0,0,.2-.2.7-.2,1.9-.5,3.7-1.4,5.6-2.8,1.9-1.6,3-3.2,3-4.9,0-.9-.7-2.3-2.3-3.9l1.2-2.1c0-.2.2-.2.2-.2l.2.2c.7.9,1.2,1.6,1.6,1.9.7.5,1.6.9,2.5.9h.7v2.5h-.2v.1Z"/><path id="PATH_215" d="m521.2,384.4h-1.8c-2.1,0-3.5-.7-4.4-2.1-.7,1.4-2.3,2.1-4.9,2.1h-1.4v-2.8h2.1c2.3,0,3.5-.9,3.7-2.5,0-.7.2-1.2.5-1.2s.5.5.5,1.2c.2,1.6,1.4,2.5,3.5,2.5h2.1v2.8h.1Zm-7.6,5.1l-1.9,1.9-1.9-1.9,1.9-1.9,1.9,1.9Zm4.1,0l-1.9,1.9-1.9-1.9,1.9-1.9,1.9,1.9Z"/><path id="PATH_216" d="m530.2,378v.9c0,1.6-.2,2.5-.7,3.2-1.2,1.6-3,2.3-6,2.3h-3.2v-2.8h2.3c3.9,0,6-.7,6.5-1.9v-.5c0-.5,0-.7-.2-.9-.9.2-2.1.2-3,.2-2.1,0-3.2-.9-3.2-2.8,0-1.2.2-2.5.9-3.7.7-1.4,1.6-2.1,2.8-2.1.9,0,1.9.7,2.5,1.9.9,2,1.3,3.8,1.3,6.2Zm-2.5-12.8l-1.9,1.9-1.9-1.9,1.9-1.9,1.9,1.9Zm.9,10.7c0-.7-.2-1.4-.7-2.1s-1.2-.9-1.9-.9c-.5,0-.9.2-1.4.5-.2.2-.5.7-.5,1.2,0,.9.7,1.4,2.3,1.4.6.3,1.3.1,2.2-.1Z"/></g><g id="G_217"><path id="PATH_218" d="m559.6,441.6c0,2.3-.7,4.4-2.1,6.5-1.2,1.6-2.3,2.5-3,2.5-1.9,0-3.2,0-4.6-.2-.5,0-.7-.2-.7-.2,0,0,.2-.2.7-.2,1.9-.5,3.7-1.4,5.6-2.8,1.9-1.6,3-3.2,3-4.9,0-.9-.7-2.3-2.3-3.9l1.2-2.1c0-.2.2-.2.2-.2l.2.2c.5.7,1.2,1.6,1.4,2.8.2.6.4,1.5.4,2.5Z"/><path id="PATH_219" d="m574.2,441.3h-2.5c-.2,3.2-1.4,5.8-3.7,8.1-.7.7-1.2,1.2-1.4,1.2-1.2,0-2.8-.2-4.4-.5-.5,0-.9-.2-.9-.2,0,0,.2-.2.9-.5,1.9-.5,3.7-1.6,5.3-2.8.7-.7,1.4-1.2,1.9-2.1.7-.9,1.2-1.9,1.2-2.5v-.7h-3c-2.3,0-3.2-.9-3.2-2.8,0-1.2.2-2.3.9-3.7.7-1.4,1.6-2.3,2.5-2.3,1.2,0,2.1.7,2.8,2.3.5,1.2.9,2.3.9,3.7h2.5v2.8h.2Zm-4.2-2.7c0-.7-.2-1.4-.7-2.1-.5-.9-1.2-1.2-1.9-1.2-.5,0-.9.2-1.2.5-.5.5-.5.7-.5,1.4,0,1.2.9,1.6,2.8,1.6.1,0,.8-.2,1.5-.2Z"/><path id="PATH_220" d="m579.7,436.7c0,3-1.6,4.6-4.6,4.6h-1.9v-2.8h1.6c2.3,0,3.5-.5,3.5-1.2s-.5-1.6-1.6-2.8l.9-2.3c0-.2.2-.2.2-.2l.5.5c.7,1.2,1.4,2.8,1.4,4.2Zm-.9,9.7l-1.9,1.9-1.9-1.9,1.9-1.9,1.9,1.9Z"/><path id="PATH_221" d="m588.7,441.3h-1.6c-1.6,0-3-.7-3.5-2.1-.5-.9-.7-2.5-.7-4.4v-4.4c0-2.1-.2-5.1-.5-9l1.4-1.6c.2-.2.5-.2.5,0,.2,2.1.5,5.1.5,9v6.7c0,1.9.9,2.8,2.8,2.8h1.2l-.1,3h0Z"/><path id="PATH_222" d="m610,441.3h-1.2c-1.6,0-2.5-.7-3.2-1.9-.5,1.4-1.6,1.9-3,1.9s-2.3-.7-3-1.9c-.7,1.4-1.6,1.9-3,1.9-1.6,0-2.8-.7-3.5-1.9-.9,1.4-2.1,1.9-3.7,1.9h-1.6v-2.8h1.9c1.6,0,2.8-.9,3-2.8,0-.5.2-.7.5-.7s.2.2.5.7c.2,1.9,1.2,2.8,3,2.8,1.6,0,2.8-.9,2.8-2.8,0-.5.2-.7.5-.7.2,0,.5.2.5.7.2,1.9,1.2,2.8,2.3,2.8,1.6,0,2.8-.9,2.8-2.8,0-.5.2-.7.5-.7.2,0,.5.2.5.7.2,1.9,1.2,2.8,2.8,2.8h1.4v2.8h-.8Zm-10.6-11.5l-1.6,1.6-1.6-1.6,1.6-1.6,1.6,1.6Zm2.1-3.7l-1.6,1.6-1.6-1.6,1.6-1.6,1.6,1.6Zm2,3.7l-1.6,1.6-1.6-1.6,1.6-1.6,1.6,1.6Z"/><path id="PATH_223" d="m621.3,441.3h-1.9c-2.1,0-3.5-.7-4.4-2.1-.7,1.4-2.3,2.1-4.9,2.1h-1.4v-2.8h2.1c2.3,0,3.5-.9,3.7-2.5,0-.7.2-1.2.5-1.2s.5.5.5,1.2c.2,1.6,1.4,2.5,3.5,2.5h2.1v2.8h.2Zm-7.4,5.1l-1.9,1.9-1.9-1.9,1.9-1.9,1.9,1.9Zm4,0l-1.9,1.9-1.9-1.9,1.9-1.9,1.9,1.9Z"/><path id="PATH_224" d="m626.9,436.7c0,3-1.6,4.6-4.6,4.6h-1.9v-2.8h1.6c2.3,0,3.5-.5,3.5-1.2s-.5-1.6-1.6-2.8l.9-2.3c0-.2.2-.2.2-.2l.5.5c.9,1.2,1.4,2.8,1.4,4.2Zm0-10.6l-1.9,1.9-1.9-1.9,1.9-1.9,1.9,1.9Z"/></g><g id="G_210"><path id="PATH_211-2" d="m920.2,752.9c-4.1-2.7-6-7.2-6-12.2h0c0-5,1.8-9.4,6-12.2l.6.7c-2.8,2.4-4.4,6.8-4.4,11.5s1.6,9.2,4.4,11.6l-.6.6Z"/><path id="PATH_212-2" d="m930.1,738.4l1.4,2.6c.5,1,1,2,1,3.6v2.1c0,1.7-.9,3.5-2.4,5.3-1.2,1.2-2.2,1.7-3.1,1.7-1.4,0-3-.5-4.9-1.5l.2-.6c.6.2,1.3.3,2.1.3,2.7,0,5.4-2.3,6.7-5.1.2-.3.2-.6.2-.8,0-.3-.2-.7-.3-1-.7-1.5-1.4-2.9-2.3-4.2.4-.8.9-1.6,1.4-2.4h0Zm-1.7-6.6c.8.6,1.5,1.3,2.3,2-.4.7-.9,1.3-1.6,1.9-.7-.7-1.5-1.3-2.2-2,.4-.6,1-1.3,1.5-1.9Z"/><path id="PATH_213-2" d="m941.9,741.7c1.1,2.6,2.1,4.1,4.3,4.1h.3v2.4h-.4c-.8,0-1.4-.2-1.9-.6h-.1v.7c0,.9-.2,2-.8,3-1.5,2.6-3.1,3.8-4.6,3.8-1.4,0-3.2-.6-4.8-1.5l.3-.6c.5.2,1.2.4,2.2.4,2.6,0,5.9-2.9,6.3-5.7-.1-.2-.3-.5-.5-.9-.7-1-1.2-1.9-1.7-2.8.4-.9.7-1.6,1-2.2l.4-.1Z"/><path id="PATH_214-2" d="m947.6,745.8c3.1,0,6.2-1.1,10.2-3.4v-.1c-2.2-.8-4.2-1.3-6-1.3-1.1,0-1.9.3-2.4,1l.2,1-.6,1.7h-.2l-.9-2.5c.2-2.1,1.8-3.4,4.1-3.4,1.3,0,3.3.5,6.2,1.7.9.4,2.1.6,3.3.6h1.6l-1,2c-1.6,0-2.7.3-3.3.7l-3.2,2.1c-2.6,1.7-5.3,2.6-8.2,2.6h-1c-1,0-1.3-.8-1.3-1.3s.3-1.2,1.3-1.2h1.2v-.2h0Zm5.5-13.8c.8.6,1.5,1.3,2.3,2-.4.7-.9,1.3-1.6,1.9-.7-.7-1.5-1.3-2.2-2,.4-.6,1-1.3,1.5-1.9Z"/><path id="PATH_215-2" d="m971.1,748.2h-.2c-1.5,0-2.5-.3-3.3-1.1-1.2-1.2-1.2-2.5-1.2-5.3,0-3.6-.2-7.4-.5-11.4.6-.7,1.2-1.3,1.8-1.8l.1.1c.3,4.2.3,9.1.3,13.8v1.1c0,1.2.7,1.8,1.4,2,.5.2,1,.2,1.2.2h.3l.1,2.4h0Z"/><path id="PATH_216-2" d="m971.4,745.8c1.6,0,2.9-.1,3.8-.4.7-.2,1.1-.5,1.1-.8,0-.9-.9-2.8-1.9-4.7.5-.8.9-1.5,1.4-2.2h.1c.9,1.5,1.9,3.9,1.9,5.8,0,1.4-.6,2.5-1.3,3.5-.9.9-2.2,1.1-5.1,1.1h-.2c-1,0-1.3-.8-1.3-1.3s.3-1.2,1.3-1.2h.2v.2Zm3.6,6c.8.6,1.5,1.3,2.3,2-.4.7-.9,1.3-1.6,1.9-.7-.7-1.5-1.3-2.2-2,.5-.6,1-1.3,1.5-1.9Z"/><path id="PATH_217" d="m987.2,740.7c0,5-1.8,9.4-6,12.2l-.6-.6c2.9-2.4,4.4-6.8,4.4-11.6s-1.7-9.3-4.4-11.6l.6-.6c4.1,2.8,6,7.2,6,12.2h0Z"/><path id="PATH_218-2" d="m999.5,743c.1,1.6.7,2.9,3.1,2.9,1.5,0,2.7-.5,4.1-1.2.2-.1.4-.3.4-.5,0-1-.7-2.4-1.8-3.6-1.1-1.2-2.5-2.2-3.9-2.9-.5-.2-.6-.5-.6-.7,0-.5.5-1.5,1-2.2h.2c1.5,1,3.3,2.4,4.6,3.9,1.2,1.4,1.9,2.9,1.9,4.5,0,1.2-.3,2.3-.8,3.3-1.7,1-3.5,1.8-5.3,1.8-2.2,0-3.7-1.2-3.7-4,0-.3,0-.8.1-1.4h.7v.1h0Z"/><path id="PATH_219-2" d="m1016.7,748.2h-.2c-1.5,0-2.5-.3-3.3-1.1-1.2-1.2-1.2-2.5-1.2-5.3,0-3.6-.2-7.4-.5-11.4.6-.7,1.2-1.3,1.8-1.8l.1.1c.3,4.2.3,9.1.3,13.8v1.1c0,1.2.7,1.8,1.4,2,.5.2,1,.2,1.2.2h.3l.1,2.4h0Z"/><path id="PATH_220-2" d="m1017.2,745.8c1.5,0,3-.6,3.3-1.7l.6-2.1,1.3-1,.1.1c-.3,1-.4,1.8-.4,2.2,0,.7.2,1.2.6,1.6.6.5,1.4.8,2.4.8h.3v2.4h-.4c-1.9,0-3.3-.5-3.9-1.9h-.1c-.6,1.3-2.2,1.9-3.8,1.9h-.4c-1,0-1.3-.8-1.3-1.3s.3-1.2,1.3-1.2h.4v.2Zm3.5,6c.8.6,1.5,1.3,2.3,2-.4.7-.9,1.3-1.6,1.9-.7-.7-1.5-1.3-2.2-2,.4-.6,1-1.3,1.5-1.9Z"/><path id="PATH_221-2" d="m1025.7,745.8c1.6,0,2.9-.1,3.8-.4.7-.2,1.1-.5,1.1-.8,0-.9-.9-2.8-1.9-4.7.5-.8.9-1.5,1.4-2.2h.1c.9,1.5,1.9,3.9,1.9,5.8,0,1.4-.6,2.5-1.3,3.5-.9.9-2.2,1.1-5.1,1.1h-.2c-1,0-1.3-.8-1.3-1.3s.3-1.2,1.3-1.2h.2v.2Zm1.8,10c-.8-.7-1.5-1.4-2.2-2,.5-.7,1-1.3,1.5-1.8.8.6,1.4,1.2,2.2,2-.6.8-.9,1.3-1.5,1.8Zm3.7-.2c-.8-.7-1.5-1.4-2.2-2,.5-.7,1-1.3,1.5-1.8.8.6,1.4,1.2,2.2,2-.6.8-1,1.3-1.5,1.8Z"/><path id="PATH_222-2" d="m1040.6,748.2h-.2c-1.5,0-2.5-.3-3.3-1.1-1.2-1.2-1.2-2.5-1.2-5.3,0-3.6-.2-7.4-.5-11.4.6-.7,1.2-1.3,1.8-1.8l.1.1c.3,4.2.3,9.1.3,13.8v1.1c0,1.2.7,1.8,1.4,2,.5.2,1,.2,1.2.2h.3l.1,2.4h0Z"/><path id="PATH_223-2" d="m1040.9,745.8c1.6,0,2.9-.1,3.8-.4.7-.2,1.1-.5,1.1-.8,0-.9-.9-2.8-1.9-4.7.5-.8.9-1.5,1.4-2.2h.1c.9,1.5,1.9,3.9,1.9,5.8,0,1.4-.6,2.5-1.3,3.5-.9.9-2.2,1.1-5.1,1.1h-.2c-1,0-1.3-.8-1.3-1.3s.3-1.2,1.3-1.2h.2v.2Zm1.4-9.7c-.8-.7-1.5-1.4-2.2-2,.5-.7,1-1.3,1.5-1.8.8.6,1.4,1.2,2.2,2-.6.8-1,1.3-1.5,1.8Zm3.7-.3c-.8-.7-1.5-1.4-2.2-2,.5-.7,1-1.3,1.5-1.8.8.6,1.4,1.2,2.2,2-.6.9-1,1.3-1.5,1.8Z"/></g><path id="_561" class="cls-5" d="m623.4,382.1l8.5-12.7,24.9-11.6c5.4-2.9,10.8-5.8,16.1-8.7-.7-6-1.4-12-2-18-2.6-2.3-5.2-4.5-7.8-6.8,8.7-7.4,17.4-14.8,26.2-22.2,1.7-8.4,3.4-16.8,5.1-25.2-4.4-7.5-8.8-15.1-13.2-22.6l-23.2,4.5-20.4,22-15.1,24.3-10.5,25.4-7.3,16.4-5,15.3,7.1,10.6,11,7.2,5.6,2.1Z"/><g id="G_225"><path id="PATH_226" d="m618.7,334.1l1.1,2c.4.8.8,1.6.8,2.9v1.7c0,1.3-.7,2.8-1.9,4.2-.9,1-1.7,1.4-2.5,1.4-1.1,0-2.4-.4-3.9-1.2l.2-.5c.5.2,1,.3,1.7.3,2.1,0,4.3-1.8,5.3-4.1.1-.3.2-.5.2-.7,0-.3-.1-.5-.2-.8-.5-1.2-1.2-2.3-1.8-3.3.2-.7.5-1.3,1-1.9h0Z"/><path id="PATH_227" d="m627.2,341.9h-.2c-1.2,0-2-.2-2.6-.9-.9-.9-.9-2-.9-4.2,0-2.9-.2-5.9-.4-9.1.5-.6,1-1.1,1.4-1.4l.1.1c.2,3.3.2,7.2.2,11v.9c0,1,.5,1.4,1.1,1.6.4.1.8.2,1,.2h.2v1.8h.1Z"/><path id="PATH_228" d="m628.9,339.9c.2-1.1.5-2.1.8-3.2.4-1.4,1-2.7,1.7-3.9h.1c.1.3.3.6.6.9,1.1,1.6,2,3,2,4.3,0,.7-.1,1.3-.3,2h3v1.9h-.4c-.3,0-.9,0-1.3-.2h-.1c.4.7.6,1.4.6,2,0,.7-.2,1.3-.5,1.8-.4.7-1.3,1.4-2.3,1.4-.7,0-1.5-.2-2.1-.6-1.3-.8-2.1-2.4-2.1-3.9v-.7c-.3,0-.8.1-1.2.1h-.3c-.8,0-1.1-.6-1.1-1s.2-.9,1.1-.9h1.8Zm1.6,4c.8.9,1.9,1.5,2.9,1.5.6,0,.9-.3.9-.7s-.1-1.1-.6-1.8c-.5-.7-1.2-1.2-2.4-1.2-.6,0-1.1,0-1.7.1,0,.7.4,1.6.9,2.1Zm1.6-4.2c.7-.2,1-.5,1-.8,0-1-.9-2.3-1.9-3.6h-.1c-.5,1.5-1,3-1.4,4.6.9,0,1.7,0,2.4-.2Z"/><path id="PATH_229" d="m637.1,339.9c1.2,0,2.4-.5,2.6-1.3l.4-1.6,1-.8.1.1c-.2.8-.3,1.4-.3,1.8,0,.5.1,1,.5,1.3.5.4,1.1.6,1.9.6h.3v1.9h-.3c-1.5,0-2.6-.4-3.1-1.5h-.1c-.5,1-1.7,1.5-3,1.5h-.3c-.8,0-1.1-.6-1.1-1s.2-.9,1.1-.9h.3v-.1h0Zm2.8,4.8c.6.5,1.2,1,1.8,1.6-.3.5-.7,1-1.3,1.5-.6-.6-1.2-1-1.8-1.6.5-.5.9-1,1.3-1.5Z"/><path id="PATH_230" d="m643.9,339.9c.6,0,1.3-.2,1.8-.5s.7-.7.7-1.8c0-3-.2-5.8-.4-9.2v-.8l1.3-1.4h.1c.3,3.6.3,7.3.3,11.9,0,.7.5,1.7,2.2,1.7h.2v1.9h-.3c-1.4,0-2.5-.5-3-1.6h-.1c-.5.9-1.5,1.6-2.9,1.6h-.3c-.8,0-1.1-.6-1.1-1s.2-.9,1.1-.9l.4.1h0Z"/><path id="PATH_231" d="m659.5,326.2c-.3.6-.7,1.2-1.1,1.9-.8.2-1.6.5-2.4.7-1.6.6-3.3,1.2-5,2v.1l2.5.7-.4.7c2.5,1.8,3.9,3.4,3.9,5,0,1.4-.4,2.5-1,3.1-1,.8-2.5,1.4-5.3,1.4h-.6c-.8,0-1.1-.6-1.1-1s.2-.9,1.1-.9h1c1.6,0,3-.2,4-.8.5-.3.8-.6.8-.8,0-.7-.5-1.6-1.2-2.3-.8-.9-2.3-2.1-4.6-3.7-.3-.2-.4-.8-.4-1.3,0-.3.2-.6.3-1,.1-.3.5-.5,1.1-.9,1.9-.8,4.8-1.8,8.4-2.9h0Zm-9,2c.1-.3.2-.6.4-1,2-1,4.6-1.9,7.9-2.9h0l-.5.9c-3.3,1.1-5.8,2-7.8,3h0Z"/></g></svg>