



    


<svg version="1.1" id="Layer_1" xmlns="http://www.w3.org/2000/svg" xmlns:xlink="http://www.w3.org/1999/xlink" x="0px" y="0px" viewBox="0 0 364.5 299" style="enable-background:new 0 0 364.5 299;" xml:space="preserve" width="100%" height="100%">
<style type="text/css">
	.st0{fill:#E8D0E5;stroke:#010101;stroke-width:0.2;stroke-miterlimit:10;}
	.st1{fill:#DBECCB;stroke:#010101;stroke-width:0.2;stroke-miterlimit:10;}
	.st2{fill:#FBD0D1;stroke:#010101;stroke-width:0.2;stroke-miterlimit:10;}
	.st3{fill:#FDFAD4;stroke:#010101;stroke-width:0.2;stroke-miterlimit:10;}
</style>

		<path class="st0 area" d="M248.1,129.7c0.8,0.8,1.6-0.8,2.4-0.8c-8.1-8.1-20.2-12.1-24.2-22.6c-1.6-4,0-10.5-6.5-13.7
			c0-0.8,0-2.4,0-3.2c2.4-1.6,5.7-0.8,6.5-1.6c1.6-3.2,0-8.1,1.6-9.7c3.7-4.9,11.5-2.8,15.8-6.4l-4.2-1.1l-2.3-0.2l-2.3,0.2l-2,0.7
			l-2.1,0.2l-19.4-7.1l-2.4-3.2c-4,1.6-8.3,7.9-14.3,1.9c1.2,6-0.8,13.3-4.9,18.2c2.7,1.3,5.5,2.7,8.3,4.1c1.6,0.8,4,4,2.4,6.5
			c-3.2,4.8-7.3,9.7-5.7,15.3c1.6,4,4,8.9,0.8,11.3c-4,4.8-4-4-6.5-5.6c-3.2-3.2-9.7,0-14.5-4c0,0.8,0,2.4,0,3.2
			c-2.4,2.4-5.6,1.6-8.1,1.6c1.6,12.1-1.6,25,0,37.1c0.8,8.1,5.7,17.7,12.9,21c5.6,1.6,12.9-4,19.4-0.8c9.7,5.6,15.3-7.3,21.8-9.7
			c6.5-2.4,9.7,4.8,14.5,8.9c4.8,3.2,8.1,0,9.7-4c4.8-8.1,0-19.4,8.9-26.6C258.6,136.1,249.7,134.5,248.1,129.7z" id="_x33_72" title="بجنورد"></path>
		<path class="st1 area" d="M194.8,63c6,6,10.3-0.3,14.3-1.9l-0.8-1.1l2.5-8.2l0.5-2.7l-0.7-2.7l-3-3.7l-1.6-4.8l-4.3-4.3l-1.6-2.3
			l-2.3-5.5l-3.2-4.8l-0.5-1.4v-1.1l-0.5-1.1l-1.4-0.9l-3-0.9h-1.4h-1.6l-2.3,1.1l-1.6,1.6l-2.7,4.3l-1.6,1.6l-4.3,2.7l-1.8,1.4
			l-2.3,1.4l-2.7-0.5l-5.5-2.1l-20.1-3.4l-2-0.7l-4.6-2.5l-5.3-3.9l-1.1-0.2l-6.4,1.1l-10.7,4.3l-2.3,0.2l-1.6-0.7l-1.8-1.4
			l-1.8-0.9l-2.3-0.5L89.2,19l-4.8,1.8l-4.6,3l-8.4,7.1l-0.7,2.3l3.7,3.9l0.5,2.7l-0.1,0.7c5.6-0.4,11.2-6,16.2-1
			c10.5,8.9,24.2,0,31.4,8.1c4,3.2-7.3,12.1,1.6,17.7c13.7,7.3,27.4,4.8,41.9,7.3c7.9,1.2,15.8,4.7,24,8.8
			C194,76.3,196,69.1,194.8,63z" id="_x32_66" title="راز"></path>
		<path class="st2 area" d="M56.2,167.6c2.4,0.8,7.3,2.4,8.9,0.8c9.7-10.5,19.4-5.6,30.7-4.8c1.6,0,4-4.8,6.5-4.8
			c8.1-0.8,13.7,0,20.2-6.4c4-4,11.3,2.4,16.9,1.6c2.4,0,4-3.2,6.4-3.2c6.9-1.5,14.4-0.9,20.7-2.7c-0.9-11.3,1.8-23.2,0.3-34.4
			c2.4,0,5.7,0.8,8.1-1.6c0-0.8,0-2.4,0-3.2c4.8,4,11.3,0.8,14.5,4c2.4,1.6,2.4,10.5,6.5,5.6c3.2-2.4,0.8-7.3-0.8-11.3
			c-1.6-5.6,2.4-10.5,5.7-15.3c1.6-2.4-0.8-5.6-2.4-6.5c-11.3-5.6-21.8-11.3-32.3-12.9c-14.5-2.4-28.2,0-41.9-7.3
			c-8.9-5.6,2.4-14.5-1.6-17.7c-7.3-8.1-21,0.8-31.4-8.1c-5-5-10.5,0.6-16.2,1l-0.4,2.3l-0.2,0.4c0.7,0.1,1.3,0.6,1.4,1.3L79,61.9
			v19.1L65.2,92.4l-2.3,19.2l-0.3,0.4c-0.6,0.8-15,19.5-20.7,25.3c-4.3,4.3-5.2,21.2-5.2,27.3v1.7h-0.2
			C42.1,169.6,49.4,166.9,56.2,167.6z" id="_x33_71" title="مانه و سملقان"></path>
		<path class="st0 area" d="M73.1,220c13.7-4,11.3-21.8,20.2-28.2c8.1-7.3,21.8-1.6,28.2-8.9c4-3.2,0-8.1-5.6-12.9c-0.8-1.6,0-4,0-5.6
			c-2.4,0.8-4.8-1.6-4-4c0.8,0,1.6,0,2.4,0c0-1,0-2.1-0.3-3c-3.6,1-7.3,0.9-11.8,1.4c-2.4,0-4.8,4.8-6.5,4.8
			c-11.3-0.8-21-5.6-30.6,4.8c-1.6,1.6-6.5,0-8.9-0.8c-6.7-0.7-14.1,2-19.6-1.3h-10l1,17.1h8.6c5.8,0,6.3,11.8,6.3,15.4
			c0,7.3-1.9,12.9-6.1,18.2c-3.4,4.3-3.3,11.1-3.1,17.1c0,1.2,0.1,2.4,0.1,3.5c0,1,0.2,2.2,1,2.6c1.4,0.6,4.3-0.7,6.3-2.7
			c3.6-3.6,21.4-10.9,23.4-11.8l1.8-0.7l1.5,5.1C70.2,226.8,70.3,220.6,73.1,220z" id="_x32_94" title="گرمه"></path>
		<path class="st3 area" d="M152.1,214.4c5.6-2.4,11.3-2.4,12.9-9.7c0.8,0,2.4,0,3.2,0c2.4-1.6,1.6-5.6-0.8-7.3
			c5.6-6.5,6.5-12.9-1.6-18.5c-0.8-0.8-0.8-3.2,0-4c3.1-2.4,6.7-4,9.5-6c-4.9-4.4-8.1-11.8-8.7-18.2c-0.1-0.9-0.2-1.8-0.3-2.7
			c-6.3,1.9-13.8,1.2-20.7,2.7c-2.4,0-4,3.2-6.4,3.2c-5.6,0.8-12.9-5.6-16.9-1.6c-2.8,2.8-5.5,4.3-8.3,5.1c0.3,0.9,0.3,2,0.3,3
			c-0.8,0-1.6,0-2.4,0c-0.8,2.4,1.6,4.8,4,4c0,1.6-0.8,4,0,5.6c5.6,4.8,9.7,9.7,5.6,12.9c-6.4,7.3-20.2,1.6-28.2,8.9
			c-8.9,6.5-6.4,24.2-20.2,28.2c-2.9,0.6-2.9,6.8-5.8,10.1l1.3,4.6c0.5,1.1,4.7,10.2,8.7,14.2c4.3,4.3,6.6,12.1,7.2,14
			c1.4,1.5,8.5,8.5,18,9.4c1.4,0.1,2.7,0.2,3.9,0.3c0-0.2,0-0.3,0.1-0.5c0.2-0.5,6.1-13.2,20.3-19.1c9.9-4.1,26.7-12,35-15.9
			c-0.3-6.9-6.4-10.9-6.4-18C155.4,217.6,151.3,215.2,152.1,214.4z" id="_x33_69" title="جاجرم"></path>
		<path class="st3 area" d="M270.7,186.9c0.8,1.6,6.4,1.6,8.9,0c12.9-8.9,19.3-18.5,30.6-27.4c3.2-2.4-1.6-12.9,0.8-20.2
			c1.6-6.5,12.1-1.6,13.7-7.3c0.8-6.5-0.8-12.9-4-17.7c-0.8-1.6-4-4-4.8-6.5c-2.1-6.2,2.9-7.1,6.9-8.7l-0.6-1.1l-0.2-1.1l0.5-1.1
			v-1.1l-1.1-1.1l-2.3-0.9l-2.1-0.5l-4.6-0.5l-8.7-1.8l-21-9.6l-4.8-1.1l-2,0.2l-2.3,0.5l-2.3,0.2l-1.8-0.9l-0.9-0.9l-1.1-2.3
			l-0.9-0.9l-1.1-0.2l-2.3,0.5h-0.2l-0.9-0.2l-1.6-0.9l-1.6-1.4l-1.8-1.1h-2.1l-2,0.5l-6.4,0.2l-2.6-0.7c-4.3,3.6-12.1,1.6-15.8,6.4
			c-1.6,1.6,0,6.5-1.6,9.7c-0.8,0.8-4,0-6.4,1.6c0,0.8,0,2.4,0,3.2c6.4,3.2,4.8,9.7,6.4,13.7c4,10.5,16.1,14.5,24.2,22.6
			c-0.8,0-1.6,1.6-2.4,0.8c1.6,4.8,10.5,6.5,5.6,9.7c-8.9,7.3-4,18.5-8.9,26.6c-0.7,1.9-1.8,3.5-3.3,4.5c0.5,0.6,1.1,1,1.7,1.1
			C255.4,172.4,265,176.5,270.7,186.9z" id="_x34_11" title="شیروان"></path>
		<path class="st1 area" d="M311,224c-3.2-7.3-11.3-7.3-17.7-6.5c0-4,4.8-9.7,0.8-10.5c-13.9-0.6-15.7-9.5-18.4-19
			c-2.2,0.2-4.5-0.2-5-1.1c-5.6-10.5-15.3-14.5-27.4-15.3c-0.6-0.2-1.1-0.6-1.7-1.1c-1.7,1.1-3.8,1.3-6.4-0.5
			c-4.8-4-8.1-11.3-14.5-8.9c-6.5,2.4-12.1,15.3-21.8,9.7c-6.4-3.2-13.7,2.4-19.3,0.8c-1.5-0.7-2.9-1.6-4.2-2.8
			c-2.9,2-6.4,3.6-9.5,6c-0.8,0.8-0.8,3.2,0,4c8.1,5.6,7.3,12.1,1.6,18.5c2.4,1.6,3.2,5.6,0.8,7.3c-0.8,0-2.4,0-3.2,0
			c-1.6,7.3-7.3,7.3-12.9,9.7c-0.8,0.8,3.2,3.2,3.2,4.8c0,7.1,6.1,11.1,6.4,18c2.9-1.4,4.8-2.3,4.9-2.3l0.8-0.4l0.8,0.5
			c0.1,0.1,9,5.6,20,7.8c4,0.8,8.6,2,13.5,3.3c8.9,2.3,18.1,4.7,23.8,4.7c7.7,0,13.7,5.7,18.6,10.3c1.5,1.4,2.8,2.7,4.1,3.7
			c2.3,1.8,7.2,3.1,12,4.4c7,1.9,13.6,3.7,15.8,7.4c3.1,5.1,11.7,8.3,17.9,8.3c5.9,0,16.3-2.4,18-5.4c0.2-0.3,0.2-0.6-0.1-1.2
			c-3.6-6-4.8-24-4.8-24.7c-0.5-2.9-0.3-7.9,2.3-12.2c-2.2-4.2-3.4-8.8-6.5-12.5C307,227.3,313.4,230.5,311,224z" id="_x33_67" title="اسفراین"></path>
		<path class="st2 area active" d="M324,190.5c4.5-2.6,14-8,14-12.2c0-4.6,1.1-24.4,1.1-25.2l0-39.4l-8.8-1.2l-2.3-0.9l-2.3-1.8l-0.7-1.8v-2.1
			l-0.4-3l-0.4-1.1l-1.4-2.6c-4,1.6-8.9,2.6-6.9,8.7c0.8,2.4,4,4.8,4.8,6.5c3.2,4.8,4.8,11.3,4,17.7c-1.6,5.6-12.1,0.8-13.7,7.3
			c-2.4,7.3,2.4,17.7-0.8,20.2c-11.3,8.9-17.7,18.5-30.6,27.4c-1,0.6-2.4,1-3.9,1.1c2.6,9.5,4.4,18.4,18.4,19
			c4,0.8-0.8,6.5-0.8,10.5c6.5-0.8,14.5-0.8,17.7,6.5c2.4,6.4-4,3.2-8.1,4.8c3.1,3.7,4.3,8.4,6.5,12.5c1.6-2.6,4.1-5,7.9-6.6
			c9.5-3.8,15.8-8.5,17.4-9.7c0.8-2.5,1.6-6.7,1-8.7c-0.5-1.5-3.4-2.6-5.9-3.6c-1.7-0.7-3.5-1.4-4.8-2.3c-2.5-1.7-6.1-7-5.9-12.1
			C319.2,194.9,320.9,192.2,324,190.5z" id="_x34_22" title="فاروج"></path>

<g id="G_11" class="area" title="">
	<path d="M147.6,49.8c0,1-0.3,1.9-0.9,2.8c-0.5,0.7-1,1.1-1.3,1.1c-0.8,0-1.4,0-2-0.1c-0.2,0-0.3-0.1-0.3-0.1s0.1-0.1,0.3-0.1
		c0.8-0.2,1.6-0.6,2.4-1.2c0.8-0.7,1.3-1.4,1.3-2.1c0-0.4-0.3-1-1-1.7l0.5-0.9c0-0.1,0.1-0.1,0.1-0.1c0,0,0.1,0.1,0.1,0.1
		c0.2,0.3,0.5,0.7,0.6,1.2C147.5,49,147.6,49.4,147.6,49.8z M146.8,44.4l-0.8,0.8l-0.8-0.8l0.8-0.8L146.8,44.4z" id="PATH_12" class="area" title=""></path>
	<path d="M149.9,48.4c0,0.4-0.1,0.8-0.3,1.1c-0.1,0.2-0.2,0.3-0.2,0.3c0,0-0.1-0.1-0.1-0.4c0-1.2-0.2-4-0.6-8.5l0.8-0.8
		c0.1-0.1,0.1-0.1,0.1-0.1c0,0,0,0.1,0,0.2C149.9,41.6,149.9,44.3,149.9,48.4z" id="PATH_13" class="area" title=""></path>
	<path d="M155,49.8c0,1-0.3,1.9-0.9,2.8c-0.5,0.7-1,1.1-1.3,1.1c-0.8,0-1.4,0-2-0.1c-0.2,0-0.3-0.1-0.3-0.1s0.1-0.1,0.3-0.1
		c0.8-0.2,1.6-0.6,2.4-1.2c0.8-0.7,1.3-1.4,1.3-2.1c0-0.4-0.3-1-1-1.7l0.5-0.9c0-0.1,0.1-0.1,0.1-0.1c0,0,0.1,0.1,0.1,0.1
		c0.2,0.3,0.5,0.7,0.6,1.2C154.9,49,155,49.4,155,49.8z" id="PATH_14" class="area" title=""></path>
</g>
<g id="G_15" class="area" title="">
	<path d="M269.3,123.2c0.1,0.3,0.1,0.6,0.1,0.9c0,0.4-0.1,0.7-0.2,1.1c-0.3,0.7-0.8,1.3-1.8,1.7c-0.8,0.3-1.6,0.5-2.5,0.5
		c-0.9,0-1.6-0.2-2.2-0.6c-0.6-0.5-0.9-1.1-0.9-2c0-0.5,0.1-0.9,0.3-1.5c0.2-0.4,0.3-0.7,0.5-0.9c0.1-0.1,0.2-0.1,0.2-0.1
		c0.1,0,0.1,0,0.1,0.1c0,0,0,0.1,0,0.2c-0.3,0.6-0.4,1.2-0.4,1.7c0,0.5,0.2,0.9,0.5,1.3c0.4,0.5,1.1,0.7,2,0.7c1,0,1.9-0.2,2.6-0.5
		c0.6-0.3,1-0.6,1.2-1c0.1-0.1,0.1-0.3,0.1-0.4c0-0.3-0.1-0.6-0.2-1c-0.1-0.3-0.4-0.8-0.9-1.6l0.4-0.8c0.1-0.1,0.1-0.2,0.1-0.2
		s0.1,0,0.1,0.1C268.8,121.6,269.1,122.4,269.3,123.2z M266.3,118.8l-0.8,0.8l-0.8-0.8l0.8-0.8L266.3,118.8z" id="PATH_16" class="area" title=""></path>
	<path d="M271.7,122.1c0,0.4-0.1,0.8-0.3,1.1c-0.1,0.2-0.2,0.3-0.2,0.3c0,0-0.1-0.1-0.1-0.4c0-1.2-0.2-4-0.6-8.5l0.8-0.8
		c0.1-0.1,0.1-0.1,0.1-0.1c0,0,0,0.1,0,0.2C271.7,115.2,271.7,118,271.7,122.1z" id="PATH_17" class="area" title=""></path>
	<path d="M276.9,122.9c0,1.5-0.5,2.8-1.5,3.8c-0.3,0.3-0.5,0.5-0.6,0.5c-0.6,0-1.2-0.1-1.9-0.2c-0.3,0-0.4-0.1-0.4-0.1
		c0,0,0.1-0.1,0.4-0.2c0.8-0.2,1.6-0.7,2.3-1.3c0.3-0.3,0.6-0.5,0.8-0.9c0.3-0.4,0.5-0.8,0.5-1.1v-0.3l-1.3,0
		c-0.9,0-1.4-0.4-1.4-1.1c0-0.5,0.1-1,0.4-1.6c0.3-0.6,0.7-1,1.1-1c0.6,0,1.1,0.4,1.4,1.3C276.7,121.5,276.9,122.1,276.9,122.9z
		 M276.1,122.1c0-0.3-0.1-0.6-0.3-0.9c-0.2-0.3-0.5-0.5-0.8-0.5c-0.2,0-0.4,0.1-0.5,0.2s-0.2,0.3-0.2,0.5c0,0.5,0.3,0.7,1,0.7
		C275.4,122.2,275.8,122.1,276.1,122.1z" id="PATH_18" class="area" title=""></path>
	<path d="M283.1,123.3h-0.4c-0.4,0-0.6-0.1-0.8-0.2c0,0.1,0,0.2,0,0.3c0,0.9-0.3,1.8-0.9,2.7c-0.5,0.8-1,1.1-1.3,1.1
		c-0.8,0-1.4,0-2-0.1c-0.2,0-0.3-0.1-0.3-0.1s0.1-0.1,0.3-0.1c0.8-0.2,1.6-0.6,2.4-1.2c0.8-0.7,1.3-1.4,1.3-2.1c0-0.4-0.3-1-1-1.7
		l0.5-0.9c0-0.1,0.1-0.1,0.1-0.1c0,0,0.1,0.1,0.1,0.1c0.3,0.4,0.5,0.7,0.7,0.8c0.3,0.2,0.7,0.4,1.1,0.4h0.3V123.3z" id="PATH_19" class="area" title=""></path>
	<path d="M288,123.3h-0.8c-0.9,0-1.5-0.3-1.9-0.9c-0.3,0.6-1,0.9-2.1,0.9h-0.6v-1.2h0.9c1,0,1.5-0.4,1.6-1.1c0-0.3,0.1-0.5,0.2-0.5
		s0.2,0.2,0.2,0.5c0.1,0.7,0.6,1.1,1.5,1.1h0.9V123.3z M284.7,125.5l-0.8,0.8l-0.8-0.8l0.8-0.8L284.7,125.5z M286.4,125.5l-0.8,0.8
		l-0.8-0.8l0.8-0.8L286.4,125.5z" id="PATH_20" class="area" title=""></path>
	<path d="M295.9,121.2c0,0.6-0.1,1.1-0.4,1.5c-0.3,0.4-0.8,0.7-1.3,0.7c-0.7,0-1.1-0.3-1.4-0.8c-0.4,0.6-0.8,0.8-1.4,0.8
		c-0.7,0-1.2-0.3-1.5-0.8c-0.4,0.6-0.9,0.8-1.6,0.8h-0.7v-1.2h0.8c0.7,0,1.2-0.4,1.3-1.2c0-0.2,0.1-0.3,0.2-0.3
		c0.1,0,0.1,0.1,0.2,0.3c0.1,0.8,0.5,1.2,1.3,1.2c0.4,0,0.8-0.1,1-0.3c0.1-0.2,0.2-0.4,0.3-0.8c0-0.2,0.1-0.3,0.2-0.3
		c0.1,0,0.1,0.1,0.2,0.3c0.1,0.8,0.5,1.2,1.2,1.2c0.8,0,1.1-0.2,1.1-0.5c0-0.3-0.2-0.7-0.6-1.1l0.5-0.9c0.1-0.1,0.1-0.2,0.2-0.2
		s0.1,0.1,0.2,0.2C295.7,120.2,295.9,120.7,295.9,121.2z M292.5,117.5l-0.7,0.7l-0.7-0.7l0.7-0.7L292.5,117.5z M293.4,116l-0.7,0.7
		l-0.7-0.7l0.7-0.7L293.4,116z M294.3,117.5l-0.7,0.7l-0.7-0.7l0.7-0.7L294.3,117.5z" id="PATH_21" class="area" title=""></path>
</g>
<g id="G_22" class="area" title="">
	<path d="M191.6,136.9c0,1.4-0.9,2.1-2.8,2.1c-0.7,0-1.2-0.1-1.5-0.3c-0.4-0.2-0.6-0.7-0.6-1.3c0-0.3,0.1-0.6,0.2-0.9
		c0.1-0.1,0.1-0.2,0.2-0.2c0.1,0,0.1,0.1,0.1,0.3c0,0.1,0,0.2,0,0.3c0,0.4,0.2,0.7,0.6,0.8c0.2,0.1,0.6,0.1,1.1,0.1
		c1.5,0,2.2-0.2,2.2-0.7c0-0.7-0.9-1.7-2.6-2.9l0.3-1c0-0.1,0.1-0.1,0.1-0.1c0,0,0.1,0,0.2,0.1C190.7,134.5,191.6,135.8,191.6,136.9
		z" id="PATH_23" class="area" title=""></path>
	<path d="M196.6,139.1c0,1-0.3,1.9-0.9,2.8c-0.5,0.7-1,1.1-1.3,1.1c-0.8,0-1.4,0-2-0.1c-0.2,0-0.3-0.1-0.3-0.1s0.1-0.1,0.3-0.1
		c0.8-0.2,1.6-0.6,2.4-1.2c0.8-0.7,1.3-1.4,1.3-2.1c0-0.4-0.3-1-1-1.7l0.5-0.9c0-0.1,0.1-0.1,0.1-0.1c0,0,0.1,0.1,0.1,0.1
		c0.2,0.3,0.5,0.7,0.6,1.2C196.5,138.3,196.6,138.7,196.6,139.1z" id="PATH_24" class="area" title=""></path>
	<path d="M202.9,139h-1.1c-0.1,1.4-0.6,2.5-1.6,3.5c-0.3,0.3-0.5,0.5-0.6,0.5c-0.5,0-1.2-0.1-1.9-0.2c-0.2,0-0.4-0.1-0.4-0.1
		s0.1-0.1,0.4-0.2c0.8-0.2,1.6-0.7,2.3-1.2c0.3-0.3,0.6-0.5,0.8-0.9c0.3-0.4,0.5-0.8,0.5-1.1V139H200c-1,0-1.4-0.4-1.4-1.2
		c0-0.5,0.1-1,0.4-1.6c0.3-0.6,0.7-1,1.1-1c0.5,0,0.9,0.3,1.2,1c0.2,0.5,0.4,1,0.4,1.6h1.1V139z M201.1,137.8c0-0.3-0.1-0.6-0.3-0.9
		c-0.2-0.4-0.5-0.5-0.8-0.5c-0.2,0-0.4,0.1-0.5,0.2c-0.2,0.2-0.2,0.3-0.2,0.6c0,0.5,0.4,0.7,1.2,0.7
		C200.5,137.9,200.8,137.8,201.1,137.8z" id="PATH_25" class="area" title=""></path>
	<path d="M207.8,139H207c-0.9,0-1.5-0.3-1.9-0.9c-0.3,0.6-1,0.9-2.1,0.9h-0.6v-1.2h0.9c1,0,1.5-0.4,1.6-1.1c0-0.3,0.1-0.5,0.2-0.5
		c0.1,0,0.2,0.2,0.2,0.5c0.1,0.7,0.6,1.1,1.5,1.1h0.9V139z M205.8,133.8l-0.8,0.8l-0.8-0.8l0.8-0.8L205.8,133.8z" id="PATH_26" class="area" title=""></path>
	<path d="M216.6,139h-1c-1.3,0-2-0.7-2-2c0-0.2,0-0.3,0-0.5c-0.5,0.2-1.1,0.6-1.9,1.1c-0.8,0.5-1.3,0.8-1.7,1
		c-0.6,0.3-1.3,0.4-1.9,0.4h-0.7v-1.2h0.8c0.8,0,1.7-0.2,2.5-0.6c0.4-0.2,1.1-0.6,2.2-1.1c-0.2,0-0.8-0.2-1.8-0.4
		c-0.7-0.2-1.1-0.3-1.2-0.3c-0.4,0-0.8,0.2-1.2,0.5c-0.1,0.1-0.1,0.1-0.2,0.1c-0.1,0-0.1,0-0.1-0.1c0,0,0-0.1,0-0.1
		c0.3-1,0.9-1.5,1.7-1.5c0.3,0,0.7,0.1,1.2,0.2c0.7,0.2,1.3,0.4,1.8,0.5c0.7,0.1,1.5,0.2,2.4,0.2c0.2,0,0.2,0,0.3,0c0,0,0,0.1,0,0.2
		l-0.3,0.9c-0.6,0-1,0-1.2,0.1c0,0.5,0.1,0.8,0.2,0.9c0.2,0.3,0.6,0.5,1.3,0.5h1V139z M212.8,141l-0.8,0.8l-0.8-0.8l0.8-0.8
		L212.8,141z" id="PATH_27" class="area" title=""></path>
	<path d="M218.9,137c0,1.3-0.7,2-2,2h-0.8v-1.2h0.7c1,0,1.5-0.2,1.5-0.5c0-0.3-0.2-0.7-0.7-1.2l0.4-1c0-0.1,0.1-0.1,0.1-0.1
		s0.1,0.1,0.2,0.2C218.7,135.7,218.9,136.4,218.9,137z M218.6,141.2l-0.8,0.8l-0.8-0.8l0.8-0.8L218.6,141.2z" id="PATH_28" class="area" title=""></path>
</g>
<g id="G_29" class="area" title="">
	<path d="M303.9,190c-0.5,0.5-1,0.8-1.6,0.9c-0.5,0.1-1.1,0.2-1.8,0.2c-1.4,0-2.5-0.3-3.2-1c-0.5-0.5-0.8-1.2-0.8-2
		c0-1.9,1.3-3.4,3.8-4.4c-1.1-0.2-1.8-0.3-2.3-0.3c-0.2,0-0.5,0.1-0.9,0.4s-0.6,0.4-0.5,0.4c-0.1,0-0.1-0.1-0.1-0.3
		c0-0.3,0.2-0.6,0.4-0.9c0.3-0.5,0.8-0.8,1.4-0.8c0.5,0,1.2,0.1,2.1,0.3c0.9,0.2,1.7,0.3,2.2,0.3h0.7c0.2,0,0.3,0,0.3,0.1
		c0,0,0,0.1-0.1,0.2l-0.3,0.8c-0.5,0-1,0.1-1.7,0.2c-1,0.2-2,0.6-2.8,1.1c-1.1,0.7-1.6,1.5-1.6,2.4c0,0.9,0.4,1.5,1.3,2
		c0.7,0.3,1.5,0.5,2.5,0.5c1,0,1.9-0.1,2.7-0.3c0.1,0,0.1,0,0.2,0c0.1,0,0.1,0,0.1,0.1C304.1,189.8,304,189.9,303.9,190z
		 M301.4,187.3l-0.8,0.8l-0.8-0.8l0.8-0.8L301.4,187.3z" id="PATH_30" class="area" title=""></path>
	<path d="M308.8,186.3c0,1.5-0.5,2.8-1.5,3.8c-0.3,0.3-0.5,0.5-0.6,0.5c-0.6,0-1.2-0.1-1.9-0.2c-0.3,0-0.4-0.1-0.4-0.1
		c0,0,0.1-0.1,0.4-0.2c0.8-0.2,1.6-0.7,2.3-1.3c0.3-0.3,0.6-0.5,0.8-0.9c0.3-0.4,0.5-0.8,0.5-1.1v-0.3l-1.3,0
		c-0.9,0-1.4-0.4-1.4-1.1c0-0.5,0.1-1,0.4-1.6c0.3-0.6,0.7-1,1.1-1c0.6,0,1.1,0.4,1.4,1.3C308.7,184.8,308.8,185.5,308.8,186.3z
		 M308.1,185.4c0-0.3-0.1-0.6-0.3-0.9c-0.2-0.3-0.5-0.5-0.8-0.5c-0.2,0-0.4,0.1-0.5,0.2s-0.2,0.3-0.2,0.5c0,0.5,0.3,0.7,1,0.7
		C307.4,185.5,307.7,185.5,308.1,185.4z" id="PATH_31" class="area" title=""></path>
	<path d="M313.8,186.8c0,1-0.3,1.9-0.9,2.8c-0.5,0.7-1,1.1-1.3,1.1c-0.8,0-1.4,0-2-0.1c-0.2,0-0.3-0.1-0.3-0.1s0.1-0.1,0.3-0.1
		c0.8-0.2,1.6-0.6,2.4-1.2c0.8-0.7,1.3-1.4,1.3-2.1c0-0.4-0.3-1-1-1.7l0.5-0.9c0-0.1,0.1-0.1,0.1-0.1c0,0,0.1,0.1,0.1,0.1
		c0.2,0.3,0.5,0.7,0.6,1.2C313.7,186,313.8,186.4,313.8,186.8z" id="PATH_32" class="area" title=""></path>
	<path d="M317.8,186.7h-0.7c-0.7,0-1.3-0.3-1.5-0.9c-0.2-0.4-0.3-1.1-0.3-1.9v-1.9c0-0.9-0.1-2.2-0.2-3.9l0.6-0.7
		c0.1-0.1,0.2-0.1,0.2,0c0.1,0.9,0.2,2.2,0.2,3.9v2.9c0,0.8,0.4,1.2,1.2,1.2h0.5V186.7z" id="PATH_33" class="area" title=""></path>
	<path d="M321.7,183.8v0.4c0,0.7-0.1,1.1-0.3,1.4c-0.5,0.7-1.3,1-2.6,1h-1.4v-1.2h1c1.7,0,2.6-0.3,2.8-0.8c0-0.1,0-0.1,0-0.2
		c0-0.2,0-0.3-0.1-0.4c-0.4,0.1-0.9,0.1-1.3,0.1c-0.9,0-1.4-0.4-1.4-1.2c0-0.5,0.1-1.1,0.4-1.6c0.3-0.6,0.7-0.9,1.2-0.9
		c0.4,0,0.8,0.3,1.1,0.8C321.5,182,321.7,182.8,321.7,183.8z M320.5,178.3l-0.8,0.8l-0.8-0.8l0.8-0.8L320.5,178.3z M320.9,183
		c0-0.3-0.1-0.6-0.3-0.9s-0.5-0.4-0.8-0.4c-0.2,0-0.4,0.1-0.6,0.2s-0.2,0.3-0.2,0.5c0,0.4,0.3,0.6,1,0.6
		C320.3,183.1,320.6,183.1,320.9,183z" id="PATH_34" class="area" title=""></path>
</g>
<g id="G_35" class="area" title="">
	<path d="M225.1,218.7h-0.5c-0.5,0-0.8,0-1-0.1c0,0.3,0.1,0.5,0.1,0.8c0,0.5-0.1,0.8-0.2,1.1c-0.3,0.7-0.8,1.3-1.8,1.7
		c-0.8,0.3-1.6,0.5-2.5,0.5c-0.9,0-1.6-0.2-2.2-0.6c-0.6-0.5-0.9-1.1-0.9-2c0-0.5,0.1-0.9,0.3-1.5c0.2-0.4,0.3-0.7,0.5-0.9
		c0.1-0.1,0.2-0.1,0.2-0.1c0.1,0,0.1,0,0.1,0.1c0,0,0,0.1,0,0.2c-0.3,0.6-0.4,1.2-0.4,1.7c0,0.5,0.2,0.9,0.5,1.3
		c0.4,0.5,1.1,0.7,2,0.7c1,0,1.9-0.2,2.6-0.5c0.6-0.3,1-0.6,1.2-1c0.1-0.1,0.1-0.3,0-0.7c0-0.3-0.1-0.6-0.1-0.7
		c-0.1-0.3-0.5-0.8-1-1.5l0.4-0.8c0.1-0.1,0.1-0.2,0.1-0.2s0.1,0,0.1,0.1c0.5,0.8,1,1.2,1.6,1.2h0.8V218.7z M220.7,214.2l-0.8,0.8
		l-0.8-0.8l0.8-0.8L220.7,214.2z" id="PATH_36" class="area" title=""></path>
	<path d="M227.5,216.7c0,1.3-0.7,2-2,2h-0.8v-1.2h0.7c1,0,1.5-0.2,1.5-0.5c0-0.3-0.2-0.7-0.7-1.2l0.4-1c0-0.1,0.1-0.1,0.1-0.1
		s0.1,0.1,0.2,0.2C227.2,215.4,227.5,216,227.5,216.7z M226.7,220.9l-0.8,0.8l-0.8-0.8l0.8-0.8L226.7,220.9z M228.4,220.9l-0.8,0.8
		l-0.8-0.8l0.8-0.8L228.4,220.9z" id="PATH_37" class="area" title=""></path>
	<path d="M230.7,217.4c0,0.4-0.1,0.8-0.3,1.1c-0.1,0.2-0.2,0.3-0.2,0.3c0,0-0.1-0.1-0.1-0.4c0-1.2-0.2-4-0.6-8.5l0.8-0.8
		c0.1-0.1,0.1-0.1,0.1-0.1c0,0,0,0.1,0,0.2C230.7,210.6,230.7,213.3,230.7,217.4z" id="PATH_38" class="area" title=""></path>
	<path d="M237,218.7h-0.4c-0.4,0-0.6-0.1-0.8-0.2c0,0.1,0,0.2,0,0.3c0,0.9-0.3,1.8-0.9,2.7c-0.5,0.8-1,1.1-1.3,1.1
		c-0.8,0-1.4,0-2-0.1c-0.2,0-0.3-0.1-0.3-0.1s0.1-0.1,0.3-0.1c0.8-0.2,1.6-0.6,2.4-1.2c0.8-0.7,1.3-1.4,1.3-2.1c0-0.4-0.3-1-1-1.7
		l0.5-0.9c0-0.1,0.1-0.1,0.1-0.1c0,0,0.1,0.1,0.1,0.1c0.3,0.4,0.5,0.7,0.7,0.8c0.3,0.2,0.7,0.4,1.1,0.4h0.3V218.7z" id="PATH_39" class="area" title=""></path>
	<path d="M242.4,218.7h-0.5c-0.3,0-0.7-0.1-1.2-0.2c-0.5-0.1-0.9-0.3-1.1-0.5c-0.2,0.2-0.5,0.3-0.9,0.4c-0.5,0.2-1,0.2-1.5,0.2h-0.7
		v-1.2h0.5c0.8,0,1.3-0.1,1.5-0.2c-0.2-0.1-0.3-0.3-0.4-0.5c-0.1-0.2-0.2-0.4-0.2-0.6c0-0.4,0.2-0.9,0.5-1.5c0.4-0.6,0.8-1,1.3-1
		c0.5,0,0.8,0.3,1.1,0.8c0.2,0.4,0.3,0.9,0.3,1.4c0,0.3-0.1,0.7-0.3,0.9c-0.1,0.2-0.2,0.3-0.4,0.4c0.2,0.1,0.7,0.2,1.4,0.2h0.4
		V218.7z M240.7,216.1c0-0.2-0.1-0.5-0.3-0.7c-0.2-0.3-0.4-0.4-0.7-0.4c-0.2,0-0.5,0.1-0.7,0.3s-0.4,0.5-0.4,0.7
		c0,0.2,0.1,0.5,0.4,0.7c0.2,0.2,0.5,0.3,0.7,0.4c0.2,0,0.5-0.1,0.6-0.3C240.6,216.5,240.7,216.3,240.7,216.1z M240.4,211.2
		l-0.8,0.8l-0.8-0.8l0.8-0.8L240.4,211.2z" id="PATH_40" class="area" title=""></path>
	<path d="M250.3,216.5c0,0.6-0.1,1.1-0.4,1.5c-0.3,0.4-0.8,0.7-1.3,0.7c-0.7,0-1.1-0.3-1.4-0.8c-0.4,0.6-0.8,0.8-1.4,0.8
		c-0.7,0-1.2-0.3-1.5-0.8c-0.4,0.6-0.9,0.8-1.6,0.8H242v-1.2h0.8c0.7,0,1.2-0.4,1.3-1.2c0-0.2,0.1-0.3,0.2-0.3
		c0.1,0,0.1,0.1,0.2,0.3c0.1,0.8,0.5,1.2,1.3,1.2c0.4,0,0.8-0.1,1-0.3c0.1-0.2,0.2-0.4,0.3-0.8c0-0.2,0.1-0.3,0.2-0.3
		c0.1,0,0.1,0.1,0.2,0.3c0.1,0.8,0.5,1.2,1.2,1.2c0.8,0,1.1-0.2,1.1-0.5c0-0.3-0.2-0.7-0.6-1.1l0.5-0.9c0.1-0.1,0.1-0.2,0.2-0.2
		s0.1,0.1,0.2,0.2C250.1,215.6,250.3,216.1,250.3,216.5z" id="PATH_41" class="area" title=""></path>
	<path d="M252.7,217.4c0,0.4-0.1,0.8-0.3,1.1c-0.1,0.2-0.2,0.3-0.2,0.3c0,0-0.1-0.1-0.1-0.4c0-1.2-0.2-4-0.6-8.5l0.8-0.8
		c0.1-0.1,0.1-0.1,0.1-0.1c0,0,0,0.1,0,0.2C252.6,210.6,252.7,213.3,252.7,217.4z" id="PATH_42" class="area" title=""></path>
</g>
<g id="G_43" class="area" title="">
	<path d="M110,220.8c0,0.2-0.1,0.4-0.3,0.8c-0.2,0.4-0.4,0.6-0.5,0.6c-0.3,0-0.7-0.1-1.2-0.2c-0.5-0.1-0.9-0.2-1.2-0.2
		c-0.5,0-0.9,0.1-1.1,0.2c0.2,1.7,0.3,3,0.3,3.8c0,0.4-0.1,0.8-0.4,1.3c-0.1,0.1-0.1,0.2-0.1,0.2c0,0,0,0,0-0.1
		c-0.1-1.6-0.2-3.2-0.4-4.8c0-0.2,0.1-0.4,0.3-0.7c0.2-0.2,0.3-0.4,0.5-0.5c0.2-0.2,0.5-0.2,0.8-0.2c-0.1-0.3-0.1-0.5-0.1-0.7
		c0-0.3,0.1-0.7,0.4-1.1c0.3-0.4,0.6-0.6,1-0.6c0.5,0,1,0.3,1.5,0.8S110,220.4,110,220.8z M109.2,221.1c-0.1-0.3-0.4-0.7-0.7-1
		c-0.4-0.4-0.7-0.5-1.1-0.5c-0.5,0-0.7,0.2-0.7,0.5c0,0.2,0.1,0.4,0.2,0.8C107.5,220.9,108.3,221,109.2,221.1z" id="PATH_44" class="area" title=""></path>
	<path d="M116.2,222.8h-0.4c-0.4,0-0.6-0.1-0.8-0.2c0,0.1,0,0.2,0,0.3c0,0.9-0.3,1.8-0.9,2.7c-0.5,0.8-1,1.1-1.3,1.1
		c-0.8,0-1.4,0-2-0.1c-0.2,0-0.3-0.1-0.3-0.1s0.1-0.1,0.3-0.1c0.8-0.2,1.6-0.6,2.4-1.2c0.8-0.7,1.3-1.4,1.3-2.1c0-0.4-0.3-1-1-1.7
		l0.5-0.9c0-0.1,0.1-0.1,0.1-0.1c0,0,0.1,0.1,0.1,0.1c0.3,0.4,0.5,0.7,0.7,0.8c0.3,0.2,0.7,0.4,1.1,0.4h0.3V222.8z" id="PATH_45" class="area" title=""></path>
	<path d="M124,219.9l-0.4,0.8c-0.7,0-1.3,0-1.6,0.1c-0.4,0.2-1,0.4-1.8,0.8c-0.8,0.4-1.4,0.7-1.8,0.8c-0.6,0.2-1.3,0.3-1.9,0.3h-0.7
		v-1.2h0.8c0.9,0,1.7-0.2,2.4-0.5l2.3-1c-0.4-0.1-1-0.3-1.8-0.6c-0.7-0.3-1.1-0.4-1.3-0.4c-0.4,0-0.8,0.2-1.2,0.5
		c-0.1,0.1-0.1,0.1-0.2,0.1c-0.1,0-0.1,0-0.1-0.1c0,0,0-0.1,0-0.1c0.3-1,0.9-1.4,1.7-1.4c0.3,0,0.7,0.1,1.1,0.3
		c0.8,0.4,1.4,0.6,1.8,0.8c0.7,0.2,1.5,0.4,2.4,0.4c0.2,0,0.3,0,0.3,0.1C124.1,219.7,124.1,219.8,124,219.9z M120.7,224.8l-0.8,0.8
		l-0.8-0.8l0.8-0.8L120.7,224.8z" id="PATH_46" class="area" title=""></path>
	<path d="M128.1,222.8h-0.7c-0.7,0-1.3-0.3-1.5-0.9c-0.2-0.4-0.3-1.1-0.3-1.9v-1.9c0-0.9-0.1-2.2-0.2-3.9l0.6-0.7
		c0.1-0.1,0.2-0.1,0.2,0c0.1,0.9,0.2,2.2,0.2,3.9v2.9c0,0.8,0.4,1.2,1.2,1.2h0.5V222.8z" id="PATH_47" class="area" title=""></path>
	<path d="M135.9,219.9l-0.4,0.8c-0.7,0-1.3,0-1.6,0.1c-0.4,0.2-1,0.4-1.8,0.8c-0.8,0.4-1.4,0.7-1.8,0.8c-0.6,0.2-1.3,0.3-1.9,0.3
		h-0.7v-1.2h0.8c0.9,0,1.7-0.2,2.4-0.5l2.3-1c-0.4-0.1-1-0.3-1.8-0.6c-0.7-0.3-1.1-0.4-1.3-0.4c-0.4,0-0.8,0.2-1.2,0.5
		c-0.1,0.1-0.1,0.1-0.2,0.1c-0.1,0-0.1,0-0.1-0.1c0,0,0-0.1,0-0.1c0.3-1,0.9-1.4,1.7-1.4c0.3,0,0.7,0.1,1.1,0.3
		c0.8,0.4,1.4,0.6,1.8,0.8c0.7,0.2,1.5,0.4,2.4,0.4c0.2,0,0.3,0,0.3,0.1C136,219.7,136,219.8,135.9,219.9z M132.6,224.8l-0.8,0.8
		l-0.8-0.8l0.8-0.8L132.6,224.8z" id="PATH_48" class="area" title=""></path>
</g>
<g id="G_49" class="area" title="">
	<path d="M60.4,190.3h-0.7c-0.9,0-1.4-0.5-1.6-1.6c-0.5,0.5-0.7,0.7-0.8,0.7h-0.9c-0.3,0-0.6,0-0.9-0.1c-0.4-0.1-0.6-0.3-0.6-0.5
		c0-0.8,0.3-1.4,0.8-1.8c0.4-0.3,1-0.6,1.8-1l-0.2-1l0.7-0.8c0,0.1,0.3,1.2,0.7,3.3c0.1,0.6,0.3,1.1,0.4,1.3
		c0.2,0.3,0.4,0.4,0.8,0.4h0.7V190.3z M57.9,188.3l-0.3-1.6c-0.3,0.1-0.7,0.3-1.2,0.5c-0.6,0.3-1,0.6-1,0.7c0,0.2,0.2,0.3,0.7,0.4
		c0.3,0.1,0.6,0.1,0.9,0.1C57.3,188.4,57.6,188.3,57.9,188.3z" id="PATH_50" class="area" title=""></path>
	<path d="M65.3,188.3c0,0.5,0,0.9-0.2,1.3c-0.2,0.5-0.5,0.8-0.8,0.8c-0.5,0-1.3-0.3-2.3-1c-0.3,0.4-0.5,0.6-0.6,0.7
		c-0.3,0.2-0.6,0.3-1,0.3H60v-1.2h0.7c0.4,0,0.8-0.2,1.2-0.7c0.2-0.2,0.5-0.7,0.9-1.3c0.3-0.5,0.7-0.7,1-0.7c0.5,0,0.9,0.2,1.2,0.7
		C65.2,187.6,65.3,188,65.3,188.3z M64.7,189.1c0-0.3-0.1-0.6-0.3-1c-0.2-0.4-0.5-0.6-0.8-0.6c-0.3,0-0.6,0.3-1,0.9
		c0.2,0.2,0.5,0.4,0.9,0.6c0.4,0.2,0.8,0.3,1,0.3C64.7,189.3,64.7,189.2,64.7,189.1z" id="PATH_51" class="area" title=""></path>
	<path d="M71.6,190.3h-0.4c-0.4,0-0.6-0.1-0.8-0.2c0,0.1,0,0.2,0,0.3c0,0.9-0.3,1.8-0.9,2.7c-0.5,0.8-1,1.1-1.3,1.1
		c-0.8,0-1.4,0-2-0.1c-0.2,0-0.3-0.1-0.3-0.1s0.1-0.1,0.3-0.1c0.8-0.2,1.6-0.6,2.4-1.2c0.8-0.7,1.3-1.4,1.3-2.1c0-0.4-0.3-1-1-1.7
		l0.5-0.9c0-0.1,0.1-0.1,0.1-0.1c0,0,0.1,0.1,0.1,0.1c0.3,0.4,0.5,0.7,0.7,0.8c0.3,0.2,0.7,0.4,1.1,0.4h0.3V190.3z" id="PATH_52" class="area" title=""></path>
	<path d="M77.6,182.2c0,0.2-0.1,0.5-0.3,1.1c-1.2,0.3-2.7,0.8-4.4,1.3c1.2,1.2,1.9,2.2,2,2.9c0.1,0.5,0,1-0.2,1.5
		c-0.2,0.5-0.6,0.8-1.1,1c-0.4,0.2-1.1,0.2-2,0.2h-0.4v-1.2h0.3c1.9,0,2.9-0.3,2.9-1c0-0.5-0.5-1.3-1.6-2.3l-0.1,0.3
		c-0.1-0.1-0.3-0.3-0.5-0.6c-0.3-0.3-0.4-0.5-0.4-0.6c0-0.3,0.1-0.6,0.4-0.9c0.1-0.1,0.7-0.3,2-0.7
		C75.4,182.8,76.6,182.5,77.6,182.2z M77.4,180.7l-0.2,0.7l-4.9,1.6l0.2-0.7L77.4,180.7z" id="PATH_53" class="area" title=""></path>
</g>
<g id="G_54" class="area" title="">
	<path d="M81.6,117.9c0.1,0.3,0.1,0.6,0.1,0.9c0,0.4-0.1,0.7-0.2,1.1c-0.3,0.7-0.8,1.3-1.8,1.7c-0.8,0.3-1.6,0.5-2.5,0.5
		c-0.9,0-1.6-0.2-2.2-0.6c-0.6-0.5-0.9-1.1-0.9-2c0-0.5,0.1-0.9,0.3-1.5c0.2-0.4,0.3-0.7,0.5-0.9c0.1-0.1,0.2-0.1,0.2-0.1
		c0.1,0,0.1,0,0.1,0.1c0,0,0,0.1,0,0.2c-0.3,0.6-0.4,1.2-0.4,1.7c0,0.5,0.2,0.9,0.5,1.3c0.4,0.5,1.1,0.7,2,0.7c1,0,1.9-0.2,2.6-0.5
		c0.6-0.3,1-0.6,1.2-1c0.1-0.1,0.1-0.3,0.1-0.4c0-0.3-0.1-0.6-0.2-1c-0.1-0.3-0.4-0.8-0.9-1.6l0.4-0.8c0.1-0.1,0.1-0.2,0.1-0.2
		s0.1,0,0.1,0.1C81.2,116.3,81.5,117.1,81.6,117.9z M78.6,113.5l-0.8,0.8l-0.8-0.8l0.8-0.8L78.6,113.5z" id="PATH_55" class="area" title=""></path>
	<path d="M85.6,118H85c-0.7,0-1.3-0.3-1.5-0.9c-0.2-0.4-0.3-1.1-0.3-1.9v-1.9c0-0.9-0.1-2.2-0.2-3.9l0.6-0.7c0.1-0.1,0.2-0.1,0.2,0
		c0.1,0.9,0.2,2.2,0.2,3.9v2.9c0,0.8,0.4,1.2,1.2,1.2h0.5V118z" id="PATH_56" class="area" title=""></path>
	<path d="M91.1,118h-0.5c-0.3,0-0.7-0.1-1.2-0.2c-0.5-0.1-0.8-0.3-1.1-0.5c-0.6,0.4-1.4,0.6-2.4,0.6h-0.7v-1.2h0.5
		c0.8,0,1.3-0.1,1.5-0.2c-0.4-0.3-0.6-0.7-0.6-1.1c0-0.4,0.2-0.9,0.5-1.5c0.4-0.6,0.8-1,1.3-1c0.5,0,0.8,0.3,1.1,0.8
		c0.2,0.4,0.3,0.9,0.3,1.4c0,0.6-0.2,1-0.7,1.4c0.3,0.1,0.7,0.2,1.4,0.2h0.4V118z M88.1,110.6l-0.8,0.8l-0.8-0.8l0.8-0.8L88.1,110.6
		z M89.3,115.4c0-0.2-0.1-0.5-0.3-0.8c-0.2-0.3-0.4-0.4-0.6-0.4c-0.2,0-0.4,0.1-0.7,0.3c-0.3,0.2-0.4,0.5-0.4,0.7
		c0,0.2,0.1,0.5,0.4,0.7c0.2,0.2,0.5,0.3,0.7,0.4c0.2,0,0.4-0.1,0.6-0.3C89.2,115.9,89.3,115.7,89.3,115.4z M89.8,110.6l-0.8,0.8
		l-0.8-0.8l0.8-0.8L89.8,110.6z" id="PATH_57" class="area" title=""></path>
	<path d="M94.7,118h-0.4c-0.9,0-1.5-0.3-1.8-1c-0.1,0.3-0.3,0.5-0.6,0.7c-0.3,0.2-0.6,0.3-0.9,0.3h-0.4v-1.2H91c0.8,0,1.2-0.3,1.2-1
		v-3.5c0-1.3,0-2.3-0.1-3l0.9-0.7v6.7c0,1,0.4,1.5,1.3,1.5h0.4V118z" id="PATH_58" class="area" title=""></path>
	<path d="M101.9,118h-0.6c-0.5,0-1-0.3-1.4-0.8c-0.3,0.8-0.6,1.2-0.9,1.2c-0.3,0-0.8-0.2-1.4-0.5c-0.5-0.3-0.9-0.6-1.1-0.8
		c-0.5,0.6-1,0.9-1.5,0.9h-0.6v-1.2H95c0.5,0,0.9-0.2,1.3-0.6c0.3-0.3,0.6-0.7,1-1.1c0.4-0.4,0.7-0.6,1-0.6c0.4,0,0.7,0.2,1,0.6
		c0.2,0.2,0.4,0.6,0.9,1.1c0.3,0.4,0.7,0.6,1.1,0.6h0.6V118z M99.2,117.2c0-0.3-0.1-0.6-0.3-1c-0.2-0.4-0.5-0.6-0.9-0.6
		c-0.3,0-0.7,0.3-1.1,0.8c0.1,0.1,0.4,0.3,0.9,0.6c0.5,0.3,0.9,0.4,1.2,0.4C99.1,117.3,99.2,117.3,99.2,117.2z" id="PATH_59" class="area" title=""></path>
	<path d="M109.8,115.9c0,0.6-0.1,1.1-0.4,1.5c-0.3,0.4-0.8,0.7-1.3,0.7c-0.7,0-1.1-0.3-1.4-0.8c-0.4,0.6-0.8,0.8-1.4,0.8
		c-0.7,0-1.2-0.3-1.5-0.8c-0.4,0.6-0.9,0.8-1.6,0.8h-0.7v-1.2h0.8c0.7,0,1.2-0.4,1.3-1.2c0-0.2,0.1-0.3,0.2-0.3
		c0.1,0,0.1,0.1,0.2,0.3c0.1,0.8,0.5,1.2,1.3,1.2c0.4,0,0.8-0.1,1-0.3c0.1-0.2,0.2-0.4,0.3-0.8c0-0.2,0.1-0.3,0.2-0.3
		c0.1,0,0.1,0.1,0.2,0.3c0.1,0.8,0.5,1.2,1.2,1.2c0.8,0,1.1-0.2,1.1-0.5c0-0.3-0.2-0.7-0.6-1.1l0.5-0.9c0.1-0.1,0.1-0.2,0.2-0.2
		s0.1,0.1,0.2,0.2C109.6,114.9,109.8,115.4,109.8,115.9z" id="PATH_60" class="area" title=""></path>
	<path d="M118.9,117.6c0,1.5-0.5,2.8-1.5,3.8c-0.3,0.3-0.5,0.5-0.6,0.5c-0.6,0-1.2-0.1-1.9-0.2c-0.3,0-0.4-0.1-0.4-0.1
		c0,0,0.1-0.1,0.4-0.2c0.8-0.2,1.6-0.7,2.3-1.3c0.3-0.3,0.6-0.5,0.8-0.9c0.3-0.4,0.5-0.8,0.5-1.1v-0.3l-1.3,0
		c-0.9,0-1.4-0.4-1.4-1.1c0-0.5,0.1-1,0.4-1.6c0.3-0.6,0.7-1,1.1-1c0.6,0,1.1,0.4,1.4,1.3C118.8,116.1,118.9,116.8,118.9,117.6z
		 M118.2,116.8c0-0.3-0.1-0.6-0.3-0.9c-0.2-0.3-0.5-0.5-0.8-0.5c-0.2,0-0.4,0.1-0.5,0.2c-0.2,0.2-0.2,0.3-0.2,0.5
		c0,0.5,0.3,0.7,1,0.7C117.5,116.9,117.8,116.8,118.2,116.8z" id="PATH_61" class="area" title=""></path>
	<path d="M129.6,118h-0.7c-0.9,0-1.4-0.5-1.6-1.6c-0.5,0.5-0.7,0.7-0.8,0.7h-0.9c-0.3,0-0.6,0-0.9-0.1c-0.4-0.1-0.6-0.3-0.6-0.5
		c0-0.7,0.3-1.4,0.8-1.8c0.4-0.3,1-0.6,1.8-1l-0.2-1l0.7-0.8c0,0.1,0.3,1.2,0.7,3.3c0.1,0.6,0.3,1.1,0.4,1.3
		c0.2,0.3,0.4,0.4,0.8,0.4h0.7V118z M127.1,116l-0.3-1.6c-0.3,0.1-0.7,0.3-1.2,0.5c-0.6,0.3-1,0.6-1,0.7c0,0.2,0.2,0.3,0.7,0.4
		c0.3,0.1,0.6,0.1,0.9,0.1C126.6,116,126.9,116,127.1,116z" id="PATH_62" class="area" title=""></path>
	<path d="M132,116c0,1.3-0.7,2-2,2h-0.8v-1.2h0.7c1,0,1.5-0.2,1.5-0.5c0-0.3-0.2-0.7-0.7-1.2l0.4-1c0-0.1,0.1-0.1,0.1-0.1
		c0,0,0.1,0.1,0.2,0.2C131.8,114.7,132,115.4,132,116z M131.9,111.5l-0.8,0.8l-0.8-0.8l0.8-0.8L131.9,111.5z" id="PATH_63" class="area" title=""></path>
	<path d="M136,118h-0.7c-0.7,0-1.3-0.3-1.5-0.9c-0.2-0.4-0.3-1.1-0.3-1.9v-1.9c0-0.9-0.1-2.2-0.2-3.9l0.6-0.7c0.1-0.1,0.2-0.1,0.2,0
		c0.1,0.9,0.2,2.2,0.2,3.9v2.9c0,0.8,0.4,1.2,1.2,1.2h0.5V118z" id="PATH_64" class="area" title=""></path>
	<path d="M140.9,116c0,0.5,0,0.9-0.2,1.3c-0.2,0.5-0.5,0.8-0.8,0.8c-0.5,0-1.3-0.3-2.3-1c-0.3,0.4-0.5,0.6-0.6,0.7
		c-0.3,0.2-0.6,0.3-1,0.3h-0.5v-1.2h0.7c0.4,0,0.8-0.2,1.2-0.7c0.2-0.2,0.5-0.7,0.9-1.3c0.3-0.5,0.7-0.7,1-0.7
		c0.5,0,0.9,0.2,1.2,0.7C140.8,115.3,140.9,115.6,140.9,116z M140.4,116.7c0-0.3-0.1-0.6-0.3-1c-0.2-0.4-0.5-0.6-0.8-0.6
		c-0.3,0-0.6,0.3-1,0.9c0.2,0.2,0.5,0.4,0.9,0.6c0.4,0.2,0.8,0.3,1,0.3C140.3,117,140.4,116.9,140.4,116.7z" id="PATH_65" class="area" title=""></path>
</g>
</svg>


