<?xml version="1.0" encoding="UTF-8"?><svg id="Layer_1" xmlns="http://www.w3.org/2000/svg" viewBox="0 0 951.83 1034.01"><defs><style>.cls-1{fill:#e5c5de;}.cls-1,.cls-2{stroke:#000;stroke-miterlimit:10;stroke-width:.5px;}.cls-3{fill:#e8d0e5;}.cls-3,.cls-4,.cls-5,.cls-6,.cls-7{stroke-miterlimit:18.31;}.cls-3,.cls-5,.cls-6,.cls-7{stroke:#020202;stroke-width:.37px;}.cls-2{fill:#fcf8c6;}.cls-4{fill:none;stroke:#040404;stroke-width:.92px;}.cls-5{fill:#fdfad6;}.cls-6{fill:#dbeccb;}.cls-7{fill:#fbd1d1;}</style></defs><path id="_476" class="cls-7" d="m353,294.42c11.5,10.6,19.2,23.1,32.8,31.7,2,2,6.8,2.9,7.7.9,8.6-14.5-7.7-22.1-12.4-34.6-.9-3.8-.9-8.6.9-11.5,9.7-12.4,8.6-31.7,19.2-36.6,13.5-6.8,29.8-11.5,41.4-24.2,17.4-20.1,51.1-26.9,59.7-52,6.8-20.1,19.2-55.8,44.3-43.4,23.1,10.6,45.2,24.2,71.2,17.4.9-.9.9-8.6-.9-9.7-8.6-6.8-13.5-11.5-12.4-21.2.9-2.9,8.6-2,12.4.9,2.9.9,3.8,4.8,6.8,6.8,6.8,3.8,10.6,11.5,17.4,13.5,10.6,3.5,19.6-1.3,27.1-8.1-1.1-.9-2-1.6-2.9-2.4-11.5-8.6-25.4-34.8-36.2-56.7l-1.3-2.6c-4.4-8.8-10.3-15-20.1-21.8-7.5-4.9-24.2-4.6-33.1-4.4h-4.4c-8.8,0-27.1,0-41-5.1-12.6-4.8-30.6-9.7-38.4-9.7-.4,0-31.5-.2-50.3-7.1-.5,4.9-.9,10.1.7,14.6,4.8,9.7,18.3,25.1,4.8,32.8-3.8,2.9-8.6,2.9-11.5,4.8-6.8,5.9-8.6,16.3-18.3,18.3-9.7.9-19.2-.9-28.9,2.9-16.7,6.4-32,26.5-24.3,44.8,3.8,8.6,10.6,16.3,6.8,26-4.8,10.6-13.5,23.1-26.9,16.3,0,2.9-.9,7.7-2.9,7.7-16.3,2.9-19.2,23.1-20.1,36.6,0,4-1.6,8.1-4.4,10.6,3.8,8.4,7.7,16.8,12.1,25.1,7.1,14.5,13.9,28.9,25.4,39.4Z"/><path id="_488" class="cls-5" d="m162.5,336.82c4.8-12.4,16.3-20.1,28.9-25.1,7.7-3.8,15.4,3.8,20.1,9.7,14.5,19.2,26,38.4,42.3,55.8,11.5,13.5,33.7,11.5,41.4,26.9,3.8,6.8.9,16.3,5.9,23.1,5.9,6.8,14.5,12.4,24,8.6,10.6-3.8,21.2-14.5,31.7-11.5,4.8,2,9.7,8.6,14.5,4.8,9.7-6.8,18.3-10.6,28-14.5,13.5-5.9,12.4-26,5.9-36.6-3.8-4.8-10.6-8.6-14.5-13.5-9.7-12.4-.9-24.2,9.7-32.8,2-2-.9-5.7-2.9-7.7-.7-.5-1.3-1.1-1.8-1.6-.4,1.5-1.1,2.9-2,4.6-.9,2-5.9.9-7.7-.9-13.5-8.6-21.2-21.2-32.8-31.7-11.5-10.6-18.3-25.1-26-39.5-4.2-8.2-8.2-16.5-12.1-25.1-3.1,2.9-7.5,4-12.1.9-9.7-5.7-18.3-13.5-24-23.1-5.9-10.6-.9-24.2-4.8-36.6-6.8-20.1-26.2-15.9-44.1-17.2l.5,5.3v34l-6.4,17.9c0,.2-9.9,32.2-12.3,40.6-2.6,8.8-12.4,30.2-17.8,38.3-3.7,5.7-11.9,11.3-19.2,16.7-3.3,2.4-6.6,4.6-8.8,6.6-4.4,3.7-9.9,22.7-12.4,35.1-.4,1.8-1.8,2.9-3.7,2.9-.2,0-.5,0-.7-.2-.2,0-.5-.2-.7-.4l3.8,6.8c6.4-3,7-14.5,10.1-20.6Z"/><path id="_490" class="cls-3" d="m464.7,307.92c8.6,2,17.4,2,25.1-.9,9.7-2.9,18.3,0,28,0,4.8,0,4.8-6.8,2.9-10.6-5.9-13.5-25.1-24-17.4-39.5,2.9-7.7,9-14.3,13.9-21.2-.5-.5-.9-1.3-1.3-1.8-8.2-16.7-16.7-32.6-29.1-45.2-13.7,10.8-32.6,18.3-44.1,31.7-11.5,12.4-27.8,17.4-41.4,24.2-10.6,4.8-9.7,24-19.2,36.6-2,2.9-2,7.7-.9,11.5.2.5.4,1.1.7,1.6,5.5-.4,11-2.4,15.7-3.5,23.7-6,44,10.3,67.1,17.1Z"/><path id="_491" class="cls-6" d="m427.2,445.62c5.9,13.5,24,18.3,37.5,12.4,8.6-3.8,14.5-14.5,23.1-18.3,7.7-3.8,18.3,2,27.8,3.8,22.1,4.8,36.6-8.6,46.1-26,2.9-5.9-.9-12.4-3.8-17.4-6.8-12.4,6.8-26,.9-36.6-11.5-20.1-32.8-31.9-34.6-56.7,0-1.5-1.1-2.9-2.7-4.2-.4,2.4-1.5,4.2-4,4.2-9.7,0-18.3-2.9-28,0-7.7,2.9-16.3,2.9-25.1.9-23.1-6.8-43.4-23.1-67.4-17.4-4.8,1.1-10.3,3.1-15.7,3.5,4.9,10.3,16.8,17.4,13.9,28.6.5.5,1.3,1.1,1.8,1.6,2,2,4.8,5.9,2.9,7.7-10.6,8.6-19.2,20.1-9.7,32.8,3.8,4.8,10.6,8.6,14.5,13.5,5.1,8.1,7,22,1.5,30.6,11.3,8.6,14.9,23.4,21,37Z"/><path id="_462" class="cls-6" d="m703.4,419.62c3.8,11.5,19.2,26,34.6,26,7.7,0,14.5-6.8,22.1-8.6,6.8-.9,11.5,7.7,20.1,2.9,1.29-.72,2.52-1,3.68-.94,4.19.22,10.49,8.57,12.62,19.24,1.83,9.17-.12,16.11.8,16.3.53.11,1.8-2.07,5.3-14.1,5.93-7.77,11.87-15.53,17.8-23.3l11.91-9c10.43-6.72,20.86-13.43,31.29-20.15,3.5-1.85,7-3.7,10.5-5.55.73-11.67,1.47-23.33,2.2-35-6.8-6-34.2-30.8-42.7-36.2-10.8-7.1-39.5-37.9-47-47-8.6-10.3-19.4-37.7-17.4-47.8.4-1.5.7-3.1,1.1-4.6,1.5-5.1,2.4-8.6-1.6-13.5-9.2,8.6-18.1,17.8-26,29.3-10.6,13.5-26.9,13.5-40.5,20.1-2.9,2-4.8,4.8-6.8,7.7-11.5,20.1-7.7,49.1-30.8,56.7-.5.2-1.1.4-1.6.5,5.3,16.1,7,33.3,11.3,50.5,4,17.2,23.2,21.1,29.1,36.5Z"/><path id="_458" class="cls-7" d="m652.3,461.82c2.9,12.4,16.5,17.4,26.9,25.1,10.6,8.6,19.2,20.1,18.3,34.6,0,1.8,2.9,3.8,3.8,4.8,12.4,8.6,27.8,13.5,31.9,26.9,3.8,13.5.9,28.9,15.4,39.5,8.8,6.2,18.7,7.9,28.7,8.1-1.6-2.4-2.4-5.1-2.6-8.4-.3-4.92,2.12-10.42,7-13.7,4.78-3.21,11-3.55,16.2-.9v-30.2l11.7-30.9c9.43-2.6,18.87-5.2,28.3-7.8-4.54-2.61-10.93-6.44-18.4-11.4-17.98-11.95-20.03-15.93-21.2-18.3-2.9-5.9,0-13.5-2-21.2-2-8.6-7.7-23.1-16.3-18.3s-13.5-3.8-20.1-2.9c-7.7,2-14.5,8.6-22.1,8.6-10.8,0-21.6-7.1-28.6-15.4-14.5,11.2-38.4,12.6-53.3,8.6-1.8-.4-3.8-.9-5.7-1.3.1,8.3,1,16.5,2.1,24.5Z"/><path id="_459" class="cls-6" d="m228.9,574.42c-2-4.8.9-11.5,3.8-12.4,23.1-.9,46.1,0,67.4-13.5,13.5-7.7,18.3-34.6,2.9-39.5-15.4-4.8-39.5-3.8-44.3-21.2-4.8-13.5-17.4-16.3-26.9-22.1-18.3-12.3-31.9-30.8-52.7-32l-37.2,102.3-2,141.3h95.7l2.9,2,.5,2.7c9-35.6,5.1-73.5-10.1-107.6Z"/><path id="_467" class="cls-5" d="m551.3,437.92c2.9,8.6,11.5,17.2,6.8,23.1-10.6,12.4-13.5,28.9-5.9,41.4,12.4,21.2,25.1,52.9,52.9,47.2,12.4-2.9,17.4-19.2,29.8-23.1,21.2-5.9,35.7,15.4,48.1,29.8,4.8,4.8,18.3,5.9,23.1-.9,4.8-6.4,6.8-13.9,7.1-21.6-4-2.2-8.1-4.6-11.9-7.1-.9-.9-3.8-2.9-3.8-4.8.9-14.5-7.7-26-18.3-34.6-10.6-7.7-24.2-12.4-26.9-25.1-1.1-8.1-2-16.3-1.8-24.5-23.1-5.7-45.4-12.3-68.5-2.6-10.3,4-17.2-3.5-24.7-10.1-1.8,2.7-3.8,5.3-6.2,7.5-.4,1.7-.4,3.4.2,5.4Z"/><path id="_510" class="cls-7" d="m331.8,567.82c10.6-2.9,15.4-16.3,26-15.4,7.7.9,16.3,5.9,24,2.9,8.6-3.8,19.2-11.5,14.5-22.1-8.6-17.4-22.1-35.7-19.2-52.9,2-12.4,15.4-23.1,11.5-38.4-1.3-6.4-4.2-12.6-8.2-18.3-2.9,1.6-6,3.5-9.2,5.7-4.8,3.8-9.7-2.9-14.5-4.8-10.6-2.9-21.2,7.7-31.7,11.5-.5.2-1.1.4-1.5.5,1.1,19.2,5.7,37,22.7,49.4-3.1,15.7-17.8,30.8-34,35.3,1.5,9.9-3.7,22.5-12.3,27.3-1.1.7-2.4,1.5-3.5,2,11.1,8.5,19.8,21.2,35.4,17.3Z"/><path id="_472" class="cls-7" d="m323.2,834.42c8.6-8.6-2.9-23.1-10.6-33.7-5.9-7.7-1.8-16.3,2.9-21.2,12.4-15.4,29.8-25.1,38.4-42.3,6.8-13.5-5.9-26-15.4-35.7-3.8-3.8-5.9-12.4-10.6-15.4-26-13.5-53.8-2-80.9-2-2.6.2-5.1,0-7.7-.7v.4l-.9,165.1.5,10.4,30.8,4.4,2.9.9,2.9,2,4.9,5.5,3.8,6.2c.5-1.6.9-3.3,1.1-4.8,2.2-23.8,25.5-25.6,37.9-39.1Z"/><path id="_635" class="cls-5" d="m409.8,700.52c6.8-4.8,11.5-17.4,21.2-10.6,12.6,10.3,32.2,20.5,45.4,12.3-14.6-10.4-22.7-34.8-28-52.7-4.8-19.2-.9-39.5-13.5-56.7-7.7-11.5-20.1-22.1-34.6-16.3-11.5,5.9-17.4,18.3-22.1,30.8-.9,2.9-6.8,5.9-10.6,2.9-6.8-3.8-16.3-4.8-22.1.9-.9,2-2,5.9-3.8,8.6-4.8,7.7-16.3,13.5-10.6,24,2.9,4.8,8.6,5.9,12.4,9.7.9,2,.9,5.9,0,6.8-2.9,2-7.7.9-11.5.9-4.8.9-4.8,6.8-3.8,9.7,1.3,2.2,3.1,4,4.4,5.9,24.5,1.1,47,7.9,68.8,23.1,2.5,1.7,5.5,1.7,8.4.7Z"/><path id="_483" class="cls-6" d="m619.6,582.12c12.4,7.7,12.4,21.2,15.4,34.6,0,3.8,4.8,8.6,7.7,8.6,27.8-2,40.5,22.1,56.7,40.5,7.7,7.7,19.2,12.4,26.9,21.2.9.9,4.8.9,5.9,0,5.9-6.8,11.5-15.4,18.3-17.4,7.7-3.8,8.6,11.5,10.6,19.2,2.4,6.6,10.1,9.9,17.8,9.5-1.3-1.6-2.4-3.1-3.8-4.8-3.5-4.2-4.9-8.4-4.4-12.6.9-8.1,8.6-14.8,16.7-20.9,8.6-6.4,9.2-18.1,9.5-26.5.2-3.1.2-5.7.7-7.7,1.3-4.9.2-15.9-10.4-18.7-4.2-1.1-7.5-3.3-9.5-6.6-10.1-.2-20-2-28.7-8.1-14.5-10.6-11.5-26-15.4-39.5-2.7-9.3-11-14.5-20-19.8-.4,7.7-2.4,15.4-7.1,21.6-4.8,6.8-18.3,5.9-23.1.9-12.4-14.5-26.9-35.7-48.1-29.8-12.4,3.8-17.4,20.1-29.8,23.1-4.8.9-9,.9-13,0-2.2,4-7.3,5.1-9.2,7.7-4.8,7.7,6.8,13.5,11.5,21.2.9,2,0,3.8,0,5.9,0,.2-.2.2-.2.2,1.3-.9,2.6-2,4-3.1,6.5-3.4,15.3-3.4,21,1.3Z"/><path id="_274" class="cls-6" d="m741.8,732.42c-3.8,17.2-8.6,29.8-20.1,44.3-3.8,3.8,0,10.6,4.8,11.5,15.4,2,26,13.5,38.4,20.1,3.8.9,8.6,0,12.4-.9.5-.4,1.3-.7,1.8-1.3-.7-.9-1.3-1.6-1.8-2.7-4.8-9.5,6.8-19.2,2.9-26-8.2-19,11.2-32.4,22.3-46.1-3.7-2.2-6.4-5.1-8.2-8.6-1.1-2.2-2.2-4.2-3.5-6.4-.9.5-1.8,1.1-2.9,1.5-17.1,4-42.2-3.7-46.1,14.6Z"/><path id="_452" class="cls-3" d="m448.2,911.42c-2,1.8-6.8,1.8-10.6,0-13.5-10.6-18.3-29.8-35.7-31.9-4.8-.9-6.8,9.7-10.6,6.8-8.6-4.8-16.3-18.3-25.1-12.4-14.5,8.6-31.7,8.6-38.4-6.8-4.4-9.7-4.2-20.9-7.3-30.2-12.8,11.3-33.1,14.5-35,37-.2,1.6-.5,3.1-1.1,4.8l.2.2,2.6,7.5,2.6,15.4.9,2.9,2.6,2.6,3.5,1.5,2.9.5h3.5l11-1.5h3.5l3.5.9,2.9,2.6,5.9,9.9,9.3,11,11,11,2,2.6,1.5,3.5.5,4-.5,3.5-2.6,2.9-2.6,2.6-2.6,2.9-.5,4,.5,2.6,3.5,7.9,6,6.4,1.5,3.5.9.5,5.5,17.4.5,4.4,2.6,6.4,1.5,2.6,2,2,4,2.9,4,2.9,11.3,3.5-.5-.5h.5l.5-.5,1.5-2v2.6l21.4,2,6.4-2,2.6-2,2.6-2,2.6-2.9.5-3.5-.5-4.9-4-6.4-1.5-4,.9-5.9,4.4.9,12.4,7h20.3l5.5,2.6,5.5-2,19.4,2,6-1.5,5.5-4.4,4-6,1.5-7v-3.5l-1.5-7-.5-3.5.9-4,2.6-7,.5-4.4-1.5-15.4-2-7.5-2.6-6.4-4.4-4.9-6-4.9-4.9-4.9-2.6-7.5.9-2,2-2.6,1.5-2.6-3.5-2.9.9-2.6c-12.8-4.9-26.3,2.6-38.4,13.2Z"/><path id="_485" class="cls-6" d="m534.3,864.02l-7.5-4.4-9-2-7.9-3.5,1.8-6.6c-1.8-1.6-3.1-3.7-3.8-6.2-4.8-18.3-17.4-26.9-29.8-39.5-.9-2-.9-5.9,0-7.7,2.9-4.8,10.6-8.6,10.6-11.5,0-22.1,7.7-41.4,18.3-60.6,2.4-4.4,1.5-10.1-1.5-14.8-5.1.4-10.1.5-14.8.4-5.3-.2-10.1-2-14.3-5.1-13,8.2-32.8-2-45.4-12.3-9.7-6.8-14.5,5.9-21.2,10.6-2.9.9-5.9.9-8.6-.9-21.8-15.2-44.3-21.8-68.8-23.1,1.5,2.2,2.6,4.6,1.5,7.7-.7,1.8-1.8,3.3-3.1,4.4,3.1,3.8,4.9,9.9,7.9,13,9.7,9.7,22.1,22.1,15.4,35.7-8.6,17.4-26,26.9-38.4,42.3-4.8,4.8-8.6,13.5-2.9,21.2,7.7,10.6,19.2,25.1,10.6,33.7-.7.9-1.6,1.6-2.6,2.4,3.1,9.3,2.9,20.7,7.3,30.2,6.8,15.4,24,15.4,38.4,6.8,8.6-5.9,16.3,7.7,25.1,12.4,3.8,2.9,5.9-7.7,10.6-6.8,17.4,2,22.1,21.2,35.7,31.9,3.8,1.8,8.6,1.8,10.6,0,12.1-10.6,25.6-18.1,38.1-13.7l.7-2,2.6-4,.9-1.5,15.9-15.4,3.5-.9,15.9,2.6h4.9l5.5-5.9-2.2-6.9Z"/><path id="_482" class="cls-7" d="m556,708.22c0,2.9,4.8,4.8,5.9,4.8,12.4-2,30.8,2,25.1,16.5-5.9,14.5-19.2,29.8-10.6,45.2,5.9,10.6,17.4,19.2,31.7,14.5,9.7-2.9,14.5-11.5,22.1-16.3,5.9-3.8,13.5-2,15.4-6.8,6.8-19.2,12.4-37.5,31.7-48.1,4.8-2.9,2.9-8.6.9-10.6-17.4-25.1-42.3-46.1-39.5-76,.4-2.2.5-4.6,1.1-6.8-2.4-1.6-4.9-4.8-4.9-7.5-2.9-13.5-2.9-26.9-15.4-34.6-5.9-4.8-14.5-4.8-21.2-.9-1.5,1.1-2.7,2.2-4,3.1-4,7.5-17.2,11.3-14.3,20,.9,2,2.9,3.8,2,6.8-2.9,4.8-10.6,6.8-7.7,12.4,4.8,9.7,19.2,15.4,16.3,26.9-2.9,11.5-19.2,10.6-24,20.1-4.6,9-10.8,15.9-18.1,21.2,5.3,3.1,8.8,8.8,7.5,16.1Z"/><path id="_465" class="cls-5" d="m604.2,814.22c-2.2-6.6,1.1-15.6-.2-24-12.6,2.2-22.5-5.9-27.8-15.4-8.6-15.4,4.8-30.8,10.6-45.2,5.9-14.5-12.4-18.3-25.1-16.5-.9,0-5.9-2-5.9-4.8,1.3-7.3-2.2-13-7.5-16.3-12.6,9.3-28.2,13.7-43,15,2.9,4.8,4,10.4,1.5,14.8-10.6,19.2-18.3,38.4-18.3,60.6,0,2.9-7.7,6.8-10.6,11.5-.9,2-.9,5.9,0,7.7,12.4,12.4,25.1,21.2,29.8,39.5.7,2.6,2,4.6,3.8,6.2l.2-.4,8.4-5.5,10.4,1.5,4.9-2.6h4.9l4.9,1.5,6,.9h1.5l2.6-2h2l2,.9,2.9,4.4,2,1.5,4-.9,2.9-2.6,2.6-.5,2.6,4-.9,1.5-.5.9-.5,4.4,4.4-3.5,4.4-4.9,3.5-1.5,2.6,12.4,2.6,4.9,4.4,2.9,5.9-.9-.5,6-1.5,3.5-8.4,11-5.5,10.4-2,4.4-3.5-5.5-4-3.5-4.9-2-6.4-.9-4-1.5-11.9-6.4-6-1.5-5.5.9-9.3,3.5h-6.4l-11.9-2-4.4,1.5-3.5,5.5,9.3,2.6,7.5,4,5.5,7,2,11.3,4,3.5,18.9,11.5,7,2.6,4.9.5,2.9,3.5,2.6,4.4,5.5,3.5,4.9-.9,4-4,3.5-5.5,1.5-6,3.5,2.6v2l-.9,2-.5,2.9v6.9l.9,2,4.4,2.9.5.9-.5,13.9,2.9,2.9,7.5.5,6-.9,11-4.9,6-.9,2.6.9,4.2,2.7c1.1-15.6-3.7-32.8-2.4-47.8.9-10.6,13.5-14.5,16.3-24.2,2.9-10.6-5.9-16.3-11.5-24-2.9-2.9-4.8-9.7.9-13.5,9.7-5.7,6.8-15.4,12.4-24,.4-.4.7-.7.9-1.1-17.3-.4-39.3,5.4-46.6-12.7Z"/><path id="_463" class="cls-3" d="m804.4,826.72c-7-9.7-18.9-12.1-25.3-20.5-.5.4-1.1.7-1.8,1.3-3.8.9-8.6,2-12.4.9-12.4-6.8-23.1-18.3-38.4-20.1-4.8-.9-8.6-7.7-4.8-11.5,11.5-14.5,16.3-26.9,20.1-44.3,3.8-18.3,28.9-10.6,46.1-14.5,1.1-.4,2-.9,2.9-1.5-3.5-6-7.5-11.9-12.1-17.9-7.5.4-15.4-2.7-17.8-9.5-2-7.7-2.9-23.1-10.6-19.2-6.8,2-12.4,10.6-18.3,17.4-.9.9-4.8.9-5.9,0-7.7-8.6-19.2-13.5-26.9-21.2-16.3-18.3-28.9-42.3-56.7-40.5-.9,0-1.8-.4-2.7-1.1-.4,2.4-.7,4.6-1.1,6.8-2.9,29.8,22.1,51.1,39.5,76,2,2,3.8,7.7-.9,10.6-19.2,10.6-25.1,28.9-31.7,48.1-2,4.8-9.7,2.9-15.4,6.8-7.7,4.8-12.4,13.5-22.1,16.3-1.3.5-2.6.7-3.8.9,1.3,8.6-2.2,17.4,0,24,7.3,18.1,29.1,12.3,46.1,13.2,17.8-21.8,52.4-17.8,73.2-2.6,13.2,9.9,20.1,24.2,32.2,34.6,5.7-6.8,17.4-9.2,25.6-6.8,9.5,2.1,31.6-14.2,23-25.7Z"/><path id="_466" class="cls-7" d="m832.3,910.32c-25.1-9.7-51.1-15.4-74.1-30.8-4.8-2.9-6.8-10.6-4.8-16.3.5-1.5,1.3-2.7,2.4-3.8-12.1-10.4-18.9-24.7-32.2-34.6-21.2-15.4-56.7-19.2-74.1,3.8-5.9,8.6-2.9,18.3-12.4,24.2-5.9,3.8-3.8,10.6-.9,13.5,5.9,7.7,14.5,13.5,11.5,24-2.9,9.7-15.4,13.5-16.3,24.2-1.3,15,3.7,32.2,2.4,47.8l.2.2,2.9.9,3.5-.5,6.4-1.5,2.9-.5,6.4.5,2.6.5,2.9,1.5,2.9,2,1.5,1.5.5,1.5,2,2.9,2.6,6v15.9l.9,5.5,7.9,12.4,9.3,2,10.4-4.4,91.2-60,10.4-3.5,11-2,10.4,1.5,7.5,2.9,2.6.9,4.4,2.9,1.5,3.5.4,1.3c.4-.2.7-.4,1.1-.4s10.4-1.5,11.7-11.7c0-.2,1.1-7.9,3.5-15.7-6.7-7.6-14.1-14.2-23-18.1Z"/><path id="_470" class="cls-5" d="m946.1,957.72c0-2.2-1.6-51.4-1.6-56.4s0-19.6-13.2-28.4c-15.9-10.6-23.1-25.1-23.1-34.6,0-11,9.3-15.2,23.6-21.6,3.5-1.5,4.9-3.8,4.4-7.3-.7-6.4-7-13-10.3-13.7-8.2-1.6-14.5-9.5-19.4-24-1.8-5.5-3.1-5.9-13.9-7.5-2.7-.4-5.9-.9-9.7-1.6-6.6-1.1-11.9-4.8-15-10.3-5.1-8.8-4-20.5-2.7-24.3,1.3-4-.4-15.6-4-19.4-1.5-1.5-3.7-2-6-1.6-2.7.4-7.9,2.6-12.8,12.3l-2,4c-5.5,11-6.4,13.2-14.1,12.8h-2c-8.8,0-16.1-1.6-21.6-4.9-11.2,13.7-30.6,27.1-22.3,46.1,3.8,6.8-7.7,16.5-2.9,26,5.9,10.6,19.2,12.4,26.9,23.1,8.6,11.5-13.5,27.8-23.1,26-9.7-2.9-24.2.9-27.8,10.6-2,5.9,0,13.5,4.8,16.3,23.1,15.4,49.1,21.2,74.1,30.8,9,3.7,16.3,10.4,23.1,17.8,2.2-7.3,5.7-14.8,10.4-16.5,2.6-.9,5.3-.2,7.3,2,3.5,3.5,8.2,7.1,13.7,11.3,4.2,3.3,9.2,7.1,14.3,11.5,11,9.3,22.1,14.3,22.1,14.3l23.1,8.6c-.3-.5-.3-1.2-.3-1.4Z"/><path id="_457" class="cls-3" d="m333.8,684.32c1.8-5.9-2.9-8.6-5.9-13.5-.9-2.9-.9-8.6,3.8-9.7,3.8,0,8.6.9,11.5-.9.9-.9.9-4.8,0-6.8-3.8-3.8-9.7-4.8-12.4-9.7-5.9-10.6,5.9-16.3,10.6-24,1.8-2.9,2.9-6.8,3.8-8.6,5.9-5.9,15.4-4.8,22.1-.9,3.8,2.9,9.7,0,10.6-2.9,4.8-12.4,10.6-25.1,22.1-30.8,14.5-5.9,26.9,4.8,34.6,16.5,12.4,17.4,8.6,37.5,13.5,56.7,6.8,23.1,18.3,56.7,42.3,57.8,26.9.9,60.6-6.8,76-36.6,4.8-9.7,21.2-8.6,24-20.1,2.9-11.5-11.5-17.4-16.3-26.9-2.9-5.9,4.8-7.7,7.7-12.4.9-2.9-.9-4.8-2-6.8-2.9-8.6,10.6-12.4,14.5-20.1,0-2,.9-3.8,0-5.9-4.8-7.7-16.3-13.5-11.5-21.2,1.8-2.7,7-3.7,9.2-7.7-6.6-1.6-11.9-5.5-16.8-10.6-13.9,9.2-31.9,12.6-47.2,6.8-18.3-6.8-36.6,4.8-54.9,4.8-14.5-.9-39.5-3.8-37.5-24.2,0-8.6,8.6-16.3,9.7-24,0-8.6-12.4-9.7-19.2-14.5-8.6-6.8-12.4-19.2-3.8-26.9,3.8-2.9,7.7-5.7,11.5-6.8-2.9-2.4-5.1-5.1-6.8-8.6-6-13.5-9.7-28.4-20.7-36.8-1.6,2.6-4,4.8-7.1,6-6.6,2.6-12.6,5.1-18.9,8.8,4,5.5,7,11.9,8.2,18.3,3.8,15.4-9.7,26-11.5,38.4-2.9,17.4,10.6,35.7,19.2,52.9,4.8,10.6-5.9,18.3-14.5,22.1-7.7,2.9-16.3-1.8-24-2.9-10.6-.9-15.4,12.4-26,15.4-15.6,3.8-24.3-8.8-35.3-17.2-20.1,11.3-42.1,10.4-63.9,11.3-2.9.9-5.9,7.7-3.8,12.4,15.4,33.9,19.2,71.9,10.3,107.8l.2,1.3c2.6.7,5.1.9,7.7.7,26.9,0,54.9-11.5,80.9,2,.9.5,1.8,1.5,2.6,2.4,1.4-1.3,2.5-2.6,3.4-4.4Z"/><path id="_215" class="cls-7" d="m426.1,487.82c6.8,4.8,19.2,5.9,19.2,14.5-.9,7.7-9.7,15.4-9.7,24-1.8,20.1,23.1,23.1,37.5,24,18.3,0,36.6-11.5,54.9-4.8,15.4,5.9,33.3,2.4,47.2-6.8-9.3-10.1-16.3-24.9-23.2-36.4-7.7-12.4-4.8-28.9,5.9-41.4,4.8-5.9-3.8-14.5-6.8-23.1-.5-2-.5-3.7-.2-5.3-8.8,9.2-20.3,14.3-35.5,11.2-9.7-2-20.1-7.7-27.8-3.8-8.6,3.8-14.5,14.5-23.1,18.3-10.1,4.2-22.7,2.7-30.9-3.8-3.8.9-7.7,3.8-11.5,6.8-8.5,7.4-4.6,19.9,4,26.6Z"/><path id="_479" class="cls-3" d="m346.3,486.02c-17-12.6-21.6-30.2-22.7-49.4-9,2.7-17-2.7-22.5-9.2-4.8-6.8-2-16.3-5.9-23.1-7.7-15.4-29.8-13.5-41.4-26.9-16.3-17.4-27.8-36.6-42.3-55.8-4.8-5.9-12.4-13.5-20.1-9.7-12.4,4.8-24,12.4-28.9,25.1-3.1,6-3.7,17.6-10.1,21.2l.9,1.5,2,2.9,5.5,3.5,2,2,1.5,2.9,1.5,5.9.9,2.9,4.9,4.9,11.3,9,4,5.9.9,7.5-2,7.5-7,19.2c20.9,1.3,34.4,19.8,52.7,32,9.7,5.9,22.1,8.6,26.9,22.1,4.8,17.4,28.9,16.3,44.3,21.2,5.7,1.8,8.6,6.4,9.3,12.1,16.5-4.6,31.2-19.6,34.3-35.2Z"/><path id="_495" class="cls-7" d="m582,434.92c25.1-10.6,49.1-2,74.1,3.8,14.8,3.8,38.8,2.6,53.3-8.6-2.9-3.5-4.9-7.1-6.2-10.6-5.9-15.4-25.1-19.2-28.9-36.6-4.4-17.2-5.9-34.4-11.3-50.5-15,3.8-31.5-2.7-44.5-10.1-13.5-7.7-15.4-25.1-21.2-39.5-2-2.9-4.8-4.8-7.7-5.9-4.8-2.9-9.7-4.8-15.4-7.7-17.4-6.8-29.8-21.2-49.1-26.9-3.1-1.5-6.2-4.4-8.2-6.8-4.9,7-11,13.7-13.9,21.2-7.7,15.4,11.5,26,17.4,39.5.9,1.8,1.5,4.4,1.1,6.4,1.6,1.1,2.7,2.6,2.7,4.2,1.8,25.1,23.1,36.6,34.6,56.7,5.9,10.6-7.7,24-.9,36.6,2.9,4.8,6.8,11.5,3.8,17.4-1.5,2.6-2.9,4.9-4.6,7.3,7.7,6.7,14.7,14.2,24.9,10.1Z"/><path id="_494" class="cls-5" d="m607.1,233.82c2-.9,6.8-3.8,5.9-6.8-8.6-25.1,6.8-39.5,19.2-58.8,5.3-9-4-19-14.3-26.4,0,.2-.2.2-.2.4-26,6.8-48.1-6.8-71.2-17.4-25.1-12.4-37.5,23.1-44.3,43.4-2.9,8.4-8.6,14.6-15.6,20.1,12.4,12.6,20.9,28.6,29.1,45.2,2,2.9,5.9,6.8,9.7,8.6,15.6,4.8,26.9,15.2,39.7,22.5.4-2.9,1.1-5.5,2.6-8.1,8.7-13,25.9-13,39.4-22.7Z"/><path id="_269" class="cls-3" d="m765.4,214.72c-5.9-5.1-16.3-15.4-26.2-25.4-9.5-9.5-19.2-19.2-23.2-22.5-3.3-2.7-9.9-8.6-17.6-15.6-10.1-9.2-22.5-20.3-30.8-26.7-7.5,7-16.5,11.7-27.1,8.2-6.8-2-10.6-9.7-17.4-13.5-2.9-2-3.8-5.9-6.8-6.8-3.8-2.9-11.5-3.8-12.4-.9-.9,9.7,3.8,14.5,12.4,21.2,1.8.9,1.8,7.5,1.1,9.3,10.3,7.3,19.4,17.4,14.3,26.4-12.4,19.2-27.8,33.7-19.2,58.8.9,2.9-3.8,5.9-5.9,6.8-13.5,9.7-30.8,9.7-39.5,23.1-1.5,2.4-2.2,5.1-2.6,8.1,2.9,1.6,6,3.3,9.3,4.6,5.9,2.9,10.6,4.8,15.4,7.7,2.9.9,5.9,2.9,7.7,5.9,5.9,14.5,7.7,31.9,21.2,39.5s30.8,14.5,46.1,9.7c23.1-7.7,19.2-36.6,30.8-56.7,2-2.9,3.8-5.9,6.8-7.7,13.5-6.8,29.8-6.8,40.5-20.1,7.7-11.5,16.7-20.7,26-29.3-.5-1.9-1.4-3-2.9-4.1Z"/><path id="_455" class="cls-6" d="m274.1,171.22c3.8,12.4-.9,26,4.8,36.6,5.9,9.7,14.5,17.4,24,23.1,8.6,5.9,16.3-2.9,16.3-11.5.9-13.5,3.8-33.7,20.1-36.6,2,0,2.9-4.8,2.9-7.7,13.5,6.8,22.1-5.9,26.9-16.3,3.8-9.7-2.9-17.4-6.8-26-7.7-18.3,7.7-38.4,24-44.3,9.7-3.8,19.2-2,28.9-2.9,9.7-2,11.5-12.4,18.3-18.3,2.9-2,7.7-2,11.5-4.8,13.4-7.7,0-23.1-4.8-32.8-1.8-4.8-1.5-9.7-.7-14.6-4-1.5-7.5-3.3-9.9-5.3-9.3-8.1-19.2-10.8-31.9-9.2-11.9,1.6-54.9,1.8-71.9,0-15.4-1.5-42.5,1.6-51.3,13.4-8.1,10.6-20.9,22.5-26.2,27.3l5.7,8.4,5.1,10.3c.9,2,2.9,6.6,2.9,9.2.2.7,1.5,3.1,2.2,4.4.5.9,1.1,1.8,1.5,2.7,1.1,2.4,3.5,9.7-.7,13-.7.7-3.7,6-6,10.3l-.5,1.1-1.1.5c-3.1,1.5-18.7,8.4-21.6,9.3-.5.2-1.5,1.8-1.3,2.6,3.1,3.7,2.7,10.6-.9,15-2.6,3.1-7.7,3.7-11.2,3.5l-2.2,3.7,3.7,4.6,4.9,7.3.7,7.1c18.3.9,37.9-3.3,44.6,16.9Z"/><line id="LINE_30" class="cls-4" x1="131.4" y1="388.12" x2="249.2" y2="422.52"/><line id="LINE_31" class="cls-4" x1="131.4" y1="460.42" x2="356.1" y2="520.12"/><line id="LINE_32" class="cls-4" x1="759.2" y1="760.82" x2="820.4" y2="685.52"/><line id="LINE_33" class="cls-4" x1="200.2" y1="776.52" x2="285.1" y2="779.82"/><g id="G_34"><path id="PATH_35" d="m314.4,72.32h-1.3c-.9,0-1.8-.5-2.9-1.5-.5-.5-1.3-1.5-2.2-2.7,0,1.3-.2,2.2-.7,2.7-.9,1.1-2.7,1.6-5.5,1.6h-3.7c-4.4,0-6.8-1.3-6.8-3.8,0-.9.4-1.8.9-2.7.2-.2.4-.4.4-.4q.2,0,.2.2v.4c-.2.7-.4,1.1-.4,1.6,0,.7.4,1.3.9,1.6.9.7,2.4,1.1,4.4,1.1h3.7c2,0,3.5-.2,4.2-.4.9-.4,1.3-.9,1.3-1.6s-.4-1.6-1.3-2.7c-.5-.5-1.3-1.5-2.4-2.4-.9-.7-1.3-1.3-1.3-1.3,0-1.3.2-2,.5-2.6,0-.2,1.3-.5,3.8-1.5,2.6-.9,4.8-1.6,6.4-2.2,0,.2-.2.9-.5,2-2,.5-4.9,1.6-9,3.1,1.8,1.6,3.8,4,6.2,7.1.9,1.1,1.6,1.8,2.2,2.2.4.2,1.1.4,1.8.4h.7v1.8h.4Z"/><path id="PATH_36" d="m331.4,72.32h-1.1c-1.3,0-2-.5-2.6-1.5-.4,1.1-1.3,1.5-2.4,1.5s-1.8-.5-2.4-1.5c-.5,1.1-1.3,1.5-2.4,1.5-1.3,0-2.2-.5-2.7-1.5-.7,1.1-1.6,1.5-2.9,1.5h-1.3v-2.2h1.5c1.3,0,2.2-.7,2.4-2.2,0-.4.2-.5.4-.5s.2.2.4.5c.2,1.5.9,2.2,2.4,2.2,1.3,0,2.2-.7,2.2-2.2,0-.4.2-.5.4-.5s.4.2.4.5c.2,1.5.9,2.2,1.8,2.2,1.3,0,2.2-.7,2.2-2.2,0-.4.2-.5.4-.5s.4.2.4.5c.2,1.5.9,2.2,2.2,2.2h1.1v2.2h-.4Zm-8.6-9.1l-1.3,1.3-1.3-1.3,1.3-1.3,1.3,1.3Zm1.7-3l-1.3,1.3-1.3-1.3,1.3-1.3,1.3,1.3Zm1.6,3l-1.3,1.3-1.3-1.3,1.3-1.3,1.3,1.3Z"/><path id="PATH_37" d="m344.4,72.32h-1.1c-.9,0-1.8-.5-2.6-1.5-.5,1.5-1.1,2.2-1.6,2.2s-1.5-.4-2.6-.9c-.9-.5-1.6-1.1-2-1.5-.9,1.1-1.8,1.6-2.7,1.6h-1.3v-2.2h1.1c.9,0,1.6-.4,2.4-1.1.5-.5,1.1-1.3,1.8-2s1.3-1.1,1.8-1.1c.7,0,1.3.4,1.8,1.1.4.4.7,1.1,1.6,2,.5.7,1.3,1.1,2,1.1h1.1v2.3h.3Zm-4.9-1.4c0-.5-.2-1.1-.5-1.8-.4-.7-.9-1.1-1.6-1.1-.5,0-1.3.5-2,1.5.2.2.7.5,1.6,1.1.9.5,1.6.7,2.2.7q.3-.3.3-.4Z"/><path id="PATH_38" d="m348.8,68.72c0,2.4-1.3,3.7-3.7,3.7h-1.5v-2.2h1.3c1.8,0,2.7-.4,2.7-.9s-.4-1.3-1.3-2.2l.7-1.8c0-.2.2-.2.2-.2,0,0,.2.2.4.4.9.8,1.2,2.1,1.2,3.2Zm-1.4,7.6l-1.5,1.5-1.5-1.5,1.5-1.5,1.5,1.5Zm3.1,0l-1.5,1.5-1.5-1.5,1.5-1.5,1.5,1.5Z"/><path id="PATH_39" d="m364.9,72.32h-.7c-.7,0-1.3-.2-1.8-.7-.4-.4-.7-.7-1.1-1.5-.4.7-.9,1.3-1.5,1.6-.7.4-1.6.5-3.1.5-2.6,0-3.8-.9-3.8-2.7,0-.5.2-1.3.5-1.8.2-.2.2-.4.4-.4s.2.2.2.4v1c0,1.1.9,1.6,2.7,1.6,2.6,0,3.8-.5,3.8-1.5,0-.5-.7-2.6-2.2-6l.7-1.5c.2-.2.2-.4.2-.4,0,0,.2.2.2.4.5,1.5,1.5,3.7,2.6,6.6.5,1.5,1.3,2.2,2.4,2.2h.5v2.2h0Z"/><path id="PATH_40" d="m369.1,68.72c0,2.4-1.3,3.7-3.7,3.7h-1.5v-2.2h1.3c1.8,0,2.7-.4,2.7-.9s-.4-1.3-1.3-2.2l.7-1.8c0-.2.2-.2.2-.2,0,0,.2.2.4.4.9.8,1.2,2.1,1.2,3.2Zm0-8.3l-1.5,1.5-1.5-1.5,1.5-1.5,1.5,1.5Z"/><path id="PATH_41" d="m373.5,70.12c0,.7-.2,1.5-.5,2-.2.4-.4.5-.4.5,0,0-.2-.2-.2-.7,0-2.2-.4-7.3-1.1-15.6l1.5-1.5.2-.2v.4c.5,2.5.5,7.4.5,15.1Z"/></g><g id="G_42"><path id="PATH_43" d="m424.1,123.82c0,.2.2.4,0,.4h-.9c.4,7,.5,11.9.4,14.6-.2,4.4-2.7,6.4-7.5,6.4-1.6,0-2.7-.4-3.7-.9-1.1-.7-1.6-1.8-1.6-3.5,0-1.5.4-2.9,1.3-4q.2-.2.4-.2t.2.2v.2c-.4.9-.5,1.8-.5,2.6,0,1.1.4,2,1.3,2.7.7.5,1.6.9,2.9.9,1.8,0,3.3-.4,4.6-.9,1.1-.5,1.6-1.1,1.6-1.8,0-7.9-.2-13.9-.7-17.9l1.3-1.1q.2-.2.4-.2s.2.2.2.4c-.5.4-.1,1.1.3,2.1Z"/><path id="PATH_44" d="m435.6,138.22h-2c-.2,2.6-1.1,4.6-2.9,6.4-.5.5-.9.9-1.1.9-.9,0-2.2-.2-3.5-.4-.4,0-.7-.2-.7-.2,0,0,.2-.2.7-.4,1.5-.4,2.9-1.3,4.2-2.2.5-.5,1.1-.9,1.5-1.6.5-.7.9-1.5.9-2v-.5h-2.4c-1.8,0-2.6-.7-2.6-2.2,0-.9.2-1.8.7-2.9s1.3-1.8,2-1.8c.9,0,1.6.5,2.2,1.8.4.9.7,1.8.7,2.9h2v2.2h.3Zm-3.3-2.2c0-.5-.2-1.1-.5-1.6-.4-.7-.9-.9-1.5-.9-.4,0-.7.2-.9.4-.4.4-.4.5-.4,1.1,0,.9.7,1.3,2.2,1.3,0-.1.5-.3,1.1-.3Z"/><path id="PATH_45" d="m442.7,133.12v.7c0,1.3-.2,2-.5,2.6-.9,1.3-2.4,1.8-4.8,1.8h-2.6v-2.2h1.8c3.1,0,4.8-.5,5.1-1.5v-.4c0-.4,0-.5-.2-.7-.7.2-1.6.2-2.4.2-1.6,0-2.6-.7-2.6-2.2,0-.9.2-2,.7-2.9.5-1.1,1.3-1.6,2.2-1.6.7,0,1.5.5,2,1.5,1,1.2,1.3,2.9,1.3,4.7Zm-2.2-10.1l-1.5,1.5-1.5-1.5,1.5-1.5,1.5,1.5Zm.8,8.4c0-.5-.2-1.1-.5-1.6-.4-.5-.9-.7-1.5-.7-.4,0-.7.2-1.1.4-.2.2-.4.5-.4.9,0,.7.5,1.1,1.8,1.1.4.1.9.1,1.7-.1Z"/><path id="PATH_46" d="m451.9,138.42c0,1.8-.5,3.5-1.6,5.1-.9,1.3-1.8,2-2.4,2-1.5,0-2.6,0-3.7-.2-.4,0-.5-.2-.5-.2,0,0,.2-.2.5-.2,1.5-.4,2.9-1.1,4.4-2.2,1.5-1.3,2.4-2.6,2.4-3.8,0-.7-.5-1.8-1.8-3.1l.9-1.6c0-.2.2-.2.2-.2l.2.2c.4.5.9,1.3,1.1,2.2.1.5.3,1.3.3,2Zm-1.5-9.9l-1.5,1.5-1.5-1.5,1.5-1.5,1.5,1.5Z"/><path id="PATH_47" d="m463,134.42c0,2.6-1.6,3.8-5.1,3.8-1.3,0-2.2-.2-2.7-.5-.7-.4-1.1-1.3-1.1-2.4,0-.5.2-1.1.4-1.6.2-.2.2-.4.4-.4s.2.2.2.5v.5c0,.7.4,1.3,1.1,1.5.4.2,1.1.2,2,.2,2.7,0,4-.4,4-1.3,0-1.3-1.6-3.1-4.8-5.3l.5-1.8c0-.2.2-.2.2-.2,0,0,.2,0,.4.2,3.1,2.4,4.5,4.8,4.5,6.8Z"/></g><g id="G_48"><path id="PATH_49" d="m557,190.42h-4.2c-.5,0-1.1,0-1.5.2-.7.2-.9.5-.9.9,0,.2.9.4,2.6.7,1.8.4,2.6.7,2.6,1.1,0,1.5-.4,2.6-1.3,3.3-1.5,1.3-3.8,1.8-7.3,1.8-4.2,0-6.4-1.6-6.4-4.8,0-.7.2-1.5.5-2.4.4-.9.7-1.6,1.1-2.2.2-.2.4-.4.5-.4q.2,0,.2.2c0,.2,0,.4-.2.5-.5,1.1-.9,2.2-.9,3.3,0,1.3.5,2.2,1.8,2.7.9.5,2,.7,3.5.7s2.7,0,4-.2c2.2-.4,3.3-.7,3.3-1.5,0-.4-.5-.5-1.5-.7-1.5-.2-2.4-.4-2.7-.5-.9-.2-1.5-.7-1.5-1.3,0-.4.2-.9.7-1.6.4-.5.7-.9,1.3-1.3.9-.7,2-1.1,3.7-1.1h2.6v2.6h0Z"/><path id="PATH_50" d="m561.2,175.92c.2.2.2.4.2.4h-.9c.2,2.4.2,5.9.2,10.4,0,1.1-.2,2-.7,2.6-.5.7-1.5,1.1-2.4,1.1h-1.1v-2.2h.9c1.5,0,2.2-.5,2-1.6-.2-3.8-.4-7.9-.5-11.9l1.3-1.1c.2-.2.4-.4.4-.4,0,0,0,.2.2.4-.4.5,0,1.2.4,2.3Z"/><path id="PATH_51" d="m575.3,175.92q0,.2.2.5h-.9c0,1.5-.2,3.1-.5,4.6-.4,2-1.1,3.7-1.8,4.8.4.7.5,1.6.5,2.4,0,.4-.2.9-.4,1.5-.2.5-.5.9-.9,1.1-1.6.4-3.3.5-5.3.4l.5-2c1.8-.9,3.1-1.8,3.8-2.9-1.8-2.4-3.8-4.8-6.2-7.1l-.4.5c-1.3-1.5-1.8-2.2-1.8-2.6s.2-.9.4-1.8c0-.2.2-.4.2-.4,0,0,.2.2.5.4,3.5,3.3,6.2,6.6,8.1,9.9.7-1.1,1.1-2.7,1.3-4.8.2-1.6.2-3.5,0-5.5l1.5-1.5c.6,1.1,1,1.8,1.2,2.5Zm-3.5,12.7v-.2c0-.5-.2-1.1-.5-1.5-.5.7-1.3,1.5-2.2,2.2h.7c.7-.2,1.4-.4,2-.5Z"/></g><g id="G_52"><path id="PATH_53" d="m648.1,235.62h-1.3c-1.3,0-2.4-.5-2.7-1.6-.4-.7-.5-2-.5-3.5v-3.5c0-1.6-.2-4-.4-7.1l1.1-1.3c.2-.2.4-.2.4,0,.2,1.6.4,4,.4,7.1v5.3c0,1.5.7,2.2,2.2,2.2h.9v2.4h-.1Z"/><path id="PATH_54" d="m660.7,235.62h-1.3c-.9,0-1.8-.5-2.9-1.5-.5-.5-1.3-1.5-2.2-2.7.2,2.9-1.5,4.4-4.9,4.4h-2v-2.4h2.4c2.4,0,3.7-.7,3.7-2,0-.7-.4-1.6-1.3-2.7-.5-.7-1.3-1.5-2.4-2.4-.9-.7-1.3-1.3-1.3-1.3,0-1.3.2-2.2.5-2.7,0-.2,1.3-.5,3.7-1.5,2.4-.9,4.6-1.6,6.6-2.2,0,.2-.2.9-.5,2-2.4.7-5.3,1.8-9,3.3,1.6,1.5,3.8,3.8,6.2,7.1.9,1.1,1.6,1.8,2.2,2.2.4.2,1.1.4,1.8.4h.7v2h0Z"/><path id="PATH_55" d="m665.1,231.92c0,2.4-1.3,3.7-3.7,3.7h-1.5v-2.2h1.3c1.8,0,2.7-.4,2.7-.9s-.4-1.3-1.3-2.2l.7-1.8c0-.2.2-.2.2-.2,0,0,.2.2.4.4.9.9,1.2,2,1.2,3.2Zm-1.4,7.7l-1.5,1.5-1.5-1.5,1.5-1.5,1.5,1.5Zm3.1,0l-1.5,1.5-1.5-1.5,1.5-1.5,1.5,1.5Z"/><path id="PATH_56" d="m681.1,235.62h-.7c-.7,0-1.3-.2-1.8-.7-.4-.4-.7-.7-1.1-1.5-.4.7-.9,1.3-1.5,1.6-.7.4-1.6.5-3.1.5-2.6,0-3.8-.9-3.8-2.7,0-.5.2-1.3.5-1.8.2-.2.2-.4.4-.4s.2.2.2.4v1c0,1.1.9,1.6,2.7,1.6,2.6,0,3.8-.5,3.8-1.5,0-.5-.7-2.6-2.2-6l.7-1.5c.2-.2.2-.4.2-.4,0,0,.2.2.2.4.5,1.5,1.5,3.7,2.6,6.6.5,1.5,1.3,2.2,2.4,2.2h.5v2.2h0Z"/><path id="PATH_57" d="m685.5,231.92c0,2.4-1.3,3.7-3.7,3.7h-1.5v-2.2h1.3c1.8,0,2.7-.4,2.7-.9s-.4-1.3-1.3-2.2l.7-1.8c0-.2.2-.2.2-.2,0,0,.2.2.4.4.8.9,1.2,2,1.2,3.2Zm0-8.4l-1.5,1.5-1.5-1.5,1.5-1.5,1.5,1.5Z"/><path id="PATH_58" d="m689.8,233.22c0,.7-.2,1.5-.5,2-.2.4-.4.5-.4.5,0,0-.2-.2-.2-.7,0-2.2-.4-7.3-1.1-15.6l1.5-1.5.2-.2v.4c.4,2.7.5,7.6.5,15.1Z"/></g><g id="G_59"><path id="PATH_60" d="m440.4,264.92h-.7c-.7,0-1.3-.2-1.8-.7-.4-.4-.7-.7-1.1-1.5-.4.7-.9,1.3-1.5,1.6-.7.4-1.6.5-3.1.5-2.6,0-3.8-.9-3.8-2.7,0-.5.2-1.3.5-1.8.2-.2.2-.4.4-.4s.2.2.2.4v1c0,1.1.9,1.6,2.7,1.6,2.6,0,3.8-.5,3.8-1.5,0-.5-.7-2.6-2.2-6l.7-1.5c.2-.2.2-.4.2-.4,0,0,.2.2.2.4.5,1.5,1.5,3.7,2.6,6.6.5,1.5,1.3,2.2,2.4,2.2h.5v2.2h0Z"/><path id="PATH_61" d="m444.7,261.22c0,2.4-1.3,3.7-3.7,3.7h-1.5v-2.2h1.3c1.8,0,2.7-.4,2.7-.9s-.4-1.3-1.3-2.2l.7-1.8c0-.2.2-.2.2-.2,0,0,.2.2.4.4.9.8,1.2,2.1,1.2,3.2Zm-.1-8.2l-1.5,1.5-1.5-1.5,1.5-1.5,1.5,1.5Z"/><path id="PATH_62" d="m456.1,264.92h-2c-.2,2.6-1.1,4.6-2.9,6.4-.5.5-.9.9-1.1.9-.9,0-2.2-.2-3.5-.4-.4,0-.7-.2-.7-.2,0,0,.2-.2.7-.4,1.5-.4,2.9-1.3,4.2-2.2.5-.5,1.1-.9,1.5-1.6.5-.7.9-1.5.9-2v-.5h-2.4c-1.8,0-2.6-.7-2.6-2.2,0-.9.2-1.8.7-2.9s1.3-1.8,2-1.8c.9,0,1.6.5,2.2,1.8.4.9.7,1.8.7,2.9h2v2.2h.3Zm-3.3-2.2c0-.5-.2-1.1-.5-1.6-.4-.7-.9-.9-1.5-.9-.4,0-.7.2-.9.4-.4.4-.4.5-.4,1.1,0,.9.7,1.3,2.2,1.3,0-.1.5-.1,1.1-.3Z"/><path id="PATH_63" d="m465.1,264.92h-1.5c-1.6,0-2.7-.5-3.5-1.6-.5,1.1-1.8,1.6-3.8,1.6h-1.1v-2.2h1.6c1.8,0,2.7-.7,2.9-2,0-.5.2-.9.4-.9s.4.4.4.9c.2,1.3,1.1,2,2.7,2h1.6v2.2h.3Zm-6.3-10.6l-1.5,1.5-1.5-1.5,1.5-1.5,1.5,1.5Zm3.2,0l-1.5,1.5-1.5-1.5,1.5-1.5,1.5,1.5Z"/><path id="PATH_64" d="m476,250.12c0,.4-.2.9-.5,2-2.2.5-4.9,1.5-8.1,2.4,2.2,2.2,3.5,4,3.7,5.3.2.9,0,1.8-.4,2.7s-1.1,1.5-2,1.8c-.7.4-2,.4-3.7.4h-.7v-2.2h.5c3.5,0,5.3-.5,5.3-1.8,0-.9-.9-2.4-2.9-4.2l-.2.5c-.2-.2-.5-.5-.9-1.1-.5-.5-.7-.9-.7-1.1,0-.5.2-1.1.7-1.6.2-.2,1.3-.5,3.7-1.3,2.4-.7,4.4-1.3,6.2-1.8Zm-.3-2.8l-.4,1.3-9,2.9.4-1.3,9-2.9Z"/></g><g id="G_65"><path id="PATH_66" d="m286.6,314.72c0,2.6-1.1,3.8-3.3,3.8-1.3,0-2-.5-2.4-1.6-.5,1.1-1.5,1.6-2.6,1.6-.4,0-.9,0-1.3-.2,0,1.1-.2,2.2-.2,3.5-.5,1.3-1.5,2.4-3.1,3.1-1.5.5-2.9.9-4.6.9s-2.9-.4-4-1.1c-1.1-.9-1.6-2-1.6-3.7,0-.9.2-1.6.5-2.7.4-.7.5-1.3.9-1.6.2-.2.4-.2.4-.2q.2,0,.2.2v.4c-.5,1.1-.7,2.2-.7,3.1s.4,1.6.9,2.4c.7.9,2,1.3,3.7,1.3,1.8,0,3.5-.4,4.8-.9,1.1-.5,1.8-1.1,2-1.8.2-.2.2-.5,0-1.3,0-.5-.2-1.1-.2-1.3-.2-.5-.7-1.5-1.8-2.7l.7-1.5c.2-.2.2-.4.2-.4,0,0,.2,0,.2.2.5.7.9,1.3,1.1,1.5.5.5,1.1.7,1.8.7s1.5-.2,1.8-.7c.2-.4.4-.7.5-1.6,0-.4.2-.5.4-.5s.2.2.2.5c.2.9.4,1.5.7,1.8.4.4,1.1.5,2,.5.4,0,.7-.2.9-.4.4-.2.5-.5.5-.9,0-.5-.4-1.1-1.1-2l.9-1.6.2-.2.2.2c1,1.2,1.2,2.1,1.2,3.2Zm-6.1-6.8l-1.3,1.3-1.3-1.3,1.3-1.3,1.3,1.3Zm1.7-2.9l-1.3,1.3-1.3-1.3,1.3-1.3,1.3,1.3Zm1.6,2.9l-1.3,1.3-1.3-1.3,1.3-1.3,1.3,1.3Z"/><path id="PATH_67" d="m298.1,318.52h-2c-.2,2.6-1.1,4.6-2.9,6.4-.5.5-.9.9-1.1.9-.9,0-2.2-.2-3.5-.4-.4,0-.7-.2-.7-.2,0,0,.2-.2.7-.4,1.5-.4,2.9-1.3,4.2-2.2.5-.5,1.1-.9,1.5-1.6.5-.7.9-1.5.9-2v-.5h-2.4c-1.8,0-2.6-.7-2.6-2.2,0-.9.2-1.8.7-2.9s1.3-1.8,2-1.8c.9,0,1.6.5,2.2,1.8.4.9.7,1.8.7,2.9h2v2.2h.3Zm-3.3-2.2c0-.5-.2-1.1-.5-1.6-.4-.7-.9-.9-1.5-.9-.4,0-.7.2-.9.4-.4.4-.4.5-.4,1.1,0,.9.7,1.3,2.2,1.3,0-.1.4-.3,1.1-.3Z"/><path id="PATH_68" d="m312.4,314.72c0,1.1-.2,2-.7,2.7s-1.5,1.3-2.4,1.3c-1.3,0-2-.5-2.6-1.5-.7,1.1-1.5,1.5-2.6,1.5-1.3,0-2.2-.5-2.7-1.5-.7,1.1-1.6,1.5-2.9,1.5h-1.3v-2.2h1.5c1.3,0,2.2-.7,2.4-2.2,0-.4.2-.5.4-.5s.2.2.4.5c.2,1.5.9,2.2,2.4,2.2.7,0,1.5-.2,1.8-.5.2-.4.4-.7.5-1.5,0-.4.2-.5.4-.5s.2.2.4.5c.2,1.5.9,2.2,2.2,2.2,1.5,0,2-.4,2-.9s-.4-1.3-1.1-2l.9-1.6c.2-.2.2-.4.4-.4s.2.2.4.4c0,.6.2,1.6.2,2.5Zm-6-6.8l-1.3,1.3-1.3-1.3,1.3-1.3,1.3,1.3Zm1.4-2.7l-1.3,1.3-1.3-1.3,1.3-1.3,1.3,1.3Zm1.7,2.7l-1.3,1.3-1.3-1.3,1.3-1.3,1.3,1.3Z"/></g><g id="G_69"><path id="PATH_70" d="m446.9,369.22h-.7c-.7,0-1.1-.2-1.5-.4v.5c0,1.6-.5,3.3-1.6,4.9-.9,1.5-1.8,2-2.4,2-1.5,0-2.6,0-3.7-.2-.4,0-.5-.2-.5-.2,0,0,.2-.2.5-.2,1.5-.4,2.9-1.1,4.4-2.2,1.5-1.3,2.4-2.6,2.4-3.8,0-.7-.5-1.8-1.8-3.1l.9-1.6c0-.2.2-.2.2-.2l.2.2c.5.7.9,1.3,1.3,1.5.5.4,1.3.7,2,.7h.5v2h-.2v.1Z"/><path id="PATH_71" d="m456.1,369.22h-1.5c-1.6,0-2.7-.5-3.5-1.6-.5,1.1-1.8,1.6-3.8,1.6h-1.1v-2.2h1.6c1.8,0,2.7-.7,2.9-2,0-.5.2-.9.4-.9s.4.4.4.9c.2,1.3,1.1,2,2.7,2h1.6v2.2h.3Zm-6.2-10.6l-1.5,1.5-1.5-1.5,1.5-1.5,1.5,1.5Zm3.1,0l-1.5,1.5-1.5-1.5,1.5-1.5,1.5,1.5Z"/><path id="PATH_72" d="m470.6,365.42c0,1.1-.2,2-.7,2.7s-1.5,1.3-2.4,1.3c-1.3,0-2-.5-2.6-1.5-.7,1.1-1.5,1.5-2.6,1.5-1.3,0-2.2-.5-2.7-1.5-.7,1.1-1.6,1.5-2.9,1.5h-1.3v-2.4h1.5c1.3,0,2.2-.7,2.4-2.2,0-.4.2-.5.4-.5s.2.2.4.5c.2,1.5.9,2.2,2.4,2.2.7,0,1.5-.2,1.8-.5.2-.4.4-.7.5-1.5,0-.4.2-.5.4-.5s.2.2.4.5c.2,1.5.9,2.2,2.2,2.2,1.5,0,2-.4,2-.9s-.4-1.3-1.1-2l.9-1.6c.2-.2.2-.4.4-.4s.2.2.4.4c-.2.9.2,1.8.2,2.7Zm-6.3-6.8l-1.3,1.3-1.3-1.3,1.3-1.3,1.3,1.3Zm1.7-2.7l-1.3,1.3-1.3-1.3,1.3-1.3,1.3,1.3Zm1.6,2.7l-1.3,1.3-1.3-1.3,1.3-1.3,1.3,1.3Z"/><path id="PATH_73" d="m481.9,369.22h-2c-.2,2.6-1.1,4.6-2.9,6.4-.5.5-.9.9-1.1.9-.9,0-2.2-.2-3.5-.4-.4,0-.7-.2-.7-.2,0,0,.2-.2.7-.4,1.5-.4,2.9-1.3,4.2-2.2.5-.5,1.1-.9,1.5-1.6.5-.7.9-1.5.9-2v-.5h-2.4c-1.8,0-2.6-.7-2.6-2.2,0-.9.2-1.8.7-2.9s1.3-1.8,2-1.8c.9,0,1.6.5,2.2,1.8.4.9.7,1.8.7,2.9h2v2.2h.3Zm-3.3-2.2c0-.5-.2-1.1-.5-1.6-.4-.7-.9-.9-1.5-.9-.4,0-.7.2-.9.4-.2.2-.4.5-.4,1.1,0,.9.7,1.3,2.2,1.3,0-.1.6-.3,1.1-.3Z"/><path id="PATH_74" d="m496.4,365.42c0,1.1-.2,2-.7,2.7s-1.5,1.3-2.4,1.3c-1.3,0-2-.5-2.6-1.5-.7,1.1-1.5,1.5-2.6,1.5-1.3,0-2.2-.5-2.7-1.5-.7,1.1-1.6,1.5-2.9,1.5h-1.3v-2.4h1.5c1.3,0,2.2-.7,2.4-2.2,0-.4.2-.5.4-.5s.2.2.4.5c.2,1.5.9,2.2,2.4,2.2.7,0,1.5-.2,1.8-.5.2-.4.4-.7.5-1.5,0-.4.2-.5.4-.5s.2.2.4.5c.2,1.5.9,2.2,2.2,2.2,1.5,0,2-.4,2-.9s-.4-1.3-1.1-2l.9-1.6c.2-.2.2-.4.4-.4s.2.2.4.4c-.2.9.2,1.8.2,2.7Zm-6.3-6.8l-1.3,1.3-1.3-1.3,1.3-1.3,1.3,1.3Zm1.7-2.7l-1.3,1.3-1.3-1.3,1.3-1.3,1.3,1.3Zm1.6,2.7l-1.3,1.3-1.3-1.3,1.3-1.3,1.3,1.3Z"/></g><g id="G_75"><path id="PATH_76" d="m564.5,327.12c-.4.5-.7.9-1.1,1.3-.5.5-1.1.9-1.6,1.1-1.3.5-2.7.5-4.6-.2-1.5-.5-2.7-1.5-3.8-2.7-1.1-1.1-1.6-2.4-1.8-3.7-.2-1.5.4-2.7,1.5-3.7.5-.5,1.5-1.1,2.4-1.3.7-.2,1.3-.4,1.8-.4.2,0,.4,0,.5.2v.2s-.2.2-.4.2c-1.1.4-2.2.9-2.7,1.5-.7.5-1.1,1.3-1.1,2.2-.2,1.1.4,2.4,1.5,3.5,1.3,1.3,2.6,2.4,4,2.9,1.1.5,2,.5,2.7.4.2,0,.4-.2.7-.4.4-.4.7-.9,1.1-1.5.4-.5.5-1.6.9-3.3l1.6-.5h.4v.4c-.6,1.3-1.1,2.5-2,3.8Zm2.2-9.3h-2v-2.2h2v2.2Z"/><path id="PATH_77" d="m569.2,332.62l-.9-.9c-.9-.9-1.1-2-.7-3.3.4-.7,1.1-1.6,2.2-2.7l2.6-2.4c1.3-1.1,2.9-2.9,4.9-5.1h1.6c.4,0,.4.2.2.4-.9,1.3-2.7,2.9-5.1,5.1l-3.8,3.7c-1.1,1.1-1.1,2-.2,3.1l.7.7-1.5,1.4Z"/><path id="PATH_78" d="m578.2,342.32l-.7-.9c-.5-.5-.7-1.6-.7-2.9-1.5.7-2.4.7-2.7.2-.4-.4-.7-1.3-1.1-2.4-.2-1.1-.4-1.8-.4-2.4-1.5.2-2.4-.2-3.1-.9l-.7-.7,1.6-1.5.7.9c.5.5,1.5.9,2.4,1.1h2.6c.9,0,1.6.2,2,.5.5.5.5,1.3.5,2.2,0,.4-.2,1.3-.4,2.6-.2.9,0,1.6.5,2.2l.7.9-1.2,1.1Zm-2.2-4.6c.4-.4.7-.9.9-1.6.2-.7.2-1.5-.2-1.8-.4-.5-1.3-.7-2.4-.5,0,.4,0,.9.4,1.8.2.9.5,1.6.9,2.2,0-.1.2-.1.4-.1Z"/><path id="PATH_79" d="m577.3,347.32h-2v-2h2v2Zm2,2.3h-2v-2h2v2Zm4.9-.7l-.9-1.1c-1.1-1.3-1.5-2.4-1.1-3.7-1.3.4-2.6-.2-3.8-1.6l-.7-.9,1.5-1.5,1.1,1.3c1.3,1.3,2.4,1.6,3.5.7.4-.4.7-.4.9-.2.2.2,0,.4-.4.9-.9,1.1-.7,2.2.4,3.5l1.1,1.3-1.6,1.3Z"/><path id="PATH_80" d="m588.8,353.82l-.5-.5c-1.1-1.1-1.5-2.4-.9-3.7-.5.2-1.1.2-1.6,0s-1.1-.5-1.5-.9l-.5-.5,1.6-1.5.5.5c1.1,1.1,2,1.3,2.9.4l4.6-4.2c1.8-1.6,3.1-2.9,4-3.8l2,.2-9.2,8.4c-1.3,1.3-1.5,2.6-.4,3.7l.5.5-1.5,1.4Z"/><path id="PATH_81" d="m601.4,361.92c-.7.7-1.6,1.1-2.6,1.3-.9.2-1.8-.2-2.6-.9-.9-.9-1.1-1.8-.7-2.9-1.3.2-2.2-.2-2.9-.9-.9-.9-1.1-2-.7-2.9-1.3.2-2.2-.2-3.1-1.1l-.9-.9,1.6-1.5.9,1.1c.9.9,2,1.1,3.1.2.4-.2.5-.2.5-.2.2.2,0,.4-.2.5-.9,1.1-.9,2.2,0,3.1.5.5,1.1.9,1.6.9.4,0,.9-.2,1.5-.7.4-.2.5-.2.5-.2.2.2,0,.4-.2.5-.9,1.1-.9,2.2-.2,3.1.9,1.1,1.6,1.3,2.2.9.4-.4.7-1.1.9-2.2l1.6-.4h.5c.2,0,0,.2-.2.5.5,1.2,0,2.2-.6,2.7Z"/><path id="PATH_82" d="m613.2,380.42l-.5-.5c-.5-.5-.7-1.1-.7-1.6,0-.4.2-.9.4-1.8-.9.2-1.6.2-2.2,0-.7-.2-1.6-.9-2.6-1.8-1.6-1.8-2-3.5-.5-4.8.4-.4,1.1-.7,1.8-.9h.5s0,.2-.2.4c0,0-.2.2-.4.4-.2.2-.4.2-.4.4-.7.7-.5,1.8.7,3.1,1.8,2,3.1,2.6,3.8,1.8.4-.4,1.3-2.2,2.9-5.7l1.6-.4h.4s0,.2-.2.4c-.7,1.5-1.6,3.5-3.1,6.2-.7,1.5-.7,2.6,0,3.3l.4.4-1.7,1.1Z"/><path id="PATH_83" d="m624.1,392.32l-1.3-1.3c-1.6-1.8-1.6-3.5.2-5.1.2-.2.4-.4.7-.5-.9-.4-2.2-.7-3.8-1.3-1.6-.4-2.7-.7-3.5-1.1-1.1-.5-2.2-1.3-2.9-2l-.9-.9,1.5-1.5.9,1.1c1.1,1.1,2.4,2,3.8,2.6.7.4,2.2.7,4.2,1.5-.2-.4-.7-1.3-1.6-2.9-.5-1.1-.9-1.8-1.1-2-.4-.5-1.1-.7-2.2-.9-.2,0-.4,0-.4-.2v-.4s.2,0,.2-.2c1.8-.7,3.1-.5,4,.4.4.4.7,1.1,1.1,1.8.5,1.3,1.1,2.4,1.5,3.1.5,1.1,1.5,2.2,2.7,3.5.2.2.4.4.4.4,0,0-.2.2-.4.2l-1.6.5c-.7-.9-1.3-1.3-1.6-1.5-.5.5-.9,1.1-1.1,1.3-.2.7.2,1.5.9,2.4l1.3,1.3-1,1.7Zm-7.5-2.8h-2v-2.2h2v2.2Z"/><path id="PATH_84" d="m635.5,404.62l-.7-.7c-.9-.9-1.1-1.8-.5-2.9-1.1.4-2,.2-2.7-.7-.7-.7-.9-1.6-.5-2.7-1.1.4-2,0-2.7-.7-.9-.9-1.1-2-.7-2.9-1.3.2-2.2-.2-3.1-1.1l-.9-.9,1.6-1.5.9,1.1c.9.9,2,1.1,3.1.2.4-.2.5-.2.5-.2.2.2,0,.4-.2.5-.9,1.1-.9,2.2,0,3.1s2,1.1,3.1.2c.4-.2.5-.2.5-.2.2.2,0,.4-.2.5-.9,1.1-1.1,2-.4,2.9.9.9,2,1.1,3.1.2.4-.2.5-.2.5-.2.2.2,0,.4-.2.5-.9,1.1-.9,2.2-.2,3.1l.7.7-1,1.7Z"/><path id="PATH_85" d="m644.3,408.82c-.5.7-1.3,1.1-1.8,1.3-.9.4-1.6.4-2-.2-.7-.7-1.1-2.2-1.5-4.4h-1.6c-.5-.2-1.1-.4-1.6-.9l-.7-.7,1.6-1.5.9.9c.5.5,1.3.9,2.4.7.5,0,1.5-.2,2.7-.4,1.1-.2,1.8,0,2.2.5.5.7.7,1.5.5,2.6-.4,1-.8,1.5-1.1,2.1Zm-1.9.1c.4-.4.7-.9.9-1.6.2-.7.2-1.5-.2-1.8-.4-.4-1.3-.5-2.6-.4,0,.4,0,1.1.4,2s.5,1.5.9,1.8c.3.2.5.2.6,0Z"/></g><g id="G_91"><path id="PATH_92" d="m13.7,374.52c.2.5.2,1.1.2,1.6,0,.7-.2,1.3-.4,2-.5,1.3-1.5,2.4-3.3,3.1-1.5.5-2.9.9-4.6.9s-2.9-.4-4-1.1c-1.1-.9-1.6-2-1.6-3.7,0-.9.2-1.6.5-2.7.4-.7.5-1.3.9-1.6.2-.2.4-.2.4-.2q.2,0,.2.2v.4c-.5,1.1-.7,2.2-.7,3.1s.4,1.6.9,2.4c.7.9,2,1.3,3.7,1.3,1.8,0,3.5-.4,4.8-.9,1.1-.5,1.8-1.1,2.2-1.8.2-.2.2-.5.2-.7,0-.5-.2-1.1-.4-1.8-.2-.5-.7-1.5-1.6-2.9l.7-1.5c.2-.2.2-.4.2-.4,0,0,.2,0,.2.2.7,1.4,1.3,2.9,1.5,4.1Zm-5.3-7.8l-1.5,1.5-1.5-1.5,1.5-1.5,1.5,1.5Z"/><path id="PATH_93" d="m21.2,374.92h-1.3c-1.3,0-2.4-.5-2.7-1.6-.4-.7-.5-2-.5-3.5v-3.5c0-1.6-.2-4-.4-7.1l1.1-1.3c.2-.2.4-.2.4,0,.2,1.6.4,4,.4,7.1v5.3c0,1.5.7,2.2,2.2,2.2h.9v2.4h-.1Z"/><path id="PATH_94" d="m32.1,360.12c0,.4-.2.9-.5,2-2.2.5-4.9,1.5-8.1,2.4,2.2,2.2,3.5,4,3.7,5.3.2.9,0,1.8-.4,2.7s-1.1,1.5-2,1.8c-.7.4-2,.4-3.7.4h-.7v-2.2h.5c3.5,0,5.3-.5,5.3-1.8,0-.9-.9-2.4-2.9-4.2l-.2.5c-.2-.2-.5-.5-.9-1.1-.5-.5-.7-.9-.7-1.1,0-.5.2-1.1.7-1.6.2-.2,1.3-.5,3.7-1.3,2.2-.7,4.4-1.3,6.2-1.8Zm-.3-2.8l-.4,1.3-9,2.9.4-1.3,9-2.9Z"/><path id="PATH_95" d="m42.8,371.12c0,2.6-1.6,3.8-5.1,3.8-1.3,0-2.2-.2-2.7-.5-.7-.4-1.1-1.3-1.1-2.4,0-.5.2-1.1.4-1.6.2-.2.2-.4.4-.4s.2.2.2.5v.5c0,.7.4,1.3,1.1,1.5.4.2,1.1.2,2,.2,2.7,0,4-.4,4-1.3,0-1.3-1.6-3.1-4.8-5.3l.5-1.8c0-.2.2-.2.2-.2,0,0,.2,0,.4.2,3,2.4,4.5,4.7,4.5,6.8Z"/><path id="PATH_96" d="m47.2,372.72c0,.7-.2,1.5-.5,2-.2.4-.4.5-.4.5,0,0-.2-.2-.2-.7,0-2.2-.4-7.3-1.1-15.6l1.5-1.5.2-.2v.4c.5,2.5.5,7.4.5,15.1Z"/><path id="PATH_97" d="m56.5,375.12c0,1.8-.5,3.5-1.6,5.1-.9,1.3-1.8,2-2.4,2-1.5,0-2.6,0-3.7-.2-.4,0-.5-.2-.5-.2,0,0,.2-.2.5-.2,1.5-.4,2.9-1.1,4.4-2.2,1.5-1.3,2.4-2.6,2.4-3.8,0-.7-.5-1.8-1.8-3.1l.9-1.6c0-.2.2-.2.2-.2l.2.2c.4.5.9,1.3,1.1,2.2-.1.5.3,1.3.3,2Zm-1.5-9.9l-1.5,1.5-1.5-1.5,1.5-1.5,1.5,1.5Z"/><path id="PATH_98" d="m63.8,355.32c-.7.7-1.8.9-2.9.9h-1.4c-.2,0-.4.2-.5.4-.2.2-.4.4-.4.4-.2,0-.2-.2-.2-.4s.2-.5.4-.9c.2-.5.4-.7.5-.7.2,0,.5,0,1.1.2.5,0,.9.2,1.1.2,1.1,0,1.8,0,2.4-.2.4,0,.5-.2.5-.2h.2c-.4-.1-.6.1-.8.3Zm-1.3,17.4c0,.7-.2,1.5-.5,2-.2.4-.4.5-.4.5,0,0-.2-.2-.2-.7,0-2.2-.4-7.3-1.1-15.6l1.5-1.5.2-.2v.4c.5,2.5.5,7.4.5,15.1Z"/><path id="PATH_99" d="m92.7,374.92h-.7c-.9,0-1.6-.2-2-.5-.5-.4-.9-1.1-.9-1.8-2,1.8-5.1,2.7-9.3,2.7s-6.6-1.3-6.6-4c0-.9.4-1.8,1.1-2.7q.2-.2.4-.2t.2.2v.4c-.2.5-.4,1.1-.4,1.6,0,1.8,2,2.7,6,2.7,4.6,0,7.7-.9,9.2-2.9.4-.4.5-.5.7-.5s.2.2.2.4,0,.4-.2.7c0,.4-.2.5-.2.7,0,.9.7,1.5,2,1.5h.7v1.8h-.2v-.1Zm-11.3-10.6l-1.5,1.5-1.5-1.5,1.5-1.5,1.5,1.5Zm3.1,0l-1.5,1.5-1.5-1.5,1.5-1.5,1.5,1.5Z"/><path id="PATH_100" d="m107.2,371.12c0,1.1-.2,2-.7,2.7s-1.5,1.3-2.4,1.3c-1.3,0-2-.5-2.6-1.5-.7,1.1-1.5,1.5-2.6,1.5-1.3,0-2.2-.5-2.7-1.5-.7,1.1-1.6,1.5-2.9,1.5h-1.3v-2.2h1.5c1.3,0,2.2-.7,2.4-2.2,0-.4.2-.5.4-.5s.2.2.4.5c.2,1.5.9,2.2,2.4,2.2.7,0,1.5-.2,1.8-.5.2-.4.4-.7.5-1.5,0-.4.2-.5.4-.5s.2.2.4.5c.2,1.5.9,2.2,2.2,2.2,1.5,0,2-.4,2-.9s-.4-1.3-1.1-2l.9-1.6c.2-.2.2-.4.4-.4s.2.2.4.4c0,.6.2,1.5.2,2.5Zm-6.2-6.8l-1.3,1.3-1.3-1.3,1.3-1.3,1.3,1.3Zm1.6-2.8l-1.3,1.3-1.3-1.3,1.3-1.3,1.3,1.3Zm1.7,2.8l-1.3,1.3-1.3-1.3,1.3-1.3,1.3,1.3Z"/><path id="PATH_101" d="m118.5,371.12c0,2.6-1.6,3.8-5.1,3.8-1.3,0-2.2-.2-2.7-.5-.7-.4-1.1-1.3-1.1-2.4,0-.5.2-1.1.4-1.6.2-.2.2-.4.4-.4s.2.2.2.5v.5c0,.7.4,1.3,1.1,1.5.4.2,1.1.2,2,.2,2.7,0,4-.4,4-1.3,0-1.3-1.6-3.1-4.8-5.3l.5-1.8c0-.2.2-.2.2-.2,0,0,.2,0,.4.2,2.9,2.4,4.5,4.7,4.5,6.8Z"/></g><g id="G_102"><path id="PATH_103" d="m68.6,452.12h-1.3c-1.6,0-2.6-.9-2.9-2.9-.9.9-1.3,1.3-1.5,1.3h-1.6c-.5,0-1.1,0-1.6-.2-.7-.2-1.1-.5-1.1-.9,0-1.3.5-2.6,1.5-3.3.7-.5,1.8-1.1,3.3-1.8l-.4-1.8,1.3-1.5c0,.2.5,2.2,1.3,6,.2,1.1.5,2,.7,2.4.4.5.7.7,1.5.7h1.3v2h-.5Zm-4.6-3.6l-.5-2.9c-.5.2-1.3.5-2.2.9-1.1.5-1.8,1.1-1.8,1.3,0,.4.4.5,1.3.7.5.2,1.1.2,1.6.2.7-.2,1-.2,1.6-.2Z"/><path id="PATH_104" d="m73,448.52c0,2.4-1.3,3.7-3.7,3.7h-1.5v-2.2h1.3c1.8,0,2.7-.4,2.7-.9s-.4-1.3-1.3-2.2l.7-1.8c0-.2.2-.2.2-.2,0,0,.2.2.4.4.8.8,1.2,2.1,1.2,3.2Zm-1.5,7.7l-1.5,1.5-1.5-1.5,1.5-1.5,1.5,1.5Zm3.1,0l-1.5,1.5-1.5-1.5,1.5-1.5,1.5,1.5Z"/><path id="PATH_105" d="m88.9,452.12h-.7c-.7,0-1.3-.2-1.8-.7-.4-.4-.7-.7-1.1-1.5-.4.7-.9,1.3-1.5,1.6-.7.4-1.6.5-3.1.5-2.6,0-3.8-.9-3.8-2.7,0-.5.2-1.3.5-1.8.2-.2.2-.4.4-.4s.2.2.2.4v1c0,1.1.9,1.6,2.7,1.6,2.6,0,3.8-.5,3.8-1.5,0-.5-.7-2.6-2.2-6l.7-1.5c.2-.2.2-.4.2-.4,0,0,.2.2.2.4.5,1.5,1.5,3.7,2.6,6.6.5,1.5,1.3,2.2,2.4,2.2h.5v2.2h0Z"/><path id="PATH_106" d="m97.9,452.12h-1.5c-1.6,0-2.7-.5-3.5-1.6-.5,1.1-1.8,1.6-3.8,1.6h-1.1v-2.2h1.6c1.8,0,2.7-.7,2.9-2,0-.5.2-.9.4-.9s.4.4.4.9c.2,1.3,1.1,2,2.7,2h1.6v2.2h.3Zm-6.1,4.1l-1.5,1.5-1.5-1.5,1.5-1.5,1.5,1.5Zm3.3,0l-1.5,1.5-1.5-1.5,1.5-1.5,1.5,1.5Z"/><path id="PATH_107" d="m111,452.12h-1.1c-.9,0-1.8-.5-2.6-1.5-.5,1.5-1.1,2.2-1.6,2.2s-1.5-.4-2.6-.9c-.9-.5-1.6-1.1-2-1.5-.9,1.1-1.8,1.6-2.7,1.6h-1.1v-2.2h1.1c.9,0,1.6-.4,2.4-1.1.5-.5,1.1-1.3,1.8-2s1.3-1.1,1.8-1.1c.7,0,1.3.4,1.8,1.1.4.4.7,1.1,1.6,2,.5.7,1.3,1.1,2,1.1h1.1v2.3h.1Zm-4.9-1.4c0-.5-.2-1.1-.5-1.8-.4-.7-.9-1.1-1.6-1.1-.5,0-1.3.5-2,1.5.2.2.7.5,1.6,1.1.9.5,1.6.7,2.2.7.1-.2.3-.2.3-.4Z"/><path id="PATH_108" d="m125.3,446.82l-.7,1.5c-1.3,0-2.4,0-2.9.2-.7.4-1.8.7-3.3,1.5-1.5.7-2.6,1.3-3.3,1.5-1.1.4-2.4.5-3.5.5h-1.3v-2.2h1.5c1.6,0,3.1-.4,4.4-.9l4.2-1.8c-.7-.2-1.8-.5-3.3-1.1-1.3-.5-2-.7-2.4-.7-.7,0-1.5.4-2.2.9q-.2.2-.4.2t-.2-.2v-.2c.5-1.8,1.6-2.6,3.1-2.6.5,0,1.3.2,2,.5,1.5.7,2.6,1.1,3.3,1.5,1.3.4,2.7.7,4.4.7.4,0,.5,0,.5.2.3.2.3.4.1.5Z"/></g><g id="G_109"><path id="PATH_110" d="m188.1,545.32c0,1.3-.4,2.2-1.1,2.9-.7.7-1.8.9-2.9.9-.7,0-1.5-.2-2-.7s-.9-1.1-.9-1.8c0-.9.4-1.8,1.1-3.1.5-1.1,1.3-2,2-2.7,2.5,1.2,3.8,2.7,3.8,4.5Zm-.9.8c0-.5-.4-1.1-1.3-1.8-.7-.7-1.3-1.1-2-1.3-.9,1.3-1.5,2.2-1.5,2.9,0,.4.2.7.7,1.1.4.2.7.4,1.3.4.7,0,1.5-.2,2-.4.4-.6.8-.8.8-.9Z"/><path id="PATH_111" d="m199.6,549.22h-.9c-.7,0-1.1-.2-1.5-.4v.5c0,1.6-.5,3.3-1.6,4.9-.9,1.5-1.8,2-2.4,2-1.5,0-2.6,0-3.7-.2-.4,0-.5-.2-.5-.2,0,0,.2-.2.5-.2,1.5-.4,2.9-1.1,4.4-2.2,1.5-1.3,2.4-2.6,2.4-3.8,0-.7-.5-1.8-1.8-3.1l.9-1.6c0-.2.2-.2.2-.2l.2.2c.5.7.9,1.3,1.3,1.5.5.4,1.3.7,2,.7h.5v2.1h0Zm-3.6-9.7l-1.5,1.5-1.5-1.5,1.5-1.5,1.5,1.5Z"/><path id="PATH_112" d="m204,545.52c0,2.4-1.3,3.7-3.7,3.7h-1.5v-2.2h1.3c1.8,0,2.7-.4,2.7-.9s-.4-1.3-1.3-2.2l.7-1.8c0-.2.2-.2.2-.2l.4.4c.7.8,1.2,2.1,1.2,3.2Zm-1.4,7.7l-1.5,1.5-1.5-1.5,1.5-1.5,1.5,1.5Zm3.1,0l-1.5,1.5-1.5-1.5,1.5-1.5,1.5,1.5Z"/><path id="PATH_113" d="m217,549.22h-2c-.2,2.6-1.1,4.6-2.9,6.4-.5.5-.9.9-1.1.9-.9,0-2.2-.2-3.5-.4-.4,0-.7-.2-.7-.2,0,0,.2-.2.7-.4,1.5-.4,2.9-1.3,4.2-2.2.5-.5,1.1-.9,1.5-1.6.5-.7.9-1.5.9-2v-.5h-2.4c-1.8,0-2.6-.7-2.6-2.2,0-.9.2-1.8.7-2.9s1.3-1.8,2-1.8c.9,0,1.6.5,2.2,1.8.4.9.7,1.8.7,2.9h2v2.2h.3Zm-3.3-2.2c0-.5-.2-1.1-.5-1.6-.4-.7-.9-.9-1.5-.9-.4,0-.7.2-.9.4-.4.4-.4.5-.4,1.1,0,.9.7,1.3,2.2,1.3.2-.1.6-.3,1.1-.3Z"/><path id="PATH_114" d="m228.2,545.52c0,.7-.2,1.5-.7,2.2-.5.9-1.1,1.3-1.8,1.3-.5,0-1.8-.4-3.8-1.3-1.6,1.1-3.1,1.5-4.4,1.5h-.9v-2.2h1.1c.7,0,1.5,0,2.2-.2-.7-.5-1.1-1.3-1.1-2.2,0-1.1.7-2.4,2.4-3.7l-1.3-.5,1.6-1.6c1.6.9,3.1,1.6,4.4,2.7,1.4,1.4,2.3,2.7,2.3,4Zm-4.8-1.5c0-.5-.2-.9-.4-1.3-.2-.5-.5-.7-1.1-.7s-.9.2-1.5.5c-.5.4-.9.9-.9,1.3,0,.7.7,1.5,2,1.8.4-.2.7-.4,1.1-.5.7-.3.8-.7.8-1.1Zm3.9,2.2c0-.5-.4-1.1-1.1-1.8-.5-.5-1.1-1.1-1.6-1.3,0,1.5-.4,2.6-1.3,3.3,1.5.5,2.6.7,2.9.7.7-.1,1.1-.3,1.1-.9Z"/></g><g id="G_115"><path id="PATH_116" d="m505,612.12c0,1.8-.5,3.5-1.6,5.1-.9,1.3-1.8,2-2.4,2-1.5,0-2.6,0-3.7-.2-.4,0-.5-.2-.5-.2,0,0,.2-.2.5-.2,1.5-.4,2.9-1.1,4.4-2.2,1.5-1.3,2.4-2.6,2.4-3.8,0-.7-.5-1.8-1.8-3.1l.9-1.6c0-.2.2-.2.2-.2l.2.2c.4.5.9,1.3,1.1,2.2.1.6.3,1.3.3,2Zm-1.3-9.9l-1.5,1.5-1.5-1.5,1.5-1.5,1.5,1.5Z"/><path id="PATH_117" d="m509.4,609.62c0,.7-.2,1.5-.5,2-.2.4-.4.5-.4.5,0,0-.2-.2-.2-.7,0-2.2-.4-7.3-1.1-15.6l1.5-1.5.2-.2v.4c.3,2.6.5,7.6.5,15.1Z"/><path id="PATH_118" d="m520.7,612.02h-2c-.2,2.6-1.1,4.6-2.9,6.4-.5.5-.9.9-1.1.9-.9,0-2.2-.2-3.5-.4-.4,0-.7-.2-.7-.2,0,0,.2-.2.7-.4,1.5-.4,2.9-1.3,4.2-2.2.5-.5,1.1-.9,1.5-1.6.5-.7.9-1.5.9-2v-.5h-2.4c-1.8,0-2.6-.7-2.6-2.2,0-.9.2-1.8.7-2.9.5-1.1,1.3-1.8,2-1.8.9,0,1.6.5,2.2,1.8.4.9.7,1.8.7,2.9h2v2.2h.3Zm-3.3-2.2c0-.5-.2-1.1-.5-1.6-.4-.7-.9-.9-1.5-.9-.4,0-.7.2-.9.4-.2.2-.4.5-.4,1.1,0,.9.7,1.3,2.2,1.3,0-.3.6-.3,1.1-.3Z"/><path id="PATH_119" d="m531.9,608.32c0,.7-.2,1.5-.7,2.2-.5.9-1.1,1.3-1.8,1.3-.5,0-1.8-.4-3.8-1.3-1.6,1.1-3.1,1.5-4.4,1.5h-.9v-2.2h1.1c.7,0,1.5,0,2.2-.2-.7-.5-1.1-1.3-1.1-2.2,0-1.1.7-2.4,2.4-3.7l-1.3-.5,1.6-1.6c1.6.9,3.1,1.6,4.4,2.7,1.4,1.2,2.3,2.7,2.3,4Zm-4.8-1.7c0-.5-.2-.9-.4-1.3-.2-.5-.5-.7-1.1-.7s-.9.2-1.5.5c-.5.4-.9.9-.9,1.3,0,.7.7,1.5,2,1.8.4-.2.7-.4,1.1-.5.6-.1.8-.5.8-1.1Zm3.9,2.2c0-.5-.4-1.1-1.1-1.8-.5-.5-1.1-1.1-1.6-1.3,0,1.5-.4,2.6-1.3,3.3,1.5.5,2.6.7,2.9.7.7.1,1.1-.1,1.1-.9Z"/><path id="PATH_120" d="m536.1,609.62c0,.7-.2,1.5-.5,2-.2.4-.4.5-.4.5,0,0-.2-.2-.2-.7,0-2.2-.4-7.3-1.1-15.6l1.5-1.5.2-.2v.4c.5,2.6.5,7.6.5,15.1Z"/></g><g id="G_121"><path id="PATH_122" d="m386.2,646.02c.2.5.2,1.1.2,1.6,0,.7-.2,1.3-.4,2-.5,1.3-1.5,2.4-3.3,3.1-1.5.5-2.9.9-4.6.9-1.6,0-2.9-.4-4-1.1-1.1-.9-1.6-2-1.6-3.7,0-.9.2-1.6.5-2.7.4-.7.5-1.3.9-1.6.2-.2.4-.2.4-.2q.2,0,.2.2v.4c-.5,1.1-.7,2.2-.7,3.1s.4,1.6.9,2.4c.7.9,2,1.3,3.7,1.3,1.8,0,3.5-.4,4.8-.9,1.1-.5,1.8-1.1,2.2-1.8.2-.2.2-.5.2-.7,0-.5-.2-1.1-.4-1.8-.2-.5-.7-1.5-1.6-2.9l.7-1.5c.2-.2.2-.4.2-.4,0,0,.2,0,.2.2.7,1.2,1.3,2.6,1.5,4.1Zm-5.3-8.1l-1.5,1.5-1.5-1.5,1.5-1.5,1.5,1.5Z"/><path id="PATH_123" d="m395.9,645.42c0,2.7-.9,5.1-2.7,7-.5.5-.9.9-1.1.9-1.1,0-2.2-.2-3.5-.4-.5,0-.7-.2-.7-.2,0,0,.2-.2.7-.4,1.5-.4,2.9-1.3,4.2-2.4.5-.5,1.1-.9,1.5-1.6.5-.7.9-1.5.9-2v-.5h-2.4c-1.6,0-2.6-.7-2.6-2,0-.9.2-1.8.7-2.9.5-1.1,1.3-1.8,2-1.8,1.1,0,2,.7,2.6,2.4.2,1.2.4,2.5.4,3.9Zm-1.3-1.4c0-.5-.2-1.1-.5-1.6s-.9-.9-1.5-.9c-.4,0-.7.2-.9.4-.4.4-.4.5-.4.9,0,.9.5,1.3,1.8,1.3.2.1.8-.1,1.5-.1Z"/><path id="PATH_124" d="m405,646.42c0,1.8-.5,3.5-1.6,5.1-.9,1.3-1.8,2-2.4,2-1.5,0-2.6,0-3.7-.2-.4,0-.5-.2-.5-.2,0,0,.2-.2.5-.2,1.5-.4,2.9-1.1,4.4-2.2,1.5-1.3,2.4-2.6,2.4-3.8,0-.7-.5-1.8-1.8-3.1l.9-1.6c0-.2.2-.2.2-.2l.2.2c.4.5.9,1.3,1.1,2.2.1.5.3,1.2.3,2Z"/><path id="PATH_125" d="m412.3,646.22h-1.3c-1.3,0-2.4-.5-2.7-1.6-.4-.7-.5-2-.5-3.5v-3.5c0-1.6-.2-4-.4-7.1l1.1-1.3c.2-.2.4-.2.4,0,.2,1.6.4,4,.4,7.1v5.3c0,1.5.7,2.2,2.2,2.2h.9l-.1,2.4h0Z"/><path id="PATH_126" d="m423.7,629.22c0,.4-.4,1.1-.7,2l-4.6,1.5c-2,.7-3.5,1.3-4.2,1.6,1.5,1.5,2.4,2.6,2.9,3.1.9,1.3,1.5,2.4,1.6,3.7,0,.9,0,1.8-.4,2.6-.5,1.6-2.6,2.4-5.7,2.4h-.9v-2.2h1.1c1.5,0,2.6,0,3.1-.2,1.3-.4,2-.9,2-1.8,0-1.3-.9-2.7-2.9-4.6l-.2.4c-.2-.2-.5-.5-.9-1.1-.5-.5-.7-1.1-.7-1.1,0-.4,0-.7.2-1.5.2-.7.4-1.1.5-1.3.2-.2,1.5-.7,3.8-1.5,2.1-.8,4.3-1.5,6-2Z"/></g><g id="G_127"><path id="PATH_128" d="m126.4,771.62h-.7c-.7,0-1.1-.2-1.5-.4v.5c0,1.6-.5,3.3-1.6,4.9-.9,1.5-1.8,2-2.4,2-1.5,0-2.6,0-3.7-.2-.4,0-.5-.2-.5-.2,0,0,.2-.2.5-.2,1.5-.4,2.9-1.1,4.4-2.2,1.5-1.3,2.4-2.6,2.4-3.8,0-.7-.5-1.8-1.8-3.1l.9-1.6c0-.2.2-.2.2-.2l.2.2c.5.7.9,1.3,1.3,1.5.5.4,1.3.7,2,.7h.5v2h-.2v.1Z"/><path id="PATH_129" d="m137.8,771.62h-.9c-.7,0-1.5.2-2,.4-.9.4-1.5.9-1.5,1.8,0,1.1.7,2,2.2,2.9l-.9,1.8c-1.6-.5-3.1-1.5-4.2-2.6-1.5-1.3-2.2-2.9-2.2-4.6h-2.6v-2.2h2.4c0-1.5.4-2.9,1.1-4.8.7-1.6,1.3-2.4,1.6-2.4.4,0,.9.7,1.5,2.4.5,1.5.7,2.4.7,2.9,0,2.6-1.3,3.8-3.8,3.8.2.7.5,1.5,1.1,2.2.5.7,1.3,1.3,2,1.6v-.7c0-1.3.4-2.4.9-3.3.9-1.3,2-2,3.7-2h.7v2.6h.2v.2Zm-5.7-3c0-.4-.2-1.1-.5-2-.4-1.1-.7-1.5-1.1-1.5-.2,0-.5.4-.9,1.3-.4.9-.5,2-.5,3.1,2.1-.1,3-.3,3-.9Z"/><path id="PATH_130" d="m154.6,771.62h-1.1c-1.3,0-2-.5-2.6-1.5-.4,1.1-1.3,1.5-2.4,1.5s-1.8-.5-2.4-1.5c-.5,1.1-1.3,1.5-2.4,1.5-1.3,0-2.2-.5-2.7-1.5-.7,1.1-1.6,1.5-2.9,1.5h-1.3v-2.2h1.5c1.3,0,2.2-.7,2.4-2.2,0-.4.2-.5.4-.5s.2.2.4.5c.2,1.5.9,2.2,2.4,2.2,1.3,0,2.2-.7,2.2-2.2,0-.4.2-.5.4-.5s.4.2.4.5c.2,1.5.9,2.2,1.8,2.2,1.3,0,2.2-.7,2.2-2.2,0-.4.2-.5.4-.5s.4.2.4.5c.2,1.5.9,2.2,2.2,2.2h1.1v2.2h-.4Zm-8.4-9.2l-1.3,1.3-1.3-1.3,1.3-1.3,1.3,1.3Zm1.5-2.9l-1.3,1.3-1.3-1.3,1.3-1.3,1.3,1.3Zm1.6,2.9l-1.3,1.3-1.3-1.3,1.3-1.3,1.3,1.3Z"/><path id="PATH_131" d="m163.8,767.92c0,.9,0,1.6-.4,2.4-.4.9-.9,1.5-1.5,1.5-.9,0-2.4-.5-4.2-1.8-.5.7-.9,1.1-1.1,1.3-.5.4-1.1.5-1.8.5h-.9v-2.2h1.3c.7,0,1.5-.4,2.2-1.3.4-.4.9-1.3,1.6-2.4.5-.9,1.3-1.3,1.8-1.3.9,0,1.6.4,2.2,1.3.4.7.6,1.3.8,2Zm-1.1,1.3c0-.5-.2-1.1-.5-1.8s-.9-1.1-1.5-1.1c-.5,0-1.1.5-1.8,1.6.4.4.9.7,1.6,1.1.7.4,1.5.5,1.8.5.2.2.4.1.4-.3Z"/><path id="PATH_132" d="m175.1,771.62h-.7c-.7,0-1.1-.2-1.5-.4v.5c0,1.6-.5,3.3-1.6,4.9-.9,1.5-1.8,2-2.4,2-1.5,0-2.6,0-3.7-.2-.4,0-.5-.2-.5-.2,0,0,.2-.2.5-.2,1.5-.4,2.9-1.1,4.4-2.2,1.5-1.3,2.4-2.6,2.4-3.8,0-.7-.5-1.8-1.8-3.1l.9-1.6c0-.2.2-.2.2-.2l.2.2c.5.7.9,1.3,1.3,1.5.5.4,1.3.7,2,.7h.5v2h-.2v.1Z"/><path id="PATH_133" d="m189.4,766.32l-.7,1.5c-1.3,0-2.4,0-2.9.2-.7.4-1.8.7-3.3,1.5-1.5.7-2.6,1.3-3.3,1.5-1.1.4-2.4.5-3.5.5h-1.3v-2.2h1.5c1.6,0,3.1-.4,4.4-.9l4.2-1.8c-.7-.2-1.8-.5-3.3-1.1-1.3-.5-2-.7-2.4-.7-.7,0-1.5.4-2.2.9q-.2.2-.4.2t-.2-.2v-.4c.5-1.8,1.6-2.6,3.1-2.6.5,0,1.3.2,2,.5,1.5.7,2.6,1.1,3.3,1.5,1.3.4,2.7.7,4.4.7.4,0,.5,0,.5.2.3.3.3.5.1.7Zm-5.1-8.5l-1.5,1.5-1.5-1.5,1.5-1.5,1.5,1.5Z"/></g><g id="G_134"><path id="PATH_135" d="m380.3,801.22c.2.5.2,1.1.2,1.6,0,.7-.2,1.3-.4,2-.5,1.3-1.5,2.4-3.3,3.1-1.5.5-2.9.9-4.6.9-1.6,0-2.9-.4-4-1.1-1.1-.9-1.6-2-1.6-3.7,0-.9.2-1.6.5-2.7.4-.7.5-1.3.9-1.6.2-.2.4-.2.4-.2q.2,0,.2.2v.4c-.5,1.1-.7,2.2-.7,3.1s.4,1.6.9,2.4c.7.9,2,1.3,3.7,1.3,1.8,0,3.5-.4,4.8-.9,1.1-.5,1.8-1.1,2.2-1.8.2-.2.2-.5.2-.7,0-.5-.2-1.1-.4-1.8-.2-.5-.7-1.5-1.6-2.9l.7-1.5c.2-.2.2-.4.2-.4,0,0,.2,0,.2.2.8,1.2,1.3,2.7,1.5,4.1Zm-5.3-8l-1.5,1.5-1.5-1.5,1.5-1.5,1.5,1.5Z"/><path id="PATH_136" d="m387.8,801.42h-1.3c-1.3,0-2.4-.5-2.7-1.6-.4-.7-.5-2-.5-3.5v-3.5c0-1.6-.2-4-.4-7.1l1.1-1.3c.2-.2.4-.2.4,0,.2,1.6.4,4,.4,7.1v5.3c0,1.5.7,2.2,2.2,2.2h.9v2.4h-.1Z"/><path id="PATH_137" d="m398.8,786.62c0,.4-.2.9-.5,2-2.2.5-4.9,1.5-8.1,2.4,2.2,2.2,3.5,4,3.7,5.3.2.9,0,1.8-.4,2.7s-1.1,1.5-2,1.8c-.7.4-2,.4-3.7.4h-.7v-2.2h.5c3.5,0,5.3-.5,5.3-1.8,0-.9-.9-2.4-2.9-4.2l-.2.5c-.2-.2-.5-.5-.9-1.1-.5-.5-.7-.9-.7-1.1,0-.5.2-1.1.7-1.6.2-.2,1.3-.5,3.7-1.3,2.2-.7,4.4-1.3,6.2-1.8Zm-.4-2.8l-.4,1.3-9,2.9.4-1.3,9-2.9Z"/><path id="PATH_138" d="m409.4,797.62c0,2.6-1.6,3.8-5.1,3.8-1.3,0-2.2-.2-2.7-.5-.7-.4-1.1-1.3-1.1-2.4,0-.5.2-1.1.4-1.6.2-.2.2-.4.4-.4s.2.2.2.5v.5c0,.7.4,1.3,1.1,1.5.4.2,1.1.2,2,.2,2.7,0,4-.4,4-1.3,0-1.3-1.6-3.1-4.8-5.3l.5-1.8c0-.2.2-.2.2-.2,0,0,.2,0,.4.2,3.1,2.4,4.5,4.8,4.5,6.8Z"/><path id="PATH_139" d="m416.7,801.42h-1.3c-1.3,0-2.4-.5-2.7-1.6-.4-.7-.5-2-.5-3.5v-3.5c0-1.6-.2-4-.4-7.1l1.1-1.3c.2-.2.4-.2.4,0,.2,1.6.4,4,.4,7.1v5.3c0,1.5.7,2.2,2.2,2.2h.9l-.1,2.4h0Z"/><path id="PATH_140" d="m431.2,797.62c0,1.1-.2,2-.7,2.7s-1.5,1.3-2.4,1.3c-1.3,0-2-.5-2.6-1.5-.7,1.1-1.5,1.5-2.6,1.5-1.3,0-2.2-.5-2.7-1.5-.7,1.1-1.6,1.5-2.9,1.5h-1.3v-2.2h1.5c1.3,0,2.2-.7,2.4-2.2,0-.4.2-.5.4-.5s.2.2.4.5c.2,1.5.9,2.2,2.4,2.2.7,0,1.5-.2,1.8-.5.2-.4.4-.7.5-1.5,0-.4.2-.5.4-.5s.2.2.4.5c.2,1.5.9,2.2,2.2,2.2,1.5,0,2-.4,2-.9s-.4-1.3-1.1-2l.9-1.6c.2-.2.2-.4.4-.4s.2.2.4.4c-.2.6.2,1.5.2,2.5Zm-6.2-6.8l-1.3,1.3-1.3-1.3,1.3-1.3,1.3,1.3Zm1.6-2.8l-1.3,1.3-1.5-1.3,1.3-1.3,1.5,1.3Zm1.7,2.8l-1.3,1.3-1.3-1.3,1.3-1.3,1.3,1.3Z"/></g><g id="G_141"><path id="PATH_142" d="m391.1,952.62c.2.5.2,1.1.2,1.6,0,.7-.2,1.3-.4,2-.5,1.3-1.5,2.4-3.3,3.1-1.5.5-2.9.9-4.6.9-1.6,0-2.9-.4-4-1.1-1.1-.9-1.6-2-1.6-3.7,0-.9.2-1.6.5-2.7.4-.7.5-1.3.9-1.6.2-.2.4-.2.4-.2q.2,0,.2.2v.4c-.5,1.1-.7,2.2-.7,3.1s.4,1.6.9,2.4c.7.9,2,1.3,3.7,1.3,1.8,0,3.5-.4,4.8-.9,1.1-.5,1.8-1.1,2.2-1.8.2-.2.2-.5.2-.7,0-.5-.2-1.1-.4-1.8-.2-.5-.7-1.5-1.6-2.9l.7-1.5c.2-.2.2-.4.2-.4,0,0,.2,0,.2.2.8,1.2,1.3,2.6,1.5,4.1Zm-5.3-8l-1.5,1.5-1.5-1.5,1.5-1.5,1.5,1.5Z"/><path id="PATH_143" d="m395.7,950.62c0,.7-.2,1.5-.5,2-.2.4-.4.5-.4.5,0,0-.2-.2-.2-.7,0-2.2-.4-7.3-1.1-15.6l1.5-1.5.2-.2v.4c.3,2.5.5,7.4.5,15.1Z"/><path id="PATH_144" d="m406.9,948.92c0,2.6-1.6,3.8-5.1,3.8-1.3,0-2.2-.2-2.7-.5-.7-.4-1.1-1.3-1.1-2.4,0-.5.2-1.1.4-1.6.2-.2.2-.4.4-.4s.2.2.2.5v.5c0,.7.4,1.3,1.1,1.5.4.2,1.1.2,2,.2,2.7,0,4-.4,4-1.3,0-1.3-1.6-3.1-4.8-5.3l.5-1.8c0-.2.2-.2.2-.2,0,0,.2,0,.4.2,2.8,2.5,4.5,4.8,4.5,6.8Z"/><path id="PATH_145" d="m414.2,952.82h-1.3c-1.3,0-2.4-.5-2.7-1.6-.4-.7-.5-2-.5-3.5v-3.5c0-1.6-.2-4-.4-7.1l1.1-1.3c.2-.2.4-.2.4,0,.2,1.6.4,4,.4,7.1v5.3c0,1.5.7,2.2,2.2,2.2h.9l-.1,2.4h0Z"/><path id="PATH_146" d="m418.4,949.12c0,2.4-1.3,3.7-3.7,3.7h-1.4v-2.2h1.3c1.8,0,2.7-.4,2.7-.9s-.4-1.3-1.3-2.2l.7-1.8c0-.2.2-.2.2-.2l.4.4c.7.9,1.1,2.1,1.1,3.2Zm-.6,7.7l-1.5,1.5-1.5-1.5,1.5-1.5,1.5,1.5Z"/><path id="PATH_147" d="m425.9,933.22c-.7.7-1.8.9-2.9.9h-1.4c-.2,0-.4.2-.5.4l-.4.4c-.2,0-.2-.2-.2-.4s.2-.5.4-.9c.2-.5.4-.7.5-.7s.5,0,1.1.2c.5.2.9.2,1.1.2,1.1,0,1.8,0,2.4-.2.4,0,.5-.2.5-.2h.2c-.4-.1-.6.1-.8.3Zm-1.3,17.4c0,.7-.2,1.5-.5,2-.2.4-.4.5-.4.5,0,0-.2-.2-.2-.7,0-2.2-.4-7.3-1.1-15.6l1.5-1.5.2-.2v.4c.5,2.5.5,7.4.5,15.1Z"/></g><g id="G_148"><path id="PATH_149" d="m519.6,805.12h-.7c-.7,0-1.1-.2-1.5-.4v.5c0,1.6-.5,3.3-1.6,4.9-.9,1.5-1.8,2-2.4,2-1.5,0-2.6,0-3.7-.2-.4,0-.5-.2-.5-.2,0,0,.2-.2.5-.2,1.5-.4,2.9-1.1,4.4-2.2,1.5-1.3,2.4-2.6,2.4-3.8,0-.7-.5-1.8-1.8-3.1l.9-1.6c0-.2.2-.2.2-.2l.2.2c.5.7.9,1.3,1.3,1.5.5.4,1.3.7,2,.7h.5v2h-.2v.1Z"/><path id="PATH_150" d="m531,805.12h-.9c-.7,0-1.5.2-2,.4-.9.4-1.5.9-1.5,1.8,0,1.1.7,2,2.2,2.9l-.9,1.8c-1.6-.5-3.1-1.5-4.2-2.6-1.5-1.3-2.2-2.9-2.2-4.6h-2.6v-2.2h2.4c0-1.5.4-2.9,1.1-4.8.7-1.6,1.3-2.4,1.6-2.4.4,0,.9.7,1.5,2.4.5,1.5.7,2.4.7,2.9,0,2.6-1.3,3.8-3.8,3.8.2.7.5,1.5,1.1,2.2.5.7,1.3,1.3,2,1.6v-.7c0-1.3.4-2.4.9-3.3.9-1.3,2-2,3.7-2h.7v2.6h.2v.2Zm-5.5-3c0-.4-.2-1.1-.5-2-.4-1.1-.7-1.5-1.1-1.5-.2,0-.5.4-.9,1.3-.4.9-.5,2-.5,3.1,1.9-.1,3-.3,3-.9Z"/><path id="PATH_151" d="m548,805.12h-1.1c-1.3,0-2-.5-2.6-1.5-.4,1.1-1.3,1.5-2.4,1.5s-1.8-.5-2.4-1.5c-.5,1.1-1.3,1.5-2.4,1.5-1.3,0-2.2-.5-2.7-1.5-.7,1.1-1.6,1.5-2.9,1.5h-1.3v-2.2h1.5c1.3,0,2.2-.7,2.4-2.2,0-.4.2-.5.4-.5s.2.2.4.5c.2,1.5.9,2.2,2.4,2.2,1.3,0,2.2-.7,2.2-2.2,0-.4.2-.5.4-.5s.4.2.4.5c.2,1.5.9,2.2,1.8,2.2,1.3,0,2.2-.7,2.2-2.2,0-.4.2-.5.4-.5s.4.2.4.5c.2,1.5.9,2.2,2.2,2.2h1.1v2.2h-.4Zm-8.6-9.4l-1.3,1.3-1.3-1.3,1.3-1.3,1.3,1.3Zm1.6-2.7l-1.3,1.3-1.3-1.3,1.3-1.3,1.3,1.3Zm1.7,2.7l-1.3,1.3-1.3-1.3,1.3-1.3,1.3,1.3Z"/><path id="PATH_152" d="m559.2,801.22c0,.7-.2,1.5-.7,2.2-.5.9-1.1,1.3-1.8,1.3-.5,0-1.8-.4-3.8-1.3-1.6,1.1-3.1,1.5-4.4,1.5h-.9v-2.2h1.1c.7,0,1.5,0,2.2-.2-.7-.5-1.1-1.3-1.1-2.2,0-1.1.7-2.4,2.4-3.7l-1.3-.5,1.6-1.6c1.6.9,3.1,1.6,4.4,2.7,1.3,1.5,2.3,2.9,2.3,4Zm-5-1.4c0-.5-.2-.9-.4-1.3-.2-.5-.5-.7-1.1-.7s-.9.2-1.5.5c-.5.4-.9.9-.9,1.3,0,.7.7,1.5,2,1.8.4-.2.7-.4,1.1-.5.6-.2.8-.6.8-1.1Zm3.9,2.2c0-.5-.4-1.1-1.1-1.8-.5-.5-1.1-1.1-1.6-1.3,0,1.5-.4,2.6-1.3,3.3,1.5.5,2.6.7,2.9.7.7,0,1.1-.2,1.1-.9Z"/><path id="PATH_153" d="m566.3,805.12h-1.3c-1.3,0-2.4-.5-2.7-1.6-.4-.7-.5-2-.5-3.5v-3.5c0-1.6-.2-4-.4-7.1l1.1-1.3c.2-.2.4-.2.4,0,.2,1.6.4,4,.4,7.1v5.3c0,1.5.7,2.2,2.2,2.2h.9v2.4h-.1Z"/><path id="PATH_154" d="m575.4,801.42c0,.9,0,1.6-.4,2.4-.4.9-.9,1.5-1.5,1.5-.9,0-2.4-.5-4.2-1.8-.5.7-.9,1.1-1.1,1.3-.5.4-1.1.5-1.8.5h-.9v-2.2h1.3c.7,0,1.5-.4,2.2-1.3.4-.4.9-1.3,1.6-2.4.5-.9,1.3-1.3,1.8-1.3.9,0,1.6.4,2.2,1.3.5.7.7,1.3.8,2Zm-1.1,1.3c0-.5-.2-1.1-.5-1.8s-.9-1.1-1.5-1.1c-.5,0-1.1.5-1.8,1.6.4.4.9.7,1.6,1.1.7.4,1.5.5,1.8.5.3.2.4.1.4-.3Z"/></g><g id="G_155"><path id="PATH_156" d="m684.5,920.62c.2.5.2,1.1.2,1.6,0,.7-.2,1.3-.4,2-.5,1.3-1.5,2.4-3.3,3.1-1.5.5-2.9.9-4.6.9-1.6,0-2.9-.4-4-1.1-1.1-.9-1.6-2-1.6-3.7,0-.9.2-1.6.5-2.7.4-.7.5-1.3.9-1.6.2-.2.4-.2.4-.2q.2,0,.2.2v.4c-.5,1.1-.7,2.2-.7,3.1s.4,1.6.9,2.4c.7.9,2,1.3,3.7,1.3,1.8,0,3.5-.4,4.8-.9,1.1-.5,1.8-1.1,2.2-1.8.2-.2.2-.5.2-.7,0-.5-.2-1.1-.4-1.8-.2-.5-.7-1.5-1.6-2.9l.7-1.5c.2-.2.2-.4.2-.4,0,0,.2,0,.2.2.8,1.1,1.4,2.6,1.5,4.1Zm-5.3-8.1l-1.5,1.5-1.5-1.5,1.5-1.5,1.5,1.5Z"/><path id="PATH_157" d="m692,920.82h-1.3c-1.3,0-2.4-.5-2.7-1.6-.4-.7-.5-2-.5-3.5v-3.5c0-1.6-.2-4-.4-7.1l1.1-1.3c.2-.2.4-.2.4,0,.2,1.6.4,4,.4,7.1v5.3c0,1.5.7,2.2,2.2,2.2h.9l-.1,2.4h0Z"/><path id="PATH_158" d="m708.2,920.82h-1.8c-2.4,0-3.7-1.3-3.7-3.7v-.9c-.9.4-2,1.1-3.5,2s-2.4,1.5-3.1,1.8c-1.1.5-2.4.7-3.5.7h-1.5v-2.2h1.5c1.5,0,3.1-.4,4.6-1.1.7-.4,2-1.1,4-2-.4,0-1.5-.4-3.3-.7-1.3-.4-2-.5-2.2-.5-.7,0-1.5.4-2.2.9q-.2.2-.4.2t-.2-.2v-.2c.5-1.8,1.6-2.7,3.1-2.7.5,0,1.3.2,2.2.4,1.3.4,2.4.7,3.3.9,1.3.2,2.7.4,4.4.4h.5c.2,0,0,.2,0,.4l-.5,1.6c-1.1,0-1.8,0-2.2.2,0,.9.2,1.5.4,1.6.4.5,1.1.9,2.4.9h1.8v2.2h-.1Zm-7.2,3.6l-1.5,1.5-1.5-1.5,1.5-1.5,1.5,1.5Z"/><path id="PATH_159" d="m712.4,917.12c0,2.4-1.3,3.7-3.7,3.7h-1.5v-2.2h1.3c1.8,0,2.7-.4,2.7-.9s-.4-1.3-1.3-2.2l.7-1.8c0-.2.2-.2.2-.2,0,0,.2.2.4.4.8.8,1.2,2.1,1.2,3.2Zm-1.5,7.7l-1.5,1.5-1.5-1.5,1.5-1.5,1.5,1.5Zm3.1,0l-1.5,1.5-1.5-1.5,1.5-1.5,1.5,1.5Z"/><path id="PATH_160" d="m728.3,920.82h-.7c-.7,0-1.3-.2-1.8-.7-.4-.4-.7-.7-1.1-1.5-.4.7-.9,1.3-1.5,1.6-.7.4-1.6.5-3.1.5-2.6,0-3.8-.9-3.8-2.7,0-.5.2-1.3.5-1.8.2-.2.2-.4.4-.4s.2.2.2.4v1c0,1.1.9,1.6,2.7,1.6,2.6,0,3.8-.5,3.8-1.5,0-.5-.7-2.6-2.2-6l.7-1.5c.2-.2.2-.4.2-.4,0,0,.2.2.2.4.5,1.5,1.5,3.7,2.6,6.6.5,1.5,1.3,2.2,2.4,2.2h.5v2.2h0Z"/><path id="PATH_161" d="m737.4,920.82h-1.5c-1.6,0-2.7-.5-3.5-1.6-.5,1.1-1.8,1.6-3.8,1.6h-1.1v-2.2h1.6c1.8,0,2.7-.7,2.9-2,0-.5.2-.9.4-.9s.4.4.4.9c.2,1.3,1.1,2,2.7,2h1.6v2.2h.3Zm-3.6-9.6l-1.5,1.5-1.5-1.5,1.5-1.5,1.5,1.5Z"/><path id="PATH_162" d="m748.6,917.12c0,.7-.2,1.5-.7,2.2-.5.9-1.1,1.3-1.8,1.3-.5,0-1.8-.4-3.8-1.3-1.6,1.1-3.1,1.5-4.4,1.5h-.9v-2.2h1.1c.7,0,1.5,0,2.2-.2-.7-.5-1.1-1.3-1.1-2.2,0-1.1.7-2.4,2.4-3.7l-1.3-.5,1.6-1.6c1.6.9,3.1,1.6,4.4,2.7,1.4,1.4,2.3,2.7,2.3,4Zm-4.9-1.5c0-.5-.2-.9-.4-1.3-.2-.5-.5-.7-1.1-.7s-.9.2-1.5.5c-.5.4-.9.9-.9,1.3,0,.7.7,1.5,2,1.8.4-.2.7-.4,1.1-.5.6-.3.8-.7.8-1.1Zm3.8,2.2c0-.5-.4-1.1-1.1-1.8-.5-.5-1.1-1.1-1.6-1.3,0,1.5-.4,2.6-1.3,3.3,1.5.5,2.6.7,2.9.7.7-.1,1.1-.3,1.1-.9Z"/></g><g id="G_163"><path id="PATH_164" d="m845.6,848.32c.2.5.2,1.1.2,1.6,0,.7-.2,1.3-.4,2-.5,1.3-1.5,2.4-3.3,3.1-1.5.5-2.9.9-4.6.9s-2.9-.4-4-1.1c-1.1-.9-1.6-2-1.6-3.7,0-.9.2-1.6.5-2.7.4-.7.5-1.3.9-1.6.2-.2.4-.2.4-.2q.2,0,.2.2v.4c-.5,1.1-.7,2.2-.7,3.1s.4,1.6.9,2.4c.7.9,2,1.3,3.7,1.3,1.8,0,3.5-.4,4.8-.9,1.1-.5,1.8-1.1,2.2-1.8.2-.2.2-.5.2-.7,0-.5-.2-1.1-.4-1.8-.2-.5-.7-1.5-1.6-2.9l.7-1.5c.2-.2.2-.4.2-.4,0,0,.2,0,.2.2.8,1.1,1.3,2.6,1.5,4.1Zm-5.3-8.1l-1.5,1.5-1.5-1.5,1.5-1.5,1.5,1.5Z"/><path id="PATH_165" d="m853.1,848.52h-1.3c-1.3,0-2.4-.5-2.7-1.6-.4-.7-.5-2-.5-3.5v-3.5c0-1.6-.2-4-.4-7.1l1.1-1.3c.2-.2.4-.2.4,0,.2,1.6.4,4,.4,7.1v5.3c0,1.5.7,2.2,2.2,2.2h.9v2.4h-.1Z"/><path id="PATH_166" d="m864.5,848.52h-.9c-.7,0-1.5.2-2,.4-.9.4-1.5.9-1.5,1.8,0,1.1.7,2,2.2,2.9l-.9,1.8c-1.6-.5-3.1-1.5-4.2-2.6-1.5-1.3-2.2-2.9-2.2-4.6h-2.6v-2.2h2.4c0-1.5.4-2.9,1.1-4.8.7-1.6,1.3-2.4,1.6-2.4s.9.7,1.5,2.4c.5,1.5.7,2.4.7,2.9,0,2.6-1.3,3.8-3.8,3.8.2.7.5,1.5,1.1,2.2s1.3,1.3,2,1.6v-.7c0-1.3.4-2.4.9-3.3.9-1.3,2-2,3.7-2h.7v2.6h.2v.2Zm-5.5-3c0-.4-.2-1.1-.5-2-.4-1.1-.7-1.5-1.1-1.5-.2,0-.5.4-.9,1.3-.4.9-.5,2-.5,3.1,1.9-.1,3-.3,3-.9Z"/><path id="PATH_167" d="m873.4,848.52h-1.5c-1.6,0-2.7-.5-3.5-1.6-.5,1.1-1.8,1.6-3.8,1.6h-1.1v-2.2h1.6c1.8,0,2.7-.7,2.9-2,0-.5.2-.9.4-.9s.4.4.4.9c.2,1.3,1.1,2,2.7,2h1.6v2.2h.3Zm-4,4l-1.5,1.5-1.5-1.5,1.5-1.5,1.5,1.5Z"/><path id="PATH_168" d="m884.8,848.52h-.9c-.7,0-1.5.2-2,.4-.9.4-1.5.9-1.5,1.8,0,1.1.7,2,2.2,2.9l-.9,1.8c-1.6-.5-3.1-1.5-4.2-2.6-1.5-1.3-2.2-2.9-2.2-4.6h-2.6v-2.2h2.4c0-1.5.4-2.9,1.1-4.8.7-1.6,1.3-2.4,1.6-2.4.4,0,.9.7,1.5,2.4.5,1.5.7,2.4.7,2.9,0,2.6-1.3,3.8-3.8,3.8.2.7.5,1.5,1.1,2.2.5.7,1.3,1.3,2,1.6v-.7c0-1.3.4-2.4.9-3.3.9-1.3,2-2,3.7-2h.7v2.6h.2v.2Zm-5.5-3c0-.4-.2-1.1-.5-2-.4-1.1-.7-1.5-1.1-1.5-.2,0-.5.4-.9,1.3-.4.9-.5,2-.5,3.1,1.9-.1,3-.3,3-.9Z"/><path id="PATH_169" d="m889.2,844.82c0,2.4-1.3,3.7-3.7,3.7h-1.5v-2.2h1.3c1.8,0,2.7-.4,2.7-.9s-.4-1.3-1.3-2.2l.7-1.8c0-.2.2-.2.2-.2,0,0,.2.2.4.4.8.8,1.2,2.1,1.2,3.2Zm-.6,7.7l-1.5,1.5-1.5-1.5,1.5-1.5,1.5,1.5Z"/></g><g id="G_170"><path id="PATH_171" d="m665.7,783.52h-1.3c-1.6,0-2.6-.9-2.9-2.9-.9.9-1.3,1.3-1.5,1.3h-1.6c-.5,0-1.1,0-1.6-.2-.7-.2-1.1-.5-1.1-.9,0-1.5.5-2.6,1.5-3.3.7-.5,1.8-1.1,3.3-1.8l-.4-1.8,1.3-1.5c0,.2.5,2.2,1.3,6,.2,1.1.5,2,.7,2.4.4.5.7.7,1.5.7h1.3v2h-.5Zm-4.6-3.7l-.5-2.9c-.5.2-1.3.5-2.2.9-1.1.5-1.8,1.1-1.8,1.3,0,.4.4.5,1.3.7.5.2,1.1.2,1.6.2.7-.2,1.2-.2,1.6-.2Z"/><path id="PATH_172" d="m670.1,779.82c0,2.4-1.3,3.7-3.7,3.7h-1.5v-2.2h1.3c1.8,0,2.7-.4,2.7-.9s-.4-1.3-1.3-2.2l.7-1.8c0-.2.2-.2.2-.2,0,0,.2.2.4.4.8.8,1.2,2.1,1.2,3.2Zm-1.5,7.7l-1.5,1.5-1.5-1.5,1.5-1.5,1.5,1.5Zm3.1,0l-1.5,1.5-1.5-1.5,1.5-1.5,1.5,1.5Z"/><path id="PATH_173" d="m686.2,783.52h-.7c-.7,0-1.3-.2-1.8-.7-.4-.4-.7-.7-1.1-1.5-.4.7-.9,1.3-1.5,1.6-.7.4-1.6.5-3.1.5-2.6,0-3.8-.9-3.8-2.7,0-.5.2-1.3.5-1.8.2-.2.2-.4.4-.4s.2.2.2.4v1c0,1.1.9,1.6,2.7,1.6,2.6,0,3.8-.5,3.8-1.5,0-.5-.7-2.6-2.2-6l.7-1.5c.2-.2.2-.4.2-.4,0,0,.2.2.2.4.5,1.5,1.5,3.7,2.6,6.6.5,1.5,1.3,2.2,2.4,2.2h.5v2.2h0Z"/><path id="PATH_174" d="m695.2,783.52h-1.5c-1.6,0-2.7-.5-3.5-1.6-.5,1.1-1.8,1.6-3.8,1.6h-1.1v-2.2h1.6c1.8,0,2.7-.7,2.9-2,0-.5.2-.9.4-.9s.4.4.4.9c.2,1.3,1.1,2,2.7,2h1.6v2.2h.3Zm-6.1,4l-1.5,1.5-1.5-1.5,1.5-1.5,1.5,1.5Zm3.1,0l-1.5,1.5-1.5-1.5,1.5-1.5,1.5,1.5Z"/><path id="PATH_175" d="m704.3,779.82c0,.9,0,1.6-.4,2.4-.4.9-.9,1.5-1.5,1.5-.9,0-2.4-.5-4.2-1.8-.5.7-.9,1.1-1.1,1.3-.5.4-1.1.5-1.8.5h-.9v-2.2h1.3c.7,0,1.5-.4,2.2-1.3.4-.4.9-1.3,1.6-2.4.5-.9,1.3-1.3,1.8-1.3.9,0,1.6.4,2.2,1.3.4.7.6,1.3.8,2Zm-1.1,1.3c0-.5-.2-1.1-.5-1.8-.4-.7-.9-1.1-1.5-1.1-.5,0-1.1.5-1.8,1.6.4.4.9.7,1.6,1.1.7.4,1.5.5,1.8.5.2.2.4.1.4-.3Z"/><path id="PATH_176" d="m708.5,781.32c0,.7-.2,1.5-.5,2-.2.4-.4.5-.4.5,0,0-.2-.2-.2-.7,0-2.2-.4-7.3-1.1-15.6l1.5-1.5.2-.2v.4c.5,2.4.5,7.4.5,15.1Z"/></g><g id="G_177"><path id="PATH_178" d="m599.6,698.52h-.7c-.7,0-1.1-.2-1.5-.4v.5c0,1.6-.5,3.3-1.6,4.9-.9,1.5-1.8,2-2.4,2-1.5,0-2.6,0-3.7-.2-.4,0-.5-.2-.5-.2,0,0,.2-.2.5-.2,1.5-.4,2.9-1.1,4.4-2.2,1.5-1.3,2.4-2.6,2.4-3.8,0-.7-.5-1.8-1.8-3.1l.9-1.6c0-.2.2-.2.2-.2l.2.2c.5.7.9,1.3,1.3,1.5.5.4,1.3.7,2,.7h.5v2h-.2v.1Z"/><path id="PATH_179" d="m608.6,698.52h-1.5c-1.6,0-2.7-.5-3.5-1.6-.5,1.1-1.8,1.6-3.8,1.6h-1.1v-2.2h1.6c1.8,0,2.7-.7,2.9-2,0-.5.2-.9.4-.9s.4.4.4.9c.2,1.3,1.1,2,2.7,2h1.6v2.2h.3Zm-6.1,4.1l-1.5,1.5-1.5-1.5,1.5-1.5,1.5,1.5Zm3.1,0l-1.5,1.5-1.5-1.5,1.5-1.5,1.5,1.5Z"/><path id="PATH_180" d="m625.4,698.52h-1.1c-1.3,0-2-.5-2.6-1.5-.4,1.1-1.3,1.5-2.4,1.5s-1.8-.5-2.4-1.5c-.5,1.1-1.3,1.5-2.4,1.5-1.3,0-2.2-.5-2.7-1.5-.7,1.1-1.6,1.5-2.9,1.5h-1.3v-2.2h1.5c1.3,0,2.2-.7,2.4-2.2,0-.4.2-.5.4-.5s.2.2.4.5c.2,1.5.9,2.2,2.4,2.2,1.3,0,2.2-.7,2.2-2.2,0-.4.2-.5.4-.5s.4.2.4.5c.2,1.5.9,2.2,1.8,2.2,1.3,0,2.2-.7,2.2-2.2,0-.4.2-.5.4-.5s.4.2.4.5c.2,1.5.9,2.2,2.2,2.2h1.1v2.2h-.4Zm-8.4-9.1l-1.3,1.3-1.5-1.5,1.3-1.3,1.5,1.5Zm1.5-2.9l-1.3,1.3-1.3-1.3,1.3-1.3,1.3,1.3Zm1.6,2.7l-1.3,1.3-1.3-1.3,1.3-1.3,1.3,1.3Z"/><path id="PATH_181" d="m634.6,694.92c0,.9,0,1.6-.4,2.4-.4.9-.9,1.5-1.5,1.5-.9,0-2.4-.5-4.2-1.8-.5.7-.9,1.1-1.1,1.3-.5.4-1.1.5-1.8.5h-.9v-2.2h1.3c.7,0,1.5-.4,2.2-1.3.4-.4.9-1.3,1.6-2.4.5-.9,1.3-1.3,1.8-1.3.9,0,1.6.4,2.2,1.3.4.7.6,1.2.8,2Zm-1.1,1.3c0-.5-.2-1.1-.5-1.8-.4-.7-.9-1.1-1.5-1.1-.5,0-1.1.5-1.8,1.6.4.4.9.7,1.6,1.1.7.4,1.5.5,1.8.5.2.2.4,0,.4-.3Z"/><path id="PATH_182" d="m638.8,696.22c0,.7-.2,1.5-.5,2-.2.4-.4.5-.4.5,0,0-.2-.2-.2-.7,0-2.2-.4-7.3-1.1-15.6l1.5-1.5.2-.2v.4c.5,2.6.5,7.5.5,15.1Z"/><path id="PATH_183" d="m648.1,698.72c0,1.8-.5,3.5-1.6,5.1-.9,1.3-1.8,2-2.4,2-1.5,0-2.6,0-3.7-.2-.4,0-.5-.2-.5-.2,0,0,.2-.2.5-.2,1.5-.4,2.9-1.1,4.4-2.2,1.5-1.3,2.4-2.6,2.4-3.8,0-.7-.5-1.8-1.8-3.1l.9-1.6c0-.2.2-.2.2-.2l.2.2c.4.5.9,1.3,1.1,2.2.1.6.3,1.3.3,2Z"/></g><g id="G_184"><path id="PATH_185" d="m675.6,612.02h-.9c-.7,0-1.1-.2-1.5-.4v.5c0,1.6-.5,3.3-1.6,4.9-.9,1.5-1.8,2-2.4,2-1.5,0-2.6,0-3.7-.2-.4,0-.5-.2-.5-.2,0,0,.2-.2.5-.2,1.5-.4,2.9-1.1,4.4-2.2,1.5-1.3,2.4-2.6,2.4-3.8,0-.7-.5-1.8-1.8-3.1l.9-1.6c0-.2.2-.2.2-.2l.2.2c.5.7.9,1.3,1.3,1.5.5.4,1.3.7,2,.7h.5v2.1h0Zm-3.7-9.8l-1.5,1.5-1.5-1.5,1.5-1.5,1.5,1.5Z"/><path id="PATH_186" d="m684.5,608.32c0,.9,0,1.6-.4,2.4-.4.9-.9,1.5-1.5,1.5-.9,0-2.4-.5-4.2-1.8-.5.7-.9,1.1-1.1,1.3-.5.4-1.1.5-1.8.5h-.9v-2.2h1.3c.7,0,1.5-.4,2.2-1.3.4-.4.9-1.3,1.6-2.4.5-.9,1.3-1.3,1.8-1.3.9,0,1.6.4,2.2,1.3.7.7.8,1.3.8,2Zm-1.1,1.3c0-.5-.2-1.1-.5-1.8s-.9-1.1-1.5-1.1c-.5,0-1.1.5-1.8,1.6.4.4.9.7,1.6,1.1.7.4,1.5.5,1.8.5.3.2.4,0,.4-.3Z"/><path id="PATH_187" d="m695.9,612.02h-.7c-.7,0-1.1-.2-1.5-.4v.5c0,1.6-.5,3.3-1.6,4.9-.9,1.5-1.8,2-2.4,2-1.5,0-2.6,0-3.7-.2-.4,0-.5-.2-.5-.2,0,0,.2-.2.5-.2,1.5-.4,2.9-1.1,4.4-2.2,1.5-1.3,2.4-2.6,2.4-3.8,0-.7-.5-1.8-1.8-3.1l.9-1.6c0-.2.2-.2.2-.2l.2.2c.5.7.9,1.3,1.3,1.5.5.4,1.3.7,2,.7h.5v2h-.2v.1Z"/><path id="PATH_188" d="m707.4,612.02h-.9c-.7,0-1.5.2-2,.4-.9.4-1.5.9-1.5,1.8,0,1.1.7,2,2.2,2.9l-.9,1.8c-1.6-.5-3.1-1.5-4.2-2.6-1.5-1.3-2.2-2.9-2.2-4.6h-2.6v-2.2h2.4c0-1.5.4-2.9,1.1-4.8.7-1.6,1.3-2.4,1.6-2.4s.9.7,1.5,2.4c.5,1.5.7,2.4.7,2.9,0,2.6-1.3,3.8-3.8,3.8.2.7.5,1.5,1.1,2.2s1.3,1.3,2,1.6v-.7c0-1.3.4-2.4.9-3.3.9-1.3,2-2,3.7-2h.7v2.6h.2v.2Zm-5.7-3c0-.4-.2-1.1-.5-2-.4-1.1-.7-1.5-1.1-1.5-.2,0-.5.4-.9,1.3-.4.9-.5,2-.5,3.1,1.9-.1,3-.3,3-.9Z"/><path id="PATH_189" d="m716.4,608.32c0,.9,0,1.6-.4,2.4-.4.9-.9,1.5-1.5,1.5-.9,0-2.4-.5-4.2-1.8-.5.7-.9,1.1-1.1,1.3-.5.4-1.1.5-1.8.5h-.9v-2.2h1.3c.7,0,1.5-.4,2.2-1.3.4-.4.9-1.3,1.6-2.4.5-.9,1.3-1.3,1.8-1.3.9,0,1.6.4,2.2,1.3.6.7.8,1.3.8,2Zm-1.1,1.3c0-.5-.2-1.1-.5-1.8s-.9-1.1-1.5-1.1c-.5,0-1.1.5-1.8,1.6.4.4.9.7,1.6,1.1.7.4,1.5.5,1.8.5.2.2.4,0,.4-.3Z"/><path id="PATH_190" d="m720.8,609.62c0,.7-.2,1.5-.5,2-.2.4-.4.5-.4.5,0,0-.2-.2-.2-.7,0-2.2-.4-7.3-1.1-15.6l1.5-1.5.2-.2v.4c.3,2.6.5,7.6.5,15.1Z"/><path id="PATH_191" d="m729.9,612.12c0,1.8-.5,3.5-1.6,5.1-.9,1.3-1.8,2-2.4,2-1.5,0-2.6,0-3.7-.2-.4,0-.5-.2-.5-.2,0,0,.2-.2.5-.2,1.5-.4,2.9-1.1,4.4-2.2,1.5-1.3,2.4-2.6,2.4-3.8,0-.7-.5-1.8-1.8-3.1l.9-1.6c0-.2.2-.2.2-.2l.2.2c.4.5.9,1.3,1.1,2.2.2.6.3,1.3.3,2Z"/></g><g id="G_192"><path id="PATH_193" d="m493.3,496.42v.5s-.2,0-.5-.2c-.5-.4-1.3-.5-2.2-.5-1.3,0-2.4.5-3.3,1.5-.9.9-1.3,1.5-1.3,2s.9,1.1,2.6,1.3c1.8.4,2.9.7,3.3,1.3,0,.2.2.4.2.5,0,.9-.4,2-.9,3.1-.4.7-1.3,1.3-2.7,1.8-1.8.7-3.7,1.1-6,1.1-1.6,0-2.9-.4-4-1.3-1.1-.9-1.6-2.2-1.6-3.7,0-1.6.5-3.3,1.6-4.8.2-.2.4-.4.5-.4s.2,0,.2.2,0,.2-.2.5c-.7,1.3-1.1,2.6-1.1,3.7,0,.9.4,1.6.9,2.2.9.9,2.2,1.3,3.8,1.3,1.5,0,3.1-.2,4.8-.5,2.4-.5,3.7-1.3,3.7-2.2,0-.4-1.1-.7-3.5-1.3-.9-.2-1.5-.4-1.8-.5-.4-.2-.7-.7-.7-1.3,0-1.3.5-2.6,1.8-4.2s2.7-2.6,4-2.6c1.3.3,2.2,1.1,2.4,2.5Z"/><path id="PATH_194" d="m502.8,502.32c0,2.7-.9,5.1-2.7,7-.5.5-.9.9-1.1.9-1.1,0-2.2-.2-3.5-.4-.5,0-.7-.2-.7-.2,0,0,.2-.2.7-.4,1.5-.4,2.9-1.3,4.2-2.4.5-.5,1.1-.9,1.5-1.6.5-.7.9-1.5.9-2v-.5h-2.4c-1.6,0-2.6-.7-2.6-2,0-.9.2-1.8.7-2.9s1.3-1.8,2-1.8c1.1,0,2,.7,2.6,2.4.2,1.3.4,2.4.4,3.9Zm-1.3-1.5c0-.5-.2-1.1-.5-1.6s-.9-.9-1.5-.9c-.4,0-.7.2-.9.4s-.4.5-.4.9c0,.9.5,1.3,1.8,1.3.2.1.8-.1,1.5-.1Z"/><path id="PATH_195" d="m510.1,503.02h-1.3c-1.3,0-2.4-.5-2.7-1.6-.4-.7-.5-2-.5-3.5v-3.5c0-1.6-.2-4-.4-7.1l1.1-1.3c.2-.2.4-.2.4,0,.2,1.6.4,4,.4,7.1v5.3c0,1.5.7,2.2,2.2,2.2h.9l-.1,2.4h0Z"/><path id="PATH_196" d="m514.5,499.42c0,2.4-1.3,3.7-3.7,3.7h-1.5v-2.2h1.3c1.8,0,2.7-.4,2.7-.9s-.4-1.3-1.3-2.2l.7-1.8c0-.2.2-.2.2-.2,0,0,.2.2.4.4.8.8,1.2,2.1,1.2,3.2Zm-.6,7.7l-1.5,1.5-1.5-1.5,1.5-1.5,1.5,1.5Z"/></g><g id="G_197"><path id="PATH_198" d="m605.6,497.02h-.9c-.9,0-1.6-.4-2-.9,0,1.1-.2,2.4-.4,4-.5,1.3-1.5,2.4-2.9,2.9-1.3.5-2.6.9-4.2.9s-2.7-.4-3.7-.9c-1.1-.7-1.6-1.8-1.6-3.5,0-1.5.4-2.9,1.3-4q.2-.2.4-.2t.2.2v.2c-.4.9-.5,1.8-.5,2.6,0,1.1.4,2,1.3,2.7.7.5,1.6.9,2.9.9,1.1,0,2.4-.2,3.7-.7,1.8-.5,2.6-1.3,2.6-2.2l-.2-8.8c-.2-4.2-.2-7.1-.4-9.2l1.5-1.3c0,.5.2,2.6.4,6.2l.2,7.1c0,1.1.7,1.8,2.2,1.8h.5v2h-.4v.2Z"/><path id="PATH_199" d="m617.9,497.02h-1.1c-.9,0-2-.4-2.9-1.3-.7-.5-1.5-1.6-2.4-2.9-.2,2.7-2,4.2-5.7,4.2h-1.1v-2.2h.7c3.3,0,5.1-.7,5.1-2,0-1.1-.7-2.4-2.4-3.8-.7-.7-1.5-1.3-2.4-2,0-.7.2-1.3.5-1.8.2-.2,3.5-1.3,10.1-3.3,0,.2-.2.9-.5,2-1.6.4-4.4,1.3-8.1,2.4,1.8,2,3.7,3.8,4.9,5.5.9.9,1.5,1.6,2,2,.7.5,1.6.9,2.6.9h.7v2.4h0v-.1Zm-1.8-17.6l-.4,1.3-9,2.9.4-1.3,9-2.9Z"/><path id="PATH_200" d="m627.1,497.02h-1.5c-1.6,0-2.7-.5-3.5-1.6-.5,1.1-1.8,1.6-3.8,1.6h-1.1v-2.2h1.6c1.8,0,2.7-.7,2.9-2,0-.5.2-.9.4-.9s.4.4.4.9c.2,1.3,1.1,2,2.7,2h1.6v2.2h.3Zm-6.3-10.6l-1.5,1.5-1.5-1.5,1.5-1.5,1.5,1.5Zm3.2,0l-1.5,1.5-1.5-1.5,1.5-1.5,1.5,1.5Z"/><path id="PATH_201" d="m636.9,497.02h-.9c-.5,0-1.3-.2-2.2-.4-.9-.2-1.6-.5-2-.9-.4.4-.9.5-1.6.7-.9.4-1.8.4-2.7.4h-1.3v-2.2h.9c1.5,0,2.4-.2,2.7-.4-.4-.2-.5-.5-.7-.9s-.4-.7-.4-1.1c0-.7.4-1.6.9-2.7.7-1.1,1.5-1.8,2.4-1.8s1.5.5,2,1.5c.4.7.5,1.6.5,2.6,0,.7-.2,1.3-.5,1.6-.2.4-.4.5-.7.7.4.2,1.3.4,2.6.4h.7v2.6h.3v-.1Zm-3.1-4.8c0-.4-.2-.9-.5-1.3-.4-.5-.7-.7-1.3-.7-.4,0-.9.2-1.3.5-.4.4-.7.9-.7,1.3s.2.9.7,1.3c.4.4.9.5,1.3.7.4,0,.9-.2,1.1-.5.6-.5.7-.9.7-1.3Zm-.5-8.9l-1.5,1.5-1.5-1.5,1.5-1.5,1.5,1.5Z"/><path id="PATH_202" d="m648.1,493.32c0,.7-.2,1.5-.7,2.2-.5.9-1.1,1.3-1.8,1.3-.5,0-1.8-.4-3.8-1.3-1.6,1.1-3.1,1.5-4.4,1.5h-1.1v-2.2h1.1c.7,0,1.5,0,2.2-.2-.7-.5-1.1-1.3-1.1-2.2,0-1.1.7-2.4,2.4-3.7l-1.3-.5c.4-.4.9-.9,1.6-1.6,1.6.9,3.1,1.6,4.4,2.7,1.6,1.5,2.5,2.8,2.5,4Zm-4.9-1.4c0-.5-.2-.9-.4-1.3-.2-.5-.5-.7-1.1-.7-.5,0-.9.2-1.5.5-.5.4-.9.9-.9,1.3,0,.7.7,1.5,2,1.8.4-.2.7-.4,1.1-.5.6-.4.8-.8.8-1.1Zm4,2.2c0-.5-.4-1.1-1.1-1.8-.5-.5-1.1-1.1-1.6-1.3,0,1.5-.4,2.6-1.3,3.3,1.5.5,2.6.7,2.9.7.5-.2,1.1-.4,1.1-.9Z"/></g><g id="G_203"><path id="PATH_204" d="m750.1,520.12h-1.3c-.9,0-1.8-.5-2.9-1.5-.5-.5-1.3-1.5-2.2-2.7,0,1.3-.2,2.2-.7,2.7-.9,1.1-2.7,1.6-5.5,1.6h-3.7c-4.4,0-6.8-1.3-6.8-3.8,0-.9.4-1.8.9-2.7.2-.2.4-.4.4-.4q.2,0,.2.2v.4c-.2.7-.4,1.1-.4,1.6,0,.7.4,1.3.9,1.6.9.7,2.4,1.1,4.4,1.1h3.7c2,0,3.5-.2,4.2-.4.9-.4,1.3-.9,1.3-1.6s-.4-1.6-1.3-2.7c-.5-.5-1.3-1.5-2.4-2.4-.9-.7-1.3-1.3-1.3-1.3,0-1.3.2-2,.5-2.6,0-.2,1.3-.5,3.8-1.5,2.6-.9,4.8-1.6,6.4-2.2,0,.2-.2.9-.5,2-2,.5-4.9,1.6-9,3.1,1.8,1.6,3.8,4,6.2,7.1.9,1.1,1.6,1.8,2.2,2.2.4.2,1.1.4,1.8.4h.7v1.6h.4v.2Z"/><path id="PATH_205" d="m756.8,520.12h-.7c-1.6,0-2.7-.5-3.3-1.8-.2.5-.5.9-1.1,1.3s-1.1.5-1.6.5h-.7v-2.2h.7c1.5,0,2.2-.5,2.2-1.8v-6.4c0-2.4,0-4.2-.2-5.5l1.6-1.3v12.3c0,1.8.7,2.7,2.4,2.7h.7v2.2Z"/><path id="PATH_206" d="m765.8,516.42c0,.9,0,1.6-.4,2.4-.4.9-.9,1.5-1.5,1.5-.9,0-2.4-.5-4.2-1.8-.5.7-.9,1.1-1.1,1.3-.5.4-1.1.5-1.8.5h-.9v-2.2h1.3c.7,0,1.5-.4,2.2-1.3.4-.4.9-1.3,1.6-2.4.5-.9,1.3-1.3,1.8-1.3.9,0,1.6.4,2.2,1.3.6.5.8,1.3.8,2Zm-1.1,1.3c0-.5-.2-1.1-.5-1.8-.4-.7-.9-1.1-1.5-1.1-.5,0-1.1.5-1.8,1.6.4.4.9.7,1.6,1.1.7.4,1.5.5,1.8.5.4.2.4,0,.4-.3Z"/><path id="PATH_207" d="m787.6,526.32c-1.3,1.3-3.1,1.8-5.9,1.8-1.8,0-3.3-.4-4.6-1.3-1.3-.9-2-2.4-2-4,0-2.6,1.5-4.8,4.2-6.4-1.5-.7-2.2-1.6-2.2-2.7,0-.9.4-2,1.3-2.9.9-1.1,2-1.6,2.9-1.6,1.1,0,2,.5,2.7,1.6.2.2.2.4.2.5,0,0,0,.2-.2.2s-.2,0-.5-.2c-.4-.2-1.3-.2-2.2-.2-.5,0-1.1.2-1.8.5-.9.4-1.3.7-1.3,1.3,0,.5.4,1.1,1.3,1.6.7.5,1.5.7,2,.7.4,0,1.8-.4,3.8-1.1.4,0,.4-.2.5-.2h0s0,.2-.2.4l-.5,1.6c-6,1.3-9,3.3-9,5.9,0,1.6.7,2.7,2.4,3.5,1.1.5,2.7.7,4.4.7s2.9-.2,4-.4c.4-.2.5-.2.7-.2h.2c.3.2.2.5-.2.9Zm-4.9-21.8l-1.5,1.5-1.5-1.5,1.5-1.5,1.5,1.5Z"/><path id="PATH_208" d="m793.5,520.12h-1.3c-1.3,0-2.4-.5-2.7-1.6-.4-.7-.5-2-.5-3.5v-3.5c0-1.6-.2-4-.4-7.1l1.1-1.3c.2-.2.4-.2.4,0,.2,1.6.4,4,.4,7.1v5.3c0,1.5.7,2.2,2.2,2.2h.9l-.1,2.4h0Z"/><path id="PATH_209" d="m797.8,516.42c0,2.4-1.3,3.7-3.7,3.7h-1.5v-2.2h1.3c1.8,0,2.7-.4,2.7-.9s-.4-1.3-1.3-2.2l.7-1.8c0-.2.2-.2.2-.2,0,0,.2.2.4.4.9.8,1.2,1.9,1.2,3.2Zm-.5,7.7l-1.5,1.5-1.5-1.5,1.5-1.5,1.5,1.5Z"/></g><g id="G_210"><path id="PATH_211" d="m826.2,655.02v.5s-.2,0-.5-.2c-.5-.4-1.3-.5-2.2-.5-1.3,0-2.4.5-3.3,1.5s-1.3,1.5-1.3,2,.9,1.1,2.6,1.3c1.8.4,2.9.7,3.3,1.3,0,.2.2.4.2.5,0,.9-.4,2-.9,3.1-.4.7-1.3,1.3-2.7,1.8-1.8.7-3.7,1.1-6,1.1-1.6,0-2.9-.4-4-1.3-1.1-.9-1.6-2.2-1.6-3.7,0-1.6.5-3.3,1.6-4.8.2-.2.4-.4.5-.4q.2,0,.2.2t-.2.5c-.7,1.3-1.1,2.6-1.1,3.7,0,.9.4,1.6.9,2.2.9.9,2.2,1.3,3.8,1.3,1.5,0,3.1-.2,4.8-.5,2.4-.5,3.7-1.3,3.7-2.2,0-.4-1.1-.7-3.5-1.3-.9-.2-1.5-.4-1.8-.5s-.7-.7-.7-1.3c0-1.3.5-2.6,1.8-4.2s2.7-2.6,4-2.6c1.3.5,2.1,1.2,2.4,2.5Z"/><path id="PATH_212" d="m835.6,661.92c0,1.8-.5,3.5-1.6,5.1-.9,1.3-1.8,2-2.4,2-1.5,0-2.6,0-3.7-.2-.4,0-.5-.2-.5-.2,0,0,.2-.2.5-.2,1.5-.4,2.9-1.1,4.4-2.2,1.5-1.3,2.4-2.6,2.4-3.8,0-.7-.5-1.8-1.8-3.1l.9-1.6c0-.2.2-.2.2-.2l.2.2c.4.5.9,1.3,1.1,2.2.1.6.3,1.3.3,2Z"/><path id="PATH_213" d="m842.9,661.72h-1.3c-1.3,0-2.4-.5-2.7-1.6-.4-.7-.5-2-.5-3.5v-3.5c0-1.6-.2-4-.4-7.1l1.1-1.3c.2-.2.4-.2.4,0,.2,1.6.4,4,.4,7.1v5.3c0,1.5.7,2.2,2.2,2.2h.9v2.4h-.1Z"/><path id="PATH_214" d="m857.2,656.42l-.7,1.5c-1.3,0-2.4,0-2.9.2-.7.4-1.8.7-3.3,1.5-1.5.7-2.6,1.3-3.3,1.5-1.1.4-2.4.5-3.5.5h-1.3v-2.2h1.5c1.6,0,3.1-.4,4.4-.9l4.2-1.8c-.7-.2-1.8-.5-3.3-1.1-1.3-.5-2-.7-2.4-.7-.7,0-1.5.4-2.2.9q-.2.2-.4.2t-.2-.2v-.2c.5-1.8,1.6-2.6,3.1-2.6.5,0,1.3.2,2,.5,1.5.7,2.6,1.1,3.3,1.5,1.3.4,2.7.7,4.4.7.4,0,.5,0,.5.2.2.2.2.3.1.5Zm-6.1,9l-1.5,1.5-1.5-1.5,1.5-1.5,1.5,1.5Z"/><path id="PATH_215" d="m864.5,661.72h-1.3c-1.3,0-2.4-.5-2.7-1.6-.4-.7-.5-2-.5-3.5v-3.5c0-1.6-.2-4-.4-7.1l1.1-1.3c.2-.2.4-.2.4,0,.2,1.6.4,4,.4,7.1v5.3c0,1.5.7,2.2,2.2,2.2h.9v2.4h-.1Z"/><path id="PATH_216" d="m874.2,658.12l-.5,1.6c-1.5.4-2.9.7-4.4,1.3-1.6.4-3.3.7-4.4.7h-.9v-2.2h1.5c.7,0,1.1,0,1.5-.2-.4-.2-.5-.5-.7-.7-.5-.5-.7-1.1-.7-1.8,0-.5.2-1.1.7-2,1.3-1.8,2.4-2.7,3.8-2.7,1.3,0,2.2.5,2.9,1.6.2.4.4.5.4.7,0,0,0,.2-.2.2s-.5,0-.9-.2c-.5-.2-.9-.2-1.1-.2-.4,0-.7,0-1.1-.2-.5,0-1.1.2-1.8.5-.7.4-1.3.7-1.3,1.3,0,.4.4.9.9,1.5.7.7,1.6,1.1,2.6,1.1.4,0,1.3-.2,2.4-.5l1.5-.4h.4q-.4.4-.6.6Zm-3.3-10.8l-1.5,1.5-1.5-1.5,1.5-1.5,1.5,1.5Z"/><path id="PATH_217" d="m881.7,642.22c-.7.7-1.8.9-2.9.9h-1.4c-.2,0-.4.2-.5.4-.2.2-.4.4-.4.4-.2,0-.2-.2-.2-.4s.2-.5.4-.9c.2-.5.4-.7.5-.7s.5,0,1.1.2c.5.2.9.2,1.1.2,1.1,0,1.8,0,2.4-.2.4,0,.5-.2.5-.2h.2c-.4-.1-.6.1-.8.3Zm-1.3,17.3c0,.7-.2,1.5-.5,2-.2.4-.4.5-.4.5,0,0-.2-.2-.2-.7,0-2.2-.4-7.3-1.1-15.6l1.5-1.5.2-.2v.4c.5,2.5.5,7.5.5,15.1Z"/></g><polygon id="_456" class="cls-2" points="874.1 402.42 848.2 416.12 820.4 437.12 802.6 460.42 797.3 474.52 800 481.82 809.1 491.92 819.6 497.42 837.9 508.92 851.1 530.42 863 541.72 867.8 542.82 874.1 528.12 876.2 502.92 895.1 477.52 911.4 456.72 915.6 451.62 902.9 435.12 889.2 419.02 874.1 402.42"/><g id="G_212"><path id="PATH_213-2" d="m843,459.42l1,1.8c.4.7.7,1.4.7,2.6v1.5c0,1.2-.7,2.5-1.7,3.8-.8.9-1.6,1.2-2.3,1.2-1,0-2.2-.4-3.5-1.1l.2-.5c.4.1.9.2,1.5.2,1.9,0,3.9-1.7,4.8-3.7.1-.2.2-.5.2-.6,0-.2-.1-.5-.2-.7-.5-1.1-1-2.1-1.6-3,.2-.4.5-1,.9-1.5h0Zm-1.2-4.7c.6.4,1.1.9,1.6,1.5-.3.5-.7.9-1.1,1.3-.5-.5-1.1-.9-1.6-1.4.3-.5.7-1,1.1-1.4Z"/><path id="PATH_214-2" d="m856.3,466.42h-.3c-1.2,0-2.3-.5-2.8-2.2h-.1c-.1.5-.4,1-1,1.3-.9.5-1.8.9-2.7.9-1.5,0-2.4-.9-2.4-2.5v-1h.5c.1,1.1.6,1.8,1.9,1.8.7,0,1.6-.3,2.2-.7.5-.3.9-.7.9-1,0-.9-.5-2.7-1.1-5.1.3-.5.6-1,1-1.4l.1.1c.5,2,.9,4.1,1.3,6.1.2,1.4,1.1,2.1,2.2,2.1h.2v1.6h.1Z"/><path id="PATH_215-2" d="m856.6,464.72c.7,0,1.6-.1,2.4-.4-.2-.6-.3-1.2-.3-1.9,0-.8.3-1.7.9-2.5.4-.5.8-1,1.3-1.3,0-.4.1-.9.2-1.4h.1c1.3,1.3,3.2,2.4,4.8,3.7,1.2.9,1.7,1.7,1.7,2.9,0,1.4-.8,2.6-2.7,2.6-1.1,0-2.9-.4-4.7-.9-1.5.6-2.7.9-3.7.9h-.3c-.8,0-1-.5-1-.9,0-.3.2-.8,1-.8h.3Zm6.5-2.3c0-1.1-.8-2.2-1.4-2.2-1,0-2.3,1.4-2.3,2.2,0,.4.5,1.1,1.5,1.6.7-.3,2.2-.9,2.2-1.6Zm2.4,2.5c.8,0,1.4-.3,1.4-.6,0-.9-1.2-1.9-2.9-3-.1,1.1-.5,2.1-1.1,3.2.8.3,1.6.4,2.6.4Z"/><path id="PATH_216-2" d="m870.7,462.72c0,1.2.5,2.1,2.2,2.1,1.1,0,2-.3,3-.9.2-.1.3-.2.3-.3,0-.7-.5-1.7-1.3-2.6-.8-.8-1.8-1.6-2.8-2.1-.3-.2-.4-.3-.4-.5,0-.3.4-1.1.7-1.6h.1c1.1.7,2.4,1.7,3.3,2.8.8,1,1.4,2.1,1.4,3.2,0,.8-.2,1.7-.6,2.4-1.2.7-2.5,1.3-3.8,1.3-1.6,0-2.6-.9-2.6-2.9,0-.2,0-.6.1-1h.4v.1Z"/></g><polygon id="_589" class="cls-1" points="837.9 508.92 809.6 516.72 797.9 547.62 797.3 568.52 797.9 577.82 809.6 578.82 837.2 578.82 842.3 573.92 851.1 561.42 865.5 547.82 867.8 542.82 862 537.92 844.8 520.12 837.9 508.92"/><g id="G_218"><path id="PATH_219" d="m817,544.02c.7,1.4,1.1,2.8,1.1,4.4,0,1.1-.3,2.3-.8,2.7-.9,1-2.3,1.6-3.6,1.6-2,0-3.3-1.3-3.3-3.3,0-1.4.4-2.3.9-3.1l.4.2c-.4.7-.6,1.5-.6,2,0,.9.3,1.5.7,1.9.5.4,1.2.7,2,.7.9,0,1.9-.4,2.6-.9.5-.4.7-.7.7-.9,0-.7-.2-1.4-.3-1.9-.3-.8-.6-1.6-.9-2.1.4-.3.7-.8,1.1-1.3h0Zm-3-3.4c.4.3.9.7,1.3,1.1-.2.4-.5.7-.9,1.1-.4-.4-.8-.7-1.3-1.1.4-.4.7-.8.9-1.1Z"/><path id="PATH_220" d="m823.5,549.12c-1.3,0-2.3-.6-2.3-2,0-.7.3-1.3.7-1.8.5-.5,1-.9,1.5-.9.6,0,1.2.4,1.6,1.2.4.7.7,1.8.7,3,0,1-.2,1.9-.8,2.8-1,1.5-1.9,2-2.8,2-1,0-2-.3-3.1-1.1l.2-.3c.5.3,1,.4,1.6.4,1.1,0,2.2-.5,3.2-1.6.5-.5.9-1.2,1-1.8-.5.1-1,.1-1.5.1Zm-.4-3.4c-.5,0-1.2.6-1.2,1,0,.7.9,1.1,1.8,1.1.4,0,.8,0,1.2-.1-.3-1.1-.9-2-1.8-2Z"/><path id="PATH_221" d="m834.8,550.32h-.2c-1,0-1.8-.4-2.2-1.8h-.1c-.1.4-.3.8-.8,1-.7.4-1.4.7-2.2.7-1.2,0-1.9-.7-1.9-2v-.8h.4c0,.9.5,1.4,1.5,1.4.6,0,1.2-.2,1.8-.5.4-.2.7-.5.7-.8,0-.7-.4-2.2-.9-4,.2-.4.5-.8.8-1.1h.1c.4,1.5.7,3.2,1,4.8.2,1.1.9,1.6,1.7,1.6h.2v1.5h.1Z"/><path id="PATH_222" d="m835.1,548.92c.8,0,1.7-.3,1.8-.9l.3-1.2.7-.5.1.1c-.2.5-.2,1-.2,1.2,0,.4.1.7.4.9.3.3.8.4,1.3.4h.2v1.4h-.2c-1.1,0-1.8-.3-2.2-1.1h0c-.4.7-1.2,1.1-2.1,1.1h-.2c-.6,0-.8-.4-.8-.7s.2-.7.8-.7h.1Zm1.2,5.6c-.4-.4-.8-.8-1.3-1.1.3-.4.6-.7.8-1,.4.3.8.7,1.2,1.1-.2.5-.4.8-.7,1Zm2-.1c-.4-.4-.8-.8-1.3-1.1.3-.4.6-.7.8-1,.4.3.8.7,1.2,1.1-.1.5-.4.7-.7,1Z"/><path id="PATH_223" d="m839.9,548.92c.9,0,1.6-.3,1.8-.9.1-.4.2-.8.3-1.2.2-.2.5-.4.7-.6l.1.1c-.1.3-.2.7-.2,1,0,.6.2.9.6,1.2.6-.9,1.3-1.9,2.2-2.7.7-.6,1.6-1.2,2.6-1.2s1.7.6,2,1.2c.2.4.3.9.3,1.3,0,.3-.1.7-.2,1-.3.8-1,1.5-2.2,1.9-.7.2-1.6.3-2.7.3-1.4,0-2.5-.3-3.1-1.1h0c-.6.9-1.5,1.1-2.2,1.1h-.1c-.6,0-.8-.4-.8-.7s.2-.7.8-.7h.1Zm5.9,0c1,0,2.1-.3,2.8-.6.5-.2.9-.5.9-.8-.1-.9-.9-1.6-1.8-1.6-1.3,0-2.7,1.2-3.8,2.8.2.1.9.2,1.9.2Z"/></g><g id="G_224"><path id="PATH_225" d="m743.1,352.32l.3-.1c1.2,1.1,4.8,3.3,5.4,5.4.2.8.3,1.4.3,2.1,0,1.2-.4,2.8-1,3.5-1.2,1.3-2.6,1.8-3.9,1.8-1,0-1.7-.2-2.3-.6-1.3-.9-2-2.4-2-4.2,0-1.3.6-2.7,1.2-3.7.4-.8,1-1.5,1.9-2.4-.1-.5,0-1.2.1-1.8Zm-2,7.7c0,1.4,1.5,2.6,3.2,2.6,1.1,0,2.1-.4,3-1,.6-.4.8-.9.8-1.3,0-.6-.5-1.4-1-2.1-.8-1-1.9-1.8-3.1-2.5-1.8,1.4-2.9,2.8-2.9,4.3Z"/><path id="PATH_226" d="m765.3,364.82h-.4c-1.7,0-3.1-.7-3.9-3.1h-.1c-.2.7-.6,1.3-1.4,1.8-1.3.8-2.6,1.3-3.8,1.3-2.1,0-3.3-1.3-3.3-3.5,0-.5,0-.9.1-1.4l.7-.1c.1,1.6.9,2.6,2.7,2.6,1,0,2.2-.4,3.1-1,.7-.4,1.2-1,1.2-1.4,0-1.3-.7-3.8-1.6-7.1.4-.7.9-1.4,1.4-2l.1.1c.7,2.7,1.3,5.7,1.8,8.5.3,1.9,1.6,2.9,3,2.9h.3v2.4h.1Zm-7.1-19.8c.8.6,1.5,1.3,2.3,2-.4.7-.9,1.3-1.6,1.9-.7-.7-1.5-1.3-2.2-2,.5-.6,1-1.3,1.5-1.9Z"/><path id="PATH_227" d="m765.6,362.42c1.6,0,2.9-.1,3.8-.4.7-.2,1.1-.5,1.1-.8,0-.9-.9-2.8-1.9-4.7.5-.8.9-1.5,1.4-2.2h.1c.9,1.5,1.9,3.9,1.9,5.8,0,1.4-.6,2.5-1.3,3.5-.9.9-2.2,1.1-5.1,1.1h-.2c-1,0-1.3-.8-1.3-1.3s.3-1.2,1.3-1.2h.2v.2Zm1.9,10c-.8-.7-1.5-1.4-2.2-2,.5-.7,1-1.3,1.5-1.8.8.6,1.4,1.2,2.2,2-.6.8-1,1.3-1.5,1.8Zm3.6-.2c-.8-.7-1.5-1.4-2.2-2,.5-.7,1-1.3,1.5-1.8.8.6,1.4,1.2,2.2,2-.5.8-.9,1.3-1.5,1.8Z"/><path id="PATH_228" d="m775.8,365.22c.2-1.2.2-2.6.2-3.8v-1.9c0-3.5-.4-8.6-.7-11.8.5-.7,1.3-1.5,1.9-2l.2.1c.4,4.2.5,9,.5,13.4,0,1.2,0,2.3-.1,3.1-.1,1-.6,1.8-1.7,3.1l-.3-.2Z"/></g></svg>