



    


<svg version="1.1" id="Layer_1" xmlns="http://www.w3.org/2000/svg" xmlns:xlink="http://www.w3.org/1999/xlink" x="0px" y="0px" viewBox="0 0 503 514" style="enable-background:new 0 0 503 514;" xml:space="preserve" width="100%" height="100%">
<style type="text/css">
	.st0{fill:#FDFAD6;stroke:#020202;stroke-width:0.2;stroke-miterlimit:10;}
	.st1{fill:#E8D0E5;stroke:#020202;stroke-width:0.2;stroke-miterlimit:10;}
	.st2{fill:#DBECCB;stroke:#020202;stroke-width:0.2;stroke-miterlimit:10;}
	.st3{fill:#FBD1D1;stroke:#020202;stroke-width:0.2;stroke-miterlimit:10;}
</style>

		<path class="st0 area" d="M275.5,97.2c-3.1-1.8-6.1,3.1-3.7,5.6c7.4,8.6,11.7,17.8,17.2,27.7c4.3,8,13.5,11.1,17.8,19.6
			c0.6,1.9-0.6,4.9,0.6,5.6c7.4,5.5,15.4,6.8,23.4,11.7c8,5.5,13.5,12.3,21.5,18.4c9.2,6.8,8,19.7,17.2,27c1.2,0.6,4.3-0.6,4.9,0
			c10.5,17.2,27,6.1,39.9-0.6c3.1-1.8,8.6,0,11.1-3.7c1.7-1.7,2.8-3.6,3.4-5.8c-17.9-14.1-35.2-27.9-41.4-33.5
			c-13.2-11.8-20.1-29.9-20.1-52.2c0-4.8-1.3-15.9-3.1-29.5l-21.4-3.7c-1.9,0.4-8.3,1.9-12.7,5.1c-1.5,1.1-3.1,3.1-4.9,5.3
			c-4.3,5.4-9.7,12.1-19.8,14.3c-1.2,0.3-2.4,0.4-3.5,0.4c-5.6,0-10.4-3.1-14.5-8.1C283.8,101.5,279.5,99.6,275.5,97.2z" id="_x36_94" title="دنا"></path>
		<path class="st1 area" d="M147.6,229.4c1.8-8-0.6-16-7.4-19.7c-6.8-4.3-17.2,1.2-19.1-5.6c-1.8-8-5.5-14.7-11.7-19.6
			c-6.1-5.5-19.7-11.7-14.8-20.3c1.2-1.8,6.8-0.6,10.5-0.6c3-0.6,4.3-3.7,7.4-4.9c3.7-1.8,0.6-6.1-1.2-10.5
			c-2.5-4.9,1.2-11.7,4.3-16.6c3.1-5.6,4.9-14.2,1.8-16.6c-7.4-4.9-14.7-10.4-18.4-19.1c-2.8-6.5-8.3-13-15.1-18.2
			c-3.7,6.5-17.5,7.4-32,7.4c-2.3,0-5.4-0.1-8.7-0.3c-6-0.3-14.2-0.7-16.6,0.1c-0.6,0.4-2,3.3-1.5,6.8c0.5,3.1,2.4,5.1,5.6,5.9
			c13.1,3.3,16.2,16.3,14.1,24.5c-0.3,1.1-0.4,3.2-0.5,5.5c-0.4,8.3-0.9,21-11,28.5c-5.4,4-11.6,9.2-12.1,13.9c-0.3,2,0.6,4,2.4,6.2
			c7.4,8.9,13.5,18,18,27c3.7,7.3,14.4,8.4,20.5,8.4l1.9,0c0.9,0,2,0,2.3-0.1c0.7-0.4,2.3-3.7,4.3-7.6l1.8-3.6
			c5.6-11.2,12.5-13.8,16.2-14.4c4.1-0.7,8.3,0.6,11,3.3c5.3,5.3,7,18.4,5.2,23.9c-0.7,2.1-1.7,10.3,1.8,16.2
			c1.9,3.2,4.8,5.1,8.8,5.9c3.2,0.6,5.9,1,8.3,1.4c6.4,0.9,10.8,1.6,13.9,4.7c1.2-2.5,2.5-5,4.5-6.9
			C143.3,232.5,146.4,232.5,147.6,229.4z" id="_x37_00" title="بهمئی"></path>
		<path class="st2 area" d="M352.5,344.7c-6-10-15-37.8-18.9-49.7l-1.8-5.4c-1.1-3.2-2.2-6.5-3-9.7c-5.5,0.6-10.4,2.5-15.9,2.5
			c-17.2,1.2-23.4-19.1-35-28.9c-3.1-2.5-7.4,0.6-9.2,4.3c-0.6,2.5,0.6,4.9,1.2,6.8c1.2,3.1,0.6,8-1.2,8.6
			c-4.3,1.2-6.8-7.4-11.7-4.9c-4.3,2.5-4.9,12.3-11.1,9.2c-1.2-0.5-2.3-1.2-3.3-2.2c-2.7,2.2-4.5,4.8-3.5,7.7
			c3.7,7.4,12.3,11.7,16,19.1c4.3,9.8,17.8,14.2,22.1,27c2.5,8,12.3,11.7,17.8,19.1c4.3,6.1,0,14.2,4.9,20.3
			c7.5,8.4,16.5,14.2,24.2,21.6c5.4-2.1,10.3-4.2,13.5-5.7C346.3,371.2,356.3,350.9,352.5,344.7z" id="_x33_92" title="باشت"></path>
		<path class="st0 area" d="M150.7,192.2c8-5,23-2,23-10c1-15,14-25,11-40c-4-14-24-15-37-10c-8,2-16-1-21-9c-0.8-1.6-5.2-1.9-8.1,0.4
			c-0.6,2.8-1.7,5.7-3,8.1c-3.1,4.9-6.8,11.7-4.3,16.6c1.8,4.3,4.9,8.6,1.2,10.4c-3.1,1.2-4.3,4.3-7.4,4.9c-3.7,0-9.2-1.2-10.5,0.6
			c-4.9,8.6,8.6,14.8,14.8,20.3c6.1,4.9,9.8,11.7,11.7,19.7c1.8,6.8,12.3,1.2,19.1,5.5c1.1,0.6,2.1,1.3,3,2.1
			c0.2-0.2,0.3-0.4,0.5-0.7C147.7,206.2,144.7,196.2,150.7,192.2z" id="_x34_17" title="لنده"></path>
		<path class="st2 area" d="M232.4,99.1c-7.4-7.4-14.7-15.4-19.7-25.2c-9.7-17.8-32-28.1-43.2-45c-1.2,0.6-2.3,1.2-3.4,1.8
			c-9.6,5.5-18.9,9.9-28.2,4.3c-5.3-3.2-17.4-10.9-23.7-15c-3.3,18.5-7.5,36.1-15.1,41.2c-9.1,6-12.8,11.9-15,16.3
			c-0.1,0.1-0.1,0.2-0.2,0.3C90.7,83,96.3,89.5,99.1,96c3.7,8.6,11.1,14.1,18.4,19.1c1.8,1.4,1.9,4.8,1.1,8.5c2.9-2.3,7.3-2,8.1-0.4
			c5,8,13,11,21,9c13-5,33-4,37,10c3,15-10,25-11,40c0,8-15,5-23,10c-6,4-3,14-7,19c-0.2,0.2-0.3,0.4-0.5,0.7
			c4.5,4.2,6,10.8,4.4,17.5c-1.2,3.1-4.3,3.1-5.6,4.9c-1.9,1.9-3.3,4.4-4.4,6.9c1.5,1.5,2.7,3.5,3.7,6.4
			c3.4,10.2,7.5,15.9,12.2,16.8c5.9,1.2,12.3,8.7,14,16c1.4-0.9,2.7-1.7,4.1-2.5c1.2-0.6,3.7-1.2,5.5,0c15,8.6,30.9,2.2,40.4-10.1
			c-3.6-3.2-6.7-7-8.5-11.4c-2.5-6.8,2.5-14.1,0-19.6c-3.1-6.8-11.7-12.3-7.4-19.1c4.9-6.8,17.8-7.4,17.8-14.7
			c0.6-12.9-17.8-13.5-25.8-22.8c-0.6-0.6-1.8-3.7,0-4.3c12.9-4.3,3.1-18.4,11.7-25.8c1.3-1.3,3.4-1.9,5.4-3c-0.9-5.4,1-13.4-4.8-16
			c-3.1-1.8-7.4,0-11.1-1.2c-4.9-2.5-5.5-6.1-3.1-10.5c8-12.9,21.5-11.1,34.4-9.8C231.2,110.1,237.4,104.6,232.4,99.1z" id="_x37_02" title="کهگیلویه"></path>
		<path class="st0 area" d="M300.1,368.3c-4.9-6.1-0.6-14.1-4.9-20.3c-5.6-7.4-15.4-11.1-17.8-19.1c-4.3-12.9-17.8-17.2-22.1-27
			c-3.7-7.4-12.3-11.7-16-19.1c-1.1-2.9,0.8-5.5,3.5-7.7c-3.3-2.9-6.3-7.2-11.4-5.8c-3.1,0.6-6.1,3.7-9.2,1.8c-1.6-1-3-2.1-4.4-3.4
			c-9.5,12.3-25.5,18.7-40.4,10.1c-1.8-1.2-4.3-0.6-5.5,0c-1.4,0.7-2.8,1.5-4.1,2.5c0.1,0.6,0.3,1.3,0.3,1.9
			c0.7,5.9-2.2,10.7-7.8,13.2c-13.6,6.1-17.1,8.2-17.1,13.1c0,6.4,5.5,17,17.5,25c9.7,6.5,14.6,16.7,14.6,30.5
			c0,4.3,1.4,49.2,1.5,49.6c0,0.3,1.5,31.5,8.4,43.8c3.7,6.7,6,13,7.8,18.1c1.7,4.7,3.1,8.7,4.8,10.4c2.8,2.8,11.4,6.4,16.3,8
			l0.7,0.3c0.1,0.1,0.7,0.5,1.6,1.1c0.2-3.4,1.3-8.6,5.2-12.5c4.1-4.2,10.2-5.9,18.1-5.1c14.2,1.4,27.1-1,33-6.3
			c1.9-1.7,2.9-3.7,2.9-5.8c0-11.1,4.3-38.8,4.4-40c1.3-5.1,7.9-29.1,20.8-29.1c5,0,15-3.4,23.8-6.8
			C316.6,382.5,307.6,376.7,300.1,368.3z" id="_x37_06" title="گچساران"></path>
		<path class="st1 area" d="M193.7,175.9c-1.8,0.6-0.6,3.7,0,4.3c8,9.2,26.4,9.8,25.8,22.8c0,7.4-12.9,8-17.8,14.7
			c-4.3,6.8,4.3,12.3,7.4,19.1c2.5,5.5-2.5,12.9,0,19.6c2.5,6.1,7.4,11.1,12.9,14.8c3.1,1.8,6.1-1.2,9.2-1.8c6.8-1.8,9.8,6.1,14.8,8
			c6.1,3.1,6.8-6.8,11.1-9.2c4.9-2.5,7.4,6.1,11.7,4.9c1.8-0.6,2.5-5.5,1.2-8.6c-0.6-1.8-1.9-4.3-1.2-6.8c1.8-3.7,6.1-6.8,9.2-4.3
			c11.7,9.8,17.8,30.1,35,28.9c5.5,0,10.4-1.8,15.9-2.4c-1.7-6.8-2.3-13.2,0.7-17.4c0.4-0.6,0.9-1.2,1.7-1.7
			c-7.5-8.9-18.9-14.5-24.3-25.1c-3.1-5.5,4.3-11.7,1.8-17.2c-1.8-5.6-8-5.6-11.7-9.8c-1.2-0.6-1.8-2.5-3.1-4.3
			c-0.6-1.8-3.1-3.7-4.9-6.1c-5.5-7.4-17.2-3.7-24.6,0c-12.3,4.9-16-17.8-24-27c-8-9.8-22.7-11.7-28.9-21.5
			c-0.4-0.7-0.6-1.5-0.7-2.4c-2,1.1-4.1,1.8-5.4,3C196.8,157.5,206.6,171.6,193.7,175.9z" id="_x35_02" title="چروم"></path>
		<path class="st3 area active" d="M478.8,241.7c-5.2-4.1-28.1-21.8-50-39c-0.6,2.1-1.7,4.1-3.4,5.8c-2.5,3.7-8,1.8-11.1,3.7
			c-12.9,6.8-29.5,17.8-39.9,0.6c-0.6-0.6-3.7,0.6-4.9,0c-9.2-7.4-8-20.3-17.2-27c-8-6.1-13.5-12.9-21.5-18.4
			c-8-4.9-16-6.1-23.4-11.7c-1.2-0.6,0-3.7-0.6-5.5c-4.3-8.6-13.5-11.7-17.8-19.7c-5.5-9.8-9.8-19.1-17.2-27.7
			c-2.5-2.5,0.6-7.4,3.7-5.6c4,2.4,8.3,4.3,12.1,3.6c-6.1-7.3-10.9-18.5-15-29.4c-4.4-11.4-7.5-10.8-14.3-9.3
			c-2.6,0.6-5.6,1.2-9,1.2c-12.6,0-23.7-7.4-34.9-23.3l-2-2.9c-6.9-10-6.9-10-12.5-12.7l-1.8-0.9c-6.3-3.2-18.6,0.4-28.6,5.4
			c11.2,17,33.5,27.2,43.2,45c4.9,9.8,12.3,17.8,19.7,25.2c4.9,5.6-1.2,11.1-6.1,10.5c-12.9-1.2-26.4-3.1-34.4,9.8
			c-2.5,4.3-1.9,8,3.1,10.5c3.7,1.2,8-0.6,11.1,1.2c6.8,3.1,3.1,13.5,5.5,18.4c6.2,9.8,20.9,11.7,28.9,21.5c8,9.2,11.7,32,24,27
			c7.4-3.7,19.1-7.4,24.6,0c1.9,2.5,4.3,4.3,4.9,6.1c1.2,1.9,1.9,3.7,3.1,4.3c3.7,4.3,9.8,4.3,11.7,9.8c2.5,5.5-4.9,11.7-1.8,17.2
			c5.5,10.6,16.8,16.2,24.3,25.1c1.4-1.2,3.6-2.1,6.6-2.1c15.3,0,22.8,8.6,29.3,21.6c6,12.1,22.7,26.7,34.3,26.7
			c3.1,0,6.5-0.3,10.1-0.5c11.7-0.9,23.8-1.8,29.8,6.2c5.2,7,14.9,13.8,24.7,9.9c9.6-3.8,17.6-13.5,17.6-21.1v-32.6L478.8,241.7z" id="_x36_95" title="بویراحمد"></path>

<g id="G_11" class="area" title="">
	<path d="M135.1,86.3h-0.7c-0.9,0-1.4-0.5-1.6-1.6c-0.5,0.5-0.7,0.7-0.8,0.7H131c-0.3,0-0.6,0-0.9-0.1c-0.4-0.1-0.6-0.3-0.6-0.5
		c0-0.7,0.3-1.4,0.8-1.8c0.4-0.3,1-0.6,1.8-1l-0.2-1l0.7-0.8c0,0.1,0.3,1.2,0.7,3.3c0.1,0.6,0.3,1.1,0.4,1.3
		c0.2,0.3,0.4,0.4,0.8,0.4h0.7V86.3z M132.6,84.3l-0.3-1.6c-0.3,0.1-0.7,0.3-1.2,0.5c-0.6,0.3-1,0.6-1,0.7c0,0.2,0.2,0.3,0.7,0.4
		c0.3,0.1,0.6,0.1,0.9,0.1C132.1,84.4,132.3,84.3,132.6,84.3z" id="PATH_12" class="area" title=""></path>
	<path d="M137.5,84.3c0,1.3-0.7,2-2,2h-0.8v-1.2h0.7c1,0,1.5-0.2,1.5-0.5c0-0.3-0.2-0.7-0.7-1.2l0.4-1c0-0.1,0.1-0.1,0.1-0.1
		c0,0,0.1,0.1,0.2,0.2C137.3,83.1,137.5,83.7,137.5,84.3z M136.7,88.5l-0.8,0.8l-0.8-0.8l0.8-0.8L136.7,88.5z M138.4,88.5l-0.8,0.8
		l-0.8-0.8l0.8-0.8L138.4,88.5z" id="PATH_13" class="area" title=""></path>
	<path d="M144.6,86.3h-1.1c-0.1,1.4-0.6,2.5-1.6,3.5c-0.3,0.3-0.5,0.5-0.6,0.5c-0.5,0-1.2-0.1-1.9-0.2c-0.2,0-0.4-0.1-0.4-0.1
		s0.1-0.1,0.4-0.2c0.8-0.2,1.6-0.7,2.3-1.2c0.3-0.3,0.6-0.5,0.8-0.9c0.3-0.4,0.5-0.8,0.5-1.1v-0.3h-1.3c-1,0-1.4-0.4-1.4-1.2
		c0-0.5,0.1-1,0.4-1.6c0.3-0.6,0.7-1,1.1-1c0.5,0,0.9,0.3,1.2,1c0.2,0.5,0.4,1,0.4,1.6h1.1V86.3z M142.9,85.2c0-0.3-0.1-0.6-0.3-0.9
		c-0.2-0.4-0.5-0.5-0.8-0.5c-0.2,0-0.4,0.1-0.5,0.2c-0.2,0.2-0.2,0.3-0.2,0.6c0,0.5,0.4,0.7,1.2,0.7
		C142.3,85.2,142.5,85.2,142.9,85.2z" id="PATH_14" class="area" title=""></path>
	<path d="M148.3,86.3h-0.4c-0.9,0-1.5-0.3-1.8-1c-0.1,0.3-0.3,0.5-0.6,0.7c-0.3,0.2-0.6,0.3-0.9,0.3h-0.4v-1.2h0.4
		c0.8,0,1.2-0.3,1.2-1v-3.5c0-1.3,0-2.3-0.1-3l0.9-0.7v6.7c0,1,0.4,1.5,1.3,1.5h0.4V86.3z" id="PATH_15" class="area" title=""></path>
	<path d="M153.3,86.3h-0.8c-0.9,0-1.5-0.3-1.9-0.9c-0.3,0.6-1,0.9-2.1,0.9h-0.6v-1.2h0.9c1,0,1.5-0.4,1.6-1.1c0-0.3,0.1-0.5,0.2-0.5
		c0.1,0,0.2,0.2,0.2,0.5c0.1,0.7,0.6,1.1,1.5,1.1h0.9V86.3z M150,88.5l-0.8,0.8l-0.8-0.8l0.8-0.8L150,88.5z M151.7,88.5l-0.8,0.8
		l-0.8-0.8l0.8-0.8L151.7,88.5z" id="PATH_16" class="area" title=""></path>
	<path d="M160,86.3h-0.6c-0.5,0-1.1-0.2-1.6-0.7c-0.4-0.3-0.8-0.9-1.3-1.6c-0.1,1.5-1.1,2.3-3.1,2.3h-0.6v-1.2h0.4
		c1.8,0,2.8-0.4,2.8-1.1c0-0.6-0.4-1.3-1.3-2.1c-0.4-0.4-0.8-0.7-1.3-1.1c0-0.4,0.1-0.7,0.3-1c0.1-0.1,1.9-0.7,5.5-1.8
		c0,0.1-0.1,0.5-0.3,1.1c-0.9,0.2-2.4,0.7-4.4,1.3c1,1.1,2,2.1,2.7,3c0.5,0.5,0.8,0.9,1.1,1.1c0.4,0.3,0.9,0.5,1.4,0.5h0.4V86.3z
		 M159,76.7l-0.2,0.7l-4.9,1.6l0.2-0.7L159,76.7z" id="PATH_17" class="area" title=""></path>
	<path d="M166.2,86.3h-0.5c-0.4,0-0.8,0.1-1.1,0.2c-0.5,0.2-0.8,0.5-0.8,1c0,0.6,0.4,1.1,1.2,1.6l-0.5,1c-0.9-0.3-1.7-0.8-2.3-1.4
		c-0.8-0.7-1.2-1.6-1.2-2.5h-1.4v-1.2h1.3c0-0.8,0.2-1.6,0.6-2.6c0.4-0.9,0.7-1.3,0.9-1.3c0.2,0,0.5,0.4,0.8,1.3
		c0.3,0.8,0.4,1.3,0.4,1.6c0,1.4-0.7,2.1-2.1,2.1c0.1,0.4,0.3,0.8,0.6,1.2c0.3,0.4,0.7,0.7,1.1,0.9c0-0.1,0-0.3,0-0.4
		c0-0.7,0.2-1.3,0.5-1.8c0.5-0.7,1.1-1.1,2-1.1h0.4V86.3z M163.2,84.7c0-0.2-0.1-0.6-0.3-1.1c-0.2-0.6-0.4-0.8-0.6-0.8
		c-0.1,0-0.3,0.2-0.5,0.7c-0.2,0.5-0.3,1.1-0.3,1.7C162.6,85.2,163.2,85,163.2,84.7z" id="PATH_18" class="area" title=""></path>
	<path d="M172.4,77.1c0,0.2-0.2,0.6-0.4,1.1l-2.5,0.8c-1.1,0.4-1.9,0.7-2.3,0.9c0.8,0.8,1.3,1.4,1.6,1.7c0.5,0.7,0.8,1.3,0.9,2
		c0,0.5,0,1-0.2,1.4c-0.3,0.9-1.4,1.3-3.1,1.3h-0.5v-1.2h0.6c0.8,0,1.4,0,1.7-0.1c0.7-0.2,1.1-0.5,1.1-1c0-0.7-0.5-1.5-1.6-2.5
		l-0.1,0.2c-0.1-0.1-0.3-0.3-0.5-0.6c-0.3-0.3-0.4-0.6-0.4-0.6c0-0.2,0-0.4,0.1-0.8c0.1-0.4,0.2-0.6,0.3-0.7
		c0.1-0.1,0.8-0.4,2.1-0.8C170.3,77.7,171.5,77.3,172.4,77.1z" id="PATH_19" class="area" title=""></path>
</g>
<g id="G_20" class="area" title="">
	<path d="M68.3,143.7H66c-0.3,0-0.6,0-0.8,0.1c-0.4,0.1-0.5,0.3-0.5,0.5c0,0.1,0.5,0.2,1.4,0.4c1,0.2,1.4,0.4,1.4,0.6
		c0,0.8-0.2,1.4-0.7,1.8c-0.8,0.7-2.1,1-4,1c-2.3,0-3.5-0.9-3.5-2.6c0-0.4,0.1-0.8,0.3-1.3c0.2-0.5,0.4-0.9,0.6-1.2
		c0.1-0.1,0.2-0.2,0.3-0.2c0.1,0,0.1,0,0.1,0.1c0,0.1,0,0.2-0.1,0.3c-0.3,0.6-0.5,1.2-0.5,1.8c0,0.7,0.3,1.2,1,1.5
		c0.5,0.3,1.1,0.4,1.9,0.4c0.8,0,1.5,0,2.2-0.1c1.2-0.2,1.8-0.4,1.8-0.8c0-0.2-0.3-0.3-0.8-0.4c-0.8-0.1-1.3-0.2-1.5-0.3
		c-0.5-0.1-0.8-0.4-0.8-0.7c0-0.2,0.1-0.5,0.4-0.9c0.2-0.3,0.4-0.5,0.7-0.7c0.5-0.4,1.1-0.6,2-0.6h1.4V143.7z" id="PATH_21" class="area" title=""></path>
	<path d="M73.2,143.7h-0.8c-0.9,0-1.5-0.3-1.9-0.9c-0.3,0.6-1,0.9-2.1,0.9h-0.6v-1.2h0.9c1,0,1.5-0.4,1.6-1.1c0-0.3,0.1-0.5,0.2-0.5
		c0.1,0,0.2,0.2,0.2,0.5c0.1,0.7,0.6,1.1,1.5,1.1h0.9V143.7z M71.5,138.8l-0.1,0.5c-0.8,0.2-1.5,0.4-2.2,0.6v-0.4
		c0.2-0.1,0.4-0.2,0.7-0.4c-0.4-0.3-0.6-0.5-0.6-0.7c0-0.2,0.1-0.5,0.4-0.8c0.3-0.4,0.6-0.5,0.9-0.5c0.3,0,0.6,0.2,0.8,0.5
		c0,0.1,0.1,0.2,0,0.2c0,0-0.1,0-0.2,0c-0.2-0.1-0.4-0.1-0.6-0.1c-0.1,0-0.2,0-0.4,0.1c-0.2,0.1-0.2,0.2-0.2,0.3
		c0,0.2,0.1,0.4,0.4,0.5c0.2,0.1,0.4,0.2,0.6,0.2c0.2,0,0.3,0,0.6-0.1c0.1,0,0.1,0,0.1,0C71.5,138.8,71.5,138.8,71.5,138.8z" id="PATH_22" class="area" title=""></path>
	<path d="M80.4,143.7h-0.6c-0.5,0-1-0.3-1.4-0.8c-0.3,0.8-0.6,1.2-0.9,1.2c-0.3,0-0.8-0.2-1.4-0.5c-0.5-0.3-0.9-0.6-1.1-0.8
		c-0.5,0.6-1,0.9-1.5,0.9h-0.6v-1.2h0.6c0.5,0,0.9-0.2,1.3-0.6c0.3-0.3,0.6-0.7,1-1.1c0.4-0.4,0.7-0.6,1-0.6c0.4,0,0.7,0.2,1,0.6
		c0.2,0.2,0.4,0.6,0.9,1.1c0.3,0.4,0.7,0.6,1.1,0.6h0.6V143.7z M77.7,142.8c0-0.3-0.1-0.6-0.3-1c-0.2-0.4-0.5-0.6-0.9-0.6
		c-0.3,0-0.7,0.3-1.1,0.8c0.1,0.1,0.4,0.3,0.9,0.6c0.5,0.3,0.9,0.4,1.2,0.4C77.6,143,77.7,143,77.7,142.8z" id="PATH_23" class="area" title=""></path>
	<path d="M86.6,143.7h-0.5c-0.4,0-0.8,0.1-1.1,0.2c-0.5,0.2-0.8,0.5-0.8,1c0,0.6,0.4,1.1,1.2,1.6l-0.5,1c-0.9-0.3-1.7-0.8-2.3-1.4
		c-0.8-0.7-1.2-1.6-1.2-2.5H80v-1.2h1.3c0-0.8,0.2-1.6,0.6-2.6c0.4-0.9,0.7-1.3,0.9-1.3c0.2,0,0.5,0.4,0.8,1.3
		c0.3,0.8,0.4,1.3,0.4,1.6c0,1.4-0.7,2.1-2.1,2.1c0.1,0.4,0.3,0.8,0.6,1.2c0.3,0.4,0.7,0.7,1.1,0.9c0-0.1,0-0.3,0-0.4
		c0-0.7,0.2-1.3,0.5-1.8c0.5-0.7,1.1-1.1,2-1.1h0.4V143.7z M83.6,142.1c0-0.2-0.1-0.6-0.3-1.1c-0.2-0.6-0.4-0.8-0.6-0.8
		c-0.1,0-0.3,0.2-0.5,0.7c-0.2,0.5-0.3,1.1-0.3,1.7C83,142.5,83.6,142.4,83.6,142.1z" id="PATH_24" class="area" title=""></path>
	<path d="M89,141.7c0,1.3-0.7,2-2,2h-0.8v-1.2h0.7c1,0,1.5-0.2,1.5-0.5c0-0.3-0.2-0.7-0.7-1.2l0.4-1c0-0.1,0.1-0.1,0.1-0.1
		c0,0,0.1,0.1,0.2,0.2C88.8,140.4,89,141,89,141.7z M88.7,145.9l-0.8,0.8l-0.8-0.8l0.8-0.8L88.7,145.9z" id="PATH_25" class="area" title=""></path>
</g>
<g id="G_26" class="area" title="">
	<path d="M127.8,163.2c0,0.7-0.2,1.2-0.6,1.6c-0.4,0.4-1,0.5-1.6,0.5c-0.4,0-0.8-0.1-1.1-0.4c-0.3-0.3-0.5-0.6-0.5-1
		c0-0.5,0.2-1,0.6-1.7c0.3-0.6,0.7-1.1,1.1-1.5C127.2,161.4,127.8,162.3,127.8,163.2z M127.3,163.6c0-0.3-0.2-0.6-0.7-1
		c-0.4-0.4-0.7-0.6-1.1-0.7c-0.5,0.7-0.8,1.2-0.8,1.6c0,0.2,0.1,0.4,0.4,0.6c0.2,0.1,0.4,0.2,0.7,0.2c0.4,0,0.8-0.1,1.1-0.2
		C127.2,163.8,127.3,163.7,127.3,163.6z" id="PATH_27" class="area" title=""></path>
	<path d="M135.6,165.3h-0.4c-0.4,0-0.7-0.1-1-0.4c-0.2-0.2-0.4-0.4-0.6-0.8c-0.2,0.4-0.5,0.7-0.8,0.9c-0.4,0.2-0.9,0.3-1.7,0.3
		c-1.4,0-2.1-0.5-2.1-1.5c0-0.3,0.1-0.7,0.3-1c0.1-0.1,0.1-0.2,0.2-0.2c0.1,0,0.1,0.1,0.1,0.2c0,0.1,0,0.1,0,0.3c0,0.1,0,0.2,0,0.3
		c0,0.6,0.5,0.9,1.5,0.9c1.4,0,2.1-0.3,2.1-0.8c0-0.3-0.4-1.4-1.2-3.3l0.4-0.8c0.1-0.1,0.1-0.2,0.1-0.2c0,0,0.1,0.1,0.1,0.2
		c0.3,0.8,0.8,2,1.4,3.6c0.3,0.8,0.7,1.2,1.3,1.2h0.3V165.3z" id="PATH_28" class="area" title=""></path>
	<path d="M140.6,165.3h-0.8c-0.9,0-1.5-0.3-1.9-0.9c-0.3,0.6-1,0.9-2.1,0.9h-0.6v-1.2h0.9c1,0,1.5-0.4,1.6-1.1
		c0-0.3,0.1-0.5,0.2-0.5c0.1,0,0.2,0.2,0.2,0.5c0.1,0.7,0.6,1.1,1.5,1.1h0.9V165.3z M138.6,160.2l-0.8,0.8l-0.8-0.8l0.8-0.8
		L138.6,160.2z" id="PATH_29" class="area" title=""></path>
	<path d="M142.9,157.4c0.1,0.1,0.1,0.2,0.1,0.2c0,0-0.1,0-0.2,0h-0.3c0.1,1.3,0.1,3.2,0.1,5.7c0,0.6-0.1,1.1-0.4,1.4
		c-0.3,0.4-0.8,0.6-1.3,0.6h-0.6v-1.2h0.5c0.8,0,1.2-0.3,1.1-0.9c-0.1-2.1-0.2-4.3-0.3-6.5l0.7-0.6c0.1-0.1,0.2-0.2,0.2-0.2
		c0,0,0,0.1,0.1,0.2C142.5,156.5,142.7,156.9,142.9,157.4z" id="PATH_30" class="area" title=""></path>
</g>
<g id="G_31" class="area" title="">
	<path d="M244,234.7c0,0.2-0.1,0.4-0.3,0.8c-0.2,0.4-0.4,0.6-0.5,0.6c-0.3,0-0.7-0.1-1.2-0.2c-0.5-0.1-0.9-0.2-1.2-0.2
		c-0.5,0-0.9,0.1-1.1,0.2c0.2,1.7,0.3,3,0.3,3.8c0,0.4-0.1,0.8-0.4,1.3c-0.1,0.1-0.1,0.2-0.1,0.2c0,0,0,0,0-0.1
		c-0.1-1.6-0.2-3.2-0.4-4.8c0-0.2,0.1-0.4,0.3-0.7c0.2-0.2,0.3-0.4,0.5-0.5c0.2-0.2,0.5-0.2,0.8-0.2c-0.1-0.3-0.1-0.5-0.1-0.7
		c0-0.3,0.1-0.7,0.4-1.1c0.3-0.4,0.6-0.6,1-0.6c0.5,0,1,0.3,1.5,0.8C243.8,233.7,244,234.2,244,234.7z M243.2,235
		c-0.1-0.3-0.4-0.7-0.7-1c-0.4-0.4-0.7-0.5-1.1-0.5c-0.5,0-0.7,0.2-0.7,0.5c0,0.2,0.1,0.4,0.2,0.8
		C241.6,234.7,242.4,234.8,243.2,235z" id="PATH_32" class="area" title=""></path>
	<path d="M249.2,236.3c0,1.5-0.5,2.8-1.5,3.8c-0.3,0.3-0.5,0.5-0.6,0.5c-0.6,0-1.2-0.1-1.9-0.2c-0.3,0-0.4-0.1-0.4-0.1
		c0,0,0.1-0.1,0.4-0.2c0.8-0.2,1.6-0.7,2.3-1.3c0.3-0.3,0.6-0.5,0.8-0.9c0.3-0.4,0.5-0.8,0.5-1.1v-0.3l-1.3,0
		c-0.9,0-1.4-0.4-1.4-1.1c0-0.5,0.1-1,0.4-1.6c0.3-0.6,0.7-1,1.1-1c0.6,0,1.1,0.4,1.4,1.3C249.1,234.8,249.2,235.5,249.2,236.3z
		 M248.5,235.4c0-0.3-0.1-0.6-0.3-0.9c-0.2-0.3-0.5-0.5-0.8-0.5c-0.2,0-0.4,0.1-0.5,0.2s-0.2,0.3-0.2,0.5c0,0.5,0.3,0.7,1,0.7
		C247.8,235.5,248.1,235.5,248.5,235.4z" id="PATH_33" class="area" title=""></path>
	<path d="M255.4,236.7H255c-0.4,0-0.6-0.1-0.8-0.2c0,0.1,0,0.2,0,0.3c0,0.9-0.3,1.8-0.9,2.7c-0.5,0.8-1,1.1-1.3,1.1
		c-0.8,0-1.4,0-2-0.1c-0.2,0-0.3-0.1-0.3-0.1s0.1-0.1,0.3-0.1c0.8-0.2,1.6-0.6,2.4-1.2c0.8-0.7,1.3-1.4,1.3-2.1c0-0.4-0.3-1-1-1.7
		l0.5-0.9c0-0.1,0.1-0.1,0.1-0.1c0,0,0.1,0.1,0.1,0.1c0.3,0.4,0.5,0.7,0.7,0.8c0.3,0.2,0.7,0.4,1.1,0.4h0.3V236.7z" id="PATH_34" class="area" title=""></path>
	<path d="M263.2,233.8l-0.4,0.8c-0.7,0-1.3,0-1.6,0.1c-0.4,0.2-1,0.4-1.8,0.8c-0.8,0.4-1.4,0.7-1.8,0.8c-0.6,0.2-1.3,0.3-1.9,0.3
		H255v-1.2h0.8c0.9,0,1.7-0.2,2.4-0.5l2.3-1c-0.4-0.1-1-0.3-1.8-0.6c-0.7-0.3-1.1-0.4-1.3-0.4c-0.4,0-0.8,0.2-1.2,0.5
		c-0.1,0.1-0.1,0.1-0.2,0.1c-0.1,0-0.1,0-0.1-0.1c0,0,0-0.1,0-0.1c0.3-1,0.9-1.4,1.7-1.4c0.3,0,0.7,0.1,1.1,0.3
		c0.8,0.4,1.4,0.6,1.8,0.8c0.7,0.2,1.5,0.4,2.4,0.4c0.2,0,0.3,0,0.3,0.1C263.3,233.6,263.3,233.6,263.2,233.8z M257.7,238.5l0.7-0.7
		l0.7,0.7l-0.7,0.7L257.7,238.5z M258.6,240.1l0.7-0.7l0.7,0.7l-0.7,0.7L258.6,240.1z M259.5,238.5l0.7-0.7l0.7,0.7l-0.7,0.7
		L259.5,238.5z" id="PATH_35" class="area" title=""></path>
</g>
<g id="G_36" class="area" title="">
	<path d="M380.1,260.3h-0.4c-0.4,0-0.7-0.1-1-0.4c-0.2-0.2-0.4-0.4-0.6-0.8c-0.2,0.4-0.5,0.7-0.8,0.9c-0.4,0.2-0.9,0.3-1.7,0.3
		c-1.4,0-2.1-0.5-2.1-1.5c0-0.3,0.1-0.7,0.3-1c0.1-0.1,0.1-0.2,0.2-0.2c0.1,0,0.1,0.1,0.1,0.2c0,0.1,0,0.1,0,0.3c0,0.1,0,0.2,0,0.3
		c0,0.6,0.5,0.9,1.5,0.9c1.4,0,2.1-0.3,2.1-0.8c0-0.3-0.4-1.4-1.2-3.3l0.4-0.8c0.1-0.1,0.1-0.2,0.1-0.2c0,0,0.1,0.1,0.1,0.2
		c0.3,0.8,0.8,2,1.4,3.6c0.3,0.8,0.7,1.2,1.3,1.2h0.3V260.3z" id="PATH_37" class="area" title=""></path>
	<path d="M387.2,260.3h-0.6c-0.5,0-1-0.3-1.4-0.8c-0.3,0.8-0.6,1.2-0.9,1.2c-0.3,0-0.8-0.2-1.4-0.5c-0.5-0.3-0.9-0.6-1.1-0.8
		c-0.5,0.6-1,0.9-1.5,0.9h-0.6v-1.2h0.6c0.5,0,0.9-0.2,1.3-0.6c0.3-0.3,0.6-0.7,1-1.1c0.4-0.4,0.7-0.6,1-0.6c0.4,0,0.7,0.2,1,0.6
		c0.2,0.2,0.4,0.6,0.9,1.1c0.3,0.4,0.7,0.6,1.1,0.6h0.6V260.3z M384.5,259.5c0-0.3-0.1-0.6-0.3-1c-0.2-0.4-0.5-0.6-0.9-0.6
		c-0.3,0-0.7,0.3-1.1,0.8c0.1,0.1,0.4,0.3,0.9,0.6c0.5,0.3,0.9,0.4,1.2,0.4C384.5,259.7,384.5,259.6,384.5,259.5z" id="PATH_38" class="area" title=""></path>
	<path d="M395,257.4l-0.4,0.8c-0.7,0-1.3,0-1.6,0.1c-0.4,0.2-1,0.4-1.8,0.8c-0.8,0.4-1.4,0.7-1.8,0.8c-0.6,0.2-1.3,0.3-1.9,0.3h-0.7
		v-1.2h0.8c0.9,0,1.7-0.2,2.4-0.5l2.3-1c-0.4-0.1-1-0.3-1.8-0.6c-0.7-0.3-1.1-0.4-1.3-0.4c-0.4,0-0.8,0.2-1.2,0.5
		c-0.1,0.1-0.1,0.1-0.2,0.1c-0.1,0-0.1,0-0.1-0.1c0,0,0-0.1,0-0.1c0.3-1,0.9-1.4,1.7-1.4c0.3,0,0.7,0.1,1.1,0.3
		c0.8,0.4,1.4,0.6,1.8,0.8c0.7,0.2,1.5,0.4,2.4,0.4c0.2,0,0.3,0,0.3,0.1C395.2,257.2,395.1,257.3,395,257.4z" id="PATH_39" class="area" title=""></path>
	<path d="M397.5,259.1c0,0.4-0.1,0.8-0.3,1.1c-0.1,0.2-0.2,0.3-0.2,0.3c0,0-0.1-0.1-0.1-0.4c0-1.2-0.2-4-0.6-8.5l0.8-0.8
		c0.1-0.1,0.1-0.1,0.1-0.1c0,0,0,0.1,0,0.2C397.4,252.3,397.5,255,397.5,259.1z" id="PATH_40" class="area" title=""></path>
	<path d="M403.7,260.3h-0.4c-0.4,0-0.6-0.1-0.8-0.2c0,0.1,0,0.2,0,0.3c0,0.9-0.3,1.8-0.9,2.7c-0.5,0.8-1,1.1-1.3,1.1
		c-0.8,0-1.4,0-2-0.1c-0.2,0-0.3-0.1-0.3-0.1s0.1-0.1,0.3-0.1c0.8-0.2,1.6-0.6,2.4-1.2c0.8-0.7,1.3-1.4,1.3-2.1c0-0.4-0.3-1-1-1.7
		l0.5-0.9c0-0.1,0.1-0.1,0.1-0.1c0,0,0.1,0.1,0.1,0.1c0.3,0.4,0.5,0.7,0.7,0.8c0.3,0.2,0.7,0.4,1.1,0.4h0.3V260.3z" id="PATH_41" class="area" title=""></path>
	<path d="M406.1,258.3c0,1.3-0.7,2-2,2h-0.8v-1.2h0.7c1,0,1.5-0.2,1.5-0.5c0-0.3-0.2-0.7-0.7-1.2l0.4-1c0-0.1,0.1-0.1,0.1-0.1
		s0.1,0.1,0.2,0.2C405.9,257.1,406.1,257.7,406.1,258.3z M405.3,262.5l-0.8,0.8l-0.8-0.8l0.8-0.8L405.3,262.5z M407,262.5l-0.8,0.8
		l-0.8-0.8l0.8-0.8L407,262.5z" id="PATH_42" class="area" title=""></path>
	<path d="M413.3,260.3h-1.1c-0.1,1.4-0.6,2.5-1.6,3.5c-0.3,0.3-0.5,0.5-0.6,0.5c-0.5,0-1.2-0.1-1.9-0.2c-0.2,0-0.4-0.1-0.4-0.1
		s0.1-0.1,0.4-0.2c0.8-0.2,1.6-0.7,2.3-1.2c0.3-0.3,0.6-0.5,0.8-0.9c0.3-0.4,0.5-0.8,0.5-1.1v-0.3h-1.3c-1,0-1.4-0.4-1.4-1.2
		c0-0.5,0.1-1,0.4-1.6c0.3-0.6,0.7-1,1.1-1c0.5,0,0.9,0.3,1.2,1c0.2,0.5,0.4,1,0.4,1.6h1.1V260.3z M411.5,259.2
		c0-0.3-0.1-0.6-0.3-0.9c-0.2-0.4-0.5-0.5-0.8-0.5c-0.2,0-0.4,0.1-0.5,0.2c-0.2,0.2-0.2,0.3-0.2,0.6c0,0.5,0.4,0.7,1.2,0.7
		C410.9,259.2,411.2,259.2,411.5,259.2z" id="PATH_43" class="area" title=""></path>
	<path d="M415.7,258.3c0,1.3-0.7,2-2,2h-0.8v-1.2h0.7c1,0,1.5-0.2,1.5-0.5c0-0.3-0.2-0.7-0.7-1.2l0.4-1c0-0.1,0.1-0.1,0.1-0.1
		s0.1,0.1,0.2,0.2C415.5,257.1,415.7,257.7,415.7,258.3z M415.3,262.5l-0.8,0.8l-0.8-0.8l0.8-0.8L415.3,262.5z" id="PATH_44" class="area" title=""></path>
</g>
<g id="G_45" class="area" title="">
	<path d="M334.5,143h-0.7c-0.7,0-1.3-0.3-1.5-0.9c-0.2-0.4-0.3-1.1-0.3-1.9v-1.9c0-0.9-0.1-2.2-0.2-3.9l0.6-0.7
		c0.1-0.1,0.2-0.1,0.2,0c0.1,0.9,0.2,2.2,0.2,3.9v2.9c0,0.8,0.4,1.2,1.2,1.2h0.5V143z" id="PATH_46" class="area" title=""></path>
	<path d="M336.9,141c0,1.3-0.7,2-2,2h-0.8v-1.2h0.7c1,0,1.5-0.2,1.5-0.5c0-0.3-0.2-0.7-0.7-1.2l0.4-1c0-0.1,0.1-0.1,0.1-0.1
		s0.1,0.1,0.2,0.2C336.7,139.7,336.9,140.4,336.9,141z M336.8,136.5l-0.8,0.8l-0.8-0.8l0.8-0.8L336.8,136.5z" id="PATH_47" class="area" title=""></path>
	<path d="M343,140.9c0,1.4-0.9,2.1-2.8,2.1c-0.7,0-1.2-0.1-1.5-0.3c-0.4-0.2-0.6-0.7-0.6-1.3c0-0.3,0.1-0.6,0.2-0.9
		c0.1-0.1,0.1-0.2,0.2-0.2c0.1,0,0.1,0.1,0.1,0.3c0,0.1,0,0.2,0,0.3c0,0.4,0.2,0.7,0.6,0.8c0.2,0.1,0.6,0.1,1.1,0.1
		c1.5,0,2.2-0.2,2.2-0.7c0-0.7-0.9-1.7-2.6-2.9l0.3-1c0-0.1,0.1-0.1,0.1-0.1c0,0,0.1,0,0.2,0.1C342.2,138.5,343,139.8,343,140.9z" id="PATH_48" class="area" title=""></path>
</g>
<g id="G_49" class="area" title="">
	<path d="M302.1,316.3h-0.4c-0.5,0-0.9-0.1-1.1-0.3c-0.3-0.2-0.5-0.6-0.5-1c-1.1,1-2.8,1.5-5.1,1.5c-2.4,0-3.6-0.7-3.6-2.2
		c0-0.5,0.2-1,0.6-1.5c0.1-0.1,0.1-0.1,0.2-0.1c0.1,0,0.1,0,0.1,0.1c0,0,0,0.1,0,0.2c-0.1,0.3-0.2,0.6-0.2,0.9c0,1,1.1,1.5,3.3,1.5
		c2.5,0,4.2-0.5,5-1.6c0.2-0.2,0.3-0.3,0.4-0.3c0.1,0,0.1,0.1,0.1,0.2c0,0.1,0,0.2-0.1,0.4c0,0.2-0.1,0.3-0.1,0.4
		c0,0.5,0.4,0.8,1.1,0.8h0.4V316.3z M295.8,310.5l-0.8,0.8l-0.8-0.8l0.8-0.8L295.8,310.5z M297.6,310.5l-0.8,0.8l-0.8-0.8l0.8-0.8
		L297.6,310.5z" id="PATH_50" class="area" title=""></path>
	<path d="M309.9,314.2c0,0.6-0.1,1.1-0.4,1.5c-0.3,0.4-0.8,0.7-1.3,0.7c-0.7,0-1.1-0.3-1.4-0.8c-0.4,0.6-0.8,0.8-1.4,0.8
		c-0.7,0-1.2-0.3-1.5-0.8c-0.4,0.6-0.9,0.8-1.6,0.8h-0.7v-1.2h0.8c0.7,0,1.2-0.4,1.3-1.2c0-0.2,0.1-0.3,0.2-0.3
		c0.1,0,0.1,0.1,0.2,0.3c0.1,0.8,0.5,1.2,1.3,1.2c0.4,0,0.8-0.1,1-0.3c0.1-0.2,0.2-0.4,0.3-0.8c0-0.2,0.1-0.3,0.2-0.3
		c0.1,0,0.1,0.1,0.2,0.3c0.1,0.8,0.5,1.2,1.2,1.2c0.8,0,1.1-0.2,1.1-0.5c0-0.3-0.2-0.7-0.6-1.1l0.5-0.9c0.1-0.1,0.1-0.2,0.2-0.2
		s0.1,0.1,0.2,0.2C309.8,313.2,309.9,313.8,309.9,314.2z M306.6,310.5l-0.7,0.7l-0.7-0.7l0.7-0.7L306.6,310.5z M307.4,309l-0.7,0.7
		L306,309l0.7-0.7L307.4,309z M308.3,310.5l-0.7,0.7l-0.7-0.7l0.7-0.7L308.3,310.5z" id="PATH_51" class="area" title=""></path>
	<path d="M313.9,316.3h-0.7c-0.7,0-1.3-0.3-1.5-0.9c-0.2-0.4-0.3-1.1-0.3-1.9v-1.9c0-0.9-0.1-2.2-0.2-3.9l0.6-0.7
		c0.1-0.1,0.2-0.1,0.2,0c0.1,0.9,0.2,2.2,0.2,3.9v2.9c0,0.8,0.4,1.2,1.2,1.2h0.5V316.3z" id="PATH_52" class="area" title=""></path>
	<path d="M316.3,314.3c0,1.3-0.7,2-2,2h-0.8v-1.2h0.7c1,0,1.5-0.2,1.5-0.5c0-0.3-0.2-0.7-0.7-1.2l0.4-1c0-0.1,0.1-0.1,0.1-0.1
		s0.1,0.1,0.2,0.2C316.1,313.1,316.3,313.7,316.3,314.3z M316,318.5l-0.8,0.8l-0.8-0.8l0.8-0.8L316,318.5z" id="PATH_53" class="area" title=""></path>
</g>
<g id="G_54" class="area" title="">
	<path d="M203.7,364.2c0.1,0.3,0.1,0.6,0.1,0.9c0,0.4-0.1,0.7-0.2,1.1c-0.3,0.7-0.8,1.3-1.8,1.7c-0.8,0.3-1.6,0.5-2.5,0.5
		c-0.9,0-1.6-0.2-2.2-0.6c-0.6-0.5-0.9-1.1-0.9-2c0-0.5,0.1-0.9,0.3-1.5c0.2-0.4,0.3-0.7,0.5-0.9c0.1-0.1,0.2-0.1,0.2-0.1
		c0.1,0,0.1,0,0.1,0.1c0,0,0,0.1,0,0.2c-0.3,0.6-0.4,1.2-0.4,1.7c0,0.5,0.2,0.9,0.5,1.3c0.4,0.5,1.1,0.7,2,0.7c1,0,1.9-0.2,2.6-0.5
		c0.6-0.3,1-0.6,1.2-1c0.1-0.1,0.1-0.3,0.1-0.4c0-0.3-0.1-0.6-0.2-1c-0.1-0.3-0.4-0.8-0.9-1.6l0.4-0.8c0.1-0.1,0.1-0.2,0.1-0.2
		s0.1,0,0.1,0.1C203.3,362.6,203.6,363.4,203.7,364.2z M200.8,359.9l-0.8,0.8l-0.8-0.8l0.8-0.8L200.8,359.9z" id="PATH_55" class="area" title=""></path>
	<path d="M206.2,363.1c0,0.4-0.1,0.8-0.3,1.1c-0.1,0.2-0.2,0.3-0.2,0.3c0,0-0.1-0.1-0.1-0.4c0-1.2-0.2-4-0.6-8.5l0.8-0.8
		c0.1-0.1,0.1-0.1,0.1-0.1c0,0,0,0.1,0,0.2C206.1,356.3,206.2,359,206.2,363.1z" id="PATH_56" class="area" title=""></path>
	<path d="M211.2,364.4c0,1-0.3,1.9-0.9,2.8c-0.5,0.7-1,1.1-1.3,1.1c-0.8,0-1.4,0-2-0.1c-0.2,0-0.3-0.1-0.3-0.1s0.1-0.1,0.3-0.1
		c0.8-0.2,1.6-0.6,2.4-1.2c0.8-0.7,1.3-1.4,1.3-2.1c0-0.4-0.3-1-1-1.7l0.5-0.9c0-0.1,0.1-0.1,0.1-0.1c0,0,0.1,0.1,0.1,0.1
		c0.2,0.3,0.5,0.7,0.6,1.2C211.1,363.6,211.2,364.1,211.2,364.4z" id="PATH_57" class="area" title=""></path>
	<path d="M215.2,364.3h-0.7c-0.7,0-1.3-0.3-1.5-0.9c-0.2-0.4-0.3-1.1-0.3-1.9v-1.9c0-0.9-0.1-2.2-0.2-3.9l0.6-0.7
		c0.1-0.1,0.2-0.1,0.2,0c0.1,0.9,0.2,2.2,0.2,3.9v2.9c0,0.8,0.4,1.2,1.2,1.2h0.5V364.3z" id="PATH_58" class="area" title=""></path>
	<path d="M224.4,364.3h-0.6c-0.7,0-1.1-0.3-1.4-0.8c-0.2,0.6-0.7,0.8-1.3,0.8c-0.6,0-1-0.3-1.3-0.8c-0.3,0.6-0.7,0.8-1.3,0.8
		c-0.7,0-1.2-0.3-1.5-0.8c-0.4,0.6-0.9,0.8-1.6,0.8h-0.7v-1.2h0.8c0.7,0,1.2-0.4,1.3-1.2c0-0.2,0.1-0.3,0.2-0.3
		c0.1,0,0.1,0.1,0.2,0.3c0.1,0.8,0.5,1.2,1.3,1.2c0.7,0,1.2-0.4,1.2-1.2c0-0.2,0.1-0.3,0.2-0.3c0.1,0,0.2,0.1,0.2,0.3
		c0.1,0.8,0.5,1.2,1,1.2c0.7,0,1.2-0.4,1.2-1.2c0-0.2,0.1-0.3,0.2-0.3c0.1,0,0.2,0.1,0.2,0.3c0.1,0.8,0.5,1.2,1.2,1.2h0.6V364.3z" id="PATH_59" class="area" title=""></path>
	<path d="M233.2,364.3h-1c-1.3,0-2-0.7-2-2c0-0.2,0-0.3,0-0.5c-0.5,0.2-1.1,0.6-1.9,1.1c-0.8,0.5-1.3,0.8-1.7,1
		c-0.6,0.3-1.3,0.4-1.9,0.4H224v-1.2h0.8c0.8,0,1.7-0.2,2.5-0.6c0.4-0.2,1.1-0.6,2.2-1.1c-0.2,0-0.8-0.2-1.8-0.4
		c-0.7-0.2-1.1-0.3-1.2-0.3c-0.4,0-0.8,0.2-1.2,0.5c-0.1,0.1-0.1,0.1-0.2,0.1c-0.1,0-0.1,0-0.1-0.1c0,0,0-0.1,0-0.1
		c0.3-1,0.9-1.5,1.7-1.5c0.3,0,0.7,0.1,1.2,0.2c0.7,0.2,1.3,0.4,1.8,0.5c0.7,0.1,1.5,0.2,2.4,0.2c0.2,0,0.2,0,0.3,0c0,0,0,0.1,0,0.2
		l-0.3,0.9c-0.6,0-1,0-1.2,0.1c0,0.5,0.1,0.8,0.2,0.9c0.2,0.3,0.6,0.5,1.3,0.5h1V364.3z M227.2,366.2l0.7-0.7l0.7,0.7l-0.7,0.7
		L227.2,366.2z M228.1,367.8l0.7-0.7l0.7,0.7l-0.7,0.7L228.1,367.8z M228.9,366.2l0.7-0.7l0.8,0.7l-0.7,0.7L228.9,366.2z" id="PATH_60" class="area" title=""></path>
	<path d="M239.2,356.2c0,0.2-0.1,0.5-0.3,1.1c-1.2,0.3-2.7,0.8-4.4,1.3c1.2,1.2,1.9,2.2,2,2.9c0.1,0.5,0,1-0.2,1.5
		c-0.2,0.5-0.6,0.8-1.1,1c-0.4,0.2-1.1,0.2-2,0.2h-0.4v-1.2h0.3c1.9,0,2.9-0.3,2.9-1c0-0.5-0.5-1.3-1.6-2.3l-0.1,0.3
		c-0.1-0.1-0.3-0.3-0.5-0.6c-0.3-0.3-0.4-0.5-0.4-0.6c0-0.3,0.1-0.6,0.4-0.9c0.1-0.1,0.7-0.3,2-0.7
		C237,356.8,238.2,356.5,239.2,356.2z M239,354.7l-0.2,0.7l-4.9,1.6l0.2-0.7L239,354.7z" id="PATH_61" class="area" title=""></path>
</g>
</svg>

