<!--?xml version="1.0" encoding="UTF-8" standalone="no"?-->
<!-- Generator: Adobe Illustrator 16.0.0, SVG Export Plug-In . SVG Version: 6.00 Build 0)  -->

<svg version="1.1" id="Layer_1" x="0px" y="0px" width="100%" height="100%" viewBox="0 0 579.81 452" enable-background="new 0 0 579.81 452" xml:space="preserve" sodipodi:docname="Kurdistan_(Iran).svg" inkscape:version="1.1.1 (3bf5ae0d25, 2021-09-20)" xmlns:inkscape="http://www.inkscape.org/namespaces/inkscape" xmlns:sodipodi="http://sodipodi.sourceforge.net/DTD/sodipodi-0.dtd" xmlns="http://www.w3.org/2000/svg" xmlns:svg="http://www.w3.org/2000/svg"><defs id="defs193">
	
	
	
	
	
	
	
	
	
	
	

		
		
		
		
		
		
		
		
		
		
	</defs><sodipodi:namedview id="namedview191" pagecolor="#ffffff" bordercolor="#666666" borderopacity="1.0" inkscape:pageshadow="2" inkscape:pageopacity="0.0" inkscape:pagecheckerboard="0" showgrid="false" inkscape:zoom="1.2079646" inkscape:cx="329.47985" inkscape:cy="231.79487" inkscape:window-width="1271" inkscape:window-height="728" inkscape:window-x="26" inkscape:window-y="0" inkscape:window-maximized="0" inkscape:current-layer="Layer_1"></sodipodi:namedview>
<path fill="#dbeccb" stroke="#020202" stroke-width="0.2" stroke-miterlimit="10" d="m 544.189,313.138 c -1.251,-3.131 -5.267,-6.721 -9.146,-10.18 -2.834,-2.535 -5.768,-5.148 -7.91,-7.83 -1.31,-1.631 -3.612,-3.891 -6.063,-6.289 -7.026,-6.895 -15.774,-15.475 -15.774,-22.928 0,-2.502 -2.047,-7.365 -3.846,-11.646 -3.271,-7.76 -6.346,-15.088 -3.459,-19.445 0.175,-0.252 0.384,-0.523 0.627,-0.785 -0.92,-0.838 -1.944,-1.771 -3.225,-2.197 -9.292,-0.715 -18.598,-2.861 -27.177,2.15 -6.443,4.287 -0.713,13.588 -5.724,17.164 -5.723,3.574 -15.737,5.01 -21.453,0.713 -1.123,-0.863 -2.217,-1.684 -3.303,-2.48 -3.603,7.74 -5.218,16.598 -11.727,22.514 -0.71,0.713 0,2.859 0.717,4.289 2.862,2.863 8.578,3.576 8.578,5.721 2.149,11.443 -4.29,20.748 -5.717,32.193 -1.433,10.012 -13.596,7.869 -20.748,10.012 -0.713,0.717 -2.143,1.438 -2.862,2.863 -5.724,8.586 0,16.457 -6.437,24.322 -2.304,2.682 -0.701,5.771 1.28,9.16 h 51.733 c 7.778,0 37.396,2.268 40.166,13.363 0.709,2.83 0.709,5.967 0.709,9.002 0,6.166 0.234,10.027 3.444,11.629 0.52,0.26 1.031,0.521 1.529,0.775 1.106,-1.559 12.973,-17.359 33.759,-14.781 15.805,1.975 22.733,1.572 26.876,1.334 0.914,-0.051 1.689,-0.092 2.38,-0.105 1.087,-1.264 2.538,-7.342 2.538,-15.914 v -28.799 c -3.807,-3.845 -17.373,-17.831 -19.765,-23.825 z" id="_x36_46" class="area" title="قروه"></path><path fill="#fdfad6" stroke="#020202" stroke-width="0.2" stroke-miterlimit="10" d="m 365.202,342.718 c -15.731,-16.457 -25.754,10.016 -38.623,15.738 -8.586,3.576 -19.314,1.43 -28.621,-1.436 -9.291,-2.861 -18.598,-0.711 -27.896,-0.711 -2.144,0 -3.576,-2.146 -3.576,-3.576 -1.427,-7.158 -5.003,-15.736 -12.872,-12.16 -8.586,4.293 -12.879,15.736 -22.892,18.598 -3.575,1.436 -8.586,-0.715 -10.729,1.436 -6.261,4.33 -11.232,8.98 -17.304,12.002 0.37,9.186 2.318,26.949 11.782,33.262 4.688,3.129 10.89,4.881 16.887,6.566 8.133,2.289 15.153,4.268 17.765,9.492 2.954,5.902 8.33,15.469 10.362,19.045 6.97,0.027 33.722,0.236 43.76,1.908 13,2.164 29.061,1.982 32.242,-1.742 0.229,-0.266 0.646,-0.756 0.204,-2.092 -0.654,-1.959 -1.426,-3.982 -2.197,-6.01 -3.821,-10.035 -8.165,-21.414 1.543,-27.238 8.951,-5.373 18.095,-14.463 18.177,-14.555 l 4.799,-4.791 v 6.783 c 0.152,0.615 2.34,2.809 10.298,2.809 6.642,0 17.786,-1.58 17.786,-12.168 0,-5.281 0.994,-10.588 2.943,-14.811 -3.347,-4.996 -4.479,-11.377 -5.949,-17.758 -1.442,-6.449 -12.879,-3.583 -17.889,-8.591 z" id="_x36_41" class="area" title="کامیاران"></path><path fill="#dbeccb" stroke="#020202" stroke-width="0.2" stroke-miterlimit="10" d="m 116.98,168.171 c 1.43,-2.146 0.714,-6.436 2.862,-8.586 8.587,-10.729 20.031,-21.454 13.589,-35.762 C 124.853,104.509 101.962,108.798 86.223,99.498 77.637,94.491 71.202,88.769 66.192,80.185 60.926,72.581 54.227,69.284 46.482,67.554 c -6.253,2.617 -8.626,9.884 -8.626,16.767 0,12.637 -2.885,15.914 -14.041,15.914 -7.565,0 -12.17,9.749 -12.17,14.041 0,5.68 -1.803,25.619 -1.883,26.46 -0.136,1.464 -1.361,2.561 -2.791,2.561 -0.029,0 -0.051,0 -0.076,-0.009 l 2.312,1.998 2.618,1.871 5.996,1.127 6.362,5.617 10.487,13.853 5.617,13.104 2.617,3.367 3.746,1.123 8.233,-2.252 2.625,0.379 3.364,2.254 h 4.49 l 4.49,-2.254 5.239,-4.124 h 2.253 l 2.249,0.753 h 2.253 l 7.107,-2.248 13.852,0.749 4.491,-1.499 2.472,-1.347 c 2.686,-2.062 5.114,-4.549 7.212,-7.588 z" id="_x36_30" class="area" title="بانه"></path><path fill="#e8d0e5" stroke="#020202" stroke-width="0.2" stroke-miterlimit="10" d="m 199.958,178.187 c 10.014,0.713 17.168,15.021 20.744,10.02 8.583,-9.303 -5.719,-27.188 0,-41.488 7.152,-17.172 29.331,-7.159 42.919,-17.886 0.714,-0.713 0.714,-2.862 0,-4.289 -2.139,-2.149 -2.858,-4.292 -2.139,-6.441 7.869,-11.445 19.312,-22.893 15.733,-37.197 0,0 -2.146,0.717 -3.578,-0.716 1.433,-0.71 2.865,-2.86 2.146,-4.294 -3.576,-2.859 -9.299,-2.859 -10.013,-7.865 -1.438,-12.875 7.865,-22.888 20.027,-27.185 0.778,0 1.343,-0.846 1.811,-1.955 -2.095,-1.858 -4.052,-4.25 -5.964,-7.42 -3.979,-6.638 -10.535,-9.871 -20.05,-9.871 -3.021,0 -17.438,2.15 -32.718,4.427 -21.438,3.194 -45.729,6.809 -53.405,6.809 -12.002,0 -22.957,-1.327 -25.25,-17.393 -0.977,-6.822 -4.313,-6.802 -13.845,-5.759 -2.899,0.317 -6.187,0.685 -9.592,0.685 -9.752,0 -20.74,2.172 -25.274,3.174 v 27.72 c 0,7.514 -1.222,20.526 -9.412,23.256 -5.58,1.856 -23.674,2.019 -40.202,2.019 -2.063,0 -3.856,0.368 -5.415,1.023 7.74,1.729 14.439,5.032 19.71,12.631 5.01,8.585 11.444,14.308 20.03,19.313 15.739,9.304 38.631,5.01 47.209,24.325 6.442,14.304 -5.002,25.033 -13.59,35.763 -2.146,2.149 -1.433,6.442 -2.861,8.586 -2.101,3.034 -4.526,5.521 -7.201,7.592 l 1.646,-0.9 3.752,-1.498 3.363,0.376 6.736,2.249 1.872,0.38 0.754,0.746 1.117,5.239 1.127,1.873 1.129,1.496 1.873,1.495 4.486,1.868 4.49,-0.373 9.362,-1.872 4.128,-1.495 3.744,-2.623 4.121,-1.871 4.493,0.749 2.878,1.729 c 9.177,-3.732 18.728,-6.3 29.109,-5.152 z" id="_x36_39" class="area" title="سقز"></path><path fill="#fdfad6" stroke="#020202" stroke-width="0.2" stroke-miterlimit="10" d="m 250.93,229.97 c -0.721,-0.965 -1.47,-1.992 -2.329,-3.137 -3.577,-5.012 -9.3,-7.873 -12.162,-13.596 -4.882,-9.143 -10.791,-16.214 -15.977,-24.75 -3.653,4.1 -10.703,-9.6 -20.507,-10.301 -10.379,-1.152 -19.929,1.416 -29.101,5.146 l 0.863,0.522 1.871,3.744 -0.754,3.744 -2.244,4.491 -3.744,2.998 -6.362,4.117 -3.372,4.118 -3.367,2.998 -4.49,0.746 -8.614,-0.746 -10.851,5.615 -4.498,1.119 -15.354,-0.373 -4.487,1.5 -3.001,2.998 -1.497,4.117 -0.745,4.49 v 4.117 l 1.872,10.115 -0.373,3.371 -6.746,-1.873 h -1.127 l -1.123,0.373 1.873,5.244 2.618,4.863 0.745,1.127 0.381,1.117 -0.381,1.129 -0.745,0.742 -1.872,1.5 -1.126,1.5 -0.373,2.244 v 2.246 l 2.998,7.488 13.853,21.725 2.112,1.857 c 3.416,-9.66 10.586,-18.77 17.771,-19.369 10.013,-1.434 16.455,-7.15 25.75,-7.869 2.146,0 3.576,6.438 5.724,6.438 11.339,0 18.002,7.113 23.911,15.6 13.889,0.461 27.246,-7.582 32.6,-22.037 1.438,-4.287 7.153,-5.008 10.729,-7.867 6.438,-5.01 10.017,-12.871 16.459,-17.168 2.14,-1.432 5.719,-1.432 7.868,-2.863 2.86,-1.426 2.86,-5.721 0.718,-9.297 -1.28,-1.283 -2.318,-2.57 -3.394,-4.013" id="_x36_53" class="area" title="مریوان"></path><path fill="#dbeccb" stroke="#020202" stroke-width="0.2" stroke-miterlimit="10" d="m 347.313,310.522 c 2.149,-5.002 0,-11.445 -5.003,-15.021 3.576,-3.576 4.29,-8.582 -1.434,-11.445 0,-0.713 -1.434,-2.865 -0.718,-3.574 5.728,-2.146 5.015,-7.869 7.873,-11.445 10.018,-12.162 20.748,-21.461 25.038,-37.203 0.713,-2.861 5.01,-5.719 5.727,-8.584 0.652,-1.635 0.855,-3.271 0.818,-4.91 -5.229,-0.922 -10.666,-1.514 -15.841,-3.67 -2.136,-0.711 -3.782,-1.689 -5.09,-2.891 -0.476,0.857 -0.914,1.799 -1.342,2.891 -3.58,13.588 -16.459,18.598 -30.048,16.453 -4.293,-0.711 -4.293,-5.723 -7.868,-8.584 -8.582,-5.723 -17.173,0.711 -25.041,-6.441 -3.576,-2.861 -5.72,5.008 -10.013,7.867 -1.435,1.438 -2.862,0.717 -4.293,0.717 -2.859,-1.43 -5.721,-4.289 -8.586,-3.576 -6.883,2.172 -13.582,6.18 -20.559,8.863 1.074,1.441 2.105,2.729 3.395,4.016 2.143,3.576 2.143,7.869 -0.715,9.295 -2.146,1.436 -5.723,1.436 -7.872,2.863 -6.437,4.289 -10.013,12.158 -16.455,17.168 -3.577,2.859 -9.296,3.576 -10.729,7.869 -5.354,14.451 -18.714,22.496 -32.597,22.035 5.646,8.096 10.604,17.441 18.291,23.029 14.306,10.02 32.189,5.725 47.93,12.162 4.673,2.334 4.103,7.059 3.731,11.432 6.279,-1.082 9.288,6.477 10.575,12.891 0,1.43 1.427,3.574 3.577,3.574 9.296,0 18.598,-2.145 27.894,0.715 9.303,2.861 20.031,5.01 28.616,1.434 6.239,-2.773 11.812,-10.426 17.692,-15.695 -0.779,-2.396 -1.64,-4.797 -2.666,-7.195 -3.579,-8.584 2.856,-17.166 5.713,-25.04 z" id="_x36_42" class="area" title="سنندج"></path><path fill="#e8d0e5" stroke="#020202" stroke-width="0.2" stroke-miterlimit="10" d="m 426.723,276.194 c -0.713,-1.438 -1.427,-3.584 -0.713,-4.293 6.505,-5.916 8.124,-14.771 11.728,-22.512 -11.468,-8.385 -21.611,-12.916 -35.332,-16.836 -5.727,-1.434 -7.873,-9.299 -12.879,-11.443 -3.121,-1.424 -6.473,-2.158 -9.909,-2.766 0.04,1.639 -0.16,3.275 -0.819,4.91 -0.712,2.863 -5.009,5.723 -5.719,8.584 -4.293,15.738 -15.021,25.041 -25.041,37.203 -2.859,3.576 -2.144,9.295 -7.869,11.445 -0.716,0.709 0.717,2.865 0.717,3.574 5.721,2.863 5.01,7.869 1.426,11.445 5.012,3.576 7.16,10.021 5.012,15.021 -2.864,7.873 -9.296,16.455 -5.721,25.041 1.024,2.398 1.888,4.797 2.666,7.195 6.242,-5.602 12.832,-8.52 20.938,-0.043 5.007,5.01 16.452,2.143 17.886,8.586 1.471,6.381 2.604,12.762 5.949,17.758 2.344,-5.084 6.063,-8.594 11.1,-8.594 h 0.688 c -1.979,-3.395 -3.584,-6.482 -1.28,-9.164 6.437,-7.869 0.709,-15.738 6.437,-24.324 0.717,-1.426 2.143,-2.143 2.863,-2.859 7.151,-2.145 19.314,0 20.748,-10.012 1.426,-11.449 7.865,-20.748 5.716,-32.197 -0.006,-2.142 -5.729,-2.859 -8.592,-5.719 z" id="_x36_50" class="area" title="دهگلان"></path><path fill="#fbd1d1" stroke="#020202" stroke-width="0.2" stroke-miterlimit="10" d="m 280.072,224.681 c 1.436,0 2.864,0.719 4.294,-0.713 4.293,-2.857 6.437,-10.729 10.012,-7.869 7.869,7.152 16.455,0.715 25.041,6.443 3.576,2.859 3.576,7.869 7.869,8.578 13.596,2.146 26.469,-2.861 30.047,-16.451 0.429,-1.09 0.867,-2.029 1.343,-2.893 -3.938,-3.619 -4.745,-9.262 -6.354,-15.702 -1.434,-5.01 -10.725,-4.293 -12.875,-9.303 -5.003,-12.871 12.161,-16.451 19.314,-24.315 7.147,-8.586 17.886,-10.021 25.754,-17.173 2.867,-2.143 3.576,-7.153 6.438,-9.296 9.295,-7.152 18.603,-15.734 11.449,-27.184 -10.021,-17.172 -32.193,-17.887 -49.361,-25.042 -6.791,-2.826 -14.463,-7.898 -14.9,-15.556 -7.681,-2.449 -12.515,-7.008 -13.771,-13.297 -1.229,-6.135 -5.126,-6.969 -14.616,-8.428 -1.174,-0.18 -2.408,-0.369 -3.682,-0.581 -7.68,-1.284 -13.457,-2.593 -18.459,-7.014 -0.468,1.11 -1.031,1.956 -1.806,1.956 -12.163,4.289 -21.462,14.309 -20.032,27.184 0.71,5.006 6.438,5.006 10.014,7.865 0.716,1.438 -0.719,3.584 -2.145,4.294 1.426,1.433 3.576,0.716 3.576,0.716 3.576,14.307 -7.869,25.752 -15.738,37.197 -0.714,2.15 0,4.292 2.143,6.441 0.718,1.428 0.718,3.572 0,4.289 -13.588,10.727 -35.767,0.715 -42.918,17.887 -5.724,14.301 8.582,32.186 0,41.488 -0.076,0.104 -0.156,0.188 -0.237,0.28 5.188,8.535 11.095,15.608 15.976,24.749 2.863,5.723 8.587,8.586 12.163,13.596 0.859,1.145 1.608,2.174 2.329,3.139 6.978,-2.686 13.676,-6.691 20.559,-8.859 2.855,-0.715 5.719,2.146 8.573,3.574 z" id="_x36_40" class="area" title="دیواندره"></path><path fill="#fbd1d1" stroke="#020202" stroke-width="0.2" stroke-miterlimit="10" d="m 252.174,328.407 c -15.735,-6.438 -33.62,-2.146 -47.925,-12.16 -15.738,-11.447 -20.032,-38.627 -42.202,-38.627 -2.146,0 -3.577,-6.436 -5.724,-6.436 -9.295,0.713 -15.737,6.436 -25.75,7.867 -7.184,0.602 -14.356,9.705 -17.771,19.367 l 9.866,8.629 5.239,5.99 1.871,7.49 -0.748,1.117 -1.123,2.625 -2.621,2.992 -1.873,3.369 0.75,4.119 2.994,1.871 h 6.59 c -0.176,-0.289 -0.314,-0.609 -0.377,-0.965 -0.252,-1.529 0.787,-2.977 2.312,-3.229 0.11,-0.025 11.06,-1.873 20.021,-5.455 4.946,-1.99 9.112,-2.145 12.711,-0.471 4.175,1.932 7.35,6.324 9.719,13.414 1.456,4.381 6.502,8.141 11.38,11.779 6.443,4.801 13.105,9.766 13.105,17.191 0,0.959 0.015,2.23 0.072,3.723 6.07,-3.023 11.043,-7.676 17.305,-12.008 2.143,-2.145 7.152,0 10.729,-1.428 10.013,-2.865 14.306,-14.313 22.893,-18.602 0.812,-0.377 1.575,-0.605 2.295,-0.729 0.366,-4.378 0.934,-9.099 -3.738,-11.433 z" id="_x36_51" class="area" title="سروآباد"></path><path fill="#fdfad6" stroke="#020202" stroke-width="0.2" stroke-miterlimit="10" d="m 353.044,83.761 c 17.168,7.152 39.342,7.873 49.36,25.045 7.152,11.445 -2.149,20.026 -11.448,27.18 -2.862,2.146 -3.572,7.156 -6.439,9.3 -7.868,7.147 -18.605,8.586 -25.754,17.164 -7.153,7.873 -24.316,11.445 -19.314,24.321 2.15,5.013 11.449,4.288 12.875,9.302 2.144,8.583 2.862,15.735 11.449,18.598 8.586,3.576 17.878,2.863 25.751,6.439 5.009,2.143 7.151,10.012 12.875,11.445 15.024,4.289 25.75,9.305 38.629,19.314 5.72,4.289 15.735,2.859 21.458,-0.717 5.01,-3.576 -0.718,-12.871 5.719,-17.166 8.588,-5.01 17.886,-2.865 27.185,-2.148 1.28,0.428 2.304,1.359 3.222,2.197 1.031,-1.098 2.787,-2.125 5.741,-2.125 13.289,0 37.715,-3.936 42.948,-9.16 5.478,-5.479 21.938,-20.093 26.449,-24.086 -3.609,-5.191 -7.522,-10.846 -9.334,-13.565 -2.64,-3.965 -9.98,-6.239 -20.125,-6.239 -12.041,0 -14.159,-10.596 -15.859,-19.104 -1.107,-5.525 -1.107,-5.519 -8.486,-5.324 -1.605,0.044 -3.46,0.092 -5.609,0.092 -3.27,0 -5.854,-1.104 -7.687,-3.283 -4.454,-5.295 -2.726,-15.264 -1.46,-22.541 0.37,-2.104 0.717,-4.117 0.717,-5.066 0,-5.88 1.705,-13.201 15.022,-17.641 1.411,-0.469 2.341,-1.311 2.918,-2.627 2.121,-4.881 -1.068,-14.172 -2.611,-17.653 -1.558,-2.376 -3.576,-8.943 -2.654,-12.638 0.49,-1.975 0.309,-5.811 0.22,-7.649 -0.029,-0.614 -0.052,-1.097 -0.052,-1.382 0,-3.893 -0.116,-4.813 -0.159,-5.003 -0.045,-0.099 -0.386,-0.886 -0.813,-1.912 -1.097,-2.586 -2.589,-6.138 -3.138,-7.957 -0.526,-1.752 -2.004,-4.765 -2.779,-5.986 -1.807,-0.317 -7.196,-0.994 -16.25,-0.994 -10.736,0 -23.703,-3.222 -38.549,-9.592 -3.115,-1.334 -6.642,-3.229 -10.378,-5.231 -8.513,-4.575 -19.11,-10.259 -24.339,-8.433 -1.259,0.438 -2.144,1.338 -2.779,2.83 -1.817,4.252 -4.68,7.111 -8.505,8.511 -4.675,1.709 -9.654,0.733 -12.784,-0.263 -0.475,7.453 -1.989,14.993 -5.098,20.177 -6.077,10.131 -25.82,20.086 -39.852,20.086 -5.857,0 -10.963,-0.713 -15.197,-2.07 0.443,7.658 8.115,12.73 14.914,15.554 z" id="_x36_36" class="area active" title="بیجار"></path>
<text xml:space="preserve" style="font-style:normal;font-weight:normal;font-size:14.6667px;line-height:1.25;font-family:sans-serif;fill:#000000;fill-opacity:1;stroke:none" x="52.981686" y="136.5934" id="text1207" class="area" title=""><tspan sodipodi:role="line" id="tspan1205" x="52.981686" y="136.5934" style="font-style:normal;font-variant:normal;font-weight:normal;font-stretch:normal;font-size:14.6667px;font-family:'B Yekan';-inkscape-font-specification:'B Yekan'" rotate="0 0 0 0 0">بانه</tspan></text><text xml:space="preserve" style="font-style:normal;font-weight:normal;font-size:14.6667px;line-height:1.25;font-family:sans-serif;fill:#000000;fill-opacity:1;stroke:none" x="439.22833" y="134.01114" id="text1207-5" class="area" title=""><tspan sodipodi:role="line" id="tspan1205-5" x="439.22833" y="134.01114" style="font-style:normal;font-variant:normal;font-weight:normal;font-stretch:normal;font-size:14.6667px;font-family:'B Yekan';-inkscape-font-specification:'B Yekan'" rotate="0 0 0 0 0 0">بیجار</tspan></text><text xml:space="preserve" style="font-style:normal;font-weight:normal;font-size:14.6667px;line-height:1.25;font-family:sans-serif;fill:#000000;fill-opacity:1;stroke:none" x="366.45178" y="292.61188" id="text1207-1" class="area" title=""><tspan sodipodi:role="line" id="tspan1205-6" x="366.45178" y="292.61188" style="font-style:normal;font-variant:normal;font-weight:normal;font-stretch:normal;font-size:14.6667px;font-family:'B Yekan';-inkscape-font-specification:'B Yekan'" rotate="0 0 0 0 0 0 0">دهگلان</tspan></text><text xml:space="preserve" style="font-style:normal;font-weight:normal;font-size:14.6667px;line-height:1.25;font-family:sans-serif;fill:#000000;fill-opacity:1;stroke:none" x="288.77414" y="143.39577" id="text1207-7" class="area" title=""><tspan sodipodi:role="line" id="tspan1205-8" x="288.77414" y="143.39577" style="font-style:normal;font-variant:normal;font-weight:normal;font-stretch:normal;font-size:14.6667px;font-family:'B Yekan';-inkscape-font-specification:'B Yekan'" rotate="0 0 0 0 0 0 0 0 0">دیواندره</tspan></text><text xml:space="preserve" style="font-style:normal;font-weight:normal;font-size:14.6667px;line-height:1.25;font-family:sans-serif;fill:#000000;fill-opacity:1;stroke:none" x="138.24666" y="309.24191" id="text1207-6" class="area" title=""><tspan sodipodi:role="line" id="tspan1205-65" x="138.24666" y="309.24191" style="font-style:normal;font-variant:normal;font-weight:normal;font-stretch:normal;font-size:14.6667px;font-family:'B Yekan';-inkscape-font-specification:'B Yekan'" rotate="0 0 0 0 0 0 0 0">سروآباد</tspan></text><text xml:space="preserve" style="font-style:normal;font-weight:normal;font-size:14.6667px;line-height:1.25;font-family:sans-serif;fill:#000000;fill-opacity:1;stroke:none" x="170.18073" y="103.45068" id="text1207-4" class="area" title=""><tspan sodipodi:role="line" id="tspan1205-3" x="170.18073" y="103.45068" style="font-style:normal;font-variant:normal;font-weight:normal;font-stretch:normal;font-size:14.6667px;font-family:'B Yekan';-inkscape-font-specification:'B Yekan'" rotate="0 0 0 0">سقز</tspan></text><text xml:space="preserve" style="font-style:normal;font-weight:normal;font-size:14.6667px;line-height:1.25;font-family:sans-serif;fill:#000000;fill-opacity:1;stroke:none" x="266.4884" y="284.75107" id="text1207-15" class="area" title=""><tspan sodipodi:role="line" x="266.4884" y="284.75107" style="font-style:normal;font-variant:normal;font-weight:normal;font-stretch:normal;font-size:14.6667px;font-family:'B Yekan';-inkscape-font-specification:'B Yekan'" rotate="0 0 0 0 0 0 0 0 0 0 0" id="tspan7365">سنندج</tspan></text><text xml:space="preserve" style="font-style:normal;font-weight:normal;font-size:14.6667px;line-height:1.25;font-family:sans-serif;fill:#000000;fill-opacity:1;stroke:none" x="470.06351" y="319.93057" id="text1207-55" class="area" title=""><tspan sodipodi:role="line" id="tspan1205-35" x="470.06351" y="319.93057" style="font-style:normal;font-variant:normal;font-weight:normal;font-stretch:normal;font-size:14.6667px;font-family:'B Yekan';-inkscape-font-specification:'B Yekan'" rotate="0 0 0 0 0">قروه</tspan></text><text xml:space="preserve" style="font-style:normal;font-weight:normal;font-size:14.6667px;line-height:1.25;font-family:sans-serif;fill:#000000;fill-opacity:1;stroke:none" x="151.6972" y="242.53128" id="text1207-10" class="area" title=""><tspan sodipodi:role="line" id="tspan1205-81" x="151.6972" y="242.53128" style="font-style:normal;font-variant:normal;font-weight:normal;font-stretch:normal;font-size:14.6667px;font-family:'B Yekan';-inkscape-font-specification:'B Yekan'" rotate="0 0 0 0 0 0 0">مریوان</tspan></text><text xml:space="preserve" style="font-style:normal;font-weight:normal;font-size:14.6667px;line-height:1.25;font-family:sans-serif;fill:#000000;fill-opacity:1;stroke:none" x="263.87302" y="400.50931" id="text1207-19" class="area" title=""><tspan sodipodi:role="line" id="tspan1205-9" x="263.87302" y="400.50931" style="font-style:normal;font-variant:normal;font-weight:normal;font-stretch:normal;font-size:14.6667px;font-family:'B Yekan';-inkscape-font-specification:'B Yekan'" rotate="0 0 0 0 0 0 0 0 0">کامیاران</tspan></text></svg>
