<?xml version="1.0" encoding="UTF-8"?><svg id="Layer_1" xmlns="http://www.w3.org/2000/svg" viewBox="0 0 1598.98 1010.72"><defs><style>.cls-1{fill:#fbd1d1;}.cls-1,.cls-2,.cls-3,.cls-4{stroke:#020202;stroke-miterlimit:25.65;stroke-width:.51px;}.cls-2{fill:#fdfad6;}.cls-3{fill:#dbeccb;}.cls-4{fill:#e8d0e5;}</style></defs><path id="_767" class="cls-1" d="m446.44,716.89c3.8-1.8,1.8-5.6,1.8-7.7-7.7-13.1-20.8-22.8-15.1-38,3.8-5.6,11.3-1.8,13.3-3.8,13.3-15.1,0-39.8,19-47.2,22.8-9.5,45.4,5.6,70,2.1,3.8-2.1,9.5-3.8,9.5-7.7,0-20.8-24.6-34.1-32.1-51-7.4-13.1,11.3-13.1,20.8-16.9,7.7-5.6,9.5-16.9,3.8-20.8-15.1-16.9-51-7.7-58.7-30.3-7.7-20.8,11.3-45.4-1.8-66.2-15.1-24.6-49.3-32.1-60.5-58.7-12.1-28-27.7-63.6-60.8-55.9.8,5.6.3,12.8-4.9,20.5-5.1,7.4-13.6,12.8-19.8,16.9-1.8,1.3-4.4,2.8-5.1,3.6-.3.5-1.5,2.3-3.6,4.9-3.8,5.4-15.6,21-17.2,25.1-1,7.4-13.9,16.2-38.7,25.4-18.5,6.9-46.9,6.9-55.4,0-1.5-1.3-4.4-2.1-16.7,5.9-10,6.4-20.3,3.6-27.2-.3-4.1,4.1-11,9.7-19,12.1-8.2,2.3-22.8,1.8-32.1,1,0,4.9-1.3,10.8-6.4,13.9-2.6,1.5-10,9.7-16.4,17.2,1,4.4,2.3,9.7,3.3,11.8,3.1,6.4-.8,16.7-3.3,22.3l-2.1,4.6-19-2.8c-4.6,0-18.2-.5-24.9-5.9-2.8-2.1-5.1-4.4-7.4-6.4s-4.6-4.1-6.9-5.6c-2.6-1.3-15.6-1-24.4,1-1.3.3-1.8.8-3.3,5.9-.8,3.1-1.8,6.7-4.1,10.3-1.5,2.3-1.3,4.6,4.6,12.8,5.1,7.2,14.1,16.2,14.1,16.2l18.5,17.4c14.6,8.5,36.7,21,41.6,22.3,6.4,1.8,12.3,7.4,14.9,14.4,2.3,6.2,1.8,12.6-1.5,18-3.3,5.1-3.1,6.4,2.3,11.8,3.1,3.1,20.8,8,35.4,10.3,11,2.8,17.4,5.9,20,9.5,2.3,2.8,20.5,17.2,26.2,20.5,5.6,3.3,11.8,7.2,17.2,16.4.8,1.3,1.3,2.6,2.1,3.8,3.6,6.9,5.4,9.5,10,10,7.4.8,32.8,11.5,62.9,24.6,8.5,3.6,15.1,6.7,17.7,7.7,8.7,3.3,17.4,13.9,20.8,18.5,5.1,1.8,16.4,5.9,20.5,9.2,1.5,1,3.3,3.3,5.6,5.9,10-6.2,19.2-13.3,27.2-21,23-20.7,55-2,85.3-7.6Z"/><path id="_755" class="cls-4" d="m787.14,703.79c-16.9-22.8-49.3-16.9-75.7-24.6-1.8-1.8-5.6-3.8-5.6-7.7,1.8-16.9,13.3-34.1,5.6-51-5.6-9.5-19-19-32.1-13.1-15.1,7.7-45.4,26.4-52.8,1.8-5.6-20.8-20.8-32.1-35.9-43.6-16.9-11.3-38,0-54.9-5.6-5.6-1.8-10.8-5.4-15.1-9.5-6.9,2.1-12.1,5.1-7.4,13.3,7.4,16.9,32.1,30.3,32.1,51,0,3.8-5.6,5.6-9.5,7.7-24.6,3.8-47.2-11.3-70-1.8-19,7.7-5.6,32.1-19,47.2-1.8,1.8-9.5-1.8-13.3,3.8-5.6,15.1,7.4,24.6,15.1,37.7,0,1.8,1.8,5.6-1.8,7.7-30.3,5.6-62.3-13.3-85.2,7.7-8,7.7-17.2,14.9-27.2,21,5.9,7.4,13.3,19,15.4,24.9,1.3,4.1,5.9,8,9.7,9.7.8.5,1.8.8,2.8,1.3,5.9,2.8,14.4,6.4,18,12.8,1.8,2.8,12.3,10.5,17.2,14.1,2.6,1.8,4.9,3.6,6.4,4.9,3.3,2.3,26.9,11.5,47.2,18.7l22.3,2.6c3.6,1.5,21.8,9.2,28,15.4,3.3,3.3,6.2,7.2,8.7,10.5,2.1,2.8,4.1,5.4,5.9,7.2,1.8,1.5,7.7,4.6,12.8,7.2,5.1,2.6,11,5.6,16.4,8.7.3.3,32.8,20.5,40.3,37.5,2.6,5.9,14.6,9.5,22.3,11,7.4-6.7,32.6-29.5,47.2-48.7,20.3-26.9,74.4-32.3,103.9-29.2,12.1,1.3,32.1,1.8,52.8,2.1-2.3-7.4-3.8-14.9-3.8-21.8-1.8-46,11.3-89.3-20.8-130.9Z"/><path id="_754" class="cls-2" d="m804.04,385.99c-19,19-47.2,7.7-73.9,11.3-3.8,0-7.7,3.8-9.5,7.4-7.7,15.1-3.8,35.9-19,45.4-16.9,9.5-35.9,5.6-52.8,16.9-15.1,11.3-9.5,30.3-16.9,41.6-7.7,15.1-32.1,15.1-39.8,28.5-3.6,7.7-6.7,16.2-10.5,24.4,2.8.8,5.9,2.1,8.5,3.8,15.1,11.3,30.3,22.8,35.9,43.6,7.7,24.6,38,5.6,52.8-1.8,13.3-5.6,26.4,3.8,32.1,13.1,7.7,16.9-3.8,34.1-5.6,51,0,3.8,3.8,5.6,5.6,7.7,26.4,7.4,58.7,1.8,75.7,24.6,32.1,41.6,19,85.2,20.8,130.6,0,6.9,1.3,14.4,3.8,21.8,29.8.3,61.1-.5,72.9-2.1,26.4-3.8,47.7,2.3,67.5,19.2,10,8.5,34.9,13.6,58.5,16.4-.3-1.5-1-3.1-2.1-4.4-26.4-34.1-38-66.2-3.8-98.3,1.8-1.8-9.5-9.5-13.3-15.1v-9.5c5.6-13.3,32.1-1.8,26.4-20.8-3.8-5.6-15.1-9.5-9.5-19,13.3-20.8,30.3-39.8,15.1-66.2-4.9-8.5-.5-16.9,6.2-22.3-9.2-4.9-17.2-11.5-12.1-19.2,7.7-11.3,26.4,0,34.1-13.3,3.8-13.1,0-28.5,5.6-38,13.1-22.6,3.8-47.2-13.3-60.5-23.3-21.5-69-33.1-65.2-63.4-13.6-15.6-17.7-37.7-31.3-55.7-33.1-49-101.3-37.5-142.9,2.3Z"/><path id="_103" class="cls-3" d="m639.64,416.19c-11.3-3.8-19,3.8-22.8,11.3-3.8,3.8-1.8,11.3-7.7,13.1-13.3,3.8-22.8-13.1-32.1-15.1-22.8-2.1-51,5.6-64.4-19-3.8-9.5,0-19-1.8-28.5-1.8-5.6-7.4-13.3-13.3-13.3-26.4-1.8-41.6-16.9-60.5-34.1-12.3-10.8-29.2-1.5-33.6,13.1,4.9,8.7,9,18,12.6,26.7,11.3,26.4,45.4,34.1,60.5,58.7,13.3,20.8-5.6,45.4,1.8,66.2,7.4,22.8,43.6,13.3,58.7,30.3,5.6,3.8,3.8,15.1-3.8,20.8-3.6,1.5-8.7,2.3-13.3,3.6,4.4,4.4,9.5,7.7,15.1,9.5,14.4,4.9,31.3-2.3,46.2,1.8,3.6-8.2,6.9-16.7,10.5-24.4,7.4-13.3,32.1-13.3,39.8-28.5,7.7-11.3,1.8-30.3,16.9-41.6,9-5.9,18.5-7.7,28-9.5-1.5-1.3-3.1-2.8-5.1-3.8-13-10.8-16.6-29.8-31.7-37.3Z"/><path id="_396" class="cls-4" d="m804.04,346.19c-9.5-16.9-5.6-41.6-16.9-56.7-12.8-14.6-45.1-8-45.4-31.8-14.1,13.6-33.9,22.3-51,22.3-43.6,0-79.5,3.8-109.8,43.6-20.8,28.5-52.8,9.5-79.5-1.8-5.6-1.8-15.1-1.8-16.9,1.8-10.3,10.3-20.3,17.7-30.5,22.3,12.6,10.3,25.4,18,43.6,19.2,5.6,0,11.3,7.7,13.3,13.3,1.8,9.5-1.8,19,1.8,28.5,13.3,24.6,41.6,16.9,64.4,19,9.5,1.8,19,19,32.1,15.1,5.6-1.8,3.8-9.5,7.7-13.1,3.8-7.7,11.3-15.1,22.8-11.3,15.1,7.7,19,26.4,32.1,37.7,2.1,1,3.8,2.3,5.1,3.8,8.5-1.5,16.9-3.1,25.1-7.4,15.1-9.5,11.3-30.3,19-45.4,1.8-3.8,5.6-7.4,9.5-7.4,26.4-3.8,54.9,7.4,73.9-11.3,7.4-7.2,15.9-13.3,24.6-18.5-10.4-6-19.1-12.1-25-21.9Z"/><path id="_747" class="cls-3" d="m1071.84,291.09c-.8-5.4-1.5-11.3-.3-18.5,1.8-11.3-3.3-29.5-6.9-39.5-7.4,2.8-13.9,5.4-18.5,6.9-3.1,1-6.9,1.5-11,1.5-18.7,0-45.9-9.2-54.4-21.8-4.4-6.4-12.1-16.4-19.8-26.2-7.7-10-15.6-20.3-20.3-27.2-4.1-6.4-24.6-4.4-39.8-2.8-7.7.8-14.9,1.5-21.5,1.5-22.8,0-38.7,5.1-42.3,29.8-1,7.4-4.9,13.3-11,17.7-18.7,13.3-55.9,8-65.9,6.2,0,14.9-7.7,28.7-18.7,39.2.3,23.6,32.6,16.9,45.4,31.8,11.3,15.1,7.7,39.8,16.9,56.7,5.6,9.7,14.6,16.2,24.6,21.3,40.3-23.3,91.3-23.9,119.3,16.4,13.6,18.2,17.7,40,31.3,55.7.3-1.5.5-3.1,1-4.6,5.6-20.8,24.6-38,35.9-56.7,2.3-4.4,5.1-8,8.5-10.5-.5-.8-.8-1.8-1-2.8-3.3-12.6,11.5-24.4,26.9-36.7,5.4-4.4,10.5-8.5,14.1-11.8,9.6-9.7,8.8-16.1,7.5-25.6Z"/><path id="_763" class="cls-2" d="m501.34,321.59c26.4,11.3,58.7,30.3,79.5,1.8,30.3-39.8,66.2-43.6,109.8-43.6,30.8,0,69.5-27.4,69.8-61.6-1-.3-1.5-.3-2.1-.5l-1-.3c-2.3-1-58.7-22.6-85.7-40.5-29-19.2-38.5-57-43.1-74.9-1.3-5.4-5.4-21.5-46.9-21.5-34.6,0-45.1-11-59-34.4-5.4-9-6.2-18-4.6-25.7h-53.9l-12.6-7.4-14.6,3.3L410.74.39c-4.1,13.6-8.7,29.8-9.5,34.1-.8,5.4-9.5,45.4-23.6,56.4-4.4,3.6-11.3,11.5-17.7,19.2-9.2,11-18.2,21.5-25.1,25.7-7.7,4.6-22.3,21.8-29,30v16.7c2.6,8.5,5.6,16.9,7.2,18.7,3.1,3.1,13.6,14.6,16.2,18.7,2.6,3.6,12.6,21.8,16.2,30,.5,1,.8,2.1,1,3.1,2.1,1.5,3.1,4.4,2.3,6.9-.3.8-.5,1.3-1,2.1.3,6.2-.3,12.1-.5,14.9,1,4.9,5.4,23.3,6.4,29.2.3,1,.3,2.1.5,3.1.3,1.5.8,3.6,1,5.9,23.1-5.4,37.5,10.3,48.2,29.2,4.1-14.9,21.3-23.9,33.6-13.1,5.9,5.1,11.3,10.3,16.9,14.9,10.3-4.6,20.3-12.3,30.5-22.3,1.9-4.3,11.4-4.3,17-2.2Z"/><path id="_760" class="cls-1" d="m1212.94,466.49c-10.3-2.1-18-5.4-19-5.9l-1.8-.8-1-1.5c-2.3-3.3-22.1-31.8-22.1-51.3,0-5.1,0-16.9-29-16.9-21,0-39,0-90-9-9.2-1.5-21.5-4.9-25.9-13.3-3.3,2.8-6.2,6.2-8.5,10.5-11.3,19-30.3,35.9-35.9,56.7-9.5,34.1,39.8,45.4,64.4,68,16.9,13.3,26.4,38,13.3,60.5-5.6,9.5-2.1,24.6-5.6,38-7.7,13.3-26.4,1.8-34.1,13.3-5.1,7.7,2.8,14.6,12.1,19.2,3.8-3.1,8.5-5.4,12.6-6.2,28.5-9.5,54.9,9.5,79.5,19,16.9,5.6,32.1-13.3,49.3-19,.5,0,1-.3,1.5-.3,5.1-14.6,13.9-29.8,8-43.4-9.5-20.8,9.5-34.1,19-47.2,9.5-11.3-7.4-26.4-1.8-41.6,1.8-3.8,11.3-5.6,9.5-7.4-4-7.3,1.9-13.9,5.5-21.4Z"/><path id="_741" class="cls-4" d="m1399.74,425.49c.5-4.6.8-9,.8-12.6,0-1.3-.3-2.1-1-2.6-4.9-4.6-23.1-3.8-35.1-3.1-4.9.3-9.5.5-13.6.5-20.5,0-36.9,0-59-9.5-2.3-1-3.8-1.3-5.1-.8-3.8,1.8-7.4,12.3-10.8,22.6-2.8,8.7-6.2,18.5-11,28.2-10.8,21.8-34.9,21.3-52.1,18-3.6,7.4-9.7,14.1-5.9,21.5,1.8,1.8-7.7,3.8-9.5,7.7-5.6,15.1,11.3,30.3,2.1,41.6-9.5,13.3-28.5,26.4-19,47.2,5.9,13.6-2.8,28.7-8,43.4,9.2-1.5,19.8-1.5,26.9,2.1,26.4,15.1,47.2,47.2,79.5,37.7,24.6-7.7,32.1-32.1,47.2-54.9,9.5-13.3,22.8-16.9,38-19-3.8-19-34.1-26.4-26.4-43.6,5.6-9.5,28.5-1.8,38-13.3,9.5-13.3-5.6-26.4-15.1-37.7-2.1-3.8,0-11.3,3.8-15.1,9.5-7.7,22.6-3.8,34.1,1.8,4.4,1.5,9,1.3,13.9.5-16.6-16-14.3-41.6-12.7-60.6Z"/><path id="_10" class="cls-3" d="m1594.14,597.09c-6.9,3.8-18.5,9.7-24.9,12.1-3.8,1.3-8.5,1.5-13.9,1.5-4.4,0-9.5-.3-14.9-.5-6.4-.3-13.3-.8-20.8-.8-22.1,0-26.4-23.6-28.7-36.4-.5-2.8-1-5.1-1.3-6.7-2.6-7.4-6.9-28.2-8.5-36.2-10.8-5.6-48.2-25.1-66.7-41-1-.8-2.1-1.8-2.8-2.8-4.6.8-9.5,1-13.9-.5-11.3-5.6-24.6-9.5-34.1-1.8-3.8,3.8-5.6,11.3-3.8,15.1,9.5,11.3,24.6,24.6,15.1,37.7-9.5,11.3-32.1,3.8-37.7,13.3-7.4,16.9,22.6,24.6,26.4,43.6-15.1,1.8-28.5,5.6-38,19-15.1,22.6-22.8,47.2-47.2,54.9-32.1,9.5-52.8-22.6-79.5-38-7.4-3.8-19-3.8-28.2-1.8-16.9,5.6-32.1,24.6-49.3,19-24.6-9.5-51-28.5-79.5-19-11.3,1.8-26.4,15.1-19,28.5,15.1,26.4-1.8,45.4-15.1,66.2-5.6,9.5,5.6,13.3,9.5,19,5.6,19-20.8,7.7-26.4,20.8v9.5c3.8,5.6,15.1,13.3,13.1,15.1-34.1,32.1-22.8,64.4,3.8,98.5,1,1.3,1.8,2.8,2.1,4.4,15.9,1.8,31.3,2.8,41,2.8,16.2,0,50,9.5,73.4,18.2,22.6,8.5,54.9,8.5,68.8,8.5,2.1,0,4.6,0,7.7-.3,18.7-.5,50.3-1.3,67.2,10.3,20,13.3,31.8,26.2,40.8,44.1l2.3,4.6c3.6,6.9,9.5,19,16.7,32.3.5-.5,1-1,1.8-1.3.3-.3,29.5-14.9,46.7-26.2,15.1-10.3,52.3-28.2,64.9-34.1-4.6-14.4-5.4-28.5-5.6-33.1-2.1-5.1-9-22.3-9-33.9,0-6.2.8-17.7,1.5-30,.8-11.5,1.5-23.6,1.5-29.2,0-14.6,15.6-27.4,17.4-29l2.1-1.5,2.6.3c.5,0,47.5,3.1,76.7,3.1,26.9,0,34.1-7.4,42.6-15.9.5-.5.5-1,.5-1.3-.3-7.2-21.8-26.7-35.9-39.5-10.5-9.5-14.9-17.4-14.1-25.4,1.3-11.3,12.6-17.4,24.4-23.9,4.9-2.6,9.7-5.4,13.9-8.5,4.6-3.1,8.5-5.6,12.1-8,12.3-8,17.7-11.3,24.1-30.3,5.3-15,1.7-33.2-1.9-45.5Z"/><g id="G_13"><path id="PATH_14" d="m511.84,189.49c.3.8.3,1.5.3,2.3,0,1-.3,1.8-.5,2.8-.8,1.8-2.1,3.3-4.6,4.4-2.1.8-4.1,1.3-6.4,1.3s-4.1-.5-5.6-1.5c-1.5-1.3-2.3-2.8-2.3-5.1,0-1.3.3-2.3.8-3.8.5-1,.8-1.8,1.3-2.3.3-.3.5-.3.5-.3q.3,0,.3.3v.5c-.8,1.5-1,3.1-1,4.4s.5,2.3,1.3,3.3c1,1.3,2.8,1.8,5.1,1.8,2.6,0,4.9-.5,6.7-1.3,1.5-.8,2.6-1.5,3.1-2.6.3-.3.3-.8.3-1,0-.8-.3-1.5-.5-2.6-.3-.8-1-2.1-2.3-4.1l1-2.1c.3-.3.3-.5.3-.5,0,0,.3,0,.3.3.9,1.7,1.7,3.7,1.9,5.8Zm-7.4-11.3l-2.1,2.1-2.1-2.1,2.1-2.1,2.1,2.1Z"/><path id="PATH_15" d="m522.34,189.69h-1.8c-1.8,0-3.3-.8-3.8-2.3-.5-1-.8-2.8-.8-4.9v-4.8c0-2.3-.3-5.6-.5-10l1.5-1.8c.3-.3.5-.3.5,0,.3,2.3.5,5.6.5,10v7.4c0,2.1,1,3.1,3.1,3.1h1.3v3.3Z"/><path id="PATH_16" d="m536.24,189.69h-1.3c-.8,0-1.8-.3-3.1-.5-1.3-.3-2.3-.8-2.8-1.3-.5.5-1.3.8-2.3,1-1.3.5-2.6.5-3.8.5h-1.8v-3.1h1.3c2.1,0,3.3-.3,3.8-.5-.5-.3-.8-.8-1-1.3-.3-.5-.5-1-.5-1.5,0-1,.5-2.3,1.3-3.8,1-1.5,2.1-2.6,3.3-2.6s2.1.8,2.8,2.1c.5,1,.8,2.3.8,3.6,0,1-.3,1.8-.8,2.3-.3.5-.5.8-1,1,.5.3,1.8.5,3.6.5h1v3.6h.5Zm-4.4-6.6c0-.5-.3-1.3-.8-1.8-.5-.8-1-1-1.8-1-.5,0-1.3.3-1.8.8s-1,1.3-1,1.8.3,1.3,1,1.8c.5.5,1.3.8,1.8,1,.5,0,1.3-.3,1.5-.8.9-.8,1.1-1.3,1.1-1.8Zm-.7-12.6l-2.1,2.1-2.1-2.1,2.1-2.1,2.1,2.1Z"/><path id="PATH_17" d="m542.14,169.49c.3.3.3.5.3.5h-1.3c.3,3.3.3,8.2.3,14.6,0,1.5-.3,2.8-1,3.6-.8,1-2.1,1.5-3.3,1.5h-1.7v-3h1.3c2.1,0,3.1-.8,2.8-2.3-.3-5.4-.5-11-.8-16.7l1.8-1.5c.3-.3.5-.5.5-.5,0,0,0,.3.3.5-.2.7.3,1.7.8,3.3Z"/><path id="PATH_18" d="m557.74,184.29c0,3.6-2.3,5.4-7.2,5.4-1.8,0-3.1-.3-3.8-.8-1-.5-1.5-1.8-1.5-3.3,0-.8.3-1.5.5-2.3.3-.3.3-.5.5-.5s.3.3.3.8v.8c0,1,.5,1.8,1.5,2.1.5.3,1.5.3,2.8.3,3.8,0,5.6-.5,5.6-1.8,0-1.8-2.3-4.4-6.7-7.4l.8-2.6c0-.3.3-.3.3-.3,0,0,.3,0,.5.3,4.4,3.2,6.4,6.5,6.4,9.3Z"/></g><g id="G_19"><path id="PATH_20" d="m887.94,270.29c0,3.6-2.3,5.4-7.2,5.4-1.8,0-3.1-.3-3.8-.8-1-.5-1.5-1.8-1.5-3.3,0-.8.3-1.5.5-2.3.3-.3.3-.5.5-.5s.3.3.3.8v.8c0,1,.5,1.8,1.5,2.1.5.3,1.5.3,2.8.3,3.8,0,5.6-.5,5.6-1.8,0-1.8-2.3-4.4-6.7-7.4l.8-2.6c0-.3.3-.3.3-.3,0,0,.3,0,.5.3,4.4,3.1,6.4,6.5,6.4,9.3Z"/><path id="PATH_21" d="m903.84,275.69h-1c-1,0-1.5-.3-2.1-.5v.8c0,2.3-.8,4.6-2.3,6.9-1.3,2.1-2.6,2.8-3.3,2.8-2.1,0-3.6,0-5.1-.3-.5,0-.8-.3-.8-.3,0,0,.3-.3.8-.3,2.1-.5,4.1-1.5,6.2-3.1,2.1-1.8,3.3-3.6,3.3-5.4,0-1-.8-2.6-2.6-4.4l1.3-2.3c0-.3.3-.3.3-.3l.3.3c.8,1,1.3,1.8,1.8,2.1.8.5,1.8,1,2.8,1h.8v2.8h-.4v.2Z"/><path id="PATH_22" d="m923.84,268.19l-1,2.1c-1.8,0-3.3,0-4.1.3-1,.5-2.6,1-4.6,2.1s-3.6,1.8-4.6,2.1c-1.5.5-3.3.8-4.9.8h-1.8v-3.1h2.1c2.3,0,4.4-.5,6.2-1.3l5.9-2.6c-1-.3-2.6-.8-4.6-1.5-1.8-.8-2.8-1-3.3-1-1,0-2.1.5-3.1,1.3q-.3.3-.5.3c-.2,0-.3,0-.3-.3v-.3c.8-2.6,2.3-3.6,4.4-3.6.8,0,1.8.3,2.8.8,2.1,1,3.6,1.5,4.6,2.1,1.8.5,3.8,1,6.2,1,.5,0,.8,0,.8.3.1,0,.1.3-.2.5Zm-8.4,12.6l-2.1,2.1-2.1-2.1,2.1-2.1,2.1,2.1Z"/><path id="PATH_23" d="m937.44,274.59c0,3.8-1.3,7.2-3.8,9.7-.8.8-1.3,1.3-1.5,1.3-1.5,0-3.1-.3-4.9-.5-.8,0-1-.3-1-.3,0,0,.3-.3,1-.5,2.1-.5,4.1-1.8,5.9-3.3.8-.8,1.5-1.3,2.1-2.3.8-1,1.3-2.1,1.3-2.8v-.8h-3.3c-2.3,0-3.6-1-3.6-2.8,0-1.3.3-2.6,1-4.1.8-1.5,1.8-2.6,2.8-2.6,1.5,0,2.8,1,3.6,3.3.2,1.9.4,3.7.4,5.7Zm-1.8-2c0-.8-.3-1.5-.8-2.3s-1.3-1.3-2.1-1.3c-.5,0-1,.3-1.3.5s-.5.8-.5,1.3c0,1.3.8,1.8,2.6,1.8.3.2,1.1,0,2.1,0Z"/><path id="PATH_24" d="m953.34,275.69h-1c-1,0-1.5-.3-2.1-.5v.8c0,2.3-.8,4.6-2.3,6.9-1.3,2.1-2.6,2.8-3.3,2.8-2.1,0-3.6,0-5.1-.3-.5,0-.8-.3-.8-.3,0,0,.3-.3.8-.3,2.1-.5,4.1-1.5,6.2-3.1,2.1-1.8,3.3-3.6,3.3-5.4,0-1-.8-2.6-2.6-4.4l1.3-2.3c0-.3.3-.3.3-.3l.3.3c.8,1,1.3,1.8,1.8,2.1.8.5,1.8,1,2.8,1h.8v2.8h-.4v.2Z"/><path id="PATH_25" d="m959.54,270.49c0,3.3-1.8,5.1-5.1,5.1h-2.1v-3.1h1.8c2.6,0,3.8-.5,3.8-1.3s-.5-1.8-1.8-3.1l1-2.6c0-.3.3-.3.3-.3,0,0,.3.3.5.5,1.1,1.5,1.6,3.3,1.6,4.8Zm-.8,10.8l-2.1,2.1-2.1-2.1,2.1-2.1,2.1,2.1Z"/></g><g id="G_32"><path id="PATH_33" d="m300.74,550.69h-1c-1.3,0-2.3-.3-2.8-.8-.8-.5-1.3-1.5-1.3-2.6-2.8,2.6-7.2,3.8-13.1,3.8-6.2,0-9.2-1.8-9.2-5.6,0-1.3.5-2.6,1.5-3.8q.3-.3.5-.3t.3.3v.5c-.3.8-.5,1.5-.5,2.3,0,2.6,2.8,3.8,8.5,3.8,6.4,0,10.8-1.3,12.8-4.1.5-.5.8-.8,1-.8.3,0,.3.3.3.5s0,.5-.3,1c0,.5-.3.8-.3,1,0,1.3,1,2.1,2.8,2.1h1v2.6h-.2v.1Zm-15.9-14.9l-2.1,2.1-2.1-2.1,2.1-2.1,2.1,2.1Zm4.4,0l-2.1,2.1-2.1-2.1,2.1-2.1,2.1,2.1Z"/><path id="PATH_34" d="m321.04,545.29c0,1.5-.3,2.8-1,3.8-.8,1-2.1,1.8-3.3,1.8-1.8,0-2.8-.8-3.6-2.1-1,1.5-2.1,2.1-3.6,2.1-1.8,0-3.1-.8-3.8-2.1-1,1.5-2.3,2.1-4.1,2.1h-1.8v-3.1h2.1c1.8,0,3.1-1,3.3-3.1,0-.5.3-.8.5-.8.3,0,.3.3.5.8.3,2.1,1.3,3.1,3.3,3.1,1,0,2.1-.3,2.6-.8.3-.5.5-1,.8-2.1,0-.5.3-.8.5-.8s.3.3.5.8c.3,2.1,1.3,3.1,3.1,3.1,2.1,0,2.8-.5,2.8-1.3s-.5-1.8-1.5-2.8l1.3-2.3c.3-.3.3-.5.5-.5s.3.3.5.5c-.1,1.1.4,2.4.4,3.7Zm-8.8-9.5l-1.8,1.8-1.8-1.8,1.8-1.8,1.8,1.8Zm2.4-3.9l-1.8,1.8-1.8-1.8,1.8-1.8,1.8,1.8Zm2.3,3.9l-1.8,1.8-1.8-1.8,1.8-1.8,1.8,1.8Z"/><path id="PATH_35" d="m341.04,550.69h-1c-1,0-1.8-.3-2.6-1-.5-.5-1-1-1.5-2.1-.5,1-1.3,1.8-2.1,2.3-1,.5-2.3.8-4.4.8-3.6,0-5.4-1.3-5.4-3.8,0-.8.3-1.8.8-2.6.3-.3.3-.5.5-.5.3,0,.3.3.3.5v1.6c0,1.5,1.3,2.3,3.8,2.3,3.6,0,5.4-.8,5.4-2.1,0-.8-1-3.6-3.1-8.5l1-2.1c.3-.3.3-.5.3-.5,0,0,.3.3.3.5.8,2.1,2.1,5.1,3.6,9.2.8,2.1,1.8,3.1,3.3,3.1h.8v2.9h0Z"/><path id="PATH_36" d="m356.64,545.49c0,1-.3,2.1-1,3.1-.8,1.3-1.5,1.8-2.6,1.8-.8,0-2.6-.5-5.4-1.8-2.3,1.5-4.4,2.1-6.2,2.1h-1.5v-3.1h1.5c1,0,2.1,0,3.1-.3-1-.8-1.5-1.8-1.5-3.1,0-1.5,1-3.3,3.3-5.1l-1.8-.8,2.3-2.3c2.3,1.3,4.4,2.3,6.2,3.8,2.3,2.1,3.6,3.9,3.6,5.7Zm-6.6-2c0-.8-.3-1.3-.5-1.8-.3-.8-.8-1-1.5-1-.8,0-1.3.3-2.1.8-.8.5-1.3,1.3-1.3,1.8,0,1,1,2.1,2.8,2.6.5-.3,1-.5,1.5-.8.8-.6,1.1-1.1,1.1-1.6Zm5.3,3.1c0-.8-.5-1.5-1.5-2.6-.8-.8-1.5-1.5-2.3-1.8,0,2.1-.5,3.6-1.8,4.6,2.1.8,3.6,1,4.1,1,1,0,1.5-.5,1.5-1.2Z"/><path id="PATH_37" d="m372.54,550.69h-2.8c-.3,3.6-1.5,6.4-4.1,9-.8.8-1.3,1.3-1.5,1.3-1.3,0-3.1-.3-4.9-.5-.5,0-1-.3-1-.3,0,0,.3-.3,1-.5,2.1-.5,4.1-1.8,5.9-3.1.8-.8,1.5-1.3,2.1-2.3.8-1,1.3-2.1,1.3-2.8v-.8h-3.3c-2.6,0-3.6-1-3.6-3.1,0-1.3.3-2.6,1-4.1.8-1.5,1.8-2.6,2.8-2.6,1.3,0,2.3.8,3.1,2.6.5,1.3,1,2.6,1,4.1h2.8v3.1h.2Zm-4.6-3.1c0-.8-.3-1.5-.8-2.3-.5-1-1.3-1.3-2.1-1.3-.5,0-1,.3-1.3.5-.5.5-.5.8-.5,1.5,0,1.3,1,1.8,3.1,1.8.3,0,.8,0,1.6-.2Z"/><path id="PATH_38" d="m388.44,527.09c0,.5-.5,1.5-1,2.8l-6.4,2.1c-2.8,1-4.9,1.8-5.9,2.3,2.1,2.1,3.3,3.6,4.1,4.4,1.3,1.8,2.1,3.3,2.3,5.1,0,1.3,0,2.6-.5,3.6-.8,2.3-3.6,3.3-8,3.3h-1.3v-3.1h1.5c2.1,0,3.6,0,4.4-.3,1.8-.5,2.8-1.3,2.8-2.6,0-1.8-1.3-3.8-4.1-6.4l-.3.5c-.3-.3-.8-.8-1.3-1.5-.8-.8-1-1.5-1-1.5,0-.5,0-1,.3-2.1.3-1,.5-1.5.8-1.8s2.1-1,5.4-2.1c2.8-1.2,5.9-2.2,8.2-2.7Z"/></g><g id="G_39"><path id="PATH_40" d="m531.14,472.89c0,1.8-.5,3.1-1.5,4.1s-2.6,1.3-4.1,1.3c-1,0-2.1-.3-2.8-1s-1.3-1.5-1.3-2.6c0-1.3.5-2.6,1.5-4.4.8-1.5,1.8-2.8,2.8-3.8,3.6,1.8,5.4,3.9,5.4,6.4Zm-1.6,1.1c0-.8-.5-1.5-1.8-2.6-1-1-1.8-1.5-2.8-1.8-1.3,1.8-2.1,3.1-2.1,4.1,0,.5.3,1,1,1.5.5.3,1,.5,1.8.5,1,0,2.1-.3,2.8-.5.9-.7,1.1-1,1.1-1.2Z"/><path id="PATH_41" d="m543.94,478.59c0,2.6-.8,4.9-2.3,7.2-1.3,1.8-2.6,2.8-3.3,2.8-2.1,0-3.6,0-5.1-.3-.5,0-.8-.3-.8-.3,0,0,.3-.3.8-.3,2.1-.5,4.1-1.5,6.2-3.1,2.1-1.8,3.3-3.6,3.3-5.4,0-1-.8-2.6-2.6-4.4l1.3-2.3c0-.3.3-.3.3-.3l.3.3c.5.8,1.3,1.8,1.5,3.1.1.9.4,2,.4,3Z"/><path id="PATH_42" d="m557.24,477.29c0,3.8-1.3,7.2-3.8,9.7-.8.8-1.3,1.3-1.5,1.3-1.5,0-3.1-.3-4.9-.5-.8,0-1-.3-1-.3,0,0,.3-.3,1-.5,2.1-.5,4.1-1.8,5.9-3.3.8-.8,1.5-1.3,2.1-2.3.8-1,1.3-2.1,1.3-2.8v-.8h-3.3c-2.3,0-3.6-1-3.6-2.8,0-1.3.3-2.6,1-4.1.8-1.5,1.8-2.6,2.8-2.6,1.5,0,2.8,1,3.6,3.3.2,1.9.4,3.7.4,5.7Zm-1.8-2c0-.8-.3-1.5-.8-2.3s-1.3-1.3-2.1-1.3c-.5,0-1,.3-1.3.5-.5.5-.5.8-.5,1.3,0,1.3.8,1.8,2.6,1.8.3.2,1.1,0,2.1,0Z"/><path id="PATH_43" d="m572.94,472.89c0,3.6-2.3,5.4-7.2,5.4-1.8,0-3.1-.3-3.8-.8-1-.5-1.5-1.8-1.5-3.3,0-.8.3-1.5.5-2.3.3-.3.3-.5.5-.5s.3.3.3.8v.8c0,1,.5,1.8,1.5,2.1.5.3,1.5.3,2.8.3,3.8,0,5.6-.5,5.6-1.8,0-1.8-2.3-4.4-6.7-7.4l.8-2.6c0-.3.3-.3.3-.3,0,0,.3,0,.5.3,4.1,3.2,6.4,6.5,6.4,9.3Z"/></g><g id="G_44"><path id="PATH_45" d="m542.64,759.19h-1c-1,0-1.5-.3-2.1-.5v.8c0,2.3-.8,4.6-2.3,6.9-1.3,2.1-2.6,2.8-3.3,2.8-2.1,0-3.6,0-5.1-.3-.5,0-.8-.3-.8-.3,0,0,.3-.3.8-.3,2.1-.5,4.1-1.5,6.2-3.1,2.1-1.8,3.3-3.6,3.3-5.4,0-1-.8-2.6-2.6-4.4l1.3-2.3c0-.3.3-.3.3-.3l.3.3c.8,1,1.3,1.8,1.8,2.1.8.5,1.8,1,2.8,1h.8v2.8h-.4v.2Z"/><path id="PATH_46" d="m555.24,759.19h-2.1c-2.3,0-3.8-.8-4.9-2.3-.8,1.5-2.6,2.3-5.4,2.3h-1.5v-3.1h2.3c2.6,0,3.8-1,4.1-2.8,0-.8.3-1.3.5-1.3.3,0,.5.5.5,1.3.3,1.8,1.5,2.8,3.8,2.8h2.3v3.1h.4Zm-8.7-15.1l-2.1,2.1-2.1-2.1,2.1-2.1,2.1,2.1Zm4.3,0l-2.1,2.1-2.1-2.1,2.1-2.1,2.1,2.1Z"/><path id="PATH_47" d="m575.24,751.49l-1,2.1c-1.8,0-3.3,0-4.1.3-1,.5-2.6,1-4.6,2.1-2.1,1-3.6,1.8-4.6,2.1-1.5.5-3.3.8-4.9.8h-1.8v-3.1h2.1c2.3,0,4.4-.5,6.2-1.3l5.9-2.6c-1-.3-2.6-.8-4.6-1.5-1.8-.8-2.8-1-3.3-1-1,0-2.1.5-3.1,1.3q-.3.3-.5.3t-.3-.3v-.3c.8-2.6,2.3-3.6,4.4-3.6.8,0,1.8.3,2.8.8,2.1,1,3.6,1.5,4.6,2.1,1.8.5,3.8,1,6.2,1,.5,0,.8,0,.8.3,0,0,0,.3-.2.5Zm-7.2-11.5l-2.1,2.1-2.1-2.1,2.1-2.1,2.1,2.1Z"/><path id="PATH_48" d="m591.14,753.79c0,3.6-2.3,5.4-7.2,5.4-1.8,0-3.1-.3-3.8-.8-1-.5-1.5-1.8-1.5-3.3,0-.8.3-1.5.5-2.3.3-.3.3-.5.5-.5s.3.3.3.8v.8c0,1,.5,1.8,1.5,2.1.5.3,1.5.3,2.8.3,3.8,0,5.6-.5,5.6-1.8,0-1.8-2.3-4.4-6.7-7.4l.8-2.6c0-.3.3-.3.3-.3,0,0,.3,0,.5.3,4.3,3.2,6.4,6.3,6.4,9.3Z"/><path id="PATH_49" d="m626.24,759.19h-1.3c-1.3,0-2.3-.5-2.8-1.3,0,1.5-.3,3.3-.5,5.6-.8,1.8-2.1,3.3-4.1,4.1-1.8.8-3.6,1.3-5.9,1.3s-3.8-.5-5.1-1.3c-1.5-1-2.3-2.6-2.3-4.9,0-2.1.5-4.1,1.8-5.6q.3-.3.5-.3c.2,0,.3,0,.3.3v.3c-.5,1.3-.8,2.6-.8,3.6,0,1.5.5,2.8,1.8,3.8,1,.8,2.3,1.3,4.1,1.3,1.5,0,3.3-.3,5.1-1,2.6-.8,3.6-1.8,3.6-3.1l-.3-12.3c-.3-5.9-.3-10-.5-12.8l2.1-1.8c0,.8.3,3.6.5,8.7l.3,10c0,1.5,1,2.6,3.1,2.6h.8v2.8h-.4Z"/><path id="PATH_50" d="m632.44,754.09c0,3.3-1.8,5.1-5.1,5.1h-2.1v-3.1h1.8c2.6,0,3.8-.5,3.8-1.3s-.5-1.8-1.8-3.1l1-2.6c0-.3.3-.3.3-.3l.5.5c1.1,1.5,1.6,3,1.6,4.8Zm-6.2,10l1.8-1.8,1.8,1.8-1.8,1.8-1.8-1.8Zm2.3,4.1l1.8-1.8,1.8,1.8-1.8,1.8-1.8-1.8Zm2.4-4.1l1.8-1.8,1.8,1.8-1.8,1.8-1.8-1.8Z"/></g><g id="G_51"><path id="PATH_52" d="m801.24,565.29c0,3.6-2.3,5.4-7.2,5.4-1.8,0-3.1-.3-3.8-.8-1-.5-1.5-1.8-1.5-3.3,0-.8.3-1.5.5-2.3.3-.3.3-.5.5-.5s.3.3.3.8v.8c0,1,.5,1.8,1.5,2.1.5.3,1.5.3,2.8.3,3.8,0,5.6-.5,5.6-1.8,0-1.8-2.3-4.4-6.7-7.4l.8-2.6c0-.3.3-.3.3-.3,0,0,.3,0,.5.3,4.1,3.1,6.4,6.5,6.4,9.3Z"/><path id="PATH_53" d="m811.24,570.69h-1.8c-1.8,0-3.3-.8-3.8-2.3-.5-1-.8-2.8-.8-4.9v-4.9c0-2.3-.3-5.6-.5-10l1.5-1.8c.3-.3.5-.3.5,0,.3,2.3.5,5.6.5,10v7.4c0,2.1,1,3.1,3.1,3.1h1.3v3.4h0Z"/><path id="PATH_54" d="m817.44,565.59c0,3.3-1.8,5.1-5.1,5.1h-2.1v-3.1h1.8c2.6,0,3.8-.5,3.8-1.3s-.5-1.8-1.8-3.1l1-2.6c0-.3.3-.3.3-.3l.5.5c1,1.4,1.6,3.2,1.6,4.8Zm-.8,10.7l-2.1,2.1-2.1-2.1,2.1-2.1,2.1,2.1Z"/><path id="PATH_55" d="m827.64,543.19c-1,1-2.6,1.3-4.1,1.3h-2c-.3,0-.5.3-.8.5l-.5.5c-.3,0-.3-.3-.3-.5,0-.3.3-.8.5-1.3.3-.8.5-1,.8-1s.8,0,1.5.3c.8.3,1.3.3,1.5.3,1.5,0,2.6,0,3.3-.3.5,0,.8-.3.8-.3h.3c-.5,0-.5.3-1,.5Zm-1.5,24.4c0,1-.3,2.1-.8,2.8-.3.5-.5.8-.5.8,0,0-.3-.3-.3-1,0-3.1-.5-10.3-1.5-21.8l2.1-2.1.3-.3v.5c.7,3.4.7,10.3.7,21.1Z"/><path id="PATH_56" d="m854.04,565.59c0,.5-.3,1-.8,2.1-.5,1-1,1.5-1.3,1.5-.8,0-1.8-.3-3.1-.5-1.3-.3-2.3-.5-3.1-.5-1.3,0-2.3.3-2.8.5.5,4.4.8,7.7.8,9.7,0,1-.3,2.1-1,3.3-.3.3-.3.5-.3.5v-.3c-.3-4.1-.5-8.2-1-12.3,0-.5.3-1,.8-1.8.5-.5.8-1,1.3-1.3.5-.5,1.3-.5,2.1-.5-.3-.8-.3-1.3-.3-1.8,0-.8.3-1.8,1-2.8.8-1,1.5-1.5,2.6-1.5,1.3,0,2.6.8,3.8,2.1,1.3,1.2,1.3,2.5,1.3,3.6Zm-2,1c-.3-.8-1-1.8-1.8-2.6-1-1-1.8-1.3-2.8-1.3-1.3,0-1.8.5-1.8,1.3,0,.5.3,1,.5,2.1,1.5-.3,3.6,0,5.9.5Z"/><path id="PATH_57" d="m869.94,570.69h-1c-1,0-1.5-.3-2.1-.5v.8c0,2.3-.8,4.6-2.3,6.9-1.3,2.1-2.6,2.8-3.3,2.8-2.1,0-3.6,0-5.1-.3-.5,0-.8-.3-.8-.3,0,0,.3-.3.8-.3,2.1-.5,4.1-1.5,6.2-3.1,2.1-1.8,3.3-3.6,3.3-5.4,0-1-.8-2.6-2.6-4.4l1.3-2.3c0-.3.3-.3.3-.3l.3.3c.8,1,1.3,1.8,1.8,2.1.8.5,1.8,1,2.8,1h.8v2.8h-.4v.2Z"/><path id="PATH_58" d="m890.04,563.19l-1,2.1c-1.8,0-3.3,0-4.1.3-1,.5-2.6,1-4.6,2.1s-3.6,1.8-4.6,2.1c-1.5.5-3.3.8-4.9.8h-1.8v-3.1h2.1c2.3,0,4.4-.5,6.2-1.3l5.9-2.6c-1-.3-2.6-.8-4.6-1.5-1.8-.8-2.8-1-3.3-1-1,0-2.1.5-3.1,1.3q-.3.3-.5.3t-.3-.3v-.3c.8-2.6,2.3-3.6,4.4-3.6.8,0,1.8.3,2.8.8,2.1,1,3.6,1.5,4.6,2.1,1.8.5,3.8,1,6.2,1,.5,0,.8,0,.8.3,0,0,0,.3-.2.5Zm-7.2-11.8l-2.1,2.1-2.1-2.1,2.1-2.1,2.1,2.1Z"/></g><g id="G_59"><path id="PATH_60" d="m1225.54,759.19c0,2.6-.8,4.9-2.3,7.2-1.3,1.8-2.6,2.8-3.3,2.8-2.1,0-3.6,0-5.1-.3-.5,0-.8-.3-.8-.3,0,0,.3-.3.8-.3,2.1-.5,4.1-1.5,6.2-3.1,2.1-1.8,3.3-3.6,3.3-5.4,0-1-.8-2.6-2.6-4.4l1.3-2.3c0-.3.3-.3.3-.3l.3.3c.5.8,1.3,1.8,1.5,3.1.1,1.2.4,2.3.4,3Zm-1.8-13.6l-2.1,2.1-2.1-2.1,2.1-2.1,2.1,2.1Z"/><path id="PATH_61" d="m1238.64,759.19c0,2.6-.8,4.9-2.3,7.2-1.3,1.8-2.6,2.8-3.3,2.8-2.1,0-3.6,0-5.1-.3-.5,0-.8-.3-.8-.3,0,0,.3-.3.8-.3,2.1-.5,4.1-1.5,6.2-3.1,2.1-1.8,3.3-3.6,3.3-5.4,0-1-.8-2.6-2.6-4.4l1.3-2.3c0-.3.3-.3.3-.3l.3.3c.5.8,1.3,1.8,1.5,3.1.1,1.2.4,2.3.4,3Z"/><path id="PATH_62" d="m1254.24,753.79c0,3.6-2.3,5.4-7.2,5.4-1.8,0-3.1-.3-3.8-.8-1-.5-1.5-1.8-1.5-3.3,0-.8.3-1.5.5-2.3.3-.3.3-.5.5-.5.3,0,.3.3.3.8v.8c0,1,.5,1.8,1.5,2.1.5.3,1.5.3,2.8.3,3.8,0,5.6-.5,5.6-1.8,0-1.8-2.3-4.4-6.7-7.4l.8-2.6c0-.3.3-.3.3-.3,0,0,.3,0,.5.3,4.1,3.2,6.4,6.3,6.4,9.3Z"/><path id="PATH_63" d="m1270.14,759.19h-2.8c-.3,3.6-1.5,6.4-4.1,9-.8.8-1.3,1.3-1.5,1.3-1.3,0-3.1-.3-4.9-.5-.5,0-1-.3-1-.3,0,0,.3-.3,1-.5,2.1-.5,4.1-1.8,5.9-3.1.8-.8,1.5-1.3,2.1-2.3.8-1,1.3-2.1,1.3-2.8v-.8h-3.3c-2.6,0-3.6-1-3.6-3.1,0-1.3.3-2.6,1-4.1.8-1.5,1.8-2.6,2.8-2.6,1.3,0,2.3.8,3.1,2.6.5,1.3,1,2.6,1,4.1h2.8v3.1h.2Zm-4.6-3c0-.8-.3-1.5-.8-2.3-.5-1-1.3-1.3-2.1-1.3-.5,0-1,.3-1.3.5-.3.3-.5.8-.5,1.5,0,1.3,1,1.8,3.1,1.8.3-.2.8-.2,1.6-.2Z"/><path id="PATH_64" d="m1287.64,759.19h-1.5c-1.3,0-2.8-.5-4.1-1.8-1-.8-2.1-2.3-3.3-4.1-.3,3.8-2.8,5.9-8,5.9h-1.5v-3.1h1c4.6,0,7.2-1,7.2-2.8,0-1.5-1-3.3-3.3-5.4-1-1-2.1-1.8-3.3-2.8,0-1,.3-1.8.8-2.6.3-.3,4.9-1.8,14.1-4.6,0,.3-.3,1.3-.8,2.8-2.3.5-6.2,1.8-11.3,3.3,2.6,2.8,5.1,5.4,6.9,7.7,1.3,1.3,2.1,2.3,2.8,2.8,1,.8,2.3,1.3,3.6,1.3h1v3.3h-.3v.1Zm-2.8-24.9l-.5,1.8-12.6,4.1.5-1.8,12.6-4.1Z"/><path id="PATH_65" d="m1300.24,759.19h-2.1c-2.3,0-3.8-.8-4.9-2.3-.8,1.5-2.6,2.3-5.4,2.3h-1.3v-3.1h2.3c2.6,0,3.8-1,4.1-2.8,0-.8.3-1.3.5-1.3s.5.5.5,1.3c.3,1.8,1.5,2.8,3.8,2.8h2.3l.2,3.1h0Zm-8.5,5.7l-2.1,2.1-2.1-2.1,2.1-2.1,2.1,2.1Zm4.3-.3l-2.1,2.1-2.1-2.1,2.1-2.1,2.1,2.1Z"/><path id="PATH_66" d="m1306.14,738.69c.3.3.3.5.3.5h-1.3c.3,3.3.3,8.2.3,14.6,0,1.5-.3,2.8-1,3.6-.8,1-2.1,1.5-3.3,1.5h-1.5v-3.1h1.3c2.1,0,3.1-.8,2.8-2.3-.3-5.4-.5-11-.8-16.7l1.8-1.5c.3-.3.5-.5.5-.5,0,0,0,.3.3.5-.5,1.1,0,2.1.6,3.4Z"/><path id="PATH_67" d="m1312.24,755.89c0,1-.3,2.1-.8,2.8-.3.5-.5.8-.5.8,0,0-.3-.3-.3-1,0-3.1-.5-10.3-1.5-21.8l2.1-2.1.3-.3v.5c.7,3.7.7,10.6.7,21.1Z"/></g><g id="G_68"><path id="PATH_69" d="m1267.14,550.39h-1.8c-1.8,0-3.3-.8-3.8-2.3-.5-1-.8-2.8-.8-4.9v-4.9c0-2.3-.3-5.6-.5-10l1.5-1.8c.3-.3.5-.3.5,0,.3,2.3.5,5.6.5,10v7.4c0,2.1,1,3.1,3.1,3.1h1.3v3.4h0Z"/><path id="PATH_70" d="m1273.24,545.29c0,3.3-1.8,5.1-5.1,5.1h-2.1v-3.1h1.8c2.6,0,3.8-.5,3.8-1.3s-.5-1.8-1.8-3.1l1-2.6c0-.3.3-.3.3-.3,0,0,.3.3.5.5,1.1,1.4,1.6,3,1.6,4.8Zm-.2-11.8l-2.1,2.1-2.1-2.1,2.1-2.1,2.1,2.1Z"/><path id="PATH_71" d="m1286.34,550.69c0,2.6-.8,4.9-2.3,7.2-1.3,1.8-2.6,2.8-3.3,2.8-2.1,0-3.6,0-5.1-.3-.5,0-.8-.3-.8-.3,0,0,.3-.3.8-.3,2.1-.5,4.1-1.5,6.2-3.1,2.1-1.8,3.3-3.6,3.3-5.4,0-1-.8-2.6-2.6-4.4l1.3-2.3c0-.3.3-.3.3-.3l.3.3c.5.8,1.3,1.8,1.5,3.1.1.9.4,1.9.4,3Zm-2.1-13.9l-2.1,2.1-2.1-2.1,2.1-2.1,2.1,2.1Z"/><path id="PATH_72" d="m1292.24,547.09c0,1-.3,2.1-.8,2.8-.3.5-.5.8-.5.8,0,0-.3-.3-.3-1,0-3.1-.5-10.3-1.5-21.8l2.1-2.1.3-.3v.5c.7,3.6.7,10.6.7,21.1Z"/></g><g id="G_65"><path id="PATH_66-2" d="m1070.64,482.69c.1,1.8.8,3.3,3.5,3.3,1.7,0,3.1-.5,4.7-1.4.3-.2.4-.3.4-.5,0-1.2-.8-2.7-2-4.1-1.2-1.3-2.9-2.5-4.4-3.2-.5-.3-.7-.5-.7-.8,0-.5.6-1.7,1.1-2.4h.2c1.7,1.1,3.7,2.7,5.1,4.4,1.3,1.6,2.1,3.3,2.1,5.1,0,1.3-.3,2.6-.9,3.8-1.9,1.1-4,2-6,2-2.4,0-4.1-1.4-4.1-4.5,0-.3,0-.9.1-1.6h.9v-.1Z"/><path id="PATH_67-2" d="m1091.44,486.29c-2.5,0-4.7-1.2-4.7-4,0-1.4.5-2.6,1.4-3.7,1-1.1,2.1-1.8,3.1-1.8,1.2,0,2.4.9,3.2,2.4.8,1.5,1.4,3.5,1.4,5.9,0,2-.5,3.9-1.6,5.7-1.9,2.9-3.7,4.1-5.5,4.1-2,0-4-.6-6.2-2.1l.3-.7c1.1.5,2.1.7,3.1.7,2.2,0,4.3-1.1,6.3-3.3,1-1.1,1.9-2.3,2-3.6-.9.3-1.9.4-2.8.4Zm-1-6.8c-1,0-2.4,1.1-2.4,1.9,0,1.3,1.9,2.3,3.7,2.3.8,0,1.7-.1,2.4-.3-.6-2.1-1.8-3.9-3.7-3.9Z"/><path id="PATH_68" d="m1106.64,477.49l1.5,2.9c.6,1.1,1.1,2.2,1.1,4.1v2.4c0,1.9-1,4-2.7,6-1.3,1.4-2.5,2-3.5,2-1.6,0-3.4-.6-5.5-1.7l.2-.7c.7.2,1.4.4,2.4.4,3,0,6.1-2.6,7.5-5.8.2-.4.2-.7.2-.9,0-.4-.2-.8-.3-1.1-.8-1.7-1.6-3.3-2.6-4.7.5-.9,1-1.8,1.5-2.7l.2-.2Z"/><path id="PATH_69-2" d="m1128.64,486.29c-2.5,0-4.7-1.2-4.7-4,0-1.4.5-2.6,1.4-3.7,1-1.1,2.1-1.8,3.1-1.8,1.2,0,2.4.9,3.2,2.4.8,1.5,1.4,3.5,1.4,5.9,0,2-.5,3.9-1.6,5.7-1.9,2.9-3.7,4.1-5.5,4.1-2,0-4-.6-6.2-2.1l.3-.7c1.1.5,2.1.7,3.1.7,2.2,0,4.3-1.1,6.3-3.3,1-1.1,1.9-2.3,2-3.6-.9.3-1.9.4-2.8.4Zm-1-6.8c-1,0-2.4,1.1-2.4,1.9,0,1.3,1.9,2.3,3.7,2.3.8,0,1.7-.1,2.4-.3-.6-2.1-1.8-3.9-3.7-3.9Z"/><path id="PATH_70-2" d="m1137.64,482.69c.1,1.8.8,3.3,3.5,3.3,1.7,0,3.1-.5,4.7-1.4.3-.2.4-.3.4-.5,0-1.2-.8-2.7-2-4.1-1.2-1.3-2.9-2.5-4.4-3.2-.5-.3-.7-.5-.7-.8,0-.5.6-1.7,1.1-2.4h.2c1.7,1.1,3.7,2.7,5.1,4.4,1.3,1.6,2.1,3.3,2.1,5.1,0,1.3-.3,2.6-.9,3.8-1.9,1.1-4,2-6,2-2.4,0-4.1-1.4-4.1-4.5,0-.3,0-.9.1-1.6h.9v-.1Z"/></g><g id="G_71"><path id="PATH_72-2" d="m641.54,355.79c.1.5.3,1.7.7,3.9.3,1.9,1,3.6,2.1,4.3.6.3,1.3.5,2,.5h.3v3.2h-.4c-3,0-4.2-1.3-5.2-5.4l-.6-2.5h-.1c-.7,1.5-2,2.8-3.7,2.7.3,1.3.3,2.3.3,3.4v1.3c0,.5-.4,1.9-1.4,3.3-1.7,2.5-3.6,3.8-4.9,3.8-2.2,0-4.1-.8-6.5-2l.3-.8c.6.3,1.5.6,2.3.6,2.6,0,4.9-1.2,6.8-3.5,1.1-1.3,2-2.6,2-3.5-.6-1.6-1.8-2.9-3.1-4.2l.8-3.2h.2c.6.6,1.3,1.2,1.8,1.6.6.4,1.3.5,2.1.5.6,0,1.2-.2,1.8-.7.8-.6,1.3-2,2.1-3.4h.3v.1Zm-3-2.7c-1-1-1.9-1.8-2.9-2.6.6-.9,1.3-1.7,2-2.4,1,.8,1.9,1.6,2.8,2.7-.7,1.1-1.2,1.7-1.9,2.3Zm4.8-.3c-1-1-1.9-1.8-2.9-2.6.6-.9,1.3-1.7,2-2.4,1,.8,1.9,1.6,2.8,2.7-.7,1-1.2,1.7-1.9,2.3Z"/><path id="PATH_73" d="m672.24,367.79h-.6c-3.1,0-4.5-.9-5.1-2.3h-.1c-1.4,1.6-2.8,2.3-4.3,2.3-1.1,0-2.3-.3-2.7-2.1h-.1c-1.1,1.2-2.5,2.1-4.3,2.1-1.4,0-2.2-.6-2.4-2.1h-.2c-1.5,1.8-3.6,2.1-5.3,2.1h-.4c-1.4,0-1.7-1-1.7-1.7,0-.6.4-1.5,1.7-1.5h.8c2.3,0,4-.6,5.3-2.3l1.2-1.9,1.9-.7.1.1c-.9,1.6-1.6,2.8-1.6,3.6s.6,1.2,1.3,1.2,1.5-.2,2.2-.7c.6-.4,1.2-1.3,1.6-2.2l.6-1.5,1.9-.9.1.1c-.7,1.9-1,2.8-1,3.7,0,.7.4,1.4,1.4,1.4.8,0,1.3-.3,1.7-.5.7-.5,1.1-1.3,1.4-2.4.1-.4.2-.9.5-2l1.9-1.3.1.1c-.3,1.1-.6,2.5-.6,3.4,0,2,1.7,2.7,4.1,2.7h.5v3.3h.1Zm-13.3-12.2c-1-1-1.9-1.8-2.9-2.6.6-.9,1.3-1.7,2-2.4,1,.8,1.9,1.6,2.8,2.7-.7,1-1.2,1.7-1.9,2.3Zm1.4-5.3c-1-1-1.9-1.8-2.9-2.6.6-.9,1.3-1.7,2-2.4,1,.8,1.9,1.6,2.8,2.7-.7,1-1.2,1.7-1.9,2.3Zm3.4,5c-1-1-1.9-1.8-2.9-2.6.6-.9,1.3-1.7,2-2.4,1,.8,1.9,1.6,2.8,2.7-.7,1-1.2,1.7-1.9,2.3Z"/><path id="PATH_74" d="m672.74,364.59c.8,0,1.7-.1,2.8-.7.9-.5,1.3-1.4,1.3-2.7,0-4-.3-8.3-.7-12.9-.1-1.1-.2-2.2-.2-3.1,0-.5.2-1.1.7-1.7.3-.4.8-.9,1.4-1.4l.2.1c0,1.6.7,3.6,2,5.7-.4.4-1,.8-1.6,1.3.1,2.9.3,5.9.3,8.6s-.3,4.8-1,6.3c-.5,1.3-1.1,2.3-2.3,2.9-1,.5-2.1.7-3.1.7h-.4c-1.4,0-1.7-1-1.7-1.7,0-.6.4-1.5,1.7-1.5h.6v.1Z"/><path id="PATH_75" d="m684.54,368.19c.2-1.6.3-3.3.3-5v-2.4c0-4.6-.5-11.2-.9-15.5.7-.9,1.7-1.9,2.4-2.6l.2.1c.5,5.4.6,11.7.6,17.5,0,1.5,0,3-.2,4.1-.1,1.4-.7,2.4-2.2,4l-.2-.2Z"/></g></svg>