<?xml version="1.0" encoding="UTF-8"?><svg id="Layer_1" xmlns="http://www.w3.org/2000/svg" viewBox="0 0 859.9 1017.11"><defs><style>.cls-1{fill:#fff;stroke:#000;stroke-miterlimit:10;stroke-width:.5px;}.cls-2{fill:#fbd1d1;}.cls-2,.cls-3,.cls-4,.cls-5{stroke:#020202;stroke-miterlimit:20.57;stroke-width:.41px;}.cls-3{fill:#fdfad6;}.cls-4{fill:#dbeccb;}.cls-5{fill:#e8d0e5;}</style></defs><path id="_846" class="cls-3" d="m267.74,276.8c14.8-8.4,14.8-26.5,10.7-42.6,28.8-17.1,61.7,1,84.1,24.5,5.3,5.3,14.8,0,22.4,1,2.1,1,5.3,1,7.4,3.3,17.1,28.8,49,27.8,77.8,34.1,14.8,4.3,20.2,19.1,26.5,32.9,1.9,5.6,6,9.3,10.9,12.1l1-2.9,4.1.6c1.2.2,28.8,3.7,53.5,14.2,16.5,7,38.3,12.5,50.4,6.6,4.3-2.1,7-5.3,8.4-10.3,9.5-32.9,41.3-34.1,67.9-31.5,13.4,1.2,33.5,3.3,37-.8.6-.8,1.4-3.1-.8-9.7-5.8-17.3-19.1-57.6,1.2-78.2,3.7-3.7,8.2-8,13.2-12.5-6.2-4.7-11.5-11.1-16.9-16.5-20.2-21.2-55.3-4.3-84.1-10.7-8.4-1-11.7-7.4-18.1-12.8-3.1-2.1-5.3-7.4-10.7-8.4-12.8-2.1-24.5,5.3-36.2,2.1-11.7-4.3-23.5-11.7-37.2-11.7-5.3-1-6.4-10.7-11.7-13.8-14.8-12.8-28.8,7.4-43.6,13.8-3.1,1-8.4,1-10.7-1-11.7-8.4-16-26.5-27.8-30.9-24.5-7.4-53.3-7.4-74.5-27.8-8.4-8.4-21.4,3.3-29.8-2.1-24.5-12.8-49-14.8-74.5-11.7-20,2.7-28.6-13.8-39.1-28-1.9-.4-3.7-.8-5.3-1.4-4.9,10.7-18.3,38.3-29.6,55.1-3.3,4.9-4.3,9.1-3.1,12.8,3.1,9.3,22,15.6,28.2,17.7,6,2.1,10.3,5.6,12.5,10.3,4.7,9.7.4,22.4-3.1,32.5-1,3.1-2.1,6-2.7,8.4-1,4.3-3.1,10.5-5.6,17.7-4.5,14-10.7,32.7-11.7,44.4,6.8,2.1,14.2,1.6,19.5,3.9,13.5,6.6,23,26.9,40.1,17.3h0Z"/><path id="_842" class="cls-5" d="m855.64,709.8c-14.6-10.9-42.6-38.9-50-53.9l-1.6-3.5c-7.4-15-13-24.9-24.9-24.9-4.9,0-12.8-.4-22-1.2-21.8-1.4-54.9-3.7-66.2.8-16.5,6.6-40.9,7.2-46.1,7.2-3.9,1.2-16.9,4.9-25.9-1.2-3.7-2.5-7.8-7.6-7.8-17.7,0-10.9-6.6-19.5-13.6-28.6-1.6-2.3-3.3-4.5-4.9-6.8-1.9.4-3.5,1-5.1,2.3-1,2.1-4.3,2.1-6.4,3.3-9.7,8.4-22.4,1-29.8,14.8-6.4,11.7-4.3,22.4,3.3,32.9,1,2.1-1,5.3,0,7.4,12.8,16,36.2,13.8,51,2.1,2.1-1,6.4-1,9.7,0,12.8,6.4,25.5,11.7,40.5,13.8,4.3,0,9.7,4.3,9.7,8.4,4.3,22.4,3.3,42.6,19.1,60.7,4.3,4.3-2.1,18.1,4.3,24.5,10.7,10.7,22.4,20.2,24.5,34.1,2.1,19.1-1,38.3,12.8,55.3,4.1,4.7,3.3,12.8-.2,18.9,14.2-5.1,32.9-5.8,52,1.4,25.9,9.7,63.8-7,69.5-21.4,3.1-7.4,6.6-25.3,6.6-67.5,0-3.1,1-8.2,2.3-14.8,1.7-12.9,6.8-40.7-.8-46.4h0Z"/><path id="_849" class="cls-5" d="m269.79,745.35c-5.52-6.95-11.05-13.89-16.57-20.84.64-12.09-2.55-19.45-5.77-24.01-7.18-10.16-13.49-15.59-22.4-24.5-2.1-2.1-2.1-6.4-1-8.4,6.4-7.4,13.8-13.8,10.7-23.5-3.3-8.4-13.8-9.7-19.1-6.4-9.7,5.3-16,16-25.5,19.1-14.8,6.4-21.4-7.4-33.1-13.8-12.8-6.4-29.8-7.4-44.6-10.7-13.8-3.9-28,3.9-34.1,15.4,3.9,8.2,8,15.4,11.5,19.7,4.7,6,5.8,13,3.3,20.4-5.3,15.8-25.5,30-37.2,32.9-6.4,1.6-15.4,4.9-24.1,8,2.7,7.4,8,24.3,6,36.2-.6,3.9-.2,7.6.4,11.3,1,8.2,2.3,17.5-8.6,28.4-3.3,3.1-7.4,6.6-11.9,10.1-5.6,4.3-18.3,14.6-17.5,17.9,0,0,1,2.7,12.8,4.7,38.9,6.8,52.7,6.8,68.5,6.8,27.2,0,32.9,12.8,32.9,23.7,0,9.5,9.7,25.7,14.4,32.7,6.2,2.5,32.3,11.3,40.5-5.1,3.15-6.3,2.12-9.6,8-20.6,6.81-12.74,13.54-13.54,18.1-23.2,2.78-5.89,4.76-15.1.62-29.35.56-8.22,1.12-16.43,1.68-24.65,12.57-11.23,25.13-22.47,37.7-33.7,11.45-6.18,22.9-12.37,34.35-18.55Z"/><path id="_519" class="cls-3" d="m269.74,600.3c2.1-4.3,2.1-10.7,0-11.7-14.8-9.7-38.3-11.7-43.6-32.9-3.3-11.7-24.5-17.1-29.8-30.9-4.3-10.7,1-21.2,7.4-31.9,2.5-3.1,1.4-6.6-.4-10.3-6.6-1.4-13-4.7-18.7-9.9-7.4-7.4-18.1,4.3-27.6,0-4.3-2.1-8.4-7.4-13.8-8.4-8.4-3.3-14.8,7.4-23.5,8.4-16,3.3-23.5-17.1-34.1-25.5-.6-.6-1-1-1.6-1.4-4.3,3.3-9.7,5.1-15.8,5.1s-8,4.1-11.9,15.8c-2.7,7.6-5.6,16.3-11.7,23.9-12.1,15.2-6,43.8-6,44.2l17.3,58.6c.2.2,11.1,31.7,22.2,54.7,6.2-11.7,20.4-19.3,34.1-15.4,14.8,3.3,31.9,4.3,44.6,10.7,11.7,6.4,18.1,20.2,33.1,13.8,9.7-3.3,16-13.8,25.5-19.1,4.9-3.1,14.6-2.3,18.5,4.9,4.1-4.5,7.6-9.5,10.3-14.6,5.4-11,20.4-16.3,25.5-28.1h0Z"/><path id="_830" class="cls-4" d="m554.04,640.9c-1-2.3,1-5.3,0-7.4-3.7-5.1-6-10.3-6.8-15.4-23.2-6-43.4-21.6-64.6-36.6-8.4-6.4-21.4,0-31.9-5.3-2.1-1-6.4-2.1-8.4-4.3-9.7-21.2-28.8-19.1-46.9-24.5-9.3-3.1-18.7-8-28.4-12.3-6.4,8-14,15-24.7,16.7-17.1,3.3-31.9-7.4-47.9,0-10.7,4.3-25.5-1-27.8-13.8-1-9.7,7.4-14.8,12.8-22.4,2.3-3.3-1-9.7-2.1-9.7-18.3-4.7-34.8-14.8-37.9-33.1-3.7,2.7-8.4,4.5-12.1,6.4-7.6,4.1-15.8,5.3-23.9,3.5,1.9,3.5,2.9,7.2.4,10.3-6.4,10.7-11.7,21.2-7.4,31.9,5.3,13.8,26.5,19.1,29.8,30.9,5.3,21.2,28.8,23.5,43.6,32.9,2.3,1,2.3,7.4,0,11.7-5.3,11.7-20.2,17.1-25.5,27.8-2.7,5.1-6.2,10.1-10.3,14.4.2.4.4,1,.6,1.4,3.3,9.7-4.3,16-10.7,23.5-1,2.1-1,6.4,1,8.4,8.4,8.4,20.2,14.8,22.4,24.5,4.35,19.18,3.18,24.53,16,39.3,10,11.52,16.91,6.21,31.53,19.51,10.89,9.91,16.13,21.11,21.16,31.87,5.96,12.74,8.88,24.11,10.41,32.02,7.52-.34,15.05-.67,22.57-1.01,11.16,3.05,18.93,1.69,24.03-.19,13.37-4.92,15.41-15.48,29.8-20.2,6.4-2.1,13.8,2.1,19.1-1,11.7-6.4,20.2-17.1,32.9-25.5,6.8-3.7,14-9.1,17.7-16.9-1.4-5.6-.4-11.7,4.5-16.3,10.7-10.7,27.8-8.4,41.6-12.8,24.28-7.74,31.83-41.77,34.1-51,3.87-15.72,2.67-29.19,1.3-37.3Z"/><path id="_831" class="cls-5" d="m119.84,472.6c8.4-1,14.8-11.7,23.5-8.4,5.3,1,9.7,6.4,13.8,8.4,9.7,4.3,20.2-7.4,27.6,0,12.8,11.7,28.8,13.8,42.6,6.4,3.9-1.9,8.4-3.9,12.1-6.4-.4-2.1-.6-4.1-.6-6.4-1-9.7-13.8-8.4-18.1-16-1-2.1-1-5.3,0-7.4,2.1-3.3,4.3-6.4,7.4-7.4-6.4-16-2.1-26.5,12.8-38.3,3.3-2.1,0-8.4-1-12.8-3.3-12.8,14.8-23.5,16-31.9,2.7-17.5,3.9-34.4,9.5-51-1.2-1.4-2.5-3.5-3.1-6.6-1.9-5.3,3.1-10.7,2.3-16.7-15.2,5.8-24.3-12.5-36.4-18.5-5.6-2.3-12.8-1.9-19.5-3.9,0,.8-.2,1.6-.2,2.5,0,9.9-6.2,32.9-64.2,32.9-31.7,0-48.1,57.2-50.2,64.6.4,6.6,3.5,45.5,3.5,58.4,0,12.1-4.7,24.5-13.6,31.3.6.4,1,1,1.6,1.4,10.7,8.7,18.1,29.1,34.2,25.8h0Z"/><path id="_407" class="cls-2" d="m240.14,384.3c1,4.3,4.3,10.7,1,12.8-14.8,11.7-19.1,22.4-12.8,38.3-3.3,1-5.3,4.3-7.4,7.4-1,2.1-1,5.3,0,7.4,4.3,7.4,17.1,6.4,18.1,16,0,22.4,18.1,34.1,38.3,39.3,1,0,4.3,6.4,2.1,9.7-5.3,7.4-13.8,12.8-12.8,22.4,2.1,12.8,17.1,18.1,27.8,13.8,16-7.4,30.9,3.3,47.9,0,10.9-1.6,18.3-8.6,24.7-16.7-3.5-1.6-7.2-3.3-10.9-4.7-7.4-4.3-18.1-13.8-13.8-24.5,1-5.3,9.7-8.4,10.7-12.8.4-4.7,1.9-8.8,3.5-12.3-14.4,2.5-16.3-15.8-16.3-28,0-2.1-4.3-3.3-4.3-5.3-2.1-10.7,12.8-8.4,17.1-16,1-3.3-4.3-7.4-2.1-9.7,12.8-10.7,20.2-21.2,6.4-34.1-1-1-1-4.3,0-6.4,6.4-7.4,10.7-20.2,1-24.5-18.1-7.4-37.2-8.4-54.3-18.1-12.8-7.4-2.1-20.2-3.3-31.9-1-2.1-2.1-5.3-4.3-6.4-10.7-1.9-24.3,8.2-31.1,1.2-5.8,16.7-6.8,33.5-9.5,51-.9,8.7-19,19.4-15.7,32.1h0Z"/><path id="_835" class="cls-3" d="m583.04,556.51c0-23.9-1.4-32.9-15.6-32.9-21.8,0-54.7,0-70.1-23-8.4-12.5-13.8-24.5-16-35.2-15.8-20.2-37.4-35.6-60.1-20.2-16,10.7-26.5,21.2-46.9,23.5-5.3,0-10.7,9.7-16,11.7-.6.2-1.2.2-1.9.4-1.6,3.7-3.1,7.6-3.5,12.3-1,4.3-9.7,7.4-10.7,12.8-4.3,10.7,6.4,20.2,13.8,24.5,13.8,5.3,26.7,12.8,39.5,17.1,18.1,5.3,37.2,3.3,46.9,24.5,2.1,2.1,6.4,3.3,8.4,4.3,10.7,5.3,23.5-1,31.9,5.3,21.2,15.2,41.3,30.9,64.6,36.6-.8-5.6.2-11.5,3.5-17.5,7.4-13.8,20.2-6.4,29.8-14.8,2.1-1,5.3-1,6.4-3.3,1.6-1.2,3.3-2.1,5.1-2.3-4.9-7.3-9.1-14.9-9.1-23.8h0Z"/><path id="_840" class="cls-3" d="m552.04,849.51c-4.3-3.3-7.4-8.4-7.4-12.8-1-34.1-29.8-53.3-59.7-63.8-5.6-2.3-10.5-8.2-11.9-14.6-3.7,7.6-10.9,13-17.7,16.9-12.8,8.4-21.2,19.1-32.9,25.5-5.3,3.3-12.8-1-19.1,1-12.8,3.3-17.1,17.1-29.8,20.2-19.1,3.3-38.3-4.3-55.3,2.1-16.3,6-26.9,19.5-33.3,36.2,2.3.8,4.1,1.9,5.8,3.5,2.7,2.5,3.9,5.8,3.9,9.5,0,3.1-.2,6.6-.6,10.7-1.2,14.2-2.7,31.7,8,40.9,15.4,13.4,51.6,31.5,52,31.7l2.3,1.2.4,2.5c0,.2,4.5,22.8,6.8,29.4.6,1.9,1,4.1,1.4,6.6,2.3,12.8,4.9,19.7,12.1,19.7,6,0,11.7.4,16.9.6,7.8.4,15,.8,18.5-.4,4.3-1.4,13.6-6.4,19.1-9.5l-.4-.8-.6-1.2v-1.2c.2-2.1,4.1-49.2,42.4-56.8,23.7-4.7,40.9-16.5,57.6-27.8,6.6-4.5,13.6-9.3,20.6-13.4,21.4-12.1,45.1-11.7,70.4-11.3,3.5,0,7,.2,10.7.2-17.7-25.5-54.7-25.3-80.2-44.8h0Z"/><path id="_851" class="cls-2" d="m725.44,840.01c-13.8-17.1-10.7-36.2-12.8-55.3-2.3-13.8-13.8-23.5-24.5-34.1-6.4-6.4,0-20.2-4.3-24.5-16-18.1-14.8-38.3-19.1-60.7,0-4.3-5.3-8.4-9.7-8.4-14.8-2.1-27.8-7.4-40.5-13.8-3.3-1-7.4-1-9.7,0-14.2,11.1-36,13.6-49.2,0-1.9,11.5-2.3,23.7-3.1,35-2.1,22.4-11.7,45.9-34.1,51-13.8,4.3-30.9,2.1-41.6,12.8-10.7,9.7-3.3,26.5,7.4,30.9,29.8,10.7,58.6,29.8,59.7,63.8,0,4.3,3.3,9.7,7.4,12.8,25.5,19.5,62.5,19.3,80,44.8h4.7c29.2,0,59.2-9.7,68.7-22.2,4.3-5.8,11.1-10.5,19.7-13.6,4.5-5.9,5.1-13.8,1-18.5h0Z"/><path id="_838" class="cls-4" d="m262.34,294.91c4.3,18.1,21.4,3.3,34.1,5.3,2.3,1,3.3,4.3,4.3,6.4,1,11.7-9.7,24.5,3.3,31.9,17.1,9.7,36.2,10.7,54.3,18.1,9.7,4.3,5.3,17.1-1,24.5-1,2.1-1,5.3,0,6.4,13.8,12.8,6.4,23.5-6.4,34.1-2.1,2.1,3.3,6.4,2.3,9.7-4.3,7.4-19.1,5.3-17.1,16,0,2.1,4.3,3.3,4.3,5.3,0,12.8,2.3,31.9,18.1,27.8,5.3-2.1,10.7-11.7,16-11.7,20.2-2.1,30.9-12.8,46.9-23.5,22.6-15.4,44.2,0,60.1,20.2-2.3-10.5-1.6-20,1.9-28.6,6.6-16.7,13.6-60.9,13.6-61.3l.2-.8,10.7-32.3c-4.9-2.9-8.8-6.6-10.9-12.1-6.4-13.8-11.7-28.8-26.5-32.9-28.8-6.4-60.7-5.3-77.8-34.1-2.3-2.1-5.3-2.1-7.4-3.3-7.4-1-17.1,4.3-22.4-1-22.4-23.5-55.3-41.6-84.1-24.5,4.3,16,4.3,34.1-10.7,42.6-1,.6-2.1,1-3.1,1.4.4,5.7-4.3,11-2.7,16.4h0Z"/><path id="_845" class="cls-2" d="m267.74,86.3c25.5-3.3,50-1,74.5,11.7,8.4,5.3,21.2-6.4,29.8,2.1,21.4,20.2,50,20.2,74.5,27.8,11.7,4.3,16,22.4,27.8,30.9,2.1,2.1,7.4,2.1,10.7,1,14.8-6.4,28.8-26.5,43.6-13.8,5.3,3.3,6.4,12.8,11.7,13.8,13.8,0,25.5,7.4,37.2,11.7,11.7,3.3,23.5-4.3,36.2-2.1,5.3,1,7.4,6.4,10.7,8.4,6.4,5.3,9.7,11.7,18.1,12.8,28.8,6.4,63.8-10.7,84.1,10.7,5.3,5.3,10.7,11.7,16.9,16.5,15.4-14.2,35.2-31.1,47.1-36.8,2.5-1.2,5.1-2.1,7.6-2.9.2-1,.4-2.1,1.2-2.9,1.9-2.1,5.1-2.3,7.4-.4,0,0,.4.4.8.6,9.7-2.9,14.8-6,14.8-17.5,0-15.2,5.1-35.2,9.3-51.2,2.5-9.3,4.7-18.1,4.7-21.6,0-2.7.6-5.8,1.6-9.9,1.9-9.1,4.5-21.6-.6-28.2-2.9-3.7-8.4-5.3-16.5-5.3-30,0-54.1-10.5-75.5-19.7-6.8-3.1-13.4-5.8-20-8.2-21.6-8-41.1-7.4-57-6.8-3.7.2-7.4.2-10.7.2-17.1,0-85.8,3.5-86.4,3.5-3.1.6-87.8,14-116.4,3.1C428.24,3.71,398.14.2,380.44.2c-20,0-56.4,7-60.7,12.5-.2,13-12.1,38.9-39.1,42.8l-3.7.4c-18.3,2.7-34.8,4.9-48.1,2.3,10.3,14.3,18.9,30.5,38.9,28.1h0Z"/><g id="G_15"><path id="PATH_16" d="m527.74,84.8h-1.4c-1.9,0-2.9-1-3.3-3.3-1,1-1.4,1.4-1.6,1.4h-1.9c-.6,0-1.2,0-1.9-.2-.8-.2-1.2-.6-1.2-1,0-1.4.6-2.9,1.6-3.7.8-.6,2.1-1.2,3.7-2.1l-.4-2.1,1.4-1.6c0,.2.6,2.5,1.4,6.8.2,1.2.6,2.3.8,2.7.4.6.8.8,1.6.8h1.4v2.3h-.2,0Zm-5.1-4.1l-.6-3.3c-.6.2-1.4.6-2.5,1-1.2.6-2.1,1.2-2.1,1.4,0,.4.4.6,1.4.8.6.2,1.2.2,1.9.2.6-.1,1.2-.1,1.9-.1h0Z"/><path id="PATH_17" d="m532.64,80.7c0,2.7-1.4,4.1-4.1,4.1h-1.6v-2.5h1.4c2.1,0,3.1-.4,3.1-1s-.4-1.4-1.4-2.5l.8-2.1c0-.2.2-.2.2-.2,0,0,.2.2.4.4.6,1.1,1.2,2.6,1.2,3.8h0Zm-1.6,8.7l-1.6,1.6-1.6-1.6,1.6-1.6,1.6,1.6Zm3.5,0l-1.6,1.6-1.6-1.6,1.6-1.6,1.6,1.6Z"/><path id="PATH_18" d="m550.54,84.8h-1c-.8,0-1.4-.2-2.1-.8-.4-.4-.8-.8-1.2-1.6-.4.8-1,1.4-1.6,1.9-.8.4-1.9.6-3.5.6-2.9,0-4.3-1-4.3-3.1,0-.6.2-1.4.6-2.1.2-.2.2-.4.4-.4s.2.2.2.4v1.2c0,1.2,1,1.9,3.1,1.9,2.9,0,4.3-.6,4.3-1.6,0-.6-.8-2.9-2.5-6.8l.8-1.6c.2-.2.2-.4.2-.4,0,0,.2.2.2.4.6,1.6,1.6,4.1,2.9,7.4.6,1.6,1.4,2.5,2.7,2.5h.6v2.3h.2v-.2h0Z"/><path id="PATH_19" d="m555.54,80.7c0,2.7-1.4,4.1-4.1,4.1h-1.6v-2.5h1.4c2.1,0,3.1-.4,3.1-1s-.4-1.4-1.4-2.5l.8-2.1c0-.2.2-.2.2-.2,0,0,.2.2.4.4.8,1.1,1.2,2.6,1.2,3.8h0Zm-.2-9.2l-1.6,1.6-1.6-1.6,1.6-1.6,1.6,1.6Z"/><path id="PATH_20" d="m565.84,85.01c0,2.1-.6,3.9-1.9,5.8-1,1.4-2.1,2.3-2.7,2.3-1.6,0-2.9,0-4.1-.2-.4,0-.6-.2-.6-.2,0,0,.2-.2.6-.2,1.6-.4,3.3-1.2,4.9-2.5,1.6-1.4,2.7-2.9,2.7-4.3,0-.8-.6-2.1-2.1-3.5l1-1.9c0-.2.2-.2.2-.2l.2.2c.4.6,1,1.4,1.2,2.5.4.6.6,1.4.6,2.2h0Z"/><path id="PATH_21" d="m576.34,85.01c0,2.1-.6,3.9-1.9,5.8-1,1.4-2.1,2.3-2.7,2.3-1.6,0-2.9,0-4.1-.2-.4,0-.6-.2-.6-.2,0,0,.2-.2.6-.2,1.6-.4,3.3-1.2,4.9-2.5,1.6-1.4,2.7-2.9,2.7-4.3,0-.8-.6-2.1-2.1-3.5l1-1.9c0-.2.2-.2.2-.2l.2.2c.4.6,1,1.4,1.2,2.5.3.6.6,1.4.6,2.2h0Zm-1.5-11.1l-1.6,1.6-1.6-1.6,1.6-1.6,1.6,1.6Z"/></g><g id="G_22"><path id="PATH_23" d="m450.84,205.8c0,1.4-.4,2.5-1.2,3.3s-2.1,1-3.3,1c-.8,0-1.6-.2-2.3-.8-.6-.6-1-1.2-1-2.1,0-1,.4-2.1,1.2-3.5.6-1.2,1.4-2.3,2.3-3.1,2.8,1.5,4.3,3.1,4.3,5.2h0Zm-1.3.8c0-.6-.4-1.2-1.4-2.1-.8-.8-1.4-1.2-2.3-1.4-1,1.4-1.6,2.5-1.6,3.3,0,.4.2.8.8,1.2.4.2.8.4,1.4.4.8,0,1.6-.2,2.3-.4.6-.6.8-.8.8-1h0Z"/><path id="PATH_24" d="m461.34,209.3c0,3.1-1,5.8-3.1,7.8-.6.6-1,1-1.2,1-1.2,0-2.5-.2-3.9-.4-.6,0-.8-.2-.8-.2,0,0,.2-.2.8-.4,1.6-.4,3.3-1.4,4.7-2.7.6-.6,1.2-1,1.6-1.9.6-.8,1-1.6,1-2.3v-.6h-2.7c-1.9,0-2.9-.8-2.9-2.3,0-1,.2-2.1.8-3.3s1.4-2.1,2.3-2.1c1.2,0,2.3.8,2.9,2.7.3,1.6.5,3,.5,4.7h0Zm-1.5-1.9c0-.6-.2-1.2-.6-1.9-.4-.6-1-1-1.6-1-.4,0-.8.2-1,.4-.4.4-.4.6-.4,1,0,1,.6,1.4,2.1,1.4.1.3.7.3,1.5.1Z"/><path id="PATH_25" d="m469.54,210.11h-1.4c-1.4,0-2.7-.6-3.1-1.9-.4-.8-.6-2.3-.6-3.9v-3.9c0-1.9-.2-4.5-.4-8l1.2-1.4c.2-.2.4-.2.4,0,.2,1.9.4,4.5.4,8v6c0,1.6.8,2.5,2.5,2.5h1v2.6h0Z"/><path id="PATH_26" d="m485.74,205.61c0,1.2-.2,2.3-.8,3.1s-1.6,1.4-2.7,1.4c-1.4,0-2.3-.6-2.9-1.6-.8,1.2-1.6,1.6-2.9,1.6-1.4,0-2.5-.6-3.1-1.6-.8,1.2-1.9,1.6-3.3,1.6h-1.4v-2.5h1.6c1.4,0,2.5-.8,2.7-2.5,0-.4.2-.6.4-.6s.2.2.4.6c.2,1.6,1,2.5,2.7,2.5.8,0,1.6-.2,2.1-.6.2-.4.4-.8.6-1.6,0-.4.2-.6.4-.6s.2.2.4.6c.2,1.6,1,2.5,2.5,2.5,1.6,0,2.3-.4,2.3-1s-.4-1.4-1.2-2.3l1-1.9c.2-.2.2-.4.4-.4s.2.2.4.4c0,1,.4,2.1.4,2.9h0Z"/></g><g id="G_27"><path id="PATH_28" d="m409.64,349.8c0,2.9-1.2,4.3-3.7,4.3-1.4,0-2.3-.6-2.7-1.9-.6,1.2-1.6,1.9-2.9,1.9-.4,0-1,0-1.4-.2,0,1.2-.2,2.5-.2,3.9-.6,1.4-1.6,2.7-3.5,3.5-1.6.6-3.3,1-5.1,1-1.9,0-3.3-.4-4.5-1.2-1.2-1-1.9-2.3-1.9-4.1,0-1,.2-1.9.6-3.1.4-.8.6-1.4,1-1.9.2-.2.4-.2.4-.2.13,0,.2.07.2.2v.4c-.6,1.2-.8,2.5-.8,3.5s.4,1.9,1,2.7c.8,1,2.3,1.4,4.1,1.4,2.1,0,3.9-.4,5.3-1,1.2-.6,2.1-1.2,2.3-2.1.2-.2.2-.6,0-1.4,0-.6-.2-1.2-.2-1.4-.2-.6-.8-1.6-2.1-3.1l.8-1.6c.2-.2.2-.4.2-.4,0,0,.2,0,.2.2.6.8,1,1.4,1.2,1.6.6.6,1.2.8,2.1.8.8,0,1.6-.2,2.1-.8.2-.4.4-.8.6-1.9,0-.4.2-.6.4-.6s.2.2.2.6c.2,1,.4,1.6.8,2.1.4.4,1.2.6,2.3.6.4,0,.8-.2,1-.4.4-.2.6-.6.6-1,0-.6-.4-1.2-1.2-2.3l1-1.9.2-.2.2.2c1.2,1.5,1.4,2.6,1.4,3.8Zm-6.8-7.6l-1.4,1.4-1.4-1.4,1.4-1.4,1.4,1.4Zm1.9-3.3l-1.4,1.4-1.4-1.4,1.4-1.4,1.4,1.4Zm1.8,3.3l-1.4,1.4-1.4-1.4,1.4-1.4,1.4,1.4Z"/><path id="PATH_29" d="m422.64,354.1h-.8c-.8,0-1.2-.2-1.6-.4v.6c0,1.9-.6,3.7-1.9,5.6-1,1.6-2.1,2.3-2.7,2.3-1.6,0-2.9,0-4.1-.2-.4,0-.6-.2-.6-.2,0,0,.2-.2.6-.2,1.6-.4,3.3-1.2,4.9-2.5,1.6-1.4,2.7-2.9,2.7-4.3,0-.8-.6-2.1-2.1-3.5l1-1.9c0-.2.2-.2.2-.2l.2.2c.6.8,1,1.4,1.4,1.6.6.4,1.4.8,2.3.8h.6v2.3h-.1Z"/><path id="PATH_30" d="m433.74,354.1h-1c-.6,0-1.4-.2-2.5-.4-1-.2-1.9-.6-2.3-1-.4.4-1,.6-1.9.8-1,.4-2.1.4-3.1.4h-1.4v-2.5h1c1.6,0,2.7-.2,3.1-.4-.4-.2-.6-.6-.8-1s-.4-.8-.4-1.2c0-.8.4-1.9,1-3.1.8-1.2,1.6-2.1,2.7-2.1,1,0,1.6.6,2.3,1.6.4.8.6,1.9.6,2.9,0,.8-.2,1.4-.6,1.9-.2.4-.4.6-.8.8.4.2,1.4.4,2.9.4h.8v2.9h.4,0Zm-3.5-5.3c0-.4-.2-1-.6-1.4-.4-.6-.8-.8-1.4-.8-.4,0-1,.2-1.4.6s-.8,1-.8,1.4.2,1,.8,1.4c.4.4,1,.6,1.4.8.4,0,1-.2,1.2-.6.6-.6.8-1,.8-1.4Zm-.6-10.1l-1.6,1.6-1.6-1.6,1.6-1.6,1.6,1.6Z"/><path id="PATH_31" d="m438.64,350.01c0,2.7-1.4,4.1-4.1,4.1h-1.6v-2.5h1.4c2.1,0,3.1-.4,3.1-1s-.4-1.4-1.4-2.5l.8-2.1c0-.2.2-.2.2-.2l.4.4c.8,1.1,1.2,2.6,1.2,3.8h0Zm-2-9.1l-1.6,1.6-1.6-1.6,1.6-1.6,1.6,1.6Zm3.7,0l-1.6,1.6-1.6-1.6,1.6-1.6,1.6,1.6Z"/></g><g id="G_32"><path id="PATH_33" d="m152.34,376.7c.2.6.2,1.2.2,1.9,0,.8-.2,1.4-.4,2.3-.6,1.4-1.6,2.7-3.7,3.5-1.6.6-3.3,1-5.1,1s-3.3-.4-4.5-1.2c-1.2-1-1.9-2.3-1.9-4.1,0-1,.2-1.9.6-3.1.4-.8.6-1.4,1-1.9.2-.2.4-.2.4-.2.13,0,.2.07.2.2v.4c-.6,1.2-.8,2.5-.8,3.5s.4,1.9,1,2.7c.8,1,2.3,1.4,4.1,1.4,2.1,0,3.9-.4,5.3-1,1.2-.6,2.1-1.2,2.5-2.1.2-.2.2-.6.2-.8,0-.6-.2-1.2-.4-2.1-.2-.6-.8-1.6-1.9-3.3l.8-1.6c.2-.2.2-.4.2-.4,0,0,.2,0,.2.2.9,1.4,1.6,3.1,2,4.7h0Zm-6.2-9l-1.6,1.6-1.6-1.6,1.6-1.6,1.6,1.6Z"/><path id="PATH_34" d="m160.54,376.91h-1.4c-1.4,0-2.7-.6-3.1-1.9-.4-.8-.6-2.3-.6-3.9v-3.9c0-1.9-.2-4.5-.4-8l1.2-1.4c.2-.2.4-.2.4,0,.2,1.9.4,4.5.4,8v6c0,1.6.8,2.5,2.5,2.5h1v2.6h0Z"/><path id="PATH_35" d="m178.64,376.91h-2.1c-2.7,0-4.1-1.4-4.1-4.1v-1c-1,.4-2.3,1.2-3.9,2.3-1.6,1-2.7,1.6-3.5,2.1-1.2.6-2.7.8-3.9.8h-1.4v-2.5h1.6c1.6,0,3.5-.4,5.1-1.2.8-.4,2.3-1.2,4.5-2.3-.4,0-1.6-.4-3.7-.8-1.4-.4-2.3-.6-2.5-.6-.8,0-1.6.4-2.5,1-.13.13-.27.2-.4.2-.13,0-.2-.07-.2-.2v-.2c.6-2.1,1.9-3.1,3.5-3.1.6,0,1.4.2,2.5.4,1.4.4,2.7.8,3.7,1,1.4.2,3.1.4,4.9.4h.6v.4l-.6,1.9c-1.2,0-2.1,0-2.5.2,0,1,.2,1.6.4,1.9.4.6,1.2,1,2.7,1h2.1v2.5h-.3v-.1h0Zm-7.8,4.2l-1.6,1.6-1.6-1.6,1.6-1.6,1.6,1.6Z"/><path id="PATH_36" d="m188.74,376.91h-1.6c-1.9,0-3.1-.6-3.9-1.9-.6,1.2-2.1,1.9-4.3,1.9h-1.2v-2.5h1.9c2.1,0,3.1-.8,3.3-2.3,0-.6.2-1,.4-1s.4.4.4,1c.2,1.4,1.2,2.3,3.1,2.3h1.9v2.5h0Zm-6.8,4.6l-1.6,1.6-1.6-1.6,1.6-1.6,1.6,1.6Zm3.5,0l-1.6,1.6-1.6-1.6,1.6-1.6,1.6,1.6Z"/><path id="PATH_37" d="m203.34,376.91h-1.2c-1,0-2.1-.6-2.9-1.6-.6,1.6-1.2,2.5-1.9,2.5-.6,0-1.6-.4-2.9-1-1-.6-1.9-1.2-2.3-1.6-1,1.2-2.1,1.9-3.1,1.9h-1.2v-2.5h1.2c1,0,1.9-.4,2.7-1.2.6-.6,1.2-1.4,2.1-2.3.8-.8,1.4-1.2,2.1-1.2.8,0,1.4.4,2.1,1.2.4.4.8,1.2,1.9,2.3.6.8,1.4,1.2,2.3,1.2h1.2v2.3h-.1Zm-5.6-1.6c0-.6-.2-1.2-.6-2.1s-1-1.2-1.9-1.2c-.6,0-1.4.6-2.3,1.6.2.2.8.6,1.9,1.2s1.9.8,2.5.8c.27-.07.4-.17.4-.3h0Z"/><path id="PATH_38" d="m216.04,357.8c0,.4-.4,1.2-.8,2.3l-5.1,1.6c-2.3.8-3.9,1.4-4.7,1.9,1.6,1.6,2.7,2.9,3.3,3.5,1,1.4,1.6,2.7,1.9,4.1,0,1,0,2.1-.4,2.9-.6,1.9-2.9,2.7-6.4,2.7h-1v-2.5h1.2c1.6,0,2.9,0,3.5-.2,1.4-.4,2.3-1,2.3-2.1,0-1.4-1-3.1-3.3-5.1l-.2.4c-.2-.2-.6-.6-1-1.2-.6-.6-.8-1.2-.8-1.2,0-.4,0-.8.2-1.6.2-.8.4-1.2.6-1.4.2-.2,1.6-.8,4.3-1.6,2.1-1,4.6-1.9,6.4-2.5h0Z"/></g><g id="G_39"><path id="PATH_40" d="m272.64,421.01c.2.6.2,1.2.2,1.9,0,.8-.2,1.4-.4,2.3-.6,1.4-1.6,2.7-3.7,3.5-1.6.6-3.3,1-5.1,1-1.9,0-3.3-.4-4.5-1.2-1.2-1-1.9-2.3-1.9-4.1,0-1,.2-1.9.6-3.1.4-.8.6-1.4,1-1.9.2-.2.4-.2.4-.2.13,0,.2.07.2.2v.4c-.6,1.2-.8,2.5-.8,3.5s.4,1.9,1,2.7c.8,1,2.3,1.4,4.1,1.4,2.1,0,3.9-.4,5.3-1,1.2-.6,2.1-1.2,2.5-2.1.2-.2.2-.6.2-.8,0-.6-.2-1.2-.4-2.1-.2-.6-.8-1.6-1.9-3.3l.8-1.6c.2-.2.2-.4.2-.4,0,0,.2,0,.2.2,1.2,1.4,1.8,3,2,4.7h0Zm-5.9-9.1l-1.6,1.6-1.6-1.6,1.6-1.6,1.6,1.6Z"/><path id="PATH_41" d="m281.14,421.2h-1.4c-1.4,0-2.7-.6-3.1-1.9-.4-.8-.6-2.3-.6-3.9v-3.9c0-1.9-.2-4.5-.4-8l1.2-1.4c.2-.2.4-.2.4,0,.2,1.9.4,4.5.4,8v6c0,1.6.8,2.5,2.5,2.5h1v2.6h0Z"/><path id="PATH_42" d="m293.64,417.1c0,.8-.2,1.6-.8,2.5-.6,1-1.2,1.4-2.1,1.4-.6,0-2.1-.4-4.3-1.4-1.9,1.2-3.5,1.6-4.9,1.6h-1v-2.5h1.2c.8,0,1.6,0,2.5-.2-.8-.6-1.2-1.4-1.2-2.5,0-1.2.8-2.7,2.7-4.1l-1.4-.6,1.9-1.9c1.9,1,3.5,1.9,4.9,3.1,1.5,1.7,2.5,3.1,2.5,4.6h0Zm-5.3-1.7c0-.6-.2-1-.4-1.4-.2-.6-.6-.8-1.2-.8s-1,.2-1.6.6-1,1-1,1.4c0,.8.8,1.6,2.3,2.1l1.2-.6c.4-.5.7-.9.7-1.3h0Zm4.3,2.5c0-.6-.4-1.2-1.2-2.1-.6-.6-1.2-1.2-1.9-1.4,0,1.6-.4,2.9-1.4,3.7,1.6.6,2.9.8,3.3.8.8-.2,1.2-.4,1.2-1Z"/><path id="PATH_43" d="m298.34,418.7c0,.8-.2,1.6-.6,2.3-.2.4-.4.6-.4.6,0,0-.2-.2-.2-.8,0-2.5-.4-8.2-1.2-17.5l1.6-1.6.2-.2v.4c.6,2.6.6,8.2.6,16.8h0Z"/><path id="PATH_44" d="m311.34,421.2h-.8c-.8,0-1.2-.2-1.6-.4v.6c0,1.9-.6,3.7-1.9,5.6-1,1.6-2.1,2.3-2.7,2.3-1.6,0-2.9,0-4.1-.2-.4,0-.6-.2-.6-.2,0,0,.2-.2.6-.2,1.6-.4,3.3-1.2,4.9-2.5,1.6-1.4,2.7-2.9,2.7-4.3,0-.8-.6-2.1-2.1-3.5l1-1.9c0-.2.2-.2.2-.2l.2.2c.6.8,1,1.4,1.4,1.6.6.4,1.4.8,2.3.8h.6v2.3h-.1Z"/><path id="PATH_45" d="m319.14,415.41v.8c0,1.4-.2,2.3-.6,2.9-1,1.4-2.7,2.1-5.3,2.1h-2.9v-2.5h2.1c3.5,0,5.3-.6,5.8-1.6v-.4c0-.4,0-.6-.2-.8-.8.2-1.9.2-2.7.2-1.9,0-2.9-.8-2.9-2.5,0-1,.2-2.3.8-3.3.6-1.2,1.4-1.9,2.5-1.9.8,0,1.6.6,2.3,1.6.9,1.5,1.1,3.4,1.1,5.4h0Zm-2.3-11.3l-1.6,1.6-1.6-1.6,1.6-1.6,1.6,1.6Zm.9,9.5c0-.6-.2-1.2-.6-1.9-.4-.6-1-.8-1.6-.8-.4,0-.8.2-1.2.4-.2.2-.4.6-.4,1,0,.8.6,1.2,2.1,1.2.2.3.8.3,1.7.1h0Z"/></g><g id="G_46"><path id="PATH_47" d="m454.34,545.4c.2.6.2,1.2.2,1.9,0,.8-.2,1.4-.4,2.3-.6,1.4-1.6,2.7-3.7,3.5-1.6.6-3.3,1-5.1,1-1.9,0-3.3-.4-4.5-1.2-1.2-1-1.9-2.3-1.9-4.1,0-1,.2-1.9.6-3.1.4-.8.6-1.4,1-1.9.2-.2.4-.2.4-.2.13,0,.2.07.2.2v.4c-.6,1.2-.8,2.5-.8,3.5s.4,1.9,1,2.7c.8,1,2.3,1.4,4.1,1.4,2.1,0,3.9-.4,5.3-1,1.2-.6,2.1-1.2,2.5-2.1.2-.2.2-.6.2-.8,0-.6-.2-1.2-.4-2.1-.2-.6-.8-1.6-1.9-3.3l.8-1.6c.2-.2.2-.4.2-.4,0,0,.2,0,.2.2,1.1,1.4,1.8,3.1,2,4.7h0Zm-6-9l-1.6,1.6-1.6-1.6,1.6-1.6,1.6,1.6Z"/><path id="PATH_48" d="m462.74,545.6h-1.4c-1.4,0-2.7-.6-3.1-1.9-.4-.8-.6-2.3-.6-3.9v-3.9c0-1.9-.2-4.5-.4-8l1.2-1.4c.2-.2.4-.2.4,0,.2,1.9.4,4.5.4,8v6c0,1.6.8,2.5,2.5,2.5h1v2.6h0Z"/><path id="PATH_49" d="m472.84,545.6h-1.4c-1.9,0-3.1-.6-3.9-1.9-.6,1.2-2.1,1.9-4.3,1.9h-1.2v-2.5h1.9c2.1,0,3.1-.8,3.3-2.3,0-.6.2-1,.4-1s.4.4.4,1c.2,1.4,1.2,2.3,3.1,2.3h1.9l-.2,2.5h0Zm-6.8,4.6l-1.6,1.6-1.6-1.6,1.6-1.6,1.6,1.6Zm3.5,0l-1.6,1.6-1.6-1.6,1.6-1.6,1.6,1.6Z"/><path id="PATH_50" d="m482.94,545.6h-1.6c-1.9,0-3.1-.6-3.9-1.9-.6,1.2-2.1,1.9-4.3,1.9h-1.2v-2.5h1.9c2.1,0,3.1-.8,3.3-2.3,0-.6.2-1,.4-1s.4.4.4,1c.2,1.4,1.2,2.3,3.1,2.3h1.9v2.5h0Zm-6.8-11.9l-1.6,1.6-1.6-1.6,1.6-1.6,1.6,1.6Zm3.5,0l-1.6,1.6-1.6-1.6,1.6-1.6,1.6,1.6Z"/><path id="PATH_51" d="m499.14,541.3c0,1.2-.2,2.3-.8,3.1s-1.6,1.4-2.7,1.4c-1.4,0-2.3-.6-2.9-1.6-.8,1.2-1.6,1.6-2.9,1.6-1.4,0-2.5-.6-3.1-1.6-.8,1.2-1.9,1.6-3.3,1.6h-1.4v-2.5h1.6c1.4,0,2.5-.8,2.7-2.5,0-.4.2-.6.4-.6s.2.2.4.6c.2,1.6,1,2.5,2.7,2.5.8,0,1.6-.2,2.1-.6.2-.4.4-.8.6-1.6,0-.4.2-.6.4-.6s.2.2.4.6c.2,1.6,1,2.5,2.5,2.5,1.6,0,2.3-.4,2.3-1s-.4-1.4-1.2-2.3l1-1.9c.2-.2.2-.4.4-.4s.2.2.4.4c.2.9.4,1.9.4,2.9h0Zm-6.8-7.6l-1.4,1.4-1.4-1.4,1.4-1.4,1.4,1.4Zm1.7-3.1l-1.4,1.4-1.4-1.4,1.4-1.4,1.4,1.4Zm1.8,3.1l-1.4,1.4-1.4-1.4,1.4-1.4,1.4,1.4Z"/><path id="PATH_52" d="m507.54,523.6c-.8.8-2.1,1-3.3,1h-1.6c-.2,0-.4.2-.6.4s-.4.4-.4.4c-.2,0-.2-.2-.2-.4s.2-.6.4-1c.2-.6.4-.8.6-.8s.6,0,1.2.2c.6,0,1,.2,1.2.2,1.2,0,2.1,0,2.7-.2.4,0,.6-.2.6-.2h.2c-.3,0-.6.2-.8.4h0Zm-1.2,19.6c0,.8-.2,1.6-.6,2.3-.2.4-.4.6-.4.6,0,0-.2-.2-.2-.8,0-2.5-.4-8.2-1.2-17.5l1.6-1.6.2-.2v.4c.4,2.6.6,8.1.6,16.8h0Z"/></g><g id="G_53"><path id="PATH_54" d="m128.84,562.71c0,1.4-.4,2.7-1.4,3.3-.6.4-1.9.8-3.7,1-2.1.4-4.1.6-6.4.6-5.3,0-8.2-1.4-8.2-4.5,0-1,.4-2.1,1.2-3.1.2-.2.2-.4.4-.4s.2,0,.2.2v.4c-.2.6-.4,1.2-.4,1.9,0,2.1,2.7,3.1,7.8,3.1,2.5,0,4.7-.2,6.4-.4,2.1-.4,2.9-.8,2.9-1.4,0-.4-.4-1.2-1.4-2.5l1-1.9c.13-.13.27-.13.4,0,.8,1.2,1.2,2.5,1.2,3.7h0Zm-8,9.3l-1.6,1.6-1.6-1.6,1.6-1.6,1.6,1.6Z"/><path id="PATH_55" d="m133.84,564.8c0,.8-.2,1.6-.6,2.3-.2.4-.4.6-.4.6,0,0-.2-.2-.2-.8,0-2.5-.4-8.2-1.2-17.5l1.6-1.6.2-.2v.4c.4,2.6.6,8.1.6,16.8h0Z"/><path id="PATH_56" d="m149.84,567.21h-.8c-.8,0-1.4-.2-2.1-.8-.4-.4-.8-.8-1.2-1.6-.4.8-1,1.4-1.6,1.9-.8.4-1.9.6-3.5.6-2.9,0-4.3-1-4.3-3.1,0-.6.2-1.4.6-2.1.2-.2.2-.4.4-.4s.2.2.2.4v1.2c0,1.2,1,1.9,3.1,1.9,2.9,0,4.3-.6,4.3-1.6,0-.6-.8-2.9-2.5-6.8l.8-1.6c.2-.2.2-.4.2-.4,0,0,.2.2.2.4.6,1.6,1.6,4.1,2.9,7.4.6,1.6,1.4,2.5,2.7,2.5h.6v2.1h0Z"/><path id="PATH_57" d="m159.94,567.21h-1.6c-1.9,0-3.1-.6-3.9-1.9-.6,1.2-2.1,1.9-4.3,1.9h-1.2v-2.5h1.9c2.1,0,3.1-.8,3.3-2.3,0-.6.2-1,.4-1s.4.4.4,1c.2,1.4,1.2,2.3,3.1,2.3h1.9v2.5h0Zm-4.1-10.7l-1.6,1.6-1.6-1.6,1.6-1.6,1.6,1.6Z"/><path id="PATH_58" d="m175.94,561.3l-.8,1.6c-1.4,0-2.7,0-3.3.2-.8.4-2.1.8-3.7,1.6-1.6.8-2.9,1.4-3.7,1.6-1.2.4-2.7.6-3.9.6h-1.4v-2.3h1.6c1.9,0,3.5-.4,4.9-1l4.7-2.1c-.8-.2-2.1-.6-3.7-1.2-1.4-.6-2.3-.8-2.7-.8-.8,0-1.6.4-2.5,1-.13.13-.27.2-.4.2s-.2-.07-.2-.2v-.2c.6-2.1,1.9-2.9,3.5-2.9.6,0,1.4.2,2.3.6,1.6.8,2.9,1.2,3.7,1.6,1.4.4,3.1.8,4.9.8.4,0,.6,0,.6.2.3.3.3.5.1.7h0Zm-5.7-9.5l-1.6,1.6-1.6-1.6,1.6-1.6,1.6,1.6Z"/></g><g id="G_59"><path id="PATH_60" d="m384.54,664.3c0,.4-.4,1.2-.8,2.3-1.2.4-2.9.8-5.1,1.6-2.3.8-3.9,1.4-4.7,1.9,1.6,1.6,2.7,2.9,3.3,3.5,1,1.4,1.6,2.7,1.9,4.1,0,1,0,2.1-.4,2.9-.8,1.9-2.9,2.7-6.4,2.7h-4.3c-4.9,0-7.6-1.4-7.6-4.3,0-1,.4-2.1,1-3.1l.4-.4c.13,0,.2.07.2.2v.4c-.2.8-.4,1.2-.4,1.9,0,.8.4,1.4,1,1.9,1,.8,2.7,1.2,4.9,1.2h4.5c1.6,0,2.9,0,3.5-.2,1.4-.2,2.3-1,2.3-1.9,0-1.4-1-3.3-3.3-5.3l-.2.4c-.2-.2-.6-.6-1-1.2-.6-.8-.8-1.2-.8-1.2,0-.4,0-.8.2-1.6s.4-1.2.6-1.4,1.6-.8,4.3-1.6c2.6-1.3,5.1-2.2,6.9-2.8h0Z"/><path id="PATH_61" d="m388.64,681.01c0,.8-.2,1.6-.6,2.3-.2.4-.4.6-.4.6,0,0-.2-.2-.2-.8,0-2.5-.4-8.2-1.2-17.5l1.6-1.6.2-.2v.4c.6,2.6.6,8.1.6,16.8Z"/><path id="PATH_62" d="m399.14,683.71c0,2.1-.6,3.9-1.9,5.8-1,1.4-2.1,2.3-2.7,2.3-1.6,0-2.9,0-4.1-.2-.4,0-.6-.2-.6-.2,0,0,.2-.2.6-.2,1.6-.4,3.3-1.2,4.9-2.5,1.6-1.4,2.7-2.9,2.7-4.3,0-.8-.6-2.1-2.1-3.5l1-1.9c0-.2.2-.2.2-.2l.2.2c.4.6,1,1.4,1.2,2.5.4.5.6,1.3.6,2.2h0Z"/><path id="PATH_63" d="m403.94,681.01c0,.8-.2,1.6-.6,2.3-.2.4-.4.6-.4.6,0,0-.2-.2-.2-.8,0-2.5-.4-8.2-1.2-17.5l1.6-1.6.2-.2v.4c.6,2.6.6,8.1.6,16.8Z"/></g><g id="G_64"><path id="PATH_65" d="m148.84,762.71h-.8c-.8,0-1.4-.2-2.1-.8-.4-.4-.8-.8-1.2-1.6-.4.8-1,1.4-1.6,1.9-.8.4-1.9.6-3.5.6-2.9,0-4.3-1-4.3-3.1,0-.6.2-1.4.6-2.1.2-.2.2-.4.4-.4s.2.2.2.4v1.2c0,1.2,1,1.9,3.1,1.9,2.9,0,4.3-.6,4.3-1.6,0-.6-.8-2.9-2.5-6.8l.8-1.9c.2-.2.2-.4.2-.4,0,0,.2.2.2.4.6,1.6,1.6,4.1,2.9,7.4.6,1.6,1.4,2.5,2.7,2.5h.6v2.4h0Z"/><path id="PATH_66" d="m153.74,758.51c0,2.7-1.4,4.1-4.1,4.1h-1.6v-2.5h1.4c2.1,0,3.1-.4,3.1-1s-.4-1.4-1.4-2.5l.8-2.1c0-.2.2-.2.2-.2l.4.4c.8,1.2,1.2,2.6,1.2,3.8h0Zm-.2-9.2l-1.6,1.6-1.6-1.6,1.6-1.6,1.6,1.6Z"/><path id="PATH_67" d="m164.04,762.9c0,2.1-.6,3.9-1.9,5.8-1,1.4-2.1,2.3-2.7,2.3-1.6,0-2.9,0-4.1-.2-.4,0-.6-.2-.6-.2,0,0,.2-.2.6-.2,1.6-.4,3.3-1.2,4.9-2.5,1.6-1.4,2.7-2.9,2.7-4.3,0-.8-.6-2.1-2.1-3.5l1-1.9c0-.2.2-.2.2-.2l.2.2c.4.6,1,1.4,1.2,2.5.4.5.6,1.3.6,2.2h0Zm-1.4-11.1l-1.6,1.6-1.6-1.6,1.6-1.6,1.6,1.6Z"/><path id="PATH_68" d="m172.24,762.71h-1.4c-1.4,0-2.7-.6-3.1-1.9-.4-.8-.6-2.3-.6-3.9v-3.9c0-1.9-.2-4.5-.4-8l1.2-1.4c.2-.2.4-.2.4,0,.2,1.9.4,4.5.4,8v6c0,1.6.8,2.5,2.5,2.5h1v2.6h0Z"/><path id="PATH_69" d="m188.54,758.3c0,1.2-.2,2.3-.8,3.1s-1.6,1.4-2.7,1.4c-1.4,0-2.3-.6-2.9-1.6-.8,1.2-1.6,1.6-2.9,1.6-1.4,0-2.5-.6-3.1-1.6-.8,1.2-1.9,1.6-3.3,1.6h-1.4v-2.5h1.6c1.4,0,2.5-.8,2.7-2.5,0-.4.2-.6.4-.6s.2.2.4.6c.2,1.6,1,2.5,2.7,2.5.8,0,1.6-.2,2.1-.6.2-.4.4-.8.6-1.6,0-.4.2-.6.4-.6s.2.2.4.6c.2,1.6,1,2.5,2.5,2.5,1.6,0,2.3-.4,2.3-1s-.4-1.4-1.2-2.3l1-1.9c.2-.2.2-.4.4-.4s.2.2.4.4c0,.9.4,1.9.4,2.9h0Zm-7-7.6l-1.4,1.4-1.4-1.4,1.4-1.4,1.4,1.4Zm1.8-3.1l-1.4,1.4-1.4-1.4,1.4-1.4,1.4,1.4Zm1.9,3.1l-1.4,1.4-1.4-1.4,1.4-1.4,1.4,1.4Z"/></g><g id="G_70"><path id="PATH_71" d="m411.74,894.51h-1c-1,0-1.6,0-2.1-.2,0,.6.2,1,.2,1.6,0,1-.2,1.6-.4,2.3-.6,1.4-1.6,2.7-3.7,3.5-1.6.6-3.3,1-5.1,1-1.9,0-3.3-.4-4.5-1.2-1.2-1-1.9-2.3-1.9-4.1,0-1,.2-1.9.6-3.1.4-.8.6-1.4,1-1.9.2-.2.4-.2.4-.2.13,0,.2.07.2.2v.4c-.6,1.2-.8,2.5-.8,3.5s.4,1.9,1,2.7c.8,1,2.3,1.4,4.1,1.4,2.1,0,3.9-.4,5.3-1,1.2-.6,2.1-1.2,2.5-2.1.2-.2.2-.6,0-1.4,0-.6-.2-1.2-.2-1.4-.2-.6-1-1.6-2.1-3.1l.8-1.6c.2-.2.2-.4.2-.4,0,0,.2,0,.2.2,1,1.6,2.1,2.5,3.3,2.5h1.6v2.5h.4v-.1h0Zm-9.1-9.2l-1.6,1.6-1.6-1.6,1.6-1.6,1.6,1.6Z"/><path id="PATH_72" d="m421.84,894.51h-1.6c-1.9,0-3.1-.6-3.9-1.9-.6,1.2-2.1,1.9-4.3,1.9h-1.2v-2.3h1.9c2.1,0,3.1-.8,3.3-2.3,0-.6.2-1,.4-1s.4.4.4,1c.2,1.4,1.2,2.3,3.1,2.3h1.9v2.3h0Zm-6.8,4.5l-1.6,1.6-1.6-1.6,1.6-1.6,1.6,1.6Zm3.7,0l-1.6,1.6-1.6-1.6,1.6-1.6,1.6,1.6Z"/><path id="PATH_73" d="m436.64,894.51h-1.2c-1,0-2.1-.6-2.9-1.6-.6,1.6-1.2,2.5-1.9,2.5s-1.6-.4-2.9-1c-1-.6-1.9-1.2-2.3-1.6-1,1.2-2.1,1.9-3.1,1.9h-1.2v-2.3h1.2c1,0,1.9-.4,2.7-1.2.6-.6,1.2-1.4,2.1-2.3.8-.8,1.4-1.2,2.1-1.2.8,0,1.4.4,2.1,1.2.4.4.8,1.2,1.9,2.3.6.8,1.4,1.2,2.3,1.2h1.2v2.1h-.1Zm-5.6-1.6c0-.6-.2-1.2-.6-2.1-.4-.8-1-1.2-1.9-1.2-.6,0-1.4.6-2.3,1.6.2.2.8.6,1.9,1.2,1,.6,1.9.8,2.5.8.2-.1.4-.1.4-.3Z"/><path id="PATH_74" d="m452.64,888.6l-.8,1.6c-1.4,0-2.7,0-3.3.2-.8.4-2.1.8-3.7,1.6s-2.9,1.4-3.7,1.6c-1.2.4-2.7.6-3.9.6h-1.4v-2.1h1.6c1.9,0,3.5-.4,4.9-1l4.7-2.1c-.8-.2-2.1-.6-3.7-1.2-1.4-.6-2.3-.8-2.7-.8-.8,0-1.6.4-2.5,1-.13.13-.27.2-.4.2s-.2-.07-.2-.2v-.2c.6-2.1,1.9-2.9,3.5-2.9.6,0,1.4.2,2.3.6,1.6.8,2.9,1.2,3.7,1.6,1.4.4,3.1.8,4.9.8.4,0,.6,0,.6.2.3,0,.3.2.1.5h0Zm-5.7-9.5l-1.6,1.6-1.6-1.6,1.6-1.6,1.6,1.6Z"/></g><g id="G_75"><path id="PATH_76" d="m595.64,778.71c0,1.4-.4,2.7-1.4,3.3-.6.4-1.9.8-3.7,1-2.1.4-4.1.6-6.4.6-5.3,0-8.2-1.4-8.2-4.5,0-1,.4-2.1,1.2-3.1.2-.2.2-.4.4-.4s.2,0,.2.2v.4c-.2.6-.4,1.2-.4,1.9,0,2.1,2.7,3.1,7.8,3.1,2.5,0,4.7-.2,6.4-.4,2.1-.4,2.9-.8,2.9-1.4,0-.4-.4-1.2-1.4-2.5l1-1.9c.13-.13.27-.13.4,0,.8,1.2,1.2,2.5,1.2,3.7h0Zm-10.3-7.4l-1.6,1.6-1.6-1.6,1.6-1.6,1.6,1.6Zm3.5,0l-1.6,1.6-1.6-1.6,1.6-1.6,1.6,1.6Z"/><path id="PATH_77" d="m614.94,783.21h-1.2c-2.5,0-3.9-1.9-3.9-5.6v-1.9c-1.6,3.9-3.5,6.8-6,8.4-1.4.4-3.3.6-5.3.6h-.6s.6-.4,1.9-1c.8-.4,1.6-.8,2.5-1.2,1.4-.6,2.9-1.6,4.1-3.1-.6-2.1-1.4-3.9-2.7-5.6-.8-1-2.1-2.3-3.9-3.7l-.2.8c-.6-.4-1-.8-1.4-1.2-.6-.6-1-1-1-1.4s0-1,.2-2.1c0-.2,0-.4.2-.4s.2,0,.4.2c2.7,1.9,4.7,3.7,6,5.3,1.6,2.1,2.7,4.3,3.3,7,.8-1,1.4-2.1,1.9-3.3.6-1.4.8-2.7.8-3.7,0-1.9-.2-3.9-.4-6.2l1.6-1.4c.2,1,.2,5.8.4,14.2,0,1.9.8,2.9,2.5,2.9h1l-.2,2.4h0Z"/><path id="PATH_78" d="m633.04,783.21h-2.1c-2.7,0-4.1-1.4-4.1-4.1v-1c-1,.4-2.3,1.2-3.9,2.3-1.6,1-2.7,1.6-3.5,2.1-1.2.6-2.7.8-3.9.8h-1.4v-2.5h1.6c1.6,0,3.5-.4,5.1-1.2.8-.4,2.3-1.2,4.5-2.3-.4,0-1.6-.4-3.7-.8-1.4-.4-2.3-.6-2.5-.6-.8,0-1.6.4-2.5,1-.13.13-.27.2-.4.2s-.2-.07-.2-.2v-.3c.6-2.1,1.9-3.1,3.5-3.1.6,0,1.4.2,2.5.4,1.4.4,2.7.8,3.7,1,1.4.2,3.1.4,4.9.4h.6c.2,0,0,.2,0,.4l-.6,1.9c-1.2,0-2.1,0-2.5.2,0,1,.2,1.6.4,1.9.4.6,1.2,1,2.7,1h2.1v2.5h-.3,0Z"/><path id="PATH_79" d="m643.14,779.1c0,1,0,1.9-.4,2.7-.4,1-1,1.6-1.6,1.6-1,0-2.7-.6-4.7-2.1-.6.8-1,1.2-1.2,1.4-.6.4-1.2.6-2.1.6h-1v-2.5h1.4c.8,0,1.6-.4,2.5-1.4.4-.4,1-1.4,1.9-2.7.6-1,1.4-1.4,2.1-1.4,1,0,1.9.4,2.5,1.4.2,1,.6,1.6.6,2.4Zm-1.2,1.5c0-.6-.2-1.2-.6-2.1-.4-.8-1-1.2-1.6-1.2s-1.2.6-2.1,1.9c.4.4,1,.8,1.9,1.2.8.4,1.6.6,2.1.6.1.2.3,0,.3-.4h0Z"/></g><g id="G_80"><path id="PATH_81" d="m749.74,753.21c.2.6.2,1.2.2,1.9,0,.8-.2,1.4-.4,2.3-.6,1.4-1.6,2.7-3.7,3.5-1.6.6-3.3,1-5.1,1s-3.3-.4-4.5-1.2c-1.2-1-1.9-2.3-1.9-4.1,0-1,.2-1.9.6-3.1.4-.8.6-1.4,1-1.9.2-.2.4-.2.4-.2.13,0,.2.07.2.2v.4c-.6,1.2-.8,2.5-.8,3.5s.4,1.9,1,2.7c.8,1,2.3,1.4,4.1,1.4,2.1,0,3.9-.4,5.3-1,1.2-.6,2.1-1.2,2.5-2.1.2-.2.2-.6.2-.8,0-.6-.2-1.2-.4-2.1-.2-.6-.8-1.6-1.9-3.3l.8-1.6c.2-.2.2-.4.2-.4,0,0,.2,0,.2.2,1.1,1.4,1.8,3,2,4.7h0Zm-6-9.1l-1.6,1.6-1.6-1.6,1.6-1.6,1.6,1.6Z"/><path id="PATH_82" d="m758.14,753.4h-1.4c-1.4,0-2.7-.6-3.1-1.9-.4-.8-.6-2.3-.6-3.9v-3.9c0-1.9-.2-4.5-.4-8l1.2-1.4c.2-.2.4-.2.4,0,.2,1.9.4,4.5.4,8v6c0,1.6.8,2.5,2.5,2.5h1v2.6h0Z"/><path id="PATH_83" d="m776.24,753.4h-2.1c-2.7,0-4.1-1.4-4.1-4.1v-1c-1,.4-2.3,1.2-3.9,2.3-1.6,1-2.7,1.6-3.5,2.1-1.2.6-2.7.8-3.9.8h-1.4v-2.5h1.6c1.6,0,3.5-.4,5.1-1.2.8-.4,2.3-1.2,4.5-2.3-.4,0-1.6-.4-3.7-.8-1.4-.4-2.3-.6-2.5-.6-.8,0-1.6.4-2.5,1-.13.13-.27.2-.4.2s-.2-.07-.2-.2v-.2c.6-2.1,1.9-3.1,3.5-3.1.6,0,1.4.2,2.5.4,1.4.4,2.7.8,3.7,1,1.4.2,3.1.4,4.9.4h.6c.2,0,0,.2,0,.4l-.6,1.9c-1.2,0-2.1,0-2.5.2,0,1,.2,1.6.4,1.9.4.6,1.2,1,2.7,1h2.1v2.5h-.3v-.1h0Zm-7.8,4.1l-1.6,1.6-1.6-1.6,1.6-1.6,1.6,1.6Z"/><path id="PATH_84" d="m786.14,753.4h-1.6c-1.9,0-3.1-.6-3.9-1.9-.6,1.2-2.1,1.9-4.3,1.9h-1.2v-2.5h1.9c2.1,0,3.1-.8,3.3-2.3,0-.6.2-1,.4-1s.4.4.4,1c.2,1.4,1.2,2.3,3.1,2.3h1.9v2.5h0Zm-6.8,4.5l-1.6,1.6-1.6-1.6,1.6-1.6,1.6,1.6Zm3.7,0l-1.6,1.6-1.6-1.6,1.6-1.6,1.6,1.6Z"/><path id="PATH_85" d="m790.84,737.1c.2.2.2.4.2.4h-1c.2,2.7.2,6.6.2,11.7,0,1.2-.2,2.3-.8,2.9-.6.8-1.6,1.2-2.7,1.2h-1.2v-2.5h1c1.6,0,2.5-.6,2.3-1.9-.2-4.3-.4-8.8-.6-13.4l1.4-1.2.4-.4s0,.2.2.4c0,.8.2,1.6.6,2.8h0Z"/><path id="PATH_86" d="m803.64,749.1c0,2.9-1.9,4.3-5.8,4.3-1.4,0-2.5-.2-3.1-.6-.8-.4-1.2-1.4-1.2-2.7,0-.6.2-1.2.4-1.9.2-.2.2-.4.4-.4s.2.2.2.6v.6c0,.8.4,1.4,1.2,1.6.4.2,1.2.2,2.3.2,3.1,0,4.5-.4,4.5-1.4,0-1.4-1.9-3.5-5.3-6l.6-2.1c0-.2.2-.2.2-.2,0,0,.2,0,.4.2,3.5,2.8,5.2,5.5,5.2,7.8h0Z"/></g><polygon id="_850" class="cls-1" points="272.84 743.71 235.44 763.9 197.74 797.6 194.94 838.6 195.44 851.6 220.24 862.8 257.24 862.8 284.84 860.21 290.34 847.8 305.54 830.8 318.14 824.01 326.44 823.1 310.34 773.6 280.44 745.8 272.84 743.71"/><g id="G_86"><path id="PATH_87" d="m228.24,807.9c1.1,2,1.7,4,1.7,6.4,0,1.6-.5,3.3-1.1,4-1.3,1.4-3.4,2.4-5.2,2.4-2.9,0-4.8-2-4.8-4.7,0-2,.6-3.4,1.3-4.5l.6.3c-.5,1-.9,2.2-.9,2.9,0,1.3.4,2.2,1,2.7.7.6,1.8,1,3,1s2.8-.6,3.8-1.4c.7-.5,1.1-1,1.1-1.3,0-1.1-.2-2-.5-2.8-.4-1.2-.8-2.3-1.3-3.1.4-.7.8-1.3,1.2-2l.1.1h0Zm-4.3-5c.6.5,1.3,1,1.9,1.7-.3.6-.8,1.1-1.3,1.5-.6-.6-1.2-1.1-1.8-1.6.4-.6.8-1.1,1.2-1.6h0Z"/><path id="PATH_88" d="m232.94,817.21c.2-1,.2-2.1.2-3.1v-1.5c0-2.9-.3-7-.6-9.7.4-.6,1-1.2,1.5-1.7h.1c.3,3.4.4,7.4.4,11,0,1,0,1.9-.1,2.6,0,.9-.5,1.5-1.4,2.5l-.1-.1Z"/><path id="PATH_89" d="m242.64,811.6c.9,2.1,1.7,3.4,3.5,3.4h.3v2h-.3c-.7,0-1.2-.1-1.6-.5h-.1v.5c0,.7-.2,1.7-.6,2.4-1.2,2.2-2.6,3.1-3.7,3.1-1.2,0-2.6-.5-3.9-1.2l.2-.5c.4.2,1,.3,1.8.3,2.1,0,4.8-2.4,5.2-4.7-.1-.2-.2-.4-.4-.7-.6-.9-1-1.6-1.4-2.3.3-.7.6-1.3.9-1.8h.1Z"/><path id="PATH_90" d="m247.44,815.01c2.5,0,5.1-.9,8.3-2.8v-.1c-1.8-.7-3.5-1.1-4.9-1.1-.9,0-1.5.3-2,.8l.2.8-.5,1.4h-.1l-.8-2.1c.1-1.7,1.5-2.8,3.4-2.8,1,0,2.7.4,5.1,1.4.8.3,1.7.5,2.7.5h1.3l-.8,1.6c-1.3,0-2.2.2-2.7.6l-2.6,1.7c-2.1,1.4-4.3,2.1-6.8,2.1h-.8c-.9,0-1.1-.6-1.1-1s.2-1,1.1-1h1,0Zm4.7,4.3c.6.5,1.3,1,1.9,1.7-.3.6-.8,1.1-1.3,1.5-.6-.6-1.2-1.1-1.8-1.6.4-.6.8-1.1,1.2-1.6h0Z"/><path id="PATH_91" d="m266.64,817.01h-.2c-1.2,0-2-.2-2.7-.9-1-1-1-2.1-1-4.4,0-3-.2-6.1-.4-9.4.5-.6,1-1.1,1.5-1.5l.1.1c.2,3.4.2,7.5.2,11.3v.9c0,1,.6,1.5,1.2,1.7.4.1.8.2,1,.2h.2v2h.1,0Z"/><path id="PATH_92" d="m268.34,815.01c.2-1.1.5-2.2.8-3.3.4-1.5,1-2.8,1.8-4h.1c.1.3.4.6.6.9,1.2,1.6,2,3.1,2,4.4,0,.7-.1,1.4-.3,2.1h3v2h-.4c-.3,0-.9,0-1.3-.2h-.1c.4.7.6,1.5.6,2.1,0,.7-.2,1.4-.5,1.9-.5.8-1.4,1.5-2.3,1.5-.7,0-1.5-.2-2.2-.6-1.3-.8-2.1-2.4-2.1-4v-.8c-.4,0-.8.1-1.2.1h-.3c-.9,0-1.1-.6-1.1-1s.2-1,1.1-1h1.8v-.1h0Zm1.7,4.1c.8,1,2,1.6,3,1.6.6,0,.9-.3.9-.8s-.1-1.1-.6-1.9c-.5-.7-1.2-1.2-2.5-1.2-.6,0-1.2,0-1.8.1.1.7.5,1.6,1,2.2h0Zm1.7-4.4c.8-.2,1-.5,1-.8,0-1-.9-2.4-1.9-3.8h-.1c-.5,1.5-1,3.1-1.5,4.8.9.1,1.8,0,2.5-.2Z"/><path id="PATH_93" d="m276.84,815.01c1.2,0,2.1-.8,2.6-2.8.2-.6.6-1.3,1.2-1.9.6-.5,1.2-.9,2-.9,1.9,0,3,2.6,3.3,5.4-.3,1.4-.9,2-1.7,2-1.5,0-3.1-.7-4.6-1.8h-.1c-.4,1.4-1.3,2-2.7,2h-.3c-.9,0-1.1-.6-1.1-1s.2-1,1.1-1h.3Zm5.5-.7c.6.2,1.2.5,1.9.5.2,0,.4,0,.5-.2-.5-2.4-1.5-3.4-2.5-3.4-.9,0-1.6.5-2.1,1.5.5.7,1.3,1.2,2.2,1.6h0Z"/></g></svg>