<?xml version="1.0" encoding="UTF-8"?><svg id="Layer_1" xmlns="http://www.w3.org/2000/svg" viewBox="0 0 1561.72 768.11"><defs><style>.cls-1{fill:#eacae1;}.cls-1,.cls-2,.cls-3,.cls-4,.cls-5,.cls-6{stroke:#040404;}.cls-1,.cls-2,.cls-3,.cls-5,.cls-6{stroke-miterlimit:10;stroke-width:.5px;}.cls-7{fill:#e8d0e5;}.cls-7,.cls-8,.cls-9,.cls-10{stroke:#020202;stroke-width:.59px;}.cls-7,.cls-8,.cls-9,.cls-10,.cls-4{stroke-miterlimit:29.36;}.cls-2{fill:#fcdfec;}.cls-8{fill:#fdfad6;}.cls-9{fill:#fbd1d1;}.cls-10{fill:#dbeccb;}.cls-3{fill:#ffeec0;}.cls-4{fill:none;stroke-width:1.47px;}.cls-5{fill:#fff3b8;}.cls-6{fill:#f8bfd8;}</style></defs><path id="_516" class="cls-9" d="m148.42,287.63c29.7-2.6,27.3-34.1,26.1-60.5l-91.9-17.3-2.1-.9c-14.4,9.7-21.1,24.1-16.4,43.4-10.6,1.5-13.8,10.6-9.1,20,9.1,20,44.3,25.8,39.6,41.4-.6,1.8-1.5,3.2-2.1,5,1.5-.3,2.6-.9,3.8-1.8,16.9-12.6,30.7-26.4,52.1-29.3h0Z"/><path id="_824" class="cls-10" d="m253.82,330.23c16.7-6.2,4.7-33.5-6.2-49-2.9-7.6,4.7-12.3,7.6-18.2,1.8-6.5.3-12-1.2-17.9l-36.4-9.7-43.2-8.2c.9,23.2,2.9,50.5-17,58.4,1.8,5.9,3.5,11.7,5.9,17.3,15.6,32,61.4,39.6,90.5,27.3h0Z"/><path id="_827" class="cls-7" d="m374.42,501.32c13.8,4.7,27.6-9.1,29.1-20,2.9-24.4,25.8-35.2,33.5-54.9,4.7-12.3-9.1-18.2-16.7-25.8-2.9-4.7,1.5-7.6,4.7-10.6,16.7-21.4,65.8-20,54.9-58.1-1.5-1.5,4.7-4.7,6.2-6.2,2.6-10.3-1.2-19.4-4.4-29.1l-3.5.3-85.8-23.1-89-15.6-49.3-13.2c1.5,5.9,2.9,11.7,1.2,17.9-2.9,6.2-10.9,10.6-7.6,18.2,10.6,15.3,22.9,42.9,6.2,49-14.7,6.2-33.8,7.3-51.1,2.6-9.4,15.6-12,35.5-.9,52.3,13.8,18.2,0,38.2-12.3,56.7-2.9,4.7-4.7,13.8,1.5,18.5,7.3,5.3,13.2,11.4,16.7,18.2,11.7,6.8,25,10.9,38.2,12.3,42.7,3,87.1-6.1,128.4,10.6h0Z"/><path id="_771" class="cls-8" d="m663.02,331.92c4.7,4.7,10.6,1.5,15.3-1.5,4.7-6.2,4.7-15.3,9.1-18.2,10.6-7.6,24.4,1.5,33.5-6.2,22-16.1,21.4-44.9,28.2-70.2l-19.4,3.5-83.1,19.1-36.7,12.6c.27.46.54.91.8,1.37,1.77,3.02,3.46,6.03,5.1,9.03-12,16.75-9.4,23.62-8.11,25.84,1.66,2.88,4.33,3.49,23.66,15.47.73.45,1.33.83,1.75,1.09,3.34-.45,9.09-.8,15.85,1.05,6.68,1.82,11.41,4.98,14.05,7.05Z"/><path id="_770" class="cls-10" d="m742.02,270.92c-3.5,13.8-8.8,26.1-20.6,34.9-9.1,7.6-22.9-1.5-33.5,6.2-4.7,2.9-4.7,12.3-9.1,18.2-4.7,2.9-10.6,6.2-15.3,1.5-8.8-7.6-19.4-8.2-30.2-7.6,2.1,1.5,3.8,4.1,2.6,6.2-6.2,9.1-16.7,18.2-7.6,27.6,10.6,13.8,15.3,27.6,24.4,42.9,1.5,4.7,7.6,7.6,9.1,12.3,4.7,9.1,1.5,21.4-6.2,22.9-16.7,2.9-36.7-6.2-42.9,16.7-6.2,30.5,9.1,56.7,36.7,71.9,12.3,7.6,24.4,29.1,7.6,38.2-9.1,6.2-20-10.6-32-1.5-6.2,4.7-12.3,13.8-20,10.6-9.1-4.7-20-10.6-29.1-6.2-21.4,7.6-45.8,0-65.8,12.3-18.2,10.6-21.4,36.7-41.4,47.3-18.2,9.1-36.7-1.5-54.9-6.2-7-2.1-13.2,1.2-20,3.8,10.3,5.3,19.1,10,24.1,13.8,18.5,13.8,35.2,40.5,43.4,69.3,4.4,15,20.3,21.1,38.8,28.2,12.6,4.7,25.5,9.7,37,17.9,22.9,16.4,37,15.9,53.4,15.6,2.9,0,5.9-.3,8.8-.3,18.5,0,50.8-7.6,71-19.7,21.4-12.9,56.4-40.8,67.5-63.4,1.4-2.85,8.03-9.69,18.2-13.2,3.92-1.35,7.33-1.76,9.4-1.9v-63.46c1.39-6.88,2.7-17.74,0-30.25-2.49-11.53-6.98-17.98-16.8-35.96-4.28-7.84-10.57-19.7-17.8-34.73-1.24-1.42-3.43-4.33-4.28-8.59-1.48-7.46,2.31-13.27,3.15-14.5,1.25-5.3,4.32-15.05,12.32-24.51,10.45-12.34,23.12-16.88,28.42-18.44,1.47-6.14,2.58-13.75,2.28-22.46-.85-24.61-12.47-42.5-18.5-50.5,12.3-18.2,30.5-38.2,18.5-61.1,1.5-.6,2.9-.9,4.7-1.5-4.27-2.01-9.13-4.74-14.12-8.49-10.73-8.05-17.38-17.25-21.28-23.81Z"/><path id="_489" class="cls-9" d="m793.12,257.13c9.4-10.3,14.4-20.8,16.1-32l-59.9,10.9c-2.9,11.4-4.7,23.8-7.3,34.9,8.5,14.1,20.6,25.2,35.8,32,13.5-4.1,25.2-7.9,18.5-23.2-3.2-7.4-7.9-18.2-3.2-22.6h0Z"/><path id="_777" class="cls-10" d="m837.42,287.63c9.1-7.6,29.1,1.5,39.6-7.6,6.98-6.05,19.62-2.44,27.6-10.6,2.3-2.35,3.8-4.68,4.71-6.3-5.09-1.8-11.37-4.66-17.83-9.29-5.82-4.18-11.07-7.94-14.65-14.95-3.78-7.39-3.86-14.79-3.33-19.68v-6.78c-8.68,1.71-17.4,3.41-26.15,5.1-10.72,2.07-21.41,4.1-32.05,6.1l-6.5,1.2c-1.8,11.4-7,21.7-16.1,32-4.7,4.7,0,15.3,2.9,22.9,3.5,7.6,2.1,12.6-1.8,15.9,1.16,1.3,8.34,9.11,19.52,9.02,10.26-.08,19.78-6.79,24.08-17.02Z"/><path id="_802" class="cls-8" d="m939.62,305.82c10.6,7.6,25.8,9.1,33.5-1.5,1.5-4.7-6.2-13.8-1.5-15.3,10.6-4.7,25.8-6.2,29.1-15.3,1.5-12.3-1.5-20,1.5-32,2.9-7.6-13.8-18.2-7.6-25.8,11.7-12.9,10-25,3.5-36.7l-17.9,5.3-56.7,16.1c.6,11.4-5.6,21.1-8.2,32,9.1,0,7.6,9.1,6.2,15.3-2.9,7.6-12.3,12.3-16.7,21.4-.3.9-.9,1.5-1.2,2.1,11.9,10.6,22.5,24.4,36,34.4h0Z"/><path id="_923" class="cls-9" d="m906.12,327.23c11.4,5,22.9-9.7,34.1-21.1-.3,0-.3-.3-.6-.3-13.8-10-24.1-23.8-36.4-34.6-5.6,6.2-17.9,1.8-26.1,8.8-1.8,1.5-3.5,2.3-5.6,2.9,12.9,14.7,17,37.3,34.6,44.3h0Z"/><path id="_774" class="cls-7" d="m873.52,614.92c2.6-1.9,5.95-5,6.11-8.98.28-7-15.24-6.62-17.81-18.83-2.9-13.8,0-29.1-12.3-41.4-6.2-6.2-2.9-20,2.9-27.6,9.1-12.3,22.9-18.2,33.5-30.5,1.5-2.9,10.9,0,15.3-1.5,4.7-2.9,10.6-9.1,9.1-16.7-1.5-6.2-9.1-12.3-9.1-16.7,1.5-27.6-15.3-44.3-32-62.5-1.5-1.5-1.5-7.6,0-7.6,16.7-10.6,29.1-22.9,24.4-42.9,4.7,0,2.9-6.2,7.6-6.2,0-2.9,0-5.6-.3-8.5-13.8-8.8-18.2-28.5-29.7-42-11.2,3.8-26.4-1.8-34.3,4.7-7.6,9.1-18.2,21.4-30.5,15.3-4.1-1.8-8.2-4.4-12.3-7-4.7,4.1-12.9,6.2-21.1,8.5,12.3,22.9-6.2,42.9-18.5,61.1-9.1,16.7,13.8,32,18.5,50.5.73,2.88,2.9,15.98-2.9,20-1.71,1.19-4.11,1.57-4.7,3.5-.7,2.3,1.7,5.09,3.95,7.17,3.97,6.05,8.1,13.25,11.91,21.6,5.67,12.43,9.01,23.94,11.04,33.44,6.71,19.68,4.37,31.7.8,39.12-2.53,5.27-6.65,10.28-4.92,15.46,1.78,5.33,8.82,7.85,14.71,9.14,5.08,3.35,10.48,6.72,16.21,10.07,7.59,4.44,14.95,8.36,21.98,11.83l25.42,13.67c2.33,4.6,4.67,9.2,7,13.8Z"/><path id="_798" class="cls-8" d="m1107.82,660.22c13.8-33.5-22.9-47.3-39.6-71.9-18.2-25.8-10.6-52,2.9-79.6,7.6-15.3-15.3-33.8-35.2-36.7-21.4-4.7-39.6,6.2-58.1,12.3-21.4,6.2-38.2-9.1-56.7-16.7-3.8-1.8-7.9-2.3-12.3-2.3.9,1.2,1.5,2.6,1.8,3.8,1.5,7.6-4.7,13.8-9.1,16.7-4.7,1.5-13.8-1.5-15.3,1.5-10.6,12.3-24.4,18.2-33.5,30.5-6.2,7.6-9.1,21.4-2.9,27.6,12.3,12.3,9.1,27.6,12.3,41.1,2.92,12.31,18.11,11.69,17.81,18.81-.14,3.51-2.63,5.66-6.41,9.59-5.02,5.21-11.75,12.97-18.88,23.88-2.12,6.52-4.16,13.46-6.05,20.81-1.48,5.76-2.76,11.34-3.86,16.71,9.4,2.6,17.3,5.9,22,8.5,12,7.3,48.1,15,77.2,21.4,19.1,4.1,35.5,7.6,45.2,10.9,2.9.9,5.9,2.1,9.1,2.9.6-.9,1.2-1.8,2.3-2.3,2.3-1.5,59.3-33.8,89.5-33.8,8.2,0,15.3-4.1,21.4-10.3-.86-.8-2.92-2.92-3.79-6.4-.81-3.22-.16-5.87.19-7Z"/><path id="_921" class="cls-9" d="m1035.92,450.82c-15.3-12.3-21.7-25-30.5-40.5-13.2,4.7-26.4-5-41.1-2.1-23.2,6.5-42.9,19.4-66.1,21.4,2.6,6.8,3.8,14.4,3.2,22.9,0,3.5,4.7,8.2,7.3,12.9,4.4,0,8.5.9,12.3,2.3,18.2,7.6,35.2,22.9,56.4,16.7,18.2-6.2,36.4-16.4,57.5-12.3,8-6,11.5-12.2,1-21.3h0Z"/><path id="_794" class="cls-7" d="m1236.72,465.51c10.9-10.36,23.8-9.55,25-15.5.63-3.14-1.96-8.28-17.18-16.96-7.01-10.78-14.01-21.55-21.02-32.33-15.04,3.36-30.07,6.71-45.11,10.07-13.24-1.21-29.67-4.78-35.29-16.27-3.87-7.91,3.07-16.48,0-21.4-18.2-29.1-39.6-53.4-68.7-70.2,7.6-13.8-1.5-27.6,2.9-41.4,1.5-2.9,2.9-6.2,4.7-7.6,7.6-12.3-10.6-18.2-12-27.6-2.9-22.3,7-46.1-7.9-65.5l-1.5.3-61.9,17.9c6.5,11.7,7.9,23.8-3.5,36.7-6.2,7.6,10.6,18.2,7.6,25.8-2.9,12.3,0,20-1.5,32-2.9,9.1-18.2,10.6-29.1,15.3-4.7,1.5,2.9,10.6,1.5,15.3-1.2,1.8-2.6,2.9-4.1,4.1-7.9,30.5,32.9,48.1,47,72.2,4.7,9.1,0,24.4-9.1,29.1-.6.3-1.2.3-1.5.6,9.1,15.9,15.6,28.2,30.5,40.5,10.6,8.8,6.8,15.3-.6,21.1h.6c20,2.9,42.9,21.4,35.2,36.7-13.8,27.6-21.4,53.4-2.9,79.6,16.7,24.4,53.4,38.2,39.6,71.9-2.3,4.7.9,9.4,3.8,14.1,6.2-5.9,11.4-13.8,17.3-22s11.7-16.7,18.5-23.8c26.63-27.8,65.73-33.53,74.3-34.6,8.12-1.01,14.83-1.09,19.1-1-2.77-1.04-9.49-3.99-14.8-11.11-4.87-6.53-5.99-13.13-6.31-16.1-2.96-7.56-5.93-15.13-8.89-22.69v-20.71c-.27-3.82-.17-8.99,1.3-14.85,2.89-11.49,9.44-19,12.96-22.49,1.53-5.47,4.54-12.98,11.04-19.16Z"/><path id="_795" class="cls-7" d="m1320.12,205.13c0,6.2-10.6,9.1-12.3,15.3-6.2,30.5,27.6,35.2,50.5,32,2.9,0,4.7,4.7,4.7,6.2,2.9,29.1,22.9,47.3,52,39.6,21.7-6.8,42-20,63.4-25-17-6.8-31.4-12.9-32.6-13.2-3.2-1.5-27.9-14.4-32.3-32.9-4.4-17-4.4-49.6-4.4-50.8,0-2.3,1.5-4.4,3.5-5.6l-68.1-6.2h-1.5c-15,6.8-20.3,24.2-22.9,40.6h0Z"/><path id="_300" class="cls-9" d="m1069.62,226.22c1.5,9.1,20,15.3,12,27.6-1.5,1.5-2.9,4.7-4.7,7.6-4.7,13.8,4.7,27.6-2.9,41.4,29.1,16.7,50.5,41.4,68.7,70.2,2.9,4.7-4.7,13.8,0,21.4,16.7,27.6,54.9,13.8,81,6.2-7.6-32-29.1-67.2-65.8-70.2-2.9-1.5-7.6-4.7-6.2-7.6,2.9-25.8-21.4-33.5-32-52-1.5-4.7-2.9-9.1-1.5-13.8,4.7-7.6,12.3-13.8,9.1-22.9-4.7-7.6-13.8-13.8-10.6-22.9,7-18.8-1.2-41.7-13.5-59l-41.7,8.8c15.2,19.4,5.2,43.2,8.1,65.2h0Z"/><path id="_803" class="cls-10" d="m1016.22,380.73c-14.1-24.1-54.9-41.7-47-72.2-7.9,5.9-20,3.8-29.1-2.3-11.4,11.4-22.9,26.1-34.1,21.1-1.8-.6-3.2-1.5-4.7-2.3.3,2.9.3,5.6.3,8.5-4.7,0-2.9,6.2-7.6,6.2,4.7,20-7.6,32-24.4,42.9-1.5,0-1.5,6.2,0,7.6,11.4,12.6,23.2,24.7,28.8,39.6,22.9-2.1,42.9-15,66.1-21.4,14.7-2.9,27.9,6.8,41.1,2.1-.9-1.8,1.2,1.8,0,0,1.2,1.8-.9-1.8,0,0,.6-.3,1.2-.3,1.5-.6,9.1-4.9,13.5-20.1,9.1-29.2h0Z"/><path id="_822" class="cls-9" d="m414.12,619.13c18.2,4.7,36.7,15.3,54.9,6.2,20-10.6,22.9-36.7,41.4-47.3,20-12.3,44.3-4.7,65.8-12.3,9.1-4.7,20,1.5,29.1,6.2,7.6,2.9,13.8-6.2,20-10.6,12.3-9.1,22.9,7.6,32,1.5,16.7-9.1,4.7-30.5-7.6-38.2-18.61-10.32-31.63-25.55-36.24-43.73-3.5-13.82,4.02-25.71-.46-28.17-3.21-1.76-9.21,2.92-14,7.4-15.53-10.13-31.07-20.27-46.6-30.4l-14.72-71.09c-1.43-22.8-2.85-45.61-4.28-68.41-17.27,2.07-34.53,4.13-51.8,6.2,3.2,9.7,7,19.1,4.4,29.1-1.5,1.5-7.6,4.7-6.2,6.2,10.6,38.2-38.2,36.7-54.9,58.1-2.9,2.9-7.6,6.2-4.7,10.6,7.6,7.6,21.4,13.8,16.7,25.8-7.6,20-30.5,30.5-33.5,54.9-1.5,10.6-15.3,24.4-29.1,20-41.1-16.7-85.4-7.6-128.3-10.6-13.2-1.2-26.4-5.6-38.2-12.3,6.8,12.9,5.9,27.9-5.9,42.9-3.8,5-5.6,13.5-2.3,21.4,14.7,1.2,29.1,2.1,38.2,2.1,7.6,0,15.9,1.5,24.4,4.1h.9c1.2,0,2.1.6,2.9,1.2,16.4,5.6,34.1,15.9,49.6,29.1,13.8,11.4,40.2,24.7,63.7,36.4,5.3,2.6,10.3,5,15,7.3,2.06-1.18,5.37-2.75,9.71-3.53,4.22-.75,7.77-.45,10.09-.08Z"/><path id="_622" class="cls-8" d="m201.82,521.33c18.2-22.9,10.6-45.8-10.6-61.1-6.2-4.7-4.7-13.8-1.5-18.2,12.3-18.2,25.8-38.2,12.3-56.7-11.2-16.7-8.5-36.7.9-52.3-16.7-4.4-31.7-14.4-39.3-30.2-2.6-5.6-4.1-11.4-5.9-17.3-2.6,1.2-5.9,1.8-9.4,2.1-21.4,2.9-35.2,16.7-52,29.1-1.2.9-2.3,1.5-3.5,1.8-10.3,20-38.5,39-66.6,17.9-9.1-7.6-32,7.6-24.4,21.4,2.9,4.7,10.9,7.6,10.9,12.3,2.6,34.1,10.3,73.4-7.9,104.2,17.9,10,35.2,20,43.4,26.4,18.2,14.7,80.4,29.9,100.7,34.9l3.8.9c8.5,2.1,27.9,4.4,46.7,6.2-3.2-8.2-1.4-16.4,2.4-21.4h0Z"/><path id="_784" class="cls-10" d="m1397.02,354.82c-5.6-4.7-12,3.8-17.6,5.6-12,3.8-33.2-1.8-33.2-12,2.6-35.2-32.3-43.4-56.4-52.8-12-4.7-25.8,1.8-37.9,7.3-3.8,1.8-11.2-2.6-11.2-7.3.9-7.3,3.8-15.9-4.7-18.5-16.7-6.5-43.4,6.5-49-14.7-3.8-16.7,13.8-30.5,2.6-47.3-12-17.6-31.4-20.3-49.9-25-1.8-.9-4.7-2.6-5.6-4.7-6.5-12.6,5-28.8-5-39l-25.8,5.6c12.3,17.3,20.6,40.5,13.5,59-2.9,9.1,6.2,15.3,10.6,22.9,2.9,9.1-4.7,15.3-9.1,22.9-1.5,4.7,0,9.1,1.5,13.8,10.6,18.2,35.2,25.8,32,52-1.5,2.9,2.9,6.2,6.2,7.6,36.7,2.9,58.1,38.2,65.8,70.2-.2,0-.4.1-.6.3,10.6,13.2,17.6,29.4,28.2,41.1,21.4,22.9,58.1,18.2,85.4,0,9.1-6.2,22.9,6.2,33.8-1.5,21.1-12.3,43.4-25,67.2-23.2.6-2.3,1.5-4.4,2.1-5.9,4.7-12.3,15-28.2,27.6-31.1,10.6-2.6,21.7-6.2,31.7-10,.3,0,.6-.3.9-.3-3.5-2.3-7.3-4.1-11.4-4.4-29.8-2.3-63,10.9-91.7-10.6Z"/><path id="_783" class="cls-8" d="m1531.42,300.52c-2.6-6.2-6.2-9.7-11.2-11.4-11.2-3.8-27.6-10-42-15.9-21.4,5-42,18.2-63.4,25-29.1,7.6-49-10.6-52-39.6,0-1.5-1.5-6.2-4.7-6.2-22.9,2.9-56.7-1.5-50.5-32,1.5-6.2,12.3-9.1,12.3-15.3,2.6-16.1,7.9-33.8,22.6-40.5h-.9l-19.7-8.2-11.4-14.7,4.1-.9,10-2.3-16.4.9-6.5-2.3-3.2-6.5h24.7l27.9,4.1,7.3-1.8,13.2-5,7.3-.9,13.2,3.2,6.5.9,5.9-2.3,22.3-6.5,34.6-4.1,27.3-9.1.9-21.4-23.2,18.8-34.6,7.3-190.2,10.9-21.4,3.2-90.7,19.1c10,10.3-1.5,26.4,5,39,.9,1.8,3.8,3.8,5.6,4.7,18.5,4.7,37.9,7.3,49.9,25,11.2,16.7-6.5,30.5-2.6,47.3,5.6,21.1,32.3,8.2,49,14.7,8.2,2.6,5.6,11.2,4.7,18.5,0,4.7,7.3,9.4,11.2,7.3,12-5.6,25.8-12,37.9-7.3,24.1,9.4,59.3,17.6,56.4,52.8,0,10.3,21.1,15.9,33.2,12,5.6-1.8,12-10.3,17.6-5.6,28.8,21.1,61.9,8.2,91.6,10.3,4.1.6,7.9,2.1,11.4,4.4,14.4-5.9,25.8-12.6,29.4-19.1,4.6-11.1,7.8-35.2,1.6-50.5h0Z"/><line id="LINE_27" class="cls-4" x1="844.02" y1="242.72" x2="822.02" y2="169.02"/><line id="LINE_28" class="cls-4" x1="676.22" y1="282.32" x2="654.22" y2="208.63"/><line id="LINE_29" class="cls-4" x1="964.22" y1="245.33" x2="986.62" y2="139.63"/><line id="LINE_30" class="cls-4" x1="1094.02" y1="235.13" x2="1094.02" y2="63.02"/><line id="LINE_32" class="cls-4" x1="1395.22" y1="231.83" x2="1455.12" y2="200.72"/><line id="LINE_33" class="cls-4" x1="209.52" y1="285.52" x2="232.42" y2="204.83"/><line id="LINE_34" class="cls-4" x1="114.02" y1="259.73" x2="136.92" y2="131.42"/><g id="G_42"><path id="PATH_43" d="m85.32,91.83c0,4.1-2.6,6.2-8.2,6.2-2.1,0-3.5-.3-4.4-.9-1.2-.6-1.8-2.1-1.8-3.8,0-.9.3-1.8.6-2.6.3-.3.3-.6.6-.6s.3.3.3.9v.9c0,1.2.6,2.1,1.8,2.3.6.3,1.8.3,3.2.3,4.4,0,6.5-.6,6.5-2.1,0-2.1-2.6-5-7.6-8.5l.9-2.9c0-.3.3-.3.3-.3,0,0,.3,0,.6.3,4.8,3.7,7.2,7.6,7.2,10.8Z"/><path id="PATH_44" d="m97.02,98.02h-2.1c-2.1,0-3.8-.9-4.4-2.6-.6-1.2-.9-3.2-.9-5.6v-5.6c0-2.6-.3-6.5-.6-11.4l1.8-2.1c.3-.3.6-.3.6,0,.3,2.6.6,6.5.6,11.4v8.5c0,2.3,1.2,3.5,3.5,3.5h1.5s0,3.9,0,3.9Z"/><path id="PATH_45" d="m104.12,92.12c0,3.8-2.1,5.9-5.9,5.9h-2.3v-3.6h2.1c2.9,0,4.4-.6,4.4-1.5s-.6-2.1-2.1-3.5l1.2-2.9c0-.3.3-.3.3-.3l.6.6c1.1,1.5,1.7,3.5,1.7,5.3Zm-.9,12.3l-2.3,2.3-2.3-2.3,2.3-2.3,2.3,2.3Z"/><path id="PATH_46" d="m115.82,66.52c-1.2,1.2-2.9,1.5-4.7,1.5h-2.4c-.3,0-.6.3-.9.6s-.6.6-.6.6c-.3,0-.3-.3-.3-.6s.3-.9.6-1.5c.3-.9.6-1.2.9-1.2s.9,0,1.8.3c.9,0,1.5.3,1.8.3,1.8,0,2.9,0,3.8-.3.6,0,.9-.3.9-.3h.3c-.6.1-.6.3-1.2.6h0Zm-1.8,27.9c0,1.2-.3,2.3-.9,3.2-.3.6-.6.9-.6.9,0,0-.3-.3-.3-1.2,0-3.5-.6-11.7-1.8-25l2.3-2.3.3-.3v.6c.7,3.9,1,11.8,1,24.1Z"/><path id="PATH_47" d="m167.82,91.83c0,4.1-1.8,6.2-5.3,6.2-2.1,0-3.2-.9-3.8-2.6-.9,1.8-2.3,2.6-4.1,2.6-.6,0-1.5,0-2.1-.3,0,1.8-.3,3.5-.3,5.6-.9,2.1-2.3,3.8-5,5-2.3.9-4.7,1.5-7.3,1.5s-4.7-.6-6.5-1.8c-1.8-1.5-2.6-3.2-2.6-5.9,0-1.5.3-2.6.9-4.4.6-1.2.9-2.1,1.5-2.6.3-.3.6-.3.6-.3.2,0,.3.1.3.3v.6c-.9,1.8-1.2,3.5-1.2,5s.6,2.6,1.5,3.8c1.2,1.5,3.2,2.1,5.9,2.1,2.9,0,5.6-.6,7.6-1.5,1.8-.9,2.9-1.8,3.2-2.9.3-.3.3-.9,0-2.1,0-.9-.3-1.8-.3-2.1-.3-.9-1.2-2.3-2.9-4.4l1.2-2.3c.3-.3.3-.6.3-.6,0,0,.3,0,.3.3.9,1.2,1.5,2.1,1.8,2.3.9.9,1.8,1.2,2.9,1.2s2.3-.3,2.9-1.2c.3-.6.6-1.2.9-2.6,0-.6.3-.9.6-.9s.3.3.3.9c.3,1.5.6,2.3,1.2,2.9s1.8.9,3.2.9c.6,0,1.2-.3,1.5-.6.6-.3.9-.9.9-1.5,0-.9-.6-1.8-1.8-3.2l1.5-2.6.3-.3.3.3c1.3,2,1.6,3.4,1.6,5.2h0Z"/><path id="PATH_48" d="m179.52,98.02h-2.1c-2.1,0-3.8-.9-4.4-2.6-.6-1.2-.9-3.2-.9-5.6v-5.6c0-2.6-.3-6.5-.6-11.4l1.8-2.1c.3-.3.6-.3.6,0,.3,2.6.6,6.5.6,11.4v8.5c0,2.3,1.2,3.5,3.5,3.5h1.5v3.9h0Z"/><path id="PATH_49" d="m193.92,98.02h-2.3c-2.6,0-4.4-.9-5.6-2.6-.9,1.8-2.9,2.6-6.2,2.6h-1.8v-3.6h2.6c2.9,0,4.4-1.2,4.7-3.2,0-.9.3-1.5.6-1.5s.6.6.6,1.5c.3,2.1,1.8,3.2,4.4,3.2h2.6v3.5h.4v.1Zm-6.5,6.4l-2.3,2.3-2.3-2.3,2.3-2.3,2.3,2.3Z"/><path id="PATH_50" d="m209.52,92.12l-.9,2.6-7.9,2.1c-2.3.6-4.4.9-6.2.9h-1.5v-3.5h2.3c.6,0,1.2,0,2.3-.3-1.8-1.5-2.6-2.6-2.6-4.1,0-1.2.6-2.6,2.1-4.4,1.8-2.1,3.5-3.2,5.3-3.2,2.1,0,3.5.9,4.7,2.6.3.6.6.9.6,1.2,0,0,0,.3-.3.3s-.6,0-1.5-.3c-1.5-.3-2.6-.6-3.8-.6-.9,0-1.8.3-2.9.9-1.2.6-2.1,1.2-2.1,2.1,0,.6.6,1.5,1.5,2.3,1.2,1.2,2.6,1.8,4.1,1.8.6,0,2.6-.6,6.2-1.5h.6v1.1h0Z"/></g><g id="G_51"><path id="PATH_52" d="m241.52,160.22c0,4.1-1.8,6.2-5.3,6.2-2.1,0-3.2-.9-3.8-2.6-.9,1.8-2.3,2.6-4.1,2.6-.6,0-1.5,0-2.1-.3,0,1.8-.3,3.5-.3,5.6-.9,2.1-2.3,3.8-5,5-2.3.9-4.7,1.5-7.3,1.5s-4.7-.6-6.5-1.8c-1.8-1.5-2.6-3.2-2.6-5.9,0-1.5.3-2.6.9-4.4.6-1.2.9-2.1,1.5-2.6.3-.3.6-.3.6-.3.2,0,.3.1.3.3v.6c-.9,1.8-1.2,3.5-1.2,5s.6,2.6,1.5,3.8c1.2,1.5,3.2,2.1,5.9,2.1,2.9,0,5.6-.6,7.6-1.5,1.8-.9,2.9-1.8,3.2-2.9.3-.3.3-.9,0-2.1,0-.9-.3-1.8-.3-2.1-.3-.9-1.2-2.3-2.9-4.4l1.2-2.3c.3-.3.3-.6.3-.6,0,0,.3,0,.3.3.9,1.2,1.5,2.1,1.8,2.3.9.9,1.8,1.2,2.9,1.2,1.2,0,2.3-.3,2.9-1.2.3-.6.6-1.2.9-2.6,0-.6.3-.9.6-.9s.3.3.3.9c.3,1.5.6,2.3,1.2,2.9s1.8.9,3.2.9c.6,0,1.2-.3,1.5-.6.6-.3.9-.9.9-1.5,0-.9-.6-1.8-1.8-3.2l1.5-2.6.3-.3.3.3c1,2,1.6,3.4,1.6,5.2h0Z"/><path id="PATH_53" d="m259.72,166.42h-3.3c-.3,4.1-1.8,7.3-4.7,10.3-.9.9-1.5,1.5-1.8,1.5-1.5,0-3.5-.3-5.6-.6-.6,0-1.2-.3-1.2-.3,0,0,.3-.3,1.2-.6,2.3-.6,4.7-2.1,6.8-3.5.9-.9,1.8-1.5,2.3-2.6.9-1.2,1.5-2.3,1.5-3.2v-1h-3.8c-2.9,0-4.1-1.2-4.1-3.5,0-1.5.3-2.9,1.2-4.7s2.1-2.9,3.2-2.9c1.5,0,2.6.9,3.5,2.9.6,1.5,1.2,2.9,1.2,4.7h3.2v3.5h.4Zm-5.3-3.6c0-.9-.3-1.8-.9-2.6-.6-1.2-1.5-1.5-2.3-1.5-.6,0-1.2.3-1.5.6-.6.6-.6.9-.6,1.8,0,1.5,1.2,2.1,3.5,2.1,0-.1.9-.4,1.8-.4h0Z"/><path id="PATH_54" d="m266.42,143.22c.3.3.3.6.3.6h-1.5c.3,3.8.3,9.4.3,16.7,0,1.8-.3,3.2-1.2,4.1-.9,1.2-2.3,1.8-3.8,1.8h-1.8v-3.5h1.5c2.3,0,3.5-.9,3.2-2.6-.3-6.2-.6-12.6-.9-19.1l2.1-1.8c.3-.3.6-.6.6-.6,0,0,0,.3.3.6-.3.8.3,2,.9,3.8Z"/><path id="PATH_55" d="m278.22,166.42h-2.1c-2.1,0-3.8-.9-4.4-2.6-.6-1.2-.9-3.2-.9-5.6v-5.6c0-2.6-.3-6.5-.6-11.4l1.8-2.1c.3-.3.6-.3.6,0,.3,2.6.6,6.5.6,11.4v8.5c0,2.3,1.2,3.5,3.5,3.5h1.5v3.9h0Z"/><path id="PATH_56" d="m301.12,157.83l-1.2,2.3c-2.1,0-3.8,0-4.7.3-1.2.6-2.9,1.2-5.3,2.3-2.3,1.2-4.1,2.1-5.3,2.3-1.8.6-3.8.9-5.6.9h-2.1v-3.5h2.3c2.6,0,5-.6,7-1.5l6.8-2.9c-1.2-.3-2.9-.9-5.3-1.8-2.1-.9-3.2-1.2-3.8-1.2-1.2,0-2.3.6-3.5,1.5-.2.2-.4.3-.6.3s-.3-.1-.3-.3v-.1c.9-2.9,2.6-4.1,5-4.1.9,0,2.1.3,3.2.9,2.3,1.2,4.1,1.8,5.3,2.3,2.1.6,4.4,1.2,7,1.2.6,0,.9,0,.9.3.4.3.4.5.2.8Zm-16.2,14.1l2.1-2.1,2.1,2.1-2.1,2.1-2.1-2.1Zm2.6,4.4l2.1-2.1,2.1,2.1-2.1,2.1-2.1-2.1Zm2.7-4.4l2.1-2.1,2.1,2.1-2.1,2.1-2.1-2.1Z"/></g><g id="G_57"><path id="PATH_58" d="m570.62,165.52c0,4.1-2.6,6.2-8.2,6.2-2.1,0-3.5-.3-4.4-.9-1.2-.6-1.8-2.1-1.8-3.8,0-.9.3-1.8.6-2.6.3-.3.3-.6.6-.6s.3.3.3.9v.9c0,1.2.6,2.1,1.8,2.3.6.3,1.8.3,3.2.3,4.4,0,6.5-.6,6.5-2.1,0-2.1-2.6-5-7.6-8.5l.9-2.9c0-.3.3-.3.3-.3,0,0,.3,0,.6.3,4.8,3.7,7.2,7.5,7.2,10.8h0Z"/><path id="PATH_59" d="m582.32,171.63h-2.1c-2.1,0-3.8-.9-4.4-2.6-.6-1.2-.9-3.2-.9-5.6v-5.6c0-2.6-.3-6.5-.6-11.4l1.8-2.1c.3-.3.6-.3.6,0,.3,2.6.6,6.5.6,11.4v8.5c0,2.3,1.2,3.5,3.5,3.5h1.5v3.9h0Z"/><path id="PATH_60" d="m589.32,165.83c0,3.8-2.1,5.9-5.9,5.9h-2.3v-3.5h2.1c2.9,0,4.4-.6,4.4-1.5s-.6-2.1-2.1-3.5l1.2-2.9c0-.3.3-.3.3-.3l.6.6c1.2,1.4,1.7,3.4,1.7,5.2Zm-1.1,12.3l-2.3,2.3-2.3-2.3,2.3-2.3,2.3,2.3Z"/><path id="PATH_61" d="m601.12,140.22c-1.2,1.2-2.9,1.5-4.7,1.5h-2.4c-.3,0-.6.3-.9.6l-.6.6c-.3,0-.3-.3-.3-.6s.3-.9.6-1.5c.3-.9.6-1.2.9-1.2s.9,0,1.8.3c.9,0,1.5.3,1.8.3,1.8,0,2.9,0,3.8-.3.6,0,.9-.3.9-.3h.3c-.6,0-.9.3-1.2.6h0Zm-2.1,27.9c0,1.2-.3,2.3-.9,3.2-.3.6-.6.9-.6.9,0,0-.3-.3-.3-1.2,0-3.5-.6-11.7-1.8-25l2.3-2.3.3-.3v.6c1,3.9,1,11.8,1,24.1Z"/><path id="PATH_62" d="m630.22,165.52c0,4.1-2.6,6.2-8.2,6.2-2.1,0-3.5-.3-4.4-.9-1.2-.6-1.8-2.1-1.8-3.8,0-.9.3-1.8.6-2.6.3-.3.3-.6.6-.6s.3.3.3.9v.9c0,1.2.6,2.1,1.8,2.3.6.3,1.8.3,3.2.3,4.4,0,6.5-.6,6.5-2.1,0-2.1-2.6-5-7.6-8.5l.9-2.9c0-.3.3-.3.3-.3,0,0,.3,0,.6.3,4.8,3.7,7.2,7.5,7.2,10.8h0Z"/><path id="PATH_63" d="m648.42,171.63h-3.2c-.3,4.1-1.8,7.3-4.7,10.3-.9.9-1.5,1.5-1.8,1.5-1.5,0-3.5-.3-5.6-.6-.6,0-1.2-.3-1.2-.3,0,0,.3-.3,1.2-.6,2.3-.6,4.7-2.1,6.8-3.5.9-.9,1.8-1.5,2.3-2.6.9-1.2,1.5-2.3,1.5-3.2v-.9h-3.8c-2.9,0-4.1-1.2-4.1-3.5,0-1.5.3-2.9,1.2-4.7s2.1-2.9,3.2-2.9c1.5,0,2.6.9,3.5,2.9.6,1.5,1.2,2.9,1.2,4.7h3.2v3.5h.3v-.1h0Zm-5-3.5c0-.9-.3-1.8-.9-2.6-.6-1.2-1.5-1.5-2.3-1.5-.6,0-1.2.3-1.5.6-.6.6-.6.9-.6,1.8,0,1.5,1.2,2.1,3.5,2.1,0-.1.6-.1,1.8-.4h0Z"/><path id="PATH_64" d="m669.52,171.63h-1.8c-1.5,0-2.9-.9-4.1-2.3-.9,2.3-1.8,3.5-2.6,3.5-.9,0-2.3-.6-4.1-1.5-1.5-.9-2.6-1.8-3.2-2.3-1.5,1.8-2.9,2.6-4.4,2.6h-1.8v-3.5h1.8c1.5,0,2.6-.6,3.8-1.8.9-.9,1.8-2.1,2.9-3.2,1.2-1.2,2.1-1.8,2.9-1.8,1.2,0,2.1.6,2.9,1.8.6.6,1.2,1.8,2.6,3.2.9,1.2,2.1,1.8,3.2,1.8h1.8v3.5h.1,0Zm-7.9-2.3c0-.9-.3-1.8-.9-2.9-.6-1.2-1.5-1.8-2.6-1.8-.9,0-2.1.9-3.2,2.3.3.3,1.2.9,2.6,1.8,1.5.9,2.6,1.2,3.5,1.2.3-.3.6-.3.6-.6h0Z"/><path id="PATH_65" d="m695.32,171.63h-2.9c-3.8,0-5.9-2.1-5.9-5.9v-1.5c-1.5.6-3.2,1.8-5.6,3.2-2.3,1.5-3.8,2.3-5,2.9-1.8.9-3.8,1.2-5.6,1.2h-2.1v-3.5h2.3c2.3,0,5-.6,7.3-1.8,1.2-.6,3.2-1.8,6.5-3.2-.6,0-2.3-.6-5.3-1.2-2.1-.6-3.2-.9-3.5-.9-1.2,0-2.3.6-3.5,1.5-.2.2-.4.3-.6.3s-.3-.1-.3-.3v-.3c.9-2.9,2.6-4.4,5-4.4.9,0,2.1.3,3.5.6,2.1.6,3.8,1.2,5.3,1.5,2.1.3,4.4.6,7,.6h.9v.6l-.9,2.6c-1.8,0-2.9,0-3.5.3,0,1.5.3,2.3.6,2.6.6.9,1.8,1.5,3.8,1.5h2.9v3.5h-.4v.1h0Z"/><path id="PATH_66" d="m709.72,165.83c0,1.5,0,2.6-.6,3.8-.6,1.5-1.5,2.3-2.3,2.3-1.5,0-3.8-.9-6.8-2.9-.9,1.2-1.5,1.8-1.8,2.1-.9.6-1.8.9-2.9.9h-1.5v-3.6h2.1c1.2,0,2.3-.6,3.5-2.1.6-.6,1.5-2.1,2.6-3.8.9-1.5,2.1-2.1,2.9-2.1,1.5,0,2.6.6,3.5,2.1.7,1.2,1.3,2.1,1.3,3.3Zm-1.7,2c0-.9-.3-1.8-.9-2.9-.6-1.2-1.5-1.8-2.3-1.8-.9,0-1.8.9-2.9,2.6.6.6,1.5,1.2,2.6,1.8,1.2.6,2.3.9,2.9.9.3.3.6,0,.6-.6h0Z"/></g><g id="G_67"><path id="PATH_68" d="m786.02,154.02h-1.2c-1.2,0-1.8-.3-2.3-.6v.9c0,2.6-.9,5.3-2.6,7.9-1.5,2.3-2.9,3.2-3.8,3.2-2.3,0-4.1,0-5.9-.3-.6,0-.9-.3-.9-.3,0,0,.3-.3.9-.3,2.3-.6,4.7-1.8,7-3.5,2.3-2.1,3.8-4.1,3.8-6.2,0-1.2-.9-2.9-2.9-5l1.5-2.6c0-.3.3-.3.3-.3l.3.3c.9,1.2,1.5,2.1,2.1,2.3.9.6,2.1,1.2,3.2,1.2h.9v3.2h-.4v.1h0Z"/><path id="PATH_69" d="m813.32,154.02h-1.8c-2.1,0-3.2-.9-4.1-2.3-.6,1.8-2.1,2.3-3.8,2.3-1.8,0-2.9-.9-3.8-2.3-.9,1.8-2.1,2.3-3.8,2.3-2.1,0-3.5-.9-4.4-2.3-1.2,1.8-2.6,2.3-4.7,2.3h-2.1v-3.5h2.3c2.1,0,3.5-1.2,3.8-3.5,0-.6.3-.9.6-.9s.3.3.6.9c.3,2.3,1.5,3.5,3.8,3.5,2.1,0,3.5-1.2,3.5-3.5,0-.6.3-.9.6-.9s.6.3.6.9c.3,2.3,1.5,3.5,2.9,3.5,2.1,0,3.5-1.2,3.5-3.5,0-.6.3-.9.6-.9s.6.3.6.9c.3,2.3,1.5,3.5,3.5,3.5h1.8v3.5h-.2,0Z"/><path id="PATH_70" d="m824.22,154.02h-1.2c-2.6,0-4.4-.9-5.3-2.9-.3.9-.9,1.5-1.8,2.1s-1.8.9-2.6.9h-1.2v-3.5h1.2c2.3,0,3.5-.9,3.5-2.9v-10.3c0-3.8,0-6.8-.3-8.8l2.6-2.1v19.7c0,2.9,1.2,4.4,3.8,4.4h1.2v3.4h.1Z"/><path id="PATH_71" d="m831.32,148.22c0,3.8-2.1,5.9-5.9,5.9h-2.3v-3.5h2.1c2.9,0,4.4-.6,4.4-1.5s-.6-2.1-2.1-3.5l1.2-2.9c0-.3.3-.3.3-.3l.6.6c1.1,1.3,1.7,3.1,1.7,5.2Zm-1.2,12.3l-2.3,2.3-2.3-2.3,2.3-2.3,2.3,2.3Z"/><path id="PATH_72" d="m842.72,154.02h-2.1c-2.1,0-3.8-.9-4.4-2.6-.6-1.2-.9-3.2-.9-5.6v-5.6c0-2.6-.3-6.5-.6-11.4l1.8-2.1c.3-.3.6-.3.6,0,.3,2.6.6,6.5.6,11.4v8.8c0,2.3,1.2,3.5,3.5,3.5h1.5v3.6h0Z"/><path id="PATH_73" d="m849.72,148.22c0,3.8-2.1,5.9-5.9,5.9h-2.3v-3.5h2.1c2.9,0,4.4-.6,4.4-1.5s-.6-2.1-2.1-3.5l1.2-2.9c0-.3.3-.3.3-.3l.6.6c1.2,1.3,1.7,3.1,1.7,5.2Zm-.8,12.3l-2.3,2.3-2.3-2.3,2.3-2.3,2.3,2.3Z"/></g><g id="G_74"><path id="PATH_75" d="m955.42,104.12c0,2.9-.9,5.6-2.6,8.2-1.5,2.1-2.9,3.2-3.8,3.2-2.3,0-4.1,0-5.9-.3-.6,0-.9-.3-.9-.3,0,0,.3-.3.9-.3,2.3-.6,4.7-1.8,7-3.5,2.3-2.1,3.8-4.1,3.8-6.2,0-1.2-.9-2.9-2.9-5l1.5-2.6c0-.3.3-.3.3-.3l.3.3c.6.9,1.5,2.1,1.8,3.5.2,1,.5,2.1.5,3.3h0Z"/><path id="PATH_76" d="m966.92,103.83h-2.1c-2.1,0-3.8-.9-4.4-2.6-.6-1.2-.9-3.2-.9-5.6v-5.6c0-2.6-.3-6.5-.6-11.4l1.8-2.1c.3-.3.6-.3.6,0,.3,2.6.6,6.5.6,11.4v8.5c0,2.3,1.2,3.5,3.5,3.5h1.5v3.9h0Z"/><path id="PATH_77" d="m981.62,103.83h-2.3c-2.6,0-4.4-.9-5.6-2.6-.9,1.8-2.9,2.6-6.2,2.6h-1.8v-3.5h2.6c2.9,0,4.4-1.2,4.7-3.2,0-.9.3-1.5.6-1.5s.6.6.6,1.5c.3,2.1,1.8,3.2,4.4,3.2h2.6v3.5h.4Zm-6.5,6.5l-2.3,2.3-2.3-2.3,2.3-2.3,2.3,2.3Z"/><path id="PATH_78" d="m988.62,98.02c0,3.8-2.1,5.9-5.9,5.9h-2.3v-3.5h2.1c2.9,0,4.4-.6,4.4-1.5s-.6-2.1-2.1-3.5l1.2-2.9c0-.3.3-.3.3-.3,0,0,.3.3.6.6.8,1.3,1.7,3.4,1.7,5.2Zm-2.3,12.3l-2.3,2.3-2.3-2.3,2.3-2.3,2.3,2.3Zm5,0l-2.3,2.3-2.3-2.3,2.3-2.3,2.3,2.3Z"/><path id="PATH_79" d="m1009.52,103.83h-3.2c-.3,4.1-1.8,7.3-4.7,10.3-.9.9-1.5,1.5-1.8,1.5-1.5,0-3.5-.3-5.6-.6-.6,0-1.2-.3-1.2-.3,0,0,.3-.3,1.2-.6,2.3-.6,4.7-2.1,6.8-3.5.9-.9,1.8-1.5,2.3-2.6.9-1.2,1.5-2.3,1.5-3.2v-.9h-3.8c-2.9,0-4.1-1.2-4.1-3.5,0-1.5.3-2.9,1.2-4.7.9-1.8,2.1-2.9,3.2-2.9,1.5,0,2.6.9,3.5,2.9.6,1.5,1.2,2.9,1.2,4.7h3.2v3.5h.3v-.1h0Zm-5.3-3.5c0-.9-.3-1.8-.9-2.6-.6-1.2-1.5-1.5-2.3-1.5-.6,0-1.2.3-1.5.6s-.6.9-.6,1.8c0,1.5,1.2,2.1,3.5,2.1.3-.1.9-.4,1.8-.4Z"/><path id="PATH_80" d="m1032.42,95.33l-1.2,2.3c-2.1,0-3.8,0-4.7.3-1.2.6-2.9,1.2-5.3,2.3-2.3,1.2-4.1,2.1-5.3,2.3-1.8.6-3.8.9-5.6.9h-2.1v-3.5h2.3c2.6,0,5-.6,7-1.5l6.8-2.9c-1.2-.3-2.9-.9-5.3-1.8-2.1-.9-3.2-1.2-3.8-1.2-1.2,0-2.3.6-3.5,1.5-.2.2-.4.3-.6.3s-.3-.1-.3-.3v-.3c.9-2.9,2.6-4.1,5-4.1.9,0,2.1.3,3.2.9,2.3,1.2,4.1,1.8,5.3,2.3,2.1.6,4.4,1.2,7,1.2.6,0,.9,0,.9.3.4.4.4.7.2,1h0Zm-9.7,14.4l-2.3,2.3-2.3-2.3,2.3-2.3,2.3,2.3Z"/></g><g id="G_81"><path id="PATH_82" d="m1044.12,21.32c0,4.1-2.6,6.2-8.2,6.2-2.1,0-3.5-.3-4.4-.9-1.2-.6-1.8-2.1-1.8-3.8,0-.9.3-1.8.6-2.6.3-.3.3-.6.6-.6s.3.3.3.9v.9c0,1.2.6,2.1,1.8,2.3.6.3,1.8.3,3.2.3,4.4,0,6.5-.6,6.5-2.1,0-2.1-2.6-5-7.6-8.5l.9-2.9c0-.3.3-.3.3-.3,0,0,.3,0,.6.3,4.6,3.8,7.2,7.6,7.2,10.8Z"/><path id="PATH_83" d="m1059.12,26.32c0,4.4-1.5,8.2-4.4,11.2-.9.9-1.5,1.5-1.8,1.5-1.8,0-3.5-.3-5.6-.6-.9,0-1.2-.3-1.2-.3,0,0,.3-.3,1.2-.6,2.3-.6,4.7-2.1,6.8-3.8.9-.9,1.8-1.5,2.3-2.6.9-1.2,1.5-2.3,1.5-3.2v-.9h-3.8c-2.6,0-4.1-1.2-4.1-3.2,0-1.5.3-2.9,1.2-4.7.9-1.8,2.1-2.9,3.2-2.9,1.8,0,3.2,1.2,4.1,3.8.3,1.9.6,4,.6,6.3h0Zm-2.1-2.3c0-.9-.3-1.8-.9-2.6s-1.5-1.5-2.3-1.5c-.6,0-1.2.3-1.5.6s-.6.9-.6,1.5c0,1.5.9,2.1,2.9,2.1.4.2,1.2-.1,2.4-.1Z"/><path id="PATH_84" d="m1074.02,27.82c0,2.9-.9,5.6-2.6,8.2-1.5,2.1-2.9,3.2-3.8,3.2-2.3,0-4.1,0-5.9-.3-.6,0-.9-.3-.9-.3,0,0,.3-.3.9-.3,2.3-.6,4.7-1.8,7-3.5,2.3-2.1,3.8-4.1,3.8-6.2,0-1.2-.9-2.9-2.9-5l1.5-2.6c0-.3.3-.3.3-.3l.3.3c.6.9,1.5,2.1,1.8,3.5.2.9.5,2.1.5,3.3h0Z"/><path id="PATH_85" d="m1092.02,21.32c0,4.1-2.6,6.2-8.2,6.2-2.1,0-3.5-.3-4.4-.9-1.2-.6-1.8-2.1-1.8-3.8,0-.9.3-1.8.6-2.6.3-.3.3-.6.6-.6s.3.3.3.9v.9c0,1.2.6,2.1,1.8,2.3.6.3,1.8.3,3.2.3,4.4,0,6.5-.6,6.5-2.1,0-2.1-2.6-5-7.6-8.5l.9-2.9c0-.3.3-.3.3-.3,0,0,.3,0,.6.3,4.8,3.8,7.2,7.6,7.2,10.8Z"/><path id="PATH_86" d="m1128.62,27.22c.3.9.3,1.8.3,2.6,0,1.2-.3,2.1-.6,3.2-.9,2.1-2.3,3.8-5.3,5-2.3.9-4.7,1.5-7.3,1.5s-4.7-.6-6.5-1.8c-1.8-1.5-2.6-3.2-2.6-5.9,0-1.5.3-2.6.9-4.4.6-1.2.9-2.1,1.5-2.6.3-.3.6-.3.6-.3.2,0,.3.1.3.3v.6c-.9,1.8-1.2,3.5-1.2,5s.6,2.6,1.5,3.8c1.2,1.5,3.2,2.1,5.9,2.1,2.9,0,5.6-.6,7.6-1.5,1.8-.9,2.9-1.8,3.5-2.9.3-.3.3-.9.3-1.2,0-.9-.3-1.8-.6-2.9-.3-.9-1.2-2.3-2.6-4.7l1.2-2.3c.3-.3.3-.6.3-.6,0,0,.3,0,.3.3,1.4,2,2.3,4.3,2.5,6.7h0Zm-8.5-12.9l-2.3,2.3-2.3-2.3,2.3-2.3s2.3,2.3,2.3,2.3Z"/><path id="PATH_87" d="m1140.72,27.53h-2.1c-2.1,0-3.8-.9-4.4-2.6-.6-1.2-.9-3.2-.9-5.6v-5.6c0-2.6-.3-6.5-.6-11.4l1.8-2.1c.3-.3.6-.3.6,0,.3,2.6.6,6.5.6,11.4v8.5c0,2.3,1.2,3.5,3.5,3.5h1.5v3.9h0Z"/><path id="PATH_88" d="m1155.12,27.53h-2.3c-2.6,0-4.4-.9-5.6-2.6-.9,1.8-2.9,2.6-6.2,2.6h-1.8v-3.5h2.6c2.9,0,4.4-1.2,4.7-3.2,0-.9.3-1.5.6-1.5s.6.6.6,1.5c.3,2.1,1.8,3.2,4.4,3.2h2.6v3.5h.4Zm-9.7,6.5l-2.3,2.3-2.3-2.3,2.3-2.3,2.3,2.3Zm5,0l-2.3,2.3-2.3-2.3,2.3-2.3,2.3,2.3Z"/><path id="PATH_89" d="m1169.72,21.62c0,1.5,0,2.6-.6,3.8-.6,1.5-1.5,2.3-2.3,2.3-1.5,0-3.8-.9-6.8-2.9-.9,1.2-1.5,1.8-1.8,2.1-.9.6-1.8.9-2.9.9h-1.5v-3.5h2.1c1.2,0,2.3-.6,3.5-2.1.6-.6,1.5-2.1,2.6-3.8.9-1.5,2.1-2.1,2.9-2.1,1.5,0,2.6.6,3.5,2.1.8,1.2,1.3,2,1.3,3.2h0Zm-1.7,2.1c0-.9-.3-1.8-.9-2.9s-1.5-1.8-2.3-1.8c-.9,0-1.8.9-2.9,2.6.6.6,1.5,1.2,2.6,1.8,1.2.6,2.3.9,2.9.9.3.3.6,0,.6-.6h0Z"/></g><g id="G_90"><path id="PATH_91" d="m1219.72,203.63h-1.2c-1.2,0-1.8-.3-2.3-.6v.9c0,2.6-.9,5.3-2.6,7.9-1.5,2.3-2.9,3.2-3.8,3.2-2.3,0-4.1,0-5.9-.3-.6,0-.9-.3-.9-.3,0,0,.3-.3.9-.3,2.3-.6,4.7-1.8,7-3.5,2.3-2.1,3.8-4.1,3.8-6.2,0-1.2-.9-2.9-2.9-5l1.5-2.6c0-.3.3-.3.3-.3l.3.3c.9,1.2,1.5,2.1,2.1,2.3.9.6,2.1,1.2,3.2,1.2h.9v3.2h-.4v.1h0Z"/><path id="PATH_92" d="m1237.92,203.63h-1.5c-1.2,0-2.3.3-3.2.6-1.5.6-2.3,1.5-2.3,2.9,0,1.8,1.2,3.2,3.5,4.7l-1.5,2.9c-2.6-.9-5-2.3-6.8-4.1-2.3-2.1-3.5-4.7-3.5-7.3h-4.1v-3.5h3.8c0-2.3.6-4.7,1.8-7.6,1.2-2.6,2.1-3.8,2.6-3.8s1.5,1.2,2.3,3.8c.9,2.3,1.2,3.8,1.2,4.7,0,4.1-2.1,6.2-6.2,6.2.3,1.2.9,2.3,1.8,3.5s2.1,2.1,3.2,2.6v-1.2c0-2.1.6-3.8,1.5-5.3,1.5-2.1,3.2-3.2,5.9-3.2h1.2v4.1h.3,0Zm-8.8-4.7c0-.6-.3-1.8-.9-3.2-.6-1.8-1.2-2.3-1.8-2.3-.3,0-.9.6-1.5,2.1s-.9,3.2-.9,5c3.3-.4,5.1-.7,5.1-1.6h0Z"/><path id="PATH_93" d="m1264.92,203.63h-1.8c-2.1,0-3.2-.9-4.1-2.3-.6,1.8-2.1,2.3-3.8,2.3s-2.9-.9-3.8-2.3c-.9,1.8-2.1,2.3-3.8,2.3-2.1,0-3.5-.9-4.4-2.3-1.2,1.8-2.6,2.3-4.7,2.3h-1.8v-3.5h2.3c2.1,0,3.5-1.2,3.8-3.5,0-.6.3-.9.6-.9s.3.3.6.9c.3,2.3,1.5,3.5,3.8,3.5,2.1,0,3.5-1.2,3.5-3.5,0-.6.3-.9.6-.9s.6.3.6.9c.3,2.3,1.5,3.5,2.9,3.5,2.1,0,3.5-1.2,3.5-3.5,0-.6.3-.9.6-.9s.6.3.6.9c.3,2.3,1.5,3.5,3.5,3.5h1.8v3.5h-.5,0Zm-13.5-14.6l-2.1,2.1-2.1-2.1,2.1-2.1,2.1,2.1Zm2.6-4.7l-2.1,2.1-2.1-2.1,2.1-2.1,2.1,2.1Zm2.6,4.7l-2.1,2.1-2.1-2.1,2.1-2.1,2.1,2.1Z"/><path id="PATH_94" d="m1283.12,203.63h-1.5c-1.2,0-2.3.3-3.2.6-1.5.6-2.3,1.5-2.3,2.9,0,1.8,1.2,3.2,3.5,4.7l-1.5,2.9c-2.6-.9-5-2.3-6.8-4.1-2.3-2.1-3.5-4.7-3.5-7.3h-4.1v-3.5h3.8c0-2.3.6-4.7,1.8-7.6,1.2-2.6,2.1-3.8,2.6-3.8.6,0,1.5,1.2,2.3,3.8.9,2.3,1.2,3.8,1.2,4.7,0,4.1-2.1,6.2-6.2,6.2.3,1.2.9,2.3,1.8,3.5s2.1,2.1,3.2,2.6v-1.2c0-2.1.6-3.8,1.5-5.3,1.5-2.1,3.2-3.2,5.9-3.2h1.2v4.1h.3,0Zm-8.8-4.7c0-.6-.3-1.8-.9-3.2-.6-1.8-1.2-2.3-1.8-2.3-.3,0-.9.6-1.5,2.1s-.9,3.2-.9,5c3.3-.4,5.1-.7,5.1-1.6h0Z"/><path id="PATH_95" d="m1290.12,197.83c0,3.8-2.1,5.9-5.9,5.9h-2.3v-3.5h2.1c2.9,0,4.4-.6,4.4-1.5s-.6-2.1-2.1-3.5l1.2-2.9c0-.3.3-.3.3-.3,0,0,.3.3.6.6,1.1,1.4,1.7,3.4,1.7,5.2h0Zm-.9,12.3l-2.3,2.3-2.3-2.3,2.3-2.3,2.3,2.3Z"/></g><g id="G_96"><path id="PATH_97" d="m1486.52,197.52c0,2.1-.6,3.5-1.8,4.7-1.2,1.2-2.9,1.5-4.7,1.5-1.2,0-2.3-.3-3.2-1.2-.9-.9-1.5-1.8-1.5-2.9,0-1.5.6-2.9,1.8-5,.9-1.8,2.1-3.2,3.2-4.4,4.2,2,6.2,4.3,6.2,7.3h0Zm-1.7,1.1c0-.9-.6-1.8-2.1-2.9-1.2-1.2-2.1-1.8-3.2-2.1-1.5,2.1-2.3,3.5-2.3,4.7,0,.6.3,1.2,1.2,1.8.6.3,1.2.6,2.1.6,1.2,0,2.3-.3,3.2-.6.8-.9,1.1-1.2,1.1-1.5h0Z"/><path id="PATH_98" d="m1498.32,203.63h-2.1c-2.1,0-3.8-.9-4.4-2.6-.6-1.2-.9-3.2-.9-5.6v-5.6c0-2.6-.3-6.5-.6-11.4l1.8-2.1c.3-.3.6-.3.6,0,.3,2.6.6,6.5.6,11.4v8.5c0,2.3,1.2,3.5,3.5,3.5h1.5v3.9h0Z"/><path id="PATH_99" d="m1515.92,179.92c0,.6-.3,1.5-.9,3.2-3.5.9-7.9,2.3-12.9,3.8,3.5,3.5,5.6,6.5,5.9,8.5.3,1.5,0,2.9-.6,4.4s-1.8,2.3-3.2,2.9c-1.2.6-3.2.6-5.9.6h-1.2v-3.5h.9c5.6,0,8.5-.9,8.5-2.9,0-1.5-1.5-3.8-4.7-6.8l-.3.9c-.3-.3-.9-.9-1.5-1.8-.9-.9-1.2-1.5-1.2-1.8,0-.9.3-1.8,1.2-2.6.3-.3,2.1-.9,5.9-2.1,3.5-1.1,7-2,10-2.8h0Zm-.6-4.4l-.6,2.1-14.4,4.7.6-2.1,14.4-4.7Z"/><path id="PATH_100" d="m1533.22,203.63h-2.9c-.3,4.1-1.8,7.3-4.7,10.3-.9.9-1.5,1.5-1.8,1.5-1.5,0-3.5-.3-5.6-.6-.6,0-1.2-.3-1.2-.3,0,0,.3-.3,1.2-.6,2.3-.6,4.7-2.1,6.8-3.5.9-.9,1.8-1.5,2.3-2.6.9-1.2,1.5-2.3,1.5-3.2v-.9h-3.8c-2.9,0-4.1-1.2-4.1-3.5,0-1.5.3-2.9,1.2-4.7.9-1.8,2.1-2.9,3.2-2.9,1.5,0,2.6.9,3.5,2.9.6,1.5,1.2,2.9,1.2,4.7h3.2v3.4h0Zm-5-3.5c0-.9-.3-1.8-.9-2.6-.6-1.2-1.5-1.5-2.3-1.5-.6,0-1.2.3-1.5.6s-.6.9-.6,1.8c0,1.5,1.2,2.1,3.5,2.1,0-.1.6-.4,1.8-.4h0Z"/><path id="PATH_101" d="m1544.12,203.63h-1.2c-2.6,0-4.4-.9-5.3-2.9-.3.9-.9,1.5-1.8,2.1s-1.8.9-2.6.9h-1.2v-3.5h1.2c2.3,0,3.5-.9,3.5-2.9v-10.3c0-3.8,0-6.8-.3-8.8l2.6-2.1v19.7c0,2.9,1.2,4.4,3.8,4.4h1.2l.1,3.4h0Z"/><path id="PATH_102" d="m1561.72,179.92c0,.6-.3,1.5-.9,3.2-3.5.9-7.9,2.3-12.9,3.8,3.5,3.5,5.6,6.5,5.9,8.5.3,1.5,0,2.9-.6,4.4s-1.8,2.3-3.2,2.9c-1.2.6-3.2.6-5.9.6h-1.2v-3.5h.9c5.6,0,8.5-.9,8.5-2.9,0-1.5-1.5-3.8-4.7-6.8l-.3.9c-.3-.3-.9-.9-1.5-1.8-.9-.9-1.2-1.5-1.2-1.8,0-.9.3-1.8,1.2-2.6.3-.3,2.1-.9,5.9-2.1,3.8-1.1,7.3-2,10-2.8h0Zm-.6-4.4l-.6,2.1-14.4,4.7.6-2.1,14.4-4.7Z"/></g><g id="G_103"><path id="PATH_104" d="m1274.62,391.51h-2.1c-2.1,0-3.8-.9-4.4-2.6-.6-1.2-.9-3.2-.9-5.6v-5.6c0-2.6-.3-6.5-.6-11.4l1.8-2.1c.3-.3.6-.3.6,0,.3,2.6.6,6.5.6,11.4v8.5c0,2.3,1.2,3.5,3.5,3.5h1.5v3.9h0Z"/><path id="PATH_105" d="m1294.52,391.51h-2.1c-1.5,0-2.9-.9-4.7-2.3-.9-.9-2.1-2.3-3.5-4.4.3,4.7-2.3,7-7.9,7h-3.2v-3.5h3.8c3.8,0,5.9-1.2,5.9-3.2,0-1.2-.6-2.6-2.1-4.4-.9-1.2-2.1-2.3-3.8-3.8-1.5-1.2-2.1-2.1-2.1-2.1,0-2.1.3-3.5.9-4.4,0-.3,2.1-.9,5.9-2.3,3.8-1.5,7.3-2.6,10.6-3.5,0,.3-.3,1.5-.9,3.2-3.8,1.2-8.5,2.9-14.4,5.3,2.6,2.3,6.2,6.2,10,11.4,1.5,1.8,2.6,2.9,3.5,3.5.6.3,1.8.6,2.9.6h1.2v2.9h0Z"/><path id="PATH_106" d="m1301.62,386.01c0,3.8-2.1,5.9-5.9,5.9h-2.3v-3.5h2.1c2.9,0,4.4-.6,4.4-1.5s-.6-2.1-2.1-3.5l1.2-2.9c0-.3.3-.3.3-.3,0,0,.3.3.6.6,1.1,1.3,1.7,3.1,1.7,5.2h0Zm-.3-13.6l-2.3,2.3-2.3-2.3,2.3-2.3,2.3,2.3Z"/></g><g id="G_107"><path id="PATH_108" d="m1145.42,466.42v.9s-.3,0-.9-.3c-.9-.6-2.1-.9-3.5-.9-2.1,0-3.8.9-5.3,2.3s-2.1,2.3-2.1,3.2,1.5,1.8,4.1,2.1c2.9.6,4.7,1.2,5.3,2.1,0,.3.3.6.3.9,0,1.5-.6,3.2-1.5,5-.6,1.2-2.1,2.1-4.4,2.9-2.9,1.2-5.9,1.8-9.7,1.8-2.6,0-4.7-.6-6.5-2.1s-2.6-3.5-2.6-5.9c0-2.6.9-5.3,2.6-7.6.3-.3.6-.6.9-.6s.3,0,.3.3,0,.3-.3.9c-1.2,2.1-1.8,4.1-1.8,5.9,0,1.5.6,2.6,1.5,3.5,1.5,1.5,3.5,2.1,6.2,2.1,2.3,0,5-.3,7.6-.9,3.8-.9,5.9-2.1,5.9-3.5,0-.6-1.8-1.2-5.6-2.1-1.5-.3-2.3-.6-2.9-.9s-1.2-1.2-1.2-2.1c0-2.1.9-4.1,2.9-6.8,2.1-2.6,4.4-4.1,6.5-4.1,2.4.4,3.9,1.5,4.2,3.9h0Z"/><path id="PATH_109" d="m1160.42,477.32c0,2.9-.9,5.6-2.6,8.2-1.5,2.1-2.9,3.2-3.8,3.2-2.3,0-4.1,0-5.9-.3-.6,0-.9-.3-.9-.3,0,0,.3-.3.9-.3,2.3-.6,4.7-1.8,7-3.5,2.3-2.1,3.8-4.1,3.8-6.2,0-1.2-.9-2.9-2.9-5l1.5-2.6c0-.3.3-.3.3-.3l.3.3c.6.9,1.5,2.1,1.8,3.5.2.9.5,2.4.5,3.3h0Z"/><path id="PATH_110" d="m1172.12,477.01h-2.1c-2.1,0-3.8-.9-4.4-2.6-.6-1.2-.9-3.2-.9-5.6v-5.6c0-2.6-.3-6.5-.6-11.4l1.8-2.1c.3-.3.6-.3.6,0,.3,2.6.6,6.5.6,11.4v8.5c0,2.3,1.2,3.5,3.5,3.5h1.5v3.9h0Z"/><path id="PATH_111" d="m1195.32,470.82c0,1.8-.3,3.2-1.2,4.4s-2.3,2.1-3.8,2.1c-2.1,0-3.2-.9-4.1-2.3-1.2,1.8-2.3,2.3-4.1,2.3-2.1,0-3.5-.9-4.4-2.3-1.2,1.8-2.6,2.3-4.7,2.3h-2.1v-3.5h2.3c2.1,0,3.5-1.2,3.8-3.5,0-.6.3-.9.6-.9s.3.3.6.9c.3,2.3,1.5,3.5,3.8,3.5,1.2,0,2.3-.3,2.9-.9.3-.6.6-1.2.9-2.3,0-.6.3-.9.6-.9s.3.3.6.9c.3,2.3,1.5,3.5,3.5,3.5,2.3,0,3.2-.6,3.2-1.5s-.6-2.1-1.8-3.2l1.5-2.6c.3-.3.3-.6.6-.6s.3.3.6.6c.1,1.1.7,2.5.7,4Z"/></g><g id="G_125"><path id="PATH_126" d="m922.32,574.72c0,2.1-.6,3.5-1.8,4.7s-2.9,1.5-4.7,1.5c-1.2,0-2.3-.3-3.2-1.2s-1.5-1.8-1.5-2.9c0-1.5.6-2.9,1.8-5,.9-1.8,2.1-3.2,3.2-4.4,4.1,2,6.2,4.4,6.2,7.3h0Zm-1.5,1.2c0-.9-.6-1.8-2.1-2.9-1.2-1.2-2.1-1.8-3.2-2.1-1.5,2.1-2.3,3.5-2.3,4.7,0,.6.3,1.2,1.2,1.8.6.3,1.2.6,2.1.6,1.2,0,2.3-.3,3.2-.6.5-.9,1.1-1.2,1.1-1.5Z"/><path id="PATH_127" d="m940.52,580.92h-3.2c-.3,4.1-1.8,7.3-4.7,10.3-.9.9-1.5,1.5-1.8,1.5-1.5,0-3.5-.3-5.6-.6-.6,0-1.2-.3-1.2-.3,0,0,.3-.3,1.2-.6,2.3-.6,4.7-2.1,6.8-3.5.9-.9,1.8-1.5,2.3-2.6.9-1.2,1.5-2.3,1.5-3.2v-.9h-3.8c-2.9,0-4.1-1.2-4.1-3.5,0-1.5.3-2.9,1.2-4.7s2.1-2.9,3.2-2.9c1.5,0,2.6.9,3.5,2.9.6,1.5,1.2,2.9,1.2,4.7h3.2v3.5h.3v-.1h0Zm-5-3.5c0-.9-.3-1.8-.9-2.6-.6-1.2-1.5-1.5-2.3-1.5-.6,0-1.2.3-1.5.6s-.6.9-.6,1.8c0,1.5,1.2,2.1,3.5,2.1,0-.1.6-.4,1.8-.4h0Z"/><path id="PATH_128" d="m958.72,553.63c0,.6-.6,1.8-1.2,3.2l-7.3,2.3c-3.2,1.2-5.6,2.1-6.8,2.6,2.3,2.3,3.8,4.1,4.7,5,1.5,2.1,2.3,3.8,2.6,5.9,0,1.5,0,2.9-.6,4.1-.9,2.6-4.1,3.8-9.1,3.8h-1.5v-3.5h1.8c2.3,0,4.1,0,5-.3,2.1-.6,3.2-1.5,3.2-2.9,0-2.1-1.5-4.4-4.7-7.3l-.3.6c-.3-.3-.9-.9-1.5-1.8-.9-.9-1.2-1.8-1.2-1.8,0-.6,0-1.2.3-2.3.3-1.2.6-1.8.9-2.1s2.3-1.2,6.2-2.3c3.3-1.2,6.8-2.3,9.5-3.2h0Z"/><path id="PATH_129" d="m975.42,574.72c0,4.1-2.6,6.2-8.2,6.2-2.1,0-3.5-.3-4.4-.9-1.2-.6-1.8-2.1-1.8-3.8,0-.9.3-1.8.6-2.6.3-.3.3-.6.6-.6s.3.3.3.9v.9c0,1.2.6,2.1,1.8,2.3.6.3,1.8.3,3.2.3,4.4,0,6.5-.6,6.5-2.1,0-2.1-2.6-5-7.6-8.5l.9-2.9c0-.3.3-.3.3-.3,0,0,.3,0,.6.3,4.9,3.8,7.2,7.6,7.2,10.8h0Z"/><path id="PATH_130" d="m982.42,577.42c0,1.2-.3,2.3-.9,3.2-.3.6-.6.9-.6.9,0,0-.3-.3-.3-1.2,0-3.5-.6-11.7-1.8-25l2.3-2.3.3-.3v.6c.8,3.8,1,11.7,1,24.1Z"/><path id="PATH_131" d="m1000.62,580.92h-3.2c-.3,4.1-1.8,7.3-4.7,10.3-.9.9-1.5,1.5-1.8,1.5-1.5,0-3.5-.3-5.6-.6-.6,0-1.2-.3-1.2-.3,0,0,.3-.3,1.2-.6,2.3-.6,4.7-2.1,6.8-3.5.9-.9,1.8-1.5,2.3-2.6.9-1.2,1.5-2.3,1.5-3.2v-.9h-3.8c-2.9,0-4.1-1.2-4.1-3.5,0-1.5.3-2.9,1.2-4.7s2.1-2.9,3.2-2.9c1.5,0,2.6.9,3.5,2.9.6,1.5,1.2,2.9,1.2,4.7h3.2v3.5h.3v-.1h0Zm-5.2-3.5c0-.9-.3-1.8-.9-2.6-.6-1.2-1.5-1.5-2.3-1.5-.6,0-1.2.3-1.5.6s-.6.9-.6,1.8c0,1.5,1.2,2.1,3.5,2.1,0-.1.9-.4,1.8-.4h0Z"/><path id="PATH_132" d="m1023.82,574.72c0,1.8-.3,3.2-1.2,4.4s-2.3,2.1-3.8,2.1c-2.1,0-3.2-.9-4.1-2.3-1.2,1.8-2.3,2.3-4.1,2.3-2.1,0-3.5-.9-4.4-2.3-1.2,1.8-2.6,2.3-4.7,2.3h-2.1v-3.5h2.3c2.1,0,3.5-1.2,3.8-3.5,0-.6.3-.9.6-.9s.3.3.6.9c.3,2.3,1.5,3.5,3.8,3.5,1.2,0,2.3-.3,2.9-.9.3-.6.6-1.2.9-2.3,0-.6.3-.9.6-.9s.3.3.6.9c.3,2.3,1.5,3.5,3.5,3.5,2.3,0,3.2-.6,3.2-1.5s-.6-2.1-1.8-3.2l1.5-2.6c.3-.3.3-.6.6-.6s.3.3.6.6c.2,1.1.7,2.6.7,4h0Z"/></g><g id="G_133"><path id="PATH_134" d="m831.52,481.13h-1.5c-1.5,0-2.6-.6-3.2-1.5,0,1.8-.3,3.8-.6,6.5-.9,2.1-2.3,3.8-4.7,4.7-2.1.9-4.1,1.5-6.8,1.5s-4.4-.6-5.9-1.5c-1.8-1.2-2.6-2.9-2.6-5.6,0-2.3.6-4.7,2.1-6.5.2-.2.4-.3.6-.3s.3.1.3.3v.3c-.6,1.5-.9,2.9-.9,4.1,0,1.8.6,3.2,2.1,4.4,1.2.9,2.6,1.5,4.7,1.5,1.8,0,3.8-.3,5.9-1.2,2.9-.9,4.1-2.1,4.1-3.5l-.3-14.1c-.3-6.8-.3-11.4-.6-14.7l2.3-2.1c0,.9.3,4.1.6,10l.3,11.4c0,1.8,1.2,2.9,3.5,2.9h.9v3.2h-.3v.2h0Z"/><path id="PATH_135" d="m838.62,475.23c0,3.8-2.1,5.9-5.9,5.9h-2.3v-3.5h2.1c2.9,0,4.4-.6,4.4-1.5s-.6-2.1-2.1-3.5l1.2-2.9c0-.3.3-.3.3-.3,0,0,.3.3.6.6,1.1,1.4,1.7,3.4,1.7,5.2h0Zm-.9,12.3l-2.3,2.3-2.3-2.3,2.3-2.3,2.3,2.3Z"/><path id="PATH_136" d="m850.32,481.13h-2.1c-2.1,0-3.8-.9-4.4-2.6-.6-1.2-.9-3.2-.9-5.6v-5.6c0-2.6-.3-6.5-.6-11.4l1.8-2.1c.3-.3.6-.3.6,0,.3,2.6.6,6.5.6,11.4v8.5c0,2.3,1.2,3.5,3.5,3.5h1.5v3.9h0Z"/><path id="PATH_137" d="m857.42,475.23c0,3.8-2.1,5.9-5.9,5.9h-2.3v-3.5h2.1c2.9,0,4.4-.6,4.4-1.5s-.6-2.1-2.1-3.5l1.2-2.9c0-.3.3-.3.3-.3,0,0,.3.3.6.6,1.1,1.4,1.7,3.4,1.7,5.2h0Zm-.9,12.3l-2.3,2.3-2.3-2.3,2.3-2.3,2.3,2.3Z"/></g><g id="G_138"><path id="PATH_139" d="m934.32,347.52h-1.5c-1.8,0-3.2-.3-4.1-1.2,0,.3.3.9.3,1.5,0,2.9-.9,4.7-2.9,4.7-1.8,0-2.9-.9-4.1-2.6-.9-1.5-1.2-3.2-1.2-5v-1.2h-.9c-2.1,0-3.2.6-4.1,1.5.6,4.7.9,8.2.9,10.6,0,1.2-.3,2.3-.9,4.1-.3.6-.3.9-.6.9s-.3-.3-.3-1.2l-1.5-13.5c0-.6.3-1.5.9-2.3.6-.9,1.2-1.5,1.8-2.1.3-.3,1.2-.6,2.3-.9.9-.3,1.8-.3,2.3-.3h.6l.3-1.8c0-.3.3-.6.3-.6,0,0,.3,0,.6.3,2.3,2.1,4.1,3.5,5,4.1,1.8,1.2,3.2,1.8,4.7,1.8h1.8v3.2h.3Zm-6.5-.3c0-.9-.6-1.8-1.8-2.9-.3-.3-1.2-1.2-3.2-2.9v1.8c0,1.5.3,2.6.9,3.5.6,1.5,1.5,2.1,2.6,2.1,1,.2,1.5-.4,1.5-1.6Z"/><path id="PATH_140" d="m941.32,341.63c0,3.8-2.1,5.9-5.9,5.9h-2.3v-3.5h2.1c2.9,0,4.4-.6,4.4-1.5s-.6-2.1-2.1-3.5l1.2-2.9c0-.3.3-.3.3-.3,0,0,.3.3.6.6,1.2,1.4,1.7,3.5,1.7,5.2h0Zm-.2-12l-.3,1.5c-2.1.3-4.4.9-6.5,1.8v-1.2c.3-.3.9-.6,1.8-1.2-1.2-.9-1.8-1.5-1.8-2.1s.3-1.5,1.2-2.3c.9-1.2,1.8-1.5,2.6-1.5,1.2,0,1.8.6,2.3,1.5,0,.3.3.6,0,.6h-.6c-.6-.3-1.2-.3-1.8-.3-.3,0-.6,0-1.2.3s-.6.6-.6.9c0,.6.3,1.2,1.2,1.5.6.3,1.2.6,1.8.6s.9,0,1.5-.3h.6c-.2-.1-.2.2-.2.2Z"/><path id="PATH_141" d="m953.12,347.52h-2.1c-2.1,0-3.8-.9-4.4-2.6-.6-1.2-.9-3.2-.9-5.6v-5.6c0-2.6-.3-6.5-.6-11.4l1.8-2.1c.3-.3.6-.3.6,0,.3,2.6.6,6.5.6,11.4v8.5c0,2.3,1.2,3.5,3.5,3.5h1.5v3.9h0Z"/><path id="PATH_142" d="m964.52,339.32c0,2.6-.3,4.4-.9,5.3-1.5,2.1-3.8,2.9-7.6,2.9h-4.1v-3.5h2.9c5,0,7.6-.9,8.2-2.3.3-.6,0-1.2-.3-1.8-1.2.3-2.3.3-3.8.3-2.6,0-4.1-1.2-4.1-3.5,0-1.5.3-3.2,1.2-4.7.9-1.8,2.1-2.6,3.5-2.6,1.2,0,2.3.9,3.2,2.3,1.3,2.3,1.8,4.6,1.8,7.6h0Zm-5.8-16.2l-2.3,2.3-2.3-2.3,2.3-2.3,2.3,2.3Zm3.5,13.5c0-.9-.3-1.8-.9-2.6-.6-.9-1.5-1.2-2.3-1.2-.6,0-1.2.3-1.8.6-.6.3-.6.9-.6,1.5,0,1.2.9,1.8,2.9,1.8.6.2,1.5.2,2.7-.1h0Zm1.5-13.5l-2.3,2.3-2.3-2.3,2.3-2.3,2.3,2.3Z"/><path id="PATH_143" d="m922.82,403.92h-1.2c-1.2,0-1.8-.3-2.3-.6v.9c0,2.6-.9,5.3-2.6,7.9-1.5,2.3-2.9,3.2-3.8,3.2-2.3,0-4.1,0-5.9-.3-.6,0-.9-.3-.9-.3,0,0,.3-.3.9-.3,2.3-.6,4.7-1.8,7-3.5,2.3-2.1,3.8-4.1,3.8-6.2,0-1.2-.9-2.9-2.9-5l1.5-2.6c0-.3.3-.3.3-.3l.3.3c.9,1.2,1.5,2.1,2.1,2.3.9.6,2.1,1.2,3.2,1.2h.9v3.2h-.4v.1h0Z"/><path id="PATH_144" d="m941.12,403.92h-1.5c-1.2,0-2.3.3-3.2.6-1.5.6-2.3,1.5-2.3,2.9,0,1.8,1.2,3.2,3.5,4.7l-1.5,2.9c-2.6-.9-5-2.3-6.8-4.1-2.3-2.1-3.5-4.7-3.5-7.3h-4.1v-3.2h3.8c0-2.3.6-4.7,1.8-7.6,1.2-2.6,2.1-3.8,2.6-3.8.6,0,1.5,1.2,2.3,3.8.9,2.3,1.2,3.8,1.2,4.7,0,4.1-2.1,6.2-6.2,6.2.3,1.2.9,2.3,1.8,3.5s2.1,2.1,3.2,2.6v-1.2c0-2.1.6-3.8,1.5-5.3,1.5-2.1,3.2-3.2,5.9-3.2h1.2v3.8h.3Zm-8.9-4.7c0-.6-.3-1.8-.9-3.2-.6-1.8-1.2-2.3-1.8-2.3-.3,0-.9.6-1.5,2.1s-.9,3.2-.9,5c3.4-.5,5.1-.8,5.1-1.6h0Z"/><path id="PATH_145" d="m964.22,397.73c0,1.8-.3,3.2-1.2,4.4-.9,1.2-2.3,2.1-3.8,2.1-2.1,0-3.2-.9-4.1-2.3-1.2,1.8-2.3,2.3-4.1,2.3-2.1,0-3.5-.9-4.4-2.3-1.2,1.8-2.6,2.3-4.7,2.3h-2.1v-3.8h2.3c2.1,0,3.5-1.2,3.8-3.5,0-.6.3-.9.6-.9s.3.3.6.9c.3,2.3,1.5,3.5,3.8,3.5,1.2,0,2.3-.3,2.9-.9.3-.6.6-1.2.9-2.3,0-.6.3-.9.6-.9s.3.3.6.9c.3,2.3,1.5,3.5,3.5,3.5,2.3,0,3.2-.6,3.2-1.5s-.6-2.1-1.8-3.2l1.5-2.6c.3-.3.3-.6.6-.6s.3.3.6.6c.2,1.4.7,2.8.7,4.3h0Zm-9.9-10.9l-2.1,2.1-2.1-2.1,2.1-2.1,2.1,2.1Zm2.6-4.4l-2.1,2.1-2.1-2.1,2.1-2.1,2.1,2.1Zm2.6,4.4l-2.1,2.1-2.1-2.1,2.1-2.1,2.1,2.1Z"/></g><g id="G_146"><path id="PATH_147" d="m502.42,465.51c0,2.9-.9,5.6-2.6,8.2-1.5,2.1-2.9,3.2-3.8,3.2-2.3,0-4.1,0-5.9-.3-.6,0-.9-.3-.9-.3,0,0,.3-.3.9-.3,2.3-.6,4.7-1.8,7-3.5,2.3-2.1,3.8-4.1,3.8-6.2,0-1.2-.9-2.9-2.9-5l1.5-2.6c0-.3.3-.3.3-.3l.3.3c.6.9,1.5,2.1,1.8,3.5.3,1.3.5,2.4.5,3.3h0Z"/><path id="PATH_148" d="m520.62,465.51h-3.2c-.3,4.1-1.8,7.3-4.7,10.3-.9.9-1.5,1.5-1.8,1.5-1.5,0-3.5-.3-5.6-.6-.6,0-1.2-.3-1.2-.3,0,0,.3-.3,1.2-.6,2.3-.6,4.7-2.1,6.8-3.5.9-.9,1.8-1.5,2.3-2.6.9-1.2,1.5-2.3,1.5-3.2v-.9h-3.8c-2.9,0-4.1-1.2-4.1-3.5,0-1.5.3-2.9,1.2-4.7s2.1-2.9,3.2-2.9c1.5,0,2.6.9,3.5,2.9.6,1.5,1.2,2.9,1.2,4.7h3.2v3.5h.3v-.1h0Zm-5.2-3.5c0-.9-.3-1.8-.9-2.6-.6-1.2-1.5-1.5-2.3-1.5-.6,0-1.2.3-1.5.6-.6.6-.6.9-.6,1.8,0,1.5,1.2,2.1,3.5,2.1.3-.4.9-.4,1.8-.4Z"/><path id="PATH_149" d="m527.72,459.63c0,3.8-2.1,5.9-5.9,5.9h-2.3v-3.5h2.1c2.9,0,4.4-.6,4.4-1.5s-.6-2.1-2.1-3.5l1.2-2.9c0-.3.3-.3.3-.3l.6.6c1.1,1.4,1.7,3.2,1.7,5.2h0Zm-.3-13.5l-2.3,2.3-2.3-2.3,2.3-2.3,2.3,2.3Z"/></g><g id="G_150"><path id="PATH_151" d="m639.02,628.72h-1.2c-1.5,0-2.6-.6-3.2-1.5,0,1.8-.3,3.8-.6,6.5-.9,2.1-2.3,3.8-4.7,4.7-2.1.9-4.1,1.5-6.8,1.5s-4.4-.6-5.9-1.5c-1.8-1.2-2.6-2.9-2.6-5.6,0-2.3.6-4.7,2.1-6.5.2-.2.4-.3.6-.3s.3.1.3.3v.3c-.6,1.5-.9,2.9-.9,4.1,0,1.8.6,3.2,2.1,4.4,1.2.9,2.6,1.5,4.7,1.5,1.8,0,3.8-.3,5.9-1.2,2.9-.9,4.1-2.1,4.1-3.5l-.3-14.1c-.3-6.8-.3-11.4-.6-14.7l2.3-2.1c0,.9.3,4.1.6,10l.3,11.4c0,1.8,1.2,2.9,3.5,2.9h.9v3.2h-.6v.2h0Z"/><path id="PATH_152" d="m653.62,622.92c0,1.5,0,2.6-.6,3.8-.6,1.5-1.5,2.3-2.3,2.3-1.5,0-3.8-.9-6.8-2.9-.9,1.2-1.5,1.8-1.8,2.1-.9.6-1.8.9-2.9.9h-1.5v-3.5h2.1c1.2,0,2.3-.6,3.5-2.1.6-.6,1.5-2.1,2.6-3.8.9-1.5,2.1-2.1,2.9-2.1,1.5,0,2.6.6,3.5,2.1.8,1.1,1.3,2,1.3,3.2Zm-1.7,2c0-.9-.3-1.8-.9-2.9-.6-1.2-1.5-1.8-2.3-1.8s-1.8.9-2.9,2.6c.6.6,1.5,1.2,2.6,1.8,1.2.6,2.3.9,2.9.9.3.3.6,0,.6-.6h0Z"/><path id="PATH_153" d="m665.42,597.33c-1.2,1.2-2.9,1.5-4.7,1.5h-2.4c-.3,0-.6.3-.9.6l-.6.6c-.3,0-.3-.3-.3-.6s.3-.9.6-1.5c.3-.9.6-1.2.9-1.2s.9,0,1.8.3c.9.3,1.5.3,1.8.3,1.8,0,2.9,0,3.8-.3.6,0,.9-.3.9-.3h.3c-.6,0-.6.3-1.2.6h0Zm-1.8,27.6c0,1.2-.3,2.3-.9,3.2-.3.6-.6.9-.6.9,0,0-.3-.3-.3-1.2,0-3.5-.6-11.7-1.8-25l2.3-2.3.3-.3v.6c.7,4.2,1,12.1,1,24.1Z"/></g><g id="G_154"><path id="PATH_155" d="m304.02,404.73h-1.2c-1.2,0-1.8-.3-2.3-.6v.9c0,2.6-.9,5.3-2.6,7.9-1.5,2.3-2.9,3.2-3.8,3.2-2.3,0-4.1,0-5.9-.3-.6,0-.9-.3-.9-.3,0,0,.3-.3.9-.3,2.3-.6,4.7-1.8,7-3.5,2.3-2.1,3.8-4.1,3.8-6.2,0-1.2-.9-2.9-2.9-5l1.5-2.6c0-.3.3-.3.3-.3l.3.3c.9,1.2,1.5,2.1,2.1,2.3.9.6,2.1,1.2,3.2,1.2h.9v3.2h-.4v.1h0Z"/><path id="PATH_156" d="m322.22,404.73h-1.5c-1.2,0-2.3.3-3.2.6-1.5.6-2.3,1.5-2.3,2.9,0,1.8,1.2,3.2,3.5,4.7l-1.5,2.9c-2.6-.9-5-2.3-6.8-4.1-2.3-2.1-3.5-4.7-3.5-7.3h-4.1v-3.5h3.8c0-2.3.6-4.7,1.8-7.6,1.2-2.6,2.1-3.8,2.6-3.8.6,0,1.5,1.2,2.3,3.8.9,2.3,1.2,3.8,1.2,4.7,0,4.1-2.1,6.2-6.2,6.2.3,1.2.9,2.3,1.8,3.5s2.1,2.1,3.2,2.6v-1.2c0-2.1.6-3.8,1.5-5.3,1.5-2.1,3.2-3.2,5.9-3.2h1.2v4.1h.3Zm-9.1-4.7c0-.6-.3-1.8-.9-3.2-.6-1.8-1.2-2.3-1.8-2.3-.3,0-.9.6-1.5,2.1s-.9,3.2-.9,5c3.6-.4,5.1-.7,5.1-1.6h0Z"/><path id="PATH_157" d="m345.42,398.32c0,1.8-.3,3.2-1.2,4.4s-2.3,2.1-3.8,2.1c-2.1,0-3.2-.9-4.1-2.3-1.2,1.8-2.3,2.3-4.1,2.3-2.1,0-3.5-.9-4.4-2.3-1.2,1.8-2.6,2.3-4.7,2.3h-2.1v-3.5h2.3c2.1,0,3.5-1.2,3.8-3.5,0-.6.3-.9.6-.9s.3.3.6.9c.3,2.3,1.5,3.5,3.8,3.5,1.2,0,2.3-.3,2.9-.9.3-.6.6-1.2.9-2.3,0-.6.3-.9.6-.9s.3.3.6.9c.3,2.3,1.5,3.5,3.5,3.5,2.3,0,3.2-.6,3.2-1.5s-.6-2.1-1.8-3.2l1.5-2.6c.3-.3.3-.6.6-.6s.3.3.6.6c.1,1.3.7,2.8.7,4Zm-10-10.6l-2.1,2.1-2.1-2.1,2.1-2.1,2.1,2.1Zm2.6-4.7l-2.1,2.1-2.1-2.1,2.1-2.1,2.1,2.1Zm2.7,4.7l-2.1,2.1-2.1-2.1,2.1-2.1,2.1,2.1Z"/><path id="PATH_158" d="m363.62,404.73h-3.2c-.3,4.1-1.8,7.3-4.7,10.3-.9.9-1.5,1.5-1.8,1.5-1.5,0-3.5-.3-5.6-.6-.6,0-1.2-.3-1.2-.3,0,0,.3-.3,1.2-.6,2.3-.6,4.7-2.1,6.8-3.5.9-.9,1.8-1.5,2.3-2.6.9-1.2,1.5-2.3,1.5-3.2v-.9h-3.8c-2.9,0-4.1-1.2-4.1-3.5,0-1.5.3-2.9,1.2-4.7s2.1-2.9,3.2-2.9c1.5,0,2.6.9,3.5,2.9.6,1.5,1.2,2.9,1.2,4.7h3.2v3.5h.3v-.1h0Zm-5.3-3.5c0-.9-.3-1.8-.9-2.6-.6-1.2-1.5-1.5-2.3-1.5-.6,0-1.2.3-1.5.6-.6.6-.6.9-.6,1.8,0,1.5,1.2,2.1,3.5,2.1.3-.4.9-.4,1.8-.4Z"/><path id="PATH_159" d="m370.62,398.92c0,3.8-2.1,5.9-5.9,5.9h-2.3v-3.5h2.1c2.9,0,4.4-.6,4.4-1.5s-.6-2.1-2.1-3.5l1.2-2.9c0-.3.3-.3.3-.3l.6.6c1.1,1.4,1.7,3.1,1.7,5.2h0Zm-.3-13.5l-2.3,2.3-2.3-2.3,2.3-2.3,2.3,2.3Z"/></g><g id="G_160"><path id="PATH_161" d="m74.72,417.73h-1.2c-1.5,0-2.6-.3-3.2-.9-.9-.6-1.5-1.8-1.5-2.9-3.2,2.9-8.2,4.4-15,4.4s-10.6-2.1-10.6-6.5c0-1.5.6-2.9,1.8-4.4.2-.2.4-.3.6-.3s.3.1.3.3v.6c-.3.9-.6,1.8-.6,2.6,0,2.9,3.2,4.4,9.7,4.4,7.3,0,12.3-1.5,14.7-4.7.6-.6.9-.9,1.2-.9s.3.3.3.6,0,.6-.3,1.2c0,.6-.3.9-.3,1.2,0,1.5,1.2,2.3,3.2,2.3h1.2v2.9h-.3v.1h0Zm-18.2-17.1l-2.3,2.3-2.3-2.3,2.3-2.3,2.3,2.3Zm5,0l-2.3,2.3-2.3-2.3,2.3-2.3,2.3,2.3Z"/><path id="PATH_162" d="m97.92,411.23c0,1.8-.3,3.2-1.2,4.4-.9,1.2-2.3,2.1-3.8,2.1-2.1,0-3.2-.9-4.1-2.3-1.2,1.8-2.3,2.3-4.1,2.3-2.1,0-3.5-.9-4.4-2.3-1.2,1.8-2.6,2.3-4.7,2.3h-2.1v-3.5h2.3c2.1,0,3.5-1.2,3.8-3.5,0-.6.3-.9.6-.9s.3.3.6.9c.3,2.3,1.5,3.5,3.8,3.5,1.2,0,2.3-.3,2.9-.9.3-.6.6-1.2.9-2.3,0-.6.3-.9.6-.9s.3.3.6.9c.3,2.3,1.5,3.5,3.5,3.5,2.3,0,3.2-.6,3.2-1.5s-.6-2.1-1.8-3.2l1.5-2.6c.3-.3.3-.6.6-.6s.3.3.6.6c.1,1.4.7,2.8.7,4Zm-10-10.6l-2.1,2.1-2.1-2.1,2.1-2.1,2.1,2.1Zm2.7-4.7l-2.1,2.1-2.1-2.1,2.1-2.1,2.1,2.1Zm2.6,4.7l-2.1,2.1-2.1-2.1,2.1-2.1,2.1,2.1Z"/><path id="PATH_163" d="m115.82,411.51c0,4.1-2.6,6.2-8.2,6.2-2.1,0-3.5-.3-4.4-.9-1.2-.6-1.8-2.1-1.8-3.8,0-.9.3-1.8.6-2.6.3-.3.3-.6.6-.6s.3.3.3.9v.9c0,1.2.6,2.1,1.8,2.3.6.3,1.8.3,3.2.3,4.4,0,6.5-.6,6.5-2.1,0-2.1-2.6-5-7.6-8.5l.9-2.9c0-.3.3-.3.3-.3,0,0,.3,0,.6.3,4.9,3.7,7.2,7.3,7.2,10.8h0Z"/><path id="PATH_164" d="m130.52,418.01c0,2.9-.9,5.6-2.6,8.2-1.5,2.1-2.9,3.2-3.8,3.2-2.3,0-4.1,0-5.9-.3-.6,0-.9-.3-.9-.3,0,0,.3-.3.9-.3,2.3-.6,4.7-1.8,7-3.5,2.3-2.1,3.8-4.1,3.8-6.2,0-1.2-.9-2.9-2.9-5l1.5-2.6c0-.3.3-.3.3-.3l.3.3c.6.9,1.5,2.1,1.8,3.5.2.9.5,2.1.5,3.3h0Z"/><path id="PATH_165" d="m158.12,417.73h-1.8c-3.5,0-5.6-2.6-5.6-7.9v-2.6c-2.3,5.6-5,9.7-8.5,12-2.1.6-4.7.9-7.6.9h-.9s.9-.6,2.6-1.5c1.2-.6,2.3-1.2,3.5-1.8,2.1-.9,4.1-2.3,5.9-4.4-.9-2.9-2.1-5.6-3.8-7.9-1.2-1.5-2.9-3.2-5.6-5.3l-.6,1.2c-.9-.6-1.5-1.2-2.1-1.8-.9-.9-1.5-1.5-1.5-2.1s0-1.5.3-2.9c0-.3,0-.6.3-.6s.3,0,.6.3c3.8,2.6,6.8,5.3,8.5,7.6,2.3,2.9,3.8,6.2,4.7,10,1.2-1.5,2.1-2.9,2.6-4.7.9-2.1,1.2-3.8,1.2-5.3,0-2.6-.3-5.6-.6-8.8l2.3-2.1c.3,1.5.3,8.2.6,20.3,0,2.6,1.2,4.1,3.5,4.1h1.5v3.2h.5v.1h0Z"/><path id="PATH_166" d="m176.32,390.42c0,.6-.6,1.8-1.2,3.2l-7.3,2.3c-3.2,1.2-5.6,2.1-6.8,2.6,2.3,2.3,3.8,4.1,4.7,5,1.5,2.1,2.3,3.8,2.6,5.9,0,1.5,0,2.9-.6,4.1-.9,2.6-4.1,3.8-9.1,3.8h-1.5v-3.5h1.8c2.3,0,4.1,0,5-.3,2.1-.6,3.2-1.5,3.2-2.9,0-2.1-1.5-4.4-4.7-7.3l-.3.6c-.3-.3-.9-.9-1.5-1.8-.9-.9-1.2-1.8-1.2-1.8,0-.6,0-1.2.3-2.3.3-1.2.6-1.8.9-2.1s2.3-1.2,6.2-2.3c3.3-1.2,6.8-2.4,9.5-3.2h0Z"/></g><g id="G_140"><path id="PATH_141-2" d="m931.42,438.42l.2-.1c1.1,1,4.4,3,5,5,.2.8.3,1.3.3,2,0,1.1-.4,2.6-.9,3.3-1.1,1.2-2.4,1.6-3.6,1.6-.9,0-1.6-.2-2.1-.5-1.2-.8-1.8-2.2-1.8-3.9,0-1.2.5-2.5,1.1-3.4.4-.7.9-1.4,1.7-2.2-.1-.6,0-1.2.1-1.8Zm-1.9,7.1c0,1.3,1.4,2.4,2.9,2.4,1,0,1.9-.4,2.7-.9.6-.4.8-.8.8-1.2,0-.6-.5-1.3-.9-1.9-.7-.9-1.8-1.7-2.8-2.3-1.7,1.3-2.7,2.6-2.7,3.9Z"/><path id="PATH_142-2" d="m944.62,450.01h-.2c-1.4,0-2.3-.3-3-1-1.1-1.1-1.1-2.3-1.1-4.9,0-3.3-.2-6.8-.5-10.6.6-.7,1.1-1.2,1.7-1.6l.1.1c.3,3.8.3,8.4.3,12.7v1c0,1.1.6,1.6,1.3,1.9.4.2.9.2,1.1.2h.2v2.2h.1Z"/><path id="PATH_143-2" d="m955.52,431.82c-.4.7-.8,1.4-1.3,2.2-.9.2-1.9.5-2.8.9-1.9.7-3.8,1.4-5.9,2.3v.1l2.9.8-.4.9c2.9,2.1,4.5,4,4.5,5.8,0,1.6-.4,2.9-1.1,3.6-1.1,1-2.9,1.6-6.1,1.6h-.7c-1,0-1.2-.7-1.2-1.2,0-.4.3-1.1,1.2-1.1h1.1c1.8,0,3.5-.2,4.7-.9.6-.4,1-.7,1-.9,0-.8-.6-1.8-1.3-2.7-.9-1-2.7-2.4-5.3-4.3-.4-.3-.5-.9-.5-1.5,0-.4.2-.7.4-1.1.1-.3.5-.6,1.3-1,2-1.1,5.4-2.3,9.5-3.5h0Zm-10.4,2.3c.1-.4.2-.7.5-1.1,2.3-1.1,5.3-2.2,9.2-3.4h0l-.6,1c-3.9,1.3-6.8,2.4-9.1,3.5h0Z"/><path id="PATH_144-2" d="m963.12,443.92c1,2.4,1.9,3.8,4,3.8h.3v2.2h-.4c-.8,0-1.3-.2-1.8-.6h-.1v.6c0,.8-.2,1.9-.7,2.7-1.4,2.4-2.9,3.5-4.2,3.5s-2.9-.6-4.4-1.4l.3-.6c.5.2,1.1.4,2,.4,2.4,0,5.4-2.7,5.8-5.3-.1-.2-.2-.5-.5-.8-.7-1-1.1-1.8-1.5-2.6.4-.8.7-1.5,1-2l.2.1h0Z"/><path id="PATH_145-2" d="m967.82,447.73c1.4,0,2.8-.5,3-1.5l.5-1.9,1.2-.9.1.1c-.2.9-.4,1.7-.4,2,0,.6.2,1.1.6,1.5.6.5,1.2.7,2.2.7h.3v2.2h-.4c-1.7,0-3-.5-3.6-1.8h-.1c-.6,1.2-2,1.8-3.5,1.8h-.3c-1,0-1.2-.7-1.2-1.2,0-.4.3-1.1,1.2-1.1h.4v.1h0Zm2,9.3c-.7-.7-1.4-1.2-2.1-1.8.5-.6.9-1.2,1.4-1.7.7.6,1.3,1.1,2,1.9-.5.7-.8,1.1-1.3,1.6h0Zm3.4-.2c-.7-.7-1.4-1.2-2.1-1.8.5-.6.9-1.2,1.4-1.7.7.6,1.3,1.1,2,1.9-.5.7-.8,1.1-1.3,1.6h0Z"/><path id="PATH_146" d="m989.52,442.51c.2,1.3.3,2.4.3,3.1,0,.8-.3,1.8-.6,2.4-.7,1.1-1.6,1.9-2.6,1.9-.8,0-1.6-.6-2.2-1.5h-.1c-.8.9-1.8,1.5-3.1,1.5-1,0-1.6-.5-1.7-1.5h-.1c-1.1,1.2-2.5,1.5-3.7,1.5h-.3c-1,0-1.2-.7-1.2-1.2,0-.4.3-1.1,1.2-1.1h.6c1.6,0,2.9-.4,3.7-1.6l1-1.4,1.4-.5.1.1c-.7,1.1-1.2,2-1.2,2.5s.4.9.9.9,1.1-.2,1.6-.5c.6-.5.7-1,1.2-2.8l1.1-.6.1.1c-.1.6-.2,1.2-.2,1.7,0,1.3,1,2,1.8,2,.5,0,.9-.3.9-.8,0-.7-.2-1.8-.4-2.8.5-.6,1-1.1,1.6-1.6l-.1.2h0Zm-6-1.3c-.7-.7-1.4-1.2-2.1-1.8.5-.6.9-1.2,1.4-1.7.7.6,1.3,1.1,2,1.9-.5.7-.8,1.2-1.3,1.6h0Zm.9-3.7c-.7-.7-1.4-1.2-2.1-1.8.5-.6.9-1.2,1.4-1.7.7.6,1.3,1.1,2,1.9-.4.7-.8,1.1-1.3,1.6h0Zm2.5,3.5c-.7-.7-1.4-1.2-2.1-1.8.5-.6.9-1.2,1.4-1.7.7.6,1.3,1.1,2,1.9-.5.7-.8,1.2-1.3,1.6h0Z"/></g><polygon id="_919" class="cls-5" points="1437.82 417.13 1401.42 422.42 1366.42 443.82 1343.52 439.92 1336.82 441.73 1301.32 457.23 1261.72 450.01 1236.72 465.51 1211.42 509.42 1211.42 542.72 1226.62 581.52 1241.42 592.63 1283.12 592.63 1324.62 588.42 1392.62 520.92 1436.62 483.42 1447.32 460.13 1447.32 443.82 1437.82 417.13"/><g id="G_148"><path id="PATH_149-2" d="m1275.42,510.63c-2,0-3.5-.7-3.5-2.2,0-.6.2-1.3.6-2.2.8-1.7,2.8-3.4,6.1-5.2l-.1-1.4c.5-.6,1-1.1,1.5-1.6h.2c.1,3,.1,5.9.1,8.9,0,1.3.2,2.2.7,2.7.4.4,1.2.5,2,.5h.5v2.4h-.4c-1.9,0-3.2-.5-3.9-2.6-1.2.3-2.4.7-3.8.7h0Zm3.3-7.6c-3.4,1.8-5.2,3.2-5.2,4.2,0,.7,1.1,1.1,2.4,1.1.8,0,1.7-.2,2.8-.5v-4.8h0Z"/><path id="PATH_150" d="m1298.22,512.42h-.4c-2.3,0-3.6-1.3-4.9-3.1-.6-.8-1.2-1.6-1.7-2.1h-.1c0,3-1.7,5.2-7.1,5.2h-.5c-1,0-1.3-.8-1.3-1.3s.3-1.2,1.3-1.2h.8c1.5,0,3.4-.3,4.6-1.1.4-.2.9-.7.9-.9,0-.4-.2-.8-.4-1.3-.8-1.7-2.5-3.1-4.5-5.2-.5-.5-1-1-1.3-1.3-.1-.3-.1-.5-.1-.9,0-.5.2-1.1.5-1.6.2-.3.4-.4.7-.6,2-1.3,6.4-2.8,11.6-4.4l.1.1c-.4.8-.8,1.5-1.4,2.3-1.1.3-2.8.8-4.3,1.4-2.3.9-4.5,1.7-5.8,2.4h0c1,.6,2.3,1,3.1,1.3l-.6,1c2,1.8,4.2,3.8,6.8,6.9,1.1,1.3,2.2,1.9,3.7,1.9h.3v2.5h0Zm-13.8-16.9c.1-.4.2-.8.5-1.2,2.6-1.3,6.3-2.6,10.4-3.8v.1l-.7,1.2c-4.4,1.2-7.5,2.4-10.2,3.7h0Z"/><path id="PATH_151-2" d="m1298.52,510.01c1.6,0,2.9-.1,3.8-.4.7-.2,1.1-.5,1.1-.8,0-.9-.9-2.8-1.9-4.7.5-.8.9-1.5,1.4-2.2h.1c.9,1.5,1.9,3.9,1.9,5.8,0,1.4-.6,2.5-1.3,3.5-.9.9-2.2,1.1-5.1,1.1h-.2c-1,0-1.3-.8-1.3-1.3s.3-1.2,1.3-1.2h.2v.2h0Zm2.6-14.2c.8.6,1.5,1.3,2.3,2-.4.7-.9,1.3-1.6,1.9-.7-.7-1.5-1.3-2.2-2,.5-.7,1-1.3,1.5-1.9h0Z"/><path id="PATH_152-2" d="m1309.02,507.23c.1,1.6.7,2.9,3.1,2.9,1.5,0,2.7-.5,4.1-1.2.2-.1.4-.3.4-.5,0-1-.7-2.4-1.8-3.6-1.1-1.2-2.5-2.2-3.9-2.9-.5-.2-.6-.5-.6-.7,0-.5.5-1.5,1-2.2h.2c1.5,1,3.3,2.4,4.6,3.9,1.2,1.4,1.9,2.9,1.9,4.5,0,1.2-.3,2.3-.8,3.3-1.7,1-3.5,1.8-5.3,1.8-2.2,0-3.7-1.2-3.7-4,0-.3,0-.8.1-1.4h.7v.1h0Z"/><path id="PATH_153-2" d="m1327.72,502.63l1.4,2.6c.5,1,1,2,1,3.6v2.1c0,1.7-.9,3.5-2.4,5.3-1.2,1.2-2.2,1.7-3.1,1.7-1.4,0-3-.5-4.9-1.5l.2-.6c.6.2,1.3.3,2.1.3,2.7,0,5.4-2.3,6.7-5.1.2-.3.2-.6.2-.8,0-.3-.2-.7-.3-1-.7-1.5-1.4-2.9-2.3-4.2.4-.8.9-1.6,1.4-2.4h0Z"/><path id="PATH_154" d="m1338.42,512.42h-.2c-1.5,0-2.5-.3-3.3-1.1-1.2-1.2-1.2-2.5-1.2-5.3,0-3.6-.2-7.4-.5-11.4.6-.7,1.2-1.3,1.8-1.8l.1.1c.3,4.2.3,9.1.3,13.8v1.1c0,1.2.7,1.8,1.4,2,.5.2,1,.2,1.2.2h.3v2.4h.1,0Z"/><path id="PATH_155-2" d="m1340.52,510.01c.3-1.3.6-2.7,1-4.1.5-1.8,1.2-3.4,2.2-4.9l.2-.1c.2.4.4.7.7,1.1,1.4,2,2.5,3.8,2.5,5.4,0,.8-.1,1.7-.4,2.5h3.7v2.4h-.5c-.3,0-1.1,0-1.6-.2h-.1c.5.8.8,1.8.8,2.6s-.2,1.7-.6,2.3c-.6.9-1.7,1.8-2.9,1.8-.9,0-1.9-.2-2.7-.8-1.6-1-2.6-3-2.6-4.9v-.9c-.4.1-1,.1-1.5.1h-.4c-1,0-1.3-.8-1.3-1.3s.3-1.2,1.3-1.2h2.2v.2h0Zm2,5c1,1.2,2.4,1.9,3.6,1.9.7,0,1.1-.4,1.1-.9s-.1-1.4-.7-2.3c-.6-.8-1.5-1.5-3-1.5-.7,0-1.4.1-2.2.2.1.8.6,1.8,1.2,2.6Zm2-5.3c.9-.2,1.3-.6,1.3-1,0-1.2-1.1-2.9-2.4-4.6h-.1c-.6,1.9-1.3,3.8-1.8,5.8,1.1.1,2.2,0,3-.2h0Z"/><path id="PATH_156-2" d="m1351.62,510.01c3.1,0,6.2-1.1,10.2-3.4v-.1c-2.2-.8-4.2-1.3-6-1.3-1.1,0-1.9.3-2.4,1l.2,1-.6,1.7h-.2l-.9-2.5c.2-2.1,1.8-3.4,4.1-3.4,1.3,0,3.3.5,6.2,1.7.9.4,2.1.6,3.3.6h1.6l-1,2c-1.6,0-2.7.3-3.3.7l-3.2,2.1c-2.6,1.7-5.3,2.6-8.2,2.6h-1c-1,0-1.3-.8-1.3-1.3s.3-1.2,1.3-1.2h1.2v-.2h0Zm5,8.2c-.8-.7-1.5-1.4-2.2-2,.5-.7,1-1.3,1.5-1.8.8.6,1.4,1.2,2.2,2-.6.8-1,1.3-1.5,1.8Zm2.6,3.8c-.8-.7-1.5-1.4-2.2-2,.5-.7,1-1.3,1.5-1.8.8.6,1.4,1.2,2.2,2-.5.8-.9,1.3-1.5,1.8Zm1.1-4.1c-.8-.7-1.5-1.4-2.2-2,.5-.7,1-1.3,1.5-1.8.8.6,1.4,1.2,2.2,2-.6.8-1,1.3-1.5,1.8Z"/></g><path id="_621" class="cls-3" d="m783.72,553.63c-4.7,3.33-9.4,6.67-14.1,10-1.4,3.96-2.8,7.93-4.2,11.89v93.71h40.6l38.8,7.1,7.9-35.1,20.8-26.3-7-13.8-47.4-25.5-35.4-22Z"/><g id="G_158"><path id="PATH_159-2" d="m780.92,612.72v1.9h-.9c0,.4.1.8.1,1.1,0,.5-.5,1.6-.7,1.9-2,1.8-4.8,2.8-7.1,2.8-1.9,0-3.3-.7-4.2-1.6-.9-1-1.3-2.5-1.3-4.2,0-1.5.6-3.6,1.4-5l.6.3c-.6,1.5-.9,2.8-.9,3.8,0,1.3.4,2.5,1.2,3.3.9,1,2.2,1.4,3.7,1.4,1.4,0,3-.4,4.8-1.3.7-.4,1.2-.7,1.4-1-.3-.7-2-1.4-4.4-1.4l-.1-.2,1-1.7h5.4v-.1Z"/><path id="PATH_160" d="m782.22,612.72c1.3,0,2.4,0,3.3-.3,1-.3,1.8-.9,1.8-1.3v-.3c-.5.1-1.2.1-1.7.1-1.8,0-3.1-.5-3.6-1.6-.1-.3-.2-.7-.2-1.1,0-1.1.4-2.2,1.1-3,.6-.6,1.3-1,2-1,1.2,0,2.2,1.2,2.9,3,.4,1,.6,2.1.6,3.6,0,1-.2,1.8-.7,2.4-1,1.1-2.7,1.5-5.4,1.5h-1.2c-.8,0-1.1-.6-1.1-1s.2-.9,1.1-.9h1.1v-.1h0Zm.5-10c-.6-.6-1.2-1.1-1.8-1.6.4-.5.8-1,1.2-1.4.6.5,1.1,1,1.7,1.6-.4.6-.7,1-1.1,1.4h0Zm1.7,3.4c-1,0-1.8.8-1.8,1.3,0,1.2,2,1.6,4.4,1.6-.3-1.4-1.4-2.9-2.6-2.9h0Zm1.2-3.6c-.6-.6-1.2-1.1-1.8-1.6.4-.5.8-1,1.2-1.4.6.5,1.1,1,1.7,1.6-.4.7-.7,1-1.1,1.4h0Z"/><path id="PATH_161-2" d="m805.32,612.33c.5-.4.6-.8,1.1-2.4l.9-.5.1.1c-.1.5-.2,1.1-.2,1.5,0,1.2.8,1.7,1.6,1.7.4,0,.8-.2.8-.7,0-.6-.2-1.6-.4-2.5.4-.5.9-1,1.4-1.4h.1c.2,1.1.2,2.1.2,2.7,0,.7-.3,1.5-.5,2.1-.6,1-1.4,1.7-2.2,1.7-.7,0-1.3-.5-1.9-1.3h-.1c-.5.6-1.3,1.3-2.4,1.3-1.5,0-2.5-1.2-2.5-2.9-1.5.5-2.6.8-3.5,1.3.1.4.2.8.2,1.1,0,.6,0,1.3-.1,1.9,0,1.1-.4,1.9-1.2,2.9-1.3,1.4-2.4,1.8-3.3,1.8-1.1,0-2.3-.5-3.7-1.5l.2-.4c.6.3,1.2.4,1.8.4,1.4,0,2.7-.7,3.9-1.7,1-1,1.5-1.7,1.5-2.5,0-.5-.5-1.2-1.1-1.8.1-.5.2-1.2.5-1.8,1.8-.7,3.6-1.3,5.6-1.8v.1c-.1.3-.1.6-.1.9,0,1,.9,2,1.9,2,.5.1,1,0,1.4-.3h0Zm.1-5.2c-.6-.6-1.2-1.1-1.8-1.6.4-.5.8-1,1.2-1.4.6.5,1.1,1,1.7,1.6-.4.6-.7,1-1.1,1.4h0Zm.8-3.2c-.6-.6-1.2-1.1-1.8-1.6.4-.5.8-1,1.2-1.4.6.5,1.1,1,1.7,1.6-.4.6-.7,1-1.1,1.4h0Zm2.1,3c-.6-.6-1.2-1.1-1.8-1.6.4-.5.8-1,1.2-1.4.6.5,1.1,1,1.7,1.6-.4.6-.7,1-1.1,1.4h0Z"/><path id="PATH_162-2" d="m833.62,612.72v1.9h-.9c0,.4.1.8.1,1.1,0,.5-.5,1.6-.7,1.9-2,1.8-4.8,2.8-7.1,2.8-1.9,0-3.3-.7-4.2-1.6-.9-1-1.3-2.5-1.3-4.2,0-1.5.6-3.6,1.4-5l.6.3c-.6,1.5-.9,2.8-.9,3.8,0,1.3.4,2.5,1.2,3.3.9,1,2.2,1.4,3.7,1.4,1.4,0,3-.4,4.8-1.3.7-.4,1.2-.7,1.4-1-.3-.7-2-1.4-4.4-1.4l-.1-.2,1-1.7h5.4v-.1Z"/><path id="PATH_163-2" d="m833.92,612.72c1.3,0,2.3,0,3-.3.5-.2.9-.4.9-.7,0-.7-.7-2.2-1.5-3.7.4-.7.7-1.2,1.1-1.7h.1c.7,1.2,1.5,3.1,1.5,4.6,0,1.1-.5,2-1.1,2.8-.7.7-1.8.9-4.1.9h-.2c-.8,0-1.1-.6-1.1-1s.2-.9,1.1-.9h.3Zm1.5,7.3c-.6-.6-1.2-1.1-1.8-1.6.4-.5.8-1,1.2-1.4.6.5,1.1,1,1.7,1.6-.4.6-.7,1-1.1,1.4h0Zm2.1,3c-.6-.6-1.2-1.1-1.8-1.6.4-.5.8-1,1.2-1.4.6.5,1.1,1,1.7,1.6-.4.6-.7,1-1.1,1.4h0Zm.8-3.2c-.6-.6-1.2-1.1-1.8-1.6.4-.5.8-1,1.2-1.4.6.5,1.1,1,1.7,1.6-.4.6-.7,1-1.1,1.4h0Z"/><path id="PATH_164-2" d="m851.92,614.63h-.3c-1.4,0-2.5-.6-3.1-2.5h-.1c-.1.6-.4,1.1-1.1,1.5-1,.6-2,1-3,1-1.7,0-2.6-1-2.6-2.8v-1.1h.6c.1,1.3.7,2,2.1,2,.8,0,1.8-.3,2.5-.8.6-.3,1-.8,1-1.1,0-1-.5-3-1.3-5.6.3-.5.7-1.1,1.1-1.6l.1.1c.6,2.2,1,4.5,1.4,6.7.3,1.5,1.3,2.3,2.4,2.3h.3v1.9h0Z"/><path id="PATH_165-2" d="m852.32,612.72c1.2,0,2.4-.5,2.6-1.3l.4-1.6,1-.8.1.1c-.2.8-.3,1.4-.3,1.8,0,.5.1,1,.5,1.3.5.4,1.1.6,1.9.6h.3v1.9h-.3c-1.5,0-2.6-.4-3.1-1.5h-.1c-.5,1-1.7,1.5-3,1.5h-.3c-.8,0-1.1-.6-1.1-1s.2-.9,1.1-.9h.3v-.1h0Zm2.6-9.1c.6.5,1.2,1,1.8,1.6-.3.5-.7,1-1.3,1.5-.6-.6-1.2-1-1.8-1.6.5-.5.9-1.1,1.3-1.5Z"/><path id="PATH_166-2" d="m859.02,612.72c1.3,0,2.3,0,3-.3.5-.2.9-.4.9-.7,0-.7-.7-2.2-1.5-3.7.4-.7.7-1.2,1.1-1.7h.1c.7,1.2,1.5,3.1,1.5,4.6,0,1.1-.5,2-1.1,2.8-.7.7-1.8.9-4.1.9h-.2c-.8,0-1.1-.6-1.1-1s.2-.9,1.1-.9h.3Zm2.9,4.8c.6.5,1.2,1,1.8,1.6-.3.5-.7,1-1.3,1.5-.6-.6-1.2-1-1.8-1.6.5-.5.9-1,1.3-1.5Z"/></g><polygon id="_399" class="cls-6" points="765.42 439.63 783.72 472.82 797.42 518.92 790.82 552.72 769.62 563.63 765.42 575.52 742.02 525.42 724.42 492.23 742.02 457.23 765.42 439.63"/><g id="G_168"><path id="PATH_169" d="m731.42,503.23v1.6h-.6v.9c0,.4-.3,1.3-.5,1.6-1.3,1.5-3.3,2.4-4.8,2.4-1.3,0-2.2-.6-2.8-1.4-.6-.9-.9-2.1-.9-3.5,0-1.3.4-3,1-4.2l.4.2c-.4,1.3-.6,2.3-.6,3.2,0,1.1.3,2.1.8,2.8.6.8,1.5,1.2,2.5,1.2s2-.3,3.3-1.1c.5-.3.8-.6.9-.9-.2-.6-1.4-1.2-3-1.2l-.1-.2.7-1.4h3.7,0Z"/><path id="PATH_170" d="m731.62,503.23c.9,0,1.6,0,2-.2s.6-.3.6-.6c0-.6-.5-1.8-1-3.1.2-.5.5-1,.8-1.4h.1c.5,1,1,2.6,1,3.9,0,1-.3,1.7-.7,2.4-.5.6-1.2.8-2.8.8h-.1c-.6,0-.7-.5-.7-.9,0-.3.2-.8.7-.8h.1v-.1h0Zm2,4c.4.4.8.8,1.2,1.4-.2.5-.5.9-.9,1.2-.4-.5-.8-.9-1.2-1.3.3-.4.6-.9.9-1.3h0Z"/><path id="PATH_171" d="m740.22,500.51c.6,1.7,1.1,2.7,2.3,2.7h.2v1.6h-.2c-.5,0-.8-.1-1-.4h0v.4c0,.6-.1,1.4-.4,2-.8,1.8-1.7,2.5-2.5,2.5s-1.7-.4-2.6-1l.2-.4c.3.2.7.3,1.2.3,1.4,0,3.2-1.9,3.4-3.8-.1-.2-.1-.4-.3-.6-.4-.7-.7-1.3-.9-1.9.1-.5.3-1,.6-1.4h0Z"/><path id="PATH_172" d="m743.32,503.23c.4,0,.9-.1,1.5-.3v-.1c-.7-.6-1.2-1.4-1.2-2.5,0-.5.2-1.1.4-1.7.5-1,1.2-1.7,2.1-1.7,1,0,1.8.8,2.3,2.1l-.2.3c-.6-.6-1.1-.8-1.8-.8-1.1,0-1.9.6-1.9,1.1,0,.6.3,1.2.9,1.8.4.4,1,.7,1.2.7.8,0,1.7-.4,3-.9l.1.1-.5,1.6c-1.6.7-2.4.8-3.7,1.3-.9.4-1.7.7-2.5.7h-.3c-.6,0-.7-.5-.7-.9,0-.3.2-.8.7-.8h.6Zm1.8-10.2c.4.4.8.8,1.2,1.4-.2.5-.5.9-.9,1.2-.4-.5-.8-.9-1.2-1.3.4-.4.7-.9.9-1.3h0Z"/><path id="PATH_173" d="m764.92,503.23v1.6h-.6v.9c0,.4-.3,1.3-.5,1.6-1.3,1.5-3.3,2.4-4.8,2.4-1.3,0-2.2-.6-2.8-1.4-.6-.9-.9-2.1-.9-3.5,0-1.3.4-3,1-4.2l.4.2c-.4,1.3-.6,2.3-.6,3.2,0,1.1.3,2.1.8,2.8.6.8,1.5,1.2,2.5,1.2s2-.3,3.3-1.1c.5-.3.8-.6.9-.9-.2-.6-1.4-1.2-3-1.2l-.1-.2.7-1.4h3.7,0Z"/><path id="PATH_174" d="m765.12,503.23c.9,0,1.6,0,2-.2s.6-.3.6-.6c0-.6-.5-1.8-1-3.1.2-.5.5-1,.8-1.4h.1c.5,1,1,2.6,1,3.9,0,1-.3,1.7-.7,2.4-.5.6-1.2.8-2.8.8h-.1c-.6,0-.7-.5-.7-.9,0-.3.2-.8.7-.8h.1v-.1h0Zm1,6.1c-.4-.5-.8-.9-1.2-1.3.3-.5.6-.9.8-1.2.4.4.8.8,1.2,1.4-.3.5-.5.8-.8,1.1Zm1.5,2.5c-.4-.5-.8-.9-1.2-1.3.3-.5.6-.9.8-1.2.4.4.8.8,1.2,1.4-.3.5-.5.8-.8,1.1Zm.5-2.6c-.4-.5-.8-.9-1.2-1.3.3-.5.6-.9.8-1.2.4.4.8.8,1.2,1.4-.3.4-.5.7-.8,1.1Z"/><path id="PATH_175" d="m773.92,498.32l.7,1.7c.3.6.5,1.3.5,2.4v1.4c0,1.1-.5,2.3-1.3,3.5-.6.8-1.2,1.2-1.7,1.2-.8,0-1.6-.3-2.7-1l.1-.4c.3.1.7.2,1.1.2,1.5,0,2.9-1.5,3.6-3.4.1-.2.1-.4.1-.6s-.1-.5-.1-.7c-.4-1-.8-1.9-1.2-2.8.3-.5.6-1,.9-1.5h0Z"/><path id="PATH_176" d="m783.92,504.82h-.2c-.9,0-1.7-.5-2.1-2.1h-.1c-.1.5-.3.9-.7,1.2-.7.5-1.4.9-2.1.9-1.2,0-1.8-.9-1.8-2.3v-.9h.4c0,1.1.5,1.7,1.5,1.7.5,0,1.2-.3,1.7-.6.4-.3.7-.6.7-1,0-.9-.4-2.6-.9-4.7.2-.4.5-.9.7-1.3l.1.1c.4,1.8.7,3.8,1,5.6.2,1.3.9,1.9,1.6,1.9h.2v1.5h0Z"/><path id="PATH_177" d="m784.22,503.23c.8,0,1.6-.4,1.8-1.1l.3-1.4.7-.6.1.1c-.1.6-.2,1.2-.2,1.5,0,.4.1.8.3,1.1.3.3.7.5,1.3.5h.2v1.6h-.2c-1,0-1.8-.3-2.1-1.3h0c-.4.9-1.2,1.3-2.1,1.3h-.2c-.6,0-.7-.5-.7-.9,0-.3.2-.8.7-.8h.1Zm1.8-7.6c.4.4.8.8,1.2,1.4-.2.5-.5.9-.9,1.2-.4-.5-.8-.9-1.2-1.3.3-.5.6-1,.9-1.3h0Z"/><path id="PATH_178" d="m788.82,503.23c.9,0,1.6,0,2-.2s.6-.3.6-.6c0-.6-.5-1.8-1-3.1.2-.5.5-1,.8-1.4h.1c.5,1,1,2.6,1,3.9,0,1-.3,1.7-.7,2.4-.5.6-1.2.8-2.8.8h-.1c-.6,0-.7-.5-.7-.9,0-.3.2-.8.7-.8h.1v-.1h0Zm1.9,4c.4.4.8.8,1.2,1.4-.2.5-.5.9-.9,1.2-.4-.5-.8-.9-1.2-1.3.4-.4.7-.9.9-1.3h0Z"/></g><g id="G_179"><path id="PATH_180" d="m896.72,293.02c.1,2.5.1,5,.1,7.4,0,1.1,0,2.1.3,2.8.3.6.9,1.2,1.5,1.2h.1v1.6h-.2c-1.2,0-2.6-1.1-2.6-3.5h-.1c-.5,1.8-1.6,2.7-2.8,3.3-.9.4-1.6.5-2.6.5l-1.4-.1-.1-.1c2.1-.8,3.6-1.6,4.8-2.4-.2-1.3-1.4-3.3-3.7-6.2-.6-.9-1.3-1.6-1.3-2.1,0-.3.2-.8.3-1.2h.1c.7.7,1.5,1.3,2.4,1.8l-.4.7c.7.9,1.3,1.9,2,3.1.5.9,1,1.9,1,2.7,0,.3,0,.5-.1.8h0c.4-.4.7-.7.9-1.1.5-.8.5-1.7.5-3.9,0-1.5-.1-2.9-.2-4.4.3-.4.6-.8,1-1.1l.5.2h0Z"/><path id="PATH_181" d="m906.72,292.42c-.3.5-.6,1-1,1.6-.6.2-1.4.4-2,.6-1.3.5-2.7,1-4.2,1.7h0l2.1.8-.3.6c2,1.6,3.3,3.2,3.3,4.5,0,1.2-.3,2.1-.8,2.6-.8.7-2.1,1.2-4.4,1.2h-.5c-.7,0-.9-.5-.9-.9,0-.3.2-.8.9-.8h.8c1.3,0,2.5-.1,3.4-.7.5-.3.7-.5.7-.7,0-.6-.4-1.2-.9-1.9-.6-.8-1.7-2-3.8-3.6-.4-.3-.5-.7-.5-1.2,0-.3.1-.5.3-.8.1-.2.4-.5,1-.8,1.5-.7,3.9-1.6,6.8-2.5v.3h0Z"/><path id="PATH_182" d="m911.52,306.13h-.1c-1,0-1.7-.2-2.2-.7-.8-.8-.8-1.7-.8-3.6,0-2.4-.1-4.9-.3-7.6.4-.5.8-.9,1.2-1.2l.1.1c.2,2.8.2,6.1.2,9.2v.7c0,.8.5,1.2,1,1.4.3.1.6.1.8.1h.2v1.6h-.1Z"/><path id="PATH_183" d="m911.82,304.52c1,0,2-.4,2.2-1.1l.4-1.4.9-.6.1.1c-.2.6-.3,1.2-.3,1.5,0,.4.1.8.4,1.1.4.3.9.5,1.6.5h.2v1.6h-.3c-1.2,0-2.2-.3-2.6-1.3h-.1c-.4.9-1.4,1.3-2.5,1.3h-.2c-.7,0-.9-.5-.9-.9,0-.3.2-.8.9-.8h.2,0Zm1.4,6.7c-.5-.5-1-.9-1.5-1.3.3-.5.7-.9,1-1.2.5.4,1,.8,1.4,1.4-.3.4-.5.7-.9,1.1Zm2.4-.2c-.5-.5-1-.9-1.5-1.3.3-.5.7-.9,1-1.2.5.4,1,.8,1.4,1.4-.2.4-.5.8-.9,1.1Z"/><path id="PATH_184" d="m925.12,292.42c-.3.5-.6,1-1,1.6-.6.2-1.4.4-2,.6-1.3.5-2.7,1-4.2,1.7l2.1.8-.3.6c2,1.6,3.3,3.2,3.3,4.5,0,1.2-.3,2.1-.8,2.6-.8.7-2.1,1.2-4.4,1.2h-.5c-.7,0-.9-.5-.9-.9,0-.3.2-.8.9-.8h.8c1.3,0,2.5-.1,3.4-.7.5-.3.7-.5.7-.7,0-.6-.4-1.2-.9-1.9-.6-.8-1.7-2-3.8-3.6-.4-.3-.5-.7-.5-1.2,0-.3.1-.5.3-.8.1-.2.4-.5,1-.8,1.5-.7,3.9-1.6,6.8-2.5v.3h0Z"/></g><g id="G_185"><path id="PATH_186" d="m732.02,253.22l.9,1.7c.3.6.6,1.3.6,2.4v1.4c0,1.1-.6,2.3-1.6,3.5-.8.8-1.5,1.2-2.1,1.2-.9,0-2-.3-3.3-1l.1-.4c.4.1.9.2,1.4.2,1.8,0,3.6-1.5,4.5-3.4.1-.2.1-.4.1-.6s-.1-.5-.2-.7c-.5-1-1-1.9-1.5-2.8.4-.5.7-1,1.1-1.5h0Z"/><path id="PATH_187" d="m739.12,259.73h-.1c-1,0-1.7-.2-2.2-.7-.8-.8-.8-1.7-.8-3.6,0-2.4-.1-4.9-.3-7.6.4-.5.8-.9,1.2-1.2l.1.1c.2,2.8.2,6.1.2,9.2v.7c0,.8.5,1.2,1,1.4.3.1.6.1.8.1h.2v1.6h-.1Z"/><path id="PATH_188" d="m739.42,258.13c1,0,2-.4,2.2-1.1l.4-1.4.9-.6.1.1c-.2.6-.3,1.2-.3,1.5,0,.4.1.8.4,1.1.4.3.9.5,1.6.5h.2v1.6h-.3c-1.2,0-2.2-.3-2.6-1.3h-.1c-.4.9-1.4,1.3-2.5,1.3h-.2c-.7,0-.9-.5-.9-.9,0-.3.2-.8.9-.8h.2,0Zm2.2-7.7c.5.4,1,.8,1.5,1.4-.3.5-.6.9-1.1,1.2-.5-.5-1-.9-1.5-1.3.4-.4.8-.9,1.1-1.3h0Z"/><path id="PATH_189" d="m752.72,246.13c-.3.5-.6,1-1,1.6-.6.2-1.4.4-2,.6-1.3.5-2.7,1-4.2,1.7h0l2.1.8-.3.6c2,1.6,3.3,3.2,3.3,4.5,0,1.2-.3,2.1-.8,2.6-.8.7-2.1,1.2-4.4,1.2h-.5c-.7,0-.9-.5-.9-.9,0-.3.2-.8.9-.8h.8c1.3,0,2.5-.1,3.4-.7.5-.3.7-.5.7-.7,0-.6-.4-1.2-.9-1.9-.6-.8-1.7-2-3.8-3.6-.4-.3-.5-.7-.5-1.2,0-.3.1-.5.3-.8.1-.2.4-.5,1-.8,1.5-.7,3.9-1.6,6.8-2.5v.3h0Z"/><path id="PATH_190" d="m766.92,252.42c.9,1.7,1.4,3.3,1.4,5.2,0,1.3-.4,2.7-.9,3.2-1.1,1.2-2.7,1.9-4.2,1.9-2.4,0-3.9-1.6-3.9-3.8,0-1.6.5-2.7,1.1-3.7l.5.3c-.4.8-.7,1.8-.7,2.4,0,1.1.4,1.8.9,2.2.5.5,1.4.9,2.4.9s2.3-.5,3.1-1.1c.6-.4.9-.8.9-1.1,0-.9-.2-1.6-.4-2.2-.3-1-.7-1.8-1.1-2.5.2-.6.5-1.2.9-1.7h0Zm-3.4-4.1c.5.4,1,.8,1.5,1.4-.3.5-.6.9-1.1,1.2-.5-.5-1-.9-1.5-1.3.4-.5.7-.9,1.1-1.3h0Z"/><path id="PATH_191" d="m774.72,258.42c-1.5,0-2.8-.7-2.8-2.4,0-.8.3-1.5.8-2.2.6-.6,1.2-1.1,1.8-1.1.7,0,1.4.5,1.9,1.4s.8,2.1.8,3.5c0,1.2-.3,2.3-1,3.3-1.1,1.7-2.2,2.4-3.3,2.4-1.2,0-2.4-.4-3.6-1.2l.2-.4c.6.3,1.2.4,1.9.4,1.3,0,2.6-.6,3.7-1.9.6-.6,1.1-1.4,1.2-2.1-.5.2-1.1.3-1.6.3h0Zm-.6-4c-.6,0-1.4.7-1.4,1.1,0,.8,1.1,1.3,2.2,1.3.5,0,1-.1,1.4-.2-.4-1.2-1.1-2.2-2.2-2.2h0Z"/><path id="PATH_192" d="m788.02,259.73h-.2c-1.1,0-2.1-.5-2.6-2.1h-.1c-.1.5-.4.9-.9,1.2-.8.5-1.7.9-2.6.9-1.4,0-2.2-.9-2.2-2.3v-.9h.5c.1,1.1.6,1.7,1.8,1.7.7,0,1.5-.3,2.1-.6.5-.3.8-.6.8-1,0-.9-.5-2.6-1.1-4.7.3-.4.6-.9.9-1.3l.1.1c.5,1.8.9,3.8,1.2,5.6.2,1.3,1.1,1.9,2,1.9h.2v1.5h.1Z"/><path id="PATH_193" d="m788.22,258.13c1.1,0,1.9,0,2.5-.2.4-.2.7-.3.7-.6,0-.6-.6-1.8-1.3-3.1.3-.5.6-1,1-1.4h.1c.6,1,1.3,2.6,1.3,3.9,0,1-.4,1.7-.9,2.4-.6.6-1.5.8-3.4.8h-.2c-.7,0-.9-.5-.9-.9,0-.3.2-.8.9-.8h.2v-.1h0Zm1.3,6.7c-.5-.5-1-.9-1.5-1.3.3-.5.7-.9,1-1.2.5.4,1,.8,1.4,1.4-.3.4-.6.7-.9,1.1Zm2.4-.2c-.5-.5-1-.9-1.5-1.3.3-.5.7-.9,1-1.2.5.4,1,.8,1.4,1.4-.3.5-.5.8-.9,1.1Z"/><path id="PATH_194" d="m798.92,255.33c.7,1.7,1.4,2.7,2.9,2.7h.2v1.6h-.3c-.6,0-1-.1-1.3-.4h-.1v.4c0,.6-.2,1.4-.5,2-1,1.8-2.1,2.5-3,2.5-1,0-2.1-.4-3.2-1l.2-.4c.3.2.8.3,1.5.3,1.7,0,3.9-1.9,4.2-3.8-.1-.2-.2-.4-.3-.6-.5-.7-.8-1.3-1.1-1.9.2-.5.5-.9.8-1.4h0Z"/><path id="PATH_195" d="m803.02,258.13c1.1,0,2,0,2.8-.3.8-.2,1.5-.7,1.5-1.1v-.3c-.5.1-1,.1-1.4.1-1.5,0-2.6-.4-3-1.4-.1-.3-.2-.6-.2-.9,0-.9.3-1.9,1-2.5.5-.5,1.1-.9,1.6-.9,1,0,1.9,1,2.4,2.5.3.8.5,1.8.5,3,0,.8-.2,1.5-.6,2-.8.9-2.3,1.3-4.5,1.3h-1c-.7,0-.9-.5-.9-.9,0-.3.2-.8.9-.8h.9v.2h0Zm1.9-5.5c-.8,0-1.5.6-1.5,1.1,0,1,1.7,1.3,3.7,1.3-.3-1.2-1.2-2.4-2.2-2.4h0Zm-.3-5.7c.5.4,1,.8,1.5,1.4-.3.5-.6.9-1.1,1.2-.5-.5-1-.9-1.5-1.3.4-.5.8-.9,1.1-1.3h0Z"/></g><polygon id="_486" class="cls-2" points="873.52 212.42 873.52 235.13 888.92 252.52 913.22 264.82 930.22 242.72 930.22 212.42 923.42 200.72 897.92 208.02 873.52 212.42"/><g id="G_197"><path id="PATH_198" d="m883.82,222.83c.7,1.7,1.4,2.7,2.9,2.7h.2v1.6h-.3c-.6,0-1-.1-1.3-.4h-.1v.4c0,.6-.2,1.4-.5,2-1,1.8-2.1,2.5-3,2.5-1,0-2.1-.4-3.2-1l.2-.4c.3.2.8.3,1.5.3,1.7,0,3.9-1.9,4.2-3.8-.1-.2-.2-.4-.3-.6-.5-.7-.8-1.3-1.1-1.9.2-.5.5-1,.8-1.4h0Z"/><path id="PATH_199" d="m887.12,225.52c1,0,2-.4,2.2-1.1l.4-1.4.9-.6.1.1c-.2.6-.3,1.2-.3,1.5,0,.4.1.8.4,1.1.4.3.9.5,1.6.5h.2v1.6h-.3c-1.2,0-2.2-.3-2.6-1.3h-.1c-.4.9-1.4,1.3-2.5,1.3h-.2c-.7,0-.9-.5-.9-.9,0-.3.2-.8.9-.8h.2,0Zm1.5,6.7c-.5-.5-1-.9-1.5-1.3.3-.5.7-.9,1-1.2.5.4,1,.8,1.4,1.4-.3.4-.6.8-.9,1.1Zm2.4-.2c-.5-.5-1-.9-1.5-1.3.3-.5.7-.9,1-1.2.5.4,1,.8,1.4,1.4-.3.5-.5.8-.9,1.1Z"/><path id="PATH_200" d="m892.92,225.52c1.3,0,1.8-.7,2.1-1.9.5-1.6,1.5-2.4,2.3-2.4.6,0,1.1.2,1.5.9.3.5.6.9,1.3,2.4.3.6,1,1,2,1h.2v1.6h-.2c-.7,0-1.4-.3-2-1.1h-.1c-.1.4-.2.7-.4,1-.3.3-.5.4-.8.4-1,0-2.6-.7-3.6-1.8h-.1c-.4.8-1.2,1.5-2.5,1.5h-.2c-.7,0-.9-.5-.9-.9,0-.3.2-.8.9-.8h.5v.1Zm4.3-.2c.6.3,1.3.6,1.8.6.2,0,.5,0,.5-.3,0-.5-.3-1.2-.6-1.7-.5-.7-1.1-1.1-1.6-1.1-.7,0-1.2.5-1.5,1.1.1.4.9,1.1,1.4,1.4h0Z"/><path id="PATH_201" d="m902.72,225.52c1,0,2-.4,2.2-1.1l.4-1.4.9-.6.1.1c-.2.6-.3,1.2-.3,1.5,0,.4.1.8.4,1.1.4.3.9.5,1.6.5h.2v1.6h-.3c-1.2,0-2.2-.3-2.6-1.3h-.1c-.4.9-1.4,1.3-2.5,1.3h-.2c-.7,0-.9-.5-.9-.9,0-.3.2-.8.9-.8h.2,0Zm2.2-7.7c.5.4,1,.8,1.5,1.4-.3.5-.6.9-1.1,1.2-.5-.5-1-.9-1.5-1.3.4-.4.8-.9,1.1-1.3h0Z"/><path id="PATH_202" d="m909.62,225.52c.2-.9.4-1.8.7-2.7.3-1.2.8-2.3,1.4-3.3h.1c.1.2.3.5.5.8.9,1.3,1.7,2.5,1.7,3.6,0,.6-.1,1.1-.2,1.7h2.5v1.6h-.3c-.2,0-.7,0-1.1-.1h-.1c.3.6.5,1.2.5,1.7s-.2,1.1-.4,1.5c-.4.6-1.1,1.2-1.9,1.2-.6,0-1.3-.2-1.8-.5-1.1-.7-1.7-2-1.7-3.3v-.6c-.3,0-.7.1-1,.1h-.2c-.7,0-.9-.5-.9-.9,0-.3.2-.8.9-.8h1.3Zm1.3,3.4c.7.8,1.6,1.3,2.4,1.3.5,0,.7-.3.7-.6s-.1-.9-.5-1.5-1-1-2-1c-.5,0-1,0-1.4.1.1.5.4,1.2.8,1.7Zm1.4-3.6c.6-.2.8-.4.8-.6,0-.8-.8-1.9-1.6-3.1h-.1c-.4,1.3-.8,2.6-1.2,3.9.8,0,1.5,0,2.1-.2h0Z"/><path id="PATH_203" d="m916.42,225.52c1.1,0,1.9,0,2.5-.2.4-.2.7-.3.7-.6,0-.6-.6-1.8-1.3-3.1.3-.5.6-1,1-1.4h.1c.6,1,1.3,2.6,1.3,3.9,0,1-.4,1.7-.9,2.4-.6.6-1.5.8-3.4.8h-.2c-.7,0-.9-.5-.9-.9,0-.3.2-.8.9-.8h.2v-.1h0Zm2.4,4c.5.4,1,.8,1.5,1.4-.3.5-.6.9-1.1,1.2-.5-.5-1-.9-1.5-1.3.4-.4.8-.9,1.1-1.3h0Z"/></g><path id="_405" class="cls-1" d="m533.42,290.23l5,79.9,14,59.6,46.6,30.4,13.8-7.5,8.6-13c12.37-1.6,24.73-3.2,37.1-4.8,1.7-2.83,3.4-5.67,5.1-8.5l-1.7-13.31-25.4-42.89-9.7-25.1,9.2-14.8,3.5-5.6c-10.6-5.79-21.21-11.57-31.81-17.36,2.7-8.61,5.41-17.23,8.11-25.84l-5.6-10.2-24.4,8.6-52.4,10.4Z"/><g id="G_205"><path id="PATH_206" d="m557.52,346.92c1,2,1.6,3.9,1.6,6.2,0,1.5-.5,3.2-1.1,3.9-1.3,1.4-3.3,2.3-5,2.3-2.8,0-4.6-1.9-4.6-4.6,0-1.9.6-3.3,1.3-4.4l.6.3c-.5,1-.8,2.1-.8,2.8,0,1.3.4,2.1,1,2.6.7.6,1.7,1,2.9,1s2.7-.6,3.7-1.3c.7-.5,1-1,1-1.3,0-1-.2-1.9-.5-2.7-.4-1.2-.8-2.2-1.3-3,.4-.6.7-1.3,1.2-1.9v.1h0Zm-4.2-4.9c.6.5,1.2,1,1.8,1.6-.3.5-.7,1-1.3,1.5-.6-.6-1.2-1-1.8-1.6.5-.5.9-1,1.3-1.5Z"/><path id="PATH_207" d="m565.82,355.73h-.2c-1.2,0-2-.2-2.6-.9-.9-.9-.9-2-.9-4.2,0-2.9-.2-5.9-.4-9.1.5-.6,1-1.1,1.4-1.4l.1.1c.2,3.3.2,7.2.2,11v.9c0,1,.5,1.4,1.1,1.6.4.1.8.2,1,.2h.2v1.8h.1Z"/><path id="PATH_208" d="m566.12,353.73c1.2,0,2.4-.5,2.6-1.3l.4-1.6,1-.8.1.1c-.2.8-.3,1.4-.3,1.8,0,.5.1,1,.5,1.3.5.4,1.1.6,1.9.6h.3v1.9h-.3c-1.5,0-2.6-.4-3.1-1.5h-.1c-.5,1-1.7,1.5-3,1.5h-.3c-.8,0-1.1-.6-1.1-1s.2-.9,1.1-.9h.3v-.1h0Zm1.7-5.7c-.6-.6-1.2-1.1-1.8-1.6.4-.5.8-1,1.2-1.4.6.5,1.1,1,1.7,1.6-.4.6-.7,1-1.1,1.4h0Zm2.9-.2c-.6-.6-1.2-1.1-1.8-1.6.4-.5.8-1,1.2-1.4.6.5,1.1,1,1.7,1.6-.4.6-.7,1-1.1,1.4h0Z"/><path id="PATH_209" d="m588.12,355.73h-.4c-1.9,0-2.7-.6-3.1-1.4h-.1c-.8,1-1.7,1.4-2.6,1.4-.7,0-1.4-.2-1.6-1.3h-.1c-.7.7-1.5,1.3-2.6,1.3-.8,0-1.4-.4-1.5-1.3h-.1c-.9,1.1-2.2,1.3-3.2,1.3h-.3c-.8,0-1.1-.6-1.1-1s.2-.9,1.1-.9h.5c1.4,0,2.4-.4,3.2-1.4l.8-1.2,1.2-.4.1.1c-.6,1-1,1.7-1,2.2s.3.8.8.8c.4,0,.9-.2,1.3-.5.4-.3.8-.8,1-1.3l.4-.9,1.2-.5.1.1c-.5,1.2-.6,1.7-.6,2.3,0,.4.3.9.8.9s.8-.2,1-.3c.5-.3.7-.8.9-1.5.1-.2.2-.5.3-1.2l1.2-.8h.1c-.2.7-.4,1.5-.4,2.1,0,1.2,1,1.6,2.5,1.6h.3v1.8h-.1Z"/><path id="PATH_210" d="m588.52,353.73c1.6,0,2.1-.8,2.6-2.2.6-1.9,1.8-2.9,2.8-2.9.7,0,1.3.3,1.8,1,.4.5.7,1.1,1.5,2.8.3.7,1.1,1.2,2.4,1.2h.3v1.9h-.3c-.9,0-1.7-.3-2.3-1.3h-.1c-.1.5-.2.9-.5,1.2-.3.3-.7.5-1,.5-1.2,0-3.1-.8-4.3-2.1h-.1c-.4,1-1.4,1.8-3,1.8h-.2c-.8,0-1.1-.6-1.1-1s.2-.9,1.1-.9h.4,0Zm5.1-.2c.7.4,1.6.7,2.1.7.3,0,.6,0,.6-.4,0-.6-.4-1.4-.8-2-.6-.9-1.3-1.4-1.9-1.4-.8,0-1.5.6-1.7,1.4.1.5,1.1,1.3,1.7,1.7h0Z"/><path id="PATH_211" d="m600.82,353.73c2.5,0,5-.9,8.1-2.7v-.1c-1.8-.7-3.4-1.1-4.8-1.1-.9,0-1.5.3-1.9.8l.2.8-.5,1.4h-.2l-.7-2c.1-1.7,1.5-2.7,3.3-2.7,1,0,2.6.4,5,1.3.7.3,1.6.5,2.6.5h1.2l-.8,1.6c-1.3,0-2.1.2-2.6.6l-2.5,1.6c-2,1.3-4.2,2-6.6,2h-.8c-.8,0-1.1-.6-1.1-1s.2-.9,1.1-.9h1v-.1h0Zm4,6.6c-.6-.6-1.2-1.1-1.8-1.6.4-.5.8-1,1.2-1.4.6.5,1.1,1,1.7,1.6-.4.6-.7,1-1.1,1.4h0Zm2.1,3c-.6-.6-1.2-1.1-1.8-1.6.4-.5.8-1,1.2-1.4.6.5,1.1,1,1.7,1.6-.4.6-.7,1-1.1,1.4h0Zm.8-3.2c-.6-.6-1.2-1.1-1.8-1.6.4-.5.8-1,1.2-1.4.6.5,1.1,1,1.7,1.6-.4.6-.7,1-1.1,1.4h0Z"/></g></svg>