<!--?xml version="1.0" encoding="UTF-8" standalone="no"?-->
<!-- Generator: Adobe Illustrator 16.0.0, SVG Export Plug-In . SVG Version: 6.00 Build 0)  -->

<svg version="1.1" id="Layer_1" x="0px" y="0px" width="100%" height="100%" viewBox="0 0 620.08 481" enable-background="new 0 0 620.08 481" xml:space="preserve" sodipodi:docname="qom.svg" inkscape:version="1.1.1 (3bf5ae0d25, 2021-09-20)" xmlns:inkscape="http://www.inkscape.org/namespaces/inkscape" xmlns:sodipodi="http://sodipodi.sourceforge.net/DTD/sodipodi-0.dtd" xmlns="http://www.w3.org/2000/svg" xmlns:svg="http://www.w3.org/2000/svg"><defs id="defs109">
	
	
	
	
	
	
	

		
		
		
		
		
		
	</defs><sodipodi:namedview id="namedview107" pagecolor="#ffffff" bordercolor="#666666" borderopacity="1.0" inkscape:pageshadow="2" inkscape:pageopacity="0.0" inkscape:pagecheckerboard="0" showgrid="false" inkscape:zoom="0.56756757" inkscape:cx="32.595238" inkscape:cy="67.833333" inkscape:window-width="1366" inkscape:window-height="705" inkscape:window-x="-8" inkscape:window-y="-8" inkscape:window-maximized="1" inkscape:current-layer="Layer_1"></sodipodi:namedview>

<path fill="#d9d2a5" stroke="#000000" stroke-width="1.75599" stroke-miterlimit="10" d="m 104.2589,208.37881 c 3.16788,5.34455 5.88397,13.00783 6.61006,19.47353 1.54898,13.71492 -3.96389,30.35374 7.9439,38.705 11.31617,7.9372 20.86822,-5.75861 33.35688,-2.55443 14.43026,3.70105 20.93813,6.68228 30.52783,-9.23034 7.93853,-13.1862 -3.22704,-28.35351 4.62005,-41.24669 6.95428,-11.4344 21.2447,-10.88657 31.87243,-11.65736 7.56742,-0.54783 32.82979,-0.39495 20.56165,-15.84892 -4.14675,-5.21715 -10.47176,-5.14708 -13.76872,-12.44089 -2.54399,-5.65032 -1.55436,-11.03309 -5.4806,-15.63871 -2.94736,-3.45261 -6.17441,-3.91763 -9.90164,-3.94949 -0.25817,2.12763 -0.89282,4.19156 -2.12985,6.02616 -5.08797,7.54225 -16.92046,6.54851 -35.78791,4.31896 -26.43487,-3.12137 -39.64423,3.45899 -44.12444,22.03433 -1.68345,7.15367 -5.37841,12.34534 -10.86976,15.44123 -4.81905,2.70094 -10.46638,3.45262 -16.23203,3.07678 1.1456,1.19122 2.12985,2.35058 2.80215,3.49084 z" id="_x38_34" class="area" title="جعفرآباد" style="fill:#fbd1d1;fill-opacity:1"></path><path fill="#40390c" stroke="#000000" stroke-width="1.75599" stroke-miterlimit="10" d="m 551.61318,104.88944 c -2.45793,-4.36992 -20.10448,-9.663513 -32.99652,-13.536553 -10.42335,-3.11501 -21.18016,-6.35741 -29.60812,-10.10942 -16.24817,-7.20464 -21.02419,-20.42269 -21.54052,-29.22623 -12.66077,-2.92389 -56.22047,-13.42826 -72.74832,-21.82411 -18.96425,-9.63166 -62.97575,-11.35797 -84.91965,5.96245 -20.10448,15.8744 -40.23047,3.91764 -48.8897,-2.88567 -2.90972,0.9173 -5.67422,1.80275 -8.01383,3.18507 -9.74029,5.77135 -30.3611,26.74824 -44.67304,43.69282 -12.3542,14.63222 -3.02804,47.827043 0.97887,61.994253 0.96274,3.35706 1.91472,7.72061 1.4199,11.85483 3.7111,0.0319 6.9489,0.49051 9.90165,3.94949 3.92085,4.60562 2.93661,9.98839 5.48059,15.63871 3.28083,7.30018 9.62197,7.22374 13.76872,12.44726 12.26277,15.46034 -12.98347,15.30109 -20.56164,15.84892 -10.63311,0.77079 -24.9074,0.21659 -31.86706,11.65099 -7.84709,12.88681 3.29696,28.06049 -4.62543,41.24669 -9.58969,15.91899 -16.09757,12.93139 -30.52783,9.23671 -12.48866,-3.20418 -22.05684,10.48526 -33.36225,2.54806 -11.90779,-8.35126 -6.38955,-24.99008 -7.94391,-38.705 -0.73146,-6.4657 -3.44218,-14.12898 -6.61006,-19.47353 -0.67768,-1.13389 -1.67268,-2.29325 -2.77525,-3.48447 -11.585087,-0.74531 -23.519777,-6.0389 -29.468287,-9.05835 -13.85478,-7.03264 -29.38223,-10.54259 -35.99229,-11.81024 l -6.83595,24.48683 c -0.59701,4.58013 -5.71725,42.39331 -10.94506,57.96831 -4.37264,12.98873 -0.89282,29.70399 10.37494,49.73172 9.55205,16.98918 32.53398,16.98918 47.73873,16.98918 20.16902,0 20.16902,21.14888 20.16902,39.8134 0,7.56773 4.533997,14.58126 9.299267,22.01522 5.71725,8.87998 12.21436,18.94481 12.21436,32.13738 0,6.23 2.00077,7.83528 2.65693,8.45955 3.71648,3.0513 11.09565,0.82812 13.40299,-0.19748 l 1.4199,-0.29939 c 0.20976,0 20.94351,-0.14015 33.50209,-6.02616 7.3469,-3.4781 21.44908,-3.57365 35.99767,-2.77101 1.80714,-2.34421 3.7864,-4.5674 6.0776,-6.8288 8.55704,-8.52962 21.85246,-16.79807 22.02995,-32.09278 0.2743,-25.88827 -20.126,-45.77586 -9.47675,-72.47951 5.70111,-14.28186 19.38377,-15.79795 30.72683,-18.67089 10.7353,-2.71368 24.29426,-7.08997 33.82479,0.77079 5.72263,4.72027 6.38955,11.61277 10.42335,17.32679 3.02805,4.268 9.2401,8.14741 13.41913,10.79102 5.00191,3.15323 11.55281,3.28063 15.95773,7.24923 1.6189,1.44602 5.88397,6.56125 8.48712,10.60629 4.16826,-2.42066 7.52439,-4.51006 9.27237,-5.87964 11.39684,-9.00739 33.28158,-10.35149 45.26466,-10.35149 17.60353,0 59.69493,-2.86019 63.98152,-3.15959 7.28236,-2.04482 56.98421,-15.95084 65.10022,-15.95084 5.19554,0 29.66191,-8.84813 45.1571,-14.91888 L 601.471,154.93967 c -9.95005,-8.95643 -44.7806,-41.0301 -49.85782,-50.05023 z" id="_x33_42" class="area" title="قم" style="fill:#fdfad6;fill-opacity:1"></path><path fill="#d9d2a5" stroke="#000000" stroke-width="1.75599" stroke-miterlimit="10" d="m 328.01134,332.38004 c -4.38878,-3.97497 -10.95582,-4.096 -15.95773,-7.24923 -4.17902,-2.64361 -10.40184,-6.52302 -13.41913,-10.79102 -4.04456,-5.71402 -4.70072,-12.60652 -10.42335,-17.32679 -9.53053,-7.85439 -23.09487,-3.4781 -33.82479,-0.77079 -11.32692,2.86656 -25.02572,4.38903 -30.72683,18.67089 -10.64925,26.70365 9.75105,46.59124 9.47675,72.47951 -0.16135,15.29471 -13.47291,23.56316 -22.02995,32.09278 -2.2912,2.2614 -4.28121,4.48458 -6.08298,6.8288 6.41106,0.3631 12.91355,0.89182 18.96426,1.38232 6.9005,0.56057 12.88666,1.05107 16.47406,1.05107 14.50018,0 20.98654,14.89977 26.10678,27.20689 4.79216,-2.47799 13.87629,-7.45944 22.89049,-13.86143 7.95467,-5.64395 7.61045,-10.20498 6.7499,-22.39106 -0.30657,-4.28711 -0.62927,-9.16027 -0.62927,-14.93162 0,-22.51209 2.6408,-38.48841 2.80215,-39.15091 l 0.39262,-2.47798 1.90934,-0.97464 c 7.57817,-3.84119 24.63847,-12.7148 35.80942,-19.19961 -2.60852,-4.02593 -6.8736,-9.14116 -8.48174,-10.58718 z" id="_x33_63" class="area active" title="کهک" style="fill:#e8d0e5;fill-opacity:1"></path><text xml:space="preserve" style="font-style:normal;font-weight:normal;font-size:33.3333px;line-height:1.25;font-family:sans-serif;fill:#000000;fill-opacity:1;stroke:none" x="325.95239" y="209.66666" id="text10742" class="area" title=""><tspan sodipodi:role="line" id="tspan10740" x="325.95239" y="209.66666" style="font-style:normal;font-variant:normal;font-weight:normal;font-stretch:normal;font-size:33.3333px;font-family:'B Yekan';-inkscape-font-specification:'B Yekan'">قم</tspan></text><text xml:space="preserve" style="font-style:normal;font-weight:normal;font-size:33.3333px;line-height:1.25;font-family:sans-serif;fill:#000000;fill-opacity:1;stroke:none" x="237.04204" y="348.39938" id="text10742-6" class="area" title=""><tspan sodipodi:role="line" id="tspan10740-2" x="237.04204" y="348.39938" style="font-style:normal;font-variant:normal;font-weight:normal;font-stretch:normal;font-size:33.3333px;font-family:'B Yekan';-inkscape-font-specification:'B Yekan'">کهک</tspan></text><text xml:space="preserve" style="font-style:normal;font-weight:normal;font-size:30.6667px;line-height:1.25;font-family:sans-serif;fill:#000000;fill-opacity:1;stroke:none" x="-43.787724" y="268.34235" id="text10742-6-5" transform="rotate(-36.163815)" class="area" title=""><tspan sodipodi:role="line" id="tspan10740-2-5" x="-43.787724" y="268.34235" style="font-style:normal;font-variant:normal;font-weight:normal;font-stretch:normal;font-size:30.6667px;font-family:'B Yekan';-inkscape-font-specification:'B Yekan'">جعفر آباد</tspan></text></svg>
