



    



<svg version="1.1" id="Layer_1" xmlns="http://www.w3.org/2000/svg" xmlns:xlink="http://www.w3.org/1999/xlink" x="0px" y="0px" viewBox="0 0 563.8 386" style="enable-background:new 0 0 563.8 386;" xml:space="preserve" width="100%" height="100%">
<style type="text/css">
	.st0{fill:#FBD0D1;stroke:#010101;stroke-width:0.2;stroke-miterlimit:10;}
	.st1{fill:#DBECCB;stroke:#010101;stroke-width:0.2;stroke-miterlimit:10;}
	.st2{fill:#FDFAD4;stroke:#010101;stroke-width:0.2;stroke-miterlimit:10;}
	.st3{fill:#E8D0E5;stroke:#010101;stroke-width:0.2;stroke-miterlimit:10;}
	.st4{fill:none;stroke:#020202;stroke-width:0.5;stroke-miterlimit:10;}
</style>

	<path class="st0 area" d="M397.4,80.9c-4.5,9.7,20.2,30,0.8,37.5c-8.2,3-24,9-19.5,16.5c12,24,39.7,8.2,57-6c3-2.2,8.2,0,12,2.2
		c9.7,6,20.2-0.7,30.7,2.2c5.2,0.8,12.7,0,16.5,5.2c2.2,2.2-3,4.5-3.7,6.7c-2.2,5.2,3.7,7.5,8.2,6.7c7.5-0.7,14.2-9,20.2-3
		c1.6,1.2,3.5,2.2,5.3,2.9l1.7-4.3l-13.4-17.8l16.1-12.6c0-4.1-0.2-10.3-0.8-12c-0.3-0.8-1.7-2-3-3c-2-1.6-4-3.2-4-5.2
		c0-0.4,0-0.9,0-1.4c0.1-1.6,0.2-4-0.6-4.8c-0.1-0.1-0.3-0.3-0.8-0.3c-1.2,0-1.3,0.1-1.9,0.7c-0.7,0.7-1.7,1.7-4.6,2.7l-1,0.3
		c-4.5,1.5-6.8,2.3-15.1,1.4c-9.1-0.9-15.4-8-15.6-8.3l-0.2-0.2l-0.1-0.3c0-0.1-1.7-6.6-4.9-9.8c-3.6-3.6-7.1-11.4-7.2-11.7
		l-0.1-0.2l-1.3-4.7c-5.8,2.5-14,6.2-15.6,7.8c-2,2-5.3,3.6-7.7,2.6c-0.9-0.4-2.4-1.4-2.4-4.4c0-0.8,0-1.7,0-2.6
		c-0.1-5-0.3-10.7,2.9-14.7c2.8-3.5,4.1-7.3,4.1-12.2c0-5.6-1.3-9.1-2.2-9.1h-9l-0.9-15.6h-2.1c-1,0.3-6.1,1.8-9.2,3.3
		c-1.9,0.9-8,4.3-8,8.4c0,5.8-2.9,10-8.6,12.5c-3.8,1.6-4.2,12.3-3.6,18.6l0,0.5l-0.3,0.4c-0.4,0.4-2,2.4-3.9,4.6
		C402.8,67.3,400.9,73.9,397.4,80.9z" id="_x33_05" title="میامی"></path>
	<path class="st1 area" d="M177.1,211.3c7.5-5.2,13.5-7.5,21-12c6-3,6-11.2,7.5-18c1.4-3.5,6.7-3.7,11.7-5c0.1-6.3,10.3-10.5,13-15.3
		c2.3-4-5.4-7.1-7.6-11.7c-7.7,6.7-17.6,15.4-17.7,15.5l-0.3,0.3l-0.4,0c-0.6,0-14.9,0.9-20,0.9c-4.7,0-9.6,2.3-13.8,6.6
		c-1.3,1.3-2.5,3-3.6,4.7c-2.7,3.9-5.5,7.9-10.3,7.9c-4.5,0-12.9,4.2-16.2,6c4.6,1.4,9.5,2.7,9.6,2.7l2,0.5l-1.3,1.6
		c-0.2,0.2-4.5,5.4-7.2,7.2c6,0.8,12.1,0.1,18.1,1.3C166.7,204.5,171.1,215.8,177.1,211.3z" id="_x33_11" title="مهدی شهر"></path>
	<path class="st2 area" d="M77.5,349.9c4.5-10.5,3.7-20.2,3-31.5c0-3,4.5-6.7,4.5-9.7c0.7-12.7,0-23.2,9.7-33c0.8-1.5,0.8-3.7,0-5.2
		c-3-4.5-9-6-10.5-9c-1.2-4.3,3-8.5,4.6-13.6c-3.8,2.2-10.6,2.9-16.9,1.5c-5.1-1.1-8.5-4-11.2-6.4c-1.7-1.4-3.1-2.7-4.6-3.2
		c-4.3-1.7-8.7-3.5-21.8-10.5c-4.3-2.3-5.7-1.7-6.1-1.3c-1.5,1.4,0.1,7.5,1.8,10.9c2,4,0.9,9.8-2.8,14.4c-3.5,4.4-0.8,10.7,0.1,12.5
		c1.6,3.3,5.9,8.4,9.3,11.8c3.9,3.9,3.9,9.4,3.9,13.9c0,4.5-8.1,13.6-9.7,15.4L19,344.9l12.2,8.1c4.8,3.2,19.1,5,27.6,2.4
		c6.2-1.9,13.8-3.1,18.9-2.6C77.4,351.9,77.2,350.9,77.5,349.9z" id="_x35_36" title="گرمسار"></path>
	<path class="st3 area" d="M124.7,355.9c-0.7-27-1.5-54,0-80.9c0.8-4.5,4.5-10.5,1.5-15.7c-0.7-1.5-5.2-2.2-3-3.7
		c4.5-4.5,9.7-8.2,4.5-12.7c-6.9-5.6-7.5-12.3-8.8-19.2c-2.2,1.5-4.6,2.9-7.1,4.1c-9.2,4.2-18.5,14.3-20.2,17.6
		c-0.5,1-1.5,1.9-2.8,2.6c-1.6,5.1-5.8,9.3-4.6,13.6c1.5,3,7.5,4.5,10.5,9c0.7,1.5,0.7,3.7,0,5.2c-9.7,9.7-9,20.2-9.7,33
		c0,3-4.5,6.7-4.5,9.7c0.8,11.2,1.5,21-3,31.5c-0.3,1-0.1,2,0.2,3c1.5,0.1,2.8,0.4,3.8,0.9c2.2,1.1,9.3,3.7,15,5.8
		c3.2,1.2,6,2.2,7.5,2.8c4,1.6,13.6,8.1,15.5,9.5l4.9-0.1C124.5,366.5,125.1,361.2,124.7,355.9z" id="_x34_60" title="آرادان"></path>
	<path class="st0 area" d="M197.4,359.6c-1.5-7.5-4.5-14.2-6.7-21c-2.2-7.5,0.7-15,0.7-22.5c1.5-24.7,8.2-50.2-3-72.7
		c-0.8-1.5-6.8-3-8.2-6c-3-4.5,2.3-12.7-0.8-17.2c-1.7-2.9-3-5.3-3.5-8.3c-5.4,2.2-9.6-7.5-14.5-7.5c-6-1.2-12.1-0.5-18.1-1.3
		c0,0,0,0,0,0c-1,0.6-2,1.7-3.2,3c-1.8,1.9-3.8,4.1-6.4,5.7c-1.4,0.9-3.3,2.5-5.6,4.4c-2.7,2.3-5.8,4.9-9.2,7.3
		c1.3,6.8,1.9,13.5,8.8,19.2c5.2,4.5,0,8.2-4.5,12.7c-2.3,1.5,2.2,2.2,3,3.7c3,5.2-0.8,11.2-1.5,15.7c-1.5,27-0.7,54,0,80.9
		c0.4,5.3-0.2,10.6-0.3,15.9l71-0.9C196.6,367.1,198.2,363.5,197.4,359.6z" id="_x35_38" title="سرخه"></path>
	<path class="st3 area" d="M262.6,283.2c0.7-12,2.2-24-0.8-36c-2.3-6-12-8.2-14.2-15c-3.7-12.7,5.2-28.5-4.5-37.5
		c-7.5-6.7-21.7-7.5-25.5-16.5c-0.2-0.7-0.3-1.3-0.3-2c-5,1.2-10.3,1.5-11.7,5c-1.5,6.7-1.5,15-7.5,18c-7.5,4.5-13.5,6.7-21,12
		c-0.4,0.3-0.8,0.5-1.3,0.7c0.5,3,1.8,5.4,3.5,8.3c3,4.5-2.2,12.7,0.8,17.2c1.5,3,7.5,4.5,8.2,6c11.2,22.5,4.5,48,3,72.7
		c0,7.5-3,15-0.7,22.5c2.2,6.7,5.2,13.5,6.7,21c0.9,3.9-0.8,7.5-2,11.3l70.4-0.9C266.2,341,262.6,312.4,262.6,283.2z" id="_x35_26" title="سمنان"></path>
	<path class="st2 area" d="M320.3,140.1c-6.5-10-16.2-21-16.4-32.8c-5.7,3.6-15.9,6.9-21.7,6.9c-0.6,0-1.2,0-1.8-0.1
		c-4.6-0.8-25.4-0.1-29.4,0c-2.6,3.7-10.8,6-14.3,6.9c-1.3,0.3-3,2.5-4,5c-0.8,2.2-0.8,3.8-0.4,4.3c3.1,4.7,2.7,9.1-1.1,12.2
		c-1.4,1.1-4.6,3.8-8.3,7c2.2,4.6,9.8,7.7,7.6,11.7c-3,5.2-15,9.7-12.7,17.2c3.7,9,18,9.7,25.5,16.5c9.7,9,0.8,24.7,4.5,37.5
		c2.2,6.7,12,9,14.2,15c3,12,1.5,24,0.8,36c0,29.2,3.7,57.8,3.3,86.9l25.8-0.3l18.2-0.3c0.2-11.3,1.2-22.6-0.8-33.8
		c-3.7-29.2-5.2-58.4-3.7-88.4c0.8-4.5,6.7-7.5,9.7-12c2.2-4.5-3-6.7-5.2-10.5c-0.8-1.5,0-4.5,1.5-5.2c2.2-0.8,6,0.8,6.7-0.8
		C330,194,336,164.1,320.3,140.1z" id="_x35_24" title="دامغان"></path>
	<path class="st1 area active" d="M550.2,229.5c3.4-5-0.1-12.6-3.1-16.1c-3.1-3.7-28-24.9-28.3-25.1l-0.4-0.4l-0.7-17.9l7.2-18.1
		c-1.8-0.7-3.7-1.6-5.3-2.9c-6-6-12.7,2.2-20.2,3c-4.5,0.8-10.5-1.5-8.2-6.7c0.8-2.2,6-4.5,3.7-6.7c-3.7-5.2-11.2-4.5-16.5-5.2
		c-10.5-3-21,3.7-30.7-2.2c-3.7-2.2-9-4.5-12-2.2c-17.2,14.2-45,30-57,6c-4.5-7.5,11.2-13.5,19.5-16.5c19.5-7.5-5.2-27.7-0.8-37.5
		c3.5-6.9,5.3-13.6,4.4-20.1c-2.7,3.1-6.1,6.8-7.7,7.8c-2.6,1.7-14.6,10.3-14.7,10.4l-0.3,0.2h-23c-8.2,0-18.2,3.3-22.3,10.6
		c-2.8,5-7.1,8.6-11.5,9.8c-2.6,0.7-4.9,0.5-6.8-0.7c-1.9-1.1-2.8-0.5-5.7,2.7c-1.1,1.3-2.4,2.7-4.1,4.1c-0.5,0.5-1.2,0.9-1.9,1.4
		c0.2,11.9,9.9,22.8,16.4,32.8c15.7,24,9.7,53.9-2.2,78.7c-0.8,1.5-4.5,0-6.7,0.7c-1.5,0.8-2.2,3.7-1.5,5.2c2.2,3.7,7.5,6,5.2,10.5
		c-3,4.5-9,7.5-9.7,12c-1.5,30,0,59.2,3.7,88.4c2,11.3,1,22.5,0.8,33.8l127.6-2.2c3.8-7,24.5-45.1,27-47.6c1.1-1.1,4.2-4.9,7.4-9
		c4.1-5.1,8.7-10.9,10.9-13.1c3.4-3.4,7-9.7,8.6-12.9c3.1-6.2,9.2-9.7,17.5-10.2c9.8-0.5,14.7-8.3,16.3-10.8
		c0.1-0.2,0.3-0.4,0.4-0.6c1.6-2.5,7.2-5,13.7-5c5.5,0,11.3-1.6,11.3-5c0-1.2-0.4-3.1-0.8-5.4C548.7,241.8,547.2,234,550.2,229.5z" id="_x35_32" title="شاهرود"></path>
	<line class="st4 area" x1="187.8" y1="181.1" x2="162.6" y2="159.8" id="LINE_10" title=""></line>

<g id="G_11" class="area" title="">
	<path d="M119.2,148.7h-0.4c-0.4,0-0.6-0.1-0.8-0.2c0,0.1,0,0.2,0,0.3c0,0.9-0.3,1.8-0.9,2.7c-0.5,0.8-1,1.1-1.3,1.1
		c-0.8,0-1.4,0-2-0.1c-0.2,0-0.3-0.1-0.3-0.1s0.1-0.1,0.3-0.1c0.8-0.2,1.6-0.6,2.4-1.2c0.8-0.7,1.3-1.4,1.3-2.1c0-0.4-0.3-1-1-1.7
		l0.5-0.9c0-0.1,0.1-0.1,0.1-0.1c0,0,0.1,0.1,0.1,0.1c0.3,0.4,0.5,0.7,0.7,0.8c0.3,0.2,0.7,0.4,1.1,0.4h0.3V148.7z" id="PATH_12" class="area" title=""></path>
	<path d="M125.4,148.7h-0.5c-0.4,0-0.8,0.1-1.1,0.2c-0.5,0.2-0.8,0.5-0.8,1c0,0.6,0.4,1.1,1.2,1.6l-0.5,1c-0.9-0.3-1.7-0.8-2.3-1.4
		c-0.8-0.7-1.2-1.6-1.2-2.5h-1.4v-1.2h1.3c0-0.8,0.2-1.6,0.6-2.6c0.4-0.9,0.7-1.3,0.9-1.3c0.2,0,0.5,0.4,0.8,1.3
		c0.3,0.8,0.4,1.3,0.4,1.6c0,1.4-0.7,2.1-2.1,2.1c0.1,0.4,0.3,0.8,0.6,1.2c0.3,0.4,0.7,0.7,1.1,0.9c0-0.1,0-0.3,0-0.4
		c0-0.7,0.2-1.3,0.5-1.8c0.5-0.7,1.1-1.1,2-1.1h0.4V148.7z M122.4,147.1c0-0.2-0.1-0.6-0.3-1.1c-0.2-0.6-0.4-0.8-0.6-0.8
		c-0.1,0-0.3,0.2-0.5,0.7c-0.2,0.5-0.3,1.1-0.3,1.7C121.8,147.5,122.4,147.4,122.4,147.1z" id="PATH_13" class="area" title=""></path>
	<path d="M133.3,146.5c0,0.6-0.1,1.1-0.4,1.5c-0.3,0.4-0.8,0.7-1.3,0.7c-0.7,0-1.1-0.3-1.4-0.8c-0.4,0.6-0.8,0.8-1.4,0.8
		c-0.7,0-1.2-0.3-1.5-0.8c-0.4,0.6-0.9,0.8-1.6,0.8H125v-1.2h0.8c0.7,0,1.2-0.4,1.3-1.2c0-0.2,0.1-0.3,0.2-0.3
		c0.1,0,0.1,0.1,0.2,0.3c0.1,0.8,0.5,1.2,1.3,1.2c0.4,0,0.8-0.1,1-0.3c0.1-0.2,0.2-0.4,0.3-0.8c0-0.2,0.1-0.3,0.2-0.3
		c0.1,0,0.1,0.1,0.2,0.3c0.1,0.8,0.5,1.2,1.2,1.2c0.8,0,1.1-0.2,1.1-0.5c0-0.3-0.2-0.7-0.6-1.1l0.5-0.9c0.1-0.1,0.1-0.2,0.2-0.2
		s0.1,0.1,0.2,0.2C133.2,145.6,133.3,146.1,133.3,146.5z M129.9,142.9l-0.7,0.7l-0.7-0.7l0.7-0.7L129.9,142.9z M130.8,141.3
		l-0.7,0.7l-0.7-0.7l0.7-0.7L130.8,141.3z M131.7,142.9l-0.7,0.7l-0.7-0.7l0.7-0.7L131.7,142.9z" id="PATH_14" class="area" title=""></path>
	<path d="M147.6,145c0,0.2,0,0.3,0,0.3c0,0-0.1,0-0.3-0.1c-0.3-0.2-0.7-0.3-1.2-0.3c-0.7,0-1.3,0.3-1.8,0.8
		c-0.5,0.5-0.7,0.8-0.7,1.1c0,0.3,0.5,0.6,1.4,0.7c1,0.2,1.6,0.4,1.8,0.7c0,0.1,0.1,0.2,0.1,0.3c0,0.5-0.2,1.1-0.5,1.7
		c-0.2,0.4-0.7,0.7-1.5,1c-1,0.4-2,0.6-3.3,0.6c-0.9,0-1.6-0.2-2.2-0.7c-0.6-0.5-0.9-1.2-0.9-2c0-0.9,0.3-1.8,0.9-2.6
		c0.1-0.1,0.2-0.2,0.3-0.2c0.1,0,0.1,0,0.1,0.1c0,0.1,0,0.1-0.1,0.3c-0.4,0.7-0.6,1.4-0.6,2c0,0.5,0.2,0.9,0.5,1.2
		c0.5,0.5,1.2,0.7,2.1,0.7c0.8,0,1.7-0.1,2.6-0.3c1.3-0.3,2-0.7,2-1.2c0-0.2-0.6-0.4-1.9-0.7c-0.5-0.1-0.8-0.2-1-0.3
		c-0.2-0.1-0.4-0.4-0.4-0.7c0-0.7,0.3-1.4,1-2.3c0.7-0.9,1.5-1.4,2.2-1.4C146.9,143.8,147.4,144.2,147.6,145z" id="PATH_15" class="area" title=""></path>
	<path d="M155.4,148.7H155c-0.4,0-0.7-0.1-1-0.4c-0.2-0.2-0.4-0.4-0.6-0.8c-0.2,0.4-0.5,0.7-0.8,0.9c-0.4,0.2-0.9,0.3-1.7,0.3
		c-1.4,0-2.1-0.5-2.1-1.5c0-0.3,0.1-0.7,0.3-1c0.1-0.1,0.1-0.2,0.2-0.2c0.1,0,0.1,0.1,0.1,0.2c0,0.1,0,0.1,0,0.3c0,0.1,0,0.2,0,0.3
		c0,0.6,0.5,0.9,1.5,0.9c1.4,0,2.1-0.3,2.1-0.8c0-0.3-0.4-1.4-1.2-3.3l0.4-0.8c0.1-0.1,0.1-0.2,0.1-0.2c0,0,0.1,0.1,0.1,0.2
		c0.3,0.8,0.8,2,1.4,3.6c0.3,0.8,0.7,1.2,1.3,1.2h0.3V148.7z" id="PATH_16" class="area" title=""></path>
	<path d="M161.6,148.7h-0.5c-0.4,0-0.8,0.1-1.1,0.2c-0.5,0.2-0.8,0.5-0.8,1c0,0.6,0.4,1.1,1.2,1.6l-0.5,1c-0.9-0.3-1.7-0.8-2.3-1.4
		c-0.8-0.7-1.2-1.6-1.2-2.5H155v-1.2h1.3c0-0.8,0.2-1.6,0.6-2.6c0.4-0.9,0.7-1.3,0.9-1.3c0.2,0,0.5,0.4,0.8,1.3
		c0.3,0.8,0.4,1.3,0.4,1.6c0,1.4-0.7,2.1-2.1,2.1c0.1,0.4,0.3,0.8,0.6,1.2c0.3,0.4,0.7,0.7,1.1,0.9c0-0.1,0-0.3,0-0.4
		c0-0.7,0.2-1.3,0.5-1.8c0.5-0.7,1.1-1.1,2-1.1h0.4V148.7z M158.6,147.1c0-0.2-0.1-0.6-0.3-1.1c-0.2-0.6-0.4-0.8-0.6-0.8
		c-0.1,0-0.3,0.2-0.5,0.7c-0.2,0.5-0.3,1.1-0.3,1.7C158,147.5,158.6,147.4,158.6,147.1z" id="PATH_17" class="area" title=""></path>
	<path d="M166.6,146.7c0,0.5,0,0.9-0.2,1.3c-0.2,0.5-0.5,0.8-0.8,0.8c-0.5,0-1.3-0.3-2.3-1c-0.3,0.4-0.5,0.6-0.6,0.7
		c-0.3,0.2-0.6,0.3-1,0.3h-0.5v-1.2h0.7c0.4,0,0.8-0.2,1.2-0.7c0.2-0.2,0.5-0.7,0.9-1.3c0.3-0.5,0.7-0.7,1-0.7
		c0.5,0,0.9,0.2,1.2,0.7C166.4,145.9,166.6,146.3,166.6,146.7z M166,147.4c0-0.3-0.1-0.6-0.3-1c-0.2-0.4-0.5-0.6-0.8-0.6
		c-0.3,0-0.6,0.3-1,0.9c0.2,0.2,0.5,0.4,0.9,0.6c0.4,0.2,0.8,0.3,1,0.3C165.9,147.7,166,147.6,166,147.4z" id="PATH_18" class="area" title=""></path>
</g>
<g id="G_19" class="area" title="">
	<path d="M47.2,283c0,1-0.3,1.9-0.9,2.8c-0.5,0.7-1,1.1-1.3,1.1c-0.8,0-1.4,0-2-0.1c-0.2,0-0.3-0.1-0.3-0.1s0.1-0.1,0.3-0.1
		c0.8-0.2,1.6-0.6,2.4-1.2c0.8-0.7,1.3-1.4,1.3-2.1c0-0.4-0.3-1-1-1.7l0.5-0.9c0-0.1,0.1-0.1,0.1-0.1c0,0,0.1,0.1,0.1,0.1
		c0.2,0.3,0.5,0.7,0.6,1.2C47.1,282.2,47.2,282.7,47.2,283z" id="PATH_20" class="area" title=""></path>
	<path d="M51.2,282.9h-0.7c-0.7,0-1.3-0.3-1.5-0.9c-0.2-0.4-0.3-1.1-0.3-1.9v-1.9c0-0.9-0.1-2.2-0.2-3.9l0.6-0.7
		c0.1-0.1,0.2-0.1,0.2,0c0.1,0.9,0.2,2.2,0.2,3.9v2.9c0,0.8,0.4,1.2,1.2,1.2h0.5V282.9z" id="PATH_21" class="area" title=""></path>
	<path d="M60.4,282.9h-0.6c-0.7,0-1.1-0.3-1.4-0.8c-0.2,0.6-0.7,0.8-1.3,0.8c-0.6,0-1-0.3-1.3-0.8c-0.3,0.6-0.7,0.8-1.3,0.8
		c-0.7,0-1.2-0.3-1.5-0.8c-0.4,0.6-0.9,0.8-1.6,0.8h-0.7v-1.2h0.8c0.7,0,1.2-0.4,1.3-1.2c0-0.2,0.1-0.3,0.2-0.3
		c0.1,0,0.1,0.1,0.2,0.3c0.1,0.8,0.5,1.2,1.3,1.2c0.7,0,1.2-0.4,1.2-1.2c0-0.2,0.1-0.3,0.2-0.3c0.1,0,0.2,0.1,0.2,0.3
		c0.1,0.8,0.5,1.2,1,1.2c0.7,0,1.2-0.4,1.2-1.2c0-0.2,0.1-0.3,0.2-0.3c0.1,0,0.2,0.1,0.2,0.3c0.1,0.8,0.5,1.2,1.2,1.2h0.6V282.9z" id="PATH_22" class="area" title=""></path>
	<path d="M65.4,280.9c0,0.5,0,0.9-0.2,1.3c-0.2,0.5-0.5,0.8-0.8,0.8c-0.5,0-1.3-0.3-2.3-1c-0.3,0.4-0.5,0.6-0.6,0.7
		c-0.3,0.2-0.6,0.3-1,0.3H60v-1.2h0.7c0.4,0,0.8-0.2,1.2-0.7c0.2-0.2,0.5-0.7,0.9-1.3c0.3-0.5,0.7-0.7,1-0.7c0.5,0,0.9,0.2,1.2,0.7
		C65.2,280.2,65.3,280.6,65.4,280.9z M64.8,281.7c0-0.3-0.1-0.6-0.3-1c-0.2-0.4-0.5-0.6-0.8-0.6c-0.3,0-0.6,0.3-1,0.9
		c0.2,0.2,0.5,0.4,0.9,0.6c0.4,0.2,0.8,0.3,1,0.3C64.7,281.9,64.8,281.8,64.8,281.7z" id="PATH_23" class="area" title=""></path>
	<path d="M71.6,282.9h-0.4c-0.4,0-0.6-0.1-0.8-0.2c0,0.1,0,0.2,0,0.3c0,0.9-0.3,1.8-0.9,2.7c-0.5,0.8-1,1.1-1.3,1.1
		c-0.8,0-1.4,0-2-0.1c-0.2,0-0.3-0.1-0.3-0.1s0.1-0.1,0.3-0.1c0.8-0.2,1.6-0.6,2.4-1.2c0.8-0.7,1.3-1.4,1.3-2.1c0-0.4-0.3-1-1-1.7
		l0.5-0.9c0-0.1,0.1-0.1,0.1-0.1c0,0,0.1,0.1,0.1,0.1c0.3,0.4,0.5,0.7,0.7,0.8c0.3,0.2,0.7,0.4,1.1,0.4h0.3V282.9z" id="PATH_24" class="area" title=""></path>
	<path d="M77.6,274.8c0,0.2-0.1,0.5-0.3,1.1c-1.2,0.3-2.7,0.8-4.4,1.3c1.2,1.2,1.9,2.2,2,2.9c0.1,0.5,0,1-0.2,1.5
		c-0.2,0.5-0.6,0.8-1.1,1c-0.4,0.2-1.1,0.2-2,0.2h-0.4v-1.2h0.3c1.9,0,2.9-0.3,2.9-1c0-0.5-0.5-1.3-1.6-2.3l-0.1,0.3
		c-0.1-0.1-0.3-0.3-0.5-0.6c-0.3-0.3-0.4-0.5-0.4-0.6c0-0.3,0.1-0.6,0.4-0.9c0.1-0.1,0.7-0.3,2-0.7
		C75.4,275.4,76.6,275.1,77.6,274.8z M77.4,273.3l-0.2,0.7l-4.9,1.6l0.2-0.7L77.4,273.3z" id="PATH_25" class="area" title=""></path>
</g>
<g id="G_26" class="area" title="">
	<path d="M95.6,318.9c0.1,0.3,0.1,0.6,0.1,0.9c0,0.4-0.1,0.7-0.2,1.1c-0.3,0.7-0.8,1.3-1.8,1.7c-0.8,0.3-1.6,0.5-2.5,0.5
		c-0.9,0-1.6-0.2-2.2-0.6c-0.6-0.5-0.9-1.1-0.9-2c0-0.5,0.1-0.9,0.3-1.5c0.2-0.4,0.3-0.7,0.5-0.9c0.1-0.1,0.2-0.1,0.2-0.1
		c0.1,0,0.1,0,0.1,0.1c0,0,0,0.1,0,0.2c-0.3,0.6-0.4,1.2-0.4,1.7c0,0.5,0.2,0.9,0.5,1.3c0.4,0.5,1.1,0.7,2,0.7c1,0,1.9-0.2,2.6-0.5
		c0.6-0.3,1-0.6,1.2-1c0.1-0.1,0.1-0.3,0.1-0.4c0-0.3-0.1-0.6-0.2-1c-0.1-0.3-0.4-0.8-0.9-1.6l0.4-0.8c0.1-0.1,0.1-0.2,0.1-0.2
		s0.1,0,0.1,0.1C95.2,317.3,95.4,318.1,95.6,318.9z M92.6,314.5l-0.8,0.8l-0.8-0.8l0.8-0.8L92.6,314.5z" id="PATH_27" class="area" title=""></path>
	<path d="M98,317.8c0,0.4-0.1,0.8-0.3,1.1c-0.1,0.2-0.2,0.3-0.2,0.3c0,0-0.1-0.1-0.1-0.4c0-1.2-0.2-4-0.6-8.5l0.8-0.8
		c0.1-0.1,0.1-0.1,0.1-0.1c0,0,0,0.1,0,0.2C98,310.9,98,313.6,98,317.8z" id="PATH_28" class="area" title=""></path>
	<path d="M104.1,316.9c0,1.4-0.9,2.1-2.8,2.1c-0.7,0-1.2-0.1-1.5-0.3c-0.4-0.2-0.6-0.7-0.6-1.3c0-0.3,0.1-0.6,0.2-0.9
		c0.1-0.1,0.1-0.2,0.2-0.2c0.1,0,0.1,0.1,0.1,0.3c0,0.1,0,0.2,0,0.3c0,0.4,0.2,0.7,0.6,0.8c0.2,0.1,0.6,0.1,1.1,0.1
		c1.5,0,2.2-0.2,2.2-0.7c0-0.7-0.9-1.7-2.6-2.9l0.3-1c0-0.1,0.1-0.1,0.1-0.1c0,0,0.1,0,0.2,0.1C103.3,314.5,104.1,315.8,104.1,316.9
		z" id="PATH_29" class="area" title=""></path>
	<path d="M106.5,317.8c0,0.4-0.1,0.8-0.3,1.1c-0.1,0.2-0.2,0.3-0.2,0.3c0,0-0.1-0.1-0.1-0.4c0-1.2-0.2-4-0.6-8.5l0.8-0.8
		c0.1-0.1,0.1-0.1,0.1-0.1c0,0,0,0.1,0,0.2C106.4,310.9,106.5,313.6,106.5,317.8z" id="PATH_30" class="area" title=""></path>
	<path d="M111.5,319.1c0,1-0.3,1.9-0.9,2.8c-0.5,0.7-1,1.1-1.3,1.1c-0.8,0-1.4,0-2-0.1c-0.2,0-0.3-0.1-0.3-0.1s0.1-0.1,0.3-0.1
		c0.8-0.2,1.6-0.6,2.4-1.2c0.8-0.7,1.3-1.4,1.3-2.1c0-0.4-0.3-1-1-1.7l0.5-0.9c0-0.1,0.1-0.1,0.1-0.1c0,0,0.1,0.1,0.1,0.1
		c0.2,0.3,0.5,0.7,0.6,1.2C111.4,318.3,111.5,318.7,111.5,319.1z" id="PATH_31" class="area" title=""></path>
	<path d="M115.6,308.3c-0.4,0.4-1,0.5-1.6,0.5c-0.1,0-0.2,0-0.4,0s-0.3,0-0.4,0c-0.1,0-0.2,0.1-0.3,0.2s-0.2,0.2-0.2,0.2
		c-0.1,0-0.1-0.1-0.1-0.2c0-0.1,0.1-0.3,0.2-0.5c0.1-0.3,0.2-0.4,0.3-0.4c0.1,0,0.3,0,0.6,0.1s0.5,0.1,0.6,0.1c0.6,0,1,0,1.3-0.1
		c0.2,0,0.3-0.1,0.3-0.1c0,0,0.1,0,0.1,0C115.8,308.1,115.7,308.2,115.6,308.3z M114.9,317.8c0,0.4-0.1,0.8-0.3,1.1
		c-0.1,0.2-0.2,0.3-0.2,0.3c0,0-0.1-0.1-0.1-0.4c0-1.2-0.2-4-0.6-8.5l0.8-0.8c0.1-0.1,0.1-0.1,0.1-0.1c0,0,0,0.1,0,0.2
		C114.9,310.9,114.9,313.6,114.9,317.8z" id="PATH_32" class="area" title=""></path>
</g>
<g id="G_33" class="area" title="">
	<path d="M148.4,300.5h-0.7c-0.9,0-1.4-0.5-1.6-1.6c-0.5,0.5-0.7,0.7-0.8,0.7h-0.9c-0.3,0-0.6,0-0.9-0.1c-0.4-0.1-0.6-0.3-0.6-0.5
		c0-0.8,0.3-1.4,0.8-1.8c0.4-0.3,1-0.6,1.8-1l-0.2-1l0.7-0.8c0,0.1,0.3,1.2,0.7,3.3c0.1,0.6,0.3,1.1,0.4,1.3
		c0.2,0.3,0.4,0.4,0.8,0.4h0.7V300.5z M146,298.5l-0.3-1.6c-0.3,0.1-0.7,0.3-1.2,0.5c-0.6,0.3-1,0.6-1,0.7c0,0.2,0.2,0.3,0.7,0.4
		c0.3,0.1,0.6,0.1,0.9,0.1C145.4,298.5,145.7,298.5,146,298.5z" id="PATH_34" class="area" title=""></path>
	<path d="M156.3,297.6l-0.4,0.8c-0.7,0-1.3,0-1.6,0.1c-0.4,0.2-1,0.4-1.8,0.8c-0.8,0.4-1.4,0.7-1.8,0.8c-0.6,0.2-1.3,0.3-1.9,0.3
		H148v-1.2h0.8c0.9,0,1.7-0.2,2.4-0.5l2.3-1c-0.4-0.1-1-0.3-1.8-0.6c-0.7-0.3-1.1-0.4-1.3-0.4c-0.4,0-0.8,0.2-1.2,0.5
		c-0.1,0.1-0.1,0.1-0.2,0.1c-0.1,0-0.1,0-0.1-0.1c0,0,0-0.1,0-0.1c0.3-1,0.9-1.4,1.7-1.4c0.3,0,0.7,0.1,1.1,0.3
		c0.8,0.4,1.4,0.6,1.8,0.8c0.7,0.2,1.5,0.4,2.4,0.4c0.2,0,0.3,0,0.3,0.1C156.4,297.4,156.3,297.5,156.3,297.6z M153.4,293l-0.8,0.8
		l-0.8-0.8l0.8-0.8L153.4,293z" id="PATH_35" class="area" title=""></path>
	<path d="M162.6,300.5h-0.4c-0.4,0-0.6-0.1-0.8-0.2c0,0.1,0,0.2,0,0.3c0,0.9-0.3,1.8-0.9,2.7c-0.5,0.8-1,1.1-1.3,1.1
		c-0.8,0-1.4,0-2-0.1c-0.2,0-0.3-0.1-0.3-0.1s0.1-0.1,0.3-0.1c0.8-0.2,1.6-0.6,2.4-1.2c0.8-0.7,1.3-1.4,1.3-2.1c0-0.4-0.3-1-1-1.7
		l0.5-0.9c0-0.1,0.1-0.1,0.1-0.1c0,0,0.1,0.1,0.1,0.1c0.3,0.4,0.5,0.7,0.7,0.8c0.3,0.2,0.7,0.4,1.1,0.4h0.3V300.5z" id="PATH_36" class="area" title=""></path>
	<path d="M170.5,298.4c0,0.6-0.1,1.1-0.4,1.5c-0.3,0.4-0.8,0.7-1.3,0.7c-0.7,0-1.1-0.3-1.4-0.8c-0.4,0.6-0.8,0.8-1.4,0.8
		c-0.7,0-1.2-0.3-1.5-0.8c-0.4,0.6-0.9,0.8-1.6,0.8h-0.7v-1.2h0.8c0.7,0,1.2-0.4,1.3-1.2c0-0.2,0.1-0.3,0.2-0.3
		c0.1,0,0.1,0.1,0.2,0.3c0.1,0.8,0.5,1.2,1.3,1.2c0.4,0,0.8-0.1,1-0.3c0.1-0.2,0.2-0.4,0.3-0.8c0-0.2,0.1-0.3,0.2-0.3
		c0.1,0,0.1,0.1,0.2,0.3c0.1,0.8,0.5,1.2,1.2,1.2c0.8,0,1.1-0.2,1.1-0.5c0-0.3-0.2-0.7-0.6-1.1l0.5-0.9c0.1-0.1,0.1-0.2,0.2-0.2
		s0.1,0.1,0.2,0.2C170.3,297.4,170.5,297.9,170.5,298.4z" id="PATH_37" class="area" title=""></path>
</g>
<g id="G_38" class="area" title="">
	<path d="M219.4,292c0.1,0.3,0.1,0.6,0.1,0.9c0,0.4-0.1,0.7-0.2,1.1c-0.3,0.7-0.8,1.3-1.8,1.7c-0.8,0.3-1.6,0.5-2.5,0.5
		c-0.9,0-1.6-0.2-2.2-0.6c-0.6-0.5-0.9-1.1-0.9-2c0-0.5,0.1-0.9,0.3-1.5c0.2-0.4,0.3-0.7,0.5-0.9c0.1-0.1,0.2-0.1,0.2-0.1
		c0.1,0,0.1,0,0.1,0.1c0,0,0,0.1,0,0.2c-0.3,0.6-0.4,1.2-0.4,1.7c0,0.5,0.2,0.9,0.5,1.3c0.4,0.5,1.1,0.7,2,0.7c1,0,1.9-0.2,2.6-0.5
		c0.6-0.3,1-0.6,1.2-1c0.1-0.1,0.1-0.3,0.1-0.4c0-0.3-0.1-0.6-0.2-1c-0.1-0.3-0.4-0.8-0.9-1.6l0.4-0.8c0.1-0.1,0.1-0.2,0.1-0.2
		s0.1,0,0.1,0.1C219,290.5,219.3,291.2,219.4,292z M216.5,287.7l-0.8,0.8l-0.8-0.8l0.8-0.8L216.5,287.7z" id="PATH_39" class="area" title=""></path>
	<path d="M223.5,292.2h-0.7c-0.7,0-1.3-0.3-1.5-0.9c-0.2-0.4-0.3-1.1-0.3-1.9v-1.9c0-0.9-0.1-2.2-0.2-3.9l0.6-0.7
		c0.1-0.1,0.2-0.1,0.2,0c0.1,0.9,0.2,2.2,0.2,3.9v2.9c0,0.8,0.4,1.2,1.2,1.2h0.5V292.2z" id="PATH_40" class="area" title=""></path>
	<path d="M228.4,292.2h-0.8c-0.9,0-1.5-0.3-1.9-0.9c-0.3,0.6-1,0.9-2.1,0.9h-0.6V291h0.9c1,0,1.5-0.4,1.6-1.1c0-0.3,0.1-0.5,0.2-0.5
		c0.1,0,0.2,0.2,0.2,0.5c0.1,0.7,0.6,1.1,1.5,1.1h0.9V292.2z M226.4,287l-0.8,0.8l-0.8-0.8l0.8-0.8L226.4,287z" id="PATH_41" class="area" title=""></path>
	<path d="M235.6,292.2h-0.6c-0.5,0-1-0.3-1.4-0.8c-0.3,0.8-0.6,1.2-0.9,1.2c-0.3,0-0.8-0.2-1.4-0.5c-0.5-0.3-0.9-0.6-1.1-0.8
		c-0.5,0.6-1,0.9-1.5,0.9H228V291h0.6c0.5,0,0.9-0.2,1.3-0.6c0.3-0.3,0.6-0.7,1-1.1c0.4-0.4,0.7-0.6,1-0.6c0.4,0,0.7,0.2,1,0.6
		c0.2,0.2,0.4,0.6,0.9,1.1c0.3,0.4,0.7,0.6,1.1,0.6h0.6V292.2z M232.9,291.3c0-0.3-0.1-0.6-0.3-1c-0.2-0.4-0.5-0.6-0.9-0.6
		c-0.3,0-0.7,0.3-1.1,0.8c0.1,0.1,0.4,0.3,0.9,0.6c0.5,0.3,0.9,0.4,1.2,0.4C232.8,291.5,232.9,291.4,232.9,291.3z" id="PATH_42" class="area" title=""></path>
	<path d="M243.5,290c0,0.6-0.1,1.1-0.4,1.5c-0.3,0.4-0.8,0.7-1.3,0.7c-0.7,0-1.1-0.3-1.4-0.8c-0.4,0.6-0.8,0.8-1.4,0.8
		c-0.7,0-1.2-0.3-1.5-0.8c-0.4,0.6-0.9,0.8-1.6,0.8h-0.7V291h0.8c0.7,0,1.2-0.4,1.3-1.2c0-0.2,0.1-0.3,0.2-0.3
		c0.1,0,0.1,0.1,0.2,0.3c0.1,0.8,0.5,1.2,1.3,1.2c0.4,0,0.8-0.1,1-0.3c0.1-0.2,0.2-0.4,0.3-0.8c0-0.2,0.1-0.3,0.2-0.3
		c0.1,0,0.1,0.1,0.2,0.3c0.1,0.8,0.5,1.2,1.2,1.2c0.8,0,1.1-0.2,1.1-0.5c0-0.3-0.2-0.7-0.6-1.1l0.5-0.9c0.1-0.1,0.1-0.2,0.2-0.2
		s0.1,0.1,0.2,0.2C243.3,289.1,243.5,289.6,243.5,290z" id="PATH_43" class="area" title=""></path>
</g>
<g id="G_44" class="area" title="">
	<path d="M267.4,215c0.1,0.3,0.1,0.6,0.1,0.9c0,0.4-0.1,0.7-0.2,1.1c-0.3,0.7-0.8,1.3-1.8,1.7c-0.8,0.3-1.6,0.5-2.5,0.5
		c-0.9,0-1.6-0.2-2.2-0.6c-0.6-0.5-0.9-1.1-0.9-2c0-0.5,0.1-0.9,0.3-1.5c0.2-0.4,0.3-0.7,0.5-0.9c0.1-0.1,0.2-0.1,0.2-0.1
		c0.1,0,0.1,0,0.1,0.1c0,0,0,0.1,0,0.2c-0.3,0.6-0.4,1.2-0.4,1.7c0,0.5,0.2,0.9,0.5,1.3c0.4,0.5,1.1,0.7,2,0.7c1,0,1.9-0.2,2.6-0.5
		c0.6-0.3,1-0.6,1.2-1c0.1-0.1,0.1-0.3,0.1-0.4c0-0.3-0.1-0.6-0.2-1c-0.1-0.3-0.4-0.8-0.9-1.6l0.4-0.8c0.1-0.1,0.1-0.2,0.1-0.2
		s0.1,0,0.1,0.1C267,213.4,267.3,214.2,267.4,215z M264.5,210.7l-0.8,0.8l-0.8-0.8l0.8-0.8L264.5,210.7z" id="PATH_45" class="area" title=""></path>
	<path d="M271.5,215.1h-0.7c-0.7,0-1.3-0.3-1.5-0.9c-0.2-0.4-0.3-1.1-0.3-1.9v-1.9c0-0.9-0.1-2.2-0.2-3.9l0.6-0.7
		c0.1-0.1,0.2-0.1,0.2,0c0.1,0.9,0.2,2.2,0.2,3.9v2.9c0,0.8,0.4,1.2,1.2,1.2h0.5V215.1z" id="PATH_46" class="area" title=""></path>
	<path d="M277.1,215.1h-0.6c-0.8,0-1.5-0.2-2-0.7c0-0.1-0.1-0.1-0.2-0.3l-0.3,0.3c-0.6,0.5-1.3,0.7-2.1,0.7H271V214h1
		c0.7,0,1.2-0.1,1.5-0.4c-0.1-0.2-0.2-0.4-0.4-0.6c-0.2-0.2-0.4-0.4-0.5-0.4c-0.2-0.1-0.3-0.1-0.3-0.2c0,0,0-0.1,0.1-0.2
		c0.3-0.6,0.8-0.9,1.7-0.9c1.1,0,1.7,0.3,1.7,1c0,0.3-0.3,0.7-0.9,1.3c0.1,0.1,0.4,0.3,0.7,0.4c0.3,0.1,0.5,0.1,0.8,0.1h0.8V215.1z
		 M274.9,208.1l-0.8,0.8l-0.8-0.8l0.8-0.8L274.9,208.1z" id="PATH_47" class="area" title=""></path>
	<path d="M282,213.1c0,0.5,0,0.9-0.2,1.3c-0.2,0.5-0.5,0.8-0.8,0.8c-0.5,0-1.3-0.3-2.3-1c-0.3,0.4-0.5,0.6-0.6,0.7
		c-0.3,0.2-0.6,0.3-1,0.3h-0.5V214h0.7c0.4,0,0.8-0.2,1.2-0.7c0.2-0.2,0.5-0.7,0.9-1.3c0.3-0.5,0.7-0.7,1-0.7c0.5,0,0.9,0.2,1.2,0.7
		C281.9,212.4,282,212.8,282,213.1z M281.4,213.9c0-0.3-0.1-0.6-0.3-1c-0.2-0.4-0.5-0.6-0.8-0.6c-0.3,0-0.6,0.3-1,0.9
		c0.2,0.2,0.5,0.4,0.9,0.6c0.4,0.2,0.8,0.3,1,0.3C281.4,214.1,281.4,214.1,281.4,213.9z" id="PATH_48" class="area" title=""></path>
	<path d="M284.4,213.9c0,0.4-0.1,0.8-0.3,1.1c-0.1,0.2-0.2,0.3-0.2,0.3c0,0-0.1-0.1-0.1-0.4c0-1.2-0.2-4-0.6-8.5l0.8-0.8
		c0.1-0.1,0.1-0.1,0.1-0.1c0,0,0,0.1,0,0.2C284.3,207.1,284.4,209.8,284.4,213.9z" id="PATH_49" class="area" title=""></path>
	<path d="M290.5,213.1c0,1.4-0.9,2.1-2.8,2.1c-0.7,0-1.2-0.1-1.5-0.3c-0.4-0.2-0.6-0.7-0.6-1.3c0-0.3,0.1-0.6,0.2-0.9
		c0.1-0.1,0.1-0.2,0.2-0.2c0.1,0,0.1,0.1,0.1,0.3c0,0.1,0,0.2,0,0.3c0,0.4,0.2,0.7,0.6,0.8c0.2,0.1,0.6,0.1,1.1,0.1
		c1.5,0,2.2-0.2,2.2-0.7c0-0.7-0.9-1.7-2.6-2.9l0.3-1c0-0.1,0.1-0.1,0.1-0.1c0,0,0.1,0,0.2,0.1C289.7,210.7,290.5,211.9,290.5,213.1
		z" id="PATH_50" class="area" title=""></path>
</g>
<g id="G_51" class="area" title="">
	<path d="M379.1,248.4c0,1.4-0.9,2.1-2.8,2.1c-0.7,0-1.2-0.1-1.5-0.3c-0.4-0.2-0.6-0.7-0.6-1.3c0-0.3,0.1-0.6,0.2-0.9
		c0.1-0.1,0.1-0.2,0.2-0.2c0.1,0,0.1,0.1,0.1,0.3c0,0.1,0,0.2,0,0.3c0,0.4,0.2,0.7,0.6,0.8c0.2,0.1,0.6,0.1,1.1,0.1
		c1.5,0,2.2-0.2,2.2-0.7c0-0.7-0.9-1.7-2.6-2.9l0.3-1c0-0.1,0.1-0.1,0.1-0.1c0,0,0.1,0,0.2,0.1C378.3,246,379.1,247.3,379.1,248.4z" id="PATH_52" class="area" title=""></path>
	<path d="M384.3,250.1c0,1.5-0.5,2.8-1.5,3.8c-0.3,0.3-0.5,0.5-0.6,0.5c-0.6,0-1.2-0.1-1.9-0.2c-0.3,0-0.4-0.1-0.4-0.1
		c0,0,0.1-0.1,0.4-0.2c0.8-0.2,1.6-0.7,2.3-1.3c0.3-0.3,0.6-0.5,0.8-0.9c0.3-0.4,0.5-0.8,0.5-1.1v-0.3l-1.3,0
		c-0.9,0-1.4-0.4-1.4-1.1c0-0.5,0.1-1,0.4-1.6c0.3-0.6,0.7-1,1.1-1c0.6,0,1.1,0.4,1.4,1.3C384.2,248.6,384.3,249.3,384.3,250.1z
		 M383.6,249.3c0-0.3-0.1-0.6-0.3-0.9c-0.2-0.3-0.5-0.5-0.8-0.5c-0.2,0-0.4,0.1-0.5,0.2s-0.2,0.3-0.2,0.5c0,0.5,0.3,0.7,1,0.7
		C382.9,249.4,383.2,249.3,383.6,249.3z" id="PATH_53" class="area" title=""></path>
	<path d="M390.5,250.5h-0.4c-0.4,0-0.6-0.1-0.8-0.2c0,0.1,0,0.2,0,0.3c0,0.9-0.3,1.8-0.9,2.7c-0.5,0.8-1,1.1-1.3,1.1
		c-0.8,0-1.4,0-2-0.1c-0.2,0-0.3-0.1-0.3-0.1s0.1-0.1,0.3-0.1c0.8-0.2,1.6-0.6,2.4-1.2c0.8-0.7,1.3-1.4,1.3-2.1c0-0.4-0.3-1-1-1.7
		l0.5-0.9c0-0.1,0.1-0.1,0.1-0.1c0,0,0.1,0.1,0.1,0.1c0.3,0.4,0.5,0.7,0.7,0.8c0.3,0.2,0.7,0.4,1.1,0.4h0.3V250.5z" id="PATH_54" class="area" title=""></path>
	<path d="M396.6,248.5c0,0.4-0.1,0.8-0.4,1.2c-0.3,0.5-0.6,0.7-1,0.7c-0.3,0-1-0.2-2.1-0.7c-0.9,0.6-1.7,0.8-2.4,0.8h-0.5v-1.2h0.6
		c0.4,0,0.8,0,1.2-0.1c-0.4-0.3-0.6-0.7-0.6-1.2c0-0.6,0.4-1.3,1.3-2l-0.7-0.3c0.2-0.2,0.5-0.5,0.9-0.9c0.9,0.5,1.7,0.9,2.4,1.5
		C396.1,247.1,396.6,247.8,396.6,248.5z M394,247.7c0-0.3-0.1-0.5-0.2-0.7c-0.1-0.3-0.3-0.4-0.6-0.4c-0.3,0-0.5,0.1-0.8,0.3
		c-0.3,0.2-0.5,0.5-0.5,0.7c0,0.4,0.4,0.8,1.1,1c0.2-0.1,0.4-0.2,0.6-0.3C393.9,248.1,394,247.9,394,247.7z M396.1,248.9
		c0-0.3-0.2-0.6-0.6-1c-0.3-0.3-0.6-0.6-0.9-0.7c0,0.8-0.2,1.4-0.7,1.8c0.8,0.3,1.4,0.4,1.6,0.4
		C395.9,249.3,396.1,249.2,396.1,248.9z" id="PATH_55" class="area" title=""></path>
	<path d="M400.6,250.5h-0.7c-0.7,0-1.3-0.3-1.5-0.9c-0.2-0.4-0.3-1.1-0.3-1.9v-1.9c0-0.9-0.1-2.2-0.2-3.9l0.6-0.7
		c0.1-0.1,0.2-0.1,0.2,0c0.1,0.9,0.2,2.2,0.2,3.9v2.9c0,0.8,0.4,1.2,1.2,1.2h0.5V250.5z" id="PATH_56" class="area" title=""></path>
	<path d="M408.5,248.4c0,0.6-0.1,1.1-0.4,1.5c-0.3,0.4-0.8,0.7-1.3,0.7c-0.7,0-1.1-0.3-1.4-0.8c-0.4,0.6-0.8,0.8-1.4,0.8
		c-0.7,0-1.2-0.3-1.5-0.8c-0.4,0.6-0.9,0.8-1.6,0.8h-0.7v-1.2h0.8c0.7,0,1.2-0.4,1.3-1.2c0-0.2,0.1-0.3,0.2-0.3
		c0.1,0,0.1,0.1,0.2,0.3c0.1,0.8,0.5,1.2,1.3,1.2c0.4,0,0.8-0.1,1-0.3c0.1-0.2,0.2-0.4,0.3-0.8c0-0.2,0.1-0.3,0.2-0.3
		c0.1,0,0.1,0.1,0.2,0.3c0.1,0.8,0.5,1.2,1.2,1.2c0.8,0,1.1-0.2,1.1-0.5c0-0.3-0.2-0.7-0.6-1.1l0.5-0.9c0.1-0.1,0.1-0.2,0.2-0.2
		s0.1,0.1,0.2,0.2C408.3,247.4,408.5,247.9,408.5,248.4z M405.1,244.7l-0.7,0.7l-0.7-0.7l0.7-0.7L405.1,244.7z M406,243.2l-0.7,0.7
		l-0.7-0.7l0.7-0.7L406,243.2z M406.9,244.7l-0.7,0.7l-0.7-0.7l0.7-0.7L406.9,244.7z" id="PATH_57" class="area" title=""></path>
</g>
<g id="G_58" class="area" title="">
	<path d="M439.7,102.5h-2.3c-0.3,0-0.6,0-0.8,0.1c-0.4,0.1-0.5,0.3-0.5,0.5c0,0.1,0.5,0.2,1.4,0.4c1,0.2,1.4,0.4,1.4,0.6
		c0,0.8-0.2,1.4-0.7,1.8c-0.8,0.7-2.1,1-4,1c-2.3,0-3.5-0.9-3.5-2.6c0-0.4,0.1-0.8,0.3-1.3s0.4-0.9,0.6-1.2c0.1-0.1,0.2-0.2,0.3-0.2
		c0.1,0,0.1,0,0.1,0.1c0,0.1,0,0.2-0.1,0.3c-0.3,0.6-0.5,1.2-0.5,1.8c0,0.7,0.3,1.2,1,1.5c0.5,0.3,1.1,0.4,1.9,0.4
		c0.8,0,1.5,0,2.2-0.1c1.2-0.2,1.8-0.4,1.8-0.8c0-0.2-0.3-0.3-0.8-0.4c-0.8-0.1-1.3-0.2-1.5-0.3c-0.5-0.1-0.8-0.4-0.8-0.7
		c0-0.2,0.1-0.5,0.4-0.9c0.2-0.3,0.4-0.5,0.7-0.7c0.5-0.4,1.1-0.6,2-0.6h1.4V102.5z" id="PATH_59" class="area" title=""></path>
	<path d="M444.7,100.5c0,0.5,0,0.9-0.2,1.3c-0.2,0.5-0.5,0.8-0.8,0.8c-0.5,0-1.3-0.3-2.3-1c-0.3,0.4-0.5,0.6-0.6,0.7
		c-0.3,0.2-0.6,0.3-1,0.3h-0.5v-1.2h0.7c0.4,0,0.8-0.2,1.2-0.7c0.2-0.2,0.5-0.7,0.9-1.3c0.3-0.5,0.7-0.7,1-0.7
		c0.5,0,0.9,0.2,1.2,0.7C444.5,99.8,444.6,100.1,444.7,100.5z M444.1,101.2c0-0.3-0.1-0.6-0.3-1c-0.2-0.4-0.5-0.6-0.8-0.6
		c-0.3,0-0.6,0.3-1,0.9c0.2,0.2,0.5,0.4,0.9,0.6c0.4,0.2,0.8,0.3,1,0.3C444,101.5,444.1,101.4,444.1,101.2z" id="PATH_60" class="area" title=""></path>
	<path d="M448.6,102.5h-0.7c-0.7,0-1.3-0.3-1.5-0.9c-0.2-0.4-0.3-1.1-0.3-1.9v-1.9c0-0.9-0.1-2.2-0.2-3.9l0.6-0.7
		c0.1-0.1,0.2-0.1,0.2,0c0.1,0.9,0.2,2.2,0.2,3.9v2.9c0,0.8,0.4,1.2,1.2,1.2h0.5V102.5z" id="PATH_61" class="area" title=""></path>
	<path d="M453.5,102.5h-0.8c-0.9,0-1.5-0.3-1.9-0.9c-0.3,0.6-1,0.9-2.1,0.9h-0.6v-1.2h0.9c1,0,1.5-0.4,1.6-1.1
		c0-0.3,0.1-0.5,0.2-0.5s0.2,0.2,0.2,0.5c0.1,0.7,0.6,1.1,1.5,1.1h0.9V102.5z M450.2,104.7l-0.8,0.8l-0.8-0.8l0.8-0.8L450.2,104.7z
		 M452,104.7l-0.8,0.8l-0.8-0.8l0.8-0.8L452,104.7z" id="PATH_62" class="area" title=""></path>
	<path d="M458.5,100.5c0,0.5,0,0.9-0.2,1.3c-0.2,0.5-0.5,0.8-0.8,0.8c-0.5,0-1.3-0.3-2.3-1c-0.3,0.4-0.5,0.6-0.6,0.7
		c-0.3,0.2-0.6,0.3-1,0.3h-0.5v-1.2h0.7c0.4,0,0.8-0.2,1.2-0.7c0.2-0.2,0.5-0.7,0.9-1.3c0.3-0.5,0.7-0.7,1-0.7
		c0.5,0,0.9,0.2,1.2,0.7C458.3,99.8,458.5,100.1,458.5,100.5z M457.9,101.2c0-0.3-0.1-0.6-0.3-1c-0.2-0.4-0.5-0.6-0.8-0.6
		c-0.3,0-0.6,0.3-1,0.9c0.2,0.2,0.5,0.4,0.9,0.6c0.4,0.2,0.8,0.3,1,0.3C457.8,101.5,457.9,101.4,457.9,101.2z" id="PATH_63" class="area" title=""></path>
</g>
</svg>


