<?xml version="1.0" encoding="UTF-8"?><svg id="Layer_1" xmlns="http://www.w3.org/2000/svg" viewBox="0 0 680.23 1047.29"><defs><style>.cls-1{fill:#fff;stroke-miterlimit:10;stroke-width:.5px;}.cls-1,.cls-2,.cls-3,.cls-4,.cls-5{stroke:#000;}.cls-2{fill:#dbeccb;}.cls-2,.cls-3,.cls-4,.cls-5{stroke-width:.45px;}.cls-2,.cls-3,.cls-4,.cls-5,.cls-6{stroke-miterlimit:22.41;}.cls-3{fill:#e8d0e5;}.cls-4{fill:#fbcfd0;}.cls-5{fill:#fdf9d2;}.cls-6{fill:none;stroke:#010101;stroke-width:1.12px;}</style></defs><path id="_553" class="cls-3" d="m346.62,135.3c0,3.6,4,8.3,10.1,9.2,3.1-8.7,9.6-15,21.7-12.5,1.3-12.8-6.3-19.5-14.8-27.1-11.8,3.7-17,20.5-17,30.4h0Z"/><path id="_633" class="cls-2" d="m227.83,224.9c4.5-20.2,26.9-15.7,40.3-29.1,2.2-2.2-2.2-9,0-11.2,4.5-4.5,11.2-6.7,13.4-13.4,0-22.4-4.5-44.8,15.7-47.1,12.5-1.8,33.4,11.9,49.3,9.9.4-9.9,5.6-25.3,17-29.1-4.5-4-9-8.5-12.5-14.3-4.9-7.4-7.2-15.2-7.8-23.3l-42.1-6.3-32.3-4.7c0,.4,0,.7-.2,1.1-.4.7-9.6,18.1-14.3,22.9-4.7,4.7-13.7,9-19,9-2.5,0-11.9,2.7-20.4,5.2-7.2,2-14.6,4.3-18.8,5.2-1.6.2-2.9,1.1-3.6,2.5-2.9,4.7-1.1,14.6.2,19.7,2.2,8.1-8.1,15.5-10.1,16.8-3.6,2.2-18.8,4-27.3,4-2.7,0-4.7.4-5.6,1.6-1.1,1.1-1.1,3.1-1.1,5.2v.9c0,2.7-.9,10.5-1.6,15,34.9,5.5,76.6,21.6,80.8,59.5h0Z"/><path id="_631" class="cls-4" d="m265.93,263c2.2,4.5,15.7-6.7,20.2,0,2.7,2.7,5.6,5.2,8.5,7.2l50.4-61.6,16.8-20.8c-5.8-4.3-8.7-10.3-8.7-19,0-6.9.4-16.6,3.4-24.4-6-.9-10.1-5.8-10.1-9.2v-1.3c-15.9,2-37-11.7-49.3-9.9-20.2,2.2-15.7,24.6-15.7,47.1-2.2,6.7-9,9-13.4,13.4-2.2,2.2,2.2,9,0,11.2-13.4,13.4-35.9,9-40.3,29.1-.2-2.5-.7-4.9-1.3-7.4-2.6,22.1,25,29,39.5,45.6h0Z"/><path id="_632" class="cls-3" d="m265.93,473.6c4.5,0,4.5,6.7,9,4.5-6.7,20.2,13.4,9,22.4,11.2-2.2,4.5,4.5,4.5,2.2,9,11.2,2.2,15.7-11.2,26.9-4.5,6.7-11.2,22.4-22.4,29.1-15.7,12.1,13.7,27.3,27.3,44.8,31.1l-2.9-3.6-8.3-8.1-5.6-7.4-13.4-12.8-3.8-4.7-3.8-8.5-3.8-4.5-.7-2.2-.2-2.7-.9-2.9-5.2-13.2-1.1-1.6-1.6-1.3-1.8-.7-.9-.9-.2-.9.2-.9.9-1.1,1.3-1.1.4-1.6-.4-1.3-1.3-.9-2.2-1.1-.9-2.2-.7-2.7-1.3-2.2-1.6-.7-1.1-.2-1.1-.4-1.3-1.6-.7-1.8-.4-3.8-.4-1.8-1.6-2.7-4.3-4.7-1.3-3.1v-2.9l1.6-5.6.2-2.9-1.1-4-2.2-1.6-2.7-1.1-2-1.6c-5.2,3.4-11.2,6.5-15.7,11-6.7,9,4.5,22.4-2.2,29.1-13.4,11.2-26.9-15.7-33.6-6.7-9,13.4-9,15.7-22.4,26.9,6.5,4.7,5.8,10.8,4.3,16.4,8.1,4.5,17.2,7.9,13.4,19.3h0Z"/><path id="_542" class="cls-4" d="m95.62,545.3c11.2,9-13.4,17.9-9,31.4,2.2,13.4,24.6,4.5,31.4,17.9h-6.7c-2.2,4.5,0,9,0,13.4,2.2-2.2,6.7,2.2,6.7,2.2,4.5,24.6-33.6,33.6-22.4,49.3,17.9,24.6,56,11.2,85.1,24.6-1.88.33-25.05,4.61-27.78,17.84-.25,1.19-.34,2.52-.19,4,5.05-.67,10.58-1.71,16.45-3.31,13.75-3.75,24.82-9.33,33.04-14.42.89-.33,3.51-1.18,6.42-.14,3.39,1.21,5.82,4.51,6.28,8.46,1.39,3.6,3.07,7.47,5.11,11.51,2.7,5.35,5.53,10.03,8.27,14.07,4.76,2.77,9.51,5.55,14.27,8.32,2.84,1.66,5.69,3.32,8.53,4.98-1.03,5.93-2.07,11.87-3.1,17.8,7.99-3.32,15.98-6.64,23.97-9.96,4.26-1.02,8.53-2.03,12.79-3.05,1.05.45,8.58,3.55,16.52-.44,7.34-3.69,9.55-10.67,9.91-11.87,2.84-1.13,5.67-2.25,8.51-3.38-.67-1.16-2.37-4.06-1.76-7.76.58-3.48,3.42-5.92,6.26-10.14-4.5-2.2-6.7-2.2-11.2-4.5-11.2-9-13.4-24.6-22.4-29.1-11.2-4.5-29.1-4.5-42.6-13.4-13.4-9-15.7-17.9-22.4-31.4-2.2-2.2-9-2.2-9-4.5-4.5-20.2-26.9-33.6-17.9-53.8-22.4-9-29.1-33.6-15.7-51.5h9c1.3-1.3,1.1-3.6.2-5.6,0,.4,0,.7-.2,1.1-26.9-24.9-61.4-9.6-93-17.7.4,1.6.4,2.7-.2,4-1.6,2.9-5.8,3.4-8.1,3.4-4.5,0-37.6-2.5-42.8-2.7-1.8,1.1-7.2,4.9-13,7.4-1.6.7-2.7,1.6-2.9,2.2s.4,1.6.4,1.6l9.9,11.9v25.5c6.36-2.34,15.35-4.91,26.35-5.77,11.01-.87,20.29.26,26.95,1.57Z"/><path id="_960" class="cls-3" d="m113.62,755.9c.29-1.7,1.28-5.94,4.94-9.37,1.65-1.55,3.36-2.47,4.66-3.03l.42-8.99c.97-2.54,2.46-5.98,4.72-9.82,3.73-6.34,5.65-9.59,9.38-12.06,6.65-4.4,13.1-2.33,15-6.7.7-1.6.26-2.85.23-4-.08-4.21,5.31-10.09,27.74-17.83-29.1-13.4-67.2,0-85.1-24.6-11.2-15.7,26.9-24.6,22.4-49.3,0,0-4.5-4.5-6.7-2.2,0-4.5-2.2-9,0-13.4h6.7c-6.7-13.4-29.1-4.5-31.4-17.9-4.5-13.4,20.2-22.4,9-31.4-16.6-13-37.6,7.4-53.3,4-.9,5.8-7.2,6.9-16.6,6.9-8.5,0-11.9,12.3-13,16.8-.2.7-.4,1.3-.4,1.8-.7,2.2-2,33.2-2.7,52.2l-7.6,68.8c0,.2-1.8,11.2-1.8,14.8,0,2,2.9,7.4,4.9,11.4,1.3,2.7,2.7,4.9,3.4,6.7,2,5.2,4,11.2.9,17.3-2.9,5.8-3.4,7.2-2.7,10.1.9,3.4,6.9,12.1,12.8,12.8,5.2.7,6.9,6.3,7.6,11.4,1.3-.4,2.5-1.1,3.8-2,7.8-5.71,20.84-13.8,38.73-18.74,18.45-5.09,34.25-4.67,43.97-3.66Z"/><path id="_597" class="cls-2" d="m73.22,811.9c17.9-4.5,33.6,20.2,60.5,13.4,4.5-2.2,0-6.7,0-9h6.7c4.5-6.7,2.2-17.9,13.4-20.2,11.2-4.5-4.5-11.2-4.5-15.7,0-10.5,2.7-20.8,9.2-30.2-2.9.4-6,.9-9.2,1.1-6.3,0-16.1-3.4-18.8-10.3-4.3,1.6-8.7,2.5-12.5,3.6,2.2,4.5-4.5,6.7-4.5,11.2-31.4,2.2-58.3,0-82.9,22.4-1.1.9-2.5,1.6-3.8,2,.4,2.9.4,5.6.4,7.2,0,3.4,1.6,18.8,1.8,21.1,13.5,7,28.8,8.6,44.2,3.4h0Z"/><path id="_547" class="cls-5" d="m153.92,935.2c2.2,2.2,6.7,2.2,6.7,6.7,22.4-9,44.8,0,67.2-4.5-2.2-4.5,0-9-2.2-13.4-9-11.2-29.1-13.4-29.1-20.2-2.2-17.9,9-38.1,20.2-56,4.5-6.7,20.2,2.2,26.9-6.7,2.2-6.7-2.2-13.4-4.5-20.2,15.7,4.5,24.6-11.2,33.6-20.2,4.5-9-6.7-11.2-9-17.9,6.7,0,20.2-2.2,15.7-6.7-6.9-10.5-9.9-21.1-16.4-29.6-15.7,6.3-30,13.7-41.9,7.2-21.5-11.9-41.5-6.3-62.5-3.4-6.5,9.4-9.2,19.7-9.2,30.2,0,4.5,15.7,11.2,4.5,15.7-11.2,2.2-9,13.4-13.4,20.2h-6.7c0,2.2,4.5,6.7,0,9-26.9,6.7-42.6-17.9-60.5-13.4-15.5,5.2-30.7,3.8-44.1-3.1v.2l.2,1.6-1.6.2c-.2,0-7.6.9-11.4.9-1.3,0-2.9,1.1-4.7,2.5-1.1.9-2.5,1.8-4,2.5.4,2.9,3.8,21.5,6.3,26.4,1.1,2.2,3.8,8.7,6.9,16.1,4.3,10.3,9.6,23.3,11.9,27.1,3.6,6,2.5,9.2-1.1,12.1,33.6,4.7,65,12.5,91,36.5,4.3,6.9,20-2.1,31.2.2h0Z"/><path id="_991" class="cls-2" d="m257.02,955.4c-6.7,2.2-13.4-2.2-20.2-4.5-4.3-2.9-5.8-9.2-9.2-14.1,0,.2.2.4.2.7-22.4,4.5-44.8-4.5-67.2,4.5,0-4.5-4.5-4.5-6.7-6.7-11.2-2.2-26.9,6.7-31.4,0-26-24-57.4-32-91-36.5-.9.7-2,1.6-3.1,2.2s-1.3,1.3-1.3,1.8c0,2,2.7,5.4,6.9,8.5,4,2.9,13.4,16.4,15.5,20.4l.7,1.3c1.8,3.6,4.3,8.3,4.3,14.6s-1.8,43.7-1.8,45.3h0l2.5-.4,3.8-.4,18.6-6.9,6-.2,5.6,2,7.8,8.3,5.4,2.5h5.2l23.3-2.5,2.2,1.1.9,2.7.4.9,5.2,4.9.9-.2.7-1.1.9-.7,10.8-3.1,5.6-.2,5.2,1.3h.7l1.3-.2.7.2v.7l-.2,1.8.2.7,1.3,2,1.1.7,4.5.7,1.3.7,2.7,1.8.9-.9.7-2.9.2-1.1-.4-.7v-.9l1.3-1.3.7-.4,3.6-.7,4.7-.2,2.5.2,1.8,1.1-.4.4-1.3,2.5,2.9,2.2,6.7,1.1,2.7,1.6,7.6,7.4,1.6.4h2l-.7-2.2-2.9-5.2v-1.6l-.4-1.1-.7-.2h-1.1l-1.3-.9h-.9l-.7-.4-.4-3.1-.4-.9v-1.1l1.1-1.8,2-2.5,1.1-2.2,2.2-1.3,9.2-2.9,2.2-.2,2.2.2,2,1.3.7.9c6.5-16.4,8.7-31.4,28.7-37.2h0Z"/><path id="_546" class="cls-4" d="m310.83,883.7c-4.5,2.2,4.5,13.4,0,22.4-2.2,2.2-11.2,2.2-9,9,4.5,9,29.1,22.4,13.4,20.2-29.4,0-55.1-1.8-74.6,17,5.4,2.2,11,4.9,16.4,3.1-19.9,6-22.2,20.8-28.7,36.5l4.3,4.3.4,1.3v8.5l.4,2.2,3.1,4.9-2,1.8,2,1.3,12.5,1.6,18.1,4.7,21.5,3.8,22,6.9.4.7.9,3.6.4.9,4.9,2,26,6.5-1.6-1.8-2-1.3,7.2-2.2,1.8-1.1,1.1-1.1.2-.4v-.9l.4-1.6,2.2-2.9.7-1.6-1.1-1.3-1.3-.7-3.1-1.1,2.9-2.2h2.2l2,.9,2.9.4-.9-.9-1.1-1.6-.9-.7.4-.9.2-2.7.4-.7,1.1-.9.7.4.4.9,2.2,1.8.4,2.5.7,2.2,4.3-12.8,2.9-50.9.4-2.2.9-1.3,1.8-2,.9-1.3.4-5.4-1.6-6-.7-5.6,2.7-4.3,2.9-.7h2.5l2.2-.4,2-2.7.9-2.7,2.7-21.3c-24.2-15.9-43.9-38.9-75.7-24.1h0Z"/><path id="_599" class="cls-3" d="m310.83,870.2c-32.3-4-37.4-33.6-52.7-54-5.2,4.3-11.2,6.9-19,4.7,2.2,6.7,6.7,13.4,4.5,20.2-6.7,9-22.4,0-26.9,6.7-11.2,17.9-22.4,38.1-20.2,56,0,6.7,20.2,9,29.1,20.2,2,4.3.2,8.5,2,12.8,3.4,4.9,4.9,11.4,9.2,14.1,1.3.4,2.5.9,3.8,1.3,19.5-18.8,45.5-17,74.6-17,15.7,2.2-9-11.2-13.4-20.2-2.2-6.7,6.7-6.7,9-9,4.5-9-4.5-20.2,0-22.4,3.6-1.8,7.2-2.9,10.5-3.6-2.3-5.5-7.4-9.8-10.5-9.8Z"/><path id="_319" class="cls-4" d="m319.72,599.1c-6.7-9-11.2,9-6.7,15.7,13.4,17.9,24.6,35.9,31.4,56,0,2.2,6.7,4.5,9,9s2.2,9,2.2,11.2c9,9,15.7-13.4,24.6-9,11.2,4.5,6.7,22.4,17.9,29.1,6.7,2.2,2.2,11.2,11.2,15.7-6.7,15.7-29.1,26.9-22.4,44.8,2.2,2.2,15.7,2.2,24.6,6.7,4.5,0,11.2,6.7,15.7,9,17.7,7.8,40.8,12.3,52.2,28.7l11.9-1.3c-9.9-14.8-29.1-22.4-32.7-38.5-4.5-13.4,24.6-11.2,31.4-26.9h-6.7c-2.2-4.5,0-9,0-13.4-9,2.2-15.7-4.5-22.4-4.5,2.2-15.7-4.5-24.6-17.9-33.6-4.5-4.5-2.2-17.9-4.5-29.1-9,6.7-15.7,2.2-20.2-4.5-13.4-20.2-24.6-42.6-47.1-53.8-4.9-2.5-6.5-7.4-6-13-1.1-.2-2.2-.4-2.9-.4-15.7-2.4-24.7,15.5-42.6,2.1Z"/><path id="_13" class="cls-5" d="m333.22,661.8c-10.5,10.5-22.6,14.3-36.1,17.5,4.5,6.7,8.1,16.4,15.9,22.9,4.5,2.2,6.7,2.2,11.2,4.5-4.5,6.7-9,9-4.5,17.9-13.2,0-13.4,17.3-22,15.7,4.7,6.7,7.4,16.4,17.5,17.9,0-9,13.4-11.2,17.9-6.7,9,11.2,22.4,24.6,38.1,17.9,0,13.4-2.2,26.9,0,40.3,0,4.5,6.7,6.7,13.4,4.5v6.7c6.7,4.5,13.4,9,20.2,4.5,13.4-13.4,35.9-17.9,56-13.4,4.3,0,6.5,3.1,8.3,6.7l.2-.7,1.1-.7,1.3-.4,7.4-.9c-11.4-16.4-34.3-20.8-52.2-28.7-4.5-2.2-11.2-9-15.7-9-9-4.5-22.4-4.5-24.6-6.7-6.7-17.9,15.7-29.1,22.4-44.8-9-4.5-4.5-13.4-11.2-15.7-11.2-6.7-6.7-24.6-17.9-29.1-9-4.5-15.7,17.9-24.6,9,0-2.2,0-6.7-2.2-11.2s-9-6.7-9-9c-1.1-3.1-2.2-6.3-3.6-9.4-2.4-.5-6,.4-7.3.4h0Z"/><path id="_548" class="cls-2" d="m515.83,556.5l-2.9-1.8-21.5,4.5-2.7-1.6-8.3-9.4-1.8-3.4-.9-2.7-.9-1.6-1.3-.9-2.2-.7-2.2-1.3-1.3-1.8-1.1-2.2-1.3-1.8-3.8-2-17.3-3.6-11-5.2-4-.9-8.7-.7-4-1.3-6.3-3.8-7.8-2.2-2.5-1.3-1.1-1.3c-17.5-4-32.7-17.5-44.8-31.1-6.7-6.7-22.4,4.5-29.1,15.7-11.2-6.7-15.7,6.7-26.9,4.5,2.2-4.5-4.5-4.5-2.2-9-9-2.2-29.1,9-22.4-11.2-4.5,2.2-4.5-4.5-9-4.5,3.8-11.4-5.4-14.8-13.7-19.5-.7,2.2-1.3,4.3-2,6-4.5,6.7-15.7-2.2-20.2,2.2-2.2,6.7,2.2,17.9-2.2,20.2-13.2,11-32.9,9-35.6,30.2.9,2,1.1,4.3-.2,5.6h-9c-13.4,17.9-6.7,42.6,15.7,51.5-9,20.2,13.4,33.6,17.9,53.8,0,2.2,6.7,2.2,9,4.5,6.7,13.4,9,22.4,22.4,31.4s31.4,9,42.6,13.4c2.7,1.3,4.7,3.6,6.5,6.3,13.4-3.4,25.5-6.9,36.1-17.5,1.6,0,4.9-.9,7.6-.4-6.7-16.4-16.6-31.6-27.8-46.6-4.5-6.7,0-24.6,6.7-15.7,17.9,13.4,26.9-4.5,42.6-2.2.7,0,1.8.2,2.9.4.9-9.4,7.8-20.2,15-22.9,31.4-15.7,60.5,11.2,91.9,6.7,13.4-2.2,29.1-6.7,38.1-20.2,1.1-1.1,3.4-1.1,6-.9l-1-3.7h0Z"/><path id="_565" class="cls-3" d="m584.62,720.8l-2-2.9-1.3-1.6-1.1-.9-3.4-1.1-1.3-1.1-3.6-3.1-1.6-.7h-1.3l-7.2,2.2-1.6.2-2.2-.2h-3.6l-6.7,2.2-3.6.7-7.6,1.6-3.6.2-4-.9-3.1-1.8-1.1-.4-.9.2-1.8,1.1h-.9l-2-1.1-5.6-5.4h2l1.3-1.1.7-1.8.7-2.2.2-2.5-.7-1.6-2.5-3.4,6.7-16.4.9-6.5-4.5-51.8-5.8-25.5,4-33.4-.2-1.8c-2.5-.2-4.9-.2-6,.9-9,13.4-24.6,17.9-38.1,20.2-31.4,4.5-60.5-22.4-91.9-6.7-11.2,4.5-22.4,29.1-9,35.9,22.4,11.2,33.6,33.6,47.1,53.8,4.5,6.7,11.2,11.2,20.2,4.5,2.2,11.2,0,24.6,4.5,29.1,13.4,9,20.2,17.9,17.9,33.6,6.7,0,13.4,6.7,22.4,4.5,0,4.5-2.2,9,0,13.4h6.7c-6.7,15.7-35.9,13.4-31.4,26.9,3.6,16.1,22.9,23.5,32.7,38.5l2.5-.2,2.9-.9.9-.9,1.1-1.3,1.1-.7,1.3.2,1.6.9h1.1l4-.9,1.1-.4.9-.7.9-.7,1.3-2.7,1.1-1.3,1.3-.4,31.1.9,5.2.9h5.2l3.8-.9,1.1.2,1.1.4,1.1.7.9.7h1.3l2.9-2.9,1.3-6.3,1.1-22.4.9-2.5,2.2-1.3,5.4-.9,2-1.8.2-2.9-1.1-2.5-1.6-2.5-1.1-2.9-.7-17.5.2-1.8.4-1.6,1.6-2,.4-1.6,1.3-2.5,2.7-1.3h2.7l2.5.9-4-10.4h0Z"/><path id="_318" class="cls-2" d="m460.93,811.9c-20.2-4.5-42.6,0-56,13.4-6.7,4.5-13.4,0-20.2-4.5v-6.7c-6.7,2.2-13.4,0-13.4-4.5-2.2-13.4,0-26.9,0-40.3-15.7,6.7-29.1-6.7-38.1-17.9-4.5-4.5-17.9-2.2-17.9,6.7-10.1-1.3-12.8-11-17.5-17.9h-.4c-11.9-1.8-23.5,2-34.3,6.3,6.3,8.3,9.2,19,16.4,29.6,4.5,4.5-9,6.7-15.7,6.7,2.2,6.7,13.4,9,9,17.9-4.5,4.5-9.2,11-14.6,15.5,15.5,20.6,20.4,50,52.7,54,3.1,0,8.3,4.3,10.5,9.9,26-5.8,43.9,13.9,65.9,28l3.8-29.8,1.1-4.7,1.8-4.3,3.1-2.5,15.9-4.9,4.7-3.1,2.5-1.3,2.7-.9,5.4-.9,1.1-1.6.7-3.8,2-3.8,5.2.7,5.8,2.2,4.7.7,2.9-1.6v-2.2l-1.3-2.9-.7-3.6.9-1.8,4-4.3,1.3-2.7v-1.1l-.4-.7-.4-1.1.2-1.3.9-1.1,1.1-.9,2.5-1.1,1.1-.4,1.6-1.3,1.1-.7h4l1.3-.2.9-.7.7-1.6c-2.1-3.9-4.4-6.9-8.6-6.9h0Z"/><path id="_557" class="cls-5" d="m192.03,513.9c2.2-22.4,22.4-20.2,35.9-31.4,4.5-2.2,0-13.4,2.2-20.2,4.5-4.5,15.7,4.5,20.2-2.2,2.2-6.7,6.7-15.7-2.2-22.4,13.4-11.2,13.4-13.4,22.4-26.9,6.7-9,20.2,17.9,33.6,6.7,6.7-6.7-4.5-20.2,2.2-29.1,4.5-4.5,10.5-7.6,15.7-11l-.7-.7-39.4-48.6-17.5-21.3,17.5-21.1,13-15.7c-2.9-2-5.8-4.5-8.5-7.2-4.5-6.7-17.9,4.5-20.2,0-14.3-16.6-42.1-23.5-39.4-45.5-8.5-32.7-47.1-47.1-79.3-52.2-.2,1.8-.4,2.9-.4,3.1l-.2.9-1.3.7-61.2,25.1c-.4,4.7-2,18.6-4,21.3-1.3,2.5-2.5,28-2.5,33.8,0,1.8,1.6,25.8,2.9,48.8,1.8,27.3,3.6,55.8,3.6,58.3,0,4.3,2.9,26.9,5.6,33.2,5.6,13.2,6.7,21.1,3.4,24.4-3.8,3.8-6.3,9.2-4.7,10.8,2.9,2.9,5.4,18.8,6,23.5v.4c-.4,15,0,40.3,2.5,44.1.7.9,1.1,2,1.3,2.7,32.1,8.1,66.6-7.1,93.5,17.7h0Z"/><path id="_314" class="cls-5" d="m353.33,168.9c0,8.7,2.9,14.8,8.7,19l25.5-31.4,2.2-2.5-.2-.9h-.2l.2-2.9.2-1.1.9-.4-.4-10.5v-.2c-4,.9-8.1-2.7-12.1-2.7.2-1.1.4-2.2.4-3.4-23.2-4.9-25.2,22-25.2,37h0Z"/><path id="_285" class="cls-4" d="m378.02,135.3c4,0,8.1,3.6,12.1,2.7l-.7-1.6,2.5-4.9.9-3.4v-3.1l-.4-3.1-1.8-5.2-2.2-4.9-.2-1.6-.2-4.5-1.1-3.6-3.6-5.8-1.3-3.1v-3.1l.9-6.5-.9-2.9-4.7-6-2.5-2-3.4-1.3-28.2-4.3c.7,8.1,2.9,15.9,7.8,23.3,11.3,18,31.5,22.5,27,44.9h0Z"/><line id="LINE_20" class="cls-6" x1="362.12" y1="124.5" x2="449.93" y2="67.2"/><line id="LINE_21" class="cls-6" x1="362.12" y1="84.9" x2="406.02" y2="25"/><line id="LINE_22" class="cls-6" x1="368.12" y1="162.2" x2="458.93" y2="154.3"/><line id="LINE_23" class="cls-6" x1="302.72" y1="454.8" x2="368.12" y2="424.3"/><line id="LINE_24" class="cls-6" x1="427.72" y1="726.4" x2="522.72" y2="827.2"/><line id="LINE_25" class="cls-6" x1="356.93" y1="739.8" x2="459.52" y2="864.4"/><line id="LINE_26" class="cls-6" x1="263.93" y1="898.7" x2="410.22" y2="926.2"/><line id="LINE_27" class="cls-6" x1="300.43" y1="200.7" x2="356.93" y2="230.9"/><g id="G_28"><path id="PATH_29" d="m413.22,13.6h-.9c-.9,0-1.6-.2-2.2-.9-.4-.4-.9-.9-1.3-1.8-.4.9-1.1,1.6-1.8,2-.9.4-2,.7-3.8.7-3.1,0-4.7-1.1-4.7-3.4,0-.7.2-1.6.7-2.2.2-.2.2-.4.4-.4s.2.2.2.4v1.4c0,1.3,1.1,2,3.4,2,3.1,0,4.7-.7,4.7-1.8,0-.7-.9-3.1-2.7-7.4l.9-1.8c.2-.2.2-.4.2-.4,0,0,.2.2.2.4.7,1.8,1.8,4.5,3.1,8.1.7,1.8,1.6,2.7,2.9,2.7h.7v2.4h0Z"/><path id="PATH_30" d="m424.12,13.6h-1.8c-2,0-3.4-.7-4.3-2-.7,1.3-2.2,2-4.7,2h-1.1v-2.7h2c2.2,0,3.4-.9,3.6-2.5,0-.7.2-1.1.4-1.1s.4.4.4,1.1c.2,1.6,1.3,2.5,3.4,2.5h2v2.7h.1Zm-4.5-11.4l-1.8,1.8-1.8-1.8,1.8-1.8s1.8,1.8,1.8,1.8Z"/><path id="PATH_31" d="m435.33,9.1c0,1.1,0,2-.4,2.9-.4,1.1-1.1,1.8-1.8,1.8-1.1,0-2.9-.7-5.2-2.2-.7.9-1.1,1.3-1.3,1.6-.7.4-1.3.7-2.2.7h-1.1v-2.7h1.6c.9,0,1.8-.4,2.7-1.6.4-.4,1.1-1.6,2-2.9.7-1.1,1.6-1.6,2.2-1.6,1.1,0,2,.4,2.7,1.6.4.9.6,1.7.8,2.4h0Zm-1.3,1.8c0-.7-.2-1.3-.7-2.2-.4-.9-1.1-1.3-1.8-1.3s-1.3.7-2.2,2c.4.4,1.1.9,2,1.3s1.8.7,2.2.7c.3,0,.5-.3.5-.5Z"/><path id="PATH_32" d="m449.22,13.6h-.9c-.9,0-1.3-.2-1.8-.4v.7c0,2-.7,4-2,6-1.1,1.8-2.2,2.5-2.9,2.5-1.8,0-3.1,0-4.5-.2-.4,0-.7-.2-.7-.2,0,0,.2-.2.7-.2,1.8-.4,3.6-1.3,5.4-2.7,1.8-1.6,2.9-3.1,2.9-4.7,0-.9-.7-2.2-2.2-3.8l1.1-2c0-.2.2-.2.2-.2l.2.2c.7.9,1.1,1.6,1.6,1.8.7.4,1.6.9,2.5.9h.7v2.5h-.3v-.2h0Z"/><path id="PATH_33" d="m460.22,13.6h-1.8c-2,0-3.4-.7-4.3-2-.7,1.3-2.2,2-4.7,2h-1.3v-2.7h2c2.2,0,3.4-.9,3.6-2.5,0-.7.2-1.1.4-1.1s.4.4.4,1.1c.2,1.6,1.3,2.5,3.4,2.5h2v2.7h.3Zm-7.4,4.9l-1.8,1.8-1.8-1.8,1.8-1.8,1.8,1.8Zm3.8,0l-1.8,1.8-1.8-1.8,1.8-1.8,1.8,1.8Z"/><path id="PATH_34" d="m473.93,9.1c0,.9-.2,1.8-.9,2.7-.7,1.1-1.3,1.6-2.2,1.6-.7,0-2.2-.4-4.7-1.6-2,1.3-3.8,1.8-5.4,1.8h-1.3v-2.7h1.3c.9,0,1.8,0,2.7-.2-.9-.7-1.3-1.6-1.3-2.7,0-1.3.9-2.9,2.9-4.5l-1.6-.7c.4-.4,1.1-1.1,2-2,2,1.1,3.8,2,5.4,3.4,2,1.8,3.1,3.4,3.1,4.9Zm-5.9-1.8c0-.7-.2-1.1-.4-1.6-.2-.7-.7-.9-1.3-.9-.7,0-1.1.2-1.8.7-.7.4-1.1,1.1-1.1,1.6,0,.9.9,1.8,2.5,2.2.4-.2.9-.4,1.3-.7.6-.4.8-.8.8-1.3Zm4.8,2.7c0-.7-.4-1.3-1.3-2.2-.7-.7-1.3-1.3-2-1.6,0,1.8-.4,3.1-1.6,4,1.8.7,3.1.9,3.6.9.8,0,1.3-.4,1.3-1.1Z"/></g><g id="G_35"><path id="PATH_36" d="m477.02,62.2h-1.1c-1.1,0-2-.4-2.5-1.1,0,1.3-.2,2.9-.4,4.9-.7,1.6-1.8,2.9-3.6,3.6-1.6.7-3.1,1.1-5.2,1.1s-3.4-.4-4.5-1.1c-1.3-.9-2-2.2-2-4.3,0-1.8.4-3.6,1.6-4.9.13-.13.27-.2.4-.2s.2.07.2.2v.2c-.4,1.1-.7,2.2-.7,3.1,0,1.3.4,2.5,1.6,3.4.9.7,2,1.1,3.6,1.1,1.3,0,2.9-.2,4.5-.9,2.2-.7,3.1-1.6,3.1-2.7l-.2-10.8c-.2-5.2-.2-8.7-.4-11.2l1.8-1.6c0,.7.2,3.1.4,7.6l.2,8.7c0,1.3.9,2.2,2.7,2.2h.7v2.5h-.2v.2Z"/><path id="PATH_37" d="m482.43,57.7c0,2.9-1.6,4.5-4.5,4.5h-1.8v-2.7h1.6c2.2,0,3.4-.4,3.4-1.1s-.4-1.6-1.6-2.7l.9-2.2c0-.2.2-.2.2-.2,0,0,.2.2.4.4.9,1.1,1.4,2.7,1.4,4Zm-.9,9.5l-1.8,1.8-1.8-1.8,1.8-1.8,1.8,1.8Z"/><path id="PATH_38" d="m487.52,59.5c0,.9-.2,1.8-.7,2.5-.2.4-.4.7-.4.7,0,0-.2-.2-.2-.9,0-2.7-.4-9-1.3-19l1.8-1.8.2-.2v.4c.6,2.9.6,8.9.6,18.3Z"/><path id="PATH_39" d="m499.02,62.4c0,2.2-.7,4.3-2,6.3-1.1,1.6-2.2,2.5-2.9,2.5-1.8,0-3.1,0-4.5-.2-.4,0-.7-.2-.7-.2,0,0,.2-.2.7-.2,1.8-.4,3.6-1.3,5.4-2.7,1.8-1.6,2.9-3.1,2.9-4.7,0-.9-.7-2.2-2.2-3.8l1.1-2c0-.2.2-.2.2-.2l.2.2c.4.7,1.1,1.6,1.3,2.7.2.6.5,1.5.5,2.3h0Zm-1.8-12.1l-1.8,1.8-1.8-1.8,1.8-1.8,1.8,1.8Z"/></g><g id="G_40"><path id="PATH_41" d="m210.83,138c0,2.2-.7,4.3-2,6.3-1.1,1.6-2.2,2.5-2.9,2.5-1.8,0-3.1,0-4.5-.2-.4,0-.7-.2-.7-.2,0,0,.2-.2.7-.2,1.8-.4,3.6-1.3,5.4-2.7,1.8-1.6,2.9-3.1,2.9-4.7,0-.9-.7-2.2-2.2-3.8l1.1-2c0-.2.2-.2.2-.2l.2.2c.4.7,1.1,1.6,1.3,2.7.3.5.5,1.4.5,2.3h0Zm-1.5-12.1l-1.8,1.8-1.8-1.8,1.8-1.8,1.8,1.8Z"/><path id="PATH_42" d="m222.53,136.8c0,3.4-1.1,6.3-3.4,8.5-.7.7-1.1,1.1-1.3,1.1-1.3,0-2.7-.2-4.3-.4-.7,0-.9-.2-.9-.2,0,0,.2-.2.9-.4,1.8-.4,3.6-1.6,5.2-2.9.7-.7,1.3-1.1,1.8-2,.7-.9,1.1-1.8,1.1-2.5v-.7h-2.9c-2,0-3.1-.9-3.1-2.5,0-1.1.2-2.2.9-3.6.7-1.3,1.6-2.2,2.5-2.2,1.3,0,2.5.9,3.1,2.9.1,1.6.4,3.1.4,4.9h0Zm-1.6-2c0-.7-.2-1.3-.7-2-.4-.7-1.1-1.1-1.8-1.1-.4,0-.9.2-1.1.4-.4.4-.4.7-.4,1.1,0,1.1.7,1.6,2.2,1.6.2.2.9.2,1.8,0Z"/><path id="PATH_43" d="m236.42,137.7h-.9c-.9,0-1.3-.2-1.8-.4v.7c0,2-.7,4-2,6-1.1,1.8-2.2,2.5-2.9,2.5-1.8,0-3.1,0-4.5-.2-.4,0-.7-.2-.7-.2,0,0,.2-.2.7-.2,1.8-.4,3.6-1.3,5.4-2.7,1.8-1.6,2.9-3.1,2.9-4.7,0-.9-.7-2.2-2.2-3.8l1.1-2c0-.2.2-.2.2-.2l.2.2c.7.9,1.1,1.6,1.6,1.8.7.4,1.6.9,2.5.9h.7v2.5h-.3v-.2h0Z"/><path id="PATH_44" d="m252.53,137.7h-1.6c-1.1,0-2.2-.7-3.1-1.8-.7,1.8-1.3,2.7-2,2.7s-1.8-.4-3.1-1.1c-1.1-.7-2-1.3-2.5-1.8-1.1,1.3-2.2,2-3.4,2h-1.3v-2.7h1.3c1.1,0,2-.4,2.9-1.3.7-.7,1.3-1.6,2.2-2.5s1.6-1.3,2.2-1.3c.9,0,1.6.4,2.2,1.3.4.4.9,1.3,2,2.5.7.9,1.6,1.3,2.5,1.3h1.3v2.7h.4Zm-6.1-2c0-.7-.2-1.3-.7-2.2s-1.1-1.3-2-1.3c-.7,0-1.6.7-2.5,1.8.2.2.9.7,2,1.3,1.1.7,2,.9,2.7.9.3,0,.5,0,.5-.5Z"/><path id="PATH_45" d="m263.52,137.7h-1.8c-2,0-3.4-.7-4.3-2-.7,1.3-2.2,2-4.7,2h-1.3v-2.7h2c2.2,0,3.4-.9,3.6-2.5,0-.7.2-1.1.4-1.1s.4.4.4,1.1c.2,1.6,1.3,2.5,3.4,2.5h2v2.7h.3Zm-7.4,5l-1.8,1.8-1.8-1.8,1.8-1.8,1.8,1.8Zm3.8,0l-1.8,1.8-1.8-1.8,1.8-1.8,1.8,1.8Z"/><path id="PATH_46" d="m268.93,133.3c0,2.9-1.6,4.5-4.5,4.5h-1.8v-2.7h1.6c2.2,0,3.4-.4,3.4-1.1s-.4-1.6-1.6-2.7l.9-2.2c0-.2.2-.2.2-.2l.4.4c.9,1,1.4,2.4,1.4,4Zm-.3-10.4l-1.8,1.8-1.8-1.8,1.8-1.8,1.8,1.8Z"/></g><g id="G_47"><path id="PATH_48" d="m494.72,158.3h-1.6c-1.1,0-2.2-.7-3.6-1.8-.7-.7-1.6-1.8-2.7-3.4,0,1.6-.2,2.7-.9,3.4-1.1,1.3-3.4,2-6.7,2h-4.5c-5.4,0-8.3-1.6-8.3-4.7,0-1.1.4-2.2,1.1-3.4.2-.2.4-.4.4-.4.13,0,.2.07.2.2v.4c-.2.9-.4,1.3-.4,2,0,.9.4,1.6,1.1,2,1.1.9,2.9,1.3,5.4,1.3h4.5c2.5,0,4.3-.2,5.2-.4,1.1-.4,1.6-1.1,1.6-2s-.4-2-1.6-3.4c-.7-.7-1.6-1.8-2.9-2.9-1.1-.9-1.6-1.6-1.6-1.6,0-1.6.2-2.5.7-3.1,0-.2,1.6-.7,4.7-1.8s5.8-2,7.8-2.7c0,.2-.2,1.1-.7,2.5-2.5.7-6,2-11,3.8,2.2,2,4.7,4.9,7.6,8.7,1.1,1.3,2,2.2,2.7,2.7.4.2,1.3.4,2.2.4h.9v2h.4v.2h0Z"/><path id="PATH_49" d="m508.43,153.6c0,.9-.2,1.8-.9,2.7-.7,1.1-1.3,1.6-2.2,1.6-.7,0-2.2-.4-4.7-1.6-2,1.3-3.8,1.8-5.4,1.8h-1.1v-2.7h1.3c.9,0,1.8,0,2.7-.2-.9-.7-1.3-1.6-1.3-2.7,0-1.3.9-2.9,2.9-4.5l-1.6-.7,2-2c2,1.1,3.8,2,5.4,3.4,2,1.8,2.9,3.4,2.9,4.9h0Zm-5.8-1.8c0-.7-.2-1.1-.4-1.6-.2-.7-.7-.9-1.3-.9-.7,0-1.1.2-1.8.7-.7.4-1.1,1.1-1.1,1.6,0,.9.9,1.8,2.5,2.2.4-.2.9-.4,1.3-.7.5-.4.8-.8.8-1.3Zm4.7,2.7c0-.7-.4-1.3-1.3-2.2-.7-.7-1.3-1.3-2-1.6,0,1.8-.4,3.1-1.6,4,1.8.7,3.1.9,3.6.9.8.1,1.3-.4,1.3-1.1h0Z"/><path id="PATH_50" d="m519.83,158.3c0,2.2-.7,4.3-2,6.3-1.1,1.6-2.2,2.5-2.9,2.5-1.8,0-3.1,0-4.5-.2-.4,0-.7-.2-.7-.2,0,0,.2-.2.7-.2,1.8-.4,3.6-1.3,5.4-2.7,1.8-1.6,2.9-3.1,2.9-4.7,0-.9-.7-2.2-2.2-3.8l1.1-2c0-.2.2-.2.2-.2l.2.2c.4.7,1.1,1.6,1.3,2.7.3.8.5,1.7.5,2.3h0Zm-1.6-11.8l-1.8,1.8-1.8-1.8,1.8-1.8,1.8,1.8Z"/></g><g id="G_51"><path id="PATH_52" d="m392.12,233c.2.7.2,1.3.2,2,0,.9-.2,1.6-.4,2.5-.7,1.6-1.8,2.9-4,3.8-1.8.7-3.6,1.1-5.6,1.1s-3.6-.4-4.9-1.3c-1.3-1.1-2-2.5-2-4.5,0-1.1.2-2,.7-3.4.4-.9.7-1.6,1.1-2,.2-.2.4-.2.4-.2.13,0,.2.07.2.2v.4c-.7,1.3-.9,2.7-.9,3.8s.4,2,1.1,2.9c.9,1.1,2.5,1.6,4.5,1.6,2.2,0,4.3-.4,5.8-1.1,1.3-.7,2.2-1.3,2.7-2.2.2-.2.2-.7.2-.9,0-.7-.2-1.3-.4-2.2-.2-.7-.9-1.8-2-3.6l.9-1.8c.2-.2.2-.4.2-.4,0,0,.2,0,.2.2,1.1,1.5,1.8,3.3,2,5.1h0Zm-6.5-9.7l-1.8,1.8-1.8-1.8,1.8-1.8,1.8,1.8Z"/><path id="PATH_53" d="m406.22,233.2h-2.5c-.2,3.1-1.3,5.6-3.6,7.8-.7.7-1.1,1.1-1.3,1.1-1.1,0-2.7-.2-4.3-.4-.4,0-.9-.2-.9-.2,0,0,.2-.2.9-.4,1.8-.4,3.6-1.6,5.2-2.7.7-.7,1.3-1.1,1.8-2,.7-.9,1.1-1.8,1.1-2.5v-.7h-2.9c-2.2,0-3.1-.9-3.1-2.7,0-1.1.2-2.2.9-3.6.7-1.3,1.6-2.2,2.5-2.2,1.1,0,2,.7,2.7,2.2.4,1.1.9,2.2.9,3.6h2.5v2.7h.1,0Zm-4-2.5c0-.7-.2-1.3-.7-2-.4-.9-1.1-1.1-1.8-1.1-.4,0-.9.2-1.1.4s-.4.7-.4,1.3c0,1.1.9,1.6,2.7,1.6.2-.2.6-.2,1.3-.2Z"/><path id="PATH_54" d="m417.43,228.7c0,1.1,0,2-.4,2.9-.4,1.1-1.1,1.8-1.8,1.8-1.1,0-2.9-.7-5.2-2.2-.7.9-1.1,1.3-1.3,1.6-.7.4-1.3.7-2.2.7h-1.1v-2.7h1.6c.9,0,1.8-.4,2.7-1.6.4-.4,1.1-1.6,2-2.9.7-1.1,1.6-1.6,2.2-1.6,1.1,0,2,.4,2.7,1.6.4.8.6,1.7.8,2.4h0Zm-1.3,1.8c0-.7-.2-1.3-.7-2.2s-1.1-1.3-1.8-1.3-1.3.7-2.2,2c.4.4,1.1.9,2,1.3.9.4,1.8.7,2.2.7.2-.1.5-.3.5-.5Z"/><path id="PATH_55" d="m426.12,233.2h-1.6c-1.6,0-2.9-.7-3.4-2-.4-.9-.7-2.5-.7-4.3v-4.3c0-2-.2-4.9-.4-8.7l1.3-1.6c.2-.2.4-.2.4,0,.2,2,.4,4.9.4,8.7v6.5c0,1.8.9,2.7,2.7,2.7h1.1v3h.2Z"/><path id="PATH_56" d="m439.83,228.7c0,.9-.2,1.8-.9,2.7-.7,1.1-1.3,1.6-2.2,1.6-.7,0-2.2-.4-4.7-1.6-2,1.3-3.8,1.8-5.4,1.8h-1.1v-2.7h1.3c.9,0,1.8,0,2.7-.2-.9-.7-1.3-1.6-1.3-2.7,0-1.3.9-2.9,2.9-4.5l-1.6-.7,2-2c2,1.1,3.8,2,5.4,3.4,1.8,1.8,2.9,3.3,2.9,4.9h0Zm-5.8-1.8c0-.7-.2-1.1-.4-1.6-.2-.7-.7-.9-1.3-.9-.7,0-1.1.2-1.8.7s-1.1,1.1-1.1,1.6c0,.9.9,1.8,2.5,2.2.4-.2.9-.4,1.3-.7.6-.4.8-.8.8-1.3Zm4.7,2.7c0-.7-.4-1.3-1.3-2.2-.7-.7-1.3-1.3-2-1.6,0,1.8-.4,3.1-1.6,4,1.8.7,3.1.9,3.6.9.8,0,1.3-.4,1.3-1.1h0Z"/></g><g id="G_57"><path id="PATH_58" d="m149.92,329.3c.2.7.2,1.3.2,2,0,.9-.2,1.6-.4,2.5-.7,1.6-1.8,2.9-4,3.8-1.8.7-3.6,1.1-5.6,1.1s-3.6-.4-4.9-1.3c-1.3-1.1-2-2.5-2-4.5,0-1.1.2-2,.7-3.4.4-.9.7-1.6,1.1-2,.2-.2.4-.2.4-.2.13,0,.2.07.2.2v.4c-.7,1.3-.9,2.7-.9,3.8s.4,2,1.1,2.9c.9,1.1,2.5,1.6,4.5,1.6,2.2,0,4.3-.4,5.8-1.1,1.3-.7,2.2-1.3,2.7-2.2.2-.2.2-.7.2-.9,0-.7-.2-1.3-.4-2.2-.2-.7-.9-1.8-2-3.6l.9-1.8c.2-.2.2-.4.2-.4,0,0,.2,0,.2.2,1.1,1.5,1.7,3.3,2,5.1Zm-6.5-9.6l-1.8,1.8-1.8-1.8,1.8-1.8,1.8,1.8Z"/><path id="PATH_59" d="m155.33,326.8c0,.9-.2,1.8-.7,2.5-.2.4-.4.7-.4.7,0,0-.2-.2-.2-.9,0-2.7-.4-9-1.3-19l1.8-1.8.2-.2v.4c.6,3.1.6,9.2.6,18.3h0Z"/><path id="PATH_60" d="m173.03,329.5h-.9c-.9,0-1.6-.2-2.2-.9-.4-.4-.9-.9-1.3-1.8-.4.9-1.1,1.6-1.8,2-.9.4-2,.7-3.8.7-3.1,0-4.7-1.1-4.7-3.4,0-.7.2-1.6.7-2.2.2-.2.2-.4.4-.4s.2.2.2.4v1.4c0,1.3,1.1,2,3.4,2,3.1,0,4.7-.7,4.7-1.8,0-.7-.9-3.1-2.7-7.4l.9-1.8c.2-.2.2-.4.2-.4,0,0,.2.2.2.4.7,1.8,1.8,4.5,3.1,8.1.7,1.8,1.6,2.7,2.9,2.7h.7v2.4h0Z"/><path id="PATH_61" d="m186.62,325.1c0,.9-.2,1.8-.9,2.7-.7,1.1-1.3,1.6-2.2,1.6-.7,0-2.2-.4-4.7-1.6-2,1.3-3.8,1.8-5.4,1.8h-1.1v-2.8h1.3c.9,0,1.8,0,2.7-.2-.9-.7-1.3-1.6-1.3-2.7,0-1.3.9-2.9,2.9-4.5l-1.6-.7,2-2c2,1.1,3.8,2,5.4,3.4,1.8,1.8,2.9,3.4,2.9,5h0Zm-6-1.8c0-.7-.2-1.1-.4-1.6-.2-.7-.7-.9-1.3-.9s-1.1.2-1.8.7-1.1,1.1-1.1,1.6c0,.9.9,1.8,2.5,2.2.4-.2.9-.4,1.3-.7.5-.4.8-.9.8-1.3h0Zm4.7,2.6c0-.7-.4-1.3-1.3-2.2-.7-.7-1.3-1.3-2-1.6,0,1.8-.4,3.1-1.6,4,1.8.7,3.1.9,3.6.9.8.1,1.3-.4,1.3-1.1h0Z"/><path id="PATH_62" d="m191.83,326.8c0,.9-.2,1.8-.7,2.5-.2.4-.4.7-.4.7,0,0-.2-.2-.2-.9,0-2.7-.4-9-1.3-19l1.8-1.8.2-.2v.4c.6,3.1.6,9.2.6,18.3h0Z"/><path id="PATH_63" d="m203.22,329.8c0,2.2-.7,4.3-2,6.3-1.1,1.6-2.2,2.5-2.9,2.5-1.8,0-3.1,0-4.5-.2-.4,0-.7-.2-.7-.2,0,0,.2-.2.7-.2,1.8-.4,3.6-1.3,5.4-2.7,1.8-1.6,2.9-3.1,2.9-4.7,0-.9-.7-2.2-2.2-3.8l1.1-2c0-.2.2-.2.2-.2l.2.2c.4.7,1.1,1.6,1.3,2.7.1.5.5,1.6.5,2.3h0Zm-1.8-11.9l-1.8,1.8-1.8-1.8,1.8-1.8,1.8,1.8Z"/></g><g id="G_64"><path id="PATH_65" d="m381.33,419.6c0,1.6-.4,2.7-1.3,3.6s-2.2,1.1-3.6,1.1c-.9,0-1.8-.2-2.5-.9-.7-.7-1.1-1.3-1.1-2.2,0-1.1.4-2.2,1.3-3.8.7-1.3,1.6-2.5,2.5-3.4,3.2,1.6,4.7,3.4,4.7,5.6h0Zm-1.3.9c0-.7-.4-1.3-1.6-2.2-.9-.9-1.6-1.3-2.5-1.6-1.1,1.6-1.8,2.7-1.8,3.6,0,.4.2.9.9,1.3.4.2.9.4,1.6.4.9,0,1.8-.2,2.5-.4.7-.6.9-.9.9-1.1h0Z"/><path id="PATH_66" d="m392.83,423.4c0,3.4-1.1,6.3-3.4,8.5-.7.7-1.1,1.1-1.3,1.1-1.3,0-2.7-.2-4.3-.4-.7,0-.9-.2-.9-.2,0,0,.2-.2.9-.4,1.8-.4,3.6-1.6,5.2-2.9.7-.7,1.3-1.1,1.8-2,.7-.9,1.1-1.8,1.1-2.5v-.7h-2.9c-2,0-3.1-.9-3.1-2.5,0-1.1.2-2.2.9-3.6.7-1.3,1.6-2.2,2.5-2.2,1.3,0,2.5.9,3.1,2.9.1,1.6.4,3.1.4,4.9h0Zm-1.6-2c0-.7-.2-1.3-.7-2-.4-.7-1.1-1.1-1.8-1.1-.4,0-.9.2-1.1.4-.2.2-.4.7-.4,1.1,0,1.1.7,1.6,2.2,1.6.2.2.9.2,1.8,0Z"/><path id="PATH_67" d="m401.72,424.3h-1.6c-1.6,0-2.9-.7-3.4-2-.4-.9-.7-2.5-.7-4.3v-4.2c0-2-.2-4.9-.4-8.7l1.3-1.6c.2-.2.4-.2.4,0,.2,2,.4,4.9.4,8.7v6.5c0,1.8.9,2.7,2.7,2.7h1.1v2.9h.2Z"/><path id="PATH_68" d="m419.22,417.8l-.9,1.8c-1.6,0-2.9,0-3.6.2-.9.4-2.2.9-4,1.8s-3.1,1.6-4,1.8c-1.3.4-2.9.7-4.3.7h-1.6v-2.7h1.8c2,0,3.8-.4,5.4-1.1l5.2-2.2c-.9-.2-2.2-.7-4-1.3-1.6-.7-2.5-.9-2.9-.9-.9,0-1.8.4-2.7,1.1-.13.13-.27.2-.4.2s-.2-.07-.2-.2v-.2c.7-2.2,2-3.1,3.8-3.1.7,0,1.6.2,2.5.7,1.8.9,3.1,1.3,4,1.8,1.6.4,3.4.9,5.4.9.4,0,.7,0,.7.2,0,.1,0,.3-.2.5h0Zm-7.4,11l-1.8,1.8-1.8-1.8,1.8-1.8,1.8,1.8Z"/><path id="PATH_69" d="m433.33,424.3h-.9c-.9,0-1.3-.2-1.8-.4v.7c0,2-.7,4-2,6-1.1,1.8-2.2,2.5-2.9,2.5-1.8,0-3.1,0-4.5-.2-.4,0-.7-.2-.7-.2,0,0,.2-.2.7-.2,1.8-.4,3.6-1.3,5.4-2.7,1.8-1.6,2.9-3.1,2.9-4.7,0-.9-.7-2.2-2.2-3.8l1.1-2c0-.2.2-.2.2-.2l.2.2c.7.9,1.1,1.6,1.6,1.8.7.4,1.6.9,2.5.9h.7v2.5h-.3v-.2h0Z"/><path id="PATH_70" d="m444.52,424.3h-1.8c-2,0-3.4-.7-4.3-2-.7,1.3-2.2,2-4.7,2h-1.3v-2.7h2c2.2,0,3.4-.9,3.6-2.5,0-.7.2-1.1.4-1.1s.4.4.4,1.1c.2,1.6,1.3,2.5,3.4,2.5h2v2.7h.3Zm-7.4,4.9l-1.8,1.8-1.8-1.8,1.8-1.8,1.8,1.8Zm3.8,0l-1.8,1.8-1.8-1.8,1.8-1.8,1.8,1.8Z"/><path id="PATH_71" d="m455.52,419.8c0,1.1,0,2-.4,2.9-.4,1.1-1.1,1.8-1.8,1.8-1.1,0-2.9-.7-5.2-2.2-.7.9-1.1,1.3-1.3,1.6-.7.4-1.3.7-2.2.7h-.9v-2.8h1.6c.9,0,1.8-.4,2.7-1.6.4-.4,1.1-1.6,2-2.9.7-1.1,1.6-1.6,2.2-1.6,1.1,0,2,.4,2.7,1.6.4,1,.6,1.6.6,2.5h0Zm-1.3,1.6c0-.7-.2-1.3-.7-2.2s-1.1-1.3-1.8-1.3-1.3.7-2.2,2c.4.4,1.1.9,2,1.3s1.8.7,2.2.7c.5.2.5-.1.5-.5Z"/></g><g id="G_72"><path id="PATH_73" d="m287.02,551.1c0,3.1-1.3,4.7-4,4.7-1.6,0-2.5-.7-2.9-2-.7,1.3-1.8,2-3.1,2-.4,0-1.1,0-1.6-.2,0,1.3-.2,2.7-.2,4.3-.7,1.6-1.8,2.9-3.8,3.8-1.8.7-3.6,1.1-5.6,1.1s-3.6-.4-4.9-1.3c-1.3-1.1-2-2.5-2-4.5,0-1.1.2-2,.7-3.4.4-.9.7-1.6,1.1-2,.2-.2.4-.2.4-.2.13,0,.2.07.2.2v.4c-.7,1.3-.9,2.7-.9,3.8s.4,2,1.1,2.9c.9,1.1,2.5,1.6,4.5,1.6,2.2,0,4.3-.4,5.8-1.1,1.3-.7,2.2-1.3,2.5-2.2.2-.2.2-.7,0-1.6,0-.7-.2-1.3-.2-1.6-.2-.7-.9-1.8-2.2-3.4l.9-1.8c.2-.2.2-.4.2-.4,0,0,.2,0,.2.2.7.9,1.1,1.6,1.3,1.8.7.7,1.3.9,2.2.9s1.8-.2,2.2-.9c.2-.4.4-.9.7-2,0-.4.2-.7.4-.7s.2.2.2.7c.2,1.1.4,1.8.9,2.2s1.3.7,2.5.7c.4,0,.9-.2,1.1-.4.4-.2.7-.7.7-1.1,0-.7-.4-1.3-1.3-2.5l1.1-2,.2-.2.2.2c1.2,1.6,1.4,2.9,1.4,4h0Zm-7.4-8.3l-1.6,1.6-1.6-1.6,1.6-1.6,1.6,1.6Zm2-3.3l-1.6,1.6-1.6-1.6,1.6-1.6,1.6,1.6Zm2,3.3l-1.6,1.6-1.6-1.6,1.6-1.6,1.6,1.6Z"/><path id="PATH_74" d="m296.02,555.8h-1.6c-1.6,0-2.9-.7-3.4-2-.4-.9-.7-2.5-.7-4.3v-4.3c0-2-.2-4.9-.4-8.7l1.3-1.6c.2-.2.4-.2.4,0,.2,2,.4,4.9.4,8.7v6.5c0,1.8.9,2.7,2.7,2.7h1.1v3h.2Z"/><path id="PATH_75" d="m313.43,549.3l-.9,1.8c-1.6,0-2.9,0-3.6.2-.9.4-2.2.9-4,1.8-1.8.9-3.1,1.6-4,1.8-1.3.4-2.9.7-4.3.7h-1.6v-2.7h1.8c2,0,3.8-.4,5.4-1.1l5.2-2.2c-.9-.2-2.2-.7-4-1.3-1.6-.7-2.5-.9-2.9-.9-.9,0-1.8.4-2.7,1.1-.13.13-.27.2-.4.2s-.2-.07-.2-.2v-.2c.7-2.2,2-3.1,3.8-3.1.7,0,1.6.2,2.5.7,1.8.9,3.1,1.3,4,1.8,1.6.4,3.4.9,5.4.9.4,0,.7,0,.7.2.1.1.1.3-.2.5h0Zm-6.2-10l-1.8,1.8-1.8-1.8,1.8-1.8,1.8,1.8Z"/></g><g id="G_76"><path id="PATH_77" d="m456.62,644.8c.2.7.2,1.3.2,2,0,.9-.2,1.6-.4,2.5-.7,1.6-1.8,2.9-4,3.8-1.8.7-3.6,1.1-5.6,1.1s-3.6-.4-4.9-1.3c-1.3-1.1-2-2.5-2-4.5,0-1.1.2-2,.7-3.4.4-.9.7-1.6,1.1-2,.2-.2.4-.2.4-.2.13,0,.2.07.2.2v.4c-.7,1.3-.9,2.7-.9,3.8s.4,2,1.1,2.9c.9,1.1,2.5,1.6,4.5,1.6,2.2,0,4.3-.4,5.8-1.1,1.3-.7,2.2-1.3,2.7-2.2.2-.2.2-.7.2-.9,0-.7-.2-1.3-.4-2.2-.2-.7-.9-1.8-2-3.6l.9-1.8c.2-.2.2-.4.2-.4,0,0,.2,0,.2.2.9,1.7,1.6,3.3,2,5.1h0Zm-6.7-9.6l-1.8,1.8-1.8-1.8,1.8-1.8,1.8,1.8Z"/><path id="PATH_78" d="m462.02,642.3c0,.9-.2,1.8-.7,2.5-.2.4-.4.7-.4.7,0,0-.2-.2-.2-.9,0-2.7-.4-9-1.3-19l1.8-1.8.2-.2v.4c.6,3.1.6,9.1.6,18.3Z"/><path id="PATH_79" d="m473.62,644.3c0,3.4-1.1,6.3-3.4,8.5-.7.7-1.1,1.1-1.3,1.1-1.3,0-2.7-.2-4.3-.4-.7,0-.9-.2-.9-.2,0,0,.2-.2.9-.4,1.8-.4,3.6-1.6,5.2-2.9.7-.7,1.3-1.1,1.8-2,.7-.9,1.1-1.8,1.1-2.5v-.7h-2.9c-2,0-3.1-.9-3.1-2.5,0-1.1.2-2.2.9-3.6s1.6-2.2,2.5-2.2c1.3,0,2.5.9,3.1,2.9.2,1.6.4,3.2.4,4.9h0Zm-1.7-2c0-.7-.2-1.3-.7-2-.4-.7-1.1-1.1-1.8-1.1-.4,0-.9.2-1.1.4s-.4.7-.4,1.1c0,1.1.7,1.6,2.2,1.6.4.3,1.1.3,1.8,0Z"/><path id="PATH_80" d="m478.83,642.3c0,.9-.2,1.8-.7,2.5-.2.4-.4.7-.4.7,0,0-.2-.2-.2-.9,0-2.7-.4-9-1.3-19l1.8-1.8.2-.2v.4c.6,3.1.6,9.1.6,18.3Z"/><path id="PATH_81" d="m492.72,645.2h-.9c-.9,0-1.3-.2-1.8-.4v.7c0,2-.7,4-2,6-1.1,1.8-2.2,2.5-2.9,2.5-1.8,0-3.1,0-4.5-.2-.4,0-.7-.2-.7-.2,0,0,.2-.2.7-.2,1.8-.4,3.6-1.3,5.4-2.7,1.8-1.6,2.9-3.1,2.9-4.7,0-.9-.7-2.2-2.2-3.8l1.1-2c0-.2.2-.2.2-.2l.2.2c.7.9,1.1,1.6,1.6,1.8.7.4,1.6.9,2.5.9h.7v2.5h-.3v-.2h0Z"/><path id="PATH_82" d="m510.43,640.3c0,1.3-.2,2.5-.9,3.4-.7.9-1.8,1.6-2.9,1.6-1.6,0-2.5-.7-3.1-1.8-.9,1.3-1.8,1.8-3.1,1.8-1.6,0-2.7-.7-3.4-1.8-.9,1.3-2,1.8-3.6,1.8h-1.6v-2.7h1.8c1.6,0,2.7-.9,2.9-2.7,0-.4.2-.7.4-.7s.2.2.4.7c.2,1.8,1.1,2.7,2.9,2.7.9,0,1.8-.2,2.2-.7.2-.4.4-.9.7-1.8,0-.4.2-.7.4-.7s.2.2.4.7c.2,1.8,1.1,2.7,2.7,2.7,1.8,0,2.5-.4,2.5-1.1s-.4-1.6-1.3-2.5l1.1-2c.2-.2.2-.4.4-.4s.2.2.4.4c.5,1.1.7,2.2.7,3.1Z"/></g><g id="G_83"><path id="PATH_84" d="m547.12,833.9c.2.7.2,1.3.2,2,0,.9-.2,1.6-.4,2.5-.7,1.6-1.8,2.9-4,3.8-1.8.7-3.6,1.1-5.6,1.1s-3.6-.4-4.9-1.3c-1.3-1.1-2-2.5-2-4.5,0-1.1.2-2,.7-3.4.4-.9.7-1.6,1.1-2,.2-.2.4-.2.4-.2.13,0,.2.07.2.2v.4c-.7,1.3-.9,2.7-.9,3.8s.4,2,1.1,2.9c.9,1.1,2.5,1.6,4.5,1.6,2.2,0,4.3-.4,5.8-1.1,1.3-.7,2.2-1.3,2.7-2.2.2-.2.2-.7.2-.9,0-.7-.2-1.3-.4-2.2-.2-.7-.9-1.8-2-3.6l.9-1.8c.2-.2.2-.4.2-.4,0,0,.2,0,.2.2,1.1,1.5,1.8,3.3,2,5.1h0Zm-6.5-9.6l-1.8,1.8-1.8-1.8,1.8-1.8,1.8,1.8Z"/><path id="PATH_85" d="m552.53,831.4c0,.9-.2,1.8-.7,2.5-.2.4-.4.7-.4.7,0,0-.2-.2-.2-.9,0-2.7-.4-9-1.3-19l1.8-1.8.2-.2v.4c.6,3.1.6,9.2.6,18.3h0Z"/><path id="PATH_86" d="m563.92,834.4c0,2.2-.7,4.3-2,6.3-1.1,1.6-2.2,2.5-2.9,2.5-1.8,0-3.1,0-4.5-.2-.4,0-.7-.2-.7-.2,0,0,.2-.2.7-.2,1.8-.4,3.6-1.3,5.4-2.7,1.8-1.6,2.9-3.1,2.9-4.7,0-.9-.7-2.2-2.2-3.8l1.1-2c0-.2.2-.2.2-.2l.2.2c.4.7,1.1,1.6,1.3,2.7.3.7.5,1.6.5,2.3h0Z"/><path id="PATH_87" d="m577.83,834.1h-2.5c-.2,3.1-1.3,5.6-3.6,7.8-.7.7-1.1,1.1-1.3,1.1-1.1,0-2.7-.2-4.3-.4-.4,0-.9-.2-.9-.2,0,0,.2-.2.9-.4,1.8-.4,3.6-1.6,5.2-2.7.7-.7,1.3-1.1,1.8-2,.7-.9,1.1-1.8,1.1-2.5v-.7h-2.9c-2.2,0-3.1-.9-3.1-2.7,0-1.1.2-2.2.9-3.6.7-1.3,1.6-2.2,2.5-2.2,1.1,0,2,.7,2.7,2.2.4,1.1.9,2.2.9,3.6h2.5v2.7h.1,0Zm-4-2.4c0-.7-.2-1.3-.7-2-.4-.9-1.1-1.1-1.8-1.1-.4,0-.9.2-1.1.4s-.4.7-.4,1.3c0,1.1.9,1.6,2.7,1.6.2-.2.6-.2,1.3-.2Z"/><path id="PATH_88" d="m595.53,829.4c0,1.3-.2,2.5-.9,3.4s-1.8,1.6-2.9,1.6c-1.6,0-2.5-.7-3.1-1.8-.9,1.3-1.8,1.8-3.1,1.8-1.6,0-2.7-.7-3.4-1.8-.9,1.3-2,1.8-3.6,1.8h-1.6v-2.7h1.8c1.6,0,2.7-.9,2.9-2.7,0-.4.2-.7.4-.7s.2.2.4.7c.2,1.8,1.1,2.7,2.9,2.7.9,0,1.8-.2,2.2-.7.2-.4.4-.9.7-1.8,0-.4.2-.7.4-.7s.2.2.4.7c.2,1.8,1.1,2.7,2.7,2.7,1.8,0,2.5-.4,2.5-1.1s-.4-1.6-1.3-2.5l1.1-2c.2-.2.2-.4.4-.4s.2.2.4.4c.3,1.1.7,2.2.7,3.1h0Z"/><path id="PATH_89" d="m615.92,833.2c0,3.4-1.1,6.3-3.4,8.5-.7.7-1.1,1.1-1.3,1.1-1.3,0-2.7-.2-4.3-.4-.7,0-.9-.2-.9-.2,0,0,.2-.2.9-.4,1.8-.4,3.6-1.6,5.2-2.9.7-.7,1.3-1.1,1.8-2,.7-.9,1.1-1.8,1.1-2.5v-.7h-2.9c-2,0-3.1-.9-3.1-2.5,0-1.1.2-2.2.9-3.6.7-1.3,1.6-2.2,2.5-2.2,1.3,0,2.5.9,3.1,2.9.2,1.8.4,3.4.4,4.9h0Zm-1.5-1.8c0-.7-.2-1.3-.7-2s-1.1-1.1-1.8-1.1c-.4,0-.9.2-1.1.4s-.4.7-.4,1.1c0,1.1.7,1.6,2.2,1.6.2.3.9.3,1.8,0Z"/><path id="PATH_90" d="m651.62,834.1h-.9c-1.1,0-2-.2-2.5-.7-.7-.4-1.1-1.3-1.1-2.2-2.5,2.2-6.3,3.4-11.4,3.4-5.4,0-8.1-1.6-8.1-4.9,0-1.1.4-2.2,1.3-3.4.13-.13.27-.2.4-.2s.2.07.2.2v.4c-.2.7-.4,1.3-.4,2,0,2.2,2.5,3.4,7.4,3.4,5.6,0,9.4-1.1,11.2-3.6.4-.4.7-.7.9-.7s.2.2.2.4,0,.4-.2.9c0,.4-.2.7-.2.9,0,1.1.9,1.8,2.5,1.8h.9v2.2h-.2v.1h0Zm-11.9,5.2l-1.8,1.8-1.8-1.8,1.8-1.8,1.8,1.8Z"/><path id="PATH_91" d="m662.53,834.1h-1.6c-2,0-3.4-.7-4.3-2-.7,1.3-2.2,2-4.7,2h-1.3v-2.7h2c2.2,0,3.4-.9,3.6-2.5,0-.7.2-1.1.4-1.1s.4.4.4,1.1c.2,1.6,1.3,2.5,3.4,2.5h2v2.7h.1,0Zm-7.4,5l-1.8,1.8-1.8-1.8,1.8-1.8,1.8,1.8Zm4.1,0l-1.8,1.8-1.8-1.8,1.8-1.8,1.8,1.8Z"/><path id="PATH_92" d="m680.22,829.4c0,1.3-.2,2.5-.9,3.4s-1.8,1.6-2.9,1.6c-1.6,0-2.5-.7-3.1-1.8-.9,1.3-1.8,1.8-3.1,1.8-1.6,0-2.7-.7-3.4-1.8-.9,1.3-2,1.8-3.6,1.8h-1.6v-2.7h1.8c1.6,0,2.7-.9,2.9-2.7,0-.4.2-.7.4-.7s.2.2.4.7c.2,1.8,1.1,2.7,2.9,2.7.9,0,1.8-.2,2.2-.7.2-.4.4-.9.7-1.8,0-.4.2-.7.4-.7s.2.2.4.7c.2,1.8,1.1,2.7,2.7,2.7,1.8,0,2.5-.4,2.5-1.1s-.4-1.6-1.3-2.5l1.1-2c.2-.2.2-.4.4-.4s.2.2.4.4c.5,1.1.7,2.2.7,3.1h0Z"/></g><g id="G_93"><path id="PATH_94" d="m480.83,872c.2.7.2,1.3.2,2,0,.9-.2,1.6-.4,2.5-.7,1.6-1.8,2.9-4,3.8-1.8.7-3.6,1.1-5.6,1.1s-3.6-.4-4.9-1.3c-1.3-1.1-2-2.5-2-4.5,0-1.1.2-2,.7-3.4.4-.9.7-1.6,1.1-2,.2-.2.4-.2.4-.2.13,0,.2.07.2.2v.4c-.7,1.3-.9,2.7-.9,3.8s.4,2,1.1,2.9c.9,1.1,2.5,1.6,4.5,1.6,2.2,0,4.3-.4,5.8-1.1,1.3-.7,2.2-1.3,2.7-2.2.2-.2.2-.7.2-.9,0-.7-.2-1.3-.4-2.2-.2-.7-.9-1.8-2-3.6l.9-1.8c.2-.2.2-.4.2-.4,0,0,.2,0,.2.2,1.1,1.5,1.8,3.3,2,5.1h0Zm-6.5-9.6l-1.8,1.8-1.8-1.8,1.8-1.8,1.8,1.8Z"/><path id="PATH_95" d="m490.02,872.2h-1.6c-1.6,0-2.9-.7-3.4-2-.4-.9-.7-2.5-.7-4.3v-4.3c0-2-.2-4.9-.4-8.7l1.3-1.6c.2-.2.4-.2.4,0,.2,2,.4,4.9.4,8.7v6.5c0,1.8.9,2.7,2.7,2.7h1.1v3h.2Z"/><path id="PATH_96" d="m501.02,872.2h-1.8c-2,0-3.4-.7-4.3-2-.7,1.3-2.2,2-4.7,2h-1.3v-2.7h2c2.2,0,3.4-.9,3.6-2.5,0-.7.2-1.1.4-1.1s.4.4.4,1.1c.2,1.6,1.3,2.5,3.4,2.5h2v2.7h.3Zm-7.6-13l-1.8,1.8-1.8-1.8,1.8-1.8,1.8,1.8Zm3.8,0l-1.8,1.8-1.8-1.8,1.8-1.8,1.8,1.8Z"/><path id="PATH_97" d="m518.72,867.5c0,1.3-.2,2.5-.9,3.4s-1.8,1.6-2.9,1.6c-1.6,0-2.5-.7-3.1-1.8-.9,1.3-1.8,1.8-3.1,1.8-1.6,0-2.7-.7-3.4-1.8-.9,1.3-2,1.8-3.6,1.8h-1.6v-2.7h1.8c1.6,0,2.7-.9,2.9-2.7,0-.4.2-.7.4-.7s.2.2.4.7c.2,1.8,1.1,2.7,2.9,2.7.9,0,1.8-.2,2.2-.7.2-.4.4-.9.7-1.8,0-.4.2-.7.4-.7s.2.2.4.7c.2,1.8,1.1,2.7,2.7,2.7,1.8,0,2.5-.4,2.5-1.1s-.4-1.6-1.3-2.5l1.1-2c.2-.2.2-.4.4-.4s.2.2.4.4c.2,1.1.7,2.2.7,3.1Z"/><path id="PATH_98" d="m532.62,872.2h-.9c-.9,0-1.3-.2-1.8-.4v.7c0,2-.7,4-2,6-1.1,1.8-2.2,2.5-2.9,2.5-1.8,0-3.1,0-4.5-.2-.4,0-.7-.2-.7-.2,0,0,.2-.2.7-.2,1.8-.4,3.6-1.3,5.4-2.7,1.8-1.6,2.9-3.1,2.9-4.7,0-.9-.7-2.2-2.2-3.8l1.1-2c0-.2.2-.2.2-.2l.2.2c.7.9,1.1,1.6,1.6,1.8.7.4,1.6.9,2.5.9h.7v2.5h-.3v-.2h0Z"/><path id="PATH_99" d="m546.72,872.2h-1.1c-.9,0-1.8.2-2.5.4-1.1.4-1.8,1.1-1.8,2.2,0,1.3.9,2.5,2.7,3.6l-1.1,2.2c-2-.7-3.8-1.8-5.2-3.1-1.8-1.6-2.7-3.6-2.7-5.6h-3.1v-2.7h2.9c0-1.8.4-3.6,1.3-5.8.9-2,1.6-2.9,2-2.9s1.1.9,1.8,2.9c.7,1.8.9,2.9.9,3.6,0,3.1-1.6,4.7-4.7,4.7.2.9.7,1.8,1.3,2.7s1.6,1.6,2.5,2v-.9c0-1.6.4-2.9,1.1-4,1.1-1.6,2.5-2.5,4.5-2.5h.9v3.1h.3v.1h0Zm-7-3.6c0-.4-.2-1.3-.7-2.5-.4-1.3-.9-1.8-1.3-1.8-.2,0-.7.4-1.1,1.6-.4,1.1-.7,2.5-.7,3.8,2.7.1,3.8-.4,3.8-1.1Z"/><path id="PATH_100" d="m557.72,868c0,1.1,0,2-.4,2.9-.4,1.1-1.1,1.8-1.8,1.8-1.1,0-2.9-.7-5.2-2.2-.7.9-1.1,1.3-1.3,1.6-.7.4-1.3.7-2.2.7h-1.1v-2.7h1.6c.9,0,1.8-.4,2.7-1.6.4-.4,1.1-1.6,2-2.9.7-1.1,1.6-1.6,2.2-1.6,1.1,0,2,.4,2.7,1.6.6.6.8,1.5.8,2.4Zm-1.4,1.5c0-.7-.2-1.3-.7-2.2-.4-.9-1.1-1.3-1.8-1.3s-1.3.7-2.2,2c.4.4,1.1.9,2,1.3s1.8.7,2.2.7c.33,0,.5-.17.5-.5Z"/></g><g id="G_101"><path id="PATH_102" d="m438.02,941.9h-.9c-.9,0-1.6-.2-2.2-.9-.4-.4-.9-.9-1.3-1.8-.4.9-1.1,1.6-1.8,2-.9.4-2,.7-3.8.7-3.1,0-4.7-1.1-4.7-3.4,0-.7.2-1.6.7-2.2.2-.2.2-.4.4-.4s.2.2.2.4v1.4c0,1.3,1.1,2,3.4,2,3.1,0,4.7-.7,4.7-1.8,0-.7-.9-3.1-2.7-7.4l.9-1.8c.2-.2.2-.4.2-.4,0,0,.2.2.2.4.7,1.8,1.8,4.5,3.1,8.1.7,1.8,1.6,2.7,2.9,2.7h.7v2.4h0Z"/><path id="PATH_103" d="m449.02,941.9h-1.8c-2,0-3.4-.7-4.3-2-.7,1.3-2.2,2-4.7,2h-1.3v-2.7h2c2.2,0,3.4-.9,3.6-2.5,0-.7.2-1.1.4-1.1s.4.4.4,1.1c.2,1.6,1.3,2.5,3.4,2.5h2v2.7h.3Zm-4.3-11.6l-1.8,1.8-1.8-1.8,1.8-1.8,1.8,1.8Z"/><path id="PATH_104" d="m457.72,935.6c0,2-.2,3.4-.7,4-1.1,1.6-2.9,2.2-5.8,2.2h-3.1v-2.7h2.2c3.8,0,5.8-.7,6.3-1.8.2-.4,0-.9-.2-1.3-.9.2-1.8.2-2.9.2-2,0-3.1-.9-3.1-2.7,0-1.1.2-2.5.9-3.6.7-1.3,1.6-2,2.7-2,.9,0,1.8.7,2.5,1.8.8,1.7,1.2,3.7,1.2,5.9h0Zm-4.2-12.3l-1.8,1.8-1.8-1.8,1.8-1.8,1.8,1.8Zm2.7,10.3c0-.7-.2-1.3-.7-2-.4-.7-1.1-.9-1.8-.9-.4,0-.9.2-1.3.4s-.4.7-.4,1.1c0,.9.7,1.3,2.2,1.3.4.3,1.1.3,2,.1h0Zm1.1-10.3l-1.8,1.8-1.8-1.8,1.8-1.8,1.8,1.8Z"/><path id="PATH_105" d="m480.43,941.9h-.9c-.9,0-1.3-.2-1.8-.4v.7c0,2-.7,4-2,6-1.1,1.8-2.2,2.5-2.9,2.5-1.8,0-3.1,0-4.5-.2-.4,0-.7-.2-.7-.2,0,0,.2-.2.7-.2,1.8-.4,3.6-1.3,5.4-2.7,1.8-1.6,2.9-3.1,2.9-4.7,0-.9-.7-2.2-2.2-3.8l1.1-2c0-.2.2-.2.2-.2l.2.2c.7.9,1.1,1.6,1.6,1.8.7.4,1.6.9,2.5.9h.7v2.5h-.3v-.2h0Z"/><path id="PATH_106" d="m501.93,941.9h-1.8c-1.6,0-3.1-.2-4.9-.7-1.6.4-3.6.7-5.8.7-1.6,0-2.7,0-3.4-.2-1.1-.2-1.8-.9-2.2-1.8-.9,1.3-2,2-3.4,2h-.9v-2.7h.9c1.8,0,2.7-.9,2.9-2.7,0-.4.2-.7.4-.7s.4.2.4.7c.2,1.6.9,2.5,2.2,2.5,4.3-4.5,7.4-6.7,9.9-6.7,1.1,0,2,.2,2.7.9s1.1,1.6,1.1,2.5c0,1.3-.4,2.5-1.6,3.6h3.1v2.7h.4v-.1h0Zm-3.6-4.7c0-.7-.4-1.3-1.1-1.8-.7-.4-1.3-.7-2-.7-2,0-4.5,1.3-7.2,4.3h2c1.6,0,3.1-.2,4.7-.4,2.5-.1,3.6-.7,3.6-1.4h0Z"/><path id="PATH_107" d="m510.62,935.6c0,2-.2,3.4-.7,4-1.1,1.6-2.9,2.2-5.8,2.2h-3.1v-2.7h2.2c3.8,0,5.8-.7,6.3-1.8.2-.4,0-.9-.2-1.3-.9.2-1.8.2-2.9.2-2,0-3.1-.9-3.1-2.7,0-1.1.2-2.5.9-3.6.7-1.3,1.6-2,2.7-2,.9,0,1.8.7,2.5,1.8.8,1.7,1.2,3.7,1.2,5.9h0Zm-4.5-12.3l-1.8,1.8-1.8-1.8,1.8-1.8,1.8,1.8Zm2.7,10.3c0-.7-.2-1.3-.7-2-.4-.7-1.1-.9-1.8-.9-.4,0-.9.2-1.3.4s-.4.7-.4,1.1c0,.9.7,1.3,2.2,1.3.7.3,1.4.3,2,.1h0Zm1.1-10.3l-1.8,1.8-1.8-1.8,1.8-1.8,1.8,1.8Z"/></g><g id="G_108"><path id="PATH_109" d="m288.12,978.2c0,2.2-.7,4.3-2,6.3-1.1,1.6-2.2,2.5-2.9,2.5-1.8,0-3.1,0-4.5-.2-.4,0-.7-.2-.7-.2,0,0,.2-.2.7-.2,1.8-.4,3.6-1.3,5.4-2.7,1.8-1.6,2.9-3.1,2.9-4.7,0-.9-.7-2.2-2.2-3.8l1.1-2c0-.2.2-.2.2-.2l.2.2c.4.7,1.1,1.6,1.3,2.7.3.5.5,1.4.5,2.3h0Z"/><path id="PATH_110" d="m296.93,978h-1.6c-1.6,0-2.9-.7-3.4-2-.4-.9-.7-2.5-.7-4.3v-4.3c0-2-.2-4.9-.4-8.7l1.3-1.6c.2-.2.4-.2.4,0,.2,2,.4,4.9.4,8.7v6.5c0,1.8.9,2.7,2.7,2.7h1.1v3h.2Z"/><path id="PATH_111" d="m310.83,978h-1.2c-.9,0-1.8.2-2.5.4-1.1.4-1.8,1.1-1.8,2.2,0,1.3.9,2.5,2.7,3.6l-1.1,2.2c-2-.7-3.8-1.8-5.2-3.1-1.8-1.6-2.7-3.6-2.7-5.6h-3.1v-2.7h2.9c0-1.8.4-3.6,1.3-5.8.9-2,1.6-2.9,2-2.9s1.1.9,1.8,2.9c.7,1.8.9,2.9.9,3.6,0,3.1-1.6,4.7-4.7,4.7.2.9.7,1.8,1.3,2.7.7.9,1.6,1.6,2.5,2v-.9c0-1.6.4-2.9,1.1-4,1.1-1.6,2.5-2.5,4.5-2.5h.9v3.1h.4v.1h0Zm-6.8-3.6c0-.4-.2-1.3-.7-2.5-.4-1.3-.9-1.8-1.3-1.8-.2,0-.7.4-1.1,1.6s-.7,2.5-.7,3.8c2.5-.2,3.8-.4,3.8-1.1h0Z"/><path id="PATH_112" d="m316.12,973.5c0,2.9-1.6,4.5-4.5,4.5h-1.8v-2.7h1.6c2.2,0,3.4-.4,3.4-1.1s-.4-1.6-1.6-2.7l.9-2.2c0-.2.2-.2.2-.2l.4.4c1,1.1,1.4,2.4,1.4,4Zm-.6,9.4l-1.8,1.8-1.8-1.8,1.8-1.8,1.8,1.8Z"/><path id="PATH_113" d="m325.12,978h-1.6c-1.6,0-2.9-.7-3.4-2-.4-.9-.7-2.5-.7-4.3v-4.3c0-2-.2-4.9-.4-8.7l1.3-1.6c.2-.2.4-.2.4,0,.2,2,.4,4.9.4,8.7v6.5c0,1.8.9,2.7,2.7,2.7h1.1v3h.2Z"/><path id="PATH_114" d="m342.62,971.5l-.9,1.8c-1.6,0-2.9,0-3.6.2-.9.4-2.2.9-4,1.8-1.8.9-3.1,1.6-4,1.8-1.3.4-2.9.7-4.3.7h-1.6v-2.7h1.8c2,0,3.8-.4,5.4-1.1l5.2-2.2c-.9-.2-2.2-.7-4-1.3-1.6-.7-2.5-.9-2.9-.9-.9,0-1.8.4-2.7,1.1-.13.13-.27.2-.4.2s-.2-.07-.2-.2v-.2c.7-2.2,2-3.1,3.8-3.1.7,0,1.6.2,2.5.7,1.8.9,3.1,1.3,4,1.8,1.6.4,3.4.9,5.4.9.4,0,.7,0,.7.2l-.2.5h0Zm-12.4,10.5l1.6-1.6,1.6,1.6-1.6,1.6-1.6-1.6Zm2.1,3.6l1.6-1.6,1.6,1.6-1.6,1.6-1.6-1.6Zm1.8-3.6l1.6-1.6,1.6,1.6-1.6,1.6-1.6-1.6Z"/></g><g id="G_115"><path id="PATH_116" d="m311.02,831.7c0,2.2-.7,4.3-2,6.3-1.1,1.6-2.2,2.5-2.9,2.5-1.8,0-3.1,0-4.5-.2-.4,0-.7-.2-.7-.2,0,0,.2-.2.7-.2,1.8-.4,3.6-1.3,5.4-2.7,1.8-1.6,2.9-3.1,2.9-4.7,0-.9-.7-2.2-2.2-3.8l1.1-2c0-.2.2-.2.2-.2l.2.2c.4.7,1.1,1.6,1.3,2.7.3.5.5,1.6.5,2.3h0Zm-1.8-11.9l-1.8,1.8-1.8-1.8,1.8-1.8,1.8,1.8Z"/><path id="PATH_117" d="m319.72,831.4h-1.6c-1.6,0-2.9-.7-3.4-2-.4-.9-.7-2.5-.7-4.3v-4.3c0-2-.2-4.9-.4-8.7l1.3-1.6c.2-.2.4-.2.4,0,.2,2,.4,4.9.4,8.7v6.5c0,1.8.9,2.7,2.7,2.7h1.1v3h.2Z"/><path id="PATH_118" d="m325.12,827c0,2.9-1.6,4.5-4.5,4.5h-1.8v-2.7h1.6c2.2,0,3.4-.4,3.4-1.1s-.4-1.6-1.6-2.7l.9-2.2c0-.2.2-.2.2-.2l.4.4c.9,1.3,1.4,2.6,1.4,4Zm-.7,9.4l-1.8,1.8-1.8-1.8,1.8-1.8,1.8,1.8Z"/><path id="PATH_119" d="m339.02,831.4h-.9c-.9,0-1.3-.2-1.8-.4v.7c0,2-.7,4-2,6-1.1,1.8-2.2,2.5-2.9,2.5-1.8,0-3.1,0-4.5-.2-.4,0-.7-.2-.7-.2,0,0,.2-.2.7-.2,1.8-.4,3.6-1.3,5.4-2.7,1.8-1.6,2.9-3.1,2.9-4.7,0-.9-.7-2.2-2.2-3.8l1.1-2c0-.2.2-.2.2-.2l.2.2c.7.9,1.1,1.6,1.6,1.8.7.4,1.6.9,2.5.9h.7v2.5h-.3v-.2h0Z"/><path id="PATH_120" d="m356.72,826.7c0,1.3-.2,2.5-.9,3.4s-1.8,1.6-2.9,1.6c-1.6,0-2.5-.7-3.1-1.8-.9,1.3-1.8,1.8-3.1,1.8-1.6,0-2.7-.7-3.4-1.8-.9,1.3-2,1.8-3.6,1.8h-1.3v-2.7h1.8c1.6,0,2.7-.9,2.9-2.7,0-.4.2-.7.4-.7s.2.2.4.7c.2,1.8,1.1,2.7,2.9,2.7.9,0,1.8-.2,2.2-.7.2-.4.4-.9.7-1.8,0-.4.2-.7.4-.7s.2.2.4.7c.2,1.8,1.1,2.7,2.7,2.7,1.8,0,2.5-.4,2.5-1.1s-.4-1.6-1.3-2.5l1.1-2c.2-.2.2-.4.4-.4s.2.2.4.4c.2.9.4,2.2.4,3.1Z"/></g><g id="G_121"><path id="PATH_122" d="m123.22,953.3c0,.4-.4,1.3-.9,2.5-1.3.4-3.1.9-5.6,1.8s-4.3,1.6-5.2,2c1.8,1.8,2.9,3.1,3.6,3.8,1.1,1.6,1.8,2.9,2,4.5,0,1.1,0,2.2-.4,3.1-.9,2-3.1,2.9-6.9,2.9h-4.7c-5.4,0-8.3-1.6-8.3-4.7,0-1.1.4-2.2,1.1-3.4l.4-.4c.13,0,.2.07.2.2v.4c-.2.9-.4,1.3-.4,2,0,.9.4,1.6,1.1,2,1.1.9,2.9,1.3,5.4,1.3h5.2c1.8,0,3.1,0,3.8-.2,1.6-.2,2.5-1.1,2.5-2,0-1.6-1.1-3.6-3.6-5.8l-.2.4c-.2-.2-.7-.7-1.1-1.3-.7-.9-.9-1.3-.9-1.3,0-.4,0-.9.2-1.8s.4-1.3.7-1.6,1.8-.9,4.7-1.8c2.6-1,5.3-1.9,7.3-2.6h0Z"/><path id="PATH_123" d="m133.72,974.4c0,2.2-.7,4.3-2,6.3-1.1,1.6-2.2,2.5-2.9,2.5-1.8,0-3.1,0-4.5-.2-.4,0-.7-.2-.7-.2,0,0,.2-.2.7-.2,1.8-.4,3.6-1.3,5.4-2.7,1.8-1.6,2.9-3.1,2.9-4.7,0-.9-.7-2.2-2.2-3.8l1.1-2c0-.2.2-.2.2-.2l.2.2c.4.7,1.1,1.6,1.3,2.7.3.5.5,1.4.5,2.3h0Z"/><path id="PATH_124" d="m142.72,974.2h-1.6c-1.6,0-2.9-.7-3.4-2-.4-.9-.7-2.5-.7-4.3v-4.3c0-2-.2-4.9-.4-8.7l1.3-1.6c.2-.2.4-.2.4,0,.2,2,.4,4.9.4,8.7v6.5c0,1.8.9,2.7,2.7,2.7h1.1v3h.2Z"/><path id="PATH_125" d="m153.72,974.2h-1.8c-2,0-3.4-.7-4.3-2-.7,1.3-2.2,2-4.7,2h-1.3v-2.7h2c2.2,0,3.4-.9,3.6-2.5,0-.7.2-1.1.4-1.1s.4.4.4,1.1c.2,1.6,1.3,2.5,3.4,2.5h2v2.7h.3Zm-4.5-11.7l-1.8,1.8-1.8-1.8,1.8-1.8,1.8,1.8Z"/><path id="PATH_126" d="m167.62,953.3c0,.4-.4,1.3-.9,2.5l-5.6,1.8c-2.5.9-4.3,1.6-5.2,2,1.8,1.8,2.9,3.1,3.6,3.8,1.1,1.6,1.8,2.9,2,4.5,0,1.1,0,2.2-.4,3.1-.7,2-3.1,2.9-6.9,2.9h-1.1v-2.7h1.3c1.8,0,3.1,0,3.8-.2,1.6-.4,2.5-1.1,2.5-2.2,0-1.6-1.1-3.4-3.6-5.6l-.2.4c-.2-.2-.7-.7-1.1-1.3-.7-.7-.9-1.3-.9-1.3,0-.4,0-.9.2-1.8s.4-1.3.7-1.6c.2-.2,1.8-.9,4.7-1.8,2.4-.9,5.1-1.8,7.1-2.5h0Z"/></g><g id="G_127"><path id="PATH_128" d="m85.12,872.7h-.9c-.9,0-1.3-.2-1.8-.4v.7c0,2-.7,4-2,6-1.1,1.8-2.2,2.5-2.9,2.5-1.8,0-3.1,0-4.5-.2-.4,0-.7-.2-.7-.2,0,0,.2-.2.7-.2,1.8-.4,3.6-1.3,5.4-2.7,1.8-1.6,2.9-3.1,2.9-4.7,0-.9-.7-2.2-2.2-3.8l1.1-2c0-.2.2-.2.2-.2l.2.2c.7.9,1.1,1.6,1.6,1.8.7.4,1.6.9,2.5.9h.4v2.3h0Z"/><path id="PATH_129" d="m99.02,872.7h-1.1c-.9,0-1.8.2-2.5.4-1.1.4-1.8,1.1-1.8,2.2,0,1.3.9,2.5,2.7,3.6l-1.1,2.2c-2-.7-3.8-1.8-5.2-3.1-1.8-1.6-2.7-3.6-2.7-5.6h-3.1v-2.6h2.9c0-1.8.4-3.6,1.3-5.8.9-2,1.6-2.9,2-2.9s1.1.9,1.8,2.9c.7,1.8.9,2.9.9,3.6,0,3.1-1.6,4.7-4.7,4.7.2.9.7,1.8,1.3,2.7.7.9,1.6,1.6,2.5,2v-.9c0-1.6.4-2.9,1.1-4,1.1-1.6,2.5-2.5,4.5-2.5h.9v3.1h.3,0Zm-6.9-3.6c0-.4-.2-1.3-.7-2.5-.4-1.3-.9-1.8-1.3-1.8-.2,0-.7.4-1.1,1.6-.4,1.1-.7,2.5-.7,3.8,2.6-.2,3.8-.4,3.8-1.1Z"/><path id="PATH_130" d="m116.72,867.7c0,1.3-.2,2.5-.9,3.4s-1.8,1.6-2.9,1.6c-1.6,0-2.5-.7-3.1-1.8-.9,1.3-1.8,1.8-3.1,1.8-1.6,0-2.7-.7-3.4-1.8-.9,1.3-2,1.8-3.6,1.8h-1.6v-2.7h1.8c1.6,0,2.7-.9,2.9-2.7,0-.4.2-.7.4-.7s.2.2.4.7c.2,1.8,1.1,2.7,2.9,2.7.9,0,1.8-.2,2.2-.7.2-.4.4-.9.7-1.8,0-.4.2-.7.4-.7s.2.2.4.7c.2,1.8,1.1,2.7,2.7,2.7,1.8,0,2.5-.4,2.5-1.1s-.4-1.6-1.3-2.5l1.1-2c.2-.2.2-.4.4-.4s.2.2.4.4c.3,1.1.7,2.2.7,3.1Zm-7.6-8l-1.6,1.6-1.6-1.6,1.6-1.6,1.6,1.6Zm2-3.6l-1.6,1.6-1.6-1.6,1.6-1.6,1.6,1.6Zm2,3.6l-1.6,1.6-1.6-1.6,1.6-1.6,1.6,1.6Z"/><path id="PATH_131" d="m156.42,872.7h-1.8c-1.1,0-2.2-.7-3.6-1.8-.7-.7-1.6-1.8-2.7-3.4,0,1.6-.2,2.7-.9,3.4-1.1,1.3-3.4,2-6.7,2h-4.5c-5.4,0-8.3-1.6-8.3-4.7,0-1.1.4-2.2,1.1-3.4l.4-.4c.13,0,.2.07.2.2v.4c-.2.9-.4,1.3-.4,2,0,.9.4,1.6,1.1,2,1.1.9,2.9,1.3,5.4,1.3h4.5c2.5,0,4.3-.2,5.2-.4,1.1-.4,1.6-1.1,1.6-2s-.4-2-1.6-3.4c-.7-.7-1.6-1.8-2.9-2.9-1.1-.9-1.6-1.6-1.6-1.6,0-1.6.2-2.5.7-3.1,0-.2,1.6-.7,4.7-1.8,3.1-1.1,5.8-2,7.8-2.7,0,.2-.2,1.1-.7,2.5-2.5.7-6,2-11,3.8,2.2,2,4.7,4.9,7.6,8.7,1.1,1.3,2,2.2,2.7,2.7.4.2,1.3.4,2.2.4h.9v2h.6v.2Z"/><path id="PATH_132" d="m167.42,872.7h-1.8c-2,0-3.4-.7-4.3-2-.7,1.3-2.2,2-4.7,2h-1.3v-2.7h2c2.2,0,3.4-.9,3.6-2.5,0-.7.2-1.1.4-1.1s.4.4.4,1.1c.2,1.6,1.3,2.5,3.4,2.5h2v2.7h.3Zm-7.4,4.9l-1.8,1.8-1.8-1.8,1.8-1.8,1.8,1.8Zm3.8,0l-1.8,1.8-1.8-1.8,1.8-1.8,1.8,1.8Z"/><path id="PATH_133" d="m172.72,868.2c0,2.9-1.6,4.5-4.5,4.5h-1.8v-2.7h1.6c2.2,0,3.4-.4,3.4-1.1s-.4-1.6-1.6-2.7l.9-2.2c0-.2.2-.2.2-.2l.4.4c1,1.1,1.4,2.4,1.4,4h0Zm-.2-10.3l-1.8,1.8-1.8-1.8,1.8-1.8,1.8,1.8Z"/></g><g id="G_140"><path id="PATH_141" d="m60.52,706c.2.7.2,1.3.2,2,0,.9-.2,1.6-.4,2.5-.7,1.6-1.8,2.9-4,3.8-1.8.7-3.6,1.1-5.6,1.1s-3.6-.4-4.9-1.3c-1.3-1.1-2-2.5-2-4.5,0-1.1.2-2,.7-3.4.4-.9.7-1.6,1.1-2,.2-.2.4-.2.4-.2.13,0,.2.07.2.2v.4c-.7,1.3-.9,2.7-.9,3.8s.4,2,1.1,2.9c.9,1.1,2.5,1.6,4.5,1.6,2.2,0,4.3-.4,5.8-1.1,1.3-.7,2.2-1.3,2.7-2.2.2-.2.2-.7.2-.9,0-.7-.2-1.3-.4-2.2-.2-.7-.9-1.8-2-3.6l.9-1.8c.2-.2.2-.4.2-.4,0,0,.2,0,.2.2,1.1,1.5,1.7,3.3,2,5.1h0Zm-6.5-9.7l-1.8,1.8-1.8-1.8,1.8-1.8,1.8,1.8Z"/><path id="PATH_142" d="m69.72,706.2h-1.6c-1.6,0-2.9-.7-3.4-2-.4-.9-.7-2.5-.7-4.3v-4.3c0-2-.2-4.9-.4-8.7l1.3-1.6c.2-.2.4-.2.4,0,.2,2,.4,4.9.4,8.7v6.5c0,1.8.9,2.7,2.7,2.7h1.1v3h.2Z"/><path id="PATH_143" d="m84.72,706.2h-1.3c-1.1,0-2.5-.4-3.6-1.6-.9-.7-1.8-2-2.9-3.6-.2,3.4-2.5,5.2-6.9,5.2h-1.3v-2.7h.9c4,0,6.3-.9,6.3-2.5,0-1.3-.9-2.9-2.9-4.7-.9-.9-1.8-1.6-2.9-2.5,0-.9.2-1.6.7-2.2.2-.2,4.3-1.6,12.3-4,0,.2-.2,1.1-.7,2.5-2,.4-5.4,1.6-9.9,2.9,2.2,2.5,4.5,4.7,6,6.7,1.1,1.1,1.8,2,2.5,2.5.9.7,2,1.1,3.1,1.1h.9v2.9h-.3,0Zm-2.3-21.5l-.4,1.6-11,3.6.4-1.6,11-3.6Z"/><path id="PATH_144" d="m90.02,688.5c.2.2.2.4.2.4h-1.1c.2,2.9.2,7.2.2,12.8,0,1.3-.2,2.5-.9,3.1-.7.9-1.8,1.3-2.9,1.3h-1.3v-2.7h.9c1.8,0,2.7-.7,2.5-2-.2-4.7-.4-9.6-.7-14.6l1.6-1.3.4-.4s0,.2.2.4c.1,1,.3,1.9.9,3Z"/><path id="PATH_145" d="m95.22,703.5c0,.9-.2,1.8-.7,2.5-.2.4-.4.7-.4.7,0,0-.2-.2-.2-.9,0-2.7-.4-9-1.3-19l1.8-1.8.2-.2v.4c.6,3.1.6,9.1.6,18.3Z"/><path id="PATH_146" d="m109.12,701.5c0,3.1-2,4.7-6.3,4.7-1.6,0-2.7-.2-3.4-.7-.9-.4-1.3-1.6-1.3-2.9,0-.7.2-1.3.4-2,.2-.2.2-.4.4-.4s.2.2.2.7v.7c0,.9.4,1.6,1.3,1.8.4.2,1.3.2,2.5.2,3.4,0,4.9-.4,4.9-1.6,0-1.6-2-3.8-5.8-6.5l.7-2.2c0-.2.2-.2.2-.2,0,0,.2,0,.4.2,3.8,3,5.8,5.7,5.8,8.2Z"/></g><g id="G_147"><path id="PATH_148" d="m152.12,656h-.9c-.9,0-1.3-.2-1.8-.4v.7c0,2-.7,4-2,6-1.1,1.8-2.2,2.5-2.9,2.5-1.8,0-3.1,0-4.5-.2-.4,0-.7-.2-.7-.2,0,0,.2-.2.7-.2,1.8-.4,3.6-1.3,5.4-2.7,1.8-1.6,2.9-3.1,2.9-4.7,0-.9-.7-2.2-2.2-3.8l1.1-2c0-.2.2-.2.2-.2l.2.2c.7.9,1.1,1.6,1.6,1.8.7.4,1.6.9,2.5.9h.7v2.5h-.3v-.2h0Z"/><path id="PATH_149" d="m166.03,656h-1.1c-.9,0-1.8.2-2.5.4-1.1.4-1.8,1.1-1.8,2.2,0,1.3.9,2.5,2.7,3.6l-1.1,2.2c-2-.7-3.8-1.8-5.2-3.1-1.8-1.6-2.7-3.6-2.7-5.6h-3.1v-2.7h2.9c0-1.8.4-3.6,1.3-5.8.9-2,1.6-2.9,2-2.9s1.1.9,1.8,2.9c.7,1.8.9,2.9.9,3.6,0,3.1-1.6,4.7-4.7,4.7.2.9.7,1.8,1.3,2.7.7.9,1.6,1.6,2.5,2v-.9c0-1.6.4-2.9,1.1-4,1.1-1.6,2.5-2.5,4.5-2.5h.9v3.1h.3v.1h0Zm-6.7-3.6c0-.4-.2-1.3-.7-2.5-.4-1.3-.9-1.8-1.3-1.8-.2,0-.7.4-1.1,1.6-.4,1.1-.7,2.5-.7,3.8,2.4-.2,3.8-.4,3.8-1.1Z"/><path id="PATH_150" d="m186.62,656h-1.3c-1.6,0-2.5-.7-3.1-1.8-.4,1.3-1.6,1.8-2.9,1.8s-2.2-.7-2.9-1.8c-.7,1.3-1.6,1.8-2.9,1.8-1.6,0-2.7-.7-3.4-1.8-.9,1.3-2,1.8-3.6,1.8h-1.6v-2.7h1.8c1.6,0,2.7-.9,2.9-2.7,0-.4.2-.7.4-.7s.2.2.4.7c.2,1.8,1.1,2.7,2.9,2.7,1.6,0,2.7-.9,2.7-2.7,0-.4.2-.7.4-.7s.4.2.4.7c.2,1.8,1.1,2.7,2.2,2.7,1.6,0,2.7-.9,2.7-2.7,0-.4.2-.7.4-.7s.4.2.4.7c.2,1.8,1.1,2.7,2.7,2.7h1.3v2.7h.1Zm-10.3-11.2l-1.6,1.6-1.6-1.6,1.6-1.6,1.6,1.6Zm2-3.6l-1.6,1.6-1.6-1.6,1.6-1.6,1.6,1.6Zm2,3.6l-1.6,1.6-1.8-1.6,1.6-1.6,1.8,1.6Z"/><path id="PATH_151" d="m192.03,651.5c0,2.9-1.6,4.5-4.5,4.5h-1.8v-2.7h1.6c2.2,0,3.4-.4,3.4-1.1s-.4-1.6-1.6-2.7l.9-2.2c0-.2.2-.2.2-.2l.4.4c1,1.1,1.4,2.7,1.4,4h0Zm-.2-10.1l-1.8,1.8-1.8-1.8,1.8-1.8,1.8,1.8Z"/><path id="PATH_152" d="m197.42,653.3c0,.9-.2,1.8-.7,2.5-.2.4-.4.7-.4.7,0,0-.2-.2-.2-.9,0-2.7-.4-9-1.3-19l1.8-1.8.2-.2v.4c.4,2.8.6,8.9.6,18.3h0Z"/><path id="PATH_153" d="m211.33,656h-.9c-.9,0-1.3-.2-1.8-.4v.7c0,2-.7,4-2,6-1.1,1.8-2.2,2.5-2.9,2.5-1.8,0-3.1,0-4.5-.2-.4,0-.7-.2-.7-.2,0,0,.2-.2.7-.2,1.8-.4,3.6-1.3,5.4-2.7,1.8-1.6,2.9-3.1,2.9-4.7,0-.9-.7-2.2-2.2-3.8l1.1-2c0-.2.2-.2.2-.2l.2.2c.7.9,1.1,1.6,1.6,1.8.7.4,1.6.9,2.5.9h.7v2.5h-.3v-.2h0Z"/><path id="PATH_154" d="m216.62,651.5c0,2.9-1.6,4.5-4.5,4.5h-1.8v-2.7h1.6c2.2,0,3.4-.4,3.4-1.1s-.4-1.6-1.6-2.7l.9-2.2c0-.2.2-.2.2-.2l.4.4c1,1.1,1.4,2.7,1.4,4h0Zm-1.7,9.4l-1.8,1.8-1.8-1.8,1.8-1.8,1.8,1.8Zm3.8,0l-1.8,1.8-1.8-1.8,1.8-1.8,1.8,1.8Z"/><path id="PATH_155" d="m224.03,653.3c0,.9-.2,1.8-.7,2.5-.2.4-.4.7-.4.7,0,0-.2-.2-.2-.9,0-2.7-.4-9-1.3-19l1.8-1.8.2-.2v.4c.6,2.8.6,8.9.6,18.3h0Z"/></g><polygon id="_568" class="cls-1" points="123.22 743.5 133.72 756.3 151.62 765 175.22 756.3 196.22 751.7 216.62 760.4 231.22 765 248.03 753.2 251.12 735.4 228.33 722.1 216.92 702.7 211.33 685.2 197.42 689.8 176.42 700.6 156.42 706.2 143.92 706.2 131.62 719 123.72 732.8 123.22 743.5"/><g id="G_151"><path id="PATH_152-2" d="m165.92,724.1l1.1,2c.4.8.8,1.6.8,2.9v1.7c0,1.3-.7,2.8-1.9,4.2-.9,1-1.7,1.4-2.5,1.4-1.1,0-2.4-.4-3.9-1.2l.2-.5c.5.2,1,.3,1.7.3,2.1,0,4.3-1.8,5.3-4.1.1-.3.2-.5.2-.7,0-.3-.1-.5-.2-.8-.5-1.2-1.2-2.3-1.8-3.3.2-.7.5-1.3,1-1.9h0Z"/><path id="PATH_153-2" d="m179.42,730v1.9h-1.3c-.1,1-.5,2.1-1.2,3.1-1.2,1.8-2.8,2.6-3.6,2.6-1.4,0-2.9-.6-4.4-1.5l.3-.5c.6.3,1.3.5,2.2.5,1.5,0,2.9-.8,4.2-2.1.7-.7,1.2-1.3,1.4-2.1h-.7c-3.1,0-4.7-1-4.7-3.1,0-1,.3-1.8.8-2.4.6-.8,1.4-1.5,2.3-1.5,1.4,0,2.8,2,3.3,5.1h1.4Zm-3.4-2.2c-.5-.5-1-.8-1.6-.8-.8,0-1.7.7-1.7,1.3,0,.8.7,1.2,1.6,1.5.8.2,1.7.2,2.7.2-.1-.9-.5-1.7-1-2.2Z"/><path id="PATH_154-2" d="m179.72,730c1.2,0,2.4-.5,2.6-1.3l.4-1.6,1-.8.1.1c-.2.8-.3,1.4-.3,1.8,0,.5.1,1,.5,1.3.5.4,1.1.6,1.9.6h.3v1.9h-.3c-1.5,0-2.6-.4-3.1-1.5h-.1c-.5,1-1.7,1.5-3,1.5h-.3c-.8,0-1.1-.6-1.1-1s.2-.9,1.1-.9h.3v-.1h0Zm1.5,7.2c-.6-.6-1.2-1.1-1.8-1.6.4-.5.8-1,1.2-1.4.6.5,1.1,1,1.7,1.6-.4.7-.7,1-1.1,1.4h0Zm2.1,3.1c-.6-.6-1.2-1.1-1.8-1.6.4-.5.8-1,1.2-1.4.6.5,1.1,1,1.7,1.6-.3.6-.6,1-1.1,1.4h0Zm.8-3.3c-.6-.6-1.2-1.1-1.8-1.6.4-.5.8-1,1.2-1.4.6.5,1.1,1,1.7,1.6-.3.7-.6,1.1-1.1,1.4h0Z"/><path id="PATH_155-2" d="m186.42,730c1.4,0,2.4-.3,3.7-1.3.2-1.5.9-3,2-4,1-.9,2.1-1.4,3.2-1.4s2,.6,2,1.5c0,.5-.1,1-.3,1.5h-.1c-.4-.8-1-1.1-1.9-1.1-.8,0-1.3.2-2,.6-.9.6-1.6,1.4-1.8,2.3h0c.5-.2,1-.4,1.5-.4.8,0,1.5.3,2,.8s.7,1.3.7,1.8c0,.6-.1,1.1-.4,1.7-.6,1.1-1.3,1.5-2.1,1.5s-1.6-.4-2.1-1.1c-.5-.5-.8-1.2-.8-1.9h-.1c-1.1,1.1-2.3,1.4-3.6,1.4h-.2c-.8,0-1.1-.6-1.1-1s.2-.9,1.1-.9h.3Zm7.1,1.7c.5,0,.8-.2,1-.4,0-1.1-1-1.9-2.2-1.9-.4,0-.8.1-1.2.3.3,1.1,1.4,2,2.4,2h0Zm1.5,3.7c.6.5,1.2,1,1.8,1.6-.3.5-.7,1-1.3,1.5-.6-.6-1.2-1-1.8-1.6.4-.5.8-1,1.3-1.5Z"/></g><g id="G_156"><path id="PATH_157" d="m81.22,788.8c-1.8-.7-2.8-.8-4.2-.8-.9,0-1.5.3-1.9.8l.3,1.3-.4,1.2h-.2l-.9-2.4c.1-1.7,1.5-2.7,3.3-2.7,1,0,2.6.4,5,1.3.7.3,1.5.5,2.6.5h1.3l-.9,1.5c-1,.1-3.3.7-4,1-3.3,1.2-5.6,3-5.6,5,0,3.1,3.3,5,7.6,5,1.4,0,2.6-.1,3.9-.3v.2c-.8.6-1.6,1.3-2.5,1.8-.8.2-1.8.3-2.9.3-4,0-7.3-1.9-7.3-6.1,0-3.8,3.1-6.6,6.8-7.6h0Zm-.2,5c.6.5,1.2,1,1.8,1.6-.3.5-.7,1-1.3,1.5-.6-.6-1.2-1-1.8-1.6.5-.5.9-1.1,1.3-1.5Z"/><path id="PATH_158" d="m97.62,791.8v1.9h-1.3c-.1,1-.5,2.1-1.2,3.1-1.2,1.8-2.8,2.6-3.6,2.6-1.4,0-2.9-.6-4.4-1.5l.3-.5c.6.3,1.3.5,2.2.5,1.5,0,2.9-.8,4.2-2.1.7-.7,1.2-1.3,1.4-2.1h-.6c-3.1,0-4.7-1-4.7-3.1,0-1,.3-1.8.8-2.4.6-.8,1.4-1.5,2.3-1.5,1.4,0,2.8,2,3.3,5.1h1.3,0Zm-3.4-2.2c-.5-.5-1-.8-1.6-.8-.8,0-1.7.7-1.7,1.3,0,.8.7,1.2,1.6,1.5.8.2,1.7.2,2.7.2-.1-.8-.5-1.6-1-2.2Z"/><path id="PATH_159" d="m97.92,791.8c1.2,0,2.4-.5,2.6-1.3l.4-1.6,1-.8.1.1c-.2.8-.3,1.4-.3,1.8,0,.5.1,1,.5,1.3.5.4,1.1.6,1.9.6h.3v1.9h-.3c-1.5,0-2.6-.4-3.1-1.5h-.1c-.5,1-1.7,1.5-3,1.5h-.3c-.8,0-1.1-.6-1.1-1s.2-.9,1.1-.9h.3v-.1Zm2.7-9.1c.6.5,1.2,1,1.8,1.6-.3.5-.7,1-1.3,1.5-.6-.6-1.2-1-1.8-1.6.5-.5.9-1,1.3-1.5Z"/><path id="PATH_160" d="m105.72,791.8c1.3,0,2.4,0,3.3-.3,1-.3,1.8-.9,1.8-1.3v-.3c-.5.1-1.2.1-1.7.1-1.8,0-3.1-.5-3.6-1.6-.1-.3-.2-.7-.2-1.1,0-1.1.4-2.2,1.1-3,.6-.6,1.3-1,2-1,1.2,0,2.2,1.2,2.9,3,.4,1,.6,2.1.6,3.6,0,1-.2,1.8-.7,2.4-1,1.1-2.7,1.5-5.4,1.5h-1.2c-.8,0-1.1-.6-1.1-1s.2-.9,1.1-.9h1.1v-.1h0Zm2.3-6.5c-1,0-1.8.8-1.8,1.3,0,1.2,2,1.6,4.4,1.6-.4-1.4-1.4-2.9-2.6-2.9h0Zm-.4-6.8c.6.5,1.2,1,1.8,1.6-.3.5-.7,1-1.3,1.5-.6-.6-1.2-1-1.8-1.6.5-.5.9-1.1,1.3-1.5Z"/></g></svg>