<?xml version="1.0" encoding="UTF-8"?><svg id="Layer_1" xmlns="http://www.w3.org/2000/svg" viewBox="0 0 1866.35 985.93"><defs><style>.cls-1{fill:#fff;}.cls-1,.cls-2,.cls-3{stroke:#000;stroke-miterlimit:10;stroke-width:.5px;}.cls-4{fill:#e8d0e5;}.cls-4,.cls-5,.cls-6,.cls-7,.cls-8,.cls-9,.cls-10{stroke-miterlimit:22.65;}.cls-4,.cls-5,.cls-6,.cls-7,.cls-8,.cls-10{stroke-width:.45px;}.cls-4,.cls-5,.cls-6,.cls-8,.cls-10{stroke:#020202;}.cls-5{fill:#fbd1d1;}.cls-6{fill:#dbeccb;}.cls-2{fill:#faf9d5;}.cls-7{fill:#d3d3d3;stroke:#030303;}.cls-8{fill:#fdfad6;}.cls-9{fill:none;stroke:#040404;stroke-width:1.13px;}.cls-3{fill:#ffefd5;}.cls-10{fill:#fffef5;}</style></defs><path id="_329" class="cls-4" d="m809.64,737.93c5.4-8.2.9-19.9-4.5-29.2-5.4-10-23.6-14.5-19.9-29.2,0-2.7,2.7-5.4,1.8-8.2-7.2-11.8-25.6-18.1-22.6-33.7.9-4.5,5.4-7.2,7.2-10.9,10.9-19.9-3.6-48.2,19.9-58.2,27.4-10.9,44.6-31,42.8-60.9-.25-4.19,5.25-4.92,5.4-8.2.27-5.83-7.69-10.92-14.35-14.28l-9.66-14.36c-2.17-4.79-4.33-9.57-6.5-14.36,1.41-3.09,3.55-8.99.95-13.49-1.97-3.39-5.68-4.34-14.15-6.31-21.81-5.09-26.3-4.19-28.3-8.2-2.7-5.4,0-15.4-7.2-19-6.3-1.8-10.9,4.5-15.4,6.3-11.8,2.7-25.4-2.7-31,9.1-4.5,9.1,2.7,19,10.9,24.7.12.85.2,1.76.22,2.7.16,5.96-1.95,10.83-3.78,14-.17,2.97-1.06,12.04-8.24,18.72-2.46,2.29-6.97,6.48-11.09,5.31-5.81-1.65-12.85-14.55-13.62-16.13-.05-.09-.17-.34-.41-.43-1.29-.47-3.83,4.26-5.71,6.66-2.13,2.72-6.08,5.86-14.09,7.33-6.31,3.38-12.63,6.77-18.94,10.15-4.67,1.03-11.35,3.15-17.84,7.98-12.44,9.27-13.16,20.34-24.91,26.72-3.78,2.05-9.7,4.16-18.6,3.6.5.2.9.7,1.4.9,3.6,1.8-.9,7.2-3.6,11.8-5.4,6.3-.9,15.4-3.6,23.8-1.8,2.7-4.5,5.4-8.2,3.6-21.1-14.5-43.7-20.8-67.3-27.4-5.4-1.8-8.2-6.3-12.7-10-3.6-1.8-8.2-1.8-11.8,0-7.2,2.7-13.6,10-21.7,10-17,.9-34,4.1-51,2.9,3.2,14.9-.5,31.9-3.2,44.4-1.1,5.2-2.3,10.4-2.3,12.7,0,7.9-3.6,21.5-8.4,40.3-6.6,25.8-14.9,58.2-14.9,81.5s-10.9,35.1-23.8,41.2c18.1,9.1,46.2,16.8,74.1-2,53.9-35.8,155.8-31.3,199.8-12.5,27.9,12,96.9,27.2,134.8,34.9,7.31-6.18,15.67-14.21,23.99-24.37,8.81-10.77,15.29-21.14,20.01-29.92Z"/><path id="_351" class="cls-6" d="m902.54,680.43c-14.5-.9-22.6-16.3-36.5-21.1-6.3-2.7-12.9,0-19,3.6-4.5,2.7-10.9,2.7-15.4.9-17.2-8.2-25.6-31-45.5-33.7-5.4-.7-10.6-1.4-15.9-1.6-2,2.7-5.2,5.2-5.9,8.8-2.7,15.4,15.4,21.7,22.6,33.7.9,2.7-1.8,5.4-1.8,8.2-3.6,14.5,14.5,19,20.2,29.2,5.4,9.1,10,20.8,4.5,29.2-14,17.9-24.5,43.9-44.2,54.6,15.4,3.2,25.6,5.2,26,5.2l8.4,1.6-1.4,8.4c-.2,1.1-3.6,28.1,35.1,42.6,17.4,6.6,40.1,12.2,62.1,17.9,44.8,11.3,72.7,19,81.5,31.9,7.5,11.1,63.9,56.6,101.9,85.8,23.8-27,56.2-69.5,56.2-87,0-28.3,0-60.2-20.6-80.9-22.9-22.9-53-58.7-65.5-83.6-4.1-8.2-12.7-27.6-14-49.8-43.8-10.9-88.7-2.1-132.8-3.9h0Z"/><path id="_350" class="cls-5" d="m879.64,657.83c7.2-3.6,19-7.2,15.4-16.3-3.6-10-19-14.5-15.4-26.3,3.6-9.1,16.3-15.4,11.8-26.3-3.6-9.1-11.8-15.4-19.9-20.2-1.8-.9-4.5-1.8-6.3-2.7-10.9-7.2-18.1-18.1-31-22.6-2.7-.9-5.4-1.4-7.9-1.6-7.5,12-19.5,21.1-34.9,27.2-23.8,10-9.1,38.3-19.9,58.2-.5.7-.9,1.4-1.4,2.3,5.2.2,10.6.7,15.9,1.6,19.9,2.7,28.3,25.6,45.5,33.7,4.5,1.8,10.9,1.8,15.4-.9,6.3-3.6,12.7-6.3,19-3.6,2.5.9,5,2,7.2,3.6,2-3.4,4.7-5,6.5-6.1h0Z"/><path id="_453" class="cls-8" d="m955.24,606.83c-.9-4.5-4.5-8.2-8.2-10-6.3-3.6-12.7,3.6-19,2.7-5.4-1.8-9.1-6.3-12.9-7.2-7.9-.7-16.1-.5-23.3-2.5,3.4,10.2-8.6,16.5-12.2,25.4-3.6,11.8,11.8,16.3,15.4,26.5,3.6,9.1-8.2,12.7-15.4,16.3-1.8,1.1-4.5,2.7-6.6,5.4,9.7,6.3,17.4,16.8,29.2,17.4,44.2,1.8,89-7.2,132.5,4.3-.5-6.1-.2-12.5.7-18.6-12.2-3.6-20.2-14.3-32.2-17.7-22.6-6.4-41.6-18.4-48-42h0Z"/><path id="_349" class="cls-6" d="m1066.54,554.73c-.2-.5-15.2-31-17.4-58.7-5.9-2.9-12.7-4.8-18.3-8.6-10.9-6.3-14.5-20.8-28.3-23.8-12.7-3.6-25.6,3.6-38.3.9-15.4-4.5-22.9-21.7-39.2-24.7-9.5-1.6-18.6-.5-27.4,2-1.6,4.3-4.1,8.6-5.4,12.5-2.7,8.2.9,17.2-3.6,25.6-8.2,15.4-26.5,5.4-41,7.2-3.6.9-6.3,6.3-8.2,11.8-.9,2.7-5.4,5.4-5.4,8.2.7,13.1-2.3,24.5-7.9,34,2.7.2,5.2.7,7.9,1.6,12.7,4.5,19.9,15.4,31,22.6,1.8.9,4.5,1.8,6.3,2.7,8.2,4.5,16.3,10.9,19.9,20.2.2.2.2.7.5,1.1,7.2,2.3,15.4,2,23.3,2.5,3.6.9,7.2,5.4,12.9,7.2,6.3.9,12.7-6.3,19-2.7,3.6,1.8,7.2,5.4,8.2,10,6.3,23.6,25.6,35.6,48.2,41.9,12,3.4,19.9,14,32.2,17.7,1.8-11.6,6.1-23.3,14.5-33.7,20.3-25.2,26.9-56.4,16.5-77.5h0Z"/><path id="PATH_8" class="cls-7" d="m1049.04,496.03c0-1.4-.2-2.7-.2-4.1-.7,1.1-1.6,2-2.3,2.9.7.6,1.6.8,2.5,1.2Z"/><path id="_7" class="cls-4" d="m1067.38,357.75c12.48-3.74,16.28-17.12,16.96-19.53,2.12-7.46,2.83-14.56-.9-20.8-13.4-22.4-14.9-45.5-9.7-67.9-15.6-6.6-29.4-13.8-39-25.6-8.4,5.7-15.9,12.2-18.8,20.6-4.5,10.9-13.6,18.1-19,28.3-1.8,2.7-1.8,7.2,0,10,11.89,18.49,33.61,24.99,35.42,41.33,1.37,12.4-14.55,20.29-11.22,27.17,2.81,5.79,16.4,4.98,26.6,3.6,1.9,1.11,10.18,5.66,19.64,2.83Z"/><path id="_335" class="cls-6" d="m699.34,212.53c0,2.7-2.7,5.4-4.5,8.2-2.7,6.3-10.9,9.1-14.5,15.4-7.2,14.5-6.3,30.1-6.3,44.6.9,16.3,21.7,15.4,31.7,4.5,4.5-3.6,4.5-10,5.4-16.3.9-7.2,11.8-10.9,18.1-6.3,9.1,5.4,19,16.3,30.1,10.9,10.9-5.4,22-17.2,33.7-12.7,10.9,3.6,15.4,16.3,23.8,25.6,2.7,1.8,5.4,2.7,8.2,3.6,10,3.6,22,0,31.9,6.3,11.8,6.3,30.1,13.6,43.7,0,13.6-14.5,33.7,1.8,52.8-3.6,7.2-1.8,16.3-6.3,23.8-2.7,8.6,3.4,15.4.2,22-4.5-.7-.9-1.4-1.8-1.8-2.7-1.8-2.7-1.8-7.2,0-10,5.4-10,14.7-17.2,19-28.3,2.7-8.4,10.4-15.2,18.8-20.6-4.3-5.2-7.5-11.6-9.7-18.8-10.4-36.5-31.9-71.1-55-88.3-9.1-6.8-29.9-17.2-52.1-28.3-33.7-16.8-72-35.8-93.3-53.5-17.9-14.9-37.8-26.7-56.6-34.7-2,18.3-6.3,53.5-10.6,70.7-2.7,10.4-7.2,17.9-12.2,25.6-7.5,11.8-15.9,25.1-22.4,55.5-4.5,20.2-14.3,31.5-26.5,37.6-2.5,7.6,1.8,14.6,2.5,22.8h0Z"/><path id="_221" class="cls-5" d="m487.34,364.73c3.6,0,9.1-6.3,10.9-2.7,11.8,16.3,26.5,12.7,41.9,10,5.4-.9,9.1,7.2,11.8,6.3,10.9-4.5,25.6-12.7,23.8-23.8-1.8-8.2-16.3,0-24.5-5.4-7.2-4.5-12.9-11.8-20.2-14.5-6.3-1.8-12.7,1.8-18.1,5.4-1.8.9-5.4.9-7.2-.9-7-8.6-16.5-13.1-26.3-16.5-6.6,7.5-13.8,13.1-21.3,17.7,5.6,13.3,14,24.4,29.2,24.4h0Z"/><path id="_326" class="cls-6" d="m638.44,475.73c1.8-5.1,3.6-10.2,5.4-15.3,2.91-.38,5.95-.98,9.1-1.9,19.51-5.68,31.55-19.94,37.4-28.3,4.5-6.3,3.6-19.9-5.4-22.6-9.1-1.8-15.4-6.3-22-12.7-1.8-1.8-4.5-2.7-7.2-2.7-19.9,2.7-35.6-2.7-53.7-12.7-11.8-6.3-26.5,15.4-36.5,29.2-1.8,2.7-1.8,6.3,0,9.1,11.8,17.2,4.5,34.7,6.3,52.8,0,4.5,5.4,8.2,7.2,12.7,2.7,4.5-.9,9.1-4.5,12.7-.9,1.8-.9,4.5,0,5.4,11.1,9.5,16.1,20.4,20.2,33.3,3.9-.7,7.7-1.1,11.8-2.5,14.5-5.4,18.1-27.4,33.7-31,8.6-2.5,16.5-6.8,24-11.6-11.01,3.47-21.09.7-24.59-5.55-.69-1.24-1.88-3.96-1.21-8.35Z"/><path id="_338" class="cls-4" d="m599.24,364.73c-2.7-8.8-14-12.7-24-11.1.2.2.2.7.2.9,1.8,10.9-12.7,19-23.8,23.8-2.7.9-6.3-7.2-11.8-6.3-15.4,2.7-30.1,6.3-41.9-10-1.8-3.6-7.2,2.7-10.9,2.7-14.9,0-23.6-11.1-29.2-24.5-6.3,3.9-12.7,6.8-18.8,9.1-.7,5.9-1.6,12,2.7,17.9,5.4,8.2,10.9,16.3,12.7,25.6,4.5,15.4-11.8,25.6-23.8,31-12.7,5.4-26.3,13.6-40.1,15.4-22.6,3.6-53.7,14.5-43.7,41,5.9,16.1,27.4,26.3,32.6,41,3.6.9,7,2.3,10.2,4.1.2-2.7.5-5.7,1.8-7.5,6.3-6.3,13.8-10.9,17.2-18.1,5.4-10.9,5.4-24.7,18.1-29.2,6.3-1.8,14.5,1.8,20.8-.9,9.1-3.6,17.2-11.8,28.3-10,8.2.9,12.9,8.2,19,10.9,10,3.6,19.9-4.5,28.3-.9,2.7.9,5,2.3,7.2,4.1,5.7-5.4,10.6-12,14.5-19.7,1.8-3.6,5.4-7.2,9.1-10.9,5.2-4.3,10.9-8.8,16.3-13.6-1.1-4.1-2.7-7.9-5.4-12-1.8-2.7-1.8-6.3,0-9.1,10-13.6,24.5-35.3,36.2-29.2.7-4.8,0-9.5-1.8-14.5h0Z"/><path id="_586" class="cls-8" d="m545.54,453.93c-4.1,7.7-8.8,14-14.5,19.5,6.3,5.2,10.6,13.1,18.3,18.6.9,1.8,1.8,5.4.9,8.2-4.5,8.2-15.4,15.4-8.2,23.6,7.2,9.1,20.8,0,29.2,3.6,5.9,1.6,11.8,5,17,8.2,2.3-.7,4.5-.9,6.8-1.4-3.9-12.9-9.1-23.8-20.2-33.3-.9-.9-.9-3.6,0-5.4,3.6-3.6,7.2-8.2,4.5-12.7-1.8-4.5-7.2-8.2-7.2-12.7-1.4-14,2.5-27.4-.9-40.8-5.4,4.8-11.1,9.3-16.3,13.6-4,3.5-7.6,7.2-9.4,11h0Z"/><path id="PATH_15" class="cls-8" d="m999.04,285.43c-6.6,4.5-13.4,7.9-22,4.5-7.2-3.6-16.3.9-23.8,2.7-19,5.4-39.2-10.9-52.8,3.6-13.6,13.6-31.9,6.3-43.7,0-10-6.3-21.7-2.7-31.9-6.3-2.7-.9-5.4-1.8-8.2-3.6-8.2-9.1-12.7-21.7-23.8-25.6-11.8-4.5-22.6,7.2-33.5,12.7-10.9,5.4-21.1-5.4-30.1-10.9-6.3-4.5-17.2-.9-18.1,6.3-.9,6.3-.9,12.7-5.4,16.3-10,10.9-31,11.8-31.9-4.5,0-14.5-.9-30.1,6.3-44.6,3.6-6.3,11.8-9.1,14.5-15.4,1.8-2.7,4.5-5.4,4.5-8.2-.7-8.2-5.2-15.2-3.2-22.9-20.6,10-48.5,4.5-69.3.7-4.3-.9-8.6-1.6-12.7-2.3-24-4.1-42.4,12-63.4,30.6-5.4,4.8-10.9,9.5-16.8,14-14.7,11.8-21.5,27.6-28.3,44.4-5.7,13.8-11.8,28.1-22.4,41.4-1.1,1.6-2.5,2.9-3.9,4.3,9.7,3.4,19,7.9,26.3,16.5,1.8,1.8,5.4,1.8,7.2.9,5.4-3.6,11.8-7.2,18.1-5.4,7.2,2.7,12.7,10,20.2,14.5,7.9,5.2,21.5-2,24.2,4.5,10-1.6,21.3,2,24,11.1,1.8,5,2.5,10,2.5,14.5h.2c18.1,10,33.7,15.4,53.7,12.7,2.7,0,5.4.9,7.2,2.7,6.3,6.3,12.9,10.9,22,12.7,9.1,2.7,10,16.3,5.4,22.6,3.92.31,9.56,1.21,15.84,3.84,5.5,2.3,9.67,5.16,12.52,7.47-.81-.94-7.82-9.29-4.86-16.9.28-.72,1.06-2.69,3.5-4.71,6.57-5.43,17.58-2.07,27.5-4.39,4.5-1.8,9.1-8.2,15.4-6.3,7.2,3.6,4.5,13.6,7.2,19,5.4,9.1,18.1,5.4,28.3,8.2,4.5.9,9.1,8.2,14.5,4.5,4.5-2.7,9.1-7.2,14.5-9.1,10.84-5.16,21.68-10.33,32.51-15.49,9.83,2.66,19.66,5.32,29.49,7.99l12.39,6.99c-.5,3.54-.99,7.07-1.49,10.61,6.36-2.29,16.24-3.85,27.4-2,16.3,2.7,23.6,19.9,39.2,24.5,11.3,2.5,22.6-3.2,34.2-1.8,0-.7-.2-1.4-.5-1.8-3.6-9.1-14.5-17.2-7.2-28.3,2.7-3.6,6.3-8.2,8.2-11.8,12.7-28.3,13.6-59.1,31-86.5,2.03-3.2,2.73-6.13,2.84-10.13.47-16.5-18.88-30.14-33.54-38.37Z"/><path id="_324" class="cls-5" d="m1448.54,348.13c-23.8-8.2-49.1-10.9-72.9-19.9-17.2-5.4-37.4-1.8-53.7-8.2-17.2-6.3-32.6-14.5-49.6-19.9-13.4,2.5-25.8,3.9-35.8,3.9-4.1,0-8.2.2-12,.2-19.68,0-29.52-.02-38.45-2.45-16.64-4.54-20.58-13-27.45-10.35-6.58,2.54-8.98,12.63-9.9,21.81-4.87,8.42-9.74,16.84-14.6,25.25-5.86,7.98-11.73,15.96-17.59,23.93-15.07-1.37-30.13-2.73-45.2-4.1-2.94,4.99-6.68,12.91-7.93,23.19-2.63,21.62,7.67,38.01,11.03,42.91.9,5.4,0,10.9-2.7,14.5-5,7-9.3,13.8-12.5,21.3,12-10.2,31.5-7.9,59.6,7.2,86.7,46.2,116,58,144.3,69.3,12.5,5,23.8,14.5,35.6,24.7,10,8.4,20.6,17.7,33.3,25.1,7.7-10,13.8-22.4,21.7-32.6,6.3-7.2,12.9-16.3,18.1-25.6,20.8-34.7,28.3-72.7,43.7-109.2,2.7-6.3,6.3-11.8,7.2-19,.9-.9,3.6-1.8,3.6-1.8,1.57-.82,25.04-13.59,25.4-35.6.09-5.66-1.37-10.62-3.2-14.6Z"/><path id="_323" class="cls-8" d="m1779.74,234.03c-12.7-4.3-36.5-9.5-62.1-14.9-44.2-9.7-94.7-20.6-113.9-32.2-21.1-12.7-103.1-30.1-141.1-19-5.4,1.6-12.5,4.5-15.2,9.7-18.3,36.7-72.3,78.6-101.9,96.5-20.6,12.5-48.5,21.5-73.2,26.3,17,5.4,32.4,13.6,49.6,19.9,16.3,6.3,36.5,2.7,53.7,8.2,23.8,9.1,49.1,11.8,72.9,20.2,3.6.9,8.2,9.1,3.6,14.5-9.1,10.9-19.9,20.8-25.4,35.6,0,0-2.7.9-3.6,1.8-.9,7.2-4.5,12.7-7.2,19-15.4,36.5-22.9,74.7-43.7,109.2-5.4,9.1-11.8,18.1-18.1,25.6-8.2,10.4-14.3,22.6-21.7,32.6,10,5.9,21.1,10.9,34.2,13.6,51.2,11.3,103.3-.9,112.3-18.6,13.6-27,80-96.9,143.6-125.9,40.3-18.3,76.1-48.7,104.6-73.2,15.4-13.1,28.8-24.5,39.6-31,15.9-9.5,28.3-22.9,39.2-34.9,8.4-9.1,16.1-17.4,24.2-22.9,10.4-7,26-23.6,35.8-34.4-21-6-61.1-17.6-86.2-25.7h0Z"/><path id="_337" class="cls-5" d="m459.94,548.63c8.2,0,14.7-7.2,22-10,3.6-1.8,8.2-1.8,11.8,0,4.5,3.6,7.2,8.2,12.7,10,23.8,6.3,46.4,12.7,67.5,27.4,3.6,1.8,6.3-.9,8.2-3.6,2.7-8.2-1.8-17.2,3.6-23.8,2.7-4.5,7.2-10,3.6-11.8-5.4-3.6-11.8-7.2-18.1-9.1-8.2-3.6-21.7,5.4-29.2-3.6-7.2-8.2,3.6-15.4,8.2-23.6.9-2.7,0-6.3-.9-8.2-10-7.2-14.5-19-25.6-22.6-8.2-3.6-18.1,4.5-28.3.9-6.3-2.7-10.9-10-19-10.9-10.9-1.8-19,6.3-28.3,10-6.3,2.7-14.5-.9-20.8.9-12.9,4.5-12.9,18.1-18.1,29.2-3.6,7.2-10.9,11.8-17.2,18.1-1.6,2-1.6,4.8-1.8,7.5,4.5,2.5,8.4,5.4,11.3,9.3,4.1,5,6.6,10.9,7.9,17.2,16.5.8,33.5-2.6,50.5-3.3h0Z"/><path id="_226" class="cls-6" d="m347.14,480.23c-10-26.5,21.1-37.4,43.7-41,13.8-1.8,27.4-10,40.1-15.4,11.8-5.4,28.3-15.4,23.8-31-1.8-9.1-7.2-17.2-12.7-25.6-4.3-5.9-3.2-12-2.7-17.9-16.8,6.1-31.9,7-38.3,7-5.4,0-17,.7-31.5,1.4-31.9,1.8-80,4.3-131.1,4.3-61.6,0-118.2,7.7-163.8,13.8-9.5,1.4-18.6,2.5-27,3.6-38.3,4.8-44.6,78.4-44.6,79-.2,2-1.1,3.9-2.5,5.4,33.5-1.6,71.6-3.2,86.7-3.2,5.4,0,11.1-.2,17.2-.5,27.9-.9,62.5-2.3,101.9,12.5,11.3,4.3,22.4,9.1,34.2,14.3,35.8,15.6,72.7,31.7,119.6,31.7,7.2,0,13.8.7,19.5,2.3-5.1-14.4-26.6-24.6-32.5-40.7h0Z"/><line id="LINE_20" class="cls-9" x1="617.84" y1="459.13" x2="585.84" y2="86.83"/><line id="LINE_21" class="cls-9" x1="479.44" y1="518.53" x2="356.44" y2="566.73"/><line id="LINE_22" class="cls-9" x1="563.44" y1="494.53" x2="358.94" y2="624.53"/><line id="LINE_23" class="cls-9" x1="1127.44" y1="205.93" x2="1032.74" y2="273.43"/><line id="LINE_24" class="cls-9" x1="519.54" y1="353.83" x2="440.44" y2="317.33"/><g id="G_25"><path id="PATH_26" d="m545.54,64.33h-.9c-.9,0-1.4-.2-1.8-.5v.7c0,2-.7,4.1-2,6.1-1.1,1.8-2.3,2.5-2.9,2.5-1.8,0-3.2,0-4.5-.2-.5,0-.7-.2-.7-.2,0,0,.2-.2.7-.2,1.8-.5,3.6-1.4,5.4-2.7,1.8-1.6,2.9-3.2,2.9-4.8,0-.9-.7-2.3-2.3-3.9l1.1-2c0-.2.2-.2.2-.2l.2.2c.7.9,1.1,1.6,1.6,1.8.7.5,1.6.9,2.5.9h.7v2.5h-.2Z"/><path id="PATH_27" d="m559.64,64.33h-1.1c-.9,0-1.8.2-2.5.5-1.1.5-1.8,1.1-1.8,2.3,0,1.4.9,2.5,2.7,3.6l-1.1,2.3c-2-.7-3.9-1.8-5.2-3.2-1.8-1.6-2.7-3.6-2.7-5.7h-3.2v-2.7h2.9c0-1.8.5-3.6,1.4-5.9.9-2,1.6-2.9,2-2.9.5,0,1.1.9,1.8,2.9.7,1.8.9,2.9.9,3.6,0,3.2-1.6,4.8-4.8,4.8.2.9.7,1.8,1.4,2.7.7.9,1.6,1.6,2.5,2v-.9c0-1.6.5-2.9,1.1-4.1,1.1-1.6,2.5-2.5,4.5-2.5h.9v3.2h.3,0Zm-6.8-3.6c0-.5-.2-1.4-.7-2.5-.5-1.4-.9-1.8-1.4-1.8-.2,0-.7.5-1.1,1.6s-.7,2.5-.7,3.9c2.5-.3,3.9-.5,3.9-1.2Z"/><path id="PATH_28" d="m580.44,64.33h-1.4c-1.6,0-2.5-.7-3.2-1.8-.5,1.4-1.6,1.8-2.9,1.8s-2.3-.7-2.9-1.8c-.7,1.4-1.6,1.8-2.9,1.8-1.6,0-2.7-.7-3.4-1.8-.9,1.4-2,1.8-3.6,1.8h-1.6v-2.7h1.8c1.6,0,2.7-.9,2.9-2.7,0-.5.2-.7.5-.7s.2.2.5.7c.2,1.8,1.1,2.7,2.9,2.7,1.6,0,2.7-.9,2.7-2.7,0-.5.2-.7.5-.7s.5.2.5.7c.2,1.8,1.1,2.7,2.3,2.7,1.6,0,2.7-.9,2.7-2.7,0-.5.2-.7.5-.7s.5.2.5.7c.2,1.8,1.1,2.7,2.7,2.7h1.4v2.7h-.5Zm-10.4-11.5l-1.6,1.6-1.6-1.6,1.6-1.6,1.6,1.6Zm2-3.4l-1.6,1.6-1.6-1.6,1.6-1.6,1.6,1.6Zm2.1,3.4l-1.6,1.6-1.6-1.6,1.6-1.6,1.6,1.6Z"/><path id="PATH_29" d="m591.74,59.83c0,1.1,0,2-.5,2.9-.5,1.1-1.1,1.8-1.8,1.8-1.1,0-2.9-.7-5.2-2.3-.7.9-1.1,1.4-1.4,1.6-.7.5-1.4.7-2.3.7h-1.1v-2.7h1.6c.9,0,1.8-.5,2.7-1.6.5-.5,1.1-1.6,2-2.9.7-1.1,1.6-1.6,2.3-1.6,1.1,0,2,.5,2.7,1.6.6.7,1,1.6,1,2.5Zm-1.3,1.6c0-.7-.2-1.4-.7-2.3s-1.1-1.4-1.8-1.4-1.4.7-2.3,2c.5.5,1.1.9,2,1.4s1.8.7,2.3.7c.2.3.5.1.5-.4Z"/><path id="PATH_30" d="m613.04,64.33h-1.4c-2.7,0-4.3-2-4.3-6.1v-2c-1.8,4.3-3.9,7.5-6.6,9.3-1.6.5-3.6.7-5.9.7h-.7s.7-.5,2-1.1c.9-.5,1.8-.9,2.7-1.4,1.6-.7,3.2-1.8,4.5-3.4-.7-2.3-1.6-4.3-2.9-6.1-.9-1.1-2.3-2.5-4.3-4.1l-.2.9c-.7-.5-1.1-.9-1.6-1.4-.7-.7-1.1-1.1-1.1-1.6s0-1.1.2-2.3c0-.2,0-.5.2-.5s.2,0,.5.2c2.9,2,5.2,4.1,6.6,5.9,1.8,2.3,2.9,4.8,3.6,7.7.9-1.1,1.6-2.3,2-3.6.7-1.6.9-2.9.9-4.1,0-2-.2-4.3-.5-6.8l1.8-1.6c.2,1.1.2,6.3.5,15.6,0,2,.9,3.2,2.7,3.2h1.1l.2,2.6h0Z"/><path id="PATH_31" d="m630.74,59.43c0,1.4-.2,2.5-.9,3.4s-1.8,1.6-2.9,1.6c-1.6,0-2.5-.7-3.2-1.8-.9,1.4-1.8,1.8-3.2,1.8-1.6,0-2.7-.7-3.4-1.8-.9,1.4-2,1.8-3.6,1.8h-1.6v-2.7h1.8c1.6,0,2.7-.9,2.9-2.7,0-.5.2-.7.5-.7s.2.2.5.7c.2,1.8,1.1,2.7,2.9,2.7.9,0,1.8-.2,2.3-.7.2-.5.5-.9.7-1.8,0-.5.2-.7.5-.7s.2.2.5.7c.2,1.8,1.1,2.7,2.7,2.7,1.8,0,2.5-.5,2.5-1.1,0-.7-.5-1.6-1.4-2.5l1.1-2c.2-.2.2-.5.5-.5s.2.2.5.5c0,1,.3,2.2.3,3.1h0Z"/><path id="PATH_32" d="m636.14,61.43c0,.9-.2,1.8-.7,2.5-.2.5-.5.7-.5.7,0,0-.2-.2-.2-.9,0-2.7-.5-9.1-1.4-19.3l1.8-1.8.2-.2v.5c.8,3.1.8,9.2.8,18.5h0Z"/></g><g id="G_33"><path id="PATH_34" d="m411.24,293.63c0,3.2-1.4,4.8-4.1,4.8-1.6,0-2.5-.7-2.9-2-.7,1.4-1.8,2-3.2,2-.5,0-1.1,0-1.6-.2,0,1.4-.2,2.7-.2,4.3-.7,1.6-1.8,2.9-3.9,3.9-1.8.7-3.6,1.1-5.7,1.1s-3.6-.5-5-1.4c-1.4-1.1-2-2.5-2-4.5,0-1.1.2-2,.7-3.4.5-.9.7-1.6,1.1-2,.2-.2.5-.2.5-.2.13,0,.2.07.2.2v.5c-.7,1.4-.9,2.7-.9,3.9s.5,2,1.1,2.9c.9,1.1,2.5,1.6,4.5,1.6,2.3,0,4.3-.5,5.9-1.1,1.4-.7,2.3-1.4,2.5-2.3.2-.2.2-.7,0-1.6,0-.7-.2-1.4-.2-1.6-.2-.7-.9-1.8-2.3-3.4l.9-1.8c.2-.2.2-.5.2-.5,0,0,.2,0,.2.2.7.9,1.1,1.6,1.4,1.8.7.7,1.4.9,2.3.9s1.8-.2,2.3-.9c.2-.5.5-.9.7-2,0-.5.2-.7.5-.7.2,0,.2.2.2.7.2,1.1.5,1.8.9,2.3.5.5,1.4.7,2.5.7.5,0,.9-.2,1.1-.5.5-.2.7-.7.7-1.1,0-.7-.5-1.4-1.4-2.5l1.1-2,.2-.2.2.2c1,1.4,1.5,2.5,1.5,3.9h0Z"/><path id="PATH_35" d="m428.94,298.33h-.9c-.9,0-1.6-.2-2.3-.9-.5-.5-.9-.9-1.4-1.8-.5.9-1.1,1.6-1.8,2-.9.5-2,.7-3.9.7-3.2,0-4.8-1.1-4.8-3.4,0-.7.2-1.6.7-2.3.2-.2.2-.5.5-.5.2,0,.2.2.2.5v1.4c0,1.4,1.1,2,3.4,2,3.2,0,4.8-.7,4.8-1.8,0-.7-.9-3.2-2.7-7.5l.9-1.8c.2-.2.2-.5.2-.5,0,0,.2.2.2.5.7,1.8,1.8,4.5,3.2,8.2.7,1.8,1.6,2.7,2.9,2.7h.7l.1,2.5h0Z"/><path id="PATH_36" d="m437.74,292.03c0,2-.2,3.4-.7,4.1-1.1,1.6-2.9,2.3-5.9,2.3h-3.2v-2.7h2.3c3.9,0,5.9-.7,6.3-1.8.2-.5,0-.9-.2-1.4-.9.2-1.8.2-2.9.2-2,0-3.2-.9-3.2-2.7,0-1.1.2-2.5.9-3.6.7-1.4,1.6-2,2.7-2,.9,0,1.8.7,2.5,1.8.9,1.7,1.4,3.5,1.4,5.8h0Zm-4.5-12.5l-1.8,1.8-1.8-1.8,1.8-1.8,1.8,1.8Zm2.7,10.4c0-.7-.2-1.4-.7-2-.5-.7-1.1-.9-1.8-.9-.5,0-.9.2-1.4.5-.5.2-.5.7-.5,1.1,0,.9.7,1.4,2.3,1.4.5.2,1.4.2,2.1-.1Zm1.1-10.4l-1.8,1.8-1.8-1.8,1.8-1.8,1.8,1.8Z"/></g><g id="G_37"><path id="PATH_38" d="m238.84,422.73c0,3.2-2,4.8-6.3,4.8-1.6,0-2.7-.2-3.4-.7-.9-.5-1.4-1.6-1.4-2.9,0-.7.2-1.4.5-2,.2-.2.2-.5.5-.5.2,0,.2.2.2.7v.7c0,.9.5,1.6,1.4,1.8.5.2,1.4.2,2.5.2,3.4,0,5-.5,5-1.6,0-1.6-2-3.9-5.9-6.6l.7-2.3c0-.2.2-.2.2-.2,0,0,.2,0,.5.2,3.5,2.9,5.5,5.9,5.5,8.4Z"/><path id="PATH_39" d="m250.24,427.63c0,2.3-.7,4.3-2,6.3-1.1,1.6-2.3,2.5-2.9,2.5-1.8,0-3.2,0-4.5-.2-.5,0-.7-.2-.7-.2,0,0,.2-.2.7-.2,1.8-.5,3.6-1.4,5.4-2.7,1.8-1.6,2.9-3.2,2.9-4.8,0-.9-.7-2.3-2.3-3.9l1.1-2c0-.2.2-.2.2-.2l.2.2c.5.7,1.1,1.6,1.4,2.7.2.7.5,1.6.5,2.5h0Z"/><path id="PATH_40" d="m271.54,427.43h-1.4c-2.7,0-4.3-2-4.3-6.1v-2c-1.8,4.3-3.9,7.5-6.6,9.3-1.6.5-3.6.7-5.9.7h-.7s.7-.5,2-1.1c.9-.5,1.8-.9,2.7-1.4,1.6-.7,3.2-1.8,4.5-3.4-.7-2.3-1.6-4.3-2.9-6.1-.9-1.1-2.3-2.5-4.3-4.1l-.2.9c-.7-.5-1.1-.9-1.6-1.4-.7-.7-1.1-1.1-1.1-1.6s0-1.1.2-2.3c0-.2,0-.5.2-.5s.2,0,.5.2c2.9,2,5.2,4.1,6.6,5.9,1.8,2.3,2.9,4.8,3.6,7.7.9-1.1,1.6-2.3,2-3.6.7-1.6.9-2.9.9-4.1,0-2-.2-4.3-.5-6.8l1.8-1.6c.2,1.1.2,6.3.5,15.6,0,2,.9,3.2,2.7,3.2h1.1l.2,2.6h0Z"/><path id="PATH_41" d="m282.64,422.93c0,1.1,0,2-.5,2.9-.5,1.1-1.1,1.8-1.8,1.8-1.1,0-2.9-.7-5.2-2.3-.7.9-1.1,1.4-1.4,1.6-.7.5-1.4.7-2.3.7h-1.1v-2.7h1.6c.9,0,1.8-.5,2.7-1.6.5-.5,1.1-1.6,2-2.9.7-1.1,1.6-1.6,2.3-1.6,1.1,0,2,.5,2.7,1.6.7.9,1,1.6,1,2.5h0Zm-1.2,1.6c0-.7-.2-1.4-.7-2.3s-1.1-1.4-1.8-1.4-1.4.7-2.3,2c.5.5,1.1.9,2,1.4s1.8.7,2.3.7c.3.3.5,0,.5-.4h0Z"/></g><g id="G_42"><path id="PATH_43" d="m468.34,429.53c0,2.3-.7,4.3-2,6.3-1.1,1.6-2.3,2.5-2.9,2.5-1.8,0-3.2,0-4.5-.2-.5,0-.7-.2-.7-.2,0,0,.2-.2.7-.2,1.8-.5,3.6-1.4,5.4-2.7,1.8-1.6,2.9-3.2,2.9-4.8,0-.9-.7-2.3-2.3-3.9l1.1-2c0-.2.2-.2.2-.2l.2.2c.5.7,1.1,1.6,1.4,2.7.3.9.5,1.8.5,2.5h0Z"/><path id="PATH_44" d="m477.34,429.23h-1.5c-1.6,0-2.9-.7-3.4-2-.5-.9-.7-2.5-.7-4.3v-4.3c0-2-.2-5-.5-8.8l1.4-1.6c.2-.2.5-.2.5,0,.2,2,.5,5,.5,8.8v6.6c0,1.8.9,2.7,2.7,2.7h1.1v2.9h-.1Z"/><path id="PATH_45" d="m482.54,424.93c0,2.9-1.6,4.5-4.5,4.5h-1.8v-2.7h1.6c2.3,0,3.4-.5,3.4-1.1,0-.7-.5-1.6-1.6-2.7l.9-2.3c0-.2.2-.2.2-.2l.5.5c.9,1.1,1.3,2.4,1.3,4h0Zm-1.5,9.3l-1.8,1.8-1.8-1.8,1.8-1.8,1.8,1.8Zm3.8,0l-1.8,1.8-1.8-1.8,1.8-1.8,1.8,1.8Z"/><path id="PATH_46" d="m498.94,429.23h-.9c-.9,0-1.4-.2-1.8-.5v.7c0,2-.7,4.1-2,6.1-1.1,1.8-2.3,2.5-2.9,2.5-1.8,0-3.2,0-4.5-.2-.5,0-.7-.2-.7-.2,0,0,.2-.2.7-.2,1.8-.5,3.6-1.4,5.4-2.7,1.8-1.6,2.9-3.2,2.9-4.8,0-.9-.7-2.3-2.3-3.9l1.1-2c0-.2.2-.2.2-.2l.2.2c.7.9,1.1,1.6,1.6,1.8.7.5,1.6.9,2.5.9h.7v2.5h-.2Z"/><path id="PATH_47" d="m512.94,429.23h-1.1c-.9,0-1.8.2-2.5.5-1.1.5-1.8,1.1-1.8,2.3,0,1.4.9,2.5,2.7,3.6l-1.1,2.3c-2-.7-3.9-1.8-5.2-3.2-1.8-1.6-2.7-3.6-2.7-5.7h-3.2v-2.7h2.9c0-1.8.5-3.6,1.4-5.9.9-2,1.6-2.9,2-2.9s1.1.9,1.8,2.9c.7,1.8.9,2.9.9,3.6,0,3.2-1.6,4.8-4.8,4.8.2.9.7,1.8,1.4,2.7.7.9,1.6,1.6,2.5,2v-.9c0-1.6.5-2.9,1.1-4.1,1.1-1.6,2.5-2.5,4.5-2.5h.9v3.2h.3Zm-6.8-3.6c0-.5-.2-1.4-.7-2.5-.5-1.4-.9-1.8-1.4-1.8-.2,0-.7.5-1.1,1.6-.5,1.1-.7,2.5-.7,3.9,2.5-.1,3.9-.5,3.9-1.2h0Z"/><path id="PATH_48" d="m530.84,424.53c0,1.4-.2,2.5-.9,3.4s-1.8,1.6-2.9,1.6c-1.6,0-2.5-.7-3.2-1.8-.9,1.4-1.8,1.8-3.2,1.8-1.6,0-2.7-.7-3.4-1.8-.9,1.4-2,1.8-3.6,1.8h-1.6v-2.7h1.8c1.6,0,2.7-.9,2.9-2.7,0-.5.2-.7.5-.7.2,0,.2.2.5.7.2,1.8,1.1,2.7,2.9,2.7.9,0,1.8-.2,2.3-.7.2-.5.5-.9.7-1.8,0-.5.2-.7.5-.7.2,0,.2.2.5.7.2,1.8,1.1,2.7,2.7,2.7,1.8,0,2.5-.5,2.5-1.1,0-.7-.5-1.6-1.4-2.5l1.1-2c.2-.2.2-.5.5-.5.2,0,.2.2.5.5.1,1,.3,2.2.3,3.1h0Zm-7.7-8.2l-1.6,1.6-1.6-1.8,1.6-1.6,1.6,1.8Zm2-3.6l-1.6,1.6-1.6-1.6,1.6-1.6,1.6,1.6Zm2.1,3.6l-1.6,1.6-1.6-1.6,1.6-1.6,1.6,1.6Z"/></g><g id="G_49"><path id="PATH_50" d="m257.94,559.53h-1.1c-1.4,0-2.5-.2-3.2-.9,0,.2.2.7.2,1.1,0,2.3-.7,3.6-2.3,3.6-1.4,0-2.3-.7-3.2-2-.7-1.1-.9-2.5-.9-3.9v-.9h-.7c-1.6,0-2.5.5-3.2,1.1.5,3.6.7,6.3.7,8.2,0,.9-.2,1.8-.7,3.2-.2.5-.2.7-.5.7,0,0-.2-.2-.2-.9l-1.1-10.4c0-.5.2-1.1.7-1.8s.9-1.1,1.4-1.6c.2-.2.9-.5,1.8-.7.7-.2,1.4-.2,1.8-.2h.5l.2-1.4c0-.2.2-.5.2-.5,0,0,.2,0,.5.2,1.8,1.6,3.2,2.7,3.9,3.2,1.4.9,2.5,1.4,3.6,1.4h1.4v2.5h.2Zm-5.2-.3c0-.7-.5-1.4-1.4-2.3-.2-.2-.9-.9-2.5-2.3v1.4c0,1.1.2,2,.7,2.7.5,1.1,1.1,1.6,2,1.6.7.3,1.2-.2,1.2-1.1h0Z"/><path id="PATH_51" d="m263.34,554.93c0,2.9-1.6,4.5-4.5,4.5h-1.8v-2.7h1.6c2.3,0,3.4-.5,3.4-1.1s-.5-1.6-1.6-2.7l.9-2.3c0-.2.2-.2.2-.2l.5.5c.8,1.1,1.3,2.7,1.3,4Zm-1.8,9.5l-1.8,1.8-1.8-1.8,1.8-1.8,1.8,1.8Zm3.8,0l-1.8,1.8-1.8-1.8,1.8-1.8,1.8,1.8Z"/><path id="PATH_52" d="m279.44,559.53h-.9c-.9,0-1.4-.2-1.8-.5v.7c0,2-.7,4.1-2,6.1-1.1,1.8-2.3,2.5-2.9,2.5-1.8,0-3.2,0-4.5-.2-.5,0-.7-.2-.7-.2,0,0,.2-.2.7-.2,1.8-.5,3.6-1.4,5.4-2.7,1.8-1.6,2.9-3.2,2.9-4.8,0-.9-.7-2.3-2.3-3.9l1.1-2c0-.2.2-.2.2-.2l.2.2c.7.9,1.1,1.6,1.6,1.8.7.5,1.6.9,2.5.9h.7v2.5h-.2Z"/><path id="PATH_53" d="m293.44,538.63c0,.5-.5,1.4-.9,2.5l-5.7,1.8c-2.5.9-4.3,1.6-5.2,2,1.8,1.8,2.9,3.2,3.6,3.9,1.1,1.6,1.8,2.9,2,4.5,0,1.1,0,2.3-.5,3.2-.7,2-3.2,2.9-7,2.9h-1.1v-2.7h1.4c1.8,0,3.2,0,3.9-.2,1.6-.5,2.5-1.1,2.5-2.3,0-1.6-1.1-3.4-3.6-5.7l-.2.5c-.2-.2-.7-.7-1.1-1.4-.7-.7-.9-1.4-.9-1.4,0-.5,0-.9.2-1.8.2-.9.5-1.4.7-1.6s1.8-.9,4.8-1.8c2.4-1,5.1-1.9,7.1-2.4h0Z"/><path id="PATH_54" d="m324.94,553.33c0,2.5-1.6,4.3-4.5,5.2-2,.7-5,.9-9.1.9-1.6,0-2.9,0-3.6-.2-1.6-.5-2.7-1.4-3.4-2.7,0-.2-.2-.5-.2-.5h0s.2,0,.5.2c1.1.5,2.5.7,4.3.7.7,0,1.1,0,1.4-.2.2-.2.5-.7.2-1.4v-5.2c-.2-3.9-.5-7-.9-10l1.6-1.6.2-.2s.2.2.2.5c.2.9.5,1.8.9,2.7,0,.2.2.5.2.5h-1.2c.2,4.1.2,6.6.2,7.2v2.5c0,.9-.2,2.3-.7,3.9.2,0,.7-.5,1.8-1.4,1.1-1.1,2.3-2,3.2-2.7,1.6-.9,2.9-1.4,4.3-1.4,1.1,0,2,.2,2.7.9,1.5.3,1.9,1.2,1.9,2.3Zm-1.6,1.4c0-.7-.5-1.4-1.4-1.8-.7-.5-1.6-.7-2.3-.7-1.6,0-4.3,1.4-7.7,4.3.9,0,2,.2,2.9.2,1.4,0,2.9-.2,4.5-.5,2.7-.1,4-.8,4-1.5Z"/><path id="PATH_55" d="m334.04,559.53h-1.6c-1.6,0-2.9-.7-3.4-2-.5-.9-.7-2.5-.7-4.3v-4.3c0-2-.2-5-.5-8.8l1.4-1.6c.2-.2.5-.2.5,0,.2,2,.5,5,.5,8.8v6.6c0,1.8.9,2.7,2.7,2.7h1.1v2.9h0Z"/><path id="PATH_56" d="m339.24,554.93c0,2.9-1.6,4.5-4.5,4.5h-1.9v-2.7h1.6c2.3,0,3.4-.5,3.4-1.1s-.5-1.6-1.6-2.7l.9-2.3c0-.2.2-.2.2-.2l.5.5c.9,1.1,1.4,2.7,1.4,4Zm-.7,9.5l-1.8,1.8-1.8-1.8,1.8-1.8,1.8,1.8Z"/><path id="PATH_57" d="m350.74,559.73c0,2.3-.7,4.3-2,6.3-1.1,1.6-2.3,2.5-2.9,2.5-1.8,0-3.2,0-4.5-.2-.5,0-.7-.2-.7-.2,0,0,.2-.2.7-.2,1.8-.5,3.6-1.4,5.4-2.7,1.8-1.6,2.9-3.2,2.9-4.8,0-.9-.7-2.3-2.3-3.9l1.1-2c0-.2.2-.2.2-.2l.2.2c.5.7,1.1,1.6,1.4,2.7.3.7.5,1.6.5,2.5h0Z"/></g><g id="G_58"><path id="PATH_59" d="m266.94,621.13c.2.7.2,1.4.2,2,0,.9-.2,1.6-.5,2.5-.7,1.6-1.8,2.9-4.1,3.9-1.8.7-3.6,1.1-5.7,1.1s-3.6-.5-5-1.4c-1.4-1.1-2-2.5-2-4.5,0-1.1.2-2,.7-3.4.5-.9.7-1.6,1.1-2,.2-.2.5-.2.5-.2.13,0,.2.07.2.2v.5c-.7,1.4-.9,2.7-.9,3.9,0,1.1.5,2,1.1,2.9.9,1.1,2.5,1.6,4.5,1.6,2.3,0,4.3-.5,5.9-1.1,1.4-.7,2.3-1.4,2.7-2.3.2-.2.2-.7.2-.9,0-.7-.2-1.4-.5-2.3-.2-.7-.9-1.8-2-3.6l.9-1.8c.2-.2.2-.5.2-.5,0,0,.2,0,.2.2,1.4,1.8,2.1,3.4,2.3,5.2h0Zm-6.5-9.8l-1.8,1.8-1.8-1.8,1.8-1.8,1.8,1.8Z"/><path id="PATH_60" d="m276.24,621.53h-1.6c-1.6,0-2.9-.7-3.4-2-.5-.9-.7-2.5-.7-4.3v-4.3c0-2-.2-5-.5-8.8l1.4-1.6c.2-.2.5-.2.5,0,.2,2,.5,5,.5,8.8v6.6c0,1.8.9,2.7,2.7,2.7h1.1v2.9h0Z"/><path id="PATH_61" d="m287.34,621.53h-1.8c-2,0-3.4-.7-4.3-2-.7,1.4-2.3,2-4.8,2h-1.1v-2.7h2c2.3,0,3.4-.9,3.6-2.5,0-.7.2-1.1.5-1.1.2,0,.5.5.5,1.1.2,1.6,1.4,2.5,3.4,2.5h2v2.7h0Zm-7.7-13.1l-1.8,1.8-1.8-1.8,1.8-1.8,1.8,1.8Zm3.9,0l-1.8,1.8-1.8-1.8,1.8-1.8,1.8,1.8Z"/><path id="PATH_62" d="m305.24,616.53c0,1.4-.2,2.5-.9,3.4-.7.9-1.8,1.6-2.9,1.6-1.6,0-2.5-.7-3.2-1.8-.9,1.4-1.8,1.8-3.2,1.8-1.6,0-2.7-.7-3.4-1.8-.9,1.4-2,1.8-3.6,1.8h-1.6v-2.7h1.8c1.6,0,2.7-.9,2.9-2.7,0-.5.2-.7.5-.7.2,0,.2.2.5.7.2,1.8,1.1,2.7,2.9,2.7.9,0,1.8-.2,2.3-.7.2-.5.5-.9.7-1.8,0-.5.2-.7.5-.7.2,0,.2.2.5.7.2,1.8,1.1,2.7,2.7,2.7,1.8,0,2.5-.5,2.5-1.1s-.5-1.6-1.4-2.5l1.1-2c.2-.2.2-.5.5-.5s.2.2.5.5c-.2,1.1.3,2.2.3,3.1h0Z"/><path id="PATH_63" d="m316.84,621.73c0,2.3-.7,4.3-2,6.3-1.1,1.6-2.3,2.5-2.9,2.5-1.8,0-3.2,0-4.5-.2-.5,0-.7-.2-.7-.2,0,0,.2-.2.7-.2,1.8-.5,3.6-1.4,5.4-2.7,1.8-1.6,2.9-3.2,2.9-4.8,0-.9-.7-2.3-2.3-3.9l1.1-2c0-.2.2-.2.2-.2l.2.2c.5.7,1.1,1.6,1.4,2.7.2.7.5,1.6.5,2.5h0Z"/><path id="PATH_64" d="m325.84,621.53h-1.6c-1.6,0-2.9-.7-3.4-2-.5-.9-.7-2.5-.7-4.3v-4.3c0-2-.2-5-.5-8.8l1.4-1.6c.2-.2.5-.2.5,0,.2,2,.5,5,.5,8.8v6.6c0,1.8.9,2.7,2.7,2.7h1.1v2.9h0Z"/><path id="PATH_65" d="m339.94,621.53h-1.1c-.9,0-1.8.2-2.5.5-1.1.5-1.8,1.1-1.8,2.3,0,1.4.9,2.5,2.7,3.6l-1.1,2.3c-2-.7-3.9-1.8-5.2-3.2-1.8-1.6-2.7-3.6-2.7-5.7h-3.2v-2.7h2.9c0-1.8.5-3.6,1.4-5.9.9-2,1.6-2.9,2-2.9s1.1.9,1.8,2.9c.7,1.8.9,2.9.9,3.6,0,3.2-1.6,4.8-4.8,4.8.2.9.7,1.8,1.4,2.7.7.9,1.6,1.6,2.5,2v-.9c0-1.6.5-2.9,1.1-4.1,1.1-1.6,2.5-2.5,4.5-2.5h.9v3.2h.3Zm-7.1-3.6c0-.5-.2-1.4-.7-2.5-.5-1.4-.9-1.8-1.4-1.8-.2,0-.7.5-1.1,1.6-.5,1.1-.7,2.5-.7,3.9,2.8-.3,3.9-.5,3.9-1.2h0Z"/><path id="PATH_66" d="m345.34,617.03c0,2.9-1.6,4.5-4.5,4.5h-1.8v-2.7h1.6c2.3,0,3.4-.5,3.4-1.1s-.5-1.6-1.6-2.7l.9-2.3c0-.2.2-.2.2-.2l.5.5c.6,1,1.3,2.4,1.3,4Zm-.9,9.5l-1.8,1.8-1.8-1.8,1.8-1.8,1.8,1.8Z"/></g><g id="TEXT_67"><path id="PATH_66-2" d="m629.14,658.43c.1.4.1.7.1.7,0,.1-.2,0-.6-.2-.7-.4-1.6-.6-2.7-.6-1.5,0-2.9.6-4.1,1.9-1.1,1.1-1.6,1.9-1.6,2.5,0,.7,1,1.3,3.1,1.7,2.3.4,3.6,1,4,1.7.1.1.1.4.1.7,0,1.2-.4,2.5-1.2,3.8-.5.8-1.7,1.6-3.4,2.3-2.2.9-4.6,1.3-7.4,1.3-2,0-3.6-.5-4.9-1.5-1.4-1.1-2.1-2.6-2.1-4.5,0-2.1.7-4.1,2.1-5.9.2-.3.4-.4.6-.5.2,0,.3,0,.3.2,0,.1-.1.3-.2.6-.9,1.6-1.3,3.1-1.3,4.5,0,1,.4,2,1.1,2.8,1,1.1,2.6,1.7,4.7,1.7,1.8,0,3.8-.2,5.8-.7,2.9-.7,4.4-1.6,4.4-2.8,0-.4-1.4-1-4.3-1.5-1.1-.2-1.8-.4-2.2-.7-.6-.3-.8-.9-.8-1.7,0-1.5.8-3.2,2.3-5.2,1.7-2.1,3.3-3.2,4.9-3.2,1.9,0,2.9.9,3.3,2.6h0Z"/><path id="PATH_67" d="m640.74,666.93c0,2.2-.7,4.3-2.1,6.2-1.2,1.7-2.2,2.5-3,2.5-1.7,0-3.2-.1-4.5-.3-.4-.1-.6-.2-.6-.3s.2-.3.6-.3c1.8-.4,3.6-1.3,5.3-2.8,1.9-1.6,2.9-3.2,2.9-4.7,0-1-.8-2.3-2.4-3.8l1-2.1c.1-.2.2-.3.2-.3.1,0,.2.1.3.3.5.7,1,1.5,1.5,2.6.5,1.3.8,2.3.8,3h0Z"/></g><g id="G_68"><path id="PATH_69" d="m910.24,778.53h-1.1c-1.1,0-1.8,0-2.3-.2,0,.7.2,1.1.2,1.8,0,1.1-.2,1.8-.5,2.5-.7,1.6-1.8,2.9-4.1,3.9-1.8.7-3.6,1.1-5.7,1.1s-3.6-.5-5-1.4c-1.4-1.1-2-2.5-2-4.5,0-1.1.2-2,.7-3.4.5-.9.7-1.6,1.1-2,.2-.2.5-.2.5-.2.13,0,.2.07.2.2v.5c-.7,1.4-.9,2.7-.9,3.9,0,1.1.5,2,1.1,2.9.9,1.1,2.5,1.6,4.5,1.6,2.3,0,4.3-.5,5.9-1.1,1.4-.7,2.3-1.4,2.7-2.3.2-.2.2-.7,0-1.6,0-.7-.2-1.4-.2-1.6-.2-.7-1.1-1.8-2.3-3.4l.9-1.8c.2-.2.2-.5.2-.5,0,0,.2,0,.2.2,1.1,1.8,2.3,2.7,3.6,2.7h1.8v2.7h.5,0Zm-10-10.2l-1.8,1.8-1.8-1.8,1.8-1.8,1.8,1.8Z"/><path id="PATH_70" d="m921.34,778.53h-1.8c-2,0-3.4-.7-4.3-2-.7,1.4-2.3,2-4.8,2h-1.4v-2.7h2c2.3,0,3.4-.9,3.6-2.5,0-.7.2-1.1.5-1.1s.5.5.5,1.1c.2,1.6,1.4,2.5,3.4,2.5h2v2.7h.3Zm-7.5,5l-1.8,1.8-1.8-1.8,1.8-1.8,1.8,1.8Zm4.1,0l-1.8,1.8-1.8-1.8,1.8-1.8,1.8,1.8Z"/><path id="PATH_71" d="m932.64,774.03c0,1.1,0,2-.5,2.9-.5,1.1-1.1,1.8-1.8,1.8-1.1,0-2.9-.7-5.2-2.3-.7.9-1.1,1.4-1.4,1.6-.7.5-1.4.7-2.3.7h-1.1v-2.7h1.6c.9,0,1.8-.5,2.7-1.6.5-.5,1.1-1.6,2-2.9.7-1.1,1.6-1.6,2.3-1.6,1.1,0,2,.5,2.7,1.6.8.9,1,1.5,1,2.5Zm-1.4,1.5c0-.7-.2-1.4-.7-2.3s-1.1-1.4-1.8-1.4-1.4.7-2.3,2c.5.5,1.1.9,2,1.4s1.8.7,2.3.7c.3.3.5.1.5-.4Z"/><path id="PATH_72" d="m937.84,775.83c0,.9-.2,1.8-.7,2.5-.2.5-.5.7-.5.7,0,0-.2-.2-.2-.9,0-2.7-.5-9.1-1.4-19.3l1.8-1.8.2-.2v.5c.8,2.8.8,9,.8,18.5h0Z"/><path id="PATH_73" d="m949.44,778.73c0,2.3-.7,4.3-2,6.3-1.1,1.6-2.3,2.5-2.9,2.5-1.8,0-3.2,0-4.5-.2-.5,0-.7-.2-.7-.2,0,0,.2-.2.7-.2,1.8-.5,3.6-1.4,5.4-2.7,1.8-1.6,2.9-3.2,2.9-4.8,0-.9-.7-2.3-2.3-3.9l1.1-2c0-.2.2-.2.2-.2l.2.2c.5.7,1.1,1.6,1.4,2.7.2.7.5,1.6.5,2.5h0Z"/><path id="PATH_74" d="m961.14,777.63c0,3.4-1.1,6.3-3.4,8.6-.7.7-1.1,1.1-1.4,1.1-1.4,0-2.7-.2-4.3-.5-.7,0-.9-.2-.9-.2,0,0,.2-.2.9-.5,1.8-.5,3.6-1.6,5.2-2.9.7-.7,1.4-1.1,1.8-2,.7-.9,1.1-1.8,1.1-2.5v-.7h-2.9c-2,0-3.2-.9-3.2-2.5,0-1.1.2-2.3.9-3.6.7-1.4,1.6-2.3,2.5-2.3,1.4,0,2.5.9,3.2,2.9.3,1.7.5,3.3.5,5.1h0Zm-1.8-1.8c0-.7-.2-1.4-.7-2-.5-.7-1.1-1.1-1.8-1.1-.5,0-.9.2-1.1.5s-.5.7-.5,1.1c0,1.1.7,1.6,2.3,1.6.2.1,1.1-.1,1.8-.1Z"/></g><g id="G_75"><path id="PATH_76" d="m909.54,648.03c0,.9-.2,1.8-.7,2.5-.2.5-.5.7-.5.7,0,0-.2-.2-.2-.9,0-2.7-.5-9.1-1.4-19.3l1.8-1.8.2-.2v.5c.6,3.1.8,9.2.8,18.5h0Z"/><path id="PATH_77" d="m923.54,651.03h-2.5c-.2,3.2-1.4,5.7-3.6,7.9-.7.7-1.1,1.1-1.4,1.1-1.1,0-2.7-.2-4.3-.5-.5,0-.9-.2-.9-.2,0,0,.2-.2.9-.5,1.8-.5,3.6-1.6,5.2-2.7.7-.7,1.4-1.1,1.8-2,.7-.9,1.1-1.8,1.1-2.5v-.7h-2.9c-2.3,0-3.2-.9-3.2-2.7,0-1.1.2-2.3.9-3.6.7-1.4,1.6-2.3,2.5-2.3,1.1,0,2,.7,2.7,2.3.5,1.1.9,2.3.9,3.6h2.5v2.7h.3v.1h0Zm-4-2.8c0-.7-.2-1.4-.7-2-.5-.9-1.1-1.1-1.8-1.1-.5,0-.9.2-1.1.5-.5.5-.5.7-.5,1.4,0,1.1.9,1.6,2.7,1.6,0-.4.7-.4,1.4-.4h0Z"/><path id="PATH_78" d="m944.44,651.03h-1.4c-1.6,0-2.5-.7-3.2-1.8-.5,1.4-1.6,1.8-2.9,1.8s-2.3-.7-2.9-1.8c-.7,1.4-1.6,1.8-2.9,1.8-1.6,0-2.7-.7-3.4-1.8-.9,1.4-2,1.8-3.6,1.8h-1.6v-2.7h1.8c1.6,0,2.7-.9,2.9-2.7,0-.5.2-.7.5-.7s.2.2.5.7c.2,1.8,1.1,2.7,2.9,2.7,1.6,0,2.7-.9,2.7-2.7,0-.5.2-.7.5-.7s.5.2.5.7c.2,1.8,1.1,2.7,2.3,2.7,1.6,0,2.7-.9,2.7-2.7,0-.5.2-.7.5-.7s.5.2.5.7c.2,1.8,1.1,2.7,2.7,2.7h1.4v2.7h-.5Zm-10.4-11.6l-1.6,1.6-1.6-1.6,1.6-1.6,1.6,1.6Zm1.8-3.4l-1.6,1.6-1.6-1.6,1.6-1.6,1.6,1.6Zm2,3.4l-1.6,1.6-1.6-1.6,1.6-1.6,1.6,1.6Z"/><path id="PATH_79" d="m955.54,651.03h-1.8c-2,0-3.4-.7-4.3-2-.7,1.4-2.3,2-4.8,2h-1.1v-2.7h2c2.3,0,3.4-.9,3.6-2.5,0-.7.2-1.1.5-1.1s.5.5.5,1.1c.2,1.6,1.4,2.5,3.4,2.5h2v2.7h0Zm-7.5,5l-1.8,1.8-1.8-1.8,1.8-1.8,1.8,1.8Zm4.1,0l-1.8,1.8-1.8-1.8,1.8-1.8,1.8,1.8Z"/><path id="PATH_80" d="m960.94,646.43c0,2.9-1.6,4.5-4.5,4.5h-1.8v-2.7h1.6c2.3,0,3.4-.5,3.4-1.1,0-.7-.5-1.6-1.6-2.7l.9-2.3c0-.2.2-.2.2-.2l.5.5c.9,1.1,1.3,2.5,1.3,4h0Zm-5.2,8.9l1.6-1.6,1.6,1.6-1.6,1.6-1.6-1.6Zm2,3.6l1.6-1.6,1.6,1.6-1.6,1.6-1.6-1.6Zm1.8-3.6l1.6-1.6,1.6,1.6-1.6,1.6-1.6-1.6Z"/></g><g id="G_81"><path id="PATH_82" d="m823.44,603.43h-1.6c-1.1,0-2.3-.7-3.6-1.8-.7-.7-1.6-1.8-2.7-3.4,0,1.6-.2,2.7-.9,3.4-1.1,1.4-3.4,2-6.8,2h-4.5c-5.4,0-8.4-1.6-8.4-4.8,0-1.1.5-2.3,1.1-3.4l.5-.5c.13,0,.2.07.2.2v.5c-.2.9-.5,1.4-.5,2,0,.9.5,1.6,1.1,2,1.1.9,2.9,1.4,5.4,1.4h4.5c2.5,0,4.3-.2,5.2-.5,1.1-.5,1.6-1.1,1.6-2s-.5-2-1.6-3.4c-.7-.7-1.6-1.8-2.9-2.9-1.1-.9-1.6-1.6-1.6-1.6,0-1.6.2-2.5.7-3.2,0-.2,1.6-.7,4.8-1.8s5.9-2,7.9-2.7c0,.2-.2,1.1-.7,2.5-2.5.7-6.1,2-11.1,3.9,2.3,2,4.8,5,7.7,8.8,1.1,1.4,2,2.3,2.7,2.7.5.2,1.4.5,2.3.5h.9v2h.3v.1h0Z"/><path id="PATH_83" d="m841.14,596.83l-.9,1.8c-1.6,0-2.9,0-3.6.2-.9.5-2.3.9-4.1,1.8-1.8.9-3.2,1.6-4.1,1.8-1.4.5-2.9.7-4.3.7h-1.6v-2.7h1.8c2,0,3.9-.5,5.4-1.1l5.2-2.3c-.9-.2-2.3-.7-4.1-1.4-1.6-.7-2.5-.9-2.9-.9-.9,0-1.8.5-2.7,1.1-.13.13-.3.2-.5.2-.3,0-.2,0-.2-.2v-.2c.7-2.3,2-3.2,3.9-3.2.7,0,1.6.2,2.5.7,1.8.9,3.2,1.4,4.1,1.8,1.6.5,3.4.9,5.4.9.5,0,.7,0,.7.2.2.4.2.6,0,.8h0Zm-12.5,10.9l1.6-1.6,1.6,1.6-1.6,1.6-1.6-1.6Zm2.1,3.4l1.6-1.6,1.6,1.6-1.6,1.6-1.6-1.6Zm2-3.4l1.6-1.6,1.6,1.6-1.6,1.6-1.6-1.6Z"/><path id="PATH_84" d="m855.44,603.43h-.9c-.9,0-1.4-.2-1.8-.5v.7c0,2-.7,4.1-2,6.1-1.1,1.8-2.3,2.5-2.9,2.5-1.8,0-3.2,0-4.5-.2-.5,0-.7-.2-.7-.2,0,0,.2-.2.7-.2,1.8-.5,3.6-1.4,5.4-2.7,1.8-1.6,2.9-3.2,2.9-4.8,0-.9-.7-2.3-2.3-3.9l1.1-2c0-.2.2-.2.2-.2l.2.2c.7.9,1.1,1.6,1.6,1.8.7.5,1.6.9,2.5.9h.7v2.5h-.2Z"/><path id="PATH_85" d="m864.24,597.13c0,2-.2,3.4-.7,4.1-1.1,1.6-2.9,2.3-5.9,2.3h-3.2v-2.7h2.3c3.9,0,5.9-.7,6.3-1.8.2-.5,0-.9-.2-1.4-.9.2-1.8.2-2.9.2-2,0-3.2-.9-3.2-2.7,0-1.1.2-2.5.9-3.6.7-1.4,1.6-2,2.7-2,.9,0,1.8.7,2.5,1.8.9,1.7,1.4,3.5,1.4,5.8h0Zm-4.3-12.3l-1.8,1.8-1.8-1.8,1.8-1.8,1.8,1.8Zm2.7,10.2c0-.7-.2-1.4-.7-2-.5-.7-1.1-.9-1.8-.9-.5,0-.9.2-1.4.5-.5.2-.5.7-.5,1.1,0,.9.7,1.4,2.3,1.4.5.1,1.2.1,2.1-.1h0Zm1.1-10.2l-1.8,1.8-1.8-1.8,1.8-1.8,1.8,1.8Z"/></g><g id="G_86"><path id="PATH_87" d="m925.84,541.33h-.9c-1.1,0-2-.2-2.5-.7-.7-.5-1.1-1.4-1.1-2.3-2.5,2.3-6.3,3.4-11.6,3.4s-8.2-1.6-8.2-5c0-1.1.5-2.3,1.4-3.4.13-.13.3-.2.5-.2.3,0,.2,0,.2.2v.5c-.2.7-.5,1.4-.5,2,0,2.3,2.5,3.4,7.5,3.4,5.7,0,9.5-1.1,11.3-3.6.5-.5.7-.7.9-.7s.2.2.2.5c0,.2,0,.5-.2.9,0,.5-.2.7-.2.9,0,1.1.9,1.8,2.5,1.8h.9v2.3h-.2Zm-14-13.1l-1.8,1.8-1.8-1.8,1.8-1.8,1.8,1.8Zm3.8,0l-1.8,1.8-1.8-1.8,1.8-1.8,1.8,1.8Z"/><path id="PATH_88" d="m943.74,536.63c0,1.4-.2,2.5-.9,3.4s-1.8,1.6-2.9,1.6c-1.6,0-2.5-.7-3.2-1.8-.9,1.4-1.8,1.8-3.2,1.8-1.6,0-2.7-.7-3.4-1.8-.9,1.4-2,1.8-3.6,1.8h-1.6v-2.7h1.8c1.6,0,2.7-.9,2.9-2.7,0-.5.2-.7.5-.7s.2.2.5.7c.2,1.8,1.1,2.7,2.9,2.7.9,0,1.8-.2,2.3-.7.2-.5.5-.9.7-1.8,0-.5.2-.7.5-.7s.2.2.5.7c.2,1.8,1.1,2.7,2.7,2.7,1.8,0,2.5-.5,2.5-1.1,0-.7-.5-1.6-1.4-2.5l1.1-2c.2-.2.2-.5.5-.5s.2.2.5.5c-.2.8.3,2.2.3,3.1h0Zm-7.7-8.4l-1.6,1.6-1.6-1.6,1.6-1.6,1.6,1.6Zm2-3.4l-1.6,1.6-1.6-1.6,1.6-1.6,1.6,1.6Zm2.1,3.6l-1.6,1.6-1.6-1.6,1.6-1.6,1.6,1.6Z"/><path id="PATH_89" d="m961.44,541.33h-.9c-.9,0-1.6-.2-2.3-.9-.5-.5-.9-.9-1.4-1.8-.5.9-1.1,1.6-1.8,2-.9.5-2,.7-3.9.7-3.2,0-4.8-1.1-4.8-3.4,0-.7.2-1.6.7-2.3.2-.2.2-.5.5-.5s.2.2.2.5v1.4c0,1.4,1.1,2,3.4,2,3.2,0,4.8-.7,4.8-1.8,0-.7-.9-3.2-2.7-7.5l.9-1.8c.2-.2.2-.5.2-.5,0,0,.2.2.2.5.7,1.8,1.8,4.5,3.2,8.2.7,1.8,1.6,2.7,2.9,2.7h.7l.1,2.5h0Z"/><path id="PATH_90" d="m975.44,520.53c0,.5-.5,1.4-.9,2.5l-5.7,1.8c-2.5.9-4.3,1.6-5.2,2,1.8,1.8,2.9,3.2,3.6,3.9,1.1,1.6,1.8,2.9,2,4.5,0,1.1,0,2.3-.5,3.2-.7,2-3.2,2.9-7,2.9h-1.1v-2.7h1.4c1.8,0,3.2,0,3.9-.2,1.6-.5,2.5-1.1,2.5-2.3,0-1.6-1.1-3.4-3.6-5.7l-.2.5c-.2-.2-.7-.7-1.1-1.4-.7-.7-.9-1.4-.9-1.4,0-.5,0-.9.2-1.8.2-.9.5-1.4.7-1.6.2-.2,1.8-.9,4.8-1.8,2.3-1,5.1-1.9,7.1-2.4Z"/><path id="PATH_91" d="m983.34,541.33h-1.6c-1.6,0-2.9-.7-3.4-2-.5-.9-.7-2.5-.7-4.3v-4.3c0-2-.2-5-.5-8.8l1.4-1.6c.2-.2.5-.2.5,0,.2,2,.5,5,.5,8.8v6.6c0,1.8.9,2.7,2.7,2.7h1.1v2.9h0Z"/><path id="PATH_92" d="m988.84,537.03c0,2.9-1.6,4.5-4.5,4.5h-1.8v-2.7h1.6c2.3,0,3.4-.5,3.4-1.1s-.5-1.6-1.6-2.7l.9-2.3c0-.2.2-.2.2-.2l.5.5c.8,1.1,1.3,2.5,1.3,4h0Zm-5.5,8.9l1.6-1.6,1.6,1.6-1.6,1.6-1.6-1.6Zm2.1,3.6l1.6-1.6,1.6,1.6-1.6,1.6-1.6-1.6Zm2-3.6l1.6-1.6,1.6,1.6-1.6,1.6-1.6-1.6Z"/></g><g id="G_93"><path id="PATH_94" d="m813.74,363.83c.2.7.2,1.4.2,2,0,.9-.2,1.6-.5,2.5-.7,1.6-1.8,2.9-4.1,3.9-1.8.7-3.6,1.1-5.7,1.1s-3.6-.5-5-1.4c-1.4-1.1-2-2.5-2-4.5,0-1.1.2-2,.7-3.4.5-.9.7-1.6,1.1-2,.2-.2.5-.2.5-.2.13,0,.2.07.2.2v.5c-.7,1.4-.9,2.7-.9,3.9s.5,2,1.1,2.9c.9,1.1,2.5,1.6,4.5,1.6,2.3,0,4.3-.5,5.9-1.1,1.4-.7,2.3-1.4,2.7-2.3.2-.2.2-.7.2-.9,0-.7-.2-1.4-.5-2.3-.2-.7-.9-1.8-2-3.6l.9-1.8c.2-.2.2-.5.2-.5,0,0,.2,0,.2.2,1.4,1.5,2.1,3.4,2.3,5.2h0Zm-6.6-10l-1.8,1.8-1.8-1.8,1.8-1.8,1.8,1.8Z"/><path id="PATH_95" d="m819.14,361.33c0,.9-.2,1.8-.7,2.5-.2.5-.5.7-.5.7,0,0-.2-.2-.2-.9,0-2.7-.5-9.1-1.4-19.3l1.8-1.8.2-.2v.5c.8,2.9.8,9,.8,18.5h0Z"/><path id="PATH_96" d="m833.44,364.03h-.9c-.9,0-1.4-.2-1.8-.5v.7c0,2-.7,4.1-2,6.1-1.1,1.8-2.3,2.5-2.9,2.5-1.8,0-3.2,0-4.5-.2-.5,0-.7-.2-.7-.2,0,0,.2-.2.7-.2,1.8-.5,3.6-1.4,5.4-2.7,1.8-1.6,2.9-3.2,2.9-4.8,0-.9-.7-2.3-2.3-3.9l1.1-2c0-.2.2-.2.2-.2l.2.2c.7.9,1.1,1.6,1.6,1.8.7.5,1.6.9,2.5.9h.7v2.5h-.2Z"/><path id="PATH_97" d="m847.44,364.03h-1.1c-.9,0-1.8.2-2.5.5-1.1.5-1.8,1.1-1.8,2.3,0,1.4.9,2.5,2.7,3.6l-1.1,2.3c-2-.7-3.9-1.8-5.2-3.2-1.8-1.6-2.7-3.6-2.7-5.7h-3.2v-2.7h2.9c0-1.8.5-3.6,1.4-5.9.9-2,1.6-2.9,2-2.9.5,0,1.1.9,1.8,2.9.7,1.8.9,2.9.9,3.6,0,3.2-1.6,4.8-4.8,4.8.2.9.7,1.8,1.4,2.7s1.6,1.6,2.5,2v-.9c0-1.6.5-2.9,1.1-4.1,1.1-1.6,2.5-2.5,4.5-2.5h.9v3.2h.3,0Zm-7-3.6c0-.5-.2-1.4-.7-2.5-.5-1.4-.9-1.8-1.4-1.8-.2,0-.7.5-1.1,1.6s-.7,2.5-.7,3.9c2.8-.3,3.9-.5,3.9-1.2Z"/><path id="PATH_98" d="m852.94,359.53c0,2.9-1.6,4.5-4.5,4.5h-1.8v-2.7h1.6c2.3,0,3.4-.5,3.4-1.1,0-.7-.5-1.6-1.6-2.7l.9-2.3c0-.2.2-.2.2-.2l.5.5c.8,1,1.3,2.6,1.3,4h0Zm-2.1-10l-1.8,1.8-1.8-1.8,1.8-1.8,1.8,1.8Zm3.9,0l-1.8,1.8-1.8-1.8,1.8-1.8,1.8,1.8Z"/></g><g id="G_99"><path id="PATH_100" d="m820.34,189.63c0,1.6-.5,2.9-1.6,3.6-.7.5-2,.9-4.1,1.1-2.3.5-4.5.7-7,.7-5.9,0-9.1-1.6-9.1-5,0-1.1.5-2.3,1.4-3.4.2-.2.2-.5.5-.5s.2,0,.2.2v.5c-.2.7-.5,1.4-.5,2,0,2.3,2.9,3.4,8.6,3.4,2.7,0,5.2-.2,7-.5,2.3-.5,3.2-.9,3.2-1.6,0-.5-.5-1.4-1.6-2.7l1.1-2c.13-.13.3-.13.5,0,.9,1.7,1.4,2.8,1.4,4.2h0Zm-11.4-8.2l-1.8,1.8-1.8-1.8,1.8-1.8,1.8,1.8Zm3.9,0l-1.8,1.8-1.8-1.8,1.8-1.8,1.8,1.8Z"/><path id="PATH_101" d="m829.34,194.63h-1.6c-1.6,0-2.9-.7-3.4-2-.5-.9-.7-2.5-.7-4.3v-4.3c0-2-.2-5-.5-8.8l1.4-1.6c.2-.2.5-.2.5,0,.2,2,.5,5,.5,8.8v6.6c0,1.8.9,2.7,2.7,2.7h1.1v2.9h0Z"/><path id="PATH_102" d="m834.74,190.03c0,2.9-1.6,4.5-4.5,4.5h-1.8v-2.7h1.6c2.3,0,3.4-.5,3.4-1.1,0-.7-.5-1.6-1.6-2.7l.9-2.3c0-.2.2-.2.2-.2,0,0,.2.2.5.5.9,1.1,1.3,2.7,1.3,4h0Zm-.2-10.1l-1.8,1.8-1.8-1.8,1.8-1.8,1.8,1.8Z"/><path id="PATH_103" d="m840.04,191.93c0,.9-.2,1.8-.7,2.5-.2.5-.5.7-.5.7,0,0-.2-.2-.2-.9,0-2.7-.5-9.1-1.4-19.3l1.8-1.8.2-.2v.5c.8,2.8.8,9.2.8,18.5h0Z"/><path id="PATH_104" d="m854.24,194.63h-.9c-.9,0-1.4-.2-1.8-.5v.7c0,2-.7,4.1-2,6.1-1.1,1.8-2.3,2.5-2.9,2.5-1.8,0-3.2,0-4.5-.2-.5,0-.7-.2-.7-.2,0,0,.2-.2.7-.2,1.8-.5,3.6-1.4,5.4-2.7,1.8-1.6,2.9-3.2,2.9-4.8,0-.9-.7-2.3-2.3-3.9l1.1-2c0-.2.2-.2.2-.2l.2.2c.7.9,1.1,1.6,1.6,1.8.7.5,1.6.9,2.5.9h.7v2.5h-.2Z"/><path id="PATH_105" d="m865.34,194.63h-1.8c-2,0-3.4-.7-4.3-2-.7,1.4-2.3,2-4.8,2h-1.4v-2.7h2c2.3,0,3.4-.9,3.6-2.5,0-.7.2-1.1.5-1.1s.5.5.5,1.1c.2,1.6,1.4,2.5,3.4,2.5h2v2.7h.3Zm-7.5,5l-1.8,1.8-1.8-1.8,1.8-1.8,1.8,1.8Zm3.9,0l-1.8,1.8-1.8-1.8,1.8-1.8,1.8,1.8Z"/><path id="PATH_106" d="m881.44,194.63h-1.4c-1.1,0-2.3-.7-3.2-1.8-.7,1.8-1.4,2.7-2,2.7-.7,0-1.8-.5-3.2-1.1-1.1-.7-2-1.4-2.5-1.8-1.1,1.4-2.3,2-3.4,2h-1.4v-2.7h1.4c1.1,0,2-.5,2.9-1.4.7-.7,1.4-1.6,2.3-2.5.9-.9,1.6-1.4,2.3-1.4.9,0,1.6.5,2.3,1.4.5.5.9,1.4,2,2.5.7.9,1.6,1.4,2.5,1.4h1.4v2.7h0Zm-6.1-1.8c0-.7-.2-1.4-.7-2.3-.5-.9-1.1-1.4-2-1.4-.7,0-1.6.7-2.5,1.8.2.2.9.7,2,1.4s2,.9,2.7.9c.33-.13.5-.27.5-.4Z"/><path id="PATH_107" d="m899.34,189.83c0,1.4-.2,2.5-.9,3.4s-1.8,1.6-2.9,1.6c-1.6,0-2.5-.7-3.2-1.8-.9,1.4-1.8,1.8-3.2,1.8-1.6,0-2.7-.7-3.4-1.8-.9,1.4-2,1.8-3.6,1.8h-1.6v-2.7h1.8c1.6,0,2.7-.9,2.9-2.7,0-.5.2-.7.5-.7s.2.2.5.7c.2,1.8,1.1,2.7,2.9,2.7.9,0,1.8-.2,2.3-.7.2-.5.5-.9.7-1.8,0-.5.2-.7.5-.7s.2.2.5.7c.2,1.8,1.1,2.7,2.7,2.7,1.8,0,2.5-.5,2.5-1.1s-.5-1.6-1.4-2.5l1.1-2c.2-.2.2-.5.5-.5s.2.2.5.5c.1.9.3,2,.3,3.1h0Zm-7.7-8.4l-1.6,1.6-1.6-1.6,1.6-1.6,1.6,1.6Zm2-3.4l-1.6,1.6-1.6-1.6,1.6-1.6,1.6,1.6Zm2.1,3.4l-1.6,1.6-1.6-1.6,1.6-1.6,1.6,1.6Z"/></g><g id="G_108"><path id="PATH_109" d="m1132.14,188.93h-1.1c-1.6,0-2.5-.7-3.2-1.8-.5,1.4-1.6,2-2.9,2-1.4,0-2.3-.7-2.9-2-.7,1.4-1.8,2-3.2,2-.5,0-1.1,0-1.6-.2,0,1.4-.2,2.7-.2,4.3-.7,1.6-1.8,2.9-3.9,3.9-1.8.7-3.6,1.1-5.7,1.1s-3.6-.5-5-1.4c-1.4-1.1-2-2.5-2-4.5,0-1.1.2-2,.7-3.4.5-.9.7-1.6,1.1-2,.2-.2.5-.2.5-.2.13,0,.2.07.2.2v.5c-.7,1.4-.9,2.7-.9,3.9s.5,2,1.1,2.9c.9,1.1,2.5,1.6,4.5,1.6,2.3,0,4.3-.5,5.9-1.1,1.4-.7,2.3-1.4,2.5-2.3.2-.2.2-.7,0-1.6,0-.7-.2-1.4-.2-1.6-.2-.7-.9-1.8-2.3-3.4l.9-1.8c.2-.2.2-.5.2-.5,0,0,.2,0,.2.5.7.9,1.1,1.6,1.4,1.8.7.7,1.4.9,2.3.9s1.8-.2,2.3-.9c.2-.5.5-.9.7-2,0-.5.2-.7.5-.7.2,0,.2.2.5.7.2,1.8,1.1,2.9,2.5,2.9,1.6,0,2.7-.9,2.7-2.7,0-.5.2-.7.5-.7.2,0,.5.2.5.7.2,1.8,1.1,2.7,2.7,2.7h1.4v2.3h-.7v-.1h0Z"/><path id="PATH_110" d="m1137.64,184.43c0,2.9-1.6,4.5-4.5,4.5h-1.8v-2.7h1.6c2.3,0,3.4-.5,3.4-1.1,0-.7-.5-1.6-1.6-2.7l.9-2.3c0-.2.2-.2.2-.2,0,0,.2.2.5.5.8,1,1.3,2.4,1.3,4Zm-1.8,9.5l-1.8,1.8-1.8-1.8,1.8-1.8,1.8,1.8Zm3.8,0l-1.8,1.8-1.8-1.8,1.8-1.8,1.8,1.8Z"/><path id="PATH_111" d="m1153.44,184.23c0,3.2-2,4.8-6.3,4.8-1.6,0-2.7-.2-3.4-.7-.9-.5-1.4-1.6-1.4-2.9,0-.7.2-1.4.5-2,.2-.2.2-.5.5-.5.2,0,.2.2.2.7v.7c0,.9.5,1.6,1.4,1.8.5.2,1.4.2,2.5.2,3.4,0,5-.5,5-1.6,0-1.6-2-3.9-5.9-6.6l.7-2.3c0-.2.2-.2.2-.2,0,0,.2,0,.5.2,3.7,2.9,5.5,5.6,5.5,8.4h0Z"/><path id="PATH_112" d="m1167.54,188.93h-.9c-.9,0-1.4-.2-1.8-.5v.7c0,2-.7,4.1-2,6.1-1.1,1.8-2.3,2.5-2.9,2.5-1.8,0-3.2,0-4.5-.2-.5,0-.7-.2-.7-.2,0,0,.2-.2.7-.2,1.8-.5,3.6-1.4,5.4-2.7,1.8-1.6,2.9-3.2,2.9-4.8,0-.9-.7-2.3-2.3-3.9l1.1-2c0-.2.2-.2.2-.2l.2.2c.7.9,1.1,1.6,1.6,1.8.7.5,1.6.9,2.5.9h.7v2.5h-.2,0Z"/><path id="PATH_113" d="m1172.94,184.43c0,2.9-1.6,4.5-4.5,4.5h-1.8v-2.7h1.6c2.3,0,3.4-.5,3.4-1.1,0-.7-.5-1.6-1.6-2.7l.9-2.3c0-.2.2-.2.2-.2,0,0,.2.2.5.5.9,1,1.3,2.4,1.3,4Zm-5.2,8.8l1.6-1.6,1.6,1.6-1.6,1.6-1.6-1.6Zm2,3.6l1.6-1.6,1.6,1.6-1.6,1.6-1.6-1.6Zm1.8-3.6l1.6-1.6,1.6,1.6-1.6,1.6-1.6-1.6Z"/></g><g id="G_114"><path id="PATH_115" d="m1179.24,393.43h-.9c-.9,0-1.6-.2-2.3-.9-.5-.5-.9-.9-1.4-1.8-.5.9-1.1,1.6-1.8,2-.9.5-2,.7-3.9.7-3.2,0-4.8-1.1-4.8-3.4,0-.7.2-1.6.7-2.3.2-.2.2-.5.5-.5.2,0,.2.2.2.5v1.4c0,1.4,1.1,2,3.4,2,3.2,0,4.8-.7,4.8-1.8,0-.7-.9-3.2-2.7-7.5l.9-1.8c.2-.2.2-.5.2-.5,0,0,.2.2.2.5.7,1.8,1.8,4.5,3.2,8.2.7,1.8,1.6,2.7,2.9,2.7h.7l.1,2.5h0Z"/><path id="PATH_116" d="m1184.74,388.93c0,2.9-1.6,4.5-4.5,4.5h-1.8v-2.7h1.6c2.3,0,3.4-.5,3.4-1.1,0-.7-.5-1.6-1.6-2.7l.9-2.3c0-.2.2-.2.2-.2,0,0,.2.2.5.5.8,1.1,1.3,2.7,1.3,4h0Zm-.2-10.2l-1.8,1.8-1.8-1.8,1.8-1.8,1.8,1.8Z"/><path id="PATH_117" d="m1196.24,392.53c0,3.4-1.1,6.3-3.4,8.6-.7.7-1.1,1.1-1.4,1.1-1.4,0-2.7-.2-4.3-.5-.7,0-.9-.2-.9-.2,0,0,.2-.2.9-.5,1.8-.5,3.6-1.6,5.2-2.9.7-.7,1.4-1.1,1.8-2,.7-.9,1.1-1.8,1.1-2.5v-.7h-2.9c-2,0-3.2-.9-3.2-2.5,0-1.1.2-2.3.9-3.6.7-1.4,1.6-2.3,2.5-2.3,1.4,0,2.5.9,3.2,2.9.3,1.7.5,3.3.5,5.1h0Zm-1.6-1.8c0-.7-.2-1.4-.7-2-.5-.7-1.1-1.1-1.8-1.1-.5,0-.9.2-1.1.5s-.5.7-.5,1.1c0,1.1.7,1.6,2.3,1.6.3.2.9-.1,1.8-.1h0Z"/><path id="PATH_118" d="m1205.34,393.43h-1.6c-1.6,0-2.9-.7-3.4-2-.5-.9-.7-2.5-.7-4.3v-4.3c0-2-.2-5-.5-8.8l1.4-1.6c.2-.2.5-.2.5,0,.2,2,.5,5,.5,8.8v6.6c0,1.8.9,2.7,2.7,2.7h1.1v2.9h0Z"/><path id="PATH_119" d="m1216.64,388.93c0,1.1,0,2-.5,2.9-.5,1.1-1.1,1.8-1.8,1.8-1.1,0-2.9-.7-5.2-2.3-.7.9-1.1,1.4-1.4,1.6-.7.5-1.4.7-2.3.7h-1.1v-2.7h1.6c.9,0,1.8-.5,2.7-1.6.5-.5,1.1-1.6,2-2.9.7-1.1,1.6-1.6,2.3-1.6,1.1,0,2,.5,2.7,1.6.6.9.8,1.6,1,2.5h0Zm-1.3,1.6c0-.7-.2-1.4-.7-2.3s-1.1-1.4-1.8-1.4-1.4.7-2.3,2c.5.5,1.1.9,2,1.4s1.8.7,2.3.7c.2.3.5.1.5-.4h0Z"/><path id="PATH_120" d="m1230.44,388.73c0,3.2-2,4.8-6.3,4.8-1.6,0-2.7-.2-3.4-.7-.9-.5-1.4-1.6-1.4-2.9,0-.7.2-1.4.5-2,.2-.2.2-.5.5-.5.2,0,.2.2.2.7v.7c0,.9.5,1.6,1.4,1.8.5.2,1.4.2,2.5.2,3.4,0,5-.5,5-1.6,0-1.6-2-3.9-5.9-6.6l.7-2.3c0-.2.2-.2.2-.2,0,0,.2,0,.5.2,3.5,2.9,5.5,5.9,5.5,8.4h0Z"/></g><g id="G_121"><path id="PATH_122" d="m1497.94,306.03c0,1.6-.5,2.7-1.4,3.6s-2.3,1.1-3.6,1.1c-.9,0-1.8-.2-2.5-.9-.7-.7-1.1-1.4-1.1-2.3,0-1.1.5-2.3,1.4-3.9.7-1.4,1.6-2.5,2.5-3.4,3.1,1.7,4.7,3.5,4.7,5.8h0Zm-1.3.9c0-.7-.5-1.4-1.6-2.3-.9-.9-1.6-1.4-2.5-1.6-1.1,1.6-1.8,2.7-1.8,3.6,0,.5.2.9.9,1.4.5.2.9.5,1.6.5.9,0,1.8-.2,2.5-.5.6-.6.9-.9.9-1.1Z"/><path id="PATH_123" d="m1512.04,310.83h-2.5c-.2,3.2-1.4,5.7-3.6,7.9-.7.7-1.1,1.1-1.4,1.1-1.1,0-2.7-.2-4.3-.5-.5,0-.9-.2-.9-.2,0,0,.2-.2.9-.5,1.8-.5,3.6-1.6,5.2-2.7.7-.7,1.4-1.1,1.8-2,.7-.9,1.1-1.8,1.1-2.5v-.7h-2.9c-2.3,0-3.2-.9-3.2-2.7,0-1.1.2-2.3.9-3.6.7-1.4,1.6-2.3,2.5-2.3,1.1,0,2,.7,2.7,2.3.5,1.1.9,2.3.9,3.6h2.5v2.7h.3v.1h0Zm-4.1-2.7c0-.7-.2-1.4-.7-2-.5-.9-1.1-1.1-1.8-1.1-.5,0-.9.2-1.1.5-.2.2-.5.7-.5,1.4,0,1.1.9,1.6,2.7,1.6.3-.2.7-.4,1.4-.4Z"/><path id="PATH_124" d="m1526.04,289.73c0,.5-.5,1.4-.9,2.5l-5.7,1.8c-2.5.9-4.3,1.6-5.2,2,1.8,1.8,2.9,3.2,3.6,3.9,1.1,1.6,1.8,2.9,2,4.5,0,1.1,0,2.3-.5,3.2-.7,2-3.2,2.9-7,2.9h-1.1v-2.7h1.4c1.8,0,3.2,0,3.9-.2,1.6-.5,2.5-1.1,2.5-2.3,0-1.6-1.1-3.4-3.6-5.7l-.2.5c-.2-.2-.7-.7-1.1-1.4-.7-.7-.9-1.4-.9-1.4,0-.5,0-.9.2-1.8s.5-1.4.7-1.6,1.8-.9,4.8-1.8c2.4-.8,5.1-1.7,7.1-2.4h0Z"/><path id="PATH_125" d="m1536.44,311.03c0,2.3-.7,4.3-2,6.3-1.1,1.6-2.3,2.5-2.9,2.5-1.8,0-3.2,0-4.5-.2-.5,0-.7-.2-.7-.2,0,0,.2-.2.7-.2,1.8-.5,3.6-1.4,5.4-2.7,1.8-1.6,2.9-3.2,2.9-4.8,0-.9-.7-2.3-2.3-3.9l1.1-2c0-.2.2-.2.2-.2l.2.2c.5.7,1.1,1.6,1.4,2.7.3.7.5,1.6.5,2.5h0Zm-1.6-12.2l-1.8,1.8-1.8-1.8,1.8-1.8,1.8,1.8Z"/><path id="PATH_126" d="m1548.24,309.93c0,3.4-1.1,6.3-3.4,8.6-.7.7-1.1,1.1-1.4,1.1-1.4,0-2.7-.2-4.3-.5-.7,0-.9-.2-.9-.2,0,0,.2-.2.9-.5,1.8-.5,3.6-1.6,5.2-2.9.7-.7,1.4-1.1,1.8-2,.7-.9,1.1-1.8,1.1-2.5v-.7h-2.9c-2,0-3.2-.9-3.2-2.5,0-1.1.2-2.3.9-3.6.7-1.4,1.6-2.3,2.5-2.3,1.4,0,2.5.9,3.2,2.9.3,1.7.5,3.3.5,5.1h0Zm-1.6-1.8c0-.7-.2-1.4-.7-2s-1.1-1.1-1.8-1.1c-.5,0-.9.2-1.1.5-.2.2-.5.7-.5,1.1,0,1.1.7,1.6,2.3,1.6.2.1.9-.1,1.8-.1h0Z"/><path id="PATH_127" d="m1562.24,310.83h-.9c-.9,0-1.4-.2-1.8-.5v.7c0,2-.7,4.1-2,6.1-1.1,1.8-2.3,2.5-2.9,2.5-1.8,0-3.2,0-4.5-.2-.5,0-.7-.2-.7-.2,0,0,.2-.2.7-.2,1.8-.5,3.6-1.4,5.4-2.7,1.8-1.6,2.9-3.2,2.9-4.8,0-.9-.7-2.3-2.3-3.9l1.1-2c0-.2.2-.2.2-.2l.2.2c.7.9,1.1,1.6,1.6,1.8.7.5,1.6.9,2.5.9h.7v2.5h-.2,0Z"/><path id="PATH_128" d="m1573.34,310.83h-1.8c-2,0-3.4-.7-4.3-2-.7,1.4-2.3,2-4.8,2h-1.4v-2.7h2c2.3,0,3.4-.9,3.6-2.5,0-.7.2-1.1.5-1.1s.5.5.5,1.1c.2,1.6,1.4,2.5,3.4,2.5h2v2.7h.3Zm-7.4,5l-1.8,1.8-1.8-1.8,1.8-1.8,1.8,1.8Zm4.1,0l-1.8,1.8-1.8-1.8,1.8-1.8,1.8,1.8Z"/><path id="PATH_129" d="m1582.24,304.43v.9c0,1.6-.2,2.5-.7,3.2-1.1,1.6-2.9,2.3-5.9,2.3h-3.2v-2.7h2.3c3.9,0,5.9-.7,6.3-1.8v-.5c0-.5,0-.7-.2-.9-.9.2-2,.2-2.9.2-2,0-3.2-.9-3.2-2.7,0-1.1.2-2.5.9-3.6.7-1.4,1.6-2,2.7-2,.9,0,1.8.7,2.5,1.8.9,1.5,1.4,3.6,1.4,5.8h0Zm-2.5-12.4l-1.8,1.8-1.8-1.8,1.8-1.8,1.8,1.8Zm.9,10.4c0-.7-.2-1.4-.7-2s-1.1-.9-1.8-.9c-.5,0-.9.2-1.4.5s-.5.7-.5,1.1c0,.9.7,1.4,2.3,1.4.5.1,1.2.1,2.1-.1Z"/></g><path id="_200" class="cls-3" d="m1158.64,291.43l-16.3,35.9-25.8,35.1h-36.5l-8.7-4.1,14.3-31.4c-4.3-10.5-8.6-21-12.9-31.5-.4-10.5-.9-21-1.3-31.5l2.4-14.7,16.8,6.6,33.1,10.8,15.1,12.5,19.8,12.3Z"/><g id="G_131"><path id="PATH_132" d="m1090.84,300.33c.5,1.1.8,1.8,1.2,2.8.4,1.3,1.2,1.5,2.6,1.5h.2v1.9h-.3c-.9,0-1.5-.2-2.1-.7h0c-.1,1.5-.5,2.9-.9,3.4-1,1.3-3.2,2.4-5,2.4-2.8,0-4.5-1.8-4.5-4.4,0-1.9.6-3.1,1.3-4.3l.6.3c-.5.9-.8,2.1-.8,2.7,0,1.2.4,2,1,2.5s1.7,1,2.8,1c1.2,0,2.6-.6,3.5-1.3.6-.5,1.1-.9,1.1-1.5s-.1-1.2-.5-2.4c-.5-1.1-.8-1.8-1.2-2.4.3-.5.6-1.1,1-1.6h0v.1h0Zm-3.5-4.4c.6.4,1.2,1,1.8,1.6-.3.5-.7,1-1.2,1.4-.6-.5-1.1-1-1.7-1.5.4-.6.8-1.1,1.1-1.5h0Z"/><path id="PATH_133" d="m1095.14,304.63c.7,0,1.7-.1,2.6-.4-.2-.6-.3-1.3-.3-2,0-.9.3-1.8.9-2.7.4-.6.9-1,1.4-1.4,0-.5.1-1,.3-1.5h.1c1.4,1.4,3.5,2.6,5.2,3.9,1.3,1,1.8,1.8,1.8,3.1,0,1.5-.9,2.7-2.9,2.7-1.2,0-3.1-.4-5-1-1.6.7-2.9,1-4,1h-.3c-.8,0-1-.6-1-1s.2-.9,1-.9h.2v.2h0Zm7-2.4c0-1.2-.9-2.3-1.5-2.3-1.1,0-2.4,1.6-2.4,2.3,0,.5.5,1.2,1.6,1.7.7-.3,2.3-.9,2.3-1.7Zm2.5,2.7c.8,0,1.6-.3,1.6-.7,0-1-1.3-2-3.1-3.2-.1,1.2-.5,2.3-1.1,3.4.7.3,1.6.5,2.6.5h0Z"/><path id="PATH_134" d="m1110.24,302.53c0,1.3.6,2.3,2.4,2.3,1.1,0,2.1-.4,3.2-1,.2-.1.3-.2.3-.4,0-.8-.5-1.8-1.4-2.8-.8-.9-1.9-1.7-3-2.2-.4-.2-.5-.4-.5-.5,0-.4.4-1.1.7-1.7h.1c1.2.7,2.5,1.8,3.5,3,.9,1.1,1.5,2.2,1.5,3.5,0,.9-.2,1.8-.6,2.6-1.3.8-2.7,1.4-4.1,1.4-1.7,0-2.8-.9-2.8-3.1,0-.2,0-.6.1-1.1h.6Z"/><path id="PATH_135" d="m1124.44,305.03c-1.7,0-3.2-.8-3.2-2.8,0-1,.4-1.8.9-2.5.7-.7,1.4-1.2,2.1-1.2.8,0,1.6.6,2.2,1.7.6,1,.9,2.4.9,4,0,1.4-.3,2.7-1.1,3.9-1.3,2-2.5,2.8-3.8,2.8s-2.7-.4-4.2-1.4l.2-.5c.7.4,1.4.5,2.1.5,1.5,0,3-.7,4.3-2.2.7-.7,1.3-1.6,1.4-2.4-.4,0-1.1.1-1.8.1Zm-.6-4.7c-.7,0-1.6.8-1.6,1.3,0,.9,1.3,1.6,2.5,1.6.6,0,1.1-.1,1.7-.2-.5-1.5-1.3-2.7-2.6-2.7h0Z"/><path id="PATH_136" d="m1134.84,299.03l1,2c.4.7.7,1.5.7,2.8v1.6c0,1.3-.7,2.7-1.8,4.1-.9.9-1.7,1.3-2.4,1.3-1.1,0-2.3-.4-3.8-1.1l.2-.5c.5.1,1,.3,1.6.3,2.1,0,4.2-1.8,5.1-4,.1-.2.2-.5.2-.6,0-.2-.1-.5-.2-.8-.5-1.2-1.1-2.2-1.8-3.2.4-.8.8-1.4,1.2-1.9h0Z"/></g><path id="_325" class="cls-1" d="m1021.14,351.33l26.6,3.6,23.6,3.4c-2.3,5.7-4.6,11.5-6.9,17.2,1.1,10.2,2.2,20.4,3.3,30.6,3.4,7.5,6.9,15,10.3,22.5-4.9,7.7-9.7,15.3-14.6,23l-11.5,18.3c-.8,10-1.7,20-2.5,30-4.2-2.7-8.4-5.3-12.7-8l-20.2-18.4-18.5-12.9-12.5-21.6,16.5-45.7c6.4-13.9,12.8-27.9,19.1-42h0Z"/><g id="G_138"><path id="PATH_139" d="m1006.84,420.13c.6,1.1.9,1.9,1.3,3,.5,1.4,1.3,1.6,2.8,1.6h.2v2h-.3c-.9,0-1.6-.2-2.2-.7h0c-.1,1.6-.5,3-1,3.6-1.1,1.4-3.5,2.5-5.3,2.5-2.9,0-4.8-2-4.8-4.7,0-2,.6-3.4,1.3-4.5l.6.3c-.5,1-.9,2.2-.9,2.9,0,1.3.4,2.2,1,2.7.6.6,1.8,1,3,1s2.8-.6,3.8-1.4c.7-.5,1.1-1,1.1-1.6s-.1-1.2-.6-2.6c-.5-1.2-.9-2-1.2-2.5.3-.6.7-1.1,1.1-1.7h.1v.1h0Zm-3.8-4.7c.6.5,1.3,1,1.9,1.7-.3.6-.8,1.1-1.3,1.5-.6-.6-1.2-1.1-1.8-1.6.4-.6.8-1.1,1.2-1.6h0Z"/><path id="PATH_140" d="m1012.84,424.73c.2-1.1.5-2.2.8-3.3.4-1.5,1-2.8,1.8-4h.1c.1.3.4.6.6.9,1.2,1.6,2,3.1,2,4.4,0,.7-.1,1.4-.3,2.1h3v2h-.4c-.3,0-.9,0-1.3-.2h-.1c.4.7.6,1.5.6,2.1,0,.7-.2,1.4-.5,1.9-.5.8-1.4,1.5-2.3,1.5-.7,0-1.5-.2-2.2-.6-1.3-.8-2.1-2.4-2.1-4v-.8c-.4,0-.8.1-1.2.1h-.3c-.9,0-1.1-.6-1.1-1s.2-1,1.1-1h1.8v-.1h0Zm1.7,4.2c.8,1,2,1.6,3,1.6.6,0,.9-.3.9-.8s-.1-1.1-.6-1.9c-.5-.7-1.2-1.2-2.5-1.2-.6,0-1.2,0-1.8.1.1.7.5,1.6,1,2.2h0Zm1.6-4.4c.8-.2,1-.5,1-.8,0-1-.9-2.4-1.9-3.8h-.1c-.5,1.5-1,3.1-1.5,4.8,1,0,1.8,0,2.5-.2Z"/><path id="PATH_141" d="m1021.34,424.73c1.2,0,2.1-.8,2.6-2.8.2-.6.6-1.3,1.2-1.9.6-.5,1.2-.9,2-.9,1.9,0,3,2.6,3.3,5.4-.3,1.4-.9,2-1.7,2-1.5,0-3.1-.7-4.6-1.8h-.1c-.4,1.4-1.3,2-2.7,2h-.3c-.9,0-1.1-.6-1.1-1s.2-1,1.1-1h.3,0Zm5.4-.6c.6.2,1.2.5,1.9.5.2,0,.4,0,.5-.2-.5-2.4-1.5-3.4-2.5-3.4-.9,0-1.6.5-2.1,1.5.5.7,1.3,1.2,2.2,1.6Z"/><path id="PATH_142" d="m1042.24,424.73v2h-1.3c-.1,1-.5,2.2-1.2,3.2-1.2,1.8-2.9,2.7-3.8,2.7-1.4,0-3-.7-4.5-1.6l.3-.5c.6.3,1.4.6,2.3.6,1.6,0,3-.8,4.3-2.2.8-.8,1.3-1.4,1.5-2.2h-.8c-3.2,0-4.8-1-4.8-3.2,0-1.1.3-1.9.8-2.5.6-.9,1.4-1.5,2.4-1.5,1.4,0,2.9,2,3.4,5.2h1.4,0Zm-3.5-2.2c-.5-.6-1.1-.9-1.7-.9-.9,0-1.8.8-1.8,1.4,0,.8.7,1.3,1.7,1.5.9.2,1.8.2,2.8.2-.1-.8-.5-1.7-1-2.2Z"/><path id="PATH_143" d="m1042.54,424.73c1.3,0,2.4,0,3.1-.3.5-.2.9-.4.9-.7,0-.7-.8-2.3-1.6-3.9.4-.7.8-1.3,1.2-1.8h.1c.7,1.3,1.6,3.2,1.6,4.8,0,1.2-.5,2.1-1.1,2.9-.7.7-1.8.9-4.2.9h-.2c-.9,0-1.1-.6-1.1-1s.2-1,1.1-1h.2v.1Zm3,5c.6.5,1.3,1,1.9,1.7-.3.6-.8,1.1-1.3,1.5-.6-.6-1.2-1.1-1.8-1.6.3-.6.7-1.1,1.2-1.6h0Z"/></g><path id="_188" class="cls-2" d="m690.24,430.13l-16.3,19c-10,3.8-20.1,7.5-30.1,11.3-1.8,3.2-3.6,6.4-5.4,9.5-.5,4.1-.9,8.2-1.4,12.3,2.8,3.1,5.7,6.1,8.5,9.2,6.2-.6,12.3-1.3,18.5-1.9l16.5-7.1,7.7-8.5,4.7,7.8c3.4,3.5,6.8,7,10.1,10.5,4.8-3.4,9.5-6.8,14.3-10.2,1.9-7.4,3.9-14.8,5.8-22.1,1.6-4,3.2-7.9,4.8-11.9-6.4-4.5-12.7-9.1-19.1-13.6l-18.6-4.3h0Z"/><g id="G_145"><path id="PATH_146" d="m658.84,464.03c-1.2,0-2-.4-2-1.3,0-.3.1-.7.4-1.3.5-1,1.7-2,3.6-3.1l-.1-.8c.3-.3.6-.7.9-.9h.1c0,1.7,0,3.5.1,5.2,0,.8.1,1.3.4,1.6.3.2.7.3,1.2.3h.3v1.4h-.2c-1.1,0-1.9-.3-2.3-1.6-.8.3-1.5.5-2.4.5h0Zm2-4.5c-2,1-3,1.9-3,2.5,0,.4.7.6,1.4.6.5,0,1-.1,1.7-.3l-.1-2.8h0Z"/><path id="PATH_147" d="m672.24,465.13h-.2c-1.4,0-2.1-.8-2.9-1.8-.4-.5-.7-.9-1-1.2h0c0,1.8-1,3.1-4.2,3.1h-.3c-.6,0-.8-.4-.8-.8,0-.3.2-.7.8-.7h.4c.9,0,2-.2,2.7-.7.2-.1.6-.4.6-.6s-.1-.5-.2-.8c-.5-1-1.5-1.8-2.7-3-.3-.3-.6-.6-.8-.8,0-.2-.1-.3-.1-.5,0-.3.1-.6.3-1,.1-.2.3-.3.4-.4,1.2-.8,3.8-1.6,6.8-2.6h0c-.2.5-.5.9-.8,1.3-.7.2-1.6.5-2.6.8-1.3.5-2.7,1-3.4,1.4h0c.6.3,1.3.6,1.8.8l-.3.6c1.2,1.1,2.5,2.3,4,4,.6.7,1.3,1.1,2.2,1.1h.2v1.8h.1Zm-8.1-10c.1-.2.1-.5.3-.7,1.6-.8,3.7-1.5,6.2-2.2h0l-.4.7c-2.7.7-4.5,1.5-6.1,2.2h0Z"/><path id="PATH_148" d="m672.44,463.63c1,0,1.7,0,2.2-.2.4-.1.6-.3.6-.5,0-.5-.5-1.6-1.1-2.8.3-.5.6-.9.8-1.3h.1c.5.9,1.1,2.3,1.1,3.4,0,.8-.3,1.5-.8,2.1-.5.5-1.3.7-3,.7h-.1c-.6,0-.8-.4-.8-.8,0-.3.2-.7.8-.7h.2v.1h0Zm1.6-8.3c.5.3.9.7,1.3,1.2-.2.4-.6.8-.9,1.1-.4-.4-.9-.8-1.3-1.2.3-.4.6-.8.9-1.1Z"/><path id="PATH_149" d="m678.64,462.03c0,1,.4,1.7,1.8,1.7.9,0,1.6-.3,2.4-.7.1-.1.2-.2.2-.3,0-.6-.4-1.4-1.1-2.1-.6-.7-1.5-1.3-2.3-1.7-.3-.1-.4-.3-.4-.4,0-.3.3-.9.6-1.3h.1c.9.6,1.9,1.4,2.7,2.3.7.9,1.1,1.7,1.1,2.7,0,.7-.2,1.4-.5,2-1,.6-2.1,1-3.1,1-1.3,0-2.2-.7-2.2-2.4,0-.2,0-.5.1-.8h.6Z"/><path id="PATH_150" d="m689.64,459.33l.8,1.5c.3.6.6,1.2.6,2.1v1.2c0,1-.5,2.1-1.4,3.1-.7.7-1.3,1-1.9,1-.8,0-1.8-.3-2.9-.9l.1-.4c.3.1.8.2,1.2.2,1.6,0,3.2-1.4,3.9-3,.1-.2.1-.4.1-.5,0-.2-.1-.4-.2-.6-.4-.9-.9-1.7-1.3-2.5.4-.3.7-.8,1-1.2h0Z"/><path id="PATH_151" d="m695.94,465.13h-.1c-.9,0-1.5-.2-1.9-.6-.7-.7-.7-1.5-.7-3.1,0-2.1-.1-4.4-.3-6.7.4-.4.7-.8,1.1-1h.1c.2,2.5.2,5.4.2,8.1v.6c0,.7.4,1,.8,1.2.3.1.6.1.7.1h.2v1.4h-.1Z"/><path id="PATH_152" d="m697.24,463.63c.2-.8.4-1.6.6-2.4.3-1.1.7-2,1.3-2.9h.1c.1.2.3.4.4.7.8,1.2,1.5,2.2,1.5,3.2,0,.5-.1,1-.2,1.5h2.2v1.4h-.3c-.2,0-.7,0-.9-.1h-.1c.3.5.5,1.1.5,1.5,0,.5-.1,1-.4,1.3-.3.6-1,1.1-1.7,1.1-.5,0-1.1-.1-1.6-.4-.9-.6-1.5-1.8-1.5-2.9v-.6c-.3,0-.6.1-.9.1h-.2c-.6,0-.8-.4-.8-.8,0-.3.2-.7.8-.7h1.2Zm1.2,3c.6.7,1.4,1.1,2.1,1.1.4,0,.7-.2.7-.6s-.1-.8-.4-1.3c-.3-.5-.9-.9-1.8-.9-.4,0-.8,0-1.3.1,0,.6.3,1.2.7,1.6h0Zm1.2-3.1c.5-.1.7-.4.7-.6,0-.7-.7-1.7-1.4-2.7h-.1c-.4,1.1-.7,2.3-1.1,3.4.8,0,1.4,0,1.9-.1h0Z"/><path id="PATH_153" d="m703.74,463.63c1.8,0,3.7-.6,6-2h0c-1.3-.5-2.5-.8-3.5-.8-.6,0-1.1.2-1.4.6l.1.6-.3,1h-.1l-.6-1.5c.1-1.2,1.1-2,2.4-2,.8,0,1.9.3,3.7,1,.5.2,1.2.3,1.9.4h.9l-.6,1.2c-.9,0-1.6.2-1.9.4l-1.9,1.2c-1.5,1-3.1,1.5-4.9,1.5h-.6c-.6,0-.8-.4-.8-.8,0-.3.2-.7.8-.7h.8v-.1h0Zm3,4.9c-.5-.4-.9-.8-1.3-1.2.3-.4.6-.8.9-1.1.5.4.8.7,1.3,1.2-.4.5-.6.8-.9,1.1Zm1.5,2.2c-.5-.4-.9-.8-1.3-1.2.3-.4.6-.8.9-1.1.5.4.8.7,1.3,1.2-.3.5-.5.8-.9,1.1Zm.6-2.4c-.5-.4-.9-.8-1.3-1.2.3-.4.6-.8.9-1.1.5.4.8.7,1.3,1.2-.3.6-.5.9-.9,1.1Z"/></g><polygon id="_211" class="cls-10" points="810.34 440.83 809.24 456.43 817.84 475.43 835.94 493.13 840.44 495.93 845.54 488.23 858.14 487.83 873.04 488.73 884.84 485.63 890.44 474.33 890.44 459.13 895.74 444.83 899.24 432.73 895.74 429.23 886.54 424.03 873.04 420.83 861.94 417.93 852.94 418.63 838.54 425.23 828.64 431.23 822.54 430.13 812.04 438.13 810.34 440.83"/><g id="G_155"><path id="PATH_156" d="m837.74,452.63c-.5-.7-1.5-1.8-3.4-3.2-.3-.2-.4-.7-.4-1,0-.2.1-.5.3-.7.1-.2.3-.4.8-.7,1.3-.7,3.5-1.4,6-2.2l.1.1c-.2.5-.5.9-.8,1.4-.6.1-1.2.3-1.8.5-1.2.4-2.4.9-3.7,1.5h0l1.8.7-.3.6c1.7,1.4,2.9,2.8,2.9,4.3v.2c-.1,1-.4,1.6-.8,1.9-1,.8-3.1,1.1-5.2,1.1-2.8,0-4.6-1.1-4.6-3.6,0-.8.1-1.3.4-2l.4.1c-.1.4-.2.8-.2,1.2,0,1.8,1.4,2.8,4.1,2.8,1.6,0,3.9-.3,4.9-1.2,0-.2-.1-.6-.2-.9.1-.3-.1-.6-.3-.9h0Z"/><path id="PATH_157" d="m845.94,453.03c.6,1.5,1.2,2.4,2.5,2.4h.2v1.4h-.2c-.5,0-.9-.1-1.1-.4h0v.4c0,.5-.1,1.2-.4,1.7-.9,1.6-1.9,2.2-2.7,2.2s-1.9-.4-2.8-.9l.2-.4c.3.1.7.2,1.3.2,1.5,0,3.5-1.7,3.7-3.4-.1-.1-.2-.3-.3-.5-.4-.6-.7-1.1-1-1.7.2-.2.4-.6.6-1h0Zm-.9-3.9c.5.3.9.7,1.3,1.2-.2.4-.6.8-.9,1.1-.4-.4-.9-.8-1.3-1.2.3-.3.6-.7.9-1.1Z"/><path id="PATH_158" d="m848.94,455.53c1,0,1.7,0,2.2-.2.4-.1.6-.3.6-.5,0-.5-.5-1.6-1.1-2.8.3-.5.5-.9.8-1.3h.1c.5.9,1.1,2.3,1.1,3.4,0,.8-.3,1.5-.8,2.1-.5.5-1.3.7-3,.7h-.1c-.6,0-.8-.4-.8-.8,0-.3.2-.7.8-.7h.2v.1h0Zm1.1,5.9c-.5-.4-.9-.8-1.3-1.2.3-.4.6-.8.9-1.1.5.4.8.7,1.3,1.2-.4.5-.6.8-.9,1.1Zm2.1-.2c-.5-.4-.9-.8-1.3-1.2.3-.4.6-.8.9-1.1.5.4.8.7,1.3,1.2-.3.6-.6.9-.9,1.1Z"/><path id="PATH_159" d="m858.34,453.03c.6,1.5,1.2,2.4,2.5,2.4h.2v1.4h-.2c-.5,0-.9-.1-1.1-.4h0v.4c0,.5-.1,1.2-.4,1.7-.9,1.6-1.9,2.2-2.7,2.2s-1.9-.4-2.8-.9l.2-.4c.3.1.7.2,1.3.2,1.5,0,3.5-1.7,3.7-3.4-.1-.1-.2-.3-.3-.5-.4-.6-.7-1.1-1-1.7.1-.2.3-.6.6-1h0Z"/><path id="PATH_160" d="m862.24,455.53c.2-.8.4-1.6.6-2.4.3-1.1.7-2,1.3-2.9h.1c.1.2.3.4.4.7.8,1.2,1.5,2.2,1.5,3.2,0,.5-.1,1-.2,1.5h2.2v1.4h-.3c-.2,0-.7,0-.9-.1h-.1c.3.5.5,1.1.5,1.5,0,.5-.1,1-.4,1.3-.3.5-1,1.1-1.7,1.1-.5,0-1.1-.1-1.6-.4-.9-.6-1.5-1.8-1.5-2.9v-.5c-.3,0-.6.1-.9.1h-.2c-.6,0-.8-.4-.8-.8,0-.3.2-.7.8-.7h1.2v-.1h0Zm1.3,2.9c.6.7,1.4,1.1,2.1,1.1.4,0,.7-.2.7-.5s-.1-.8-.4-1.3c-.3-.5-.9-.9-1.8-.9-.4,0-.8,0-1.3.1,0,.5.3,1.1.7,1.5h0Zm1.1-3.1c.5-.1.7-.4.7-.6,0-.7-.7-1.7-1.4-2.7h-.1c-.4,1.1-.7,2.3-1.1,3.4.8.1,1.4.1,1.9-.1h0Z"/><path id="PATH_161" d="m875.14,444.83c-.2.5-.5.9-.8,1.4-.6.1-1.2.3-1.8.5-1.2.4-2.4.9-3.7,1.5h0l1.8.7-.3.6c1.7,1.4,2.9,2.8,2.9,4,0,1-.3,1.9-.7,2.3-.7.6-1.8,1-3.9,1h-.4c-.6,0-.8-.4-.8-.8,0-.3.2-.7.8-.7h.7c1.2,0,2.2-.1,3-.6.4-.2.6-.5.6-.6,0-.5-.3-1.1-.8-1.7-.5-.7-1.5-1.8-3.4-3.2-.3-.2-.4-.7-.4-1,0-.2.1-.5.3-.7.1-.2.3-.4.8-.7,1.3-.5,3.4-1.2,6.1-2h0Z"/></g></svg>