



    


<svg version="1.1" id="Layer_1" xmlns="http://www.w3.org/2000/svg" xmlns:xlink="http://www.w3.org/1999/xlink" x="0px" y="0px" viewBox="0 0 385 426" style="enable-background:new 0 0 385 426;" xml:space="preserve" width="100%" height="100%">
<style type="text/css">
	.st0{fill:#FDFAD4;stroke:#010101;stroke-width:0.2;stroke-miterlimit:10;}
	.st1{fill:#FBD0D1;stroke:#010101;stroke-width:0.2;stroke-miterlimit:10;}
	.st2{fill:#DBECCB;stroke:#010101;stroke-width:0.2;stroke-miterlimit:10;}
	.st3{fill:#E8D0E5;stroke:#010101;stroke-width:0.2;stroke-miterlimit:10;}
	.st4{fill:none;stroke:#020202;stroke-width:0.5;stroke-miterlimit:10;}
</style>
	<path class="st0 area" d="M150.7,265.5c-5.8,1.8-12.1-1.8-17,0.9c-4.5,2.2-8.5,5.4-9,10.3c-0.4,7.6,2.7,15.3,0,22
		c-1.6,4.1-4.5,7.3-7.7,10.5c2.1,3.1,2.4,6.5,2.4,9.9c0,4.7,0.8,22,0.8,22.1c-0.1,1.9-1,11-3.5,13.6c-0.9,0.9,1.5,6.6,4.8,11.9
		c1.2,0.9,8.2,6.2,10.7,9.4c2.8,3.6,4.9,12.5,4.9,16.7c0,2.9,3.7,8.1,5.1,9.9l0.1,0.1l8.3,14c6.1-0.7,17.1-2.1,19-2.5
		c2.2-0.5,8.3-0.3,12.7,0.1c-1.1-4.2-4.3-15.9-4.3-18.3c0-3.1-1.3-36.5-2-39.7c-0.7-3.4-1.9-5.3-3.8-5.7c-1.8-0.4-4.2-3.5-7.9-8.4
		c-2.4-3.1-4.8-6.4-6.5-7.8c-1.6-1.3-2.3-2.7-2.2-4c0.2-2.3,2.6-3.8,5-5.2c2.9-1.7,12.4-8.6,14.7-10.2l-1.3-51.4
		C165.9,262.8,158.3,262.8,150.7,265.5z" id="_x39_12" title="خاتمی"></path>
	<path class="st1 area" d="M108.1,266.4c-3.1-8.5-0.9-21.1-10.8-25.6c-4-1.8-9.4-1.3-13.9,1.3c-2.7,1.8-7.2,0-9.4-3.1
		c-9-11.7-13-25.1-22-35.9c-1.2-1.2-3.3-2.1-5.8-2.9l-10.7,12.3l-0.6-0.1c-0.1,0-10-1.5-17.5,2.3c-1.2,0.6-2.6,1.1-4,1.3
		c1.7,2.3,5.2,6.8,9,10.2c2.8,2.4,4.1,5.3,3.6,8.1c-0.4,2.6-2.2,4.8-4.7,5.8c-2.7,1.1-7.6,5.9-10,8.5L24.7,265
		c11.8,6.6,34.8,19.2,38.4,20.4c4.6,1.5,11.2,10.3,12.9,12.6c3.7,0.2,25.1,1.6,27.9,1.6c2.8,0,4.9,1.9,7.4,4.2
		c0.9,0.8,1.8,1.6,2.8,2.4c1.2,0.9,2.1,1.9,2.8,2.9c3.2-3.2,6.1-6.4,7.7-10.5c2.7-6.7-0.4-14.4,0-22c0.3-3.8,2.8-6.5,5.9-8.6
		C122.5,267.1,111.2,273.9,108.1,266.4z" id="_x39_07" title="ابرکوه"></path>
	<path class="st0 area" d="M98.6,147.5c4.9,4,11.2,1.3,16.1-0.9c6.7-2.2,16.1,4.9,22.9-0.9c7-5.7,14.3-10.3,23-10.4
		c0.8-1.9,2-3.9,2.6-5.7c0-1.3,0.4-3.1,0-3.1c-9.4-5.4-17.9,3.6-27.4,5.4c-7.2,1.4-13-1.8-19.3-5.8c-1.8-1.3-5.4-0.9-6.7,0.4
		c-4.9,5.8-12.6,8.5-17.9,5.4c-1.4-0.7-2.9-1.4-4.3-2.1C90.5,136.1,93.3,142.5,98.6,147.5z" id="_x39_02" title="میبد"></path>
	<path class="st2 area" d="M161,141.2c-1.7-1.5-1.3-3.6-0.3-5.9c-8.7,0.1-16.1,4.7-23,10.4c-6.7,5.8-16.1-1.4-22.9,0.9
		c-4.9,2.2-11.2,4.9-16.1,0.9c-5.3-5-8.1-11.4-11.1-17.8c-6.6-2.8-13.7-3.8-18.1,2.1c-9,12.1-15.7,24.2-28.3,32.7
		c-3.1,2-6.6,2.2-10.1,1.8c-0.5,5-1,9.7-1.2,11.3l17.8,21l-1.5,1.7c2.4,0.7,4.6,1.7,5.8,2.9c0.2,0.2,0.4,0.5,0.6,0.7
		c0.6,0.1,1.1,0.1,1.7,0.2c5.4,0.9,10.3,5.4,15.3,3.1c8.5-4,20.6-11.2,16.2-22c-0.9-2.2-3.6-5.8-2.7-8.5c2.2-4.5,8.5-7.6,12.6-4.5
		c13.9,13,33.2,12.1,48.4,5.8c3.1-0.9,0-9,2.2-13.5c5.3-9.8,17.4-12.9,24.9-21.6C167.8,144.2,164.4,144.1,161,141.2z" id="_x39_14" title="اشک زر"></path>
	<path class="st1 area" d="M153.4,178c0.9,0,1.8,1.3,1.8,1.8c1.8,3.1-0.9,5.4-0.9,8.1c-0.4,3.6,5.8,4.9,8.1,3.1
		c7.2-6.7,13.9-7.6,22.9-5.8c4.3,0.7,9.3,0.7,13.9-0.6c0.2-0.5,0.5-1.1,0.9-1.6c1.3-2.2,5.4-2.7,6.7-4.9c2.2-3.6,0.4-8.5-2.7-11.2
		c-1.8-1.8-2.2-4-1.3-6.3c0.9-2,2-4.1,3.3-6.1c-0.7-2,0.8-4,0.8-6c0-3.1-3.1-3.1-5.4-4.5c-5.8-4.5-7.6-14.8-15.3-10.8
		c-4.9,3-9.9,7.9-15,9.8c-7.5,8.7-19.6,11.8-24.9,21.6c-2.1,4.3,0.6,11.9-1.9,13.3C146.9,179.2,149.6,178.4,153.4,178z" id="_x39_17" title="یزد"></path>
	<path class="st3 area" d="M142.6,236.8c3.1-6.3,10.8-8.1,15.3-13.9c0.4-1.3,0-3.1-0.4-4.5c-3.6-5.4-13.5-7.2-11.2-14.4
		c0-0.9,1.3-2.7,1.8-3.1c1.1-5.7,2.6-10.5,6.4-14c0.5-2.3,2.3-4.3,0.8-7.1c0-0.4-0.9-1.8-1.8-1.8c-3.7,0.3-6.4,1.2-9.1-0.1
		c-0.1,0.1-0.2,0.1-0.4,0.1c-15.3,6.3-34.5,7.2-48.4-5.8c-4-3.1-10.3,0-12.6,4.5c-0.9,2.7,1.8,6.3,2.7,8.5
		c4.5,10.8-7.6,17.9-16.2,22c-4.9,2.2-9.9-2.2-15.3-3.1c-0.5-0.1-1.1-0.1-1.7-0.2c8.6,10.6,12.6,23.8,21.4,35.2
		c2.2,3.1,6.7,4.9,9.4,3.1c4.5-2.7,9.9-3.1,13.9-1.3c9.9,4.5,7.6,17,10.8,25.6c3.1,7.5,14.5,0.7,22.5,1.8c1-0.6,2-1.2,3.1-1.8
		c1.9-1,3.9-1.1,6.1-1c1.4-2.6,3.2-5,4.2-7.5C146.2,250.7,139.5,243.1,142.6,236.8z" id="_x39_08" title="تفت"></path>
	<path class="st2 area" d="M237.3,231.9c-2.2-6.7-1.4-13.5-3.6-20.2c-4-13-18.8-14.4-29.6-19.3c-3.1-1.6-6.2-4.4-5-7.8
		c-4.6,1.3-9.6,1.3-13.9,0.6c-9-1.8-15.7-0.9-22.9,5.8c-2.2,1.8-8.5,0.4-8.1-3.1c0-0.3,0-0.7,0.1-1c-3.8,3.5-5.3,8.3-6.4,14
		c-0.4,0.4-1.8,2.2-1.8,3.1c-2.2,7.2,7.6,9,11.2,14.4c0.4,1.4,0.9,3.1,0.4,4.5c-4.5,5.8-12.1,7.6-15.3,13.9
		c-3.1,6.3,3.6,13.9,1.4,21.1c-1.1,2.5-2.8,5-4.2,7.5c3.5,0.2,7.3,1.2,11,0.1c7.6-2.7,15.2-2.7,23.3-1.8l-0.1-2l0.8-0.3
		c0.2-0.1,5.4-2,7.4-2.7c2.1-0.7,8.9-2.7,14.2-3.4c5.1-0.6,15.3,3.6,17.5,4.6c3-0.8,21.1-6,24.1-7.2c1.7-0.7,9-3.5,15.6-6.1
		C246.3,243.7,239.9,239.9,237.3,231.9z" id="_x39_11" title="مهریز"></path>
	<path class="st0 area" d="M317.1,186.1c-0.9-3.1-2.7-6.7-5.8-7.6c-3.6-1.4-6.7,2.2-10.8,1.3c-0.4-0.4-0.9-1.3-1.8-1.3
		c0.4-6.7,4-15.7-4-18.4c-5.4-1.8-11.2,0.9-15.7-1.3c-6.8-3.4-12.8-12.2-10.6-19.6c-4.3,2.6-8.5,5.4-13.1,6.6
		c-11.7,3.6-24.7,0.9-35.9,8.1c-0.9,0.4-2.7-0.4-3.6,0c-2.7,3.1-7.2,4.5-9.4,1.3c-0.1-0.2-0.2-0.5-0.3-0.7c-1.2,2-2.4,4.1-3.3,6.1
		c-0.9,2.2-0.4,4.5,1.3,6.3c3.1,2.7,4.9,7.6,2.7,11.2c-1.4,2.2-5.4,2.7-6.7,4.9c-3.1,4,0.4,7.6,4,9.4c10.8,4.9,25.6,6.3,29.6,19.3
		c2.2,6.7,1.3,13.5,3.6,20.2c2.7,8.1,9,11.9,16.2,14.8c6.1-2.4,11.5-4.5,11.7-4.5c0.2-0.1,10.8-3.4,18-6c8.4-3.1,26-13.4,27.2-19.1
		c0.7-3.5,2.3-5.6,3.7-7.2c1.3-1.6,2.3-2.9,2.3-5.2c0-3.2,2.4-5.6,5.3-7.1C319.4,194.2,317.9,190.5,317.1,186.1z" id="_x39_05" title="بافق"></path>
	<path class="st3 area" d="M273.1,132.7c2.7-1.8,5.8-0.4,8.5-2.7c7.2-6.7,14.8-10.3,23.8-13.5c8.5-2.7,17-3.1,25.6-4.9
		c5.7-1.3,9.6-5.6,14.4-9.1c-1.9-3.1-3.6-6-5.1-8.5c-1.3-2.2-2.3-3.9-2.8-4.6c-2.3-3.4-10.7-11.1-14.7-11.6
		c-4.7-0.6-26.4-6.7-27.3-7l-0.4-0.1l-0.2-0.4c-1.3-2-12.8-19.3-13.4-22.9c-0.4-2.7-4.6-11.1-6.2-14.1L258.4,9.2
		c-1.6,1-3.1,1.2-4.5,1.2h-9.2c-1.5,2.2-6,8.6-8.8,9.7c-2.2,0.9-11.4,7.7-14.7,10.2l-0.2,0.2l-0.2,0.1c-0.4,0.1-8.9,2.1-13.1,1.2
		c-1.9-0.4-3.3,0.9-5.5,3c-1.2,1.1-2.5,2.3-4,3.2c-0.9,0.5-1.6,1-2.3,1.4c-2.5,1.6-4.2,2.7-7.1,2.7h-26.9c-5,0-8.3,6-8.3,9.9
		c0,5.5-5.3,12.2-12.9,13.1c-4.7,0.5-6.2,1-8.4,1.8c-1.1,0.4-2.3,0.8-4.1,1.3c-0.7,0.2-1.4,0.4-2.1,0.6c-5,1.3-8.1,2.3-8.1,5.4
		c0,5.4-5.3,10.7-10.7,10.7c-2.2,0-8.4,0.2-14.9,0.4c-7.8,0.2-15.8,0.4-19.2,0.4c-6.2,0-13.9,0-17.6,2.2
		c-3.5,2.1-21.3,12.9-25.3,15.3c0.9,2.4,2.9,8.6,2.9,11.4c0,1.6-0.2,10.1-0.4,19c-0.2,8.6-0.4,17.4-0.4,19c0,1.6-0.6,7.8-1.2,13.7
		c3.6,0.4,7.1,0.3,10.1-1.8c12.6-8.5,19.3-20.6,28.3-32.7c5.4-7.2,14.8-4,22.4,0c5.4,3.1,13,0.4,17.9-5.4c1.3-1.4,4.9-1.8,6.7-0.4
		c6.3,4,12.1,7.2,19.3,5.8c9.4-1.8,17.9-10.8,27.4-5.4c0.4,0,0,1.8,0,3.1c-1.3,4-5.4,9-2.2,11.7c8.5,7.2,17-3.1,25.1-8.1
		c7.6-4,9.4,6.3,15.3,10.8c2.2,1.3,5.4,1.3,5.4,4.5c0,2.2-1.8,4.5-0.4,6.7c2.2,3.1,6.7,1.8,9.4-1.4c0.9-0.4,2.7,0.4,3.6,0
		c11.2-7.2,24.2-4.5,35.9-8.1c4.6-1.2,8.8-4,13.1-6.6C269,136.8,270.5,134.6,273.1,132.7z" id="_x39_01" title="اردکان"></path>
	<path class="st2 area active" d="M373.8,141.9c-2.1-3.6-10.5-17.9-15.8-22.2c-3.5-2.9-8.4-10.2-12.6-17.1c-4.7,3.5-8.7,7.8-14.4,9.1
		c-8.5,1.8-17,2.2-25.6,4.9c-9,3.1-16.6,6.7-23.8,13.5c-2.7,2.2-5.8,0.9-8.5,2.7c-10.8,7.6-3.1,21.5,5.8,26
		c4.5,2.2,10.3-0.4,15.7,1.3c8.1,2.7,4.5,11.7,4,18.4c0.9,0,1.4,0.9,1.8,1.3c4,0.9,7.2-2.7,10.8-1.3c3.1,0.9,4.9,4.5,5.8,7.6
		c0.8,4.4,2.3,8.1,4.4,11.4c2.6-1.4,5.7-2,7.9-2c3.4,0,6.3,2.5,7.6,3.7l4.5-2.3c2.2-0.9,8.2-3.6,9.7-5.1c1.7-1.7,6.5-3.7,11.1-5.5
		c1.2-0.5,2.3-0.9,3.3-1.4c3.4-1.5,3.3-5.9,3.3-9.1c0-0.4,0-0.8,0-1.2c0-3.4,1.3-13,1.3-13.5c0-0.2,0-9.3,0.7-13.3
		C371.3,144.9,372.8,142.9,373.8,141.9z" id="_x35_08" title="بهاباد"></path>
	<line class="st4 area" x1="123.1" y1="140.5" x2="96.5" y2="52.2" id="LINE_12" title=""></line>

<g id="G_13" class="area" title="">
	<path d="M201.2,89.4c0.1,0.3,0.1,0.6,0.1,0.9c0,0.4-0.1,0.7-0.2,1.1c-0.3,0.7-0.8,1.3-1.8,1.7c-0.8,0.3-1.6,0.5-2.5,0.5
		c-0.9,0-1.6-0.2-2.2-0.6c-0.6-0.5-0.9-1.1-0.9-2c0-0.5,0.1-0.9,0.3-1.5c0.2-0.4,0.3-0.7,0.5-0.9c0.1-0.1,0.2-0.1,0.2-0.1
		c0.1,0,0.1,0,0.1,0.1c0,0,0,0.1,0,0.2c-0.3,0.6-0.4,1.2-0.4,1.7c0,0.5,0.2,0.9,0.5,1.3c0.4,0.5,1.1,0.7,2,0.7c1,0,1.9-0.2,2.6-0.5
		c0.6-0.3,1-0.6,1.2-1c0.1-0.1,0.1-0.3,0.1-0.4c0-0.3-0.1-0.6-0.2-1c-0.1-0.3-0.4-0.8-0.9-1.6l0.4-0.8c0.1-0.1,0.1-0.2,0.1-0.2
		s0.1,0,0.1,0.1C200.7,87.8,201,88.6,201.2,89.4z M198.2,85l-0.8,0.8l-0.8-0.8l0.8-0.8L198.2,85z" id="PATH_14" class="area" title=""></path>
	<path d="M205.2,89.5h-0.7c-0.7,0-1.3-0.3-1.5-0.9c-0.2-0.4-0.3-1.1-0.3-1.9v-1.9c0-0.9-0.1-2.2-0.2-3.9l0.6-0.7
		c0.1-0.1,0.2-0.1,0.2,0c0.1,0.9,0.2,2.2,0.2,3.9v2.9c0,0.8,0.4,1.2,1.2,1.2h0.5V89.5z" id="PATH_15" class="area" title=""></path>
	<path d="M211.4,80.2c0,0.2-0.2,0.6-0.4,1.1l-2.5,0.8c-1.1,0.4-1.9,0.7-2.3,0.9c0.8,0.8,1.3,1.4,1.6,1.7c0.5,0.7,0.8,1.3,0.9,2
		c0,0.5,0,1-0.2,1.4c-0.3,0.9-1.4,1.3-3.1,1.3h-0.5v-1.2h0.6c0.8,0,1.4,0,1.7-0.1c0.7-0.2,1.1-0.5,1.1-1c0-0.7-0.5-1.5-1.6-2.5
		l-0.1,0.2c-0.1-0.1-0.3-0.3-0.5-0.6c-0.3-0.3-0.4-0.6-0.4-0.6c0-0.2,0-0.4,0.1-0.8c0.1-0.4,0.2-0.6,0.3-0.7
		c0.1-0.1,0.8-0.4,2.1-0.8C209.3,80.9,210.5,80.5,211.4,80.2z" id="PATH_16" class="area" title=""></path>
	<path d="M217.1,87.4c0,1.4-0.9,2.1-2.8,2.1c-0.7,0-1.2-0.1-1.5-0.3c-0.4-0.2-0.6-0.7-0.6-1.3c0-0.3,0.1-0.6,0.2-0.9
		c0.1-0.1,0.1-0.2,0.2-0.2c0.1,0,0.1,0.1,0.1,0.3c0,0.1,0,0.2,0,0.3c0,0.4,0.2,0.7,0.6,0.8c0.2,0.1,0.6,0.1,1.1,0.1
		c1.5,0,2.2-0.2,2.2-0.7c0-0.7-0.9-1.7-2.6-2.9l0.3-1c0-0.1,0.1-0.1,0.1-0.1c0,0,0.1,0,0.2,0.1C216.2,85,217.1,86.3,217.1,87.4z" id="PATH_17" class="area" title=""></path>
	<path d="M222.1,89.6c0,1-0.3,1.9-0.9,2.8c-0.5,0.7-1,1.1-1.3,1.1c-0.8,0-1.4,0-2-0.1c-0.2,0-0.3-0.1-0.3-0.1s0.1-0.1,0.3-0.1
		c0.8-0.2,1.6-0.6,2.4-1.2c0.8-0.7,1.3-1.4,1.3-2.1c0-0.4-0.3-1-1-1.7l0.5-0.9c0-0.1,0.1-0.1,0.1-0.1c0,0,0.1,0.1,0.1,0.1
		c0.2,0.3,0.5,0.7,0.6,1.2C222,88.8,222.1,89.2,222.1,89.6z" id="PATH_18" class="area" title=""></path>
	<path d="M224.5,88.3c0,0.4-0.1,0.8-0.3,1.1c-0.1,0.2-0.2,0.3-0.2,0.3c0,0-0.1-0.1-0.1-0.4c0-1.2-0.2-4-0.6-8.5l0.8-0.8
		c0.1-0.1,0.1-0.1,0.1-0.1c0,0,0,0.1,0,0.2C224.5,81.4,224.5,84.1,224.5,88.3z" id="PATH_19" class="area" title=""></path>
</g>
<g id="G_20" class="area" title="">
	<path d="M87.3,41.3h-0.4c-0.4,0-0.7-0.1-1-0.4c-0.2-0.2-0.4-0.4-0.6-0.8c-0.2,0.4-0.5,0.7-0.8,0.9c-0.4,0.2-0.9,0.3-1.7,0.3
		c-1.4,0-2.1-0.5-2.1-1.5c0-0.3,0.1-0.7,0.3-1c0.1-0.1,0.1-0.2,0.2-0.2c0.1,0,0.1,0.1,0.1,0.2c0,0.1,0,0.1,0,0.3c0,0.1,0,0.2,0,0.3
		c0,0.6,0.5,0.9,1.5,0.9c1.4,0,2.1-0.3,2.1-0.8c0-0.3-0.4-1.4-1.2-3.3l0.4-0.8c0.1-0.1,0.1-0.2,0.1-0.2c0,0,0.1,0.1,0.1,0.2
		c0.3,0.8,0.8,2,1.4,3.6c0.3,0.8,0.7,1.2,1.3,1.2h0.3V41.3z" id="PATH_21" class="area" title=""></path>
	<path d="M92.3,41.3h-0.8c-0.9,0-1.5-0.3-1.9-0.9c-0.3,0.6-1,0.9-2.1,0.9h-0.6v-1.2h0.9c1,0,1.5-0.4,1.6-1.1c0-0.3,0.1-0.5,0.2-0.5
		c0.1,0,0.2,0.2,0.2,0.5c0.1,0.7,0.6,1.1,1.5,1.1h0.9V41.3z M90.1,43.5l-0.8,0.8l-0.8-0.8l0.8-0.8L90.1,43.5z" id="PATH_22" class="area" title=""></path>
	<path d="M97.2,41.3h-0.8c-0.9,0-1.5-0.3-1.9-0.9c-0.3,0.6-1,0.9-2.1,0.9h-0.6v-1.2h0.9c1,0,1.5-0.4,1.6-1.1c0-0.3,0.1-0.5,0.2-0.5
		c0.1,0,0.2,0.2,0.2,0.5c0.1,0.7,0.6,1.1,1.5,1.1h0.9V41.3z M93.9,43.5l-0.8,0.8l-0.8-0.8l0.8-0.8L93.9,43.5z M95.6,43.5l-0.8,0.8
		l-0.8-0.8l0.8-0.8L95.6,43.5z" id="PATH_23" class="area" title=""></path>
	<path d="M102.2,39.3c0,0.5,0,0.9-0.2,1.3c-0.2,0.5-0.5,0.8-0.8,0.8c-0.5,0-1.3-0.3-2.3-1c-0.3,0.4-0.5,0.6-0.6,0.7
		c-0.3,0.2-0.6,0.3-1,0.3h-0.5v-1.2h0.7c0.4,0,0.8-0.2,1.2-0.7c0.2-0.2,0.5-0.7,0.9-1.3c0.3-0.5,0.7-0.7,1-0.7
		c0.5,0,0.9,0.2,1.2,0.7C102,38.6,102.1,39,102.2,39.3z M101.6,40.1c0-0.3-0.1-0.6-0.3-1c-0.2-0.4-0.5-0.6-0.8-0.6
		c-0.3,0-0.6,0.3-1,0.9c0.2,0.2,0.5,0.4,0.9,0.6c0.4,0.2,0.8,0.3,1,0.3C101.5,40.3,101.6,40.2,101.6,40.1z" id="PATH_24" class="area" title=""></path>
</g>
<g id="G_25" class="area" title="">
	<path d="M69.9,163.3c0,1-0.3,1.9-0.9,2.8c-0.5,0.7-1,1.1-1.3,1.1c-0.8,0-1.4,0-2-0.1c-0.2,0-0.3-0.1-0.3-0.1s0.1-0.1,0.3-0.1
		c0.8-0.2,1.6-0.6,2.4-1.2c0.8-0.7,1.3-1.4,1.3-2.1c0-0.4-0.3-1-1-1.7l0.5-0.9c0-0.1,0.1-0.1,0.1-0.1c0,0,0.1,0.1,0.1,0.1
		c0.2,0.3,0.5,0.7,0.6,1.2C69.8,162.5,69.9,163,69.9,163.3z" id="PATH_26" class="area" title=""></path>
	<path d="M75,163.3c0,1-0.3,1.9-0.9,2.8c-0.5,0.7-1,1.1-1.3,1.1c-0.8,0-1.4,0-2-0.1c-0.2,0-0.3-0.1-0.3-0.1s0.1-0.1,0.3-0.1
		c0.8-0.2,1.6-0.6,2.4-1.2c0.8-0.7,1.3-1.4,1.3-2.1c0-0.4-0.3-1-1-1.7l0.5-0.9c0-0.1,0.1-0.1,0.1-0.1c0,0,0.1,0.1,0.1,0.1
		c0.2,0.3,0.5,0.7,0.6,1.2C74.9,162.5,75,163,75,163.3z M74.3,158l-0.8,0.8l-0.8-0.8l0.8-0.8L74.3,158z" id="PATH_27" class="area" title=""></path>
	<path d="M92.7,163.2h-0.7c-0.5,0-1-0.3-1.6-0.8c-0.3-0.3-0.7-0.8-1.2-1.5c0,0.7-0.1,1.2-0.4,1.5c-0.5,0.6-1.5,0.9-3,0.9h-2
		c-2.4,0-3.7-0.7-3.7-2.1c0-0.5,0.2-1,0.5-1.5c0.1-0.1,0.2-0.2,0.2-0.2c0.1,0,0.1,0,0.1,0.1c0,0.1,0,0.1,0,0.2
		c-0.1,0.4-0.2,0.6-0.2,0.9c0,0.4,0.2,0.7,0.5,0.9c0.5,0.4,1.3,0.6,2.4,0.6h2c1.1,0,1.9-0.1,2.3-0.2c0.5-0.2,0.7-0.5,0.7-0.9
		c0-0.4-0.2-0.9-0.7-1.5c-0.3-0.3-0.7-0.8-1.3-1.3c-0.5-0.4-0.7-0.7-0.7-0.7c0-0.7,0.1-1.1,0.3-1.4c0-0.1,0.7-0.3,2.1-0.8
		c1.4-0.5,2.6-0.9,3.5-1.2c0,0.1-0.1,0.5-0.3,1.1c-1.1,0.3-2.7,0.9-4.9,1.7c1,0.9,2.1,2.2,3.4,3.9c0.5,0.6,0.9,1,1.2,1.2
		c0.2,0.1,0.6,0.2,1,0.2h0.4V163.2z" id="PATH_28" class="area" title=""></path>
	<path d="M100.6,161.1c0,0.6-0.1,1.1-0.4,1.5c-0.3,0.4-0.8,0.7-1.3,0.7c-0.7,0-1.1-0.3-1.4-0.8c-0.4,0.6-0.8,0.8-1.4,0.8
		c-0.7,0-1.2-0.3-1.5-0.8c-0.4,0.6-0.9,0.8-1.6,0.8h-0.7v-1.2h0.8c0.7,0,1.2-0.4,1.3-1.2c0-0.2,0.1-0.3,0.2-0.3
		c0.1,0,0.1,0.1,0.2,0.3c0.1,0.8,0.5,1.2,1.3,1.2c0.4,0,0.8-0.1,1-0.3c0.1-0.2,0.2-0.4,0.3-0.8c0-0.2,0.1-0.3,0.2-0.3
		c0.1,0,0.1,0.1,0.2,0.3c0.1,0.8,0.5,1.2,1.2,1.2c0.8,0,1.1-0.2,1.1-0.5c0-0.3-0.2-0.7-0.6-1.1l0.5-0.9c0.1-0.1,0.1-0.2,0.2-0.2
		s0.1,0.1,0.2,0.2C100.4,160.1,100.6,160.7,100.6,161.1z M97.2,157.4l-0.7,0.7l-0.7-0.7l0.7-0.7L97.2,157.4z M98.1,155.9l-0.7,0.7
		l-0.7-0.7l0.7-0.7L98.1,155.9z M99,157.4l-0.7,0.7l-0.7-0.7l0.7-0.7L99,157.4z" id="PATH_29" class="area" title=""></path>
	<path d="M102.9,162c0,0.4-0.1,0.8-0.3,1.1c-0.1,0.2-0.2,0.3-0.2,0.3c0,0-0.1-0.1-0.1-0.4c0-1.2-0.2-4-0.6-8.5l0.8-0.8
		c0.1-0.1,0.1-0.1,0.1-0.1c0,0,0,0.1,0,0.2C102.9,155.2,102.9,157.9,102.9,162z" id="PATH_30" class="area" title=""></path>
</g>
<g id="G_31" class="area" title="">
	<path d="M175.2,161.1c0,1.4-0.9,2.1-2.8,2.1c-0.7,0-1.2-0.1-1.5-0.3c-0.4-0.2-0.6-0.7-0.6-1.3c0-0.3,0.1-0.6,0.2-0.9
		c0.1-0.1,0.1-0.2,0.2-0.2c0.1,0,0.1,0.1,0.1,0.3c0,0.1,0,0.2,0,0.3c0,0.4,0.2,0.7,0.6,0.8c0.2,0.1,0.6,0.1,1.1,0.1
		c1.5,0,2.2-0.2,2.2-0.7c0-0.7-0.9-1.7-2.6-2.9l0.3-1c0-0.1,0.1-0.1,0.1-0.1c0,0,0.1,0,0.2,0.1C174.4,158.8,175.2,160,175.2,161.1z" id="PATH_32" class="area" title=""></path>
	<path d="M181.5,163.2H181c-0.4,0-0.6-0.1-0.8-0.2c0,0.1,0,0.2,0,0.3c0,0.9-0.3,1.8-0.9,2.7c-0.5,0.8-1,1.1-1.3,1.1
		c-0.8,0-1.4,0-2-0.1c-0.2,0-0.3-0.1-0.3-0.1s0.1-0.1,0.3-0.1c0.8-0.2,1.6-0.6,2.4-1.2c0.8-0.7,1.3-1.4,1.3-2.1c0-0.4-0.3-1-1-1.7
		l0.5-0.9c0-0.1,0.1-0.1,0.1-0.1c0,0,0.1,0.1,0.1,0.1c0.3,0.4,0.5,0.7,0.7,0.8c0.3,0.2,0.7,0.4,1.1,0.4h0.3V163.2z M179.5,158
		l-0.8,0.8l-0.8-0.8l0.8-0.8L179.5,158z" id="PATH_33" class="area" title=""></path>
	<path d="M183.9,161.2c0,1.3-0.7,2-2,2h-0.8v-1.2h0.7c1,0,1.5-0.2,1.5-0.5c0-0.3-0.2-0.7-0.7-1.2l0.4-1c0-0.1,0.1-0.1,0.1-0.1
		c0,0,0.1,0.1,0.2,0.2C183.6,160,183.9,160.6,183.9,161.2z M183.1,165.4l-0.8,0.8l-0.8-0.8l0.8-0.8L183.1,165.4z M184.8,165.4
		l-0.8,0.8l-0.8-0.8l0.8-0.8L184.8,165.4z" id="PATH_34" class="area" title=""></path>
</g>
<g id="G_35" class="area" title="">
	<path d="M253.5,191.8h-1v0.2c0,0.9-0.1,1.5-0.2,1.8c-0.3,0.7-0.9,1.2-1.8,1.6c-0.7,0.3-1.5,0.5-2.4,0.5c-2.3,0-3.4-0.9-3.4-2.6
		c0-0.4,0.1-0.9,0.3-1.4c0.1-0.4,0.3-0.8,0.5-1c0.1-0.1,0.2-0.2,0.3-0.2c0.1,0,0.1,0,0.1,0.1c0,0.1,0,0.2-0.1,0.3
		c-0.3,0.6-0.4,1.1-0.4,1.6c0,0.7,0.3,1.2,0.9,1.5c0.5,0.3,1.1,0.5,1.8,0.5c0.8,0,1.6-0.1,2.2-0.3c0.9-0.3,1.5-0.7,1.7-1.3
		c0-0.1,0.1-0.2,0.1-0.4c0-0.2,0-0.3,0-0.5c0-0.1,0-0.2,0-0.3h-1.5c-0.9,0-1.3-0.4-1.3-1.2c0-0.5,0.1-1.1,0.4-1.6
		c0.3-0.6,0.7-1,1.2-1c0.5,0,0.9,0.3,1.3,0.9c0.3,0.5,0.4,1,0.5,1.6h1.1V191.8z M250.3,185.8l-0.8,0.8l-0.8-0.8l0.8-0.8L250.3,185.8
		z M251.6,190.7c0-0.3-0.1-0.6-0.4-0.9c-0.2-0.3-0.5-0.4-0.8-0.4c-0.2,0-0.4,0.1-0.5,0.2c-0.1,0.1-0.2,0.3-0.2,0.5
		c0,0.3,0.1,0.4,0.3,0.5c0.1,0.1,0.4,0.1,0.8,0.1h0.5c0,0,0.1,0,0.1,0H251.6z M252,185.8l-0.8,0.8l-0.8-0.8l0.8-0.8L252,185.8z" id="PATH_36" class="area" title=""></path>
	<path d="M257.3,189v0.4c0,0.7-0.1,1.1-0.3,1.4c-0.5,0.7-1.3,1-2.6,1H253v-1.2h1c1.7,0,2.6-0.3,2.8-0.8c0-0.1,0-0.1,0-0.2
		c0-0.2,0-0.3-0.1-0.4c-0.4,0.1-0.9,0.1-1.3,0.1c-0.9,0-1.4-0.4-1.4-1.2c0-0.5,0.1-1.1,0.4-1.6c0.3-0.6,0.7-0.9,1.2-0.9
		c0.4,0,0.8,0.3,1.1,0.8C257.1,187.2,257.3,188,257.3,189z M256.2,183.5l-0.8,0.8l-0.8-0.8l0.8-0.8L256.2,183.5z M256.6,188.1
		c0-0.3-0.1-0.6-0.3-0.9c-0.2-0.3-0.5-0.4-0.8-0.4c-0.2,0-0.4,0.1-0.6,0.2s-0.2,0.3-0.2,0.5c0,0.4,0.3,0.6,1,0.6
		C255.9,188.3,256.2,188.2,256.6,188.1z" id="PATH_37" class="area" title=""></path>
	<path d="M261.3,191.8h-0.7c-0.7,0-1.3-0.3-1.5-0.9c-0.2-0.4-0.3-1.1-0.3-1.9v-1.9c0-0.9-0.1-2.2-0.2-3.9l0.6-0.7
		c0.1-0.1,0.2-0.1,0.2,0c0.1,0.9,0.2,2.2,0.2,3.9v2.9c0,0.8,0.4,1.2,1.2,1.2h0.5V191.8z" id="PATH_38" class="area" title=""></path>
	<path d="M263.7,189.8c0,1.3-0.7,2-2,2h-0.8v-1.2h0.7c1,0,1.5-0.2,1.5-0.5c0-0.3-0.2-0.7-0.7-1.2l0.4-1c0-0.1,0.1-0.1,0.1-0.1
		s0.1,0.1,0.2,0.2C263.5,188.5,263.7,189.2,263.7,189.8z M263.3,194l-0.8,0.8l-0.8-0.8l0.8-0.8L263.3,194z" id="PATH_39" class="area" title=""></path>
</g>
<g id="G_40" class="area" title="">
	<path d="M317.1,153.6c0,1.4-0.9,2.1-2.8,2.1c-0.7,0-1.2-0.1-1.5-0.3c-0.4-0.2-0.6-0.7-0.6-1.3c0-0.3,0.1-0.6,0.2-0.9
		c0.1-0.1,0.1-0.2,0.2-0.2c0.1,0,0.1,0.1,0.1,0.3c0,0.1,0,0.2,0,0.3c0,0.4,0.2,0.7,0.6,0.8c0.2,0.1,0.6,0.1,1.1,0.1
		c1.5,0,2.2-0.2,2.2-0.7c0-0.7-0.9-1.7-2.6-2.9l0.3-1c0-0.1,0.1-0.1,0.1-0.1c0,0,0.1,0,0.2,0.1C316.2,151.2,317.1,152.4,317.1,153.6
		z" id="PATH_41" class="area" title=""></path>
	<path d="M321,155.7h-0.7c-0.7,0-1.3-0.3-1.5-0.9c-0.2-0.4-0.3-1.1-0.3-1.9v-1.9c0-0.9-0.1-2.2-0.2-3.9l0.6-0.7
		c0.1-0.1,0.2-0.1,0.2,0c0.1,0.9,0.2,2.2,0.2,3.9v2.9c0,0.8,0.4,1.2,1.2,1.2h0.5V155.7z" id="PATH_42" class="area" title=""></path>
	<path d="M323.4,153.7c0,1.3-0.7,2-2,2h-0.8v-1.2h0.7c1,0,1.5-0.2,1.5-0.5c0-0.3-0.2-0.7-0.7-1.2l0.4-1c0-0.1,0.1-0.1,0.1-0.1
		s0.1,0.1,0.2,0.2C323.2,152.4,323.4,153,323.4,153.7z M323.1,157.9l-0.8,0.8l-0.8-0.8l0.8-0.8L323.1,157.9z" id="PATH_43" class="area" title=""></path>
	<path d="M327.4,155.7h-0.7c-0.7,0-1.3-0.3-1.5-0.9c-0.2-0.4-0.3-1.1-0.3-1.9v-1.9c0-0.9-0.1-2.2-0.2-3.9l0.6-0.7
		c0.1-0.1,0.2-0.1,0.2,0c0.1,0.9,0.2,2.2,0.2,3.9v2.9c0,0.8,0.4,1.2,1.2,1.2h0.5V155.7z" id="PATH_44" class="area" title=""></path>
	<path d="M333.6,155.7h-0.5c-0.4,0-0.8,0.1-1.1,0.2c-0.5,0.2-0.8,0.5-0.8,1c0,0.6,0.4,1.1,1.2,1.6l-0.5,1c-0.9-0.3-1.7-0.8-2.3-1.4
		c-0.8-0.7-1.2-1.6-1.2-2.5H327v-1.2h1.3c0-0.8,0.2-1.6,0.6-2.6c0.4-0.9,0.7-1.3,0.9-1.3c0.2,0,0.5,0.4,0.8,1.3
		c0.3,0.8,0.4,1.3,0.4,1.6c0,1.4-0.7,2.1-2.1,2.1c0.1,0.4,0.3,0.8,0.6,1.2c0.3,0.4,0.7,0.7,1.1,0.9c0-0.1,0-0.3,0-0.4
		c0-0.7,0.2-1.3,0.5-1.8c0.5-0.7,1.1-1.1,2-1.1h0.4V155.7z M330.6,154.1c0-0.2-0.1-0.6-0.3-1.1c-0.2-0.6-0.4-0.8-0.6-0.8
		c-0.1,0-0.3,0.2-0.5,0.7c-0.2,0.5-0.3,1.1-0.3,1.7C330,154.5,330.6,154.4,330.6,154.1z" id="PATH_45" class="area" title=""></path>
	<path d="M336,153.7c0,1.3-0.7,2-2,2h-0.8v-1.2h0.7c1,0,1.5-0.2,1.5-0.5c0-0.3-0.2-0.7-0.7-1.2l0.4-1c0-0.1,0.1-0.1,0.1-0.1
		s0.1,0.1,0.2,0.2C335.8,152.4,336,153,336,153.7z M335.7,157.9l-0.8,0.8l-0.8-0.8l0.8-0.8L335.7,157.9z" id="PATH_46" class="area" title=""></path>
</g>
<g id="G_47" class="area" title="">
	<path d="M182.2,220.4h-0.4c-0.4,0-0.6-0.1-0.8-0.2c0,0.1,0,0.2,0,0.3c0,0.9-0.3,1.8-0.9,2.7c-0.5,0.8-1,1.1-1.3,1.1
		c-0.8,0-1.4,0-2-0.1c-0.2,0-0.3-0.1-0.3-0.1s0.1-0.1,0.3-0.1c0.8-0.2,1.6-0.6,2.4-1.2c0.8-0.7,1.3-1.4,1.3-2.1c0-0.4-0.3-1-1-1.7
		l0.5-0.9c0-0.1,0.1-0.1,0.1-0.1c0,0,0.1,0.1,0.1,0.1c0.3,0.4,0.5,0.7,0.7,0.8c0.3,0.2,0.7,0.4,1.1,0.4h0.3V220.4z M180.3,215.2
		l-0.8,0.8l-0.8-0.8l0.8-0.8L180.3,215.2z" id="PATH_48" class="area" title=""></path>
	<path d="M184.6,218.4c0,1.3-0.7,2-2,2h-0.8v-1.2h0.7c1,0,1.5-0.2,1.5-0.5c0-0.3-0.2-0.7-0.7-1.2l0.4-1c0-0.1,0.1-0.1,0.1-0.1
		c0,0,0.1,0.1,0.2,0.2C184.4,217.2,184.6,217.8,184.6,218.4z M183.9,222.6l-0.8,0.8l-0.8-0.8l0.8-0.8L183.9,222.6z M185.6,222.6
		l-0.8,0.8l-0.8-0.8l0.8-0.8L185.6,222.6z" id="PATH_49" class="area" title=""></path>
	<path d="M191.8,220.4h-0.4c-0.4,0-0.6-0.1-0.8-0.2c0,0.1,0,0.2,0,0.3c0,0.9-0.3,1.8-0.9,2.7c-0.5,0.8-1,1.1-1.3,1.1
		c-0.8,0-1.4,0-2-0.1c-0.2,0-0.3-0.1-0.3-0.1s0.1-0.1,0.3-0.1c0.8-0.2,1.6-0.6,2.4-1.2c0.8-0.7,1.3-1.4,1.3-2.1c0-0.4-0.3-1-1-1.7
		l0.5-0.9c0-0.1,0.1-0.1,0.1-0.1c0,0,0.1,0.1,0.1,0.1c0.3,0.4,0.5,0.7,0.7,0.8c0.3,0.2,0.7,0.4,1.1,0.4h0.3V220.4z" id="PATH_50" class="area" title=""></path>
	<path d="M198,220.4h-0.5c-0.4,0-0.8,0.1-1.1,0.2c-0.5,0.2-0.8,0.5-0.8,1c0,0.6,0.4,1.1,1.2,1.6l-0.5,1c-0.9-0.3-1.7-0.8-2.3-1.4
		c-0.8-0.7-1.2-1.6-1.2-2.5h-1.4v-1.2h1.3c0-0.8,0.2-1.6,0.6-2.6c0.4-0.9,0.7-1.3,0.9-1.3c0.2,0,0.5,0.4,0.8,1.3
		c0.3,0.8,0.4,1.3,0.4,1.6c0,1.4-0.7,2.1-2.1,2.1c0.1,0.4,0.3,0.8,0.6,1.2c0.3,0.4,0.7,0.7,1.1,0.9c0-0.1,0-0.3,0-0.4
		c0-0.7,0.2-1.3,0.5-1.8c0.5-0.7,1.1-1.1,2-1.1h0.4V220.4z M195,218.8c0-0.2-0.1-0.6-0.3-1.1c-0.2-0.6-0.4-0.8-0.6-0.8
		c-0.1,0-0.3,0.2-0.5,0.7c-0.2,0.5-0.3,1.1-0.3,1.7C194.4,219.3,195,219.1,195,218.8z" id="PATH_51" class="area" title=""></path>
	<path d="M203,218.4c0,0.5,0,0.9-0.2,1.3c-0.2,0.5-0.5,0.8-0.8,0.8c-0.5,0-1.3-0.3-2.3-1c-0.3,0.4-0.5,0.6-0.6,0.7
		c-0.3,0.2-0.6,0.3-1,0.3h-0.5v-1.2h0.7c0.4,0,0.8-0.2,1.2-0.7c0.2-0.2,0.5-0.7,0.9-1.3c0.3-0.5,0.7-0.7,1-0.7
		c0.5,0,0.9,0.2,1.2,0.7C202.8,217.7,203,218.1,203,218.4z M202.4,219.2c0-0.3-0.1-0.6-0.3-1c-0.2-0.4-0.5-0.6-0.8-0.6
		c-0.3,0-0.6,0.3-1,0.9c0.2,0.2,0.5,0.4,0.9,0.6c0.4,0.2,0.8,0.3,1,0.3C202.3,219.4,202.4,219.3,202.4,219.2z" id="PATH_52" class="area" title=""></path>
</g>
<g id="G_53" class="area" title="">
	<path d="M107.9,212h-0.4c-0.5,0-0.9-0.1-1.1-0.3c-0.3-0.2-0.5-0.6-0.5-1c-1.1,1-2.8,1.5-5.1,1.5c-2.4,0-3.6-0.7-3.6-2.2
		c0-0.5,0.2-1,0.6-1.5c0.1-0.1,0.1-0.1,0.2-0.1c0.1,0,0.1,0,0.1,0.1c0,0,0,0.1,0,0.2c-0.1,0.3-0.2,0.6-0.2,0.9c0,1,1.1,1.5,3.3,1.5
		c2.5,0,4.2-0.5,5-1.6c0.2-0.2,0.3-0.3,0.4-0.3c0.1,0,0.1,0.1,0.1,0.2c0,0.1,0,0.2-0.1,0.4c0,0.2-0.1,0.3-0.1,0.4
		c0,0.5,0.4,0.8,1.1,0.8h0.4V212z M101.7,206.2l-0.8,0.8l-0.8-0.8l0.8-0.8L101.7,206.2z M103.4,206.2l-0.8,0.8l-0.8-0.8l0.8-0.8
		L103.4,206.2z" id="PATH_54" class="area" title=""></path>
	<path d="M113.3,212h-0.5c-0.3,0-0.7-0.1-1.2-0.2c-0.5-0.1-0.9-0.3-1.1-0.5c-0.2,0.2-0.5,0.3-0.9,0.4c-0.5,0.2-1,0.2-1.5,0.2h-0.7
		v-1.2h0.5c0.8,0,1.3-0.1,1.5-0.2c-0.2-0.1-0.3-0.3-0.4-0.5c-0.1-0.2-0.2-0.4-0.2-0.6c0-0.4,0.2-0.9,0.5-1.5c0.4-0.6,0.8-1,1.3-1
		c0.5,0,0.8,0.3,1.1,0.8c0.2,0.4,0.3,0.9,0.3,1.4c0,0.4-0.1,0.7-0.3,0.9c-0.1,0.2-0.2,0.3-0.4,0.4c0.2,0.1,0.7,0.2,1.4,0.2h0.4V212z
		 M111.6,209.4c0-0.2-0.1-0.5-0.3-0.7c-0.2-0.3-0.4-0.4-0.7-0.4c-0.2,0-0.5,0.1-0.7,0.3c-0.2,0.2-0.4,0.5-0.4,0.7
		c0,0.2,0.1,0.5,0.4,0.7c0.2,0.2,0.5,0.3,0.7,0.4c0.2,0,0.5-0.1,0.6-0.3C111.5,209.8,111.6,209.6,111.6,209.4z M111.3,204.5
		l-0.8,0.8l-0.8-0.8l0.8-0.8L111.3,204.5z" id="PATH_55" class="area" title=""></path>
	<path d="M115.7,210c0,1.3-0.7,2-2,2h-0.8v-1.2h0.7c1,0,1.5-0.2,1.5-0.5c0-0.3-0.2-0.7-0.7-1.2l0.4-1c0-0.1,0.1-0.1,0.1-0.1
		c0,0,0.1,0.1,0.2,0.2C115.5,208.7,115.7,209.4,115.7,210z M114.8,205.6l-0.8,0.8l-0.8-0.8l0.8-0.8L114.8,205.6z M116.5,205.6
		l-0.8,0.8l-0.8-0.8l0.8-0.8L116.5,205.6z" id="PATH_56" class="area" title=""></path>
</g>
<g id="G_57" class="area" title="">
	<path d="M135.9,348.7h-2.3c-0.3,0-0.6,0-0.8,0.1c-0.4,0.1-0.5,0.3-0.5,0.5c0,0.1,0.5,0.2,1.4,0.4s1.4,0.4,1.4,0.6
		c0,0.8-0.2,1.4-0.7,1.8c-0.8,0.7-2.1,1-4,1c-2.3,0-3.5-0.9-3.5-2.6c0-0.4,0.1-0.8,0.3-1.3c0.2-0.5,0.4-0.9,0.6-1.2
		c0.1-0.1,0.2-0.2,0.3-0.2s0.1,0,0.1,0.1c0,0.1,0,0.2-0.1,0.3c-0.3,0.6-0.5,1.2-0.5,1.8c0,0.7,0.3,1.2,1,1.5
		c0.5,0.3,1.1,0.4,1.9,0.4c0.8,0,1.5,0,2.2-0.1c1.2-0.2,1.8-0.4,1.8-0.8c0-0.2-0.3-0.3-0.8-0.4c-0.8-0.1-1.3-0.2-1.5-0.3
		c-0.5-0.1-0.8-0.4-0.8-0.7c0-0.2,0.1-0.5,0.4-0.9c0.2-0.3,0.4-0.5,0.7-0.7c0.5-0.4,1.1-0.6,2-0.6h1.4V348.7z" id="PATH_58" class="area" title=""></path>
	<path d="M143,348.7h-0.6c-0.5,0-1-0.3-1.4-0.8c-0.3,0.8-0.6,1.2-0.9,1.2c-0.3,0-0.8-0.2-1.4-0.5c-0.5-0.3-0.9-0.6-1.1-0.8
		c-0.5,0.6-1,0.9-1.5,0.9h-0.6v-1.2h0.6c0.5,0,0.9-0.2,1.3-0.6c0.3-0.3,0.6-0.7,1-1.1c0.4-0.4,0.7-0.6,1-0.6c0.4,0,0.7,0.2,1,0.6
		c0.2,0.2,0.4,0.6,0.9,1.1c0.3,0.4,0.7,0.6,1.1,0.6h0.6V348.7z M140.3,347.8c0-0.3-0.1-0.6-0.3-1c-0.2-0.4-0.5-0.6-0.9-0.6
		c-0.3,0-0.7,0.3-1.1,0.8c0.1,0.1,0.4,0.3,0.9,0.6c0.5,0.3,0.9,0.4,1.2,0.4C140.2,348,140.3,348,140.3,347.8z" id="PATH_59" class="area" title=""></path>
	<path d="M145.4,346.7c0,1.3-0.7,2-2,2h-0.8v-1.2h0.7c1,0,1.5-0.2,1.5-0.5c0-0.3-0.2-0.7-0.7-1.2l0.4-1c0-0.1,0.1-0.1,0.1-0.1
		c0,0,0.1,0.1,0.2,0.2C145.2,345.4,145.4,346,145.4,346.7z M144.5,342.3l-0.8,0.8l-0.8-0.8l0.8-0.8L144.5,342.3z M146.2,342.3
		l-0.8,0.8l-0.8-0.8l0.8-0.8L146.2,342.3z" id="PATH_60" class="area" title=""></path>
	<path d="M150.1,348.7h-0.7c-0.7,0-1.3-0.3-1.5-0.9c-0.2-0.4-0.3-1.1-0.3-1.9v-1.9c0-0.9-0.1-2.2-0.2-3.9l0.6-0.7
		c0.1-0.1,0.2-0.1,0.2,0c0.1,0.9,0.2,2.2,0.2,3.9v2.9c0,0.8,0.4,1.2,1.2,1.2h0.5V348.7z" id="PATH_61" class="area" title=""></path>
	<path d="M157.9,345.8l-0.4,0.8c-0.7,0-1.3,0-1.6,0.1c-0.4,0.2-1,0.4-1.8,0.8c-0.8,0.4-1.4,0.7-1.8,0.8c-0.6,0.2-1.3,0.3-1.9,0.3
		h-0.7v-1.2h0.8c0.9,0,1.7-0.2,2.4-0.5l2.3-1c-0.4-0.1-1-0.3-1.8-0.6c-0.7-0.3-1.1-0.4-1.3-0.4c-0.4,0-0.8,0.2-1.2,0.5
		c-0.1,0.1-0.1,0.1-0.2,0.1c-0.1,0-0.1,0-0.1-0.1c0,0,0-0.1,0-0.1c0.3-1,0.9-1.4,1.7-1.4c0.3,0,0.7,0.1,1.1,0.3
		c0.8,0.4,1.4,0.6,1.8,0.8c0.7,0.2,1.5,0.4,2.4,0.4c0.2,0,0.3,0,0.3,0.1C158,345.6,158,345.6,157.9,345.8z M155.1,341.2l-0.8,0.8
		l-0.8-0.8l0.8-0.8L155.1,341.2z" id="PATH_62" class="area" title=""></path>
</g>
<g id="G_63" class="area" title="">
	<path d="M53,263.9c0,0.7-0.2,1.2-0.6,1.6c-0.4,0.4-1,0.5-1.6,0.5c-0.4,0-0.8-0.1-1.1-0.4c-0.3-0.3-0.5-0.6-0.5-1
		c0-0.5,0.2-1,0.6-1.7c0.3-0.6,0.7-1.1,1.1-1.5C52.4,262.1,53,263,53,263.9z M52.5,264.3c0-0.3-0.2-0.6-0.7-1
		c-0.4-0.4-0.7-0.6-1.1-0.7c-0.5,0.7-0.8,1.2-0.8,1.6c0,0.2,0.1,0.4,0.4,0.6c0.2,0.1,0.4,0.2,0.7,0.2c0.4,0,0.8-0.1,1.1-0.2
		C52.4,264.5,52.5,264.4,52.5,264.3z" id="PATH_64" class="area" title=""></path>
	<path d="M59.3,266h-1.1c-0.1,1.4-0.6,2.5-1.6,3.5c-0.3,0.3-0.5,0.5-0.6,0.5c-0.5,0-1.2-0.1-1.9-0.2c-0.2,0-0.4-0.1-0.4-0.1
		c0,0,0.1-0.1,0.4-0.2c0.8-0.2,1.6-0.7,2.3-1.2c0.3-0.3,0.6-0.5,0.8-0.9c0.3-0.4,0.5-0.8,0.5-1.1V266h-1.3c-1,0-1.4-0.4-1.4-1.2
		c0-0.5,0.1-1,0.4-1.6c0.3-0.6,0.7-1,1.1-1c0.5,0,0.9,0.3,1.2,1c0.2,0.5,0.4,1,0.4,1.6h1.1V266z M57.5,264.9c0-0.3-0.1-0.6-0.3-0.9
		c-0.2-0.4-0.5-0.5-0.8-0.5c-0.2,0-0.4,0.1-0.5,0.2c-0.2,0.2-0.2,0.3-0.2,0.6c0,0.5,0.4,0.7,1.2,0.7
		C56.9,264.9,57.2,264.9,57.5,264.9z" id="PATH_65" class="area" title=""></path>
	<path d="M65.5,256.8c0,0.2-0.2,0.6-0.4,1.1l-2.5,0.8c-1.1,0.4-1.9,0.7-2.3,0.9c0.8,0.8,1.3,1.4,1.6,1.7c0.5,0.7,0.8,1.3,0.9,2
		c0,0.5,0,1-0.2,1.4c-0.3,0.9-1.4,1.3-3.1,1.3h-0.5v-1.2h0.6c0.8,0,1.4,0,1.7-0.1c0.7-0.2,1.1-0.5,1.1-1c0-0.7-0.5-1.5-1.6-2.5
		l-0.1,0.2c-0.1-0.1-0.3-0.3-0.5-0.6c-0.3-0.3-0.4-0.6-0.4-0.6c0-0.2,0-0.4,0.1-0.8c0.1-0.4,0.2-0.6,0.3-0.7
		c0.1-0.1,0.8-0.4,2.1-0.8C63.4,257.4,64.6,257,65.5,256.8z" id="PATH_66" class="area" title=""></path>
	<path d="M71.3,266h-0.4c-0.4,0-0.6-0.1-0.8-0.2c0,0.1,0,0.2,0,0.3c0,0.9-0.3,1.8-0.9,2.7c-0.5,0.8-1,1.1-1.3,1.1
		c-0.8,0-1.4,0-2-0.1c-0.2,0-0.3-0.1-0.3-0.1s0.1-0.1,0.3-0.1c0.8-0.2,1.6-0.6,2.4-1.2c0.8-0.7,1.3-1.4,1.3-2.1c0-0.4-0.3-1-1-1.7
		l0.5-0.9c0-0.1,0.1-0.1,0.1-0.1c0,0,0.1,0.1,0.1,0.1c0.3,0.4,0.5,0.7,0.7,0.8c0.3,0.2,0.7,0.4,1.1,0.4h0.3V266z" id="PATH_67" class="area" title=""></path>
	<path d="M73.6,264c0,1.3-0.7,2-2,2h-0.8v-1.2h0.7c1,0,1.5-0.2,1.5-0.5c0-0.3-0.2-0.7-0.7-1.2l0.4-1c0-0.1,0.1-0.1,0.1-0.1
		c0,0,0.1,0.1,0.2,0.2C73.4,262.8,73.6,263.4,73.6,264z M73.3,268.2l-0.8,0.8l-0.8-0.8l0.8-0.8L73.3,268.2z" id="PATH_68" class="area" title=""></path>
	<path d="M76,264.8c0,0.4-0.1,0.8-0.3,1.1c-0.1,0.2-0.2,0.3-0.2,0.3c0,0-0.1-0.1-0.1-0.4c0-1.2-0.2-4-0.6-8.5l0.8-0.8
		c0.1-0.1,0.1-0.1,0.1-0.1c0,0,0,0.1,0,0.2C76,258,76,260.7,76,264.8z" id="PATH_69" class="area" title=""></path>
</g>
</svg>


