



    


<svg version="1.1" id="Layer_1" xmlns="http://www.w3.org/2000/svg" xmlns:xlink="http://www.w3.org/1999/xlink" x="0px" y="0px" viewBox="0 0 570 518.7" style="enable-background:new 0 0 570 518.7;" xml:space="preserve" width="100%" height="100%">
<style type="text/css">
	.st0{fill:#FBD1D1;stroke:#020202;stroke-width:0.2;stroke-miterlimit:10;}
	.st1{fill:#FDFAD6;stroke:#020202;stroke-width:0.2;stroke-miterlimit:10;}
	.st2{fill:#DBECCB;stroke:#020202;stroke-width:0.2;stroke-miterlimit:10;}
	.st3{fill:#E8D0E5;stroke:#020202;stroke-width:0.2;stroke-miterlimit:10;}
	.st4{fill:none;stroke:#040404;stroke-width:0.5;stroke-miterlimit:10;}
</style>
		<path class="st0 area" d="M340.3,84.8c-2.1,3.5-9.9,2.8-10.6,5.6c-4.2,9.9-11.3,18.3-9.9,29.6c2.1,11.3,16.2,4.2,24.7,5.7
			c7.1,0.7,10.6,8.5,16.9,12c9.2,6.4,20.5-2.1,30.3,3.5c2.1,1.4,3.5,3.5,3.5,4.9c0,9.9,0.7,19.8,9.9,22.6c4.9,1.4,10.6,2.8,12.7,7.1
			c1.4,2.8,0.7,6.3-1.4,9.2c-0.7,1.4-0.7,4.2,0,4.9c6.4,5.6,13.4-2.8,19.8-0.7c5.4,1.3,6.9,7.8,11.4,11.5c3.4-7.7,7.8-20.3,9.6-25.7
			l0.4-0.8l13.1-18.1l2.3,1c3.2,1.4,12.5,5,16.5,5.5c6.8,0.8,13.6,2.1,16.6,6.8c1.7,2.7,4.8,4.7,8.2,5.3c3,0.5,8.6,0.1,10.6,0h6.4
			c-9.9-10.3-20.8-21.3-21-21.4l-0.4-0.4l-0.3-0.6c-5.7-13.7-17.9-41.3-22.7-47.7c-5.9-7.9-48.8-50.8-52.1-54.1
			c-0.7-0.5-2.4-1.8-4.4-3.9c-7.1,4.4-22.8,7.2-28.8,3.4c-2.5-1.6-8.3-2-13.3-2.3c-4.4-0.3-8.5-0.6-11.3-1.6
			c-2-0.7-7.2,1.4-15.6,9.8c-2.2,2.2-4.5,2.9-6.9,2.9c-2.5,0-5-0.9-7.2-1.6c-1-0.4-2.1-0.7-3.2-1c-0.2,0.7-0.4,1.4-0.5,2.1
			C342.4,67.2,346.6,77.1,340.3,84.8z" id="_x32_90" title="طارم"></path>
		<path class="st1 area" d="M176.6,254.1c2.8-3.5,5.6,2.1,9.2,4.2c1.4,0.7,3.5,0,4.9,0c-0.7-2.8,2.8-4.9,2.1-8.5c4.2,0,9.9,1.4,11.3-0.7
			c5.6-9.2-2.8-18.3-6.4-26.8c-2.8-6.4,3.5-15.5,0-18.3c-8.5-6.4-28.9-0.7-28.9-17.6c0-2.1-2.8-5.6-5.6-5.6
			c-17.6-0.7-26.1-17.6-31-33.2c-0.7-1.4-3.5-4.2-5.6-4.9c-19.1-7.1-38.1-14.8-46.6-34.6c0-0.1-0.1-0.1-0.1-0.2
			c-5.1,2.8-12.2,4.9-22.3,5.4c-24.4,1.2-34.4,29.5-36.1,34.6c1.8,5.4,11.3,34.3,15,43.7c4.4,10.9,14.9,48.8,17,59.4
			c0.8,4,1.3,9.3,1.3,15c2.1,0.9,7.5,2.7,12,1c2.6-1,4.5-3,5.9-6.1c1.4-3.3,3.7-5.6,6.8-6.6c8.5-3,20.6,3.6,32.4,9.9
			c4.1,2.2,7.9,4.3,11.1,5.6c15.9,6.8,29.6,10.2,40.8,10.2c2.6,0,4.9,0,7,0.1c0.3-0.5,0.5-0.9,0.8-1.4
			C175.9,271.8,170.3,260.5,176.6,254.1z" id="_x35_11" title="ماهنشان"></path>
		<path class="st2 area" d="M217.5,252c11.3-5.7,19.7-4.2,28.2,4.2c1.4,0.7,4.2,0.7,4.2,0c4.2-7.1-4.2-19.8,4.9-21.2
			c8.5-2.1,14.1-3.5,21.2-8.5c4.9-3.5,7.8,5.6,10.6,9.9c4.2,6.4,12,2.1,18.3,0c2.8-0.7,4.9,0,7.1,1.4c8.5,6.3,14.8,20.5,26.1,14.8
			c2.8-2.1,3.5-7.8,7.1-7.8c12,0,16.2-9.2,25.4-15.5c3.5-2.8,9.2-0.7,13.4-2.1c2.1-0.7,6.3-1.4,7.8-4.2
			c4.8-13.9,13.5-24.9,24.3-33.8c-0.3-1.1-0.2-3.2,0.3-4.3c2.1-2.8,2.8-6.4,1.4-9.2c-2.1-4.2-7.8-5.6-12.7-7.1
			c-9.2-2.8-9.9-12.7-9.9-22.6c0-1.4-1.4-3.5-3.5-4.9c-9.9-5.6-21.2,2.8-30.3-3.5c-6.4-3.5-9.9-11.3-16.9-12
			c-8.5-1.4-22.6,5.6-24.7-5.7c-1.4-11.3,5.6-19.7,9.9-29.6c0.7-2.8,8.5-2.1,10.6-5.6c6.3-7.8,2.1-17.6,3.5-26.8
			c0.1-0.7,0.3-1.4,0.5-2.1c-0.1,0-0.3-0.1-0.4-0.1c-7.4-1.9-10.8-9.1-10.8-13.6c0-1.4-1.6-4.3-3-6.4l-13-3.6l-0.6-1.4
			c-0.5-1.3-2.3-5-3.8-7.1c-1-0.5-6.7-0.7-11.8-0.2l-1.1,0.1l-9.9-6.2c0,0,0.1,0.1,0.1,0.1c0.8,1.5,0.3,3.4-1.3,4.3
			c-1.9,1-18.7,10-24.6,11.5c-7.6,1.9-13.3,4.6-15,7.1c-2.9,4.4-13.2,16.4-25.7,19.5c-12.2,3.1-25.7,0-38.9-8.8
			c-11.3-7.5-28.4,5.3-31.1,8c-4.9,4.9-30,16.4-37.7,19c-7.9,2.6-14.6,6.6-19.8,11.9c-1,0.9-1.9,2.5-2.9,4.2
			c-2.6,4.2-5.9,9.7-13.3,13.8c0,0.1,0.1,0.1,0.1,0.2c8.5,19.8,27.5,27.5,46.6,34.6c2.1,0.7,4.9,3.5,5.6,4.9
			c4.9,15.5,13.4,32.5,31,33.2c2.8,0,5.6,3.5,5.6,5.6c0,16.9,20.5,11.3,28.9,17.6c3.5,2.8-2.8,12,0,18.3c3.4,8.2,11.5,17.1,6.8,26
			C208.5,252.2,213,254.7,217.5,252z" id="_x35_12" title="زنجان"></path>
		<path class="st0 area" d="M425.6,377.6c-0.7-2.8-1.4-4.9-2.1-7.8c-2.1-9.2,7.1-22.6-3.5-26.8c-6.4-2.1-12.7-4.9-15.5-10.6
			c-2.8-5.6-7.8-9.2-11.3-14.1c-3.5-4.9,1.4-8.5,2.1-12.7c2.8-10.6-15.5-15.5-25.4-20.5c-8.5-4.2-14.1-12.7-22.6-18.3
			c-2.8-1.4-7.1-2.8-9.2-0.7c-11.3,8.5-22.6,14.1-34.6,21.2c-9.2,5.6-15.5,14.1-16.2,26.1c-0.7,2.8-4.9,4.9-9.2,6.3
			c-0.7,0-2.1,2.1-2.1,3.5c-0.7,14.1-9.2,33.2-22.6,24c-14.1-9.9-26.1-7.8-40.9-8.5c-4.3-0.2-8.5-1-12.7-2.3
			c1.9,5.3,4.3,14.5,1.4,21c-1.4,3.1-3.8,5.3-7.1,6.4c-11.6,3.9-12.5,9.2-12.5,13.8c0,1.6-0.4,3.9-0.9,6.8
			c-1.1,6.2-2.9,16.5,0.3,20.2c0.5,0.6,1.5,1.4,3.8,1.4c2.4,0,4.4-0.1,6.1-0.1c10.1-0.3,13.7,0.2,15.9,11
			c2.3,11.4,4.1,16.4,11.6,16.4c9.7,0,22.4,1.7,27.8,9.8c3.7,5.6,16,23.2,18.4,26.7c2.9,1.5,15.9,8,31.8,9.8
			c11.3,1.3,18.5,6.7,24.2,11.1c4.2,3.2,7.5,5.7,11.1,5.7c3,0,6.3-1,9.9-2.1c7.8-2.4,17.5-5.4,26,3c3.6,3.6,7.7,5.1,11.8,4.4
			c4.3-0.7,8.4-3.8,10.5-7.8c1.2-2.5,0.3-4.1-2.9-8.1c-2.6-3.4-5.9-7.6-5.9-13.6c0-3.2,0-6.5,0.1-9.7c-0.1-0.5-0.2-0.9-0.1-1.4
			c0-0.1,0.1-0.2,0.1-0.3c0.6-14.6,2.6-28.4,9.1-34.9l35-35l0.3,0.1C426.7,386.6,426.9,382.1,425.6,377.6z" id="_x35_07" title="خدابنده"></path>
		<path class="st3 area" d="M336.4,253.4c-10.2,3.4-16.3-9.5-24.3-15.5c-2.1-1.4-4.2-2.1-7.1-1.4c-6.4,2.1-14.1,6.4-18.3,0
			c-2.8-4.2-5.6-13.4-10.6-9.9c-7.1,4.9-12.7,6.4-21.2,8.5c-9.2,1.4-0.7,14.1-4.9,21.2c0,0.7-2.8,0.7-4.2,0
			c-8.5-8.5-16.9-9.9-28.2-4.2c-4.5,2.7-9,0.2-13-3.6c-0.1,0.3-0.3,0.5-0.4,0.8c-1.4,2.1-7.1,0.7-11.3,0.7c0.7,3.5-2.8,5.6-2.1,8.5
			c-1.4,0-3.5,0.7-4.9,0c-3.5-2.1-6.4-7.8-9.2-4.2c-6.4,6.4-0.7,17.6-4.9,24.7c-0.2,0.5-0.5,0.9-0.8,1.4c7.9,0.3,12.6,1,13.9,1.4
			c3.3,1.1,6.5,10.7,6.5,10.8c0.5,1.7,2.2,5.8,3.3,8.3c0.6,1.4,1.1,2.5,1.1,2.8c0.2,0.7,0.4,1.8,0.4,7.4c0,0.3,0,0.7,0.1,1.3
			c0.2,3.5,0.3,7.5-0.4,10.4c-0.5,2.1,1.2,7.9,2.1,9.1l0.4,0.6c0.2,0.5,0.9,2,1.7,4.2c4.1,1.2,8.3,2,12.7,2.3
			c14.8,0.7,26.8-1.4,40.9,8.5c13.4,9.2,21.9-9.9,22.6-24c0-1.4,1.4-3.5,2.1-3.5c4.2-1.4,8.5-3.5,9.2-6.3c0.7-12,7.1-20.5,16.2-26.1
			c12-7.1,23.3-12.7,34.6-21.2c0.2-0.2,0.4-0.4,0.7-0.5C339.2,261.3,338.8,257.1,336.4,253.4z" id="_x35_13" title="ایجرود"></path>
		<path class="st3 area" d="M475.7,286.6c-2.8,6.4-14.1,10.6-10.6,16.9c2.1,4.9,10.6,8.5,7.8,15.5c-0.7,2.1-4.3,2.1-6.4,1.4
			c-7.1-2.8-14.8-7.8-23.3-6.3c-8.5,2.1-7.8,9.9-9.9,16.9c-0.7,0.7-2.1,2.1-2.8,2.8c-3.5,6.3,2.1,11.3,7.8,9.2
			c2.8-0.7,4.9-3.5,7.8-4.2c10.6-1.4,19.7,0,29.6-6.4c2.8-2.8,7.1,0.7,10.6,2.1c6.3,2.8,11.3-4.2,13.4-8.5
			c4.2-9.2,2.1-18.3,4.9-27.5c0-2.1-4.2-5.6-5.6-8.5c-1.4-3.5,0.7-6.4,3.5-8.5c4.4-2.5,8.4-5.7,12-9.3c-0.6-0.3-1.1-0.5-1.7-0.8
			c-7.4-3.4-15.1-6.9-23.7-8.3l-2-0.3c-5-0.8-10.4-1.7-15.6-3.2c-0.2,1-0.4,2-0.7,3C468.7,271.8,479.2,278.1,475.7,286.6z" id="_x34_98" title="خرمدره"></path>
		<path class="st1 area" d="M412.2,297.7c4-9,9-19,12-29c4-11,15-9,27-12c2.7-0.7,4.6-2.2,5.9-4.2c-2.5-2.1-4.6-4.6-6.1-7.8
			c-5.5-11-11.7-30.5-6.1-38.9c0.7-1.1,1.6-2.9,2.6-5.1c-4.4-3.7-6-10.1-11.4-11.5c-6.4-2.1-13.4,6.3-19.8,0.7
			c-0.1-0.1-0.3-0.4-0.3-0.6c-10.8,8.9-19.5,19.9-24.3,33.8c-1.4,2.8-5.6,3.5-7.8,4.2c-4.2,1.4-9.9-0.7-13.4,2.1
			c-9.2,6.4-13.4,15.5-25.4,15.5c-3.5,0-4.2,5.6-7.1,7.8c-0.6,0.3-1.2,0.5-1.8,0.7c2.4,3.7,2.9,7.9,2.5,12.2c2.3-1.3,5.9,0,8.5,1.2
			c8.5,5.7,14.1,14.1,22.6,18.3c9.9,4.9,28.2,9.9,25.4,20.5c-0.4,2.2-1.8,4.2-2.7,6.2C400.7,310.7,408.3,305.6,412.2,297.7z" id="_x33_01" title="سلطانیه"></path>
		<path class="st2 area active" d="M538.2,295.9l-1.1-3.3c-2.9-8.7-7.6-14-15-17c-2.5-1-5-2.1-7.6-3.3c-3.5,3.6-7.5,6.8-12,9.3
			c-2.8,2.1-4.9,4.9-3.5,8.5c1.4,2.8,5.6,6.4,5.6,8.5c-2.8,9.2-0.7,18.3-4.9,27.5c-2.1,4.2-7.1,11.3-13.4,8.5
			c-3.5-1.4-7.8-4.9-10.6-2.1c-9.9,6.4-19,4.9-29.6,6.4c-2.8,0.7-5,3.5-7.8,4.2c-5.6,2.1-11.3-2.8-7.8-9.2c0.7-0.7,2.1-2.1,2.8-2.8
			c2.1-7.1,1.4-14.8,9.9-16.9c8.5-1.4,16.2,3.5,23.3,6.3c2.1,0.7,5.7,0.7,6.4-1.4c2.8-7.1-5.7-10.6-7.8-15.5
			c-3.5-6.4,7.8-10.6,10.6-16.9c3.5-8.5-7.1-14.8-4.9-24c0.2-0.9,0.4-1.9,0.6-3c-5.2-1.5-10.2-3.7-14.2-7.2c-1.3,2-3.2,3.5-5.9,4.2
			c-12,3-23,1-27,12c-3,10-8,20-12,29c-4,8-11.5,13-19.7,14.2c-0.8,2-1.1,4,0.6,6.5c3.5,4.9,8.5,8.5,11.3,14.1
			c2.8,5.6,9.2,8.5,15.5,10.6c10.6,4.2,1.4,17.6,3.5,26.8c0.7,2.8,1.4,4.9,2.1,7.8c1.2,4.5,1,9,0.4,13.5l1.6,0.5
			c0.3,0.1,7,2.4,19.9,13.2c8.4,7,16.2,10.6,21.6,10c2.3-0.3,4-1.3,5.4-3.1c1.5-2.1,2.7-4.5,3.9-7.1c3.5-7.3,7.4-15.5,21.3-17.3
			c17.1-2.1,31.5-10.5,33.1-16.6c0.6-2.5,2-7,3.5-12.2c3.6-11.9,9-29.9,9-35.4C545.3,316.5,540.7,303.1,538.2,295.9z" id="_x35_00" title="ابهر"></path>

	<line class="st4 area" x1="484.3" y1="305.9" x2="509.7" y2="231.7" id="LINE_11" title=""></line>

<g id="G_12" class="area" title="">
	<path d="M105.8,220.5c0.1,0.3,0.1,0.6,0.1,0.9c0,0.4-0.1,0.7-0.2,1.1c-0.3,0.7-0.8,1.3-1.8,1.7c-0.8,0.3-1.6,0.5-2.5,0.5
		c-0.9,0-1.6-0.2-2.2-0.6c-0.6-0.5-0.9-1.1-0.9-2c0-0.5,0.1-0.9,0.3-1.5c0.2-0.4,0.3-0.7,0.5-0.9c0.1-0.1,0.2-0.1,0.2-0.1
		c0.1,0,0.1,0,0.1,0.1c0,0,0,0.1,0,0.2c-0.3,0.6-0.4,1.2-0.4,1.7c0,0.5,0.2,0.9,0.5,1.3c0.4,0.5,1.1,0.7,2,0.7c1,0,1.9-0.2,2.6-0.5
		c0.6-0.3,1-0.6,1.2-1c0.1-0.1,0.1-0.3,0.1-0.4c0-0.3-0.1-0.6-0.2-1c-0.1-0.3-0.4-0.8-0.9-1.6l0.4-0.8c0.1-0.1,0.1-0.2,0.1-0.2
		s0.1,0,0.1,0.1C105.3,219,105.6,219.7,105.8,220.5z M102.8,216.2L102,217l-0.8-0.8l0.8-0.8L102.8,216.2z" id="PATH_13" class="area" title=""></path>
	<path d="M109.8,220.7h-0.7c-0.7,0-1.3-0.3-1.5-0.9c-0.2-0.4-0.3-1.1-0.3-1.9v-1.9c0-0.9-0.1-2.2-0.2-3.9l0.6-0.7
		c0.1-0.1,0.2-0.1,0.2,0c0.1,0.9,0.2,2.2,0.2,3.9v2.9c0,0.8,0.4,1.2,1.2,1.2h0.5V220.7z" id="PATH_14" class="area" title=""></path>
	<path d="M119.1,220.7h-0.6c-0.7,0-1.1-0.3-1.4-0.8c-0.2,0.6-0.7,0.8-1.3,0.8c-0.6,0-1-0.3-1.3-0.8c-0.3,0.6-0.7,0.8-1.3,0.8
		c-0.7,0-1.2-0.3-1.5-0.8c-0.4,0.6-0.9,0.8-1.6,0.8h-0.7v-1.2h0.8c0.7,0,1.2-0.4,1.3-1.2c0-0.2,0.1-0.3,0.2-0.3
		c0.1,0,0.1,0.1,0.2,0.3c0.1,0.8,0.5,1.2,1.3,1.2c0.7,0,1.2-0.4,1.2-1.2c0-0.2,0.1-0.3,0.2-0.3c0.1,0,0.2,0.1,0.2,0.3
		c0.1,0.8,0.5,1.2,1,1.2c0.7,0,1.2-0.4,1.2-1.2c0-0.2,0.1-0.3,0.2-0.3c0.1,0,0.2,0.1,0.2,0.3c0.1,0.8,0.5,1.2,1.2,1.2h0.6V220.7z
		 M114.4,215.6l-0.7,0.7l-0.7-0.7l0.7-0.7L114.4,215.6z M115.3,214.1l-0.7,0.7l-0.7-0.7l0.7-0.7L115.3,214.1z M116.2,215.6l-0.7,0.7
		l-0.7-0.7l0.7-0.7L116.2,215.6z" id="PATH_15" class="area" title=""></path>
	<path d="M124,220.7h-0.8c-0.9,0-1.5-0.3-1.9-0.9c-0.3,0.6-1,0.9-2.1,0.9h-0.6v-1.2h0.9c1,0,1.5-0.4,1.6-1.1c0-0.3,0.1-0.5,0.2-0.5
		c0.1,0,0.2,0.2,0.2,0.5c0.1,0.7,0.6,1.1,1.5,1.1h0.9V220.7z M122,215.5l-0.8,0.8l-0.8-0.8l0.8-0.8L122,215.5z" id="PATH_16" class="area" title=""></path>
	<path d="M130.1,218.6c0,0.4-0.1,0.8-0.4,1.2c-0.3,0.5-0.6,0.7-1,0.7c-0.3,0-1-0.2-2.1-0.7c-0.9,0.6-1.7,0.8-2.4,0.8h-0.5v-1.2h0.6
		c0.4,0,0.8,0,1.2-0.1c-0.4-0.3-0.6-0.7-0.6-1.2c0-0.6,0.4-1.3,1.3-2l-0.7-0.3c0.2-0.2,0.5-0.5,0.9-0.9c0.9,0.5,1.7,0.9,2.4,1.5
		C129.6,217.2,130.1,217.9,130.1,218.6z M127.4,217.8c0-0.3-0.1-0.5-0.2-0.7c-0.1-0.3-0.3-0.4-0.6-0.4c-0.3,0-0.5,0.1-0.8,0.3
		c-0.3,0.2-0.5,0.5-0.5,0.7c0,0.4,0.4,0.8,1.1,1c0.2-0.1,0.4-0.2,0.6-0.3C127.3,218.3,127.4,218,127.4,217.8z M129.5,219
		c0-0.3-0.2-0.6-0.6-1c-0.3-0.3-0.6-0.6-0.9-0.7c0,0.8-0.2,1.4-0.7,1.8c0.8,0.3,1.4,0.4,1.6,0.4C129.3,219.5,129.5,219.3,129.5,219z
		" id="PATH_17" class="area" title=""></path>
	<path d="M134,220.7h-0.7c-0.7,0-1.3-0.3-1.5-0.9c-0.2-0.4-0.3-1.1-0.3-1.9v-1.9c0-0.9-0.1-2.2-0.2-3.9l0.6-0.7
		c0.1-0.1,0.2-0.1,0.2,0c0.1,0.9,0.2,2.2,0.2,3.9v2.9c0,0.8,0.4,1.2,1.2,1.2h0.5V220.7z" id="PATH_18" class="area" title=""></path>
	<path d="M139,218.7c0,0.5,0,0.9-0.2,1.3c-0.2,0.5-0.5,0.8-0.8,0.8c-0.5,0-1.3-0.3-2.3-1c-0.3,0.4-0.5,0.6-0.6,0.7
		c-0.3,0.2-0.6,0.3-1,0.3h-0.5v-1.2h0.7c0.4,0,0.8-0.2,1.2-0.7c0.2-0.2,0.5-0.7,0.9-1.3c0.3-0.5,0.7-0.7,1-0.7
		c0.5,0,0.9,0.2,1.2,0.7C138.8,217.9,139,218.3,139,218.7z M138.4,219.4c0-0.3-0.1-0.6-0.3-1c-0.2-0.4-0.5-0.6-0.8-0.6
		c-0.3,0-0.6,0.3-1,0.9c0.2,0.2,0.5,0.4,0.9,0.6c0.4,0.2,0.8,0.3,1,0.3C138.3,219.7,138.4,219.6,138.4,219.4z" id="PATH_19" class="area" title=""></path>
</g>
<g id="G_20" class="area" title="">
	<path d="M227.3,290.6c0,1.4-0.9,2.1-2.8,2.1c-0.7,0-1.2-0.1-1.5-0.3c-0.4-0.2-0.6-0.7-0.6-1.3c0-0.3,0.1-0.6,0.2-0.9
		c0.1-0.1,0.1-0.2,0.2-0.2c0.1,0,0.1,0.1,0.1,0.3c0,0.1,0,0.2,0,0.3c0,0.4,0.2,0.7,0.6,0.8c0.2,0.1,0.6,0.1,1.1,0.1
		c1.5,0,2.2-0.2,2.2-0.7c0-0.7-0.9-1.7-2.6-2.9l0.3-1c0-0.1,0.1-0.1,0.1-0.1c0,0,0.1,0,0.2,0.1C226.5,288.2,227.3,289.4,227.3,290.6
		z" id="PATH_21" class="area" title=""></path>
	<path d="M232.5,292.3c0,1.5-0.5,2.8-1.5,3.8c-0.3,0.3-0.5,0.5-0.6,0.5c-0.6,0-1.2-0.1-1.9-0.2c-0.3,0-0.4-0.1-0.4-0.1
		c0,0,0.1-0.1,0.4-0.2c0.8-0.2,1.6-0.7,2.3-1.3c0.3-0.3,0.6-0.5,0.8-0.9c0.3-0.4,0.5-0.8,0.5-1.1v-0.3l-1.3,0
		c-0.9,0-1.4-0.4-1.4-1.1c0-0.5,0.1-1,0.4-1.6c0.3-0.6,0.7-1,1.1-1c0.6,0,1.1,0.4,1.4,1.3C232.4,290.8,232.5,291.5,232.5,292.3z
		 M231.7,291.4c0-0.3-0.1-0.6-0.3-0.9c-0.2-0.3-0.5-0.5-0.8-0.5c-0.2,0-0.4,0.1-0.5,0.2c-0.2,0.2-0.2,0.3-0.2,0.5
		c0,0.5,0.3,0.7,1,0.7C231.1,291.5,231.4,291.5,231.7,291.4z" id="PATH_22" class="area" title=""></path>
	<path d="M238.7,292.7h-0.4c-0.4,0-0.6-0.1-0.8-0.2c0,0.1,0,0.2,0,0.3c0,0.9-0.3,1.8-0.9,2.7c-0.5,0.8-1,1.1-1.3,1.1
		c-0.8,0-1.4,0-2-0.1c-0.2,0-0.3-0.1-0.3-0.1s0.1-0.1,0.3-0.1c0.8-0.2,1.6-0.6,2.4-1.2c0.8-0.7,1.3-1.4,1.3-2.1c0-0.4-0.3-1-1-1.7
		l0.5-0.9c0-0.1,0.1-0.1,0.1-0.1c0,0,0.1,0.1,0.1,0.1c0.3,0.4,0.5,0.7,0.7,0.8c0.3,0.2,0.7,0.4,1.1,0.4h0.3V292.7z" id="PATH_23" class="area" title=""></path>
	<path d="M247.5,292.7h-1c-1.3,0-2-0.7-2-2c0-0.2,0-0.3,0-0.5c-0.5,0.2-1.1,0.6-1.9,1.1c-0.8,0.5-1.3,0.8-1.7,1
		c-0.6,0.3-1.3,0.4-1.9,0.4h-0.7v-1.2h0.8c0.8,0,1.7-0.2,2.5-0.6c0.4-0.2,1.1-0.6,2.2-1.1c-0.2,0-0.8-0.2-1.8-0.4
		c-0.7-0.2-1.1-0.3-1.2-0.3c-0.4,0-0.8,0.2-1.2,0.5c-0.1,0.1-0.1,0.1-0.2,0.1c-0.1,0-0.1,0-0.1-0.1c0,0,0-0.1,0-0.1
		c0.3-1,0.9-1.5,1.7-1.5c0.3,0,0.7,0.1,1.2,0.2c0.7,0.2,1.3,0.4,1.8,0.5c0.7,0.1,1.5,0.2,2.4,0.2c0.2,0,0.2,0,0.3,0c0,0,0,0.1,0,0.2
		l-0.3,0.9c-0.6,0-1,0-1.2,0.1c0,0.5,0.1,0.8,0.2,0.9c0.2,0.3,0.6,0.5,1.3,0.5h1V292.7z M243.7,294.7l-0.8,0.8l-0.8-0.8l0.8-0.8
		L243.7,294.7z" id="PATH_24" class="area" title=""></path>
	<path d="M249.8,290.7c0,1.3-0.7,2-2,2H247v-1.2h0.7c1,0,1.5-0.2,1.5-0.5c0-0.3-0.2-0.7-0.7-1.2l0.4-1c0-0.1,0.1-0.1,0.1-0.1
		c0,0,0.1,0.1,0.2,0.2C249.6,289.4,249.8,290,249.8,290.7z M249,294.9l-0.8,0.8l-0.8-0.8l0.8-0.8L249,294.9z M250.8,294.9l-0.8,0.8
		l-0.8-0.8l0.8-0.8L250.8,294.9z" id="PATH_25" class="area" title=""></path>
	<path d="M253.1,291.4c0,0.4-0.1,0.8-0.3,1.1c-0.1,0.2-0.2,0.3-0.2,0.3c0,0-0.1-0.1-0.1-0.4c0-1.2-0.2-4-0.6-8.5l0.8-0.8
		c0.1-0.1,0.1-0.1,0.1-0.1c0,0,0,0.1,0,0.2C253.1,284.6,253.1,287.3,253.1,291.4z" id="PATH_26" class="area" title=""></path>
</g>
<g id="G_27" class="area" title="">
	<path d="M234.7,145.2c0.1,0.3,0.1,0.6,0.1,0.9c0,0.4-0.1,0.7-0.2,1.1c-0.3,0.7-0.8,1.3-1.8,1.7c-0.8,0.3-1.6,0.5-2.5,0.5
		c-0.9,0-1.6-0.2-2.2-0.6c-0.6-0.5-0.9-1.1-0.9-2c0-0.5,0.1-0.9,0.3-1.5c0.2-0.4,0.3-0.7,0.5-0.9c0.1-0.1,0.2-0.1,0.2-0.1
		c0.1,0,0.1,0,0.1,0.1c0,0,0,0.1,0,0.2c-0.3,0.6-0.4,1.2-0.4,1.7c0,0.5,0.2,0.9,0.5,1.3c0.4,0.5,1.1,0.7,2,0.7c1,0,1.9-0.2,2.6-0.5
		c0.6-0.3,1-0.6,1.2-1c0.1-0.1,0.1-0.3,0.1-0.4c0-0.3-0.1-0.6-0.2-1c-0.1-0.3-0.4-0.8-0.9-1.6l0.4-0.8c0.1-0.1,0.1-0.2,0.1-0.2
		s0.1,0,0.1,0.1C234.3,143.6,234.5,144.4,234.7,145.2z M231.7,140.9l-0.8,0.8l-0.8-0.8l0.8-0.8L231.7,140.9z" id="PATH_28" class="area" title=""></path>
	<path d="M238.7,145.3h-0.7c-0.7,0-1.3-0.3-1.5-0.9c-0.2-0.4-0.3-1.1-0.3-1.9v-1.9c0-0.9-0.1-2.2-0.2-3.9l0.6-0.7
		c0.1-0.1,0.2-0.1,0.2,0c0.1,0.9,0.2,2.2,0.2,3.9v2.9c0,0.8,0.4,1.2,1.2,1.2h0.5V145.3z" id="PATH_29" class="area" title=""></path>
	<path d="M247.5,145.3h-1c-1.3,0-2-0.7-2-2c0-0.2,0-0.3,0-0.5c-0.5,0.2-1.1,0.6-1.9,1.1c-0.8,0.5-1.3,0.8-1.7,1
		c-0.6,0.3-1.3,0.4-1.9,0.4h-0.7v-1.2h0.8c0.8,0,1.7-0.2,2.5-0.6c0.4-0.2,1.1-0.6,2.2-1.1c-0.2,0-0.8-0.2-1.8-0.4
		c-0.7-0.2-1.1-0.3-1.2-0.3c-0.4,0-0.8,0.2-1.2,0.5c-0.1,0.1-0.1,0.1-0.2,0.1c-0.1,0-0.1,0-0.1-0.1c0,0,0-0.1,0-0.1
		c0.3-1,0.9-1.5,1.7-1.5c0.3,0,0.7,0.1,1.2,0.2c0.7,0.2,1.3,0.4,1.8,0.5c0.7,0.1,1.5,0.2,2.4,0.2c0.2,0,0.2,0,0.3,0c0,0,0,0.1,0,0.2
		l-0.3,0.9c-0.6,0-1,0-1.2,0.1c0,0.5,0.1,0.8,0.2,0.9c0.2,0.3,0.6,0.5,1.3,0.5h1V145.3z M243.7,147.4l-0.8,0.8l-0.8-0.8l0.8-0.8
		L243.7,147.4z" id="PATH_30" class="area" title=""></path>
	<path d="M249.9,143.3c0,1.3-0.7,2-2,2h-0.8v-1.2h0.7c1,0,1.5-0.2,1.5-0.5c0-0.3-0.2-0.7-0.7-1.2l0.4-1c0-0.1,0.1-0.1,0.1-0.1
		c0,0,0.1,0.1,0.2,0.2C249.7,142.1,249.9,142.7,249.9,143.3z M249.8,138.8l-0.8,0.8l-0.8-0.8l0.8-0.8L249.8,138.8z" id="PATH_31" class="area" title=""></path>
	<path d="M254.9,145.4c0,1-0.3,1.9-0.9,2.8c-0.5,0.7-1,1.1-1.3,1.1c-0.8,0-1.4,0-2-0.1c-0.2,0-0.3-0.1-0.3-0.1s0.1-0.1,0.3-0.1
		c0.8-0.2,1.6-0.6,2.4-1.2c0.8-0.7,1.3-1.4,1.3-2.1c0-0.4-0.3-1-1-1.7l0.5-0.9c0-0.1,0.1-0.1,0.1-0.1c0,0,0.1,0.1,0.1,0.1
		c0.2,0.3,0.5,0.7,0.6,1.2C254.8,144.6,254.9,145.1,254.9,145.4z M254.2,140.1l-0.8,0.8l-0.8-0.8l0.8-0.8L254.2,140.1z" id="PATH_32" class="area" title=""></path>
</g>
<g id="G_33" class="area" title="">
	<path d="M400,112.7c0,0.2-0.1,0.4-0.3,0.8c-0.2,0.4-0.4,0.6-0.5,0.6c-0.3,0-0.7-0.1-1.2-0.2s-0.9-0.2-1.2-0.2
		c-0.5,0-0.9,0.1-1.1,0.2c0.2,1.7,0.3,3,0.3,3.8c0,0.4-0.1,0.8-0.4,1.3c-0.1,0.1-0.1,0.2-0.1,0.2c0,0,0,0,0-0.1
		c-0.1-1.6-0.2-3.2-0.4-4.8c0-0.2,0.1-0.4,0.3-0.7c0.2-0.2,0.3-0.4,0.5-0.5c0.2-0.2,0.5-0.2,0.8-0.2c-0.1-0.3-0.1-0.5-0.1-0.7
		c0-0.3,0.1-0.7,0.4-1.1c0.3-0.4,0.6-0.6,1-0.6c0.5,0,1,0.3,1.5,0.8C399.7,111.7,400,112.2,400,112.7z M399.2,113
		c-0.1-0.3-0.4-0.7-0.7-1c-0.4-0.4-0.7-0.5-1.1-0.5c-0.5,0-0.7,0.2-0.7,0.5c0,0.2,0.1,0.4,0.2,0.8
		C397.6,112.7,398.3,112.8,399.2,113z" id="PATH_34" class="area" title=""></path>
	<path d="M405.1,114.8c0,1-0.3,1.9-0.9,2.8c-0.5,0.7-1,1.1-1.3,1.1c-0.8,0-1.4,0-2-0.1c-0.2,0-0.3-0.1-0.3-0.1s0.1-0.1,0.3-0.1
		c0.8-0.2,1.6-0.6,2.4-1.2c0.8-0.7,1.3-1.4,1.3-2.1c0-0.4-0.3-1-1-1.7l0.5-0.9c0-0.1,0.1-0.1,0.1-0.1c0,0,0.1,0.1,0.1,0.1
		c0.2,0.3,0.5,0.7,0.6,1.2C405,114,405.1,114.4,405.1,114.8z" id="PATH_35" class="area" title=""></path>
	<path d="M409,114.7h-0.7c-0.7,0-1.3-0.3-1.5-0.9c-0.2-0.4-0.3-1.1-0.3-1.9v-1.9c0-0.9-0.1-2.2-0.2-3.9l0.6-0.7
		c0.1-0.1,0.2-0.1,0.2,0c0.1,0.9,0.2,2.2,0.2,3.9v2.9c0,0.8,0.4,1.2,1.2,1.2h0.5V114.7z" id="PATH_36" class="area" title=""></path>
	<path d="M416.7,112c0,1.1-0.6,1.9-1.8,2.3c-0.9,0.3-2.3,0.4-4.2,0.4h-2v-1.2h1c0.3,0,0.5-0.1,0.6-0.2c0.1-0.1,0.1-0.3,0.1-0.6
		c0-0.4,0-1.2,0-2.2c-0.1-1.6-0.2-3.1-0.4-4.4l0.7-0.7c0.1-0.1,0.1-0.1,0.1-0.1c0,0,0.1,0.1,0.1,0.2c0.1,0.4,0.2,0.8,0.4,1.2
		c0,0.1,0.1,0.2,0.1,0.2c0,0-0.1,0-0.2,0H411c0.1,1.8,0.1,2.9,0.1,3.2v1.1c0,0.4-0.1,1-0.3,1.7c0.1,0,0.3-0.2,0.8-0.6
		c0.5-0.5,1-0.9,1.4-1.2c0.7-0.4,1.3-0.6,1.9-0.6c0.5,0,0.9,0.1,1.2,0.4C416.5,111.1,416.7,111.5,416.7,112z M416,112.6
		c0-0.3-0.2-0.6-0.6-0.8c-0.3-0.2-0.7-0.3-1-0.3c-0.7,0-1.9,0.7-3.4,2c0.4,0,0.9,0.1,1.3,0.1c0.6,0,1.3-0.1,2-0.2
		C415.4,113.2,416,112.9,416,112.6z" id="PATH_37" class="area" title=""></path>
</g>
<g id="G_38" class="area" title="">
	<path d="M493.1,218.6c0,0.7-0.2,1.2-0.6,1.6c-0.4,0.4-1,0.5-1.6,0.5c-0.4,0-0.8-0.1-1.1-0.4c-0.3-0.3-0.5-0.6-0.5-1
		c0-0.5,0.2-1,0.6-1.7c0.3-0.6,0.7-1.1,1.1-1.5C492.4,216.8,493.1,217.6,493.1,218.6z M492.5,219c0-0.3-0.2-0.6-0.7-1
		c-0.4-0.4-0.7-0.6-1.1-0.7c-0.5,0.7-0.8,1.2-0.8,1.6c0,0.2,0.1,0.4,0.4,0.6c0.2,0.1,0.4,0.2,0.7,0.2c0.4,0,0.8-0.1,1.1-0.2
		C492.4,219.2,492.5,219.1,492.5,219z" id="PATH_39" class="area" title=""></path>
	<path d="M498.1,220.8c0,1-0.3,1.9-0.9,2.8c-0.5,0.7-1,1.1-1.3,1.1c-0.8,0-1.4,0-2-0.1c-0.2,0-0.3-0.1-0.3-0.1s0.1-0.1,0.3-0.1
		c0.8-0.2,1.6-0.6,2.4-1.2c0.8-0.7,1.3-1.4,1.3-2.1c0-0.4-0.3-1-1-1.7l0.5-0.9c0-0.1,0.1-0.1,0.1-0.1c0,0,0.1,0.1,0.1,0.1
		c0.2,0.3,0.5,0.7,0.6,1.2C498,220,498.1,220.4,498.1,220.8z" id="PATH_40" class="area" title=""></path>
	<path d="M504.2,218.6c0,1.4-0.9,2.1-2.8,2.1c-0.7,0-1.2-0.1-1.5-0.3c-0.4-0.2-0.6-0.7-0.6-1.3c0-0.3,0.1-0.6,0.2-0.9
		c0.1-0.1,0.1-0.2,0.2-0.2c0.1,0,0.1,0.1,0.1,0.3c0,0.1,0,0.2,0,0.3c0,0.4,0.2,0.7,0.6,0.8c0.2,0.1,0.6,0.1,1.1,0.1
		c1.5,0,2.2-0.2,2.2-0.7c0-0.7-0.9-1.7-2.6-2.9l0.3-1c0-0.1,0.1-0.1,0.1-0.1c0,0,0.1,0,0.2,0.1C503.4,216.2,504.2,217.4,504.2,218.6
		z" id="PATH_41" class="area" title=""></path>
	<path d="M514.5,218.7c0,0.2-0.1,0.4-0.3,0.8c-0.2,0.4-0.4,0.6-0.5,0.6c-0.3,0-0.7-0.1-1.2-0.2s-0.9-0.2-1.2-0.2
		c-0.5,0-0.9,0.1-1.1,0.2c0.2,1.7,0.3,3,0.3,3.8c0,0.4-0.1,0.8-0.4,1.3c-0.1,0.1-0.1,0.2-0.1,0.2c0,0,0,0,0-0.1
		c-0.1-1.6-0.2-3.2-0.4-4.8c0-0.2,0.1-0.4,0.3-0.7c0.2-0.2,0.3-0.4,0.5-0.5c0.2-0.2,0.5-0.2,0.8-0.2c-0.1-0.3-0.1-0.5-0.1-0.7
		c0-0.3,0.1-0.7,0.4-1.1c0.3-0.4,0.6-0.6,1-0.6c0.5,0,1,0.3,1.5,0.8C514.2,217.7,514.5,218.2,514.5,218.7z M513.7,219
		c-0.1-0.3-0.4-0.7-0.7-1c-0.4-0.4-0.7-0.5-1.1-0.5c-0.5,0-0.7,0.2-0.7,0.5c0,0.2,0.1,0.4,0.2,0.8
		C512.1,218.7,512.8,218.8,513.7,219z" id="PATH_42" class="area" title=""></path>
	<path d="M520.8,220.7h-0.4c-0.4,0-0.6-0.1-0.8-0.2c0,0.1,0,0.2,0,0.3c0,0.9-0.3,1.8-0.9,2.7c-0.5,0.8-1,1.1-1.3,1.1
		c-0.8,0-1.4,0-2-0.1c-0.2,0-0.3-0.1-0.3-0.1s0.1-0.1,0.3-0.1c0.8-0.2,1.6-0.6,2.4-1.2c0.8-0.7,1.3-1.4,1.3-2.1c0-0.4-0.3-1-1-1.7
		l0.5-0.9c0-0.1,0.1-0.1,0.1-0.1c0,0,0.1,0.1,0.1,0.1c0.3,0.4,0.5,0.7,0.7,0.8c0.3,0.2,0.7,0.4,1.1,0.4h0.3V220.7z" id="PATH_43" class="area" title=""></path>
	<path d="M528.6,217.8l-0.4,0.8c-0.7,0-1.3,0-1.6,0.1c-0.4,0.2-1,0.4-1.8,0.8c-0.8,0.4-1.4,0.7-1.8,0.8c-0.6,0.2-1.3,0.3-1.9,0.3
		h-0.7v-1.2h0.8c0.9,0,1.7-0.2,2.4-0.5l2.3-1c-0.4-0.1-1-0.3-1.8-0.6c-0.7-0.3-1.1-0.4-1.3-0.4c-0.4,0-0.8,0.2-1.2,0.5
		c-0.1,0.1-0.1,0.1-0.2,0.1c-0.1,0-0.1,0-0.1-0.1c0,0,0-0.1,0-0.1c0.3-1,0.9-1.4,1.7-1.4c0.3,0,0.7,0.1,1.1,0.3
		c0.8,0.4,1.4,0.6,1.8,0.8c0.7,0.2,1.5,0.4,2.4,0.4c0.2,0,0.3,0,0.3,0.1C528.7,217.6,528.6,217.6,528.6,217.8z M525.7,213.2
		l-0.8,0.8l-0.8-0.8l0.8-0.8L525.7,213.2z" id="PATH_44" class="area" title=""></path>
</g>
<g id="G_45" class="area" title="">
	<path d="M387.2,245.7h-0.7c-0.9,0-1.4-0.5-1.6-1.6c-0.5,0.5-0.7,0.7-0.8,0.7h-0.9c-0.3,0-0.6,0-0.9-0.1c-0.4-0.1-0.6-0.3-0.6-0.5
		c0-0.7,0.3-1.4,0.8-1.8c0.4-0.3,1-0.6,1.8-1l-0.2-1l0.7-0.8c0,0.1,0.3,1.2,0.7,3.3c0.1,0.6,0.3,1.1,0.4,1.3
		c0.2,0.3,0.4,0.4,0.8,0.4h0.7V245.7z M384.7,243.6l-0.3-1.6c-0.3,0.1-0.7,0.3-1.2,0.5c-0.6,0.3-1,0.6-1,0.7c0,0.2,0.2,0.3,0.7,0.4
		c0.3,0.1,0.6,0.1,0.9,0.1C384.2,243.7,384.5,243.7,384.7,243.6z" id="PATH_46" class="area" title=""></path>
	<path d="M392.2,245.7h-0.8c-0.9,0-1.5-0.3-1.9-0.9c-0.3,0.6-1,0.9-2.1,0.9h-0.6v-1.2h0.9c1,0,1.5-0.4,1.6-1.1
		c0-0.3,0.1-0.5,0.2-0.5s0.2,0.2,0.2,0.5c0.1,0.7,0.6,1.1,1.5,1.1h0.9V245.7z M388.9,247.9l-0.8,0.8l-0.8-0.8l0.8-0.8L388.9,247.9z
		 M390.6,247.9l-0.8,0.8l-0.8-0.8l0.8-0.8L390.6,247.9z" id="PATH_47" class="area" title=""></path>
	<path d="M394.6,243.7c0,1.3-0.7,2-2,2h-0.8v-1.2h0.7c1,0,1.5-0.2,1.5-0.5c0-0.3-0.2-0.7-0.7-1.2l0.4-1c0-0.1,0.1-0.1,0.1-0.1
		s0.1,0.1,0.2,0.2C394.3,242.4,394.6,243,394.6,243.7z M394.5,239.1l-0.8,0.8l-0.8-0.8l0.8-0.8L394.5,239.1z" id="PATH_48" class="area" title=""></path>
	<path d="M398.5,245.7h-0.7c-0.7,0-1.3-0.3-1.5-0.9c-0.2-0.4-0.3-1.1-0.3-1.9v-1.9c0-0.9-0.1-2.2-0.2-3.9l0.6-0.7
		c0.1-0.1,0.2-0.1,0.2,0c0.1,0.9,0.2,2.2,0.2,3.9v2.9c0,0.8,0.4,1.2,1.2,1.2h0.5V245.7z" id="PATH_49" class="area" title=""></path>
	<path d="M407,245.7h-0.4c-0.9,0-1.8-0.1-2.5-0.3c-0.9,0.2-2.2,0.3-3.9,0.3h-2v-1.2h1c0.3,0,0.5-0.1,0.6-0.2
		c0.1-0.1,0.1-0.3,0.1-0.6c0-0.4,0-1.2,0-2.2c-0.1-1.6-0.2-3.1-0.4-4.4l0.7-0.7c0.1-0.1,0.1-0.1,0.1-0.1c0,0,0.1,0.1,0.1,0.2
		c0.1,0.4,0.2,0.8,0.4,1.2c0,0.1,0.1,0.2,0.1,0.2c0,0-0.1,0-0.2,0h-0.3c0.1,1.8,0.1,2.9,0.1,3.2v1.1c0,0.4-0.1,1-0.3,1.7
		c0.1,0,0.3-0.2,0.8-0.6c0.5-0.5,1-0.9,1.4-1.2c0.7-0.4,1.3-0.6,1.9-0.6c0.5,0,0.9,0.1,1.2,0.4c0.4,0.3,0.5,0.6,0.5,1.1
		c0,0.7-0.2,1.2-0.7,1.6c0.1,0,0.3,0,0.6,0s0.4,0,0.6,0h0.4V245.7z M405.4,243.6c0-0.3-0.2-0.6-0.6-0.8c-0.3-0.2-0.7-0.3-1-0.3
		c-0.7,0-1.9,0.6-3.4,1.9c0.4,0,0.9,0.1,1.3,0.1c0.6,0,1.3-0.1,2-0.2C404.9,244.1,405.4,243.9,405.4,243.6z" id="PATH_50" class="area" title=""></path>
	<path d="M410.7,245.7h-0.4c-0.9,0-1.5-0.3-1.8-1c-0.1,0.3-0.3,0.5-0.6,0.7c-0.3,0.2-0.6,0.3-0.9,0.3h-0.4v-1.2h0.4
		c0.8,0,1.2-0.3,1.2-1V240c0-1.3,0-2.3-0.1-3l0.9-0.7v6.7c0,1,0.4,1.5,1.3,1.5h0.4V245.7z" id="PATH_51" class="area" title=""></path>
	<path d="M418.6,243.5c0,0.6-0.1,1.1-0.4,1.5c-0.3,0.4-0.8,0.7-1.3,0.7c-0.7,0-1.1-0.3-1.4-0.8c-0.4,0.6-0.8,0.8-1.4,0.8
		c-0.7,0-1.2-0.3-1.5-0.8c-0.4,0.6-0.9,0.8-1.6,0.8h-0.7v-1.2h0.8c0.7,0,1.2-0.4,1.3-1.2c0-0.2,0.1-0.3,0.2-0.3
		c0.1,0,0.1,0.1,0.2,0.3c0.1,0.8,0.5,1.2,1.3,1.2c0.4,0,0.8-0.1,1-0.3c0.1-0.2,0.2-0.4,0.3-0.8c0-0.2,0.1-0.3,0.2-0.3
		c0.1,0,0.1,0.1,0.2,0.3c0.1,0.8,0.5,1.2,1.2,1.2c0.8,0,1.1-0.2,1.1-0.5c0-0.3-0.2-0.7-0.6-1.1l0.5-0.9c0.1-0.1,0.1-0.2,0.2-0.2
		s0.1,0.1,0.2,0.2C418.4,242.6,418.6,243.1,418.6,243.5z" id="PATH_52" class="area" title=""></path>
</g>
<g id="G_53" class="area" title="">
	<path d="M480,361.7h-0.4c-0.4,0-0.6-0.1-0.8-0.2c0,0.1,0,0.2,0,0.3c0,0.9-0.3,1.8-0.9,2.7c-0.5,0.8-1,1.1-1.3,1.1
		c-0.8,0-1.4,0-2-0.1c-0.2,0-0.3-0.1-0.3-0.1s0.1-0.1,0.3-0.1c0.8-0.2,1.6-0.6,2.4-1.2c0.8-0.7,1.3-1.4,1.3-2.1c0-0.4-0.3-1-1-1.7
		l0.5-0.9c0-0.1,0.1-0.1,0.1-0.1c0,0,0.1,0.1,0.1,0.1c0.3,0.4,0.5,0.7,0.7,0.8c0.3,0.2,0.7,0.4,1.1,0.4h0.3V361.7z" id="PATH_54" class="area" title=""></path>
	<path d="M486.3,361.7h-0.5c-0.4,0-0.8,0.1-1.1,0.2c-0.5,0.2-0.8,0.5-0.8,1c0,0.6,0.4,1.1,1.2,1.6l-0.5,1c-0.9-0.3-1.7-0.8-2.3-1.4
		c-0.8-0.7-1.2-1.6-1.2-2.5h-1.4v-1.2h1.3c0-0.8,0.2-1.6,0.6-2.6c0.4-0.9,0.7-1.3,0.9-1.3c0.2,0,0.5,0.4,0.8,1.3
		c0.3,0.8,0.4,1.3,0.4,1.6c0,1.4-0.7,2.1-2.1,2.1c0.1,0.4,0.3,0.8,0.6,1.2s0.7,0.7,1.1,0.9c0-0.1,0-0.3,0-0.4c0-0.7,0.2-1.3,0.5-1.8
		c0.5-0.7,1.1-1.1,2-1.1h0.4V361.7z M483.2,360.1c0-0.2-0.1-0.6-0.3-1.1c-0.2-0.6-0.4-0.8-0.6-0.8c-0.1,0-0.3,0.2-0.5,0.7
		c-0.2,0.5-0.3,1.1-0.3,1.7C482.6,360.5,483.2,360.4,483.2,360.1z" id="PATH_55" class="area" title=""></path>
	<path d="M488.6,359.7c0,1.3-0.7,2-2,2h-0.8v-1.2h0.7c1,0,1.5-0.2,1.5-0.5c0-0.3-0.2-0.7-0.7-1.2l0.4-1c0-0.1,0.1-0.1,0.1-0.1
		s0.1,0.1,0.2,0.2C488.4,358.4,488.6,359,488.6,359.7z M488.3,363.9l-0.8,0.8l-0.8-0.8l0.8-0.8L488.3,363.9z" id="PATH_56" class="area" title=""></path>
	<path d="M491,360.4c0,0.4-0.1,0.8-0.3,1.1c-0.1,0.2-0.2,0.3-0.2,0.3c0,0-0.1-0.1-0.1-0.4c0-1.2-0.2-4-0.6-8.5l0.8-0.8
		c0.1-0.1,0.1-0.1,0.1-0.1c0,0,0,0.1,0,0.2C491,353.6,491,356.3,491,360.4z" id="PATH_57" class="area" title=""></path>
</g>
<g id="G_58" class="area" title="">
	<path d="M288.2,381.6c0,0.7-0.2,1.2-0.6,1.6c-0.4,0.4-1,0.5-1.6,0.5c-0.4,0-0.8-0.1-1.1-0.4c-0.3-0.3-0.5-0.6-0.5-1
		c0-0.5,0.2-1,0.6-1.7c0.3-0.6,0.7-1.1,1.1-1.5C287.5,379.8,288.2,380.6,288.2,381.6z M287.6,382c0-0.3-0.2-0.6-0.7-1
		c-0.4-0.4-0.7-0.6-1.1-0.7c-0.5,0.7-0.8,1.2-0.8,1.6c0,0.2,0.1,0.4,0.4,0.6c0.2,0.1,0.4,0.2,0.7,0.2c0.4,0,0.8-0.1,1.1-0.2
		C287.5,382.2,287.6,382.1,287.6,382z" id="PATH_59" class="area" title=""></path>
	<path d="M296,383.7h-0.4c-0.4,0-0.7-0.1-1-0.4c-0.2-0.2-0.4-0.4-0.6-0.8c-0.2,0.4-0.5,0.7-0.8,0.9c-0.4,0.2-0.9,0.3-1.7,0.3
		c-1.4,0-2.1-0.5-2.1-1.5c0-0.3,0.1-0.7,0.3-1c0.1-0.1,0.1-0.2,0.2-0.2c0.1,0,0.1,0.1,0.1,0.2c0,0.1,0,0.1,0,0.3s0,0.2,0,0.3
		c0,0.6,0.5,0.9,1.5,0.9c1.4,0,2.1-0.3,2.1-0.8c0-0.3-0.4-1.4-1.2-3.3l0.4-0.8c0.1-0.1,0.1-0.2,0.1-0.2c0,0,0.1,0.1,0.1,0.2
		c0.3,0.8,0.8,2,1.4,3.6c0.3,0.8,0.7,1.2,1.3,1.2h0.3V383.7z" id="PATH_60" class="area" title=""></path>
	<path d="M300.9,383.7h-0.8c-0.9,0-1.5-0.3-1.9-0.9c-0.3,0.6-1,0.9-2.1,0.9h-0.6v-1.2h0.9c1,0,1.5-0.4,1.6-1.1
		c0-0.3,0.1-0.5,0.2-0.5s0.2,0.2,0.2,0.5c0.1,0.7,0.6,1.1,1.5,1.1h0.9V383.7z M298.9,378.5l-0.8,0.8l-0.8-0.8l0.8-0.8L298.9,378.5z" id="PATH_61" class="area" title=""></path>
	<path d="M303.3,381.7c0,1.3-0.7,2-2,2h-0.8v-1.2h0.7c1,0,1.5-0.2,1.5-0.5c0-0.3-0.2-0.7-0.7-1.2l0.4-1c0-0.1,0.1-0.1,0.1-0.1
		s0.1,0.1,0.2,0.2C303.1,380.4,303.3,381,303.3,381.7z M303,385.9l-0.8,0.8l-0.8-0.8l0.8-0.8L303,385.9z" id="PATH_62" class="area" title=""></path>
	<path d="M305.6,382.4c0,0.4-0.1,0.8-0.3,1.1c-0.1,0.2-0.2,0.3-0.2,0.3c0,0-0.1-0.1-0.1-0.4c0-1.2-0.2-4-0.6-8.5l0.8-0.8
		c0.1-0.1,0.1-0.1,0.1-0.1c0,0,0,0.1,0,0.2C305.6,375.6,305.6,378.3,305.6,382.4z" id="PATH_63" class="area" title=""></path>
	<path d="M313.4,383.7H313c-0.4,0-0.7-0.1-1-0.4c-0.2-0.2-0.4-0.4-0.6-0.8c-0.2,0.4-0.5,0.7-0.8,0.9c-0.4,0.2-0.9,0.3-1.7,0.3
		c-1.4,0-2.1-0.5-2.1-1.5c0-0.3,0.1-0.7,0.3-1c0.1-0.1,0.1-0.2,0.2-0.2c0.1,0,0.1,0.1,0.1,0.2c0,0.1,0,0.1,0,0.3s0,0.2,0,0.3
		c0,0.6,0.5,0.9,1.5,0.9c1.4,0,2.1-0.3,2.1-0.8c0-0.3-0.4-1.4-1.2-3.3l0.4-0.8c0.1-0.1,0.1-0.2,0.1-0.2c0,0,0.1,0.1,0.1,0.2
		c0.3,0.8,0.8,2,1.4,3.6c0.3,0.8,0.7,1.2,1.3,1.2h0.3V383.7z" id="PATH_64" class="area" title=""></path>
	<path d="M321.2,380.8l-0.4,0.8c-0.7,0-1.3,0-1.6,0.1c-0.4,0.2-1,0.4-1.8,0.8c-0.8,0.4-1.4,0.7-1.8,0.8c-0.6,0.2-1.3,0.3-1.9,0.3
		H313v-1.2h0.8c0.9,0,1.7-0.2,2.4-0.5l2.3-1c-0.4-0.1-1-0.3-1.8-0.6c-0.7-0.3-1.1-0.4-1.3-0.4c-0.4,0-0.8,0.2-1.2,0.5
		c-0.1,0.1-0.1,0.1-0.2,0.1c-0.1,0-0.1,0-0.1-0.1c0,0,0-0.1,0-0.1c0.3-1,0.9-1.4,1.7-1.4c0.3,0,0.7,0.1,1.1,0.3
		c0.8,0.4,1.4,0.6,1.8,0.8c0.7,0.2,1.5,0.4,2.4,0.4c0.2,0,0.3,0,0.3,0.1C321.3,380.6,321.3,380.6,321.2,380.8z M318.4,376.2
		l-0.8,0.8l-0.8-0.8l0.8-0.8L318.4,376.2z" id="PATH_65" class="area" title=""></path>
</g>
</svg>


